<svg width="80" height="24" fill="none" xmlns="http://www.w3.org/2000/svg"><g clip-path="url(#clip0_38_10987)" fill="#000"><path d="M2.957 11.1c0 .777.25 1.533.708 2.154a3.55 3.55 0 001.839 1.296c.735.22 1.52.192 2.238-.078a3.56 3.56 0 001.746-1.422h3.235a6.588 6.588 0 01-2.757 3.64 6.432 6.432 0 01-4.431.936 6.483 6.483 0 01-3.96-2.222A6.656 6.656 0 010 11.1c0-1.58.559-3.107 1.574-4.304a6.483 6.483 0 013.96-2.222 6.432 6.432 0 014.432.936 6.589 6.589 0 012.757 3.64H9.488a3.56 3.56 0 00-1.746-1.422 3.502 3.502 0 00-2.238-.078 3.55 3.55 0 00-1.839 1.296 3.634 3.634 0 00-.708 2.154zM14.818.018h2.958v1.2c0 .477-.187.935-.52 1.273a1.762 1.762 0 01-1.255.527h-1.183v-3zm1.775 4.8h1.183v12.6h-2.958v-10.8c0-.477.187-.935.52-1.273a1.762 1.762 0 011.255-.527zM29.956.6v4.968a6.432 6.432 0 00-6.651-.27 6.548 6.548 0 00-2.489 2.426A6.671 6.671 0 0019.9 11.1c0 1.188.317 2.355.916 3.376a6.549 6.549 0 002.49 2.426 6.433 6.433 0 006.65-.27v.768h2.958V.3l-2.958.3zm-3.55 14.1a3.513 3.513 0 01-1.97-.607 3.589 3.589 0 01-1.308-1.615 3.647 3.647 0 01-.202-2.08 3.62 3.62 0 01.971-1.844 3.534 3.534 0 011.818-.985 3.503 3.503 0 012.05.205A3.56 3.56 0 0129.358 9.1a3.637 3.637 0 01-.441 4.546 3.538 3.538 0 01-2.51 1.054zm19.593-9.696l-.959.096v.468a6.436 6.436 0 00-7.967.68 6.628 6.628 0 00-2.006 3.774 6.682 6.682 0 00.704 4.228c.23.43.508.833.828 1.2a6.482 6.482 0 003.961 2.183 6.432 6.432 0 004.41-.953c.023-.018.047-.03.07-.048v.768c0 .777-.249 1.533-.708 2.154a3.549 3.549 0 01-1.839 1.296c-.734.22-1.52.192-2.237-.078a3.56 3.56 0 01-1.746-1.422h-3.236a6.59 6.59 0 002.757 3.642 6.433 6.433 0 004.432.936 6.483 6.483 0 003.962-2.223 6.656 6.656 0 001.573-4.305V4.8l-2 .204zm-1.03 6.816c-.102.51-.312.99-.615 1.41a3.521 3.521 0 01-5.954-.36 3.642 3.642 0 01.139-3.766 3.564 3.564 0 011.467-1.272 3.505 3.505 0 013.69.448c.513.413.904.962 1.13 1.587.224.625.274 1.301.143 1.953zM50.068 0h2.958v1.2c0 .477-.187.935-.52 1.273A1.762 1.762 0 0151.251 3h-1.183V0zm1.775 4.8h1.183v12.6h-2.958V6.6a1.824 1.824 0 01.52-1.273 1.773 1.773 0 011.255-.527zm6.21 0h2.183v3h-2.183v4.908a1.713 1.713 0 00.489 1.197 1.663 1.663 0 001.18.495h.514v3h-.556a4.42 4.42 0 01-1.627-.306 4.602 4.602 0 01-2.146-1.708 4.704 4.704 0 01-.811-2.642V.6l2.957-.3v4.5zm14.335.99v.468a6.432 6.432 0 00-6.651-.27 6.549 6.549 0 00-2.49 2.426 6.672 6.672 0 000 6.752 6.55 6.55 0 002.49 2.426 6.434 6.434 0 006.65-.27v.768h2.959V5.49l-2.958.3zm-3.55 9.6a3.514 3.514 0 01-1.971-.607 3.589 3.589 0 01-1.308-1.615 3.649 3.649 0 01-.201-2.08c.136-.699.474-1.34.97-1.844a3.534 3.534 0 011.818-.985 3.503 3.503 0 012.05.205A3.561 3.561 0 0171.79 9.79a3.637 3.637 0 01-.442 4.546 3.52 3.52 0 01-2.509 1.054zM80 .3v17.79h-2.957V.6l2.958-.3z"/></g><defs><clipPath id="clip0_38_10987"><path fill="#fff" d="M0 0h80v24H0z"/></clipPath></defs></svg>