<svg width="148" height="52" fill="none" xmlns="http://www.w3.org/2000/svg"><path d="M103.935 5.656L86.429 19.723l7.762 6.184 8.454 6.723H91.789l-8.444-6.734-4.992-3.967-4.605 10.7h-8.182c-3.765 0-6.807-3.014-6.807-6.722h10.49l1.709-3.968H55.549c-3.765 0-6.807-3.014-6.807-6.722h25.1l1.71-3.968H45.469c-3.765 0-6.807-3.014-6.807-6.722H80.63c1.835 0 3.398 1.408 3.471 3.221a3.242 3.242 0 01-.304 1.533l-2.57 5.946L95.166 4.03l1.186-.953.157-.124a.697.697 0 00.189-.476c0-.394-.336-.705-.755-.705h-.567L95.86 0h13.635a.52.52 0 01.336.922l-5.895 4.734z" fill="#4AAB3C"/><path d="M4.468 41.072l-.42 2.9a9.474 9.474 0 01-.261 1.222 4.47 4.47 0 01-.472 1.078c.083.29.136.61.167.973a4.05 4.05 0 01-.031 1.016l-.514 3.532H0l1.52-10.721h2.948zm.535 4.174l-.262 1.948H2.864l.262-1.948h1.877zm5.413-4.174c-.326.766-.609 1.43-.84 1.978-.24.56-.461 1.026-.66 1.399-.2.383-.42.683-.65.911a2.491 2.491 0 01-.819.55c-.314.134-.703.217-1.143.268l-.021.094c.42.062.766.155 1.038.269.273.124.493.3.672.549.178.249.325.57.45.963.116.404.231.902.336 1.513.105.61.22 1.346.367 2.227h-3.03c-.137-.974-.253-1.761-.347-2.372-.094-.611-.2-1.067-.315-1.388-.115-.322-.283-.539-.482-.663-.21-.114-.504-.176-.881-.176l.168-1.948c.367 0 .67-.062.933-.197.252-.134.483-.362.703-.673.21-.31.44-.746.671-1.284.23-.54.493-1.212.787-2.02h3.063zm8.254 0c.23 0 .44.082.618.238a.935.935 0 01.325.57l1.542 9.913h-2.957l-.787-7.427c-.021-.197-.032-.394-.042-.57-.01-.187-.01-.373-.01-.56h-.441c-.042.156-.095.332-.147.529a4.575 4.575 0 01-.2.57l-2.978 7.458H10.52l4.373-10.027a1.01 1.01 0 01.399-.518c.178-.114.399-.176.64-.176h2.737zm.66 6.039l-.251 2.165h-5.665l.263-2.165h5.653zm8.455-6.039l-1.53 10.72h-2.948l1.531-10.72h2.947zm1.27-.156c1.049 0 1.877.114 2.486.332.608.228 1.017.6 1.237 1.14.21.538.252 1.284.116 2.226-.126.922-.346 1.637-.64 2.124a2.376 2.376 0 01-1.311 1.036c-.567.197-1.312.29-2.235.29-.503 0-.996-.02-1.489-.083a16.166 16.166 0 01-1.374-.197c-.42-.083-.787-.155-1.08-.248-.294-.083-.504-.166-.62-.239l.095-1.336h4.217c.335 0 .598-.031.797-.104.2-.072.346-.217.461-.445.105-.218.19-.56.252-1.015.053-.352.053-.622.01-.819a.62.62 0 00-.303-.424c-.168-.083-.4-.125-.714-.125-1.028 0-1.898.01-2.622.021a24.93 24.93 0 00-1.469.052l-.041-2.04c.45-.052.87-.084 1.269-.104.398-.02.818-.031 1.28-.042h1.678zm9.209.104c.619 0 1.248 0 1.877.01.63.01 1.238.021 1.825.052.588.031 1.123.073 1.605.135l-.325 2.071h-3.912c-.284 0-.493.052-.62.156-.136.103-.22.29-.261.56l-.682 4.899c-.042.228-.01.404.094.518.105.124.283.176.556.176h3.892L42.25 51.7c-.493.062-1.028.103-1.616.113l-1.772.032c-.598 0-1.175.01-1.731.01-.87 0-1.51-.249-1.909-.767-.41-.507-.556-1.17-.451-1.968l.84-5.832c.094-.694.366-1.243.828-1.647.45-.414 1.06-.621 1.825-.621zm-2.643 4.268h6.755l-.252 1.968h-6.808l.305-1.968zm19.572-4.216l-.252 1.957h-3.587c-.346 0-.598.063-.755.197-.158.135-.284.373-.368.725-.094.435-.189.86-.293 1.285-.105.414-.2.829-.305 1.222-.104.394-.21.777-.314 1.13-.105.362-.231.704-.346 1.014-.126.321-.252.612-.388.88-.357.716-.756 1.265-1.186 1.638-.44.383-.912.621-1.437.714a5.178 5.178 0 01-1.699.01l-.105-2.268.63-.124c.21-.042.409-.135.608-.27.189-.134.377-.373.545-.704.105-.186.21-.404.304-.663.095-.248.2-.539.294-.85.095-.31.189-.652.294-1.025.094-.373.21-.787.315-1.232.115-.456.22-.933.325-1.45.168-.726.482-1.264.933-1.637.462-.363 1.08-.55 1.878-.55h4.909zm.22 0l-1.531 10.72h-2.937l1.52-10.72h2.948zm10.637-.187c1.185 0 2.119.187 2.8.55.682.362 1.144.952 1.375 1.78.23.83.251 1.938.052 3.336-.178 1.347-.472 2.414-.87 3.201-.4.787-.955 1.357-1.668 1.699-.714.352-1.637.528-2.759.539-.86 0-1.573-.042-2.13-.125a9.163 9.163 0 01-1.573-.373l.357-2.113c.451.052.934.093 1.447.114.514.02 1.102.031 1.763.031.535-.01.954-.103 1.258-.3.304-.187.535-.508.713-.974.168-.456.315-1.098.441-1.916.094-.622.147-1.13.147-1.513 0-.393-.042-.683-.136-.89a.823.823 0 00-.462-.435c-.22-.083-.493-.125-.829-.125-.45 0-.85.01-1.206.021-.356.01-.682.01-.996.01-.315 0-.65.01-1.007.032l-.116-2.145a11.278 11.278 0 011.605-.3 14.515 14.515 0 011.794-.104zm3.807 4.403l-.283 1.968H62.84l.22-1.968h6.797zm7.017-4.216l-.42 2.9a8.002 8.002 0 01-.262 1.222 4.296 4.296 0 01-.472 1.078c.084.29.136.61.168.974a4.05 4.05 0 01-.032 1.015l-.503 3.521h-2.937l1.52-10.72h2.938v.01zm.535 4.174l-.273 1.948H75.27l.262-1.948h1.878zm5.412-4.174c-.325.766-.608 1.43-.839 1.978-.241.56-.451 1.026-.66 1.399-.21.383-.42.683-.651.911-.23.239-.504.415-.818.55-.315.134-.703.217-1.154.269l-.021.093c.42.062.766.155 1.038.27.273.123.493.3.682.548.178.249.325.57.451.963.116.404.231.902.336 1.513.105.61.22 1.346.356 2.227h-3.02c-.137-.974-.252-1.761-.347-2.372-.094-.611-.199-1.067-.314-1.388-.116-.321-.283-.539-.493-.663-.21-.114-.504-.176-.881-.176l.168-1.948c.367 0 .681-.062.933-.197.252-.134.483-.362.703-.673.21-.31.44-.746.671-1.284.23-.539.493-1.212.787-2.02h3.073zm6.809-.187c.534 0 .996.01 1.384.052a10.025 10.025 0 012.045.363l-.346 2.134a39.732 39.732 0 00-1.028-.042c-.315 0-.64-.01-.986-.02-.346 0-.745-.011-1.217-.011-.335 0-.619.041-.85.114-.23.083-.43.228-.587.445-.168.218-.304.539-.42.964-.115.424-.22.984-.293 1.657-.115.787-.168 1.398-.147 1.823.01.435.126.725.325.891.21.166.535.249.986.249.766 0 1.406-.01 1.91-.042.503-.02.996-.062 1.5-.103l.104 2.144c-.556.166-1.112.28-1.657.362-.546.073-1.206.104-1.983.104-1.164 0-2.087-.187-2.758-.55-.671-.362-1.112-.952-1.343-1.791-.22-.829-.23-1.937-.031-3.325.157-1.067.367-1.948.619-2.662.251-.705.576-1.254.986-1.658a3.408 3.408 0 011.541-.86c.63-.155 1.374-.238 2.245-.238zm9.345.187l-1.521 10.72h-2.958l1.521-10.72h2.958zm3.325 0l-.262 1.957h-3.462l.284-1.957h3.44zm2.78 0l-1.521 10.72h-2.969l1.521-10.72h2.969zm6.198 0l-1.521 10.72h-2.937l1.521-10.72h2.937zm1.28-.156c1.049 0 1.877.114 2.486.332.608.228 1.017.6 1.237 1.14.21.538.252 1.284.116 2.226-.126.922-.346 1.637-.651 2.124a2.374 2.374 0 01-1.311 1.036c-.566.197-1.311.29-2.234.29-.503 0-.996-.02-1.489-.083a15.35 15.35 0 01-1.364-.197 9.97 9.97 0 01-1.08-.248c-.294-.083-.504-.166-.609-.239l.095-1.336h4.216c.336 0 .598-.031.808-.104.199-.072.346-.217.451-.445.105-.218.189-.56.252-1.015.052-.352.052-.622.01-.819a.62.62 0 00-.304-.424c-.168-.083-.398-.125-.713-.125-1.028 0-1.899.01-2.622.021-.724.01-1.207.031-1.469.052l-.052-2.04c.451-.052.87-.084 1.269-.104.398-.02.818-.031 1.28-.042h1.678zm9.198.104c.619 0 1.248 0 1.878.01.629.01 1.237.021 1.825.052.587.031 1.122.073 1.604.135l-.325 2.071h-3.912c-.283 0-.493.052-.619.156-.136.103-.22.29-.262.56l-.672 4.899c-.041.228-.01.404.095.518.105.124.283.176.556.176h3.881l-.063 2.103c-.493.062-1.028.103-1.615.113l-1.773.032c-.598 0-1.175.01-1.731.01-.87 0-1.51-.249-1.909-.767-.409-.507-.556-1.17-.451-1.968l.839-5.832c.095-.694.367-1.243.829-1.647.451-.414 1.059-.621 1.825-.621zm-2.643 4.268h6.755l-.252 1.968h-6.818l.315-1.968zm14.967-4.403c.535 0 .997.01 1.385.052a10.06 10.06 0 012.045.363l-.346 2.134a39.732 39.732 0 00-1.028-.042c-.315 0-.64-.01-.986-.02-.346 0-.745-.011-1.217-.011-.335 0-.618.041-.849.114-.231.083-.43.228-.588.445-.167.218-.304.539-.419.964-.116.424-.22.984-.294 1.657-.115.787-.168 1.398-.147 1.823.011.435.126.725.325.891.21.166.535.249.986.249.766 0 1.406-.01 1.909-.042.504-.02.997-.062 1.5-.103l.105 2.144c-.556.166-1.112.28-1.657.362-.545.073-1.206.104-1.982.104-1.165 0-2.088-.187-2.759-.55-.671-.362-1.112-.952-1.343-1.791-.22-.829-.23-1.937-.031-3.325.157-1.067.367-1.948.619-2.662.251-.705.577-1.254.986-1.658a3.403 3.403 0 011.542-.86c.629-.155 1.374-.238 2.244-.238zm10.459 0c.535 0 .997.01 1.385.052a10.06 10.06 0 012.045.363l-.346 2.134a39.732 39.732 0 00-1.028-.042c-.315 0-.64-.01-.986-.02-.346 0-.745-.011-1.217-.011a2.83 2.83 0 00-.849.114c-.231.083-.43.228-.588.445-.167.218-.304.539-.419.964-.116.424-.22.984-.294 1.657-.115.787-.168 1.398-.147 1.823.011.435.126.725.325.891.21.166.535.249.986.249.766 0 1.406-.01 1.909-.042.504-.02.997-.062 1.5-.103l.105 2.144c-.556.166-1.112.28-1.657.362-.545.073-1.206.104-1.982.104-1.165 0-2.088-.187-2.759-.55-.671-.362-1.112-.952-1.343-1.791-.22-.829-.23-1.937-.031-3.325.157-1.067.367-1.948.619-2.662.251-.705.577-1.254.986-1.658a3.403 3.403 0 011.542-.86c.629-.155 1.374-.238 2.244-.238z" fill="#3B3B31"/></svg>