<svg width="165" height="58" fill="none" xmlns="http://www.w3.org/2000/svg"><path d="M115.874 6.308l-19.517 15.69 8.654 6.898 9.425 7.498h-12.103l-9.414-7.51-5.566-4.425-5.134 11.935h-9.121c-4.198 0-7.59-3.362-7.59-7.498h11.695l1.906-4.425H61.93c-4.198 0-7.59-3.362-7.59-7.498h27.984l1.906-4.426H50.693c-4.198 0-7.59-3.362-7.59-7.498h46.788c2.046 0 3.788 1.571 3.87 3.593a3.617 3.617 0 01-.339 1.71l-2.865 6.632 15.541-12.49 1.322-1.063.175-.138a.776.776 0 00.211-.532c0-.439-.375-.785-.842-.785h-.632L106.87 0h15.202c.55 0 .795.682.374 1.028l-6.572 5.28z" fill="#4AAB3C"/><path d="M4.982 45.81l-.468 3.236c-.059.439-.164.89-.293 1.363-.14.462-.315.867-.526 1.202.094.323.152.681.187 1.086a4.52 4.52 0 01-.035 1.132l-.573 3.94H0l1.696-11.958h3.286zm.596 4.657l-.292 2.172H3.192l.293-2.172h2.093zm6.034-4.656c-.363.855-.678 1.594-.935 2.207a21.178 21.178 0 01-.737 1.56 4.027 4.027 0 01-.725 1.016 2.745 2.745 0 01-.912.612c-.351.15-.784.243-1.275.3l-.023.105c.467.07.853.173 1.157.3.304.139.55.335.749.612.199.278.362.636.503 1.075.128.45.257 1.005.374 1.687.117.682.245 1.502.409 2.484h-3.38c-.152-1.086-.28-1.964-.385-2.646-.106-.681-.223-1.19-.351-1.548-.129-.358-.316-.6-.538-.74-.234-.127-.561-.196-.982-.196l.187-2.172c.409 0 .748-.07 1.04-.22.281-.15.538-.404.784-.75.234-.347.491-.832.748-1.433.258-.601.55-1.352.877-2.253h3.415zm9.203-.001c.257 0 .49.093.69.267.198.173.327.392.362.635l1.72 11.057h-3.299l-.877-8.284c-.023-.22-.035-.44-.046-.636-.012-.207-.012-.415-.012-.623h-.491c-.047.173-.105.37-.164.589-.058.22-.14.439-.222.635l-3.321 8.319h-3.426l4.876-11.184a1.13 1.13 0 01.444-.578 1.32 1.32 0 01.713-.196h3.053zm.736 6.737l-.28 2.414h-6.315l.292-2.414h6.303zm9.426-6.737l-1.708 11.96h-3.286l1.708-11.958h3.286zm1.415-.172c1.169 0 2.093.127 2.771.37.678.253 1.134.67 1.38 1.27.234.6.28 1.433.129 2.484-.14 1.028-.386 1.826-.714 2.369-.339.554-.818.935-1.462 1.155-.631.22-1.461.324-2.49.324-.562 0-1.111-.023-1.66-.093a18.014 18.014 0 01-1.533-.22c-.467-.092-.877-.173-1.204-.277-.328-.092-.562-.184-.69-.265l.105-1.49h4.701c.374 0 .667-.035.889-.116.222-.081.386-.243.514-.497.117-.243.21-.624.281-1.133.059-.392.059-.693.012-.912a.69.69 0 00-.34-.474c-.187-.092-.444-.139-.795-.139-1.146 0-2.116.012-2.923.023-.807.012-1.345.035-1.637.058l-.047-2.276c.503-.058.97-.092 1.415-.115.444-.023.912-.035 1.427-.046h1.87zm10.267.115c.69 0 1.392 0 2.093.011.702.012 1.38.024 2.035.058a24.64 24.64 0 011.79.15l-.363 2.311h-4.362c-.316 0-.55.058-.69.173-.152.116-.246.324-.292.624l-.76 5.465c-.047.255-.012.451.105.578.117.139.315.197.62.197h4.338l-.07 2.345c-.55.07-1.146.115-1.801.127l-1.977.035c-.666 0-1.31.011-1.929.011-.97 0-1.684-.277-2.128-.855-.456-.566-.62-1.305-.503-2.195l.935-6.505c.106-.774.41-1.386.924-1.837.503-.462 1.181-.693 2.035-.693zm-2.947 4.76h7.531l-.28 2.195h-7.59l.34-2.195zm21.821-4.703l-.28 2.184h-4c-.386 0-.666.07-.842.22-.175.15-.315.416-.409.809-.105.485-.21.959-.327 1.432-.117.463-.222.925-.34 1.364a43.8 43.8 0 01-.35 1.26 16.04 16.04 0 01-.386 1.131c-.14.359-.28.682-.433.983-.397.797-.842 1.409-1.321 1.825-.491.428-1.017.693-1.602.797a5.767 5.767 0 01-1.895.012l-.117-2.53.702-.14c.234-.045.456-.15.678-.3.21-.15.421-.416.608-.785.117-.208.234-.45.34-.74.105-.277.222-.6.327-.947.105-.347.21-.728.327-1.144.106-.416.234-.878.351-1.375.129-.508.246-1.04.363-1.617.187-.81.538-1.41 1.04-1.826.515-.404 1.205-.612 2.094-.612h5.472zm.246 0l-1.707 11.96h-3.275l1.696-11.958h3.286zm11.857-.207c1.322 0 2.362.208 3.122.612.76.404 1.275 1.063 1.532 1.987.257.925.28 2.16.059 3.72-.2 1.503-.526 2.693-.97 3.57-.445.879-1.065 1.514-1.86 1.896-.795.393-1.824.589-3.076.6-.959 0-1.754-.046-2.373-.138a10.226 10.226 0 01-1.755-.416l.398-2.357c.503.058 1.04.104 1.614.127.573.023 1.228.035 1.964.035.597-.012 1.065-.116 1.404-.335.339-.208.596-.567.795-1.087.187-.508.35-1.224.49-2.137.106-.693.165-1.26.165-1.687 0-.439-.047-.762-.152-.993a.917.917 0 00-.515-.486c-.245-.092-.55-.138-.924-.138-.503 0-.947.011-1.344.023-.398.011-.76.011-1.111.011s-.725.012-1.123.035l-.129-2.392a12.68 12.68 0 011.79-.335 16.34 16.34 0 012-.115zm4.245 4.91l-.316 2.195h-7.507l.245-2.195h7.578zm7.823-4.703l-.467 3.236a8.88 8.88 0 01-.293 1.363c-.14.474-.316.867-.526 1.202.093.323.152.681.187 1.086.035.404.023.774-.035 1.132l-.561 3.928h-3.275L82.43 45.8h3.274v.012zm.597 4.657l-.304 2.172h-2.082l.292-2.172h2.094zm6.034-4.656c-.363.855-.679 1.594-.936 2.207-.269.623-.503 1.143-.737 1.56-.233.427-.467.762-.725 1.016a2.743 2.743 0 01-.912.612c-.35.15-.783.243-1.286.3l-.023.105c.467.07.853.173 1.157.3.304.139.55.335.76.613.2.277.363.635.503 1.074.129.45.258 1.005.374 1.687.117.682.246 1.502.398 2.484H87.54c-.152-1.086-.28-1.964-.386-2.646-.105-.681-.222-1.19-.35-1.548-.13-.358-.316-.6-.55-.74-.234-.127-.561-.196-.982-.196l.187-2.172c.409 0 .76-.07 1.04-.22.281-.15.538-.404.784-.75.234-.347.491-.832.748-1.433.258-.6.55-1.352.877-2.253h3.427zm7.589-.208c.596 0 1.111.011 1.543.058a11.095 11.095 0 012.281.404l-.386 2.38c-.409-.023-.795-.035-1.146-.046-.351 0-.713-.012-1.099-.023-.386 0-.831-.012-1.357-.012-.374 0-.69.046-.947.127-.257.093-.48.254-.655.497-.187.243-.339.6-.468 1.075a12.323 12.323 0 00-.327 1.848c-.129.878-.187 1.56-.164 2.034.012.485.14.808.363.993.234.185.596.277 1.099.277.854 0 1.567-.011 2.128-.046.562-.023 1.111-.069 1.672-.115l.117 2.391c-.619.185-1.239.312-1.847.405-.608.08-1.345.115-2.21.115-1.298 0-2.328-.208-3.076-.612-.748-.404-1.24-1.063-1.497-1.999-.245-.924-.257-2.16-.035-3.709.176-1.19.41-2.172.69-2.969.28-.786.643-1.398 1.1-1.849.455-.45 1.028-.774 1.718-.959.702-.173 1.532-.265 2.503-.265zm10.419.207l-1.696 11.959h-3.297l1.695-11.958h3.298zm3.707 0l-.293 2.184h-3.858l.315-2.183h3.836zm3.099 0l-1.696 11.959h-3.309l1.695-11.958h3.31zm6.911 0l-1.696 11.959h-3.274l1.695-11.958h3.275zm1.426-.172c1.17 0 2.094.127 2.772.37.678.253 1.134.67 1.38 1.27.234.6.28 1.433.128 2.484-.14 1.028-.386 1.826-.725 2.369a2.647 2.647 0 01-1.461 1.155c-.632.22-1.462.324-2.491.324-.562 0-1.111-.023-1.661-.093a17.106 17.106 0 01-1.52-.22c-.479-.092-.877-.173-1.204-.277-.328-.092-.562-.184-.679-.265l.106-1.49h4.7c.375 0 .667-.035.901-.116.222-.081.386-.243.503-.497.117-.243.21-.624.28-1.133.059-.392.059-.693.012-.912a.692.692 0 00-.339-.474c-.187-.092-.444-.139-.795-.139-1.146 0-2.117.012-2.924.023a28.95 28.95 0 00-1.637.058l-.058-2.276c.503-.058.97-.092 1.415-.115.444-.023.912-.035 1.426-.046h1.871zm10.256.115c.69 0 1.392 0 2.093.011.702.012 1.38.024 2.035.058.655.035 1.251.081 1.789.15l-.362 2.311h-4.362c-.316 0-.55.058-.69.173-.152.116-.246.324-.293.624l-.748 5.465c-.047.255-.012.451.105.578.117.139.316.197.62.197h4.327l-.07 2.345c-.55.07-1.146.115-1.801.127l-1.976.035c-.667 0-1.31.011-1.93.011-.971 0-1.684-.277-2.128-.855-.456-.566-.62-1.305-.503-2.195l.935-6.505c.106-.774.41-1.386.924-1.837.503-.462 1.181-.693 2.035-.693zm-2.947 4.76h7.531l-.281 2.195h-7.601l.351-2.195zm16.687-4.91c.597 0 1.111.011 1.544.058a11.127 11.127 0 012.28.404l-.386 2.38c-.409-.023-.795-.035-1.146-.046-.35 0-.713-.012-1.099-.023-.386 0-.83-.012-1.356-.012-.374 0-.69.046-.947.127a1.36 1.36 0 00-.655.497c-.187.243-.339.6-.468 1.075a12.288 12.288 0 00-.328 1.848c-.128.878-.187 1.56-.163 2.034.011.485.14.808.362.993.234.185.597.277 1.099.277.854 0 1.567-.011 2.129-.046.561-.023 1.111-.069 1.672-.115l.117 2.391c-.62.185-1.24.312-1.848.405-.608.08-1.344.115-2.21.115-1.298 0-2.327-.208-3.075-.612-.749-.404-1.24-1.063-1.497-1.999-.246-.924-.257-2.16-.035-3.709.175-1.19.409-2.172.69-2.969.28-.786.643-1.398 1.099-1.849.456-.45 1.029-.774 1.719-.959.702-.173 1.532-.265 2.502-.265zm11.659 0c.596 0 1.111.011 1.543.058a11.127 11.127 0 012.28.404l-.385 2.38c-.41-.023-.796-.035-1.146-.046-.351 0-.714-.012-1.1-.023-.386 0-.83-.012-1.356-.012-.374 0-.69.046-.947.127a1.36 1.36 0 00-.655.497c-.187.243-.339.6-.468 1.075a12.303 12.303 0 00-.327 1.848c-.129.878-.187 1.56-.164 2.034.012.485.14.808.362.993.234.185.597.277 1.1.277.853 0 1.567-.011 2.128-.046.561-.023 1.111-.069 1.672-.115l.117 2.391c-.62.185-1.239.312-1.848.405-.608.08-1.344.115-2.21.115-1.298 0-2.327-.208-3.075-.612-.749-.404-1.24-1.063-1.497-1.999-.246-.924-.257-2.16-.035-3.709.175-1.19.409-2.172.69-2.969.281-.786.643-1.398 1.099-1.849.456-.45 1.029-.774 1.719-.959.702-.173 1.532-.265 2.503-.265z" fill="#3B3B31"/></svg>