<svg width="601" height="356" fill="none" xmlns="http://www.w3.org/2000/svg"><path fill-rule="evenodd" clip-rule="evenodd" d="M436.31 125.892c.32 23.491.214 68.552 1.922 99.518 1.709 31.072 5.126 48.05 7.688 57.66 2.67 9.61 4.485 11.853 9.077 14.949 4.591 3.097 11.959 7.048 22.744 8.115 10.785 1.068 25.201-.534 32.889-2.135 7.795-1.602 8.97-2.99 12.28-9.824 3.31-6.834 8.542-19.006 17.726-27.122 9.076-8.115 21.997-12.066 32.034-14.949 10.038-2.883 17.299-4.698 21.25-8.542 4.057-3.844 4.805-9.61 4.057-22.53-.747-12.921-3.096-32.781-6.193-45.274-3.097-12.494-7.047-17.405-16.765-27.122-9.717-9.717-25.307-24.239-38.227-33.208-12.921-8.97-23.279-12.387-35.559-16.23-12.28-3.845-26.588-8.33-37.587-8.436-10.998-.214-18.793 3.844-23.172 5.873-4.378 2.028-5.232 2.028-5.232 2.99 0 1.067.748 2.882 1.068 26.267z" fill="#5DC94C"/><path fill-rule="evenodd" clip-rule="evenodd" d="M138.176 295.99c.107 2.456.107 5.339.534 6.941.427 1.602 1.388 1.815 2.99 1.922 1.708.107 4.057 0 5.339.107 1.281.107 1.281.427 1.281 1.281 0 .961 0 2.456-.32 3.203-.214.855-.641.961-1.495 1.282-.855.427-2.029 1.068-2.563 2.242-.534 1.175-.427 2.67.427 3.737.854.961 2.456 1.388 4.912 1.495 2.563.107 6.087 0 22.104-.107 16.017-.106 44.528-.32 64.923-.961 20.395-.747 32.675-2.028 45.489-3.523s26.268-3.204 38.762-4.592c12.387-1.388 23.705-2.349 35.345-2.349 11.639 0 23.598 1.175 30.219 1.815 6.62.641 7.902.961 14.629 1.068 6.62.107 18.58.107 24.56.107 5.979 0 6.086 0 6.086.854v3.417c0 .854.107.854 6.3.748l24.667-.428 6.193-.106v1.388c0 1.388.107 4.057.214 5.339.107 1.388.213 1.388.427 1.495.213.106.427.213 11.853-.427 11.425-.641 34.17-1.922 57.128-4.272 22.958-2.349 46.13-5.552 60.011-7.047 13.882-1.495 18.58-1.175 21.57-.961 2.99.214 4.271.32 15.377-.107 11.105-.427 31.927-1.495 42.392-1.922 10.465-.534 10.465-.534 9.504-1.601-.961-1.068-2.777-3.204-4.699-5.019-1.922-1.922-3.951-3.524-13.454-11.639-9.504-8.222-26.482-22.957-42.927-30.966-16.444-8.008-32.141-9.183-44.207-8.756-11.96.428-20.075 2.456-28.938 9.824-8.756 7.368-18.26 19.968-24.133 27.762-5.873 7.902-8.222 10.999-19.968 12.814-11.746 1.815-32.889 2.456-44.528-.748-11.639-3.203-13.775-10.144-18.58-12.172-4.805-2.136-12.28.64-50.187 1.174-37.908.427-106.355-1.388-150.669-2.456-44.315-1.067-64.603-1.495-77.951-1.815-13.347-.32-19.861-.534-23.599.427-3.737.961-4.805 2.883-5.125 5.019-.107 1.922.107 4.057.107 6.513z" fill="#2B2923"/><path d="M421.574 0H0v255.735h421.574V0z" fill="#4AAB3C"/><path fill-rule="evenodd" clip-rule="evenodd" d="M364.873 299.728c43.994-.107 52.964-.107 57.449-.107h4.485l-.107-1.068c-.107-1.068-.427-3.31-.854-8.863-.428-5.659-.961-14.628-1.175-20.928-.32-6.193-.32-9.61-.32-11.319v-1.708H32.889v2.456c0 2.456-.107 7.261-.107 9.717v2.669c0 .214-.106.748-.106 2.883-.107 2.029-.107 5.766-.214 7.581v1.816h25.52s-.106 0-.106 2.883 0 8.649.107 11.532v3.31c0 .107.107.107 17.512.107 17.512 0 52.43 0 109.451-.214 56.808-.32 135.933-.641 179.927-.747z" fill="#36342B"/><path d="M425.312 265.131H14.522v16.979h410.79v-16.979z" fill="#3F3D2E"/><path d="M405.129 265.131h-95.356v48.478h95.356v-48.478z" fill="#3F3D2E"/><path fill-rule="evenodd" clip-rule="evenodd" d="M143.835 298.98l-.534 1.495h-5.019l.641-1.922c.641-1.922 1.815-5.873 4.805-11.105 2.99-5.232 7.795-11.746 11.96-16.444 4.164-4.698 7.581-7.581 10.357-9.824 2.884-2.242 5.126-3.844 6.301-4.591 1.174-.747 1.174-.747 5.766-.747h39.829c3.417 0 3.417 0 4.912.854 1.602.854 4.699 2.456 8.543 4.912 3.844 2.562 8.329 5.872 12.493 10.464 4.165 4.485 7.902 10.251 9.931 15.056 2.029 4.911 2.242 8.969 2.349 10.998l.107 2.029h-4.592l-.106-1.282c-.107-1.281-.428-3.844-1.495-7.154-1.068-3.31-2.99-7.474-4.912-10.784-2.029-3.417-4.165-5.98-7.368-8.97-3.204-2.99-7.582-6.3-10.785-8.435-3.204-2.136-5.126-2.99-6.194-3.417-1.067-.427-1.281-.321-8.329-.427-6.94 0-20.715-.107-27.656-.214h-6.834l-2.136 1.281c-2.135 1.282-6.407 3.844-10.571 7.475-4.164 3.63-8.115 8.222-11.212 12.279-2.99 4.058-5.126 7.582-6.727 10.892-1.816 3.203-2.99 6.193-3.524 7.581z" fill="#737160"/><path d="M198.186 355.893c25.477 0 46.13-20.078 46.13-44.847 0-24.768-20.653-44.847-46.13-44.847-25.476 0-46.129 20.079-46.129 44.847 0 24.769 20.653 44.847 46.129 44.847z" fill="#4F4D3E"/><path d="M198.186 340.517c16.749 0 30.326-13.195 30.326-29.471s-13.577-29.471-30.326-29.471c-16.748 0-30.326 13.195-30.326 29.471s13.578 29.471 30.326 29.471z" fill="#807E6D"/><path fill-rule="evenodd" clip-rule="evenodd" d="M198.187 331.548c10.784 0 19.541-8.863 19.541-19.754 0-10.892-8.757-19.754-19.541-19.754-10.785 0-19.541 8.862-19.541 19.754 0 10.891 8.756 19.754 19.541 19.754z" fill="#737160"/><path fill-rule="evenodd" clip-rule="evenodd" d="M425.846 279.76c.213 11.852.32 13.881.533 15.269.107 1.495.321 2.456.534 4.058.321 1.495.748 3.63 1.175 5.019.427 1.388.961 2.242 1.922 2.883.961.64 2.242 1.067 5.339 1.067 3.097 0 8.009-.427 14.95-.32 6.94 0 15.803.534 24.025 1.281 8.223.748 15.697 1.602 21.677 2.777 5.98 1.174 10.465 2.562 14.309 3.63 3.844 1.068 6.941 1.815 8.969 1.602 2.029-.107 2.884-1.068 3.738-2.883.961-1.709 1.922-4.271 3.417-8.222 1.495-3.951 3.524-9.397 6.193-15.59 2.67-6.193 6.087-13.134 10.892-19.007 4.805-5.979 10.998-10.891 18.046-13.881 7.154-2.99 15.27-3.951 23.172-3.844 7.901.107 15.697 1.282 21.57 3.204 5.873 1.922 9.717 4.591 12.279 6.833 2.563 2.243 3.845 4.058 4.592 4.912.641.961.641.961 1.175.641.534-.32 1.495-.854 2.776-2.029 1.281-1.174 2.883-2.883 3.631-3.844.747-.854.747-.854-1.816-2.99-2.562-2.135-7.688-6.3-15.056-9.61-7.368-3.31-17.085-5.659-25.841-6.407-8.756-.747-16.551.214-23.172 1.923-6.62 1.815-12.066 4.377-16.658 7.367-4.698 2.99-8.542 6.3-11.425 9.397-2.883 3.096-4.805 6.086-7.048 9.93-2.136 3.844-4.592 8.436-6.3 11.639-1.709 3.203-2.776 5.125-3.417 6.3-.641 1.175-.961 1.708-1.175 2.029-.213.32-.534.534-1.281.747-.747.107-2.029.214-10.251.321-8.329.106-23.599.213-31.928.213-8.436 0-9.93-.213-11.746-.854-1.815-.641-3.844-1.709-5.552-3.31-1.709-1.495-2.884-3.524-3.738-6.621-.747-3.096-.961-7.26-1.281-15.91-.214-8.649-.427-21.676-.748-36.197-.32-14.522-.64-30.432-1.388-51.895-.747-21.462-1.815-48.371-2.456-61.825l-.534-13.454h-17.192c-3.63 0-4.164.107-4.805 2.136-.64 2.028-1.495 5.979-1.601 25.947-.107 19.968.32 55.845.747 84.782.32 29.044.534 50.827.748 62.786z" fill="#4AAB3C"/><path fill-rule="evenodd" clip-rule="evenodd" d="M492.37 98.984c6.194.213 11.426.64 16.658 1.922 5.232 1.281 10.571 3.524 13.241 4.698 2.67 1.068 2.776 1.068 2.883.961.107-.107.32-.427.748-.854a67.453 67.453 0 002.242-2.349c1.175-1.282 2.883-3.097 3.844-4.165.961-1.067 1.175-1.28 3.417.534 2.243 1.709 6.514 5.446 19.434 16.551 13.028 11.105 34.705 29.684 47.625 41.003 12.921 11.212 17.085 15.163 19.114 17.191 2.029 1.922 2.029 1.922 2.99 1.922.961 0 2.776-.106 3.951 0 1.068 0 1.495.214 1.815.641.32.427.748 1.175 1.175 1.815.534.641 1.067 1.175 1.815 1.602.747.427 1.495.854 3.844 1.708 2.349.855 6.193 2.35 8.329 3.204 2.136.961 2.563 1.388 2.67 1.708.213.321.106.641-5.873 1.388-5.98.748-18.046 1.922-28.298 2.563-10.251.641-18.9.747-23.385.854-4.378 0-4.698 0-4.805-.213-.107-.321-.107-.961-.32-3.417-.107-2.456-.427-6.941-.748-9.503-.32-2.563-.534-3.311-1.708-5.233-1.175-1.922-3.417-5.018-6.834-9.503-3.417-4.378-8.116-10.144-14.629-16.871-6.621-6.727-15.057-14.522-20.93-19.754-5.873-5.232-8.969-7.902-12.707-10.571-3.737-2.67-7.901-5.339-12.173-7.261-4.164-1.922-8.329-3.203-14.202-3.951-5.873-.747-13.454-.961-22.744-1.174-9.29-.107-20.182-.107-27.55-.107h-14.736c-3.31 0-6.086.107-7.474.107-1.389 0-1.389 0-1.068-.534.32-.534 1.068-1.602 1.708-2.563a50.753 50.753 0 011.495-2.136c.321-.427.321-.427.427-.427h6.728c6.62 0 19.968-.106 30.219-.213 10.464.106 17.619.213 23.812.427z" fill="#4F4D3E"/><path fill-rule="evenodd" clip-rule="evenodd" d="M439.62 98.77h-7.474c-.321 0-.321 0-.214-.747.107-.747.214-2.135 1.281-3.737 1.068-1.602 3.097-3.524 4.592-4.805 1.495-1.388 2.456-2.136 3.203-2.563.748-.427 1.389-.32 7.155-.32h24.346c7.688 0 12.28.106 16.231.213 3.951.107 7.261.214 11.426.854 4.164.534 9.076 1.602 13.988 3.097 5.019 1.495 10.037 3.524 13.241 4.912 3.203 1.388 4.485 2.029 5.125 2.35.641.32.534.32 0 .853-.533.428-1.495 1.389-2.669 2.67a94.845 94.845 0 00-3.417 3.631c-.854.854-1.068 1.174-1.175 1.281l-.107.107-.533-.214c-.534-.213-1.709-.641-3.417-1.281-1.709-.641-4.058-1.495-6.087-2.243-2.136-.747-4.058-1.281-5.659-1.708-1.602-.427-2.884-.748-4.165-.961-1.281-.214-2.563-.427-4.058-.534-1.495-.214-3.31-.32-5.766-.427-2.456-.107-5.659-.214-10.892-.32-5.232-.107-12.493-.107-19.541-.107-7.047 0-13.774 0-17.939.106-4.271-.106-5.659-.106-7.475-.106z" fill="#5DC94C"/><path fill-rule="evenodd" clip-rule="evenodd" d="M541.276 117.456a7388.712 7388.712 0 0030.433 27.763c11.426 10.357 21.677 19.861 27.229 24.666 5.446 4.912 6.194 5.125 6.728 5.232.64 0 1.174-.107 2.242-.747 1.068-.534 2.776-1.495 3.844-2.136.961-.641 1.388-1.068 1.495-1.388.214-.321.214-.427.107-.641-.107-.213-.32-.427-12.6-10.784-12.28-10.358-36.52-30.966-49.013-41.537-12.493-10.571-13.241-11.212-13.775-11.532-.534-.321-.854-.428-1.174-.214-.321.107-.534.427-1.068 1.068-.534.64-1.388 1.708-1.495 2.562-.107 1.068.534 1.709 7.047 7.688z" fill="#F9F9F9"/><path fill-rule="evenodd" clip-rule="evenodd" d="M456.918 120.553c.321 6.62.961 19.007 1.495 29.791.641 10.678 1.175 19.755 2.777 25.093 1.495 5.339 3.951 6.941 8.222 8.436 4.271 1.495 10.464 2.99 20.822 4.164 10.358 1.068 24.987 1.922 37.053 2.349 12.174.428 21.891.534 27.123.534h6.621c.427 0 .427 0 .533 1.068 0 1.068.107 3.203.321 4.378.107 1.175.32 1.495 1.495 1.495 1.174 0 3.203-.214 4.378-.427 1.174-.214 1.388-.427 3.096-2.456 1.816-2.029 5.126-5.873 6.834-8.329 1.709-2.456 1.816-3.523 1.816-5.018 0-1.495-.214-3.524-1.282-6.194-.961-2.562-2.883-5.766-5.659-9.823-2.883-3.951-6.727-8.756-10.678-13.454-3.844-4.592-7.795-8.97-12.814-13.775s-11.105-10.037-16.765-14.308c-5.659-4.271-10.892-7.581-16.765-9.93-5.872-2.456-12.173-3.951-20.502-5.126-8.329-1.068-18.473-1.815-24.88-1.922-6.3-.213-8.649 0-10.358.961-1.601.961-2.562 2.67-2.989 3.844-.321 1.281-.214 2.029.106 8.649z" fill="#4F4D3E"/><path fill-rule="evenodd" clip-rule="evenodd" d="M461.297 126.106c.321 7.688 1.068 21.462 1.816 30.645.747 9.29 1.388 13.988 2.242 16.764.854 2.883 2.029 3.844 3.203 4.485 1.282.641 2.563.961 5.233 1.602 2.562.64 6.407 1.495 11.852 2.456 5.553.854 12.708 1.708 18.474 2.349 5.766.64 10.037 1.067 12.28 1.281 2.349.214 2.669.214 2.883-.107.213-.32.213-.961-.961-11.639-1.175-10.677-3.631-31.606-5.019-42.818-1.388-11.212-1.709-12.813-1.922-13.561-.214-.854-.32-.854-2.67-1.708-2.349-.854-6.834-2.349-13.347-3.417-6.407-1.068-14.843-1.709-20.182-1.922-5.446-.32-7.902-.214-9.504 0-1.601.213-2.349.534-2.883.854-.534.32-.961.641-1.281 1.388-.321.641-.534 1.602-.641 2.883.107 1.068 0 2.67.427 10.465zm56.701 5.979c1.174 10.251 3.31 29.258 4.485 39.722 1.174 10.464 1.495 12.279 1.708 13.24.214.961.214.961 6.407 1.175 6.193.214 18.58.534 24.773.747 6.301.214 6.407.214 6.514.107.107 0 .107-.107.32-4.698.107-4.591.321-13.668.321-18.366s-.214-4.912-.961-5.873c-.748-1.068-2.136-2.99-5.446-6.62-3.31-3.631-8.543-9.076-13.455-13.668-4.912-4.591-9.503-8.222-13.027-11.105-3.631-2.776-6.193-4.698-8.222-5.979-1.922-1.282-3.204-1.922-3.951-2.029-.748-.214-.961 0-.961.854s.32 2.349 1.495 12.493z" fill="#F9F9F9"/><path fill-rule="evenodd" clip-rule="evenodd" d="M612.606 191.134c1.709-.107 3.524-.214 5.233-.321 1.708-.106 3.31-.213 4.164-.32l.854-.107 6.407 4.378c6.407 4.378 19.114 13.027 26.375 18.046 7.155 4.912 8.757 6.086 9.611 6.727.854.534.854.534 7.261 6.3a5617.902 5617.902 0 0025.734 22.957l6.407 5.766.641 1.495 2.563 5.98.64 1.495h-12.92c-12.921 0-38.655-.107-51.576-.107h-12.92l-.641-.748c-.641-.747-1.815-2.135-3.417-3.523-1.495-1.388-3.31-2.67-5.232-3.844-1.922-1.282-4.058-2.456-6.941-3.738-2.883-1.281-6.514-2.669-9.611-3.63-2.989-.961-5.445-1.602-8.008-2.029-2.563-.534-5.126-.854-6.834-1.068-1.709-.213-2.349-.32-2.777-.32h-.32v-2.669c0-2.67-.107-8.116-.107-16.872v-32.994h1.495c1.495 0 4.592 0 8.009-.107 3.417-.107 7.154-.213 9.931-.32 2.562-.214 4.271-.321 5.979-.427z" fill="#5DC94C"/><path fill-rule="evenodd" clip-rule="evenodd" d="M456.812 212.062c21.036.427 60.439 1.175 90.017 2.029 29.472.854 49.013 1.602 63.001 2.776 13.882 1.068 22.211 2.563 26.269 4.272 4.057 1.708 3.951 3.737 3.63 4.912-.427 1.174-1.068 1.601-2.456 1.922-1.388.32-3.417.534-10.998.534-7.688 0-20.929 0-53.284-.534-32.355-.427-83.824-1.282-110.412-1.709-26.696-.427-28.618-.427-29.899-.854-1.282-.427-2.029-1.175-2.35-3.097-.427-1.815-.533-4.805-.32-6.727.107-2.029.534-2.99 2.029-3.524 1.175-.427 3.737-.427 24.773 0z" fill="#47A639"/><path d="M578.863 355.893c25.477 0 46.13-20.078 46.13-44.847 0-24.768-20.653-44.847-46.13-44.847-25.477 0-46.13 20.079-46.13 44.847 0 24.769 20.653 44.847 46.13 44.847z" fill="#4F4D3E"/><path d="M578.863 340.517c16.749 0 30.326-13.195 30.326-29.471s-13.577-29.471-30.326-29.471c-16.749 0-30.326 13.195-30.326 29.471s13.577 29.471 30.326 29.471z" fill="#807E6D"/><path fill-rule="evenodd" clip-rule="evenodd" d="M578.863 331.548c10.785 0 19.541-8.863 19.541-19.754 0-10.892-8.756-19.754-19.541-19.754s-19.541 8.862-19.541 19.754c0 10.891 8.756 19.754 19.541 19.754z" fill="#737160"/><path d="M409.08 12.707H11.212V242.28H409.08V12.706z" fill="#4F4D3E"/><path fill-rule="evenodd" clip-rule="evenodd" d="M11.212 242.281V12.706l42.82 18.473v171.273l-42.82 39.829z" fill="#6A6856"/><path fill-rule="evenodd" clip-rule="evenodd" d="M11.212 242.281l42.82-39.829h315.005l40.043 39.829H11.212z" fill="#403E32"/><path fill-rule="evenodd" clip-rule="evenodd" d="M409.08 242.281V12.706L369.037 31.18v171.273l40.043 39.829z" fill="#6A6856"/><path fill-rule="evenodd" clip-rule="evenodd" d="M409.08 12.707H11.212l42.82 18.473h315.005l40.043-18.474z" fill="#6A6856"/><path fill-rule="evenodd" clip-rule="evenodd" d="M314.685 207.044l19.328.32-1.602-36.198-19.221.107 1.495 35.771zm32.783-1.175l19.327-.747-1.602-35.024-19.22.855 1.495 34.916z" fill="#929293"/><path fill-rule="evenodd" clip-rule="evenodd" d="M367.97 164.973c-2.883 2.776-5.126 5.019-6.728 6.727-20.715-2.242-44.1-3.203-70.475-2.99 2.456-2.349 6.94-4.378 13.454-6.086 38.014.427 59.264 1.174 63.749 2.349z" fill="#DBB158"/><path fill-rule="evenodd" clip-rule="evenodd" d="M367.649 222.633c-4.272 6.194-6.087 7.902-6.087 7.902-.641-20.074-.747-38.334-.427-58.835a199.367 199.367 0 016.727-6.727c.214 38.974-.213 57.66-.213 57.66z" fill="#DBB158"/><path fill-rule="evenodd" clip-rule="evenodd" d="M361.242 171.807c-.32 17.298-.32 35.557.427 58.835-41.324-.534-71.223-2.456-71.223-2.456-.321-30.432-.214-50.293.32-59.369 23.599-.427 46.984.641 70.476 2.99zm-60.331-6.193c-.32 0-.534-.214-.534-.641 0-.32.214-.641.534-.641 10.144-.32 20.502-.213 30.86.214a542.719 542.719 0 0131.607 2.242c.32 0 .534.321.427.641 0 .32-.213.534-.534.534-10.678-1.068-21.142-1.922-31.5-2.243-10.465-.32-20.716-.427-30.86-.106z" fill="#F7CE66"/><path fill-rule="evenodd" clip-rule="evenodd" d="M320.131 169.031c3.524.106 6.941.213 10.144.427.427-.427-.107 25.733 0 36.198 0 0-10.037-.428-10.464-.428-.107 0 0-12.065.32-36.197z" fill="#F9F9F9"/><path fill-rule="evenodd" clip-rule="evenodd" d="M330.275 169.458c-6.727-.32-10.144-.427-10.144-.427a2944.22 2944.22 0 009.183-5.98c4.378.107 6.621.107 6.621.107-3.845 4.164-5.66 6.3-5.66 6.3z" fill="#E1E2E1"/><path fill-rule="evenodd" clip-rule="evenodd" d="M312.549 136.784c.641 6.62 1.816 18.259 2.456 24.345.641 6.086.641 6.514 2.883 6.834 2.243.32 6.834.641 11.212.534 4.272-.107 8.436-.748 10.572-1.068 2.135-.32 2.456-.427 3.203-6.407.748-5.979 1.922-17.938 2.563-23.918.641-5.98.641-5.98.641-6.62 0-.641 0-1.816-1.068-2.349-1.068-.641-3.31-.641-8.222-.641-4.912-.107-12.601-.214-17.192-.321-4.592-.106-6.194-.106-6.834.748-.961.747-.854 2.242-.214 8.863z" fill="#FDE742"/><path fill-rule="evenodd" clip-rule="evenodd" d="M309.24 130.697c1.388.427 3.737 1.282 7.047 1.816 3.311.533 7.475.854 11.64.854 4.164 0 8.222-.214 11.746-.641 3.523-.427 6.513-1.174 8.115-1.602 1.602-.427 2.029-.64 2.242-.854.214-.213.321-.427.321-1.815v-5.232c0-1.282 0-1.282-2.029-1.709-2.029-.427-6.087-1.175-11.96-1.495-5.979-.32-13.775-.213-18.9.107-5.126.32-7.688.747-8.97.961-1.281.213-1.281.32-1.281 1.708 0 1.389 0 4.272.107 5.66.106 1.602.534 1.708 1.922 2.242z" fill="#FBD16B"/><path fill-rule="evenodd" clip-rule="evenodd" d="M311.589 123.436c1.815.534 5.66.961 10.251 1.175 4.592.32 9.824.427 14.095.32a97.75 97.75 0 009.184-.641c1.815-.32 2.349-.533 2.349-.747 0-.214-.534-.534-2.349-.961-1.816-.534-4.912-1.281-10.038-1.602-5.125-.32-12.173-.107-16.765.107-4.484.214-6.407.427-7.474.854-.961.427-1.068.961.747 1.495z" fill="#080902"/><path fill-rule="evenodd" clip-rule="evenodd" d="M324.829 120.553c-.854-3.951-2.029-11.746-2.135-20.822-.107-9.076.854-19.327 3.096-27.121 2.243-7.795 5.766-13.027 8.97-17.299 3.203-4.27 5.98-7.58 7.368-9.183 1.388-1.601 1.388-1.388 1.068 4.058-.321 5.553-1.068 16.444-2.563 25.2s-3.738 15.483-6.087 21.249c-2.349 5.873-4.698 10.784-5.979 15.269-1.282 4.485-1.495 8.436-1.602 10.464-.107 2.029-.107 2.029-.427 2.029-.214.107-.855 0-1.709-3.844z" fill="#47B909"/><path fill-rule="evenodd" clip-rule="evenodd" d="M325.257 118.524c0-3.417-.107-10.998-2.136-18.152-2.029-7.261-5.873-14.202-10.144-19.327-4.271-5.125-8.863-8.542-12.066-10.571-3.097-2.029-4.699-2.883-5.553-2.883-.854 0-.854.747-.534 2.883.32 2.135.961 5.66 2.67 9.61 1.708 4.057 4.378 8.542 7.368 12.28 2.989 3.843 6.086 6.833 8.756 10.037 2.669 3.096 4.698 6.3 6.513 9.289 1.816 2.99 3.204 5.873 4.058 7.688.854 1.816 1.068 2.563 1.068-.854z" fill="#64C324"/><path fill-rule="evenodd" clip-rule="evenodd" d="M333.479 108.061c.641-2.136 2.563-6.407 6.407-9.718 3.844-3.31 9.397-5.552 13.454-6.727 4.058-1.281 6.514-1.388 7.689-1.388 1.174 0 1.067.32.64 1.281-.427.961-1.174 2.563-2.669 4.912-1.495 2.35-3.844 5.553-7.048 8.009-3.31 2.456-7.475 4.164-10.571 5.019-3.097.854-5.019.747-6.407.747-1.495 0-2.136 0-1.495-2.135z" fill="#47B909"/><path fill-rule="evenodd" clip-rule="evenodd" d="M301.658 77.628a.324.324 0 010-.427c.107-.107.321-.107.427 0 2.883 3.63 5.873 7.154 8.543 10.891 2.669 3.738 5.232 7.475 7.261 11.426 2.029 3.95 3.631 8.008 5.126 12.172 1.388 4.165 2.562 8.436 3.737 12.707 0 .214-.107.32-.214.427-.213 0-.32-.107-.427-.213-1.174-4.271-2.349-8.436-3.737-12.6-1.388-4.165-2.99-8.222-5.019-12.173-2.029-3.95-4.485-7.688-7.261-11.319-2.563-3.737-5.446-7.26-8.436-10.891z" fill="#389E00"/><path fill-rule="evenodd" clip-rule="evenodd" d="M336.469 61.291c.107-.214.214-.214.427-.214.214.107.214.214.214.428-.961 2.349-1.816 4.804-2.67 7.367a141.482 141.482 0 00-2.563 8.97c-.747 3.203-1.495 6.727-2.028 10.57-.748 4.379-1.389 9.077-2.029 13.455-1.068 8.115-1.816 15.376-2.456 22.53 0 .214-.214.32-.427.32-.214 0-.321-.213-.321-.427.748-7.261 1.388-14.522 2.456-22.637.534-4.378 1.282-9.076 2.029-13.454a183.871 183.871 0 012.136-10.57 145.577 145.577 0 012.562-9.077c.748-2.456 1.709-4.912 2.67-7.261zm17.192 34.169c.213-.106.32 0 .427.107.107.214 0 .32-.107.427-4.485 2.776-8.969 5.446-12.386 7.795-1.709 1.175-3.097 2.243-4.379 3.204-1.281.961-2.242 2.029-3.203 2.99a15.244 15.244 0 00-2.349 2.989 18.895 18.895 0 00-1.602 3.311c-.854 2.456-1.174 5.339-1.602 8.222 0 .213-.213.32-.427.32-.213 0-.32-.213-.32-.427.427-2.883.747-5.873 1.602-8.329.427-1.281.961-2.456 1.708-3.524.641-1.068 1.495-2.135 2.456-3.096.961-.961 2.029-2.029 3.204-2.99a57.706 57.706 0 014.378-3.31c3.523-2.243 8.115-4.912 12.6-7.689z" fill="#389E00"/><path fill-rule="evenodd" clip-rule="evenodd" d="M109.345 199.463l-18.9.321 1.174-29.259 18.9.107-1.174 28.831zm-32.142-.961l-19.007-.534 1.175-28.297 19.007.641-1.175 28.19z" fill="#929293"/><path fill-rule="evenodd" clip-rule="evenodd" d="M56.701 165.507c2.883 2.242 5.126 4.058 6.727 5.446 20.289-1.815 43.354-2.563 69.195-2.349-2.456-1.922-6.834-3.524-13.241-4.912-37.48.213-58.303.747-62.68 1.815z" fill="#DBB158"/><path fill-rule="evenodd" clip-rule="evenodd" d="M56.915 212.703c4.271 5.019 6.407 7.474 6.407 7.474.427-16.23.427-32.674 0-49.224a83.111 83.111 0 00-6.727-5.446l.32 47.196z" fill="#DBB158"/><path fill-rule="evenodd" clip-rule="evenodd" d="M63.322 170.953c.534 13.988.534 30.431 0 49.225 46.664-2.35 69.942-3.524 69.942-3.524.107-24.666-.213-40.683-.854-48.051-22.958-.32-46.023.428-69.088 2.35z" fill="#F7CE66"/><path fill-rule="evenodd" clip-rule="evenodd" d="M122.586 166.041c.32 0 .534-.214.534-.427 0-.321-.214-.534-.428-.534-10.037-.214-20.074-.214-30.325.107-10.252.32-20.503.961-30.967 1.815-.32 0-.427.213-.427.534 0 .32.213.427.534.427 10.464-.854 20.715-1.495 30.966-1.815 10.038-.321 20.075-.321 30.113-.107z" fill="#FBD16B"/><path fill-rule="evenodd" clip-rule="evenodd" d="M103.792 168.817c-3.524.107-6.834.214-9.93.32-.428-.32.32 20.823.32 29.259 0 0 9.824-.321 10.357-.321-.106-.106-.32-9.824-.747-29.258z" fill="#F9F9F9"/><path fill-rule="evenodd" clip-rule="evenodd" d="M93.755 169.138l9.931-.321c-6.087-3.203-9.077-4.912-9.077-4.912-4.378.107-6.513.107-6.513.107 3.844 3.417 5.66 5.126 5.66 5.126z" fill="#E1E2E1"/><path d="M87.526 175.818l-17.52 1.862 1.253 11.786 17.52-1.862-1.253-11.786z" fill="#F9F9F9"/><path fill-rule="evenodd" clip-rule="evenodd" d="M84.25 174.156l-19.22-6.62-.427-62.039 19.968 3.204-.32 65.455z" fill="#DBB158"/><path fill-rule="evenodd" clip-rule="evenodd" d="M84.25 174.156l.32-65.455 21.677-1.282-.747 64.708-21.25 2.029z" fill="#F7CE66"/><path fill-rule="evenodd" clip-rule="evenodd" d="M106.247 107.313l-21.676 1.815-19.968-3.737 20.715-.748 20.929 2.67z" fill="#DBA757"/><path fill-rule="evenodd" clip-rule="evenodd" d="M97.598 108.06l-6.94.534.426 41.644 6.834-.427-.32-41.751zm-6.941.534l6.941-.534-18.046-3.203-2.563.106v1.175l13.668 2.456z" fill="#F9F9F9"/><path fill-rule="evenodd" clip-rule="evenodd" d="M66.098 224.769c-2.242-.107-5.232-.214-7.581-.32-2.35-.107-3.845-.214-5.233-.427-1.388-.107-2.67-.321-3.417-.534-.747-.107-1.067-.214-1.281-.321a1.304 1.304 0 01-.32-.213v2.99l1.174.213c1.175.214 3.417.748 7.902 1.282 4.378.534 10.999 1.067 17.619 1.174 6.62.107 13.348-.213 18.046-.64 4.805-.428 7.582-.855 9.077-1.282 1.495-.32 1.708-.534 1.708-.641.107-.106.107-.106.107-.64v-2.029c0-.534 0-.534-.107-.427-.107.107-.213.213-.534.32-.32.107-.747.214-1.388.32-.641.107-1.495.214-2.883.428-1.388.106-3.203.32-5.019.427-1.815.106-3.524.213-5.553.32-2.028.107-4.164.107-6.513.214H70.903a48.606 48.606 0 00-4.805-.214z" fill="#141515"/><path fill-rule="evenodd" clip-rule="evenodd" d="M76.136 224.876c15.376 0 27.87-.854 27.87-2.029 0-1.174-12.494-2.029-27.87-2.029-15.377 0-27.87.855-27.87 2.029 0 1.175 12.493 2.029 27.87 2.029z" fill="#080902"/><path fill-rule="evenodd" clip-rule="evenodd" d="M52.643 38.227c-.64.32-.64.32-1.708 5.232-.961 4.912-2.99 14.629-4.058 19.647-1.068 5.019-.96 5.126-.96 5.232 0 .107 0 .107.32.214s.854.427 2.349.854 3.844.961 9.824 1.281c5.873.32 15.376.428 23.278.214 7.902-.213 14.095-.64 17.832-1.174 3.631-.428 4.806-.855 5.34-1.068l.533-.214-.64-5.125c-.641-5.126-1.816-15.376-2.456-20.502-.641-5.125-.641-5.125-.961-5.339-.427-.106-1.175-.427-3.204-.854-2.029-.32-5.125-.64-9.824-.96-4.698-.215-10.891-.428-16.55-.215-5.66.107-10.679.641-13.882 1.175-3.204.748-4.592 1.281-5.233 1.602z" fill="#FDE742"/><path fill-rule="evenodd" clip-rule="evenodd" d="M63.962 67.057c-2.777.107-5.873.32-8.65.427-2.776.214-5.018.32-6.3.534-1.281.107-1.495.214-.96.427.533.214 1.708.64 3.523.961 1.815.32 4.271.534 6.94.64 2.777.108 5.767.214 8.97.321 3.204.107 6.514.107 10.572 0 4.058-.107 8.97-.32 13.027-.534 4.058-.213 7.475-.64 9.504-.854 2.029-.213 2.883-.427 3.203-.64.321-.214.214-.321-.32-.534-.534-.214-1.388-.32-4.165-.534-2.776-.214-7.367-.428-12.386-.534-5.019-.107-10.251-.107-14.096-.107a432.2 432.2 0 01-8.862.427z" fill="#080902"/><path fill-rule="evenodd" clip-rule="evenodd" d="M76.99 137.317v-67.27l.32-.214c.32-.213.854-.534 1.281-1.174.428-.534.641-1.282.748-1.602l.107-.32h-7.368c-.214 0-.214 0-.214.213.107.214.214.748.534 1.175.32.427.854.96 1.175 1.174.32.32.534.427.64.427l.107.107v153.014h2.456v-15.056c.214-14.949.214-44.954.214-70.474z" fill="#141515"/><path fill-rule="evenodd" clip-rule="evenodd" d="M190.819 139.346c-1.389-5.552-3.631-15.483-4.699-22.103-1.068-6.62-1.068-9.717 0-12.066s3.204-3.737 6.941-4.912c3.737-1.068 9.29-1.815 19.861-2.029 10.572-.213 26.269.107 35.879.534 9.61.427 13.241.961 15.91 2.243 2.777 1.281 4.592 3.31 5.126 6.406.534 3.204-.32 7.475-1.602 13.882-1.281 6.406-2.99 14.949-3.737 19.22-.854 4.271-.854 4.271-1.922 5.445-1.068 1.175-3.31 3.631-5.339 6.514-2.029 2.99-3.844 6.407-5.233 7.902-1.388 1.388-2.242.854-2.776.533-.427-.32-.427-.32-6.193-.106-5.766.213-17.299.747-24.56.534-7.261-.107-10.251-.961-11.746-1.389-1.495-.427-1.495-.427-1.922 0-.427.321-1.175 1.068-2.242-.533-1.068-1.602-2.456-5.339-4.058-7.795-1.602-2.456-3.204-3.524-4.378-4.592-1.282-1.068-1.815-2.135-3.31-7.688z" fill="#FDE742"/><path fill-rule="evenodd" clip-rule="evenodd" d="M205.021 159.101c.214.427.214.427-1.281 1.815-1.388 1.388-4.271 4.164-5.66 5.659a156.978 156.978 0 01-1.495 1.602s-.106 0-.533-1.709c-.428-1.815-1.068-5.445-2.029-8.222-.961-2.776-1.922-4.805-2.99-6.193-1.068-1.388-2.243-2.349-3.738-2.99-1.494-.747-3.417-1.281-4.591-1.602-1.175-.32-1.495-.32-1.602-.32h.107s-.214 0-.107-.107.641-.213 2.67-.64c1.922-.321 5.339-.961 7.047-1.175 1.709-.214 1.709-.107 1.922.107.107.213.427.534.641.854.32.32.534.534 1.175.854.64.321 1.601.854 2.456 1.282.854.427 1.495.961 2.028 1.388.641.534 1.175 1.174 1.816 1.922.64.854 1.174 1.815 1.708 2.776.534.961.961 1.922 1.388 2.776.534.748.855 1.495 1.068 1.923zm47.411-5.126a71.363 71.363 0 00-1.922 3.31c-.641 1.068-1.068 2.029-1.388 2.563-.214.427-.214.427 1.175 1.709 1.494 1.281 4.378 3.737 5.766 5.018 1.495 1.282 1.495 1.389 1.601 1.389l.641-1.282c.534-1.281 1.709-3.844 3.631-6.941 1.922-3.096 4.591-6.62 6.086-8.969 1.495-2.35 1.709-3.524 2.136-4.058.534-.534 1.281-.427 1.602-.32.32 0 .213 0-.855-.107-1.174-.214-3.31-.534-4.698-.854-1.495-.214-2.242-.428-2.563-.534-.427-.107-.427-.107-.534 0-.213.106-.534.32-1.388.854-.747.427-1.922 1.068-3.097 1.922-1.174.747-2.135 1.602-2.989 2.349-.855.748-1.389 1.495-1.922 2.029-.428.534-.748 1.068-1.282 1.922z" fill="#C6B532"/><path fill-rule="evenodd" clip-rule="evenodd" d="M198.614 165.614a201.279 201.279 0 01-3.844 2.99c-.427.427.64-.107 11.746-.107 10.998 0 31.927.427 42.178.427 10.145 0 9.611-.534 9.397-.747-.32-.214-.32-.214-1.068-.854l-3.737-3.204c-1.495-1.281-2.883-2.563-3.631-3.097-.747-.64-.747-.64-.961-.533-.213 0-.747.106-2.669.106-2.029 0-5.553-.106-12.066-.213-6.621-.107-16.231-.321-21.57-.534-5.339-.107-6.194-.214-6.621-.214-.427 0-.427 0-.854.321l-2.242 2.242c-1.175.961-2.456 2.136-4.058 3.417z" fill="#E8D43F"/><path fill-rule="evenodd" clip-rule="evenodd" d="M194.342 170.419c0 1.602.107 4.698.107 6.193v1.602s0 .107 3.63.214c3.631.106 10.785.213 21.891.213 11.105.107 26.268.214 33.85.214 7.581 0 7.688 0 7.688-.107.107-.107.213-.427.213-2.243 0-1.708 0-4.911-.106-6.62-.107-1.709-.214-1.922-.855-1.922-.64-.107-1.922-.107-7.047-.107h-24.346c-10.358 0-21.997-.213-27.977-.213h-6.621c-.213 0-.427 0-.427.106-.107.107-.107.214-.107.427.107.321.107.641.107 2.243z" fill="#F1DB41"/><path fill-rule="evenodd" clip-rule="evenodd" d="M260.44 169.458v5.445c0 1.602-.106 2.35-.213 2.67 0 .32 0 .32-.214.32-.106 0-.427.107-.64.107h-18.474c-5.445 0-10.357 0-16.871-.107-6.621 0-14.95-.107-20.075-.213-5.126-.107-6.941-.107-7.795-.214-.854 0-.854 0-.854-.107v-8.756c0-.427 0-.533.106-.64 0-.107.107-.107.214-.107h.747v-.641c0-.64-.106-2.028-.32-3.95-.213-1.816-.427-4.165-.641-5.766-.213-1.602-.427-2.456-.747-3.417-.32-.855-.748-1.816-1.281-2.67-.534-.854-1.175-1.495-1.923-2.135-.747-.641-1.708-1.175-2.776-1.602-1.068-.427-2.242-.748-3.096-.961-.855-.214-1.389-.214-2.029-.214-.641 0-1.389.107-2.243.427a6.068 6.068 0 00-2.456 1.709c-.747.854-1.281 2.029-1.281 3.524-.107 1.494.32 3.096.961 4.805.747 1.601 1.708 3.203 2.776 5.659.961 2.456 1.816 5.873 2.883 8.969 1.068 3.097 2.243 5.98 3.524 8.329 1.282 2.349 2.776 4.164 4.165 5.232 1.388 1.175 2.776 1.602 3.844 1.922 1.068.321 1.922.427 12.386.427 10.465 0 30.647-.106 41.111-.213 10.465-.107 11.212-.107 12.067-.427.854-.214 1.815-.748 3.096-2.563 1.282-1.815 2.883-5.019 3.951-8.222 1.068-3.203 1.495-6.3 2.243-8.436.747-2.242 1.815-3.523 2.669-5.232.854-1.708 1.602-3.844 2.029-6.193.427-2.349.534-4.698.107-6.407-.427-1.601-1.495-2.455-2.243-2.883-.747-.427-1.174-.533-1.601-.533-.427-.107-.641-.107-1.282 0-.64 0-1.601.213-2.562.427-.855.213-1.602.534-2.35.854-.747.427-1.495.961-2.242 1.708-.747.748-1.495 1.709-2.242 2.99-.748 1.175-1.389 2.67-1.816 3.951-.427 1.281-.747 2.456-.961 3.737-.213 1.282-.427 2.776-.534 4.165-.106 1.388-.213 2.562-.213 3.203v.641h.427c.427 0 1.281 0 1.708.106.855-.106.961 0 .961 1.282z" fill="#FDE742"/><path fill-rule="evenodd" clip-rule="evenodd" d="M199.575 187.29h-1.388c-.213 0-.213 0-2.136 5.446-1.922 5.446-5.659 16.444-7.474 21.997-1.816 5.552-1.816 5.766-1.602 5.873.214.106.534.213 1.281.213.748 0 2.029-.213 2.777-.427.747-.213.854-.427 2.562-4.164 1.709-3.738 5.019-10.892 7.475-16.231 2.456-5.446 4.271-9.077 5.019-10.892.747-1.815.641-1.815-.214-1.815h-6.3zm15.59 0h-2.776l-1.495 4.058a2764.91 2764.91 0 00-5.98 16.444c-1.495 4.271-1.602 4.485-1.495 4.698.107.214.427.214 1.068.321.64 0 1.601 0 2.135-.107.534 0 .534 0 2.456-4.271 1.922-4.272 5.766-12.707 7.689-16.979 1.922-4.271 1.922-4.271 1.601-4.271h-1.495c-.534.107-.961.107-1.708.107zm41.218 0h1.388c.213 0 .213 0 2.135 5.446 1.923 5.446 5.66 16.444 7.475 21.997 1.815 5.552 1.815 5.766 1.602 5.873-.214.106-.534.213-1.281.213-.748 0-2.029-.213-2.777-.427-.747-.213-.854-.427-2.563-4.164-1.708-3.738-5.018-10.892-7.474-16.231-2.456-5.446-4.272-9.077-5.019-10.892-.747-1.815-.641-1.815.214-1.815h6.3zm-15.59 0h2.776l1.495 4.058a2764.91 2764.91 0 015.98 16.444c1.495 4.271 1.602 4.485 1.495 4.698-.107.214-.427.214-1.068.321-.641 0-1.602 0-2.136-.107-.533 0-.533 0-2.456-4.271-1.922-4.272-5.766-12.707-7.688-16.979-1.922-4.271-1.922-4.271-1.602-4.271h1.495c.641.107 1.068.107 1.709.107z" fill="#141515"/></svg>