<svg width="878" height="456" fill="none" xmlns="http://www.w3.org/2000/svg"><path d="M839.589 437.734C838.69 448.068 830.038 456 819.665 456H0L40.135 0H855.86c11.73 0 20.942 10.048 19.925 21.734l-36.196 416z" fill="#4AAB3C"/><mask id="a" style="mask-type:alpha" maskUnits="userSpaceOnUse" x="0" y="0" width="876" height="456"><path d="M839.589 437.734C838.69 448.068 830.038 456 819.665 456H0L40.135 0H855.86c11.73 0 20.942 10.048 19.925 21.734l-36.196 416z" fill="#4AAB3C"/></mask><g mask="url(#a)"><path fill-rule="evenodd" clip-rule="evenodd" d="M876.444 259.054c.224 16.43.149 47.948 1.341 69.606 1.193 21.734 3.577 33.609 5.365 40.33 1.863 6.722 3.13 8.29 6.333 10.456 3.204 2.166 8.345 4.929 15.871 5.676 7.525.747 17.584-.373 22.949-1.494 5.439-1.12 6.259-2.091 8.568-6.871 2.31-4.779 5.961-13.294 12.369-18.97 6.333-5.676 15.349-8.439 22.353-10.455 7.003-2.017 12.07-3.287 14.827-5.975 2.831-2.689 3.353-6.722 2.831-15.759-.521-9.037-2.161-22.928-4.321-31.666-2.161-8.738-4.918-12.174-11.698-18.97-6.781-6.797-17.659-16.954-26.675-23.227-9.015-6.274-16.243-8.664-24.811-11.353-8.569-2.688-18.553-5.825-26.227-5.9-7.675-.149-13.114 2.689-16.169 4.108-3.055 1.419-3.651 1.419-3.651 2.091 0 .747.522 2.017.745 18.373z" fill="#5DC94C"/><path fill-rule="evenodd" clip-rule="evenodd" d="M668.416 378.027c.074 1.718.074 3.734.372 4.854.298 1.121.969 1.27 2.086 1.345 1.193.074 2.832 0 3.726.074.894.075.894.299.894.897 0 .672 0 1.717-.223 2.24-.149.598-.448.672-1.044.896-.596.299-1.415.747-1.788 1.569-.372.821-.298 1.867.298 2.614.596.672 1.714.971 3.428 1.045 1.788.075 4.247 0 15.423-.074 11.176-.075 31.07-.224 45.302-.672 14.231-.523 22.799-1.419 31.741-2.465 8.941-1.046 18.329-2.241 27.046-3.211 8.644-.971 16.541-1.644 24.663-1.644 8.121 0 16.467.822 21.086 1.27 4.62.448 5.514.672 10.208.747 4.619.075 12.964.075 17.137.075 4.172 0 4.247 0 4.247.597v2.39c0 .598.075.598 4.396.523l17.212-.299 4.321-.075v.971c0 .971.075 2.838.149 3.735.075.97.149.97.298 1.045.149.075.298.15 8.271-.299 7.972-.448 23.843-1.344 39.862-2.987 16.02-1.643 32.188-3.884 41.874-4.929 9.687-1.046 12.969-.822 15.049-.672 2.09.149 2.98.224 10.73-.075s22.28-1.046 29.58-1.344c7.3-.374 7.3-.374 6.63-1.121-.67-.747-1.93-2.24-3.28-3.51-1.34-1.344-2.75-2.464-9.38-8.141-6.63-5.75-18.48-16.057-29.96-21.658-11.471-5.602-22.423-6.423-30.843-6.124-8.345.298-14.008 1.717-20.192 6.871-6.11 5.153-12.741 13.966-16.839 19.418-4.098 5.526-5.737 7.692-13.933 8.962-8.196 1.27-22.949 1.718-31.071-.523-8.121-2.24-9.611-7.095-12.964-8.514-3.353-1.494-8.569.448-35.02.822-26.45.298-74.211-.971-105.132-1.718-30.921-.747-45.078-1.046-54.392-1.27-9.314-.224-13.859-.373-16.466.299-2.608.672-3.353 2.016-3.577 3.51-.074 1.344.075 2.838.075 4.556z" fill="#2B2923"/><path d="M866.162 171H572v178.871h294.162V171z" fill="#BDBDBD"/><path fill-rule="evenodd" clip-rule="evenodd" d="M826.598 380.641c30.697-.075 36.956-.075 40.086-.075h3.129l-.075-.747c-.074-.746-.298-2.315-.596-6.198-.298-3.959-.67-10.232-.819-14.639-.224-4.331-.224-6.721-.224-7.916v-1.195H594.948v1.717c0 1.718-.074 5.079-.074 6.797v1.867c0 .149-.075.523-.075 2.016-.074 1.419-.074 4.033-.149 5.303v1.27h17.808s-.074 0-.074 2.016c0 2.017 0 6.05.074 8.066v2.315c0 .075.075.075 12.22.075 12.219 0 36.584 0 76.372-.149 39.638-.224 94.85-.448 125.548-.523z" fill="#36342B"/><path d="M868.77 356.443H582.133v11.875H868.77v-11.875z" fill="#3F3D2E"/><path d="M854.687 356.443H788.15v33.907h66.537v-33.907z" fill="#3F3D2E"/><path fill-rule="evenodd" clip-rule="evenodd" d="M672.365 380.118l-.373 1.046h-3.502l.447-1.345c.447-1.344 1.267-4.107 3.353-7.767 2.086-3.659 5.439-8.215 8.345-11.501 2.906-3.286 5.29-5.303 7.228-6.871 2.011-1.569 3.576-2.689 4.396-3.212.819-.523.819-.523 4.023-.523h27.792c2.384 0 2.384 0 3.428.598 1.117.597 3.278 1.718 5.96 3.435 2.683 1.793 5.812 4.108 8.718 7.32 2.906 3.136 5.514 7.169 6.929 10.53 1.416 3.436 1.565 6.274 1.639 7.693l.075 1.419h-3.204l-.074-.896c-.075-.897-.299-2.689-1.044-5.004-.745-2.316-2.086-5.228-3.427-7.544-1.416-2.389-2.906-4.182-5.141-6.273-2.235-2.091-5.29-4.407-7.526-5.9-2.235-1.494-3.576-2.091-4.321-2.39-.745-.299-.894-.224-5.812-.299-4.843 0-14.455-.075-19.298-.149h-4.768l-1.491.896c-1.49.896-4.47 2.689-7.376 5.228-2.906 2.539-5.663 5.751-7.823 8.589-2.087 2.838-3.577 5.302-4.694 7.618-1.267 2.24-2.087 4.331-2.459 5.302z" fill="#737160"/><path d="M710.29 419.925c17.776 0 32.188-14.044 32.188-31.367 0-17.324-14.412-31.368-32.188-31.368-17.777 0-32.188 14.044-32.188 31.368 0 17.323 14.411 31.367 32.188 31.367z" fill="#4F4D3E"/><path d="M710.29 409.171c11.686 0 21.16-9.229 21.16-20.613 0-11.385-9.474-20.613-21.16-20.613-11.687 0-21.161 9.228-21.161 20.613 0 11.384 9.474 20.613 21.161 20.613z" fill="#807E6D"/><path fill-rule="evenodd" clip-rule="evenodd" d="M710.289 402.897c7.526 0 13.636-6.199 13.636-13.817 0-7.617-6.11-13.816-13.636-13.816-7.525 0-13.635 6.199-13.635 13.816 0 7.618 6.11 13.817 13.635 13.817z" fill="#737160"/><path fill-rule="evenodd" clip-rule="evenodd" d="M869.143 366.675c.149 8.29.223 9.709.372 10.68.075 1.045.224 1.718.373 2.838.223 1.046.521 2.539.819 3.51.298.971.671 1.569 1.341 2.017.671.448 1.565.746 3.726.746s5.588-.298 10.431-.224c4.843 0 11.028.374 16.765.897 5.737.522 10.953 1.12 15.125 1.941 4.173.822 7.302 1.793 9.984 2.54 2.683.747 4.843 1.269 6.259 1.12 1.416-.075 2.012-.747 2.608-2.016.671-1.195 1.341-2.988 2.384-5.751 1.043-2.764 2.459-6.573 4.322-10.904 1.863-4.332 4.247-9.187 7.6-13.294 3.353-4.183 7.674-7.618 12.592-9.709 4.992-2.091 10.655-2.764 16.168-2.689 5.514.075 10.953.896 15.051 2.241 4.098 1.344 6.777 3.211 8.567 4.779 1.79 1.569 2.68 2.839 3.21 3.436.44.672.44.672.82.448.37-.224 1.04-.597 1.93-1.419.9-.821 2.01-2.016 2.54-2.689.52-.597.52-.597-1.27-2.091-1.79-1.493-5.37-4.406-10.51-6.721-5.138-2.316-11.918-3.959-18.028-4.482a47.984 47.984 0 00-16.168 1.345c-4.62 1.269-8.42 3.062-11.624 5.153-3.278 2.091-5.961 4.407-7.972 6.572-2.012 2.166-3.353 4.257-4.918 6.946a577.08 577.08 0 00-4.396 8.141c-1.192 2.24-1.937 3.585-2.384 4.406-.447.822-.671 1.195-.82 1.419-.149.224-.372.374-.894.523-.522.075-1.416.149-7.153.224-5.812.075-16.466.149-22.278.149-5.886 0-6.929-.149-8.196-.597-1.267-.448-2.682-1.195-3.875-2.315-1.192-1.046-2.011-2.465-2.607-4.631-.522-2.166-.671-5.078-.895-11.128-.149-6.049-.298-15.161-.521-25.318-.224-10.157-.447-21.285-.969-36.297-.521-15.012-1.266-33.832-1.713-43.243l-.373-9.41H872.57c-2.533 0-2.906.075-3.353 1.494-.447 1.419-1.043 4.182-1.118 18.148-.074 13.966.224 39.06.522 59.3.224 20.314.373 35.55.522 43.915z" fill="#4AAB3C"/><path fill-rule="evenodd" clip-rule="evenodd" d="M915.562 240.233c4.322.149 7.973.448 11.624 1.344 3.651.897 7.376 2.465 9.239 3.286 1.863.747 1.937.747 2.012.673.074-.075.223-.299.521-.598.298-.299.745-.747 1.565-1.643.819-.896 2.012-2.166 2.682-2.913.671-.746.82-.896 2.384.374 1.565 1.195 4.546 3.809 13.561 11.576 9.09 7.767 24.216 20.762 33.231 28.679 9.019 7.842 11.919 10.605 13.339 12.024 1.41 1.345 1.41 1.345 2.08 1.345.68 0 1.94-.075 2.76 0 .75 0 1.04.149 1.27.448.22.299.52.821.82 1.269.37.449.74.822 1.26 1.121.53.298 1.05.597 2.69 1.195 1.64.597 4.32 1.643 5.81 2.24 1.49.672 1.79.971 1.86 1.195.15.224.08.448-4.1.971-4.17.523-12.59 1.344-19.74 1.793-7.155.448-13.19.522-16.319.597-3.055 0-3.279 0-3.353-.149-.075-.224-.075-.673-.224-2.39-.074-1.718-.298-4.855-.521-6.647-.224-1.793-.373-2.316-1.192-3.66-.82-1.344-2.385-3.51-4.769-6.647-2.384-3.062-5.663-7.095-10.208-11.8-4.619-4.705-10.506-10.157-14.604-13.817-4.098-3.659-6.258-5.526-8.866-7.394-2.608-1.867-5.514-3.734-8.494-5.078-2.906-1.345-5.812-2.241-9.91-2.764-4.098-.522-9.388-.672-15.87-.821-6.483-.075-14.083-.075-19.224-.075h-10.282c-2.31 0-4.247.075-5.216.075-.968 0-.968 0-.745-.373.224-.374.745-1.121 1.192-1.793.447-.672.82-1.195 1.044-1.494.223-.298.223-.298.298-.298h4.694c4.619 0 13.933-.075 21.086-.15 7.302.075 12.294.15 16.615.299z" fill="#4F4D3E"/><path fill-rule="evenodd" clip-rule="evenodd" d="M878.755 240.084h-5.216c-.223 0-.223 0-.149-.523.075-.523.149-1.494.894-2.614.745-1.12 2.161-2.465 3.204-3.361 1.043-.971 1.714-1.494 2.236-1.792.521-.299.968-.224 4.992-.224h16.988c5.364 0 8.568.074 11.325.149 2.757.075 5.067.149 7.973.597 2.905.374 6.333 1.121 9.76 2.166 3.502 1.046 7.004 2.465 9.239 3.436 2.236.971 3.13 1.419 3.577 1.643.447.224.372.224 0 .597-.373.299-1.043.971-1.863 1.867a67.276 67.276 0 00-2.384 2.54c-.596.597-.745.821-.82.896l-.074.075-.373-.15c-.372-.149-1.192-.448-2.384-.896s-2.831-1.046-4.247-1.568a52.44 52.44 0 00-3.949-1.195c-1.118-.299-2.012-.523-2.906-.672-.894-.15-1.788-.299-2.831-.374-1.043-.149-2.31-.224-4.024-.299a330.99 330.99 0 00-7.6-.224c-3.651-.074-8.717-.074-13.635-.074-4.917 0-9.612 0-12.517.074-2.981-.074-3.949-.074-5.216-.074z" fill="#5DC94C"/><path fill-rule="evenodd" clip-rule="evenodd" d="M890.751 319.325c14.678.298 42.172.821 62.811 1.419 20.565.597 34.2 1.12 43.961 1.941 9.687.747 15.497 1.793 18.327 2.988 2.83 1.195 2.76 2.614 2.54 3.435-.3.822-.75 1.121-1.72 1.345-.97.224-2.38.373-7.67.373-5.37 0-14.607 0-37.183-.373-22.576-.299-58.49-.897-77.043-1.195-18.627-.299-19.968-.299-20.862-.598-.894-.299-1.416-.821-1.639-2.166-.298-1.269-.373-3.361-.224-4.705.075-1.419.373-2.091 1.416-2.464.819-.299 2.608-.299 17.286 0z" fill="#47A639"/><path d="M857.446 179.888H579.824V340.46h277.622V179.888z" fill="#4F4D3E"/><path fill-rule="evenodd" clip-rule="evenodd" d="M579.824 340.46V179.888l29.878 12.92v119.795l-29.878 27.857z" fill="#6A6856"/><path fill-rule="evenodd" clip-rule="evenodd" d="M579.824 340.46l29.878-27.857h219.803l27.941 27.857H579.824z" fill="#403E32"/><path fill-rule="evenodd" clip-rule="evenodd" d="M857.445 340.46V179.888l-27.941 12.92v119.795l27.941 27.857z" fill="#6A6856"/><path fill-rule="evenodd" clip-rule="evenodd" d="M857.446 179.888H579.824l29.878 12.92h219.803l27.941-12.92z" fill="#6A6856"/><path fill-rule="evenodd" clip-rule="evenodd" d="M791.578 315.814l13.486.224-1.117-25.318-13.412.075 1.043 25.019zm22.875-.821l13.486-.523-1.117-24.497-13.412.598 1.043 24.422z" fill="#929293"/><path fill-rule="evenodd" clip-rule="evenodd" d="M828.759 286.388c-2.012 1.942-3.577 3.511-4.694 4.706-14.455-1.569-30.773-2.241-49.176-2.092 1.713-1.643 4.843-3.062 9.388-4.257 26.525.299 41.352.822 44.482 1.643z" fill="#DBB158"/><path fill-rule="evenodd" clip-rule="evenodd" d="M828.534 326.718c-2.98 4.332-4.247 5.527-4.247 5.527-.447-14.041-.521-26.812-.298-41.151a140.903 140.903 0 014.694-4.706c.149 27.26-.149 40.33-.149 40.33z" fill="#DBB158"/><path fill-rule="evenodd" clip-rule="evenodd" d="M824.064 291.168c-.223 12.099-.223 24.87.298 41.152-28.835-.374-49.697-1.718-49.697-1.718-.224-21.285-.149-35.177.223-41.525 16.467-.299 32.784.448 49.176 2.091zm-42.098-4.331c-.223 0-.372-.15-.372-.449 0-.224.149-.448.372-.448 7.079-.224 14.306-.149 21.533.15 7.228.298 14.604.821 22.055 1.568.224 0 .373.224.298.448 0 .224-.149.374-.372.374-7.451-.747-14.753-1.345-21.981-1.569-7.301-.224-14.454-.298-21.533-.074z" fill="#F7CE66"/><path fill-rule="evenodd" clip-rule="evenodd" d="M795.378 289.226c2.459.075 4.843.15 7.079.299.298-.299-.075 17.999 0 25.318 0 0-7.004-.298-7.302-.298-.075 0 0-8.44.223-25.319z" fill="#F9F9F9"/><path fill-rule="evenodd" clip-rule="evenodd" d="M802.457 289.525a490.107 490.107 0 00-7.078-.299 2021.79 2021.79 0 006.408-4.182c3.055.075 4.619.075 4.619.075-2.682 2.912-3.949 4.406-3.949 4.406z" fill="#E1E2E1"/><path fill-rule="evenodd" clip-rule="evenodd" d="M790.087 266.672c.447 4.63 1.267 12.771 1.714 17.028.447 4.257.447 4.556 2.012 4.78 1.564.224 4.768.448 7.823.373 2.981-.075 5.886-.523 7.377-.747 1.49-.224 1.713-.299 2.235-4.481.521-4.182 1.341-12.547 1.788-16.729.447-4.183.447-4.183.447-4.631 0-.448 0-1.269-.745-1.643-.745-.448-2.31-.448-5.737-.448-3.428-.075-8.792-.149-11.996-.224-3.204-.075-4.322-.075-4.769.523-.67.523-.596 1.568-.149 6.199z" fill="#FDE742"/><path fill-rule="evenodd" clip-rule="evenodd" d="M787.779 262.415c.969.298 2.608.896 4.918 1.269 2.309.374 5.215.598 8.121.598 2.906 0 5.737-.15 8.196-.448 2.459-.299 4.545-.822 5.663-1.121 1.117-.298 1.415-.448 1.564-.597.149-.15.224-.299.224-1.27v-3.659c0-.897 0-.897-1.416-1.195-1.415-.299-4.247-.822-8.345-1.046-4.172-.224-9.611-.149-13.188.075-3.576.224-5.365.523-6.259.672-.894.149-.894.224-.894 1.195 0 .971 0 2.987.075 3.958.074 1.12.372 1.195 1.341 1.569z" fill="#FBD16B"/><path fill-rule="evenodd" clip-rule="evenodd" d="M789.417 257.336c1.267.373 3.949.672 7.153.821 3.204.225 6.855.299 9.835.225a67.942 67.942 0 006.408-.449c1.267-.224 1.639-.373 1.639-.522 0-.15-.372-.374-1.639-.673-1.267-.373-3.428-.896-7.004-1.12-3.576-.224-8.494-.075-11.698.075-3.129.149-4.47.299-5.216.597-.67.299-.745.672.522 1.046z" fill="#080902"/><path fill-rule="evenodd" clip-rule="evenodd" d="M798.656 255.319c-.596-2.763-1.416-8.215-1.49-14.563-.075-6.348.596-13.518 2.16-18.97 1.565-5.452 4.024-9.112 6.259-12.099a121.9 121.9 0 015.141-6.423c.969-1.12.969-.971.745 2.838-.223 3.884-.745 11.501-1.788 17.626-1.043 6.124-2.608 10.829-4.247 14.862-1.639 4.108-3.278 7.543-4.172 10.68-.894 3.137-1.043 5.9-1.118 7.319-.074 1.419-.074 1.419-.298 1.419-.149.075-.596 0-1.192-2.689z" fill="#47B909"/><path fill-rule="evenodd" clip-rule="evenodd" d="M798.955 253.9c0-2.39-.075-7.692-1.49-12.696-1.416-5.079-4.098-9.933-7.079-13.518a36.413 36.413 0 00-8.419-7.394c-2.161-1.419-3.279-2.016-3.875-2.016-.596 0-.596.522-.372 2.016.223 1.494.67 3.958 1.862 6.722 1.192 2.838 3.055 5.975 5.141 8.589 2.087 2.688 4.247 4.779 6.11 7.02 1.863 2.166 3.279 4.406 4.545 6.498 1.267 2.091 2.236 4.107 2.832 5.377.596 1.27.745 1.792.745-.598z" fill="#64C324"/><path fill-rule="evenodd" clip-rule="evenodd" d="M804.692 246.581c.447-1.493 1.788-4.481 4.471-6.796 2.682-2.315 6.557-3.884 9.388-4.705 2.831-.896 4.545-.971 5.365-.971.819 0 .745.224.447.896s-.82 1.793-1.863 3.436c-1.043 1.643-2.682 3.883-4.918 5.601-2.31 1.718-5.215 2.913-7.376 3.51-2.161.598-3.502.523-4.471.523-1.043 0-1.49 0-1.043-1.494z" fill="#47B909"/><path fill-rule="evenodd" clip-rule="evenodd" d="M782.488 225.296a.227.227 0 010-.299c.074-.074.223-.074.298 0 2.011 2.54 4.098 5.004 5.96 7.618 1.863 2.614 3.651 5.228 5.067 7.991 1.416 2.764 2.533 5.602 3.576 8.515.969 2.912 1.789 5.9 2.608 8.887 0 .149-.074.224-.149.299-.149 0-.223-.075-.298-.15-.819-2.987-1.639-5.9-2.608-8.812-.968-2.913-2.086-5.751-3.502-8.514-1.415-2.764-3.129-5.378-5.066-7.917-1.788-2.614-3.8-5.079-5.886-7.618z" fill="#389E00"/><path fill-rule="evenodd" clip-rule="evenodd" d="M806.778 213.869c.075-.149.149-.149.298-.149.149.075.149.149.149.299-.67 1.643-1.266 3.36-1.862 5.153a99.246 99.246 0 00-1.789 6.273c-.521 2.241-1.043 4.706-1.415 7.394-.522 3.062-.969 6.348-1.416 9.411a374.208 374.208 0 00-1.714 15.758c0 .149-.149.224-.298.224s-.223-.149-.223-.299c.521-5.078.968-10.157 1.714-15.833.372-3.062.894-6.348 1.415-9.41.447-2.614.969-5.153 1.49-7.394.596-2.39 1.193-4.481 1.789-6.348.521-1.718 1.192-3.436 1.862-5.079zm11.996 23.899c.149-.074.223 0 .298.075.074.15 0 .224-.075.299-3.129 1.942-6.259 3.809-8.643 5.452-1.192.821-2.161 1.568-3.055 2.24-.894.673-1.564 1.419-2.235 2.092a10.608 10.608 0 00-1.639 2.091c-.447.747-.82 1.494-1.118 2.315-.596 1.718-.819 3.734-1.117 5.751 0 .149-.149.224-.298.224-.15 0-.224-.149-.224-.299.298-2.016.522-4.108 1.118-5.825.298-.897.67-1.718 1.192-2.465a11.516 11.516 0 011.713-2.166c.671-.672 1.416-1.419 2.236-2.091a40.173 40.173 0 013.055-2.315c2.458-1.569 5.662-3.436 8.792-5.378z" fill="#389E00"/><path fill-rule="evenodd" clip-rule="evenodd" d="M648.298 310.512l-13.189.224.82-20.464 13.188.075-.819 20.165zm-22.428-.672l-13.263-.374.82-19.791 13.263.448-.82 19.717z" fill="#929293"/><path fill-rule="evenodd" clip-rule="evenodd" d="M611.564 286.762c2.012 1.568 3.577 2.838 4.695 3.809 14.156-1.27 30.25-1.793 48.282-1.643-1.714-1.345-4.769-2.465-9.24-3.436-26.152.15-40.682.523-43.737 1.27z" fill="#DBB158"/><path fill-rule="evenodd" clip-rule="evenodd" d="M611.714 319.773c2.98 3.51 4.47 5.228 4.47 5.228a663.085 663.085 0 000-34.43 57.943 57.943 0 00-4.694-3.809l.224 33.011z" fill="#DBB158"/><path fill-rule="evenodd" clip-rule="evenodd" d="M616.184 290.571c.372 9.784.372 21.285 0 34.43 32.56-1.643 48.803-2.465 48.803-2.465.075-17.252-.149-28.455-.596-33.608-16.019-.224-32.113.298-48.207 1.643z" fill="#F7CE66"/><path fill-rule="evenodd" clip-rule="evenodd" d="M657.537 287.135c.223 0 .372-.149.372-.298 0-.225-.149-.374-.298-.374-7.004-.149-14.007-.149-21.16.075-7.153.224-14.306.672-21.608 1.269-.224 0-.298.15-.298.374s.149.299.372.299c7.302-.598 14.455-1.046 21.608-1.27 7.004-.224 14.008-.224 21.012-.075z" fill="#FBD16B"/><path fill-rule="evenodd" clip-rule="evenodd" d="M644.424 289.077c-2.459.075-4.769.149-6.93.224-.298-.224.224 14.564.224 20.464 0 0 6.855-.224 7.227-.224-.074-.075-.223-6.871-.521-20.464z" fill="#F9F9F9"/><path fill-rule="evenodd" clip-rule="evenodd" d="M637.42 289.301l6.929-.224c-4.247-2.24-6.333-3.435-6.333-3.435-3.055.074-4.545.074-4.545.074a213.001 213.001 0 013.949 3.585z" fill="#E1E2E1"/><path d="M633.073 293.974l-12.225 1.302.874 8.244 12.225-1.303-.874-8.243z" fill="#F9F9F9"/><path fill-rule="evenodd" clip-rule="evenodd" d="M630.788 292.811l-13.412-4.63-.298-43.392 13.933 2.24-.223 45.782z" fill="#DBB158"/><path fill-rule="evenodd" clip-rule="evenodd" d="M630.787 292.811l.224-45.782 15.125-.896-.522 45.259-14.827 1.419z" fill="#F7CE66"/><path fill-rule="evenodd" clip-rule="evenodd" d="M646.137 246.059l-15.126 1.269-13.933-2.614 14.455-.523 14.604 1.868z" fill="#DBA757"/><path fill-rule="evenodd" clip-rule="evenodd" d="M640.101 246.581l-4.843.374.298 29.127 4.768-.299-.223-29.202z" fill="#F9F9F9"/><path fill-rule="evenodd" clip-rule="evenodd" d="M635.258 246.955l4.843-.374-12.592-2.24-1.788.075v.821l9.537 1.718z" fill="#F9F9F9"/><path fill-rule="evenodd" clip-rule="evenodd" d="M618.121 328.212c-1.565-.075-3.651-.149-5.29-.224-1.64-.075-2.683-.149-3.651-.299-.969-.074-1.863-.224-2.385-.373-.521-.075-.745-.15-.894-.224a.911.911 0 01-.223-.15v2.092l.819.149c.82.149 2.385.523 5.514.896 3.055.374 7.674.747 12.294.822 4.62.074 9.314-.15 12.592-.448 3.353-.299 5.29-.598 6.333-.897 1.044-.224 1.193-.373 1.193-.448.074-.074.074-.074.074-.448v-1.419c0-.373 0-.373-.074-.299-.075.075-.149.15-.373.224-.224.075-.522.15-.969.224-.447.075-1.043.15-2.011.299-.969.075-2.236.224-3.502.299-1.267.075-2.459.149-3.875.224-1.415.075-2.906.075-4.545.149h-7.674a34.168 34.168 0 00-3.353-.149z" fill="#141515"/><path fill-rule="evenodd" clip-rule="evenodd" d="M625.125 328.287c10.729 0 19.447-.598 19.447-1.419 0-.822-8.718-1.419-19.447-1.419-10.73 0-19.447.597-19.447 1.419 0 .821 8.717 1.419 19.447 1.419z" fill="#080902"/><path fill-rule="evenodd" clip-rule="evenodd" d="M608.733 197.737c-.447.224-.447.224-1.192 3.66-.67 3.435-2.086 10.232-2.831 13.742-.745 3.51-.671 3.585-.671 3.659 0 .075 0 .075.224.15.223.074.596.299 1.639.597 1.043.299 2.682.672 6.855.896 4.098.225 10.729.299 16.243.15 5.513-.15 9.835-.448 12.443-.822 2.533-.298 3.353-.597 3.725-.747l.373-.149-.447-3.585c-.447-3.585-1.267-10.754-1.714-14.339-.447-3.585-.447-3.585-.671-3.735-.298-.074-.819-.298-2.235-.597-1.415-.224-3.576-.448-6.855-.672-3.278-.15-7.6-.299-11.549-.15-3.949.075-7.451.449-9.686.822-2.235.523-3.204.896-3.651 1.12z" fill="#FDE742"/><path fill-rule="evenodd" clip-rule="evenodd" d="M616.632 217.902c-1.937.075-4.098.224-6.035.299-1.937.149-3.502.224-4.396.373-.894.075-1.043.15-.671.299.373.149 1.192.448 2.459.672 1.267.224 2.98.374 4.843.448 1.937.075 4.024.15 6.259.224 2.235.075 4.545.075 7.376 0 2.832-.074 6.259-.224 9.09-.373 2.832-.149 5.216-.448 6.632-.598 1.415-.149 2.012-.298 2.235-.448.224-.149.149-.224-.223-.373-.373-.149-.969-.224-2.906-.373-1.938-.15-5.141-.299-8.643-.374-3.502-.075-7.153-.075-9.836-.075-2.607.15-4.247.224-6.184.299z" fill="#080902"/><path fill-rule="evenodd" clip-rule="evenodd" d="M625.721 267.045v-47.052l.224-.149c.223-.149.596-.373.894-.822.298-.373.447-.896.521-1.12l.075-.224h-5.141c-.149 0-.149 0-.149.149.074.15.149.523.372.822.224.299.596.672.82.822.223.224.372.298.447.298l.074.075v107.024h1.714v-10.531c.149-10.456.149-31.442.149-49.292z" fill="#141515"/><path fill-rule="evenodd" clip-rule="evenodd" d="M705.148 268.464c-.969-3.884-2.534-10.829-3.279-15.46-.745-4.63-.745-6.796 0-8.439.745-1.643 2.236-2.614 4.843-3.436 2.608-.747 6.483-1.269 13.859-1.419 7.377-.149 18.329.075 25.035.374 6.706.298 9.239.672 11.102 1.568 1.937.896 3.204 2.315 3.577 4.481.372 2.241-.224 5.228-1.118 9.709-.894 4.481-2.086 10.456-2.608 13.444-.596 2.987-.596 2.987-1.341 3.808-.745.822-2.31 2.54-3.726 4.556-1.415 2.091-2.682 4.481-3.65 5.527-.969.971-1.565.597-1.938.373-.298-.224-.298-.224-4.321-.074-4.024.149-12.071.523-17.137.373-5.067-.075-7.153-.672-8.196-.971-1.043-.299-1.043-.299-1.342 0-.298.224-.819.747-1.564-.373-.745-1.12-1.714-3.734-2.832-5.452-1.117-1.718-2.235-2.465-3.054-3.212-.895-.747-1.267-1.493-2.31-5.377z" fill="#FDE742"/><path fill-rule="evenodd" clip-rule="evenodd" d="M715.057 282.281c.149.298.149.298-.894 1.269-.969.971-2.981 2.913-3.949 3.959a107.62 107.62 0 01-1.044 1.12s-.074 0-.372-1.195c-.298-1.27-.745-3.809-1.416-5.751-.67-1.942-1.341-3.361-2.086-4.332-.745-.97-1.565-1.643-2.608-2.091-1.043-.522-2.384-.896-3.204-1.12-.819-.224-1.043-.224-1.117-.224h.074s-.149 0-.074-.075c.074-.074.447-.149 1.862-.448 1.341-.224 3.726-.672 4.918-.821 1.192-.15 1.192-.075 1.341.074.075.15.298.374.447.598.224.224.373.373.82.597.447.224 1.117.598 1.713.897.596.298 1.044.672 1.416.97.447.374.82.822 1.267 1.345.447.597.819 1.269 1.192 1.942.372.672.67 1.344.969 1.941.372.523.596 1.046.745 1.345zm33.083-3.585a49.254 49.254 0 00-1.341 2.315c-.447.747-.746 1.419-.969 1.793-.149.298-.149.298.82 1.195 1.043.896 3.054 2.613 4.023 3.51 1.043.896 1.043.971 1.118.971l.447-.897c.372-.896 1.192-2.688 2.533-4.854s3.204-4.631 4.247-6.274c1.043-1.643 1.192-2.464 1.49-2.838.373-.373.894-.298 1.118-.224.223 0 .149 0-.596-.074-.82-.15-2.31-.374-3.279-.598-1.043-.149-1.564-.299-1.788-.373-.298-.075-.298-.075-.372 0-.149.074-.373.224-.969.597-.522.299-1.341.747-2.161 1.344-.819.523-1.49 1.121-2.086 1.644-.596.522-.969 1.045-1.341 1.419-.298.373-.522.746-.894 1.344z" fill="#C6B532"/><path fill-rule="evenodd" clip-rule="evenodd" d="M710.586 286.837a138.076 138.076 0 01-2.682 2.091c-.298.298.447-.075 8.196-.075 7.675 0 22.278.299 29.431.299 7.079 0 6.706-.374 6.557-.523-.223-.149-.223-.149-.745-.598l-2.608-2.24c-1.043-.896-2.012-1.792-2.533-2.166-.522-.448-.522-.448-.671-.373-.149 0-.521.074-1.862.074-1.416 0-3.875-.074-8.42-.149-4.62-.075-11.325-.224-15.051-.373-3.725-.075-4.321-.15-4.619-.15-.298 0-.298 0-.597.224l-1.564 1.569c-.82.672-1.714 1.493-2.832 2.39z" fill="#E8D43F"/><path fill-rule="evenodd" clip-rule="evenodd" d="M707.606 290.197c0 1.121.074 3.287.074 4.332v1.12s0 .075 2.534.15c2.533.074 7.525.149 15.274.149 7.749.075 18.329.15 23.619.15 5.291 0 5.365 0 5.365-.075.075-.075.149-.299.149-1.569 0-1.194 0-3.435-.074-4.63-.075-1.195-.149-1.344-.597-1.344-.447-.075-1.341-.075-4.917-.075h-16.988c-7.228 0-15.349-.149-19.522-.149h-4.619c-.149 0-.298 0-.298.074-.075.075-.075.15-.075.299.075.224.075.448.075 1.568z" fill="#F1DB41"/><path fill-rule="evenodd" clip-rule="evenodd" d="M753.727 289.525v3.809c0 1.12-.074 1.643-.149 1.867 0 .224 0 .224-.149.224-.075 0-.298.075-.447.075h-12.89c-3.8 0-7.228 0-11.773-.075a757.39 757.39 0 01-14.007-.149c-3.577-.075-4.843-.075-5.44-.149-.596 0-.596 0-.596-.075v-6.124c0-.299 0-.374.075-.448 0-.075.074-.075.149-.075h.522v-.448c0-.448-.075-1.419-.224-2.764-.149-1.269-.298-2.912-.447-4.033-.149-1.12-.298-1.717-.522-2.39a10.61 10.61 0 00-.894-1.867c-.372-.597-.819-1.045-1.341-1.493-.521-.448-1.192-.822-1.937-1.121-.745-.298-1.565-.522-2.161-.672-.596-.149-.969-.149-1.416-.149-.447 0-.968.075-1.564.299a4.222 4.222 0 00-1.714 1.195c-.522.597-.894 1.419-.894 2.464-.075 1.046.223 2.166.67 3.361.522 1.12 1.193 2.241 1.938 3.958.67 1.718 1.266 4.108 2.011 6.274.746 2.166 1.565 4.182 2.459 5.825.894 1.643 1.938 2.913 2.906 3.66.969.821 1.937 1.12 2.682 1.344.746.224 1.342.299 8.644.299 7.301 0 21.384-.075 28.686-.149 7.301-.075 7.823-.075 8.419-.299.596-.15 1.267-.523 2.161-1.793.894-1.269 2.012-3.51 2.757-5.75.745-2.241 1.043-4.407 1.564-5.901.522-1.568 1.267-2.464 1.863-3.659a16.42 16.42 0 001.416-4.332c.298-1.643.372-3.286.074-4.481a3.252 3.252 0 00-1.564-2.016c-.522-.299-.82-.374-1.118-.374-.298-.075-.447-.075-.894 0-.447 0-1.118.15-1.788.299-.596.149-1.118.373-1.64.597a7.302 7.302 0 00-1.564 1.195c-.522.523-1.043 1.195-1.565 2.092-.522.821-.969 1.867-1.267 2.763a16.842 16.842 0 00-.67 2.614 34.674 34.674 0 00-.373 2.913c-.074.97-.149 1.792-.149 2.24v.448h.298c.298 0 .894 0 1.192.075.597-.075.671 0 .671.896z" fill="#FDE742"/><path fill-rule="evenodd" clip-rule="evenodd" d="M711.257 301.998h-.969c-.149 0-.149 0-1.49 3.809a931.053 931.053 0 00-5.216 15.385c-1.266 3.883-1.266 4.033-1.117 4.107.149.075.372.15.894.15s1.416-.15 1.937-.299c.522-.149.596-.299 1.788-2.913 1.193-2.614 3.502-7.618 5.216-11.352 1.714-3.809 2.98-6.348 3.502-7.618.522-1.269.447-1.269-.149-1.269h-4.396zm10.878 0h-1.937l-1.043 2.838c-1.043 2.838-3.13 8.588-4.173 11.501-1.043 2.988-1.117 3.137-1.043 3.286.075.15.298.15.745.224.447 0 1.118 0 1.49-.074.373 0 .373 0 1.714-2.988 1.341-2.987 4.024-8.887 5.365-11.875 1.341-2.987 1.341-2.987 1.117-2.987h-1.043c-.372.075-.67.075-1.192.075zm28.761 0h.968c.149 0 .149 0 1.491 3.809a921.804 921.804 0 015.215 15.385c1.267 3.883 1.267 4.033 1.118 4.107-.149.075-.373.15-.894.15-.522 0-1.416-.15-1.937-.299-.522-.149-.597-.299-1.789-2.913s-3.502-7.618-5.215-11.352c-1.714-3.809-2.981-6.348-3.502-7.618-.522-1.269-.447-1.269.149-1.269h4.396zm-10.878 0h1.937l1.043 2.838c1.043 2.838 3.13 8.588 4.173 11.501 1.043 2.988 1.117 3.137 1.043 3.286-.075.15-.298.15-.745.224-.447 0-1.118 0-1.49-.074-.373 0-.373 0-1.714-2.988-1.341-2.987-4.024-8.887-5.365-11.875-1.341-2.987-1.341-2.987-1.117-2.987h1.043c.447.075.745.075 1.192.075z" fill="#141515"/></g></svg>