<svg width="360" height="226" fill="none" xmlns="http://www.w3.org/2000/svg"><path fill-rule="evenodd" clip-rule="evenodd" d="M83.825 107.159l5.866-67.186 15.327-8.445 22.328 10.698 67.55 3.378 23.464-12.762 22.706 16.703 11.731 70.564-168.972-12.95zM0 21.582C11.92 15.389 24.03 9.946 37.087 6.756c.757 2.815 1.513 5.63 2.27 8.258-3.784 49.169-7.38 98.338-11.163 147.508L0 160.27V21.582z" fill="#EBEBEB"/><path fill-rule="evenodd" clip-rule="evenodd" d="M66.417 26.461C55.63 21.02 45.792 14.638 37.087 6.756c-15.893 45.604-21.948 97.401-18.92 152.951 14.38 4.129 31.6 9.008 45.98 13.137-3.217-42.414-4.73-87.642 2.27-146.383z" fill="#F5F5F5"/><path fill-rule="evenodd" clip-rule="evenodd" d="M69.818 167.964c1.513-44.665 2.838-89.143 4.352-133.62l6.244-5.63c6.812 5.63 13.623 10.134 20.435 12.761-1.703 47.856-.189 91.77 1.893 134.747-11.164-3.003-22.139-5.63-32.924-8.258z" fill="#E5E5E5"/><path fill-rule="evenodd" clip-rule="evenodd" d="M77.389 178.099c-2.65-50.671-2.081-100.591 2.649-149.573-17.219 2.627-30.842 7.131-42.763 12.198-7.569 35.47-11.353 72.629-10.786 111.851 17.03 8.633 34.06 17.078 50.9 25.524z" fill="#EBEBEB"/><path fill-rule="evenodd" clip-rule="evenodd" d="M145.321 13.512c1.514-2.44 3.028-4.692 4.541-7.131 18.922 8.445 36.141 15.201 50.332 18.954 7.191 49.357 7.947 95.524 7.569 141.316-18.354.938-36.519 1.876-54.873 2.815-2.46-51.985-5.109-103.97-7.569-155.954z" fill="#E5E5E5"/><path fill-rule="evenodd" clip-rule="evenodd" d="M149.859 6.38c-13.623 4.13-27.058 9.947-40.682 16.891 1.514 53.298 0 101.905-2.838 148.259 16.841.563 33.681 1.314 50.711 1.877 3.027-56.864.946-112.602-7.191-167.026zM273.228.188c-19.49 8.257-34.438 16.702-48.251 25.335 7.001 39.598 8.894 85.39 7.001 135.122 19.49.188 38.79.376 58.28.376 2.459-50.108.567-101.342-7.191-153.89-3.216-2.252-6.622-4.691-9.839-6.943z" fill="#EBEBEB"/><path fill-rule="evenodd" clip-rule="evenodd" d="M321.48 17.078C305.586 9.946 289.502 4.128 273.229 0c12.678 57.24 14.381 110.537 7.948 160.833 5.298 8.82 14.569 21.957 21.381 22.145 8.515.188 19.49-9.008 24.977-21.019 5.487-48.231 6.244-96.462-6.055-144.881z" fill="#F5F5F5"/><path fill-rule="evenodd" clip-rule="evenodd" d="M232.935 49.545c2.27-.939 4.352-2.065 6.622-3.19.19-.188.568.187.568.75.379 2.252.568 4.504.946 6.756 0 .563 0 1.126-.378 1.126-2.271.939-4.541 1.877-6.623 2.815-.189.188-.568-.187-.568-.75-.189-2.065-.567-4.317-.946-6.569 0-.188.19-.75.379-.938z" fill="#E8E4BE"/><path fill-rule="evenodd" clip-rule="evenodd" d="M238.608 46.917c.379-.187.568-.375.946-.375.189-.188.568.188.568.75.378 2.253.568 4.505.946 6.757 0 .563 0 1.126-.378 1.126-2.271.938-4.542 1.877-6.623 2.815-.189 0-.379 0-.379-.375.379-2.065 1.703-3.378 3.406-5.067 1.514-1.69 1.136-3.942 1.514-5.63z" fill="#CECECE"/><path fill-rule="evenodd" clip-rule="evenodd" d="M248.075 42.413c2.27-1.126 4.352-2.064 6.622-3.19.19-.188.568.188.568.75.378 2.44.757 4.692.946 7.132 0 .563 0 1.126-.378 1.314-2.271.938-4.542 1.877-6.623 2.815-.189.188-.568-.188-.568-.75-.378-2.253-.567-4.693-.946-6.945 0-.563.19-1.126.379-1.126z" fill="#E8E4BE"/><path fill-rule="evenodd" clip-rule="evenodd" d="M252.989 39.974c.568-.188 1.136-.563 1.703-.751.19-.188.568.188.568.75.379 2.44.757 4.692.946 7.132 0 .563 0 1.126-.378 1.314-2.271.938-4.542 1.877-6.623 2.815-.189.188-.568-.188-.568-.75 0-.564-.189-1.127-.189-1.69 3.595-3.566 4.352-1.877 4.352-8.07 0 0 .189-.375.189-.75z" fill="#CECECE"/><path fill-rule="evenodd" clip-rule="evenodd" d="M263.208 35.657c2.27-.75 4.352-1.501 6.622-2.064.189 0 .568.375.568.938.378 2.44.757 5.067 1.135 7.507 0 .563 0 1.126-.378 1.126-2.271.375-4.542 1.126-6.812 1.877-.189 0-.568-.376-.568-.939l-1.135-7.319c.189-.563.378-1.126.568-1.126z" fill="#E8E4BE"/><path fill-rule="evenodd" clip-rule="evenodd" d="M267.374 34.156c.757-.188 1.703-.375 2.46-.563.189 0 .567.375.567.938.379 2.44.757 5.067 1.136 7.507 0 .563 0 1.126-.379 1.126-2.271.375-4.541 1.126-6.812 1.877-.189 0-.567-.376-.567-.939-.19-1.126-.379-2.064-.379-3.19 1.514-.938 3.217-2.064 3.974-6.756z" fill="#CECECE"/><path fill-rule="evenodd" clip-rule="evenodd" d="M235.208 67.374c2.271-.751 4.541-1.69 6.812-2.628.189-.188.567.188.567.75.19 2.253.568 4.505.757 6.945 0 .563-.189 1.126-.378 1.126l-6.812 2.252c-.189 0-.568-.376-.568-.939-.189-2.252-.378-4.504-.567-6.568-.379-.376-.189-.938.189-.938z" fill="#E8E4BE"/><path fill-rule="evenodd" clip-rule="evenodd" d="M240.879 65.121c.379-.187.568-.187.946-.375.189-.188.568.188.568.75.189 2.253.568 4.505.757 6.945 0 .563-.189 1.126-.379 1.126l-6.812 2.252c-.189 0-.378-.188-.378-.376.378-2.064 1.703-3.378 3.595-4.88 1.703-1.5 1.136-3.752 1.703-5.442z" fill="#CECECE"/><path fill-rule="evenodd" clip-rule="evenodd" d="M250.535 61.18c2.271-.938 4.542-1.689 6.812-2.627.189-.188.568.375.568.938.189 2.44.568 4.88.757 7.32 0 .563-.189 1.125-.379 1.313-2.27.75-4.541 1.502-6.811 2.44-.19 0-.568-.375-.568-.938-.189-2.44-.568-4.692-.757-7.132 0-.563.189-1.126.378-1.314z" fill="#E8E4BE"/><path fill-rule="evenodd" clip-rule="evenodd" d="M255.636 59.304l1.703-.563c.19-.188.568.375.568.938.189 2.44.568 4.88.757 7.32 0 .562-.189 1.125-.378 1.313-2.271.75-4.542 1.501-6.812 2.44-.19 0-.568-.376-.568-.939s-.189-1.126-.189-1.689c3.784-3.378 4.352-1.501 4.541-7.694.189-.563.189-.751.378-1.126z" fill="#CECECE"/><path fill-rule="evenodd" clip-rule="evenodd" d="M266.048 55.55a45.149 45.149 0 016.812-1.689c.189 0 .567.376.567 1.126.19 2.628.568 5.067.757 7.695 0 .563-.189 1.126-.378 1.126-2.271.375-4.541.938-6.812 1.501-.189 0-.568-.375-.568-.938-.189-2.44-.567-5.067-.757-7.507-.189-.75 0-1.314.379-1.314z" fill="#E8E4BE"/><path fill-rule="evenodd" clip-rule="evenodd" d="M270.212 54.237c.946-.188 1.703-.376 2.649-.563.189 0 .567.375.567 1.126.19 2.627.568 5.067.757 7.694 0 .563-.189 1.126-.378 1.126-2.271.375-4.541.938-6.812 1.501-.189 0-.568-.375-.568-.938-.189-1.126-.189-2.252-.378-3.378 1.324-.563 3.027-1.689 4.163-6.568z" fill="#CECECE"/><path fill-rule="evenodd" clip-rule="evenodd" d="M236.72 85.39c2.27-.563 4.541-1.314 6.812-2.065.189 0 .567.376.567.939.189 2.252.189 4.691.379 6.944 0 .563-.19 1.126-.379 1.126l-6.812 1.688c-.189 0-.567-.375-.567-.938-.189-2.252-.189-4.504-.379-6.756 0-.375.19-.938.379-.938z" fill="#E8E4BE"/><path fill-rule="evenodd" clip-rule="evenodd" d="M242.586 83.7c.378-.187.568-.187.946-.375.189 0 .568.376.568.939.189 2.252.189 4.691.378 6.944 0 .563-.189 1.126-.378 1.126l-6.812 1.688c-.189 0-.379-.187-.379-.375.379-2.064 1.893-3.19 3.596-4.692 1.892-1.313 1.513-3.565 2.081-5.254z" fill="#CECECE"/><path fill-rule="evenodd" clip-rule="evenodd" d="M252.236 80.51c2.27-.75 4.541-1.313 6.811-2.064.19 0 .568.375.568.938.189 2.44.379 4.88.379 7.507 0 .563-.19 1.126-.379 1.314-2.271.563-4.541 1.314-6.812 1.877-.189 0-.567-.376-.567-.939-.19-2.44-.19-4.88-.379-7.319 0-.563.189-1.126.379-1.314z" fill="#E8E4BE"/><path fill-rule="evenodd" clip-rule="evenodd" d="M257.342 79.009l1.703-.563c.189 0 .568.375.568.938.189 2.44.378 4.88.378 7.507 0 .563-.189 1.126-.378 1.314-2.271.563-4.541 1.314-6.812 1.877-.189 0-.568-.376-.568-.939v-1.689c3.785-3.003 4.352-1.314 4.92-7.507 0-.375.189-.563.189-.938z" fill="#CECECE"/><path fill-rule="evenodd" clip-rule="evenodd" d="M267.936 76.006c2.271-.563 4.541-1.126 6.812-1.314.189 0 .568.376.568 1.127l.567 7.882c0 .563-.189 1.126-.378 1.126-2.271.187-4.541.75-6.812 1.126-.189 0-.568-.376-.568-1.126-.189-2.628-.189-5.067-.378-7.695-.378-.563-.189-1.126.189-1.126z" fill="#E8E4BE"/><path fill-rule="evenodd" clip-rule="evenodd" d="M272.1 75.068c.946-.188 1.703-.376 2.649-.376.189 0 .568.376.568 1.127l.567 7.882c0 .563-.189 1.126-.378 1.126-2.271.187-4.541.75-6.812 1.126-.189 0-.568-.376-.568-1.126 0-1.126-.189-2.252-.189-3.378 1.136-.751 3.028-1.69 4.163-6.381z" fill="#CECECE"/><path fill-rule="evenodd" clip-rule="evenodd" d="M237.472 103.781c2.271-.375 4.541-.938 6.812-1.501.189 0 .567.375.567.938v7.132c0 .563-.189 1.126-.567 1.126l-6.812 1.126c-.189 0-.378-.376-.378-.939v-6.943c0-.376.189-.939.378-.939z" fill="#E8E4BE"/><path fill-rule="evenodd" clip-rule="evenodd" d="M243.338 102.655c.378 0 .567-.187.946-.187.189 0 .567.375.567.938v7.131c0 .563-.189 1.126-.567 1.126l-6.812 1.126c-.189 0-.378-.187-.378-.375.567-2.064 2.081-3.19 3.973-4.504 1.892-1.314 1.703-3.753 2.271-5.255z" fill="#CECECE"/><path fill-rule="evenodd" clip-rule="evenodd" d="M253.178 100.216c2.271-.563 4.541-1.126 6.812-1.502.189 0 .568.376.568.939v7.506c0 .563-.189 1.126-.568 1.126-2.271.376-4.541.939-6.812 1.314-.189 0-.378-.375-.378-.938v-7.319c-.189-.563.189-.939.378-1.126z" fill="#E8E4BE"/><path fill-rule="evenodd" clip-rule="evenodd" d="M258.289 99.09c.567-.188 1.135-.188 1.703-.376.189 0 .567.376.567.939v7.506c0 .563-.189 1.126-.567 1.126-2.271.376-4.541.939-6.812 1.314-.189 0-.378-.375-.378-.938v-1.689c3.973-2.815 4.351-.939 5.298-7.132 0-.188 0-.563.189-.75z" fill="#CECECE"/><path fill-rule="evenodd" clip-rule="evenodd" d="M268.889 96.838c2.27-.376 4.541-.751 6.812-.939.189 0 .567.563.567 1.126v7.882c0 .563-.189 1.126-.567 1.126-2.271.188-4.542.376-6.812.751-.189 0-.379-.375-.379-1.126v-7.694c-.189-.563 0-1.126.379-1.126z" fill="#E8E4BE"/><path fill-rule="evenodd" clip-rule="evenodd" d="M273.051 96.087c.946-.188 1.703-.188 2.649-.188.189 0 .567.563.567 1.126v7.882c0 .563-.189 1.126-.567 1.126-2.271.188-4.541.376-6.812.751-.189 0-.378-.375-.378-1.126v-3.378c1.324-.563 3.027-1.501 4.541-6.193z" fill="#CECECE"/><path fill-rule="evenodd" clip-rule="evenodd" d="M237.098 122.361c2.27-.376 4.541-.563 6.812-.939.189 0 .378.376.378.939-.189 2.439-.378 4.691-.568 7.131 0 .563-.378 1.126-.567 1.126-2.271.188-4.542.375-7.001.751-.19 0-.379-.376-.379-.939.189-2.252.379-4.504.568-6.943.189-.563.568-1.126.757-1.126z" fill="#E8E4BE"/><path fill-rule="evenodd" clip-rule="evenodd" d="M242.963 121.61c.379 0 .568 0 .947-.188.189 0 .378.376.378.939-.189 2.439-.378 4.691-.568 7.131 0 .563-.378 1.126-.567 1.126-2.271.188-4.542.375-7.001.751-.19 0-.379-.188-.379-.376.757-1.876 2.271-3.002 4.163-4.128 2.271-1.314 2.271-3.754 3.027-5.255z" fill="#CECECE"/><path fill-rule="evenodd" clip-rule="evenodd" d="M252.796 120.109l6.812-1.126c.19 0 .379.375.379 1.126-.189 2.439-.189 5.067-.379 7.506 0 .563-.378 1.126-.567 1.126-2.271.188-4.542.563-7.001.939-.19 0-.379-.376-.379-1.126l.568-7.319c.189-.563.378-1.126.567-1.126z" fill="#E8E4BE"/><path fill-rule="evenodd" clip-rule="evenodd" d="M258.101 119.358c.568-.188 1.136-.188 1.703-.188.19 0 .379.376.379 1.126-.189 2.44-.189 5.067-.379 7.507 0 .563-.378 1.126-.567 1.126-2.271.188-4.542.563-7.001.939-.19 0-.379-.376-.379-1.127 0-.563 0-1.126.189-1.689 4.163-2.439 4.352-.563 5.677-6.756 0-.375.189-.75.378-.938z" fill="#CECECE"/><path fill-rule="evenodd" clip-rule="evenodd" d="M268.695 117.669c2.271-.188 4.542-.563 7.001-.563.19 0 .379.563.379 1.126-.189 2.627-.189 5.255-.379 7.882 0 .563-.378 1.126-.567 1.126-2.271 0-4.541.188-7.001.375-.19 0-.379-.563-.379-1.126.189-2.627.379-5.067.379-7.694 0-.563.189-1.126.567-1.126z" fill="#E8E4BE"/><path fill-rule="evenodd" clip-rule="evenodd" d="M272.859 117.294c.946 0 1.703-.188 2.649-.188.19 0 .379.563.379 1.126-.189 2.627-.189 5.255-.379 7.882 0 .563-.378 1.126-.567 1.126-2.271 0-4.541.188-7.001.375-.189 0-.379-.563-.379-1.126 0-1.126.19-2.252.19-3.378 1.513-.375 3.405-1.126 5.108-5.817z" fill="#CECECE"/><path fill-rule="evenodd" clip-rule="evenodd" d="M235.205 140.94c2.27-.188 4.73-.188 7.001-.375.189 0 .378.375.378.938-.378 2.44-.757 4.692-1.135 6.944 0 .563-.379.938-.757 1.126-2.271 0-4.73 0-7.001.187-.189 0-.379-.375-.379-.938l1.136-6.756c.189-.563.567-1.126.757-1.126z" fill="#E8E4BE"/><path fill-rule="evenodd" clip-rule="evenodd" d="M241.26 140.752h.946c.189 0 .378.376.378.939-.378 2.439-.757 4.691-1.135 6.943 0 .563-.379.939-.757 1.127-2.271 0-4.73-.001-7.001.187-.189 0-.379-.188-.379-.375.947-1.877 2.65-2.815 4.731-3.754 2.081-1.313 2.271-3.565 3.217-5.067z" fill="#CECECE"/><path fill-rule="evenodd" clip-rule="evenodd" d="M251.096 139.814c2.27-.188 4.73-.376 7.001-.563.189 0 .378.375.378 1.126-.378 2.44-.757 5.067-1.135 7.507 0 .563-.379 1.126-.568 1.126-2.271.187-4.73.187-7.001.375-.189 0-.378-.375-.378-.938l1.135-7.319c.189-.751.378-1.126.568-1.314z" fill="#E8E4BE"/><path fill-rule="evenodd" clip-rule="evenodd" d="M256.394 139.439c.567 0 1.135-.001 1.703-.188.189 0 .378.375.378 1.126-.378 2.44-.757 5.067-1.135 7.507 0 .563-.379 1.126-.568 1.126-2.271.187-4.73.187-7.001.375-.189 0-.378-.375-.378-.938s.189-1.126.189-1.689c4.352-2.065 4.541-.188 6.244-6.381.189-.375.378-.751.568-.938z" fill="#CECECE"/><path fill-rule="evenodd" clip-rule="evenodd" d="M267.182 138.688c2.271-.188 4.731-.188 7.002-.188.189 0 .378.563.378 1.126-.378 2.628-.568 5.255-.946 7.882 0 .563-.379 1.126-.568 1.126-2.27 0-4.73 0-7.001.188-.189 0-.378-.563-.378-1.126.378-2.627.757-5.067.946-7.694 0-.751.189-1.314.567-1.314z" fill="#E8E4BE"/><path fill-rule="evenodd" clip-rule="evenodd" d="M271.534 138.312h2.65c.189 0 .378.564.378 1.127-.378 2.627-.568 5.254-.946 7.882 0 .563-.379 1.126-.568 1.126-2.27 0-4.73 0-7.001.187-.189 0-.378-.563-.378-1.126.189-1.126.378-2.252.378-3.378 1.325-.563 3.217-1.126 5.487-5.818z" fill="#CECECE"/><path fill-rule="evenodd" clip-rule="evenodd" d="M230.474 32.28c2.082-1.127 4.352-2.44 6.434-3.567.189-.187.567.188.567.751.379 2.252.757 4.317 1.135 6.569 0 .563 0 1.126-.378 1.126-2.271 1.126-4.352 2.252-6.623 3.378-.189.187-.567-.188-.567-.751-.379-2.064-.568-4.129-.946-6.38 0-.376 0-.94.378-1.127z" fill="#E8E4BE"/><path fill-rule="evenodd" clip-rule="evenodd" d="M235.962 29.276c.379-.187.568-.375.946-.563.19-.187.568.188.568.751.379 2.252.757 4.317 1.135 6.569 0 .563 0 1.126-.378 1.126-2.271 1.126-4.352 2.252-6.623 3.378-.189 0-.378 0-.378-.188.189-1.877 1.514-3.566 3.217-5.442 1.513-1.877 1.135-3.941 1.513-5.63z" fill="#CECECE"/><path fill-rule="evenodd" clip-rule="evenodd" d="M245.234 24.022c2.081-1.126 4.352-2.44 6.433-3.566.19-.188.568.188.568.75.378 2.253.757 4.692 1.135 6.944.19.563 0 1.126-.189 1.314-2.271 1.126-4.352 2.252-6.623 3.378-.189.188-.567-.188-.567-.75l-1.136-6.757c0-.75 0-1.313.379-1.313z" fill="#E8E4BE"/><path fill-rule="evenodd" clip-rule="evenodd" d="M249.967 21.207c.567-.376 1.135-.563 1.702-.939.19-.187.568.188.568.751.379 2.252.757 4.692 1.135 6.944.19.563 0 1.126-.189 1.313-2.27 1.127-4.352 2.253-6.622 3.378-.19.188-.568-.187-.568-.75s-.189-1.126-.189-1.502c3.406-3.753 4.163-2.252 4.163-8.257v-.938z" fill="#CECECE"/><path fill-rule="evenodd" clip-rule="evenodd" d="M259.993 16.14c2.082-.939 4.352-1.877 6.623-2.44.189 0 .567.375.567.938.379 2.44.947 4.88 1.325 7.32.189.562 0 1.125-.189 1.125-2.271.563-4.352 1.314-6.623 2.252-.189.188-.568-.375-.568-.938-.378-2.44-.756-4.692-1.324-7.131-.189-.376 0-.939.189-1.126z" fill="#E8E4BE"/><path fill-rule="evenodd" clip-rule="evenodd" d="M263.966 14.45c.757-.187 1.703-.563 2.46-.563.19 0 .568.376.568.939.378 2.44.946 4.88 1.325 7.319.189.563 0 1.126-.19 1.126-2.27.563-4.352 1.314-6.622 2.252-.19.188-.568-.375-.568-.938-.189-1.126-.378-2.065-.568-3.19 1.325-.939 3.028-2.253 3.595-6.944z" fill="#CECECE"/><path fill-rule="evenodd" clip-rule="evenodd" d="M160.831 39.786c2.271.563 4.542 1.313 7.001 1.876.19 0 .568.563.568 1.314l.568 7.32c0 .562-.19 1.125-.379.938-2.27-.564-4.73-1.314-7.001-1.877-.189 0-.567-.563-.567-1.314l-.568-7.319c-.189-.563 0-1.126.378-.938z" fill="#F7F3CD"/><path fill-rule="evenodd" clip-rule="evenodd" d="M166.697 41.475c.379 0 .568.188.946.375.189 0 .568.563.568 1.314l.568 7.319c0 .563-.19 1.126-.379.938-2.271-.563-4.73-1.313-7.001-1.876-.189 0-.378-.376-.378-.563.378-1.877 1.892-2.44 3.595-3.003 1.892-.75 1.513-3.19 2.081-4.504z" fill="#CECECE"/><path fill-rule="evenodd" clip-rule="evenodd" d="M176.535 44.665c2.27.751 4.541 1.502 7.001 2.252.189 0 .567.563.567 1.126.19 2.44.379 4.692.568 6.944 0 .563-.189.938-.378.938-2.271-.563-4.731-1.313-7.001-2.064-.19 0-.568-.563-.568-1.314-.189-2.44-.379-4.691-.568-7.131 0-.375.189-.938.379-.75z" fill="#F7F3CD"/><path fill-rule="evenodd" clip-rule="evenodd" d="M181.834 46.354l1.703.563c.19 0 .568.563.568 1.126.189 2.44.378 4.692.568 6.944 0 .563-.19.938-.379.938-2.27-.563-4.73-1.313-7.001-2.064-.189 0-.567-.563-.567-1.314 0-.563 0-1.126-.19-1.689 3.785-.563 4.542 1.502 4.92-4.128.189 0 .189-.188.378-.376z" fill="#CECECE"/><path fill-rule="evenodd" clip-rule="evenodd" d="M192.435 49.17c2.27.375 4.541.938 7.001 1.125.189 0 .568.563.568 1.126.189 2.252.567 4.504.756 6.756 0 .563-.189.939-.378.939-2.271-.376-4.541-.75-7.001-1.126-.189 0-.568-.563-.568-1.126-.189-2.252-.378-4.692-.757-6.944 0-.375.19-.938.379-.75z" fill="#F7F3CD"/><path fill-rule="evenodd" clip-rule="evenodd" d="M196.779 49.92c.946.188 1.703.188 2.649.375.19 0 .568.563.568 1.126.189 2.252.568 4.504.757 6.756 0 .563-.189.939-.379.939-2.27-.376-4.541-.75-7.001-1.126-.189 0-.567-.563-.567-1.126 0-.939-.19-2.065-.19-3.003 1.136 0 3.028-.188 4.163-3.941z" fill="#CECECE"/><path fill-rule="evenodd" clip-rule="evenodd" d="M162.163 59.491c2.271.563 4.731 1.126 7.001 1.69.19 0 .568.562.568 1.125.189 2.44.378 4.88.378 7.132 0 .563-.189.938-.378.938-2.271-.563-4.73-1.126-7.001-1.69-.189 0-.568-.562-.568-1.125-.189-2.44-.378-4.88-.378-7.32 0-.374.189-.75.378-.75z" fill="#F7F3CD"/><path fill-rule="evenodd" clip-rule="evenodd" d="M168.21 60.992c.379 0 .757.188.947.188.189 0 .567.563.567 1.126.189 2.44.379 4.88.379 7.132 0 .563-.19.938-.379.938-2.27-.563-4.73-1.126-7.001-1.69-.189 0-.378-.374-.378-.562.378-1.877 1.892-2.44 3.784-3.003 1.703-.187 1.514-2.815 2.081-4.128z" fill="#CECECE"/><path fill-rule="evenodd" clip-rule="evenodd" d="M178.244 63.995c2.271.751 4.73 1.314 7.001 1.877.189 0 .568.563.568 1.126.189 2.252.378 4.692.378 6.944 0 .563-.189.938-.378.938-2.271-.563-4.731-1.126-7.001-1.689-.19 0-.568-.563-.568-1.126-.189-2.44-.379-4.692-.379-7.131-.189-.751 0-1.126.379-.939z" fill="#F7F3CD"/><path fill-rule="evenodd" clip-rule="evenodd" d="M183.352 65.309c.568.188 1.135.375 1.703.375.189 0 .568.563.568 1.126.189 2.252.378 4.692.378 6.944 0 .563-.189.938-.378.938-2.271-.563-4.731-1.126-7.001-1.689-.19 0-.568-.563-.568-1.126s0-1.126-.189-1.689c3.973-.75 4.541 1.314 5.109-4.316.189 0 .378-.376.378-.563z" fill="#CECECE"/><path fill-rule="evenodd" clip-rule="evenodd" d="M194.135 67.749c2.271.375 4.731.75 7.001.938.19 0 .568.563.568 1.126.189 2.252.378 4.504.378 6.756 0 .563-.189.938-.378.938-2.271-.187-4.541-.563-7.001-.938-.189 0-.568-.563-.568-1.126-.189-2.252-.189-4.504-.378-6.756 0-.563.189-.938.378-.938z" fill="#F7F3CD"/><path fill-rule="evenodd" clip-rule="evenodd" d="M198.486 68.312c.946.187 1.703.187 2.649.375.189 0 .568.563.568 1.126.189 2.252.378 4.504.378 6.756 0 .563-.189.938-.378.938-2.271-.187-4.541-.563-7.001-.938-.19 0-.568-.563-.568-1.126 0-.938-.189-2.064-.189-3.003 1.324-.187 3.217-.375 4.541-4.128z" fill="#CECECE"/><path fill-rule="evenodd" clip-rule="evenodd" d="M163.291 79.197c2.271.563 4.541.938 7.001 1.5.189 0 .568.564.568 1.127.189 2.44.189 4.88.378 7.131 0 .563-.189.939-.378.939-2.271-.563-4.541-.939-6.812-1.502-.189 0-.568-.563-.568-1.126-.189-2.44-.189-4.879-.378-7.319-.189-.375 0-.75.189-.75z" fill="#F7F3CD"/><path fill-rule="evenodd" clip-rule="evenodd" d="M169.35 80.51c.378 0 .757.188.946.188.189 0 .568.563.568 1.126.189 2.44.189 4.88.378 7.131 0 .563-.189.939-.378.939-2.271-.563-4.542-.939-6.812-1.502-.189 0-.379-.187-.379-.563.379-1.876 1.893-2.627 3.785-3.002 1.513-.376 1.135-3.003 1.892-4.317z" fill="#CECECE"/><path fill-rule="evenodd" clip-rule="evenodd" d="M179.191 82.95c2.271.563 4.541 1.126 7.001 1.501.189 0 .568.563.568 1.126 0 2.252.189 4.692.189 6.944 0 .563-.189.938-.378.938-2.271-.375-4.542-.938-6.812-1.501-.189 0-.568-.563-.568-1.126 0-2.252-.189-4.692-.189-7.131-.189-.376 0-.751.189-.751z" fill="#F7F3CD"/><path fill-rule="evenodd" clip-rule="evenodd" d="M184.487 84.264c.568.187 1.136.187 1.703.375.189 0 .568.563.568 1.126 0 2.252.189 4.692.189 6.944 0 .563-.189.938-.378.938-2.271-.375-4.542-.938-6.812-1.501-.189 0-.568-.563-.568-1.126v-1.69c3.974-.938 4.352.939 5.109-4.503-.189-.188 0-.376.189-.563z" fill="#CECECE"/><path fill-rule="evenodd" clip-rule="evenodd" d="M195.084 86.14c2.271.376 4.541.563 7.001.75.19 0 .568.564.568 1.127 0 2.252.189 4.504.189 6.756 0 .563-.189.938-.378.938-2.271-.187-4.542-.375-6.812-.75-.189 0-.568-.563-.568-1.126 0-2.252 0-4.504-.189-6.756-.378-.563-.189-.939.189-.939z" fill="#F7F3CD"/><path fill-rule="evenodd" clip-rule="evenodd" d="M199.433 86.516c.946 0 1.703.187 2.649.187.19 0 .568.563.568 1.126 0 2.252.189 4.504.189 6.756 0 .563-.189.939-.378.939-2.271-.188-4.541-.376-6.812-.751-.189 0-.568-.563-.568-1.126v-3.003c.946 0 2.839-.375 4.352-4.129z" fill="#CECECE"/><path fill-rule="evenodd" clip-rule="evenodd" d="M164.049 98.714c2.27.376 4.541.939 6.812 1.314.189 0 .567.563.567 1.126v7.131c0 .563-.189.939-.378.939-2.271-.376-4.541-.939-6.812-1.314-.189 0-.378-.563-.568-1.126 0-2.44 0-4.879-.189-7.132.189-.563.379-.938.568-.938z" fill="#F7F3CD"/><path fill-rule="evenodd" clip-rule="evenodd" d="M169.912 100.028c.379 0 .568.187.946.187.189 0 .568.563.568 1.126v7.132c0 .563-.189.938-.379.938-2.27-.375-4.541-.938-6.811-1.313-.19 0-.379-.188-.379-.563.568-1.877 1.892-2.628 3.784-3.191 1.893-.563 1.703-3.003 2.271-4.316z" fill="#CECECE"/><path fill-rule="evenodd" clip-rule="evenodd" d="M179.754 101.905c2.271.375 4.541.938 6.812 1.313.189 0 .567.563.567 1.126v6.944c0 .563-.189.938-.567.938l-6.812-1.126c-.189 0-.378-.563-.378-1.126v-6.943c-.19-.751.189-1.126.378-1.126z" fill="#F7F3CD"/><path fill-rule="evenodd" clip-rule="evenodd" d="M184.86 102.843c.568.188 1.136.188 1.703.375.19 0 .568.563.568 1.126v6.944c0 .563-.189.938-.568.938l-6.812-1.126c-.189 0-.378-.563-.378-1.126v-1.689c3.974-1.126 4.352.751 5.298-4.691 0-.188 0-.376.189-.751z" fill="#CECECE"/><path fill-rule="evenodd" clip-rule="evenodd" d="M195.266 104.344l6.812.563c.189 0 .567.563.378.939 0 2.252 0 4.504-.189 6.568 0 .563-.189.938-.568.938-2.27-.187-4.541-.375-6.812-.375-.189 0-.378-.563-.378-1.126v-6.756c.378-.375.568-.751.757-.751z" fill="#F7F3CD"/><path fill-rule="evenodd" clip-rule="evenodd" d="M199.621 104.72c.946 0 1.703.187 2.649.187.189 0 .568.563.378.939 0 2.252 0 4.504-.189 6.568 0 .563-.189.938-.568.938-2.27-.187-4.541-.375-6.811-.375-.19 0-.379-.563-.379-1.126v-3.003c1.514 0 3.217-.375 4.92-4.128z" fill="#CECECE"/><path fill-rule="evenodd" clip-rule="evenodd" d="M164.241 118.232l6.812 1.126c.189 0 .378.563.378 1.126 0 2.44 0 4.692-.189 7.131 0 .563-.189.939-.568.939-2.27-.376-4.541-.751-6.622-1.126-.189 0-.379-.563-.379-1.126 0-2.44 0-4.88.19-7.132 0-.563.189-.938.378-.938z" fill="#F7F3CD"/><path fill-rule="evenodd" clip-rule="evenodd" d="M170.107 119.358c.378 0 .567.187.946.187.189 0 .378.563.378 1.126 0 2.44 0 4.692-.189 7.132 0 .563-.189.938-.568.938-2.27-.375-4.541-.75-6.622-1.126-.189 0-.379-.187-.379-.563.568-1.876 2.082-2.627 3.974-3.19 1.892-.751 1.703-3.191 2.46-4.504z" fill="#CECECE"/><path fill-rule="evenodd" clip-rule="evenodd" d="M179.757 120.859c2.27.376 4.541.563 6.812.939.189 0 .378.563.378 1.126 0 2.252-.189 4.504-.189 6.943 0 .563-.189.939-.568.939-2.27-.188-4.541-.376-6.622-.751-.19 0-.379-.563-.379-1.126 0-2.252.189-4.692.189-6.944-.189-.75 0-1.126.379-1.126z" fill="#F7F3CD"/><path fill-rule="evenodd" clip-rule="evenodd" d="M184.67 121.61c.567 0 1.135.188 1.702.188.19 0 .379.563.379 1.126 0 2.252-.189 4.504-.189 6.943 0 .563-.189.939-.568.939-2.271-.188-4.541-.376-6.623-.751-.189 0-.378-.563-.378-1.126v-1.689c3.974-1.314 4.352.563 5.298-4.879.189-.376.189-.563.379-.751z" fill="#CECECE"/><path fill-rule="evenodd" clip-rule="evenodd" d="M195.082 122.548c2.27.188 4.541.188 6.622.376.19 0 .379.375.379.938 0 2.252-.189 4.504-.189 6.756 0 .563-.19.938-.568.938-2.271 0-4.541-.187-6.623-.187-.189 0-.378-.563-.378-.939.189-2.252.189-4.504.189-6.756 0-.75.189-1.126.568-1.126z" fill="#F7F3CD"/><path fill-rule="evenodd" clip-rule="evenodd" d="M199.245 122.736c.946 0 1.703 0 2.459.187.19 0 .379.376.379.939 0 2.252-.189 4.504-.189 6.756 0 .563-.19.938-.568.938-2.271 0-4.541-.187-6.623-.187-.189 0-.378-.563-.378-.939 0-.938 0-1.876.189-3.002 1.325-.376 3.028-.939 4.731-4.692z" fill="#CECECE"/><path fill-rule="evenodd" clip-rule="evenodd" d="M163.859 137.75c2.271.375 4.541.75 6.623.938.189 0 .378.563.378 1.126-.189 2.44-.378 4.692-.378 7.131 0 .563-.189.939-.568.939-2.27-.188-4.541-.563-6.622-.939-.19 0-.379-.563-.379-1.126.189-2.439.379-4.879.379-7.131 0-.563.189-.938.567-.938z" fill="#F7F3CD"/><path fill-rule="evenodd" clip-rule="evenodd" d="M169.536 138.5c.378 0 .567 0 .946.188.189 0 .378.563.378 1.126-.189 2.439-.378 4.692-.378 7.131 0 .563-.189.939-.568.939-2.27-.188-4.541-.563-6.622-.939-.19 0-.379-.187-.379-.563.568-1.876 2.081-2.627 3.974-3.378 1.892-.563 1.892-3.003 2.649-4.504z" fill="#CECECE"/><path fill-rule="evenodd" clip-rule="evenodd" d="M178.995 139.814c2.271.187 4.352.375 6.623.563.189 0 .378.563.378 1.126-.189 2.252-.189 4.692-.378 6.944 0 .563-.19.938-.568.938-2.271-.188-4.541-.188-6.623-.375-.189 0-.378-.563-.378-1.126.189-2.252.378-4.692.378-6.944.189-.751.379-1.126.568-1.126z" fill="#F7F3CD"/><path fill-rule="evenodd" clip-rule="evenodd" d="M184.111 140.189c.567 0 1.135.188 1.703.188.189 0 .378.563.378 1.126-.189 2.252-.189 4.692-.378 6.944 0 .563-.19.938-.568.938-2.271-.188-4.541-.188-6.623-.375-.189 0-.378-.563-.378-1.126s0-1.126.189-1.689c3.974-1.502 4.352.375 5.487-5.255-.189-.188 0-.563.19-.751z" fill="#CECECE"/><path fill-rule="evenodd" clip-rule="evenodd" d="M194.327 140.752c2.271 0 4.352.188 6.623.188.189 0 .378.375.378.938-.189 2.252-.189 4.504-.378 6.756 0 .563-.19.939-.568.939h-6.623c-.189 0-.378-.376-.378-.939.189-2.252.189-4.504.378-6.756 0-.751.19-1.126.568-1.126z" fill="#F7F3CD"/><path fill-rule="evenodd" clip-rule="evenodd" d="M198.298 140.94h2.459c.19 0 .379.375.379.938-.189 2.252-.189 4.504-.379 6.756 0 .563-.189.939-.567.939h-6.623c-.189 0-.378-.376-.378-.939 0-.938.189-2.064.189-3.002 1.514-.376 3.217-.939 4.92-4.692z" fill="#CECECE"/><path fill-rule="evenodd" clip-rule="evenodd" d="M159.13 19.893c2.271.563 4.541 1.313 6.812 2.064.189 0 .567.563.567 1.314.19 2.44.379 4.88.757 7.319 0 .563-.189.938-.378.938-2.271-.75-4.541-1.313-6.812-2.064-.189 0-.568-.563-.568-1.314l-.567-7.319c-.19-.563 0-1.126.189-.938z" fill="#F7F3CD"/><path fill-rule="evenodd" clip-rule="evenodd" d="M164.998 21.582c.379.188.568.188.946.375.19 0 .568.563.568 1.314.189 2.44.379 4.88.757 7.319 0 .563-.189.938-.378.938-2.271-.75-4.542-1.313-6.812-2.064-.19 0-.379-.375-.379-.563.379-1.877 1.703-2.44 3.595-2.815 1.514-.563 1.136-3.19 1.703-4.504z" fill="#CECECE"/><path fill-rule="evenodd" clip-rule="evenodd" d="M174.647 25.148c2.27.938 4.541 1.689 6.812 2.44.189 0 .567.75.567 1.313.379 2.44.568 4.692.946 7.131 0 .564-.189.939-.378.939-2.271-.75-4.541-1.502-6.812-2.44-.189-.188-.568-.75-.568-1.314-.189-2.44-.567-4.879-.756-7.319-.19-.375-.19-.75.189-.75z" fill="#F7F3CD"/><path fill-rule="evenodd" clip-rule="evenodd" d="M179.566 27.024l1.703.563c.19 0 .568.75.568 1.314.378 2.44.568 4.692.946 7.131 0 .563-.189.939-.378.939-2.271-.75-4.542-1.502-6.812-2.44-.189-.188-.568-.75-.568-1.314 0-.563-.189-1.126-.189-1.689 3.784-.375 4.352 1.69 4.541-3.94 0 0 .189-.376.189-.564z" fill="#CECECE"/><path fill-rule="evenodd" clip-rule="evenodd" d="M189.974 30.215c2.271.563 4.541.938 6.812 1.313.189 0 .567.563.567 1.127.379 2.252.757 4.691 1.136 6.943 0 .563 0 .939-.379.939-2.27-.376-4.541-.751-6.812-1.314-.189 0-.567-.563-.567-1.126-.379-2.44-.568-4.692-.946-7.132-.19-.375 0-.938.189-.75z" fill="#F7F3CD"/><path fill-rule="evenodd" clip-rule="evenodd" d="M194.132 30.965c.946.188 1.703.376 2.649.376.19 0 .568.563.568 1.126.378 2.252.757 4.691 1.135 6.944 0 .563 0 .938-.378.938-2.271-.375-4.541-.75-6.812-1.314-.189 0-.568-.563-.568-1.126-.189-1.126-.378-2.064-.378-3.19 1.135.187 2.838.187 3.784-3.754z" fill="#CECECE"/><path fill-rule="evenodd" clip-rule="evenodd" d="M113.339 49.17c2.082-.751 4.163-1.69 6.244-2.44.19 0 .379.375.379.938 0 2.252.189 4.504.189 6.756 0 .563-.189 1.126-.378 1.126l-6.245 2.252c-.189 0-.378-.187-.378-.75 0-2.252-.189-4.505-.189-6.569 0-.75.189-1.313.378-1.313z" fill="#E8E4BE"/><path fill-rule="evenodd" clip-rule="evenodd" d="M118.644 47.105c.379-.188.568-.188.946-.375.189 0 .379.375.379.938 0 2.252.189 4.504.189 6.756 0 .563-.189 1.126-.379 1.126l-6.244 2.252c-.189 0-.378 0-.378-.375.378-1.877 1.703-3.378 3.406-4.88 1.703-1.688 1.513-3.94 2.081-5.442z" fill="#CECECE"/><path fill-rule="evenodd" clip-rule="evenodd" d="M127.535 43.915c2.081-.563 4.162-1.314 6.244-1.877.189 0 .378.375.568.938.189 2.44.378 4.692.378 7.132 0 .563-.189 1.126-.378 1.126l-6.245 1.689c-.189 0-.378-.376-.567-.939-.19-2.252-.19-4.691-.379-6.943 0-.563 0-.939.379-1.126z" fill="#E8E4BE"/><path fill-rule="evenodd" clip-rule="evenodd" d="M132.079 42.601c.567-.188 1.135-.375 1.514-.375.189 0 .378.375.567.938.189 2.44.379 4.692.379 7.132 0 .563-.19 1.126-.379 1.126l-6.244 1.689c-.189 0-.378-.376-.568-.939v-1.689c3.596-2.815 3.974-1.126 4.542-7.131 0-.188.189-.563.189-.75z" fill="#CECECE"/><path fill-rule="evenodd" clip-rule="evenodd" d="M141.538 40.161l6.245-1.126c.189 0 .567.376.567.939l.568 7.319c0 .563-.189 1.126-.379 1.126-2.081.375-4.162.75-6.244.938-.189 0-.378-.375-.567-.938-.19-2.44-.379-4.88-.568-7.132 0-.375.189-.938.378-1.126z" fill="#E8E4BE"/><path fill-rule="evenodd" clip-rule="evenodd" d="M145.509 39.598c.757-.187 1.514-.187 2.271-.375.189 0 .568.375.568.938l.567 7.32c0 .563-.189 1.125-.378 1.125-2.081.376-4.163.751-6.244.939-.189 0-.379-.375-.568-.939 0-1.126-.189-2.064-.189-3.19 1.324-.563 2.838-1.501 3.973-5.818z" fill="#CECECE"/><path fill-rule="evenodd" clip-rule="evenodd" d="M113.719 67.186c2.081-.751 4.163-1.314 6.433-2.065.189 0 .379.376.568.939 0 2.252.189 4.504.189 6.943 0 .563-.189 1.126-.378 1.126-2.082.563-4.352 1.126-6.434 1.877-.189 0-.378-.375-.378-.938 0-2.252 0-4.504-.189-6.756-.19-.563 0-1.126.189-1.126z" fill="#E8E4BE"/><path fill-rule="evenodd" clip-rule="evenodd" d="M119.212 65.497c.379 0 .568-.188.947-.188.189 0 .378.375.567.938 0 2.252.189 4.504.189 6.944 0 .563-.189 1.126-.378 1.126-2.081.563-4.352 1.126-6.433 1.877-.19 0-.379-.188-.379-.376.379-1.876 1.892-3.377 3.595-4.691 1.514-1.877 1.325-4.129 1.892-5.63z" fill="#CECECE"/><path fill-rule="evenodd" clip-rule="evenodd" d="M128.294 62.87c2.082-.564 4.163-1.127 6.434-1.502.189 0 .378.375.568.938 0 2.44.189 4.692.189 7.132 0 .563-.189 1.126-.379 1.126-2.081.375-4.352.938-6.433 1.313-.189 0-.379-.375-.379-.938 0-2.252-.189-4.692-.189-6.944-.189-.563 0-1.126.189-1.126z" fill="#E8E4BE"/><path fill-rule="evenodd" clip-rule="evenodd" d="M133.023 61.556c.568-.188 1.135-.188 1.703-.376.189 0 .379.376.568.939 0 2.44.189 4.691.189 7.131 0 .563-.189 1.126-.378 1.126-2.082.375-4.352.938-6.434 1.314-.189 0-.378-.376-.378-.939v-1.689c3.595-2.627 4.163-.938 4.73-6.943-.189 0 0-.188 0-.563z" fill="#CECECE"/><path fill-rule="evenodd" clip-rule="evenodd" d="M142.863 59.679c2.081-.375 4.352-.563 6.433-.938.189 0 .379.375.568.938.189 2.44.189 4.88.378 7.32 0 .562-.189 1.125-.378 1.125-2.082.188-4.352.563-6.434.75-.189 0-.378-.375-.567-.938-.189-2.44-.189-4.879-.379-7.319 0-.375.19-.938.379-.938z" fill="#E8E4BE"/><path fill-rule="evenodd" clip-rule="evenodd" d="M146.831 59.116c.757-.188 1.703-.188 2.46-.375.189 0 .378.375.567.938.19 2.44.19 4.88.379 7.32 0 .562-.189 1.125-.379 1.125-2.081.188-4.352.563-6.433.75-.189 0-.378-.375-.568-.938 0-1.126 0-2.064-.189-3.19 1.325-.375 3.028-1.314 4.163-5.63z" fill="#CECECE"/><path fill-rule="evenodd" clip-rule="evenodd" d="M114.104 85.202c2.081-.563 4.352-1.126 6.433-1.501.189 0 .378.375.378.938v6.944c0 .563-.189 1.126-.378 1.126-2.081.375-4.352.938-6.433 1.314-.19 0-.379-.376-.379-.939v-6.756c0-.563.189-1.126.379-1.126z" fill="#E8E4BE"/><path fill-rule="evenodd" clip-rule="evenodd" d="M119.591 83.888c.378 0 .568-.187.946-.187.189 0 .378.375.378.938v6.944c0 .563-.189 1.126-.378 1.126-2.081.375-4.352.938-6.433 1.314-.19 0-.379-.188-.379-.376.568-1.876 1.892-3.19 3.595-4.504 1.892-1.314 1.703-3.753 2.271-5.255z" fill="#CECECE"/><path fill-rule="evenodd" clip-rule="evenodd" d="M128.855 81.824c2.081-.375 4.352-.75 6.433-1.314.19 0 .379.376.379.939 0 2.44 0 4.692.189 7.131 0 .563-.189 1.126-.378 1.126-2.082.376-4.352.75-6.434 1.126-.189 0-.378-.375-.378-.938 0-2.252 0-4.692-.189-7.132 0-.375.189-.938.378-.938z" fill="#E8E4BE"/><path fill-rule="evenodd" clip-rule="evenodd" d="M133.588 80.886c.568-.188 1.136-.188 1.703-.376.19 0 .379.376.379.939 0 2.44 0 4.692.189 7.131 0 .563-.189 1.126-.378 1.126-2.082.376-4.352.75-6.434 1.126-.189 0-.378-.375-.378-.938v-1.69c3.784-2.439 4.163-.75 4.919-6.755-.189 0 0-.376 0-.563z" fill="#CECECE"/><path fill-rule="evenodd" clip-rule="evenodd" d="M143.618 79.384c2.082-.187 4.352-.563 6.434-.75.189 0 .378.375.567 1.126 0 2.44.19 4.879.19 7.319 0 .563-.19 1.126-.379 1.126-2.081.187-4.352.375-6.433.563-.189 0-.379-.376-.379-.939 0-2.44 0-4.879-.189-7.319-.189-.75 0-1.126.189-1.126z" fill="#E8E4BE"/><path fill-rule="evenodd" clip-rule="evenodd" d="M147.59 78.821c.757-.187 1.703-.187 2.46-.187.189 0 .378.375.568 1.126 0 2.44.189 4.879.189 7.319 0 .563-.189 1.126-.379 1.126-2.081.187-4.352.375-6.433.563-.189 0-.379-.376-.379-.939v-3.19c.947-.75 2.65-1.501 3.974-5.818z" fill="#CECECE"/><path fill-rule="evenodd" clip-rule="evenodd" d="M114.293 103.406c2.081-.375 4.352-.751 6.433-1.126.189 0 .379.375.379.938v6.944c0 .563-.19 1.126-.379 1.126-2.27.375-4.352.563-6.622.939-.19 0-.379-.376-.379-.939v-6.756c0-.563.189-1.126.568-1.126z" fill="#E8E4BE"/><path fill-rule="evenodd" clip-rule="evenodd" d="M119.78 102.468c.379 0 .568-.188.946-.188.189 0 .379.375.379.938v6.944c0 .563-.19 1.126-.379 1.126-2.27.375-4.352.563-6.622.939-.19 0-.379-.188-.379-.376.568-1.877 1.892-3.003 3.784-4.129 1.703-1.313 1.514-3.753 2.271-5.254z" fill="#CECECE"/><path fill-rule="evenodd" clip-rule="evenodd" d="M129.047 100.966c2.082-.375 4.352-.563 6.434-.938.189 0 .378.375.378.938v7.132c0 .563-.189 1.126-.378 1.126-2.082.188-4.352.563-6.434.751-.189 0-.378-.376-.378-.939v-7.131c0-.563.189-.939.378-.939z" fill="#E8E4BE"/><path fill-rule="evenodd" clip-rule="evenodd" d="M133.974 100.216c.568 0 1.135-.188 1.703-.188.189 0 .378.375.378.938v7.132c0 .563-.189 1.126-.378 1.126-2.082.188-4.352.563-6.434.751-.189 0-.378-.376-.378-.939v-1.689c3.784-2.44 4.163-.563 5.109-6.381-.379-.187-.189-.563 0-.75z" fill="#CECECE"/><path fill-rule="evenodd" clip-rule="evenodd" d="M143.996 98.902c2.082-.188 4.352-.375 6.434-.563.189 0 .378.375.378 1.126v7.319c0 .563-.189 1.126-.378 1.126-2.271.188-4.352.188-6.623.375-.189 0-.379-.375-.379-1.126V99.84c0-.375.19-.75.568-.938z" fill="#E8E4BE"/><path fill-rule="evenodd" clip-rule="evenodd" d="M147.97 98.527c.757 0 1.703-.188 2.46-.188.189 0 .378.375.378 1.126v7.319c0 .563-.189 1.126-.378 1.126-2.271.188-4.352.188-6.623.375-.189 0-.379-.375-.379-1.126v-3.19c1.325-.375 3.028-.938 4.542-5.442z" fill="#CECECE"/><path fill-rule="evenodd" clip-rule="evenodd" d="M113.914 121.61c2.27-.188 4.352-.375 6.622-.751.189 0 .379.376.379.939 0 2.252-.19 4.691-.19 6.943 0 .563-.189 1.126-.567 1.126-2.271.188-4.352.376-6.623.563-.189 0-.378-.375-.378-.938.189-2.252.189-4.504.378-6.756-.189-.563 0-1.126.379-1.126z" fill="#E8E4BE"/><path fill-rule="evenodd" clip-rule="evenodd" d="M119.394 121.047c.379 0 .568 0 .946-.188.189 0 .379.376.379.939 0 2.252-.19 4.691-.19 6.943 0 .563-.189 1.126-.567 1.126-2.271.188-4.352.376-6.623.563-.189 0-.378-.187-.378-.375.567-1.877 2.081-2.815 3.973-3.941 1.892-1.314 1.892-3.566 2.46-5.067z" fill="#CECECE"/><path fill-rule="evenodd" clip-rule="evenodd" d="M128.857 119.921c2.271-.188 4.352-.375 6.623-.563.189 0 .379.375.379.938 0 2.44 0 4.692-.19 7.132 0 .563-.189 1.126-.567 1.126-2.271.187-4.352.375-6.623.563-.189 0-.378-.376-.378-.939 0-2.252.189-4.691.189-7.131.189-.563.378-1.126.567-1.126z" fill="#E8E4BE"/><path fill-rule="evenodd" clip-rule="evenodd" d="M133.777 119.546c.568 0 1.135-.188 1.703-.188.189 0 .379.375.379.938 0 2.44 0 4.692-.19 7.132 0 .563-.189 1.126-.567 1.126-2.271.187-4.352.375-6.623.563-.189 0-.378-.376-.378-.939v-1.689c3.784-2.252 4.162-.375 5.298-6.193.189-.375.189-.563.378-.75z" fill="#CECECE"/><path fill-rule="evenodd" clip-rule="evenodd" d="M143.807 118.607c2.271-.187 4.352-.187 6.623-.375.189 0 .378.375.378 1.126v7.319c0 .563-.189 1.126-.378 1.126-2.271 0-4.352.188-6.623.188-.189 0-.379-.563-.379-1.126v-7.319c0-.376.19-.939.379-.939z" fill="#E8E4BE"/><path fill-rule="evenodd" clip-rule="evenodd" d="M147.97 118.42c.757 0 1.703 0 2.46-.188.189 0 .378.375.378 1.126v7.319c0 .563-.189 1.126-.378 1.126-2.271 0-4.352.188-6.623.188-.189 0-.379-.563-.379-1.126v-3.191c1.325-.375 3.028-.938 4.542-5.254z" fill="#CECECE"/><path fill-rule="evenodd" clip-rule="evenodd" d="M112.776 139.814c2.27 0 4.541-.188 6.812-.375.189 0 .378.375.378.938-.189 2.252-.378 4.692-.568 6.944 0 .563-.378 1.126-.567 1.126h-6.812c-.189 0-.379-.375-.379-.938l.568-6.757c.189-.375.378-.938.568-.938z" fill="#E8E4BE"/><path fill-rule="evenodd" clip-rule="evenodd" d="M118.641 139.626h.947c.189 0 .378.376.378.939-.189 2.252-.378 4.691-.568 6.943 0 .563-.378 1.126-.567 1.126h-6.812c-.189 0-.379-.187-.379-.375.757-1.877 2.271-2.815 4.163-3.753 2.082-1.126 2.082-3.378 2.838-4.88z" fill="#CECECE"/><path fill-rule="evenodd" clip-rule="evenodd" d="M128.285 139.063c2.271-.187 4.541-.187 6.812-.375.189 0 .378.375.378.938 0 2.44-.189 4.88-.189 7.132 0 .563-.189 1.126-.567 1.126-2.271 0-4.542.187-6.812.187-.189 0-.379-.375-.379-.938.19-2.252.19-4.692.379-6.944-.189-.563 0-1.126.378-1.126z" fill="#E8E4BE"/><path fill-rule="evenodd" clip-rule="evenodd" d="M133.214 138.688c.568 0 1.135 0 1.703-.188.189 0 .379.376.379.939 0 2.439-.19 4.879-.19 7.131 0 .563-.189 1.126-.567 1.126-2.271 0-4.542.188-6.812.188-.189 0-.379-.376-.379-.939v-1.689c3.974-2.064 4.352-.187 5.488-6.005.189 0 .378-.188.378-.563z" fill="#CECECE"/><path fill-rule="evenodd" clip-rule="evenodd" d="M143.623 138.313c2.27 0 4.541-.188 6.812-.188.189 0 .378.563.378 1.126v7.319c0 .563-.189 1.126-.568 1.126-2.27 0-4.541 0-6.812.188-.189 0-.567-.563-.378-1.126 0-2.44 0-4.88.189-7.319 0-.751.189-1.126.379-1.126z" fill="#E8E4BE"/><path fill-rule="evenodd" clip-rule="evenodd" d="M147.785 138.125h2.65c.189 0 .378.563.378 1.126v7.319c0 .563-.189 1.126-.568 1.126-2.27 0-4.541 0-6.812.188-.189 0-.567-.563-.378-1.126v-3.191c1.325-.563 3.217-1.126 4.73-5.442z" fill="#CECECE"/><path fill-rule="evenodd" clip-rule="evenodd" d="M113.155 31.153c1.892-.938 3.784-1.876 5.866-2.815.189-.188.378.375.378.939 0 2.252.189 4.504.189 6.756 0 .563-.189 1.126-.378 1.126-2.081.75-3.974 1.689-6.055 2.627-.189.188-.378-.188-.378-.75v-6.757c0-.563.189-1.126.378-1.126z" fill="#E8E4BE"/><path fill-rule="evenodd" clip-rule="evenodd" d="M118.072 28.713c.189-.187.567-.187.757-.375.189 0 .378.375.378.938 0 2.253.189 4.505.189 6.757 0 .563-.189 1.126-.378 1.126-2.082.75-3.974 1.689-6.055 2.627-.189 0-.189 0-.379-.375.379-2.065 1.703-3.566 3.406-5.255 1.703-1.501 1.514-3.753 2.082-5.442z" fill="#CECECE"/><path fill-rule="evenodd" clip-rule="evenodd" d="M126.403 25.148c1.892-.75 3.784-1.314 5.865-2.065.19 0 .379.376.568.939.189 2.252.378 4.692.568 6.944 0 .563-.19 1.126-.379 1.126-2.081.563-3.973 1.313-6.055 1.876-.189 0-.378-.375-.567-.938-.19-2.252-.379-4.504-.379-6.944 0-.188.189-.75.379-.938z" fill="#E8E4BE"/><path fill-rule="evenodd" clip-rule="evenodd" d="M130.749 23.646c.568-.187.946-.375 1.514-.563.189 0 .378.376.568.939.189 2.252.378 4.692.567 6.944 0 .563-.189 1.126-.378 1.126-2.082.563-3.974 1.313-6.055 1.876-.189 0-.379-.375-.568-.938 0-.563 0-1.126-.189-1.502 3.217-3.002 3.784-1.313 4.163-7.13.189-.189.189-.376.378-.752z" fill="#CECECE"/><path fill-rule="evenodd" clip-rule="evenodd" d="M139.65 21.207c1.892-.376 3.784-.751 5.866-1.126.189 0 .378.375.567.938.379 2.44.757 4.692.946 7.131 0 .563 0 1.127-.378 1.127-2.081.375-3.974.75-6.055 1.125-.189 0-.378-.375-.568-.938-.189-2.252-.567-4.692-.757-7.131 0-.563.19-1.126.379-1.126z" fill="#E8E4BE"/><path fill-rule="evenodd" clip-rule="evenodd" d="M143.243 20.268c.756-.187 1.513-.187 2.27-.375.189 0 .379.375.568.938.378 2.44.757 4.692.946 7.132 0 .563 0 1.126-.378 1.126-2.082.375-3.974.75-6.055 1.126-.19 0-.379-.375-.568-.939-.189-.938-.189-2.064-.379-3.19 1.325-.563 2.839-1.314 3.596-5.818z" fill="#CECECE"/><path fill-rule="evenodd" clip-rule="evenodd" d="M81.741 52.923l2.838 1.689c.19 0 .19.563.19 1.126-.19 2.064-.19 4.129-.379 6.193 0 .563-.19.938-.19.75l-2.837-1.688c-.19 0-.19-.563-.19-1.126.19-2.065.19-4.317.379-6.381-.19-.375 0-.563.189-.563z" fill="#F7F3CD"/><path fill-rule="evenodd" clip-rule="evenodd" d="M84.017 54.424c.19 0 .19.188.379.188s.189.563.189 1.126c-.19 2.064-.19 4.129-.379 6.193 0 .563-.189.938-.189.75l-2.838-1.688s-.19-.188-.19-.563c.379-1.69.947-2.065 1.893-2.44.757-.188.946-2.44 1.135-3.566z" fill="#CECECE"/><path fill-rule="evenodd" clip-rule="evenodd" d="M88.174 56.676c.946.563 1.892.939 2.838 1.314.19 0 .19.563.19.938 0 2.065-.19 4.13-.19 6.194 0 .563-.19.938-.19.938-.945-.376-1.892-.939-2.838-1.314-.189 0-.189-.563-.189-.938 0-2.065.19-4.129.19-6.193 0-.563 0-.939.189-.939z" fill="#F7F3CD"/><path fill-rule="evenodd" clip-rule="evenodd" d="M90.255 57.802c.19.188.568.188.757.376.19 0 .19.563.19.938 0 2.065-.19 4.129-.19 6.193 0 .563-.19.939-.19.939-.945-.376-1.892-.939-2.838-1.314-.189 0-.189-.563-.189-.938v-1.502c1.703-.75 1.892.938 2.46-3.94v-.752z" fill="#CECECE"/><path fill-rule="evenodd" clip-rule="evenodd" d="M94.61 59.491c.946.188 1.892.563 2.838.751.19 0 .19.375.19.938v6.193c0 .563-.19.939-.19.939-.946-.188-1.892-.376-2.838-.75-.19 0-.19-.376-.19-.94 0-2.064 0-4.128.19-6.192-.19-.563 0-.939 0-.939z" fill="#F7F3CD"/><path fill-rule="evenodd" clip-rule="evenodd" d="M96.505 60.054c.379 0 .757.188 1.136.188.189 0 .189.376.189.939v6.193c0 .563-.19.938-.19.938-.946-.188-1.892-.375-2.838-.75-.189 0-.189-.376-.189-.94v-2.627c.379-.375 1.135-.563 1.892-3.94z" fill="#CECECE"/><path fill-rule="evenodd" clip-rule="evenodd" d="M80.608 70.189c.946.563 2.081.938 3.027 1.5.19 0 .19.564.19 1.127 0 2.064-.19 4.316-.19 6.38 0 .564-.19.94-.19.94a22.666 22.666 0 01-3.026-1.502c-.19 0-.19-.563-.19-1.126.19-2.065.19-4.317.379-6.381-.19-.563 0-1.126 0-.938z" fill="#F7F3CD"/><path fill-rule="evenodd" clip-rule="evenodd" d="M83.257 71.502c.189 0 .378.188.378.188.19 0 .19.563.19 1.126 0 2.064-.19 4.316-.19 6.38 0 .564-.19.94-.19.94a22.666 22.666 0 01-3.026-1.502s-.19-.188-.19-.563c.379-1.69.946-2.252 1.892-2.628.757-.563.757-2.815 1.136-3.94z" fill="#CECECE"/><path fill-rule="evenodd" clip-rule="evenodd" d="M87.614 73.567c.946.375 2.08.938 3.027 1.313.19 0 .19.563.19.939 0 2.064-.19 4.128-.19 6.193 0 .563-.19.938-.19.938-.945-.375-2.08-.75-3.027-1.126-.189 0-.189-.563-.189-.938 0-2.065.19-4.13.19-6.193-.19-.751 0-1.126.189-1.126z" fill="#F7F3CD"/><path fill-rule="evenodd" clip-rule="evenodd" d="M89.692 74.505c.19 0 .568.188.757.375.19 0 .19.563.19.939 0 2.064-.19 4.128-.19 6.193 0 .563-.19.938-.19.938-.945-.375-2.08-.75-3.027-1.126-.189 0-.189-.563-.189-.938v-1.502c1.892-.938 1.892.751 2.46-4.128.19-.376.19-.563.19-.751z" fill="#CECECE"/><path fill-rule="evenodd" clip-rule="evenodd" d="M94.426 76.194c.946.188 2.081.563 3.028.75.189 0 .189.376.189.939v6.193c0 .563-.19.938-.19.938-.946-.187-2.08-.375-3.027-.75-.19 0-.19-.563-.19-.939v-6.193c0-.75 0-1.126.19-.938z" fill="#F7F3CD"/><path fill-rule="evenodd" clip-rule="evenodd" d="M96.318 76.57c.379 0 .757.187 1.136.187.189 0 .189.375.189.938v6.194c0 .563-.19.938-.19.938-.946-.188-2.08-.376-3.027-.75-.19 0-.19-.564-.19-.94V80.51c.569-.187 1.325-.563 2.082-3.94z" fill="#CECECE"/><path fill-rule="evenodd" clip-rule="evenodd" d="M79.851 87.454c1.136.376 2.082.939 3.217 1.314.19 0 .19.563.19 1.126 0 2.064-.19 4.316-.19 6.38 0 .564-.19.939-.19.939-1.135-.375-2.08-.75-3.216-1.126-.19 0-.19-.563-.19-1.126 0-2.064.19-4.316.19-6.38 0-.752.19-1.127.19-1.127z" fill="#F7F3CD"/><path fill-rule="evenodd" clip-rule="evenodd" d="M82.502 88.58c.189 0 .378.188.378.188.19 0 .19.563.19 1.126 0 2.064-.19 4.316-.19 6.38 0 .564-.19.939-.19.939-1.135-.375-2.08-.75-3.216-1.126 0 0-.19-.188-.19-.563.38-1.69.947-2.252 1.893-2.815.946-.75.946-2.815 1.325-4.129z" fill="#CECECE"/><path fill-rule="evenodd" clip-rule="evenodd" d="M87.04 90.457c1.135.375 2.081.75 3.217 1.126.189 0 .189.563.189.938v6.193c0 .563-.19.939-.19.939-1.135-.376-2.08-.75-3.216-1.126-.19 0-.19-.563-.19-.939 0-2.064 0-4.128.19-6.193-.19-.563-.19-.938 0-.938z" fill="#F7F3CD"/><path fill-rule="evenodd" clip-rule="evenodd" d="M89.316 91.395c.19 0 .568.188.757.188.19 0 .19.563.19.938v6.193c0 .563-.19.939-.19.939-1.135-.376-2.081-.751-3.217-1.127-.189 0-.189-.563-.189-.938v-1.501c1.892-.939 2.081.75 2.46-4.129.19-.188.19-.375.19-.563z" fill="#CECECE"/><path fill-rule="evenodd" clip-rule="evenodd" d="M94.234 92.709c1.135.188 2.081.563 3.217.75.189 0 .189.376.189.939v6.193c0 .563-.19.938-.19.938-1.135-.187-2.08-.375-3.216-.75-.19 0-.19-.376-.19-.939v-6.193c0-.563 0-.938.19-.938z" fill="#F7F3CD"/><path fill-rule="evenodd" clip-rule="evenodd" d="M96.127 93.272c.379 0 .757.188 1.136.188.189 0 .189.375.189.938v6.193c0 .563-.19.938-.19.938-1.135-.187-2.08-.375-3.216-.75-.19 0-.19-.376-.19-.939v-2.627c.758-.375 1.514-.563 2.271-3.941z" fill="#CECECE"/><path fill-rule="evenodd" clip-rule="evenodd" d="M79.283 104.907c1.135.376 2.082.751 3.217 1.126.19 0 .19.563.19 1.126 0 2.065 0 4.317-.19 6.381 0 .563-.19.939-.19.939-1.135-.376-2.27-.563-3.216-.939-.19 0-.19-.563-.19-.938 0-2.064.19-4.317.19-6.381 0-.938 0-1.314.19-1.314z" fill="#F7F3CD"/><path fill-rule="evenodd" clip-rule="evenodd" d="M82.121 105.846c.19 0 .379.187.379.187.19 0 .19.563.19 1.126 0 2.065 0 4.317-.19 6.381 0 .563-.19.939-.19.939-1.135-.376-2.27-.563-3.216-.939 0 0-.19-.187-.19-.563.38-1.689.947-2.439 1.893-3.003.946-.75.946-2.815 1.325-4.128z" fill="#CECECE"/><path fill-rule="evenodd" clip-rule="evenodd" d="M86.664 107.347c1.135.375 2.082.751 3.217.938.189 0 .189.563.189.939v6.193c0 .563-.19.938-.19.938-1.134-.375-2.27-.563-3.216-.938-.19 0-.19-.563-.19-.938v-6.194c0-.563.19-.938.19-.938z" fill="#F7F3CD"/><path fill-rule="evenodd" clip-rule="evenodd" d="M89.124 108.098c.19 0 .568.187.757.187.189 0 .189.563.189.939v6.193c0 .563-.19.938-.19.938-1.134-.375-2.27-.563-3.216-.938-.19 0-.19-.563-.19-.938v-1.502c1.893-1.126 2.082.563 2.65-4.316-.19-.188 0-.376 0-.563z" fill="#CECECE"/><path fill-rule="evenodd" clip-rule="evenodd" d="M94.046 109.599c1.135.188 2.081.563 3.217.751.189 0 .189.375.189.938v6.193c0 .563 0 .939-.19.939-1.135-.188-2.27-.376-3.216-.751-.19 0-.19-.375-.19-.938v-6.193c0-.563.19-1.126.19-.939z" fill="#F7F3CD"/><path fill-rule="evenodd" clip-rule="evenodd" d="M96.126 109.975c.378 0 .757.187 1.325.187.189 0 .189.376.189.939v6.193c0 .563 0 .938-.19.938-1.135-.188-2.27-.375-3.216-.751-.19 0-.19-.375-.19-.938v-2.815c.568 0 1.325-.375 2.082-3.753z" fill="#CECECE"/><path fill-rule="evenodd" clip-rule="evenodd" d="M78.91 122.361c1.136.187 2.27.563 3.406.75.19 0 .19.563.19.939v6.381c0 .563-.19.938-.19.938-1.135-.188-2.27-.563-3.406-.751-.189 0-.19-.563-.19-.938 0-2.065.001-4.317.19-6.381-.189-.563-.189-.938 0-.938z" fill="#F7F3CD"/><path fill-rule="evenodd" clip-rule="evenodd" d="M81.748 123.111c.19 0 .379 0 .568.188.19 0 .19.563.19.938v6.381c0 .563-.19.939-.19.939-1.135-.188-2.27-.563-3.406-.751 0 0-.19-.188-.19-.563.19-1.689.947-2.44 1.893-3.003.946-.563.757-2.815 1.135-4.129z" fill="#CECECE"/><path fill-rule="evenodd" clip-rule="evenodd" d="M86.669 124.425c1.135.375 2.27.563 3.406.938.189 0 .189.563.189.939v6.193c0 .563 0 .938-.19.938-1.135-.375-2.27-.563-3.405-.75-.19 0-.19-.563-.19-.939v-6.381c-.189-.563 0-.938.19-.938z" fill="#F7F3CD"/><path fill-rule="evenodd" clip-rule="evenodd" d="M89.124 124.988c.378 0 .568.188.946.188.19 0 .19.563.19.938v6.193c0 .563 0 .939-.19.939-1.135-.376-2.27-.563-3.406-.751-.19 0-.19-.563-.19-.938v-1.502c1.893-1.126 2.272.563 2.65-4.504-.19 0 0-.375 0-.563z" fill="#CECECE"/><path fill-rule="evenodd" clip-rule="evenodd" d="M94.234 126.302c1.135.187 2.27.563 3.406.75.19 0 .19.376.19.939 0 2.064.188 4.129.188 6.193 0 .563 0 .938-.189.938-1.135-.187-2.27-.563-3.406-.75-.19 0-.19-.563-.19-.939 0-2.064-.188-4.128-.188-6.193 0-.563.189-.938.189-.938z" fill="#F7F3CD"/><path fill-rule="evenodd" clip-rule="evenodd" d="M96.502 126.865c.379 0 .946.187 1.325.187.189 0 .189.376.189.939 0 2.064.19 4.129.19 6.193 0 .563 0 .938-.19.938-1.135-.187-2.27-.563-3.406-.75-.19 0-.19-.563-.19-.939v-2.815c.38-.187 1.325-.375 2.082-3.753z" fill="#CECECE"/><path fill-rule="evenodd" clip-rule="evenodd" d="M78.718 139.814c1.135.188 2.27.375 3.595.563.19 0 .19.563.19.938v6.381c0 .563-.19.938-.19.938-1.135-.187-2.46-.375-3.595-.563-.19 0-.19-.375-.19-.938v-6.568c0-.376 0-.751.19-.751z" fill="#F7F3CD"/><path fill-rule="evenodd" clip-rule="evenodd" d="M81.746 140.377h.567c.19 0 .19.563.19.938v6.381c0 .563-.19.938-.19.938-1.135-.187-2.46-.375-3.595-.563 0 0-.19-.187-.19-.375.19-1.689 1.136-2.44 2.082-3.19.946-.563.757-2.815 1.136-4.129z" fill="#CECECE"/><path fill-rule="evenodd" clip-rule="evenodd" d="M86.664 141.503c1.135.188 2.27.563 3.595.751.19 0 .19.563.19.938 0 2.065.189 4.129.189 6.193 0 .563 0 .939-.19.939-1.135-.188-2.46-.563-3.595-.751-.189 0-.189-.375-.189-.938 0-2.065 0-4.129-.19-6.381 0-.376.19-.939.19-.751z" fill="#F7F3CD"/><path fill-rule="evenodd" clip-rule="evenodd" d="M89.316 142.066c.379 0 .568.188.946.188.19 0 .19.563.19.938 0 2.064.189 4.129.189 6.193 0 .563 0 .939-.19.939-1.135-.188-2.46-.563-3.595-.751-.189 0-.189-.376-.189-.939v-1.501c2.081-1.126 2.27.375 2.65-4.504v-.563z" fill="#CECECE"/><path fill-rule="evenodd" clip-rule="evenodd" d="M94.8 143.192c1.135.188 2.27.563 3.595.751.19 0 .19.563.378.938.19 2.065.19 4.129.379 6.193 0 .563 0 .939-.19.939-1.135-.188-2.46-.563-3.594-.751-.19 0-.19-.375-.379-.938 0-2.065-.19-4.129-.19-6.194-.188-.563-.188-.938 0-.938z" fill="#F7F3CD"/><path fill-rule="evenodd" clip-rule="evenodd" d="M97.076 143.567c.378 0 .946.188 1.324.188.19 0 .19.563.378.938.19 2.065.19 4.129.379 6.193 0 .563 0 .939-.19.939-1.135-.188-2.46-.563-3.594-.751-.19 0-.19-.375-.379-.938 0-.939 0-1.877-.19-2.815.569 0 1.515-.188 2.272-3.754z" fill="#CECECE"/><path fill-rule="evenodd" clip-rule="evenodd" d="M82.881 35.845c.947.75 1.703 1.314 2.65 1.877.189 0 .189.563.189 1.126-.19 2.064-.19 4.128-.379 6.193 0 .563-.189.938-.189.75-.946-.563-1.892-1.313-2.65-1.876-.188 0-.188-.563-.188-1.126.189-2.065.378-4.129.567-6.381-.189-.375 0-.75 0-.563z" fill="#F7F3CD"/><path fill-rule="evenodd" clip-rule="evenodd" d="M85.152 37.534c.19 0 .19.188.378.188.19 0 .19.563.19 1.126-.19 2.064-.19 4.128-.379 6.193 0 .563-.189.938-.189.75-.946-.563-1.892-1.313-2.65-1.876 0 0-.188-.188-.188-.563.378-1.502.946-2.065 1.703-2.252.757-.188.757-2.44 1.135-3.566z" fill="#CECECE"/><path fill-rule="evenodd" clip-rule="evenodd" d="M88.935 40.161c.946.563 1.703.939 2.649 1.502.19 0 .19.563.19.938 0 2.064-.19 4.129-.19 6.193 0 .563-.19.939-.19.75-.945-.374-1.892-.938-2.838-1.5-.189 0-.189-.563-.189-1.127.19-2.064.19-4.128.379-6.193 0-.375 0-.75.189-.563z" fill="#F7F3CD"/><path fill-rule="evenodd" clip-rule="evenodd" d="M90.827 41.1c.19.187.379.187.757.375.19 0 .19.563.19.938 0 2.065-.19 4.13-.19 6.194 0 .563-.19.938-.19.75-.945-.375-1.892-.938-2.838-1.501-.189 0-.189-.563-.189-1.126v-1.502c1.703-.75 1.703.939 2.27-3.753.19.188.19-.188.19-.375z" fill="#CECECE"/><path fill-rule="evenodd" clip-rule="evenodd" d="M94.994 42.977c.946.187 1.703.563 2.65.75.188 0 .188.376.188.939v6.193c0 .563 0 .938-.189.938-.946-.188-1.892-.375-2.649-.75-.19 0-.19-.564-.19-.94 0-2.063 0-4.128.19-6.192-.19-.563-.19-1.126 0-.938z" fill="#F7F3CD"/><path fill-rule="evenodd" clip-rule="evenodd" d="M96.697 43.352c.379 0 .757.188.946.188.19 0 .19.375.19.938v6.193c0 .563 0 .938-.19.938-.946-.187-1.892-.375-2.649-.75-.19 0-.19-.563-.19-.939v-2.627c.38-.375 1.136-.563 1.893-3.941z" fill="#CECECE"/><path fill-rule="evenodd" clip-rule="evenodd" d="M38.04 57.99c2.082-.75 3.974-1.314 6.056-1.877.189 0 .378.188.378.75-.19 1.878-.378 3.754-.757 5.631 0 .375-.378.938-.567.938a38.563 38.563 0 00-6.245 1.69c-.189 0-.378-.188-.378-.751.19-1.877.567-3.566.757-5.443.189-.375.567-.938.757-.938z" fill="#E8E4BE"/><path fill-rule="evenodd" clip-rule="evenodd" d="M43.15 56.3c.378 0 .567-.187.946-.187.189 0 .378.188.378.75-.19 1.878-.378 3.754-.757 5.631 0 .375-.378.938-.567.938a38.563 38.563 0 00-6.245 1.69c-.189 0-.189 0-.378-.188.757-1.69 2.081-2.815 3.973-4.129 1.893-1.314 1.893-3.19 2.65-4.504z" fill="#CECECE"/><path fill-rule="evenodd" clip-rule="evenodd" d="M51.85 54.424c2.081-.375 3.973-.75 6.055-.938.189 0 .378.375.378.75-.19 2.065-.378 3.942-.568 6.006 0 .563-.189.938-.567.938-2.082.188-3.974.376-6.055.75-.19 0-.379-.374-.379-.75.19-1.877.379-3.94.568-5.818 0-.563.378-.938.568-.938z" fill="#E8E4BE"/><path fill-rule="evenodd" clip-rule="evenodd" d="M56.39 53.673c.569 0 .947-.187 1.515-.187.189 0 .378.375.378.75-.19 2.065-.378 3.942-.568 6.006 0 .563-.189.938-.567.938-2.082.188-3.974.376-6.055.75-.19 0-.379-.374-.379-.75 0-.375.19-.938.19-1.313 3.595-2.065 3.973-.563 5.108-5.443 0-.375.19-.563.379-.75z" fill="#CECECE"/><path fill-rule="evenodd" clip-rule="evenodd" d="M65.476 52.735c2.081-.188 3.974-.188 6.055-.188.19 0 .378.376.378.939-.189 2.064-.189 4.316-.378 6.38 0 .564-.19.939-.568.939-2.081 0-3.973-.188-6.055 0-.189 0-.378-.375-.378-.938.189-2.065.378-4.13.378-6.194.19-.563.379-.938.568-.938z" fill="#E8E4BE"/><path fill-rule="evenodd" clip-rule="evenodd" d="M69.26 52.547h2.27c.19 0 .38.376.38.939-.19 2.064-.19 4.316-.38 6.38 0 .564-.188.939-.567.939-2.081 0-3.973-.188-6.055 0-.189 0-.378-.375-.378-.938 0-.939.189-1.877.189-2.628 1.325-.563 3.028-1.126 4.541-4.692z" fill="#CECECE"/><path fill-rule="evenodd" clip-rule="evenodd" d="M35.953 72.628c2.082-.563 4.163-.938 6.245-1.314.189 0 .378.376.378.751l-.568 5.63c0 .375-.189.938-.567.938-2.082.376-4.163.563-6.244 1.127-.19 0-.379-.188-.379-.751.19-1.69.379-3.566.568-5.255.189-.75.378-1.126.567-1.126z" fill="#E8E4BE"/><path fill-rule="evenodd" clip-rule="evenodd" d="M41.444 71.314c.378 0 .567-.187.946-.187.189 0 .378.375.378.75l-.568 5.63c0 .376-.189.939-.567.939-2.082.375-4.163.563-6.244 1.126-.19 0-.19 0-.379-.188.568-1.501 2.082-2.627 3.974-3.753 1.703-1.126 1.703-3.003 2.46-4.317z" fill="#CECECE"/><path fill-rule="evenodd" clip-rule="evenodd" d="M50.34 70.188l6.244-.563c.19 0 .379.376.379.939-.19 2.064-.379 3.94-.379 6.005 0 .563-.189.938-.567.938-2.082 0-4.163.188-6.245.188-.189 0-.378-.375-.378-.75.19-1.877.379-3.754.568-5.818-.19-.563 0-.939.378-.939z" fill="#E8E4BE"/><path fill-rule="evenodd" clip-rule="evenodd" d="M54.879 69.813c.567 0 1.135 0 1.513-.188.19 0 .379.376.379.939-.19 2.064-.379 3.94-.379 6.005 0 .563-.189.938-.568.938-2.08 0-4.162.188-6.244.188-.189 0-.378-.375-.378-.75 0-.376 0-.939.19-1.314 3.783-1.69 3.973-.188 5.297-5.067 0-.376 0-.563.19-.75z" fill="#CECECE"/><path fill-rule="evenodd" clip-rule="evenodd" d="M64.34 69.438c2.081 0 4.162.187 6.244.187.19 0 .378.376.378.939-.189 2.064-.189 4.128-.378 6.38 0 .563-.19.939-.568.939-2.081-.188-4.163-.376-6.244-.376-.19 0-.378-.375-.378-.938.189-2.064.189-4.129.378-6.193.19-.563.378-.938.568-.938z" fill="#E8E4BE"/><path fill-rule="evenodd" clip-rule="evenodd" d="M68.313 69.438c.757 0 1.514.187 2.27.187.19 0 .38.376.38.939-.19 2.064-.19 4.128-.38 6.38 0 .563-.188.939-.567.939-2.081-.188-4.163-.376-6.244-.376-.19 0-.378-.375-.378-.938 0-.938.189-1.877.189-2.627 1.324-.563 3.027-.939 4.73-4.504z" fill="#CECECE"/><path fill-rule="evenodd" clip-rule="evenodd" d="M34.444 87.079c2.081-.376 4.352-.751 6.433-.939.19 0 .379.376.379.751-.19 1.877-.379 3.753-.379 5.63 0 .376-.189.75-.567.939-2.082.187-4.352.375-6.434.563-.189 0-.378-.188-.378-.751.19-1.69.379-3.566.568-5.443-.19-.375.189-.75.378-.75z" fill="#E8E4BE"/><path fill-rule="evenodd" clip-rule="evenodd" d="M39.931 86.328h.947c.189 0 .378.375.378.75-.19 1.877-.379 3.754-.379 5.63 0 .376-.189.752-.567.94-2.082.187-4.352.374-6.434.562-.189 0-.378-.188-.378-.375.568-1.501 2.081-2.44 3.974-3.378 1.703-1.126 1.703-3.003 2.46-4.129z" fill="#CECECE"/><path fill-rule="evenodd" clip-rule="evenodd" d="M49.013 85.765h6.244c.19 0 .379.375.379.938-.19 2.065-.19 3.941-.379 6.006 0 .563-.189.938-.567.938-2.082-.188-4.352-.188-6.434-.188-.19 0-.378-.375-.378-.938.189-1.877.189-3.753.378-5.818.379-.563.568-.938.757-.938z" fill="#E8E4BE"/><path fill-rule="evenodd" clip-rule="evenodd" d="M53.743 85.765h1.514c.19 0 .379.375.379.938-.19 2.065-.19 3.941-.379 6.006 0 .563-.189.938-.567.938-2.082-.188-4.352-.188-6.434-.188-.19 0-.378-.375-.378-.938v-1.314c3.784-1.501 4.163 0 5.298-4.691.378-.376.378-.563.567-.751z" fill="#CECECE"/><path fill-rule="evenodd" clip-rule="evenodd" d="M63.391 86.14c2.082.188 4.163.376 6.245.751.189 0 .378.563.378.938 0 2.065-.19 4.13-.19 6.381 0 .563-.188.939-.567.939-2.081-.376-4.352-.564-6.433-.939-.19 0-.379-.375-.379-.938 0-2.065.19-4.129.379-6.193.189-.563.378-.939.567-.939z" fill="#E8E4BE"/><path fill-rule="evenodd" clip-rule="evenodd" d="M67.368 86.516c.757 0 1.514.187 2.46.375.189 0 .378.563.378.938 0 2.065-.189 4.13-.189 6.381 0 .563-.19.939-.568.939-2.081-.376-4.352-.563-6.433-.939-.19 0-.378-.375-.378-.938 0-.939 0-1.877.189-2.628 1.324-.375 3.027-.75 4.54-4.128z" fill="#CECECE"/><path fill-rule="evenodd" clip-rule="evenodd" d="M33.115 101.529c2.271-.188 4.352-.375 6.623-.375.19 0 .379.375.379.751-.19 1.876-.19 3.753-.379 5.63 0 .375-.19.75-.568.75-2.27 0-4.352 0-6.622.188-.19 0-.379-.375-.379-.751.19-1.689.19-3.565.379-5.442.19-.375.378-.751.567-.751z" fill="#E8E4BE"/><path fill-rule="evenodd" clip-rule="evenodd" d="M38.792 101.154h.946c.19 0 .379.375.379.751-.19 1.876-.19 3.753-.379 5.63 0 .375-.19.75-.568.75-2.27 0-4.352 0-6.622.188-.19 0-.379-.188-.379-.375.568-1.502 2.082-2.252 3.974-3.191 1.892-.75 1.892-2.627 2.65-3.753z" fill="#CECECE"/><path fill-rule="evenodd" clip-rule="evenodd" d="M48.066 101.342c2.082.187 4.352.375 6.434.563.19 0 .378.375.378.938 0 2.064-.189 3.941-.189 6.005 0 .563-.19.939-.568.751-2.081-.188-4.352-.563-6.433-.751-.19 0-.378-.375-.378-.938 0-1.877.189-3.753.189-5.818 0-.375.189-.75.567-.75z" fill="#E8E4BE"/><path fill-rule="evenodd" clip-rule="evenodd" d="M52.797 101.717c.568 0 1.135.188 1.703.188.19 0 .378.375.378.938 0 2.064-.189 3.941-.189 6.005 0 .563-.19.939-.568.751-2.081-.188-4.352-.563-6.433-.751-.19 0-.378-.375-.378-.938v-1.314c3.784-1.126 4.162.376 5.298-4.316 0-.188 0-.563.189-.563z" fill="#CECECE"/><path fill-rule="evenodd" clip-rule="evenodd" d="M62.82 102.655c2.082.376 4.353.751 6.434 1.126.19 0 .379.563.379.939 0 2.064-.19 4.316-.19 6.38 0 .563-.189.939-.378.939-2.081-.376-4.352-.939-6.433-1.314-.19 0-.379-.563-.379-.938 0-2.065.19-4.129.19-6.193-.19-.563 0-.939.378-.939z" fill="#E8E4BE"/><path fill-rule="evenodd" clip-rule="evenodd" d="M66.794 103.406c.757.188 1.703.375 2.46.375.19 0 .379.563.379.939 0 2.064-.19 4.316-.19 6.38 0 .563-.189.939-.378.939-2.081-.376-4.352-.939-6.433-1.314-.19 0-.379-.563-.379-.938v-2.628c1.136-.187 3.028-.375 4.541-3.753z" fill="#CECECE"/><path fill-rule="evenodd" clip-rule="evenodd" d="M32.174 115.98c2.271 0 4.352 0 6.623.187.19 0 .378.376.378.939 0 1.876-.189 3.753-.189 5.63 0 .375-.189.751-.567.751-2.271-.188-4.542-.376-6.623-.376-.19 0-.378-.375-.378-.75 0-1.877.189-3.566.189-5.443.189-.563.378-.938.567-.938z" fill="#E8E4BE"/><path fill-rule="evenodd" clip-rule="evenodd" d="M37.85 116.168h.947c.19 0 .378.375.378.938 0 1.877-.189 3.753-.189 5.63 0 .375-.189.751-.567.751-2.271-.188-4.542-.376-6.623-.376-.19 0-.378-.187-.378-.375.567-1.501 2.08-2.252 3.973-2.815 1.892-.751 1.892-2.627 2.46-3.753z" fill="#CECECE"/><path fill-rule="evenodd" clip-rule="evenodd" d="M47.309 116.918c2.27.188 4.352.563 6.623.938.189 0 .378.563.378.939 0 2.064 0 3.941-.19 6.005 0 .563-.188.939-.378.751-2.27-.375-4.352-.751-6.622-1.126-.19 0-.379-.375-.379-.938 0-1.877 0-3.942.19-5.818 0-.376.189-.751.378-.751z" fill="#E8E4BE"/><path fill-rule="evenodd" clip-rule="evenodd" d="M52.228 117.669c.568.187 1.136.187 1.703.187.19 0 .379.563.379.939 0 2.064 0 3.941-.19 6.005 0 .563-.188.939-.378.751-2.27-.375-4.352-.751-6.622-1.126-.19 0-.379-.375-.379-.938v-1.314c3.785-.939 4.163.563 5.298-3.941 0-.188 0-.376.19-.563z" fill="#CECECE"/><path fill-rule="evenodd" clip-rule="evenodd" d="M62.256 119.358c2.27.563 4.352.938 6.622 1.501.19 0 .379.563.379 1.126v6.381c0 .563-.19.938-.379.751-2.27-.563-4.352-1.126-6.622-1.689-.19 0-.379-.563-.379-.939v-6.193c0-.563.19-.938.379-.938z" fill="#E8E4BE"/><path fill-rule="evenodd" clip-rule="evenodd" d="M66.418 120.296c.757.188 1.703.376 2.46.563.19 0 .379.563.379 1.126v6.381c0 .563-.19.938-.379.938-2.27-.563-4.352-1.126-6.622-1.689-.19 0-.379-.563-.379-.938v-2.815c1.325-.188 3.028-.188 4.541-3.566z" fill="#CECECE"/><path fill-rule="evenodd" clip-rule="evenodd" d="M31.797 130.618l6.811.563c.19 0 .379.375.379.938v5.631c0 .375-.19.75-.379.75-2.27-.375-4.54-.563-6.811-.938-.19 0-.379-.376-.379-.939v-5.442c-.189-.188 0-.563.379-.563z" fill="#E8E4BE"/><path fill-rule="evenodd" clip-rule="evenodd" d="M37.47 131.181c.378 0 .567 0 .946.188.189 0 .378.375.378.938v5.63c0 .375-.19.751-.378.751-2.271-.376-4.542-.563-6.812-.939-.19 0-.379-.187-.379-.375.568-1.501 2.082-2.064 3.785-2.627 1.892-.563 1.892-2.44 2.46-3.566z" fill="#CECECE"/><path fill-rule="evenodd" clip-rule="evenodd" d="M47.12 132.682c2.272.376 4.542.939 6.623 1.502.19 0 .379.563.379.938 0 2.064 0 4.129.19 6.005 0 .563-.19.939-.38.751l-6.811-1.689c-.19 0-.379-.563-.568-.938v-5.818c0-.375.19-.751.568-.751z" fill="#E8E4BE"/><path fill-rule="evenodd" clip-rule="evenodd" d="M52.04 133.621c.568.187 1.136.187 1.703.375.19 0 .379.563.379.938 0 2.065 0 4.129.19 6.006 0 .563-.19.938-.38.751l-6.811-1.69c-.19 0-.379-.563-.568-.938v-1.314c3.785-.75 4.352.939 5.11-3.753.188 0 .188-.188.378-.375z" fill="#CECECE"/><path fill-rule="evenodd" clip-rule="evenodd" d="M62.26 136.248c2.271.563 4.353 1.314 6.623 1.877.19 0 .568.563.568 1.126 0 2.064.19 4.316.19 6.381 0 .563-.19.938-.38.75-2.27-.75-4.54-1.313-6.811-2.064-.19 0-.568-.563-.568-1.126 0-2.064-.189-4.129-.189-6.193.19-.376.379-.751.568-.751z" fill="#E8E4BE"/><path fill-rule="evenodd" clip-rule="evenodd" d="M66.418 137.374c.757.188 1.703.563 2.46.751.19 0 .568.563.568 1.126 0 2.064.19 4.316.19 6.381 0 .563-.19.938-.38.75-2.27-.75-4.54-1.313-6.811-2.064-.19 0-.568-.563-.568-1.126v-2.815c1.325.188 3.217.188 4.541-3.003z" fill="#CECECE"/><path fill-rule="evenodd" clip-rule="evenodd" d="M40.305 43.164c1.892-.938 3.974-1.69 5.866-2.44.189 0 .378.188.378.75-.189 1.878-.567 3.754-.757 5.631 0 .375-.378.938-.567.938-1.892.563-3.974 1.314-6.055 2.065-.19.187-.379-.188-.379-.563.379-1.877.568-3.566.946-5.443 0-.375.19-.75.568-.938z" fill="#E8E4BE"/><path fill-rule="evenodd" clip-rule="evenodd" d="M45.226 41.1c.19 0 .568-.188.757-.188.189 0 .378.188.378.75-.189 1.877-.567 3.754-.757 5.63 0 .376-.378.939-.567.939-1.892.563-3.974 1.314-6.055 2.064-.19 0-.19 0-.379-.187.757-1.69 2.082-3.003 3.785-4.317 2.081-1.313 2.081-3.19 2.838-4.691z" fill="#CECECE"/><path fill-rule="evenodd" clip-rule="evenodd" d="M53.55 38.66c1.892-.563 3.784-.939 5.866-1.502.189 0 .378.376.378.751-.19 2.065-.378 4.129-.568 6.005 0 .564-.189.939-.567.939-1.892.375-3.974.75-5.866 1.314-.19 0-.378-.376-.378-.751.189-1.877.378-3.941.756-5.818 0-.563.19-.938.379-.938z" fill="#E8E4BE"/><path fill-rule="evenodd" clip-rule="evenodd" d="M57.902 37.534c.567-.188.946-.188 1.514-.376.189 0 .378.376.378.751-.19 2.065-.378 4.129-.568 6.005 0 .564-.189.939-.567.939-1.892.375-3.974.75-5.866 1.314-.19 0-.378-.376-.378-.751s.189-.938.189-1.314c3.595-2.252 3.784-.938 5.109-5.817 0-.376 0-.564.189-.751z" fill="#CECECE"/><path fill-rule="evenodd" clip-rule="evenodd" d="M66.795 35.845c1.892-.188 3.784-.376 5.866-.563.189 0 .378.375.378.938-.19 2.065-.19 4.316-.378 6.38 0 .564-.19.94-.379.94-1.892 0-3.973.187-5.865.375-.19 0-.379-.376-.379-.939l.568-6.193c-.19-.563 0-.938.189-.938z" fill="#E8E4BE"/><path fill-rule="evenodd" clip-rule="evenodd" d="M70.39 35.282c.757 0 1.514 0 2.27-.188.19 0 .38.375.38.938-.19 2.065-.19 4.317-.38 6.381 0 .563-.188.939-.378.939-1.892 0-3.973.187-5.865.375-.19 0-.379-.375-.379-.938 0-.939.19-1.877.19-2.815.945-.188 2.648-.751 4.162-4.692z" fill="#CECECE"/><path fill-rule="evenodd" clip-rule="evenodd" d="M0 134c112.589 29.281 234.071 45.885 360 49.474V226H170.04C108.676 217.688 52.292 205.409 0 189.918V134z" fill="url(#paint0_linear_2_30365)"/><path fill-rule="evenodd" clip-rule="evenodd" d="M360 199.079c0 1.703-.185 3.217-.185 4.921-10.354-.568-20.524-1.325-30.508-1.893 0-1.514 0-3.218.185-4.732 9.984.568 20.154 1.136 30.508 1.704zm-60.092-3.786c-.185 1.514-.185 3.218-.37 4.732-9.615-.757-19.045-1.514-28.66-2.271 0-1.515.185-3.029.37-4.543 9.615.568 19.045 1.325 28.66 2.082zm-56.21-4.732c-.185 1.514-.185 3.028-.37 4.543-9.06-.758-17.935-1.704-26.81-2.65.185-1.515.185-3.029.37-4.543 8.875.946 17.75 1.893 26.81 2.65zm-52.696-5.49c-.185 1.515-.37 2.84-.555 4.354-8.506-.946-16.826-2.082-25.147-3.218.185-1.514.37-2.839.555-4.353 8.321 1.325 16.826 2.271 25.147 3.217zm-49.369-6.246c-.185 1.325-.554 2.839-.554 4.164-7.951-1.135-15.717-2.271-23.668-3.596.185-1.325.37-2.839.74-4.164 7.766 1.325 15.532 2.46 23.482 3.596zm-46.41-7.382c-.37 1.325-.554 2.65-.74 4.164-7.395-1.325-16.27-3.218-23.482-4.543.555-1.135 1.665-2.271 2.034-3.596l22.188 3.975zm-41.602-7.95c-1.11 1.325-2.219 2.65-2.589 3.786-7.026-1.515-13.867-3.029-20.893-4.543.554-1.136 2.034-2.461 2.403-3.597 6.842 1.325 14.053 2.84 21.079 4.354zm-40.493-9.086c-.74 1.136-2.404 2.272-3.328 3.218-3.329-.757-6.657-1.704-9.8-2.461V151c4.438 1.136 9.245 2.461 13.128 3.407z" fill="url(#paint1_linear_2_30365)"/><path fill-rule="evenodd" clip-rule="evenodd" d="M10.22 85.202c1.893.375 3.217 4.316 3.217 8.82 0 3.19-.567 5.818-1.703 7.507v.939c2.082 2.064 3.406 5.817 3.406 10.321 0 6.569-3.027 11.824-6.622 11.824h-.19c-.946 1.689-1.892 2.627-2.838 2.627-1.514 0-3.027-2.064-3.973-5.63-.568 0-.946-.188-1.325-.563V83.701c3.028-4.13 8.515-4.88 10.029 1.501z" fill="#41BF7C"/><path fill-rule="evenodd" clip-rule="evenodd" d="M4.731 91.395h-.568l-.378 49.92h1.324l-.378-49.92z" fill="#3CA0AB"/><path fill-rule="evenodd" clip-rule="evenodd" d="M8.893 90.644c1.325.376 2.27 3.003 2.27 6.194 0 2.252-.378 4.128-1.134 5.254v.563c1.513 1.502 2.46 4.129 2.46 7.319 0 4.692-2.082 8.446-4.731 8.446h-.19c-.567 1.126-1.324 1.876-2.08 1.876-1.136 0-2.082-1.501-2.839-4.128-1.135 0-2.081-1.314-2.649-3.191v-11.635c.378-.939.757-1.69 1.135-2.252C.378 97.776.19 96.65 0 95.336v-1.501c.568-6.006 7.569-9.384 8.893-3.19z" fill="#3CB574"/><path fill-rule="evenodd" clip-rule="evenodd" d="M19.298 121.61c.757 0 1.514.188 2.082.563.757-2.252 6.055-1.126 6.055 2.252 0 2.064-.379 2.627-.946 3.566.757.938 1.135 2.439 1.135 3.753 0 3.19-2.27 5.818-5.109 5.818-1.135 0-2.081-.376-3.027-1.126-.568.75-1.514 1.126-2.46 1.126-2.65 0-4.73-2.252-4.73-5.067 0-1.689.756-3.003 1.892-3.941 0-3.941 2.27-6.944 5.108-6.944z" fill="#41BF7C"/><path fill-rule="evenodd" clip-rule="evenodd" d="M19.868 130.618H19.3l-.189 8.82h.946l-.189-8.82z" fill="#3CA0AB"/><path fill-rule="evenodd" clip-rule="evenodd" d="M19.675 124.237c.568 0 .946.188 1.325.376.567-1.502 3.973-.751 3.973 1.501 0 1.314-.189 1.689-.567 2.252.567.751.757 1.501.757 2.44 0 2.064-1.514 3.753-3.217 3.753-.757 0-1.325-.188-1.892-.751-.568.376-1.136.563-1.892.563-1.703 0-3.028-1.501-3.028-3.19 0-1.126.568-2.064 1.135-2.627 0-2.252 1.514-4.317 3.406-4.317z" fill="#3CB574"/><path fill-rule="evenodd" clip-rule="evenodd" d="M197.166 218.823c-52.414-5.255-100.286-11.072-132.264-18.016 23.652-.751 47.305-1.689 70.957-2.44 6.812.938 13.813 1.877 20.625 3.003 33.681 3.002 67.361 5.818 101.042 8.82 5.488.563 10.975.939 16.462 1.502 5.298.563 10.218 1.501 14.57 3.378-27.437 5.817-58.847 5.817-91.392 3.753z" fill="#B5B5B5"/><path fill-rule="evenodd" clip-rule="evenodd" d="M289.129 197.053c-84.202-32.091-166.323-87.454-250.525-119.545 34.248-6.944 70.01-15.39 104.259-22.333 26.112 3.378 52.413 6.756 78.525 10.134v39.974c10.029.751 18.355 1.877 24.599 5.067 6.622 7.131 12.299 14.826 18.165 21.957h3.216c.568 0 .947.188.947.939v3.002c6.244 5.443 11.353 9.572 17.597 15.014 2.838 3.753 5.676 9.759 6.055 17.453 0 1.502.568 3.003.757 4.504.757 5.255 0 8.821-.379 13.137-.757 5.067-1.324 10.322-3.216 10.697z" fill="#fff"/><path fill-rule="evenodd" clip-rule="evenodd" d="M140.595 185.793c0 5.067-.189 10.134-.189 15.201 5.298 0 10.596.188 15.894.188 2.46-.938 4.163-2.815 5.677-5.067.189-3.753.189-7.507.378-11.26-7.19.375-14.38.563-21.76.938z" fill="#403E32"/><path fill-rule="evenodd" clip-rule="evenodd" d="M149.488 201.182h1.514c.757-.563 1.325-1.126 2.081-1.877 1.325-1.689 2.46-3.565 3.028-5.067l-.757-.187c-.378 1.501-1.514 3.378-2.838 4.879-.946.751-2.082 1.689-3.028 2.252z" fill="#36342B"/><path fill-rule="evenodd" clip-rule="evenodd" d="M140.407 176.034c4.352 0 7.947 5.631 7.947 12.387 0 6.943-3.595 12.386-7.947 12.386s-7.947-5.63-7.947-12.386c0-6.756 3.595-12.387 7.947-12.387z" fill="#4F4D3E"/><path fill-rule="evenodd" clip-rule="evenodd" d="M140.216 179.788c3.027 0 5.487 3.941 5.487 8.82 0 4.88-2.46 8.821-5.487 8.821-3.028 0-5.487-3.941-5.487-8.821 0-4.879 2.459-8.82 5.487-8.82z" fill="#737160"/><path fill-rule="evenodd" clip-rule="evenodd" d="M143.809 182.04c1.136 1.689 1.703 3.941 1.703 6.568 0 2.628-.757 4.88-1.703 6.569-.189 0-.567.187-.757.187-2.27 0-4.162-3.002-4.162-6.568s1.892-6.569 4.162-6.569c.19-.375.568-.375.757-.187zm117.695-48.794h4.541c.568 0 1.135.375 1.135 1.126v7.507c0 .563-.378 1.126-1.135 1.126h-4.541c-.568 0-1.136-.376-1.136-1.126v-7.507c.19-.563.568-1.126 1.136-1.126zm5.296 59.679c-1.135 6.193-2.27 12.198-3.595 18.391h9.083c5.487-1.876 9.082-6.005 10.028-13.137-5.109-1.876-10.218-3.565-15.516-5.254z" fill="#403E32"/><path fill-rule="evenodd" clip-rule="evenodd" d="M263.392 181.477c6.623 0 12.11 6.756 12.11 14.826 0 8.257-5.487 14.825-12.11 14.825-6.622 0-12.11-6.756-12.11-14.825 0-8.258 5.298-14.826 12.11-14.826z" fill="#4F4D3E"/><path fill-rule="evenodd" clip-rule="evenodd" d="M262.64 186.168c4.731 0 8.515 4.692 8.515 10.322 0 5.63-3.784 10.322-8.515 10.322-4.73 0-8.515-4.692-8.515-10.322-.189-5.817 3.785-10.322 8.515-10.322z" fill="#737160"/><path fill-rule="evenodd" clip-rule="evenodd" d="M83.446 191.423c-1.135-1.313-.946-3.378-1.513-3.941-.757-.75-2.839-1.126-6.812-1.126-.757-.187-1.514-.375-1.892-.563.757-3.753 1.135-5.067 1.135-6.005-7.758.187-15.327.187-23.085.375v-5.255h13.813v-9.571c24.03.188 48.062.188 72.092.375 19.301-2.439 38.412-4.879 57.712-7.319 21.192 10.322 42.574 20.644 63.766 30.966l8.515 9.571c-.189 3.19-1.892 4.879-3.784 5.442-1.703-.187-3.595-1.689-6.055-1.876-7.569 0-14.948 0-22.706.938-6.245 1.689-12.489 3.003-19.301 3.378-10.785-2.44-20.624-5.067-31.599-7.507-1.135-.187-3.027-.375-4.352-.375-10.407-2.815-20.625-5.63-31.032-8.445-5.676 0-11.542.188-17.219.188-3.784 1.876-6.811 3.378-9.461 3.378-1.703 0-3.973-.563-9.46-2.628H83.446z" fill="#36342B"/><path fill-rule="evenodd" clip-rule="evenodd" d="M194.516 178.849c.189 12.762.567 25.523.756 38.285 3.596-.188 7.191-.188 10.786-.375 5.109-2.628 8.704-7.132 10.028-14.639-.756-7.319-1.513-15.952-2.459-23.271-6.245-.375-14.002-.375-19.111 0z" fill="#403E32"/><path fill-rule="evenodd" clip-rule="evenodd" d="M39.36 167.777l-.756-90.27L141.349 56.49v.187l1.136 112.978-1.136 1.313-101.988-3.19z" fill="#4AAB3C"/><path fill-rule="evenodd" clip-rule="evenodd" d="M39.364 167.777l-.568-65.872c8.704-3.378 18.165-5.067 28.194-5.067 39.735 0 71.903 28.713 71.903 64.183 0 3.378-.19 6.568-.757 9.759l-98.772-3.003z" fill="#47A639"/><path fill-rule="evenodd" clip-rule="evenodd" d="M141.35 170.967V56.489l78.526 10.322v49.357l-18.922 53.298-59.604 1.501z" fill="#5DC94C"/><path fill-rule="evenodd" clip-rule="evenodd" d="M219.879 106.033c-13.813 8.258-42.007 85.953-72.092 91.02-3.785-25.147-4.542-63.995.756-93.459 25.166-1.314 47.305-.188 71.336 2.439z" fill="#509663"/><path fill-rule="evenodd" clip-rule="evenodd" d="M216.659 157.643c-4.541 6.38-9.272 12.761-13.813 19.142 4.73 6.756 7.001 13.887 8.704 20.831 1.135 1.877 2.649 3.378 4.73 4.317 24.031-1.502 48.251-3.003 72.282-4.317 1.135-1.126 2.081-2.627 2.27-5.067.568-5.63 1.325-11.26 1.514-17.453 0-.375-.568-1.502-1.135-1.502-.189-2.627-.379-5.067-.568-7.694-1.892-3.19-3.784-6.568-5.676-9.759-22.896.751-45.602 1.126-68.308 1.502z" fill="#4F4D3E"/><path fill-rule="evenodd" clip-rule="evenodd" d="M211.548 197.992c1.135 1.876 2.649 3.19 4.541 4.128 24.031-1.501 48.251-3.002 72.282-4.316 1.135-1.126 2.081-2.627 2.27-5.067-.189 1.314-1.135 3.003-3.027 3.566-3.217 1.126-63.956 4.316-70.389 3.941-3.406-.188-5.109-1.502-5.677-2.252zm-3.591-28.151l-3.595 4.88c4.352 4.128 8.137 10.697 10.597 19.705 1.513-.188 3.216-.375 4.73-.563-2.838-11.448-7.001-19.33-11.732-24.022z" fill="#737160"/><path fill-rule="evenodd" clip-rule="evenodd" d="M283.266 154.265c-14.002.563-28.004 1.126-42.006 1.876 4.541 6.569 6.812 14.075 9.271 21.207 11.164.188 22.139.188 32.735-.751.946-4.879.946-12.386 0-22.332z" fill="#403E32"/><path fill-rule="evenodd" clip-rule="evenodd" d="M211.549 159.332c-20.814-17.829-41.439-35.658-62.253-53.486 22.139-.939 46.169-1.126 70.578 0 11.164.938 19.49 2.815 24.599 5.63.378 6.381.757 12.574 1.135 18.955 6.434 1.501 9.272-.939 15.705.563 5.866 6.756 17.03 15.576 24.031 21.394.189 1.877.568 3.753.757 5.63-24.788.563-49.765.938-74.552 1.314z" fill="#5DC94C"/><path fill-rule="evenodd" clip-rule="evenodd" d="M199.438 139.814c-10.974-8.633-19.3-19.142-26.112-30.965 21.382-1.314 44.656-.939 70.957 2.815 8.326 9.383 16.84 18.579 23.841 28.713-22.895-.563-45.98-1.126-68.686-.563z" fill="#F7F3CD"/><path fill-rule="evenodd" clip-rule="evenodd" d="M220.062 109.224c7.758.563 15.895 1.501 24.409 2.627 8.326 9.384 16.841 18.579 23.842 28.714-7.38-.188-14.57-.376-21.76-.563-9.083-11.824-17.787-22.333-26.491-30.778zm-15.7-.939l11.921.563c8.515 8.633 17.408 19.143 26.301 30.966-3.784 0-7.379-.188-11.163-.188-9.083-12.011-18.165-22.708-27.059-31.341z" fill="#FFD767"/><path fill-rule="evenodd" clip-rule="evenodd" d="M199.254 140.002c-5.487-4.317-10.407-9.008-14.569-14.263-4.352-5.255-8.137-10.697-11.353-16.703l-.19-.375h.379c10.785-.751 21.949-.938 33.681-.563 12.677.375 24.976 1.689 37.465 3.378.757.375.378.751-.189.563-13.056-1.877-25.545-2.815-37.276-3.19-11.543-.376-20.058-.376-30.654.375 2.46 3.378 9.65 14.451 16.273 22.333 2.271 2.815 7.758 6.005 9.839 8.07 18.922-.376 48.062-.751 65.659 1.126v.187c-11.542-.375-23.085-.563-34.627-.75-11.542-.376-22.895-.376-34.438-.188z" fill="#737160"/><path fill-rule="evenodd" clip-rule="evenodd" d="M147.781 197.053c-2.082-31.904-3.406-63.432 1.514-91.019 7.568-.376 21.949-1.689 25.733 3.002 5.866 8.07 11.732 16.14 17.598 24.022 9.271 6.568 18.165 12.762 26.49 18.579-1.135 3.566 2.082 9.947 1.703 13.888-5.866 3.566-12.299 7.694-18.165 11.26-4.163-4.129-9.272-4.504-12.677-3.753-7.758 1.689-11.543 12.761-10.786 25.898-10.407-.563-20.814-1.314-31.41-1.877z" fill="#4AAB3C"/><path fill-rule="evenodd" clip-rule="evenodd" d="M147.779 197.053c-.946-16.139-1.892-32.091-1.892-47.48 17.598 2.064 31.978 14.075 36.519 29.839-2.649 4.88-3.784 11.824-3.406 19.518-10.217-.563-20.624-1.314-31.221-1.877z" fill="#47A639"/><path fill-rule="evenodd" clip-rule="evenodd" d="M210.035 172.281l-4.919 3.19c-12.11-12.574-28.572-5.442-28.194 20.081h-1.324c-2.839-26.461 19.3-42.413 34.437-23.271z" fill="#5DC94C"/><path fill-rule="evenodd" clip-rule="evenodd" d="M170.111 110.725c-4.352-.187-8.894-.187-13.246-.375-1.892.375-2.649 1.314-2.838 2.815-.378 8.82-.568 17.829-.946 26.649 0 1.689.946 2.815 2.081 3.566 8.326 2.815 16.652 5.63 24.788 8.445 4.163 1.501 9.082 2.064 10.785-3.566-6.055-11.635-13.056-23.271-19.111-34.906-.378-.939-.378-2.252-1.513-2.628z" fill="#509663"/><path fill-rule="evenodd" clip-rule="evenodd" d="M171.055 111.664c-4.352 0-8.704-.188-12.866-.188-1.703.563-2.082 1.689-2.082 2.815 0 7.882-.189 15.952-.189 23.834.378 1.314 1.324 2.064 2.649 2.627 8.704 2.065 17.408 4.129 25.923 6.381-.189-6.005-.568-12.011-.757-18.016-4.163-6.568-8.515-13.888-12.678-17.453z" fill="#E8E4BE"/><path fill-rule="evenodd" clip-rule="evenodd" d="M200.195 148.635c-5.866-7.507-11.542-15.202-17.408-22.708-.189.375-.378.75-.378 1.313 0 6.569.378 13.325.378 19.893 5.677 1.502 11.542 3.003 17.408 3.566.189-.751.189-1.314 0-2.064z" fill="#4F4D3E"/><path fill-rule="evenodd" clip-rule="evenodd" d="M171.628 130.243h6.433c1.136 0 2.271.938 2.271 2.252v13.887c0 1.126-.946 2.252-2.271 2.252h-6.433c-1.135 0-2.271-.938-2.271-2.252v-13.887c0-1.314.947-2.252 2.271-2.252z" fill="#737160"/><path fill-rule="evenodd" clip-rule="evenodd" d="M178.436 143.38h7.568v2.627h-7.568v-2.627zm0-9.008h7.568v2.627h-7.568v-2.627z" fill="#403E32"/><path fill-rule="evenodd" clip-rule="evenodd" d="M153.462 147.133h3.785c1.135 0 2.081.939 2.081 2.065v1.876c0 1.126-.946 2.065-2.081 2.065h-3.785c-1.135 0-2.081-.939-2.081-2.065v-1.876c.189-1.126 1.135-2.065 2.081-2.065z" fill="#4F4D3E"/><path fill-rule="evenodd" clip-rule="evenodd" d="M232.552 187.107c.946 0 1.703.938 1.703 2.252 0 1.314-.757 2.252-1.703 2.252-.946 0-1.703-.938-1.703-2.252-.189-1.314.757-2.252 1.703-2.252zm57.146-1.877c.567 0 .946.751.946 1.501 0 .939-.379 1.502-.946 1.502-.568 0-.946-.751-.946-1.502 0-.75.378-1.501.946-1.501z" fill="#fff"/><path fill-rule="evenodd" clip-rule="evenodd" d="M282.315 184.479c-9.65.751-19.679.939-29.897.939.379 1.877.568 3.566.947 5.442.378.563.946.751 1.513.939 8.704 0 16.462-.188 24.788-.751 1.892-.938 2.46-4.504 2.649-6.569z" fill="#403E32"/><path d="M286.078 162.099l-43.326.457.012 1.126 43.326-.457-.012-1.126zm2.269 8.819l-43.327.456.012 1.126 43.327-.456-.012-1.126zm-1.505-4.504l-43.326.457.012 1.126 43.327-.457-.013-1.126z" fill="#4F4D3E"/><path fill-rule="evenodd" clip-rule="evenodd" d="M268.887 162.147h-2.838l-1.135 2.252 1.324 4.128 2.271 1.314.568-.188.946-1.126.378-4.316-1.514-2.064z" fill="#807E6D"/><path fill-rule="evenodd" clip-rule="evenodd" d="M290.452 166.088c-1.324-5.443-3.027-10.51-5.109-13.512-.189 4.504.379 10.697.946 16.89 1.514-.563 3.028-1.689 4.163-3.378z" fill="#fff"/><path fill-rule="evenodd" clip-rule="evenodd" d="M290.452 166.088c-.946-3.378-1.893-6.569-3.028-9.196-.946 0-1.514.751-2.081 1.314.189 3.565.378 7.506.757 11.447 1.703-.75 3.216-1.876 4.352-3.565z" fill="#F7F3CD"/><path fill-rule="evenodd" clip-rule="evenodd" d="M290.452 166.088c-1.325-5.443-3.028-10.51-5.109-13.512v1.876c2.838 4.129 3.973 7.882 5.109 11.636z" fill="#807E6D"/><path fill-rule="evenodd" clip-rule="evenodd" d="M241.443 170.216c-7.19-.938-17.597-2.064-19.3-3.378-3.595-2.815-5.487-9.946-5.866-15.388 10.218.75 16.651 4.316 20.436 8.257 2.838 2.627 4.352 6.193 4.73 10.509z" fill="#fff"/><path fill-rule="evenodd" clip-rule="evenodd" d="M241.441 170.217c-7.19-.939-17.597-2.065-19.3-3.379-2.46-1.876-4.163-5.817-4.92-9.758 6.245 0 13.056.75 19.111 2.815 3.217 2.815 4.542 5.817 5.109 10.322z" fill="#F7F3CD"/><path fill-rule="evenodd" clip-rule="evenodd" d="M216.277 152.013v-.751c10.218.751 16.651 4.316 20.436 8.257 2.838 2.815 4.162 6.381 4.73 10.698-1.514-9.009-11.164-16.891-25.166-18.204z" fill="#807E6D"/><path fill-rule="evenodd" clip-rule="evenodd" d="M226.118 158.581c3.027 0 4.73 1.877 4.73 4.129s-1.703 4.129-4.73 4.129c-3.028 0-5.488-1.877-5.488-4.129s2.46-4.129 5.488-4.129z" fill="#FDBF42"/><path fill-rule="evenodd" clip-rule="evenodd" d="M220.63 162.71c0-3.941 7.001-6.006 7.001-.188 0 5.818-7.001 4.317-7.001.188z" fill="#FFD767"/><path fill-rule="evenodd" clip-rule="evenodd" d="M84.392 174.721v29.088h18.543c4.92-1.876 6.055-8.82 5.866-17.453-3.217-3.941-6.244-7.694-9.461-11.635H84.392z" fill="#403E32"/><path fill-rule="evenodd" clip-rule="evenodd" d="M94.99 203.809h1.703c1.514-1.501 2.838-3.565 3.595-6.38 1.136-3.754 1.514-8.633.757-14.451l-1.135.188c.757 5.63.378 10.509-.568 14.075-.946 3.003-2.46 5.255-4.352 6.568z" fill="#36342B"/><path fill-rule="evenodd" clip-rule="evenodd" d="M84.394 174.721c4.352 0 7.948 6.568 7.948 14.45 0 8.07-3.596 14.451-7.948 14.451s-7.568-6.569-7.568-14.638c0-7.883 3.216-14.263 7.568-14.263z" fill="#4F4D3E"/><path fill-rule="evenodd" clip-rule="evenodd" d="M84.012 178.286c3.028 0 5.488 4.88 5.488 11.073 0 6.005-2.46 11.072-5.488 11.072-3.027 0-5.298-4.879-5.298-11.072s2.082-11.073 5.298-11.073z" fill="#737160"/><path fill-rule="evenodd" clip-rule="evenodd" d="M88.366 182.603c.757 1.877 1.135 4.129 1.135 6.568 0 2.44-.379 4.692-1.135 6.569h-.19c-1.892 0-3.216-3.003-3.216-6.569.189-3.565 1.514-6.568 3.406-6.568z" fill="#403E32"/><path d="M53.177 175.096h-2.082v5.255h2.082v-5.255z" fill="#FF753F"/><path fill-rule="evenodd" clip-rule="evenodd" d="M94.229 188.608c-2.081-20.456-17.787-22.896-19.3-2.064-1.136-.188-1.514-.188-1.892-.563.946-5.818 1.703-11.073 2.649-16.891 6.055.188 11.92.376 17.975.563 1.136 6.381 2.271 12.574 3.406 18.955-1.324-.188-1.892-.188-2.838 0z" fill="#737160"/><path fill-rule="evenodd" clip-rule="evenodd" d="M108.801 170.029l-17.408-.563 4.163 18.954 16.841-.375-3.596-18.016zm85.716 8.82c7.191-.187 13.057 8.258 13.246 18.955.189 10.51-5.298 19.33-12.489 19.33-7.19.188-13.056-8.257-13.245-18.955-.189-10.509 5.487-19.33 12.488-19.33z" fill="#4F4D3E"/><path fill-rule="evenodd" clip-rule="evenodd" d="M193.95 184.292c4.73-.188 8.893 6.005 8.893 13.512.189 7.507-3.595 13.7-8.326 13.888-4.73.187-8.893-6.006-8.893-13.513-.189-7.506 3.595-13.7 8.326-13.887z" fill="#737160"/><path fill-rule="evenodd" clip-rule="evenodd" d="M195.842 187.294c3.595 0 6.434 4.692 6.623 10.51.189 6.005-2.649 10.697-6.244 10.885-3.785-1.502-5.866-3.566-7.191-5.63-.946-1.877.568-2.252.379-4.88 0-1.501-1.514-3.565-.946-4.691 2.27-3.566 5.109-5.631 7.379-6.194z" fill="#807E6D"/><path fill-rule="evenodd" clip-rule="evenodd" d="M191.681 191.423c2.459 0 4.352 2.815 4.541 6.381 0 3.566-1.703 6.381-4.163 6.569-2.46 0-4.352-2.816-4.541-6.381 0-3.566 1.892-6.381 4.163-6.569z" fill="#737160"/><path fill-rule="evenodd" clip-rule="evenodd" d="M269.447 162.147h-2.838l-1.135 2.252 1.324 4.128 2.271 1.126 1.514-1.126.378-4.504-1.514-1.876z" fill="#F7F3CD"/><path fill-rule="evenodd" clip-rule="evenodd" d="M172.192 130.618h6.433c1.136 0 2.271.939 2.271 2.252v13.888c0 1.126-.946 2.252-2.271 2.252h-6.433c-1.135 0-2.271-.938-2.271-2.252V132.87c.19-1.313 1.136-2.252 2.271-2.252z" fill="#403E32"/><path fill-rule="evenodd" clip-rule="evenodd" d="M221.006 106.221c-.378-.563-.378-.75-.757-.938-8.325 0-16.272-.375-23.841.375 8.136-.187 16.462-.187 24.598.563z" fill="#fff"/><path fill-rule="evenodd" clip-rule="evenodd" d="M21.387 81.073l38.6-7.882c2.65-.563 5.298.939 5.677 3.19.567 2.253-1.325 4.505-3.974 5.068l-38.6 7.882c-2.65.563-5.299-.938-5.677-3.19-.568-2.253 1.325-4.505 3.974-5.068zM32.17 91.208l31.6-6.569c2.27-.375 4.352.75 4.73 2.628.379 1.876-1.135 3.753-3.216 4.128l-31.6 6.569c-2.27.375-4.352-.751-4.73-2.628-.378-1.689 1.135-3.565 3.217-4.128z" fill="#4AAB3C"/><defs><linearGradient id="paint0_linear_2_30365" x1="0" y1="145.866" x2="336.676" y2="194.984" gradientUnits="userSpaceOnUse"><stop stop-color="#EBEBEB"/><stop offset=".509" stop-color="#EBEBEB"/><stop offset="1" stop-color="#EBEBEB" stop-opacity="0"/></linearGradient><linearGradient id="paint1_linear_2_30365" x1="2.204" y1="151.051" x2="362.538" y2="197.504" gradientUnits="userSpaceOnUse"><stop offset=".083" stop-color="#B5B5B5"/><stop offset="1" stop-color="#B5B5B5" stop-opacity="0"/></linearGradient></defs></svg>