<svg width="618" height="387" fill="none" xmlns="http://www.w3.org/2000/svg"><g clip-path="url(#clip0_2_10581)"><path fill-rule="evenodd" clip-rule="evenodd" d="M135.535 195.321l9.484-108.63 24.782-13.656 36.101 17.296 109.22 5.462 37.937-20.634 36.713 27.006 18.968 114.093-273.205-20.937zM0 56.953C19.274 46.94 38.855 38.14 59.964 32.982c1.224 4.551 2.448 9.103 3.672 13.351-6.12 79.501-11.932 159.001-18.05 238.502L0 281.193V56.953z" fill="#EBEBEB"/><path fill-rule="evenodd" clip-rule="evenodd" d="M107.388 64.843c-17.439-8.8-33.348-19.117-47.421-31.861-25.699 73.735-35.49 157.484-30.594 247.301 23.251 6.676 51.092 14.565 74.344 21.24-5.201-68.576-7.649-141.705 3.671-236.68z" fill="#F5F5F5"/><path fill-rule="evenodd" clip-rule="evenodd" d="M112.888 293.634c2.447-72.218 4.589-144.132 7.037-216.047l10.096-9.103c11.013 9.103 22.027 16.386 33.041 20.634-2.753 77.376-.306 148.38 3.06 217.867-18.051-4.855-35.795-9.103-53.234-13.351z" fill="#E5E5E5"/><path fill-rule="evenodd" clip-rule="evenodd" d="M125.126 310.02c-4.283-81.928-3.365-162.642 4.283-241.84-27.84 4.249-49.868 11.531-69.142 19.724-12.238 57.35-18.357 117.43-17.439 180.848 27.535 13.958 55.07 27.613 82.298 41.268z" fill="#EBEBEB"/><path fill-rule="evenodd" clip-rule="evenodd" d="M234.966 43.906c2.448-3.945 4.895-7.586 7.343-11.531 30.594 13.655 58.434 24.578 81.38 30.647 11.626 79.804 12.849 154.45 12.237 228.488-29.676 1.517-59.046 3.035-88.722 4.552-3.978-84.052-8.261-168.104-12.238-252.156z" fill="#E5E5E5"/><path fill-rule="evenodd" clip-rule="evenodd" d="M242.302 32.375c-22.028 6.676-43.749 16.082-65.777 27.31 2.447 86.175 0 164.766-4.589 239.715 27.229.91 54.457 2.124 81.992 3.034 4.895-91.942 1.53-182.062-11.626-270.059zm199.47-10.014c-31.512 13.352-55.681 27.006-78.015 40.964 11.32 64.026 14.379 138.064 11.32 218.475 31.512.303 62.717.607 94.229.607 3.978-81.018.918-163.856-11.625-248.818-5.201-3.642-10.708-7.586-15.909-11.227z" fill="#EBEBEB"/><path fill-rule="evenodd" clip-rule="evenodd" d="M519.788 49.67c-25.699-11.53-51.704-20.936-78.015-27.612 20.498 92.548 23.252 178.724 12.85 260.046 8.566 14.261 23.557 35.502 34.571 35.805 13.768.304 31.512-14.565 40.384-33.985 8.873-77.983 10.096-155.966-9.79-234.253z" fill="#F5F5F5"/><path fill-rule="evenodd" clip-rule="evenodd" d="M376.621 102.165c3.671-1.517 7.036-3.338 10.708-5.158.306-.303.917.303.917 1.214.612 3.641.918 7.282 1.53 10.923 0 .911 0 1.821-.612 1.821-3.671 1.517-7.342 3.034-10.708 4.552-.306.303-.918-.304-.918-1.214-.305-3.338-.917-6.979-1.529-10.62 0-.304.306-1.214.612-1.518z" fill="#E8E4BE"/><path fill-rule="evenodd" clip-rule="evenodd" d="M385.793 97.917c.612-.303.918-.606 1.53-.606.306-.304.917.303.917 1.213.612 3.641.918 7.283 1.53 10.924 0 .91 0 1.821-.612 1.821-3.671 1.517-7.342 3.034-10.708 4.551-.306 0-.612 0-.612-.607.612-3.338 2.754-5.462 5.507-8.193 2.448-2.73 1.836-6.372 2.448-9.103z" fill="#CECECE"/><path fill-rule="evenodd" clip-rule="evenodd" d="M401.097 90.635c3.672-1.82 7.037-3.338 10.708-5.159.306-.303.918.304.918 1.214.612 3.945 1.224 7.586 1.53 11.53 0 .911 0 1.821-.612 2.125-3.671 1.517-7.343 3.034-10.708 4.551-.306.304-.918-.303-.918-1.213-.612-3.642-.918-7.586-1.53-11.228 0-.91.306-1.82.612-1.82z" fill="#E8E4BE"/><path fill-rule="evenodd" clip-rule="evenodd" d="M409.045 86.69c.918-.303 1.836-.91 2.753-1.214.306-.303.918.304.918 1.214.612 3.945 1.224 7.586 1.53 11.53 0 .911 0 1.821-.612 2.125-3.671 1.517-7.343 3.034-10.708 4.551-.306.304-.918-.303-.918-1.213 0-.911-.306-1.821-.306-2.731 5.813-5.766 7.037-3.035 7.037-13.048 0 0 .306-.607.306-1.214z" fill="#CECECE"/><path fill-rule="evenodd" clip-rule="evenodd" d="M425.567 79.711c3.672-1.214 7.037-2.427 10.708-3.338.306 0 .918.607.918 1.517.612 3.945 1.224 8.193 1.836 12.138 0 .91 0 1.82-.612 1.82-3.671.608-7.343 1.821-11.014 3.035-.306 0-.918-.607-.918-1.517l-1.835-11.834c.306-.91.612-1.82.917-1.82z" fill="#E8E4BE"/><path fill-rule="evenodd" clip-rule="evenodd" d="M432.307 77.284c1.224-.304 2.754-.607 3.977-.91.306 0 .918.606.918 1.517.612 3.944 1.224 8.192 1.836 12.137 0 .91 0 1.82-.612 1.82-3.671.608-7.343 1.821-11.014 3.035-.306 0-.918-.607-.918-1.517-.306-1.82-.612-3.338-.612-5.159 2.448-1.517 5.201-3.337 6.425-10.923z" fill="#CECECE"/><path fill-rule="evenodd" clip-rule="evenodd" d="M380.295 130.992c3.672-1.214 7.343-2.731 11.014-4.248.306-.303.918.303.918 1.214.306 3.641.918 7.282 1.224 11.227 0 .91-.306 1.821-.612 1.821a35505.16 35505.16 0 00-11.014 3.641c-.306 0-.918-.607-.918-1.517-.306-3.642-.612-7.283-.918-10.621-.612-.607-.306-1.517.306-1.517z" fill="#E8E4BE"/><path fill-rule="evenodd" clip-rule="evenodd" d="M389.463 127.351c.611-.304.917-.304 1.529-.607.306-.303.918.303.918 1.214.306 3.641.918 7.282 1.224 11.227 0 .91-.306 1.821-.612 1.821a47242.43 47242.43 0 00-11.014 3.641c-.306 0-.612-.304-.612-.607.612-3.338 2.754-5.462 5.813-7.889 2.754-2.428 1.836-6.069 2.754-8.8z" fill="#CECECE"/><path fill-rule="evenodd" clip-rule="evenodd" d="M405.076 120.979c3.671-1.518 7.343-2.731 11.014-4.249.306-.303.918.607.918 1.518.306 3.944.918 7.889 1.223 11.834 0 .91-.305 1.82-.611 2.124-3.672 1.213-7.343 2.427-11.014 3.944-.306 0-.918-.606-.918-1.517-.306-3.944-.918-7.586-1.224-11.53 0-.911.306-1.821.612-2.124z" fill="#E8E4BE"/><path fill-rule="evenodd" clip-rule="evenodd" d="M413.327 117.944l2.754-.91c.306-.304.918.607.918 1.517.305 3.945.917 7.889 1.223 11.834 0 .91-.306 1.821-.612 2.124-3.671 1.214-7.342 2.428-11.013 3.945-.306 0-.918-.607-.918-1.517 0-.911-.306-1.821-.306-2.731 6.119-5.462 7.036-2.428 7.342-12.441.306-.91.306-1.214.612-1.821z" fill="#CECECE"/><path fill-rule="evenodd" clip-rule="evenodd" d="M430.162 111.875a72.982 72.982 0 0111.014-2.73c.306 0 .918.606.918 1.82.306 4.248.918 8.193 1.224 12.441 0 .91-.306 1.821-.612 1.821-3.671.607-7.343 1.517-11.014 2.427-.306 0-.918-.607-.918-1.517-.306-3.945-.918-8.193-1.224-12.137-.306-1.214 0-2.125.612-2.125z" fill="#E8E4BE"/><path fill-rule="evenodd" clip-rule="evenodd" d="M436.888 109.751c1.53-.303 2.754-.606 4.283-.91.306 0 .918.607.918 1.821.306 4.248.918 8.192 1.224 12.441 0 .91-.306 1.82-.612 1.82-3.671.607-7.343 1.517-11.014 2.428-.306 0-.918-.607-.918-1.517-.306-1.821-.306-3.642-.612-5.462 2.142-.911 4.895-2.731 6.731-10.621z" fill="#CECECE"/><path fill-rule="evenodd" clip-rule="evenodd" d="M382.741 160.122c3.671-.91 7.342-2.124 11.014-3.338.306 0 .917.607.917 1.517.306 3.641.306 7.586.612 11.227 0 .911-.306 1.821-.612 1.821l-11.013 2.731c-.306 0-.918-.607-.918-1.517-.306-3.641-.306-7.283-.612-10.924 0-.607.306-1.517.612-1.517z" fill="#E8E4BE"/><path fill-rule="evenodd" clip-rule="evenodd" d="M392.228 157.391c.612-.304.918-.304 1.53-.607.305 0 .917.607.917 1.517.306 3.641.306 7.586.612 11.227 0 .911-.306 1.821-.612 1.821l-11.014 2.731c-.305 0-.611-.303-.611-.607.611-3.338 3.059-5.158 5.812-7.586 3.06-2.124 2.448-5.765 3.366-8.496z" fill="#CECECE"/><path fill-rule="evenodd" clip-rule="evenodd" d="M407.826 152.233c3.671-1.214 7.342-2.124 11.014-3.338.305 0 .917.607.917 1.517.306 3.945.612 7.889.612 12.137 0 .911-.306 1.821-.612 2.125-3.671.91-7.342 2.124-11.013 3.034-.306 0-.918-.607-.918-1.517-.306-3.945-.306-7.89-.612-11.834 0-.911.306-1.821.612-2.124z" fill="#E8E4BE"/><path fill-rule="evenodd" clip-rule="evenodd" d="M416.083 149.805l2.753-.91c.306 0 .918.607.918 1.517.306 3.945.612 7.889.612 12.137 0 .911-.306 1.821-.612 2.125-3.671.91-7.343 2.124-11.014 3.034-.306 0-.918-.607-.918-1.517v-2.731c6.119-4.855 7.037-2.124 7.955-12.138 0-.607.306-.91.306-1.517z" fill="#CECECE"/><path fill-rule="evenodd" clip-rule="evenodd" d="M433.211 144.95c3.671-.91 7.343-1.821 11.014-2.124.306 0 .918.607.918 1.821l.917 12.744c0 .91-.305 1.821-.611 1.821-3.672.303-7.343 1.213-11.014 1.82-.306 0-.918-.607-.918-1.82-.306-4.248-.306-8.193-.612-12.441-.612-.911-.306-1.821.306-1.821z" fill="#E8E4BE"/><path fill-rule="evenodd" clip-rule="evenodd" d="M439.95 143.433c1.53-.304 2.754-.607 4.283-.607.306 0 .918.607.918 1.821l.918 12.744c0 .91-.306 1.821-.612 1.821-3.671.303-7.342 1.213-11.014 1.82-.306 0-.918-.607-.918-1.82 0-1.821-.306-3.642-.306-5.462 1.836-1.214 4.896-2.731 6.731-10.317z" fill="#CECECE"/><path fill-rule="evenodd" clip-rule="evenodd" d="M383.958 189.859c3.671-.607 7.342-1.517 11.014-2.428.306 0 .917.607.917 1.517v11.531c0 .91-.305 1.821-.917 1.821l-11.014 1.82c-.306 0-.612-.607-.612-1.517v-11.227c0-.607.306-1.517.612-1.517z" fill="#E8E4BE"/><path fill-rule="evenodd" clip-rule="evenodd" d="M393.442 188.038c.612 0 .918-.303 1.53-.303.306 0 .917.606.917 1.517v11.53c0 .911-.305 1.821-.917 1.821l-11.014 1.821c-.306 0-.612-.304-.612-.607.918-3.338 3.365-5.159 6.425-7.283 3.059-2.124 2.753-6.068 3.671-8.496z" fill="#CECECE"/><path fill-rule="evenodd" clip-rule="evenodd" d="M409.355 184.093c3.671-.91 7.343-1.82 11.014-2.427.306 0 .918.607.918 1.517v12.138c0 .91-.306 1.82-.918 1.82-3.671.607-7.343 1.517-11.014 2.124-.306 0-.612-.607-.612-1.517v-11.834c-.306-.91.306-1.517.612-1.821z" fill="#E8E4BE"/><path fill-rule="evenodd" clip-rule="evenodd" d="M417.615 182.273c.918-.304 1.836-.304 2.754-.607.305 0 .917.607.917 1.517v12.138c0 .91-.306 1.82-.917 1.82-3.672.607-7.343 1.517-11.014 2.124-.306 0-.612-.607-.612-1.517v-2.731c6.425-4.551 7.036-1.517 8.566-11.53 0-.304 0-.911.306-1.214z" fill="#CECECE"/><path fill-rule="evenodd" clip-rule="evenodd" d="M434.75 178.632c3.671-.607 7.342-1.214 11.013-1.518.306 0 .918.911.918 1.821v12.744c0 .911-.306 1.821-.918 1.821-3.671.303-7.342.607-11.013 1.214-.306 0-.612-.607-.612-1.821v-12.441c-.306-.91 0-1.82.612-1.82z" fill="#E8E4BE"/><path fill-rule="evenodd" clip-rule="evenodd" d="M441.483 177.418c1.529-.304 2.753-.304 4.283-.304.306 0 .918.911.918 1.821v12.744c0 .911-.306 1.821-.918 1.821-3.671.303-7.343.607-11.014 1.214-.306 0-.612-.607-.612-1.821v-5.462c2.142-.91 4.895-2.427 7.343-10.013z" fill="#CECECE"/><path fill-rule="evenodd" clip-rule="evenodd" d="M383.35 219.899c3.671-.607 7.343-.91 11.014-1.517.306 0 .612.607.612 1.517-.306 3.945-.612 7.586-.918 11.531 0 .91-.612 1.82-.918 1.82-3.671.304-7.342.607-11.32 1.214-.306 0-.612-.607-.612-1.517.306-3.641.612-7.283.918-11.227.306-.911.918-1.821 1.224-1.821z" fill="#E8E4BE"/><path fill-rule="evenodd" clip-rule="evenodd" d="M392.834 218.685c.612 0 .918 0 1.53-.303.306 0 .612.607.612 1.517-.306 3.945-.612 7.586-.918 11.531 0 .91-.612 1.82-.918 1.82-3.671.304-7.342.607-11.32 1.214-.306 0-.612-.303-.612-.607 1.224-3.034 3.672-4.855 6.731-6.675 3.671-2.125 3.671-6.069 4.895-8.497z" fill="#CECECE"/><path fill-rule="evenodd" clip-rule="evenodd" d="M408.738 216.258l11.013-1.821c.306 0 .612.607.612 1.821-.306 3.944-.306 8.192-.612 12.137 0 .91-.612 1.821-.917 1.821-3.672.303-7.343.91-11.32 1.517-.306 0-.612-.607-.612-1.821l.918-11.834c.306-.91.612-1.82.918-1.82z" fill="#E8E4BE"/><path fill-rule="evenodd" clip-rule="evenodd" d="M417.31 215.044c.918-.303 1.836-.303 2.753-.303.306 0 .612.606.612 1.82-.306 3.945-.306 8.193-.612 12.138 0 .91-.612 1.82-.917 1.82-3.672.304-7.343.911-11.32 1.517-.306 0-.612-.606-.612-1.82 0-.91 0-1.821.306-2.731 6.73-3.945 7.036-.91 9.178-10.924 0-.607.306-1.214.612-1.517z" fill="#CECECE"/><path fill-rule="evenodd" clip-rule="evenodd" d="M434.437 212.313c3.671-.303 7.342-.91 11.32-.91.306 0 .612.91.612 1.82-.306 4.248-.306 8.497-.612 12.745 0 .91-.612 1.82-.918 1.82-3.671 0-7.343.304-11.32.607-.306 0-.612-.91-.612-1.82.306-4.249.612-8.193.612-12.441 0-.911.306-1.821.918-1.821z" fill="#E8E4BE"/><path fill-rule="evenodd" clip-rule="evenodd" d="M441.173 211.706c1.53 0 2.754-.303 4.283-.303.306 0 .612.91.612 1.82-.306 4.248-.306 8.497-.612 12.745 0 .91-.611 1.82-.917 1.82-3.672 0-7.343.304-11.32.607-.306 0-.612-.91-.612-1.82 0-1.821.306-3.642.306-5.462 2.447-.607 5.507-1.821 8.26-9.407z" fill="#CECECE"/><path fill-rule="evenodd" clip-rule="evenodd" d="M380.289 249.939c3.671-.303 7.649-.303 11.32-.607.306 0 .612.607.612 1.517-.612 3.945-1.224 7.586-1.836 11.228 0 .91-.612 1.517-1.224 1.82-3.671 0-7.648 0-11.319.304-.306 0-.612-.607-.612-1.518l1.835-10.923c.306-.911.918-1.821 1.224-1.821z" fill="#E8E4BE"/><path fill-rule="evenodd" clip-rule="evenodd" d="M390.079 249.636h1.53c.306 0 .612.607.612 1.517a878.924 878.924 0 01-1.836 11.227c0 .911-.612 1.517-1.224 1.821-3.671 0-7.648 0-11.319.303-.306 0-.612-.303-.612-.607 1.529-3.034 4.283-4.551 7.648-6.068 3.366-2.124 3.672-5.766 5.201-8.193z" fill="#CECECE"/><path fill-rule="evenodd" clip-rule="evenodd" d="M405.989 248.118c3.671-.303 7.648-.606 11.32-.91.306 0 .612.607.612 1.821-.612 3.944-1.224 8.193-1.836 12.137 0 .911-.612 1.821-.918 1.821-3.671.303-7.648.303-11.32.607-.306 0-.612-.607-.612-1.517l1.836-11.834c.306-1.214.612-1.821.918-2.125z" fill="#E8E4BE"/><path fill-rule="evenodd" clip-rule="evenodd" d="M414.555 247.512c.918 0 1.836 0 2.754-.304.306 0 .612.607.612 1.821-.612 3.944-1.224 8.193-1.836 12.137 0 .911-.612 1.821-.918 1.821-3.671.303-7.648.303-11.32.607-.306 0-.612-.607-.612-1.517 0-.911.306-1.821.306-2.731 7.037-3.338 7.343-.304 10.096-10.317.306-.607.612-1.214.918-1.517z" fill="#CECECE"/><path fill-rule="evenodd" clip-rule="evenodd" d="M431.996 246.298c3.672-.303 7.649-.303 11.32-.303.306 0 .612.91.612 1.82-.612 4.248-.918 8.496-1.53 12.745 0 .91-.612 1.82-.917 1.82-3.672 0-7.649 0-11.32.304-.306 0-.612-.911-.612-1.821.612-4.248 1.224-8.193 1.53-12.441 0-1.214.305-2.124.917-2.124z" fill="#E8E4BE"/><path fill-rule="evenodd" clip-rule="evenodd" d="M439.033 245.691h4.283c.306 0 .612.91.612 1.821-.612 4.248-.918 8.496-1.53 12.744 0 .91-.612 1.821-.917 1.821-3.672 0-7.649 0-11.32.303-.306 0-.612-.91-.612-1.821.306-1.82.612-3.641.612-5.461 2.141-.911 5.201-1.821 8.872-9.407z" fill="#CECECE"/><path fill-rule="evenodd" clip-rule="evenodd" d="M372.642 74.25c3.365-1.821 7.037-3.945 10.402-5.766.306-.303.918.303.918 1.214.612 3.641 1.224 6.979 1.836 10.62 0 .91 0 1.82-.612 1.82-3.672 1.821-7.037 3.642-10.708 5.462-.306.304-.918-.303-.918-1.213-.612-3.338-.918-6.676-1.53-10.317 0-.607 0-1.517.612-1.82z" fill="#E8E4BE"/><path fill-rule="evenodd" clip-rule="evenodd" d="M381.52 69.394c.612-.303.918-.607 1.53-.91.305-.303.917.303.917 1.214.612 3.641 1.224 6.979 1.836 10.62 0 .91 0 1.82-.612 1.82-3.671 1.821-7.036 3.642-10.708 5.462-.306 0-.612 0-.612-.303.306-3.034 2.448-5.765 5.201-8.8 2.448-3.034 1.836-6.372 2.448-9.103z" fill="#CECECE"/><path fill-rule="evenodd" clip-rule="evenodd" d="M396.506 60.898c3.366-1.82 7.037-3.945 10.402-5.765.306-.304.918.303.918 1.213.612 3.642 1.224 7.586 1.836 11.228.306.91 0 1.82-.306 2.124-3.672 1.82-7.037 3.64-10.708 5.462-.306.303-.918-.304-.918-1.214l-1.836-10.924c0-1.214 0-2.124.612-2.124z" fill="#E8E4BE"/><path fill-rule="evenodd" clip-rule="evenodd" d="M404.158 56.346c.918-.606 1.836-.91 2.753-1.517.306-.303.918.304.918 1.214.612 3.641 1.224 7.586 1.836 11.227.306.91 0 1.82-.306 2.124-3.671 1.82-7.037 3.641-10.708 5.462-.306.304-.918-.303-.918-1.214 0-.91-.306-1.82-.306-2.427 5.507-6.069 6.731-3.641 6.731-13.351v-1.517z" fill="#CECECE"/><path fill-rule="evenodd" clip-rule="evenodd" d="M420.373 48.154c3.365-1.518 7.036-3.035 10.708-3.945.306 0 .918.607.918 1.517.612 3.945 1.529 7.89 2.141 11.834.306.91 0 1.82-.306 1.82-3.671.911-7.036 2.125-10.708 3.642-.306.303-.918-.607-.918-1.517-.611-3.945-1.223-7.586-2.141-11.53-.306-.608 0-1.518.306-1.821z" fill="#E8E4BE"/><path fill-rule="evenodd" clip-rule="evenodd" d="M426.792 45.423c1.224-.304 2.754-.91 3.977-.91.306 0 .918.606.918 1.517.612 3.944 1.53 7.889 2.142 11.834.306.91 0 1.82-.306 1.82-3.671.91-7.037 2.124-10.708 3.642-.306.303-.918-.607-.918-1.518-.306-1.82-.612-3.337-.918-5.158 2.142-1.517 4.895-3.641 5.813-11.227z" fill="#CECECE"/><path fill-rule="evenodd" clip-rule="evenodd" d="M260.04 86.386c3.672.91 7.343 2.125 11.32 3.035.306 0 .918.91.918 2.124l.918 11.834c0 .91-.306 1.821-.612 1.517-3.671-.91-7.649-2.124-11.32-3.034-.306 0-.918-.91-.918-2.124l-.918-11.834c-.306-.91 0-1.82.612-1.517z" fill="#F7F3CD"/><path fill-rule="evenodd" clip-rule="evenodd" d="M269.526 89.118c.612 0 .918.303 1.529.606.306 0 .918.91.918 2.124l.918 11.835c0 .91-.306 1.82-.612 1.517-3.671-.911-7.648-2.124-11.32-3.035-.306 0-.612-.607-.612-.91.612-3.034 3.06-3.945 5.813-4.855 3.06-1.214 2.448-5.158 3.366-7.282z" fill="#CECECE"/><path fill-rule="evenodd" clip-rule="evenodd" d="M285.436 94.276c3.671 1.214 7.342 2.428 11.319 3.641.306 0 .918.91.918 1.821.306 3.945.612 7.586.918 11.227 0 .91-.306 1.517-.612 1.517-3.671-.91-7.648-2.124-11.32-3.337-.306 0-.917-.911-.917-2.125-.306-3.944-.612-7.585-.918-11.53 0-.607.306-1.517.612-1.214z" fill="#F7F3CD"/><path fill-rule="evenodd" clip-rule="evenodd" d="M293.999 97.007l2.753.91c.306 0 .918.91.918 1.82.306 3.946.612 7.587.918 11.228 0 .91-.306 1.517-.612 1.517-3.671-.91-7.649-2.124-11.32-3.338-.306 0-.918-.91-.918-2.124 0-.91 0-1.82-.306-2.731 6.119-.91 7.343 2.428 7.955-6.675.306 0 .306-.304.612-.607z" fill="#CECECE"/><path fill-rule="evenodd" clip-rule="evenodd" d="M311.141 101.558c3.671.607 7.343 1.518 11.32 1.821.306 0 .918.91.918 1.821.305 3.641.917 7.282 1.223 10.923 0 .911-.306 1.518-.612 1.518-3.671-.607-7.342-1.214-11.319-1.821-.306 0-.918-.91-.918-1.821-.306-3.641-.612-7.586-1.224-11.227 0-.607.306-1.517.612-1.214z" fill="#F7F3CD"/><path fill-rule="evenodd" clip-rule="evenodd" d="M318.168 102.772c1.53.304 2.754.304 4.284.607.306 0 .917.91.917 1.821.306 3.641.918 7.282 1.224 10.923 0 .911-.306 1.518-.612 1.518-3.671-.607-7.342-1.214-11.32-1.821-.305 0-.917-.91-.917-1.821 0-1.517-.306-3.337-.306-4.855 1.835 0 4.895-.303 6.73-6.372z" fill="#CECECE"/><path fill-rule="evenodd" clip-rule="evenodd" d="M262.192 118.248c3.671.91 7.648 1.82 11.32 2.73.306 0 .918.911.918 1.821.305 3.945.611 7.889.611 11.531 0 .91-.306 1.517-.611 1.517-3.672-.91-7.649-1.821-11.32-2.731-.306 0-.918-.91-.918-1.821-.306-3.944-.612-7.889-.612-11.834 0-.607.306-1.213.612-1.213z" fill="#F7F3CD"/><path fill-rule="evenodd" clip-rule="evenodd" d="M271.973 120.675c.612 0 1.224.303 1.53.303.306 0 .917.911.917 1.821.306 3.945.612 7.889.612 11.531 0 .91-.306 1.517-.612 1.517-3.671-.91-7.648-1.821-11.319-2.731-.306 0-.612-.607-.612-.91.612-3.035 3.059-3.945 6.119-4.855 2.753-.304 2.447-4.552 3.365-6.676z" fill="#CECECE"/><path fill-rule="evenodd" clip-rule="evenodd" d="M288.195 125.53c3.671 1.214 7.649 2.124 11.32 3.034.306 0 .918.911.918 1.821.306 3.641.612 7.586.612 11.227 0 .911-.306 1.517-.612 1.517-3.672-.91-7.649-1.82-11.32-2.73-.306 0-.918-.911-.918-1.821-.306-3.945-.612-7.586-.612-11.531-.306-1.213 0-1.82.612-1.517z" fill="#F7F3CD"/><path fill-rule="evenodd" clip-rule="evenodd" d="M296.458 127.654c.918.303 1.835.607 2.753.607.306 0 .918.91.918 1.821.306 3.641.612 7.585.612 11.227 0 .91-.306 1.517-.612 1.517-3.671-.91-7.648-1.821-11.32-2.731-.306 0-.918-.91-.918-1.821 0-.91 0-1.82-.306-2.731 6.425-1.213 7.343 2.124 8.261-6.979.306 0 .612-.607.612-.91z" fill="#CECECE"/><path fill-rule="evenodd" clip-rule="evenodd" d="M313.891 131.599c3.671.607 7.648 1.214 11.32 1.517.306 0 .918.91.918 1.821.305 3.641.611 7.282.611 10.923 0 .911-.306 1.518-.611 1.518-3.672-.304-7.343-.911-11.32-1.518-.306 0-.918-.91-.918-1.82-.306-3.642-.306-7.283-.612-10.924 0-.91.306-1.517.612-1.517z" fill="#F7F3CD"/><path fill-rule="evenodd" clip-rule="evenodd" d="M320.93 132.509c1.529.304 2.753.304 4.283.607.306 0 .918.91.918 1.821.306 3.641.612 7.282.612 10.923 0 .911-.306 1.518-.612 1.518-3.672-.304-7.343-.911-11.32-1.518-.306 0-.918-.91-.918-1.82 0-1.517-.306-3.338-.306-4.855 2.142-.304 5.201-.607 7.343-6.676z" fill="#CECECE"/><path fill-rule="evenodd" clip-rule="evenodd" d="M264.02 150.109c3.671.91 7.342 1.517 11.32 2.427.306 0 .918.91.918 1.821.305 3.944.305 7.889.611 11.53 0 .911-.306 1.517-.611 1.517-3.672-.91-7.343-1.517-11.014-2.427-.306 0-.918-.91-.918-1.821-.306-3.944-.306-7.889-.612-11.834-.306-.607 0-1.213.306-1.213z" fill="#F7F3CD"/><path fill-rule="evenodd" clip-rule="evenodd" d="M273.816 152.233c.612 0 1.224.303 1.53.303.306 0 .918.91.918 1.821.306 3.944.306 7.889.612 11.53 0 .91-.306 1.517-.612 1.517-3.671-.91-7.343-1.517-11.014-2.427-.306 0-.612-.304-.612-.91.612-3.035 3.06-4.249 6.119-4.855 2.448-.607 1.836-4.855 3.059-6.979z" fill="#CECECE"/><path fill-rule="evenodd" clip-rule="evenodd" d="M289.725 156.177c3.671.911 7.343 1.821 11.32 2.428.306 0 .918.91.918 1.82 0 3.642.306 7.586.306 11.227 0 .911-.306 1.518-.612 1.518-3.671-.607-7.343-1.518-11.014-2.428-.306 0-.918-.91-.918-1.82 0-3.642-.306-7.586-.306-11.531-.306-.607 0-1.214.306-1.214z" fill="#F7F3CD"/><path fill-rule="evenodd" clip-rule="evenodd" d="M298.289 158.301c.918.304 1.836.304 2.754.607.306 0 .918.91.918 1.821 0 3.641.306 7.586.306 11.227 0 .91-.306 1.517-.612 1.517-3.671-.607-7.343-1.517-11.014-2.427-.306 0-.918-.911-.918-1.821v-2.731c6.425-1.517 7.037 1.517 8.261-7.282-.306-.304 0-.607.305-.911z" fill="#CECECE"/><path fill-rule="evenodd" clip-rule="evenodd" d="M315.424 161.336c3.671.607 7.342.91 11.319 1.213.306 0 .918.911.918 1.821 0 3.641.306 7.283.306 10.924 0 .91-.306 1.517-.612 1.517-3.671-.303-7.342-.607-11.014-1.214-.305 0-.917-.91-.917-1.82 0-3.642 0-7.283-.306-10.924-.612-.91-.306-1.517.306-1.517z" fill="#F7F3CD"/><path fill-rule="evenodd" clip-rule="evenodd" d="M322.453 161.942c1.53 0 2.754.304 4.283.304.306 0 .918.91.918 1.82 0 3.642.306 7.283.306 10.924 0 .91-.306 1.517-.612 1.517-3.671-.303-7.342-.607-11.014-1.213-.306 0-.917-.911-.917-1.821v-4.855c1.529 0 4.589-.607 7.036-6.676z" fill="#CECECE"/><path fill-rule="evenodd" clip-rule="evenodd" d="M265.244 181.666c3.671.607 7.342 1.517 11.014 2.124.305 0 .917.91.917 1.821v11.53c0 .91-.306 1.517-.612 1.517-3.671-.607-7.342-1.517-11.013-2.124-.306 0-.612-.91-.918-1.82 0-3.945 0-7.89-.306-11.531.306-.91.612-1.517.918-1.517z" fill="#F7F3CD"/><path fill-rule="evenodd" clip-rule="evenodd" d="M274.728 183.79c.612 0 .918.303 1.53.303.306 0 .918.911.918 1.821v11.531c0 .91-.306 1.517-.612 1.517-3.671-.607-7.342-1.517-11.014-2.124-.306 0-.612-.304-.612-.911.918-3.034 3.06-4.248 6.119-5.158 3.06-.91 2.754-4.855 3.671-6.979z" fill="#CECECE"/><path fill-rule="evenodd" clip-rule="evenodd" d="M290.636 186.824c3.671.607 7.342 1.518 11.014 2.124.305 0 .917.911.917 1.821v11.227c0 .91-.306 1.517-.917 1.517l-11.014-1.82c-.306 0-.612-.911-.612-1.821v-11.227c-.306-1.214.306-1.821.612-1.821z" fill="#F7F3CD"/><path fill-rule="evenodd" clip-rule="evenodd" d="M298.896 188.341c.917.304 1.835.304 2.753.607.306 0 .918.911.918 1.821v11.227c0 .91-.306 1.517-.918 1.517l-11.014-1.82c-.306 0-.612-.911-.612-1.821v-2.731c6.425-1.821 7.037 1.214 8.567-7.586 0-.303 0-.607.306-1.214z" fill="#CECECE"/><path fill-rule="evenodd" clip-rule="evenodd" d="M315.72 190.769l11.013.91c.306 0 .918.911.612 1.517 0 3.642 0 7.283-.306 10.621 0 .91-.306 1.517-.917 1.517-3.672-.304-7.343-.607-11.014-.607-.306 0-.612-.91-.612-1.821v-10.923c.612-.607.918-1.214 1.224-1.214z" fill="#F7F3CD"/><path fill-rule="evenodd" clip-rule="evenodd" d="M322.763 191.376c1.529 0 2.753.303 4.283.303.306 0 .918.91.612 1.517 0 3.642 0 7.283-.306 10.621 0 .91-.306 1.517-.918 1.517-3.671-.304-7.343-.607-11.014-.607-.306 0-.612-.91-.612-1.821v-4.855c2.448 0 5.201-.606 7.955-6.675z" fill="#CECECE"/><path fill-rule="evenodd" clip-rule="evenodd" d="M265.556 213.223l11.014 1.821c.306 0 .612.91.612 1.821 0 3.944 0 7.586-.306 11.53 0 .911-.306 1.517-.918 1.517-3.671-.606-7.343-1.213-10.708-1.82-.306 0-.612-.91-.612-1.821 0-3.944 0-7.889.306-11.53 0-.911.306-1.518.612-1.518z" fill="#F7F3CD"/><path fill-rule="evenodd" clip-rule="evenodd" d="M275.04 215.044c.612 0 .918.303 1.53.303.306 0 .612.911.612 1.821 0 3.945 0 7.586-.306 11.531 0 .91-.306 1.517-.918 1.517-3.671-.607-7.343-1.214-10.708-1.821-.306 0-.612-.303-.612-.91.918-3.035 3.366-4.248 6.425-5.159 3.059-1.213 2.753-5.158 3.977-7.282z" fill="#CECECE"/><path fill-rule="evenodd" clip-rule="evenodd" d="M290.641 217.471c3.671.607 7.343.911 11.014 1.518.306 0 .612.91.612 1.82 0 3.641-.306 7.283-.306 11.227 0 .911-.306 1.518-.918 1.518-3.671-.304-7.343-.607-10.708-1.214-.306 0-.612-.91-.612-1.821 0-3.641.306-7.586.306-11.227-.306-1.214 0-1.821.612-1.821z" fill="#F7F3CD"/><path fill-rule="evenodd" clip-rule="evenodd" d="M298.589 218.685c.918 0 1.836.304 2.754.304.306 0 .612.91.612 1.82 0 3.641-.306 7.283-.306 11.227 0 .911-.306 1.518-.918 1.518-3.672-.304-7.343-.607-10.708-1.214-.306 0-.612-.91-.612-1.821v-2.731c6.425-2.124 7.037.911 8.566-7.889.306-.607.306-.91.612-1.214z" fill="#CECECE"/><path fill-rule="evenodd" clip-rule="evenodd" d="M315.423 220.202c3.672.304 7.343.304 10.708.607.306 0 .612.607.612 1.517 0 3.642-.306 7.283-.306 10.924 0 .91-.306 1.517-.918 1.517-3.671 0-7.342-.303-10.708-.303-.306 0-.612-.91-.612-1.517.306-3.642.306-7.283.306-10.924 0-1.214.306-1.821.918-1.821z" fill="#F7F3CD"/><path fill-rule="evenodd" clip-rule="evenodd" d="M322.154 220.506c1.53 0 2.753 0 3.977.303.306 0 .612.607.612 1.517 0 3.642-.306 7.283-.306 10.924 0 .911-.306 1.517-.918 1.517-3.671 0-7.342-.303-10.708-.303-.306 0-.612-.91-.612-1.517 0-1.517 0-3.035.306-4.855 2.142-.607 4.895-1.517 7.649-7.586z" fill="#CECECE"/><path fill-rule="evenodd" clip-rule="evenodd" d="M264.939 244.781c3.671.607 7.343 1.214 10.708 1.517.306 0 .612.91.612 1.821-.306 3.944-.612 7.586-.612 11.53 0 .911-.306 1.517-.918 1.517-3.671-.303-7.342-.91-10.708-1.517-.306 0-.612-.91-.612-1.82.306-3.945.612-7.89.612-11.531 0-.91.306-1.517.918-1.517z" fill="#F7F3CD"/><path fill-rule="evenodd" clip-rule="evenodd" d="M274.117 245.995c.612 0 .918 0 1.53.303.306 0 .612.91.612 1.821-.306 3.944-.612 7.585-.612 11.53 0 .91-.306 1.517-.918 1.517-3.671-.303-7.342-.91-10.708-1.517-.306 0-.612-.303-.612-.91.918-3.035 3.366-4.248 6.425-5.462 3.06-.91 3.06-4.855 4.283-7.282z" fill="#CECECE"/><path fill-rule="evenodd" clip-rule="evenodd" d="M289.412 248.119c3.671.303 7.036.607 10.707.91.306 0 .612.91.612 1.821-.306 3.641-.306 7.585-.612 11.227 0 .91-.306 1.517-.917 1.517-3.672-.304-7.343-.304-10.708-.607-.306 0-.612-.91-.612-1.821.306-3.641.612-7.586.612-11.227.306-1.213.612-1.82.918-1.82z" fill="#F7F3CD"/><path fill-rule="evenodd" clip-rule="evenodd" d="M297.678 248.726c.918 0 1.836.303 2.754.303.306 0 .612.91.612 1.821-.306 3.641-.306 7.586-.612 11.227 0 .91-.306 1.517-.918 1.517-3.671-.304-7.343-.303-10.708-.607-.306 0-.612-.91-.612-1.821 0-.91 0-1.82.306-2.73 6.425-2.428 7.037.606 8.872-8.497-.306-.303 0-.91.306-1.213z" fill="#CECECE"/><path fill-rule="evenodd" clip-rule="evenodd" d="M314.2 249.636c3.671 0 7.037.303 10.708.303.306 0 .612.607.612 1.517-.306 3.642-.306 7.283-.612 10.924 0 .91-.306 1.517-.918 1.517h-10.708c-.306 0-.612-.607-.612-1.517.306-3.641.306-7.282.612-10.924 0-1.213.306-1.82.918-1.82z" fill="#F7F3CD"/><path fill-rule="evenodd" clip-rule="evenodd" d="M320.619 249.939h3.977c.306 0 .612.607.612 1.517-.306 3.642-.306 7.283-.612 10.924 0 .91-.306 1.517-.918 1.517H312.97c-.306 0-.612-.607-.612-1.517 0-1.517.306-3.338.306-4.855 2.448-.607 5.201-1.517 7.955-7.586z" fill="#CECECE"/><path fill-rule="evenodd" clip-rule="evenodd" d="M257.291 54.222c3.672.91 7.343 2.124 11.014 3.338.306 0 .918.91.918 2.124.306 3.945.612 7.89 1.224 11.834 0 .91-.306 1.517-.612 1.517-3.671-1.213-7.343-2.124-11.014-3.337-.306 0-.918-.91-.918-2.124l-.918-11.834c-.306-.91 0-1.821.306-1.518z" fill="#F7F3CD"/><path fill-rule="evenodd" clip-rule="evenodd" d="M266.776 56.953c.612.304.918.304 1.53.607.306 0 .918.91.918 2.124.306 3.945.612 7.89 1.224 11.834 0 .91-.306 1.517-.612 1.517-3.672-1.213-7.343-2.124-11.014-3.337-.306 0-.612-.607-.612-.91.612-3.035 2.753-3.945 5.813-4.552 2.447-.91 1.835-5.159 2.753-7.283z" fill="#CECECE"/><path fill-rule="evenodd" clip-rule="evenodd" d="M282.379 62.719c3.672 1.517 7.343 2.73 11.014 3.944.306 0 .918 1.214.918 2.124.612 3.945.918 7.586 1.53 11.531 0 .91-.306 1.517-.612 1.517-3.672-1.214-7.343-2.427-11.014-3.944-.306-.304-.918-1.214-.918-2.125-.306-3.944-.918-7.889-1.224-11.834-.306-.607-.306-1.213.306-1.213z" fill="#F7F3CD"/><path fill-rule="evenodd" clip-rule="evenodd" d="M290.335 65.753l2.753.91c.306 0 .918 1.214.918 2.124.612 3.945.918 7.586 1.53 11.53 0 .911-.306 1.518-.612 1.518-3.671-1.214-7.342-2.427-11.014-3.945-.306-.303-.918-1.213-.918-2.124 0-.91-.305-1.82-.305-2.73 6.118-.608 7.036 2.73 7.342-6.373 0 0 .306-.607.306-.91z" fill="#CECECE"/><path fill-rule="evenodd" clip-rule="evenodd" d="M307.161 70.912c3.671.91 7.342 1.517 11.014 2.123.306 0 .917.91.917 1.821.612 3.641 1.224 7.586 1.836 11.227 0 .91 0 1.517-.612 1.517-3.671-.606-7.342-1.213-11.014-2.124-.306 0-.918-.91-.918-1.82-.611-3.945-.917-7.586-1.529-11.53-.306-.608 0-1.518.306-1.215z" fill="#F7F3CD"/><path fill-rule="evenodd" clip-rule="evenodd" d="M313.886 72.125c1.53.304 2.754.607 4.283.607.306 0 .918.91.918 1.82.612 3.642 1.224 7.586 1.836 11.228 0 .91 0 1.517-.612 1.517-3.671-.607-7.343-1.214-11.014-2.124-.306 0-.918-.91-.918-1.82-.306-1.821-.612-3.338-.612-5.16 1.836.304 4.589.304 6.119-6.068z" fill="#CECECE"/><path fill-rule="evenodd" clip-rule="evenodd" d="M183.255 101.559c3.365-1.214 6.731-2.731 10.096-3.945.306 0 .612.607.612 1.517 0 3.641.306 7.283.306 10.924 0 .91-.306 1.82-.612 1.82l-10.096 3.642c-.306 0-.612-.304-.612-1.214 0-3.641-.306-7.283-.306-10.62 0-1.214.306-2.124.612-2.124z" fill="#E8E4BE"/><path fill-rule="evenodd" clip-rule="evenodd" d="M191.828 98.22c.611-.303.917-.303 1.529-.606.306 0 .612.607.612 1.517 0 3.641.306 7.283.306 10.924 0 .91-.306 1.82-.612 1.82l-10.096 3.642c-.306 0-.612 0-.612-.607.612-3.035 2.754-5.462 5.507-7.89 2.754-2.73 2.448-6.372 3.366-8.8z" fill="#CECECE"/><path fill-rule="evenodd" clip-rule="evenodd" d="M206.202 93.062c3.366-.91 6.731-2.124 10.096-3.034.306 0 .612.607.918 1.517.306 3.945.612 7.586.612 11.531 0 .91-.306 1.82-.612 1.82l-10.096 2.731c-.306 0-.612-.607-.918-1.517-.305-3.641-.305-7.586-.611-11.227 0-.91 0-1.517.611-1.82z" fill="#E8E4BE"/><path fill-rule="evenodd" clip-rule="evenodd" d="M213.551 90.938c.918-.303 1.836-.606 2.448-.606.306 0 .612.606.917 1.517.306 3.944.612 7.586.612 11.53 0 .911-.306 1.821-.612 1.821l-10.096 2.731c-.306 0-.611-.607-.917-1.517v-2.731c5.812-4.552 6.424-1.821 7.342-11.53 0-.304.306-.911.306-1.215z" fill="#CECECE"/><path fill-rule="evenodd" clip-rule="evenodd" d="M228.849 86.994l10.096-1.821c.306 0 .918.607.918 1.517l.918 11.834c0 .91-.306 1.821-.612 1.821-3.365.607-6.73 1.214-10.096 1.517-.306 0-.612-.607-.918-1.517-.306-3.945-.612-7.89-.917-11.53 0-.608.306-1.518.611-1.821z" fill="#E8E4BE"/><path fill-rule="evenodd" clip-rule="evenodd" d="M235.271 86.083c1.224-.303 2.447-.303 3.671-.607.306 0 .918.607.918 1.518l.918 11.834c0 .91-.306 1.82-.612 1.82-3.365.607-6.731 1.214-10.096 1.517-.306 0-.612-.606-.918-1.517 0-1.82-.306-3.337-.306-5.158 2.142-.91 4.589-2.428 6.425-9.407z" fill="#CECECE"/><path fill-rule="evenodd" clip-rule="evenodd" d="M183.866 130.688c3.365-1.213 6.731-2.124 10.402-3.337.306 0 .612.606.918 1.517 0 3.641.306 7.282.306 11.227 0 .91-.306 1.821-.612 1.821-3.365.91-7.037 1.82-10.402 3.034-.306 0-.612-.607-.612-1.517 0-3.642 0-7.283-.306-10.924-.306-.91 0-1.821.306-1.821z" fill="#E8E4BE"/><path fill-rule="evenodd" clip-rule="evenodd" d="M192.748 127.958c.612 0 .918-.304 1.53-.304.306 0 .612.607.918 1.517 0 3.642.305 7.283.305 11.228 0 .91-.305 1.82-.611 1.82-3.366.91-7.037 1.821-10.402 3.034-.306 0-.612-.303-.612-.606.612-3.035 3.059-5.462 5.813-7.586 2.447-3.035 2.141-6.676 3.059-9.103z" fill="#CECECE"/><path fill-rule="evenodd" clip-rule="evenodd" d="M207.434 123.709c3.365-.91 6.73-1.82 10.402-2.427.306 0 .611.607.917 1.517 0 3.945.306 7.586.306 11.531 0 .91-.306 1.82-.611 1.82-3.366.607-7.037 1.517-10.402 2.124-.306 0-.612-.607-.612-1.517 0-3.641-.306-7.586-.306-11.227-.306-.91 0-1.821.306-1.821z" fill="#E8E4BE"/><path fill-rule="evenodd" clip-rule="evenodd" d="M215.08 121.585c.918-.303 1.836-.303 2.754-.606.306 0 .612.606.917 1.517 0 3.944.306 7.586.306 11.53 0 .911-.306 1.821-.611 1.821-3.366.607-7.037 1.517-10.402 2.124-.306 0-.612-.607-.612-1.517v-2.731c5.813-4.248 6.73-1.517 7.648-11.227-.306 0 0-.304 0-.911z" fill="#CECECE"/><path fill-rule="evenodd" clip-rule="evenodd" d="M230.987 118.551c3.365-.607 7.037-.91 10.402-1.517.306 0 .612.607.918 1.517.306 3.945.306 7.889.612 11.834 0 .91-.306 1.821-.612 1.821-3.365.303-7.037.91-10.402 1.214-.306 0-.612-.607-.918-1.518-.306-3.944-.306-7.889-.612-11.834 0-.607.306-1.517.612-1.517z" fill="#E8E4BE"/><path fill-rule="evenodd" clip-rule="evenodd" d="M237.406 117.641c1.224-.304 2.754-.304 3.977-.607.306 0 .612.607.918 1.517.306 3.945.306 7.889.612 11.834 0 .91-.306 1.821-.612 1.821-3.365.303-7.036.91-10.402 1.214-.306 0-.612-.607-.918-1.518 0-1.82 0-3.337-.305-5.158 2.141-.607 4.895-2.124 6.73-9.103z" fill="#CECECE"/><path fill-rule="evenodd" clip-rule="evenodd" d="M184.488 159.819c3.365-.911 7.036-1.821 10.402-2.428.306 0 .611.607.611 1.517v11.227c0 .911-.305 1.821-.611 1.821-3.366.607-7.037 1.517-10.402 2.124-.306 0-.612-.607-.612-1.517v-10.924c0-.91.306-1.82.612-1.82z" fill="#E8E4BE"/><path fill-rule="evenodd" clip-rule="evenodd" d="M193.36 157.694c.612 0 .918-.303 1.53-.303.306 0 .611.607.611 1.517v11.227c0 .911-.305 1.821-.611 1.821-3.366.607-7.037 1.517-10.402 2.124-.306 0-.612-.303-.612-.607.918-3.034 3.059-5.158 5.813-7.282 3.059-2.124 2.753-6.069 3.671-8.497z" fill="#CECECE"/><path fill-rule="evenodd" clip-rule="evenodd" d="M208.34 154.357c3.365-.607 7.037-1.214 10.402-2.124.306 0 .612.606.612 1.517 0 3.944 0 7.586.306 11.53 0 .911-.306 1.821-.612 1.821-3.366.607-7.037 1.214-10.402 1.821-.306 0-.612-.607-.612-1.518 0-3.641 0-7.586-.306-11.53 0-.607.306-1.517.612-1.517z" fill="#E8E4BE"/><path fill-rule="evenodd" clip-rule="evenodd" d="M215.994 152.839c.918-.303 1.836-.303 2.754-.606.306 0 .612.606.612 1.517 0 3.944 0 7.586.306 11.53 0 .911-.306 1.821-.612 1.821-3.365.607-7.037 1.214-10.402 1.821-.306 0-.612-.607-.612-1.518v-2.731c6.119-3.944 6.731-1.213 7.954-10.923-.305 0 0-.607 0-.911z" fill="#CECECE"/><path fill-rule="evenodd" clip-rule="evenodd" d="M232.207 150.412c3.365-.304 7.036-.91 10.402-1.214.306 0 .611.607.917 1.821 0 3.944.306 7.889.306 11.834 0 .91-.306 1.82-.612 1.82-3.365.304-7.036.607-10.402.911-.305 0-.611-.607-.611-1.517 0-3.945 0-7.89-.306-11.835-.306-1.213 0-1.82.306-1.82z" fill="#E8E4BE"/><path fill-rule="evenodd" clip-rule="evenodd" d="M238.629 149.502c1.224-.304 2.754-.304 3.978-.304.306 0 .611.607.917 1.821 0 3.944.306 7.889.306 11.834 0 .91-.306 1.82-.612 1.82-3.365.304-7.036.607-10.402.911-.305 0-.611-.607-.611-1.517v-5.159c1.529-1.214 4.283-2.427 6.424-9.406z" fill="#CECECE"/><path fill-rule="evenodd" clip-rule="evenodd" d="M184.794 189.252c3.365-.607 7.036-1.214 10.402-1.821.305 0 .611.607.611 1.517v11.228c0 .91-.306 1.82-.611 1.82-3.672.607-7.037.911-10.708 1.517-.306 0-.612-.606-.612-1.517v-10.923c0-.911.306-1.821.918-1.821z" fill="#E8E4BE"/><path fill-rule="evenodd" clip-rule="evenodd" d="M193.666 187.735c.612 0 .918-.304 1.53-.304.305 0 .611.607.611 1.517v11.228c0 .91-.306 1.82-.611 1.82-3.672.607-7.037.911-10.708 1.517-.306 0-.612-.303-.612-.606.918-3.035 3.059-4.855 6.119-6.676 2.753-2.124 2.447-6.069 3.671-8.496z" fill="#CECECE"/><path fill-rule="evenodd" clip-rule="evenodd" d="M208.652 185.307c3.365-.607 7.037-.91 10.402-1.517.306 0 .612.607.612 1.517v11.531c0 .91-.306 1.82-.612 1.82-3.365.304-7.037.911-10.402 1.214-.306 0-.612-.607-.612-1.517v-11.531c0-.91.306-1.517.612-1.517z" fill="#E8E4BE"/><path fill-rule="evenodd" clip-rule="evenodd" d="M216.613 184.093c.918 0 1.835-.303 2.753-.303.306 0 .612.607.612 1.517v11.531c0 .91-.306 1.82-.612 1.82-3.365.304-7.036.911-10.402 1.214-.306 0-.612-.607-.612-1.517v-2.731c6.119-3.945 6.731-.91 8.261-10.317-.612-.303-.306-.91 0-1.214z" fill="#CECECE"/><path fill-rule="evenodd" clip-rule="evenodd" d="M232.822 181.969c3.365-.303 7.037-.606 10.402-.91.306 0 .612.607.612 1.821v11.834c0 .91-.306 1.82-.612 1.82-3.671.304-7.037.304-10.708.607-.306 0-.612-.607-.612-1.82v-11.834c0-.607.306-1.214.918-1.518z" fill="#E8E4BE"/><path fill-rule="evenodd" clip-rule="evenodd" d="M239.247 181.363c1.224 0 2.753-.304 3.977-.304.306 0 .612.607.612 1.821v11.834c0 .91-.306 1.82-.612 1.82-3.671.304-7.037.304-10.708.607-.306 0-.612-.607-.612-1.82v-5.159c2.142-.607 4.895-1.517 7.343-8.799z" fill="#CECECE"/><path fill-rule="evenodd" clip-rule="evenodd" d="M184.179 218.685c3.671-.303 7.037-.607 10.708-1.214.306 0 .612.607.612 1.518 0 3.641-.306 7.586-.306 11.227 0 .91-.306 1.82-.918 1.82-3.671.304-7.037.607-10.708.911-.306 0-.612-.607-.612-1.517.306-3.642.306-7.283.612-10.924-.306-.911 0-1.821.612-1.821z" fill="#E8E4BE"/><path fill-rule="evenodd" clip-rule="evenodd" d="M193.045 217.775c.612 0 .918 0 1.53-.304.306 0 .612.607.612 1.518 0 3.641-.306 7.586-.306 11.227 0 .91-.306 1.82-.918 1.82-3.671.304-7.037.607-10.708.911-.306 0-.612-.304-.612-.607.918-3.035 3.365-4.552 6.425-6.372 3.059-2.124 3.059-5.766 3.977-8.193z" fill="#CECECE"/><path fill-rule="evenodd" clip-rule="evenodd" d="M208.343 215.954c3.672-.303 7.037-.606 10.708-.91.306 0 .612.607.612 1.517 0 3.945 0 7.586-.306 11.531 0 .91-.306 1.82-.918 1.82-3.671.304-7.036.607-10.707.911-.306 0-.612-.607-.612-1.517 0-3.642.306-7.586.306-11.531.306-.91.611-1.821.917-1.821z" fill="#E8E4BE"/><path fill-rule="evenodd" clip-rule="evenodd" d="M216.298 215.347c.918 0 1.836-.303 2.753-.303.306 0 .612.607.612 1.517 0 3.945 0 7.586-.306 11.531 0 .91-.306 1.82-.918 1.82-3.671.304-7.036.607-10.707.911-.306 0-.612-.607-.612-1.517v-2.731c6.118-3.642 6.73-.607 8.566-10.014.306-.607.306-.91.612-1.214z" fill="#CECECE"/><path fill-rule="evenodd" clip-rule="evenodd" d="M232.516 213.83c3.671-.303 7.037-.303 10.708-.606.306 0 .612.606.612 1.82v11.834c0 .91-.306 1.821-.612 1.821-3.671 0-7.037.303-10.708.303-.306 0-.612-.91-.612-1.82v-11.834c0-.607.306-1.518.612-1.518z" fill="#E8E4BE"/><path fill-rule="evenodd" clip-rule="evenodd" d="M239.247 213.527c1.224 0 2.753 0 3.977-.303.306 0 .612.606.612 1.82v11.834c0 .91-.306 1.821-.612 1.821-3.671 0-7.037.303-10.708.303-.306 0-.612-.91-.612-1.82v-5.159c2.142-.607 4.895-1.517 7.343-8.496z" fill="#CECECE"/><path fill-rule="evenodd" clip-rule="evenodd" d="M182.341 248.119c3.672 0 7.343-.304 11.014-.607.306 0 .612.607.612 1.517-.306 3.641-.612 7.586-.918 11.227 0 .911-.612 1.821-.918 1.821h-11.014c-.305 0-.611-.607-.611-1.517l.917-10.924c.306-.607.612-1.517.918-1.517z" fill="#E8E4BE"/><path fill-rule="evenodd" clip-rule="evenodd" d="M191.825 247.815h1.53c.306 0 .612.607.612 1.517-.306 3.642-.612 7.586-.918 11.228 0 .91-.612 1.82-.918 1.82h-11.014c-.305 0-.611-.303-.611-.607 1.223-3.034 3.671-4.551 6.73-6.068 3.366-1.821 3.366-5.462 4.589-7.89z" fill="#CECECE"/><path fill-rule="evenodd" clip-rule="evenodd" d="M207.423 246.905c3.671-.304 7.342-.304 11.014-.607.306 0 .611.607.611 1.517 0 3.945-.305 7.889-.305 11.531 0 .91-.306 1.82-.918 1.82-3.672 0-7.343.304-11.014.304-.306 0-.612-.607-.612-1.517.306-3.642.306-7.586.612-11.228-.306-.91 0-1.82.612-1.82z" fill="#E8E4BE"/><path fill-rule="evenodd" clip-rule="evenodd" d="M215.387 246.298c.918 0 1.835 0 2.753-.303.306 0 .612.606.612 1.517 0 3.944-.306 7.889-.306 11.53 0 .911-.306 1.821-.918 1.821-3.671 0-7.342.303-11.014.303-.305 0-.611-.606-.611-1.517v-2.731c6.424-3.337 7.036-.303 8.872-9.71.306 0 .612-.303.612-.91z" fill="#CECECE"/><path fill-rule="evenodd" clip-rule="evenodd" d="M232.214 245.691c3.671 0 7.343-.303 11.014-.303.306 0 .612.91.612 1.82v11.834c0 .911-.306 1.821-.918 1.821-3.671 0-7.343 0-11.014.303-.306 0-.918-.91-.612-1.82 0-3.945 0-7.89.306-11.834 0-1.214.306-1.821.612-1.821z" fill="#E8E4BE"/><path fill-rule="evenodd" clip-rule="evenodd" d="M238.945 245.388h4.283c.306 0 .612.91.612 1.82v11.834c0 .911-.306 1.821-.918 1.821-3.671 0-7.343 0-11.014.303-.306 0-.918-.91-.612-1.82v-5.159c2.142-.91 5.201-1.82 7.649-8.799z" fill="#CECECE"/><path fill-rule="evenodd" clip-rule="evenodd" d="M182.959 72.429c3.059-1.517 6.118-3.035 9.484-4.552.306-.303.612.607.612 1.517 0 3.642.306 7.283.306 10.924 0 .91-.306 1.82-.612 1.82-3.366 1.214-6.425 2.732-9.79 4.249-.306.303-.612-.304-.612-1.214V74.249c0-.91.306-1.82.612-1.82z" fill="#E8E4BE"/><path fill-rule="evenodd" clip-rule="evenodd" d="M190.907 68.484c.306-.303.918-.303 1.224-.607.306 0 .612.607.612 1.517 0 3.641.306 7.283.306 10.924 0 .91-.306 1.82-.612 1.82-3.366 1.214-6.425 2.731-9.79 4.249-.306 0-.306 0-.612-.607.612-3.338 2.753-5.765 5.507-8.496 2.753-2.428 2.447-6.07 3.365-8.8z" fill="#CECECE"/><path fill-rule="evenodd" clip-rule="evenodd" d="M204.373 62.719c3.06-1.214 6.119-2.124 9.484-3.338.306 0 .612.607.918 1.517.306 3.641.612 7.586.918 11.227 0 .91-.306 1.82-.612 1.82-3.365.911-6.425 2.125-9.79 3.035-.306 0-.612-.607-.918-1.517-.306-3.641-.612-7.282-.612-11.227 0-.304.306-1.214.612-1.517z" fill="#E8E4BE"/><path fill-rule="evenodd" clip-rule="evenodd" d="M211.404 60.291c.918-.303 1.53-.607 2.448-.91.306 0 .612.607.917 1.517.306 3.641.612 7.586.918 11.227 0 .91-.306 1.82-.612 1.82-3.365.911-6.424 2.125-9.79 3.035-.306 0-.612-.607-.918-1.517 0-.91 0-1.82-.305-2.427 5.201-4.856 6.118-2.125 6.73-11.531.306-.303.306-.607.612-1.214z" fill="#CECECE"/><path fill-rule="evenodd" clip-rule="evenodd" d="M225.792 56.346c3.059-.606 6.118-1.213 9.484-1.82.306 0 .612.607.918 1.517.611 3.945 1.223 7.586 1.529 11.53 0 .91 0 1.821-.612 1.821-3.365.607-6.424 1.214-9.79 1.82-.306 0-.612-.606-.918-1.516-.305-3.642-.917-7.586-1.223-11.531 0-.91.306-1.82.612-1.82z" fill="#E8E4BE"/><path fill-rule="evenodd" clip-rule="evenodd" d="M231.601 54.83c1.224-.304 2.447-.304 3.671-.608.306 0 .612.607.918 1.518.612 3.944 1.224 7.585 1.53 11.53 0 .91 0 1.82-.612 1.82-3.365.608-6.425 1.215-9.79 1.821-.306 0-.612-.606-.918-1.517-.306-1.517-.306-3.338-.612-5.158 2.142-.91 4.589-2.124 5.813-9.407z" fill="#CECECE"/><path fill-rule="evenodd" clip-rule="evenodd" d="M132.162 107.627l4.59 2.731c.305 0 .305.911.305 1.821-.305 3.338-.305 6.675-.611 10.013 0 .911-.306 1.517-.306 1.214l-4.589-2.731c-.306 0-.306-.91-.306-1.821.306-3.337.306-6.979.611-10.316-.305-.607.001-.911.306-.911z" fill="#F7F3CD"/><path fill-rule="evenodd" clip-rule="evenodd" d="M135.839 110.055c.306 0 .306.303.612.303s.306.91.306 1.821c-.306 3.338-.306 6.675-.612 10.013 0 .91-.306 1.517-.306 1.214l-4.589-2.731s-.306-.303-.306-.91c.612-2.731 1.53-3.338 3.06-3.945 1.224-.303 1.53-3.945 1.835-5.765z" fill="#CECECE"/><path fill-rule="evenodd" clip-rule="evenodd" d="M142.564 113.696c1.529.91 3.059 1.517 4.589 2.124.306 0 .306.91.306 1.517 0 3.338-.306 6.676-.306 10.014 0 .91-.306 1.517-.306 1.517-1.53-.607-3.06-1.517-4.589-2.124-.306 0-.306-.91-.306-1.517 0-3.338.306-6.676.306-10.014 0-.91 0-1.517.306-1.517z" fill="#F7F3CD"/><path fill-rule="evenodd" clip-rule="evenodd" d="M145.929 115.517c.306.303.918.303 1.224.607.306 0 .306.91.306 1.517 0 3.338-.306 6.675-.306 10.013 0 .911-.306 1.517-.306 1.517-1.53-.606-3.06-1.517-4.589-2.124-.306 0-.306-.91-.306-1.517v-2.427c2.753-1.214 3.059 1.517 3.977-6.373v-1.213z" fill="#CECECE"/><path fill-rule="evenodd" clip-rule="evenodd" d="M152.965 118.248c1.53.303 3.059.91 4.589 1.213.306 0 .306.607.306 1.517v10.014c0 .91-.306 1.517-.306 1.517-1.53-.303-3.059-.607-4.589-1.214-.306 0-.306-.607-.306-1.517 0-3.338 0-6.675.306-10.013-.306-.911 0-1.517 0-1.517z" fill="#F7F3CD"/><path fill-rule="evenodd" clip-rule="evenodd" d="M156.031 119.158c.611 0 1.223.303 1.835.303.306 0 .306.607.306 1.518v10.013c0 .91-.306 1.517-.306 1.517-1.529-.303-3.059-.607-4.589-1.214-.306 0-.306-.606-.306-1.517v-4.248c.612-.607 1.836-.91 3.06-6.372z" fill="#CECECE"/><path fill-rule="evenodd" clip-rule="evenodd" d="M130.327 135.544c1.53.91 3.366 1.517 4.895 2.427.306 0 .306.91.306 1.821 0 3.337-.306 6.979-.306 10.317 0 .91-.305 1.517-.305 1.517-1.53-.607-3.366-1.517-4.895-2.428-.306 0-.306-.91-.306-1.82.306-3.338.306-6.979.611-10.317-.305-.911 0-1.821 0-1.517z" fill="#F7F3CD"/><path fill-rule="evenodd" clip-rule="evenodd" d="M134.611 137.668c.306 0 .611.303.611.303.306 0 .306.91.306 1.821 0 3.337-.306 6.979-.306 10.317 0 .91-.305 1.517-.305 1.517-1.53-.607-3.366-1.517-4.895-2.428 0 0-.306-.303-.306-.91.611-2.731 1.529-3.641 3.059-4.248 1.224-.911 1.224-4.552 1.836-6.372z" fill="#CECECE"/><path fill-rule="evenodd" clip-rule="evenodd" d="M141.655 141.005c1.53.607 3.365 1.518 4.895 2.124.306 0 .306.911.306 1.518 0 3.337-.306 6.675-.306 10.013 0 .91-.306 1.517-.306 1.517-1.53-.607-3.365-1.214-4.895-1.82-.306 0-.306-.911-.306-1.518 0-3.337.306-6.675.306-10.013-.306-1.214 0-1.821.306-1.821z" fill="#F7F3CD"/><path fill-rule="evenodd" clip-rule="evenodd" d="M145.018 142.523c.306 0 .918.303 1.224.606.306 0 .306.911.306 1.518 0 3.337-.306 6.675-.306 10.013 0 .91-.306 1.517-.306 1.517-1.53-.607-3.365-1.213-4.895-1.82-.306 0-.306-.911-.306-1.518v-2.427c3.059-1.517 3.059 1.214 3.977-6.676.306-.607.306-.91.306-1.213z" fill="#CECECE"/><path fill-rule="evenodd" clip-rule="evenodd" d="M152.668 145.253c1.53.304 3.366.911 4.896 1.214.306 0 .306.607.306 1.517v10.014c0 .91-.306 1.517-.306 1.517-1.53-.303-3.366-.607-4.896-1.214-.305 0-.305-.91-.305-1.517v-10.013c0-1.214 0-1.821.305-1.518z" fill="#F7F3CD"/><path fill-rule="evenodd" clip-rule="evenodd" d="M155.728 145.86c.612 0 1.224.304 1.836.304.306 0 .306.607.306 1.517v10.014c0 .91-.306 1.517-.306 1.517-1.53-.304-3.366-.607-4.896-1.214-.305 0-.305-.91-.305-1.517v-4.248c.917-.304 2.141-.911 3.365-6.373z" fill="#CECECE"/><path fill-rule="evenodd" clip-rule="evenodd" d="M129.107 163.46c1.835.607 3.365 1.517 5.2 2.124.306 0 .306.91.306 1.82 0 3.338-.306 6.979-.306 10.317 0 .911-.305 1.517-.305 1.517-1.836-.606-3.366-1.213-5.201-1.82-.306 0-.306-.91-.306-1.821 0-3.338.306-6.979.306-10.317 0-1.213.306-1.82.306-1.82z" fill="#F7F3CD"/><path fill-rule="evenodd" clip-rule="evenodd" d="M133.388 165.28c.305 0 .611.304.611.304.306 0 .306.91.306 1.82 0 3.338-.306 6.979-.306 10.317 0 .911-.306 1.517-.306 1.517-1.835-.606-3.365-1.213-5.201-1.82 0 0-.305-.304-.305-.911.611-2.73 1.529-3.641 3.059-4.551 1.53-1.214 1.53-4.552 2.142-6.676z" fill="#CECECE"/><path fill-rule="evenodd" clip-rule="evenodd" d="M140.729 168.315c1.835.607 3.365 1.213 5.201 1.82.305 0 .305.911.305 1.518v10.013c0 .91-.305 1.517-.305 1.517-1.836-.607-3.366-1.214-5.201-1.82-.306 0-.306-.911-.306-1.518 0-3.337 0-6.675.306-10.013-.306-.91-.306-1.517 0-1.517z" fill="#F7F3CD"/><path fill-rule="evenodd" clip-rule="evenodd" d="M144.406 169.832c.305 0 .917.303 1.223.303.306 0 .306.911.306 1.517v10.014c0 .91-.306 1.517-.306 1.517-1.835-.607-3.365-1.214-5.201-1.821-.306 0-.306-.91-.306-1.517v-2.427c3.06-1.517 3.366 1.213 3.978-6.676.306-.303.306-.607.306-.91z" fill="#CECECE"/><path fill-rule="evenodd" clip-rule="evenodd" d="M152.356 171.956c1.836.303 3.366.91 5.201 1.214.306 0 .306.607.306 1.517V184.7c0 .911-.306 1.517-.306 1.517-1.835-.303-3.365-.606-5.201-1.213-.305 0-.305-.607-.305-1.517v-10.014c0-.91 0-1.517.305-1.517z" fill="#F7F3CD"/><path fill-rule="evenodd" clip-rule="evenodd" d="M155.421 172.866c.612 0 1.224.304 1.836.304.306 0 .306.607.306 1.517V184.7c0 .911-.306 1.517-.306 1.517-1.836-.303-3.365-.606-5.201-1.213-.306 0-.306-.607-.306-1.518v-4.248c1.224-.607 2.448-.91 3.671-6.372z" fill="#CECECE"/><path fill-rule="evenodd" clip-rule="evenodd" d="M128.186 191.679c1.835.607 3.365 1.214 5.201 1.821.306 0 .306.91.306 1.821 0 3.337 0 6.979-.306 10.316 0 .911-.306 1.518-.306 1.518-1.836-.607-3.671-.911-5.201-1.518-.306 0-.306-.91-.306-1.517 0-3.338.306-6.979.306-10.317 0-1.517 0-2.124.306-2.124z" fill="#F7F3CD"/><path fill-rule="evenodd" clip-rule="evenodd" d="M132.775 193.197c.306 0 .612.303.612.303.306 0 .306.91.306 1.821 0 3.337 0 6.979-.306 10.316 0 .911-.306 1.518-.306 1.518-1.836-.607-3.671-.911-5.201-1.518 0 0-.306-.303-.306-.91.612-2.731 1.53-3.945 3.059-4.855 1.53-1.214 1.53-4.551 2.142-6.675z" fill="#CECECE"/><path fill-rule="evenodd" clip-rule="evenodd" d="M140.12 195.624c1.836.607 3.366 1.214 5.201 1.517.306 0 .306.911.306 1.517v10.014c0 .91-.306 1.517-.306 1.517-1.835-.607-3.671-.91-5.201-1.517-.306 0-.306-.91-.306-1.517v-10.014c0-.91.306-1.517.306-1.517z" fill="#F7F3CD"/><path fill-rule="evenodd" clip-rule="evenodd" d="M144.097 196.838c.306 0 .918.303 1.224.303.306 0 .306.911.306 1.517v10.014c0 .91-.306 1.517-.306 1.517-1.835-.607-3.671-.91-5.201-1.517-.306 0-.306-.91-.306-1.517v-2.428c3.06-1.82 3.366.91 4.283-6.979-.306-.303 0-.607 0-.91z" fill="#CECECE"/><path fill-rule="evenodd" clip-rule="evenodd" d="M152.056 199.265c1.836.304 3.365.911 5.201 1.214.306 0 .306.607.306 1.517v10.014c0 .91 0 1.517-.306 1.517-1.836-.304-3.671-.607-5.201-1.214-.306 0-.306-.607-.306-1.517v-10.013c0-.911.306-1.821.306-1.518z" fill="#F7F3CD"/><path fill-rule="evenodd" clip-rule="evenodd" d="M155.416 199.872c.612 0 1.224.304 2.141.304.306 0 .306.607.306 1.517v10.013c0 .911 0 1.517-.306 1.517-1.835-.303-3.671-.606-5.201-1.213-.305 0-.305-.607-.305-1.517v-4.552c.917 0 2.141-.607 3.365-6.069z" fill="#CECECE"/><path fill-rule="evenodd" clip-rule="evenodd" d="M127.584 219.899c1.835.303 3.671.91 5.507 1.214.306 0 .306.91.306 1.517v10.317c0 .91-.306 1.517-.306 1.517-1.836-.304-3.672-.91-5.507-1.214-.306 0-.306-.91-.306-1.517 0-3.338 0-6.979.306-10.317-.306-.91-.306-1.517 0-1.517z" fill="#F7F3CD"/><path fill-rule="evenodd" clip-rule="evenodd" d="M132.173 221.113c.306 0 .612 0 .918.303.306 0 .306.911.306 1.517v10.317c0 .911-.306 1.517-.306 1.517-1.836-.303-3.672-.91-5.507-1.213 0 0-.306-.304-.306-.911.306-2.731 1.53-3.944 3.059-4.855 1.53-.91 1.224-4.551 1.836-6.675z" fill="#CECECE"/><path fill-rule="evenodd" clip-rule="evenodd" d="M140.124 223.237c1.836.607 3.672.91 5.507 1.517.306 0 .306.91.306 1.517v10.014c0 .91 0 1.517-.306 1.517-1.835-.607-3.671-.91-5.507-1.214-.306 0-.306-.91-.306-1.517v-10.317c-.306-.91 0-1.517.306-1.517z" fill="#F7F3CD"/><path fill-rule="evenodd" clip-rule="evenodd" d="M144.097 224.147c.612 0 .918.304 1.53.304.306 0 .306.91.306 1.517v10.013c0 .911 0 1.517-.306 1.517-1.836-.606-3.671-.91-5.507-1.213-.306 0-.306-.911-.306-1.518v-2.427c3.06-1.821 3.671.91 4.283-7.282-.306 0 0-.607 0-.911z" fill="#CECECE"/><path fill-rule="evenodd" clip-rule="evenodd" d="M152.356 226.271c1.836.304 3.672.911 5.507 1.214.306 0 .306.607.306 1.517 0 3.338.306 6.676.306 10.014 0 .91 0 1.517-.306 1.517-1.835-.304-3.671-.911-5.507-1.214-.306 0-.306-.91-.306-1.517 0-3.338-.305-6.676-.305-10.014 0-.91.305-1.517.305-1.517z" fill="#F7F3CD"/><path fill-rule="evenodd" clip-rule="evenodd" d="M156.024 227.182c.612 0 1.53.303 2.142.303.306 0 .306.607.306 1.517 0 3.338.306 6.676.306 10.014 0 .91 0 1.517-.306 1.517-1.836-.304-3.671-.911-5.507-1.214-.306 0-.306-.91-.306-1.517v-4.552c.612-.303 2.142-.607 3.365-6.068z" fill="#CECECE"/><path fill-rule="evenodd" clip-rule="evenodd" d="M127.272 248.119c1.835.303 3.671.607 5.812.91.306 0 .306.91.306 1.517v10.317c0 .91-.306 1.517-.306 1.517-1.835-.303-3.977-.607-5.812-.91-.306 0-.306-.607-.306-1.517v-10.621c0-.606 0-1.213.306-1.213z" fill="#F7F3CD"/><path fill-rule="evenodd" clip-rule="evenodd" d="M132.167 249.029h.917c.306 0 .306.91.306 1.517v10.317c0 .91-.306 1.517-.306 1.517-1.835-.303-3.977-.607-5.812-.91 0 0-.306-.304-.306-.607.306-2.731 1.835-3.945 3.365-5.159 1.53-.91 1.224-4.551 1.836-6.675z" fill="#CECECE"/><path fill-rule="evenodd" clip-rule="evenodd" d="M140.12 250.85c1.836.303 3.671.91 5.813 1.213.306 0 .306.911.306 1.518 0 3.337.306 6.675.306 10.013 0 .91 0 1.517-.306 1.517-1.836-.303-3.977-.91-5.813-1.214-.306 0-.306-.606-.306-1.517 0-3.338 0-6.675-.306-10.317 0-.606.306-1.517.306-1.213z" fill="#F7F3CD"/><path fill-rule="evenodd" clip-rule="evenodd" d="M144.406 251.76c.611 0 .917.303 1.529.303.306 0 .306.911.306 1.518 0 3.337.306 6.675.306 10.013 0 .91 0 1.517-.306 1.517-1.835-.303-3.977-.91-5.813-1.214-.306 0-.306-.607-.306-1.517v-2.427c3.366-1.821 3.672.607 4.284-7.283v-.91z" fill="#CECECE"/><path fill-rule="evenodd" clip-rule="evenodd" d="M153.272 253.581c1.835.303 3.671.91 5.813 1.213.305 0 .305.911.611 1.517.306 3.338.306 6.676.612 10.014 0 .91 0 1.517-.306 1.517-1.835-.303-3.977-.91-5.812-1.214-.306 0-.306-.606-.612-1.517 0-3.338-.306-6.675-.306-10.013-.306-.911-.306-1.517 0-1.517z" fill="#F7F3CD"/><path fill-rule="evenodd" clip-rule="evenodd" d="M156.955 254.187c.611 0 1.529.304 2.141.304.306 0 .306.91.612 1.517.306 3.338.306 6.676.612 10.013 0 .911 0 1.517-.306 1.517-1.836-.303-3.977-.91-5.813-1.213-.306 0-.306-.607-.612-1.517 0-1.518 0-3.035-.306-4.552.918 0 2.448-.303 3.672-6.069z" fill="#CECECE"/><path fill-rule="evenodd" clip-rule="evenodd" d="M134.004 80.014c1.529 1.214 2.753 2.125 4.283 3.035.306 0 .306.91.306 1.82-.306 3.338-.306 6.676-.612 10.014 0 .91-.306 1.517-.306 1.214-1.53-.91-3.06-2.124-4.283-3.035-.306 0-.306-.91-.306-1.82.306-3.338.612-6.676.918-10.317-.306-.607 0-1.214 0-.91z" fill="#F7F3CD"/><path fill-rule="evenodd" clip-rule="evenodd" d="M137.675 82.746c.306 0 .306.303.612.303s.306.91.306 1.82c-.306 3.338-.306 6.676-.612 10.014 0 .91-.306 1.517-.306 1.214-1.53-.91-3.06-2.124-4.283-3.035 0 0-.306-.303-.306-.91.612-2.427 1.529-3.338 2.753-3.641 1.224-.304 1.224-3.945 1.836-5.765z" fill="#CECECE"/><path fill-rule="evenodd" clip-rule="evenodd" d="M143.79 86.994c1.53.91 2.754 1.517 4.283 2.427.306 0 .306.91.306 1.517 0 3.338-.306 6.676-.306 10.014 0 .91-.306 1.517-.306 1.213-1.529-.606-3.059-1.517-4.589-2.427-.306 0-.306-.91-.306-1.82.306-3.339.306-6.676.612-10.014 0-.607 0-1.214.306-.91z" fill="#F7F3CD"/><path fill-rule="evenodd" clip-rule="evenodd" d="M146.85 88.51c.305.304.611.304 1.223.608.306 0 .306.91.306 1.517 0 3.338-.306 6.675-.306 10.013 0 .911-.306 1.517-.306 1.214-1.529-.607-3.059-1.517-4.589-2.427-.306 0-.306-.91-.306-1.821v-2.428c2.754-1.213 2.754 1.517 3.672-6.068.306.303.306-.304.306-.607z" fill="#CECECE"/><path fill-rule="evenodd" clip-rule="evenodd" d="M153.589 91.545c1.53.304 2.754.91 4.283 1.214.306 0 .306.607.306 1.517v10.014c0 .91 0 1.517-.306 1.517-1.529-.304-3.059-.607-4.283-1.214-.306 0-.306-.91-.306-1.517 0-3.338 0-6.676.306-10.014-.306-.91-.306-1.82 0-1.517z" fill="#F7F3CD"/><path fill-rule="evenodd" clip-rule="evenodd" d="M156.343 92.152c.611 0 1.223.303 1.529.303.306 0 .306.607.306 1.518v10.013c0 .91 0 1.517-.306 1.517-1.529-.303-3.059-.607-4.283-1.213-.306 0-.306-.911-.306-1.518v-4.248c.612-.607 1.836-.91 3.06-6.372z" fill="#CECECE"/><path fill-rule="evenodd" clip-rule="evenodd" d="M61.5 115.82c3.365-1.214 6.424-2.124 9.79-3.034.305 0 .611.303.611 1.214-.306 3.034-.612 6.068-1.224 9.103 0 .606-.611 1.517-.917 1.517a62.332 62.332 0 00-10.096 2.731c-.306 0-.612-.304-.612-1.214.306-3.034.918-5.765 1.224-8.8.305-.607.917-1.517 1.223-1.517z" fill="#E8E4BE"/><path fill-rule="evenodd" clip-rule="evenodd" d="M69.76 113.089c.611 0 .917-.303 1.53-.303.305 0 .611.303.611 1.214-.306 3.034-.612 6.068-1.224 9.103 0 .606-.611 1.517-.917 1.517a62.332 62.332 0 00-10.096 2.731c-.306 0-.306 0-.612-.304 1.224-2.731 3.365-4.551 6.425-6.675 3.059-2.124 3.059-5.159 4.283-7.283z" fill="#CECECE"/><path fill-rule="evenodd" clip-rule="evenodd" d="M83.83 110.055c3.366-.607 6.425-1.214 9.79-1.517.307 0 .613.606.613 1.213-.306 3.338-.612 6.373-.918 9.71 0 .911-.306 1.518-.918 1.518-3.365.303-6.425.606-9.79 1.213-.306 0-.612-.607-.612-1.213.306-3.035.612-6.373.918-9.407 0-.91.612-1.517.918-1.517z" fill="#E8E4BE"/><path fill-rule="evenodd" clip-rule="evenodd" d="M91.173 108.841c.918 0 1.53-.303 2.448-.303.306 0 .612.606.612 1.213-.306 3.338-.612 6.373-.918 9.71 0 .911-.306 1.518-.918 1.518-3.365.303-6.425.606-9.79 1.213-.306 0-.612-.607-.612-1.213 0-.607.306-1.518.306-2.125 5.813-3.337 6.425-.91 8.26-8.799 0-.607.306-.911.612-1.214z" fill="#CECECE"/><path fill-rule="evenodd" clip-rule="evenodd" d="M105.864 107.324c3.365-.304 6.424-.304 9.79-.304.306 0 .612.607.612 1.518-.306 3.337-.306 6.979-.612 10.316 0 .911-.306 1.518-.918 1.518-3.365 0-6.425-.304-9.79 0-.306 0-.612-.607-.612-1.518.306-3.337.612-6.675.612-10.013.306-.91.612-1.517.918-1.517z" fill="#E8E4BE"/><path fill-rule="evenodd" clip-rule="evenodd" d="M111.982 107.02h3.672c.306 0 .612.607.612 1.518-.306 3.337-.306 6.979-.612 10.316 0 .911-.306 1.518-.918 1.518-3.365 0-6.425-.304-9.79 0-.306 0-.612-.607-.612-1.518 0-1.517.306-3.034.306-4.248 2.142-.91 4.895-1.82 7.342-7.586z" fill="#CECECE"/><path fill-rule="evenodd" clip-rule="evenodd" d="M58.125 139.488c3.366-.91 6.731-1.517 10.097-2.124.305 0 .611.607.611 1.214-.306 3.034-.611 6.069-.918 9.103 0 .607-.305 1.517-.917 1.517-3.366.607-6.731.91-10.096 1.821-.306 0-.612-.304-.612-1.214.306-2.731.612-5.765.918-8.496.306-1.214.611-1.821.917-1.821z" fill="#E8E4BE"/><path fill-rule="evenodd" clip-rule="evenodd" d="M67.004 137.364c.612 0 .918-.303 1.53-.303.306 0 .612.607.612 1.214l-.918 9.103c0 .607-.306 1.517-.918 1.517-3.365.607-6.73.91-10.096 1.82-.306 0-.306 0-.612-.303.918-2.427 3.365-4.248 6.425-6.069 2.753-1.82 2.753-4.855 3.977-6.979z" fill="#CECECE"/><path fill-rule="evenodd" clip-rule="evenodd" d="M81.387 135.544l10.096-.911c.306 0 .612.607.612 1.517-.306 3.338-.612 6.373-.612 9.71 0 .911-.306 1.518-.917 1.518-3.366 0-6.731.303-10.097.303-.305 0-.611-.607-.611-1.214.306-3.034.611-6.068.917-9.406-.306-.911 0-1.517.612-1.517z" fill="#E8E4BE"/><path fill-rule="evenodd" clip-rule="evenodd" d="M88.724 134.937c.917 0 1.835 0 2.447-.304.306 0 .612.607.612 1.517-.306 3.338-.612 6.373-.612 9.71 0 .911-.306 1.517-.918 1.517-3.365 0-6.73.304-10.096.304-.306 0-.612-.607-.612-1.214s0-1.517.306-2.124c6.12-2.731 6.425-.303 8.567-8.193 0-.607 0-.91.306-1.213z" fill="#CECECE"/><path fill-rule="evenodd" clip-rule="evenodd" d="M104.023 134.33c3.365 0 6.73.303 10.096.303.306 0 .612.607.612 1.517-.306 3.338-.306 6.676-.612 10.317 0 .911-.306 1.517-.918 1.517-3.366-.303-6.731-.606-10.096-.606-.306 0-.612-.607-.612-1.518.306-3.337.306-6.675.612-10.013.306-.91.612-1.517.918-1.517z" fill="#E8E4BE"/><path fill-rule="evenodd" clip-rule="evenodd" d="M110.447 134.33c1.224 0 2.448.303 3.672.303.306 0 .612.607.612 1.517-.306 3.338-.306 6.676-.612 10.317 0 .911-.306 1.517-.918 1.517-3.366-.303-6.731-.606-10.096-.606-.306 0-.612-.607-.612-1.518 0-1.517.306-3.034.306-4.248 2.141-.91 4.895-1.517 7.648-7.282z" fill="#CECECE"/><path fill-rule="evenodd" clip-rule="evenodd" d="M55.682 162.853c3.365-.607 7.037-1.214 10.402-1.517.306 0 .612.607.612 1.213-.306 3.035-.612 6.069-.612 9.104 0 .606-.306 1.213-.918 1.517-3.365.303-7.036.607-10.402.91-.306 0-.612-.303-.612-1.214.306-2.731.612-5.765.918-8.799-.306-.607.306-1.214.612-1.214z" fill="#E8E4BE"/><path fill-rule="evenodd" clip-rule="evenodd" d="M64.554 161.639h1.53c.306 0 .612.607.612 1.214-.306 3.034-.612 6.069-.612 9.103 0 .607-.306 1.214-.918 1.517-3.365.304-7.036.607-10.402.91-.306 0-.612-.303-.612-.606.918-2.428 3.366-3.945 6.425-5.462 2.754-1.821 2.754-4.855 3.977-6.676z" fill="#CECECE"/><path fill-rule="evenodd" clip-rule="evenodd" d="M79.244 160.729H89.34c.306 0 .611.607.611 1.517-.305 3.338-.305 6.372-.611 9.71 0 .91-.306 1.517-.918 1.517-3.365-.303-7.037-.303-10.402-.303-.306 0-.612-.607-.612-1.518.306-3.034.306-6.068.612-9.406.612-.91.918-1.517 1.224-1.517z" fill="#E8E4BE"/><path fill-rule="evenodd" clip-rule="evenodd" d="M86.892 160.729h2.448c.306 0 .611.607.611 1.517-.305 3.338-.305 6.372-.611 9.71 0 .91-.306 1.517-.918 1.517-3.365-.303-7.037-.303-10.402-.303-.306 0-.612-.607-.612-1.518v-2.124c6.119-2.427 6.73 0 8.566-7.586.612-.606.612-.91.918-1.213z" fill="#CECECE"/><path fill-rule="evenodd" clip-rule="evenodd" d="M102.494 161.336c3.365.303 6.73.607 10.096 1.213.306 0 .611.911.611 1.518 0 3.337-.305 6.675-.305 10.316 0 .911-.306 1.518-.918 1.518-3.366-.607-7.037-.911-10.402-1.518-.306 0-.612-.606-.612-1.517 0-3.338.306-6.675.612-10.013.306-.91.612-1.517.918-1.517z" fill="#E8E4BE"/><path fill-rule="evenodd" clip-rule="evenodd" d="M108.92 161.943c1.224 0 2.448.303 3.978.607.306 0 .612.91.612 1.517 0 3.337-.306 6.675-.306 10.317 0 .91-.306 1.517-.918 1.517-3.366-.607-7.037-.911-10.402-1.517-.306 0-.612-.607-.612-1.518 0-1.517 0-3.034.306-4.248 2.142-.607 4.895-1.214 7.342-6.675z" fill="#CECECE"/><path fill-rule="evenodd" clip-rule="evenodd" d="M53.54 186.217c3.672-.303 7.037-.606 10.709-.606.306 0 .612.606.612 1.213-.306 3.035-.306 6.069-.612 9.104 0 .606-.306 1.213-.918 1.213-3.672 0-7.037 0-10.708.304-.306 0-.612-.607-.612-1.214.306-2.731.306-5.765.612-8.8.306-.607.612-1.214.918-1.214z" fill="#E8E4BE"/><path fill-rule="evenodd" clip-rule="evenodd" d="M62.719 185.611h1.53c.306 0 .612.606.612 1.213-.306 3.035-.306 6.069-.612 9.104 0 .606-.306 1.213-.918 1.213-3.672 0-7.037 0-10.708.304-.306 0-.612-.304-.612-.607.918-2.428 3.365-3.641 6.425-5.159 3.06-1.213 3.06-4.248 4.283-6.068z" fill="#CECECE"/><path fill-rule="evenodd" clip-rule="evenodd" d="M77.711 185.914c3.365.303 7.037.607 10.402.91.306 0 .612.607.612 1.518 0 3.337-.306 6.372-.306 9.71 0 .91-.306 1.517-.918 1.213-3.365-.303-7.037-.91-10.402-1.213-.306 0-.612-.607-.612-1.518 0-3.034.306-6.068.306-9.406 0-.607.306-1.214.918-1.214z" fill="#E8E4BE"/><path fill-rule="evenodd" clip-rule="evenodd" d="M85.36 186.521c.917 0 1.835.303 2.753.303.306 0 .612.607.612 1.518 0 3.337-.306 6.372-.306 9.71 0 .91-.306 1.517-.918 1.213-3.365-.303-7.037-.91-10.402-1.213-.306 0-.612-.607-.612-1.518v-2.124c6.12-1.82 6.731.607 8.567-6.979 0-.303 0-.91.306-.91z" fill="#CECECE"/><path fill-rule="evenodd" clip-rule="evenodd" d="M101.57 188.038c3.365.607 7.036 1.214 10.402 1.821.306 0 .612.91.612 1.517 0 3.338-.306 6.979-.306 10.317 0 .91-.306 1.517-.612 1.517-3.366-.607-7.037-1.517-10.402-2.124-.306 0-.612-.91-.612-1.517 0-3.338.306-6.676.306-10.014-.306-.91 0-1.517.612-1.517z" fill="#E8E4BE"/><path fill-rule="evenodd" clip-rule="evenodd" d="M107.994 189.252c1.224.303 2.754.607 3.978.607.306 0 .612.91.612 1.517 0 3.338-.306 6.979-.306 10.317 0 .91-.306 1.517-.612 1.517-3.366-.607-7.037-1.517-10.402-2.124-.306 0-.612-.91-.612-1.517v-4.248c1.835-.304 4.895-.607 7.342-6.069z" fill="#CECECE"/><path fill-rule="evenodd" clip-rule="evenodd" d="M52.018 209.582c3.671 0 7.036 0 10.708.303.306 0 .611.607.611 1.518 0 3.034-.305 6.068-.305 9.103 0 .607-.306 1.214-.918 1.214-3.671-.304-7.343-.607-10.708-.607-.306 0-.612-.607-.612-1.214 0-3.034.306-5.765.306-8.8.306-.91.612-1.517.918-1.517z" fill="#E8E4BE"/><path fill-rule="evenodd" clip-rule="evenodd" d="M61.196 209.886h1.53c.306 0 .611.606.611 1.517 0 3.034-.305 6.069-.305 9.103 0 .607-.306 1.214-.918 1.214-3.671-.304-7.343-.607-10.708-.607-.306 0-.612-.304-.612-.607.918-2.428 3.365-3.641 6.425-4.552 3.06-1.213 3.06-4.248 3.977-6.068z" fill="#CECECE"/><path fill-rule="evenodd" clip-rule="evenodd" d="M76.485 211.099c3.671.304 7.036.91 10.708 1.517.306 0 .612.911.612 1.518 0 3.337 0 6.372-.306 9.71 0 .91-.306 1.517-.612 1.213-3.672-.607-7.037-1.213-10.708-1.82-.306 0-.612-.607-.612-1.518 0-3.034 0-6.372.306-9.406 0-.607.306-1.214.612-1.214z" fill="#E8E4BE"/><path fill-rule="evenodd" clip-rule="evenodd" d="M84.44 212.313c.917.303 1.835.303 2.753.303.306 0 .612.911.612 1.518 0 3.337 0 6.372-.306 9.71 0 .91-.306 1.517-.612 1.213-3.672-.607-7.037-1.213-10.708-1.82-.306 0-.612-.607-.612-1.517v-2.125c6.119-1.517 6.73.911 8.566-6.372 0-.303 0-.607.306-.91z" fill="#CECECE"/><path fill-rule="evenodd" clip-rule="evenodd" d="M100.655 215.044c3.671.91 7.037 1.517 10.708 2.428.306 0 .612.91.612 1.82v10.317c0 .91-.306 1.517-.612 1.214-3.671-.911-7.037-1.821-10.708-2.731-.306 0-.612-.91-.612-1.517v-10.014c0-.91.306-1.517.612-1.517z" fill="#E8E4BE"/><path fill-rule="evenodd" clip-rule="evenodd" d="M107.386 216.561c1.224.304 2.753.607 3.977.911.306 0 .612.91.612 1.82v10.317c0 .91-.306 1.517-.612 1.517-3.671-.91-7.037-1.82-10.708-2.731-.306 0-.612-.91-.612-1.517v-4.551c2.142-.304 4.895-.304 7.343-5.766z" fill="#CECECE"/><path fill-rule="evenodd" clip-rule="evenodd" d="M51.404 233.25l11.013.911c.306 0 .612.606.612 1.517v9.103c0 .607-.306 1.214-.612 1.214-3.67-.607-7.342-.911-11.014-1.518-.305 0-.611-.606-.611-1.517v-8.799c-.306-.304 0-.911.611-.911z" fill="#E8E4BE"/><path fill-rule="evenodd" clip-rule="evenodd" d="M60.578 234.161c.612 0 .918 0 1.53.303.306 0 .612.607.612 1.517v9.103c0 .607-.306 1.214-.612 1.214-3.672-.607-7.343-.91-11.014-1.517-.306 0-.612-.304-.612-.607.918-2.428 3.365-3.338 6.119-4.248 3.06-.91 3.06-3.945 3.977-5.765z" fill="#CECECE"/><path fill-rule="evenodd" clip-rule="evenodd" d="M76.184 236.588c3.672.607 7.343 1.517 10.708 2.428.306 0 .612.91.612 1.517 0 3.337 0 6.675.306 9.71 0 .91-.306 1.517-.612 1.213l-11.014-2.731c-.305 0-.611-.91-.917-1.517v-9.406c0-.607.306-1.214.917-1.214z" fill="#E8E4BE"/><path fill-rule="evenodd" clip-rule="evenodd" d="M84.139 238.105c.918.304 1.836.304 2.753.607.306 0 .612.91.612 1.517 0 3.338 0 6.676.306 9.71 0 .91-.306 1.517-.612 1.214l-11.014-2.731c-.305 0-.611-.91-.917-1.517v-2.124c6.118-1.214 7.036 1.517 8.26-6.069.306 0 .306-.303.612-.607z" fill="#CECECE"/><path fill-rule="evenodd" clip-rule="evenodd" d="M100.661 242.353c3.671.911 7.036 2.124 10.708 3.035.306 0 .917.91.917 1.82 0 3.338.306 6.979.306 10.317 0 .911-.306 1.517-.611 1.214-3.672-1.214-7.343-2.124-11.014-3.338-.306 0-.918-.91-.918-1.82 0-3.338-.306-6.676-.306-10.014.306-.607.612-1.214.918-1.214z" fill="#E8E4BE"/><path fill-rule="evenodd" clip-rule="evenodd" d="M107.386 244.174c1.224.303 2.753.91 3.977 1.214.306 0 .918.91.918 1.82 0 3.338.306 6.979.306 10.317 0 .911-.306 1.517-.612 1.214-3.671-1.214-7.343-2.124-11.014-3.338-.306 0-.918-.91-.918-1.82v-4.552c2.142.303 5.201.303 7.343-4.855z" fill="#CECECE"/><path fill-rule="evenodd" clip-rule="evenodd" d="M65.166 91.849c3.06-1.518 6.425-2.731 9.484-3.945.306 0 .612.303.612 1.214-.306 3.034-.918 6.068-1.224 9.103 0 .607-.612 1.517-.918 1.517-3.06.91-6.425 2.124-9.79 3.338-.306.303-.612-.304-.612-.911.612-3.034.918-5.765 1.53-8.8 0-.606.306-1.213.918-1.516z" fill="#E8E4BE"/><path fill-rule="evenodd" clip-rule="evenodd" d="M73.118 88.51c.306 0 .918-.303 1.224-.303.305 0 .612.304.612 1.214-.306 3.034-.918 6.069-1.224 9.103 0 .607-.612 1.517-.918 1.517-3.06.911-6.425 2.124-9.79 3.338-.306 0-.306 0-.612-.303 1.224-2.731 3.365-4.855 6.119-6.98 3.365-2.123 3.365-5.158 4.589-7.585z" fill="#CECECE"/><path fill-rule="evenodd" clip-rule="evenodd" d="M86.58 84.566c3.06-.91 6.12-1.517 9.485-2.428.306 0 .612.607.612 1.214a1110.03 1110.03 0 01-.918 9.71c0 .91-.306 1.517-.918 1.517-3.06.607-6.425 1.214-9.484 2.125-.306 0-.612-.607-.612-1.214.306-3.035.612-6.372 1.224-9.407 0-.91.306-1.517.612-1.517z" fill="#E8E4BE"/><path fill-rule="evenodd" clip-rule="evenodd" d="M93.617 82.745c.918-.303 1.53-.303 2.448-.607.306 0 .612.607.612 1.214a1110.03 1110.03 0 01-.918 9.71c0 .91-.306 1.517-.918 1.517-3.06.607-6.425 1.214-9.484 2.125-.306 0-.612-.607-.612-1.214s.306-1.517.306-2.124c5.813-3.641 6.119-1.517 8.26-9.407 0-.607 0-.91.306-1.214z" fill="#CECECE"/><path fill-rule="evenodd" clip-rule="evenodd" d="M107.996 80.014a1037.9 1037.9 0 019.484-.91c.306 0 .612.607.612 1.517-.306 3.338-.306 6.98-.612 10.317 0 .91-.306 1.517-.612 1.517-3.059 0-6.425.304-9.484.607-.306 0-.612-.607-.612-1.517l.918-10.013c-.306-.91 0-1.518.306-1.518z" fill="#E8E4BE"/><path fill-rule="evenodd" clip-rule="evenodd" d="M113.809 79.104c1.223 0 2.447 0 3.671-.303.306 0 .612.607.612 1.517-.306 3.338-.306 6.979-.612 10.317 0 .91-.306 1.517-.612 1.517-3.059 0-6.425.303-9.484.607-.306 0-.612-.607-.612-1.517 0-1.517.306-3.035.306-4.552 1.53-.303 4.283-1.214 6.731-7.586z" fill="#CECECE"/><path fill-rule="evenodd" clip-rule="evenodd" d="M0 239.016c193.66 47.032 402.618 73.702 619.224 79.467v68.306H292.479C186.93 373.438 89.947 353.715 0 328.833v-89.817z" fill="url(#paint0_linear_2_10581)"/><path fill-rule="evenodd" clip-rule="evenodd" d="M595.666 343.398c0 2.731-.305 5.158-.305 7.889-17.133-.91-33.96-2.124-50.481-3.034 0-2.428 0-5.158.306-7.586 16.521.91 33.348 1.821 50.48 2.731zm-99.43-6.069c-.306 2.428-.306 5.159-.612 7.586-15.909-1.214-31.512-2.427-47.421-3.641 0-2.428.306-4.855.612-7.283 15.909.911 31.512 2.124 47.421 3.338zm-93.006-7.586c-.306 2.428-.306 4.855-.612 7.283-14.991-1.214-29.676-2.731-44.362-4.248.306-2.428.306-4.855.612-7.283 14.686 1.517 29.371 3.035 44.362 4.248zm-87.193-8.799c-.306 2.427-.612 4.551-.918 6.979-14.073-1.518-27.841-3.338-41.608-5.159.306-2.427.612-4.551.918-6.979 13.767 2.124 27.84 3.641 41.608 5.159zm-81.686-10.014c-.306 2.124-.918 4.552-.918 6.676-13.156-1.821-26.005-3.641-39.161-5.765.306-2.125.612-4.552 1.224-6.676 12.85 2.124 25.699 3.945 38.855 5.765zm-76.792-11.834c-.611 2.124-.917 4.248-1.223 6.676-12.238-2.124-26.923-5.159-38.855-7.283.918-1.82 2.754-3.641 3.366-5.765l36.712 6.372zm-68.836-12.744c-1.836 2.124-3.671 4.248-4.283 6.069-11.626-2.428-22.946-4.855-34.572-7.283.918-1.821 3.366-3.945 3.978-5.765 11.32 2.124 23.251 4.551 34.877 6.979zm-67.001-14.565c-1.224 1.82-3.977 3.641-5.507 5.158C10.708 275.731 5.2 274.214 0 273.001v-6.676c7.343 1.821 15.297 3.945 21.722 5.462z" fill="url(#paint1_linear_2_10581)"/><path fill-rule="evenodd" clip-rule="evenodd" d="M16.527 159.818c3.06.607 5.2 6.979 5.2 14.262 0 5.158-.917 9.407-2.753 12.137v1.518c3.366 3.337 5.507 9.406 5.507 16.689 0 10.62-4.895 19.116-10.708 19.116h-.306c-1.53 2.731-3.059 4.248-4.589 4.248-2.447 0-4.895-3.337-6.424-9.103-.918 0-1.53-.303-2.142-.91v-60.384c4.895-6.676 13.767-7.889 16.215 2.427z" fill="#41BF7C"/><path fill-rule="evenodd" clip-rule="evenodd" d="M7.65 169.832h-.918l-.612 80.714h2.142l-.612-80.714z" fill="#3CA0AB"/><path fill-rule="evenodd" clip-rule="evenodd" d="M14.38 168.618c2.14.607 3.67 4.855 3.67 10.014 0 3.641-.611 6.675-1.835 8.496v.91c2.447 2.428 3.977 6.676 3.977 11.834 0 7.586-3.365 13.655-7.648 13.655h-.306c-.918 1.82-2.142 3.034-3.366 3.034-1.835 0-3.365-2.427-4.589-6.675-1.835 0-3.365-2.125-4.283-5.159v-18.813c.612-1.517 1.224-2.731 1.836-3.641-1.224-2.124-1.53-3.945-1.836-6.069v-2.427c.918-9.71 12.238-15.172 14.38-5.159z" fill="#3CB574"/><path fill-rule="evenodd" clip-rule="evenodd" d="M31.205 218.685c1.224 0 2.448.304 3.366.911 1.223-3.642 9.79-1.821 9.79 3.641 0 3.338-.612 4.248-1.53 5.765 1.224 1.517 1.836 3.945 1.836 6.069 0 5.158-3.672 9.406-8.26 9.406-1.836 0-3.366-.607-4.896-1.82-.918 1.213-2.447 1.82-3.977 1.82-4.283 0-7.648-3.641-7.648-8.192 0-2.731 1.223-4.855 3.059-6.373 0-6.372 3.671-11.227 8.26-11.227z" fill="#41BF7C"/><path fill-rule="evenodd" clip-rule="evenodd" d="M32.129 233.25h-.918l-.306 14.262h1.53l-.306-14.262z" fill="#3CA0AB"/><path fill-rule="evenodd" clip-rule="evenodd" d="M31.82 222.933c.917 0 1.529.304 2.14.607.919-2.427 6.425-1.213 6.425 2.428 0 2.124-.305 2.731-.917 3.641.917 1.214 1.223 2.428 1.223 3.945 0 3.338-2.447 6.068-5.2 6.068-1.224 0-2.142-.303-3.06-1.213-.918.607-1.836.91-3.06.91-2.753 0-4.894-2.427-4.894-5.158 0-1.821.917-3.338 1.835-4.249 0-3.641 2.448-6.979 5.507-6.979z" fill="#3CB574"/><path fill-rule="evenodd" clip-rule="evenodd" d="M318.791 375.866c-84.745-8.497-162.148-17.903-213.852-29.13 38.242-1.214 76.485-2.731 114.727-3.945 11.014 1.517 22.334 3.035 33.348 4.855 54.457 4.855 108.915 9.407 163.372 14.262 8.873.91 17.745 1.517 26.617 2.427 8.566.91 16.521 2.428 23.558 5.462-44.362 9.406-95.148 9.406-147.77 6.069z" fill="#B5B5B5"/><path fill-rule="evenodd" clip-rule="evenodd" d="M467.483 340.667C331.34 288.779 198.562 199.265 62.418 147.378c55.375-11.227 113.198-24.882 168.573-36.109 42.22 5.462 84.746 10.923 126.966 16.385v64.632c16.214 1.214 29.676 3.035 39.772 8.193 10.708 11.531 19.886 23.972 29.37 35.502h5.201c.918 0 1.53.304 1.53 1.517v4.855c10.096 8.8 18.356 15.476 28.452 24.275 4.589 6.069 9.179 15.779 9.79 28.22 0 2.428.918 4.855 1.224 7.283 1.224 8.496 0 14.261-.612 21.24-1.223 8.193-2.141 16.689-5.201 17.296z" fill="#fff"/><path fill-rule="evenodd" clip-rule="evenodd" d="M227.323 322.461c0 8.193-.306 16.386-.306 24.578 8.566 0 17.133.304 25.699.304 3.977-1.517 6.731-4.552 9.178-8.193.306-6.069.306-12.138.612-18.206-11.626.607-23.252.91-35.183 1.517z" fill="#403E32"/><path fill-rule="evenodd" clip-rule="evenodd" d="M241.703 347.343h2.447c1.224-.911 2.142-1.821 3.365-3.035 2.142-2.731 3.978-5.765 4.896-8.193l-1.224-.303c-.612 2.428-2.448 5.462-4.589 7.889-1.53 1.214-3.366 2.731-4.895 3.642z" fill="#36342B"/><path fill-rule="evenodd" clip-rule="evenodd" d="M227.017 306.682c7.037 0 12.85 9.103 12.85 20.027 0 11.227-5.813 20.027-12.85 20.027-7.036 0-12.849-9.103-12.849-20.027 0-10.924 5.813-20.027 12.849-20.027z" fill="#4F4D3E"/><path fill-rule="evenodd" clip-rule="evenodd" d="M226.711 312.751c4.895 0 8.872 6.372 8.872 14.261 0 7.89-3.977 14.262-8.872 14.262s-8.872-6.372-8.872-14.262c0-7.889 3.977-14.261 8.872-14.261z" fill="#737160"/><path fill-rule="evenodd" clip-rule="evenodd" d="M232.522 316.392c1.835 2.731 2.753 6.372 2.753 10.62 0 4.249-1.224 7.89-2.753 10.621-.306 0-.918.303-1.224.303-3.671 0-6.731-4.855-6.731-10.62 0-5.765 3.06-10.621 6.731-10.621.306-.606.918-.606 1.224-.303zm190.293-78.893h7.342c.918 0 1.836.606 1.836 1.82v12.138c0 .91-.612 1.82-1.836 1.82h-7.342c-.918 0-1.836-.607-1.836-1.82v-12.138c.306-.91.918-1.82 1.836-1.82zm8.564 96.492c-1.835 10.014-3.671 19.724-5.813 29.737h14.686c8.872-3.034 14.685-9.71 16.214-21.24-8.26-3.035-16.52-5.766-25.087-8.497z" fill="#403E32"/><path fill-rule="evenodd" clip-rule="evenodd" d="M425.87 315.482c10.708 0 19.58 10.924 19.58 23.971 0 13.351-8.872 23.972-19.58 23.972-10.708 0-19.58-10.924-19.58-23.972 0-13.351 8.566-23.971 19.58-23.971z" fill="#4F4D3E"/><path fill-rule="evenodd" clip-rule="evenodd" d="M424.658 323.068c7.649 0 13.768 7.586 13.768 16.689s-6.119 16.689-13.768 16.689c-7.648 0-13.767-7.586-13.767-16.689-.306-9.407 6.119-16.689 13.767-16.689z" fill="#737160"/><path fill-rule="evenodd" clip-rule="evenodd" d="M134.922 331.564c-1.836-2.124-1.53-5.462-2.448-6.372-1.224-1.214-4.589-1.821-11.014-1.821-1.223-.303-2.447-.607-3.059-.91 1.224-6.069 1.836-8.193 1.836-9.71-12.544.303-24.782.303-37.325.607v-8.497h22.334v-15.475c38.854.304 77.708.304 116.563.607 31.206-3.945 62.106-7.889 93.312-11.834 34.265 16.689 68.836 33.378 103.102 50.067l13.767 15.475c-.306 5.159-3.059 7.89-6.119 8.8-2.753-.303-5.813-2.731-9.79-3.034-12.237 0-24.169 0-36.713 1.517-10.096 2.731-20.192 4.855-31.206 5.462-17.438-3.945-33.347-8.193-51.092-12.138-1.835-.303-4.895-.607-7.036-.607-16.827-4.551-33.348-9.103-50.175-13.654-9.178 0-18.662.303-27.84.303-6.119 3.034-11.014 5.462-15.297 5.462-2.754 0-6.425-.91-15.297-4.248h-46.503z" fill="#36342B"/><path fill-rule="evenodd" clip-rule="evenodd" d="M314.508 311.234c.306 20.633.918 41.267 1.224 61.901 5.812-.304 11.625-.304 17.438-.607 8.261-4.248 14.073-11.531 16.215-23.668-1.224-11.834-2.448-25.792-3.977-37.626-10.096-.607-22.64-.607-30.9 0z" fill="#403E32"/><path fill-rule="evenodd" clip-rule="evenodd" d="M63.642 293.331l-1.224-145.953 166.126-33.985v.303l1.835 182.669-1.835 2.124-164.902-5.158z" fill="#4AAB3C"/><path fill-rule="evenodd" clip-rule="evenodd" d="M63.648 293.331l-.918-106.507c14.074-5.461 29.37-8.192 45.585-8.192 64.248 0 116.258 46.425 116.258 103.775 0 5.462-.306 10.62-1.224 15.779l-159.701-4.855z" fill="#47A639"/><path fill-rule="evenodd" clip-rule="evenodd" d="M228.546 298.489V113.393l126.965 16.689v79.804l-30.594 86.176-96.371 2.427z" fill="#5DC94C"/><path fill-rule="evenodd" clip-rule="evenodd" d="M355.512 193.5c-22.334 13.351-67.919 138.974-116.563 147.167-6.119-40.661-7.343-103.472 1.223-151.112 40.69-2.124 76.485-.303 115.34 3.945z" fill="#509663"/><path fill-rule="evenodd" clip-rule="evenodd" d="M350.31 276.945c-7.342 10.317-14.991 20.634-22.333 30.951 7.648 10.923 11.319 22.454 14.073 33.681 1.835 3.035 4.283 5.462 7.648 6.979 38.855-2.427 78.015-4.855 116.87-6.979 1.835-1.82 3.365-4.248 3.671-8.193.918-9.103 2.142-18.206 2.447-28.219 0-.607-.917-2.428-1.835-2.428-.306-4.248-.612-8.193-.918-12.441-3.059-5.158-6.119-10.62-9.178-15.778-37.019 1.213-73.732 1.82-110.445 2.427z" fill="#4F4D3E"/><path fill-rule="evenodd" clip-rule="evenodd" d="M342.042 342.184c1.836 3.035 4.283 5.159 7.343 6.676 38.854-2.428 78.015-4.855 116.869-6.979 1.836-1.821 3.365-4.248 3.671-8.193-.306 2.124-1.835 4.855-4.895 5.765-5.201 1.821-103.408 6.979-113.81 6.372-5.506-.303-8.26-2.427-9.178-3.641zm-5.803-45.515l-5.813 7.889c7.037 6.676 13.156 17.296 17.133 31.861 2.447-.303 5.201-.607 7.648-.91-4.589-18.51-11.319-31.254-18.968-38.84z" fill="#737160"/><path fill-rule="evenodd" clip-rule="evenodd" d="M458.005 271.483c-22.639.911-45.279 1.821-67.919 3.035 7.343 10.62 11.014 22.757 14.991 34.288 18.051.303 35.796.303 52.928-1.214 1.53-7.889 1.53-20.027 0-36.109z" fill="#403E32"/><path fill-rule="evenodd" clip-rule="evenodd" d="M342.049 279.676c-33.653-28.826-67.001-57.653-100.654-86.479 35.795-1.518 74.649-1.821 114.115 0 18.051 1.517 31.512 4.551 39.773 9.103.612 10.317 1.223 20.33 1.835 30.647 10.402 2.427 14.991-1.517 25.393.91 9.485 10.924 27.535 25.185 38.855 34.592.306 3.034.918 6.069 1.224 9.103-40.079.91-80.463 1.517-120.541 2.124z" fill="#5DC94C"/><path fill-rule="evenodd" clip-rule="evenodd" d="M322.464 248.119c-17.744-13.958-31.206-30.951-42.219-50.067 34.571-2.124 72.202-1.518 114.727 4.551 13.462 15.172 27.229 30.04 38.549 46.426-37.019-.91-74.344-1.821-111.057-.91z" fill="#F7F3CD"/><path fill-rule="evenodd" clip-rule="evenodd" d="M355.812 198.658c12.543.911 25.699 2.428 39.466 4.249 13.461 15.171 27.229 30.04 38.548 46.425a46464.47 46464.47 0 01-35.183-.91c-14.685-19.116-28.758-36.109-42.831-49.764zm-25.386-1.517l19.275.911c13.767 13.958 28.146 30.95 42.525 50.067-6.119 0-11.931-.304-18.05-.304-14.685-19.42-29.371-36.716-43.75-50.674z" fill="#FFD767"/><path fill-rule="evenodd" clip-rule="evenodd" d="M322.168 248.422c-8.872-6.979-16.827-14.565-23.557-23.061-7.037-8.496-13.156-17.296-18.357-27.006l-.306-.607h.612c17.439-1.213 35.489-1.517 54.458-.91 20.498.607 40.384 2.731 60.576 5.462 1.224.607.612 1.214-.306.91-21.11-3.034-41.302-4.551-60.27-5.158-18.663-.607-32.43-.607-49.563.607 3.977 5.461 15.603 23.364 26.311 36.109 3.671 4.551 12.544 9.71 15.909 13.047 30.594-.606 77.709-1.213 106.161 1.821v.303c-18.662-.606-37.324-.91-55.987-1.213-18.662-.607-37.019-.607-55.681-.304z" fill="#737160"/><path fill-rule="evenodd" clip-rule="evenodd" d="M238.94 340.667c-3.365-51.584-5.507-102.562 2.448-147.167 12.238-.607 35.489-2.731 41.608 4.855 9.484 13.048 18.968 26.096 28.452 38.84 14.991 10.62 29.371 20.634 42.832 30.04-1.836 5.766 3.365 16.082 2.753 22.455-9.484 5.765-19.886 12.44-29.37 18.206-6.731-6.676-14.991-7.283-20.498-6.069-12.543 2.731-18.662 20.634-17.438 41.874-16.827-.91-33.654-2.124-50.787-3.034z" fill="#4AAB3C"/><path fill-rule="evenodd" clip-rule="evenodd" d="M238.942 340.667c-1.529-26.096-3.059-51.888-3.059-76.77 28.452 3.338 51.704 22.758 59.046 48.247-4.283 7.889-6.118 19.116-5.507 31.557-16.52-.91-33.347-2.124-50.48-3.034z" fill="#47A639"/><path fill-rule="evenodd" clip-rule="evenodd" d="M339.602 300.613l-7.954 5.159c-19.58-20.33-46.197-8.8-45.585 32.468h-2.142c-4.589-42.785 31.206-68.577 55.681-37.627z" fill="#5DC94C"/><path fill-rule="evenodd" clip-rule="evenodd" d="M275.045 201.086c-7.036-.303-14.379-.303-21.415-.607-3.06.607-4.284 2.124-4.59 4.552-.611 14.261-.917 28.826-1.529 43.088 0 2.731 1.529 4.551 3.365 5.765 13.461 4.552 26.923 9.103 40.078 13.655 6.731 2.427 14.685 3.337 17.439-5.766-9.79-18.813-21.11-37.626-30.9-56.439-.612-1.517-.612-3.641-2.448-4.248z" fill="#509663"/><path fill-rule="evenodd" clip-rule="evenodd" d="M276.577 202.603c-7.037 0-14.073-.303-20.804-.303-2.754.91-3.366 2.731-3.366 4.551 0 12.745-.305 25.792-.305 38.537.611 2.124 2.141 3.338 4.283 4.248 14.073 3.338 28.146 6.676 41.914 10.317-.306-9.71-.918-19.42-1.224-29.13-6.731-10.62-13.768-22.454-20.498-28.22z" fill="#E8E4BE"/><path fill-rule="evenodd" clip-rule="evenodd" d="M323.693 262.38c-9.484-12.137-18.662-24.578-28.147-36.716-.305.607-.611 1.214-.611 2.125 0 10.62.611 21.544.611 32.164 9.179 2.427 18.663 4.855 28.147 5.765.306-1.214.306-2.124 0-3.338z" fill="#4F4D3E"/><path fill-rule="evenodd" clip-rule="evenodd" d="M277.499 232.643h10.402c1.836 0 3.672 1.518 3.672 3.642v22.454c0 1.821-1.53 3.641-3.672 3.641h-10.402c-1.835 0-3.671-1.517-3.671-3.641v-22.454c0-2.124 1.53-3.642 3.671-3.642z" fill="#737160"/><path fill-rule="evenodd" clip-rule="evenodd" d="M288.502 253.884h12.238v4.248h-12.238v-4.248zm0-14.565h12.238v4.248h-12.238v-4.248z" fill="#403E32"/><path fill-rule="evenodd" clip-rule="evenodd" d="M248.13 259.953h6.119c1.835 0 3.365 1.517 3.365 3.338v3.034c0 1.821-1.53 3.338-3.365 3.338h-6.119c-1.836 0-3.365-1.517-3.365-3.338v-3.034c.306-1.821 1.835-3.338 3.365-3.338z" fill="#4F4D3E"/><path fill-rule="evenodd" clip-rule="evenodd" d="M376.005 324.585c1.529 0 2.753 1.517 2.753 3.641s-1.224 3.641-2.753 3.641c-1.53 0-2.754-1.517-2.754-3.641-.306-2.124 1.224-3.641 2.754-3.641zm92.395-3.035c.918 0 1.529 1.214 1.529 2.428 0 1.517-.611 2.427-1.529 2.427-.918 0-1.53-1.213-1.53-2.427s.612-2.428 1.53-2.428z" fill="#fff"/><path fill-rule="evenodd" clip-rule="evenodd" d="M456.469 320.337c-15.603 1.214-31.818 1.517-48.338 1.517.611 3.034.917 5.765 1.529 8.8.612.91 1.53 1.213 2.448 1.517 14.073 0 26.617-.304 40.078-1.214 3.06-1.517 3.977-7.282 4.283-10.62z" fill="#403E32"/><path d="M462.554 284.15l-70.054.739.02 1.82 70.053-.738-.019-1.821zm3.666 14.259l-70.053.739.019 1.82 70.054-.738-.02-1.821zm-2.437-7.281l-70.054.738.02 1.821 70.053-.739-.019-1.82z" fill="#4F4D3E"/><path fill-rule="evenodd" clip-rule="evenodd" d="M434.753 284.228h-4.589l-1.836 3.641 2.142 6.675 3.671 2.125.918-.304 1.529-1.821.612-6.979-2.447-3.337z" fill="#807E6D"/><path fill-rule="evenodd" clip-rule="evenodd" d="M469.62 290.6c-2.142-8.8-4.895-16.992-8.261-21.847-.306 7.282.612 17.295 1.53 27.309 2.448-.91 4.895-2.731 6.731-5.462z" fill="#fff"/><path fill-rule="evenodd" clip-rule="evenodd" d="M469.619 290.6c-1.53-5.462-3.059-10.62-4.895-14.868-1.53 0-2.448 1.213-3.365 2.124.306 5.765.612 12.137 1.223 18.509 2.754-1.214 5.201-3.034 7.037-5.765z" fill="#F7F3CD"/><path fill-rule="evenodd" clip-rule="evenodd" d="M469.619 290.6c-2.142-8.8-4.895-16.992-8.26-21.847v3.034c4.589 6.676 6.424 12.744 8.26 18.813z" fill="#807E6D"/><path fill-rule="evenodd" clip-rule="evenodd" d="M390.381 297.275c-11.625-1.517-28.452-3.337-31.205-5.461-5.813-4.552-8.873-16.083-9.485-24.882 16.521 1.214 26.923 6.979 33.042 13.351 4.589 4.248 7.037 10.013 7.648 16.992z" fill="#fff"/><path fill-rule="evenodd" clip-rule="evenodd" d="M390.381 297.275c-11.626-1.517-28.453-3.337-31.206-5.461-3.977-3.035-6.731-9.407-7.955-15.779 10.096 0 21.11 1.214 30.9 4.551 5.201 4.552 7.343 9.407 8.261 16.689z" fill="#F7F3CD"/><path fill-rule="evenodd" clip-rule="evenodd" d="M349.691 267.842v-1.214c16.521 1.214 26.923 6.979 33.042 13.352 4.589 4.551 6.731 10.316 7.648 17.296-2.447-14.565-18.05-27.31-40.69-29.434z" fill="#807E6D"/><path fill-rule="evenodd" clip-rule="evenodd" d="M365.604 278.463c4.895 0 7.649 3.034 7.649 6.675s-2.754 6.676-7.649 6.676-8.872-3.035-8.872-6.676 3.977-6.675 8.872-6.675z" fill="#FDBF42"/><path fill-rule="evenodd" clip-rule="evenodd" d="M356.732 285.138c0-6.372 11.32-9.71 11.32-.303 0 9.406-11.32 6.979-11.32.303z" fill="#FFD767"/><path fill-rule="evenodd" clip-rule="evenodd" d="M136.452 304.558v47.033h29.982c7.955-3.035 9.79-14.262 9.484-28.22-5.201-6.372-10.096-12.441-15.297-18.813h-24.169z" fill="#403E32"/><path fill-rule="evenodd" clip-rule="evenodd" d="M153.591 351.591h2.754c2.447-2.428 4.589-5.765 5.813-10.317 1.835-6.069 2.447-13.958 1.223-23.365l-1.835.304c1.224 9.103.612 16.992-.918 22.758-1.53 4.855-3.977 8.496-7.037 10.62z" fill="#36342B"/><path fill-rule="evenodd" clip-rule="evenodd" d="M136.453 304.558c7.037 0 12.85 10.62 12.85 23.365 0 13.048-5.813 23.364-12.85 23.364-7.036 0-12.237-10.62-12.237-23.668 0-12.744 5.201-23.061 12.237-23.061z" fill="#4F4D3E"/><path fill-rule="evenodd" clip-rule="evenodd" d="M135.84 310.323c4.895 0 8.872 7.89 8.872 17.903 0 9.71-3.977 17.903-8.872 17.903s-8.566-7.889-8.566-17.903c0-10.013 3.365-17.903 8.566-17.903z" fill="#737160"/><path fill-rule="evenodd" clip-rule="evenodd" d="M142.879 317.302c1.224 3.035 1.836 6.676 1.836 10.621 0 3.944-.612 7.586-1.836 10.62h-.305c-3.06 0-5.201-4.855-5.201-10.62.305-5.766 2.447-10.621 5.506-10.621z" fill="#403E32"/><path d="M85.98 305.165h-3.365v8.496h3.366v-8.496z" fill="#FF753F"/><path fill-rule="evenodd" clip-rule="evenodd" d="M152.361 327.012c-3.366-33.074-28.759-37.019-31.206-3.337-1.836-.304-2.448-.304-3.06-.911 1.53-9.406 2.754-17.903 4.284-27.309 9.79.303 19.274.607 29.064.91 1.836 10.317 3.671 20.33 5.507 30.647-2.142-.303-3.06-.303-4.589 0z" fill="#737160"/><path fill-rule="evenodd" clip-rule="evenodd" d="M175.918 296.972l-28.147-.91 6.731 30.647 27.229-.607-5.813-29.13zm138.592 14.262c11.625-.304 21.11 13.351 21.415 30.647.306 16.992-8.566 31.254-20.192 31.254-11.625.303-21.11-13.351-21.416-30.647-.305-16.993 8.873-31.254 20.193-31.254z" fill="#4F4D3E"/><path fill-rule="evenodd" clip-rule="evenodd" d="M313.591 320.033c7.648-.303 14.379 9.71 14.379 21.848.306 12.137-5.813 22.151-13.462 22.454-7.648.304-14.379-9.71-14.379-21.847-.306-12.138 5.813-22.151 13.462-22.455z" fill="#737160"/><path fill-rule="evenodd" clip-rule="evenodd" d="M316.653 324.888c5.813 0 10.402 7.586 10.708 16.993.306 9.71-4.283 17.296-10.096 17.599-6.119-2.427-9.484-5.765-11.626-9.103-1.529-3.034.918-3.641.612-7.889 0-2.428-2.447-5.766-1.529-7.586 3.671-5.766 8.26-9.104 11.931-10.014z" fill="#807E6D"/><path fill-rule="evenodd" clip-rule="evenodd" d="M309.923 331.564c3.977 0 7.036 4.552 7.342 10.317 0 5.765-2.753 10.317-6.73 10.62-3.978 0-7.037-4.551-7.343-10.317 0-5.765 3.06-10.317 6.731-10.62z" fill="#737160"/><path fill-rule="evenodd" clip-rule="evenodd" d="M435.662 284.228h-4.59l-1.835 3.641 2.141 6.676 3.672 1.82 2.447-1.82.612-7.283-2.447-3.034z" fill="#F7F3CD"/><path fill-rule="evenodd" clip-rule="evenodd" d="M278.408 233.25h10.402c1.836 0 3.672 1.518 3.672 3.642v22.454c0 1.821-1.53 3.641-3.672 3.641h-10.402c-1.835 0-3.671-1.517-3.671-3.641v-22.454c.306-2.124 1.836-3.642 3.671-3.642z" fill="#403E32"/><path fill-rule="evenodd" clip-rule="evenodd" d="M357.338 193.804c-.612-.911-.612-1.214-1.224-1.518-13.461 0-26.31-.606-38.548.607 13.155-.303 26.617-.303 39.772.911z" fill="#fff"/><path fill-rule="evenodd" clip-rule="evenodd" d="M34.577 153.143l62.412-12.744c4.283-.911 8.566 1.517 9.178 5.158.918 3.641-2.141 7.283-6.424 8.193L37.33 166.494c-4.284.911-8.567-1.517-9.179-5.158-.917-3.641 2.142-7.283 6.425-8.193zm17.435 16.386l51.092-10.621c3.671-.607 7.037 1.214 7.648 4.248.612 3.035-1.835 6.069-5.201 6.676l-51.092 10.62c-3.67.607-7.036-1.213-7.648-4.248-.612-2.731 1.836-5.765 5.2-6.675z" fill="#4AAB3C"/></g><defs><linearGradient id="paint0_linear_2_10581" x1="0" y1="258.075" x2="577.339" y2="348.274" gradientUnits="userSpaceOnUse"><stop stop-color="#EBEBEB"/><stop offset=".509" stop-color="#EBEBEB"/><stop offset="1" stop-color="#EBEBEB" stop-opacity="0"/></linearGradient><linearGradient id="paint1_linear_2_10581" x1="3.648" y1="266.407" x2="599.229" y2="345.657" gradientUnits="userSpaceOnUse"><stop offset=".083" stop-color="#B5B5B5"/><stop offset="1" stop-color="#B5B5B5" stop-opacity="0"/></linearGradient><clipPath id="clip0_2_10581"><path fill="#fff" transform="translate(0 .818)" d="M0 0h618v385.365H0z"/></clipPath></defs></svg>