<svg width="350" height="324" fill="none" xmlns="http://www.w3.org/2000/svg"><g clip-path="url(#clip0_601_12302)"><path fill-rule="evenodd" clip-rule="evenodd" d="M35.753 271.207c-8.398 3.087-23.403 5.743-30.69 10.065-7.286 4.384-6.73 10.436 1.791 13.4 8.522 2.902 25.07 2.655 35.692 3.149 10.683.494 15.5 1.791 17.166 3.952 1.668 2.161.124 5.187 0 7.904-.123 2.655 1.174 4.94 4.508 7.225 3.397 2.285 8.83 4.569 15.19 5.619 6.361.988 13.586.741 30.444.865 16.857.123 43.287.617 64.282-2.038 20.995-2.655 36.494-8.522 42.978-12.227 6.483-3.705 3.952-5.187 3.149-7.657-.741-2.408.247-5.742 3.705-7.904 3.458-2.161 9.263-3.149 18.031-4.322 8.769-1.173 20.439-2.408 34.457-3.582 13.955-1.173 30.257-2.161 40.569-3.705 10.313-1.543 14.635-3.581 16.673-7.718 2.038-4.138 1.853-10.374-5.496-13.832-7.348-3.458-21.859-4.261-38.1-5.99-16.24-1.791-34.147-4.57-48.412-6.114-14.264-1.543-24.885-1.914-48.844-2.037-23.959-.124-61.256 0-86.512 0-25.194 0-38.347-.186-46.128 2.223-7.718 2.531-10.188 7.472-12.226 11.732-2.1 4.261-3.89 7.904-12.227 10.992z" fill="#E6E6E6"/><path fill-rule="evenodd" clip-rule="evenodd" d="M86.265 2.347C68.728 4.323 36.309 8.15 20.069 10.065L3.829 11.98l-.124 42.792c-.062 42.793-.247 128.317-.309 171.11l-.123 42.793 17.599 1.359c17.598 1.358 52.858 4.075 70.457 5.434l17.598 1.358V0l-1.296.062c-1.235.123-3.891.247-21.366 2.285z" fill="#CCC"/><path fill-rule="evenodd" clip-rule="evenodd" d="M108.989 60.392V0l11.98 2.717a58854.23 58854.23 0 0047.979 10.868l11.98 2.717.247 41.25c.247 41.248.679 123.808.926 165.057l.247 41.25-12.226 2.161c-12.227 2.161-36.618 6.484-48.845 8.645l-12.226 2.161v-42.608c0-42.607-.062-127.699-.062-173.826z" fill="#B3B3B3"/><path fill-rule="evenodd" clip-rule="evenodd" d="M181.36 87.315c-.185-28.158-.247-49.586-.309-60.268l-.123-10.745h123.439l-.186 41.31c-.185 41.312-.494 123.995-.679 165.368l-.185 41.311-20.192-.062c-20.193-.062-60.516-.247-80.708-.309l-20.192-.062-.062-13.091c-.062-13.091-.247-39.334-.371-69.901-.123-30.566-.308-65.393-.432-93.551z" fill="#CCC"/><path fill-rule="evenodd" clip-rule="evenodd" d="M88.18 13.276c-16.056 1.853-45.696 5.372-60.516 7.102l-14.82 1.79-.062 39.335c-.061 39.335-.247 118.005-.37 157.34l-.062 39.334 16.117 1.235c16.117 1.235 48.35 3.767 64.467 5.002l16.117 1.235V11.115l-1.173.062c-1.235.123-3.644.247-19.699 2.1z" fill="#E6E6E6"/><path fill-rule="evenodd" clip-rule="evenodd" d="M108.989 66.628V10.992l11.856 2.531c11.856 2.532 35.63 7.534 47.486 10.004l11.856 2.531.247 38.039c.247 38.038.679 114.052.926 152.09l.247 38.038-12.103 1.976c-12.103 1.976-36.309 5.99-48.412 7.966l-12.103 1.976V66.628z" fill="#CCC"/><path fill-rule="evenodd" clip-rule="evenodd" d="M181.298 91.452c-.123-25.935-.247-45.633-.308-55.513l-.062-9.88h112.2l-.185 38.1c-.185 38.099-.494 114.237-.618 152.275l-.185 38.1-18.34-.061c-18.34-.062-55.019-.247-73.359-.309l-18.34-.062-.062-12.103c-.061-12.103-.185-36.247-.37-64.344-.062-28.22-.247-60.33-.371-86.203z" fill="#E6E6E6"/><path d="M293.066 235.639l-2.531.494s-.68 2.037-2.532 2.037c-1.791 0-4.755 0-4.508-1.235.309-1.235-.247-4.384-.247-4.384l-1.111-.494-1.976-2.346-1.791-.494-2.964-.494-.679-3.273-2.223-4.508s0-5.187-.556-5.187-.988-4.508-6.052-5.928c-5.063-1.42-7.286.124-8.151.124-.802 0-3.643.802-4.075 2.655-.432 1.852 1.297 1.235 1.297 1.235l.247 2.47s-2.532 2.223-2.779 3.581c-.309 1.421-1.791 4.508-1.544 5.126.309.617-.679 2.964-2.346 3.458-1.297.37-2.964-.124-4.57-.68l-1.482-.555c-1.976-.803-3.52.308-4.199-.494-.741-.803-1.544-2.162-3.52.308-1.976 2.47-5.063 3.767-8.583 3.767-3.52 0-6.978-.926-7.534-2.47-.555-1.544-2.223-1.235-2.223-1.235s-.988-3.149-3.766-2.47c-2.779.618-7.287 2.655-9.078.124-6.113-8.337-.864-3.397-10.929-9.078-3.52 4.076-2.779 7.163-2.223 8.09.555.926-.247 4.384-1.544 4.199-1.297-.124-3.335-2.038-5.064-1.421a3.493 3.493 0 01-1.605.186V27.293a35.469 35.469 0 016.545-.988c.988-.061 1.729-.247 2.347-.555h43.966c1.606 3.458 2.347 7.41.062 10.497-4.693 6.237-13.647 14.759-12.536 16.426 1.112 1.667 5.434 1.235 9.88 2.1 4.508.802 16.241.37 18.526 3.951 2.223 3.52 12.905 8.337 12.905 3.767s-1.111-7.719 7.472-3.52c8.583 4.2 9.51 6.052 8.398 9.14-1.111 3.149-2.223 6.05-.556 9.138 1.668 3.15 6.546 13.709 8.028 5.805 1.482-7.904.556-9.386 4.508-6.052.37.31.864.618 1.358.865v157.772h-.062zm-7.657 18.648c-.432-.803-1.111-2.346-.741-2.84.556-.618 2.532-2.964 3.952-1.853 1.421 1.112 1.544 1.42 2.779-1.235.556-1.173 1.173-2.408 1.667-3.458v9.448h-7.657v-.062z" fill="#B3B3B3"/><path d="M182.286 226.994c-1.296.061-2.655-.556-3.149-1.853-.123-.37-4.94-1.482-5.99-1.729l-8.706 8.089c-13.338 4.014-24.083-5.989-31.555-13.893-.432-.371-4.322-3.952-4.322-3.952s-.432-1.174.123-1.729c.556-.494 2.409-2.964-.988-.494-14.449 10.497-15.684-3.335-15.808-3.335-.555.062-1.111.926-2.655.803h-.185V73.236c.556-.433 1.297-.556 2.285-.433 3.025.433 7.842 1.112 6.175 9.448-1.668 8.336.741 8.892.555 12.844-.185 3.952-1.482 18.093.371 17.846 1.852-.247 5.063 1.235 4.075-5.311-.926-6.545-2.223-19.698 2.038-23.156 4.323-3.458 10.065-8.954 11.609-8.09 1.482.865 5.249 5.62 7.101 5.373 1.915-.247 3.211-2.038 1.482-4.57-1.667-2.531-5.804-9.694-4.878-12.473.926-2.84 16.487-4.137 17.784-7.41 1.297-3.273-4.508-5.68-1.111-10.683 3.334-5.001 7.657-11.98 12.535-12.597 4.878-.617 6.545-3.334 8.954-4.631 1.111-.617 2.593-1.297 4.26-1.914v199.515z" fill="#999"/><path d="M12.72 98.368c.989.803 2.038 1.852 3.211 3.211 4.076 4.817 10.807 7.966 10.93 12.227.124 4.26.988 5.063-1.976 7.904-2.964 2.84-4.631 4.075-11.053.123-.37-.247-.741-.432-1.112-.679V98.368zm96.269 106.519c-8.398-2.47-16.24 6.731-24.824 3.767-2.346 4.322 4.879 5.249-2.223 9.88-1.235.803-.555 1.976-.555 1.976s1.667.617 2.655 1.852c.988 1.174 1.976 4.385.123 4.199-2.346-.247-9.324-3.025-12.72-2.778-4.076.308-28.652-10.745-28.096 6.051-.124.371 6.36 2.347 6.545 6.854.185 4.94-6.051 8.892-5.928 13.585.062 1.359 1.297 3.273 1.42 5.558.186 3.211-2.779 4.693-7.163 4.446-2.285-1.05-4.014-3.952-10.93-5.311-8.027-1.605-12.102-8.583-10.435-11.67 1.235-2.285 2.779-4.632 3.273-4.879.494-.247 2.716-1.296.494-1.543-1.791-.186-3.829-.433-1.297-2.964.617-.618 2.47-.371 3.458-.247 5.434.679 4.631-9.201-1.73-11.301-3.519-1.173-6.298-3.149-8.274-5.063v-78.485c.803.741 1.668 1.297 2.223 1.421 1.544.308 3.335.494 2.964-1.112-.432-1.605-2.1-2.84-3.21-5.002-1.112-2.161-.433-4.26 2.222-2.099 2.655 2.161 9.386 4.569 7.842 1.42-1.543-3.149-3.21-4.075-1.543-5.496 1.667-1.358 5.928-7.842 8.706-5.989 2.78 1.852 4.508 2.47 4.508.185 0-1.05-.37-2.347-.74-3.829-.495-1.914-.927-4.137-.618-6.36.555-3.89 2.593-7.842 3.767-6.916 1.111.926 6.36 6.052 3.952 7.287-1.976.988-3.397 3.766-2.532 5.557.185.371.432.679.803.926 2.223 1.482 1.111 1.791 5.804-4.013 4.693-5.743 11.424-11.733 15.932-8.769 4.507 2.964 5.063 1.544 8.398 1.482 3.334-.062 6.73.062 9.88-1.111 3.21-1.112 1.482-6.484-.37-7.72-1.915-1.234 0-3.148 3.951-.864 3.952 2.285 9.14 3.458 12.535 7.966 3.335 4.508 5.99 7.904 7.102 7.966 1.111.123 4.693-.371 1.111-6.113-3.581-5.743-6.36-12.536-5.249-15.5 1.112-3.025 4.323-9.571 5.99-15.808a65.279 65.279 0 011.05-3.705l1.852.185v132.084h-.123z" fill="#B3B3B3"/><path fill-rule="evenodd" clip-rule="evenodd" d="M231.316 24.947a9.382 9.382 0 019.386 9.386 9.382 9.382 0 01-9.386 9.386 9.382 9.382 0 01-9.386-9.386 9.382 9.382 0 019.386-9.386zm-14.573 24.515c2.408 6.051 7.04 13.647 9.633 17.722 2.594 4.076 3.211 4.693 3.52 5.002.309.309.309.309 2.717-2.717 6.298-7.842 12.288-16.364 15.19-26.244 3.335-11.3-.123-26.367-16.549-26.367-10.991 0-16.24 7.101-17.475 14.82-.926 6.113.803 12.288 2.964 17.784z" fill="#999"/><path fill-rule="evenodd" clip-rule="evenodd" d="M228.352 24.947a9.382 9.382 0 019.386 9.386 9.382 9.382 0 01-9.386 9.386 9.382 9.382 0 01-9.386-9.386 9.382 9.382 0 019.386-9.386zm-14.511 24.515c2.408 6.051 7.039 13.647 9.633 17.722 2.593 4.076 3.211 4.693 3.52 5.002.308.309.308.309 2.717-2.717 6.298-7.842 12.288-16.364 15.19-26.244 3.335-11.3-.123-26.367-16.549-26.367-10.991 0-16.24 7.101-17.475 14.82-.988 6.113.741 12.288 2.964 17.784z" fill="#FDE742"/><path fill-rule="evenodd" clip-rule="evenodd" d="M49.709 70.395a13.256 13.256 0 0113.276 13.276A13.256 13.256 0 0149.71 96.948a13.256 13.256 0 01-13.276-13.276c-.062-7.287 5.928-13.277 13.276-13.277zM29.146 105.1c3.458 8.583 9.942 19.266 13.647 25.07 3.705 5.805 4.57 6.669 5.002 7.102.432.432.432.432 3.828-3.829 8.892-11.115 17.352-23.156 21.49-37.112 4.754-15.993-.186-37.297-23.404-37.297-15.5 0-22.971 10.066-24.7 20.995-1.42 8.584.988 17.29 4.137 25.071z" fill="#999"/><path fill-rule="evenodd" clip-rule="evenodd" d="M45.51 70.395a13.256 13.256 0 0113.276 13.276A13.256 13.256 0 0145.51 96.948a13.256 13.256 0 01-13.276-13.276c0-7.287 5.927-13.277 13.276-13.277zM24.947 105.1c3.458 8.583 9.942 19.266 13.647 25.07 3.705 5.805 4.57 6.669 5.002 7.102.432.432.432.432 3.828-3.829 8.892-11.115 17.352-23.156 21.49-37.112 4.754-15.993-.186-37.297-23.404-37.297-15.5 0-22.971 10.066-24.7 20.995-1.359 8.584.988 17.29 4.137 25.071z" fill="#FDE742"/><path d="M46.251 143.631c.123 4.322.247 8.645.741 12.226.494 3.582 1.42 6.361 2.779 8.522 1.42 2.161 3.334 3.705 7.163 4.508 3.89.802 9.695.926 16.487.247 6.73-.68 14.388-2.223 20.069-2.779 5.743-.556 9.509-.185 11.794.432 2.285.618 2.964 1.544 5.002 3.705s5.372 5.619 8.768 7.904c3.397 2.285 6.855 3.458 8.645-3.705 1.853-7.101 2.1-22.477 5.62-34.827 3.581-12.35 10.436-21.798 17.66-27.232 7.163-5.496 14.635-6.978 22.601-5.866 7.966 1.111 16.487 4.878 25.317 4.446 8.831-.432 18.031-5.002 23.157-10.992 5.125-5.99 6.113-13.338 7.163-20.748" stroke="#fff" stroke-width="2" stroke-miterlimit="22.926" stroke-linecap="round" stroke-dasharray="10 10"/><path fill-rule="evenodd" clip-rule="evenodd" d="M63.664 280.099c.062.988.186 2.223.927 3.952.74 1.729 2.038 3.828 3.581 5.496a15.076 15.076 0 005.126 3.643c1.852.803 3.766 1.235 5.866 1.42 2.1.185 4.322.185 6.298-.062s3.644-.741 5.373-1.605c1.667-.865 3.334-2.1 4.693-3.458 1.358-1.359 2.346-2.779 2.84-3.52l.494-.741-5.928-1.235c-5.928-1.235-17.722-3.643-23.588-4.569-5.805-.865-5.743-.247-5.682.679z" fill="#403E32"/><path fill-rule="evenodd" clip-rule="evenodd" d="M69.037 281.149c.185 1.049.494 2.84 1.173 4.507.617 1.668 1.605 3.15 2.532 4.323.926 1.173 1.914 1.976 3.149 2.655a15.404 15.404 0 004.26 1.729c1.544.371 3.212.371 5.064.185 1.853-.185 3.829-.617 5.62-1.482 1.79-.864 3.334-2.161 4.445-3.211 1.05-1.049 1.668-1.79 2.1-2.408.432-.617.74-1.05.74-1.605 0-.556-.308-1.174-.987-1.791-.68-.618-1.667-1.173-3.026-1.667-1.42-.494-3.21-.927-5.743-1.112-2.531-.185-5.804-.062-8.706-.309-2.903-.185-5.434-.679-7.102-1.111-1.667-.432-2.408-.865-2.84-.926-.432-.062-.618.185-.68.494-.123.308-.185.679 0 1.729zm46.312 3.519c.927 1.668 4.014 4.817 7.657 6.793 3.644 1.976 7.966 2.902 10.745 3.396 2.779.556 4.014.741 4.878.185.803-.555 1.235-1.976 2.347-3.705 1.111-1.79 2.964-3.952 5.063-5.989 2.038-1.976 4.323-3.829 7.287-5.496 2.964-1.667 6.73-3.211 9.139-4.137 2.408-.927 3.581-1.174 5.31-1.359 1.729-.185 3.952-.309 5.558-.247 1.605.062 2.593.247 3.087.679.494.433.494.988.803 2.223.309 1.235.926 3.026 1.297 4.014.432.988.617 1.173 1.544 1.112.864 0 2.408-.247 3.643-1.05 1.235-.803 2.099-2.161 2.47-3.273.37-1.111.37-1.976-.309-4.816-.617-2.779-1.852-7.534-2.593-11.424-.741-3.952-1.112-7.101-2.038-9.51-.926-2.408-2.47-3.952-4.508-5.619-2.038-1.667-4.57-3.334-8.46-4.384-3.89-.988-9.139-1.359-15.376-.185-6.236 1.173-13.399 3.766-18.154 6.607-4.755 2.84-7.101 5.866-8.892 9.571-1.791 3.767-2.964 8.275-4.384 12.412-1.421 4.199-2.964 8.089-4.385 10.127-1.42 2.223-2.655 2.408-1.729 4.075zm99.356-15.437c6.978-.371 20.749-2.285 28.529-3.396 7.781-1.112 9.695-1.359 11.424-1.668 1.729-.247 3.396-.555 4.878-.679 1.482-.123 2.902-.062 4.076 0 1.173.062 2.161.124 4.199.124 2.037 0 5.125-.062 12.226.247 7.163.308 18.402 1.049 24.515 1.543 6.113.494 7.101.865 7.595.988.494.186.556.186.68.062.061-.062.185-.247.37-1.976s.371-4.94.494-6.669c.062-1.729 0-1.976 0-1.976 0-.062.062.062 3.149.371 3.15.308 9.325.802 13.894 1.173 4.631.37 7.595.556 9.139.741 1.482.123 1.482.185 1.482-1.05v-6.422l-3.396-.247-13.585-.988-3.396-.247.061-1.173c.062-1.173.247-3.458.309-4.631.062-1.174.062-1.236-1.235-1.359-1.297-.124-3.89-.371-5.187-.618-1.358-.247-1.482-.494-1.482-.988v-1.667c0-.494-.062-.679-.309-.988-.247-.247-.741-.617-3.087-.803-2.285-.185-6.422-.247-14.018-.247-7.595 0-18.648 0-28.899.309-10.25.371-19.698 1.05-27.849 2.223-8.151 1.173-15.067 2.841-19.266 4.385-4.137 1.543-5.619 2.964-6.669 5.001-1.05 2.038-1.791 4.632-2.347 6.793-.555 2.161-.988 3.89-1.667 5.743-.617 1.914-1.482 3.952-1.729 5.619-.123 1.667.124 2.84 7.101 2.47z" fill="#24231D"/><path fill-rule="evenodd" clip-rule="evenodd" d="M227.673 269.663c4.878-.618 14.388-1.914 19.266-2.655 4.878-.741 5.125-.927 5.372-1.544.247-.618.432-1.606.494-2.841s-.123-2.655-.247-3.952a28.38 28.38 0 00-.494-3.149c-.185-.864-.432-1.544-.864-1.852-.371-.309-.927-.186-4.446.185-3.458.37-9.88.988-15.006 1.667-5.125.679-9.015 1.42-10.868 1.729-1.852.309-1.79.124-1.79.494 0 .371-.124 1.359-.124 2.964 0 1.606.124 3.829.124 5.311 0 1.482-.062 2.099 0 2.778.061.618.185 1.235.494 1.544.308.309.802.371 1.235.309.494-.062.926-.247 1.296-.309.371-.062.68-.062 5.558-.679z" fill="#403E32"/><path fill-rule="evenodd" clip-rule="evenodd" d="M275.715 261.327c-.433 2.964-.371 6.237-.062 8.83.309 2.594.864 4.508 1.852 6.299.988 1.79 2.47 3.396 3.767 4.384 1.297.988 2.47 1.358 3.335 1.544.864.185 1.358.123 2.531.123 1.174 0 2.964 0 3.891-.247.926-.247.926-.679.926-1.358-.062-.68-.124-1.482-.803-4.323-.679-2.779-1.852-7.533-1.852-12.35 0-4.816 1.235-9.695 2.037-12.782.865-3.088 1.359-4.446 1.05-5.311-.309-.864-1.42-1.173-3.026-.864-1.605.309-3.705 1.173-5.248 2.038a16.712 16.712 0 00-3.458 2.531c-.927.927-1.791 1.976-2.656 3.829-.864 1.976-1.79 4.631-2.284 7.657z" fill="#24231D"/><path fill-rule="evenodd" clip-rule="evenodd" d="M282.26 254.719c-1.173 3.211-1.482 7.781-1.358 11.239.123 3.458.617 5.866 1.358 7.966.803 2.099 1.914 3.828 2.902 5.125.988 1.235 1.853 2.038 2.656 2.532.741.494 1.42.679 1.729.803.308.123.308.123.988.061a51.9 51.9 0 002.902-.123c.803 0 1.111 0 1.235-.185.123-.186.062-.494-.124-5.373-.185-4.878-.494-14.264-.679-19.883-.123-5.62-.123-7.41-.185-8.769-.062-1.358-.247-2.285-.741-2.655-.432-.371-1.173-.309-2.1.185-.988.432-2.161 1.235-3.766 2.594-1.668 1.296-3.644 3.272-4.817 6.483z" fill="#36342B"/><path fill-rule="evenodd" clip-rule="evenodd" d="M294.795 246.815c-1.544.494-3.149 1.668-4.631 4.014-1.482 2.347-2.779 5.99-3.458 9.88-.679 3.952-.679 8.275-.124 11.424.494 3.149 1.544 5.187 2.532 6.731.988 1.482 1.914 2.47 2.594 2.964.679.494 1.173.494 2.284.556 1.05.061 2.718.247 3.706.308.988.062 1.296-.061 1.914-.185.679-.185 1.667-.432 2.902-1.791 1.235-1.358 2.717-3.766 3.767-8.151 1.05-4.446 1.729-10.868 1.605-15.005-.123-4.137-.926-5.99-1.852-7.287-.926-1.296-1.853-2.037-3.026-2.531-1.173-.494-2.532-.803-3.952-1.05-1.235-.247-2.717-.371-4.261.123z" fill="#403E32"/><path fill-rule="evenodd" clip-rule="evenodd" d="M299.056 247.927c-1.42.618-2.655 1.791-3.828 3.458-1.112 1.667-2.162 3.89-2.841 6.052-.679 2.099-.988 4.137-1.111 6.175a39.42 39.42 0 00.123 6.051c.247 1.976.618 3.767 1.173 5.372.556 1.606 1.235 2.964 2.038 4.138.803 1.173 1.729 2.099 2.47 2.655.803.556 1.482.617 2.408.617.927-.061 2.1-.185 3.273-.864 1.235-.679 2.47-1.791 3.458-3.211 1.05-1.42 1.791-3.149 2.47-5.064a27.877 27.877 0 001.297-6.545c.185-2.408.062-5.064-.185-7.287s-.618-4.013-1.174-5.619c-.555-1.605-1.358-3.026-2.284-4.075-.927-1.112-1.915-1.853-3.211-2.223-1.112-.309-2.656-.247-4.076.37z" fill="#403E32"/><path fill-rule="evenodd" clip-rule="evenodd" d="M305.416 255.028c-.432-.494-.741-.864-1.173-1.111-.37-.309-.803-.494-1.358-.618-.494-.123-1.112-.185-1.606-.123s-.864.185-1.42.556c-.556.37-1.359.926-2.038 1.79-.741.927-1.42 2.162-1.914 3.644-.494 1.482-.803 3.211-.926 4.878-.124 1.667-.124 3.211.061 4.755.186 1.543.494 3.087 1.05 4.322.556 1.235 1.297 2.223 2.1 2.902.741.618 1.482.927 2.284.988.803.062 1.668-.123 2.409-.432.741-.37 1.42-.864 2.099-1.791.679-.926 1.42-2.284 1.976-3.705.556-1.42.988-2.902 1.112-4.693.185-1.79.123-3.766-.124-5.434a11.682 11.682 0 00-1.235-3.766c-.37-.927-.864-1.606-1.297-2.162z" fill="#4F4D3E"/><path fill-rule="evenodd" clip-rule="evenodd" d="M296.895 258.733c-.371.865-.618 1.791-.865 2.717-.247.926-.37 1.791-.432 2.902a24.918 24.918 0 00.062 3.706c.123 1.235.247 2.284.494 3.211.247.926.556 1.729.741 2.161.185.432.247.494.37.556.124.061.247.123.618-.062.37-.124 1.05-.494 1.791-1.297.741-.864 1.482-2.223 1.976-3.396s.679-2.223.741-3.644c.061-1.42 0-3.272-.309-4.754-.309-1.544-.988-2.779-1.544-3.582-.556-.803-1.05-1.111-1.297-1.297-.247-.185-.247-.185-.37-.061-.185.123-.494.37-.803.864-.432.371-.864 1.112-1.173 1.976z" fill="#737160"/><path fill-rule="evenodd" clip-rule="evenodd" d="M296.154 240.949c-.371.865-1.05 2.038-1.791 3.582-.803 1.544-1.729 3.52-2.223 5.928-.494 2.408-.556 5.31-.679 6.731-.124 1.482-.247 1.543-.679 1.543-.433 0-1.174 0-3.211-.123-2.038-.124-5.434-.432-7.657-.679-2.223-.186-3.273-.309-3.767-.618-.494-.309-.432-.803-.432-1.605 0-.803-.062-1.976-.062-3.397 0-1.42 0-3.025.123-4.199.124-1.111.371-1.79.556-2.223.185-.432.309-.617.679-.926.371-.309.988-.617 1.853-1.482.864-.803 2.099-2.099 3.767-2.902 1.729-.803 4.013-1.173 6.175-1.42 2.161-.247 4.199-.371 5.495-.371 1.297 0 1.853.124 2.1.371.247.494.123.988-.247 1.79z" fill="#24231D"/><path fill-rule="evenodd" clip-rule="evenodd" d="M306.837 239.344c.37.432 1.173.988 2.037 2.038.865 1.049 1.668 2.531 2.409 4.878.741 2.346 1.358 5.496 1.729 7.163.37 1.667.432 1.791.617 1.852.124.062.309.124.371 0 .123-.123.123-.494.123-.988 0-.555-.123-1.296-.309-2.655-.185-1.358-.37-3.334-.926-5.372s-1.42-4.014-2.346-5.434c-.927-1.359-1.915-2.1-2.532-2.408-.679-.309-1.05-.186-1.235.061-.247.124-.371.433.062.865zm-11.918 1.667c-.494.617-1.173 1.667-1.914 3.334-.741 1.668-1.482 3.952-2.038 6.299-.556 2.346-.803 4.755-.926 6.113-.124 1.359-.062 1.667.185 1.914.247.186.617.247.926.247.309-.061.494-.185.556-1.049.062-.865.062-2.47.432-4.57.432-2.099 1.297-4.755 2.1-6.854a34.313 34.313 0 012.161-4.631c.556-.988.803-1.421.926-1.668.062-.247-.062-.308-.309-.308s-.617.123-.926.247c-.37.123-.679.308-1.173.926z" fill="#4F4D3E"/><path fill-rule="evenodd" clip-rule="evenodd" d="M228.043 226.5v21.736l20.008-2.223c20.007-2.223 60.082-6.608 80.398-8.831 20.254-2.223 20.748-2.284 20.995-2.346l.247-.062v-1.605c0-1.606-.061-4.817 0-21.551.062-16.734.186-47.054.247-62.985.062-15.932.062-17.537.062-18.34v-.803l-20.316-3.087c-20.316-3.088-61.009-9.201-81.325-12.289l-20.316-3.087V226.5z" fill="#3D8C31"/><path fill-rule="evenodd" clip-rule="evenodd" d="M141.964 230.39c0 12.165.802 13.153 1.173 13.647.37.494.37.494 1.544.556 1.173.061 3.458.185 17.537.802 14.079.618 39.952 1.729 52.858 2.285l12.906.556V111.274l-14.265 2.038c-14.264 2.037-42.731 6.113-56.995 8.089l-14.264 2.038.123 7.718c.124 7.719.371 23.095.556 31.123.123 8.027.123 8.583-.185 20.562-.309 11.98-1.05 35.383-.988 47.548z" fill="#4AAB3C"/><path fill-rule="evenodd" clip-rule="evenodd" d="M142.766 138.382c-.123-8.213-.185-11.609-.185-13.276v-1.729l1.729-.247c1.729-.247 5.249-.741 6.978-.988l1.729-.247.803 5.249c.803 5.248 2.408 15.808 5.063 22.23 2.656 6.483 6.361 8.892 14.573 9.941 8.213 1.05 20.934.741 29.517.741 8.645 0 13.214.433 15.684.988 2.47.556 2.841 1.421 3.335 3.397.494 1.976.988 5.125 1.667 14.696.618 9.571 1.359 25.627 1.606 38.224.308 12.535.123 21.612.061 26.12l-.061 4.508-13.153-.556c-13.153-.556-39.458-1.729-52.611-2.285-13.153-.556-13.153-.556-13.832-6.175-.68-5.619-2.038-16.796-2.717-22.415l-.68-5.619.186-6.422c.185-6.422.494-19.267.617-32.172 0-12.783-.185-25.75-.309-33.963z" fill="#509663"/><path fill-rule="evenodd" clip-rule="evenodd" d="M91.143 193.957c-5.248 5.558-8.83 8.831-11.362 11.115-2.531 2.285-4.075 3.582-5.866 4.94-1.79 1.421-3.828 2.903-7.04 5.434-3.21 2.532-7.657 6.114-10.188 8.522-2.532 2.408-3.211 3.52-3.396 4.014-.247.494-.062.432-.247 1.914-.186 1.482-.803 4.508-1.05 6.051-.309 1.544-.309 1.544 7.842 2.47 8.09.988 24.33 2.903 34.395 3.088 10.065.185 13.955-1.42 17.599-2.347 3.643-.988 7.039-1.296 10.003-1.482 2.964-.185 5.372-.185 8.46-1.235 3.026-1.049 6.669-3.211 12.288-8.274 5.62-5.125 13.338-13.153 22.354-22.971 9.015-9.818 19.451-21.427 26.12-27.849 6.669-6.422 9.571-7.596 13.956-8.275 4.384-.679 10.312-.741 12.72-1.297 2.409-.555 1.297-1.605.432-2.161-.864-.617-1.42-.741-7.039-1.05-5.619-.308-16.24-.679-27.788-.617-11.547.061-23.959.617-33.53 1.173-9.509.556-16.117 1.112-20.933 1.667-4.817.556-7.843 1.112-9.819 1.544-1.976.432-2.84.679-3.643.988-.803.309-1.544.741-2.346 1.359-.803.617-1.668 1.42-5.62 5.681-4.075 4.199-11.053 12.041-16.302 17.598z" fill="#5DC94C"/><path fill-rule="evenodd" clip-rule="evenodd" d="M124.118 171.11c-3.149.309-6.36.741-8.645 1.111-2.285.371-3.52.618-4.446.988-.926.309-1.42.741-1.914 1.174-.494.432-.988.988-3.458 3.705s-6.978 7.718-9.757 10.682c-2.779 3.026-3.767 4.076-4.631 5.002-.865.926-1.667 1.729-2.902 3.211-1.297 1.482-3.088 3.643-4.57 5.372-1.482 1.729-2.594 3.088-3.335 4.199-.74 1.112-1.111 1.976-1.173 2.347-.062.432.124.432 3.705.494 3.582.062 10.498.062 20.131.247 9.633.123 21.921.309 30.196.432 8.274.124 12.535.124 14.696.124 2.161 0 2.285 0 3.026-.371.741-.37 2.038-1.111 4.261-2.964 2.223-1.852 5.372-4.878 9.201-9.509 3.766-4.632 8.212-10.93 11.609-15.623 3.396-4.693 5.681-7.719 6.854-9.51 1.173-1.79 1.173-2.284.679-2.531-.494-.247-1.482-.124-6.36-.124-4.817 0-13.523-.062-21.427.062-7.966.123-15.253.432-20.378.741-5.187.247-8.213.432-11.362.741z" fill="#403E32"/><path fill-rule="evenodd" clip-rule="evenodd" d="M88.859 206.616c4.57.124 13.276.371 22.106.494 8.83.124 17.846.124 24.33.185 6.483 0 10.374.062 12.535.062 2.161 0 2.593 0 3.026-.123.37-.124.741-.371 1.42-.865.679-.494 1.606-1.235 3.026-2.47 1.42-1.235 3.211-3.026 5.434-5.372 2.161-2.347 4.631-5.249 7.41-8.707a340.834 340.834 0 007.966-10.559 164.352 164.352 0 004.384-6.237c.741-1.112.679-1.235.617-1.297-.061-.062-.185-.123-1.729-.185-1.543 0-4.507 0-9.756-.124-5.249-.061-12.844-.185-21.181-.123-8.336.123-17.475.494-23.279.803-5.805.308-8.275.617-10.251.864-1.976.247-3.458.432-4.693 1.173-1.235.741-2.285 1.976-3.273 3.15-.988 1.235-1.976 2.408-5.434 6.236-3.458 3.891-9.51 10.374-13.029 14.45-3.52 4.076-4.631 5.619-5.187 6.546-.556.926-.556 1.173-.494 1.358.123.185.309.247.617.371.371.185.865.247 5.435.37z" fill="#E6E6E6"/><path fill-rule="evenodd" clip-rule="evenodd" d="M93.49 198.65c3.396-4.137 9.262-11.3 12.72-15.375 3.458-4.076 4.57-5.002 5.496-5.62.926-.617 1.606-.988 4.878-1.235 3.273-.308 9.078-.555 16.549-.617 7.472-.062 16.549.185 21.366.185s5.372-.185 5.681-.37c.309-.186.371-.371.185-.556-.185-.185-.617-.432-.926-.618-.247-.247-.37-.432-.062-.679.309-.247.988-.432 3.273-.494 2.223-.062 6.052 0 8.151 0 2.1 0 2.594 0 2.841-.185.308-.185.432-.556.247-.741-.186-.185-.618-.247-3.458-.309-2.841-.062-8.028-.123-14.141-.123-6.114 0-13.215.123-19.081.308-5.866.186-10.436.371-13.832.618-3.396.185-5.619.432-7.595.679-1.976.247-3.767.494-4.817.926-1.111.433-1.544.988-5.619 5.743-4.076 4.755-11.67 13.709-15.623 18.587-3.89 4.816-4.075 5.557-3.643 5.928.37.37 1.297.37 2.223-.185.926-.68 1.852-1.729 5.187-5.867z" fill="#FDE742"/><path fill-rule="evenodd" clip-rule="evenodd" d="M223.289 220.448c.494 13.585.308 27.726.247 34.766-.062 7.039-.062 7.039 0 7.41l.247 1.482c.061.37.061.37.061 1.605 0 1.235-.061 3.643-.185 5.311-.062 1.605-.185 2.47-.37 2.964-.124.555-.371.802-.556.988-.185.185-.371.37-3.829 1.049-3.458.68-10.189 1.915-16.734 3.026-6.546 1.112-12.782 2.223-16.426 2.717-3.581.494-4.507.432-4.94.432-.432 0-.432 0-.432-1.235s0-3.705-.185-6.113a50.197 50.197 0 00-.988-6.731c-.432-1.976-.926-3.519-1.606-5.372-.679-1.852-1.543-4.014-3.087-5.99-1.544-1.976-3.705-3.643-5.928-4.693-2.223-.988-4.57-1.296-6.916-1.111-2.347.123-4.755.679-6.916 1.729-2.161 1.05-4.137 2.532-5.372 3.643-1.235 1.112-1.791 1.853-2.038 2.161-.247.371-.247.371-.432.309-.186-.062-.494-.185-5.558-3.026-5.063-2.902-14.882-8.521-20.007-11.485-5.125-2.964-5.558-3.211-4.261-4.137 1.297-.927 4.385-2.47 5.99-3.335 1.606-.864 1.667-1.05 3.026-2.099 1.358-1.05 4.075-2.903 8.583-6.299 4.508-3.396 10.806-8.398 15.499-12.227 4.693-3.89 7.781-6.607 9.695-8.521 1.976-1.853 2.779-2.841 5.928-7.04 3.149-4.137 8.645-11.485 12.721-16.919 4.013-5.434 6.607-8.954 8.706-11.547 2.1-2.594 3.705-4.199 5.373-5.064 1.667-.926 3.458-1.111 7.533-1.173 4.076-.062 10.498 0 13.894.062 3.396 0 3.829 0 4.199.061.309.062.556.309.803 1.112.185.803.37 2.161.617 4.508.247 2.346.618 5.681 1.297 13.955.865 8.089 1.914 21.242 2.347 34.827z" fill="#4AAB3C"/><path fill-rule="evenodd" clip-rule="evenodd" d="M147.213 241.443c-1.853 1.173-3.582 2.408-5.311 3.952s-3.396 3.335-4.261 4.261c-.864.926-.864.926-.741.988.062.062.247.185 1.606.864 1.358.68 3.89 1.976 5.187 2.656l1.235.617.494-.494c.494-.494 1.482-1.544 3.087-2.84 1.606-1.297 3.891-2.903 6.608-3.952 2.717-1.05 5.804-1.544 8.706-1.482 2.903.061 5.558.679 8.151 2.037 2.594 1.359 5.187 3.582 6.855 5.311 1.667 1.791 2.47 3.149 3.025 3.828.556.741.865.741.865-.308 0-1.05-.371-3.211-1.297-5.743-.926-2.47-2.346-5.311-4.261-7.41-1.914-2.1-4.322-3.52-6.916-4.57a26.752 26.752 0 00-8.336-1.729c-2.902-.123-5.928.247-8.398.988-2.532.803-4.508 1.853-6.298 3.026z" fill="#5DC94C"/><path fill-rule="evenodd" clip-rule="evenodd" d="M191.364 169.813c-1.05.494-1.976 1.173-2.841 1.914-.864.741-1.544 1.544-2.532 2.717-.988 1.235-2.223 2.841-3.581 4.57-1.297 1.667-2.655 3.396-3.335 4.322-.679.927-.679 1.112-.617 1.174.062.061.123.061 1.482-1.668 1.358-1.729 4.014-5.187 5.866-7.41 1.853-2.161 2.841-3.087 3.89-3.766 1.05-.68 2.1-1.235 3.335-1.606 1.235-.37 2.717-.556 4.816-.741 2.1-.185 4.879-.309 7.657-.37 2.779-.062 5.496 0 7.04 0 1.544.061 1.791.123 2.038.247.185.123.309.308.432.432.062.123.124.247.185.123.062-.123.124-.432 0-.741-.123-.308-.432-.679-1.42-.864-.988-.185-2.593-.247-5.928-.124-3.335.062-8.275.247-11.3.556-3.088.371-4.199.679-5.187 1.235z" fill="#3D8C31"/><path fill-rule="evenodd" clip-rule="evenodd" d="M176.914 217.731c-8.274 2.223-14.326 3.829-17.969 4.755-3.643.926-4.878 1.111-5.619 1.235-.741.123-.988.123-2.162 1.482-1.235 1.358-3.396 3.952-4.754 5.681-1.359 1.729-1.853 2.532-2.038 3.149-.247.618-.185 1.112.185 1.544.371.37.988.679 2.1.556 1.049-.124 2.531-.556 7.904-2.409 5.434-1.852 14.758-5.063 24.206-8.521a952.498 952.498 0 0024.453-9.201c5.496-2.161 7.039-2.84 8.151-3.458 1.111-.617 1.852-1.173 2.408-1.976.494-.803.803-1.914.988-2.84.185-.927.247-1.729.185-6.916-.123-5.187-.432-14.882-.741-20.069-.308-5.249-.679-5.99-.988-6.484-.308-.494-.617-.618-.864-.679-.247-.062-.371.061-.371.308s.186.803.309 1.976c.124 1.235.247 3.15.247 8.09 0 4.94 0 12.906-.123 17.105-.062 4.137-.124 4.507-.494 5.187-.309.617-.865 1.605-1.853 2.223-.988.617-2.408.988-8.398 2.593-5.928 1.544-16.487 4.446-24.762 6.669z" fill="#509663"/><path fill-rule="evenodd" clip-rule="evenodd" d="M203.096 172.16c-2.284.123-4.446.185-6.236.37-1.729.185-3.026.371-4.138.803-1.173.37-2.161.926-3.334 1.852-1.173.927-2.408 2.285-6.484 7.534-4.014 5.249-10.806 14.511-16.302 21.612-5.496 7.163-9.695 12.227-11.856 14.882-2.223 2.656-2.408 2.903-2.346 3.273.061.371.494.803.679.988.185.247.185.247 1.852-.185 1.606-.371 4.879-1.173 7.472-1.791 2.594-.617 4.446-1.111 7.163-1.852 2.655-.741 6.175-1.668 9.818-2.656 3.644-.988 7.472-2.038 11.239-3.026 3.767-.988 7.41-2.037 9.633-2.593 2.161-.618 2.84-.803 3.581-.988a48.707 48.707 0 002.409-.679c.802-.247 1.482-.433 2.099-.618a8.927 8.927 0 001.482-.617c.371-.186.618-.371.865-.556.247-.185.37-.371.617-.618.185-.247.494-.617.679-.988.186-.37.309-.679.371-1.111.062-.432.062-.988.123-2.038 0-1.05.062-2.47.062-6.669v-14.758c0-3.767-.062-4.446-.123-5.125-.062-.68-.124-1.297-.247-1.853-.062-.556-.124-.926-.247-1.297-.124-.37-.309-.679-.618-.926s-.741-.494-2.099-.556c-1.482 0-3.829.124-6.114.186z" fill="#403E32"/><path fill-rule="evenodd" clip-rule="evenodd" d="M187.906 181.175c0-2.532 0-2.655-.124-2.717a.379.379 0 00-.432.062c-.185.123-.309.309-2.285 2.902-1.976 2.594-5.681 7.595-7.595 10.127-1.914 2.532-1.914 2.594-1.853 6.113.062 3.52.309 10.436.433 13.956.123 3.52.185 3.705.247 3.828.061.124.123.124 2.037-.37 1.915-.494 5.62-1.482 7.534-1.976 1.914-.494 2.038-.556 2.1-.556.061 0 .061 0 0-3.211a913.771 913.771 0 01-.124-15.129c0-5.681 0-10.559.062-13.029zm2.655 28.899v2.47l2.593-.679c2.594-.679 7.843-2.1 10.93-2.902 3.026-.865 3.829-1.174 4.508-1.482.618-.309 1.112-.68 1.482-1.174.371-.555.679-1.296.803-2.531.123-1.235 0-3.026-.062-7.472-.123-4.446-.247-11.548-.37-15.376-.124-3.829-.186-4.446-.371-5.064-.185-.617-.494-1.235-.926-1.605-.432-.371-.988-.494-2.408-.556-1.421-.062-3.705 0-6.052.124-2.346.061-4.755.185-6.237.308-1.482.124-1.976.309-2.47.618-.556.309-1.111.741-1.42.988-.309.247-.309.247-.247 3.89.062 3.643.123 10.992.185 17.105 0 6.052.062 10.93.062 13.338z" fill="#E6E6E6"/><path fill-rule="evenodd" clip-rule="evenodd" d="M176.606 198.959c-.556.247-.865.556-1.05 1.482-.124.865-.124 2.285-.124 3.026 0 .741 0 .741-.308.679a32.946 32.946 0 01-1.359-.309c-.432-.123-.741-.247-1.05-.247-.247 0-.494 0-.741.247-.247.186-.494.556-.679.988a2.84 2.84 0 00-.185 1.421c.062.432.185.741.432.926.185.185.432.309 1.173.37.741.062 1.915.062 2.532.062h.618l.061.988c.062.988.124 3.026.124 4.014.062.988.062.988-.247.988-.247 0-.803 0-1.235-.062-.432 0-.679 0-1.112.124-.37.123-.926.37-1.235.679-.37.309-.555.679-.617 1.05-.062.37.062.679.123.926.124.247.186.309.371.432.185.062.37.185 1.05.185.679 0 1.729-.061 2.346-.061h.618l.123.247c.124.247.309.802.803 1.42.432.679 1.111 1.482 1.976 1.976.864.494 1.852.741 3.211.741 1.358 0 3.026-.185 4.261-.432 1.235-.247 2.037-.618 2.655-1.05.617-.432.988-.988 1.111-1.544.186-.556.186-1.173.124-3.52-.062-2.346-.124-6.545-.247-9.2-.124-2.656-.247-3.705-.556-4.508-.309-.803-.803-1.297-1.544-1.667-.741-.371-1.852-.494-3.458-.618-1.605-.123-3.766-.123-5.248-.062-1.421-.061-2.162.062-2.717.309z" fill="#4F4D3E"/><path fill-rule="evenodd" clip-rule="evenodd" d="M188.276 202.664c.247 1.173.432 3.211.494 5.99.124 2.717.124 6.175 0 8.089-.062 1.914-.247 2.223-1.173 2.47-.865.247-2.47.494-3.952.556-1.482.062-2.779 0-3.767-.309-.988-.247-1.667-.741-2.161-1.05-.494-.308-.803-.494-1.05-1.049-.247-.556-.37-1.482-.556-3.767a469.524 469.524 0 01-.555-7.904c-.124-2.038-.124-2.408-.124-2.841 0-.432 0-.802.185-1.173.124-.37.433-.741.988-.926.556-.247 1.359-.371 2.594-.432 1.235-.062 2.964 0 4.384.123 1.482.124 2.717.247 3.458.494.741.247.988.556 1.235 1.729z" fill="#24231D"/><path fill-rule="evenodd" clip-rule="evenodd" d="M208.098 216.558c-.37.556-1.05 1.482-1.482 2.099-.37.618-.494.927-.494 1.235 0 .309.062.618.371 1.235.308.618.864 1.482 1.235 2.1.37.617.617.926.741 1.111.123.186.185.247 1.358.309 1.173 0 3.458 0 4.631-.062 1.235-.061 1.359-.185 1.606-.741a30.98 30.98 0 00.926-2.346c.247-.741.309-1.173.309-1.42 0-.247 0-.309-.432-.988-.433-.68-1.235-1.976-1.729-2.717-.494-.68-.618-.741-1.668-.741-1.049 0-2.964.061-3.952.185-1.049.062-1.049.185-1.42.741z" fill="#4F4D3E"/><path fill-rule="evenodd" clip-rule="evenodd" d="M209.58 217.546c-.247.37-.679.988-.864 1.297-.186.308-.124.37 1.049.432h5.743s-.062-.062-.309-.494a71.72 71.72 0 01-1.049-1.544c-.247-.37-.247-.37-.927-.37-.617 0-1.914 0-2.531.061-.618 0-.68.062-.68.124-.123.062-.185.185-.432.494zm-1.05 4.322c.247.371.803 1.05 1.05 1.421.309.37.371.432.988.432.618 0 1.853 0 2.47-.062.618 0 .618 0 .926-.432.309-.371.865-1.173 1.174-1.544.308-.432.308-.432.308-.494v-.062h-1.296c-1.174 0-3.52 0-4.693.062-1.174 0-1.174 0-1.174.062v.123c-.061.062 0 .124.247.494z" fill="#24231D"/><path fill-rule="evenodd" clip-rule="evenodd" d="M196.674 251.385c5.496-.618 16.241-1.853 21.613-2.47l5.372-.618v-4.013l-3.026.308c-3.025.309-9.077.988-14.387 1.544-5.311.556-9.942 1.05-12.289 1.297-2.346.247-2.408.37-2.655.988-.247.617-.741 1.667-.926 2.346-.247.68-.247.865-.185.988.061.124.308.186.494.186.247.061.494.061 5.989-.556z" fill="#5DC94C"/><path fill-rule="evenodd" clip-rule="evenodd" d="M211.618 226.314c-2.717.494-5.496 1.235-8.028 2.47-2.531 1.297-4.878 3.15-6.854 5.373-2.038 2.223-3.705 4.693-5.063 7.101-1.359 2.408-2.285 4.631-2.779 5.804-.494 1.174-.494 1.235-.247 1.235.185 0 .617-.123.988-.247.37-.123.617-.247.988-.741.37-.494.864-1.358 1.852-3.149.988-1.791 2.532-4.446 4.446-6.792a26.979 26.979 0 016.669-5.743c2.532-1.482 5.373-2.532 8.337-3.211 2.964-.618 6.051-.865 8.027-.988 1.976-.124 2.779-.124 3.211-.185.432 0 .432 0 .432-.371 0-.37 0-1.05-.061-1.358v-.371h-.618c-.617 0-1.791.062-3.767.185-2.037.186-4.754.494-7.533.988z" fill="#3D8C31"/><path fill-rule="evenodd" clip-rule="evenodd" d="M192.043 269.848c6.545-.802 19.204-2.47 25.503-3.334 6.298-.803 6.298-.803 6.298-.926v-1.112c0-.185 0-.309-.061-.309 0-.061 0-.061-.062-.308s-.124-.741-.185-.988l-.062-.247-5.99.802c-5.99.803-17.969 2.347-23.959 3.088l-5.99.803s0 .061-.556.617a70.252 70.252 0 00-2.099 2.223c-.494.556-.494.556-.247.556.37-.062.864-.062 7.41-.865z" fill="#5DC94C"/><path fill-rule="evenodd" clip-rule="evenodd" d="M173.024 251.57c.741.618 1.791 1.544 2.779 2.841 1.049 1.296 2.099 2.964 3.087 5.248.988 2.285 1.853 5.126 2.347 7.657.555 2.532.741 4.693.864 6.669.124 1.976.124 3.705.185 4.632 0 .926.062 1.049.124 1.111.062.062.185.062 2.223-.309 2.038-.308 5.99-.988 11.053-1.914 5.064-.864 11.239-1.976 14.388-2.532 3.088-.555 3.149-.617 3.211-.679.062-.062.062-.185.062-.185s0-.062-.247 0c-.309.062-.865.123-4.878.741-4.014.679-11.424 1.914-16.117 2.655-4.693.803-6.608 1.173-7.596 1.297-.988.123-1.111.123-1.173 0-.062-.124-.062-.247-.185-2.223-.124-1.976-.371-5.681-1.05-9.139a42.457 42.457 0 00-2.902-9.077c-1.173-2.409-2.347-4.138-3.52-5.373-1.173-1.235-2.346-2.099-2.964-2.47-.617-.432-.617-.432-.864-4.569-.309-4.199-.927-12.535-1.297-17.599-.432-5.063-.618-6.854-.741-7.719-.124-.864-.124-.864-.247-.864-.185.062-.494.123-.618.185l-.185.062.432 5.063c.433 5.064 1.297 15.129 1.668 20.193.432 5.063.432 5.125.679 5.31.185.062.679.371 1.482.988z" fill="#403E32"/><path fill-rule="evenodd" clip-rule="evenodd" d="M131.157 210.074c-3.149-.062-6.298-.062-10.559-.123-4.261-.062-9.695-.124-14.882-.186-5.187-.061-10.127-.123-13.523-.185-3.396-.062-5.372-.062-6.793-.062-1.42 0-2.346 0-3.149-.061-.803 0-1.482 0-1.79-.062h-.186c.124 0 .432 0 3.088.247 2.655.247 7.595.679 16.734 1.111 9.139.433 22.477.865 29.393 1.112 6.978.247 7.534.309 7.781.556.185.247 0 .679-.247.988-.247.308-.433.494-.433.741s.309.555.741.679c.433.123 1.05 0 2.841-.803 1.791-.803 4.816-2.346 6.298-3.087 1.482-.741 1.482-.741.247-.741-1.235 0-3.705 0-6.483-.062-2.779 0-5.928-.062-9.078-.062z" fill="#509663"/><path fill-rule="evenodd" clip-rule="evenodd" d="M132.269 286.212c.309 1.544.926 4.322 1.791 6.978.864 2.655 2.099 5.249 3.581 7.286 1.482 2.1 3.273 3.767 5.002 4.817 1.667 1.05 3.211 1.544 4.508 1.852 1.297.309 2.346.494 3.828.556 1.482.062 3.273.062 5.311-.37 2.038-.433 4.199-1.297 5.928-3.211 1.729-1.853 2.964-4.755 4.322-8.954 1.359-4.199 2.779-9.757 2.47-15.191-.308-5.496-2.346-10.93-4.075-13.894-1.729-2.964-3.211-3.458-4.755-3.766-1.482-.309-3.026-.371-4.94-.309-1.976.062-4.384.185-6.545.679-2.162.494-4.138 1.297-5.867 2.347-1.729 1.049-3.273 2.346-4.569 4.137-1.297 1.729-2.409 3.952-3.273 5.99-.865 2.037-1.606 3.828-2.038 5.31-.432 1.482-.617 2.532-.741 3.211-.247.679-.247.988.062 2.532z" fill="#403E32"/><path fill-rule="evenodd" clip-rule="evenodd" d="M169.134 267.008c-1.05-.988-2.594-2.347-4.446-3.149-1.791-.865-3.829-1.235-5.805-1.235-1.976 0-3.828.37-5.495 1.049-1.668.68-3.211 1.668-4.817 3.088-1.544 1.42-3.149 3.273-4.384 5.063-1.235 1.791-2.1 3.582-2.841 6.052-.741 2.47-1.358 5.557-1.42 8.768a25.653 25.653 0 001.606 9.386c1.111 2.964 2.778 5.62 4.446 7.534 1.667 1.914 3.272 3.026 4.878 3.643 1.605.618 3.149.741 4.631.679 1.482-.061 2.902-.247 4.508-.802 1.605-.556 3.396-1.359 5.002-2.47a17.876 17.876 0 004.384-4.014c1.297-1.667 2.408-3.767 3.334-6.052a28.324 28.324 0 001.976-7.965c.309-3.026.247-6.546-.432-9.51a23.665 23.665 0 00-2.779-6.854c-.741-1.482-1.296-2.161-2.346-3.211z" fill="#403E32"/><path fill-rule="evenodd" clip-rule="evenodd" d="M157.895 270.651c6.793-.803 12.227 5.31 12.227 13.647 0 8.336-5.496 15.808-12.227 16.61-6.792.803-12.226-5.31-12.226-13.646-.062-8.398 5.434-15.808 12.226-16.611z" fill="#4F4D3E"/><path fill-rule="evenodd" clip-rule="evenodd" d="M166.17 280.469c-.247-1.173-.556-2.038-1.235-3.026-.68-.988-1.668-2.161-2.779-2.964-1.112-.802-2.347-1.296-3.767-1.42a9.237 9.237 0 00-4.446.556c-1.42.556-2.593 1.482-3.643 2.779a16.674 16.674 0 00-2.594 4.878c-.617 1.791-.864 3.643-.864 5.496 0 1.852.247 3.705.864 5.372.618 1.667 1.668 3.149 2.779 4.137 1.112.988 2.347 1.544 3.767 1.668 1.42.123 3.087-.062 4.631-.68 1.482-.617 2.779-1.605 3.767-2.655.988-.988 1.605-1.976 1.976-2.902.37-.926.494-1.729.494-1.976 0-.247 0 .062-.679.803-.618.741-1.853 1.852-3.15 2.47-1.296.617-2.593.741-3.766.494-1.174-.309-2.162-.988-2.964-1.976-.803-.988-1.359-2.223-1.297-4.261 0-2.038.617-4.817 2.038-6.608 1.42-1.729 3.643-2.408 5.248-2.47 1.606-.061 2.532.494 3.211 1.174.68.617 1.112 1.358 1.421 1.976.308.679.494 1.296.679 1.914.123.617.247 1.235.37 1.482.124.247.186.062.186-.803.123-.741 0-2.285-.247-3.458z" fill="#737160"/><path fill-rule="evenodd" clip-rule="evenodd" d="M47.61 251.323c-.124 2.223-.248 6.237.061 10.251.309 4.013.926 8.151 1.853 10.806.864 2.655 2.037 3.952 3.458 5.002 1.482.988 3.272 1.791 6.36 2.779 3.026.988 7.348 2.223 13.894 3.458 6.545 1.235 15.375 2.531 22.353 3.458 6.978.864 12.165 1.42 17.476 1.667 5.31.309 10.682.37 14.14.37s5.064-.061 5.99-.432c.988-.37 1.359-.988 1.791-1.852.432-.865.864-1.976 1.852-5.002.988-3.026 2.409-7.966 3.952-11.918 1.544-3.952 3.211-6.854 4.323-8.522 1.05-1.667 1.482-2.099 1.976-2.593l1.173-1.173.247-.247-.617-.433c-.618-.432-1.791-1.296-3.705-2.408-1.915-1.111-4.57-2.47-10.436-5.619-5.866-3.149-14.882-8.028-19.513-10.498-4.632-2.47-4.755-2.531-5.249-2.531-.432.061-1.173.185-1.914.247-.741.061-1.421 0-1.729 0-.371 0-.371 0-4.323-.186-3.952-.123-11.856-.432-18.957-.741-7.101-.37-13.338-.802-17.784-1.173-4.446-.37-6.978-.741-8.46-.926-1.482-.247-1.79-.371-2.161-.432-.37-.062-.741 0-.988.123-.247.124-.247.371-.618 1.791-.37 1.42-.988 3.952-1.42 5.187-.432 1.235-.556 1.235-.68 1.358-.123.062-.184.309-.246.556a9.435 9.435 0 00-.185 1.173c-.062.618-.062 1.482-.247 2.47-.247.988-.68 2.038-.988 2.717-.37.68-.556 1.05-.68 3.273z" fill="#36342B"/><path fill-rule="evenodd" clip-rule="evenodd" d="M129.367 234.218c.555-1.729.802-3.025.926-3.952.123-.926.123-1.42-.062-1.914-.123-.494-.432-1.05-.988-1.358-.556-.309-1.297-.371-2.223-.309a24.33 24.33 0 00-3.581.494c-1.482.309-3.211.741-5.249 1.297-2.038.555-4.261 1.235-6.484 2.223-2.161.988-4.261 2.346-5.681 3.519-1.42 1.174-2.099 2.285-3.211 3.952-1.05 1.729-2.47 4.014-3.643 5.99-1.174 1.976-2.038 3.582-2.47 4.57-.37.988-.309 1.296-.185 1.482.123.185.246.308 1.111.308s2.408-.061 5.002-.37c2.593-.309 6.237-.865 9.324-1.42 3.088-.556 5.681-1.112 7.472-1.606 1.791-.556 2.779-1.05 3.396-1.297.556-.308.741-.37 1.359-1.235.617-.926 1.667-2.655 2.655-4.631 1.05-1.852 1.914-4.014 2.532-5.743z" fill="#24231D"/><path fill-rule="evenodd" clip-rule="evenodd" d="M121.03 246.013c.309-.124.618-.247.988-.494.371-.247.741-.618 1.359-1.482.617-.865 1.42-2.285 2.346-4.261.927-1.976 1.976-4.508 2.656-6.484.679-1.976.926-3.458.926-4.384 0-.926-.371-1.297-.865-1.482-.494-.185-1.111-.185-2.161-.123-1.05.123-2.532.37-4.199.741-1.729.432-3.643 1.049-5.372 1.543-1.667.494-3.026.988-4.384 1.482a22.233 22.233 0 00-3.644 1.791c-1.111.679-2.037 1.359-2.778 2.038-.741.679-1.235 1.42-1.853 2.593a52.783 52.783 0 00-2.346 4.632c-.865 1.79-1.668 3.643-2.1 4.754-.432 1.112-.432 1.482-.37 1.791.061.247.185.371 1.296.309 1.112-.062 3.211-.247 5.867-.618 2.655-.37 5.928-.802 8.274-1.235a83.413 83.413 0 004.817-.864c.988 0 1.235-.124 1.543-.247zm-71.136-4.632c.185.494.432 1.112.803 1.668a9.26 9.26 0 001.05 1.296c.247.247.37.247.432.124.062-.124.062-.494.37-2.594.31-2.099.803-6.051 1.05-8.768.247-2.717.124-4.323.124-5.064-.062-.802-.062-.802-.247-.555-.186.185-.618.617-1.05 1.482-.432.864-.926 2.223-1.359 4.137-.494 1.914-.926 4.446-1.173 5.928-.247 1.482-.185 1.852 0 2.346z" fill="#E6E6E6"/><path fill-rule="evenodd" clip-rule="evenodd" d="M51.5 231.316c.185-.617.308-.926.432-1.296.123-.371.309-.741.37-.927.124-.247.124-.308.186-.37 0-.062 0-.062.061.309.062.37.124 1.111.124 2.408s-.124 3.087-.309 4.94c-.185 1.852-.494 3.705-.617 4.755-.124 1.111-.124 1.42-.186 1.605-.061.185-.185.185-.494-.309-.308-.494-.802-1.482-1.05-2.099-.246-.618-.246-.803-.185-1.297.062-.494.186-1.235.37-2.099.186-.927.371-2.038.618-3.026s.494-1.914.68-2.594zm64.714 15.746c1.297-.247 2.285-.432 3.087-.802.803-.371 1.359-.865 1.915-1.729.617-.803 1.173-1.976 2.099-3.891.926-1.914 2.161-4.631 2.902-6.483.741-1.853.927-2.903.988-3.582.062-.679-.061-1.05-.432-1.173-.37-.185-.926-.124-2.161.062-1.173.247-2.964.617-5.558 1.42-2.593.741-5.989 1.852-8.151 2.779-2.161.926-3.025 1.667-4.26 3.396-1.174 1.729-2.656 4.446-3.582 6.298-.926 1.853-1.297 2.964-1.42 3.644-.185.679-.124.926.062 1.111.185.185.494.309.988.432.494.124 1.173.124 2.717 0 1.543-.123 3.89-.432 5.866-.741a68.945 68.945 0 004.94-.741z" fill="#E8E4BE"/><path fill-rule="evenodd" clip-rule="evenodd" d="M57.86 275.221c2.1.617 5.866 1.42 10.312 2.223 4.446.802 9.572 1.667 12.906 2.037 3.334.371 4.878.371 5.866.186.988-.186 1.42-.433 1.73-.988.308-.556.555-1.421 1.172-4.014.618-2.594 1.606-6.978 2.409-9.88.803-2.841 1.42-4.199 2.1-5.249.679-1.05 1.481-1.729 2.408-2.161.926-.371 1.976-.494 5.619-.803 3.581-.309 9.756-.803 13.77-1.173 4.014-.309 5.99-.494 6.916-.68.926-.247.803-.494-.062-.802-.864-.247-2.531-.494-5.31-.433-2.779.062-6.607.433-10.374.741-3.705.309-7.287.618-9.757 1.112-2.408.494-3.705 1.235-4.754 2.84-.988 1.606-1.73 4.138-2.532 7.534-.803 3.396-1.73 7.595-2.47 9.757-.741 2.161-1.235 2.284-2.347 2.284-1.173 0-3.026-.061-7.719-.741-4.754-.617-12.411-1.852-16.425-2.593-4.014-.741-4.446-.988-4.878-1.235-.433-.247-.927-.556-1.235-.865-.31-.247-.494-.494-.494-.308 0 .185.123.741.37 1.296.247.741.68 1.297 2.779 1.915z" fill="#737160"/><path fill-rule="evenodd" clip-rule="evenodd" d="M124.982 265.896c-3.149.186-8.707.68-13.276 1.05-4.57.432-8.151.865-10.127 1.297-1.976.432-2.347.926-2.594 1.544-.185.617-.247 1.296.062 2.346.247 1.05.865 2.47 1.297 3.396.494.927.864 1.482 1.358 2.038.494.556 1.112 1.173 1.668 1.606.555.432 1.111.617 1.79.741.68.123 1.544.247 5.743.247s11.795-.124 15.87-.186c4.076-.061 4.693-.061 5.064-.123.37-.062.555-.124.555-.247 0-.062-.061-.124-1.235-.309-1.111-.123-3.272-.37-4.384-.494-1.111-.123-1.111-.123-3.705-.123-2.532 0-7.595.061-10.251.061-2.593 0-2.778 0-2.593-.185.123-.123.556-.432.988-.864.432-.494.926-1.112 1.235-2.1.309-.926.432-2.161.185-3.211-.247-1.05-.926-1.976-1.667-2.655-.741-.679-1.606-1.112-1.976-1.359-.371-.247-.247-.247 2.285-.432 2.531-.185 7.595-.556 10.929-.864 3.335-.309 5.002-.618 5.929-.803.926-.185 1.173-.371 1.296-.494.124-.124.124-.185-.185-.247-.37.185-1.111.123-4.261.37z" fill="#24231D"/><path fill-rule="evenodd" clip-rule="evenodd" d="M109.36 270.404c1.049-.062 1.914 1.297 2.037 3.026.124 1.729-.617 3.149-1.667 3.211-1.05.062-1.914-1.297-2.038-3.026-.061-1.729.68-3.149 1.668-3.211z" fill="#E8E4BE"/><path fill-rule="evenodd" clip-rule="evenodd" d="M68.851 234.342a211.92 211.92 0 01-5.928-.494c-1.976-.185-3.828-.371-5.001-.556-1.174-.123-1.668-.185-1.853-.247-.247-.062-.247-.062-.37.371-.124.432-.31 1.235-.618 3.705-.309 2.47-.74 6.669-.926 10.806-.185 4.137-.124 8.213.309 12.041.432 3.829 1.235 7.472 1.79 9.633.556 2.161.865 2.841 1.112 3.273.247.432.432.617 2.717 1.05 2.285.432 6.607 1.173 10.93 1.79 4.322.618 8.645 1.235 11.238 1.482 2.594.247 3.52.186 4.076-.061.555-.247.679-.618.802-1.544.124-.926.186-2.47.618-5.372.432-2.903 1.297-7.163 2.47-11.486 1.173-4.322 2.779-8.707 4.137-12.165 1.359-3.519 2.594-6.175 3.273-7.718.741-1.544.988-2.038 1.112-2.347.123-.309.123-.494.123-.556 0-.061-.062-.061-1.111-.123-.989-.062-2.965-.124-4.817-.185a234.907 234.907 0 01-5.805-.247 248.843 248.843 0 00-6.792-.309 434.316 434.316 0 01-5.928-.371c-1.914-.123-3.643-.247-5.558-.37z" fill="#36342B"/><path fill-rule="evenodd" clip-rule="evenodd" d="M58.91 237.368c1.852.247 5.063.741 9.941 1.173 4.94.432 11.548.864 15.623 1.111 4.076.186 5.496.186 6.916.186h3.335c.679 0 .679 0 .926-.556s.803-1.667 1.05-2.223l.247-.556-2.902-.123c-2.903-.124-8.77-.371-13.77-.68-5.003-.308-9.14-.617-12.907-.988-3.766-.37-7.224-.741-8.953-.926-1.73-.185-1.791-.185-1.791-.123 0 .061-.062.247-.124.802-.123.556-.247 1.482-.37 1.915-.062.432-.062.432-.062.494 0 0 .062.061.309.061.185.124.68.186 2.532.433zm6.977 2.531a802.834 802.834 0 01-7.965-.802c-1.668-.186-1.853-.247-1.915-.247-.123 0-.123 0-.185.555-.062.618-.247 1.791-.309 2.347-.061.617-.123.617.062.679.185.062.494.185 3.15.618 2.655.432 7.595 1.111 12.164 1.482 4.508.37 8.645.494 12.165.617 3.52.124 6.546.247 8.028.309 1.482.062 1.543 0 1.605 0 .062-.062.124-.062.37-.556.248-.494.68-1.482.927-2.038.247-.555.309-.802.247-.864 0-.124-.124-.124-.124-.124-.061 0-.061 0-1.173-.061-1.111-.062-3.396-.124-6.484-.309-3.087-.185-7.04-.432-10.559-.679-3.643-.371-6.854-.618-10.004-.927zm-10.867 5.002a34.957 34.957 0 00-.124 2.408c0 .556 0 .556 1.358.803 1.359.247 4.014.679 7.657 1.173 3.644.433 8.151.865 12.536 1.112 4.384.247 8.521.37 10.93.37 2.408 0 3.087-.061 3.458-.061.37-.062.37-.062.555-.68.247-.617.68-1.852.865-2.47.185-.679.185-.741.123-.741-.061-.061-.123-.061-1.729-.123-1.667-.062-4.816-.185-8.274-.309a212.67 212.67 0 01-11.239-.679c-4.137-.309-8.768-.803-11.485-1.173-2.717-.371-3.52-.618-3.952-.741-.432-.124-.494-.124-.494 0-.124.123-.185.37-.185 1.111zm-.062 5.743v2.717c0 .679.062.741.617.926.556.186 1.544.556 4.508.988 2.902.433 7.78.927 12.412 1.359 4.631.432 9.015.741 11.67.864 2.656.186 3.52.186 3.953.186.432 0 .432 0 .74-.803.31-.803.989-2.347 1.297-3.273.31-.926.37-1.173.31-1.297 0-.123-.063-.123-2.41-.185-2.346-.062-7.039-.185-11.732-.494a238.21 238.21 0 01-12.905-1.235c-3.52-.432-5.928-.864-7.163-1.05-1.236-.185-1.236-.247-1.297-.247v1.544zm1.42 15.438c.247 1.049.68 2.964.926 3.952.247.988.247 1.173.37 1.296.124.186.371.309 2.1.68 1.73.37 5.002.988 8.522 1.543 3.52.556 7.224 1.05 10.25 1.421 2.964.37 5.187.555 6.36.617 1.112.062 1.174 0 1.297-.741a84.26 84.26 0 00.247-3.273c.124-1.235.186-2.408.247-2.964 0-.555-.061-.555-3.334-.926-3.273-.37-9.819-1.173-14.944-1.791-5.125-.679-8.768-1.173-10.559-1.42-1.852-.247-1.79-.123-1.729 0-.123.247 0 .556.247 1.606z" fill="#4F4D3E"/><path fill-rule="evenodd" clip-rule="evenodd" d="M67.555 241.443v3.396c0 .803.061.865.308 1.05.247.185.741.618.988.803.247.185.31.185.433.185.061 0 .185 0 .555-.123.37-.124 1.05-.371 1.359-.556.309-.185.309-.247.309-.494s-.062-.556.061-1.112a8.51 8.51 0 01.68-1.852c.308-.556.617-.988.864-1.297.247-.309.433-.432.494-.556.062-.123 0-.123-.247-.555-.308-.433-.802-1.235-1.05-1.606-.247-.37-.246-.37-.74-.37-.495 0-1.42-.124-1.915-.124-.556 0-.617.062-.68.124-.06.061-.06.061-.246.308-.185.247-.618.741-.865.988-.185.247-.185.247-.185.371-.123.247-.123.494-.123 1.42zm95.218-7.719c0 .494 0 1.297.062 1.853 0 .556.062.803.247.926.185.186.556.247 1.297.185a21.368 21.368 0 002.779-.432c.802-.185 1.173-.37 1.42-.679.247-.309.309-.741.247-1.42 0-.679-.062-1.544-.185-1.976-.124-.433-.247-.433-.68-.371-.432.062-1.235.185-2.099.371-.926.185-1.976.37-2.47.617-.494.247-.618.432-.618.926z" fill="#E6E6E6"/><path fill-rule="evenodd" clip-rule="evenodd" d="M346.357 132.825l-114.67-17.29v128.687l114.361-12.597.309-98.8z" fill="#737160"/><path fill-rule="evenodd" clip-rule="evenodd" d="M231.687 115.535l114.67 17.29-74.1 6.607-40.57-5.99v-17.907zm0 128.687l114.361-12.597-73.544-10.621-40.817 2.285v20.933z" fill="#36342B"/><path fill-rule="evenodd" clip-rule="evenodd" d="M231.687 133.442l40.878 5.99-.494 81.634-40.384 2.223v-89.847z" fill="#4F4D3E"/><path fill-rule="evenodd" clip-rule="evenodd" d="M231.687 242.555V118.499l111.15 15.993-.123 96.639-111.027 11.424z" fill="#DBA758"/><path fill-rule="evenodd" clip-rule="evenodd" d="M342.837 134.492l-38.903-5.558-.247 54.34 39.088 1.482.062-50.264zm-.062 51.129v1.791l-.062 43.719-39.026 4.014v-50.45l39.088.926zm-63.602-60.268l23.279 3.334-.432 76.015-23.094.556.247-79.905zm-20.81 82.128v32.357l43.472-4.261.185-29.208-43.657 1.112zm-26.676-53.229v-35.753l46.251 6.669-.062 33.653-46.189-4.569zm0 1.112l46.189 4.384-.556 45.757-45.633.617v-50.758zm0 52.734l25.379-.803-.123 32.666-25.256 2.594v-34.457z" fill="#F7CE66"/><path fill-rule="evenodd" clip-rule="evenodd" d="M326.288 132.145l-2.902-.432-3.211-.432v30.257l6.113.371v-29.764zm16.487 76.447v-6.422l-25.132.185v6.916l25.132-.679zm-40.57-43.287v4.261l-23.156-1.297v-4.693l23.156 1.729zm-46.374-43.348l-5.743-.803.556 23.835 5.372.556-.185-23.588zm4.816 40.816l14.203 1.359v10.991l-14.264-.988.061-11.362zm23.466 51.871l7.471 9.447-6.73 6.361-7.657-9.263 6.916-6.545zm-39.335-2.409l10.065-.802v7.78l-10.127 1.05.062-8.028zm48.535-81.016l8.213 1.173v5.496l-8.275-.988.062-5.681zm36.124 40.261l11.239.679v8.707l-11.362-.37.123-9.016z" fill="#F7F7F7"/></g><defs><clipPath id="clip0_601_12302"><path fill="#fff" d="M0 0h350v323.509H0z"/></clipPath></defs></svg>