<svg width="330" height="305" fill="none" xmlns="http://www.w3.org/2000/svg"><g clip-path="url(#clip0_2_20177)"><path fill-rule="evenodd" clip-rule="evenodd" d="M33.71 255.173c-7.918 2.905-22.066 5.404-28.936 9.47-6.87 4.126-6.346 9.819 1.688 12.608 8.035 2.731 23.638 2.498 33.652 2.963 10.073.465 14.614 1.685 16.186 3.719 1.572 2.033.117 4.88 0 7.436-.116 2.499 1.106 4.648 4.25 6.798 3.202 2.15 8.326 4.299 14.323 5.287 5.996.93 12.808.697 28.703.813 15.894.117 40.813.581 60.609-1.917 19.795-2.498 34.409-8.018 40.522-11.504 6.113-3.486 3.726-4.88 2.969-7.204-.698-2.266.233-5.403 3.493-7.437 3.261-2.033 8.734-2.963 17.001-4.067 8.268-1.104 19.272-2.266 32.488-3.369 13.158-1.104 28.528-2.034 38.251-3.486 9.723-1.453 13.799-3.37 15.72-7.263 1.922-3.893 1.747-9.761-5.181-13.014-6.929-3.254-20.611-4.009-35.923-5.636-15.312-1.685-32.197-4.299-45.646-5.752-13.449-1.452-23.463-1.801-46.053-1.917-22.59-.116-57.756 0-81.569 0-23.754 0-36.155-.174-43.491 2.092-7.278 2.382-9.607 7.03-11.528 11.039-1.98 4.008-3.668 7.436-11.528 10.341z" fill="#E6E6E6"/><path fill-rule="evenodd" clip-rule="evenodd" d="M81.336 2.208C64.8 4.067 34.234 7.669 18.922 9.47L3.61 11.271l-.117 40.263c-.058 40.263-.232 120.731-.29 160.994l-.117 40.263 16.593 1.278c16.593 1.279 49.838 3.835 66.43 5.113l16.594 1.278V0l-1.223.058c-1.164.116-3.668.232-20.144 2.15z" fill="#CCC"/><path fill-rule="evenodd" clip-rule="evenodd" d="M102.761 56.821V0l11.295 2.556c11.295 2.557 33.885 7.67 45.238 10.226l11.295 2.556.233 38.81c.233 38.811.64 116.49.873 155.301l.233 38.81-11.528 2.034c-11.528 2.033-34.525 6.1-46.053 8.134l-11.528 2.033v-40.088c0-40.089-.058-120.15-.058-163.55z" fill="#B3B3B3"/><path fill-rule="evenodd" clip-rule="evenodd" d="M170.996 82.153c-.174-26.494-.232-46.654-.291-56.705l-.116-10.11h116.385l-.175 38.869c-.174 38.869-.466 116.664-.64 155.591l-.175 38.868-19.038-.058c-19.039-.058-57.058-.232-76.096-.29l-19.038-.059-.059-12.317c-.058-12.317-.233-37.009-.349-65.768-.116-28.76-.291-61.528-.408-88.021z" fill="#CCC"/><path fill-rule="evenodd" clip-rule="evenodd" d="M83.14 12.492c-15.137 1.742-43.083 5.054-57.056 6.68L12.11 20.859l-.058 37.01c-.058 37.009-.233 111.027-.35 148.037l-.057 37.009 15.195 1.162c15.196 1.162 45.588 3.544 60.784 4.706l15.196 1.162V10.458l-1.107.058c-1.164.116-3.435.232-18.572 1.976z" fill="#E6E6E6"/><path fill-rule="evenodd" clip-rule="evenodd" d="M102.761 62.69V10.34l11.178 2.383a12292.87 12292.87 0 0044.773 9.412l11.178 2.382.233 35.79c.233 35.789.641 107.309.873 143.099l.233 35.789-11.411 1.859c-11.412 1.859-34.234 5.636-45.646 7.495l-11.411 1.859V62.69z" fill="#CCC"/><path fill-rule="evenodd" clip-rule="evenodd" d="M170.938 86.046c-.116-24.402-.233-42.936-.291-52.232l-.058-9.296h105.789l-.175 35.847a116444.5 116444.5 0 00-.582 143.274l-.175 35.847-17.292-.058c-17.292-.058-51.875-.232-69.167-.29l-17.292-.058-.058-11.388c-.058-11.387-.175-34.104-.349-60.54-.059-26.551-.233-56.763-.35-81.106z" fill="#E6E6E6"/><path d="M276.319 221.708l-2.387.465s-.64 1.917-2.387 1.917c-1.688 0-4.483 0-4.25-1.162.291-1.162-.233-4.125-.233-4.125l-1.048-.465-1.863-2.208-1.688-.464-2.795-.465-.641-3.08-2.096-4.241s0-4.88-.523-4.88c-.524 0-.932-4.241-5.706-5.578-4.774-1.336-6.87.116-7.685.116-.757 0-3.436.756-3.843 2.499-.408 1.743 1.223 1.162 1.223 1.162l.232 2.324s-2.387 2.091-2.62 3.37c-.291 1.336-1.688 4.241-1.455 4.822.291.581-.64 2.789-2.212 3.253-1.223.349-2.795-.116-4.309-.639l-1.397-.523c-1.863-.755-3.319.291-3.959-.464-.699-.756-1.456-2.034-3.319.29s-4.774 3.544-8.093 3.544c-3.318 0-6.579-.871-7.103-2.324-.524-1.452-2.096-1.162-2.096-1.162s-.931-2.963-3.551-2.324c-2.62.581-6.87 2.498-8.559.116-5.764-7.843-.815-3.195-10.305-8.54-3.319 3.834-2.62 6.739-2.096 7.611.524.871-.233 4.125-1.456 3.951-1.222-.117-3.144-1.918-4.774-1.337a3.29 3.29 0 01-1.513.175V25.68a33.5 33.5 0 016.171-.93c.932-.058 1.63-.232 2.212-.523h41.454c1.514 3.254 2.213 6.973.058 9.878-4.424 5.867-12.867 13.885-11.819 15.454 1.048 1.569 5.124 1.162 9.316 1.975 4.25.756 15.312.349 17.466 3.719 2.096 3.311 12.169 7.843 12.169 3.544 0-4.3-1.048-7.263 7.045-3.312 8.092 3.95 8.966 5.694 7.918 8.599-1.048 2.963-2.096 5.694-.524 8.599 1.572 2.963 6.171 12.898 7.568 5.46 1.398-7.436.524-8.83 4.251-5.693.349.29.815.581 1.281.814v148.444h-.059zm-7.219 17.546c-.408-.755-1.048-2.208-.699-2.673.524-.581 2.387-2.788 3.726-1.743 1.339 1.046 1.456 1.337 2.62-1.162.524-1.103 1.107-2.265 1.572-3.253v8.889H269.1v-.058z" fill="#B3B3B3"/><path d="M171.87 213.574c-1.223.058-2.503-.523-2.969-1.743-.117-.349-4.658-1.394-5.648-1.627l-8.209 7.611c-12.576 3.777-22.706-5.635-29.751-13.072-.408-.349-4.076-3.719-4.076-3.719s-.407-1.103.117-1.626c.524-.465 2.27-2.789-.932-.465-13.624 9.877-14.788-3.138-14.904-3.138-.524.059-1.048.872-2.504.756h-.175V68.906c.524-.407 1.223-.523 2.155-.407 2.852.407 7.394 1.046 5.822 8.89-1.572 7.843.698 8.366.524 12.084-.175 3.719-1.398 17.023.349 16.791 1.747-.232 4.774 1.162 3.843-4.997-.874-6.158-2.096-18.533 1.921-21.787 4.075-3.253 9.49-8.424 10.946-7.61 1.397.813 4.948 5.286 6.695 5.054 1.805-.233 3.028-1.918 1.397-4.3-1.572-2.382-5.472-9.121-4.599-11.736.873-2.672 15.545-3.892 16.768-6.972 1.222-3.079-4.25-5.345-1.048-10.05 3.144-4.707 7.219-11.272 11.819-11.853 4.599-.581 6.171-3.138 8.442-4.358 1.048-.58 2.445-1.22 4.017-1.8v187.719z" fill="#999"/><path d="M11.993 92.553c.932.755 1.921 1.743 3.028 3.02 3.842 4.533 10.188 7.496 10.305 11.505.116 4.008.931 4.764-1.863 7.436-2.795 2.673-4.367 3.835-10.422.117-.35-.233-.699-.407-1.048-.64V92.553zm90.768 100.221c-7.918-2.324-15.313 6.333-23.405 3.544-2.213 4.067 4.6 4.939-2.096 9.296-1.165.756-.524 1.86-.524 1.86s1.572.581 2.503 1.743c.932 1.103 1.863 4.125.117 3.95-2.213-.232-8.792-2.847-11.994-2.614-3.843.29-27.015-10.109-26.49 5.694-.117.348 5.996 2.207 6.17 6.449.175 4.648-5.705 8.366-5.589 12.782.058 1.278 1.223 3.079 1.34 5.229.174 3.021-2.62 4.415-6.754 4.183-2.154-.988-3.785-3.719-10.306-4.997-7.568-1.51-11.411-8.076-9.839-10.981 1.164-2.149 2.62-4.357 3.086-4.59.465-.232 2.561-1.22.465-1.452-1.688-.174-3.61-.407-1.222-2.789.582-.581 2.329-.348 3.26-.232 5.124.639 4.367-8.657-1.63-10.632-3.319-1.104-5.939-2.963-7.802-4.765v-73.844c.757.697 1.572 1.22 2.096 1.336 1.456.291 3.144.465 2.795-1.046-.408-1.51-1.98-2.672-3.027-4.706-1.048-2.033-.408-4.009 2.096-1.975 2.503 2.033 8.85 4.299 7.394 1.336-1.456-2.963-3.028-3.834-1.456-5.171 1.572-1.278 5.59-7.378 8.21-5.635 2.62 1.743 4.25 2.324 4.25.174 0-.988-.35-2.208-.7-3.602-.465-1.801-.873-3.893-.581-5.984.524-3.661 2.445-7.379 3.551-6.507 1.048.871 5.997 5.693 3.726 6.855-1.863.93-3.202 3.544-2.387 5.229.175.349.408.639.757.872 2.096 1.394 1.048 1.685 5.473-3.777 4.425-5.403 10.77-11.039 15.021-8.25 4.25 2.789 4.774 1.453 7.918 1.394 3.144-.058 6.346.059 9.316-1.045 3.027-1.046 1.397-6.1-.35-7.263-1.805-1.162 0-2.963 3.726-.813 3.727 2.15 8.617 3.253 11.82 7.495 3.144 4.241 5.647 7.436 6.695 7.494 1.048.117 4.425-.348 1.048-5.751-3.377-5.404-5.997-11.795-4.949-14.583 1.048-2.847 4.076-9.006 5.648-14.874.349-1.394.698-2.556.989-3.486l1.747.174v124.275h-.116z" fill="#B3B3B3"/><path fill-rule="evenodd" clip-rule="evenodd" d="M218.098 23.472c4.891 0 8.85 3.95 8.85 8.831 0 4.88-3.959 8.831-8.85 8.831-4.89 0-8.849-3.95-8.849-8.83 0-4.881 3.959-8.832 8.849-8.832zm-13.74 23.066c2.271 5.693 6.637 12.84 9.083 16.674 2.445 3.835 3.027 4.416 3.318 4.706.291.29.291.29 2.562-2.556 5.939-7.379 11.586-15.396 14.322-24.692 3.144-10.633-.116-24.809-15.603-24.809-10.363 0-15.312 6.681-16.477 13.944-.873 5.752.757 11.562 2.795 16.733z" fill="#999"/><path fill-rule="evenodd" clip-rule="evenodd" d="M215.304 23.472c4.89 0 8.849 3.95 8.849 8.831 0 4.88-3.959 8.831-8.849 8.831-4.891 0-8.85-3.95-8.85-8.83 0-4.881 3.959-8.832 8.85-8.832zm-13.682 23.066c2.27 5.693 6.637 12.84 9.082 16.674 2.445 3.835 3.028 4.416 3.319 4.706.291.29.291.29 2.561-2.556 5.939-7.379 11.587-15.396 14.323-24.692 3.144-10.633-.116-24.809-15.603-24.809-10.364 0-15.313 6.681-16.477 13.944-.932 5.752.699 11.562 2.795 16.733z" fill="#FDE742"/><path fill-rule="evenodd" clip-rule="evenodd" d="M46.869 66.234c6.928 0 12.517 5.577 12.517 12.49 0 6.915-5.589 12.492-12.517 12.492-6.929 0-12.518-5.577-12.518-12.491-.058-6.856 5.59-12.491 12.518-12.491zM27.48 98.885c3.26 8.076 9.374 18.128 12.867 23.589 3.493 5.461 4.308 6.275 4.716 6.681.407.407.407.407 3.61-3.602 8.384-10.458 16.36-21.787 20.26-34.918 4.484-15.047-.174-35.092-22.065-35.092-14.614 0-21.659 9.47-23.289 19.754-1.339 8.076.932 16.268 3.901 23.588z" fill="#999"/><path fill-rule="evenodd" clip-rule="evenodd" d="M42.909 66.234c6.928 0 12.517 5.577 12.517 12.49 0 6.915-5.589 12.492-12.517 12.492-6.928 0-12.518-5.577-12.518-12.491 0-6.856 5.59-12.491 12.518-12.491zM23.52 98.885c3.26 8.076 9.374 18.128 12.867 23.589 3.493 5.461 4.309 6.275 4.716 6.681.408.407.408.407 3.61-3.602 8.384-10.458 16.36-21.787 20.26-34.918 4.484-15.047-.174-35.092-22.065-35.092-14.614 0-21.659 9.47-23.289 19.754-1.28 8.076.932 16.268 3.901 23.588z" fill="#FDE742"/><path d="M43.608 135.14c.117 4.067.233 8.134.7 11.503.465 3.37 1.338 5.985 2.619 8.018 1.34 2.034 3.144 3.486 6.754 4.241 3.668.756 9.14.872 15.545.233 6.346-.639 13.566-2.092 18.922-2.615 5.415-.523 8.966-.174 11.12.407s2.795 1.452 4.716 3.486c1.922 2.033 5.065 5.287 8.268 7.437 3.202 2.149 6.462 3.253 8.151-3.486 1.746-6.682 1.979-21.149 5.298-32.768 3.377-11.62 9.839-20.51 16.651-25.622 6.754-5.171 13.799-6.566 21.309-5.52 7.511 1.046 15.545 4.59 23.871 4.183 8.326-.406 17.001-4.706 21.833-10.341 4.833-5.636 5.764-12.55 6.754-19.522" stroke="#fff" stroke-width="2" stroke-miterlimit="22.926" stroke-linecap="round" stroke-dasharray="10 10"/><path fill-rule="evenodd" clip-rule="evenodd" d="M60.027 263.54c.058.929.174 2.091.873 3.718.699 1.627 1.921 3.602 3.377 5.171a14.215 14.215 0 004.832 3.428c1.747.755 3.552 1.162 5.531 1.336 1.98.174 4.076.174 5.939-.058 1.863-.233 3.435-.697 5.065-1.511 1.572-.813 3.144-1.975 4.425-3.253 1.28-1.278 2.212-2.615 2.678-3.312l.466-.697-5.59-1.162c-5.589-1.162-16.709-3.428-22.24-4.3-5.473-.813-5.415-.232-5.356.64z" fill="#403E32"/><path fill-rule="evenodd" clip-rule="evenodd" d="M65.092 264.527c.174.988.466 2.673 1.106 4.242.582 1.568 1.514 2.963 2.387 4.067.873 1.103 1.805 1.859 2.97 2.498a14.573 14.573 0 004.017 1.627c1.455.348 3.027.348 4.774.174 1.746-.174 3.61-.581 5.298-1.394 1.688-.814 3.144-2.034 4.192-3.022.99-.987 1.572-1.685 1.98-2.266.407-.581.698-.987.698-1.51s-.291-1.104-.931-1.685c-.64-.581-1.573-1.104-2.853-1.569-1.34-.465-3.028-.871-5.415-1.046-2.387-.174-5.473-.058-8.21-.29a36.853 36.853 0 01-6.695-1.046c-1.572-.406-2.27-.813-2.678-.871-.407-.058-.582.174-.64.465-.117.29-.175.639 0 1.626zm43.666 3.312c.873 1.569 3.784 4.532 7.219 6.391 3.435 1.859 7.511 2.731 10.131 3.195 2.62.523 3.784.698 4.599.175.757-.523 1.164-1.86 2.212-3.486 1.048-1.685 2.795-3.719 4.775-5.636 1.921-1.859 4.075-3.602 6.87-5.171 2.794-1.569 6.346-3.021 8.617-3.892 2.27-.872 3.376-1.104 5.007-1.279 1.63-.174 3.726-.29 5.24-.232 1.513.058 2.445.232 2.911.639.465.407.465.93.757 2.092.291 1.162.873 2.846 1.222 3.776.408.93.582 1.104 1.456 1.046.815 0 2.27-.233 3.435-.988 1.164-.755 1.979-2.033 2.329-3.079.349-1.046.349-1.859-.291-4.532-.583-2.614-1.747-7.088-2.446-10.748-.698-3.719-1.048-6.682-1.921-8.948-.873-2.265-2.329-3.718-4.25-5.287-1.922-1.568-4.309-3.137-7.977-4.125-3.668-.929-8.616-1.278-14.497-.174-5.88 1.104-12.634 3.544-17.117 6.217-4.483 2.672-6.695 5.519-8.384 9.005-1.688 3.544-2.794 7.785-4.134 11.678-1.339 3.951-2.794 7.611-4.133 9.528-1.339 2.092-2.504 2.266-1.63 3.835zm93.679-14.525c6.579-.349 19.562-2.15 26.898-3.195 7.336-1.046 9.141-1.279 10.771-1.569 1.63-.233 3.202-.523 4.6-.639 1.397-.116 2.736-.058 3.842 0 1.106.058 2.038.116 3.959.116 1.922 0 4.833-.058 11.528.232 6.754.291 17.35.988 23.114 1.453 5.764.465 6.696.813 7.161.929.466.175.524.175.641.059.058-.059.175-.233.349-1.86.175-1.626.35-4.648.466-6.274.058-1.627 0-1.86 0-1.86 0-.058.058.059 2.969.349 2.97.291 8.792.755 13.1 1.104 4.367.349 7.161.523 8.617.697 1.397.116 1.397.174 1.397-.988v-6.042l-3.202-.232-12.809-.93-3.202-.232.058-1.104c.059-1.104.233-3.254.291-4.358.059-1.104.059-1.162-1.164-1.278-1.223-.116-3.668-.348-4.891-.581-1.28-.232-1.397-.465-1.397-.929v-1.569c0-.465-.058-.639-.291-.93-.233-.232-.699-.581-2.911-.755-2.154-.174-6.055-.232-13.216-.232-7.162 0-17.583 0-27.248.29-9.665.349-18.573.988-26.258 2.092-7.685 1.104-14.206 2.672-18.165 4.125-3.901 1.452-5.298 2.788-6.288 4.706-.99 1.917-1.689 4.357-2.213 6.391-.524 2.033-.931 3.66-1.572 5.403-.582 1.801-1.397 3.718-1.63 5.287-.116 1.569.117 2.673 6.696 2.324z" fill="#24231D"/><path fill-rule="evenodd" clip-rule="evenodd" d="M214.663 253.721c4.6-.581 13.566-1.801 18.165-2.499 4.6-.697 4.833-.871 5.066-1.452.233-.581.407-1.511.466-2.673.058-1.162-.117-2.498-.233-3.718a26.723 26.723 0 00-.466-2.963c-.175-.813-.408-1.453-.815-1.743-.35-.291-.874-.174-4.192.174-3.261.349-9.316.93-14.148 1.569-4.832.639-8.5 1.336-10.247 1.627-1.747.29-1.688.116-1.688.465 0 .348-.117 1.278-.117 2.788 0 1.511.117 3.602.117 4.997 0 1.394-.059 1.975 0 2.614.058.581.174 1.162.465 1.453.291.29.757.348 1.165.29.466-.058.873-.232 1.222-.29.35-.058.641-.058 5.24-.639z" fill="#403E32"/><path fill-rule="evenodd" clip-rule="evenodd" d="M259.959 245.877c-.407 2.789-.349 5.868-.058 8.309.291 2.44.815 4.241 1.747 5.926.931 1.685 2.328 3.195 3.551 4.125a7.7 7.7 0 003.144 1.452c.815.175 1.281.117 2.387.117s2.795 0 3.668-.233c.873-.232.873-.639.873-1.278-.058-.639-.116-1.394-.757-4.067-.64-2.615-1.746-7.088-1.746-11.62 0-4.532 1.164-9.122 1.921-12.027.815-2.905 1.281-4.183.99-4.996-.291-.814-1.339-1.104-2.853-.814-1.514.291-3.493 1.104-4.949 1.918a15.734 15.734 0 00-3.26 2.382c-.874.871-1.689 1.859-2.504 3.602-.815 1.859-1.688 4.358-2.154 7.204z" fill="#24231D"/><path fill-rule="evenodd" clip-rule="evenodd" d="M266.131 239.661c-1.106 3.021-1.397 7.32-1.281 10.574.116 3.253.582 5.519 1.281 7.495.757 1.975 1.805 3.602 2.736 4.822.932 1.162 1.747 1.917 2.504 2.382.699.465 1.339.639 1.63.755.291.117.291.117.932.058.64 0 1.921-.058 2.736-.116.757 0 1.048 0 1.164-.174.117-.174.059-.465-.116-5.055s-.466-13.421-.64-18.708c-.117-5.287-.117-6.972-.175-8.25-.058-1.278-.233-2.15-.699-2.498-.407-.349-1.106-.291-1.979.174-.932.407-2.038 1.162-3.552 2.44-1.572 1.22-3.435 3.08-4.541 6.101z" fill="#36342B"/><path fill-rule="evenodd" clip-rule="evenodd" d="M277.95 232.224c-1.455.465-2.969 1.569-4.366 3.776-1.398 2.208-2.62 5.636-3.261 9.296-.64 3.719-.64 7.786-.116 10.749.465 2.963 1.455 4.88 2.387 6.332.931 1.395 1.805 2.324 2.445 2.789.641.465 1.106.465 2.154.523.99.058 2.562.233 3.494.291.931.058 1.222-.058 1.804-.175.641-.174 1.572-.406 2.737-1.685 1.164-1.278 2.562-3.544 3.551-7.669.99-4.183 1.631-10.225 1.514-14.118-.116-3.893-.873-5.636-1.747-6.856-.873-1.22-1.746-1.917-2.852-2.382-1.107-.464-2.387-.755-3.727-.987-1.164-.233-2.561-.349-4.017.116z" fill="#403E32"/><path fill-rule="evenodd" clip-rule="evenodd" d="M281.967 233.27c-1.339.581-2.504 1.685-3.61 3.253-1.048 1.569-2.038 3.661-2.678 5.694-.641 1.975-.932 3.893-1.048 5.81a37.064 37.064 0 00.116 5.694c.233 1.859.583 3.544 1.107 5.054.524 1.511 1.164 2.789 1.921 3.893.757 1.104 1.63 1.975 2.329 2.498.757.523 1.397.581 2.27.581.874-.058 1.98-.174 3.086-.813 1.165-.639 2.329-1.685 3.261-3.021.989-1.337 1.688-2.963 2.328-4.764a26.203 26.203 0 001.223-6.159c.175-2.266.058-4.764-.175-6.856-.232-2.091-.582-3.776-1.106-5.287-.524-1.51-1.281-2.847-2.154-3.834-.873-1.046-1.805-1.743-3.028-2.092-1.048-.29-2.503-.232-3.842.349z" fill="#403E32"/><path fill-rule="evenodd" clip-rule="evenodd" d="M287.964 239.951c-.408-.465-.699-.813-1.107-1.046-.349-.29-.757-.465-1.281-.581-.465-.116-1.048-.174-1.513-.116-.466.058-.815.174-1.339.523-.524.349-1.281.871-1.922 1.685-.698.871-1.339 2.033-1.805 3.428-.465 1.394-.756 3.021-.873 4.59-.116 1.568-.116 3.021.058 4.473.175 1.453.466 2.905.99 4.067.524 1.162 1.223 2.092 1.98 2.731.698.581 1.397.871 2.154.93.757.058 1.572-.117 2.27-.407.699-.349 1.34-.814 1.98-1.685.64-.872 1.339-2.15 1.863-3.486.524-1.336.932-2.731 1.048-4.416a21.301 21.301 0 00-.116-5.112 10.967 10.967 0 00-1.165-3.544c-.349-.872-.815-1.511-1.222-2.034z" fill="#4F4D3E"/><path fill-rule="evenodd" clip-rule="evenodd" d="M279.93 243.437c-.349.814-.582 1.685-.815 2.557-.233.871-.35 1.684-.408 2.73a23.568 23.568 0 00.058 3.486c.117 1.162.233 2.15.466 3.021.233.872.524 1.627.699 2.034.175.407.233.465.349.523.117.058.233.116.582-.058.35-.117.99-.465 1.689-1.22.698-.814 1.397-2.092 1.863-3.196.466-1.104.64-2.092.699-3.428.058-1.336 0-3.079-.292-4.473-.291-1.453-.931-2.615-1.455-3.37-.524-.756-.99-1.046-1.223-1.22-.233-.175-.233-.175-.349-.058-.175.116-.466.348-.757.813-.407.349-.815 1.046-1.106 1.859z" fill="#737160"/><path fill-rule="evenodd" clip-rule="evenodd" d="M279.231 226.704c-.349.814-.99 1.918-1.688 3.37-.757 1.453-1.631 3.312-2.096 5.578-.466 2.266-.524 4.996-.641 6.333-.116 1.394-.233 1.452-.64 1.452-.408 0-1.107 0-3.028-.116s-5.123-.407-7.219-.639c-2.096-.175-3.086-.291-3.552-.581-.466-.291-.407-.756-.407-1.511 0-.755-.059-1.859-.059-3.195 0-1.337 0-2.847.117-3.951.116-1.046.349-1.685.524-2.092.174-.406.291-.581.64-.871.35-.291.932-.581 1.747-1.395.815-.755 1.979-1.975 3.551-2.73 1.631-.756 3.785-1.104 5.823-1.337 2.037-.232 3.959-.348 5.181-.348 1.223 0 1.747.116 1.98.348.233.465.116.93-.233 1.685z" fill="#24231D"/><path fill-rule="evenodd" clip-rule="evenodd" d="M289.303 225.194c.349.407 1.106.93 1.921 1.917.815.988 1.572 2.382 2.271 4.59.699 2.208 1.281 5.171 1.63 6.74.349 1.568.408 1.685.582 1.743.117.058.291.116.35 0 .116-.117.116-.465.116-.93 0-.523-.116-1.22-.291-2.498-.175-1.278-.349-3.138-.873-5.055-.524-1.917-1.339-3.776-2.213-5.113-.873-1.278-1.805-1.975-2.387-2.266-.64-.29-.99-.174-1.164.059-.233.116-.35.406.058.813zm-11.237 1.569c-.466.581-1.106 1.568-1.805 3.137-.699 1.569-1.397 3.718-1.921 5.926s-.757 4.474-.874 5.752c-.116 1.278-.058 1.569.175 1.801.233.174.582.232.873.232.292-.058.466-.174.524-.987.059-.814.059-2.324.408-4.3.408-1.975 1.223-4.473 1.979-6.449a32.386 32.386 0 012.038-4.357c.524-.93.757-1.336.874-1.569.058-.232-.059-.29-.292-.29-.232 0-.582.116-.873.232-.349.116-.64.291-1.106.872z" fill="#4F4D3E"/><path fill-rule="evenodd" clip-rule="evenodd" d="M215.013 213.109v20.451l18.864-2.091c18.863-2.092 56.649-6.217 75.804-8.309 19.097-2.091 19.562-2.149 19.795-2.208l.233-.058v-1.51c0-1.511-.058-4.532 0-20.277.058-15.745.175-44.272.233-59.261.058-14.99.058-16.501.058-17.256v-.755l-19.155-2.905c-19.154-2.905-57.522-8.657-76.677-11.562l-19.155-2.905v108.646z" fill="#3D8C31"/><path fill-rule="evenodd" clip-rule="evenodd" d="M133.851 216.769c0 11.446.757 12.376 1.106 12.84.35.465.35.465 1.456.523 1.106.058 3.26.175 16.535.756 13.274.581 37.669 1.626 49.837 2.149l12.169.523V104.695l-13.449 1.918c-13.45 1.917-40.29 5.751-53.739 7.611l-13.449 1.917.116 7.262c.117 7.263.35 21.73.524 29.283.117 7.552.117 8.075-.174 19.347-.291 11.271-.99 33.291-.932 44.736z" fill="#4AAB3C"/><path fill-rule="evenodd" clip-rule="evenodd" d="M134.608 130.201c-.116-7.727-.174-10.923-.174-12.491v-1.627l1.63-.233c1.63-.232 4.949-.697 6.579-.929l1.63-.233.757 4.939c.757 4.938 2.271 14.873 4.774 20.916 2.504 6.1 5.997 8.366 13.74 9.354 7.744.988 19.738.697 27.83.697 8.151 0 12.46.407 14.789.93 2.329.522 2.678 1.336 3.144 3.195.465 1.859.931 4.822 1.572 13.828.582 9.005 1.281 24.111 1.513 35.963.292 11.795.117 20.335.059 24.576l-.059 4.242-12.401-.523c-12.401-.523-37.203-1.627-49.605-2.15-12.401-.523-12.401-.523-13.041-5.81-.641-5.287-1.922-15.803-2.562-21.09l-.64-5.287.174-6.042c.175-6.043.466-18.127.582-30.27 0-12.027-.174-24.228-.291-31.955z" fill="#509663"/><path fill-rule="evenodd" clip-rule="evenodd" d="M85.935 182.491c-4.949 5.229-8.326 8.308-10.713 10.458-2.387 2.149-3.842 3.369-5.53 4.647-1.69 1.337-3.61 2.731-6.638 5.113-3.027 2.382-7.22 5.752-9.607 8.018-2.387 2.266-3.027 3.312-3.202 3.776-.233.465-.058.407-.233 1.802-.174 1.394-.756 4.241-.99 5.693-.29 1.453-.29 1.453 7.395 2.324 7.627.93 22.94 2.731 32.43 2.905 9.49.175 13.157-1.336 16.592-2.208 3.435-.929 6.638-1.22 9.432-1.394 2.795-.174 5.066-.174 7.977-1.162 2.853-.988 6.288-3.021 11.586-7.785 5.298-4.823 12.576-12.375 21.076-21.613s18.34-20.161 24.628-26.203c6.288-6.043 9.024-7.146 13.158-7.786 4.134-.639 9.723-.697 11.993-1.22 2.271-.523 1.223-1.51.408-2.033-.815-.581-1.339-.697-6.637-.988-5.298-.29-15.313-.639-26.2-.581-10.887.058-22.59.581-31.614 1.104-8.966.523-15.196 1.046-19.737 1.569-4.542.523-7.395 1.046-9.258 1.452-1.863.407-2.678.639-3.435.93-.757.29-1.455.697-2.212 1.278-.757.581-1.572 1.336-5.298 5.345-3.843 3.951-10.422 11.33-15.37 16.559z" fill="#5DC94C"/><path fill-rule="evenodd" clip-rule="evenodd" d="M117.026 160.994c-2.969.29-5.997.697-8.151 1.046-2.154.348-3.319.581-4.192.929-.873.291-1.339.697-1.805 1.104-.466.407-.932.93-3.26 3.486-2.33 2.556-6.58 7.262-9.2 10.051-2.62 2.847-3.55 3.835-4.366 4.706-.815.872-1.572 1.627-2.736 3.021-1.223 1.395-2.912 3.428-4.309 5.055-1.397 1.627-2.445 2.905-3.144 3.951-.698 1.046-1.048 1.859-1.106 2.208-.058.406.117.406 3.493.464 3.377.059 9.898.059 18.98.233 9.083.116 20.669.29 28.471.407 7.802.116 11.819.116 13.857.116 2.037 0 2.154 0 2.853-.349.698-.348 1.921-1.046 4.017-2.789s5.065-4.589 8.675-8.947c3.551-4.357 7.743-10.284 10.945-14.699 3.203-4.416 5.357-7.263 6.463-8.947 1.106-1.685 1.106-2.15.64-2.383-.465-.232-1.397-.116-5.996-.116-4.542 0-12.751-.058-20.203.058-7.511.117-14.381.407-19.213.698-4.891.232-7.744.406-10.713.697z" fill="#403E32"/><path fill-rule="evenodd" clip-rule="evenodd" d="M83.781 194.401c4.308.116 12.518.349 20.843.465 8.326.116 16.826.116 22.94.174 6.113 0 9.781.058 11.819.058 2.037 0 2.445 0 2.852-.116.35-.116.699-.348 1.34-.813.64-.465 1.513-1.162 2.852-2.324 1.34-1.162 3.028-2.847 5.124-5.055 2.038-2.208 4.367-4.938 6.987-8.192a321.808 321.808 0 007.51-9.935 154.623 154.623 0 004.134-5.868c.698-1.046.64-1.162.582-1.22-.058-.058-.175-.116-1.63-.174-1.456 0-4.25 0-9.199-.117-4.949-.058-12.11-.174-19.97-.116-7.86.116-16.477.465-21.95.755-5.473.291-7.801.581-9.664.814-1.864.232-3.261.407-4.425 1.104-1.165.697-2.155 1.859-3.086 2.963-.932 1.162-1.863 2.266-5.124 5.868-3.26 3.66-8.966 9.761-12.284 13.595-3.319 3.835-4.367 5.287-4.891 6.159-.524.871-.524 1.104-.466 1.278.117.174.291.232.582.349.35.174.816.232 5.124.348z" fill="#E6E6E6"/><path fill-rule="evenodd" clip-rule="evenodd" d="M88.148 186.906c3.202-3.893 8.733-10.632 11.994-14.467 3.26-3.834 4.308-4.706 5.181-5.287.874-.581 1.514-.929 4.6-1.162 3.086-.29 8.558-.523 15.603-.581 7.045-.058 15.604.175 20.145.175s5.065-.175 5.356-.349c.291-.174.35-.349.175-.523-.175-.174-.582-.407-.873-.581-.233-.232-.35-.407-.059-.639.291-.232.932-.407 3.086-.465 2.096-.058 5.706 0 7.685 0 1.98 0 2.446 0 2.679-.174.291-.174.407-.523.232-.697-.174-.175-.582-.233-3.26-.291a677.434 677.434 0 00-13.333-.116c-5.764 0-12.459.116-17.99.291-5.531.174-9.84.348-13.042.581a95.09 95.09 0 00-7.161.639c-1.863.232-3.552.464-4.541.871-1.048.407-1.456.93-5.299 5.403-3.842 4.474-11.003 12.898-14.73 17.488-3.668 4.532-3.842 5.229-3.435 5.578.35.348 1.223.348 2.096-.174.874-.639 1.747-1.627 4.89-5.52z" fill="#FDE742"/><path fill-rule="evenodd" clip-rule="evenodd" d="M210.53 207.415c.465 12.782.291 26.087.233 32.71-.059 6.624-.059 6.624 0 6.972l.232 1.395c.059.348.059.348.059 1.51s-.059 3.428-.175 4.997c-.058 1.51-.175 2.324-.349 2.789-.117.523-.35.755-.524.929-.175.175-.35.349-3.61.988s-9.607 1.801-15.778 2.847c-6.172 1.046-12.052 2.091-15.487 2.556-3.377.465-4.25.407-4.658.407-.407 0-.407 0-.407-1.162s0-3.486-.175-5.752a47.101 47.101 0 00-.932-6.333c-.407-1.859-.873-3.312-1.513-5.054-.641-1.743-1.456-3.777-2.911-5.636-1.456-1.859-3.494-3.428-5.59-4.416-2.096-.929-4.308-1.22-6.521-1.046-2.212.117-4.483.64-6.52 1.627-2.038.988-3.901 2.382-5.066 3.428-1.164 1.046-1.688 1.743-1.921 2.034-.233.348-.233.348-.407.29-.175-.058-.466-.174-5.24-2.847-4.775-2.73-14.032-8.017-18.864-10.806-4.833-2.789-5.24-3.021-4.017-3.893 1.222-.871 4.133-2.324 5.647-3.137 1.514-.814 1.572-.988 2.853-1.976 1.281-.987 3.842-2.73 8.093-5.926 4.25-3.195 10.188-7.901 14.613-11.504 4.425-3.66 7.336-6.216 9.141-8.017 1.863-1.743 2.62-2.673 5.589-6.624 2.97-3.892 8.151-10.806 11.994-15.919 3.784-5.113 6.23-8.424 8.209-10.865 1.98-2.44 3.494-3.95 5.066-4.764 1.571-.871 3.26-1.045 7.103-1.104 3.842-.058 9.897 0 13.099.059 3.203 0 3.61 0 3.959.058.292.058.524.29.757 1.045.175.756.35 2.034.583 4.242.232 2.207.582 5.345 1.222 13.13.815 7.611 1.805 19.986 2.213 32.768z" fill="#4AAB3C"/><path fill-rule="evenodd" clip-rule="evenodd" d="M138.801 227.169c-1.747 1.104-3.377 2.266-5.007 3.719-1.631 1.452-3.203 3.137-4.018 4.009-.815.871-.815.871-.698.929.058.058.232.174 1.513.814 1.281.639 3.668 1.859 4.891 2.498l1.164.581.466-.465c.466-.465 1.397-1.452 2.911-2.673 1.514-1.22 3.668-2.73 6.23-3.718 2.562-.988 5.473-1.452 8.209-1.394 2.737.058 5.24.639 7.685 1.917 2.446 1.278 4.891 3.37 6.463 4.997 1.572 1.684 2.329 2.963 2.853 3.602.524.697.815.697.815-.291 0-.987-.349-3.021-1.223-5.403-.873-2.324-2.212-4.997-4.017-6.972-1.805-1.975-4.075-3.312-6.521-4.299a25.237 25.237 0 00-7.86-1.627c-2.736-.116-5.589.232-7.918.929-2.387.756-4.25 1.743-5.938 2.847z" fill="#5DC94C"/><path fill-rule="evenodd" clip-rule="evenodd" d="M180.428 159.774c-.989.464-1.863 1.104-2.678 1.801-.815.697-1.455 1.452-2.387 2.556-.931 1.162-2.096 2.673-3.377 4.299-1.222 1.569-2.503 3.196-3.144 4.067-.64.872-.64 1.046-.582 1.104.058.058.117.058 1.397-1.568 1.281-1.627 3.785-4.881 5.532-6.972 1.746-2.034 2.678-2.905 3.668-3.544.989-.639 1.979-1.162 3.143-1.511 1.165-.349 2.562-.523 4.542-.697 1.979-.174 4.599-.291 7.219-.349 2.62-.058 5.182 0 6.638 0 1.455.058 1.688.116 1.921.233.174.116.291.29.407.406.059.117.117.233.175.117a.936.936 0 000-.698c-.116-.29-.408-.639-1.339-.813-.932-.174-2.445-.232-5.589-.116-3.144.058-7.802.232-10.655.523-2.911.348-3.959.639-4.891 1.162z" fill="#3D8C31"/><path fill-rule="evenodd" clip-rule="evenodd" d="M166.805 204.859c-7.802 2.092-13.507 3.602-16.943 4.474-3.435.871-4.599 1.045-5.298 1.162-.698.116-.931.116-2.037 1.394-1.165 1.278-3.203 3.718-4.484 5.345-1.28 1.627-1.746 2.382-1.921 2.963-.233.581-.175 1.046.175 1.453.349.348.931.639 1.979.523.99-.117 2.387-.523 7.453-2.266 5.123-1.743 13.915-4.764 22.823-8.018a892.836 892.836 0 0023.055-8.657c5.182-2.033 6.638-2.672 7.686-3.253s1.746-1.104 2.27-1.86c.466-.755.757-1.801.932-2.672.174-.872.233-1.627.174-6.507-.116-4.881-.407-14.002-.698-18.883-.291-4.938-.641-5.635-.932-6.1-.291-.465-.582-.581-.815-.639-.233-.058-.349.058-.349.29 0 .233.174.756.291 1.859.116 1.162.233 2.964.233 7.612 0 4.647 0 12.142-.117 16.093-.058 3.893-.116 4.241-.465 4.88-.291.581-.815 1.511-1.747 2.092-.932.581-2.271.93-7.918 2.44-5.589 1.453-15.545 4.183-23.347 6.275z" fill="#509663"/><path fill-rule="evenodd" clip-rule="evenodd" d="M191.49 161.982c-2.154.116-4.192.174-5.88.348-1.63.175-2.853.349-3.901.756-1.106.348-2.038.871-3.144 1.743-1.106.871-2.27 2.149-6.113 7.088-3.784 4.938-10.189 13.653-15.371 20.335-5.181 6.739-9.14 11.503-11.178 14.002-2.096 2.498-2.271 2.73-2.213 3.079.059.348.466.755.641.929.175.233.175.233 1.747-.174 1.513-.349 4.599-1.104 7.044-1.685 2.446-.581 4.192-1.046 6.754-1.743 2.504-.697 5.822-1.568 9.257-2.498 3.435-.93 7.045-1.917 10.597-2.847 3.551-.93 6.986-1.917 9.082-2.44 2.038-.581 2.678-.755 3.377-.93a45.14 45.14 0 002.271-.639c.757-.232 1.397-.407 1.979-.581.582-.174 1.048-.407 1.398-.581.349-.174.582-.348.815-.523.233-.174.349-.348.582-.581.175-.232.466-.581.64-.929.175-.349.291-.639.35-1.046.058-.407.058-.93.116-1.917 0-.988.058-2.324.058-6.275v-13.886c0-3.544-.058-4.183-.116-4.822-.058-.639-.117-1.22-.233-1.743-.058-.523-.116-.872-.233-1.22-.116-.349-.291-.639-.582-.872-.291-.232-.699-.465-1.98-.523-1.397 0-3.609.117-5.764.175z" fill="#403E32"/><path fill-rule="evenodd" clip-rule="evenodd" d="M177.168 170.464c0-2.382 0-2.498-.117-2.556a.359.359 0 00-.407.058c-.175.116-.291.29-2.154 2.731-1.863 2.44-5.357 7.146-7.162 9.528-1.804 2.382-1.804 2.44-1.746 5.752.058 3.311.291 9.819.407 13.13.117 3.312.175 3.486.233 3.602.058.117.117.117 1.922-.348 1.804-.465 5.298-1.395 7.103-1.859 1.804-.465 1.921-.523 1.979-.523.058 0 .058 0 0-3.021a864.963 864.963 0 01-.116-14.235c0-5.345 0-9.935.058-12.259zm2.504 27.191v2.324l2.445-.64c2.445-.639 7.394-1.975 10.305-2.73 2.853-.814 3.61-1.104 4.25-1.395.582-.29 1.048-.639 1.398-1.104.349-.522.64-1.22.756-2.382.117-1.162 0-2.846-.058-7.03-.116-4.183-.233-10.864-.349-14.466-.117-3.603-.175-4.184-.349-4.765-.175-.581-.466-1.162-.874-1.51-.407-.349-.931-.465-2.27-.523-1.34-.058-3.494 0-5.706.116-2.213.058-4.483.174-5.881.291-1.397.116-1.863.29-2.328.581-.524.29-1.048.697-1.339.929-.292.233-.292.233-.233 3.66.058 3.428.116 10.342.174 16.094 0 5.694.059 10.284.059 12.55z" fill="#E6E6E6"/><path fill-rule="evenodd" clip-rule="evenodd" d="M166.514 187.197c-.524.232-.815.523-.99 1.394-.116.814-.116 2.15-.116 2.847 0 .697 0 .697-.291.639a31.724 31.724 0 01-1.281-.29c-.408-.116-.699-.233-.99-.233-.233 0-.466 0-.699.233-.232.174-.465.523-.64.929-.175.407-.233.93-.175 1.337.059.406.175.697.408.871.175.174.407.291 1.106.349.699.058 1.805.058 2.387.058h.582l.059.929c.058.93.116 2.847.116 3.777.058.929.058.929-.233.929-.233 0-.757 0-1.164-.058-.408 0-.641 0-1.048.117-.35.116-.874.348-1.165.639-.349.29-.524.639-.582.987-.058.349.058.639.117.872.116.232.174.29.349.407.175.058.349.174.99.174.64 0 1.63-.058 2.212-.058h.582l.117.232c.116.233.291.755.757 1.336.407.64 1.048 1.395 1.863 1.86.815.464 1.746.697 3.027.697 1.281 0 2.853-.174 4.018-.407 1.164-.232 1.921-.581 2.503-.988.582-.406.932-.929 1.048-1.452.175-.523.175-1.104.117-3.312-.059-2.208-.117-6.158-.233-8.657-.117-2.498-.233-3.486-.524-4.241-.291-.755-.757-1.22-1.456-1.569-.699-.348-1.747-.464-3.26-.581-1.514-.116-3.552-.116-4.949-.058-1.339-.058-2.038.058-2.562.291z" fill="#4F4D3E"/><path fill-rule="evenodd" clip-rule="evenodd" d="M177.517 190.683c.233 1.104.408 3.021.466 5.635.117 2.557.117 5.81 0 7.611-.058 1.802-.233 2.092-1.106 2.324-.815.233-2.329.465-3.726.523-1.398.058-2.62 0-3.552-.29-.931-.233-1.572-.697-2.038-.988-.465-.29-.756-.465-.989-.988-.233-.522-.35-1.394-.524-3.544a435.126 435.126 0 01-.524-7.436c-.117-1.918-.117-2.266-.117-2.673 0-.407 0-.755.175-1.104.116-.348.407-.697.931-.871.524-.233 1.281-.349 2.446-.407 1.164-.058 2.794 0 4.133.116 1.398.116 2.562.233 3.261.465.699.232.931.523 1.164 1.627z" fill="#24231D"/><path fill-rule="evenodd" clip-rule="evenodd" d="M196.207 203.755c-.349.523-.99 1.394-1.397 1.975-.35.581-.466.872-.466 1.162 0 .291.058.581.349 1.162s.815 1.395 1.165 1.976c.349.581.582.871.698 1.046.117.174.175.232 1.281.29 1.106 0 3.26 0 4.367-.058 1.164-.058 1.281-.174 1.513-.697.233-.523.641-1.511.874-2.208.233-.697.291-1.104.291-1.336 0-.233 0-.291-.408-.93-.407-.639-1.164-1.859-1.63-2.556-.466-.639-.582-.697-1.572-.697-.99 0-2.795.058-3.726.174-.99.058-.99.174-1.339.697z" fill="#4F4D3E"/><path fill-rule="evenodd" clip-rule="evenodd" d="M197.604 204.685c-.233.348-.641.929-.815 1.22-.175.29-.117.348.989.407h5.415s-.058-.059-.291-.465a67.389 67.389 0 01-.99-1.453c-.233-.348-.233-.348-.873-.348-.582 0-1.805 0-2.387.058-.583 0-.641.058-.641.116-.116.058-.174.174-.407.465zm-.99 4.067c.233.348.757.987.99 1.336.291.349.349.407.932.407.582 0 1.746 0 2.328-.058.583 0 .583 0 .874-.407.291-.349.815-1.104 1.106-1.453.291-.406.291-.406.291-.464v-.059h-1.223c-1.106 0-3.318 0-4.424.059-1.107 0-1.107 0-1.107.058v.116c-.058.058 0 .116.233.465z" fill="#24231D"/><path fill-rule="evenodd" clip-rule="evenodd" d="M185.436 236.523c5.181-.581 15.312-1.743 20.377-2.324l5.065-.581v-3.776l-2.852.29c-2.853.291-8.559.93-13.566 1.453-5.007.523-9.374.987-11.586 1.22-2.213.232-2.271.348-2.504.929-.233.581-.698 1.569-.873 2.208-.233.639-.233.814-.175.93.059.116.291.174.466.174.233.058.466.058 5.648-.523z" fill="#5DC94C"/><path fill-rule="evenodd" clip-rule="evenodd" d="M199.525 212.935c-2.561.465-5.181 1.162-7.569 2.324-2.387 1.22-4.599 2.963-6.462 5.055-1.921 2.091-3.493 4.415-4.774 6.681-1.281 2.266-2.155 4.357-2.62 5.461-.466 1.104-.466 1.162-.233 1.162.175 0 .582-.116.931-.232.35-.116.583-.232.932-.697.349-.465.815-1.278 1.747-2.963.931-1.685 2.387-4.183 4.192-6.391a25.36 25.36 0 016.287-5.403c2.388-1.395 5.066-2.383 7.86-3.022 2.795-.581 5.706-.813 7.569-.929 1.863-.116 2.62-.116 3.028-.175.407 0 .407 0 .407-.348 0-.349 0-.988-.058-1.278v-.349h-.582c-.582 0-1.689.058-3.552.174a86.449 86.449 0 00-7.103.93z" fill="#3D8C31"/><path fill-rule="evenodd" clip-rule="evenodd" d="M181.069 253.895c6.172-.755 18.107-2.324 24.046-3.137 5.938-.756 5.938-.756 5.938-.872v-1.046c0-.174 0-.29-.058-.29 0-.058 0-.058-.058-.291-.058-.232-.117-.697-.175-.929l-.058-.233-5.647.756c-5.648.755-16.943 2.208-22.59 2.905l-5.648.755s0 .058-.524.581a64.496 64.496 0 00-1.979 2.092c-.466.522-.466.522-.233.522.349-.058.815-.058 6.986-.813z" fill="#5DC94C"/><path fill-rule="evenodd" clip-rule="evenodd" d="M163.136 236.698c.699.581 1.689 1.452 2.62 2.672.99 1.22 1.98 2.789 2.911 4.939.932 2.149 1.747 4.822 2.213 7.204.524 2.382.699 4.416.815 6.275.116 1.859.116 3.486.175 4.357 0 .872.058.988.116 1.046.058.058.175.058 2.096-.29 1.921-.291 5.648-.93 10.422-1.802 4.774-.813 10.596-1.859 13.565-2.382 2.911-.523 2.97-.581 3.028-.639.058-.058.058-.174.058-.174s0-.058-.233 0c-.291.058-.815.116-4.599.697-3.785.639-10.771 1.801-15.196 2.498-4.425.756-6.23 1.104-7.161 1.221-.932.116-1.048.116-1.107 0-.058-.117-.058-.233-.174-2.092-.117-1.859-.35-5.345-.99-8.599a39.856 39.856 0 00-2.736-8.54c-1.107-2.266-2.213-3.893-3.319-5.055-1.106-1.162-2.212-1.975-2.795-2.324-.582-.407-.582-.407-.815-4.299-.291-3.951-.873-11.795-1.222-16.559-.408-4.764-.583-6.449-.699-7.262-.117-.814-.117-.814-.233-.814-.175.058-.466.117-.582.175l-.175.058.408 4.764c.407 4.764 1.222 14.234 1.572 18.998.407 4.765.407 4.823.64 4.997.175.058.641.349 1.397.93z" fill="#403E32"/><path fill-rule="evenodd" clip-rule="evenodd" d="M123.663 197.655c-2.97-.058-5.939-.058-9.956-.116-4.018-.059-9.141-.117-14.032-.175-4.89-.058-9.548-.116-12.75-.174-3.202-.058-5.066-.058-6.405-.058-1.339 0-2.212 0-2.969-.058-.757 0-1.397 0-1.688-.058h-.175c.116 0 .407 0 2.911.232s7.161.639 15.778 1.046c8.617.406 21.193.813 27.714 1.046 6.579.232 7.103.29 7.336.522.174.233 0 .64-.233.93-.233.291-.408.465-.408.697 0 .233.291.523.699.639.407.117.989 0 2.678-.755 1.688-.755 4.541-2.208 5.939-2.905 1.397-.697 1.397-.697.232-.697-1.164 0-3.493 0-6.113-.058-2.62 0-5.589-.058-8.558-.058z" fill="#509663"/><path fill-rule="evenodd" clip-rule="evenodd" d="M124.711 269.291c.291 1.453.873 4.067 1.688 6.566.815 2.498 1.98 4.938 3.377 6.855 1.397 1.976 3.086 3.544 4.716 4.532 1.572.988 3.027 1.453 4.25 1.743 1.223.291 2.212.465 3.61.523 1.397.058 3.085.058 5.007-.349 1.921-.406 3.959-1.22 5.589-3.021 1.63-1.743 2.795-4.473 4.076-8.424 1.28-3.951 2.62-9.18 2.328-14.293-.291-5.171-2.212-10.283-3.842-13.072-1.63-2.789-3.028-3.254-4.483-3.544-1.398-.291-2.853-.349-4.658-.291-1.863.058-4.134.175-6.171.639-2.038.465-3.901 1.221-5.532 2.208-1.63.988-3.085 2.208-4.308 3.893-1.223 1.627-2.271 3.718-3.086 5.636-.815 1.917-1.513 3.602-1.921 4.996-.408 1.395-.582 2.382-.699 3.021-.233.639-.233.93.059 2.382z" fill="#403E32"/><path fill-rule="evenodd" clip-rule="evenodd" d="M159.469 251.222c-.99-.929-2.445-2.207-4.192-2.963-1.688-.813-3.61-1.162-5.473-1.162s-3.61.349-5.182.988c-1.572.639-3.027 1.569-4.541 2.905a29.7 29.7 0 00-4.134 4.764c-1.164 1.685-1.979 3.37-2.678 5.694-.698 2.324-1.281 5.229-1.339 8.25a24.11 24.11 0 001.514 8.831c1.048 2.789 2.62 5.287 4.192 7.088 1.572 1.802 3.086 2.847 4.599 3.428 1.514.581 2.97.698 4.367.639 1.397-.058 2.736-.232 4.25-.755 1.514-.523 3.202-1.278 4.716-2.324a16.84 16.84 0 004.134-3.776c1.223-1.569 2.271-3.544 3.144-5.694a26.67 26.67 0 001.863-7.495c.291-2.847.233-6.158-.408-8.947a22.226 22.226 0 00-2.62-6.449c-.698-1.395-1.222-2.034-2.212-3.022z" fill="#403E32"/><path fill-rule="evenodd" clip-rule="evenodd" d="M148.873 254.65c6.404-.755 11.528 4.997 11.528 12.84 0 7.844-5.182 14.874-11.528 15.629-6.404.755-11.528-4.996-11.528-12.84-.058-7.901 5.124-14.873 11.528-15.629z" fill="#4F4D3E"/><path fill-rule="evenodd" clip-rule="evenodd" d="M156.675 263.888c-.233-1.104-.524-1.917-1.165-2.847-.64-.929-1.572-2.033-2.62-2.789-1.048-.755-2.212-1.22-3.551-1.336a8.727 8.727 0 00-4.192.523c-1.339.523-2.446 1.394-3.435 2.615a15.668 15.668 0 00-2.446 4.589c-.582 1.685-.815 3.428-.815 5.171 0 1.743.233 3.486.815 5.055.582 1.569 1.572 2.963 2.62 3.893 1.048.929 2.213 1.452 3.552 1.568a9.745 9.745 0 004.366-.639c1.398-.581 2.62-1.51 3.552-2.498.931-.93 1.514-1.859 1.863-2.731.349-.871.466-1.627.466-1.859 0-.232 0 .058-.641.755-.582.698-1.746 1.743-2.969 2.324-1.223.581-2.445.698-3.552.465-1.106-.29-2.037-.929-2.794-1.859-.757-.93-1.281-2.092-1.223-4.009 0-1.917.582-4.532 1.922-6.217 1.339-1.626 3.435-2.265 4.948-2.324 1.514-.058 2.387.465 3.028 1.104.64.581 1.048 1.279 1.339 1.86.291.639.466 1.22.64 1.801.117.581.233 1.162.35 1.394.116.232.174.058.174-.755.117-.697 0-2.15-.232-3.254z" fill="#737160"/><path fill-rule="evenodd" clip-rule="evenodd" d="M44.89 236.465c-.117 2.092-.234 5.868.057 9.645.291 3.776.874 7.669 1.747 10.167.815 2.498 1.921 3.718 3.26 4.706 1.398.93 3.086 1.685 5.997 2.615 2.853.929 6.929 2.091 13.1 3.253 6.172 1.162 14.497 2.382 21.076 3.254 6.58.813 11.47 1.336 16.477 1.568 5.007.291 10.072.349 13.333.349 3.26 0 4.774-.058 5.647-.407.932-.348 1.281-.929 1.689-1.743.407-.813.815-1.859 1.746-4.706.932-2.847 2.271-7.495 3.727-11.213 1.455-3.718 3.027-6.449 4.075-8.018.99-1.568 1.397-1.975 1.863-2.44l1.106-1.104.233-.232-.582-.407c-.582-.407-1.688-1.22-3.493-2.266-1.805-1.045-4.309-2.324-9.84-5.287s-14.031-7.553-18.398-9.877c-4.366-2.324-4.483-2.382-4.949-2.382-.407.058-1.106.175-1.804.233-.699.058-1.34 0-1.63 0-.35 0-.35 0-4.076-.175-3.726-.116-11.179-.406-17.874-.697-6.696-.348-12.576-.755-16.768-1.104-4.192-.348-6.58-.697-7.976-.871-1.398-.233-1.689-.349-2.038-.407-.35-.058-.699 0-.932.116-.233.116-.233.349-.582 1.685-.35 1.336-.931 3.718-1.339 4.88-.408 1.162-.524 1.162-.64 1.279-.117.058-.175.29-.233.523a8.814 8.814 0 00-.175 1.103c-.058.581-.058 1.395-.233 2.324-.233.93-.64 1.918-.931 2.557-.35.639-.524.988-.64 3.079z" fill="#36342B"/><path fill-rule="evenodd" clip-rule="evenodd" d="M121.974 220.372c.524-1.627.757-2.847.874-3.719.116-.871.116-1.336-.059-1.801-.116-.465-.407-.988-.931-1.278-.524-.291-1.223-.349-2.096-.291-.932.059-1.98.175-3.377.465-1.397.291-3.028.697-4.949 1.22-1.921.523-4.017 1.162-6.113 2.092-2.038.93-4.017 2.208-5.357 3.312-1.339 1.103-1.98 2.149-3.027 3.718-.99 1.627-2.329 3.776-3.435 5.636-1.106 1.859-1.922 3.369-2.329 4.299-.35.93-.291 1.22-.175 1.394.117.175.233.291 1.048.291.815 0 2.27-.058 4.716-.349 2.446-.29 5.881-.813 8.792-1.336 2.911-.523 5.356-1.046 7.045-1.511 1.688-.522 2.619-.987 3.202-1.22.524-.29.698-.348 1.281-1.162a43.39 43.39 0 002.503-4.357c.99-1.743 1.805-3.777 2.387-5.403z" fill="#24231D"/><path fill-rule="evenodd" clip-rule="evenodd" d="M114.114 231.468c.291-.116.582-.232.932-.464.349-.233.698-.581 1.28-1.395.583-.813 1.339-2.149 2.213-4.009.873-1.859 1.863-4.241 2.503-6.1.641-1.859.874-3.254.874-4.125 0-.872-.35-1.22-.815-1.394-.466-.175-1.048-.175-2.038-.117-.99.117-2.387.349-3.959.698-1.63.406-3.435.987-5.066 1.452-1.572.465-2.852.93-4.133 1.394a20.955 20.955 0 00-3.435 1.685c-1.048.639-1.922 1.278-2.62 1.918-.699.639-1.165 1.336-1.747 2.44a49.65 49.65 0 00-2.212 4.357 68.791 68.791 0 00-1.98 4.474c-.407 1.046-.407 1.394-.35 1.685.059.232.175.348 1.223.29 1.048-.058 3.028-.232 5.531-.581 2.504-.348 5.59-.755 7.802-1.162a78.454 78.454 0 004.541-.813c.932 0 1.165-.116 1.456-.233zm-67.071-4.357c.175.465.408 1.046.757 1.569.35.523.757.988.99 1.22.233.232.35.232.407.116.059-.116.059-.465.35-2.44.29-1.975.757-5.694.99-8.25.232-2.556.116-4.067.116-4.764-.058-.756-.058-.756-.233-.523-.175.174-.582.581-.99 1.394-.407.814-.873 2.092-1.28 3.893-.466 1.801-.874 4.183-1.107 5.577-.233 1.395-.174 1.743 0 2.208z" fill="#E6E6E6"/><path fill-rule="evenodd" clip-rule="evenodd" d="M48.556 217.641c.175-.581.292-.872.408-1.22.117-.349.291-.697.35-.872.116-.232.116-.29.174-.348 0-.058 0-.058.058.29.059.349.117 1.046.117 2.266s-.117 2.905-.291 4.648c-.175 1.743-.466 3.486-.583 4.474-.116 1.045-.116 1.336-.174 1.51-.059.175-.175.175-.466-.29a15.651 15.651 0 01-.99-1.976c-.233-.581-.233-.755-.175-1.22.059-.464.175-1.162.35-1.975.174-.872.35-1.917.582-2.847.233-.93.466-1.801.64-2.44zm61.017 14.815c1.223-.232 2.154-.406 2.911-.755.757-.349 1.281-.813 1.805-1.627.582-.755 1.106-1.859 1.98-3.66.873-1.801 2.038-4.357 2.736-6.1.699-1.743.873-2.731.932-3.37.058-.639-.059-.988-.408-1.104-.349-.174-.873-.116-2.038.058-1.106.232-2.794.581-5.24 1.336-2.445.697-5.647 1.743-7.685 2.615-2.038.871-2.853 1.568-4.017 3.195-1.106 1.627-2.504 4.183-3.377 5.926-.873 1.743-1.223 2.789-1.339 3.428-.175.639-.116.872.058 1.046.175.174.466.291.932.407.466.116 1.106.116 2.562 0 1.455-.116 3.667-.407 5.531-.697a64.96 64.96 0 004.657-.698z" fill="#E8E4BE"/><path fill-rule="evenodd" clip-rule="evenodd" d="M54.553 258.95c1.98.581 5.531 1.336 9.723 2.091 4.192.755 9.025 1.569 12.169 1.917 3.144.349 4.6.349 5.53.175.932-.175 1.34-.407 1.63-.93.292-.523.525-1.336 1.107-3.776.582-2.44 1.514-6.566 2.27-9.296.758-2.673 1.34-3.951 1.98-4.939.64-.987 1.398-1.626 2.27-2.033.874-.349 1.864-.465 5.3-.755 3.376-.291 9.198-.756 12.982-1.104 3.785-.291 5.648-.465 6.521-.639.874-.233.757-.465-.058-.756-.815-.232-2.387-.465-5.007-.406-2.62.058-6.23.406-9.781.697-3.493.29-6.87.581-9.2 1.046-2.27.464-3.493 1.162-4.482 2.672-.932 1.511-1.63 3.893-2.387 7.088-.757 3.196-1.63 7.147-2.33 9.18-.698 2.034-1.164 2.15-2.212 2.15-1.106 0-2.853-.058-7.277-.697-4.483-.581-11.703-1.743-15.487-2.441-3.785-.697-4.192-.929-4.6-1.162-.407-.232-.873-.523-1.164-.813-.291-.232-.466-.465-.466-.291 0 .175.116.698.35 1.221.232.697.64 1.22 2.62 1.801z" fill="#737160"/><path fill-rule="evenodd" clip-rule="evenodd" d="M117.84 250.177c-2.969.174-8.209.639-12.517.987-4.309.407-7.685.814-9.548 1.22-1.864.407-2.213.872-2.446 1.453-.174.581-.233 1.22.058 2.208.233.987.816 2.324 1.223 3.195.466.872.815 1.395 1.28 1.918.467.522 1.049 1.103 1.573 1.51.524.407 1.048.581 1.688.697.64.116 1.456.233 5.415.233s11.12-.117 14.963-.175c3.842-.058 4.425-.058 4.774-.116.349-.058.524-.116.524-.232 0-.058-.058-.116-1.164-.291-1.048-.116-3.086-.348-4.134-.465-1.048-.116-1.048-.116-3.493-.116-2.388 0-7.162.058-9.665.058-2.446 0-2.62 0-2.446-.174.117-.116.524-.407.932-.813.408-.465.873-1.046 1.164-1.976.292-.871.408-2.033.175-3.021-.233-.988-.873-1.859-1.572-2.498-.699-.639-1.514-1.046-1.863-1.278-.349-.233-.233-.233 2.154-.407 2.387-.174 7.161-.523 10.305-.813 3.144-.291 4.716-.581 5.59-.756.873-.174 1.106-.348 1.222-.464.117-.117.117-.175-.174-.233-.35.174-1.048.116-4.018.349z" fill="#24231D"/><path fill-rule="evenodd" clip-rule="evenodd" d="M103.111 254.418c.989-.058 1.804 1.22 1.921 2.847.116 1.627-.582 2.963-1.572 3.021-.99.058-1.805-1.22-1.921-2.847-.059-1.627.64-2.963 1.572-3.021z" fill="#E8E4BE"/><path fill-rule="evenodd" clip-rule="evenodd" d="M64.917 220.488a197.929 197.929 0 01-5.589-.465c-1.863-.174-3.61-.349-4.716-.523-1.106-.116-1.572-.174-1.747-.232-.232-.058-.232-.058-.349.348-.116.407-.291 1.162-.582 3.486a136.977 136.977 0 00-.873 10.168c-.175 3.892-.117 7.727.29 11.329.408 3.602 1.165 7.03 1.69 9.064.523 2.033.814 2.672 1.047 3.079.233.407.408.581 2.562.988 2.154.406 6.23 1.104 10.305 1.685 4.076.581 8.151 1.162 10.596 1.394 2.446.232 3.32.174 3.843-.058.524-.233.64-.581.757-1.453.116-.871.175-2.324.582-5.054.408-2.731 1.223-6.74 2.329-10.807s2.62-8.192 3.9-11.445c1.282-3.312 2.446-5.81 3.087-7.263.698-1.452.931-1.917 1.048-2.208.116-.29.116-.464.116-.523 0-.058-.058-.058-1.048-.116-.931-.058-2.795-.116-4.541-.174a218.909 218.909 0 01-5.473-.232 232.453 232.453 0 00-6.404-.291 395.534 395.534 0 01-5.59-.349c-1.805-.116-3.435-.232-5.24-.348z" fill="#36342B"/><path fill-rule="evenodd" clip-rule="evenodd" d="M55.543 223.335c1.747.232 4.775.697 9.374 1.104 4.658.406 10.888.813 14.73 1.045 3.843.175 5.182.175 6.521.175h3.144c.64 0 .64 0 .873-.523.233-.523.757-1.569.99-2.092l.233-.523-2.737-.116c-2.736-.116-8.267-.348-12.983-.639-4.716-.29-8.617-.581-12.168-.93-3.552-.348-6.812-.697-8.442-.871-1.63-.174-1.689-.174-1.689-.116 0 .058-.058.232-.116.755-.117.523-.233 1.394-.35 1.801-.058.407-.058.407-.058.465 0 0 .058.058.291.058.175.116.64.174 2.387.407zm6.58 2.382c-2.97-.291-5.939-.581-7.51-.756-1.573-.174-1.748-.232-1.806-.232-.116 0-.116 0-.175.523-.058.581-.232 1.685-.29 2.208-.059.581-.117.581.058.639.174.058.465.174 2.969.581 2.504.406 7.161 1.046 11.47 1.394 4.25.349 8.15.465 11.47.581 3.318.116 6.17.233 7.568.291 1.397.058 1.456 0 1.514 0 .058-.058.116-.058.35-.523.232-.465.64-1.395.873-1.918.232-.522.29-.755.232-.813 0-.116-.116-.116-.116-.116-.058 0-.058 0-1.106-.058s-3.203-.116-6.114-.291c-2.91-.174-6.637-.406-9.955-.639-3.436-.348-6.463-.581-9.432-.871zm-10.248 4.706a32.852 32.852 0 00-.116 2.266c0 .523 0 .523 1.28.755 1.282.232 3.785.639 7.22 1.104 3.435.407 7.685.813 11.82 1.046 4.133.232 8.034.348 10.304.348 2.271 0 2.911-.058 3.26-.058.35-.058.35-.058.525-.639.233-.581.64-1.743.815-2.324.174-.639.174-.697.116-.697-.058-.058-.116-.058-1.63-.116-1.572-.058-4.541-.175-7.802-.291-3.202-.116-6.637-.29-10.596-.639-3.9-.29-8.267-.755-10.83-1.104-2.56-.348-3.318-.581-3.725-.697-.408-.116-.466-.116-.466 0-.116.116-.175.349-.175 1.046zm-.058 5.403v2.556c0 .639.059.698.583.872.524.174 1.455.523 4.25.929 2.736.407 7.336.872 11.702 1.279 4.367.406 8.5.697 11.004.813 2.504.174 3.319.174 3.726.174.408 0 .408 0 .699-.755s.932-2.208 1.223-3.079c.29-.872.349-1.104.29-1.22 0-.116-.057-.116-2.27-.175-2.212-.058-6.637-.174-11.062-.464-4.425-.291-8.85-.756-12.168-1.162-3.319-.407-5.59-.814-6.754-.988-1.164-.174-1.164-.232-1.223-.232v1.452zm1.34 14.525c.232.988.64 2.789.873 3.718.233.93.233 1.104.35 1.221.116.174.348.29 1.979.639 1.63.348 4.716.929 8.034 1.452 3.319.523 6.812.988 9.665 1.336 2.795.349 4.89.523 5.997.581 1.048.058 1.106 0 1.222-.697.059-.639.175-1.917.233-3.079.117-1.162.175-2.266.233-2.789 0-.523-.058-.523-3.144-.871-3.085-.349-9.257-1.104-14.09-1.685-4.832-.639-8.267-1.104-9.955-1.337-1.747-.232-1.689-.116-1.63 0-.117.233 0 .523.233 1.511z" fill="#4F4D3E"/><path fill-rule="evenodd" clip-rule="evenodd" d="M63.694 227.169v3.196c0 .755.059.813.291.987.233.175.7.581.932.756.233.174.291.174.407.174.059 0 .175 0 .525-.116.349-.116.99-.349 1.28-.523.291-.174.291-.233.291-.465s-.058-.523.059-1.046c.116-.523.35-1.162.64-1.743.291-.523.582-.929.815-1.22.233-.29.408-.407.466-.523.058-.116 0-.116-.233-.523-.29-.406-.757-1.162-.99-1.51-.233-.349-.233-.349-.698-.349-.466 0-1.34-.116-1.805-.116-.524 0-.582.058-.64.116-.059.058-.059.058-.234.291a11.62 11.62 0 01-.815.929c-.174.233-.174.233-.174.349-.117.232-.117.465-.117 1.336zm89.778-7.262c0 .465 0 1.22.058 1.743 0 .523.058.755.233.871.174.175.524.233 1.222.175a20.614 20.614 0 002.62-.407c.757-.174 1.107-.349 1.339-.639.233-.291.292-.697.233-1.337 0-.639-.058-1.452-.174-1.859-.117-.406-.233-.406-.641-.348a30.12 30.12 0 00-1.979.348c-.874.175-1.863.349-2.329.581-.466.233-.582.407-.582.872z" fill="#E6E6E6"/><path fill-rule="evenodd" clip-rule="evenodd" d="M326.565 124.972l-108.118-16.268v121.08l107.827-11.853.291-92.959z" fill="#737160"/><path fill-rule="evenodd" clip-rule="evenodd" d="M218.447 108.704l108.118 16.268-69.866 6.217-38.252-5.636v-16.849zm0 121.08l107.827-11.853-69.342-9.993-38.485 2.15v19.696z" fill="#36342B"/><path fill-rule="evenodd" clip-rule="evenodd" d="M218.447 125.553l38.543 5.636-.466 76.807-38.077 2.092v-84.535z" fill="#4F4D3E"/><path fill-rule="evenodd" clip-rule="evenodd" d="M218.447 228.215V111.493l104.799 15.048-.116 90.926-104.683 10.748z" fill="#DBA758"/><path fill-rule="evenodd" clip-rule="evenodd" d="M323.247 126.541l-36.68-5.229-.233 51.127 36.854 1.395.059-47.293zm-.059 48.106v1.685l-.058 41.135-36.796 3.776v-47.467l36.854.871zm-59.968-56.705l21.95 3.138-.408 71.52-21.775.523.233-75.181zm-19.62 77.272v30.445l40.988-4.009.174-27.481-41.162 1.045zm-25.153-50.081v-33.64l43.608 6.275-.058 31.664-43.55-4.299zm0 1.045l43.55 4.126-.524 43.051-43.026.581v-47.758zm0 49.618l23.929-.756-.116 30.735-23.813 2.44v-32.419z" fill="#F7CE66"/><path fill-rule="evenodd" clip-rule="evenodd" d="M307.643 124.333l-2.737-.407-3.027-.406v28.469l5.764.348v-28.004zm15.545 71.927v-6.042l-23.696.174v6.508l23.696-.64zm-38.251-40.727v4.008l-21.833-1.22v-4.415l21.833 1.627zm-43.725-40.786l-5.414-.756.524 22.427 5.065.523-.175-22.194zm4.542 38.403l13.39 1.279v10.341l-13.449-.929.059-10.691zm22.123 48.804l7.045 8.889-6.346 5.985-7.22-8.715 6.521-6.159zm-37.086-2.266l9.49-.755v7.32l-9.549.988.059-7.553zm45.761-76.227l7.744 1.104v5.171l-7.802-.929.058-5.346zm34.061 37.882l10.596.639v8.192l-10.713-.349.117-8.482z" fill="#F7F7F7"/></g><defs><clipPath id="clip0_2_20177"><path fill="#fff" d="M0 0h330v304.384H0z"/></clipPath></defs></svg>