<svg width="438" height="404" fill="none" xmlns="http://www.w3.org/2000/svg"><g clip-path="url(#clip0_2_20177)"><path fill-rule="evenodd" clip-rule="evenodd" d="M44.743 338.684c-10.51 3.856-29.288 7.172-38.406 12.57-9.119 5.475-8.423 13.032 2.24 16.734 10.665 3.624 31.375 3.316 44.666 3.933 13.37.616 19.397 2.236 21.483 4.935 2.087 2.699.155 6.477 0 9.87-.154 3.316 1.468 6.17 5.641 9.023 4.25 2.853 11.05 5.706 19.01 7.017 7.96 1.234 17.001.926 38.097 1.08 21.096.154 54.171.771 80.444-2.545 26.274-3.316 45.671-10.642 53.784-15.269 8.114-4.626 4.946-6.477 3.942-9.562-.928-3.007.309-7.171 4.636-9.87 4.328-2.699 11.591-3.933 22.565-5.398 10.973-1.465 25.578-3.008 43.12-4.473 17.464-1.465 37.865-2.699 50.77-4.627 12.905-1.928 18.314-4.472 20.864-9.639 2.551-5.167 2.319-12.955-6.877-17.273-9.196-4.319-27.356-5.321-47.679-7.48-20.324-2.237-42.734-5.707-60.585-7.635-17.85-1.928-31.142-2.39-61.125-2.545-29.983-.154-76.658 0-108.264 0-31.528 0-47.988-.231-57.725 2.777-9.66 3.161-12.75 9.33-15.3 14.651-2.628 5.321-4.869 9.871-15.301 13.726z" fill="#E6E6E6"/><path fill-rule="evenodd" clip-rule="evenodd" d="M107.955 2.93c-21.947 2.468-62.517 7.249-82.84 9.64L4.79 14.96 4.637 68.4c-.078 53.44-.31 160.243-.387 213.683l-.154 53.44 22.023 1.696c22.024 1.697 66.148 5.09 88.172 6.786l22.024 1.697V0l-1.623.077c-1.545.154-4.868.309-26.737 2.853z" fill="#CCC"/><path fill-rule="evenodd" clip-rule="evenodd" d="M136.392 75.417V0l14.991 3.393c14.992 3.393 44.975 10.18 60.044 13.572l14.991 3.393.309 51.512c.309 51.512.85 154.614 1.159 206.126l.309 51.512-15.3 2.699c-15.301 2.699-45.825 8.097-61.125 10.796l-15.301 2.699v-53.209c0-53.208-.077-159.471-.077-217.076z" fill="#B3B3B3"/><path fill-rule="evenodd" clip-rule="evenodd" d="M226.96 109.039c-.232-35.164-.309-61.922-.386-75.263l-.155-13.418h154.475l-.232 51.59c-.232 51.589-.618 154.844-.85 206.511l-.232 51.589-25.269-.077c-25.27-.077-75.731-.309-101-.386l-25.269-.077-.078-16.348c-.077-16.348-.309-49.122-.463-87.293-.155-38.172-.387-81.664-.541-116.828z" fill="#CCC"/><path fill-rule="evenodd" clip-rule="evenodd" d="M110.35 16.58c-20.092 2.313-57.184 6.709-75.73 8.868l-18.547 2.236-.077 49.122c-.077 49.121-.31 147.364-.464 196.486l-.077 49.122 20.17 1.542c20.168 1.542 60.506 4.704 80.675 6.246l20.169 1.542V13.881l-1.468.077c-1.546.154-4.559.308-24.651 2.622z" fill="#E6E6E6"/><path fill-rule="evenodd" clip-rule="evenodd" d="M136.392 83.206v-69.48l14.837 3.162c14.837 3.162 44.588 9.408 59.425 12.492l14.837 3.162.309 47.502c.309 47.503.85 142.43 1.159 189.932l.309 47.502-15.146 2.468c-15.146 2.467-45.438 7.48-60.584 9.947l-15.146 2.468V83.206z" fill="#CCC"/><path fill-rule="evenodd" clip-rule="evenodd" d="M226.883 114.206c-.155-32.388-.309-56.988-.387-69.326l-.077-12.338h140.41l-.231 47.58c-.232 47.579-.619 142.66-.773 190.162l-.232 47.58-22.951-.078c-22.951-.077-68.853-.308-91.804-.385l-22.951-.077-.077-15.115c-.077-15.114-.232-45.265-.464-80.352-.077-35.241-.309-75.341-.463-107.651z" fill="#E6E6E6"/><path d="M366.751 294.267l-3.168.617s-.85 2.544-3.168 2.544c-2.241 0-5.951 0-5.641-1.542.386-1.542-.31-5.475-.31-5.475l-1.391-.617-2.472-2.93-2.241-.617-3.71-.617-.85-4.087-2.782-5.629s0-6.478-.695-6.478c-.696 0-1.236-5.629-7.573-7.403-6.337-1.773-9.119.154-10.201.154-1.004 0-4.559 1.003-5.1 3.316-.541 2.314 1.623 1.543 1.623 1.543l.309 3.084s-3.168 2.776-3.477 4.473c-.387 1.773-2.241 5.629-1.932 6.4.386.771-.85 3.702-2.937 4.319-1.622.462-3.709-.155-5.718-.849l-1.855-.694c-2.472-1.002-4.404.386-5.254-.617-.928-1.002-1.932-2.699-4.405.386-2.473 3.085-6.337 4.704-10.742 4.704-4.404 0-8.732-1.157-9.427-3.085-.696-1.927-2.782-1.542-2.782-1.542s-1.237-3.933-4.714-3.084c-3.477.771-9.119 3.315-11.36.154-7.65-10.411-1.081-4.242-13.677-11.336-4.405 5.09-3.478 8.945-2.782 10.102.695 1.157-.309 5.475-1.932 5.244-1.623-.155-4.173-2.545-6.337-1.774a4.375 4.375 0 01-2.009.231V34.084a44.47 44.47 0 018.191-1.234c1.237-.077 2.164-.308 2.937-.694h55.02c2.009 4.319 2.937 9.254.077 13.11-5.872 7.788-17.077 18.43-15.687 20.512 1.391 2.082 6.801 1.542 12.365 2.622 5.641 1.002 20.323.463 23.182 4.935 2.782 4.396 16.151 10.41 16.151 4.704s-1.391-9.639 9.35-4.395c10.742 5.243 11.901 7.557 10.51 11.413-1.391 3.933-2.782 7.557-.695 11.412 2.086 3.933 8.191 17.12 10.045 7.249 1.855-9.87.696-11.721 5.642-7.557.463.386 1.081.771 1.7 1.08v197.026h-.078zm-9.582 23.288c-.541-1.002-1.391-2.93-.927-3.547.695-.771 3.168-3.701 4.945-2.313 1.778 1.388 1.932 1.773 3.478-1.543.695-1.465 1.468-3.007 2.086-4.318v11.798h-9.582v-.077z" fill="#B3B3B3"/><path d="M228.119 283.471c-1.623.077-3.323-.694-3.941-2.314-.155-.462-6.182-1.85-7.496-2.159L205.786 289.1c-16.691 5.013-30.137-7.48-39.488-17.35-.541-.463-5.409-4.936-5.409-4.936s-.541-1.465.154-2.159c.696-.617 3.014-3.701-1.236-.617-18.083 13.109-19.628-4.164-19.783-4.164-.695.077-1.391 1.157-3.322 1.002h-.232V91.457c.695-.54 1.623-.694 2.859-.54 3.786.54 9.814 1.388 7.728 11.799-2.087 10.41.927 11.104.695 16.039-.232 4.936-1.855 22.595.464 22.286 2.318-.308 6.336 1.543 5.1-6.631-1.159-8.174-2.782-24.6 2.55-28.918 5.409-4.319 12.596-11.182 14.528-10.102 1.854 1.08 6.568 7.017 8.887 6.709 2.395-.309 4.018-2.545 1.854-5.707-2.086-3.161-7.264-12.106-6.105-15.577 1.16-3.547 20.633-5.166 22.256-9.253 1.623-4.087-5.641-7.095-1.391-13.341 4.173-6.246 9.582-14.96 15.687-15.731 6.105-.771 8.191-4.164 11.205-5.784 1.391-.77 3.246-1.62 5.332-2.39V283.47z" fill="#999"/><path d="M15.919 122.843c1.236 1.002 2.55 2.313 4.018 4.009 5.1 6.015 13.524 9.948 13.678 15.269.155 5.321 1.237 6.323-2.473 9.871-3.709 3.547-5.795 5.089-13.832.154-.464-.309-.927-.54-1.391-.848v-28.455zm120.473 133.021c-10.509-3.084-20.323 8.406-31.065 4.704-2.936 5.398 6.105 6.555-2.782 12.338-1.545 1.003-.695 2.468-.695 2.468s2.086.771 3.323 2.313c1.236 1.466 2.472 5.475.154 5.244-2.936-.308-11.668-3.778-15.919-3.47-5.1.386-35.856-13.418-35.16 7.557-.155.463 7.96 2.93 8.191 8.56.232 6.169-7.573 11.104-7.418 16.965.077 1.696 1.622 4.087 1.777 6.94.232 4.01-3.477 5.861-8.964 5.552-2.86-1.311-5.023-4.935-13.678-6.631-10.046-2.005-15.146-10.719-13.06-14.575 1.546-2.853 3.478-5.784 4.096-6.092.618-.308 3.4-1.619.618-1.928-2.24-.231-4.79-.54-1.622-3.701.772-.771 3.09-.463 4.327-.309 6.8.848 5.796-11.49-2.164-14.112-4.404-1.465-7.882-3.932-10.355-6.323v-98.012c1.005.926 2.087 1.62 2.782 1.774 1.932.385 4.173.617 3.71-1.388-.541-2.005-2.628-3.547-4.019-6.246-1.39-2.699-.54-5.321 2.782-2.622 3.323 2.699 11.746 5.706 9.814 1.773-1.932-3.933-4.018-5.089-1.932-6.863 2.087-1.696 7.419-9.793 10.896-7.48 3.477 2.314 5.641 3.085 5.641.231 0-1.311-.464-2.93-.927-4.781-.618-2.39-1.16-5.166-.773-7.942.696-4.859 3.246-9.794 4.714-8.637 1.39 1.157 7.96 7.557 4.946 9.099-2.473 1.234-4.25 4.704-3.169 6.941.232.462.541.848 1.005 1.156 2.782 1.851 1.39 2.237 7.264-5.012 5.873-7.172 14.296-14.652 19.937-10.95 5.641 3.701 6.337 1.928 10.51 1.85 4.172-.077 8.423.078 12.364-1.388 4.018-1.388 1.854-8.097-.464-9.639-2.395-1.542 0-3.933 4.946-1.079 4.945 2.853 11.437 4.318 15.687 9.947 4.173 5.63 7.495 9.871 8.886 9.948 1.391.154 5.873-.463 1.391-7.634-4.482-7.172-7.959-15.654-6.568-19.356 1.391-3.779 5.409-11.953 7.496-19.741.463-1.85.927-3.393 1.313-4.627l2.319.231v164.947h-.155z" fill="#B3B3B3"/><path fill-rule="evenodd" clip-rule="evenodd" d="M289.475 31.154c6.491 0 11.746 5.244 11.746 11.721 0 6.478-5.255 11.722-11.746 11.722-6.491 0-11.746-5.244-11.746-11.722 0-6.477 5.255-11.721 11.746-11.721zm-18.237 30.614c3.014 7.557 8.81 17.042 12.055 22.132 3.246 5.09 4.019 5.86 4.405 6.246.386.386.386.386 3.4-3.393 7.882-9.793 15.378-20.435 19.01-32.773 4.173-14.112-.155-32.928-20.71-32.928-13.755 0-20.324 8.868-21.869 18.507-1.159 7.635 1.004 15.346 3.709 22.21z" fill="#999"/><path fill-rule="evenodd" clip-rule="evenodd" d="M285.766 31.154c6.491 0 11.746 5.244 11.746 11.721 0 6.478-5.255 11.722-11.746 11.722-6.491 0-11.746-5.244-11.746-11.722 0-6.477 5.255-11.721 11.746-11.721zm-18.16 30.614c3.014 7.557 8.81 17.042 12.055 22.132 3.246 5.09 4.019 5.86 4.405 6.246.387.386.387.386 3.4-3.393 7.882-9.793 15.378-20.435 19.01-32.773 4.173-14.112-.154-32.928-20.71-32.928-13.755 0-20.323 8.868-21.869 18.507-1.236 7.635.927 15.346 3.709 22.21z" fill="#FDE742"/><path fill-rule="evenodd" clip-rule="evenodd" d="M62.207 87.91c9.196 0 16.614 7.403 16.614 16.579 0 9.177-7.418 16.58-16.614 16.58-9.196 0-16.614-7.403-16.614-16.58-.077-9.099 7.418-16.58 16.614-16.58zm-25.733 43.338c4.328 10.719 12.442 24.06 17.078 31.308 4.637 7.249 5.719 8.329 6.26 8.868.54.54.54.54 4.79-4.781 11.129-13.88 21.715-28.917 26.893-46.345 5.95-19.973-.232-46.577-29.288-46.577-19.396 0-28.746 12.57-30.91 26.219-1.777 10.719 1.236 21.592 5.177 31.308z" fill="#999"/><path fill-rule="evenodd" clip-rule="evenodd" d="M56.952 87.91c9.196 0 16.614 7.403 16.614 16.579 0 9.177-7.418 16.58-16.614 16.58-9.196 0-16.614-7.403-16.614-16.58 0-9.099 7.418-16.58 16.614-16.58zm-25.733 43.338c4.328 10.719 12.441 24.06 17.078 31.308 4.637 7.249 5.718 8.329 6.26 8.868.54.54.54.54 4.79-4.781 11.128-13.88 21.715-28.917 26.893-46.345 5.95-19.973-.232-46.577-29.288-46.577-19.396 0-28.747 12.57-30.91 26.219-1.7 10.719 1.236 21.592 5.177 31.308z" fill="#FDE742"/><path d="M57.88 179.367c.154 5.398.309 10.796.927 15.269.618 4.472 1.777 7.942 3.478 10.641 1.777 2.699 4.172 4.627 8.964 5.63 4.868 1.002 12.132 1.156 20.632.308 8.423-.848 18.006-2.776 25.115-3.47 7.187-.694 11.9-.231 14.76.54 2.859.771 3.709 1.928 6.259 4.627 2.55 2.699 6.723 7.017 10.973 9.87 4.25 2.853 8.578 4.319 10.819-4.627 2.318-8.868 2.627-28.069 7.032-43.492 4.482-15.423 13.06-27.221 22.101-34.007 8.964-6.863 18.314-8.714 28.283-7.326 9.968 1.388 20.633 6.092 31.683 5.552s22.565-6.246 28.978-13.726c6.414-7.48 7.651-16.657 8.964-25.91" stroke="#fff" stroke-width="2" stroke-miterlimit="22.926" stroke-linecap="round" stroke-dasharray="10 10"/><path fill-rule="evenodd" clip-rule="evenodd" d="M79.671 349.789c.077 1.234.232 2.776 1.16 4.935.927 2.159 2.55 4.781 4.481 6.863a18.87 18.87 0 006.414 4.55c2.318 1.002 4.714 1.542 7.341 1.774 2.628.231 5.41.231 7.883-.078 2.472-.308 4.559-.925 6.723-2.004 2.086-1.08 4.172-2.622 5.873-4.319 1.7-1.696 2.936-3.47 3.554-4.395l.618-.926-7.418-1.542c-7.419-1.542-22.178-4.55-29.52-5.706-7.263-1.08-7.186-.309-7.109.848z" fill="#403E32"/><path fill-rule="evenodd" clip-rule="evenodd" d="M86.394 351.1c.232 1.311.619 3.547 1.469 5.629.772 2.082 2.009 3.933 3.168 5.398 1.16 1.465 2.395 2.468 3.941 3.316 1.546.925 3.4 1.696 5.332 2.159 1.932.463 4.018.463 6.337.232 2.318-.232 4.791-.772 7.032-1.851 2.241-1.08 4.173-2.699 5.564-4.01 1.313-1.311 2.086-2.236 2.627-3.008.541-.771.927-1.311.927-2.005s-.386-1.465-1.236-2.236c-.85-.771-2.087-1.465-3.787-2.082-1.777-.617-4.018-1.157-7.186-1.388-3.169-.231-7.264-.077-10.896-.386-3.632-.231-6.8-.848-8.887-1.388-2.086-.539-3.014-1.079-3.555-1.156-.54-.077-.772.231-.85.617-.154.385-.232.848 0 2.159zm57.958 4.395c1.159 2.082 5.023 6.015 9.582 8.483 4.559 2.468 9.968 3.624 13.446 4.241 3.477.694 5.023.926 6.105.232 1.004-.695 1.545-2.468 2.936-4.627 1.391-2.237 3.709-4.936 6.337-7.48 2.55-2.468 5.409-4.781 9.118-6.863 3.71-2.083 8.423-4.01 11.437-5.167 3.014-1.157 4.482-1.465 6.646-1.697 2.164-.231 4.946-.385 6.955-.308 2.009.077 3.245.308 3.864.848.618.54.618 1.234 1.004 2.776.386 1.543 1.159 3.779 1.623 5.013.541 1.233.773 1.465 1.932 1.388 1.082 0 3.014-.309 4.559-1.311 1.546-1.003 2.627-2.699 3.091-4.087.464-1.388.464-2.468-.386-6.015-.773-3.47-2.319-9.408-3.246-14.266-.927-4.935-1.391-8.868-2.55-11.876-1.159-3.007-3.091-4.935-5.641-7.017-2.55-2.082-5.719-4.164-10.587-5.475-4.868-1.234-11.437-1.697-19.242-.232-7.804 1.466-16.769 4.704-22.719 8.252-5.95 3.547-8.886 7.325-11.127 11.952-2.241 4.704-3.71 10.334-5.487 15.5-1.777 5.244-3.709 10.102-5.487 12.647-1.777 2.776-3.323 3.007-2.163 5.089zm124.337-19.278c8.732-.463 25.964-2.854 35.701-4.242 9.737-1.388 12.133-1.696 14.296-2.082 2.164-.308 4.25-.694 6.105-.848 1.855-.154 3.632-.077 5.1 0 1.469.077 2.705.154 5.255.154s6.414-.077 15.301.309c8.964.385 23.028 1.311 30.678 1.928 7.651.617 8.887 1.079 9.505 1.233.618.232.696.232.85.078.078-.078.232-.309.464-2.468s.464-6.169.618-8.328c.077-2.16 0-2.468 0-2.468 0-.077.077.077 3.941.463 3.941.385 11.669 1.002 17.387 1.465 5.796.462 9.505.694 11.437.925 1.855.154 1.855.232 1.855-1.311v-8.02l-4.25-.308-17.001-1.234-4.25-.308.077-1.465c.077-1.466.309-4.319.386-5.784.078-1.465.078-1.542-1.545-1.697-1.623-.154-4.869-.462-6.491-.771-1.7-.308-1.855-.617-1.855-1.234v-2.082c0-.617-.077-.848-.386-1.233-.309-.309-.928-.772-3.864-1.003-2.859-.231-8.037-.308-17.542-.308s-23.337 0-36.165.385c-12.828.463-24.651 1.311-34.851 2.776-10.201 1.465-18.856 3.548-24.111 5.475-5.177 1.928-7.032 3.702-8.345 6.247-1.314 2.544-2.241 5.783-2.937 8.482-.695 2.699-1.236 4.858-2.086 7.172-.773 2.39-1.855 4.935-2.164 7.017-.155 2.082.155 3.547 8.887 3.085z" fill="#24231D"/><path fill-rule="evenodd" clip-rule="evenodd" d="M284.916 336.757c6.105-.771 18.006-2.391 24.11-3.316 6.105-.926 6.414-1.157 6.724-1.928.309-.771.54-2.005.618-3.547.077-1.543-.155-3.316-.309-4.936a35.446 35.446 0 00-.619-3.932c-.231-1.08-.541-1.928-1.081-2.314-.464-.385-1.16-.231-5.564.232-4.328.462-12.364 1.233-18.778 2.082-6.414.848-11.283 1.773-13.601 2.159-2.318.385-2.241.154-2.241.617 0 .462-.154 1.696-.154 3.701s.154 4.781.154 6.632-.077 2.622 0 3.47c.077.771.232 1.542.618 1.928.387.385 1.005.463 1.546.385.618-.077 1.159-.308 1.623-.385.463-.077.85-.077 6.954-.848z" fill="#403E32"/><path fill-rule="evenodd" clip-rule="evenodd" d="M345.037 326.346c-.541 3.702-.464 7.789-.078 11.028.387 3.238 1.082 5.629 2.319 7.865 1.236 2.237 3.091 4.242 4.714 5.475 1.622 1.234 3.091 1.697 4.173 1.928 1.081.232 1.7.154 3.168.154 1.468 0 3.709 0 4.868-.308 1.159-.308 1.159-.848 1.159-1.697-.077-.848-.154-1.85-1.004-5.398-.85-3.47-2.319-9.407-2.319-15.422 0-6.015 1.546-12.107 2.551-15.963 1.081-3.856 1.7-5.552 1.313-6.632-.386-1.079-1.777-1.465-3.786-1.079-2.009.385-4.637 1.465-6.569 2.544a20.955 20.955 0 00-4.327 3.162c-1.159 1.157-2.241 2.468-3.323 4.781-1.082 2.468-2.241 5.784-2.859 9.562z" fill="#24231D"/><path fill-rule="evenodd" clip-rule="evenodd" d="M353.228 318.095c-1.468 4.01-1.855 9.716-1.7 14.035.154 4.318.773 7.326 1.7 9.947 1.004 2.622 2.395 4.781 3.632 6.401 1.236 1.542 2.318 2.545 3.323 3.162.927.616 1.777.848 2.163 1.002.387.154.387.154 1.237.077.85 0 2.55-.077 3.632-.154 1.004 0 1.391 0 1.545-.231.155-.232.078-.617-.154-6.709-.232-6.092-.618-17.814-.85-24.831-.155-7.017-.155-9.254-.232-10.95-.077-1.697-.309-2.853-.927-3.316-.541-.463-1.469-.386-2.628.231-1.236.54-2.704 1.543-4.714 3.239-2.086 1.619-4.559 4.087-6.027 8.097z" fill="#36342B"/><path fill-rule="evenodd" clip-rule="evenodd" d="M368.915 308.224c-1.932.617-3.941 2.082-5.795 5.013-1.855 2.93-3.478 7.48-4.328 12.338-.85 4.935-.85 10.333-.154 14.266.618 3.933 1.931 6.478 3.168 8.406 1.236 1.85 2.395 3.084 3.245 3.701.85.617 1.469.617 2.86.694 1.313.077 3.4.308 4.636.386 1.237.077 1.623-.078 2.396-.232.85-.231 2.086-.54 3.632-2.236 1.545-1.697 3.4-4.704 4.714-10.179 1.313-5.552 2.163-13.572 2.009-18.739-.155-5.166-1.159-7.48-2.319-9.099-1.159-1.62-2.318-2.545-3.786-3.162s-3.168-1.002-4.946-1.311c-1.545-.308-3.4-.462-5.332.154z" fill="#403E32"/><path fill-rule="evenodd" clip-rule="evenodd" d="M374.247 309.612c-1.777.772-3.323 2.237-4.791 4.319-1.391 2.082-2.705 4.858-3.555 7.557-.85 2.622-1.236 5.167-1.391 7.711-.154 2.545-.077 5.09.155 7.558.309 2.467.772 4.703 1.468 6.708.695 2.005 1.545 3.702 2.55 5.167 1.005 1.465 2.164 2.622 3.091 3.316 1.005.694 1.855.771 3.014.771 1.159-.077 2.627-.231 4.095-1.079 1.546-.849 3.091-2.237 4.328-4.01 1.314-1.774 2.241-3.933 3.091-6.324a34.791 34.791 0 001.623-8.174c.232-3.007.077-6.323-.232-9.099s-.773-5.013-1.468-7.018c-.696-2.005-1.7-3.778-2.86-5.089-1.159-1.388-2.395-2.314-4.018-2.776-1.391-.386-3.323-.309-5.1.462z" fill="#403E32"/><path fill-rule="evenodd" clip-rule="evenodd" d="M382.206 318.481c-.541-.617-.927-1.08-1.468-1.388-.463-.386-1.004-.617-1.7-.772-.618-.154-1.391-.231-2.009-.154-.618.077-1.082.232-1.777.694-.696.463-1.701 1.157-2.551 2.237-.927 1.156-1.777 2.699-2.395 4.549-.618 1.851-1.005 4.01-1.159 6.092-.155 2.082-.155 4.01.077 5.938.232 1.928.618 3.856 1.314 5.398.695 1.542 1.623 2.776 2.627 3.624.927.772 1.855 1.157 2.859 1.234 1.005.077 2.087-.154 3.014-.54.927-.462 1.777-1.079 2.627-2.236.851-1.157 1.778-2.853 2.473-4.627.696-1.773 1.237-3.624 1.391-5.86a28.307 28.307 0 00-.154-6.786c-.309-2.005-.928-3.548-1.546-4.704-.463-1.157-1.082-2.005-1.623-2.699z" fill="#4F4D3E"/><path fill-rule="evenodd" clip-rule="evenodd" d="M371.543 323.107c-.464 1.08-.773 2.237-1.082 3.393-.309 1.157-.464 2.237-.541 3.625-.077 1.388-.077 3.084.077 4.627.155 1.542.309 2.853.618 4.009.309 1.157.696 2.16.928 2.699.232.54.309.617.463.695.155.077.309.154.773-.078.464-.154 1.314-.617 2.241-1.619.927-1.08 1.855-2.776 2.473-4.241.618-1.465.85-2.776.927-4.55.078-1.774 0-4.087-.386-5.938-.386-1.928-1.237-3.47-1.932-4.472-.695-1.003-1.314-1.388-1.623-1.62-.309-.231-.309-.231-.463-.077-.232.154-.619.463-1.005 1.08-.541.462-1.082 1.388-1.468 2.467z" fill="#737160"/><path fill-rule="evenodd" clip-rule="evenodd" d="M370.616 300.899c-.464 1.079-1.314 2.544-2.241 4.472-1.005 1.928-2.164 4.396-2.782 7.403-.619 3.008-.696 6.632-.85 8.406-.155 1.85-.31 1.927-.85 1.927-.541 0-1.469 0-4.019-.154s-6.8-.54-9.582-.848c-2.782-.231-4.096-.386-4.714-.771-.618-.386-.541-1.003-.541-2.005 0-1.003-.077-2.468-.077-4.241 0-1.774 0-3.779.155-5.244.154-1.388.463-2.236.695-2.776.232-.54.386-.771.85-1.157.464-.385 1.236-.771 2.318-1.851 1.082-1.002 2.628-2.622 4.714-3.624 2.164-1.002 5.023-1.465 7.728-1.774 2.704-.308 5.254-.462 6.877-.462 1.623 0 2.319.154 2.628.462.309.617.154 1.234-.309 2.237z" fill="#24231D"/><path fill-rule="evenodd" clip-rule="evenodd" d="M383.984 298.894c.464.54 1.468 1.234 2.55 2.544 1.082 1.311 2.087 3.162 3.014 6.092.927 2.931 1.7 6.864 2.164 8.946.463 2.082.541 2.236.772 2.313.155.077.387.154.464 0 .155-.154.155-.617.155-1.234 0-.694-.155-1.619-.387-3.316-.232-1.696-.463-4.164-1.159-6.709-.695-2.544-1.777-5.012-2.936-6.786-1.16-1.696-2.396-2.621-3.169-3.007-.85-.386-1.313-.231-1.545.077-.309.154-.464.54.077 1.08zm-14.914 2.082c-.618.771-1.468 2.082-2.396 4.164-.927 2.082-1.854 4.935-2.55 7.865-.695 2.931-1.004 5.938-1.159 7.635-.155 1.696-.077 2.082.232 2.39.309.232.773.309 1.159.309.386-.077.618-.232.695-1.311.078-1.08.078-3.085.541-5.707.541-2.622 1.623-5.937 2.628-8.559a43.02 43.02 0 012.704-5.784c.696-1.234 1.005-1.773 1.16-2.082.077-.308-.078-.386-.387-.386s-.773.155-1.159.309c-.464.154-.85.386-1.468 1.157z" fill="#4F4D3E"/><path fill-rule="evenodd" clip-rule="evenodd" d="M285.38 282.854v27.144l25.037-2.776c25.038-2.776 75.19-8.251 100.614-11.027 25.346-2.776 25.964-2.854 26.273-2.931l.309-.077v-2.005c0-2.005-.077-6.015 0-26.912.078-20.898.232-58.761.31-78.657.077-19.895.077-21.9.077-22.903v-1.002l-25.424-3.856c-25.424-3.855-76.349-11.49-101.772-15.345l-25.424-3.856v144.203z" fill="#3D8C31"/><path fill-rule="evenodd" clip-rule="evenodd" d="M177.657 287.712c0 15.191 1.004 16.425 1.468 17.042.464.617.464.617 1.932.694 1.468.077 4.328.232 21.946 1.003 17.619.771 49.998 2.159 66.149 2.853l16.15.694V138.959l-17.85 2.545c-17.851 2.545-53.475 7.634-71.326 10.102l-17.851 2.545.155 9.639c.154 9.639.463 28.841.695 38.865.155 10.025.155 10.719-.232 25.679-.386 14.96-1.313 44.187-1.236 59.378z" fill="#4AAB3C"/><path fill-rule="evenodd" clip-rule="evenodd" d="M178.662 172.812c-.154-10.256-.232-14.497-.232-16.579v-2.159l2.164-.309c2.164-.308 6.569-.925 8.732-1.234l2.164-.308 1.005 6.555c1.004 6.554 3.013 19.741 6.336 27.761 3.323 8.097 7.96 11.104 18.237 12.415 10.278 1.311 26.197.925 36.938.925 10.819 0 16.537.54 19.628 1.234 3.091.694 3.555 1.774 4.173 4.241.618 2.468 1.237 6.401 2.087 18.354.772 11.952 1.7 32.002 2.009 47.733.386 15.654.154 26.99.077 32.619l-.077 5.63-16.46-.694c-16.46-.694-49.379-2.16-65.839-2.854s-16.46-.694-17.31-7.711c-.85-7.017-2.55-20.975-3.4-27.992l-.85-7.018.232-8.02c.232-8.019.618-24.059.773-40.176 0-15.963-.232-32.157-.387-42.413z" fill="#509663"/><path fill-rule="evenodd" clip-rule="evenodd" d="M114.06 242.215c-6.569 6.94-11.051 11.027-14.219 13.88-3.168 2.854-5.1 4.473-7.341 6.17-2.241 1.773-4.791 3.624-8.81 6.786-4.018 3.161-9.582 7.634-12.75 10.641-3.168 3.008-4.019 4.396-4.25 5.013-.31.617-.078.539-.31 2.39-.231 1.851-1.004 5.63-1.313 7.557-.387 1.928-.387 1.928 9.814 3.085 10.123 1.234 30.447 3.624 43.043 3.856 12.596.231 17.464-1.774 22.023-2.931 4.559-1.234 8.81-1.619 12.519-1.85 3.709-.232 6.723-.232 10.587-1.543 3.786-1.311 8.345-4.01 15.378-10.333 7.032-6.4 16.691-16.425 27.973-28.686 11.283-12.261 24.342-26.759 32.688-34.779 8.346-8.02 11.978-9.485 17.465-10.333 5.486-.848 12.905-.925 15.918-1.619 3.014-.694 1.623-2.005.541-2.699-1.082-.772-1.777-.926-8.809-1.311-7.032-.386-20.324-.849-34.774-.771-14.451.077-29.983.771-41.961 1.465-11.901.694-20.169 1.388-26.197 2.082-6.027.694-9.814 1.388-12.287 1.928-2.472.539-3.554.848-4.559 1.233-1.004.386-1.932.926-2.936 1.697-1.005.771-2.087 1.774-7.032 7.094-5.101 5.244-13.833 15.038-20.401 21.978z" fill="#5DC94C"/><path fill-rule="evenodd" clip-rule="evenodd" d="M155.325 213.683c-3.941.385-7.96.925-10.819 1.388-2.859.462-4.405.771-5.564 1.234-1.159.385-1.777.925-2.395 1.465-.618.54-1.237 1.234-4.328 4.627s-8.732 9.639-12.209 13.34c-3.478 3.779-4.714 5.09-5.796 6.247-1.082 1.156-2.086 2.159-3.632 4.009-1.623 1.851-3.864 4.55-5.718 6.709-1.855 2.16-3.246 3.856-4.173 5.244-.928 1.388-1.391 2.468-1.469 2.93-.077.54.155.54 4.637.617 4.482.077 13.137.077 25.192.309 12.055.154 27.433.385 37.788.54 10.355.154 15.687.154 18.392.154 2.704 0 2.859 0 3.786-.463s2.55-1.388 5.332-3.701c2.782-2.314 6.723-6.092 11.514-11.876 4.714-5.783 10.278-13.649 14.528-19.51 4.25-5.86 7.11-9.639 8.578-11.875 1.468-2.237 1.468-2.853.85-3.162-.618-.308-1.855-.154-7.96-.154-6.027 0-16.923-.077-26.814.077-9.969.154-19.087.54-25.501.925-6.492.309-10.278.54-14.219.926z" fill="#403E32"/><path fill-rule="evenodd" clip-rule="evenodd" d="M111.2 258.023c5.718.154 16.614.463 27.664.617 11.051.154 22.333.154 30.447.232 8.114 0 12.982.077 15.687.077s3.246 0 3.787-.155c.463-.154.927-.462 1.777-1.079.85-.617 2.009-1.542 3.787-3.085 1.777-1.542 4.018-3.778 6.8-6.709 2.704-2.93 5.795-6.554 9.273-10.873 3.4-4.318 7.187-9.331 9.969-13.186 2.781-3.779 4.559-6.401 5.486-7.789.927-1.388.85-1.542.773-1.619-.077-.077-.232-.154-2.164-.231-1.932 0-5.641 0-12.209-.155-6.569-.077-16.074-.231-26.506-.154-10.432.154-21.869.617-29.133 1.003-7.264.385-10.355.771-12.828 1.079-2.473.309-4.327.54-5.873 1.465-1.545.926-2.859 2.468-4.096 3.933-1.236 1.542-2.472 3.008-6.8 7.789-4.327 4.858-11.9 12.955-16.305 18.044-4.405 5.09-5.796 7.018-6.491 8.174-.696 1.157-.696 1.466-.618 1.697.154.231.386.308.772.463.464.231 1.082.308 6.801.462z" fill="#E6E6E6"/><path fill-rule="evenodd" clip-rule="evenodd" d="M116.995 248.076c4.251-5.167 11.592-14.112 15.919-19.202 4.328-5.089 5.719-6.246 6.878-7.017 1.159-.771 2.009-1.234 6.105-1.542 4.095-.386 11.359-.694 20.71-.772 9.35-.077 20.71.232 26.737.232 6.028 0 6.723-.232 7.109-.463.387-.231.464-.463.232-.694-.232-.231-.772-.54-1.159-.771-.309-.308-.464-.54-.077-.848.386-.309 1.236-.54 4.095-.617 2.782-.077 7.574 0 10.201 0 2.627 0 3.246 0 3.555-.232.386-.231.541-.694.309-.925-.232-.231-.773-.308-4.328-.385-3.554-.078-10.046-.155-17.696-.155-7.65 0-16.537.155-23.878.386-7.341.231-13.06.463-17.31.771-4.25.231-7.032.54-9.505.848-2.473.309-4.714.617-6.027 1.157-1.391.54-1.932 1.234-7.033 7.172-5.1 5.937-14.605 17.119-19.55 23.211-4.869 6.015-5.101 6.94-4.56 7.403.464.462 1.623.463 2.782-.232 1.159-.848 2.319-2.159 6.491-7.325z" fill="#FDE742"/><path fill-rule="evenodd" clip-rule="evenodd" d="M279.43 275.297c.618 16.965.386 34.624.309 43.415-.077 8.791-.077 8.791 0 9.254l.309 1.85c.078.463.078.463.078 2.005 0 1.543-.078 4.55-.232 6.632-.078 2.005-.232 3.085-.464 3.702-.154.694-.464 1.002-.695 1.234-.232.231-.464.462-4.792 1.31-4.327.849-12.75 2.391-20.941 3.779-8.192 1.388-15.996 2.776-20.556 3.393-4.482.617-5.641.54-6.182.54-.541 0-.541 0-.541-1.542 0-1.543 0-4.627-.232-7.635a62.423 62.423 0 00-1.236-8.405c-.541-2.468-1.159-4.396-2.009-6.709-.85-2.313-1.932-5.012-3.864-7.48-1.932-2.468-4.636-4.55-7.418-5.861-2.782-1.234-5.719-1.619-8.655-1.388-2.937.154-5.951.848-8.655 2.159-2.705 1.311-5.178 3.162-6.723 4.55-1.546 1.388-2.241 2.314-2.55 2.699-.309.463-.309.463-.541.386-.232-.077-.618-.232-6.955-3.779-6.337-3.624-18.624-10.642-25.038-14.343-6.413-3.702-6.954-4.01-5.332-5.167 1.623-1.156 5.487-3.084 7.496-4.164 2.009-1.08 2.087-1.311 3.787-2.622 1.7-1.311 5.1-3.624 10.741-7.865 5.641-4.242 13.523-10.488 19.396-15.269 5.873-4.858 9.737-8.251 12.133-10.642 2.472-2.313 3.477-3.547 7.418-8.791 3.941-5.166 10.819-14.343 15.919-21.129 5.023-6.786 8.269-11.181 10.896-14.42 2.627-3.239 4.636-5.244 6.723-6.324 2.086-1.156 4.327-1.388 9.428-1.465 5.1-.077 13.136 0 17.387.077 4.25 0 4.791 0 5.254.077.387.078.696.386 1.005 1.389.232 1.002.464 2.699.773 5.629.309 2.93.773 7.094 1.623 17.428 1.081 10.102 2.395 26.527 2.936 43.492z" fill="#4AAB3C"/><path fill-rule="evenodd" clip-rule="evenodd" d="M184.226 301.516c-2.318 1.465-4.482 3.007-6.645 4.935-2.164 1.928-4.251 4.164-5.332 5.321-1.082 1.156-1.082 1.156-.928 1.233.077.078.309.232 2.009 1.08 1.7.848 4.869 2.468 6.492 3.316l1.545.771.618-.617c.618-.617 1.855-1.928 3.864-3.547 2.009-1.619 4.868-3.624 8.269-4.935 3.4-1.311 7.264-1.928 10.896-1.851 3.631.077 6.954.848 10.2 2.545 3.246 1.696 6.491 4.472 8.578 6.631 2.086 2.237 3.091 3.933 3.786 4.782.696.925 1.082.925 1.082-.386s-.464-4.01-1.623-7.172c-1.159-3.084-2.936-6.631-5.332-9.253-2.395-2.622-5.409-4.396-8.655-5.707a33.509 33.509 0 00-10.432-2.159c-3.632-.154-7.419.309-10.51 1.234-3.168 1.002-5.641 2.313-7.882 3.779z" fill="#5DC94C"/><path fill-rule="evenodd" clip-rule="evenodd" d="M239.478 212.063c-1.313.617-2.473 1.466-3.554 2.391-1.082.925-1.932 1.928-3.169 3.393-1.236 1.542-2.782 3.547-4.482 5.706-1.623 2.082-3.323 4.242-4.173 5.398-.85 1.157-.85 1.388-.772 1.465.077.078.154.078 1.854-2.082 1.7-2.159 5.023-6.477 7.341-9.253 2.319-2.699 3.555-3.856 4.869-4.704 1.313-.848 2.627-1.542 4.173-2.005 1.545-.463 3.4-.694 6.027-.926 2.628-.231 6.105-.385 9.582-.462 3.478-.077 6.878 0 8.81 0 1.932.077 2.241.154 2.55.308.232.154.386.386.541.54.077.154.154.308.232.154.077-.154.154-.54 0-.925-.155-.386-.541-.848-1.778-1.08-1.236-.231-3.245-.308-7.418-.154-4.173.077-10.355.309-14.142.694-3.863.463-5.254.848-6.491 1.542z" fill="#3D8C31"/><path fill-rule="evenodd" clip-rule="evenodd" d="M221.395 271.904c-10.355 2.776-17.928 4.781-22.487 5.937-4.559 1.157-6.105 1.389-7.032 1.543-.927.154-1.237.154-2.705 1.85-1.545 1.697-4.25 4.936-5.95 7.095-1.7 2.159-2.318 3.162-2.55 3.933-.309.771-.232 1.388.232 1.928.463.462 1.236.848 2.627.694 1.314-.155 3.168-.694 9.891-3.008 6.801-2.313 18.469-6.323 30.293-10.642a1191.741 1191.741 0 0030.601-11.49c6.877-2.699 8.809-3.547 10.2-4.318 1.391-.771 2.319-1.465 3.014-2.468.618-1.002 1.005-2.39 1.236-3.547.232-1.156.31-2.159.232-8.637-.154-6.477-.541-18.584-.927-25.062-.386-6.554-.85-7.48-1.236-8.097-.387-.616-.773-.771-1.082-.848-.309-.077-.464.077-.464.386 0 .308.232 1.002.386 2.467.155 1.543.31 3.933.31 10.102 0 6.169-.001 16.117-.155 21.361-.077 5.167-.155 5.629-.618 6.477-.387.772-1.082 2.005-2.319 2.777-1.236.771-3.013 1.233-10.509 3.238-7.419 1.928-20.633 5.553-30.988 8.329z" fill="#509663"/><path fill-rule="evenodd" clip-rule="evenodd" d="M254.16 214.994c-2.859.154-5.564.231-7.805.462-2.163.232-3.786.463-5.177 1.003-1.468.463-2.705 1.157-4.173 2.313-1.468 1.157-3.014 2.854-8.114 9.408-5.023 6.555-13.523 18.122-20.401 26.99-6.877 8.945-12.132 15.269-14.837 18.585-2.782 3.315-3.013 3.624-2.936 4.087.077.462.618 1.002.85 1.233.232.309.232.309 2.318-.231 2.009-.463 6.105-1.465 9.351-2.236 3.245-.771 5.563-1.388 8.964-2.314 3.322-.925 7.727-2.082 12.286-3.316 4.56-1.233 9.351-2.544 14.065-3.778 4.713-1.234 9.273-2.545 12.055-3.239 2.704-.771 3.554-1.002 4.482-1.234a60.208 60.208 0 003.013-.848c1.005-.308 1.855-.54 2.628-.771.773-.231 1.391-.54 1.854-.771a6.626 6.626 0 001.082-.694c.309-.232.464-.463.773-.771.232-.309.618-.772.85-1.234.232-.463.386-.848.464-1.388.077-.54.077-1.234.154-2.545 0-1.311.078-3.085.078-8.328v-18.431c0-4.704-.078-5.552-.155-6.4-.077-.848-.155-1.619-.309-2.313-.077-.694-.155-1.157-.309-1.62-.155-.463-.387-.848-.773-1.157-.386-.308-.927-.616-2.627-.694-1.855 0-4.791.155-7.651.232z" fill="#403E32"/><path fill-rule="evenodd" clip-rule="evenodd" d="M235.151 226.252c0-3.161 0-3.316-.155-3.393a.478.478 0 00-.541.077c-.232.155-.386.386-2.859 3.625-2.473 3.238-7.109 9.485-9.505 12.646-2.396 3.162-2.396 3.239-2.318 7.635.077 4.395.386 13.032.541 17.427.154 4.396.231 4.627.309 4.781.077.155.154.155 2.55-.462 2.395-.617 7.032-1.851 9.428-2.468 2.395-.617 2.55-.694 2.627-.694.077 0 .077 0 0-4.01-.077-3.933-.155-11.875-.155-18.893 0-7.094 0-13.186.078-16.271zm3.323 36.09v3.084l3.245-.848c3.246-.848 9.814-2.622 13.678-3.624 3.786-1.08 4.791-1.466 5.641-1.851.773-.386 1.391-.848 1.855-1.465.463-.694.85-1.62 1.004-3.162.155-1.542 0-3.778-.077-9.331-.155-5.552-.309-14.42-.464-19.201-.154-4.781-.231-5.552-.463-6.323-.232-.772-.618-1.543-1.159-2.005-.541-.463-1.237-.617-3.014-.694-1.778-.078-4.637 0-7.573.154-2.937.077-5.95.231-7.805.385-1.855.155-2.473.386-3.091.772-.696.385-1.391.925-1.777 1.233-.387.309-.387.309-.31 4.859.078 4.549.155 13.726.232 21.36 0 7.557.078 13.649.078 16.657z" fill="#E6E6E6"/><path fill-rule="evenodd" clip-rule="evenodd" d="M221.009 248.461c-.695.309-1.082.694-1.314 1.851-.154 1.079-.154 2.853-.154 3.778 0 .926 0 .926-.387.849a42.64 42.64 0 01-1.7-.386c-.541-.154-.927-.308-1.313-.308-.309 0-.619 0-.928.308-.309.231-.618.694-.85 1.234-.231.54-.309 1.234-.231 1.774.077.539.231.925.54 1.156.232.232.541.386 1.469.463.927.077 2.395.077 3.168.077h.773l.077 1.234c.077 1.234.155 3.779.155 5.012.077 1.234.077 1.234-.309 1.234-.31 0-1.005 0-1.546-.077-.541 0-.85 0-1.391.154-.464.155-1.159.463-1.546.849a2.136 2.136 0 00-.772 1.31c-.078.463.077.849.154 1.157.155.309.232.386.464.54.232.077.464.231 1.314.231.85 0 2.163-.077 2.936-.077h.773l.154.309c.155.308.387 1.002 1.005 1.773.541.849 1.391 1.851 2.473 2.468 1.082.617 2.318.925 4.018.925 1.7 0 3.787-.231 5.332-.539 1.546-.309 2.55-.772 3.323-1.311.773-.54 1.237-1.234 1.391-1.928.232-.694.232-1.465.155-4.396-.078-2.93-.155-8.174-.309-11.49-.155-3.316-.31-4.627-.696-5.629-.386-1.003-1.005-1.62-1.932-2.082-.927-.463-2.318-.617-4.327-.771-2.009-.155-4.714-.155-6.569-.077-1.777-.078-2.704.077-3.4.385z" fill="#4F4D3E"/><path fill-rule="evenodd" clip-rule="evenodd" d="M235.614 253.088c.31 1.465.541 4.01.619 7.48.154 3.393.154 7.711 0 10.102-.078 2.391-.309 2.776-1.469 3.085-1.081.308-3.091.616-4.945.694-1.855.077-3.478 0-4.714-.386-1.237-.308-2.087-.925-2.705-1.311-.618-.385-1.004-.617-1.313-1.311-.31-.694-.464-1.851-.696-4.704a581.352 581.352 0 01-.695-9.87c-.155-2.545-.155-3.008-.155-3.548 0-.539 0-1.002.232-1.465.154-.462.541-.925 1.236-1.157.696-.308 1.7-.462 3.246-.539 1.545-.077 3.709 0 5.486.154 1.855.154 3.401.308 4.328.617.927.308 1.236.694 1.545 2.159z" fill="#24231D"/><path fill-rule="evenodd" clip-rule="evenodd" d="M260.42 270.439c-.464.694-1.314 1.85-1.855 2.622-.463.771-.618 1.156-.618 1.542 0 .385.078.771.464 1.542s1.082 1.851 1.545 2.622c.464.771.773 1.157.928 1.388.154.231.232.309 1.7.386 1.468 0 4.327 0 5.796-.077 1.545-.078 1.7-.232 2.009-.926.309-.694.85-2.005 1.159-2.93.309-.926.386-1.465.386-1.774 0-.308 0-.385-.541-1.234-.541-.848-1.545-2.467-2.163-3.393-.619-.848-.773-.925-2.087-.925s-3.709.077-4.946.231c-1.313.077-1.313.232-1.777.926z" fill="#4F4D3E"/><path fill-rule="evenodd" clip-rule="evenodd" d="M262.275 271.672c-.309.463-.85 1.234-1.082 1.62-.232.385-.155.463 1.314.54h7.186s-.077-.077-.386-.617a85.943 85.943 0 01-1.314-1.928c-.309-.463-.309-.463-1.159-.463-.773 0-2.396 0-3.168.077-.773 0-.85.077-.85.155-.155.077-.232.231-.541.616zm-1.314 5.398c.309.463 1.005 1.311 1.314 1.774.386.463.463.54 1.236.54.773 0 2.318 0 3.091-.077.773 0 .773 0 1.159-.54.387-.463 1.082-1.465 1.469-1.928.386-.54.386-.54.386-.617v-.077h-1.623c-1.468 0-4.405 0-5.873.077-1.468 0-1.468 0-1.468.077v.154c-.077.078 0 .155.309.617z" fill="#24231D"/><path fill-rule="evenodd" clip-rule="evenodd" d="M246.124 313.931c6.877-.771 20.323-2.314 27.046-3.085l6.723-.771v-5.012l-3.786.385c-3.787.386-11.36 1.234-18.006 1.928-6.645.694-12.441 1.311-15.377 1.62-2.937.308-3.014.462-3.323 1.233-.309.772-.928 2.082-1.159 2.931-.31.848-.31 1.079-.232 1.234.077.154.386.231.618.231.309.077.618.077 7.496-.694z" fill="#5DC94C"/><path fill-rule="evenodd" clip-rule="evenodd" d="M264.825 282.623c-3.4.617-6.878 1.542-10.046 3.084-3.168 1.62-6.105 3.933-8.578 6.709-2.55 2.776-4.636 5.861-6.336 8.868-1.701 3.008-2.86 5.784-3.478 7.249-.618 1.465-.618 1.542-.309 1.542.232 0 .773-.154 1.236-.308.464-.154.773-.309 1.237-.926.464-.617 1.082-1.696 2.318-3.932 1.237-2.237 3.168-5.553 5.564-8.483a33.732 33.732 0 018.346-7.172c3.168-1.85 6.723-3.161 10.432-4.01 3.709-.771 7.573-1.079 10.046-1.233 2.473-.155 3.477-.155 4.018-.232.541 0 .541 0 .541-.462 0-.463 0-1.311-.077-1.697v-.463h-.773c-.773 0-2.241.078-4.714.232-2.55.231-5.95.617-9.427 1.234z" fill="#3D8C31"/><path fill-rule="evenodd" clip-rule="evenodd" d="M240.328 336.988c8.191-1.003 24.033-3.085 31.915-4.164 7.882-1.003 7.882-1.003 7.882-1.157v-1.388c0-.231 0-.386-.077-.386 0-.077 0-.077-.078-.385-.077-.309-.154-.925-.232-1.234l-.077-.308-7.496 1.002a3982.001 3982.001 0 01-29.983 3.856l-7.495 1.002s0 .077-.696.771a86.024 86.024 0 00-2.627 2.777c-.619.694-.619.694-.309.694.463-.078 1.081-.078 9.273-1.08z" fill="#5DC94C"/><path fill-rule="evenodd" clip-rule="evenodd" d="M216.527 314.162c.928.771 2.241 1.928 3.478 3.547 1.313 1.62 2.627 3.702 3.864 6.555 1.236 2.853 2.318 6.401 2.936 9.562.696 3.162.927 5.861 1.082 8.329.154 2.467.154 4.626.232 5.783 0 1.157.077 1.311.154 1.388.078.077.232.077 2.782-.385 2.55-.386 7.496-1.234 13.833-2.391 6.336-1.08 14.064-2.468 18.005-3.162 3.864-.694 3.941-.771 4.018-.848.078-.077.078-.231.078-.231s0-.077-.31 0c-.386.077-1.081.154-6.104.925-5.023.848-14.296 2.391-20.169 3.316-5.873 1.003-8.269 1.465-9.505 1.619-1.237.155-1.391.155-1.469 0-.077-.154-.077-.308-.231-2.776-.155-2.467-.464-7.094-1.314-11.413-.85-4.318-2.241-8.251-3.632-11.335-1.468-3.008-2.937-5.167-4.405-6.709-1.468-1.542-2.936-2.622-3.709-3.085-.773-.54-.773-.54-1.082-5.706-.386-5.244-1.159-15.654-1.623-21.978-.541-6.323-.772-8.559-.927-9.639-.155-1.08-.155-1.08-.309-1.08-.232.078-.618.155-.773.232l-.232.077.541 6.323c.541 6.324 1.623 18.893 2.087 25.217.541 6.323.541 6.4.85 6.631.232.077.85.463 1.854 1.234z" fill="#403E32"/><path fill-rule="evenodd" clip-rule="evenodd" d="M164.134 262.342c-3.941-.077-7.882-.077-13.214-.155-5.332-.077-12.132-.154-18.623-.231-6.492-.077-12.674-.154-16.924-.231-4.25-.077-6.723-.077-8.5-.077-1.778 0-2.937 0-3.941-.077-1.005 0-1.855 0-2.241-.078h-.232c.154 0 .541 0 3.864.309 3.323.308 9.505.848 20.941 1.388 11.437.54 28.129 1.079 36.784 1.388 8.732.308 9.427.386 9.737.694.231.308 0 .848-.31 1.234-.309.385-.54.617-.54.925 0 .309.386.694.927.848.541.155 1.314 0 3.555-1.002 2.241-1.003 6.027-2.93 7.882-3.856 1.854-.925 1.854-.925.309-.925-1.546 0-4.637 0-8.114-.077-3.478 0-7.419-.077-11.36-.077z" fill="#509663"/><path fill-rule="evenodd" clip-rule="evenodd" d="M165.525 357.423c.386 1.928 1.159 5.398 2.241 8.714 1.082 3.316 2.627 6.555 4.482 9.099 1.854 2.622 4.095 4.704 6.259 6.015 2.087 1.311 4.019 1.928 5.641 2.314 1.623.385 2.937.617 4.791.694 1.855.077 4.096.077 6.646-.463s5.255-1.619 7.419-4.01c2.163-2.313 3.709-5.938 5.409-11.181 1.7-5.244 3.477-12.184 3.091-18.97-.386-6.864-2.936-13.65-5.1-17.351-2.164-3.702-4.019-4.319-5.95-4.704-1.855-.386-3.787-.463-6.183-.386-2.472.077-5.486.232-8.191.849-2.704.617-5.177 1.619-7.341 2.93-2.164 1.311-4.096 2.93-5.718 5.167-1.623 2.159-3.014 4.935-4.096 7.48-1.082 2.544-2.009 4.781-2.55 6.631-.541 1.851-.773 3.162-.927 4.01-.31.849-.31 1.234.077 3.162z" fill="#403E32"/><path fill-rule="evenodd" clip-rule="evenodd" d="M211.659 333.441c-1.314-1.234-3.246-2.931-5.564-3.933-2.241-1.08-4.791-1.542-7.264-1.542s-4.791.462-6.877 1.311c-2.087.848-4.019 2.082-6.028 3.855-1.932 1.774-3.941 4.087-5.487 6.324-1.545 2.236-2.627 4.472-3.554 7.557-.928 3.084-1.7 6.94-1.778 10.95a32 32 0 002.01 11.721c1.391 3.702 3.477 7.018 5.563 9.408 2.087 2.391 4.096 3.779 6.105 4.55 2.009.771 3.941.925 5.796.848 1.855-.077 3.632-.308 5.641-1.002s4.25-1.697 6.259-3.085c2.01-1.311 3.864-2.93 5.487-5.012 1.623-2.082 3.014-4.704 4.173-7.557a35.417 35.417 0 002.473-9.948c.386-3.779.309-8.174-.541-11.876-.85-3.701-2.318-6.632-3.478-8.559-.927-1.851-1.622-2.699-2.936-4.01z" fill="#403E32"/><path fill-rule="evenodd" clip-rule="evenodd" d="M197.594 337.99c8.501-1.002 15.301 6.632 15.301 17.042 0 10.411-6.878 19.742-15.301 20.744-8.5 1.003-15.3-6.632-15.3-17.042-.078-10.488 6.8-19.741 15.3-20.744z" fill="#4F4D3E"/><path fill-rule="evenodd" clip-rule="evenodd" d="M207.949 350.252c-.309-1.466-.695-2.545-1.545-3.779s-2.087-2.699-3.478-3.702c-1.391-1.002-2.936-1.619-4.714-1.773-1.777-.231-3.786 0-5.564.694-1.777.694-3.245 1.851-4.559 3.47a20.803 20.803 0 00-3.245 6.092c-.773 2.236-1.082 4.55-1.082 6.863 0 2.314.309 4.627 1.082 6.709.772 2.082 2.086 3.933 3.477 5.167s2.936 1.928 4.714 2.082c1.777.154 3.864-.077 5.795-.848 1.855-.772 3.478-2.005 4.714-3.316 1.237-1.234 2.01-2.468 2.473-3.625.464-1.156.618-2.159.618-2.467 0-.309 0 .077-.85 1.002-.772.926-2.318 2.314-3.941 3.085-1.623.771-3.245.925-4.714.617-1.468-.386-2.704-1.234-3.709-2.468-1.004-1.234-1.7-2.776-1.623-5.321 0-2.545.773-6.015 2.551-8.251 1.777-2.159 4.559-3.008 6.568-3.085 2.009-.077 3.168.617 4.018 1.466.85.771 1.391 1.696 1.778 2.467.386.848.618 1.62.85 2.391.154.771.309 1.542.463 1.85.155.309.232.078.232-1.002.155-.925 0-2.853-.309-4.318z" fill="#737160"/><path fill-rule="evenodd" clip-rule="evenodd" d="M59.58 313.854c-.155 2.776-.31 7.788.077 12.801.386 5.012 1.159 10.179 2.318 13.495 1.082 3.316 2.55 4.935 4.327 6.246 1.855 1.234 4.096 2.236 7.96 3.47 3.786 1.234 9.195 2.776 17.387 4.318 8.191 1.543 19.242 3.162 27.974 4.319 8.732 1.079 15.223 1.773 21.869 2.082 6.646.385 13.369.463 17.696.463 4.327 0 6.337-.078 7.496-.54 1.236-.463 1.7-1.234 2.241-2.314.541-1.079 1.082-2.467 2.318-6.246 1.236-3.778 3.014-9.948 4.946-14.883 1.932-4.935 4.018-8.56 5.409-10.642 1.314-2.082 1.855-2.621 2.473-3.238l1.468-1.466.309-.308-.773-.54c-.772-.54-2.241-1.619-4.636-3.007-2.396-1.388-5.719-3.085-13.06-7.018-7.341-3.932-18.623-10.024-24.419-13.109-5.796-3.085-5.95-3.162-6.568-3.162-.541.077-1.469.232-2.396.309-.927.077-1.777 0-2.164 0-.463 0-.463 0-5.409-.232-4.946-.154-14.837-.539-23.724-.925-8.886-.463-16.691-1.002-22.255-1.465-5.564-.463-8.732-.925-10.587-1.157-1.855-.308-2.241-.462-2.705-.54-.463-.077-.927 0-1.236.155-.31.154-.31.462-.773 2.236-.463 1.774-1.236 4.935-1.777 6.478-.541 1.542-.696 1.542-.85 1.696-.155.077-.232.386-.31.694-.077.309-.154.771-.231 1.465-.077.771-.077 1.851-.31 3.085-.308 1.234-.85 2.545-1.236 3.393-.463.848-.695 1.311-.85 4.087z" fill="#36342B"/><path fill-rule="evenodd" clip-rule="evenodd" d="M161.894 292.493c.695-2.159 1.004-3.778 1.159-4.935.154-1.157.154-1.774-.078-2.391-.154-.617-.541-1.311-1.236-1.696-.695-.386-1.623-.463-2.782-.386a30.592 30.592 0 00-4.482.617c-1.855.386-4.018.925-6.568 1.62-2.551.694-5.332 1.542-8.114 2.776-2.705 1.233-5.332 2.93-7.11 4.395-1.777 1.465-2.627 2.853-4.018 4.935-1.314 2.16-3.091 5.013-4.559 7.48-1.469 2.468-2.55 4.473-3.091 5.707-.464 1.234-.387 1.619-.232 1.851.154.231.309.385 1.391.385s3.013-.077 6.259-.462c3.246-.386 7.805-1.08 11.669-1.774 3.864-.694 7.109-1.388 9.35-2.005 2.241-.694 3.478-1.311 4.25-1.619.696-.386.928-.463 1.7-1.543.773-1.156 2.087-3.316 3.323-5.783 1.314-2.314 2.396-5.013 3.169-7.172z" fill="#24231D"/><path fill-rule="evenodd" clip-rule="evenodd" d="M151.46 307.222c.387-.154.773-.309 1.237-.617.464-.308.927-.771 1.7-1.851.773-1.079 1.777-2.853 2.936-5.321 1.16-2.467 2.473-5.629 3.323-8.097.85-2.467 1.159-4.318 1.159-5.475 0-1.156-.463-1.619-1.081-1.85-.619-.232-1.391-.232-2.705-.155-1.314.155-3.168.463-5.255.926-2.164.54-4.559 1.311-6.723 1.928-2.086.617-3.786 1.233-5.486 1.85a27.75 27.75 0 00-4.56 2.237c-1.391.848-2.55 1.696-3.477 2.544-.927.849-1.546 1.774-2.318 3.239-.85 1.465-1.932 3.547-2.937 5.784-1.082 2.236-2.086 4.549-2.627 5.938-.541 1.388-.541 1.85-.464 2.236.077.308.232.463 1.623.385 1.391-.077 4.018-.308 7.341-.771 3.323-.462 7.419-1.002 10.355-1.542 3.014-.463 4.946-.848 6.028-1.08 1.236 0 1.545-.154 1.931-.308zm-89.02-5.784c.231.617.54 1.389 1.004 2.083a11.57 11.57 0 001.313 1.619c.31.308.464.308.541.154.078-.154.078-.617.464-3.239.386-2.621 1.005-7.557 1.314-10.95.309-3.393.154-5.398.154-6.323-.077-1.003-.077-1.003-.309-.694-.232.231-.773.771-1.314 1.851-.54 1.079-1.159 2.776-1.7 5.166-.618 2.391-1.159 5.552-1.468 7.403-.309 1.851-.232 2.314 0 2.93z" fill="#E6E6E6"/><path fill-rule="evenodd" clip-rule="evenodd" d="M64.448 288.869c.232-.771.386-1.157.54-1.62.155-.462.387-.925.464-1.156.155-.309.155-.386.232-.463 0-.077 0-.077.077.386.078.462.155 1.388.155 3.007 0 1.619-.155 3.856-.386 6.169-.232 2.314-.619 4.627-.773 5.938-.155 1.388-.155 1.774-.232 2.005-.077.231-.232.231-.618-.386-.387-.617-1.005-1.85-1.314-2.622-.309-.771-.309-1.002-.232-1.619.078-.617.232-1.542.464-2.622.232-1.157.464-2.545.773-3.778.309-1.234.618-2.391.85-3.239zm80.986 19.664c1.623-.308 2.859-.54 3.864-1.003 1.004-.462 1.7-1.079 2.395-2.159.773-1.002 1.468-2.467 2.627-4.858 1.16-2.39 2.705-5.783 3.632-8.097.928-2.313 1.16-3.624 1.237-4.473.077-.848-.077-1.31-.541-1.465-.464-.231-1.159-.154-2.705.077-1.468.309-3.709.772-6.955 1.774-3.245.925-7.495 2.313-10.2 3.47-2.705 1.157-3.787 2.082-5.332 4.241-1.468 2.16-3.323 5.553-4.482 7.866-1.159 2.314-1.623 3.702-1.777 4.55-.232.848-.155 1.157.077 1.388.232.231.618.385 1.236.54.619.154 1.469.154 3.4 0 1.932-.155 4.869-.54 7.342-.926 2.627-.308 4.559-.617 6.182-.925z" fill="#E8E4BE"/><path fill-rule="evenodd" clip-rule="evenodd" d="M72.408 343.697c2.627.771 7.341 1.774 12.905 2.776 5.564 1.003 11.978 2.082 16.151 2.545 4.173.462 6.104.462 7.341.231 1.236-.231 1.777-.54 2.164-1.234.386-.694.695-1.773 1.468-5.012s2.009-8.714 3.014-12.338c1.004-3.548 1.777-5.244 2.627-6.555.85-1.311 1.855-2.159 3.014-2.699 1.159-.463 2.473-.617 7.032-1.003 4.482-.385 12.209-1.002 17.232-1.465 5.023-.385 7.496-.617 8.655-.848 1.159-.308 1.005-.617-.077-1.002-1.082-.309-3.168-.617-6.646-.54-3.477.077-8.268.54-12.982.925-4.637.386-9.119.771-12.21 1.388-3.013.617-4.636 1.542-5.95 3.547-1.236 2.005-2.164 5.167-3.168 9.408-1.005 4.242-2.164 9.485-3.091 12.184-.928 2.699-1.546 2.854-2.937 2.854-1.468 0-3.786-.078-9.66-.926-5.95-.771-15.532-2.313-20.555-3.239-5.023-.925-5.564-1.233-6.105-1.542-.54-.308-1.159-.694-1.545-1.079-.386-.309-.618-.617-.618-.386 0 .231.154.925.463 1.619.31.926.85 1.62 3.478 2.391z" fill="#737160"/><path fill-rule="evenodd" clip-rule="evenodd" d="M156.406 332.053c-3.941.231-10.896.848-16.614 1.311-5.719.539-10.201 1.079-12.674 1.619-2.472.54-2.936 1.157-3.245 1.928-.232.771-.309 1.619.077 2.93.309 1.311 1.082 3.085 1.623 4.242.618 1.156 1.082 1.85 1.7 2.544.618.694 1.391 1.465 2.086 2.005.696.54 1.391.771 2.241.926.851.154 1.932.308 7.187.308 5.255 0 14.76-.154 19.86-.231 5.1-.077 5.873-.077 6.337-.155.463-.077.695-.154.695-.308 0-.077-.077-.154-1.545-.386-1.391-.154-4.096-.462-5.487-.616-1.391-.155-1.391-.155-4.637-.155-3.168 0-9.504.077-12.827.077-3.246 0-3.478 0-3.246-.231.155-.154.696-.54 1.237-1.079.54-.617 1.159-1.389 1.545-2.622.386-1.157.541-2.699.232-4.01-.309-1.311-1.159-2.468-2.087-3.316-.927-.848-2.009-1.388-2.472-1.697-.464-.308-.31-.308 2.859-.539 3.168-.232 9.505-.694 13.678-1.08 4.173-.386 6.259-.771 7.418-1.003 1.159-.231 1.468-.462 1.623-.616.154-.155.154-.232-.232-.309-.464.231-1.391.154-5.332.463z" fill="#24231D"/><path fill-rule="evenodd" clip-rule="evenodd" d="M136.856 337.682c1.313-.077 2.395 1.619 2.55 3.779.154 2.159-.773 3.932-2.087 4.009-1.313.078-2.395-1.619-2.55-3.778-.077-2.159.85-3.933 2.087-4.01z" fill="#E8E4BE"/><path fill-rule="evenodd" clip-rule="evenodd" d="M86.162 292.647c-2.395-.154-4.945-.385-7.418-.617-2.473-.231-4.791-.462-6.26-.694-1.468-.154-2.086-.231-2.318-.308-.309-.077-.309-.077-.463.463-.155.539-.387 1.542-.773 4.626-.387 3.085-.928 8.329-1.16 13.495-.231 5.167-.154 10.257.387 15.038.541 4.781 1.546 9.33 2.241 12.029.696 2.699 1.082 3.548 1.391 4.087.31.54.541.772 3.4 1.311 2.86.54 8.269 1.466 13.678 2.237 5.41.771 10.819 1.542 14.064 1.85 3.246.309 4.405.232 5.1-.077.696-.308.85-.771 1.005-1.928.155-1.156.232-3.084.773-6.708.541-3.625 1.623-8.946 3.091-14.344 1.468-5.398 3.477-10.873 5.177-15.191 1.7-4.396 3.246-7.711 4.096-9.639.927-1.928 1.236-2.545 1.391-2.931.154-.385.154-.617.154-.694 0-.077-.077-.077-1.391-.154-1.236-.077-3.709-.154-6.027-.231a286.142 286.142 0 01-7.264-.309 313.933 313.933 0 00-8.5-.385 544.635 544.635 0 01-7.419-.463c-2.395-.154-4.56-.308-6.955-.463z" fill="#36342B"/><path fill-rule="evenodd" clip-rule="evenodd" d="M73.722 296.426c2.318.308 6.336.925 12.441 1.465 6.182.54 14.451 1.08 19.551 1.388 5.1.231 6.877.231 8.655.231h4.173c.85 0 .85 0 1.159-.694.309-.694 1.004-2.082 1.314-2.776l.309-.694-3.632-.154c-3.632-.154-10.973-.463-17.233-.848-6.26-.386-11.437-.771-16.15-1.234a1279.12 1279.12 0 01-11.206-1.157c-2.163-.231-2.24-.231-2.24-.154 0 .077-.078.309-.155 1.003-.155.694-.31 1.85-.464 2.39-.077.54-.077.54-.077.617 0 0 .077.077.386.077.232.154.85.231 3.169.54zm8.731 3.162c-3.94-.386-7.882-.771-9.968-1.003-2.087-.231-2.319-.308-2.396-.308-.154 0-.154 0-.232.694-.077.771-.309 2.236-.386 2.93-.077.771-.155.771.077.848.232.078.618.232 3.941.772 3.323.539 9.505 1.388 15.224 1.85 5.64.463 10.818.617 15.223.771 4.405.155 8.191.309 10.046.386 1.854.077 1.932 0 2.009 0 .077-.077.155-.077.464-.694.309-.617.85-1.851 1.159-2.545.309-.694.386-1.002.309-1.079 0-.155-.155-.155-.155-.155-.077 0-.077 0-1.468-.077s-4.25-.154-8.114-.385c-3.864-.232-8.81-.54-13.214-.848-4.56-.463-8.578-.772-12.519-1.157zm-13.6 6.246a43.559 43.559 0 00-.155 3.007c0 .694 0 .694 1.7 1.003 1.7.308 5.023.848 9.583 1.465 4.559.54 10.2 1.079 15.687 1.388 5.486.308 10.664.463 13.677.463 3.014 0 3.864-.077 4.328-.077.463-.078.463-.078.695-.849.309-.771.85-2.313 1.082-3.084.232-.849.232-.926.155-.926-.078-.077-.155-.077-2.164-.154-2.086-.077-6.028-.231-10.355-.385-4.25-.155-8.81-.386-14.064-.849-5.178-.385-10.973-1.002-14.374-1.465-3.4-.463-4.404-.771-4.945-.925-.541-.154-.618-.154-.618 0-.155.154-.232.462-.232 1.388zm-.078 7.171v3.393c0 .849.078.926.773 1.157.696.232 1.932.694 5.641 1.234 3.632.54 9.737 1.157 15.533 1.697 5.796.539 11.282.925 14.605 1.079 3.323.231 4.405.231 4.946.231.54 0 .54 0 .927-1.002.386-1.002 1.236-2.93 1.623-4.087.386-1.157.463-1.465.386-1.619 0-.155-.077-.155-3.014-.232-2.936-.077-8.809-.231-14.682-.617-5.873-.385-11.746-1.002-16.15-1.542-4.406-.54-7.42-1.08-8.965-1.311-1.545-.231-1.545-.308-1.623-.308v1.927zm1.778 19.279c.31 1.311.85 3.701 1.16 4.935.309 1.234.309 1.465.463 1.62.155.231.464.385 2.627.848 2.164.463 6.26 1.234 10.665 1.928a384.07 384.07 0 0012.827 1.773c3.71.463 6.492.694 7.96.771 1.391.078 1.468 0 1.623-.925.077-.848.231-2.545.309-4.087.154-1.542.232-3.007.309-3.701 0-.694-.077-.694-4.173-1.157-4.096-.463-12.287-1.465-18.7-2.236a2937.88 2937.88 0 01-13.215-1.774c-2.318-.309-2.241-.154-2.164 0-.154.308 0 .694.31 2.005z" fill="#4F4D3E"/><path fill-rule="evenodd" clip-rule="evenodd" d="M84.54 301.516v4.241c0 1.002.077 1.079.386 1.311.31.231.928.771 1.237 1.002.309.232.386.232.54.232.078 0 .233 0 .696-.155.464-.154 1.314-.462 1.7-.694.387-.231.387-.308.387-.617 0-.308-.078-.694.077-1.388.154-.694.464-1.542.85-2.313a11.63 11.63 0 011.082-1.619c.309-.386.54-.54.618-.694.077-.155 0-.155-.309-.694-.386-.54-1.005-1.543-1.314-2.005-.309-.463-.309-.463-.927-.463-.618 0-1.777-.154-2.396-.154-.695 0-.772.077-.85.154-.077.077-.077.077-.309.385-.231.309-.772.926-1.082 1.234-.231.309-.231.309-.231.463-.155.308-.155.617-.155 1.774zm119.159-9.64c0 .617 0 1.62.077 2.314 0 .694.078 1.002.31 1.156.231.232.695.309 1.622.232a27.163 27.163 0 003.478-.54c1.004-.231 1.468-.463 1.777-.848.309-.386.387-.926.309-1.774 0-.848-.077-1.928-.232-2.468-.154-.539-.309-.539-.85-.462a39.91 39.91 0 00-2.627.462c-1.159.232-2.473.463-3.091.772-.618.308-.773.539-.773 1.156z" fill="#E6E6E6"/><path fill-rule="evenodd" clip-rule="evenodd" d="M433.441 165.872L289.939 144.28v160.706l143.116-15.732.386-123.382z" fill="#737160"/><path fill-rule="evenodd" clip-rule="evenodd" d="M289.939 144.28l143.502 21.592-92.731 8.251-50.771-7.48V144.28zm0 160.706l143.116-15.732-92.036-13.263-51.08 2.853v26.142z" fill="#36342B"/><path fill-rule="evenodd" clip-rule="evenodd" d="M289.939 166.643l51.157 7.48-.618 101.945-50.539 2.776V166.643z" fill="#4F4D3E"/><path fill-rule="evenodd" clip-rule="evenodd" d="M289.939 302.904V147.982l139.097 19.972-.154 120.684-138.943 14.266z" fill="#DBA758"/><path fill-rule="evenodd" clip-rule="evenodd" d="M429.036 167.954l-48.684-6.94-.309 67.86 48.916 1.851.077-62.771zm-.077 63.851v2.236l-.078 54.597-48.838 5.012v-63.002l48.916 1.157zm-79.594-75.264l29.133 4.164-.541 94.928-28.901.694.309-99.786zm-26.043 102.562v40.408l54.403-5.321.231-36.475-54.634 1.388zm-33.383-66.472v-44.649l57.88 8.328-.077 42.027-57.803-5.706zm0 1.388l57.803 5.475-.696 57.141-57.107.771v-63.387zm0 65.855l31.761-1.002-.155 40.793-31.606 3.239v-43.03z" fill="#F7CE66"/><path fill-rule="evenodd" clip-rule="evenodd" d="M408.326 165.024l-3.632-.54-4.018-.54v37.786l7.65.463v-37.169zm20.633 95.467v-8.02l-31.451.231v8.637l31.451-.848zm-50.771-54.057v5.321l-28.978-1.619v-5.861l28.978 2.159zM320.154 152.3l-7.186-1.002.695 29.766 6.723.694-.232-29.458zm6.028 50.972l17.773 1.697v13.726l-17.851-1.234.078-14.189zm29.365 64.776l9.35 11.799-8.423 7.942-9.582-11.567 8.655-8.174zm-49.226-3.007l12.596-1.003v9.716l-12.673 1.311.077-10.024zm60.74-101.174l10.277 1.465v6.863l-10.355-1.233.078-7.095zm45.206 50.279l14.064.848v10.873l-14.219-.463.155-11.258z" fill="#F7F7F7"/></g><defs><clipPath id="clip0_2_20177"><path fill="#fff" d="M0 0h438v404H0z"/></clipPath></defs></svg>