<svg width="453" height="358" fill="none" xmlns="http://www.w3.org/2000/svg"><g clip-path="url(#clip0_38_10798)"><path fill-rule="evenodd" clip-rule="evenodd" d="M391.083 122.588c0-.455.325-.781.78-.781.456 0 .781.326.781.781v36.914h37.528c.455 0 .78.325.78.781s-.325.781-.78.781h-37.528v41.666h37.528c.455 0 .78.325.78.781s-.325.781-.78.781h-37.528v44.27h37.528c.455 0 .78.326.78.781 0 .456-.325.782-.78.782h-37.528v41.665h37.528c.455 0 .78.326.78.782a.752.752 0 01-.78.781h-37.528v33.528a.751.751 0 01-.781.781c-.455 0-.78-.325-.78-.781v-33.528h-41.04v33.528a.751.751 0 01-.781.781c-.455 0-.78-.325-.78-.781v-33.528h-42.015v33.528a.752.752 0 01-.781.781c-.455 0-.78-.325-.78-.781v-33.528h-41.04v33.528a.752.752 0 01-.781.781c-.455 0-.78-.325-.78-.781v-33.528h-43.577v33.528c0 .456-.325.781-.78.781a.752.752 0 01-.781-.781v-33.528h-41.04v33.528c0 .456-.325.781-.78.781a.752.752 0 01-.781-.781v-33.528h-36.487a.752.752 0 01-.78-.781c0-.456.325-.782.78-.782h36.487v-41.665h-36.487c-.455 0-.78-.326-.78-.782 0-.455.325-.781.78-.781h36.487v-44.27h-36.487c-.455 0-.78-.325-.78-.781s.325-.781.78-.781h36.487v-41.666h-36.487c-.455 0-.78-.325-.78-.781s.325-.781.78-.781h36.487v-36.914c0-.455.326-.781.781-.781s.78.326.78.781v36.914h41.04v-36.914c0-.455.326-.781.781-.781s.78.326.78.781v36.914h43.577v-36.914c0-.455.325-.781.78-.781s.781.326.781.781v36.914h41.04v-36.914c0-.455.325-.781.78-.781s.781.326.781.781v36.914h42.015v-36.914c0-.455.325-.781.78-.781.456 0 .781.326.781.781v36.914h41.04v-36.914zm0 169.333v-41.666h-41.04v41.666h41.04zm-42.666 0v-41.666h-42.016v41.666h42.016zm-43.576 0v-41.666h-41.04v41.666h41.04zm-42.601 0v-41.666h-43.577v41.666h43.577zm-45.203 0v-41.666h-41.04v41.666h41.04zm174.046-43.294v-44.27h-41.04v44.27h41.04zm-42.666 0v-44.27h-42.016v44.27h42.016zm-43.576 0v-44.27h-41.04v44.27h41.04zm-42.601 0v-44.27h-43.577v44.27h43.577zm-45.203 0v-44.27h-41.04v44.27h41.04zm174.046-45.832v-41.666h-41.04v41.666h41.04zm-42.666 0v-41.666h-42.016v41.666h42.016zm-43.576 0v-41.666h-41.04v41.666h41.04zm-42.601 0v-41.666h-43.577v41.666h43.577zm-45.203 0v-41.666h-41.04v41.666h41.04z" fill="#E1E2E1"/><path fill-rule="evenodd" clip-rule="evenodd" d="M354.076 128.383h.13c.26 0 .911-1.237 1.301-1.693.065-.065.325-.521.39-.586v.651c0 .195-.195 4.557-.26 4.752-.13.391-1.106.196-1.106.521 0 .196.521.261.716.261h.195c.455-.065 2.081-.261 2.081-.391 0-.26-.845-.325-1.235-.391.065-.39.13-.911.13-1.302.065-1.171.13-2.343.39-3.515v-.456c0-.456-.065-.846-.651-.846-.195 0-.325.065-.455.26-.52.977-1.04 1.888-1.626 2.735zm43.642-.196c0-1.172.78-2.343 1.626-2.343.325 0 .715.13.715.39 0 .261-.195.716-.325.912-.716 1.041-1.496 1.953-2.212 2.994-.325.521-.585 1.042-.91 1.563-.065.065-.065.13-.065.195 0 .195.195.391.455.391.065 0 .13 0 .195-.065a1.763 1.763 0 011.106-.391c.26 0 .585.065.846.195.065 0 .195.065.26.065h.13c.585-.26.975-.651 1.236-1.237v-.13c-.521.261-.911 1.107-1.431 1.107h-.065c-.456-.13-.846-.326-1.301-.326 0 0-.065-.065-.065-.13 0-.13.13-.26.195-.325.78-1.042 1.496-2.149 2.276-3.19.195-.261.325-.651.325-.977 0-.781-.52-1.302-1.3-1.302-1.171 0-1.821 1.432-1.952 2.409 0 .195.131.456.196.456s.065-.261.065-.261zm-42.471 43.163h.13c.325 0 .65-.195.975-.39.456-.326.651-.716.651-1.172 0-.781-.391-1.563-.781-2.148-.13-.131-.13-.261-.13-.391 0-.326.52-1.237.52-1.758 0-.586-.585-.976-1.17-.976-.391 0-.976.325-.976.781 0 .26.065.586.195.846.195.456.651 1.107.651 1.498 0 .065 0 .13-.065.26-.326.586-.586 1.237-.911 1.823-.13.195-.195.39-.195.586-.065.586.39 1.041 1.106 1.041zm.91-1.497c0 .586-.39 1.237-1.171 1.237-.325 0-.585-.326-.585-.716 0-.13 0-.195.065-.326.325-.586.651-1.237.976-1.823 0-.065.065-.065.065-.065.065 0 .065 0 .13.065.325.521.455 1.042.52 1.628zm.065-4.167c-.065.196-.195 1.042-.455 1.042-.195 0-.716-1.237-.716-1.497 0-.391.326-.391.456-.391.455 0 .715.391.715.846zm43.706-.39c0-.261-.325-.586-.52-.586s-.26.195-.391.521c-.325-.456-.715-.782-1.04-.782-.716 0-1.106 1.042-1.106 1.954 0 .651.325 1.497.911 1.497.52 0 .585-.391 1.04-1.237 0 0 .065-.065.13-.065.13 0 .13.456.13.846v.326c0 .976-.13 2.083-.78 2.929-.195.196-.52.456-.715.456-.261 0-.391-.26-.391-.651 0-.325.195-.586.391-.846v-.065h-.196c-.325.26-.39.52-.39.911 0 .521.26.911.781.911.26 0 .52-.13.78-.325 1.236-.846 1.431-2.083 1.431-3.776-.065-.781-.065-1.367-.065-2.018zm-1.171.976c-.26.391-.39 1.367-.91 1.367-.391 0-.651-.976-.651-1.367 0-.781.456-1.562.911-1.562.325 0 .585.39.585.39.13.261.195.456.195.717 0 .13-.065.26-.13.455zm-88.128 3.907v.585c0 .326.13.651.52.651.261 0 .326-.195.326-.39v-.261c.065-.39.065-.781.195-1.171.065-.196.065-.261.26-.261s.39.065.65.065c0 0 .065-.065.065-.13v-.065c-.585-.326-.78-.26-.78-.521 0-.13.065-.26.13-.456.26-.976.65-1.888.845-2.864v-.261c0-.52-.845-.651-1.56-.651-.391 0-.846.066-1.236.196-.325.065-.456.26-.456.651 0 .39 0 .716.066 1.107 0 .065.13.065.13.13v-.13c0-.912-.065-1.303.52-1.433.325-.065.65-.13.976-.13.195 0 .65 0 .65.26 0 .131-.065.326-.13.456-.325 1.042-.586 2.084-.911 3.125-.065.326-.26.391-.585.391h-.52c-.065 0-.261 0-.261.065 0 .13.456.195.586.195h.325c.26 0 .325.195.325.456-.13.13-.13.26-.13.391zm-130.078-5.144c0-.195.065-.52-.195-.651-.13 0-.195.261-.195.391-.131 1.107-.456 2.148-.846 3.255-.065.065-.065.13-.065.195 0 .066.065.131.26.131.39 0 .846-.065 1.301-.131.195 0 .325.066.325.326 0 .716-.13 1.497-.13 2.213 0 .261.13.586.455.586.326 0 .326-.455.326-.716.065-.521.065-1.041.195-1.562l.39-1.758c0-.13.065-.26.065-.391 0-.26-.26-.716-.52-.716-.195 0-.196.196-.196.326-.13.325-.26 1.497-.65 1.497-.13 0-.325-.065-.455-.065-.26 0-.455.065-.586.065-.195 0-.26-.065-.26-.13 0-.13.065-.26.13-.586.196-.716.456-1.432.651-2.279zm43.705 1.888c-.065.326-.065.586-.065.847 0 .26.13.455.326.455.325 0 .715-.716 1.235-.716.326 0 .651.261.651.586 0 1.042-.26 1.953-.976 2.735-.13.13-.325.26-.455.26s-.195-.13-.195-.326c0-.455.26-.846.52-1.237 0 0 0-.065-.065-.065h-.065c-.39.326-.585.782-.585 1.237 0 .391.13.651.39.651h.195c.976-.26 1.626-1.757 1.626-2.864 0-.716-.325-1.042-1.041-1.042-.195 0-.39 0-.52.13-.065 0-.13.066-.13.066-.065 0-.065 0-.065-.066 0-.325.195-.716.195-1.041 0-.586.39-.912.846-1.172.39-.195.78-.521 1.235-.521.26 0 .391.195.391.456 0 .195-.066.39-.066.586 0 .065 0 .13.066.13.26 0 .39-.456.39-.586 0-.456-.456-.781-.846-.781-.195 0-.455.065-.65.195-.52.26-1.301.846-1.561.846h-.195c-.065 0-.195.066-.195.196-.195.13-.26.586-.391 1.041zm-84.225 2.409c-.195.651-.39 2.279-1.561 2.279-.26 0-.325-.261-.325-.521 0-.195.065-.456.325-.586v-.065c0-.065-.065-.065-.13-.065-.325 0-.455.325-.455.651 0 .456.26.781.65.781.195 0 .325-.065.52-.195.846-.391 1.301-1.433 1.301-2.279 0-.521-.195-1.237-.78-1.367-.195-.065-.26-.065-.26-.13s0-.13.13-.261c.325-.586 1.04-1.367 1.04-2.083 0-.651-.325-1.042-.78-1.042-.846 0-1.561 1.042-1.561 1.758 0 .196.065.391.195.391.065 0 .13-.065.13-.065 0-.13-.065-.196-.065-.326 0-.586.716-1.432 1.171-1.432.195 0 .26.195.26.325 0 .131-.065.261-.13.391-.455.912-.976 1.693-1.496 2.604-.065.065-.065.13-.065.196 0 .195.195.39.39.39s.52-.39.846-.39c.455 0 .585.325.65 1.041zm214.045 41.275h.13c.26 0 .911-1.237 1.301-1.692.065-.065.325-.521.39-.586v.651c0 .195-.195 4.557-.26 4.752-.13.391-1.106.196-1.106.521 0 .195.521.26.716.26h.195c.455-.065 2.081-.26 2.081-.39 0-.261-.845-.326-1.236-.391.066-.39.131-.911.131-1.302.065-1.172.13-2.343.39-3.515v-.456c0-.456-.065-.846-.651-.846-.195 0-.325.065-.455.26-.52.977-1.04 1.888-1.626 2.734zm4.618-.455c-.065.325-.065.586-.065.846s.13.456.325.456c.325 0 .716-.716 1.236-.716.325 0 .65.26.65.585 0 1.042-.26 1.954-.975 2.735-.13.13-.326.26-.456.26s-.195-.13-.195-.325c0-.456.26-.847.521-1.237 0 0 0-.065-.065-.065h-.065a1.601 1.601 0 00-.586 1.237c0 .39.13.651.39.651h.196c.975-.261 1.626-1.758 1.626-2.865 0-.716-.326-1.042-1.041-1.042-.195 0-.39 0-.52.131-.065 0-.131.065-.131.065-.065 0-.065 0-.065-.065 0-.326.196-.716.196-1.042 0-.586.39-.911.845-1.172.39-.195.781-.521 1.236-.521.26 0 .39.196.39.456 0 .195-.065.391-.065.586 0 .065 0 .065.065.065.26 0 .39-.456.39-.586 0-.456-.455-.781-.845-.781-.195 0-.456.065-.651.195-.52.261-1.3.847-1.561.847h-.195c-.065 0-.195.065-.195.195-.195.195-.26.651-.39 1.107zm38.113.455h.13c.26 0 .91-1.237 1.301-1.692.065-.065.325-.521.39-.586v.651c0 .195-.195 4.557-.26 4.752-.13.391-1.106.196-1.106.521 0 .195.52.26.715.26h.195c.456-.065 2.082-.26 2.082-.39 0-.261-.846-.326-1.236-.391.065-.39.13-.911.13-1.302.065-1.172.13-2.343.39-3.515v-.456c0-.456-.065-.846-.65-.846-.195 0-.325.065-.455.26-.521.977-1.041 1.888-1.626 2.734zm4.487 1.107c0 .716.391 2.865 2.212 2.865.78 0 1.301-1.368 1.301-2.149 0-.781-.521-1.367-1.366-1.367-.391 0-.716.13-1.041.326-.065.065-.195.13-.26.195 0-.13-.065-.195-.065-.326v-.065c.065-.521.13-1.041.26-1.562.195-.651.455-1.628 1.171-1.628.91 0 .715 1.628.91 1.628.325-.065.26-.326.26-.521 0-.586-.325-1.432-1.04-1.432-.651 0-1.236.195-1.561.846-.52.846-.781 1.823-.781 3.19zm1.041.912c.195-.847.52-1.368 1.171-1.368.52 0 1.17.456 1.17 1.172 0 .586-.585 1.823-1.17 1.823-.13 0-.26-.065-.456-.195-.455-.326-.715-.781-.715-1.432zm-135.868-2.019h.13c.26 0 .91-1.237 1.301-1.692.065-.065.325-.521.39-.586v.651c0 .195-.195 4.557-.26 4.752-.13.391-1.106.196-1.106.521 0 .195.52.26.715.26h.196c.455-.065 2.081-.26 2.081-.39 0-.261-.846-.326-1.236-.391.065-.39.13-.911.13-1.302.065-1.172.13-2.343.39-3.515v-.456c0-.456-.065-.846-.65-.846-.195 0-.325.065-.455.26-.521.977-1.041 1.888-1.626 2.734zm6.504 1.953c-.195.651-.391 2.279-1.561 2.279-.26 0-.325-.26-.325-.521 0-.195.065-.456.325-.586v-.065c0-.065-.065-.065-.13-.065-.325 0-.456.326-.456.651 0 .456.261.781.651.781.195 0 .325-.065.52-.195.846-.391 1.301-1.432 1.301-2.279 0-.52-.195-1.237-.781-1.367-.195-.065-.26-.065-.26-.13s0-.13.13-.26c.326-.586 1.041-1.368 1.041-2.084 0-.651-.325-1.041-.78-1.041-.846 0-1.561 1.041-1.561 1.757 0 .196.065.391.195.391.065 0 .13-.065.13-.065 0-.13-.065-.195-.065-.326 0-.585.715-1.432 1.17-1.432.196 0 .261.196.261.326s-.065.26-.13.39c-.456.912-.976 1.693-1.496 2.604-.065.066-.065.131-.065.196 0 .195.195.39.39.39s.52-.39.845-.39c.456.065.586.39.651 1.041zm36.228-1.953h.13c.26 0 .911-1.237 1.301-1.692.065-.065.325-.521.39-.586v.651c0 .195-.195 4.557-.26 4.752-.13.391-1.105.196-1.105.521 0 .195.52.261.715.261h.195c.455-.066 2.081-.261 2.081-.391 0-.261-.845-.326-1.235-.391.065-.39.13-.911.13-1.302.065-1.172.13-2.343.39-3.515v-.456c0-.456-.065-.846-.651-.846-.195 0-.325.065-.455.26-.52.977-1.04 1.888-1.626 2.734zm5.594-2.278c0-.196.065-.521-.196-.651-.13 0-.195.26-.195.39-.13 1.107-.455 2.149-.845 3.255-.065.066-.065.131-.065.196s.065.13.26.13c.39 0 .845-.065 1.301-.13.195 0 .325.065.325.325 0 .716-.13 1.498-.13 2.214 0 .26.13.586.455.586s.325-.456.325-.716c.065-.521.065-1.042.195-1.563l.391-1.758c0-.13.065-.26.065-.39 0-.261-.26-.716-.521-.716-.195 0-.195.195-.195.325-.13.326-.26 1.497-.65 1.497-.13 0-.325-.065-.455-.065-.261 0-.456.065-.586.065-.195 0-.26-.065-.26-.13 0-.13.065-.26.13-.586.195-.716.455-1.432.651-2.278zm-135.479 2.278h.131c.26 0 .91-1.237 1.3-1.692.065-.065.326-.521.391-.586v.651c0 .195-.196 4.557-.261 4.752-.13.391-1.105.196-1.105.521 0 .195.52.261.715.261h.195c.456-.066 2.082-.261 2.082-.391 0-.261-.846-.326-1.236-.391.065-.39.13-.911.13-1.302.065-1.172.13-2.343.39-3.515v-.456c0-.456-.065-.846-.65-.846-.195 0-.325.065-.456.26-.585.977-1.105 1.888-1.626 2.734zm4.293 0h.13c.26 0 .911-1.237 1.301-1.692.065-.065.325-.521.39-.586v.651c0 .195-.195 4.557-.26 4.752-.13.391-1.106.196-1.106.521 0 .195.521.261.716.261h.195c.455-.066 2.081-.261 2.081-.391 0-.261-.845-.326-1.236-.391.065-.39.13-.911.13-1.302.065-1.172.131-2.343.391-3.515v-.456c0-.456-.065-.846-.651-.846-.195 0-.325.065-.455.26-.52.977-1.041 1.888-1.626 2.734zm40.389 0h.13c.26 0 .911-1.237 1.301-1.692.065-.065.325-.521.39-.586v.651c0 .195-.195 4.557-.26 4.752-.13.391-1.106.196-1.106.521 0 .195.521.261.716.261h.195c.455-.066 2.081-.261 2.081-.391 0-.261-.845-.326-1.236-.391.065-.39.131-.911.131-1.302.065-1.172.13-2.343.39-3.515v-.456c0-.456-.065-.846-.651-.846-.195 0-.325.065-.455.26-.52.977-1.106 1.888-1.626 2.734zm5.203-.195c0-1.172.781-2.344 1.626-2.344.325 0 .716.131.716.391s-.195.716-.326.911c-.715 1.042-1.495 1.953-2.211 2.995-.325.521-.585 1.042-.91 1.563-.065.065-.065.13-.065.195 0 .195.195.391.455.391.065 0 .13 0 .195-.066.325-.26.715-.39 1.106-.39.26 0 .585.065.845.195.065 0 .195.065.26.065h.13c.586-.26.976-.651 1.236-1.237v-.13c-.52.26-.91 1.107-1.431 1.107h-.065c-.455-.13-.845-.326-1.301-.326 0 0-.065-.065-.065-.13s.13-.26.195-.325c.781-1.042 1.496-2.149 2.277-3.19.195-.261.325-.651.325-.977 0-.781-.52-1.302-1.301-1.302-1.17 0-1.821 1.432-1.951 2.409 0 .195.13.455.195.455s.065-.26.065-.26zm-91.314.195h.13c.26 0 .91-1.237 1.301-1.692.065-.065.325-.521.39-.586v.651c0 .195-.195 4.557-.26 4.752-.13.391-1.106.196-1.106.521 0 .195.52.261.715.261h.196c.455-.066 2.081-.261 2.081-.391 0-.261-.846-.326-1.236-.391.065-.39.13-.911.13-1.302.065-1.172.13-2.343.39-3.515v-.456c0-.456-.065-.846-.65-.846-.195 0-.325.065-.455.26-.586.977-1.106 1.888-1.626 2.734zm7.87.716c0-.325.065-.651.065-.976 0-1.042-.521-2.604-1.496-2.604-.846 0-1.561.976-1.691 1.758-.13.716-.261 1.367-.261 2.083 0 .716.131 1.497.586 2.083.325.456.845.912 1.431.912.975.065 1.3-2.019 1.366-3.256zm-.261.521c0 1.042-.585 2.539-1.17 2.539-.195 0-.391-.13-.586-.325-.52-.586-.65-1.432-.65-2.214 0-.976.195-1.888.325-2.799.065-.521.52-1.042.846-1.042.195 0 .39.13.585.261.585.52.65 1.692.65 2.604v.976zm209.558 44.205c0-1.172.78-2.344 1.626-2.344.325 0 .715.131.715.391s-.195.716-.325.911c-.716 1.042-1.496 1.953-2.212 2.995-.325.521-.585 1.042-.91 1.563-.065.065-.065.13-.065.195 0 .195.195.391.455.391.065 0 .13 0 .195-.066.325-.26.716-.39 1.106-.39.26 0 .585.065.845.195.065 0 .196.065.261.065h.13c.585-.26.975-.651 1.235-1.237v-.13c-.52.26-.91 1.107-1.43 1.107h-.065c-.456-.13-.846-.326-1.301-.326 0 0-.065-.065-.065-.13 0-.13.13-.26.195-.325.78-1.042 1.496-2.149 2.276-3.19.195-.261.325-.651.325-.977 0-.781-.52-1.302-1.3-1.302-1.171 0-1.821 1.432-1.952 2.409 0 .195.13.455.196.455.065-.065.065-.325.065-.26zm5.008 0c0-1.172.78-2.344 1.626-2.344.325 0 .715.131.715.391s-.195.716-.325.911c-.716 1.042-1.496 1.953-2.212 2.995-.325.521-.585 1.042-.91 1.563-.065.065-.065.13-.065.195 0 .195.195.391.455.391.065 0 .13 0 .195-.066.325-.26.716-.39 1.106-.39.26 0 .585.065.845.195.066 0 .196.065.261.065h.13c.585-.26.975-.651 1.235-1.237v-.13c-.52.26-.91 1.107-1.43 1.107h-.065c-.456-.13-.846-.326-1.301-.326 0 0-.065-.065-.065-.13 0-.13.13-.26.195-.325.78-1.042 1.496-2.149 2.276-3.19.195-.261.325-.651.325-.977 0-.781-.52-1.302-1.3-1.302-1.171 0-1.821 1.432-1.952 2.409 0 .195.131.455.196.455.065-.065.065-.325.065-.26zm37.658 0c0-1.172.78-2.344 1.626-2.344.325 0 .715.131.715.391s-.195.716-.325.911c-.716 1.042-1.496 1.953-2.212 2.995-.325.521-.585 1.042-.91 1.563-.065.065-.065.13-.065.195 0 .195.195.39.455.39.065 0 .13 0 .195-.065.325-.26.716-.39 1.106-.39.26 0 .585.065.845.195.066 0 .196.065.261.065h.13c.585-.26.975-.651 1.235-1.237v-.13c-.52.26-.91 1.107-1.43 1.107h-.065c-.456-.13-.846-.326-1.301-.326 0 0-.065-.065-.065-.13 0-.13.13-.26.195-.325.78-1.042 1.496-2.149 2.276-3.19a1.76 1.76 0 00.325-.977c0-.781-.52-1.302-1.3-1.302-1.171 0-1.822 1.432-1.952 2.409 0 .195.131.455.196.455.065-.065.065-.325.065-.26zm6.308 2.083c-.195.651-.39 2.279-1.561 2.279-.26 0-.325-.261-.325-.521 0-.195.065-.456.325-.586v-.065c0-.065-.065-.065-.13-.065-.325 0-.455.325-.455.651 0 .456.26.781.651.781.195 0 .325-.065.52-.195.845-.391 1.301-1.432 1.301-2.279 0-.521-.195-1.237-.781-1.367-.195-.065-.26-.065-.26-.13s0-.13.13-.26c.325-.586 1.041-1.368 1.041-2.084 0-.651-.325-1.041-.781-1.041-.845 0-1.561 1.041-1.561 1.757 0 .196.065.391.195.391.065 0 .13-.065.13-.065 0-.13-.065-.195-.065-.326 0-.586.716-1.432 1.171-1.432.195 0 .26.195.26.326 0 .13-.065.26-.13.39-.455.912-.975 1.693-1.496 2.604-.065.065-.065.131-.065.196 0 .195.195.39.391.39.195 0 .52-.39.845-.39.455.065.52.39.65 1.041zm-136.584-2.083c0-1.172.781-2.344 1.626-2.344.325 0 .716.131.716.391s-.196.716-.326.911c-.715 1.042-1.495 1.954-2.211 2.995-.325.521-.585 1.042-.91 1.563-.066.065-.066.13-.066.195 0 .195.196.391.456.391.065 0 .13 0 .195-.066.325-.26.715-.39 1.106-.39.26 0 .585.065.845.195.065 0 .195.065.26.065h.13c.586-.26.976-.651 1.236-1.237v-.13c-.52.26-.91 1.107-1.431 1.107h-.065c-.455-.13-.845-.326-1.301-.326 0 0-.065-.065-.065-.13 0-.13.13-.26.195-.325.781-1.042 1.496-2.149 2.277-3.19.195-.261.325-.651.325-.977 0-.781-.52-1.302-1.301-1.302-1.17 0-1.821 1.432-1.951 2.409 0 .195.13.455.195.455.065-.065.065-.325.065-.26zm7.675.846c0-.325.065-.651.065-.976 0-1.042-.52-2.604-1.496-2.604-.846 0-1.561.976-1.691 1.758-.13.716-.26 1.367-.26 2.083 0 .716.13 1.497.585 2.083.325.456.846.912 1.431.912.911.065 1.301-2.019 1.366-3.256zm-.26.521c0 1.042-.586 2.539-1.171 2.539-.195 0-.39-.13-.585-.325-.521-.586-.651-1.433-.651-2.214 0-.976.195-1.888.325-2.799.065-.521.521-1.042.846-1.042.195 0 .39.13.585.261.586.52.651 1.692.651 2.604v.976zm35.251-1.367c0-1.172.781-2.344 1.626-2.344.325 0 .716.131.716.391s-.195.716-.326.911c-.715 1.042-1.495 1.953-2.211 2.995-.325.521-.585 1.042-.91 1.563-.065.065-.065.13-.065.195 0 .195.195.391.455.391.065 0 .13 0 .195-.066.325-.26.715-.39 1.106-.39.26 0 .585.065.845.195.065 0 .195.065.26.065h.13c.586-.26.976-.651 1.236-1.237v-.13c-.52.26-.91 1.107-1.431 1.107h-.065c-.455-.13-.845-.326-1.301-.326 0 0-.065-.065-.065-.13 0-.13.13-.26.195-.325.781-1.042 1.496-2.149 2.277-3.19a1.76 1.76 0 00.325-.977c0-.781-.52-1.302-1.301-1.302-1.17 0-1.821 1.432-1.951 2.409 0 .195.13.455.195.455.065-.065.065-.325.065-.26zm4.098.13h.13c.26 0 .91-1.237 1.301-1.692.065-.066.325-.521.39-.586v.651c0 .195-.195 4.557-.26 4.752-.13.391-1.106.195-1.106.521 0 .195.52.26.715.26h.196c.455-.065 2.081-.26 2.081-.39 0-.261-.846-.326-1.236-.391.065-.39.13-.911.13-1.302.065-1.172.13-2.344.39-3.515v-.456c0-.456-.065-.846-.65-.846-.195 0-.325.065-.455.26-.521.976-1.041 1.888-1.626 2.734zm-134.892 0h.131c.26 0 .91-1.237 1.3-1.692.065-.066.326-.521.391-.586v.651c0 .195-.196 4.557-.261 4.752-.13.391-1.105.196-1.105.521 0 .195.52.26.715.26h.195c.456-.065 2.082-.26 2.082-.39 0-.261-.846-.326-1.236-.391.065-.39.13-.911.13-1.302.065-1.172.13-2.344.39-3.515v-.456c0-.456-.065-.846-.65-.846-.195 0-.325.065-.456.26-.585.976-1.105 1.888-1.626 2.734zm5.399 4.037h.13c.325 0 .65-.196.975-.391.456-.325.651-.716.651-1.172 0-.781-.39-1.562-.781-2.148-.13-.13-.13-.261-.13-.391 0-.325.521-1.237.521-1.758 0-.586-.586-.976-1.171-.976-.39 0-.976.325-.976.781 0 .26.065.586.195.846.195.456.651 1.107.651 1.498 0 .065 0 .13-.065.26-.325.586-.586 1.237-.911 1.823-.13.195-.195.391-.195.586 0 .586.455 1.042 1.106 1.042zm.91-1.498c0 .586-.39 1.237-1.17 1.237-.326 0-.586-.325-.586-.716 0-.13 0-.195.065-.325.325-.586.651-1.237.976-1.823 0-.065.065-.065.13-.065s.065 0 .13.065c.26.455.39 1.041.455 1.627zm.065-4.231c-.065.195-.195 1.041-.455 1.041-.195 0-.715-1.237-.715-1.497 0-.391.325-.391.455-.391.52 0 .715.456.715.847zm38.308 1.692h.13c.26 0 .911-1.237 1.301-1.692.065-.066.325-.521.39-.586v.651c0 .195-.195 4.557-.26 4.752-.13.391-1.106.196-1.106.521 0 .195.521.26.716.26h.195c.455-.065 2.081-.26 2.081-.39 0-.261-.845-.326-1.236-.391.065-.39.131-.911.131-1.302.065-1.172.13-2.344.39-3.515v-.456c0-.456-.065-.846-.651-.846-.195 0-.325.065-.455.26-.52.976-1.106 1.888-1.626 2.734zm7.415-2.018c0-.26-.326-.586-.521-.586s-.26.195-.39.521c-.325-.456-.715-.781-1.041-.781-.715 0-1.105 1.041-1.105 1.953 0 .651.325 1.497.91 1.497.521 0 .586-.39 1.041-1.237 0 0 .065-.065.13-.065.13 0 .13.456.13.846v.326c0 .977-.13 2.083-.78 2.93-.196.195-.521.455-.716.455-.26 0-.39-.26-.39-.651 0-.325.195-.586.39-.846v-.065h-.195c-.325.26-.39.521-.39.911 0 .521.26.912.78.912.26 0 .521-.13.781-.326 1.236-.846 1.431-2.083 1.431-3.776-.065-.781-.065-1.432-.065-2.018zm-1.171.977c-.26.39-.39 1.367-.911 1.367-.39 0-.65-.977-.65-1.367 0-.782.455-1.563.91-1.563.326 0 .586.391.586.391.13.26.195.455.195.716 0 .13-.065.26-.13.456zm-92.355 1.041h.13c.26 0 .91-1.237 1.301-1.692.065-.066.325-.521.39-.586v.651c0 .195-.195 4.557-.26 4.752-.13.391-1.106.195-1.106.521 0 .195.52.26.715.26h.196c.455-.065 2.081-.26 2.081-.39 0-.261-.846-.326-1.236-.391.065-.39.13-.911.13-1.302.065-1.172.13-2.344.39-3.515v-.456c0-.456-.065-.846-.65-.846-.195 0-.325.065-.455.26-.586.976-1.106 1.888-1.626 2.734zm5.593 2.735v.585c0 .326.13.652.52.652.261 0 .326-.196.326-.391v-.261c.065-.39.065-.781.195-1.171.065-.196.065-.261.26-.261s.39.065.65.065c0 0 .065-.065.065-.13v-.065c-.585-.325-.78-.26-.78-.521 0-.13.065-.26.13-.456.26-.976.65-1.888.845-2.864v-.26c0-.521-.845-.651-1.56-.651-.391 0-.846.065-1.236.195-.325.065-.455.26-.455.651 0 .39 0 .716.065 1.107 0 .065.13.065.13.13v-.13c0-.912-.13-1.302.52-1.433.325-.065.65-.13.976-.13.195 0 .65 0 .65.261 0 .13-.065.325-.13.455-.325 1.042-.585 2.084-.911 3.125-.065.326-.26.391-.585.391h-.52c-.13 0-.261 0-.261.065 0 .13.456.195.586.195h.325c.26 0 .325.196.325.456-.065.195-.13.325-.13.391zm211.574 39.908c0-1.172.78-2.344 1.626-2.344.325 0 .715.13.715.39 0 .261-.195.717-.325.912-.716 1.042-1.496 1.953-2.212 2.995-.325.52-.585 1.041-.91 1.562-.065.065-.065.13-.065.195 0 .196.195.391.455.391.065 0 .13 0 .195-.065a1.763 1.763 0 011.106-.391c.26 0 .585.065.845.196.065 0 .196.065.261.065h.13a2.302 2.302 0 001.235-1.237v-.13c-.52.26-.91 1.106-1.43 1.106h-.065c-.456-.13-.846-.325-1.301-.325 0 0-.065-.065-.065-.13 0-.066.13-.261.195-.326.78-1.042 1.496-2.148 2.276-3.19.195-.26.325-.651.325-.977 0-.781-.52-1.302-1.3-1.302-1.171 0-1.821 1.433-1.952 2.409 0 .196.13.456.196.456.065-.065.065-.326.065-.26zm7.219-1.888c0-.261-.325-.586-.52-.586s-.261.195-.391.52c-.325-.455-.715-.781-1.04-.781-.716 0-1.106 1.042-1.106 1.953 0 .651.325 1.498.911 1.498.52 0 .585-.391 1.04-1.237 0 0 .065-.065.13-.065.13 0 .13.455.13.846v.325c0 .977-.13 2.084-.78 2.93-.195.195-.52.456-.715.456-.261 0-.391-.261-.391-.651 0-.326.195-.586.391-.847v-.065h-.196c-.325.261-.39.521-.39.912 0 .521.26.911.781.911.26 0 .52-.13.78-.325 1.236-.847 1.431-2.084 1.431-3.776-.065-.781-.065-1.367-.065-2.018zm-1.171.976c-.26.391-.39 1.367-.91 1.367-.391 0-.651-.976-.651-1.367 0-.781.456-1.562.911-1.562.325 0 .585.39.585.39.13.261.195.456.195.716 0 .131-.065.326-.13.456zm37.853 3.06c-.195.651-.39 2.279-1.561 2.279-.26 0-.325-.261-.325-.521 0-.196.065-.456.325-.586v-.065c0-.065-.065-.065-.13-.065-.325 0-.455.325-.455.651 0 .455.26.781.65.781.195 0 .325-.065.52-.195.846-.391 1.301-1.433 1.301-2.279 0-.521-.195-1.237-.78-1.367-.195-.065-.26-.065-.26-.13 0-.066 0-.131.13-.261.325-.586 1.04-1.367 1.04-2.083 0-.651-.325-1.042-.78-1.042-.846 0-1.561 1.042-1.561 1.758 0 .195.065.391.195.391.065 0 .13-.065.13-.131 0-.13-.065-.195-.065-.325 0-.586.715-1.432 1.171-1.432.195 0 .26.195.26.325s-.065.261-.13.391c-.456.911-.976 1.692-1.496 2.604-.065.065-.065.13-.065.195a.42.42 0 00.39.391c.195 0 .52-.391.846-.391.52.065.585.391.65 1.107zm5.268-1.302c0-.326.065-.651.065-.977 0-1.041-.52-2.604-1.496-2.604-.845 0-1.561.977-1.691 1.758-.13.716-.26 1.367-.26 2.083 0 .716.13 1.498.585 2.084.326.455.846.911 1.431.911.976.065 1.301-1.953 1.366-3.255zm-.26.586c0 1.041-.585 2.539-1.171 2.539-.195 0-.39-.13-.585-.326-.52-.586-.65-1.432-.65-2.213 0-.977.195-1.888.325-2.8.065-.52.52-1.041.845-1.041.195 0 .39.13.586.26.585.521.65 1.693.65 2.604v.977zm-136.519-1.432c0-1.172.781-2.344 1.626-2.344.325 0 .716.13.716.39 0 .261-.196.717-.326.912-.715 1.042-1.495 1.953-2.211 2.995-.325.52-.585 1.041-.91 1.562-.066.065-.066.13-.066.195 0 .196.196.391.456.391.065 0 .13 0 .195-.065a1.761 1.761 0 011.106-.391c.26 0 .585.065.845.196.065 0 .195.065.26.065h.13a2.3 2.3 0 001.236-1.237v-.13c-.52.26-.91 1.106-1.431 1.106h-.065c-.455-.13-.845-.325-1.301-.325 0 0-.065-.065-.065-.13 0-.066.13-.261.195-.326.781-1.042 1.496-2.148 2.277-3.19.195-.26.325-.651.325-.976 0-.782-.52-1.303-1.301-1.303-1.17 0-1.821 1.433-1.951 2.409 0 .196.13.456.195.456.065-.065.065-.326.065-.26zm5.398 2.929v.586c0 .326.131.651.521.651.26 0 .325-.195.325-.391v-.26c.065-.391.065-.781.195-1.172.065-.195.065-.26.26-.26s.391.065.651.065c0 0 .065-.065.065-.13v-.065c-.586-.326-.781-.261-.781-.521 0-.13.065-.261.13-.456.26-.976.651-1.888.846-2.864v-.261c0-.521-.846-.651-1.561-.651-.39 0-.846.065-1.236.195-.325.066-.455.261-.455.651 0 .391 0 .717.065 1.107 0 .065.13.065.13.13v-.13c0-.911-.065-1.302.52-1.432.325-.065.651-.13.976-.13.195 0 .65 0 .65.26 0 .13-.065.326-.13.456-.325 1.042-.585 2.083-.91 3.125-.065.325-.261.39-.586.39h-.52c-.065 0-.26 0-.26.066 0 .13.455.195.585.195h.325c.261 0 .326.195.326.456-.131.13-.131.26-.131.39zm37.268-2.929c0-1.172.781-2.344 1.626-2.344.325 0 .716.13.716.39 0 .261-.195.717-.326.912-.715 1.042-1.495 1.953-2.211 2.995-.325.52-.585 1.041-.91 1.562-.065.065-.065.13-.065.195 0 .196.195.391.455.391.065 0 .13 0 .195-.065a1.761 1.761 0 011.106-.391c.26 0 .585.065.845.196.065 0 .195.065.26.065h.13a2.3 2.3 0 001.236-1.237v-.13c-.52.26-.91 1.106-1.431 1.106h-.065c-.455-.13-.845-.325-1.301-.325 0 0-.065-.065-.065-.13 0-.066.13-.261.195-.326.781-1.042 1.496-2.148 2.277-3.19.195-.26.325-.651.325-.977 0-.781-.52-1.302-1.301-1.302-1.17 0-1.821 1.433-1.951 2.409 0 .196.13.456.195.456.065-.065.065-.326.065-.26zm5.203 4.166h.13c.326 0 .651-.195.976-.391.455-.325.65-.716.65-1.171 0-.782-.39-1.563-.78-2.149-.13-.13-.13-.26-.13-.39 0-.326.52-1.237.52-1.758 0-.586-.585-.977-1.171-.977-.39 0-.975.326-.975.782 0 .26.065.585.195.846.195.456.65 1.107.65 1.497 0 .065 0 .13-.065.261-.325.586-.585 1.237-.91 1.823-.13.195-.195.39-.195.585 0 .586.455 1.042 1.105 1.042zm.911-1.497c0 .586-.39 1.237-1.171 1.237-.325 0-.585-.326-.585-.716 0-.131 0-.196.065-.326.325-.586.65-1.237.975-1.823 0-.065.066-.065.066-.065.065 0 .065 0 .13.065.325.521.52 1.042.52 1.628zm.065-4.167c-.065.196-.195 1.042-.455 1.042-.195 0-.716-1.237-.716-1.498 0-.39.325-.39.456-.39.52 0 .715.39.715.846zm-136.062 1.498c0-1.172.781-2.344 1.626-2.344.326 0 .716.13.716.39 0 .261-.195.717-.325.912-.716 1.042-1.496 1.953-2.212 2.995-.325.52-.585 1.041-.91 1.562-.065.065-.065.13-.065.195 0 .196.195.391.455.391.065 0 .13 0 .195-.065a1.763 1.763 0 011.106-.391c.26 0 .585.065.845.196.065 0 .195.065.26.065h.131a2.302 2.302 0 001.235-1.237v-.13c-.52.26-.91 1.106-1.431 1.106h-.065c-.455-.13-.845-.325-1.3-.325 0 0-.065-.065-.065-.13 0-.066.13-.261.195-.326.78-1.042 1.496-2.148 2.276-3.19.195-.26.325-.651.325-.976 0-.782-.52-1.303-1.301-1.303-1.17 0-1.821 1.433-1.951 2.409 0 .196.13.456.195.456.065-.065.065-.326.065-.26zm4.358-.261c-.065.326-.065.586-.065.846 0 .261.13.456.325.456.325 0 .716-.716 1.236-.716.325 0 .65.26.65.586 0 1.042-.26 1.953-.975 2.734-.13.13-.325.261-.456.261-.13 0-.195-.131-.195-.326 0-.456.261-.846.521-1.237 0 0 0-.065-.065-.065h-.065a1.603 1.603 0 00-.586 1.237c0 .391.13.651.39.651h.196c.975-.26 1.626-1.758 1.626-2.864 0-.717-.326-1.042-1.041-1.042-.195 0-.39 0-.52.13-.065 0-.13.065-.13.065-.065 0-.065 0-.065-.065 0-.325.195-.716.195-1.041 0-.586.39-.912.845-1.172.39-.196.781-.521 1.236-.521.26 0 .39.195.39.456 0 .195-.065.39-.065.586 0 .065 0 .065.065.065.26 0 .39-.456.39-.586 0-.456-.455-.782-.845-.782-.195 0-.455.066-.651.196-.52.26-1.3.846-1.56.846h-.196c-.065 0-.195.065-.195.195-.195.196-.26.651-.39 1.107zm40.324.261c0-1.172.781-2.344 1.626-2.344.325 0 .715.13.715.39 0 .261-.195.717-.325.912-.715 1.042-1.496 1.953-2.211 2.995-.325.52-.585 1.041-.911 1.562-.065.065-.065.13-.065.195 0 .196.195.391.456.391.065 0 .13 0 .195-.065a1.76 1.76 0 011.105-.391c.261 0 .586.065.846.196.065 0 .195.065.26.065h.13a2.3 2.3 0 001.236-1.237v-.13c-.52.26-.911 1.106-1.431 1.106h-.065c-.455-.13-.846-.325-1.301-.325 0 0-.065-.065-.065-.13 0-.066.13-.261.195-.326.781-1.042 1.496-2.148 2.277-3.19.195-.26.325-.651.325-.977 0-.781-.52-1.302-1.301-1.302-1.171 0-1.821 1.433-1.951 2.409 0 .196.13.456.195.456.065-.065.065-.326.065-.26zm4.293 1.302c0 .716.39 2.864 2.211 2.864.78 0 1.301-1.367 1.301-2.148 0-.782-.521-1.367-1.366-1.367-.39 0-.715.13-1.041.325-.065.065-.195.13-.26.195 0-.13-.065-.195-.065-.325v-.065c.065-.521.13-1.042.26-1.563.195-.651.456-1.627 1.171-1.627.911 0 .715 1.627.911 1.627.325-.065.26-.325.26-.521 0-.585-.326-1.432-1.041-1.432-.65 0-1.236.196-1.561.847-.52.846-.78 1.757-.78 3.19zm.975.911c.195-.846.521-1.367 1.171-1.367.52 0 1.171.456 1.171 1.172 0 .586-.586 1.823-1.171 1.823-.13 0-.26-.066-.455-.196-.456-.325-.716-.781-.716-1.432zm-91.379-2.213c0-1.172.78-2.344 1.626-2.344.325 0 .715.13.715.39 0 .261-.195.717-.325.912-.716 1.042-1.496 1.953-2.211 2.995-.326.52-.586 1.041-.911 1.562-.065.065-.065.13-.065.195 0 .196.195.391.455.391.065 0 .13 0 .195-.065a1.765 1.765 0 011.106-.391c.26 0 .585.065.846.196.065 0 .195.065.26.065h.13a2.307 2.307 0 001.236-1.237v-.13c-.521.26-.911 1.106-1.431 1.106h-.065c-.456-.13-.846-.325-1.301-.325 0 0-.065-.065-.065-.13 0-.066.13-.261.195-.326.78-1.042 1.496-2.148 2.276-3.19.195-.26.326-.651.326-.976 0-.782-.521-1.303-1.301-1.303-1.171 0-1.821 1.433-1.951 2.409 0 .196.13.456.195.456.065-.065.065-.326.065-.26zm5.333-2.149c0-.195.065-.521-.195-.651-.13 0-.195.261-.195.391-.13 1.106-.456 2.148-.846 3.255-.065.065-.065.13-.065.195s.065.13.26.13c.391 0 .846-.065 1.301-.13.195 0 .325.065.325.326 0 .716-.13 1.497-.13 2.213 0 .261.13.586.455.586.326 0 .326-.456.326-.716.065-.521.065-1.042.195-1.562l.39-1.758c0-.13.065-.261.065-.391 0-.26-.26-.716-.52-.716-.195 0-.195.195-.195.326-.13.325-.261 1.497-.651 1.497-.13 0-.325-.065-.455-.065-.26 0-.455.065-.585.065-.195 0-.261-.065-.261-.13 0-.131.066-.261.131-.586.195-.716.52-1.367.65-2.279z" fill="#CBCCCD"/><path fill-rule="evenodd" clip-rule="evenodd" d="M340.417 13.086l-39.934 32.551 17.691 14.323 19.316 15.56h-24.78l-19.251-15.625-11.382-9.18-10.537 24.739h-18.666c-8.585 0-15.545-6.966-15.545-15.56h23.935l3.902-9.179H229.98c-8.585 0-15.544-6.966-15.544-15.56h57.299l3.903-9.179h-68.617c-8.585 0-15.544-6.966-15.544-15.56h95.738c4.162 0 7.739 3.255 7.935 7.422.065 1.302-.196 2.474-.716 3.516l-5.853 13.736 31.804-25.91 2.732-2.214.39-.26c.26-.26.455-.651.455-1.107 0-.912-.78-1.628-1.691-1.628h-1.301l1.106-4.101h31.089c1.105 0 1.626 1.432.78 2.148l-13.528 11.068z" fill="#E1E2E1"/><path fill-rule="evenodd" clip-rule="evenodd" d="M136.128 109.568v4.817h-.585v-4.817h.585zm2.277 0h-2.342v.521h2.342v-.521zm.52 0v4.817h-.585v-4.817h.585zm2.602 1.302c.39 0 .715.065.91.195.26.13.39.326.52.586.131.261.131.586.131 1.042 0 .456-.065.781-.131 1.041-.13.261-.26.456-.52.586-.26.131-.52.196-.91.196-.391 0-.716-.065-.911-.196-.26-.13-.39-.325-.52-.586-.13-.26-.13-.585-.13-1.041 0-.456.065-.781.13-1.042.13-.26.26-.456.52-.586.195-.13.52-.195.911-.195zm0 .521a1.3 1.3 0 00-.586.13.665.665 0 00-.325.391c-.065.195-.065.455-.065.781 0 .325 0 .586.065.781.065.195.13.326.325.391.13.065.325.13.586.13.26 0 .455-.065.585-.13a.668.668 0 00.325-.391c.065-.195.065-.456.065-.781 0-.326 0-.586-.065-.781-.065-.196-.13-.326-.325-.391s-.39-.13-.585-.13zm3.056-.391v3.385h-.585V111h.585zm1.822 1.367h-1.887v.456h1.887v-.456zm.52-1.367v3.385h-.585V111h.585zm2.471-.13c.521 0 .846.065 1.106.26.195.196.325.456.325.847 0 .325-.065.521-.195.716-.13.195-.325.26-.585.26h-1.951v-.455h1.821c.13 0 .26-.066.26-.131.065-.13.065-.195.065-.325 0-.196-.065-.391-.195-.456s-.325-.13-.651-.13c-.26 0-.455.065-.585.13a.665.665 0 00-.325.391c-.065.195-.065.455-.065.781 0 .391.065.651.13.846a.665.665 0 00.325.391c.13.065.39.13.65.13h.586c.195 0 .39-.065.585-.065l.065.391c-.13.065-.26.065-.39.13-.13 0-.325.065-.455.065h-.456c-.39 0-.715-.065-.91-.195-.26-.131-.39-.326-.52-.586-.131-.261-.131-.586-.131-1.042 0-.456.066-.781.131-1.042.13-.26.26-.455.52-.52.195-.326.455-.391.845-.391zm4.943.13v.456h-1.17c-.26 0-.391.13-.391.39 0 .326-.065.652-.13.912-.065.325-.13.586-.26.846-.13.261-.26.521-.455.781h-.52c.195-.26.325-.52.455-.846.13-.26.195-.586.26-.911.065-.326.065-.586.13-.912 0-.26.065-.455.26-.586.13-.13.325-.195.586-.195h1.235V111zm-2.601 3.385h-.455v1.042h.39l.065-1.042zm3.187-.455h-3.577v.455h3.577v-.455zm0 .455v1.042h-.39l-.066-1.042h.456zm-.456-3.385h-.585v3.385h.585V111zm2.602-.13c.52 0 .846.065 1.106.26.195.196.325.456.325.847 0 .325-.065.521-.195.716-.13.195-.325.26-.586.26h-1.951v-.455h1.821c.13 0 .261-.066.261-.131.065-.13.065-.195.065-.325 0-.196-.065-.391-.196-.456-.13-.065-.325-.13-.65-.13-.26 0-.455.065-.585.13a.67.67 0 00-.326.391c-.065.195-.065.455-.065.781 0 .391.065.651.131.846a.665.665 0 00.325.391c.13.065.39.13.65.13h.585c.196 0 .391-.065.586-.065l.065.391c-.13.065-.26.065-.39.13-.13 0-.326.065-.456.065h-.455c-.39 0-.715-.065-.91-.195-.261-.131-.391-.326-.521-.586-.13-.261-.13-.586-.13-1.042 0-.456.065-.781.13-1.042.13-.26.26-.455.521-.52.195-.326.455-.391.845-.391zm5.008.13v.456h-1.236c-.13 0-.26 0-.325.065a.497.497 0 00-.13.325c0 .196-.065.391-.065.652 0 .195-.065.39-.13.651-.065.195-.065.39-.13.52-.065.196-.13.326-.195.391-.065.13-.195.195-.325.26-.131.065-.326.065-.456.065l-.065-.455c.13-.065.195-.065.325-.13.065-.066.131-.066.196-.131s.065-.13.13-.195c.065-.13.065-.26.13-.391 0-.13.065-.325.065-.455s.065-.326.065-.456 0-.26.065-.391c0-.26.13-.455.26-.586.13-.13.325-.195.65-.195h1.171zm.13 0h-.585v3.385h.585V111zm2.407 1.302c.325 0 .585.065.78.13a.67.67 0 01.39.326c.065.13.13.391.13.651s-.065.521-.13.651a.666.666 0 01-.39.325c-.195.066-.455.066-.715.066h-1.431l.065-.456h1.236c.195 0 .325 0 .455-.065s.195-.065.26-.196c.065-.065.065-.195.065-.39 0-.13 0-.261-.065-.326l-.195-.195c-.13-.065-.26-.065-.455-.065h-1.301v-.456h1.301zm-.781-1.302h-.585v3.385h.585V111zm3.577 0v3.385h-.585V111h.585zm1.821 1.367h-1.886v.456h1.886v-.456zm.521-1.367v3.385h-.586V111h.586zm4.032 0v3.385h-.52v-2.734c0 .065-.065.13-.13.195-.065.066-.065.131-.13.196l-1.691 2.343h-.456V111h.521v2.734c.065-.065.065-.13.13-.195s.065-.13.13-.195l1.691-2.344h.455zm3.903 0a4.487 4.487 0 01-.196.521c-.065.195-.13.325-.195.456-.065.13-.13.26-.195.325s-.195.13-.26.196c-.13.065-.26.065-.39.13.13 0 .26.065.39.13s.195.13.26.195.195.196.26.326.13.325.195.455c.066.196.131.391.261.651h-.586l-.195-.585c-.065-.196-.13-.326-.195-.456s-.13-.195-.195-.326c-.065-.065-.195-.13-.26-.195-.13-.065-.195-.065-.39-.065v-.456c.195 0 .325 0 .39-.065.13-.065.195-.13.325-.26.065-.131.195-.261.26-.456s.13-.391.26-.586h.456V111zm-2.212 0v1.367c0 .131-.065.196-.065.326s.065.195.065.325v1.498h-.585v-3.386h.585V111zm.651 1.367h-.846v.456h.846v-.456zm11.707-2.864c.39 0 .715.065.91.13.26.065.391.195.521.391.13.195.13.455.13.781 0 .325-.065.586-.195.781-.131.195-.326.26-.586.326.325.065.586.13.716.39.13.196.195.521.195.912 0 .325-.065.586-.13.781-.13.195-.26.325-.456.39-.195.066-.52.131-.845.131h-1.236c-.195 0-.325 0-.52-.065l.065-.521h1.561c.26 0 .455 0 .585-.065.13-.065.26-.131.325-.261s.065-.325.065-.521c0-.26 0-.455-.065-.585-.065-.131-.195-.261-.325-.261-.13-.065-.39-.065-.65-.065h-1.496v-.456h1.496c.26 0 .39 0 .52-.065s.26-.13.26-.26c.065-.13.065-.261.065-.521 0-.195 0-.391-.065-.521s-.195-.195-.325-.26-.325-.065-.585-.065h-1.366l-.065-.521c.13 0 .325 0 .455-.065h.455c.13.065.326.065.586.065zm-.976.065h-.585v4.817h.585v-4.817zm5.073 1.432v3.385h-.585V111h.585zm1.236 0h-2.992v.521h2.992V111zm2.081-.13c.39 0 .716.065.911.195.26.13.39.326.52.586.13.261.13.586.13 1.042 0 .456-.065.781-.13 1.041-.13.261-.26.456-.52.586-.26.131-.521.196-.911.196s-.715-.065-.91-.196c-.26-.13-.391-.325-.521-.586-.13-.26-.13-.585-.13-1.041 0-.456.065-.781.13-1.042.13-.26.261-.456.521-.586.195-.13.52-.195.91-.195zm0 .521c-.26 0-.455.065-.585.13a.665.665 0 00-.325.391c-.065.195-.065.455-.065.781 0 .325 0 .586.065.781.065.195.13.326.325.391.13.065.325.13.585.13.26 0 .456-.065.586-.13a.668.668 0 00.325-.391c.065-.195.065-.456.065-.781 0-.326 0-.586-.065-.781-.065-.196-.13-.326-.325-.391a1.303 1.303 0 00-.586-.13zm4.423-.521c.39 0 .715.13.91.456.196.325.261.781.261 1.367 0 .456-.065.781-.13 1.041-.066.261-.261.456-.391.586a1.302 1.302 0 01-.715.196c-.195 0-.455 0-.651-.065-.195-.066-.39-.131-.65-.261l.065-.325c.195.065.39.13.585.13.196.065.326.065.521.065s.325-.065.455-.13.195-.196.26-.391.065-.456.065-.781c0-.326 0-.586-.065-.781-.065-.196-.13-.326-.26-.391s-.26-.13-.455-.13-.39.065-.521.13c-.195.065-.39.195-.65.391l-.065-.391c.13-.13.26-.26.39-.325a.735.735 0 01.521-.196c.195-.13.39-.195.52-.195zm-1.431.13h-.455v4.818h.585v-4.037l-.065-.065-.065-.716zm4.098 0v3.385h-.586V111h.586zm1.821 1.367h-1.887v.456h1.887v-.456zm.52-1.367v3.385h-.585V111h.585zm4.032 0v3.385h-.52v-2.734c0 .065-.065.13-.13.195-.065.066-.065.131-.13.196l-1.691 2.343h-.455V111h.52v2.734c.065-.065.065-.13.13-.195s.065-.13.13-.195l1.691-2.344h.455zm3.903 0c-.065.195-.13.391-.195.521-.065.195-.13.325-.195.456-.066.13-.131.26-.196.325s-.195.13-.26.196c-.13.065-.26.065-.39.13.13 0 .26.065.39.13s.195.13.26.195.196.196.261.326.13.325.195.455c.065.196.13.391.26.651h-.586l-.195-.585c-.065-.196-.13-.326-.195-.456s-.13-.195-.195-.326c-.065-.065-.195-.13-.26-.195-.13-.065-.195-.065-.39-.065v-.456c.195 0 .325 0 .39-.065.13-.065.195-.13.325-.26.065-.131.195-.261.26-.456s.13-.391.26-.586h.456V111zm-2.212 0v1.367c0 .131-.065.196-.065.326s.065.195.065.325v1.498h-.585v-3.386h.585V111zm.651 1.367h-.846v.456h.846v-.456zm21.073-2.864h.52c.13 0 .26 0 .39.065.13 0 .26.065.39.065l-.065.456c-.13 0-.26 0-.39-.065h-.845c-.326 0-.521.065-.716.195a.946.946 0 00-.39.586c-.065.26-.13.651-.13 1.172 0 .521.065.846.13 1.172.065.26.195.455.39.585.195.131.39.196.716.196h.715c.195 0 .39 0 .585-.065l.065.455c-.195.065-.39.065-.585.131-.195 0-.455.065-.78.065-.456 0-.846-.065-1.106-.261-.26-.195-.455-.39-.585-.781-.131-.391-.196-.846-.196-1.497 0-.586.065-1.107.196-1.498.13-.39.325-.651.585-.781.26-.13.65-.195 1.106-.195zm4.097 1.367c.39 0 .716.13.911.456.195.325.26.781.26 1.367 0 .456-.065.781-.13 1.041-.065.261-.26.456-.391.586a1.302 1.302 0 01-.715.196c-.195 0-.455 0-.65-.065-.195-.066-.391-.131-.651-.261l.065-.325c.195.065.391.13.586.13.195.065.325.065.52.065s.325-.065.455-.13.195-.196.26-.391.065-.456.065-.781c0-.326 0-.586-.065-.781-.065-.196-.13-.326-.26-.391s-.26-.13-.455-.13-.39.065-.52.13c-.195.065-.391.195-.651.391l-.065-.391c.13-.13.26-.26.39-.325a.739.739 0 01.521-.196c.195-.13.39-.195.52-.195zm-1.431.13h-.455v4.818h.585v-4.037l-.065-.065-.065-.716zm4.943-.13c.521 0 .846.065 1.106.26.195.196.325.456.325.847 0 .325-.065.521-.195.716-.13.195-.325.26-.585.26h-1.952v-.455h1.822c.13 0 .26-.066.26-.131.065-.13.065-.195.065-.325 0-.196-.065-.391-.195-.456s-.326-.13-.651-.13c-.26 0-.455.065-.585.13a.665.665 0 00-.325.391c-.065.195-.065.455-.065.781 0 .391.065.651.13.846a.665.665 0 00.325.391c.13.065.39.13.65.13h.586c.195 0 .39-.065.585-.065l.065.391c-.13.065-.26.065-.39.13-.13 0-.325.065-.455.065h-.456c-.39 0-.715-.065-.91-.195-.26-.131-.391-.326-.521-.586-.13-.261-.13-.586-.13-1.042 0-.456.065-.781.13-1.042.13-.26.261-.455.521-.52.195-.326.455-.391.845-.391zm4.943.13v.456h-1.17c-.261 0-.391.13-.391.39 0 .326-.065.652-.13.912-.065.325-.13.586-.26.846-.13.261-.26.521-.455.781h-.521c.196-.26.326-.52.456-.846.13-.26.195-.586.26-.911.065-.326.065-.586.13-.912 0-.26.065-.455.26-.586.13-.13.325-.195.585-.195h1.236V111zm-2.601 3.385h-.456v1.042h.391l.065-1.042zm3.122-.455h-3.578v.455h3.578v-.455zm0 .455v1.042h-.391l-.065-1.042h.456zm-.456-3.385h-.585v3.385h.585V111zm2.862-.13c.26 0 .455.065.65.13a.663.663 0 01.391.326c.065.13.13.39.13.651v2.408h-.456l-.065-.716-.065-.065v-1.627c0-.196-.065-.391-.13-.456s-.26-.13-.52-.13h-.65c-.261 0-.521.065-.781.065l-.065-.456c.13 0 .325-.065.52-.065s.391-.065.586-.065c.13.065.325 0 .455 0zm.911 1.432h-1.691c-.326 0-.521.065-.716.196-.195.13-.26.325-.26.651v.39c0 .195.065.391.13.521s.195.26.325.325c.13.066.325.131.521.131.195 0 .325 0 .52-.065.13-.066.325-.131.455-.196s.26-.195.325-.26.195-.13.195-.195v-.521c-.13.13-.26.26-.455.39-.195.131-.325.196-.52.196-.195.065-.325.065-.455.065-.196 0-.326-.065-.391-.13-.065-.066-.13-.196-.13-.391v-.195c0-.131.065-.261.13-.326a.497.497 0 01.326-.13h1.626l.065-.456zm21.723-2.734v1.823c0 .26.065.39.13.521.13.13.26.13.52.13.195 0 .325 0 .52-.065.131 0 .326-.065.456-.131.195-.065.325-.13.52-.26l.065.456c-.195.13-.39.26-.585.325l-.586.196c-.195.065-.39.065-.52.065-.39 0-.65-.065-.78-.261-.196-.195-.261-.455-.261-.846v-1.953h.521zm2.731 0h-.585v4.817h.585v-4.817zm2.472 1.302c.52 0 .845.065 1.106.26.195.196.325.456.325.847 0 .325-.065.521-.195.716-.13.195-.326.26-.586.26h-1.951v-.455h1.821c.13 0 .26-.066.26-.131.065-.13.065-.195.065-.325 0-.196-.065-.391-.195-.456s-.325-.13-.65-.13c-.26 0-.455.065-.585.13a.663.663 0 00-.326.391c-.065.195-.065.455-.065.781 0 .391.065.651.13.846a.666.666 0 00.326.391c.13.065.39.13.65.13h.585c.195 0 .391-.065.586-.065l.065.391c-.13.065-.26.065-.39.13-.131 0-.326.065-.456.065h-.455c-.39 0-.715-.065-.911-.195-.26-.131-.39-.326-.52-.586-.13-.261-.13-.586-.13-1.042 0-.456.065-.781.13-1.042.13-.26.26-.455.52-.52.196-.326.521-.391.846-.391zm3.642.13v3.385h-.585V111h.585zm1.236 0h-2.992v.521h2.992V111zm2.081-.065c.325 0 .651 0 .846.065.195.065.325.13.455.261.065.13.13.325.13.585 0 .261-.065.456-.195.521-.13.131-.325.196-.585.196.325 0 .52.13.65.26s.195.391.195.651-.065.391-.13.521-.26.195-.455.26-.456.065-.781.065h-1.496l.065-.455h1.366c.195 0 .39 0 .52-.065.131 0 .196-.066.261-.196.065-.065.065-.195.065-.325 0-.196-.065-.391-.195-.456-.131-.065-.326-.13-.651-.13h-1.366v-.456h1.366c.195 0 .325 0 .455-.065.131 0 .196-.065.261-.13s.065-.196.065-.326 0-.26-.065-.325-.13-.13-.261-.13c-.13 0-.325-.066-.52-.066h-1.236l-.065-.455h.781c.13.195.325.195.52.195zm-.78.065h-.521v3.385h.521V111zm4.617-.13c.521 0 .846.065 1.106.26.195.196.325.456.325.847 0 .325-.065.521-.195.716-.13.195-.325.26-.585.26h-1.951v-.455h1.821c.13 0 .26-.066.26-.131.065-.13.065-.195.065-.325 0-.196-.065-.391-.195-.456s-.325-.13-.651-.13c-.26 0-.455.065-.585.13a.665.665 0 00-.325.391c-.065.195-.065.455-.065.781 0 .391.065.651.13.846a.665.665 0 00.325.391c.13.065.39.13.651.13h.585c.195 0 .39-.065.585-.065l.065.391c-.13.065-.26.065-.39.13-.13 0-.325.065-.455.065h-.455c-.391 0-.716-.065-.911-.195-.26-.131-.39-.326-.52-.586-.13-.261-.13-.586-.13-1.042 0-.456.065-.781.13-1.042.13-.26.26-.455.52-.52.195-.326.455-.391.845-.391zm4.228 0c.39 0 .715.13.911.456.195.325.26.781.26 1.367 0 .456-.065.781-.13 1.041-.065.261-.26.456-.391.586a1.302 1.302 0 01-.715.196c-.195 0-.455 0-.65-.065-.196-.066-.391-.131-.651-.261l.065-.325c.195.065.39.13.586.13.195.065.325.065.52.065s.325-.065.455-.13.195-.196.26-.391.065-.456.065-.781c0-.326 0-.586-.065-.781-.065-.196-.13-.326-.26-.391s-.26-.13-.455-.13-.39.065-.52.13c-.196.065-.391.195-.651.391l-.065-.391c.13-.13.26-.26.39-.325a.737.737 0 01.521-.196c.195-.13.39-.195.52-.195zm-1.431.13h-.455v4.818h.585v-4.037l-.065-.065-.065-.716zm4.293 0h.91c.326 0 .586 0 .846.065v.391h-1.496c-.13 0-.26.065-.325.13s-.065.195-.065.326v2.539h-.586v-2.67c0-.26.065-.455.195-.52.065-.261.261-.261.521-.261zm15.349-1.432v4.817h-.585v-4.817h.585zm2.276 0h-2.341v.521h2.341v-.521zm.586 0v4.817h-.651v-4.817h.651zm2.276 1.367h1.496l-.065.456h-1.366c-.26 0-.456.065-.586.13-.065.065-.13.26-.13.456 0 .26.065.39.13.521.065.13.26.13.586.13h1.366v.455h-1.431c-.13 0-.261 0-.391.066-.13.065-.195.13-.195.26l-.26.911h-.585l.325-1.041c0-.13.065-.196.13-.261s.13-.13.26-.13c.065 0 .195-.065.26-.065-.195 0-.325-.065-.455-.13s-.195-.195-.26-.326c-.065-.13-.065-.26-.065-.455 0-.131 0-.326.065-.456s.13-.261.195-.326.195-.13.39-.195c.13.065.325 0 .586 0zm1.496.065h-.586v3.385h.586V111zm2.536 0v3.385h-.585V111h.585zm1.171 0h-2.992v.521h2.992V111zm1.301 0v3.385h-.586V111h.586zm1.821 1.367h-1.886v.456h1.886v-.456zm.52-1.367v3.385h-.585V111h.585zm4.032 0v3.385h-.52v-2.734c0 .065-.065.13-.13.195-.065.066-.065.131-.13.196l-1.691 2.343h-.455V111h.52v2.734c.065-.065.065-.13.13-.195s.065-.13.13-.195l1.691-2.344h.455zm1.691 0v3.385h-.585V111h.585zm2.732 2.93h-2.732v.455h2.732v-.455zm-.455-2.93v3.385h-.585V111h.585zm.455 3.385v1.042h-.39l-.065-1.042h.455zm2.407-3.515c.26 0 .455.065.65.13a.664.664 0 01.39.326c.065.13.13.39.13.651v2.408h-.455l-.065-.716-.065-.065v-1.627c0-.196-.065-.391-.13-.456s-.26-.13-.52-.13h-.651c-.26 0-.52.065-.78.065l-.065-.456c.13 0 .325-.065.52-.065s.39-.065.585-.065c.065.065.26 0 .456 0zm.845 1.432h-1.691c-.325 0-.52.065-.715.196-.195.13-.261.325-.261.651v.39c0 .195.066.391.131.521s.195.26.325.325c.13.066.325.131.52.131s.325 0 .52-.065c.13-.066.326-.131.456-.196s.26-.195.325-.26.195-.13.195-.195v-.521c-.13.13-.26.26-.455.39-.195.131-.325.196-.521.196-.195.065-.325.065-.455.065-.195 0-.325-.065-.39-.13-.065-.066-.13-.196-.13-.391v-.195c0-.131.065-.261.13-.326a.497.497 0 01.325-.13h1.626l.065-.456zm19.967-2.799h.521c.13 0 .26 0 .39.065.13 0 .26.065.39.065l-.065.456c-.13 0-.26 0-.39-.065h-.846c-.325 0-.52.065-.715.195a.946.946 0 00-.39.586c-.065.26-.13.651-.13 1.172 0 .521.065.846.13 1.172.065.26.195.455.39.585.195.131.39.196.715.196h.716c.195 0 .39 0 .585-.065l.065.455c-.195.065-.39.065-.585.131-.195 0-.456.065-.781.065-.455 0-.845-.065-1.105-.261-.261-.195-.456-.39-.586-.781-.13-.391-.195-.846-.195-1.497 0-.586.065-1.107.195-1.498.13-.39.325-.651.586-.781.26-.13.65-.195 1.105-.195zm5.073 1.497l-1.366 3.581c-.065.13-.065.195-.13.325l-.195.391c-.065.13-.195.195-.26.325-.195.131-.39.196-.585.261h-.651l.065-.391h.456c.13 0 .26-.065.39-.13l.26-.26.195-.391.195-.391c.065-.065.065-.195.13-.325s.065-.195.13-.326l.911-2.539h.455V111zm-2.731 0h-.651l1.236 3.255c0 .065.065.065.065.13 0 .066.065.066.13.066h.195l.195-.456h-.13c0-.065-.065-.13-.065-.195 0-.066-.065-.131-.065-.196l-.91-2.604zm6.178-1.758l.13.456-.39.195c-.13.066-.26.065-.325.131-.13 0-.195.065-.325.065s-.26.065-.39.065c-.261.065-.391.13-.521.26s-.195.261-.26.391-.13.325-.13.456c0 .13 0 .195-.065.325v.195c.065-.065.065-.195.13-.26s.13-.195.195-.26c.065-.066.195-.131.39-.196.131-.065.326-.065.521-.065.325 0 .585.065.78.195.195.131.325.261.39.521a3.9 3.9 0 01.131.977c0 .39-.065.651-.131.911-.065.261-.26.456-.455.586-.195.13-.52.195-.975.195-.261 0-.521-.065-.716-.13-.195-.065-.325-.195-.455-.325s-.195-.261-.26-.456-.065-.391-.13-.586v-.716c0-.391 0-.716.065-.977 0-.26.065-.52.195-.781.065-.195.195-.39.39-.521.195-.13.39-.26.65-.325.131-.065.261-.065.391-.13.13 0 .26-.065.39-.065s.26-.066.39-.131c.13.131.26.065.39 0zm-1.235 2.344c-.26 0-.456.065-.651.13a.44.44 0 00-.26.391c-.065.195-.065.391-.065.651 0 .325 0 .586.065.716.065.195.13.326.325.391.13.065.326.13.521.13s.39-.065.52-.13a.44.44 0 00.26-.391c.065-.195.065-.456.065-.716 0-.326 0-.521-.065-.716-.065-.196-.13-.261-.26-.326 0-.065-.195-.13-.455-.13zm5.138-2.344l.13.456-.39.195c-.13.066-.261.065-.326.131-.13 0-.195.065-.325.065s-.26.065-.39.065c-.26.065-.39.13-.52.26s-.195.261-.26.391c-.066.13-.131.325-.131.456 0 .13 0 .195-.065.325v.195c.065-.065.065-.195.13-.26.066-.065.131-.195.196-.26.065-.066.195-.131.39-.196.13-.065.325-.065.52-.065.325 0 .586.065.781.195.195.131.325.261.39.521.065.261.13.586.13.977 0 .39-.065.651-.13.911-.065.261-.26.456-.455.586-.196.13-.521.195-.976.195-.26 0-.52-.065-.715-.13-.196-.065-.326-.195-.456-.325s-.195-.261-.26-.456-.065-.391-.13-.586v-.716c0-.391 0-.716.065-.977 0-.26.065-.52.195-.781.065-.195.195-.39.39-.521.196-.13.391-.26.651-.325.13-.065.26-.065.39-.13.13 0 .26-.065.39-.065s.26-.066.391-.131c.13.131.26.065.39 0zm-1.171 2.344c-.26 0-.455.065-.65.13a.44.44 0 00-.26.391c-.066.195-.066.391-.066.651 0 .325 0 .586.066.716.065.195.13.326.325.391.13.065.325.13.52.13s.39-.065.52-.13a.441.441 0 00.261-.391c.065-.195.065-.456.065-.716 0-.326 0-.521-.065-.716-.066-.196-.131-.261-.261-.326-.065-.065-.195-.13-.455-.13zm3.837-.716c.391 0 .716.065.911.195.26.13.39.326.52.586.13.261.13.586.13 1.042 0 .456-.065.781-.13 1.041-.13.261-.26.456-.52.586-.26.131-.52.196-.911.196-.39 0-.715-.065-.91-.196-.26-.13-.39-.325-.52-.586-.131-.26-.131-.585-.131-1.041 0-.456.065-.781.131-1.042.13-.26.26-.456.52-.586.26-.13.52-.195.91-.195zm0 .521c-.26 0-.455.065-.585.13a.665.665 0 00-.325.391c-.065.195-.065.455-.065.781 0 .325 0 .586.065.781.065.195.13.326.325.391.13.065.325.13.585.13a1.3 1.3 0 00.586-.13.668.668 0 00.325-.391c.065-.195.065-.456.065-.781 0-.326 0-.586-.065-.781-.065-.196-.13-.326-.325-.391a1.3 1.3 0 00-.586-.13zm3.903-.391v3.385h-.586V111h.586zm1.236 0h-2.992v.521h2.992V111zm2.276-.13c.26 0 .455.065.65.13a.669.669 0 01.391.326c.065.13.13.39.13.651v2.408h-.456l-.065-.716-.065-.065v-1.627c0-.196-.065-.391-.13-.456s-.26-.13-.52-.13h-.651c-.26 0-.52.065-.78.065l-.065-.456c.13 0 .325-.065.52-.065s.391-.065.586-.065c.13.065.325 0 .455 0zm.91 1.432h-1.691c-.325 0-.52.065-.715.196-.195.13-.26.325-.26.651v.39c0 .195.065.391.13.521s.195.26.325.325c.13.066.325.131.52.131.196 0 .326 0 .521-.065.13-.066.325-.131.455-.196s.26-.195.325-.26.195-.13.195-.195v-.521c-.13.13-.26.26-.455.39-.195.131-.325.196-.52.196-.195.065-.325.065-.456.065-.195 0-.325-.065-.39-.13-.065-.066-.13-.196-.13-.391v-.195c0-.131.065-.261.13-.326a.497.497 0 01.325-.13h1.626l.065-.456zm19.837-2.799c.391 0 .716.065.911.13.26.065.39.195.52.391.13.195.13.455.13.781 0 .325-.065.586-.195.781-.13.195-.325.26-.585.326.325.065.585.13.715.39.13.196.196.521.196.912 0 .325-.066.586-.131.781-.13.195-.26.325-.455.39-.195.066-.52.131-.845.131h-1.236c-.195 0-.325 0-.52-.065l.065-.521h1.561c.26 0 .455 0 .585-.065.13-.065.26-.131.325-.261s.065-.325.065-.521c0-.26 0-.455-.065-.585-.065-.131-.195-.261-.325-.261-.13-.065-.39-.065-.65-.065h-1.561v-.456h1.495c.261 0 .391 0 .521-.065s.26-.13.26-.26c.065-.13.065-.261.065-.521 0-.195 0-.391-.065-.521s-.195-.195-.325-.26-.325-.065-.586-.065h-1.365l-.065-.521c.13 0 .325 0 .455-.065h.455c.195.065.39.065.65.065zm-.975.065h-.585v4.817h.585v-4.817zm5.073 1.302c.39 0 .715.065.911.195.26.13.39.326.52.586.13.261.13.586.13 1.042 0 .456-.065.781-.13 1.041-.13.261-.26.456-.52.586-.261.131-.521.196-.911.196s-.715-.065-.911-.196c-.26-.13-.39-.325-.52-.586-.13-.26-.13-.585-.13-1.041 0-.456.065-.781.13-1.042.13-.26.26-.456.52-.586.196-.13.521-.195.911-.195zm0 .521c-.26 0-.455.065-.585.13a.666.666 0 00-.326.391c-.065.195-.065.455-.065.781 0 .325 0 .586.065.781.065.195.131.326.326.391.13.065.325.13.585.13.26 0 .455-.065.585-.13a.67.67 0 00.326-.391c.065-.195.065-.456.065-.781 0-.326 0-.586-.065-.781-.065-.196-.131-.326-.326-.391s-.39-.13-.585-.13zm3.902-.521h.326c.13 0 .26 0 .39.065.13 0 .26.065.39.13l-.065.391h-.911c-.26 0-.455.065-.65.13a.665.665 0 00-.325.391 2.426 2.426 0 000 1.562.668.668 0 00.325.391c.13.065.39.13.65.13h.651c.13 0 .26 0 .39-.065l.065.39c-.195.066-.325.131-.52.131s-.39.065-.586.065c-.39 0-.715-.065-.91-.196-.26-.13-.39-.325-.52-.585-.131-.261-.13-.586-.13-1.042 0-.456.065-.781.13-1.042.13-.26.26-.455.52-.586.065-.195.39-.26.78-.26zm4.748.13c-.065.195-.13.391-.195.521-.065.195-.13.325-.195.456-.065.13-.13.26-.195.325s-.195.13-.26.196c-.13.065-.26.065-.391.13.131 0 .261.065.391.13s.195.13.26.195.195.196.26.326.13.325.195.455c.065.196.13.391.26.651h-.585l-.195-.585c-.065-.196-.13-.326-.195-.456s-.13-.195-.195-.326c-.065-.065-.195-.13-.261-.195-.13-.065-.195-.065-.39-.065v-.456c.195 0 .325 0 .39-.065.131-.065.196-.13.326-.26.065-.131.195-.261.26-.456s.13-.391.26-.586h.455V111zm-2.211 0v1.367c0 .131-.065.196-.065.326s.065.195.065.325v1.498h-.585v-3.386h.585V111zm.65 1.367h-.845v.456h.845v-.456zm4.358-1.497c.39 0 .715.13.91.456.196.325.261.781.261 1.367 0 .456-.065.781-.13 1.041-.065.261-.261.456-.391.586a1.302 1.302 0 01-.715.196c-.195 0-.455 0-.651-.065-.195-.066-.39-.131-.65-.261l.065-.325c.195.065.39.13.585.13.196.065.326.065.521.065s.325-.065.455-.13.195-.196.26-.391.065-.456.065-.781c0-.326 0-.586-.065-.781-.065-.196-.13-.326-.26-.391s-.26-.13-.455-.13-.39.065-.521.13c-.195.065-.39.195-.65.391l-.065-.391c.13-.13.26-.26.39-.325a.737.737 0 01.521-.196c.195-.13.39-.195.52-.195zm-1.431.13h-.455v4.818h.585v-4.037l-.065-.065-.065-.716zm4.943-.13c.52 0 .846.065 1.106.26.195.196.325.456.325.847 0 .325-.065.521-.195.716-.13.195-.325.26-.586.26h-1.951v-.455h1.821c.13 0 .261-.066.261-.131.065-.13.065-.195.065-.325 0-.196-.065-.391-.196-.456-.13-.065-.325-.13-.65-.13-.26 0-.455.065-.585.13a.665.665 0 00-.325.391c-.066.195-.066.455-.066.781 0 .391.066.651.131.846a.665.665 0 00.325.391c.13.065.39.13.65.13h.586c.195 0 .39-.065.585-.065l.065.391c-.13.065-.26.065-.39.13-.13 0-.326.065-.456.065h-.455c-.39 0-.715-.065-.91-.195-.261-.131-.391-.326-.521-.586-.13-.261-.13-.586-.13-1.042 0-.456.065-.781.13-1.042.13-.26.26-.455.521-.52.195-.326.455-.391.845-.391zm3.772 0h.326c.13 0 .26 0 .39.065.13 0 .26.065.39.13l-.065.391h-.911c-.26 0-.455.065-.65.13a.665.665 0 00-.325.391 2.426 2.426 0 000 1.562.668.668 0 00.325.391c.13.065.39.13.65.13h.651c.13 0 .26 0 .39-.065l.065.39c-.195.066-.325.131-.52.131s-.39.065-.586.065c-.39 0-.715-.065-.91-.196-.26-.13-.39-.325-.52-.585-.13-.261-.131-.586-.131-1.042 0-.456.066-.781.131-1.042.13-.26.26-.455.52-.586.065-.195.39-.26.78-.26zm3.252 0c.521 0 .846.065 1.106.26.195.196.325.456.325.847 0 .325-.065.521-.195.716-.13.195-.325.26-.585.26h-1.951v-.455h1.821c.13 0 .26-.066.26-.131.065-.13.065-.195.065-.325 0-.196-.065-.391-.195-.456s-.325-.13-.651-.13c-.26 0-.455.065-.585.13a.665.665 0 00-.325.391c-.065.195-.065.455-.065.781 0 .391.065.651.13.846a.665.665 0 00.325.391c.13.065.39.13.65.13h.586c.195 0 .39-.065.585-.065l.065.391c-.13.065-.26.065-.39.13-.13 0-.325.065-.455.065h-.456c-.39 0-.715-.065-.91-.195-.26-.131-.39-.326-.521-.586-.13-.261-.13-.586-.13-1.042 0-.456.065-.781.13-1.042.131-.26.261-.455.521-.52.195-.326.52-.391.845-.391zm2.927.13v3.385h-.585V111h.585zm1.821 1.367h-1.886v.456h1.886v-.456zm.521-1.367v3.385h-.586V111h.586zm2.471 1.302c.325 0 .585.065.781.13a.67.67 0 01.39.326c.065.13.13.391.13.651s-.065.521-.13.651a.666.666 0 01-.39.325c-.196.066-.456.066-.716.066h-1.431l.065-.456h1.236c.195 0 .325 0 .455-.065s.195-.065.26-.196c.065-.065.065-.195.065-.39 0-.13 0-.261-.065-.326l-.195-.195c-.13-.065-.26-.065-.455-.065h-1.301v-.456h1.301zm-.78-1.302h-.586v3.385h.586V111zm4.357-.13c.521 0 .846.065 1.106.26.195.196.325.456.325.847 0 .325-.065.521-.195.716-.13.195-.325.26-.585.26h-1.952v-.455h1.822c.13 0 .26-.066.26-.131.065-.13.065-.195.065-.325 0-.196-.065-.391-.195-.456s-.326-.13-.651-.13c-.26 0-.455.065-.585.13a.665.665 0 00-.325.391c-.065.195-.065.455-.065.781 0 .391.065.651.13.846a.665.665 0 00.325.391c.13.065.39.13.65.13h.586c.195 0 .39-.065.585-.065l.065.391c-.13.065-.26.065-.39.13-.13 0-.325.065-.455.065h-.456c-.39 0-.715-.065-.91-.195-.26-.131-.391-.326-.521-.586-.13-.261-.13-.586-.13-1.042 0-.456.065-.781.13-1.042.13-.26.261-.455.521-.52.195-.326.455-.391.845-.391z" fill="#CBCCCD"/><path fill-rule="evenodd" clip-rule="evenodd" d="M130.404 181.637c.715 2.408 1.366 6.38 1.301 11.002-.065 4.622-.846 9.83-1.301 13.086-.52 3.255-.716 4.492-.846 5.403-.065.912 0 1.497.716 2.734.715 1.237 2.146 3.06 4.618 4.818 2.471 1.758 6.048 3.516 9.105 4.167 3.057.651 5.659.325 7.87-.717 2.211-1.041 4.032-2.734 5.008-4.492.976-1.757.976-3.58.911-5.664-.131-2.083-.391-4.361-.521-7.617-.065-3.255 0-7.421.13-11.458.13-4.036.26-7.877.065-9.635-.13-1.758-.585-1.497-3.122-1.497-2.536 0-7.284-.326-11.056-1.172-3.773-.846-6.504-2.279-9.171-3.385-2.666-1.107-5.268-1.953-6.244-1.888-.975.065-.325 1.106.391 2.018.65 1.041 1.43 1.888 2.146 4.297z" fill="#FFAF69"/><path fill-rule="evenodd" clip-rule="evenodd" d="M189.266 297.78c1.3 6.51 2.861 18.164 4.292 25.52 1.496 7.292 2.862 10.286 4.553 11.719 1.626 1.497 3.512 1.497 11.252 1.497s21.268 0 34.536-.391c13.203-.39 26.081-1.237 32.39-2.213 6.308-.977 6.048-2.214 5.008-4.102-1.041-1.888-2.927-4.492-4.748-6.315-1.821-1.822-3.577-2.864-6.569-3.971-2.927-1.041-7.09-2.148-11.317-3.06-4.228-.976-8.585-1.757-15.415-2.864-6.764-1.042-15.999-2.344-20.877-3.125-4.878-.781-5.464-.977-6.049-1.563-.585-.585-1.171-1.562-1.626-5.403-.455-3.906-.845-10.742-1.561-14.648-.78-3.906-1.951-4.818-4.813-5.664-2.862-.846-7.479-1.563-12.032-1.563-4.553-.065-9.041.521-10.732 1.823-1.691 1.302-.65 3.321.391 4.948.91 1.563 2.016 2.865 3.317 9.375z" fill="#FF9E69"/><path fill-rule="evenodd" clip-rule="evenodd" d="M177.364 262.104c-1.236-5.729-4.098-12.63-6.309-19.075-2.212-6.511-3.903-12.63-1.431-17.448 2.471-4.752 9.105-8.203 13.138-9.896 4.032-1.692 5.528-1.692 7.87-.651 2.341 1.042 5.528 3.19 8.26 6.185 2.796 2.995 5.138 6.901 7.284 12.109 2.211 5.208 4.163 11.719 5.984 20.768 1.821 9.114 3.512 20.768 4.552 28.059 1.041 7.292 1.561 10.091 1.756 11.523.261 1.433.261 1.433-2.146 1.954-2.406.52-7.154 1.562-12.357 2.408-5.203.782-10.797 1.302-14.244 1.563-3.447.26-4.748.26-5.788-.781-1.041-1.042-1.887-3.125-2.862-6.901-.976-3.776-2.016-9.245-2.407-14.323-.325-5.078-.065-9.765-1.3-15.494z" fill="#5DC94C"/><path fill-rule="evenodd" clip-rule="evenodd" d="M124.29 206.766c.65.456 1.171 1.433 2.016 2.474.846 1.042 2.082 2.214 2.927 3.386.846 1.236 1.366 2.473 3.252 3.58 1.886 1.107 5.138 1.953 8 1.628 2.927-.391 5.463-2.018 8.26-2.669 2.797-.717 5.853-.521 7.284-1.498 1.496-1.041 1.366-3.255 2.537-4.622 1.171-1.367 3.577-1.823 5.918-1.823 2.342 0 4.618.456 8 1.432 3.317.977 7.675 2.344 10.862 3.516 3.187 1.172 5.203 2.018 6.179 2.474.975.455.975.455 2.406 6.445 1.366 5.989 4.163 17.903 5.854 27.799 1.691 9.895 2.276 17.643 1.626 24.543-.651 6.836-2.537 12.761-3.708 20.898-1.17 8.203-1.691 18.62-1.626 27.734.065 9.115.651 16.862.976 20.963.325 4.102.325 4.558-2.016 4.883-2.277.326-6.894.391-20.097.326-13.203-.066-35.057-.326-49.3-.196-14.244.13-21.008.586-24.715.847-3.708.26-4.423.26-4.748-.326-.326-.521-.195-1.562.26-3.646.39-2.083 1.106-5.143 2.862-10.807 1.756-5.664 4.617-13.932 6.894-21.158 2.276-7.227 4.097-13.346 4.488-24.414.39-11.067-.521-26.952-.131-38.541.391-11.588 2.212-18.749 1.626-23.046-.585-4.297-3.512-5.599-5.268-7.617-1.756-2.018-2.406-4.622.651-6.901 3.057-2.213 9.756-4.036 13.528-5.013 3.772-.976 4.553-1.106 5.203-.651z" fill="#4AAB3C"/><path fill-rule="evenodd" clip-rule="evenodd" d="M122.339 205.985c-.586.781-.586.781.26 2.604.91 1.823 2.666 5.469 5.398 9.115 2.732 3.645 6.439 7.291 8.911 9.7 2.471 2.409 3.642 3.515 4.747 3.841 1.171.325 2.277-.13 3.382-2.409 1.106-2.278 2.147-6.25 2.797-8.789.651-2.474.976-3.385 1.301-3.841.325-.456.65-.39 1.496.651.845.977 2.146 2.93 3.772 5.078 1.691 2.084 3.772 4.362 5.008 5.534 1.236 1.172 1.626 1.302 2.081 1.042.456-.261.911-.847 1.496-2.344.586-1.563 1.236-4.036 2.147-7.227.975-3.255 2.211-7.226 2.796-9.244.651-2.018.651-2.018.195-2.669-.455-.651-1.3-2.018-3.251-3.906-1.887-1.823-4.813-4.167-6.244-5.274-1.431-1.172-1.431-1.172-1.951.781-.521 1.954-1.561 5.795-2.732 8.594-1.106 2.799-2.276 4.557-3.968 5.469-1.691.846-3.902.846-7.089-1.498-3.187-2.343-7.414-7.096-9.496-9.895-2.081-2.8-1.951-3.711-2.211-3.972-.195-.26-.715.131-1.756 1.042a52.135 52.135 0 00-3.902 3.841c-1.366 1.302-2.602 2.93-3.187 3.776z" fill="#5DC94C"/><path fill-rule="evenodd" clip-rule="evenodd" d="M122.534 288.535c-.91-1.171-2.276-2.734-3.447-3.841-1.17-1.106-2.211-1.757-4.292-2.018-2.082-.26-5.268-.065-8.781.651-3.512.651-7.35 1.888-10.276 3.646-2.927 1.758-4.943 4.101-5.918 5.338-.976 1.172-.976 1.172 0 5.339 1.04 4.166 3.122 12.499 5.463 20.051 2.406 7.617 5.073 14.453 7.024 18.359 1.886 3.972 3.057 5.013 4.033 5.729.975.717 1.886 1.042 3.317 1.172 1.43.065 3.382-.065 11.447-1.367 8.064-1.237 22.308-3.646 32.519-5.599 10.212-1.953 16.39-3.515 19.837-4.362 3.447-.846 4.098-1.041 4.878-.846.846.195 1.821.716 3.708 1.172 1.886.456 4.552.781 7.024.781 2.471-.065 4.618-.456 6.764-1.302 2.146-.846 4.293-2.148 5.528-2.669 1.236-.521 1.691-.195 1.821 1.823.13 2.018 0 5.729.521 7.747.52 2.018 1.626 2.409 2.471 2.409.846 0 1.366-.261 1.756-1.758.391-1.497.651-4.101.651-6.901 0-2.734-.13-5.599-.13-7.096 0-1.563.26-1.758.65-1.758.325 0 .845.261 1.171 1.302.325 1.042.585 2.93.845 5.078.26 2.149.586 4.557 1.041 6.055.52 1.562 1.236 2.213 2.016 1.953.846-.261 1.756-1.498 2.211-3.646.456-2.148.391-5.208.326-7.617s-.196-4.101-.065-4.948c.13-.846.455-.781.845.977.39 1.692.781 5.078 1.041 7.291.26 2.214.39 3.386.845 4.037.455.651 1.301.911 2.081.781.781-.13 1.561-.586 1.952-1.628.39-1.041.39-2.604.26-5.078-.13-2.408-.455-5.664-.586-7.747-.13-2.083-.065-3.06.586-3.19.65-.13 1.821.521 2.862 1.563 1.105 1.041 2.081 2.539 2.666 4.296.586 1.758.651 3.776.846 5.274.195 1.562.39 2.604.975 2.994.586.391 1.561.065 2.147-.716.65-.846.91-2.213.845-4.948-.065-2.799-.585-6.966-.845-9.439-.261-2.409-.391-3.125-2.992-4.818-2.602-1.693-7.675-4.427-10.732-5.859-3.057-1.433-3.967-1.563-5.138-1.563-1.106 0-2.406.13-7.479 1.498-5.073 1.367-13.984 4.036-21.138 5.533-7.09 1.498-12.423 1.758-22.179 2.018-9.756.261-23.869.521-31.024.586-7.154.066-7.284-.065-7.479-3.776-.195-3.71-.52-11.067-.911-15.038-.13-4.102-.585-4.818-1.561-5.925z" fill="#FFAF69"/><path fill-rule="evenodd" clip-rule="evenodd" d="M90.99 301.947c.521 2.148 1.041 3.906 1.237 4.817l.26.912.845.13c.846.13 2.537.39 5.594.39 3.057 0 7.479-.325 11.382-.911 3.967-.586 7.479-1.432 9.821-2.214 2.341-.781 3.512-1.497 4.097-1.888l.585-.39-.13-1.628c-.13-1.627-.325-4.882-.455-6.51l-.13-1.628h-3.382c-3.382.065-10.081.131-15.61.131-5.593 0-10.016-.131-12.487-.196-2.472-.065-2.992 0-3.252 0-.26.065-.325.13-.325.196 0 .13-.065.325-.065.586 0 .26.065.651.39 2.018.455 1.497 1.106 4.036 1.626 6.185z" fill="#FF9E69"/><path fill-rule="evenodd" clip-rule="evenodd" d="M127.217 266.986c-.781-6.445-1.952-16.601-3.383-25.129-1.43-8.529-3.186-15.365-5.463-20.378-2.276-5.012-5.138-8.202-6.699-9.765-1.561-1.562-1.756-1.497-1.886-1.432-.13.065-.195.065-2.602.976-2.406.912-7.284 2.735-10.926 5.404-3.642 2.669-6.114 6.315-8.195 10.807-2.082 4.492-3.838 9.896-4.813 18.098-.976 8.203-1.236 19.271-1.366 27.409-.13 8.203-.13 13.476-.13 16.406 0 2.929.065 3.515 1.43 4.427 1.367.976 4.033 2.343 8.196 3.19 4.097.846 9.691 1.237 16.26 1.237 6.569.065 14.048-.261 17.82-.326 3.773-.13 3.838-.065 3.903-.325.065-.261.13-.847 0-4.037-.065-3.19-.325-8.854-.651-13.151-.325-4.166-.715-6.9-1.495-13.411z" fill="#4AAB3C"/><path fill-rule="evenodd" clip-rule="evenodd" d="M131.576 185.868c.585 1.172 1.496 2.539 2.926 3.906 1.431 1.368 3.447 2.735 5.984 3.711 2.537.977 5.528 1.563 8 1.758a22.414 22.414 0 005.918-.325c1.366-.261 2.147-.651 2.537-.977.39-.325.39-.651.455-1.823 0-1.107.065-3.06.13-4.232v-1.887c0-.261 0-.261-1.756-.521-1.756-.261-5.333-.782-8.26-1.302-2.926-.521-5.333-1.042-8.065-1.498-2.731-.39-5.918-.716-7.609-1.237-1.691-.521-2.016-1.237-1.951-1.106.065.13.39 1.237.715 2.278.26 1.042.455 2.083.976 3.255z" fill="#FF9E69"/><path fill-rule="evenodd" clip-rule="evenodd" d="M109.916 86.977c-2.406-.976-4.553-1.693-7.479-1.237-2.927.456-6.57 2.018-8.846 4.557-2.211 2.54-3.057 6.055-3.187 8.66-.13 2.603.325 4.361-.13 5.728-.455 1.432-1.886 2.474-4.553 4.232-2.731 1.758-6.699 4.166-8.975 6.51-2.276 2.344-2.797 4.622-2.602 7.031.195 2.409 1.106 4.948 2.212 6.771 1.17 1.823 2.536 2.864 2.926 4.687.39 1.823-.26 4.362-1.69 6.38-1.431 2.084-3.708 3.646-5.464 5.99-1.756 2.344-3.057 5.403-3.642 8.593-.52 3.256-.26 6.641 1.366 9.115 1.69 2.474 4.748 4.036 7.089 5.468 2.341 1.433 3.967 2.735 4.748 5.339.78 2.604.715 6.51 1.951 9.83 1.236 3.321 3.837 6.12 6.83 7.748 2.991 1.692 6.503 2.213 9.04 1.888 2.536-.391 4.097-1.693 4.943-3.125.91-1.498 1.105-3.19 1.691-4.623.52-1.432 1.366-2.734 2.341-3.255.976-.521 2.016-.39 3.512-.065 1.431.326 3.252.781 5.138.521 1.887-.261 3.838-1.237 5.204-2.734 1.365-1.498 2.146-3.581 2.276-5.534.13-1.888-.325-3.646-.39-5.339-.065-1.692.39-3.255.975-5.143.651-1.823 1.496-3.841 2.017-6.705.52-2.865.715-6.576.52-10.677-.195-4.102-.781-8.724-1.756-13.216-.976-4.492-2.407-8.854-2.927-13.086-.52-4.231-.195-8.333-.26-12.369-.065-4.102-.586-8.138-1.561-11.263-.976-3.125-2.407-5.273-4.488-6.9-1.886-1.694-4.488-2.865-6.829-3.777z" fill="#080902"/><path fill-rule="evenodd" clip-rule="evenodd" d="M113.884 161.585c1.366 2.213 2.927 6.315 5.073 9.83 2.146 3.516 4.748 6.381 8.52 8.854 3.772 2.474 8.65 4.427 13.333 5.925 4.683 1.497 9.171 2.409 12.618 2.604 3.447.195 5.853-.456 9.821-2.279 3.967-1.888 9.561-5.013 12.813-9.049 3.252-4.101 4.162-9.114 5.138-14.192.91-5.013 1.886-10.026 2.861-15.234 1.041-5.209 2.082-10.612 2.602-13.607.52-2.995.455-3.581-.715-6.51-1.171-2.93-3.513-8.203-6.634-13.997-3.187-5.794-7.155-12.174-11.968-15.95s-10.406-4.883-15.739-4.883c-5.334 0-10.342 1.107-15.285 3.776-5.008 2.669-9.951 6.836-14.568 10.807-4.618 3.971-8.846 7.747-12.033 10.221-3.187 2.474-5.203 3.581-7.609 5.143-2.407 1.563-5.073 3.646-6.049 8.333-.976 4.688-.195 11.914 1.3 16.536 1.497 4.623 3.773 6.576 6.049 7.943 2.277 1.367 4.553 2.213 6.309 2.734 1.691.586 2.797.847 4.163 2.995z" fill="#FFAF69"/><path fill-rule="evenodd" clip-rule="evenodd" d="M187.444 128.317c-.325-1.041-1.365-2.148-2.926-3.19-1.561-1.041-3.773-1.953-6.374-2.474-2.602-.52-5.659-.585-7.48-.325-1.821.195-2.471.716-2.927 1.367-.455.651-.78 1.432-.715 2.083 0 .651.325 1.107 1.171 1.302.845.196 2.211.131 3.772 0 1.561-.13 3.382-.26 5.528.391 2.082.651 4.488 2.083 6.114 2.865 1.691.716 2.667.781 3.317.325.585-.456.911-1.302.52-2.344z" fill="#211F17"/><path fill-rule="evenodd" clip-rule="evenodd" d="M95.218 133.265c.455 1.498.455 1.628.91.847.456-.782 1.366-2.409 3.122-3.516 1.756-1.107 4.293-1.628 6.439-1.367 2.211.26 4.033 1.237 5.398 1.693 1.431.455 2.407.325 6.309-.782 3.903-1.106 10.602-3.255 17.041-7.942 6.373-4.688 12.422-11.914 15.934-16.406 3.447-4.492 4.358-6.185 4.943-7.161.13-.196.26-.391.39-.521.456-.065.651 0 1.041.26.781.521 2.341 1.498 4.943 3.581 2.602 2.018 6.179 5.078 9.171 8.138 3.056 3.06 5.528 6.119 7.609 9.505 2.016 3.385 3.642 7.031 4.878 9.83 1.236 2.8 2.212 4.688 4.228 4.623 2.016-.066 5.203-2.149 7.154-5.469 2.016-3.255 2.797-7.747 2.667-12.305-.13-4.557-1.171-9.179-3.317-12.89-2.147-3.71-5.268-6.51-7.025-9.114-2.601-3.906-4.943-13.086-10.731-17.448-4.228-3.19-9.951-5.013-15.74-5.338-5.788-.326-9.886.325-12.812 1.497a57.942 57.942 0 00-13.854.912c-6.829 1.302-13.593 3.84-19.317 7.356-5.788 3.516-10.536 8.073-13.983 12.956-3.447 4.882-5.463 10.091-6.504 15.429-1.04 5.338-1.04 10.742-.585 14.909.39 4.296 1.3 7.226 1.69 8.723z" fill="#080902"/><path fill-rule="evenodd" clip-rule="evenodd" d="M157.461 137.237c0-.261.195-.456.455-.456s.455.195.455.456c0 2.539 0 5.143.846 7.486.78 2.279 2.406 4.427 3.577 5.925l.13.13c.585.781 1.041 1.367 1.366 1.888.325.586.52 1.107.52 1.627 0 .521-.13 1.042-.39 1.563a5.768 5.768 0 01-1.041 1.432c-.39.391-.845.651-1.301.912-.52.26-1.105.455-1.626.52-.52.131-1.04.196-1.496.196h-1.43a.445.445 0 01-.456-.456c0-.26.195-.456.456-.456h1.365a4.95 4.95 0 001.366-.195c.456-.13.976-.26 1.431-.456.39-.195.781-.455 1.106-.716.325-.325.65-.716.845-1.107.195-.39.26-.781.26-1.106 0-.391-.13-.716-.39-1.172-.26-.521-.715-1.042-1.301-1.823l-.13-.13c-1.17-1.563-2.861-3.776-3.707-6.185-.91-2.604-.91-5.208-.91-7.877z" fill="#F46F2D"/><path fill-rule="evenodd" clip-rule="evenodd" d="M140.096 167.509c.78 1.433 2.211 3.907 3.902 5.664 1.626 1.823 3.447 2.995 5.268 3.711 1.757.716 3.513 1.042 5.204.977 1.691-.065 3.382-.456 5.268-1.758 1.886-1.302 3.967-3.581 5.203-5.469a14.754 14.754 0 001.951-4.297c.26-.911.26-1.171.065-1.302-.195-.13-.715-.13-4.162-.13-3.512 0-9.951-.065-14.374-.195s-6.829-.326-8-.326c-1.171.066-1.171.326-1.106.717-.065.455 0 .976.781 2.408z" fill="#211F17"/><path fill-rule="evenodd" clip-rule="evenodd" d="M156.03 164.905c-1.171 0-3.382-.065-5.398-.13-2.017-.065-3.838-.13-5.269-.13-1.366-.065-2.341-.065-2.796-.13-.456 0-.456 0-.456.065 0 .13 0 .325.326.976.26.716.845 1.888 1.691 2.93.845 1.041 2.081 2.018 3.837 2.409 1.756.455 4.162.325 6.439.325 2.341 0 4.618 0 5.983-.13 1.301-.065 1.691-.326 1.952-.781.26-.521.52-1.302.715-2.214.195-.976.39-2.083.455-2.604.065-.586.065-.586-.91-.586h-6.569z" fill="#fff"/><path fill-rule="evenodd" clip-rule="evenodd" d="M128.257 128.838c.456-.976 1.561-2.018 3.252-2.864 1.691-.847 3.968-1.563 6.634-1.758 2.667-.195 5.724.065 7.48.456 1.821.39 2.341.976 2.732 1.692.39.717.585 1.498.52 2.149-.065.651-.455 1.107-1.301 1.172-.845.13-2.211-.131-3.772-.391s-3.382-.586-5.529-.195c-2.146.455-4.682 1.627-6.373 2.148-1.756.521-2.732.456-3.317-.065-.586-.456-.781-1.367-.326-2.344zm8.976 19.596c2.666 0 4.813-2.864 4.813-6.445 0-3.515-2.147-6.445-4.813-6.445-2.667 0-4.813 2.864-4.813 6.445 0 3.581 2.146 6.445 4.813 6.445zm36.358-.846c2.602 0 4.683-2.734 4.683-6.12 0-3.385-2.081-6.119-4.683-6.119s-4.683 2.734-4.683 6.119c0 3.386 2.081 6.12 4.683 6.12z" fill="#211F17"/><path d="M453 346.672H0V358h453v-11.328z" fill="#CBCCCD"/><path d="M352.123 340.813H182.24v5.859h169.883v-5.859z" fill="#141515"/><path fill-rule="evenodd" clip-rule="evenodd" d="M240.971 340.813h111.152l45.268-94.594-116.031-1.758-40.389 96.352z" fill="#E1E2E1"/><path fill-rule="evenodd" clip-rule="evenodd" d="M281.36 244.461l116.03 1.758-4.943-2.474-113.754-2.279 2.667 2.995z" fill="#141515"/><path fill-rule="evenodd" clip-rule="evenodd" d="M281.361 244.461l-40.39 96.352h-4.162l41.885-99.347 2.667 2.995z" fill="#141515"/><path fill-rule="evenodd" clip-rule="evenodd" d="M151.478 81.444c1.235-.912 3.772-2.084 7.284-2.41 3.512-.325 7.935.196 11.187 1.628s5.333 3.776 6.504 6.185c1.171 2.344 1.496 4.753 1.561 6.77.13 2.019.065 3.777.91 5.534.846 1.758 2.537 3.581 4.163 4.753 1.626 1.172 3.252 1.627 4.423 2.799 1.235 1.172 2.016 2.995 2.536 4.948.455 1.953.585 4.037.26 5.925-.325 1.887-1.105 3.71-1.756 5.859-.65 2.148-1.171 4.687-1.691 5.403-.455.716-.91-.521-.91-2.474 0-2.018.325-4.882.13-7.552-.26-2.669-1.041-5.208-2.667-7.161-1.561-1.953-3.967-3.32-5.919-4.622-1.951-1.302-3.577-2.539-4.877-3.516-1.301-.976-2.277-1.627-2.992-3.125-.651-1.432-1.041-3.71-1.561-5.924-.586-2.213-1.301-4.427-2.277-5.924-.975-1.563-2.146-2.41-3.837-3.06-1.691-.651-3.837-.977-5.463-.912-1.561.066-2.602.521-3.317.912-.716.325-1.236.586-1.561.456-.325-.13-.521-.652-.651-1.107-.13-.456-.26-.781-.39-1.237-.13-.651-.325-1.237.911-2.148z" fill="#211F17"/><path fill-rule="evenodd" clip-rule="evenodd" d="M93.462 117.901c-.39-1.432-.52-3.906.325-5.924.91-2.019 2.862-3.581 4.423-4.362 1.56-.781 2.862-.781 4.032-1.237 1.171-.456 2.277-1.302 3.122-2.734.781-1.433 1.301-3.386 2.212-5.47.91-2.148 2.276-4.426 4.032-6.575 1.756-2.148 3.837-4.166 6.439-5.143 2.601-.976 5.658-.976 8-.78 2.341.195 4.032.65 6.113.52 2.147-.13 4.748-.781 6.439-1.563 1.691-.78 2.537-1.757 4.033-2.278 1.496-.52 3.707-.651 5.138-.39 1.431.26 2.146.846 2.601 1.497.456.65.651 1.237.846 1.627.195.39.325.586-.065.651-.39.065-1.301.13-2.602.13-1.3.066-2.926.066-4.422.847-1.496.716-2.862 2.148-4.683 3.255-1.821 1.107-4.033 1.953-6.439 1.888-2.407-.065-5.008-.977-7.284-1.432-2.277-.391-4.293-.326-6.309.586-2.017.911-4.033 2.539-5.529 5.403-1.561 2.865-2.601 6.836-3.642 9.505-1.041 2.669-2.016 4.036-3.577 4.818-1.561.781-3.577 1.041-5.138 1.432s-2.602.977-3.382 1.888c-.716.911-1.17 2.083-1.561 3.125-.455 1.042-.91 1.888-1.431 2.213-.716.261-1.3-.13-1.691-1.497zm2.798 6.315c.585.911 1.625 2.083 3.316 2.93 1.626.911 3.903 1.497 5.464 1.888 1.561.39 2.471.651 3.772 1.367 1.301.716 2.862 1.953 4.618 2.604 1.756.651 3.642.716 5.788-.391 2.147-1.106 4.618-3.385 6.634-5.273 2.017-1.888 3.643-3.32 5.984-4.687 2.341-1.368 5.333-2.67 7.74-3.907 2.406-1.237 4.227-2.408 6.113-4.427 1.887-2.018 3.773-4.817 4.878-7.356 1.171-2.539 1.561-4.688 2.277-6.12.715-1.432 1.756-2.083 1.951-2.734.195-.651-.39-1.172-1.236-1.237-.845 0-1.886.52-2.927 1.692-.975 1.172-1.951 2.995-3.447 5.469s-3.577 5.534-5.593 7.617-3.968 3.125-5.984 3.646c-2.016.521-4.162.521-6.113 1.237-1.952.716-3.708 2.148-5.269 4.101-1.561 1.953-2.926 4.427-4.032 6.12-1.106 1.693-2.016 2.539-3.382 2.604-1.431.065-3.382-.586-5.073-1.497-1.691-.912-3.187-2.084-4.423-2.865-1.236-.781-2.211-1.106-3.447-1.302-1.236-.195-2.602-.26-3.707-.781-1.04-.521-1.756-1.432-2.602-2.083-.845-.651-1.69-1.042-2.081-.782-.39.261-.26 1.172-.13 1.954.195.716.325 1.302.91 2.213z" fill="#211F17"/><path fill-rule="evenodd" clip-rule="evenodd" d="M101.396 133.916c-.26.456-.585.912-.65 1.433-.065.585.065 1.302-.13 2.734-.196 1.432-.716 3.515-1.106 5.794-.39 2.279-.716 4.753-.78 6.445-.066 1.693.064 2.669.845 3.971.78 1.237 2.081 2.8 4.358 3.321 2.276.521 5.463 0 7.674-1.172 2.277-1.172 3.577-3.06 4.553-5.078.976-2.018 1.496-4.232 1.626-6.706.065-2.474-.325-5.208-1.431-7.421-1.106-2.214-2.862-3.907-4.683-4.883-1.821-.977-3.577-1.237-5.138-1.042-1.561.13-2.862.651-3.707 1.172-.846.391-1.171.911-1.431 1.432z" fill="#B1B1B1"/><path fill-rule="evenodd" clip-rule="evenodd" d="M104.389 131.898c5.723-.456 10.731 4.687 11.187 11.458.455 6.771-3.773 12.695-9.496 13.151-5.724.456-10.732-4.687-11.187-11.458-.455-6.771 3.772-12.63 9.496-13.151z" fill="#E1E2E1"/><path fill-rule="evenodd" clip-rule="evenodd" d="M136.778 73.631c2.147-.325 4.228-.456 6.049-.586 1.821-.065 3.382-.065 4.162-.065.781 0 .781 0 .976-.065l.976-.326.975-.325c.195-.065.195-.065-.78-.195-.976-.13-2.927-.456-5.399-.651a45.12 45.12 0 00-9.235.195c-3.642.39-7.935 1.302-11.512 2.734-3.642 1.433-6.634 3.386-10.146 6.901-3.512 3.58-7.48 8.724-10.211 14.713-2.732 5.99-4.163 12.761-4.423 19.141-.26 6.38.65 12.369 1.17 15.364.456 2.995.456 2.995.651 2.864.195-.13.585-.325 1.171-.586.585-.26 1.235-.52 1.626-.585.325-.131.325-.131-.13-4.297-.521-4.167-1.496-12.565.39-21.028 1.886-8.464 6.699-16.992 11.707-22.33 5.008-5.34 10.276-7.553 13.983-8.855 3.708-1.302 5.919-1.692 8-2.018z" fill="#E1E2E1"/><path fill-rule="evenodd" clip-rule="evenodd" d="M184.842 144.203c.326-1.563.716-3.581.911-4.558.195-.976.195-.976.195-1.041 0-.065.065-.196.26.586.26.846.716 2.604.651 4.752 0 2.148-.456 4.688-1.236 6.575-.781 1.888-1.821 3.06-2.277 3.646l-.52.586.195-1.107c.195-1.106.651-3.32.976-5.012.325-1.758.52-2.865.845-4.427z" fill="#B1B1B1"/><path fill-rule="evenodd" clip-rule="evenodd" d="M185.492 152.536c-.065 2.213-.26 6.51-.845 10.416-.586 3.906-1.626 7.422-4.033 9.961-2.406 2.539-6.244 3.971-9.3 4.752-3.057.782-5.269.912-6.374.912-1.106 0-1.106-.196-1.106-.521 0-.326 0-.781.195-1.042.195-.26.651-.325 2.537-.781 1.951-.456 5.398-1.237 7.869-2.279 2.407-.976 3.773-2.083 4.943-3.71 1.171-1.628 2.212-3.646 2.862-6.446.651-2.799.911-6.249 1.041-8.007.13-1.758.13-1.758.26-2.149.13-.455.39-1.302.65-1.953.261-.651.521-1.106.716-1.367.195-.26.325-.325.455-.26 0 .065.13.26.13 2.474z" fill="#E1E2E1"/><path fill-rule="evenodd" clip-rule="evenodd" d="M163.834 172.913c3.317-.261 5.984 1.627 5.984 4.166 0 2.539-2.667 4.818-5.984 5.013-3.317.261-5.983-1.627-5.983-4.166-.065-2.539 2.666-4.818 5.983-5.013z" fill="#3F3D2E"/></g><defs><clipPath id="clip0_38_10798"><path fill="#fff" d="M0 0h453v358H0z"/></clipPath></defs></svg>