<svg width="788" height="396" fill="none" xmlns="http://www.w3.org/2000/svg"><g clip-path="url(#clip0_601_10378)"><path fill-rule="evenodd" clip-rule="evenodd" d="M153.696 329.248c.119 2.732.119 5.939.594 7.72.475 1.782 1.544 2.019 3.326 2.138 1.9.119 4.514 0 5.939.119 1.425.119 1.425.475 1.425 1.425 0 1.069 0 2.732-.356 3.564-.238.95-.713 1.069-1.663 1.425-.95.475-2.257 1.188-2.851 2.494-.593 1.307-.475 2.97.475 4.157.951 1.069 2.732 1.544 5.464 1.663 2.851.119 6.77 0 24.587-.119 17.816-.118 49.53-.356 72.216-1.069 22.686-.831 36.345-2.256 50.598-3.919 14.254-1.663 29.219-3.563 43.116-5.108 13.778-1.544 26.369-2.613 39.315-2.613 12.947 0 26.25 1.307 33.614 2.02 7.364.712 8.789 1.069 16.272 1.187 7.364.119 20.667.119 27.319.119 6.651 0 6.77 0 6.77.95v3.801c0 .95.119.95 7.008.832l27.437-.476 6.889-.118v1.544c0 1.544.119 4.513.238 5.939.118 1.544.237 1.544.475 1.662.237.119.475.238 13.184-.475 12.709-.712 38.008-2.138 63.545-4.751 25.537-2.613 51.312-6.176 66.753-7.839 15.44-1.663 20.667-1.306 23.992-1.069 3.326.238 4.751.356 17.104-.119 12.353-.475 35.514-1.663 47.154-2.138 11.64-.594 11.64-.594 10.571-1.781-1.069-1.188-3.088-3.564-5.226-5.583-2.138-2.138-4.395-3.919-10.333-18.173-5.939-14.253-15.56-40.977-33.852-49.886-18.291-8.908-45.135 0-63.07 5.583-17.935 5.582-26.962 7.839-36.82 16.035-9.74 8.195-20.311 22.211-26.844 30.882-6.533 8.789-9.146 12.233-22.211 14.253-13.065 2.019-36.583 2.732-44.541-5.464-7.958-8.077-.356-25.062-9.621-33.851-9.265-8.79-35.514-9.384-82.668-4.276-47.154 5.107-115.332 16.035-160.704 21.142-45.373 5.226-67.822 4.751-82.788 4.395-14.847-.357-22.092-.594-26.249.475s-5.345 3.207-5.701 5.582c-.119 2.613.118 4.989.118 7.721z" fill="#24231D"/><path d="M468.929 0H0v284.469h468.929V0z" fill="#4AAB3C"/><path fill-rule="evenodd" clip-rule="evenodd" d="M405.858 333.405c48.936-.119 58.913-.119 63.902-.119h4.989l-.119-1.187c-.119-1.188-.475-3.683-.95-9.859-.475-6.295-1.069-16.272-1.307-23.28-.356-6.889-.356-10.69-.356-12.59v-1.901H36.583v2.732c0 2.732-.119 8.077-.119 10.809v2.969c0 .238-.118.832-.118 3.207-.12 2.257-.12 6.414-.238 8.433v2.019h28.387s-.118 0-.118 3.207 0 9.621.118 12.828v3.682c0 .119.12.119 19.48.119 19.479 0 58.319 0 121.745-.238 63.189-.356 151.203-.712 200.138-.831z" fill="#36342B"/><path d="M473.086 294.921H16.154v18.886h456.932v-18.886z" fill="#4F4D3E"/><path d="M450.637 294.921H344.57v53.925h106.067v-53.925z" fill="#4F4D3E"/><path fill-rule="evenodd" clip-rule="evenodd" d="M159.992 332.573l-.594 1.663h-5.583l.713-2.138c.713-2.138 2.019-6.532 5.345-12.352 3.326-5.82 8.671-13.066 13.303-18.292 4.632-5.226 8.433-8.433 11.521-10.927 3.207-2.495 5.702-4.276 7.008-5.108 1.307-.831 1.307-.831 6.414-.831h44.304c3.8 0 3.8 0 5.463.95 1.782.95 5.226 2.732 9.502 5.464 4.276 2.85 9.265 6.532 13.897 11.64 4.632 4.988 8.79 11.402 11.046 16.747 2.257 5.464 2.495 9.978 2.613 12.234l.119 2.257h-5.107l-.119-1.425c-.119-1.426-.475-4.276-1.663-7.958-1.188-3.682-3.326-8.315-5.464-11.997-2.256-3.801-4.632-6.651-8.195-9.977-3.563-3.326-8.433-7.008-11.996-9.383-3.564-2.376-5.702-3.326-6.89-3.801-1.187-.475-1.425-.356-9.264-.475-7.721 0-23.043-.119-30.763-.238H198l-2.375 1.426c-2.376 1.425-7.127 4.276-11.759 8.314-4.632 4.038-9.027 9.146-12.472 13.659-3.325 4.514-5.701 8.433-7.483 12.115-2.019 3.564-3.325 6.889-3.919 8.433z" fill="#24231D"/><path d="M220.449 395.881c28.338 0 51.311-22.334 51.311-49.886 0-27.551-22.973-49.886-51.311-49.886-28.339 0-51.312 22.335-51.312 49.886 0 27.552 22.973 49.886 51.312 49.886z" fill="#24231D"/><path d="M220.449 378.777c18.63 0 33.732-14.677 33.732-32.782 0-18.105-15.102-32.782-33.732-32.782s-33.733 14.677-33.733 32.782c0 18.105 15.103 32.782 33.733 32.782z" fill="#403E32"/><path fill-rule="evenodd" clip-rule="evenodd" d="M220.449 368.8c11.996 0 21.736-9.858 21.736-21.973 0-12.116-9.74-21.974-21.736-21.974s-21.736 9.858-21.736 21.974c0 12.115 9.74 21.973 21.736 21.973z" fill="#737160"/><path d="M679.162 395.881c28.339 0 51.312-22.334 51.312-49.886 0-27.551-22.973-49.886-51.312-49.886-28.338 0-51.311 22.335-51.311 49.886 0 27.552 22.973 49.886 51.311 49.886z" fill="#24231D"/><path d="M679.163 378.777c18.63 0 33.732-14.677 33.732-32.782 0-18.105-15.102-32.782-33.732-32.782s-33.733 14.677-33.733 32.782c0 18.105 15.103 32.782 33.733 32.782z" fill="#403E32"/><path fill-rule="evenodd" clip-rule="evenodd" d="M679.163 368.8c11.996 0 21.736-9.858 21.736-21.973 0-12.116-9.74-21.974-21.736-21.974-11.997 0-21.736 9.858-21.736 21.974 0 12.115 9.739 21.973 21.736 21.973z" fill="#737160"/><path d="M455.032 14.134H12.472v255.369h442.56V14.134z" fill="#4F4D3E"/><path fill-rule="evenodd" clip-rule="evenodd" d="M12.472 269.503V14.134L60.1 34.683V225.2l-47.63 44.303z" fill="#737160"/><path fill-rule="evenodd" clip-rule="evenodd" d="M12.472 269.503L60.1 225.2h350.39l44.541 44.303H12.472z" fill="#36342B"/><path fill-rule="evenodd" clip-rule="evenodd" d="M455.032 269.503V14.134l-44.541 20.549V225.2l44.541 44.303zm0-255.369H12.472L60.1 34.683h350.39l44.541-20.549z" fill="#737160"/><path fill-rule="evenodd" clip-rule="evenodd" d="M744.489 256.438c7.245-3.682 18.054-8.315 23.637-10.571 5.582-2.257 5.701-2.257 5.82-2.257.118 0 .118 0 1.306 3.326 1.188 3.325 3.563 9.858 5.345 16.628 1.782 6.771 2.97 13.66 3.682 17.223.594 3.444.713 3.444.95 3.682l.951.95c.237.238.237.356.356 1.782.237 1.425.594 4.276.713 8.314.118 4.157 0 9.502-.238 14.61-.238 5.107-.713 9.858-1.544 13.778-.832 3.8-1.9 6.77-3.92 9.502-2.019 2.732-4.751 5.345-8.789 7.364-4.039 2.019-9.146 3.444-11.759 4.157-2.613.713-2.613.713-4.276 1.188-1.663.475-4.989 1.544-8.195 2.019-3.207.475-6.533.356-8.196.237-1.663-.118-1.782-.118-1.782-.237v-1.069c0-.95.119-2.969 0-7.127-.118-4.157-.475-10.452-1.663-16.391-1.187-5.82-3.207-11.283-5.463-15.916-2.257-4.632-4.751-8.314-7.483-11.402-2.732-2.97-5.701-5.226-7.483-6.533-1.782-1.307-2.376-1.782-2.732-1.9-.356-.238-.356-.238.238-.713.475-.475 1.425-1.425 4.276-5.107 2.731-3.682 7.364-10.215 11.402-14.847 3.92-4.395 7.602-7.008 14.847-10.69z" fill="#36342B"/><path fill-rule="evenodd" clip-rule="evenodd" d="M749.003 223.062c-2.138-1.188-4.989-2.614-8.196-4.276-3.207-1.663-6.651-3.326-11.165-5.464-4.513-2.138-9.977-4.632-14.372-6.533l-9.62-4.276c-2.02-.95-3.089-1.306-3.92-1.663a27.28 27.28 0 00-2.257-.831 13.4 13.4 0 00-1.781-.475c-.594-.119-1.069-.238-1.545-.238-.475 0-.95-.118-1.187-.118-.238 0-.238-.001 9.739 5.582 9.978 5.582 29.932 16.866 40.622 23.755 10.69 6.889 12.115 9.265 14.609 11.046 2.495 1.782 6.177 2.97 8.433 4.039 2.376 1.069 3.326 1.9 4.395 2.138.95.237 1.901 0 2.376-.119.475-.119.475-.119.237-.95-.237-.832-.712-2.494-.95-3.207-.238-.832-.238-.832-.356-1.069-.119-.238-.357-.594-.594-.95-.238-.357-.475-.594-.95-1.069-.476-.357-1.069-.951-2.257-1.901-1.188-.95-2.97-2.138-4.989-3.563-2.019-1.425-4.394-2.851-6.295-4.038-1.9-1.188-3.444-2.138-4.989-2.97-1.425-.95-2.85-1.781-4.988-2.85z" fill="#fff"/><path fill-rule="evenodd" clip-rule="evenodd" d="M773.827 247.886c1.9-2.257 1.901-2.257 1.663-3.207-.238-.95-.832-2.851-1.307-4.038-.475-1.188-.95-1.782-3.444-3.801-2.494-1.901-7.008-5.226-13.541-9.027-6.532-3.92-14.965-8.315-23.874-12.709a1033.88 1033.88 0 00-24.468-11.165c-5.938-2.613-8.314-3.682-10.214-4.276-1.901-.594-3.207-.594-3.92-.594-.713 0-.713 0-3.444-1.782-2.732-1.781-8.077-5.226-14.61-10.333-6.533-5.108-14.134-11.997-25.893-21.974-11.64-10.096-27.437-23.399-38.484-32.663-11.046-9.265-17.578-14.61-23.517-18.648-5.939-3.92-11.522-6.414-20.43-7.958-8.908-1.544-21.261-2.138-35.633-2.138-14.372 0-30.882.594-39.909 1.069-9.027.475-10.452.95-11.164 1.663-.713.712-.713 1.781-.951 16.866-.237 15.084-.712 44.185-.475 83.143.238 38.959 1.069 87.776 1.544 112.6.475 24.824.475 25.775.713 26.606.356.831.95 1.544 1.663 2.019.712.475 1.544.713 2.138.832.594.118.831.118 10.215.237 9.383.119 27.556.475 50.123.832 22.568.356 49.292.831 62.833 1.069 13.421.237 13.54.237 13.659.237.119 0 .238 0 .356-1.069.119-1.069.357-3.326 1.188-8.671.832-5.344 2.613-13.778 4.751-20.785 2.138-7.008 4.514-12.472 7.721-17.342 3.207-4.87 7.126-9.145 11.283-12.352 4.158-3.326 8.552-5.702 13.422-7.483 4.87-1.782 10.096-2.851 15.916-3.207 5.82-.357 12.234.237 17.46 1.187 5.226.951 9.265 2.376 12.591 3.92 3.325 1.544 5.938 3.207 7.245 4.038l1.306.832 5.227-3.207c5.226-3.207 15.678-9.621 23.636-14.728 7.958-5.108 13.422-8.909 18.173-13.066 4.513-4.038 8.433-8.67 10.452-10.927z" fill="#4AAB3C"/><path fill-rule="evenodd" clip-rule="evenodd" d="M700.661 226.981c4.989 3.326 13.659 10.096 18.173 14.491 4.513 4.395 4.87 6.295 4.632 7.602-.238 1.306-1.069 2.019-2.969 2.138-1.901.118-4.989-.238-22.687-4.158-17.697-3.919-50.004-11.521-80.768-18.647-30.881-7.127-60.219-13.66-75.422-17.579-15.204-3.801-16.154-4.87-16.985-6.295-.832-1.426-1.663-3.089-1.545-4.514.119-1.425 1.188-2.375 1.782-2.969.594-.475.594-.475 25.537 2.732 25.062 3.325 75.067 9.858 101.791 13.54 26.725 3.682 30.169 4.632 33.139 5.82 2.969 1.188 5.345 2.732 7.245 3.563 1.901.832 3.088.832 8.077 4.276z" fill="#509663"/><path fill-rule="evenodd" clip-rule="evenodd" d="M543.401 201.682c9.502 1.663 25.062 4.038 44.898 7.126 19.835 3.089 43.947 7.008 61.407 9.978 17.46 2.85 28.269 4.751 34.683 5.82 6.414 1.069 8.433 1.187 9.739 1.187 1.307 0 1.782-.118 2.257-.356.356-.238.594-.594.713-1.069s0-1.069-.119-1.663c-.119-.594-.475-1.188-2.969-3.563-2.614-2.376-7.483-6.652-20.311-18.054-12.828-11.403-33.614-29.932-48.105-42.641-14.49-12.709-22.686-19.598-28.031-23.755-5.463-4.157-8.195-5.464-11.402-6.889-3.326-1.307-7.127-2.732-13.541-3.563-6.295-.951-15.203-1.426-23.042-1.782-7.84-.356-14.847-.475-18.767-.475s-4.87 0-6.176.356c-1.307.357-2.851 1.069-4.158 2.376-1.306 1.306-2.256 3.088-2.731 4.988-.476 1.782-.476 3.682.118 13.303s2.02 27.081 2.613 36.227c.713 9.146.713 10.096 1.069 11.284a12.805 12.805 0 002.02 4.038c1.069 1.426 2.494 2.613 4.869 3.682 2.138.95 5.464 1.901 14.966 3.445z" fill="#403E32"/><path fill-rule="evenodd" clip-rule="evenodd" d="M533.424 196.812c-3.92-.95-5.345-1.782-6.414-2.732a8.952 8.952 0 01-2.257-3.088c-.475-1.069-.831-2.138-1.663-11.046-.831-8.909-2.256-25.775-2.969-35.277-.713-9.502-.831-11.759-.594-13.54.238-1.663.713-2.732 1.663-3.801.95-1.069 2.138-2.019 3.92-2.494 1.781-.476 3.919-.357 6.77-.238 2.969.119 6.533.238 12.115.475 5.583.238 13.066.475 19.123 1.069 6.176.475 11.046 1.188 14.372 1.9 3.326.713 5.226 1.545 6.176 1.901.951.356.951.356 1.069 2.494.119 2.138.475 6.414 1.426 18.529.95 12.115 2.613 31.832 3.563 42.285.831 10.333.95 11.283.95 11.996 0 .713-.237 1.188-2.375.95-2.138-.237-6.295-1.187-13.066-2.256-6.77-1.069-16.035-2.376-23.874-3.564-7.72-1.425-14.134-2.613-17.935-3.563zm58.557-47.748c.831 10.809 2.494 31.357 3.444 42.285.832 10.927.951 12.115 1.069 13.065.119.95.475 1.663.832 2.138.356.594.831 1.069 1.781 1.425.832.357 2.138.713 7.602 1.544 5.464.832 15.203 2.376 20.073 3.089 4.87.712 4.87.712 5.108-3.089.237-3.8.594-11.402.712-18.41.119-6.889-.118-13.184-.475-17.223-.356-4.038-.831-5.82-2.019-7.601-1.188-1.782-3.326-3.563-8.552-8.077-5.226-4.513-13.659-11.996-18.529-16.154-4.87-4.157-5.939-5.107-7.008-5.82-.95-.712-1.9-1.306-2.613-1.544-.713-.237-1.306-.237-1.663 0-.356.238-.594.713-.594 1.544 0 .832 0 2.02.832 12.828z" fill="#E6E6E6"/><path fill-rule="evenodd" clip-rule="evenodd" d="M630.464 180.896c-.475 4.038-1.069 11.403-1.544 17.341a358.34 358.34 0 00-.831 13.541c-.119 2.85 0 3.919.475 4.87.356.831 1.069 1.544 2.732 2.138 1.663.594 4.276 1.069 6.77 1.069 2.494 0 4.87-.476 6.651-1.426 1.782-1.069 3.207-2.613 4.039-5.82.95-3.207 1.425-7.958 1.781-13.897.357-6.057.713-13.303.713-17.341s-.237-4.632-.95-5.345c-.713-.594-2.019-1.306-4.039-1.781-2.137-.594-5.107-1.069-7.364-1.188-2.256-.238-3.682-.119-4.869.356-1.188.356-1.901 1.069-2.376 1.901-.475.593-.831 1.544-1.188 5.582z" fill="#24231D"/><path fill-rule="evenodd" clip-rule="evenodd" d="M629.395 193.843c.476-5.583.951-10.453 1.188-13.184.238-2.732.356-3.326.475-3.682.119-.476.119-.713.238-.951.119-.237.237-.475.475-.831.237-.238.475-.594.831-.95.238-.238.475-.475.832-.594.356-.119.594-.357.95-.475.356-.119.713-.238 1.069-.238s.713-.119 1.188-.119h1.781c.713 0 1.544.119 2.495.238.95.119 2.138.237 3.207.475.95.238 1.781.356 2.494.594.713.237 1.306.356 2.019.713a7.52 7.52 0 011.663.95l.713.712c.118.119.118.119-1.188-.118-1.307-.357-4.038-.951-6.652-1.188-2.613-.356-5.226-.356-6.651-.119-1.425.119-1.663.356-2.138 1.425-.475 1.069-1.069 2.97-1.663 8.315-.594 5.226-1.188 13.778-1.425 19.717-.238 5.82-.238 9.027 0 11.046.237 2.019.712 2.85 1.425 3.326.713.475 1.544.712 1.901.712.475.119.475.119-.119 0s-1.663-.356-2.376-.594c-.712-.237-1.069-.356-1.306-.475-.357-.119-.594-.356-.832-.475-.237-.237-.475-.356-.594-.594-.237-.237-.356-.475-.475-.712-.118-.238-.237-.476-.237-.832-.119-.356-.119-.831-.119-1.544 0-.594 0-1.425.119-4.989-.119-3.8.237-9.977.712-15.559zM511.807 226.15c.475 1.425 1.544 3.563 2.494 4.87.95 1.188 2.019 1.544 6.176 1.663s11.403.119 15.204.119c3.682-.119 3.919-.238 5.107-1.426 1.188-1.188 3.326-3.326 4.395-4.751 1.069-1.425 1.188-2.019 1.069-2.732-.119-.712-.357-1.544-1.544-2.969-1.188-1.425-3.326-3.445-4.395-4.514-1.188-1.069-1.425-1.069-4.87-1.306-3.444-.119-10.096-.356-13.897-.356-3.682 0-4.513.118-5.345.593a8.695 8.695 0 00-2.731 2.495c-.832 1.187-1.426 2.732-1.782 3.682-.356.95-.356 1.425-.356 2.019 0 .594 0 1.188.475 2.613z" fill="#4F4D3E"/><path fill-rule="evenodd" clip-rule="evenodd" d="M521.784 226.981c.594.713 1.663 1.901 2.138 2.613.594.713.713.713 2.613.832 2.019.119 5.82.356 7.721.356 1.9 0 1.9 0 2.731-.831.832-.832 2.376-2.376 3.089-3.207.831-.832.831-.832.712-.95h-3.682c-3.326 0-9.621 0-12.828-.119-3.207 0-3.325 0-3.325.119.118.237.237.475.831 1.187zm10.452-5.107h-11.758s-.119-.119.712-.95c.832-.832 2.495-2.495 3.326-3.207.831-.832.831-.832 2.613-.832h6.889c1.782 0 1.9 0 2.138.238.238.119.713.356 1.425 1.069.832.712 1.901 1.9 2.495 2.613.594.594.594.713.594.831v.238s-.119.119-1.307.119c-1.307-.119-3.801-.119-7.127-.119z" fill="#24231D"/><path fill-rule="evenodd" clip-rule="evenodd" d="M660.277 245.986c0 1.187 0 2.85.119 3.8.118.951.118 1.069.593 1.188.476.119 1.188.356 3.564.475 2.375 0 6.295 0 8.433-.119 2.138-.118 2.613-.118 2.851-.356.356-.237.593-.475.712-1.782.119-1.187.119-3.325-.119-4.513-.118-1.188-.356-1.425-.712-1.544-.357-.119-.594-.238-2.97-.356-2.375-.119-6.651-.119-9.027 0-2.375 0-2.613.118-2.85.237-.238.119-.357.356-.475.832 0 .356-.119 1.069-.119 2.138z" fill="#403E32"/><path fill-rule="evenodd" clip-rule="evenodd" d="M661.465 245.273c0 1.069 0 2.969.119 3.919.118.951.237 1.069.475 1.188.356.119.831.238 2.019.238 1.306.119 3.326.119 5.345 0 1.9 0 3.801-.119 4.751-.238.95-.119 1.069-.119 1.188-.237.118-.119.237-.238.237-.951 0-.712 0-1.9-.119-2.85 0-.95-.118-1.782-.118-2.257-.119-.475-.238-.594-1.901-.594h-11.165c-.712 0-.712.119-.831.238.119.356 0 .475 0 1.544z" fill="#E6E6E6"/><path fill-rule="evenodd" clip-rule="evenodd" d="M627.614 293.853c4.87-4.633 11.402-10.096 17.816-14.016s12.59-6.414 20.192-7.839c7.483-1.426 16.391-1.663 23.874-1.188 7.483.475 13.659 1.663 18.886 3.444 5.226 1.782 9.502 4.158 12.234 5.939 2.731 1.782 3.8 2.97 4.394 3.564.594.593.594.593 1.901-.238 1.306-.831 3.919-2.376 6.295-3.92 2.375-1.544 4.751-2.969 5.82-3.682l1.188-.712-2.732-2.138c-2.732-2.138-8.077-6.414-16.629-10.334-8.552-3.919-20.429-7.72-32.07-9.264-11.64-1.545-23.161-.951-33.613 2.019-10.453 2.969-19.598 8.433-26.131 14.015-6.533 5.583-10.334 11.284-12.59 16.273-2.257 5.107-3.088 9.621-3.326 12.828-.238 3.207.238 5.226.831 6.295.594.95 1.545.95 3.564-.832 1.9-1.9 5.226-5.582 10.096-10.214z" fill="#5DC94C"/><path fill-rule="evenodd" clip-rule="evenodd" d="M748.884 237.077c2.376 5.108 6.651 14.491 9.146 19.598 2.494 5.108 3.088 5.939 3.801 6.533.594.594 1.306.713 4.157 2.019 2.85 1.307 7.958 3.563 10.927 4.87 2.97 1.307 3.682 1.663 4.157 1.782.357 0 .475-.357-.95-4.989-1.425-4.751-4.276-13.778-6.533-19.242-2.256-5.463-3.919-7.364-5.226-8.67-1.187-1.307-2.019-1.901-4.988-3.564-2.97-1.544-8.077-4.157-11.284-5.345-3.207-1.187-4.395-1.069-4.989-.831-.712.238-.831.713-.712 1.307-.119.712.118 1.425 2.494 6.532z" fill="#24231D"/><path fill-rule="evenodd" clip-rule="evenodd" d="M750.428 236.484c2.02 4.632 6.058 13.659 8.434 18.647 2.375 4.989 3.088 5.939 3.8 6.652.713.713 1.307 1.069 4.039 2.257 2.732 1.187 7.483 3.207 9.858 4.038 2.376.831 2.495.594 1.901-1.663-.594-2.138-1.782-6.295-3.564-10.927-1.781-4.632-4.157-9.74-5.582-12.591-1.544-2.85-2.138-3.444-4.751-4.869a381.382 381.382 0 00-9.977-5.226c-2.851-1.426-4.039-1.782-4.751-1.901-.713-.119-.951 0-1.188.238-.119.356-.238.712 1.781 5.345z" fill="#E6E6E6"/><path fill-rule="evenodd" clip-rule="evenodd" d="M777.865 264.277c.475 1.663.713 2.257.713 2.732.119.475.119.712.119.95 0 .237-.119.356-.238.356-.237.119-.475 0-.831 0-.357-.119-.832-.237-1.426-.475-.593-.237-1.425-.475-2.375-.95-.95-.356-2.138-.832-2.732-1.069-.594-.238-.594-.238-2.138-3.563-1.544-3.326-4.632-9.859-6.77-14.491s-3.207-7.245-3.682-8.789c-.594-1.426-.594-1.782-.357-1.901.238-.119.713 0 2.495.832 1.781.831 4.988 2.494 6.651 3.325 1.663.832 1.663.832 2.138 1.901.475 1.069 1.544 3.088 2.613 5.582 1.188 2.613 2.376 5.583 3.445 8.433a98.4 98.4 0 012.375 7.127z" fill="#E8E4BE"/><path fill-rule="evenodd" clip-rule="evenodd" d="M722.516 286.013c1.188-.713 2.257-1.425 2.85-1.782.594-.356.594-.356 2.614 1.901 2.019 2.257 6.176 6.77 9.502 11.877 3.325 5.108 5.938 10.809 7.839 17.223 1.9 6.414 3.088 13.659 3.682 17.46.594 3.801.713 4.039 3.444 4.157 2.732 0 8.077-.118 12.71-.475 4.632-.356 8.67-.95 11.283-1.425 2.613-.475 3.801-1.069 4.395-1.307.594-.237.594-.237.238.238-.357.475-1.188 1.425-2.02 2.257a25.95 25.95 0 01-2.732 2.375c-.95.713-1.9 1.426-3.444 2.257-1.544.713-3.801 1.663-6.058 2.375-2.256.832-4.632 1.545-6.057 1.901-1.426.475-2.019.594-2.376.713-.356.118-.594.237-1.544.475-.95.237-2.613.712-4.038 1.187-1.544.357-2.851.713-4.276.832-1.425.237-2.732.356-3.801.356h-2.494c-.832 0-1.782-.119-2.495-.119-.593 0-.95-.118-1.069-.118-.118 0-.118 0-.118-.951v-5.107c0-2.257-.119-4.87-.357-7.008-.118-2.138-.237-3.682-.594-5.82-.356-2.138-.712-4.751-1.306-7.008-.475-2.256-1.069-4.157-1.663-6.057-.594-1.901-1.425-3.801-2.257-5.701-.831-1.901-1.9-3.92-2.969-5.939s-2.257-3.92-3.92-5.939c-1.663-2.019-3.801-4.038-5.345-5.583-1.663-1.425-2.732-2.375-3.325-2.731l-.594-.476.475-.237c.475-.238 1.306-.831 2.375-1.425 1.069-.832 2.257-1.544 3.445-2.376z" fill="#403E32"/><path fill-rule="evenodd" clip-rule="evenodd" d="M755.536 329.485c4.157.119 13.065-.356 18.173-.831 5.107-.476 6.295-.951 7.245-2.376 1.069-1.425 1.9-3.801 2.613-6.651.713-2.732 1.188-5.939 1.425-8.196.238-2.257.238-3.682 0-4.632-.237-.95-.594-1.426-1.544-1.901-.95-.475-2.613-1.069-6.176-1.544-3.563-.475-9.146-.95-13.303-1.188-4.157-.237-6.889-.118-8.314 0-1.426.238-1.545.476-1.307.832.237.356.475.594 1.9.831 1.426.238 3.801.475 7.365.713 3.563.238 8.314.475 11.164.713 2.851.237 3.683.356 4.158.475.475.119.475.356.118 1.544-.356 1.188-1.187 3.563-1.662 6.533-.594 2.969-.832 6.77-.951 8.789-.118 2.019-.118 2.376-.118 2.494v.119l-3.089.238c-3.088.237-9.264.712-13.065 1.069-3.801.475-5.464.831-6.533 1.306-1.425.95-2.138 1.544 1.901 1.663z" fill="#24231D"/><path fill-rule="evenodd" clip-rule="evenodd" d="M778.697 311.669c.356-1.069.713-1.663.95-2.02.238-.356.238-.356.238.594 0 .951 0 2.613-.238 4.87-.237 2.138-.712 4.632-1.069 6.058-.356 1.425-.712 1.663-.831 1.544-.238-.119-.238-.594-.238-1.782 0-1.306.238-3.326.357-5.107.118-1.663.475-3.088.831-4.157z" fill="#E8E4BE"/><path fill-rule="evenodd" clip-rule="evenodd" d="M510.263 323.19c21.261.357 63.307.95 84.45 1.307 21.142.356 21.617.475 21.854.475.238 0 .119 0 .119-.119s.119-.475-2.138-1.544c-2.138-1.069-6.651-2.851-8.908-3.801-2.257-.95-2.257-.95-21.023-1.306-18.767-.357-56.3-1.069-75.542-1.426-19.242-.356-20.311-.356-20.786-.356-.594 0-.713 0-.831.119-.119.118-.119.475-.119 1.544v3.563c0 .832.119.95.475.95.475.357 1.188.357 22.449.594zm-21.261-39.077c.237.95.356.95 12.828 1.306 12.352.357 36.939 1.069 54.28 1.426 17.342.356 27.556.356 33.495.237 5.939-.119 7.721-.475 8.671-.713.95-.356.95-.593.119-1.425-.832-.831-2.376-2.019-3.682-3.207-1.307-1.069-2.495-2.138-2.97-2.613-.594-.475-.594-.475-2.613-.594s-6.295-.356-23.161-.594c-16.866-.356-46.561-.712-61.526-.831-15.085-.119-15.441 0-15.679.475-.237.475-.237 1.188-.119 2.494-.118 1.426.119 3.207.357 4.039z" fill="#5DC94C"/><path fill-rule="evenodd" clip-rule="evenodd" d="M486.151 238.621c.237.357.594.357 9.027.713s24.824.95 37.771 2.732c12.946 1.782 22.211 4.632 30.288 8.433 8.076 3.801 14.965 8.552 19.598 12.947 4.751 4.394 7.364 8.433 9.027 10.927 1.663 2.494 2.375 3.563 3.207 4.395a11.593 11.593 0 002.494 1.9c.831.475 1.425.832 1.9.475.357-.356.594-1.544-.356-4.513-.95-2.97-2.969-7.721-8.552-13.422-5.582-5.701-14.728-12.353-23.755-16.866-9.146-4.514-18.173-6.77-28.981-8.314-10.809-1.426-23.518-2.138-32.308-2.495-8.908-.356-14.015-.475-16.628-.475-2.613 0-2.732.119-2.732.356 0 .357-.119.832-.119 1.426-.119.712-.119 1.425.119 1.781z" fill="#3D8C31"/><path fill-rule="evenodd" clip-rule="evenodd" d="M531.048 113.906c9.74.475 23.637 1.307 32.545 2.019 8.908.713 12.828 1.545 16.629 2.732 3.801 1.188 7.364 2.851 10.69 4.751 3.207 1.901 6.057 3.92 13.303 9.978 7.245 5.938 18.766 15.916 26.012 22.211 7.245 6.176 10.096 8.789 11.64 10.214 1.544 1.426 1.663 1.663 1.781 1.901.119.237 0 .594-.119.713-.237.118-.593 0-1.068-.357-.476-.237-.832-.712-8.196-7.126-7.245-6.414-21.38-18.767-30.644-26.369-9.146-7.601-13.541-10.571-18.292-12.828-4.87-2.137-10.215-3.563-20.667-4.632-10.452-1.069-26.131-1.663-36.345-2.019-10.215-.356-14.966-.475-17.579-.356-2.613 0-3.089.237-3.564.594-.475.356-.95.831-1.069 2.494-.237 1.663-.118 4.276-.237 23.755 0 19.479-.119 55.706 0 74.948.119 19.123.356 21.261.594 22.924.237 1.663.356 2.85.95 4.87.594 1.9 1.544 4.632 2.613 7.126.95 2.613 2.019 5.108 2.613 7.602.594 2.494.831 4.988 1.069 7.126.119 2.257.238 4.158.713 13.541s1.425 26.249 1.9 36.227c.475 9.977.356 12.946.594 15.441.119 2.494.475 4.394 1.188 5.701.712 1.306 1.781 2.138 3.563 2.732 1.782.594 4.395.831 11.996.95 7.721.119 20.549.119 34.564.356 14.016.119 29.457.475 37.771.713 8.315.237 9.621.237 10.571.119.95-.119 1.426-.238 1.663-.475.238-.238.238-.594.475-2.376.238-1.782.594-4.989 1.663-9.977 1.069-4.989 2.97-11.878 5.345-17.817 2.376-5.938 5.226-10.927 6.889-13.421 1.663-2.495 2.019-2.495 2.257-2.376.237.119.356.356-.238 1.188-.594.95-1.781 2.494-3.444 5.582-1.782 3.207-4.039 7.958-5.702 12.947-1.781 4.989-2.969 10.096-3.8 14.016-.832 3.919-1.188 6.532-1.426 8.551-.356 2.02-.594 3.564-1.069 4.276-.475.832-1.187.832-15.559.713-14.253-.119-42.166-.594-57.963-.831-15.797-.238-19.361-.357-21.736-.713-2.376-.238-3.563-.713-4.514-1.425-1.069-.832-2.019-1.901-2.613-3.326-.594-1.425-.594-2.969-.712-5.701-.119-2.732-.238-6.652-.713-17.698-.594-11.046-1.544-29.1-2.138-38.84-.594-9.739-.713-10.927-1.069-12.709a49.702 49.702 0 00-1.9-7.008c-.951-3.088-2.495-7.007-3.326-9.858-.832-2.732-1.188-4.276-1.307-7.127-.118-2.85-.237-7.007-.237-21.973s-.119-40.622-.119-58.557c0-17.935.119-28.031.119-33.495 0-5.464.119-6.414.237-7.126a3.142 3.142 0 01.832-1.663c.356-.357.712-.594 1.425-.832.713-.237 1.782-.475 5.107-.475 3.326 0 8.315 0 18.054.475zm121.509 118.301c0 9.146.237 25.893.356 34.327.119 8.433.237 8.433.356 8.433s.475 0 .594-.119.238-.356.119-9.621c0-9.264-.119-27.556-.238-36.821-.118-9.264-.118-9.502-.237-9.62-.119-.119-.475-.119-.594.118-.119.238-.238.594-.238 1.544-.119 1.069-.237 2.613-.118 11.759zm13.184-54.518c3.92 3.326 7.958 6.77 11.996 9.74 3.92 3.088 7.84 5.82 10.69 7.72 2.851 1.9 4.751 2.851 5.583 3.326.95.475.831.475.119 1.069-.713.594-2.138 1.663-2.97 2.257-.831.593-1.188.712-1.544.831-.356.119-.594.119-17.104-13.659-16.51-13.66-49.292-41.097-65.802-54.994-16.51-13.897-16.866-14.253-16.985-14.609-.119-.357-.119-.594.475-1.069s1.663-1.188 2.257-1.425c.594-.357.594-.357 6.295 4.394 5.701 4.633 17.104 14.016 27.319 22.568 10.214 8.552 19.123 16.153 25.537 21.617 6.295 5.582 10.096 8.908 14.134 12.234z" fill="#403E32"/><path fill-rule="evenodd" clip-rule="evenodd" d="M595.425 119.132c-.594.119-1.188.594-1.544.832-.356.237-.237.237-.237.356.118.119.237.356 1.425 1.425 1.188 1.188 3.563 3.207 18.648 15.798 15.084 12.59 42.759 35.87 57.25 48.104 14.491 12.234 15.916 13.303 16.629 13.897.831.594.95.594 1.544.119.475-.475 1.425-1.426 1.781-1.901.475-.475.475-.475-1.425-1.781-1.9-1.307-5.701-4.039-11.403-8.552-5.82-4.514-13.54-10.928-21.261-17.46-7.72-6.533-15.44-13.066-23.874-20.192-8.433-7.127-17.46-14.729-23.042-19.48-5.583-4.632-7.602-6.414-9.265-7.72-1.663-1.307-2.732-2.257-3.563-2.851-.713-.475-1.069-.712-1.663-.594z" fill="#E6E6E6"/><path fill-rule="evenodd" clip-rule="evenodd" d="M102.266 232.683l7.245-187.429 4.989-.119-6.414 187.548h-5.82z" fill="#DBA758"/><path fill-rule="evenodd" clip-rule="evenodd" d="M108.086 232.683L114.5 45.135l1.544.475-6.058 186.123-1.9.95z" fill="#F7CE66"/><path fill-rule="evenodd" clip-rule="evenodd" d="M150.846 233.158l-3.682-188.38 4.513-.474 4.395 188.498-5.226.356z" fill="#DBA758"/><path fill-rule="evenodd" clip-rule="evenodd" d="M156.072 232.802l-4.395-188.498 1.544.356 4.514 187.073-1.663 1.069z" fill="#F7CE66"/><path fill-rule="evenodd" clip-rule="evenodd" d="M114.738 65.683l.119-6.295 32.663-.594.119 6.652-32.901.237zm33.257 20.667l-33.97.595-.237 7.007 34.326-.237-.119-7.364zm.594 31.12l-35.752.119-.119 7.126h35.989l-.118-7.245zm.712 33.376h-37.652v6.77l37.771.238-.119-7.008zm.594 35.395l-39.79.119-.237 7.958 40.265-.119-.238-7.958z" fill="#DBA758"/><path fill-rule="evenodd" clip-rule="evenodd" d="M321.646 247.292c9.859 0 17.935-7.958 17.935-17.816 0-9.859-8.076-17.817-17.935-17.817-9.858 0-17.935 7.958-17.935 17.817 0 9.858 8.077 17.816 17.935 17.816z" fill="#2B2A29"/><path fill-rule="evenodd" clip-rule="evenodd" d="M321.646 236.721a7.199 7.199 0 007.246-7.246c0-3.919-3.207-7.245-7.246-7.245a7.199 7.199 0 00-7.245 7.245c0 3.92 3.207 7.246 7.245 7.246z" fill="#CCC"/><path fill-rule="evenodd" clip-rule="evenodd" d="M317.608 226.506c-4.276-3.088-12.472-9.146-16.629-12.353-4.157-3.088-4.395-3.207-4.632-3.325-.238-.119-.594-.119-9.859-.238l-36.702-.475-9.145-.119-2.732-6.532a28209.79 28209.79 0 01-11.165-26.725c-3.088-7.127-3.682-8.314-6.295-11.878-2.495-3.563-7.008-9.264-10.453-13.303-3.563-4.038-6.057-6.295-8.67-8.195-2.613-1.901-5.108-3.445-6.771-4.276-1.781-.832-2.613-1.069-3.8-.95-1.188 0-2.614.237-3.207.356-.713.119-.594.237-.594.713v2.613s.118 0 .95.118c.713 0 2.138.119 2.969.238.951.119 1.426.238 3.089 1.188a64.212 64.212 0 017.245 4.87c2.613 2.138 4.988 4.513 7.839 7.839 2.851 3.326 6.058 7.483 8.79 11.64 2.731 4.276 4.988 8.671 7.482 14.253 2.376 5.582 4.989 12.472 7.008 18.054 2.019 5.582 3.326 9.858 4.157 11.996.713 2.138.951 2.257 1.663 2.257.713.119 2.138.119 8.671.238 6.533.118 18.291.237 27.556.356 9.383.119 16.272.119 19.836 0h3.919c.238 0 .357.119 3.92 2.732 3.444 2.613 10.215 7.602 14.015 10.333 3.683 2.732 4.276 3.089 4.87 3.326.475.356.951.594 1.307.475.356 0 .713-.356.831-.712.119-.357-.118-.713-.356-.951-.594-.475-.831-.475-5.107-3.563z" fill="#2B2A29"/><path fill-rule="evenodd" clip-rule="evenodd" d="M281.5 214.628h2.375c.119 0 .119 0-.712.951-.832.95-2.495 2.731-6.889 7.601-4.395 4.87-11.64 12.709-15.798 17.223-4.157 4.513-5.345 5.464-6.176 6.295-.831.831-1.544 1.307-2.376 1.782-.95.475-2.256.831-3.682.95-1.544.119-3.325-.119-4.276-.475-1.069-.357-1.306-.713-1.425-1.307s0-1.188 0-6.889c0-5.582-.119-16.035-.119-21.38v-5.226h2.376v25.181c0 5.226.119 5.582.475 5.82.356.356 1.069.594 1.9.713.832.118 1.901.118 2.495 0 .712 0 .95-.119 5.939-4.989a3316.95 3316.95 0 0019.36-20.073c4.989-5.226 5.464-5.82 5.701-6.058.238-.237.238-.237.357-.237-.238.118 0 .118.475.118z" fill="#737160"/><path fill-rule="evenodd" clip-rule="evenodd" d="M334.236 173.057c-1.425.95-3.8 2.613-6.057 5.107-2.257 2.495-4.395 5.939-6.414 9.502-2.019 3.564-3.92 7.483-5.583 10.334-1.662 2.85-3.206 4.87-4.751 6.414a21.106 21.106 0 01-5.107 3.801 19.975 19.975 0 01-5.226 1.9c-1.663.356-3.088.594-5.464.594-2.375.119-5.701 0-13.422-.119-7.72-.119-19.954-.237-27.674-.356-7.602-.119-10.69-.119-12.234-.119h-1.544l-.357-.95c-.356-.95-1.188-2.97-2.85-6.77a894.928 894.928 0 00-5.702-13.66c-1.781-4.157-2.85-6.77-4.038-9.502-1.188-2.732-2.376-5.582-3.088-7.008l-.594-1.425h2.613c2.613 0 7.958-.119 22.33-.475 14.372-.356 37.89-1.069 53.924-1.544 16.035-.475 24.468-.594 28.863-.713s4.632-.119 4.632.119c.119.238.119.594.119 1.188s0 1.425-.238 2.019c-.237.238-.712.594-2.138 1.663z" fill="#CCC"/><path fill-rule="evenodd" clip-rule="evenodd" d="M228.407 209.877c-1.782 0-1.782 0-1.782.119s0 .475.594 7.364 1.782 20.549 2.494 27.319c.594 6.77.594 6.889.713 7.008.119.118.237.356 1.425.475 1.188.237 3.207.356 6.77.475 3.564.119 8.434.119 11.522.119 3.088 0 4.276-.119 4.988-.238.594-.119.713-.119.713-.119l.95-7.008c.832-7.007 2.613-21.023 3.563-28.268.951-7.246.832-7.483.832-7.721 0-.237 0-.118-3.92 0-3.919.119-11.877.119-17.579.238-5.82.237-9.383.237-11.283.237z" fill="#F7F7F7"/><path fill-rule="evenodd" clip-rule="evenodd" d="M225.318 162.129c-3.088-2.613-8.195-7.601-11.283-14.134-2.97-6.652-3.801-14.966-3.326-21.142.475-6.177 2.138-10.096 3.207-12.59 1.188-2.495 1.663-3.564 2.494-3.564.832 0 1.901 1.188 3.564 3.326 1.662 2.138 3.8 5.107 5.701 9.265 1.9 4.157 3.444 9.264 4.394 14.728.951 5.345 1.426 10.808 1.426 15.559 0 4.751-.238 8.79-.594 10.69-.238 1.901-.594 1.544-1.188 1.188-.475-.356-1.306-.713-4.395-3.326zm15.916-35.038c-1.662.118-3.325 2.256-4.632 5.226-1.425 2.969-2.494 6.889-3.088 11.521-.713 4.632-.95 10.096-.832 15.56.238 5.582.832 11.283 1.663 14.728.713 3.444 1.544 4.751 2.02 5.345.593.594.831.594 1.544 0 .712-.713 1.781-2.019 2.969-4.751 1.188-2.613 2.613-6.533 3.682-11.521 1.069-4.989 1.663-10.928 1.901-16.629.237-5.701-.119-10.928-1.069-14.491-.951-3.326-2.495-5.107-4.158-4.988z" fill="#4AAB3C"/><path fill-rule="evenodd" clip-rule="evenodd" d="M248.718 93.952c-.951 1.425-2.376 3.088-3.683 5.939-1.306 2.85-2.494 6.77-3.088 11.402-.594 4.751-.594 10.334.238 16.272.831 6.058 2.613 12.591 3.801 16.748 1.306 4.157 2.138 5.939 2.732 6.651.593.832.831.594 2.256-1.069 1.426-1.662 3.801-4.751 5.702-8.789 1.9-4.038 3.088-8.908 3.8-14.609.713-5.702.832-12.116-.831-18.53-1.544-6.295-4.751-12.471-6.652-15.44-1.781-2.97-2.256-2.614-2.613-1.9-.356.712-.712 1.9-1.662 3.325z" fill="#5DC94C"/><path fill-rule="evenodd" clip-rule="evenodd" d="M252.043 156.428c-1.544 2.851-2.613 5.939-3.325 8.671-.713 2.851-.951 5.345-.594 7.839.237 2.495 1.069 4.87 2.019 6.889.95 2.019 2.019 3.564 2.732 4.157.712.594 1.069.238 2.138-1.662 1.069-1.901 2.85-5.345 3.919-9.978 1.069-4.513 1.426-10.096 1.188-14.253-.356-4.157-1.306-6.889-2.851-6.889-1.544 0-3.682 2.494-5.226 5.226z" fill="#4AAB3C"/><path fill-rule="evenodd" clip-rule="evenodd" d="M278.649 150.252c-2.376 1.188-6.414 3.444-9.74 7.364-3.207 3.92-5.582 9.621-7.126 14.61-1.544 4.988-2.257 9.502-2.495 12.709-.237 3.325.119 5.463.238 6.532.238 1.069.237 1.069 2.257.238 2.019-.832 5.939-2.494 9.145-5.107 3.207-2.614 5.702-6.296 7.365-10.334 1.781-4.038 2.731-8.314 3.325-12.947.594-4.632.713-9.502.713-11.996 0-2.494-.238-2.494-.594-2.494-.237 0-.831.237-3.088 1.425z" fill="#5DC94C"/><path fill-rule="evenodd" clip-rule="evenodd" d="M216.766 119.488c-.118-.118 0-.356.238-.475.119-.118.356 0 .475.238 2.969 8.077 5.82 16.272 7.958 23.993 1.069 3.801 1.9 7.601 2.732 11.64.713 4.038 1.425 8.195 2.019 13.184.594 4.157 1.069 8.908 1.544 13.422.713 6.057 1.188 11.877 1.663 16.034.713 7.365.831 9.859.95 12.353 0 .238-.119.357-.356.357-.238 0-.356-.119-.356-.357-.119-2.494-.238-4.988-.951-12.353-.356-4.157-.95-9.977-1.663-16.034-.475-4.514-1.069-9.265-1.544-13.422-.594-4.87-1.306-9.146-2.019-13.065-.712-3.92-1.544-7.721-2.613-11.522-2.138-7.72-5.107-15.797-8.077-23.993zm23.518 19.005c0-.237.238-.356.357-.237.237 0 .356.237.237.356-.475 3.326-.95 6.651-1.425 9.858a137.965 137.965 0 00-1.069 10.096c-.238 3.445-.475 7.008-.594 10.809-.119 3.801-.238 7.72-.238 11.996 0 8.552 0 18.529.119 28.507 0 .237-.119.356-.356.356-.238 0-.356-.119-.356-.356-.119-9.978-.238-19.836-.119-28.507 0-4.276.119-8.314.237-11.996.119-3.801.357-7.364.594-10.809.238-3.444.713-6.889 1.188-10.214.475-3.326.95-6.652 1.425-9.859zM256.2 156.19c0-.237.119-.356.357-.356.237 0 .356.119.356.356-.237 5.345-.594 10.809-1.188 15.441-.594 4.039-1.306 7.483-2.138 11.165l-.356 1.782c-.475 2.375-1.069 4.87-1.544 7.245-.475 2.138-.832 4.276-1.188 6.295-.713 4.276-1.188 7.958-1.663 11.522 0 .237-.237.356-.356.237-.238 0-.356-.237-.238-.356.476-3.682.951-7.246 1.663-11.521.357-2.02.713-4.158 1.188-6.414.475-2.495 1.069-4.989 1.544-7.246l.356-1.781c.832-3.682 1.663-7.127 2.138-11.165.476-4.514.832-9.859 1.069-15.204zm20.667.119c.119-.119.238-.237.476-.119.118.119.237.238.118.475-1.544 2.851-2.969 5.702-4.513 8.671-1.544 2.969-2.97 5.82-4.276 8.79-1.307 2.85-2.613 5.701-3.682 8.433-1.307 3.088-2.494 5.938-3.445 8.552-.95 2.494-1.663 4.632-2.375 6.532-.594 1.901-1.069 3.564-1.544 4.989-.357 1.425-.594 2.613-.832 3.801-.237 1.069-.356 2.138-.475 3.088 0 .237-.237.356-.356.237-.238 0-.356-.237-.238-.356.119-.95.238-2.019.475-3.207.238-1.188.476-2.375.832-3.801a55.406 55.406 0 011.544-5.107c.594-1.901 1.425-4.157 2.375-6.652.951-2.613 2.138-5.582 3.445-8.67 1.188-2.732 2.375-5.583 3.682-8.433 1.425-2.97 2.851-5.939 4.395-8.79a297.984 297.984 0 014.394-8.433zm-26.249-55.231c0-.237.118-.356.356-.356.237 0 .356.119.356.356.238 8.196.594 16.51.238 24.825-.238 4.157-.594 8.314-1.069 13.065-.475 4.632-1.188 9.74-1.901 15.916l-.594 4.989c-1.425 11.283-3.206 24.349-4.157 32.901-1.069 9.739-1.187 13.421-1.306 17.104 0 .237-.119.356-.357.356-.237 0-.356-.119-.356-.356.119-3.683.238-7.365 1.307-17.104.95-8.433 2.613-21.618 4.157-32.901l.594-4.989a429.398 429.398 0 001.9-15.916c.475-4.632.832-8.789 1.069-12.946.356-8.434.119-16.629-.237-24.944z" fill="#409133"/><path fill-rule="evenodd" clip-rule="evenodd" d="M361.199 231.614l21.498.475-1.662-40.265-21.499.119 1.663 39.671zm36.464-1.307l21.498-.713-1.662-38.958-21.499.95 1.663 38.721z" fill="#999"/><path fill-rule="evenodd" clip-rule="evenodd" d="M420.587 184.934c-3.207 3.089-5.702 5.583-7.483 7.483-23.043-2.494-49.055-3.563-78.393-3.325 2.732-2.614 7.721-4.87 14.966-6.771 42.166.357 65.802 1.188 70.91 2.613z" fill="#DBA758"/><path fill-rule="evenodd" clip-rule="evenodd" d="M420.23 249.074c-4.751 6.889-6.77 8.789-6.77 8.789-.712-22.33-.831-42.64-.475-65.446a221.774 221.774 0 017.483-7.482c.238 43.234-.238 64.139-.238 64.139z" fill="#DBA758"/><path fill-rule="evenodd" clip-rule="evenodd" d="M412.985 192.417c-.356 19.242-.356 39.553.475 65.446-45.966-.594-79.223-2.732-79.223-2.732-.357-33.851-.238-55.944.356-66.04 26.249-.356 52.38.713 78.392 3.326zm-66.99-6.77c-.356 0-.594-.237-.594-.713 0-.356.238-.712.594-.712 11.284-.356 22.805-.238 34.327.237a603.69 603.69 0 0135.157 2.495c.357 0 .594.356.475.712 0 .357-.237.594-.593.594-11.878-1.188-23.518-2.138-35.039-2.494-11.64-.356-23.043-.475-34.327-.119z" fill="#F7CE66"/><path fill-rule="evenodd" clip-rule="evenodd" d="M367.257 189.448c3.919.119 7.72.238 11.283.475.475-.475-.118 28.625 0 40.265 0 0-11.165-.475-11.64-.475-.119-.118.119-13.54.357-40.265z" fill="#F7F7F7"/><path fill-rule="evenodd" clip-rule="evenodd" d="M378.54 189.804c-7.483-.356-11.284-.475-11.284-.475 6.771-4.395 10.215-6.651 10.215-6.651 4.87.119 7.364.118 7.364.118-4.157 4.752-6.295 7.008-6.295 7.008z" fill="#E0E0E0"/><path fill-rule="evenodd" clip-rule="evenodd" d="M358.823 153.578a4211.11 4211.11 0 002.732 27.081c.713 6.77.713 7.245 3.207 7.601 2.495.357 7.602.713 12.472.594 4.751-.118 9.383-.831 11.759-1.187 2.375-.357 2.731-.476 3.563-7.127.831-6.651 2.138-19.954 2.85-26.606.713-6.651.713-6.651.713-7.364 0-.713 0-2.019-1.188-2.613-1.187-.713-3.682-.713-9.145-.713-5.464-.119-14.016-.237-19.123-.356-5.108-.119-6.889-.119-7.602.831-.95.713-.95 2.495-.238 9.859z" fill="#FDE742"/><path fill-rule="evenodd" clip-rule="evenodd" d="M355.141 146.688c1.544.476 4.157 1.426 7.839 2.02 3.682.594 8.315.95 12.947.95s9.146-.238 13.065-.713c3.92-.475 7.246-1.306 9.027-1.781 1.782-.476 2.257-.713 2.495-.951.237-.237.356-.475.356-2.019v-5.82c0-1.425 0-1.425-2.257-1.9-2.257-.475-6.77-1.307-13.303-1.663-6.651-.356-15.322-.238-21.023.119-5.701.356-8.552.831-9.977 1.069-1.426.237-1.426.356-1.426 1.9s0 4.751.119 6.295c.119 1.782.594 2.019 2.138 2.494z" fill="#F7CE66"/><path fill-rule="evenodd" clip-rule="evenodd" d="M357.873 138.612c2.019.594 6.295 1.069 11.402 1.306 5.108.357 10.928.475 15.679.357 4.751-.119 8.195-.475 10.215-.713 2.019-.356 2.613-.594 2.613-.831 0-.238-.594-.594-2.613-1.069-2.02-.594-5.464-1.426-11.165-1.782-5.702-.356-13.541-.119-18.648.119-4.989.237-7.127.475-8.314.95-1.069.475-1.307 1.188.831 1.663z" fill="#24231D"/><path fill-rule="evenodd" clip-rule="evenodd" d="M372.601 135.405c-.95-4.395-2.257-13.066-2.375-23.162-.119-10.096.95-21.498 3.444-30.169 2.494-8.67 6.414-14.49 9.977-19.241 3.564-4.752 6.652-8.434 8.196-10.215 1.544-1.782 1.544-1.544 1.188 4.513-.357 6.177-1.188 18.292-2.851 28.031-1.663 9.74-4.157 17.223-6.77 23.637-2.613 6.533-5.226 11.996-6.652 16.985-1.425 4.989-1.662 9.383-1.781 11.64-.119 2.257-.119 2.257-.475 2.257-.357.119-.951.119-1.901-4.276z" fill="#4AAB3C"/><path fill-rule="evenodd" clip-rule="evenodd" d="M372.958 133.267c0-3.801-.119-12.234-2.376-20.192-2.257-8.077-6.533-15.798-11.284-21.499-4.751-5.701-9.858-9.502-13.421-11.759-3.445-2.256-5.226-3.207-6.177-3.207-.95 0-.95.832-.594 3.207.357 2.376 1.069 6.295 2.97 10.69 1.9 4.514 4.87 9.502 8.195 13.659 3.326 4.276 6.771 7.602 9.74 11.165 2.97 3.445 5.226 7.008 7.245 10.334 2.02 3.326 3.564 6.533 4.514 8.552.95 2.019 1.188 2.85 1.188-.95z" fill="#5DC94C"/><path fill-rule="evenodd" clip-rule="evenodd" d="M382.103 121.508c.713-2.376 2.851-7.127 7.127-10.809 4.276-3.682 10.452-6.176 14.966-7.483 4.513-1.425 7.245-1.544 8.551-1.544 1.307 0 1.188.357.713 1.426s-1.306 2.85-2.969 5.463c-1.663 2.613-4.276 6.177-7.84 8.909-3.682 2.731-8.314 4.632-11.758 5.582-3.445.95-5.583.832-7.127.832-1.544 0-2.375 0-1.663-2.376z" fill="#4AAB3C"/><path fill-rule="evenodd" clip-rule="evenodd" d="M346.827 87.776a.36.36 0 010-.475.361.361 0 01.475 0c3.207 4.038 6.533 7.957 9.502 12.115 2.969 4.157 5.82 8.314 8.077 12.709 2.257 4.394 4.038 8.908 5.701 13.54 1.544 4.633 2.851 9.384 4.157 14.135 0 .237-.118.356-.237.475-.238 0-.357-.119-.475-.238-1.307-4.751-2.613-9.383-4.158-14.015-1.544-4.633-3.325-9.146-5.582-13.541-2.257-4.395-4.989-8.552-8.077-12.59-2.85-4.157-6.176-8.196-9.383-12.115z" fill="#409133"/><path fill-rule="evenodd" clip-rule="evenodd" d="M385.429 69.484c.119-.237.238-.237.475-.237.238.118.238.237.238.475-1.069 2.613-2.019 5.345-2.969 8.195a155.987 155.987 0 00-2.851 9.977c-.832 3.564-1.663 7.483-2.257 11.76-.831 4.869-1.544 10.095-2.257 14.965-1.187 9.027-2.019 17.104-2.731 25.062 0 .237-.238.356-.476.356-.237 0-.356-.237-.356-.475.832-8.077 1.544-16.153 2.732-25.18.594-4.87 1.425-10.096 2.257-14.966a204.616 204.616 0 012.375-11.76c.95-3.8 1.901-7.126 2.851-10.095.95-2.732 2.019-5.345 2.969-8.077zm19.123 38.127c.238-.119.356 0 .475.119.119.238 0 .356-.119.475-4.988 3.088-9.977 6.058-13.778 8.671-1.9 1.306-3.444 2.494-4.869 3.563-1.426 1.069-2.495 2.257-3.564 3.326a16.93 16.93 0 00-2.613 3.326c-.712 1.187-1.306 2.375-1.781 3.682-.951 2.731-1.307 5.938-1.782 9.145 0 .238-.238.357-.475.357-.238 0-.357-.238-.357-.475.476-3.207.832-6.533 1.782-9.265.475-1.425 1.069-2.732 1.901-3.92.712-1.187 1.662-2.375 2.731-3.444s2.257-2.257 3.564-3.326a64.671 64.671 0 014.869-3.682c4.039-2.494 9.027-5.582 14.016-8.552z" fill="#409133"/><path fill-rule="evenodd" clip-rule="evenodd" d="M92.29 235.177l-19.836.356 1.306-30.525 19.717.119-1.188 30.05zm-33.615-.95l-19.835-.594 1.306-29.575 19.717.712-1.188 29.457z" fill="#999"/><path fill-rule="evenodd" clip-rule="evenodd" d="M37.296 199.663c2.97 2.376 5.345 4.276 7.008 5.701 21.142-1.9 45.253-2.732 72.216-2.375-2.613-2.019-7.127-3.682-13.778-5.108-39.078.238-60.933.832-65.446 1.782z" fill="#DBA758"/><path fill-rule="evenodd" clip-rule="evenodd" d="M37.533 248.955l6.77 7.839a928.044 928.044 0 000-51.43c-2.256-1.9-4.632-3.919-7.007-5.701.119 32.901.237 49.292.237 49.292z" fill="#DBA758"/><path fill-rule="evenodd" clip-rule="evenodd" d="M44.185 205.364c.475 14.61.475 31.714 0 51.43 48.698-2.494 73.047-3.682 73.047-3.682.119-25.655-.237-42.403-.831-50.123-24.112-.357-48.104.475-72.216 2.375zm61.764-5.107c.237 0 .475-.238.475-.475 0-.238-.238-.475-.475-.475-10.453-.238-21.024-.238-31.595.118-10.69.357-21.498.951-32.307 1.901-.238 0-.475.237-.475.594 0 .237.237.475.594.475 10.927-.95 21.617-1.544 32.307-1.901 10.57-.356 21.142-.475 31.476-.237z" fill="#F7CE66"/><path fill-rule="evenodd" clip-rule="evenodd" d="M86.35 203.107c-3.682.119-7.126.238-10.333.357-.475-.357.356 21.736.356 30.525 0 0 10.334-.356 10.809-.356-.12.119-.357-10.096-.832-30.526z" fill="#F7F7F7"/><path fill-rule="evenodd" clip-rule="evenodd" d="M76.017 203.464l10.334-.357c-6.296-3.325-9.503-5.107-9.503-5.107-4.513.119-6.77.119-6.77.119a610.395 610.395 0 005.939 5.345z" fill="#E0E0E0"/><path d="M69.368 210.49l-18.19 1.933 1.306 12.284 18.19-1.934-1.306-12.283z" fill="#F7F7F7"/><path fill-rule="evenodd" clip-rule="evenodd" d="M66.04 208.809l-20.074-6.889-.475-64.852 20.905 3.326-.356 68.415z" fill="#DBA758"/><path fill-rule="evenodd" clip-rule="evenodd" d="M66.04 208.808l.356-68.415 22.686-1.187-.831 67.464-22.211 2.138z" fill="#F7CE66"/><path fill-rule="evenodd" clip-rule="evenodd" d="M89.082 138.968l-22.686 1.901-20.905-3.801 21.736-.832 21.855 2.732z" fill="#DBA758"/><path fill-rule="evenodd" clip-rule="evenodd" d="M80.055 139.8l-7.364.594.475 43.353 7.127-.356-.238-43.591z" fill="#F7F7F7"/><path fill-rule="evenodd" clip-rule="evenodd" d="M72.691 140.394l7.364-.594-18.885-3.326-2.732.119v1.188l14.253 2.613z" fill="#F7F7F7"/><path fill-rule="evenodd" clip-rule="evenodd" d="M187.31 202.988c0-1.663.238-4.394.713-7.007.475-2.495 1.306-4.87 2.138-6.296.831-1.425 1.663-2.138 2.019-2.494.356-.356.356-.356.95-.119.594.238 1.782.713 2.376 1.069.594.357.712.475.712.713 0 .119-.237.237-.712.475s-1.188.475-1.782 1.544c-.594 1.069-1.069 2.851-1.425 5.226-.238 2.376-.357 5.464-.475 6.889-.119 1.544-.238 1.544-.832 1.663-.475 0-1.425.119-2.138.238-.713.237-1.069.594-1.306.475-.119-.119-.238-.713-.238-2.376zm-16.272 11.284c.475.475 1.425 1.069 3.207 1.663 1.781.594 4.275 1.069 7.839 1.663 3.444.475 7.958 1.069 12.59 1.188s9.383 0 12.947-.356c3.563-.357 5.938-.832 7.601-1.307 1.663-.475 2.495-.95 3.088-1.307.594-.475.713-.831.832-1.306.119-.475.119-.95-.356-1.307-.476-.356-1.307-.594-2.138-1.306-.713-.594-1.307-1.544-2.02-2.613-.593-1.069-1.306-2.257-1.662-2.851-.357-.594-.476-.713-1.069-.594-.476.119-1.307.357-3.089.713-1.781.356-4.513.713-8.195.831-3.682.119-8.314 0-11.997-.237-3.563-.238-6.057-.475-7.72-.713-1.544-.237-2.257-.475-2.613-.475-.356 0-.475.119-1.069.831-.475.713-1.425 2.02-2.257 2.851-.831.832-1.781 1.307-2.375 1.663-.713.356-1.069.713-1.426.95-.237.238-.475.475-.475.713-.119.475-.119.831.357 1.306z" fill="#CBB935"/><path fill-rule="evenodd" clip-rule="evenodd" d="M182.559 207.145c-1.426-.118-1.782-.237-2.257-.237-.475-.119-1.069-.238-1.425-.238-.357-.118-.594-.118-.713-.118s-.237 0-.119-.119c.119-.119.357-.475 1.069-.95.713-.476 2.019-.951 3.326-1.426 1.307-.356 2.732-.594 4.514-.831 1.9-.119 4.275-.238 7.007-.238 2.732 0 5.82.238 8.315.475 2.494.238 4.513.594 6.176.951 1.663.356 2.969.831 3.445 1.187.593.357.475.475.237.594-.237.119-.594.238-1.425.475-.832.238-2.257.475-3.682.713-1.426.238-2.851.356-4.87.475s-4.751.119-7.127.119c-2.375 0-4.394-.119-6.532-.238a253.523 253.523 0 00-5.939-.594z" fill="#2B2A29"/><path fill-rule="evenodd" clip-rule="evenodd" d="M191.705 188.617a1.645 1.645 0 011.306-.238c.475 0 .95.119 1.425.594.476.475.832 1.306 1.188 2.257.357 1.069.475 2.256.713 3.919.119 1.663.237 3.682.237 5.583 0 1.9 0 3.682-.475 5.107-.475 1.425-1.306 2.613-1.9 3.563-.594.832-.832 1.307-.832 1.782 0 .475.238.95.713 1.307.475.356 1.069.475 1.663.475.594 0 1.069-.119 1.425-.475.475-.357.832-.832 1.069-1.069.238-.357.357-.475.475-.594.119-.119.119-.119.475.237.357.238.832.832 1.663 1.188.713.356 1.663.594 2.257.475.594-.119.95-.475 1.069-.95s.119-.95 0-1.307c-.237-.356-.594-.712-.95-1.069a4.489 4.489 0 01-1.188-1.425c-.356-.594-.594-1.069-.594-2.138-.119-1.069 0-2.494-.119-4.87 0-2.375-.118-5.463-.475-8.076-.356-2.495-1.069-4.395-1.9-5.702-.713-1.187-1.544-1.781-2.376-2.019-.831-.237-1.662-.356-2.494-.119-.831.238-1.544.713-2.019 1.307-.594.713-.95 1.544-1.307 2.257a23.505 23.505 0 00-.712 1.9c-.119.356-.119.356 0 .119.118-.238.356-.832.712-1.188.119-.356.475-.713.951-.831zM172.7 215.341c-.475-.237-.831-.475-1.069-.593-.237-.119-.356-.357-.593-.476-.119-.118-.357-.237-.357-.475-.119-.118-.118-.356-.118-.356v1.425c0 1.544.118 4.633.237 11.165v21.618c0 5.107.119 5.463.238 5.701.118.237.356.594 1.306 1.188.95.712 2.732 1.781 6.058 2.613 3.207.831 7.958 1.544 12.946 1.9 4.989.356 10.096.475 14.61-.356 4.513-.832 8.433-2.376 10.452-3.207 2.019-.832 2.138-.95 2.138-1.069l.119-5.464c0-5.464.119-16.272.237-23.042.119-6.771.119-9.384.119-10.69v-1.307l-.119.238c-.118.237-.475.831-1.781 1.425-1.426.594-3.92 1.307-6.652 1.663-2.732.356-5.939.594-10.096.594-4.276 0-9.621-.119-13.659-.357-3.92-.237-6.533-.593-8.314-.95-1.782-.356-2.851-.594-3.682-.831-.951.119-1.544-.119-2.02-.357z" fill="#FDE742"/><path fill-rule="evenodd" clip-rule="evenodd" d="M139.918 200.257c-1.306 1.188-1.425 1.306-1.306 1.425.118.119.237.119 1.663.832 1.425.594 4.157 1.663 5.938 2.375 1.782.713 2.732.95 3.445 1.425.713.476 1.188 1.307 3.207 5.108a1314.5 1314.5 0 018.908 16.153c3.088 5.583 5.701 10.096 7.008 12.591 1.425 2.613 1.663 3.325 2.019 3.682.356.356.713.356 1.069.119.356-.238.831-.713 1.069-2.614.238-1.9.475-5.107.356-7.72-.118-2.613-.475-4.513-.712-5.464-.238-.95-.238-.95-2.019-3.207a320.586 320.586 0 01-8.196-10.927c-3.088-4.157-5.701-7.839-7.008-9.74-1.306-1.9-1.306-1.9-1.544-3.682-.237-1.781-.594-5.345-.831-7.245-.238-1.901-.357-2.019-.357-2.019-.118-.119-.118-.119-1.187.475s-3.089 1.663-5.345 3.326c-2.257 1.662-4.751 3.919-6.177 5.107z" fill="#CBB935"/><path fill-rule="evenodd" clip-rule="evenodd" d="M151.796 192.774c-.475.713-1.188 1.663-2.494 2.851-1.307 1.187-3.207 2.494-4.87 3.444-1.544.95-2.851 1.425-3.801 1.782-.95.356-1.544.475-1.9.475-.357 0-.594 0-.475-.356.118-.357.356-.832 1.187-1.901.832-1.069 2.257-2.494 3.682-3.682 1.426-1.188 2.97-2.138 4.276-2.851 1.307-.712 2.495-1.187 3.326-1.425.831-.237 1.188-.237 1.425-.237.238 0 .357.118.238.475.119.356-.119.712-.594 1.425z" fill="#2B2A29"/><path fill-rule="evenodd" clip-rule="evenodd" d="M214.154 208.927c.237.475.475.951.712 1.188.238.356.357.475.475.713.119.119.238.237.238.356s0 .119.95 0c.832 0 2.613 0 4.87.238 2.257.237 5.107.831 7.245 1.9a9.573 9.573 0 014.276 3.682c.713 1.307.832 2.494.832 3.682 0 1.188-.238 2.376-.713 3.801-.594 1.425-1.425 3.088-2.613 4.751a30.54 30.54 0 01-4.157 4.751c-1.544 1.544-3.207 2.97-4.514 4.039-1.306.95-2.138 1.544-2.494 1.781l-.475.238v4.87l.95-.594c.95-.594 2.969-1.782 5.583-3.801 2.613-2.019 5.82-4.989 7.958-8.196 2.256-3.207 3.444-6.77 3.8-9.739.357-2.97 0-5.464-1.306-7.602-1.307-2.138-3.563-3.801-6.058-4.87-2.494-1.069-5.345-1.663-7.839-1.9-2.494-.238-4.751-.357-6.176-.357h-2.257s0 .119.119.238c.237 0 .356.356.594.831z" fill="#CBB935"/></g><defs><clipPath id="clip0_601_10378"><path fill="#fff" d="M0 0h787.13v396H0z"/></clipPath></defs></svg>