<svg width="601" height="356" fill="none" xmlns="http://www.w3.org/2000/svg"><path fill-rule="evenodd" clip-rule="evenodd" d="M436.31 125.892c.32 23.491.214 68.552 1.922 99.518 1.709 31.072 5.126 48.05 7.688 57.66 2.67 9.61 4.485 11.853 9.077 14.949 4.591 3.097 11.959 7.048 22.744 8.115 10.785 1.068 25.201-.534 32.889-2.135 7.795-1.602 8.97-2.99 12.28-9.824 3.31-6.834 8.542-19.006 17.726-27.122 9.076-8.115 21.997-12.066 32.034-14.949 10.038-2.883 17.299-4.698 21.25-8.542 4.057-3.844 4.805-9.61 4.057-22.53-.747-12.921-3.096-32.781-6.193-45.274-3.097-12.494-7.047-17.405-16.765-27.122-9.717-9.717-25.307-24.239-38.227-33.208-12.921-8.97-23.279-12.387-35.559-16.23-12.28-3.845-26.588-8.33-37.587-8.436-10.998-.214-18.793 3.844-23.172 5.873-4.378 2.028-5.232 2.028-5.232 2.99 0 1.067.748 2.882 1.068 26.267z" fill="#5DC94C"/><path fill-rule="evenodd" clip-rule="evenodd" d="M138.176 295.99c.107 2.456.107 5.339.534 6.941.427 1.602 1.388 1.815 2.99 1.922 1.708.107 4.057 0 5.339.107 1.281.107 1.281.427 1.281 1.281 0 .961 0 2.456-.32 3.203-.214.855-.641.961-1.495 1.282-.855.427-2.029 1.068-2.563 2.242-.534 1.175-.427 2.67.427 3.737.854.961 2.456 1.388 4.912 1.495 2.563.107 6.087 0 22.104-.107 16.017-.106 44.528-.32 64.923-.961 20.395-.747 32.675-2.028 45.489-3.523s26.268-3.204 38.762-4.592c12.387-1.388 23.705-2.349 35.345-2.349 11.639 0 23.598 1.175 30.219 1.815 6.62.641 7.902.961 14.629 1.068 6.62.107 18.58.107 24.56.107 5.979 0 6.086 0 6.086.854v3.417c0 .854.107.854 6.3.748l24.667-.428 6.193-.106v1.388c0 1.388.107 4.057.214 5.339.107 1.388.213 1.388.427 1.495.213.106.427.213 11.853-.427 11.425-.641 34.17-1.922 57.128-4.272 22.958-2.349 46.13-5.552 60.011-7.047 13.882-1.495 18.58-1.175 21.57-.961 2.99.214 4.271.32 15.377-.107 11.105-.427 31.927-1.495 42.392-1.922 10.465-.534 10.465-.534 9.504-1.601-.961-1.068-2.777-3.204-4.699-5.019-1.922-1.922-3.951-3.524-13.454-11.639-9.504-8.222-26.482-22.957-42.927-30.966-16.444-8.008-32.141-9.183-44.207-8.756-11.96.428-20.075 2.456-28.938 9.824-8.756 7.368-18.26 19.968-24.133 27.762-5.873 7.902-8.222 10.999-19.968 12.814-11.746 1.815-32.889 2.456-44.528-.748-11.639-3.203-13.775-10.144-18.58-12.172-4.805-2.136-12.28.64-50.187 1.174-37.908.427-106.355-1.388-150.669-2.456-44.315-1.067-64.603-1.495-77.951-1.815-13.347-.32-19.861-.534-23.599.427-3.737.961-4.805 2.883-5.125 5.019-.107 1.922.107 4.057.107 6.513z" fill="#2B2923"/><path d="M421.574 0H0v255.735h421.574V0z" fill="#4AAB3C"/><path fill-rule="evenodd" clip-rule="evenodd" d="M364.873 299.728c43.994-.107 52.964-.107 57.449-.107h4.485l-.107-1.068c-.107-1.068-.427-3.31-.854-8.863-.428-5.659-.961-14.628-1.175-20.928-.32-6.193-.32-9.61-.32-11.319v-1.708H32.889v2.456c0 2.456-.107 7.261-.107 9.717v2.669c0 .214-.106.748-.106 2.883-.107 2.029-.107 5.766-.214 7.581v1.816h25.52s-.106 0-.106 2.883 0 8.649.107 11.532v3.31c0 .107.107.107 17.512.107 17.512 0 52.43 0 109.451-.214 56.808-.32 135.933-.641 179.927-.747z" fill="#36342B"/><path d="M425.312 265.131H14.522v16.978h410.79v-16.978z" fill="#3F3D2E"/><path d="M405.129 265.131h-95.356v48.478h95.356v-48.478z" fill="#3F3D2E"/><path fill-rule="evenodd" clip-rule="evenodd" d="M143.835 298.98l-.534 1.495h-5.019l.641-1.922c.641-1.922 1.815-5.873 4.805-11.105 2.99-5.232 7.795-11.746 11.96-16.444 4.164-4.698 7.581-7.581 10.357-9.824 2.884-2.242 5.126-3.844 6.301-4.591 1.174-.747 1.174-.747 5.766-.747h39.829c3.417 0 3.417 0 4.912.854 1.602.854 4.699 2.456 8.543 4.912 3.844 2.562 8.329 5.872 12.493 10.464 4.165 4.485 7.902 10.251 9.931 15.056 2.029 4.911 2.242 8.969 2.349 10.998l.107 2.029h-4.592l-.106-1.282c-.107-1.281-.428-3.844-1.495-7.154-1.068-3.31-2.99-7.474-4.912-10.784-2.029-3.417-4.165-5.98-7.368-8.97-3.204-2.99-7.582-6.3-10.785-8.435-3.204-2.136-5.126-2.99-6.194-3.417-1.067-.427-1.281-.321-8.329-.427-6.94 0-20.715-.107-27.656-.214h-6.834l-2.136 1.281c-2.135 1.282-6.407 3.844-10.571 7.475-4.164 3.63-8.115 8.222-11.212 12.279-2.99 4.058-5.126 7.582-6.727 10.892-1.816 3.203-2.99 6.193-3.524 7.581z" fill="#737160"/><path d="M198.186 355.893c25.477 0 46.13-20.078 46.13-44.847 0-24.768-20.653-44.847-46.13-44.847-25.476 0-46.129 20.079-46.129 44.847 0 24.769 20.653 44.847 46.129 44.847z" fill="#4F4D3E"/><path d="M198.186 340.517c16.749 0 30.326-13.195 30.326-29.471s-13.577-29.471-30.326-29.471c-16.748 0-30.326 13.195-30.326 29.471s13.578 29.471 30.326 29.471z" fill="#807E6D"/><path fill-rule="evenodd" clip-rule="evenodd" d="M198.187 331.548c10.784 0 19.541-8.863 19.541-19.754 0-10.892-8.757-19.754-19.541-19.754-10.785 0-19.541 8.862-19.541 19.754 0 10.891 8.756 19.754 19.541 19.754z" fill="#737160"/><path fill-rule="evenodd" clip-rule="evenodd" d="M425.846 279.76c.213 11.852.32 13.881.533 15.269.107 1.495.321 2.456.534 4.058.321 1.495.748 3.63 1.175 5.019.427 1.388.961 2.242 1.922 2.883.961.64 2.242 1.067 5.339 1.067 3.097 0 8.009-.427 14.95-.32 6.94 0 15.803.534 24.025 1.281 8.223.748 15.697 1.602 21.677 2.777 5.98 1.174 10.465 2.562 14.309 3.63 3.844 1.068 6.941 1.815 8.969 1.602 2.029-.107 2.884-1.068 3.738-2.883.961-1.709 1.922-4.271 3.417-8.222 1.495-3.951 3.524-9.397 6.193-15.59 2.67-6.193 6.087-13.134 10.892-19.007 4.805-5.979 10.998-10.891 18.046-13.881 7.154-2.99 15.27-3.951 23.172-3.844 7.901.107 15.697 1.282 21.57 3.204 5.873 1.922 9.717 4.591 12.279 6.833 2.563 2.243 3.845 4.058 4.592 4.912.641.961.641.961 1.175.641.534-.32 1.495-.854 2.776-2.029 1.281-1.174 2.883-2.883 3.631-3.844.747-.854.747-.854-1.816-2.99-2.562-2.135-7.688-6.3-15.056-9.61-7.368-3.31-17.085-5.659-25.841-6.407-8.756-.747-16.551.214-23.172 1.923-6.62 1.815-12.066 4.377-16.658 7.367-4.698 2.99-8.542 6.3-11.425 9.397-2.883 3.096-4.805 6.086-7.048 9.93-2.136 3.844-4.592 8.436-6.3 11.639-1.709 3.203-2.776 5.125-3.417 6.3-.641 1.175-.961 1.708-1.175 2.029-.213.32-.534.534-1.281.747-.747.107-2.029.214-10.251.321-8.329.106-23.599.213-31.928.213-8.436 0-9.93-.213-11.746-.854-1.815-.641-3.844-1.709-5.552-3.31-1.709-1.495-2.884-3.524-3.738-6.621-.747-3.096-.961-7.26-1.281-15.91-.214-8.649-.427-21.676-.748-36.197-.32-14.522-.64-30.432-1.388-51.895-.747-21.462-1.815-48.371-2.456-61.825l-.534-13.454h-17.192c-3.63 0-4.164.107-4.805 2.136-.64 2.028-1.495 5.979-1.601 25.947-.107 19.968.32 55.845.747 84.782.32 29.044.534 50.827.748 62.786z" fill="#4AAB3C"/><path fill-rule="evenodd" clip-rule="evenodd" d="M492.37 98.984c6.194.213 11.426.64 16.658 1.922 5.232 1.281 10.571 3.524 13.241 4.698 2.67 1.068 2.776 1.068 2.883.961.107-.107.32-.427.748-.854a67.453 67.453 0 002.242-2.349c1.175-1.282 2.883-3.097 3.844-4.165.961-1.067 1.175-1.28 3.417.534 2.243 1.709 6.514 5.446 19.434 16.551 13.028 11.105 34.705 29.684 47.625 41.003 12.921 11.212 17.085 15.163 19.114 17.191 2.029 1.922 2.029 1.922 2.99 1.922.961 0 2.776-.106 3.951 0 1.068 0 1.495.214 1.815.641.32.427.748 1.175 1.175 1.815.534.641 1.067 1.175 1.815 1.602.747.427 1.495.854 3.844 1.708 2.349.855 6.193 2.35 8.329 3.204 2.136.961 2.563 1.388 2.67 1.708.213.321.106.641-5.873 1.388-5.98.748-18.046 1.922-28.298 2.563-10.251.641-18.9.747-23.385.854-4.378 0-4.698 0-4.805-.213-.107-.321-.107-.961-.32-3.417-.107-2.456-.427-6.941-.748-9.503-.32-2.563-.534-3.311-1.708-5.233-1.175-1.922-3.417-5.018-6.834-9.503-3.417-4.378-8.116-10.144-14.629-16.871-6.621-6.727-15.057-14.522-20.93-19.754-5.873-5.232-8.969-7.902-12.707-10.571-3.737-2.67-7.901-5.339-12.173-7.261-4.164-1.922-8.329-3.203-14.202-3.951-5.873-.747-13.454-.961-22.744-1.174-9.29-.107-20.182-.107-27.55-.107h-14.736c-3.31 0-6.086.107-7.474.107-1.389 0-1.389 0-1.068-.534.32-.534 1.068-1.602 1.708-2.563a50.753 50.753 0 011.495-2.136c.321-.427.321-.427.427-.427h6.728c6.62 0 19.968-.106 30.219-.213 10.464.106 17.619.213 23.812.427z" fill="#4F4D3E"/><path fill-rule="evenodd" clip-rule="evenodd" d="M439.62 98.77h-7.474c-.321 0-.321 0-.214-.747.107-.748.214-2.136 1.281-3.737 1.068-1.602 3.097-3.524 4.592-4.805 1.495-1.388 2.456-2.136 3.203-2.563.748-.427 1.389-.32 7.155-.32h24.346c7.688 0 12.28.106 16.231.213 3.951.107 7.261.214 11.426.854 4.164.534 9.076 1.602 13.988 3.097 5.019 1.495 10.037 3.524 13.241 4.912 3.203 1.388 4.485 2.028 5.125 2.349.641.32.534.32 0 .854-.533.427-1.495 1.388-2.669 2.67a94.134 94.134 0 00-3.417 3.63c-.854.854-1.068 1.175-1.175 1.281l-.107.107-.533-.213c-.534-.214-1.709-.641-3.417-1.282-1.709-.64-4.058-1.495-6.087-2.242-2.136-.748-4.058-1.281-5.659-1.709-1.602-.427-2.884-.747-4.165-.961-1.281-.213-2.563-.427-4.058-.533-1.495-.214-3.31-.32-5.766-.428-2.456-.106-5.659-.213-10.892-.32-5.232-.107-12.493-.107-19.541-.107-7.047 0-13.774 0-17.939.107-4.271-.107-5.659-.107-7.475-.107z" fill="#5DC94C"/><path fill-rule="evenodd" clip-rule="evenodd" d="M541.276 117.456a7388.712 7388.712 0 0030.433 27.763c11.426 10.357 21.677 19.861 27.229 24.666 5.446 4.912 6.194 5.125 6.728 5.232.64 0 1.174-.107 2.242-.747 1.068-.534 2.776-1.495 3.844-2.136.961-.641 1.388-1.068 1.495-1.388.214-.321.214-.427.107-.641-.107-.213-.32-.427-12.6-10.784-12.28-10.358-36.52-30.966-49.013-41.537-12.493-10.571-13.241-11.212-13.775-11.532-.534-.321-.854-.428-1.174-.214-.321.107-.534.427-1.068 1.068-.534.64-1.388 1.708-1.495 2.562-.107 1.068.534 1.709 7.047 7.688z" fill="#F9F9F9"/><path fill-rule="evenodd" clip-rule="evenodd" d="M456.918 120.553c.321 6.62.961 19.007 1.495 29.791.641 10.678 1.175 19.755 2.777 25.093 1.495 5.339 3.951 6.941 8.222 8.436 4.271 1.495 10.464 2.99 20.822 4.164 10.358 1.068 24.987 1.922 37.053 2.349 12.174.428 21.891.534 27.123.534h6.621c.427 0 .427 0 .533 1.068 0 1.068.107 3.203.321 4.378.107 1.175.32 1.495 1.495 1.495 1.174 0 3.203-.214 4.378-.427 1.174-.214 1.388-.427 3.096-2.456 1.816-2.029 5.126-5.873 6.834-8.329 1.709-2.456 1.816-3.523 1.816-5.018 0-1.495-.214-3.524-1.282-6.194-.961-2.562-2.883-5.766-5.659-9.823-2.883-3.951-6.727-8.756-10.678-13.454-3.844-4.592-7.795-8.97-12.814-13.775s-11.105-10.037-16.765-14.308c-5.659-4.271-10.892-7.581-16.765-9.93-5.872-2.456-12.173-3.951-20.502-5.126-8.329-1.068-18.473-1.815-24.88-1.922-6.3-.213-8.649 0-10.358.961-1.601.961-2.562 2.67-2.989 3.844-.321 1.281-.214 2.029.106 8.649z" fill="#4F4D3E"/><path fill-rule="evenodd" clip-rule="evenodd" d="M461.297 126.106c.321 7.688 1.068 21.462 1.816 30.645.747 9.29 1.388 13.988 2.242 16.764.854 2.883 2.029 3.844 3.203 4.485 1.282.641 2.563.961 5.233 1.602 2.562.64 6.407 1.495 11.852 2.456 5.553.854 12.708 1.708 18.474 2.349 5.766.64 10.037 1.068 12.28 1.281 2.349.214 2.669.214 2.883-.107.213-.32.213-.961-.961-11.639-1.175-10.677-3.631-31.606-5.019-42.818-1.388-11.212-1.709-12.813-1.922-13.561-.214-.854-.32-.854-2.67-1.708-2.349-.854-6.834-2.349-13.347-3.417-6.407-1.068-14.843-1.709-20.182-1.922-5.446-.32-7.902-.214-9.504 0-1.601.213-2.349.534-2.883.854-.534.32-.961.641-1.281 1.388-.321.641-.534 1.602-.641 2.883.107 1.068 0 2.67.427 10.465zm56.701 5.979c1.174 10.251 3.31 29.258 4.485 39.722 1.174 10.464 1.495 12.279 1.708 13.24.214.961.214.961 6.407 1.175 6.193.214 18.58.534 24.773.747 6.301.214 6.407.214 6.514.107.107 0 .107-.107.32-4.698.107-4.591.321-13.668.321-18.366s-.214-4.912-.961-5.873c-.748-1.068-2.136-2.99-5.446-6.62-3.31-3.631-8.543-9.076-13.455-13.668-4.912-4.591-9.503-8.222-13.027-11.105-3.631-2.776-6.193-4.698-8.222-5.979-1.922-1.282-3.204-1.922-3.951-2.029-.748-.214-.961 0-.961.854s.32 2.349 1.495 12.493z" fill="#F9F9F9"/><path fill-rule="evenodd" clip-rule="evenodd" d="M612.606 191.134c1.709-.107 3.524-.214 5.233-.321 1.708-.106 3.31-.213 4.164-.32l.854-.107 6.407 4.378c6.407 4.378 19.114 13.027 26.375 18.046 7.155 4.912 8.757 6.086 9.611 6.727.854.534.854.534 7.261 6.3a5617.902 5617.902 0 0025.734 22.957l6.407 5.766.641 1.495 2.563 5.98.64 1.495h-12.92c-12.921 0-38.655-.107-51.576-.107h-12.92l-.641-.748c-.641-.747-1.815-2.135-3.417-3.523-1.495-1.388-3.31-2.67-5.232-3.844-1.922-1.282-4.058-2.456-6.941-3.738-2.883-1.281-6.514-2.669-9.611-3.63-2.989-.961-5.445-1.602-8.008-2.029-2.563-.534-5.126-.854-6.834-1.068-1.709-.213-2.349-.32-2.777-.32h-.32v-2.669c0-2.67-.107-8.116-.107-16.872v-32.994h1.495c1.495 0 4.592 0 8.009-.107 3.417-.107 7.154-.213 9.931-.32 2.562-.214 4.271-.321 5.979-.427z" fill="#5DC94C"/><path fill-rule="evenodd" clip-rule="evenodd" d="M456.812 212.062c21.036.427 60.439 1.175 90.017 2.029 29.472.854 49.013 1.602 63.001 2.776 13.882 1.068 22.211 2.563 26.269 4.271 4.057 1.709 3.951 3.738 3.63 4.912-.427 1.175-1.068 1.602-2.456 1.922-1.388.321-3.417.534-10.998.534-7.688 0-20.929 0-53.284-.534-32.355-.427-83.824-1.281-110.412-1.708-26.696-.427-28.618-.427-29.899-.854-1.282-.427-2.029-1.175-2.35-3.097-.427-1.815-.533-4.805-.32-6.727.107-2.029.534-2.99 2.029-3.524 1.175-.427 3.737-.427 24.773 0z" fill="#47A639"/><path d="M578.863 355.893c25.477 0 46.13-20.078 46.13-44.847 0-24.768-20.653-44.847-46.13-44.847-25.477 0-46.13 20.079-46.13 44.847 0 24.769 20.653 44.847 46.13 44.847z" fill="#4F4D3E"/><path d="M578.863 340.517c16.749 0 30.326-13.195 30.326-29.471s-13.577-29.471-30.326-29.471c-16.749 0-30.326 13.195-30.326 29.471s13.577 29.471 30.326 29.471z" fill="#807E6D"/><path fill-rule="evenodd" clip-rule="evenodd" d="M578.863 331.548c10.785 0 19.541-8.863 19.541-19.754 0-10.892-8.756-19.754-19.541-19.754s-19.541 8.862-19.541 19.754c0 10.891 8.756 19.754 19.541 19.754z" fill="#737160"/><path d="M409.08 12.707H11.212V242.28H409.08V12.706z" fill="#4F4D3E"/><path fill-rule="evenodd" clip-rule="evenodd" d="M11.212 242.281V12.706l42.82 18.473v171.273l-42.82 39.829z" fill="#6A6856"/><path fill-rule="evenodd" clip-rule="evenodd" d="M11.212 242.281l42.82-39.829h315.005l40.043 39.829H11.212z" fill="#403E32"/><path fill-rule="evenodd" clip-rule="evenodd" d="M409.08 242.281V12.706L369.037 31.18v171.273l40.043 39.829z" fill="#6A6856"/><path fill-rule="evenodd" clip-rule="evenodd" d="M409.08 12.707H11.212l42.82 18.472h315.005l40.043-18.473z" fill="#6A6856"/><path fill-rule="evenodd" clip-rule="evenodd" d="M94.074 207.791l6.514-168.496 4.485-.107-5.766 168.497-5.233.106z" fill="#DBA757"/><path fill-rule="evenodd" clip-rule="evenodd" d="M99.307 207.685l5.766-168.497 1.388.32-5.446 167.322-1.708.855z" fill="#FBD16B"/><path fill-rule="evenodd" clip-rule="evenodd" d="M137.748 208.218l-3.203-169.457 4.058-.32 3.844 169.35-4.699.427z" fill="#DBA757"/><path fill-rule="evenodd" clip-rule="evenodd" d="M142.447 207.791l-3.844-169.35 1.281.32 4.058 168.176-1.495.854z" fill="#FBD16B"/><path fill-rule="evenodd" clip-rule="evenodd" d="M105.286 57.66l.107-5.659 29.365-.533.107 5.872-29.579.32zm29.899 18.58l-30.54.534-.213 6.193 30.966-.107-.213-6.62zm.534 27.869l-32.142.214-.106 6.407h32.461l-.213-6.621zm.641 30.005l-33.85.107v6.086l33.956.214-.106-6.407zm.534 31.927l-35.772.107-.214 7.047 36.199-.107-.213-7.047z" fill="#DBA757"/><path fill-rule="evenodd" clip-rule="evenodd" d="M291.3 220.925c8.863 0 16.124-7.154 16.124-16.017 0-8.862-7.261-16.017-16.124-16.017s-16.124 7.155-16.124 16.017c0 8.756 7.261 16.017 16.124 16.017z" fill="#141515"/><path fill-rule="evenodd" clip-rule="evenodd" d="M291.3 211.315a6.471 6.471 0 006.513-6.514c0-3.523-2.883-6.513-6.513-6.513a6.471 6.471 0 00-6.514 6.513 6.472 6.472 0 006.514 6.514z" fill="#CBCCCD"/><path fill-rule="evenodd" clip-rule="evenodd" d="M287.67 202.132c-3.844-2.776-11.212-8.222-14.95-11.105-3.737-2.776-3.951-2.883-4.164-2.99-.214-.107-.534-.107-8.863-.213-8.329-.107-24.773-.321-32.996-.428l-8.222-.106-2.456-5.873c-2.456-5.873-7.368-17.619-10.037-24.025-2.777-6.407-3.311-7.475-5.66-10.678-2.242-3.204-6.3-8.329-9.397-11.959-3.203-3.631-5.445-5.66-7.795-7.368-2.349-1.709-4.591-3.097-6.086-3.844-1.602-.748-2.349-.961-3.417-.854-1.068 0-2.349.213-2.883.32-.641.107-.534.214-.534.641v2.349s.107 0 .854.107c.641 0 1.922.106 2.67.213.854.107 1.281.214 2.776 1.068a57.637 57.637 0 016.514 4.378c2.349 1.922 4.484 4.057 7.047 7.047 2.563 2.99 5.446 6.727 7.902 10.465 2.456 3.844 4.485 7.794 6.727 12.813 2.136 5.019 4.485 11.212 6.3 16.23 1.816 5.019 2.99 8.863 3.738 10.785.64 1.922.854 2.029 1.495 2.029.64.107 1.922.107 7.795.213 5.873.107 16.444.214 24.773.321 8.436.106 14.629.106 17.833 0h3.523c.214 0 .321.106 3.524 2.456 3.097 2.349 9.184 6.833 12.601 9.289 3.31 2.456 3.844 2.777 4.378 2.99.427.32.854.534 1.174.427.321 0 .641-.32.748-.64.106-.321-.107-.641-.321-.855-.534-.32-.747-.427-4.591-3.203z" fill="#141515"/><path fill-rule="evenodd" clip-rule="evenodd" d="M255.208 191.561h2.136c.107 0 .107 0-.641.854-.747.854-2.242 2.456-6.193 6.834-3.951 4.378-10.465 11.425-14.202 15.483-3.737 4.057-4.805 4.912-5.553 5.659-.747.748-1.388 1.175-2.135 1.602-.855.427-2.029.747-3.311.854-1.388.107-2.989-.107-3.844-.427-.961-.32-1.174-.641-1.281-1.175-.107-.534 0-1.067 0-6.193 0-5.018-.107-14.415-.107-19.22v-4.698h2.136v22.637c0 4.698.107 5.018.427 5.232.32.32.961.534 1.708.641.748.106 1.709.106 2.243 0 .641 0 .854-.107 5.339-4.485a2928.549 2928.549 0 0017.405-18.046c4.485-4.698 4.912-5.232 5.126-5.445.213-.214.213-.214.32-.214-.107.107 0 .107.427.107z" fill="#6A6856"/><path fill-rule="evenodd" clip-rule="evenodd" d="M302.619 154.081c-1.281.855-3.417 2.35-5.445 4.592-2.029 2.242-3.951 5.339-5.767 8.542-1.815 3.204-3.523 6.727-5.018 9.29-1.495 2.563-2.883 4.378-4.272 5.766a18.985 18.985 0 01-4.591 3.417 17.963 17.963 0 01-4.699 1.708c-1.495.321-2.776.534-4.912.534-2.135.107-5.125 0-12.066-.107-6.941-.106-17.939-.213-24.88-.32-6.834-.107-9.61-.107-10.999-.107h-1.388l-.32-.854c-.32-.854-1.068-2.669-2.563-6.086a804.629 804.629 0 00-5.125-12.28c-1.602-3.737-2.563-6.086-3.631-8.542-1.068-2.456-2.136-5.019-2.776-6.3l-.534-1.281h2.349c2.349 0 7.154-.107 20.075-.427 12.921-.321 34.063-.961 48.479-1.389 14.415-.427 21.997-.533 25.948-.64 3.951-.107 4.164-.107 4.164.107.107.213.107.533.107 1.067 0 .534 0 1.282-.214 1.816-.213.32-.64.64-1.922 1.494z" fill="#CBCCCD"/><path fill-rule="evenodd" clip-rule="evenodd" d="M207.584 187.29c-1.602 0-1.602 0-1.602.106 0 .107 0 .428.534 6.621.534 6.193 1.602 18.472 2.243 24.559.534 6.086.534 6.193.64 6.3.107.107.214.32 1.282.427 1.068.213 2.883.32 6.086.427 3.204.107 7.582.107 10.358.107 2.777 0 3.844-.107 4.485-.214.534-.107.641-.107.641-.107l.854-6.3c.747-6.299 2.349-18.899 3.203-25.413.855-6.513.748-6.727.748-6.94 0-.214 0-.107-3.524 0-3.524.106-10.678.106-15.804.213-5.339.214-8.542.214-10.144.214z" fill="#F9F9F9"/><path fill-rule="evenodd" clip-rule="evenodd" d="M204.701 144.258c-2.777-2.349-7.368-6.834-10.145-12.707-2.669-5.979-3.417-13.454-2.99-19.006.428-5.553 1.923-9.077 2.884-11.319 1.067-2.242 1.495-3.203 2.242-3.203.747 0 1.708 1.068 3.203 2.99 1.495 1.922 3.417 4.591 5.126 8.328 1.708 3.737 3.097 8.329 3.951 13.241.854 4.805 1.281 9.717 1.281 13.988 0 4.271-.213 7.901-.534 9.61-.213 1.708-.534 1.388-1.067 1.068-.428-.214-1.175-.534-3.951-2.99zm14.308-31.393c-1.495.107-2.989 2.029-4.164 4.698-1.281 2.67-2.242 6.194-2.776 10.358-.641 4.164-.855 9.076-.748 13.988.214 5.018.748 10.144 1.495 13.24.641 3.097 1.388 4.272 1.815 4.805.534.534.748.534 1.389 0 .64-.64 1.601-1.815 2.669-4.271 1.068-2.349 2.349-5.872 3.31-10.357.961-4.485 1.495-9.824 1.709-14.949.213-5.126-.107-9.824-.961-13.027-.854-3.097-2.243-4.698-3.738-4.485z" fill="#4AAB3C"/><path fill-rule="evenodd" clip-rule="evenodd" d="M225.737 82.967c-.854 1.281-2.136 2.776-3.31 5.339-1.175 2.563-2.243 6.086-2.776 10.25-.534 4.272-.534 9.29.213 14.629.748 5.446 2.349 11.319 3.417 15.056 1.175 3.737 1.922 5.339 2.456 5.98.534.747.748.534 2.029-.961s3.417-4.271 5.125-7.902c1.709-3.63 2.777-8.008 3.417-13.134.641-5.125.748-10.891-.747-16.657-1.388-5.66-4.271-11.212-5.98-13.881-1.602-2.67-2.029-2.35-2.349-1.709-.32.748-.641 1.709-1.495 2.99z" fill="#5DC94C"/><path fill-rule="evenodd" clip-rule="evenodd" d="M228.727 139.239c-1.389 2.563-2.35 5.339-2.99 7.795-.641 2.563-.855 4.805-.534 7.048.213 2.242.961 4.377 1.815 6.193.854 1.815 1.815 3.203 2.456 3.737.641.534.961.213 1.922-1.495.961-1.708 2.563-4.805 3.524-8.969.961-4.058 1.281-9.077 1.068-12.814-.321-3.737-1.175-6.193-2.563-6.193-1.388-.107-3.31 2.136-4.698 4.698z" fill="#4AAB3C"/><path fill-rule="evenodd" clip-rule="evenodd" d="M252.645 133.687c-2.135 1.068-5.766 3.096-8.756 6.62-2.883 3.524-5.019 8.649-6.407 13.134-1.388 4.485-2.029 8.542-2.242 11.425-.214 2.99.107 4.912.213 5.873.214.961.214.961 2.029.214 1.816-.748 5.339-2.243 8.222-4.592 2.884-2.349 5.126-5.659 6.621-9.29 1.602-3.63 2.456-7.474 2.99-11.638.534-4.165.64-8.543.64-10.785 0-2.242-.213-2.242-.533-2.242-.214 0-.748.213-2.777 1.281z" fill="#5DC94C"/><path fill-rule="evenodd" clip-rule="evenodd" d="M197.013 106.031c-.107-.107 0-.32.213-.427.107-.107.321 0 .427.214 2.67 7.261 5.233 14.628 7.155 21.569.961 3.417 1.708 6.834 2.456 10.464.64 3.631 1.281 7.368 1.815 11.853.534 3.737.961 8.008 1.388 12.066.641 5.445 1.068 10.678 1.495 14.415.641 6.62.747 8.862.854 11.105 0 .213-.107.32-.32.32-.214 0-.32-.107-.32-.32-.107-2.243-.214-4.485-.855-11.105-.32-3.737-.854-8.97-1.495-14.415-.427-4.058-.961-8.329-1.388-12.066-.534-4.378-1.174-8.222-1.815-11.746-.641-3.524-1.388-6.941-2.349-10.357-1.922-6.941-4.592-14.309-7.261-21.57zm21.249 16.978c0-.214.214-.32.32-.214.214 0 .321.214.214.321-.427 2.989-.854 5.979-1.281 8.862-.428 2.99-.748 5.98-.962 9.076-.213 3.097-.427 6.3-.533 9.717-.107 3.417-.214 6.941-.214 10.785 0 7.688 0 16.657.107 25.627 0 .213-.107.32-.321.32-.213 0-.32-.107-.32-.32-.107-8.97-.213-17.832-.107-25.627 0-3.844.107-7.475.214-10.785.107-3.417.32-6.62.534-9.717.213-3.096.64-6.193 1.068-9.183.32-2.989.747-5.872 1.281-8.862zm14.202 15.91c0-.214.107-.32.32-.32.214 0 .321.106.321.32-.214 4.805-.534 9.717-1.068 13.881-.534 3.631-1.175 6.727-1.922 10.037l-.321 1.602c-.427 2.136-.961 4.378-1.388 6.514-.427 1.922-.747 3.844-1.068 5.659-.64 3.844-1.067 7.154-1.495 10.357 0 .214-.213.321-.32.214-.214 0-.32-.214-.214-.32.428-3.311.855-6.514 1.495-10.358.321-1.815.641-3.737 1.068-5.766.427-2.242.961-4.485 1.388-6.514l.321-1.601c.747-3.31 1.495-6.407 1.922-10.037.427-3.951.747-8.756.961-13.668zm18.58.213c.107-.106.214-.213.427-.106.107.106.214.213.107.427-1.388 2.562-2.669 5.125-4.058 7.795-1.388 2.669-2.669 5.232-3.844 7.901-1.174 2.563-2.349 5.126-3.31 7.582-1.175 2.776-2.242 5.338-3.097 7.688-.854 2.242-1.495 4.164-2.135 5.872-.534 1.709-.961 3.204-1.388 4.485-.321 1.281-.534 2.349-.748 3.417-.214.961-.32 1.922-.427 2.776 0 .214-.214.321-.32.214-.214 0-.321-.214-.214-.32.107-.855.214-1.816.427-2.884.214-1.067.427-2.135.748-3.416.32-1.282.747-2.777 1.388-4.592.534-1.708 1.281-3.737 2.135-5.98.855-2.349 1.922-5.018 3.097-7.794 1.068-2.456 2.136-5.019 3.31-7.582 1.282-2.669 2.563-5.339 3.951-7.901a270.58 270.58 0 013.951-7.582zM227.445 89.48c0-.213.107-.32.32-.32.214 0 .321.107.321.32.213 7.368.533 14.843.213 22.317-.213 3.737-.534 7.475-.961 11.746-.427 4.164-1.068 8.756-1.708 14.308l-.534 4.485c-1.282 10.144-2.883 21.89-3.738 29.578-.961 8.755-1.068 12.066-1.174 15.376 0 .213-.107.32-.321.32-.213 0-.32-.107-.32-.32.107-3.31.214-6.621 1.175-15.376.854-7.582 2.349-19.434 3.737-29.578l.534-4.485a386.066 386.066 0 001.708-14.308c.427-4.164.748-7.902.961-11.639.321-7.581.107-15.056-.213-22.423z" fill="#509663"/><path fill-rule="evenodd" clip-rule="evenodd" d="M326.859 206.83l19.328.321-1.495-36.092-19.328.107 1.495 35.664zm32.889-1.174l19.221-.641-1.495-35.024-19.221.748 1.495 34.917z" fill="#929293"/><path fill-rule="evenodd" clip-rule="evenodd" d="M380.25 164.866c-2.883 2.776-5.126 5.019-6.727 6.727-20.716-2.242-44.101-3.203-70.476-2.99 2.456-2.349 6.941-4.377 13.454-6.086 38.015.32 59.264 1.068 63.749 2.349z" fill="#DBB158"/><path fill-rule="evenodd" clip-rule="evenodd" d="M379.929 222.42c-4.271 6.193-6.087 7.901-6.087 7.901-.64-20.074-.747-38.333-.427-58.835a201.247 201.247 0 016.727-6.727c.214 38.974-.213 57.661-.213 57.661z" fill="#DBB158"/><path fill-rule="evenodd" clip-rule="evenodd" d="M373.522 171.593c-.32 17.298-.32 35.557.428 58.835-41.325-.534-71.224-2.456-71.224-2.456-.32-30.432-.213-50.292.32-59.369 23.492-.427 46.984.641 70.476 2.99zm-60.331-6.193c-.32 0-.534-.214-.534-.641 0-.32.214-.64.534-.64 10.144-.321 20.502-.214 30.86.213a542.731 542.731 0 0131.607 2.243c.321 0 .534.32.428.64 0 .321-.214.534-.534.534-10.679-1.068-21.143-1.922-31.501-2.242-10.465-.321-20.716-.321-30.86-.107z" fill="#F7CE66"/><path fill-rule="evenodd" clip-rule="evenodd" d="M332.305 168.817c3.524.107 6.941.213 10.144.427.427-.427-.107 25.734 0 36.198 0 0-10.037-.427-10.465-.427l.321-36.198z" fill="#F9F9F9"/><path fill-rule="evenodd" clip-rule="evenodd" d="M342.449 169.244c-6.727-.32-10.144-.427-10.144-.427a2944.22 2944.22 0 009.183-5.98c4.378.107 6.62.107 6.62.107-3.737 4.165-5.659 6.3-5.659 6.3z" fill="#E1E2E1"/><path fill-rule="evenodd" clip-rule="evenodd" d="M324.83 136.57c.64 6.62 1.815 18.259 2.455 24.345.641 6.087.641 6.514 2.884 6.834 2.242.32 6.834.641 11.212.534 4.271-.107 8.435-.747 10.571-1.068 2.136-.32 2.456-.427 3.203-6.407.748-5.979 1.923-17.938 2.563-23.918.641-5.98.641-5.98.641-6.62 0-.641 0-1.815-1.068-2.349-1.068-.641-3.31-.641-8.222-.641-4.912-.107-12.6-.214-17.192-.32-4.592-.107-6.193-.107-6.834.747-.961.748-.854 2.349-.213 8.863z" fill="#FDE742"/><path fill-rule="evenodd" clip-rule="evenodd" d="M321.413 130.483c1.388.427 3.737 1.282 7.047 1.816 3.31.533 7.475.854 11.639.854 4.165 0 8.223-.214 11.746-.641 3.524-.427 6.514-1.174 8.116-1.602 1.602-.427 2.029-.64 2.242-.854.214-.213.321-.427.321-1.815v-5.232c0-1.282 0-1.282-2.029-1.709-2.029-.427-6.087-1.174-11.96-1.495-5.98-.32-13.775-.213-18.9.107-5.126.321-7.688.748-8.97.961-1.281.214-1.281.321-1.281 1.709 0 1.388 0 4.271.107 5.659.106 1.602.533 1.815 1.922 2.242z" fill="#FBD16B"/><path fill-rule="evenodd" clip-rule="evenodd" d="M323.868 123.223c1.816.533 5.66.961 10.251 1.174 4.592.32 9.824.427 14.096.32a97.813 97.813 0 009.183-.64c1.815-.321 2.349-.534 2.349-.748 0-.213-.534-.534-2.349-.961-1.815-.534-4.912-1.281-10.038-1.601-5.125-.321-12.173-.107-16.764.106-4.485.214-6.407.428-7.475.855-.961.427-1.068.961.747 1.495z" fill="#080902"/><path fill-rule="evenodd" clip-rule="evenodd" d="M337.109 120.339c-.854-3.95-2.028-11.745-2.135-20.821-.107-9.076.854-19.327 3.096-27.122 2.243-7.795 5.767-13.027 8.97-17.298 3.204-4.271 5.98-7.582 7.368-9.183 1.388-1.602 1.388-1.388 1.068 4.057-.32 5.553-1.068 16.444-2.563 25.2s-3.737 15.483-6.086 21.25c-2.35 5.872-4.699 10.784-5.98 15.268-1.282 4.485-1.495 8.436-1.602 10.465-.107 2.029-.107 2.029-.427 2.029-.32.106-.854.106-1.709-3.845z" fill="#4AAB3C"/><path fill-rule="evenodd" clip-rule="evenodd" d="M337.43 118.418c0-3.417-.107-10.999-2.136-18.153-2.029-7.26-5.873-14.201-10.144-19.327-4.271-5.125-8.863-8.542-12.067-10.57-3.096-2.03-4.698-2.884-5.552-2.884-.854 0-.854.748-.534 2.883.32 2.136.961 5.66 2.669 9.61 1.709 4.058 4.379 8.542 7.368 12.28 2.99 3.844 6.087 6.834 8.757 10.037 2.669 3.097 4.698 6.3 6.513 9.29 1.815 2.99 3.204 5.873 4.058 7.688.854 1.815 1.068 2.456 1.068-.854z" fill="#5DC94C"/><path fill-rule="evenodd" clip-rule="evenodd" d="M345.652 107.846c.641-2.135 2.563-6.406 6.407-9.716 3.844-3.31 9.397-5.553 13.454-6.727 4.058-1.282 6.514-1.389 7.689-1.389 1.174 0 1.067.32.64 1.282-.427.96-1.174 2.562-2.669 4.912-1.495 2.349-3.844 5.552-7.048 8.008-3.31 2.456-7.475 4.164-10.571 5.019-3.097.854-5.019.747-6.407.747s-2.136 0-1.495-2.136z" fill="#4AAB3C"/><path fill-rule="evenodd" clip-rule="evenodd" d="M313.938 77.414a.327.327 0 010-.427.326.326 0 01.428 0c2.883 3.63 5.873 7.154 8.542 10.892 2.67 3.737 5.232 7.474 7.261 11.425 2.029 3.951 3.631 8.008 5.126 12.173 1.388 4.164 2.563 8.435 3.737 12.706 0 .214-.107.321-.213.428-.214 0-.321-.107-.427-.214-1.175-4.271-2.35-8.435-3.738-12.6-1.388-4.164-2.99-8.222-5.019-12.173-2.028-3.95-4.484-7.688-7.261-11.318-2.563-3.737-5.552-7.261-8.436-10.892z" fill="#509663"/><path fill-rule="evenodd" clip-rule="evenodd" d="M348.642 61.077c.107-.213.213-.213.427-.213.214.107.214.213.214.427-.962 2.349-1.816 4.805-2.67 7.368a140.82 140.82 0 00-2.563 8.969c-.747 3.203-1.495 6.727-2.029 10.571-.747 4.378-1.388 9.076-2.028 13.454-1.068 8.115-1.816 15.376-2.456 22.531 0 .213-.214.32-.428.32-.213 0-.32-.214-.32-.427.748-7.261 1.388-14.522 2.456-22.637.534-4.378 1.281-9.076 2.029-13.454a183.885 183.885 0 012.136-10.572 145.538 145.538 0 012.562-9.076c.855-2.456 1.816-4.911 2.67-7.26zm17.192 34.169c.213-.106.32 0 .427.107.107.214 0 .32-.107.427-4.485 2.776-8.97 5.446-12.387 7.795-1.708 1.175-3.096 2.242-4.378 3.203-1.281.961-2.242 2.029-3.203 2.99a15.182 15.182 0 00-2.349 2.99 18.92 18.92 0 00-1.602 3.31c-.854 2.456-1.175 5.339-1.602 8.222 0 .214-.213.32-.427.32-.213 0-.32-.213-.32-.427.427-2.883.747-5.872 1.601-8.328.428-1.282.962-2.456 1.709-3.524.641-1.068 1.495-2.136 2.456-3.097.961-.961 2.029-2.028 3.203-2.989a58.373 58.373 0 014.378-3.311c3.631-2.135 8.116-4.911 12.601-7.688z" fill="#509663"/><path fill-rule="evenodd" clip-rule="evenodd" d="M85.105 210.034l-17.833.32 1.175-27.549 17.726.107-1.068 27.122zm-30.22-.961l-17.832-.427 1.174-26.588 17.726.64-1.068 26.375z" fill="#929293"/><path fill-rule="evenodd" clip-rule="evenodd" d="M35.665 178.107c2.67 2.135 4.805 3.844 6.3 5.125 19.007-1.708 40.684-2.456 64.923-2.135-2.349-1.816-6.406-3.311-12.386-4.592-35.131.107-54.672.641-58.837 1.602z" fill="#DBA757"/><path fill-rule="evenodd" clip-rule="evenodd" d="M35.879 222.42l6.086 7.047a834.32 834.32 0 000-46.235c-2.029-1.708-4.164-3.523-6.3-5.125.107 29.578.214 44.313.214 44.313z" fill="#DBB158"/><path fill-rule="evenodd" clip-rule="evenodd" d="M41.858 183.232c.428 13.134.428 28.51 0 46.235 43.78-2.242 65.671-3.31 65.671-3.31.107-23.064-.213-38.12-.747-45.06-21.677-.321-43.247.427-64.924 2.135zm55.634-4.591a.46.46 0 00.427-.427.459.459 0 00-.427-.427c-9.397-.214-18.9-.214-28.404.106-9.61.321-19.327.855-29.045 1.709-.213 0-.427.213-.427.534 0 .213.214.427.534.427 9.824-.854 19.434-1.388 29.045-1.709 9.397-.427 18.9-.427 28.297-.213z" fill="#F7CE66"/><path fill-rule="evenodd" clip-rule="evenodd" d="M79.873 181.203c-3.31.107-6.407.214-9.29.321-.427-.321.32 19.54.32 27.442 0 0 9.29-.321 9.718-.321-.214 0-.428-9.076-.748-27.442z" fill="#F9F9F9"/><path fill-rule="evenodd" clip-rule="evenodd" d="M70.476 181.524l9.29-.321c-5.66-2.99-8.543-4.591-8.543-4.591-4.057.107-6.086.107-6.086.107 3.63 3.203 5.339 4.805 5.339 4.805z" fill="#E1E2E1"/><path d="M64.502 187.842l-16.353 1.738 1.174 11.043 16.352-1.738-1.173-11.043z" fill="#F9F9F9"/><path fill-rule="evenodd" clip-rule="evenodd" d="M61.506 186.222l-18.046-6.086-.32-58.302 18.686 2.99-.32 61.398z" fill="#DBB158"/><path fill-rule="evenodd" clip-rule="evenodd" d="M61.506 186.222l.32-61.398 20.396-1.174-.748 60.757-19.968 1.815z" fill="#F7CE66"/><path fill-rule="evenodd" clip-rule="evenodd" d="M82.222 123.543l-20.396 1.708-18.686-3.523 19.434-.641 19.648 2.456z" fill="#DBA757"/><path fill-rule="evenodd" clip-rule="evenodd" d="M74.107 124.184l-6.62.64.427 38.974 6.406-.427-.213-39.187zm-6.621.64l6.62-.64-16.978-2.883-2.456.106.107 1.068 12.707 2.349z" fill="#F9F9F9"/><path fill-rule="evenodd" clip-rule="evenodd" d="M170.637 180.99c0-1.495.213-3.951.64-6.3.427-2.242 1.175-4.378 1.922-5.659.748-1.282 1.495-1.922 1.816-2.243.32-.32.32-.32.854-.106.534.213 1.602.64 2.136.961.533.32.64.427.64.64 0 .107-.213.214-.64.427-.428.214-1.068.427-1.602 1.388-.534.961-.961 2.563-1.282 4.699-.213 2.135-.32 4.912-.427 6.193-.106 1.388-.213 1.388-.747 1.495-.427 0-1.282.107-1.922.213-.641.214-.961.534-1.175.427-.213 0-.32-.533-.213-2.135zm-14.736 10.251c.427.427 1.282.961 2.883 1.494 1.602.534 3.844.961 7.048 1.495 3.097.427 7.154.961 11.319 1.068 4.164.107 8.435 0 11.639-.32 3.203-.321 5.339-.748 6.834-1.175 1.495-.427 2.242-.854 2.776-1.174.534-.427.641-.748.748-1.175.107-.427.107-.854-.321-1.174-.427-.321-1.174-.534-1.922-1.175-.64-.534-1.174-1.388-1.815-2.349-.534-.961-1.175-2.029-1.495-2.563-.32-.534-.427-.64-.961-.534-.427.107-1.175.321-2.776.641-1.602.32-4.058.641-7.368.747-3.31.107-7.475 0-10.785-.213-3.204-.214-5.446-.427-6.941-.641-1.388-.213-2.029-.427-2.349-.427-.321 0-.427.107-.961.748-.427.64-1.282 1.815-2.029 2.562-.748.748-1.602 1.175-2.136 1.495-.64.32-.961.641-1.281.854-.214.214-.427.427-.427.641-.107.427-.107.747.32 1.175z" fill="#C6B532"/><path fill-rule="evenodd" clip-rule="evenodd" d="M166.259 184.727c-1.281-.107-1.602-.214-2.029-.214-.427-.106-.961-.213-1.281-.213-.32-.107-.534-.107-.641-.107-.107 0-.213 0-.107-.107.107-.106.321-.427.962-.854.64-.427 1.815-.854 2.989-1.281 1.175-.321 2.456-.534 4.058-.748 1.709-.106 3.844-.213 6.3-.213s5.233.213 7.475.427c2.242.213 4.058.534 5.553.854 1.495.32 2.669.748 3.096 1.068.534.32.427.427.214.534-.214.107-.534.213-1.282.427-.747.213-2.028.427-3.31.641-1.281.213-2.563.32-4.378.427-1.815.106-4.271.106-6.407.106-2.135 0-3.951-.106-5.873-.213-1.922-.107-4.057-.32-5.339-.534z" fill="#141515"/><path fill-rule="evenodd" clip-rule="evenodd" d="M174.481 168.176c.321-.213.748-.32 1.175-.213.427 0 .854.107 1.281.534.427.427.748 1.174 1.068 2.029.32.961.427 2.028.641 3.523.107 1.495.213 3.31.213 5.019 0 1.708 0 3.31-.427 4.591-.427 1.282-1.174 2.349-1.708 3.204-.534.747-.748 1.174-.748 1.601 0 .428.214.855.641 1.175.427.32.961.427 1.495.427.534 0 .961-.107 1.281-.427.427-.32.748-.747.961-.961.214-.32.321-.427.427-.534.107-.107.107-.107.428.214.32.213.747.747 1.494 1.067.641.321 1.495.534 2.029.428.534-.107.855-.428.961-.855.107-.427.107-.854 0-1.174-.213-.321-.534-.641-.854-.961a4.05 4.05 0 01-1.068-1.282c-.32-.534-.534-.961-.534-1.922-.106-.961 0-2.242-.106-4.378 0-2.135-.107-4.911-.428-7.261-.32-2.242-.961-3.95-1.708-5.125-.641-1.068-1.388-1.602-2.136-1.815-.747-.214-1.495-.32-2.242-.107-.748.214-1.388.641-1.815 1.175-.534.64-.855 1.388-1.175 2.028-.32.748-.534 1.389-.641 1.709-.106.32-.106.32 0 .107.107-.214.321-.748.641-1.068.107-.427.534-.641.854-.748z" fill="#F9E349"/><path fill-rule="evenodd" clip-rule="evenodd" d="M157.396 192.095c-.427-.214-.748-.427-.961-.534-.214-.107-.321-.32-.534-.427-.107-.107-.321-.214-.321-.427-.106-.107-.106-.321-.106-.321v1.282c0 1.388.106 4.164.213 10.037v19.434c0 4.591.107 4.911.214 5.125.107.213.32.534 1.174 1.068.855.64 2.456 1.601 5.446 2.349 2.883.747 7.155 1.388 11.639 1.708 4.485.321 9.077.427 13.135-.32 4.057-.747 7.581-2.136 9.396-2.883 1.816-.748 1.922-.854 1.922-.961l.107-4.912c0-4.912.107-14.629.214-20.715s.107-8.435.107-9.61v-1.175l-.107.214c-.107.214-.427.747-1.602 1.281-1.281.534-3.524 1.175-5.98 1.495-2.456.321-5.339.534-9.076.534-3.844 0-8.649-.107-12.28-.32-3.524-.214-5.873-.534-7.475-.854-1.602-.321-2.563-.534-3.31-.748-.747.107-1.388-.107-1.815-.32z" fill="#FDE742"/><path fill-rule="evenodd" clip-rule="evenodd" d="M128.031 178.534c-1.175 1.068-1.282 1.174-1.175 1.281.107.107.214.107 1.495.748 1.281.534 3.737 1.495 5.339 2.135 1.602.641 2.456.855 3.097 1.282.641.427 1.068 1.174 2.883 4.591a1194.78 1194.78 0 018.009 14.522c2.776 5.019 5.125 9.076 6.3 11.319 1.281 2.349 1.495 2.989 1.815 3.31.32.32.641.32.961.106.32-.213.747-.64.961-2.349.214-1.708.427-4.698.32-6.94-.106-2.349-.427-4.058-.64-4.912-.214-.854-.214-.854-1.816-2.883a291.957 291.957 0 01-7.368-9.824c-2.776-3.737-5.125-7.047-6.3-8.756-1.174-1.708-1.174-1.708-1.388-3.31-.213-1.601-.534-4.805-.747-6.513-.214-1.709-.321-1.815-.321-1.815-.106-.107-.106-.107-1.067.427s-2.777 1.495-4.806 2.989c-2.135 1.495-4.378 3.524-5.552 4.592z" fill="#C6B532"/><path fill-rule="evenodd" clip-rule="evenodd" d="M138.602 171.914c-.427.64-1.068 1.495-2.242 2.562-1.175 1.068-2.883 2.243-4.378 3.097-1.388.854-2.563 1.281-3.417 1.602-.854.32-1.388.427-1.709.427-.32 0-.534 0-.427-.321.107-.32.32-.747 1.068-1.708.747-.961 2.029-2.242 3.31-3.31 1.282-1.068 2.67-1.922 3.844-2.563 1.175-.64 2.243-1.068 2.99-1.281.748-.214 1.068-.214 1.282-.214.213 0 .32.107.213.427.107.321-.107.641-.534 1.282z" fill="#141515"/><path fill-rule="evenodd" clip-rule="evenodd" d="M194.77 186.329c.213.427.427.854.64 1.068.214.32.321.427.427.64.107.107.214.214.214.321 0 .106 0 .106.854 0 .748 0 2.349 0 4.378.213 2.029.214 4.592.748 6.514 1.709a8.6 8.6 0 013.844 3.31c.641 1.174.748 2.242.748 3.31s-.214 2.136-.641 3.417a21.679 21.679 0 01-2.349 4.271 27.462 27.462 0 01-3.738 4.271c-1.388 1.388-2.883 2.67-4.057 3.631-1.175.854-1.922 1.388-2.243 1.601l-.427.214v4.378l.854-.534c.855-.534 2.67-1.602 5.019-3.417 2.349-1.815 5.232-4.485 7.154-7.368 2.029-2.883 3.097-6.086 3.417-8.756.321-2.669 0-4.911-1.174-6.833-1.175-1.922-3.204-3.417-5.446-4.378-2.242-.961-4.805-1.495-7.048-1.709-2.242-.213-4.271-.32-5.552-.32h-2.029s0 .107.107.213c.106.107.213.428.534.748z" fill="#C6B532"/></svg>