<svg width="330" height="164" fill="none" xmlns="http://www.w3.org/2000/svg"><g clip-path="url(#clip0_2_18641)"><path fill-rule="evenodd" clip-rule="evenodd" d="M200.533 57.861c.147 10.797.098 31.508.883 45.74.785 14.281 2.356 22.084 3.534 26.501 1.227 4.417 2.061 5.447 4.171 6.871 2.111 1.423 5.497 3.239 10.454 3.73 4.957.49 11.582-.246 15.116-.982 3.583-.736 4.123-1.374 5.644-4.515 1.521-3.141 3.926-8.736 8.147-12.465 4.172-3.73 10.11-5.546 14.723-6.871 4.614-1.325 7.951-2.16 9.767-3.926 1.865-1.767 2.208-4.417 1.865-10.355-.344-5.939-1.423-15.067-2.847-20.809-1.423-5.742-3.239-8-7.705-12.465-4.466-4.466-11.631-11.14-17.57-15.263-5.938-4.123-10.699-5.693-16.343-7.46-5.644-1.767-12.22-3.828-17.275-3.877-5.055-.098-8.638 1.767-10.65 2.7-2.012.932-2.405.932-2.405 1.373 0 .491.344 1.326.491 12.073z" fill="#5DC94C"/><path fill-rule="evenodd" clip-rule="evenodd" d="M63.507 136.04c.05 1.129.05 2.454.245 3.19.197.736.639.834 1.375.883.785.05 1.865.001 2.454.05.589.049.589.196.589.588 0 .442 0 1.129-.148 1.473-.098.392-.294.441-.687.589-.392.196-.932.49-1.178 1.03-.245.54-.196 1.227.197 1.718.392.442 1.129.638 2.257.687 1.178.049 2.798 0 10.16-.049 7.361-.049 20.465-.147 29.839-.442 9.374-.343 15.018-.932 20.907-1.619 5.889-.687 12.073-1.473 17.815-2.111 5.693-.638 10.896-1.079 16.245-1.079 5.35 0 10.846.54 13.889.834 3.043.295 3.632.442 6.724.491 3.043.049 8.539.049 11.288.049 2.748 0 2.797 0 2.797.393v1.57c0 .393.049.393 2.896.344l11.337-.197 2.846-.049v.638c0 .638.049 1.865.098 2.454.049.638.099.638.197.687.098.049.196.098 5.447-.196 5.252-.295 15.705-.884 26.257-1.963 10.552-1.08 21.202-2.552 27.582-3.239 6.38-.687 8.539-.54 9.914-.442 1.374.098 1.963.147 7.067-.049s14.674-.687 19.484-.884c4.809-.245 4.809-.245 4.368-.736-.442-.49-1.276-1.472-2.16-2.306-.883-.884-1.816-1.62-6.184-5.35-4.367-3.778-12.171-10.551-19.729-14.232-7.558-3.681-14.772-4.22-20.318-4.024-5.497.196-9.227 1.129-13.3 4.515-4.025 3.386-8.393 9.177-11.092 12.76-2.699 3.632-3.779 5.055-9.177 5.889-5.399.834-15.116 1.129-20.466-.343-5.349-1.473-6.331-4.663-8.54-5.595-2.208-.982-5.643.294-23.066.54-17.423.196-48.882-.638-69.249-1.129-20.367-.491-29.692-.687-35.827-.834-6.135-.148-9.129-.246-10.846.196-1.718.442-2.209 1.325-2.356 2.306-.049.884.05 1.865.05 2.994z" fill="#2B2923"/><path d="M193.76 0H0v117.538h193.76V0z" fill="#4AAB3C"/><path fill-rule="evenodd" clip-rule="evenodd" d="M167.7 137.758c20.22-.049 24.342-.049 26.403-.049h2.062l-.049-.491c-.049-.491-.197-1.521-.393-4.073a270.508 270.508 0 01-.54-9.619c-.147-2.847-.147-4.417-.147-5.202v-.786H15.116v1.129c0 1.129-.049 3.337-.049 4.466v1.227c0 .098-.049.344-.049 1.325-.049.932-.049 2.65-.098 3.484v.835h11.729s-.049 0-.049 1.325 0 3.975.05 5.3v1.521c0 .05.049.05 8.048.05 8.05 0 24.098 0 50.305-.099 26.11-.147 62.476-.294 82.697-.343z" fill="#36342B"/><path d="M195.478 121.857H6.675v7.803h188.803v-7.803z" fill="#3F3D2E"/><path d="M186.202 121.857h-43.827v22.281h43.827v-22.281z" fill="#3F3D2E"/><path fill-rule="evenodd" clip-rule="evenodd" d="M66.108 137.414l-.246.687h-2.306l.294-.883c.295-.883.834-2.699 2.209-5.104 1.374-2.405 3.582-5.398 5.496-7.558 1.914-2.159 3.485-3.484 4.76-4.515 1.326-1.03 2.357-1.767 2.897-2.11.54-.344.54-.344 2.65-.344h18.306c1.57 0 1.57 0 2.257.393.737.393 2.16 1.129 3.927 2.258 1.766 1.177 3.828 2.699 5.742 4.809 1.914 2.061 3.631 4.711 4.564 6.92.932 2.257 1.031 4.122 1.08 5.055l.049.932h-2.111l-.049-.589c-.049-.589-.196-1.767-.687-3.288-.491-1.521-1.374-3.435-2.257-4.957-.933-1.57-1.914-2.748-3.387-4.122-1.472-1.374-3.484-2.896-4.957-3.877-1.472-.982-2.355-1.374-2.846-1.571-.491-.196-.589-.147-3.828-.196-3.19 0-9.521-.049-12.711-.098h-3.141l-.982.589c-.981.589-2.945 1.767-4.859 3.435-1.914 1.669-3.73 3.779-5.153 5.644-1.374 1.865-2.356 3.485-3.092 5.006a25.969 25.969 0 00-1.62 3.484z" fill="#737160"/><path d="M91.088 163.572c11.71 0 21.202-9.228 21.202-20.612 0-11.384-9.492-20.612-21.202-20.612-11.709 0-21.201 9.228-21.201 20.612 0 11.384 9.492 20.612 21.201 20.612z" fill="#4F4D3E"/><path d="M91.088 156.505c7.698 0 13.939-6.064 13.939-13.545s-6.24-13.545-13.939-13.545c-7.697 0-13.938 6.064-13.938 13.545s6.24 13.545 13.938 13.545z" fill="#807E6D"/><path fill-rule="evenodd" clip-rule="evenodd" d="M91.089 152.383c4.957 0 8.981-4.074 8.981-9.079 0-5.006-4.024-9.08-8.981-9.08s-8.982 4.074-8.982 9.08c0 5.005 4.025 9.079 8.982 9.079z" fill="#737160"/><path fill-rule="evenodd" clip-rule="evenodd" d="M195.723 128.581c.098 5.447.147 6.379.245 7.017.05.688.148 1.129.246 1.865.147.687.343 1.669.54 2.307.196.638.441 1.031.883 1.325.442.294 1.031.491 2.454.491 1.423 0 3.681-.197 6.871-.147 3.19 0 7.263.245 11.042.588 3.779.344 7.215.737 9.963 1.276 2.749.54 4.81 1.178 6.577 1.669 1.766.491 3.19.834 4.122.736.933-.049 1.325-.491 1.718-1.325.442-.785.883-1.963 1.57-3.779.688-1.816 1.62-4.318 2.847-7.165 1.227-2.846 2.797-6.036 5.006-8.736 2.208-2.748 5.055-5.005 8.294-6.379 3.288-1.375 7.018-1.816 10.65-1.767 3.632.049 7.214.589 9.914 1.472 2.699.883 4.466 2.11 5.644 3.141 1.178 1.031 1.766 1.865 2.11 2.257.295.442.295.442.54.295.245-.147.687-.393 1.276-.933.589-.539 1.325-1.325 1.669-1.766.343-.393.343-.393-.835-1.374-1.178-.982-3.533-2.896-6.92-4.417-3.386-1.522-7.852-2.601-11.877-2.945a31.683 31.683 0 00-10.649.883c-3.043.835-5.546 2.013-7.657 3.387-2.159 1.374-3.926 2.895-5.251 4.318-1.325 1.424-2.208 2.798-3.239 4.565a380.123 380.123 0 00-2.896 5.349c-.785 1.472-1.276 2.356-1.57 2.895-.295.54-.442.786-.54.933-.098.147-.245.245-.589.343-.344.05-.932.099-4.711.148-3.829.049-10.847.098-14.675.098-3.877 0-4.564-.098-5.398-.393-.835-.294-1.767-.785-2.552-1.521-.786-.687-1.326-1.62-1.718-3.043-.344-1.423-.442-3.337-.589-7.312-.098-3.975-.196-9.963-.344-16.637-.147-6.675-.294-13.987-.638-23.851-.343-9.865-.834-22.232-1.128-28.416l-.246-6.183h-7.901c-1.669 0-1.914.049-2.209.981-.294.933-.687 2.748-.736 11.926-.049 9.177.147 25.667.343 38.967.148 13.348.246 23.36.344 28.857z" fill="#4AAB3C"/><path fill-rule="evenodd" clip-rule="evenodd" d="M226.298 45.494c2.847.098 5.251.294 7.656.883 2.405.59 4.859 1.62 6.086 2.16 1.227.49 1.276.49 1.325.441.049-.049.147-.196.344-.392.196-.197.49-.491 1.03-1.08.54-.589 1.325-1.423 1.767-1.914.442-.49.54-.589 1.57.245 1.031.786 2.994 2.503 8.933 7.607 5.987 5.104 15.95 13.644 21.888 18.846 5.939 5.153 7.853 6.969 8.785 7.901.933.883.933.883 1.375.883.441 0 1.276-.049 1.815 0 .491 0 .688.099.835.295.147.196.343.54.54.834.245.295.49.54.834.736.343.197.687.393 1.767.786a160.99 160.99 0 013.828 1.472c.981.441 1.178.638 1.227.785.098.147.049.294-2.7.638-2.748.344-8.294.883-13.005 1.178-4.712.294-8.687.343-10.748.392-2.012 0-2.16 0-2.209-.098-.049-.147-.049-.441-.147-1.57-.049-1.129-.196-3.19-.344-4.368-.147-1.178-.245-1.521-.785-2.405-.54-.883-1.57-2.306-3.141-4.367a93.953 93.953 0 00-6.723-7.755c-3.043-3.091-6.92-6.674-9.62-9.079-2.699-2.404-4.122-3.631-5.84-4.858-1.718-1.227-3.632-2.454-5.595-3.337-1.914-.884-3.828-1.473-6.527-1.816-2.7-.344-6.184-.442-10.454-.54-4.27-.05-9.276-.05-12.662-.05h-6.773c-1.521 0-2.797.05-3.435.05-.638 0-.638 0-.491-.246.147-.245.491-.736.785-1.177.295-.442.54-.786.687-.982.148-.196.148-.196.197-.196h3.092c3.042 0 9.177-.05 13.889-.098 4.809.049 8.098.098 10.944.196z" fill="#4F4D3E"/><path fill-rule="evenodd" clip-rule="evenodd" d="M202.054 45.396h-3.435c-.148 0-.148 0-.098-.344.049-.343.098-.981.589-1.717.49-.736 1.423-1.62 2.11-2.209.687-.638 1.129-.981 1.472-1.178.344-.196.638-.147 3.288-.147h11.19c3.534 0 5.644.05 7.46.098 1.816.05 3.337.098 5.251.393 1.914.245 4.172.736 6.43 1.423 2.306.687 4.613 1.62 6.085 2.258 1.473.638 2.062.932 2.356 1.08.294.147.245.147 0 .392-.245.196-.687.638-1.227 1.227-.54.54-1.178 1.227-1.57 1.668-.393.393-.491.54-.54.59l-.049.048-.246-.098c-.245-.098-.785-.294-1.57-.589-.786-.294-1.865-.687-2.798-1.03a34.902 34.902 0 00-2.601-.786c-.736-.196-1.325-.343-1.914-.441-.589-.098-1.178-.197-1.865-.246-.687-.098-1.521-.147-2.65-.196a215.372 215.372 0 00-5.006-.147c-2.405-.05-5.742-.05-8.981-.05s-6.331 0-8.245.05c-1.963-.05-2.601-.05-3.436-.05z" fill="#5DC94C"/><path fill-rule="evenodd" clip-rule="evenodd" d="M248.776 53.984c2.994 2.748 8.736 8 13.987 12.76 5.252 4.76 9.963 9.128 12.515 11.337 2.503 2.257 2.847 2.355 3.092 2.404.294 0 .54-.049 1.031-.343.49-.245 1.276-.687 1.766-.982.442-.294.638-.49.687-.638.099-.147.099-.196.05-.294-.049-.098-.148-.196-5.792-4.957-5.644-4.76-16.784-14.232-22.526-19.09-5.742-4.86-6.086-5.154-6.331-5.3-.246-.148-.393-.197-.54-.099-.148.05-.246.196-.491.49-.245.295-.638.786-.687 1.179-.049.49.245.785 3.239 3.533z" fill="#F9F9F9"/><path fill-rule="evenodd" clip-rule="evenodd" d="M210.004 55.407c.147 3.043.442 8.736.687 13.693.295 4.907.54 9.079 1.276 11.533.687 2.454 1.816 3.19 3.779 3.877 1.963.687 4.81 1.374 9.571 1.914 4.76.49 11.484.883 17.03 1.08a373.89 373.89 0 0012.465.245h3.043c.196 0 .196 0 .246.49 0 .491.049 1.473.147 2.013.049.54.147.687.687.687s1.472-.098 2.012-.196c.54-.099.638-.197 1.423-1.13.835-.932 2.356-2.698 3.141-3.827.786-1.129.835-1.62.835-2.307 0-.687-.099-1.62-.589-2.846-.442-1.178-1.325-2.65-2.601-4.515-1.326-1.816-3.092-4.025-4.908-6.184-1.767-2.11-3.583-4.122-5.89-6.33a90.517 90.517 0 00-7.705-6.577c-2.601-1.963-5.006-3.485-7.705-4.564-2.699-1.129-5.595-1.816-9.423-2.356-3.828-.49-8.49-.834-11.435-.883-2.896-.098-3.975 0-4.761.441-.736.442-1.178 1.227-1.374 1.767-.147.59-.098.933.049 3.975z" fill="#4F4D3E"/><path fill-rule="evenodd" clip-rule="evenodd" d="M212.017 57.96c.147 3.533.49 9.864.834 14.084.343 4.27.638 6.43 1.031 7.705.392 1.325.932 1.767 1.472 2.062.589.294 1.178.441 2.405.736 1.178.294 2.944.687 5.447 1.128 2.552.393 5.841.786 8.491 1.08 2.65.294 4.613.49 5.644.589 1.08.098 1.227.098 1.325-.05.098-.146.098-.44-.442-5.348-.54-4.908-1.668-14.527-2.306-19.68-.638-5.153-.786-5.89-.884-6.233-.098-.392-.147-.392-1.227-.785-1.079-.393-3.141-1.08-6.135-1.57-2.944-.491-6.821-.786-9.275-.884-2.503-.147-3.632-.098-4.368 0-.736.098-1.08.245-1.325.393-.246.147-.442.294-.589.638-.147.294-.246.736-.295 1.325.049.49 0 1.227.197 4.81zm26.06 2.748c.54 4.71 1.521 13.447 2.061 18.256.54 4.81.687 5.644.785 6.085.098.442.098.442 2.945.54 2.846.099 8.539.246 11.386.344 2.896.098 2.945.098 2.994.049.049 0 .049-.05.147-2.16.049-2.11.147-6.281.147-8.44 0-2.16-.098-2.258-.441-2.7-.344-.49-.982-1.374-2.503-3.043-1.522-1.668-3.927-4.171-6.184-6.281-2.258-2.11-4.368-3.78-5.988-5.104-1.668-1.276-2.846-2.16-3.779-2.748-.883-.59-1.472-.884-1.816-.933-.343-.098-.441 0-.441.393 0 .392.147 1.08.687 5.742z" fill="#F9F9F9"/><path fill-rule="evenodd" clip-rule="evenodd" d="M322 113.318c1.08 2.11 2.159 4.613 2.748 5.938.589 1.374.687 1.619.687 1.767.049.147.049.147-5.889.098-5.938 0-17.815-.049-23.754-.049h-5.938l-.147.147c-.148.147-.393.442-.884.883-.491.442-1.227 1.031-1.57 1.325l-.344.295.54.834c.54.834 1.669 2.454 2.601 4.712.933 2.257 1.718 5.054 2.209 7.214.49 2.159.687 3.631.785 4.417.098.785.098.883.098 1.03 0 .098-.049.246-.049.393 0 .147-.049.245 2.601.147s7.902-.491 12.908-.638c5.006-.147 9.717-.098 12.613-.245 2.895-.148 3.926-.491 4.76-1.08.835-.54 1.473-1.325 1.767-2.061.344-.736.344-1.522.294-2.356-.049-.834-.245-1.767-.294-2.306-.049-.54 0-.688.393-.982.343-.294.981-.785 1.325-1.178.392-.343.491-.589.491-2.503 0-1.914-.05-5.545-.099-7.508s-.049-2.209-.147-2.356c-.098-.147-.343-.147-.54-.196-.196 0-.343-.049-.785-1.914-.491-1.865-1.276-5.595-1.718-7.46-.392-1.865-.441-1.914-.441-1.963 0-.049 0-.049-1.227-.049h-6.135l.491.932c.589.786 1.619 2.601 2.65 4.712z" fill="#4F4D3E"/><path fill-rule="evenodd" clip-rule="evenodd" d="M315.718 121.121c-4.515 0-10.993 0-15.607-.049-4.613-.049-7.361-.098-8.735-.147l-1.375-.049s0-.049-.196.196c-.196.196-.589.638-1.129 1.08-.54.49-1.178 1.03-1.472 1.276l-.344.294h39.557c.246 0 .393 0 .589-.147.147-.147.344-.393.491-.687.147-.295.294-.638.343-.933.099-.294.099-.54.099-.687 0-.147 0-.147-.442-.147s-1.276-.049-2.994-.049c-1.619 0-4.221 0-8.785.049z" fill="#737160"/><path fill-rule="evenodd" clip-rule="evenodd" d="M281.56 87.847c.786-.05 1.62-.098 2.405-.147.785-.05 1.522-.098 1.914-.148l.393-.049 2.945 2.013c2.944 2.012 8.785 5.987 12.122 8.293 3.288 2.258 4.024 2.798 4.417 3.092.392.246.392.246 3.337 2.896a2567.34 2567.34 0 0011.828 10.551l2.945 2.65.294.687 1.178 2.749.294.687h-5.938c-5.938 0-17.766-.049-23.705-.049h-5.938l-.295-.344c-.294-.343-.834-.981-1.57-1.619-.687-.638-1.521-1.227-2.405-1.767-.883-.589-1.865-1.129-3.19-1.718a42.963 42.963 0 00-4.417-1.668c-1.374-.442-2.503-.736-3.681-.933-1.178-.245-2.356-.392-3.141-.491-.785-.098-1.08-.147-1.276-.147h-.147v-1.227c0-1.227-.049-3.73-.049-7.754V88.24h.687c.687 0 2.11 0 3.681-.05 1.57-.049 3.288-.098 4.564-.147 1.178-.098 1.963-.147 2.748-.196z" fill="#5DC94C"/><path fill-rule="evenodd" clip-rule="evenodd" d="M209.956 97.466c9.668.196 27.778.54 41.372.933 13.546.392 22.527.736 28.956 1.275 6.38.491 10.208 1.178 12.073 1.964 1.865.785 1.816 1.717 1.669 2.257-.196.54-.491.736-1.129.883-.638.148-1.57.246-5.055.246-3.533 0-9.619 0-24.49-.246-14.87-.196-38.526-.588-50.746-.785-12.27-.196-13.153-.196-13.742-.392-.589-.197-.933-.54-1.08-1.424-.196-.834-.245-2.208-.147-3.091.049-.933.245-1.374.932-1.62.54-.196 1.718-.196 11.387 0z" fill="#47A639"/><path fill-rule="evenodd" clip-rule="evenodd" d="M279.351 104.435c1.227 0 2.258-.982 2.258-2.208 0-1.227-1.031-2.209-2.258-2.209s-2.257.982-2.257 2.209c0 1.226 1.03 2.208 2.257 2.208z" fill="#FDE742"/><path fill-rule="evenodd" clip-rule="evenodd" d="M291.818 86.964a296.23 296.23 0 00-2.945.294c-.933.098-1.767.147-2.209.197l-.441.049 1.717 1.177c1.718 1.178 5.154 3.534 8.196 5.595 3.092 2.11 5.792 3.975 7.313 5.006 1.521 1.08 1.865 1.325 2.061 1.423.197.147.197.147.884.785.736.638 2.208 1.914 4.368 3.828 2.159 1.914 5.055 4.515 7.067 6.331 2.061 1.816 3.239 2.896 4.073 3.632.835.736 1.325 1.178 1.571 1.423.245.196.245.196-.442-1.129s-2.012-3.975-2.846-5.545c-.786-1.571-1.031-2.012-1.178-2.258l-.148-.245h3.387c1.227 0 2.601.049 3.288.049h.687l-.147-.491c-.147-.491-.442-1.521-2.945-3.779-2.503-2.257-7.214-5.693-11.435-8.637-4.221-2.945-7.852-5.35-10.11-6.724-2.208-1.374-2.945-1.717-3.337-1.914-.393-.196-.393-.196-.589-.098-.197.05-.638.196-1.129.344-.491.098-1.08.196-1.914.294-.736.196-1.767.295-2.797.393z" fill="#4AAB3C"/><path fill-rule="evenodd" clip-rule="evenodd" d="M320.381 129.66c-5.644 0-16.638.049-22.233.098-5.594.049-5.693.049-5.84.246-.147.196-.294.49-.294.883 0 .344.196.736.49.933.295.196.737.196 6.233.245 5.497.049 16.098.098 21.447.147 5.35 0 5.497 0 5.792-.098.245-.098.687-.245.883-.589.196-.343.245-.834.147-1.178-.098-.294-.294-.441-.54-.491-.245-.147-.441-.196-6.085-.196z" fill="#3F3D2E"/><path fill-rule="evenodd" clip-rule="evenodd" d="M305.707 102.766c-.196.835-.344 2.258-.049 4.074.294 1.816 1.03 4.024 2.061 5.545 1.031 1.522 2.356 2.307 3.828 2.994 1.472.687 3.043 1.325 4.466 1.718 1.423.392 2.699.49 3.73.54 1.08.049 1.914 0 2.503-.197.589-.196.883-.491.933-.883.049-.393-.05-.834-.491-1.816a126.18 126.18 0 00-1.816-3.632c-.638-1.227-1.227-2.306-1.767-3.141-.54-.834-1.031-1.374-1.816-2.11a29.946 29.946 0 00-2.994-2.306 14.057 14.057 0 00-2.944-1.522 12.54 12.54 0 00-2.7-.638c-.834-.049-1.472 0-1.914.147-.588.197-.834.393-1.03 1.227z" fill="#FDE742"/><path d="M266.051 163.572c11.71 0 21.202-9.228 21.202-20.612 0-11.384-9.492-20.612-21.202-20.612-11.709 0-21.201 9.228-21.201 20.612 0 11.384 9.492 20.612 21.201 20.612z" fill="#4F4D3E"/><path d="M266.051 156.505c7.698 0 13.939-6.064 13.939-13.545s-6.241-13.545-13.939-13.545c-7.697 0-13.938 6.064-13.938 13.545s6.241 13.545 13.938 13.545z" fill="#807E6D"/><path fill-rule="evenodd" clip-rule="evenodd" d="M266.052 152.383c4.956 0 8.981-4.074 8.981-9.079 0-5.006-4.025-9.08-8.981-9.08-4.957 0-8.982 4.074-8.982 9.08 0 5.005 4.025 9.079 8.982 9.079z" fill="#737160"/><path d="M188.018 5.84H5.153v105.515h182.865V5.84z" fill="#4F4D3E"/><path fill-rule="evenodd" clip-rule="evenodd" d="M5.153 111.355V5.84l19.68 8.49v78.72l-19.68 18.305z" fill="#6A6856"/><path fill-rule="evenodd" clip-rule="evenodd" d="M5.153 111.355l19.68-18.306h144.78l18.405 18.306H5.153z" fill="#403E32"/><path fill-rule="evenodd" clip-rule="evenodd" d="M188.018 111.355V5.84l-18.405 8.49v78.72l18.405 18.305z" fill="#6A6856"/><path fill-rule="evenodd" clip-rule="evenodd" d="M188.018 5.84H5.153l19.68 8.49h144.78l18.405-8.49z" fill="#6A6856"/><path fill-rule="evenodd" clip-rule="evenodd" d="M43.237 95.503l2.994-77.443 2.061-.049-2.65 77.443-2.405.049z" fill="#DBA757"/><path fill-rule="evenodd" clip-rule="evenodd" d="M45.643 95.454l2.65-77.443.638.147-2.503 76.903-.785.393z" fill="#FBD16B"/><path fill-rule="evenodd" clip-rule="evenodd" d="M63.31 95.7l-1.472-77.885 1.865-.148 1.767 77.836-2.16.196z" fill="#DBA757"/><path fill-rule="evenodd" clip-rule="evenodd" d="M65.47 95.503l-1.767-77.835.59.147 1.864 77.295-.687.393z" fill="#FBD16B"/><path fill-rule="evenodd" clip-rule="evenodd" d="M48.39 26.501l.05-2.6 13.496-.246.05 2.699-13.595.147zm13.743 8.539l-14.037.246-.098 2.846 14.233-.049-.099-3.042zm.245 12.81l-14.772.098-.05 2.944h14.92l-.098-3.042zm.294 13.79l-15.558.05v2.797l15.607.098-.049-2.945zm.245 14.674l-16.44.049-.1 3.24 16.638-.05-.098-3.239z" fill="#DBA757"/><path fill-rule="evenodd" clip-rule="evenodd" d="M133.885 101.539c4.074 0 7.411-3.288 7.411-7.361s-3.337-7.362-7.411-7.362c-4.073 0-7.41 3.288-7.41 7.362 0 4.024 3.337 7.361 7.41 7.361z" fill="#141515"/><path fill-rule="evenodd" clip-rule="evenodd" d="M133.885 97.123a2.974 2.974 0 002.994-2.994c0-1.62-1.325-2.994-2.994-2.994a2.974 2.974 0 00-2.993 2.994 2.974 2.974 0 002.993 2.994z" fill="#CBCCCD"/><path fill-rule="evenodd" clip-rule="evenodd" d="M132.216 92.902c-1.766-1.276-5.153-3.779-6.871-5.104-1.717-1.276-1.815-1.325-1.914-1.374-.098-.05-.245-.05-4.073-.098l-15.165-.197-3.779-.049-1.129-2.699c-1.129-2.7-3.386-8.097-4.613-11.042-1.276-2.945-1.522-3.435-2.601-4.908-1.031-1.472-2.896-3.828-4.32-5.496-1.472-1.669-2.502-2.601-3.582-3.387-1.08-.785-2.11-1.423-2.797-1.766-.737-.344-1.08-.442-1.57-.393a7.7 7.7 0 00-1.326.147c-.294.05-.245.098-.245.295v1.079s.049 0 .392.05c.295 0 .884.049 1.227.098.393.049.59.098 1.276.49a26.502 26.502 0 012.994 2.013c1.08.883 2.061 1.864 3.24 3.239a49.168 49.168 0 013.63 4.81c1.13 1.766 2.062 3.582 3.093 5.888.981 2.307 2.061 5.153 2.895 7.46.835 2.306 1.375 4.073 1.718 4.957.295.883.393.932.687.932.295.05.884.05 3.583.098 2.699.05 7.558.098 11.386.148 3.877.049 6.724.049 8.196 0h1.62c.098 0 .147.049 1.619 1.128a360.923 360.923 0 005.791 4.27c1.522 1.129 1.767 1.276 2.013 1.374.196.147.392.245.539.196.148 0 .295-.147.344-.294.049-.147-.049-.295-.147-.393-.246-.147-.344-.196-2.111-1.472z" fill="#141515"/><path fill-rule="evenodd" clip-rule="evenodd" d="M117.297 88.043h.982c.049 0 .049 0-.295.393-.343.393-1.031 1.129-2.846 3.141-1.816 2.012-4.81 5.251-6.528 7.116-1.717 1.865-2.208 2.258-2.552 2.601-.343.344-.638.54-.981.736-.393.197-.933.344-1.522.393-.638.049-1.374-.049-1.767-.196-.441-.148-.539-.295-.589-.54-.049-.246 0-.491 0-2.847 0-2.306-.049-6.625-.049-8.834v-2.159h.982v10.404c0 2.16.049 2.307.196 2.405.147.147.442.246.786.295.343.049.785.049 1.03 0 .295 0 .393-.049 2.454-2.062a1378.09 1378.09 0 008-8.293c2.061-2.16 2.257-2.405 2.355-2.503.099-.099.099-.099.148-.099-.049.05 0 .05.196.05z" fill="#6A6856"/><path fill-rule="evenodd" clip-rule="evenodd" d="M139.087 70.818c-.589.392-1.57 1.08-2.503 2.11-.932 1.03-1.816 2.454-2.65 3.926-.834 1.472-1.62 3.092-2.307 4.27-.687 1.178-1.325 2.012-1.963 2.65a8.725 8.725 0 01-2.11 1.57 8.257 8.257 0 01-2.16.785 9.594 9.594 0 01-2.257.246c-.982.049-2.356 0-5.546-.05-3.19-.048-8.245-.097-11.435-.147-3.141-.049-4.417-.049-5.055-.049h-.638l-.148-.392c-.147-.393-.49-1.227-1.177-2.797a368.36 368.36 0 00-2.356-5.644c-.736-1.718-1.178-2.798-1.669-3.927-.49-1.128-.981-2.306-1.276-2.895l-.245-.589h1.08c1.08 0 3.288-.049 9.226-.196 5.939-.147 15.656-.442 22.282-.638 6.625-.197 10.11-.246 11.925-.295 1.816-.049 1.915-.049 1.915.05.049.098.049.245.049.49 0 .246 0 .59-.099.834-.098.148-.294.295-.883.688z" fill="#CBCCCD"/><path fill-rule="evenodd" clip-rule="evenodd" d="M95.407 86.08c-.736 0-.736 0-.736.05 0 .048 0 .196.245 3.042.246 2.846.737 8.49 1.03 11.288.246 2.797.246 2.846.295 2.895.05.049.099.147.59.196.49.099 1.324.148 2.797.197 1.472.049 3.484.049 4.76.049 1.276 0 1.767-.049 2.062-.098.245-.049.294-.049.294-.049l.393-2.896a1237.54 1237.54 0 011.472-11.68c.393-2.994.344-3.092.344-3.19 0-.098 0-.05-1.62 0-1.62.049-4.908.049-7.264.098-2.453.098-3.926.098-4.662.098z" fill="#F9F9F9"/><path fill-rule="evenodd" clip-rule="evenodd" d="M94.082 66.302c-1.276-1.08-3.386-3.14-4.662-5.84-1.227-2.748-1.57-6.183-1.374-8.735.196-2.552.883-4.172 1.325-5.202.49-1.031.687-1.473 1.03-1.473.344 0 .786.491 1.473 1.374.687.884 1.57 2.11 2.356 3.828.785 1.718 1.423 3.828 1.816 6.086.392 2.208.588 4.466.588 6.429s-.098 3.631-.245 4.417c-.098.785-.245.638-.49.49-.197-.098-.54-.245-1.817-1.374zm6.577-14.428c-.687.049-1.374.932-1.914 2.16-.589 1.226-1.03 2.846-1.276 4.76-.295 1.914-.393 4.171-.344 6.429.099 2.306.344 4.662.687 6.085.295 1.423.638 1.963.835 2.209.245.245.343.245.638 0 .294-.295.736-.835 1.227-1.963.49-1.08 1.079-2.7 1.521-4.76.442-2.062.687-4.516.785-6.871.099-2.356-.049-4.516-.441-5.988-.393-1.423-1.031-2.16-1.718-2.061z" fill="#4AAB3C"/><path fill-rule="evenodd" clip-rule="evenodd" d="M103.751 38.133c-.393.588-.982 1.275-1.521 2.453-.54 1.178-1.031 2.798-1.276 4.712-.246 1.963-.246 4.27.098 6.723.343 2.503 1.079 5.202 1.57 6.92.54 1.718.884 2.454 1.129 2.748.245.344.344.246.933-.441a16.568 16.568 0 002.355-3.632c.785-1.669 1.276-3.68 1.571-6.037.294-2.355.343-5.005-.344-7.656-.638-2.6-1.963-5.153-2.748-6.38-.736-1.226-.933-1.08-1.08-.785-.147.344-.294.785-.687 1.374z" fill="#5DC94C"/><path fill-rule="evenodd" clip-rule="evenodd" d="M105.125 63.996c-.638 1.178-1.08 2.454-1.374 3.582-.295 1.178-.393 2.209-.246 3.24.098 1.03.442 2.012.834 2.846.393.834.835 1.472 1.129 1.718.295.245.442.098.884-.688a15.429 15.429 0 001.619-4.122c.442-1.865.589-4.172.491-5.89-.147-1.717-.54-2.846-1.178-2.846-.638-.049-1.521.982-2.159 2.16z" fill="#4AAB3C"/><path fill-rule="evenodd" clip-rule="evenodd" d="M116.119 61.444c-.982.49-2.651 1.423-4.025 3.043-1.325 1.62-2.306 3.975-2.944 6.036-.638 2.061-.933 3.926-1.031 5.251-.098 1.374.049 2.258.098 2.7.098.441.098.441.933.098.834-.344 2.453-1.031 3.779-2.11 1.325-1.08 2.355-2.602 3.042-4.27.737-1.669 1.129-3.436 1.375-5.35.245-1.914.294-3.926.294-4.956 0-1.031-.098-1.031-.245-1.031-.098 0-.344.098-1.276.589z" fill="#5DC94C"/><path fill-rule="evenodd" clip-rule="evenodd" d="M90.549 48.733c-.05-.05 0-.147.098-.196.049-.05.147 0 .196.098 1.227 3.337 2.405 6.723 3.288 9.913.442 1.57.785 3.141 1.129 4.81.294 1.668.589 3.386.834 5.447.246 1.718.442 3.68.638 5.546.295 2.503.491 4.907.688 6.625.294 3.043.343 4.073.392 5.104 0 .098-.049.147-.147.147-.098 0-.147-.049-.147-.147-.05-1.03-.099-2.061-.393-5.104a224.268 224.268 0 00-.687-6.625c-.196-1.865-.442-3.828-.638-5.546a91.535 91.535 0 00-.834-5.398 51.465 51.465 0 00-1.08-4.76c-.884-3.19-2.11-6.577-3.337-9.914zm9.767 7.803c0-.098.098-.147.147-.098.098 0 .147.098.098.147a815.078 815.078 0 01-.589 4.073 57.122 57.122 0 00-.442 4.172 116.94 116.94 0 00-.245 4.466c-.05 1.57-.098 3.19-.098 4.957 0 3.533 0 7.656.049 11.778 0 .098-.05.147-.147.147-.098 0-.147-.049-.147-.147-.05-4.122-.099-8.196-.05-11.778 0-1.767.05-3.436.099-4.957.049-1.57.147-3.043.245-4.466s.294-2.846.49-4.22c.148-1.375.344-2.7.59-4.074zm6.527 7.313c0-.098.049-.148.147-.148.098 0 .147.05.147.148-.098 2.208-.245 4.466-.491 6.38-.245 1.668-.54 3.091-.883 4.613l-.147.736c-.197.981-.442 2.012-.638 2.994-.197.883-.344 1.766-.491 2.6-.295 1.767-.491 3.289-.687 4.761 0 .098-.098.147-.147.098-.099 0-.148-.098-.099-.147.197-1.521.393-2.994.687-4.76.148-.835.295-1.718.491-2.65.197-1.031.442-2.062.638-2.994l.148-.736c.343-1.522.687-2.945.883-4.614.196-1.815.343-4.024.442-6.281zm8.539.098c.049-.05.098-.099.196-.05.049.05.099.099.049.197-.638 1.178-1.226 2.356-1.864 3.582a61.09 61.09 0 00-1.767 3.632c-.54 1.178-1.08 2.356-1.522 3.484-.54 1.276-1.03 2.454-1.423 3.534-.393 1.03-.687 1.914-.982 2.7-.245.785-.441 1.472-.638 2.06-.147.59-.245 1.08-.343 1.57-.098.443-.147.884-.196 1.277 0 .098-.099.147-.148.098-.098 0-.147-.098-.098-.147.049-.393.098-.835.197-1.325a31.9 31.9 0 01.343-1.57c.147-.59.344-1.277.638-2.111.245-.785.589-1.718.982-2.748.392-1.08.883-2.307 1.423-3.583.491-1.129.981-2.306 1.521-3.484.589-1.227 1.178-2.454 1.816-3.632.54-1.08 1.178-2.307 1.816-3.484zm-10.846-22.821c0-.098.049-.147.147-.147.098 0 .148.05.148.147.098 3.387.245 6.822.098 10.257a125.793 125.793 0 01-.442 5.399c-.196 1.914-.491 4.024-.785 6.576l-.246 2.061c-.589 4.662-1.325 10.06-1.717 13.594-.442 4.025-.491 5.546-.54 7.067 0 .099-.049.148-.147.148-.099 0-.148-.05-.148-.148.049-1.521.098-3.042.54-7.067.393-3.484 1.08-8.932 1.718-13.594l.245-2.061c.344-2.503.589-4.613.786-6.576.196-1.914.343-3.632.441-5.35.147-3.484.049-6.92-.098-10.306z" fill="#509663"/><path fill-rule="evenodd" clip-rule="evenodd" d="M150.227 95.061l8.883.147-.687-16.587-8.883.049.687 16.391zm15.116-.539l8.834-.295-.687-16.097-8.834.343.687 16.049z" fill="#929293"/><path fill-rule="evenodd" clip-rule="evenodd" d="M174.767 75.774c-1.326 1.276-2.356 2.307-3.092 3.092-9.521-1.03-20.27-1.472-32.392-1.374 1.129-1.08 3.19-2.012 6.184-2.797 17.472.147 27.238.49 29.3 1.08z" fill="#DBB158"/><path fill-rule="evenodd" clip-rule="evenodd" d="M174.619 102.226c-1.963 2.847-2.797 3.632-2.797 3.632-.295-9.226-.344-17.618-.197-27.041a92.724 92.724 0 013.092-3.092c.098 17.913-.098 26.501-.098 26.501z" fill="#DBB158"/><path fill-rule="evenodd" clip-rule="evenodd" d="M171.674 78.866c-.147 7.95-.147 16.343.197 27.041-18.994-.245-32.735-1.128-32.735-1.128-.148-13.987-.099-23.115.147-27.287 10.797-.196 21.594.294 32.391 1.374zm-27.728-2.846c-.148 0-.246-.098-.246-.295 0-.147.098-.294.246-.294 4.662-.147 9.423-.098 14.183.098 4.761.196 9.619.54 14.527 1.03.147 0 .246.148.196.295 0 .147-.098.245-.245.245-4.908-.49-9.717-.883-14.478-1.03-4.81-.147-9.521-.147-14.183-.05z" fill="#F7CE66"/><path fill-rule="evenodd" clip-rule="evenodd" d="M152.73 77.59c1.62.05 3.19.098 4.663.196.196-.196-.049 11.828 0 16.637 0 0-4.614-.196-4.81-.196l.147-16.637z" fill="#F9F9F9"/><path fill-rule="evenodd" clip-rule="evenodd" d="M157.393 77.786c-3.092-.147-4.663-.196-4.663-.196 2.798-1.816 4.221-2.748 4.221-2.748 2.012.049 3.043.049 3.043.049a3856.16 3856.16 0 01-2.601 2.895z" fill="#E1E2E1"/><path fill-rule="evenodd" clip-rule="evenodd" d="M149.295 62.769c.294 3.043.834 8.392 1.128 11.19.295 2.797.295 2.993 1.326 3.14 1.03.148 3.141.295 5.153.246 1.963-.05 3.877-.344 4.858-.491.982-.147 1.129-.196 1.473-2.945.343-2.748.883-8.245 1.178-10.993.294-2.748.294-2.748.294-3.042 0-.295 0-.835-.491-1.08-.49-.295-1.521-.295-3.779-.295-2.257-.049-5.791-.098-7.901-.147-2.111-.049-2.847-.049-3.141.344-.442.343-.393 1.08-.098 4.073z" fill="#FDE742"/><path fill-rule="evenodd" clip-rule="evenodd" d="M147.724 59.972c.638.196 1.718.589 3.24.834 1.521.245 3.435.393 5.349.393 1.914 0 3.779-.099 5.399-.295a27.427 27.427 0 003.73-.736c.736-.196.932-.294 1.03-.393.098-.098.147-.196.147-.834v-2.405c0-.589 0-.589-.932-.785-.932-.196-2.797-.54-5.497-.687-2.748-.147-6.331-.098-8.687.05-2.355.146-3.533.343-4.122.44-.589.099-.589.148-.589.786s0 1.963.049 2.601c.049.736.245.834.883 1.03z" fill="#FBD16B"/><path fill-rule="evenodd" clip-rule="evenodd" d="M148.853 56.635c.834.245 2.601.441 4.712.54 2.11.147 4.515.196 6.478.147a44.985 44.985 0 004.221-.295c.834-.147 1.079-.245 1.079-.343 0-.099-.245-.246-1.079-.442-.835-.245-2.258-.589-4.614-.736-2.356-.148-5.595-.05-7.705.049-2.061.098-2.945.196-3.436.392-.441.197-.49.442.344.688z" fill="#080902"/><path fill-rule="evenodd" clip-rule="evenodd" d="M154.938 55.31c-.392-1.817-.932-5.4-.981-9.57-.049-4.172.392-8.883 1.423-12.466 1.031-3.583 2.65-5.987 4.123-7.95a79.78 79.78 0 013.386-4.221c.638-.736.638-.638.491 1.865-.147 2.552-.491 7.558-1.178 11.582a45.269 45.269 0 01-2.798 9.766c-1.079 2.7-2.159 4.957-2.748 7.018-.589 2.061-.687 3.877-.736 4.81-.049.932-.049.932-.196.932-.148.05-.393.05-.786-1.767z" fill="#4AAB3C"/><path fill-rule="evenodd" clip-rule="evenodd" d="M155.086 54.426c0-1.57-.049-5.055-.982-8.343-.932-3.337-2.699-6.527-4.662-8.883a23.975 23.975 0 00-5.546-4.858c-1.423-.933-2.16-1.325-2.552-1.325-.393 0-.393.343-.246 1.325.148.981.442 2.6 1.227 4.417.786 1.864 2.013 3.926 3.387 5.643 1.374 1.767 2.797 3.141 4.024 4.614 1.227 1.423 2.16 2.895 2.994 4.27.834 1.373 1.472 2.698 1.865 3.533.392.834.491 1.128.491-.393z" fill="#5DC94C"/><path fill-rule="evenodd" clip-rule="evenodd" d="M158.864 49.567c.295-.981 1.178-2.944 2.945-4.466 1.767-1.521 4.319-2.552 6.184-3.091 1.865-.59 2.994-.638 3.534-.638.539 0 .49.147.294.589-.196.441-.54 1.177-1.227 2.257s-1.767 2.552-3.239 3.68c-1.522 1.13-3.436 1.915-4.859 2.307-1.423.393-2.306.344-2.944.344-.639 0-.982 0-.688-.982z" fill="#4AAB3C"/><path fill-rule="evenodd" clip-rule="evenodd" d="M144.289 35.58a.15.15 0 010-.196.149.149 0 01.196 0c1.325 1.669 2.699 3.288 3.926 5.006 1.227 1.718 2.405 3.435 3.338 5.251.932 1.816 1.668 3.681 2.355 5.595.638 1.914 1.178 3.877 1.718 5.84 0 .098-.049.147-.098.196-.098 0-.147-.049-.196-.098-.54-1.963-1.08-3.877-1.718-5.79-.638-1.915-1.374-3.78-2.307-5.596-.932-1.815-2.061-3.533-3.337-5.202-1.178-1.717-2.552-3.337-3.877-5.005z" fill="#509663"/><path fill-rule="evenodd" clip-rule="evenodd" d="M160.239 28.072c.049-.098.098-.098.196-.098.098.049.098.098.098.196-.442 1.08-.834 2.208-1.227 3.386a65.388 65.388 0 00-1.178 4.123c-.343 1.472-.687 3.091-.932 4.858-.344 2.012-.638 4.172-.933 6.184-.49 3.73-.834 7.067-1.128 10.355 0 .098-.099.147-.197.147s-.147-.098-.147-.196c.344-3.337.638-6.675 1.129-10.404.245-2.012.589-4.172.932-6.184a84.53 84.53 0 01.982-4.858 66.134 66.134 0 011.178-4.172c.392-1.129.834-2.258 1.227-3.337zm7.902 15.704c.098-.049.147 0 .196.05.049.098 0 .147-.049.196-2.061 1.276-4.123 2.503-5.693 3.582-.785.54-1.423 1.031-2.012 1.473-.589.441-1.031.932-1.473 1.374a6.996 6.996 0 00-1.079 1.374c-.295.49-.54.981-.736 1.521-.393 1.13-.54 2.454-.737 3.78 0 .097-.098.147-.196.147s-.147-.099-.147-.197c.196-1.325.343-2.699.736-3.828.196-.589.442-1.129.785-1.62.295-.49.687-.98 1.129-1.422.442-.442.933-.933 1.472-1.375.589-.49 1.227-.981 2.013-1.521 1.668-.982 3.73-2.258 5.791-3.534z" fill="#509663"/><path fill-rule="evenodd" clip-rule="evenodd" d="M39.115 96.534l-8.196.147.54-12.662 8.147.05-.491 12.465zm-13.89-.442l-8.196-.196.54-12.22 8.147.294-.49 12.122z" fill="#929293"/><path fill-rule="evenodd" clip-rule="evenodd" d="M16.392 81.86c1.227.981 2.208 1.766 2.895 2.355 8.736-.785 18.699-1.128 29.84-.981-1.08-.834-2.945-1.521-5.694-2.11-16.146.049-25.127.294-27.041.736z" fill="#DBA757"/><path fill-rule="evenodd" clip-rule="evenodd" d="M16.49 102.226l2.797 3.239c.197-7.017.197-14.085 0-21.25-.932-.785-1.914-1.62-2.895-2.355.049 13.594.098 20.366.098 20.366z" fill="#DBB158"/><path fill-rule="evenodd" clip-rule="evenodd" d="M19.238 84.215c.197 6.037.197 13.104 0 21.25 20.122-1.03 30.183-1.521 30.183-1.521.05-10.6-.098-17.52-.343-20.71-9.963-.147-19.877.196-29.84.981zm25.569-2.11a.211.211 0 00.197-.196.211.211 0 00-.197-.197 231.814 231.814 0 00-13.055.05 245.69 245.69 0 00-13.349.785c-.098 0-.196.098-.196.245 0 .098.098.196.245.196 4.516-.392 8.933-.638 13.35-.785 4.319-.196 8.686-.196 13.005-.098z" fill="#F7CE66"/><path fill-rule="evenodd" clip-rule="evenodd" d="M36.71 83.283a885 885 0 00-4.27.147c-.196-.147.148 8.981.148 12.613 0 0 4.27-.147 4.466-.147-.098 0-.197-4.172-.344-12.613z" fill="#F9F9F9"/><path fill-rule="evenodd" clip-rule="evenodd" d="M32.391 83.43l4.27-.147c-2.601-1.374-3.926-2.11-3.926-2.11-1.865.049-2.797.049-2.797.049a123.687 123.687 0 012.453 2.208z" fill="#E1E2E1"/><path d="M29.646 86.334l-7.516.8.54 5.074 7.515-.798-.54-5.076z" fill="#F9F9F9"/><path fill-rule="evenodd" clip-rule="evenodd" d="M28.269 85.59l-8.295-2.798-.147-26.796 8.589 1.374-.147 28.22z" fill="#DBB158"/><path fill-rule="evenodd" clip-rule="evenodd" d="M28.269 85.59l.147-28.22 9.374-.54-.344 27.925-9.177.834z" fill="#F7CE66"/><path fill-rule="evenodd" clip-rule="evenodd" d="M37.79 56.782l-9.374.785-8.589-1.62 8.932-.294 9.03 1.129z" fill="#DBA757"/><path fill-rule="evenodd" clip-rule="evenodd" d="M34.06 57.076l-3.043.295.196 17.913 2.945-.197-.099-18.01zm-3.043.294l3.043-.294-7.803-1.325-1.13.05.05.49 5.84 1.08z" fill="#F9F9F9"/><path fill-rule="evenodd" clip-rule="evenodd" d="M78.427 83.185c0-.687.098-1.816.294-2.896.196-1.03.54-2.012.883-2.6.344-.59.687-.884.835-1.031.147-.148.147-.148.392-.05.246.099.736.295.982.442.245.147.294.196.294.295 0 .049-.098.098-.294.196-.197.098-.49.196-.736.638s-.442 1.178-.59 2.16c-.097.98-.146 2.257-.196 2.846-.049.638-.098.638-.343.687-.196 0-.589.049-.883.098-.295.098-.442.245-.54.196-.099 0-.148-.245-.099-.981zm-6.773 4.711c.196.196.589.442 1.325.687.736.246 1.767.442 3.24.687 1.422.197 3.288.442 5.202.491 1.913.049 3.877 0 5.349-.147 1.472-.148 2.454-.344 3.141-.54.687-.196 1.03-.393 1.276-.54a.844.844 0 00.344-.54c.049-.196.049-.392-.148-.54-.196-.147-.54-.245-.883-.54-.295-.245-.54-.638-.834-1.08-.246-.44-.54-.932-.688-1.177-.147-.245-.196-.294-.441-.245-.197.049-.54.147-1.276.294s-1.865.295-3.387.344a55.7 55.7 0 01-4.956-.099c-1.473-.098-2.503-.196-3.19-.294-.639-.098-.933-.196-1.08-.196-.147 0-.197.049-.442.343-.196.295-.589.834-.932 1.178-.344.344-.737.54-.982.687-.294.147-.442.295-.589.393-.098.098-.196.196-.196.294-.05.197-.05.344.147.54z" fill="#C6B532"/><path fill-rule="evenodd" clip-rule="evenodd" d="M76.415 84.903c-.59-.05-.737-.099-.933-.099a2.943 2.943 0 00-.589-.098c-.147-.049-.245-.049-.294-.049-.05 0-.099 0-.05-.049.05-.049.148-.196.442-.393.295-.196.835-.392 1.374-.589.54-.147 1.13-.245 1.866-.343.785-.05 1.766-.098 2.895-.098s2.405.098 3.435.196a21.89 21.89 0 012.553.393c.687.147 1.227.343 1.423.49.245.148.196.197.098.246-.098.049-.245.098-.589.196s-.932.197-1.521.295c-.59.098-1.178.147-2.013.196-.834.049-1.963.049-2.944.049-.982 0-1.816-.049-2.7-.098-.883-.05-1.864-.147-2.453-.245z" fill="#141515"/><path fill-rule="evenodd" clip-rule="evenodd" d="M80.194 77.296a.681.681 0 01.54-.099c.196 0 .392.05.588.246.197.196.344.54.491.932.147.442.197.933.295 1.62.049.687.098 1.521.098 2.306 0 .786 0 1.522-.197 2.11-.196.59-.54 1.08-.785 1.473-.245.344-.343.54-.343.736 0 .196.098.393.294.54.197.147.442.196.687.196.246 0 .442-.049.59-.196.195-.147.343-.344.44-.442.1-.147.148-.196.197-.245.05-.05.05-.05.197.098.147.098.343.344.687.49.294.148.687.246.932.197.245-.049.393-.196.442-.392a1.006 1.006 0 000-.54 3.18 3.18 0 00-.393-.442 1.854 1.854 0 01-.49-.589c-.148-.245-.246-.442-.246-.883-.05-.442 0-1.03-.05-2.013 0-.981-.048-2.257-.195-3.337-.148-1.03-.442-1.816-.786-2.355-.294-.491-.638-.736-.981-.835-.344-.098-.687-.147-1.03-.049a1.652 1.652 0 00-.835.54c-.245.295-.393.638-.54.933-.147.343-.245.638-.294.785-.05.147-.05.147 0 .049.049-.098.147-.344.294-.49.05-.197.245-.295.393-.344z" fill="#F9E349"/><path fill-rule="evenodd" clip-rule="evenodd" d="M72.341 88.289c-.196-.099-.343-.197-.441-.246-.098-.049-.148-.147-.246-.196-.049-.05-.147-.098-.147-.196-.049-.05-.049-.148-.049-.148v.59c0 .637.05 1.913.098 4.612v8.932c0 2.111.05 2.258.098 2.356.05.098.148.245.54.491.393.294 1.129.736 2.503 1.08 1.325.343 3.288.638 5.35.785 2.06.147 4.171.196 6.036-.147 1.865-.344 3.485-.982 4.32-1.326.833-.343.882-.392.882-.441l.05-2.258c0-2.257.049-6.723.098-9.52.049-2.798.049-3.878.049-4.417v-.54l-.05.098c-.048.098-.196.343-.735.589-.59.245-1.62.54-2.749.687-1.129.147-2.454.245-4.171.245-1.767 0-3.976-.049-5.644-.147-1.62-.098-2.7-.245-3.436-.393-.736-.147-1.178-.245-1.521-.343a1.42 1.42 0 01-.835-.147z" fill="#FDE742"/><path fill-rule="evenodd" clip-rule="evenodd" d="M58.845 82.056c-.54.49-.59.54-.54.589.049.049.098.049.687.343.589.246 1.718.688 2.454.982.736.294 1.129.393 1.423.589.294.196.49.54 1.325 2.11.883 1.57 2.405 4.319 3.68 6.675 1.277 2.306 2.357 4.171 2.897 5.202.588 1.08.687 1.374.834 1.521.147.147.294.147.441.049.148-.098.344-.294.442-1.08.098-.785.197-2.159.147-3.19-.049-1.08-.196-1.864-.294-2.257-.098-.393-.098-.393-.834-1.325-.737-.932-2.16-2.797-3.387-4.515a149.97 149.97 0 01-2.895-4.024c-.54-.786-.54-.786-.638-1.522-.099-.736-.246-2.208-.344-2.993-.098-.786-.147-.835-.147-.835-.05-.049-.05-.049-.49.197-.443.245-1.277.687-2.21 1.374-.98.687-2.012 1.62-2.551 2.11z" fill="#C6B532"/><path fill-rule="evenodd" clip-rule="evenodd" d="M63.703 79.013a6.14 6.14 0 01-1.03 1.178c-.54.49-1.325 1.03-2.013 1.423-.637.393-1.177.59-1.57.736-.393.148-.638.197-.785.197-.148 0-.246 0-.197-.147.05-.148.148-.344.491-.786.344-.441.933-1.03 1.522-1.521a11.04 11.04 0 011.767-1.178c.54-.294 1.03-.49 1.374-.589.343-.098.49-.098.589-.098.098 0 .147.05.098.196.049.148-.05.295-.246.59z" fill="#141515"/><path fill-rule="evenodd" clip-rule="evenodd" d="M89.518 85.638c.098.197.196.393.295.491.098.147.147.197.196.295.049.049.098.098.098.147 0 .049 0 .049.393 0 .343 0 1.08 0 2.012.098.932.098 2.11.344 2.994.785a3.955 3.955 0 011.766 1.522c.295.54.344 1.03.344 1.521 0 .49-.098.982-.294 1.57a9.962 9.962 0 01-1.08 1.964 12.63 12.63 0 01-1.718 1.963 25.77 25.77 0 01-1.865 1.668c-.54.393-.883.638-1.03.736l-.197.099v2.012l.393-.246c.392-.245 1.227-.736 2.306-1.57 1.08-.834 2.405-2.061 3.289-3.386.932-1.326 1.423-2.798 1.57-4.025.147-1.227 0-2.257-.54-3.14-.54-.884-1.472-1.571-2.503-2.013-1.03-.442-2.208-.687-3.239-.785a29.504 29.504 0 00-2.552-.147h-.932s0 .049.049.098.098.196.245.343z" fill="#C6B532"/></g><defs><clipPath id="clip0_2_18641"><path fill="#fff" d="M0 0h330v163.621H0z"/></clipPath></defs></svg>