<svg width="350" height="177" fill="none" xmlns="http://www.w3.org/2000/svg"><g clip-path="url(#clip0_601_13657)"><path fill-rule="evenodd" clip-rule="evenodd" d="M68.341 146.401c.053 1.215.053 2.641.265 3.433.21.792.686.898 1.478.951.845.052 2.007 0 2.641.052.634.053.634.212.634.634 0 .475 0 1.215-.159 1.585-.105.422-.317.475-.739.633-.422.212-1.003.528-1.267 1.109-.265.581-.212 1.321.21 1.849.423.475 1.216.687 2.43.739 1.268.053 3.01 0 10.933-.052 7.922-.053 22.023-.159 32.111-.476 10.087-.37 16.161-1.003 22.499-1.743 6.337-.739 12.992-1.584 19.171-2.271 6.127-.686 11.725-1.162 17.482-1.162s11.672.581 14.946.898c3.275.317 3.908.476 7.236.528 3.274.053 9.189.053 12.147.053s3.01 0 3.01.423v1.69c0 .422.053.422 3.116.369l12.201-.211 3.063-.053v.687c0 .687.053 2.007.105 2.641.053.686.106.686.212.739.105.053.211.106 5.862-.211s16.901-.951 28.256-2.113 22.815-2.746 29.681-3.485c6.866-.74 9.19-.581 10.669-.476 1.479.106 2.112.159 7.605-.053 5.493-.211 15.791-.739 20.967-.95 5.176-.264 5.176-.264 4.701-.792-.476-.529-1.373-1.585-2.324-2.483-.951-.95-1.954-1.743-4.595-8.08-2.641-6.338-6.919-18.221-15.052-22.182-8.133-3.961-20.069 0-28.044 2.482-7.975 2.482-11.989 3.486-16.373 7.13-4.331 3.644-9.031 9.876-11.936 13.732-2.905 3.908-4.067 5.439-9.876 6.337-5.81.898-16.267 1.215-19.805-2.429-3.539-3.592-.159-11.144-4.278-15.052-4.12-3.909-15.792-4.173-36.759-1.902s-51.283 7.13-71.458 9.401c-20.175 2.324-30.157 2.113-36.811 1.955-6.602-.159-9.824-.265-11.672.211-1.849.475-2.377 1.426-2.535 2.482-.053 1.162.052 2.218.052 3.433z" fill="#24231D"/><path d="M208.511 0H0v126.49h208.511V0z" fill="#4AAB3C"/><path fill-rule="evenodd" clip-rule="evenodd" d="M180.466 148.249c21.76-.052 26.196-.052 28.414-.052h2.218l-.052-.528c-.053-.529-.212-1.638-.423-4.384-.211-2.799-.475-7.236-.581-10.352-.158-3.063-.158-4.753-.158-5.598v-.845H16.267v1.215c0 1.214-.053 3.591-.053 4.806v1.32c0 .106-.053.37-.053 1.426-.053 1.004-.053 2.852-.106 3.75v.898h12.623s-.053 0-.053 1.426 0 4.278.053 5.704v1.637c0 .053.053.053 8.662.053 8.661 0 25.931 0 54.134-.106 28.097-.158 67.233-.317 88.992-.37z" fill="#36342B"/><path d="M210.359 131.138H7.183v8.397h203.176v-8.397z" fill="#4F4D3E"/><path d="M200.377 131.138h-47.163v23.977h47.163v-23.977z" fill="#4F4D3E"/><path fill-rule="evenodd" clip-rule="evenodd" d="M71.14 147.88l-.263.739h-2.482l.316-.95c.317-.951.898-2.905 2.377-5.493 1.479-2.588 3.856-5.81 5.915-8.133 2.06-2.324 3.75-3.75 5.123-4.859 1.426-1.109 2.535-1.902 3.116-2.271.581-.37.581-.37 2.852-.37h19.7c1.69 0 1.69 0 2.429.422.793.423 2.324 1.215 4.226 2.43 1.901 1.267 4.119 2.905 6.179 5.176 2.06 2.218 3.908 5.07 4.912 7.447 1.003 2.429 1.109 4.436 1.161 5.439l.053 1.004h-2.271l-.053-.634c-.052-.634-.211-1.901-.739-3.538-.528-1.638-1.479-3.697-2.429-5.335-1.004-1.69-2.06-2.957-3.645-4.436-1.584-1.479-3.749-3.116-5.334-4.172-1.584-1.057-2.535-1.479-3.063-1.69-.528-.212-.634-.159-4.12-.212-3.432 0-10.245-.053-13.678-.105h-3.38l-1.057.633c-1.056.634-3.169 1.902-5.228 3.697-2.06 1.796-4.014 4.067-5.546 6.074-1.479 2.007-2.535 3.75-3.327 5.387a27.96 27.96 0 00-1.743 3.75z" fill="#24231D"/><path d="M98.023 176.03c12.601 0 22.816-9.931 22.816-22.182s-10.215-22.182-22.816-22.182c-12.6 0-22.816 9.931-22.816 22.182s10.216 22.182 22.816 22.182z" fill="#24231D"/><path d="M98.023 168.425c8.284 0 14.999-6.527 14.999-14.577 0-8.051-6.715-14.577-14.999-14.577s-15 6.526-15 14.577c0 8.05 6.716 14.577 15 14.577z" fill="#403E32"/><path fill-rule="evenodd" clip-rule="evenodd" d="M98.023 163.988c5.334 0 9.665-4.383 9.665-9.77s-4.331-9.771-9.665-9.771c-5.334 0-9.665 4.384-9.665 9.771 0 5.387 4.33 9.77 9.665 9.77z" fill="#737160"/><path d="M301.992 176.03c12.601 0 22.816-9.931 22.816-22.182s-10.215-22.182-22.816-22.182c-12.601 0-22.816 9.931-22.816 22.182s10.215 22.182 22.816 22.182z" fill="#24231D"/><path d="M301.992 168.425c8.284 0 14.999-6.527 14.999-14.577 0-8.051-6.715-14.577-14.999-14.577s-14.999 6.526-14.999 14.577c0 8.05 6.715 14.577 14.999 14.577z" fill="#403E32"/><path fill-rule="evenodd" clip-rule="evenodd" d="M301.992 163.988c5.334 0 9.665-4.383 9.665-9.77s-4.331-9.771-9.665-9.771c-5.335 0-9.665 4.384-9.665 9.771 0 5.387 4.33 9.77 9.665 9.77z" fill="#737160"/><path d="M202.331 6.285H5.545v113.551h196.786V6.285z" fill="#4F4D3E"/><path fill-rule="evenodd" clip-rule="evenodd" d="M5.545 119.836V6.285l21.179 9.137v84.714l-21.179 19.7z" fill="#737160"/><path fill-rule="evenodd" clip-rule="evenodd" d="M5.545 119.835l21.179-19.699h155.802l19.805 19.699H5.545z" fill="#36342B"/><path fill-rule="evenodd" clip-rule="evenodd" d="M202.331 119.836V6.285l-19.805 9.137v84.714l19.805 19.7z" fill="#737160"/><path fill-rule="evenodd" clip-rule="evenodd" d="M202.331 6.285H5.545l21.179 9.137h155.802l19.805-9.137z" fill="#737160"/><path fill-rule="evenodd" clip-rule="evenodd" d="M331.04 114.026c3.222-1.637 8.028-3.697 10.51-4.701 2.482-1.003 2.535-1.003 2.588-1.003.053 0 .053 0 .581 1.479.528 1.479 1.584 4.383 2.376 7.394.793 3.01 1.321 6.073 1.638 7.658.264 1.531.317 1.531.422 1.637l.423.423c.105.105.105.158.158.792.106.634.264 1.901.317 3.697.053 1.848 0 4.225-.106 6.496-.105 2.271-.316 4.384-.686 6.126-.37 1.691-.845 3.011-1.743 4.226a10.69 10.69 0 01-3.908 3.274c-1.796.898-4.067 1.532-5.229 1.849-1.162.316-1.162.316-1.901.528-.74.211-2.218.686-3.644.898-1.426.211-2.905.158-3.645.105-.739-.053-.792-.053-.792-.105v-.476c0-.422.053-1.32 0-3.169-.053-1.848-.211-4.647-.739-7.288-.528-2.588-1.426-5.017-2.43-7.077-1.003-2.06-2.112-3.697-3.327-5.07-1.215-1.321-2.535-2.324-3.327-2.905-.792-.581-1.056-.792-1.215-.845-.158-.106-.158-.106.106-.317.211-.211.633-.634 1.901-2.271 1.215-1.637 3.274-4.542 5.07-6.602 1.743-1.954 3.38-3.116 6.602-4.753z" fill="#36342B"/><path fill-rule="evenodd" clip-rule="evenodd" d="M333.047 99.185c-.951-.528-2.219-1.162-3.645-1.901-1.426-.74-2.957-1.48-4.964-2.43-2.007-.95-4.437-2.06-6.391-2.904l-4.278-1.902c-.897-.422-1.373-.58-1.742-.74-.37-.158-.687-.263-1.004-.369a5.98 5.98 0 00-.792-.211c-.264-.053-.476-.106-.687-.106-.211 0-.422-.053-.528-.053-.106 0-.106 0 4.331 2.483 4.436 2.482 13.309 7.5 18.062 10.562 4.754 3.064 5.387 4.12 6.496 4.912 1.11.792 2.747 1.321 3.75 1.796 1.057.475 1.479.845 1.954.951.423.105.845 0 1.057-.053.211-.053.211-.053.105-.423a48.987 48.987 0 00-.422-1.426c-.106-.369-.106-.369-.159-.475-.052-.106-.158-.264-.264-.423-.105-.158-.211-.264-.422-.475-.211-.158-.476-.422-1.004-.845s-1.32-.951-2.218-1.584c-.898-.634-1.954-1.268-2.799-1.796s-1.532-.951-2.218-1.32a19.396 19.396 0 00-2.218-1.268z" fill="#fff"/><path fill-rule="evenodd" clip-rule="evenodd" d="M344.085 110.223c.845-1.003.845-1.003.739-1.426a17.121 17.121 0 00-.581-1.795c-.211-.529-.422-.793-1.531-1.69a57.136 57.136 0 00-6.021-4.014c-2.905-1.743-6.655-3.697-10.616-5.651a459.722 459.722 0 00-10.88-4.965c-2.64-1.162-3.697-1.637-4.542-1.901-.845-.264-1.426-.264-1.742-.264-.317 0-.317 0-1.532-.793-1.215-.792-3.591-2.323-6.496-4.595-2.905-2.27-6.285-5.334-11.514-9.77-5.175-4.49-12.2-10.404-17.111-14.524-4.912-4.12-7.817-6.496-10.458-8.292-2.64-1.743-5.123-2.852-9.084-3.538-3.961-.687-9.454-.951-15.844-.951-6.391 0-13.732.264-17.746.475-4.014.211-4.647.423-4.964.74-.317.317-.317.792-.423 7.5-.105 6.707-.317 19.646-.211 36.97.106 17.322.475 39.029.687 50.067.211 11.038.211 11.461.317 11.831.158.369.422.686.739.897.317.212.687.317.951.37.264.053.369.053 4.542.106 4.172.053 12.253.211 22.287.369 10.035.159 21.918.37 27.939.476 5.968.105 6.021.105 6.074.105.052 0 .105 0 .158-.475.053-.475.158-1.479.528-3.855.37-2.377 1.162-6.127 2.113-9.243.95-3.116 2.007-5.545 3.433-7.711 1.426-2.165 3.169-4.066 5.017-5.492 1.849-1.479 3.803-2.536 5.968-3.328 2.165-.792 4.489-1.267 7.077-1.426 2.588-.158 5.44.106 7.764.528 2.324.423 4.119 1.057 5.598 1.743a27.29 27.29 0 013.222 1.796l.581.37 2.324-1.426c2.323-1.426 6.971-4.278 10.51-6.549 3.538-2.271 5.968-3.961 8.08-5.81 2.007-1.796 3.75-3.855 4.648-4.859z" fill="#4AAB3C"/><path fill-rule="evenodd" clip-rule="evenodd" d="M311.551 100.928c2.218 1.479 6.074 4.489 8.081 6.443 2.007 1.954 2.165 2.799 2.06 3.38-.106.581-.476.898-1.321.951-.845.053-2.218-.106-10.087-1.849-7.87-1.742-22.235-5.122-35.914-8.291-13.732-3.17-26.777-6.074-33.537-7.817-6.76-1.69-7.183-2.165-7.552-2.799-.37-.634-.74-1.373-.687-2.007.053-.634.528-1.056.792-1.32.264-.212.264-.212 11.355 1.214 11.144 1.48 33.379 4.384 45.262 6.021 11.883 1.638 13.415 2.06 14.735 2.588 1.321.528 2.377 1.215 3.222 1.585.845.37 1.373.37 3.591 1.901z" fill="#509663"/><path fill-rule="evenodd" clip-rule="evenodd" d="M241.625 89.679c4.225.739 11.144 1.795 19.964 3.168a2174.1 2174.1 0 0127.305 4.437c7.764 1.267 12.57 2.112 15.422 2.588 2.852.475 3.75.528 4.331.528.58 0 .792-.053 1.003-.159a.769.769 0 00.317-.475c.053-.211 0-.475-.053-.74-.053-.263-.211-.527-1.32-1.584-1.162-1.056-3.328-2.957-9.032-8.027-5.703-5.07-14.946-13.31-21.389-18.96-6.444-5.652-10.088-8.715-12.464-10.564-2.43-1.848-3.645-2.43-5.071-3.063-1.478-.58-3.169-1.215-6.02-1.584-2.8-.423-6.761-.634-10.246-.792a198.186 198.186 0 00-8.345-.212c-1.743 0-2.165 0-2.746.159a4.166 4.166 0 00-1.849 1.056c-.581.58-1.003 1.373-1.215 2.218-.211.792-.211 1.637.053 5.915.264 4.278.898 12.042 1.162 16.109.317 4.066.317 4.489.475 5.017.159.528.423 1.162.898 1.796.476.633 1.109 1.162 2.166 1.637.95.422 2.429.845 6.654 1.532z" fill="#403E32"/><path fill-rule="evenodd" clip-rule="evenodd" d="M237.189 87.513c-1.743-.422-2.377-.792-2.852-1.215a3.997 3.997 0 01-1.004-1.373c-.211-.475-.369-.95-.739-4.912-.37-3.96-1.003-11.46-1.32-15.685-.317-4.226-.37-5.229-.264-6.021.105-.74.317-1.215.739-1.69.423-.476.951-.898 1.743-1.11.792-.21 1.743-.158 3.01-.105 1.321.053 2.905.106 5.387.211 2.483.106 5.81.212 8.503.476 2.747.21 4.912.528 6.391.845 1.479.317 2.324.686 2.746.845.423.158.423.158.476 1.109.052.95.211 2.852.633 8.239a1910.12 1910.12 0 001.585 18.802c.37 4.594.422 5.017.422 5.334 0 .317-.105.528-1.056.422-.951-.105-2.799-.528-5.809-1.003-3.011-.475-7.13-1.056-10.616-1.585-3.433-.633-6.285-1.161-7.975-1.584zm26.037-21.231a2444.74 2444.74 0 001.532 18.802c.37 4.858.423 5.387.475 5.81.053.422.212.739.37.95.158.264.37.475.792.634.37.158.951.317 3.38.686 2.43.37 6.761 1.056 8.926 1.373 2.165.317 2.165.317 2.271-1.373.106-1.69.264-5.07.317-8.186.053-3.063-.053-5.862-.211-7.658-.159-1.796-.37-2.588-.898-3.38-.528-.792-1.479-1.585-3.803-3.591-2.324-2.008-6.074-5.335-8.239-7.183-2.165-1.849-2.641-2.271-3.116-2.588-.422-.317-.845-.581-1.162-.687-.317-.105-.581-.105-.739 0-.159.106-.264.317-.264.687 0 .37 0 .898.369 5.704z" fill="#E6E6E6"/><path fill-rule="evenodd" clip-rule="evenodd" d="M280.338 80.436c-.211 1.796-.475 5.07-.687 7.71a159.862 159.862 0 00-.369 6.022c-.053 1.267 0 1.743.211 2.165.158.37.475.687 1.215.95.739.265 1.901.476 3.01.476 1.109 0 2.166-.211 2.958-.634.792-.475 1.426-1.162 1.795-2.588.423-1.426.634-3.538.793-6.179.158-2.693.317-5.915.317-7.71 0-1.796-.106-2.06-.423-2.377-.317-.264-.898-.581-1.796-.793a16.931 16.931 0 00-3.274-.528c-1.004-.105-1.637-.053-2.166.159a1.742 1.742 0 00-1.056.845c-.211.264-.37.686-.528 2.482z" fill="#24231D"/><path fill-rule="evenodd" clip-rule="evenodd" d="M279.863 86.193c.211-2.482.422-4.648.528-5.862.106-1.215.158-1.48.211-1.638.053-.211.053-.317.106-.422a3.07 3.07 0 01.211-.37c.106-.106.211-.264.37-.422.105-.106.211-.212.37-.265.158-.052.264-.158.422-.21.158-.054.317-.107.475-.107.159 0 .317-.052.529-.052h.792c.317 0 .686.052 1.109.105.422.053.95.106 1.426.212.422.105.792.158 1.109.264.317.105.581.158.898.317.264.105.528.264.739.422l.317.317c.053.053.053.053-.528-.053a19.162 19.162 0 00-2.958-.528c-1.162-.158-2.324-.158-2.957-.053-.634.053-.74.159-.951.634-.211.475-.475 1.32-.739 3.697-.264 2.324-.528 6.126-.634 8.767-.106 2.588-.106 4.014 0 4.912.106.898.317 1.267.634 1.479.317.21.686.316.845.316.211.053.211.053-.053 0a9.918 9.918 0 01-1.056-.264c-.317-.105-.476-.158-.581-.21-.159-.054-.264-.16-.37-.212-.106-.106-.211-.159-.264-.264a1.08 1.08 0 01-.211-.317.761.761 0 01-.106-.37c-.053-.158-.053-.37-.053-.686 0-.264 0-.634.053-2.218-.053-1.69.106-4.437.317-6.92zm-52.286 14.365c.211.634.686 1.585 1.109 2.166.422.528.898.686 2.746.739 1.849.053 5.07.053 6.76.053 1.638-.053 1.743-.106 2.271-.634.529-.528 1.479-1.479 1.955-2.113.475-.633.528-.897.475-1.214-.053-.317-.159-.687-.687-1.32-.528-.634-1.479-1.532-1.954-2.008-.528-.475-.634-.475-2.165-.58-1.532-.053-4.489-.159-6.179-.159-1.638 0-2.007.053-2.377.264-.37.211-.845.581-1.215 1.11-.37.527-.634 1.214-.792 1.636-.159.423-.159.634-.159.898s0 .528.212 1.162z" fill="#4F4D3E"/><path fill-rule="evenodd" clip-rule="evenodd" d="M232.013 100.928c.264.317.739.845.951 1.162.264.317.317.317 1.162.369.897.053 2.587.159 3.432.159.846 0 .846 0 1.215-.37.37-.369 1.057-1.056 1.373-1.426.37-.369.37-.369.317-.422h-1.637c-1.479 0-4.278 0-5.704-.053-1.426 0-1.479 0-1.479.053.053.105.106.211.37.528zm4.648-2.271h-5.229s-.053-.053.317-.423 1.109-1.109 1.479-1.426c.369-.37.369-.37 1.162-.37h3.063c.792 0 .845 0 .951.106.105.053.316.159.633.476.37.317.845.845 1.109 1.162.264.264.264.317.264.37v.105s-.052.053-.58.053c-.581-.053-1.691-.053-3.169-.053z" fill="#24231D"/><path fill-rule="evenodd" clip-rule="evenodd" d="M293.594 109.378c0 .528 0 1.268.053 1.69.053.423.053.476.264.528.211.053.528.159 1.585.212 1.056 0 2.799 0 3.749-.053.951-.053 1.162-.053 1.268-.159.158-.105.264-.211.317-.792.053-.528.053-1.479-.053-2.007-.053-.528-.158-.634-.317-.686-.158-.053-.264-.106-1.32-.159a50.687 50.687 0 00-4.014 0c-1.056 0-1.162.053-1.268.106-.105.053-.158.158-.211.37 0 .158-.053.475-.053.95z" fill="#403E32"/><path fill-rule="evenodd" clip-rule="evenodd" d="M294.123 109.061c0 .476 0 1.321.052 1.743.053.423.106.475.212.528.158.053.369.106.897.106.581.053 1.479.053 2.377 0 .845 0 1.69-.053 2.113-.106.422-.053.475-.053.528-.105.053-.053.105-.106.105-.423s0-.845-.052-1.267c0-.423-.053-.793-.053-1.004-.053-.211-.106-.264-.845-.264h-4.965c-.317 0-.317.053-.369.106.052.158 0 .211 0 .686z" fill="#E6E6E6"/><path fill-rule="evenodd" clip-rule="evenodd" d="M279.071 130.662c2.165-2.059 5.07-4.489 7.922-6.232 2.852-1.743 5.598-2.852 8.978-3.486 3.328-.633 7.289-.739 10.616-.528 3.327.212 6.074.74 8.397 1.532a24.807 24.807 0 015.44 2.641c1.215.792 1.69 1.32 1.954 1.584s.264.264.845-.106c.581-.369 1.743-1.056 2.8-1.742 1.056-.687 2.112-1.321 2.587-1.638l.529-.317-1.215-.95c-1.215-.951-3.591-2.852-7.394-4.595-3.803-1.743-9.084-3.433-14.26-4.12-5.176-.686-10.299-.422-14.946.898-4.648 1.321-8.715 3.75-11.62 6.232-2.904 2.483-4.594 5.018-5.598 7.236-1.003 2.271-1.373 4.278-1.479 5.704-.105 1.426.106 2.324.37 2.799.264.423.687.423 1.585-.37.845-.845 2.323-2.482 4.489-4.542z" fill="#5DC94C"/><path fill-rule="evenodd" clip-rule="evenodd" d="M332.994 105.417c1.056 2.271 2.958 6.444 4.067 8.715s1.373 2.64 1.69 2.904c.264.264.581.317 1.848.898 1.268.581 3.539 1.585 4.859 2.166 1.321.581 1.638.739 1.849.792.158 0 .211-.159-.423-2.218-.634-2.113-1.901-6.127-2.905-8.556-1.003-2.43-1.742-3.275-2.323-3.856-.528-.581-.898-.845-2.219-1.584-1.32-.687-3.591-1.849-5.017-2.377-1.426-.528-1.954-.475-2.218-.37-.317.106-.37.317-.317.581-.053.317.053.634 1.109 2.905z" fill="#24231D"/><path fill-rule="evenodd" clip-rule="evenodd" d="M333.68 105.153c.898 2.06 2.694 6.074 3.75 8.292 1.057 2.218 1.373 2.641 1.69 2.958.317.316.581.475 1.796 1.003 1.215.528 3.327 1.426 4.384 1.796 1.056.369 1.109.264.845-.74a53.466 53.466 0 00-1.585-4.859c-.792-2.059-1.848-4.33-2.482-5.598-.687-1.267-.951-1.532-2.113-2.165a171.538 171.538 0 00-4.436-2.324c-1.268-.634-1.796-.792-2.113-.845-.317-.053-.422 0-.528.105-.053.159-.105.317.792 2.377z" fill="#E6E6E6"/><path fill-rule="evenodd" clip-rule="evenodd" d="M345.881 117.512c.211.739.316 1.003.316 1.214.053.212.053.317.053.423 0 .106-.053.158-.105.158-.106.053-.212 0-.37 0-.159-.052-.37-.105-.634-.211-.264-.105-.634-.211-1.056-.422-.423-.159-.951-.37-1.215-.476-.264-.105-.264-.105-.951-1.584-.686-1.479-2.059-4.384-3.01-6.443-.951-2.06-1.426-3.222-1.637-3.909-.264-.633-.264-.792-.159-.845.106-.053.317 0 1.109.37.793.37 2.219 1.109 2.958 1.479.739.369.739.369.951.845.211.475.686 1.373 1.162 2.482a61.359 61.359 0 011.531 3.75 43.703 43.703 0 011.057 3.169z" fill="#E8E4BE"/><path fill-rule="evenodd" clip-rule="evenodd" d="M321.269 127.177c.528-.317 1.003-.634 1.267-.793.265-.158.265-.158 1.162.845.898 1.004 2.747 3.011 4.225 5.282 1.479 2.271 2.641 4.806 3.486 7.658.845 2.852 1.373 6.074 1.637 7.764.265 1.69.317 1.795 1.532 1.848 1.215 0 3.591-.053 5.651-.211a51.087 51.087 0 005.018-.634c1.161-.211 1.69-.475 1.954-.581.264-.105.264-.105.105.106-.158.211-.528.634-.898 1.003-.369.37-.792.74-1.214 1.057-.423.316-.845.633-1.532 1.003-.686.317-1.69.739-2.693 1.056-1.004.37-2.06.687-2.694.845-.634.212-.898.264-1.056.317-.159.053-.264.106-.687.211a27.54 27.54 0 00-1.795.529c-.687.158-1.268.316-1.902.369-.634.106-1.215.159-1.69.159h-1.109c-.37 0-.792-.053-1.109-.053-.264 0-.423-.053-.475-.053-.053 0-.053 0-.053-.422v-2.271c0-1.004-.053-2.166-.159-3.116-.052-.951-.105-1.638-.264-2.588-.158-.951-.317-2.113-.581-3.116-.211-1.004-.475-1.849-.739-2.694s-.634-1.69-1.004-2.535c-.369-.845-.845-1.743-1.32-2.641a15.07 15.07 0 00-1.743-2.64c-.739-.898-1.69-1.796-2.376-2.483-.74-.633-1.215-1.056-1.479-1.214l-.264-.212.211-.105c.211-.106.581-.37 1.056-.634.476-.37 1.004-.687 1.532-1.056z" fill="#403E32"/><path fill-rule="evenodd" clip-rule="evenodd" d="M335.952 146.507c1.848.052 5.809-.159 8.08-.37s2.799-.423 3.222-1.056c.475-.634.845-1.69 1.162-2.958.317-1.215.528-2.641.634-3.644.105-1.004.105-1.637 0-2.06-.106-.422-.265-.634-.687-.845-.423-.211-1.162-.475-2.746-.687-1.585-.211-4.067-.422-5.916-.528-1.848-.105-3.063-.052-3.697 0-.633.106-.686.212-.581.37.106.158.212.264.845.37.634.105 1.691.211 3.275.317 1.584.105 3.697.211 4.964.316 1.268.106 1.638.159 1.849.212.211.053.211.158.053.686-.159.528-.528 1.585-.74 2.905-.264 1.32-.369 3.011-.422 3.908-.053.898-.053 1.057-.053 1.109v.053l-1.373.106c-1.373.106-4.12.317-5.81.475-1.69.212-2.429.37-2.904.581-.634.423-.951.687.845.74z" fill="#24231D"/><path fill-rule="evenodd" clip-rule="evenodd" d="M346.25 138.584a3.57 3.57 0 01.423-.897c.105-.159.105-.159.105.264 0 .422 0 1.162-.105 2.165-.106.951-.317 2.06-.475 2.694-.159.633-.317.739-.37.686-.106-.053-.106-.264-.106-.792 0-.581.106-1.479.159-2.271a7.586 7.586 0 01.369-1.849z" fill="#E8E4BE"/><path fill-rule="evenodd" clip-rule="evenodd" d="M226.89 143.707c9.454.159 28.15.423 37.551.581 9.401.159 9.612.212 9.718.212.106 0 .053 0 .053-.053s.053-.211-.951-.687c-.951-.475-2.958-1.267-3.961-1.69-1.003-.422-1.003-.422-9.348-.581-8.345-.158-25.034-.475-33.59-.634-8.556-.158-9.031-.158-9.242-.158-.265 0-.317 0-.37.053-.053.053-.053.211-.053.686v1.585c0 .37.053.422.211.422.212.159.528.159 9.982.264zm-9.454-17.375c.106.422.159.422 5.704.581 5.493.158 16.425.475 24.136.633 7.711.159 12.253.159 14.894.106 2.641-.053 3.433-.211 3.855-.317.423-.158.423-.264.053-.634-.369-.369-1.056-.898-1.637-1.426a21.098 21.098 0 01-1.32-1.162c-.264-.211-.264-.211-1.162-.264-.898-.052-2.799-.158-10.299-.264-7.5-.158-20.703-.317-27.358-.369-6.707-.053-6.866 0-6.971.211-.106.211-.106.528-.053 1.109a5.972 5.972 0 00.158 1.796z" fill="#5DC94C"/><path fill-rule="evenodd" clip-rule="evenodd" d="M216.169 106.104c.105.158.264.158 4.014.317 3.749.158 11.038.422 16.795 1.214 5.756.793 9.876 2.06 13.467 3.75 3.592 1.69 6.655 3.803 8.715 5.757 2.112 1.954 3.274 3.75 4.013 4.859.74 1.109 1.057 1.584 1.426 1.954.37.37.74.634 1.11.845.369.211.633.37.845.211.158-.158.264-.686-.159-2.007-.422-1.32-1.32-3.433-3.802-5.968-2.483-2.535-6.549-5.492-10.563-7.499-4.067-2.007-8.081-3.011-12.887-3.697-4.806-.634-10.457-.951-14.365-1.109-3.962-.159-6.233-.212-7.394-.212-1.162 0-1.215.053-1.215.159 0 .158-.053.369-.053.634-.053.316-.053.633.053.792z" fill="#3D8C31"/><path fill-rule="evenodd" clip-rule="evenodd" d="M236.133 50.649c4.33.211 10.51.58 14.471.898 3.961.317 5.704.686 7.394 1.214 1.69.528 3.274 1.268 4.753 2.113 1.426.845 2.693 1.743 5.915 4.436 3.222 2.641 8.345 7.077 11.566 9.877 3.222 2.746 4.49 3.908 5.176 4.542.687.633.74.739.792.845.053.105 0 .264-.052.317-.106.052-.264 0-.476-.159-.211-.106-.369-.317-3.644-3.169-3.222-2.852-9.506-8.345-13.626-11.725-4.067-3.38-6.021-4.7-8.133-5.703-2.166-.951-4.542-1.585-9.19-2.06-4.648-.476-11.619-.74-16.161-.898-4.542-.158-6.655-.211-7.817-.158-1.162 0-1.373.105-1.584.264-.211.158-.423.37-.475 1.109-.106.739-.053 1.9-.106 10.563 0 8.661-.053 24.77 0 33.325.053 8.503.158 9.454.264 10.193.106.74.158 1.268.423 2.166.264.845.686 2.06 1.161 3.169.423 1.162.898 2.271 1.162 3.38.264 1.109.37 2.218.476 3.169.053 1.003.105 1.848.317 6.02.211 4.173.633 11.672.845 16.109.211 4.436.158 5.757.264 6.866.052 1.109.211 1.954.528 2.535.317.581.792.95 1.584 1.214.792.265 1.954.37 5.334.423 3.433.053 9.137.053 15.369.158a929.96 929.96 0 0116.795.317c3.697.106 4.278.106 4.701.053.422-.053.634-.106.739-.211.106-.106.106-.264.211-1.056.106-.793.265-2.219.74-4.437.475-2.218 1.32-5.281 2.377-7.922 1.056-2.641 2.323-4.859 3.063-5.968.739-1.109.898-1.109 1.003-1.056.106.053.159.158-.105.528-.264.422-.793 1.109-1.532 2.482a35.69 35.69 0 00-2.535 5.757c-.792 2.218-1.32 4.489-1.69 6.232a39.634 39.634 0 00-.634 3.803c-.158.897-.264 1.584-.475 1.901-.212.37-.528.37-6.919.317-6.338-.053-18.749-.264-25.773-.37-7.025-.106-8.609-.158-9.665-.317-1.057-.105-1.585-.317-2.007-.634-.476-.369-.898-.845-1.162-1.478-.264-.634-.264-1.321-.317-2.535-.053-1.215-.106-2.958-.317-7.87-.264-4.911-.686-12.939-.951-17.27-.264-4.331-.316-4.859-.475-5.651a22.104 22.104 0 00-.845-3.116c-.422-1.373-1.109-3.116-1.479-4.384-.369-1.214-.528-1.901-.581-3.169-.052-1.267-.105-3.116-.105-9.77 0-6.655-.053-18.063-.053-26.038 0-7.975.053-12.464.053-14.893 0-2.43.053-2.852.105-3.17a1.4 1.4 0 01.37-.738c.158-.159.317-.265.634-.37.317-.106.792-.212 2.271-.212 1.479 0 3.697 0 8.028.212zm54.029 52.603c0 4.066.105 11.513.158 15.263.053 3.75.106 3.75.158 3.75.053 0 .212 0 .264-.053.053-.053.106-.158.053-4.278 0-4.119-.053-12.253-.105-16.372-.053-4.12-.053-4.225-.106-4.278-.053-.053-.211-.053-.264.052-.053.106-.106.265-.106.687-.052.475-.105 1.162-.052 5.229zm5.862-24.242c1.743 1.479 3.539 3.01 5.334 4.33a75.765 75.765 0 004.754 3.434c1.267.845 2.112 1.267 2.482 1.479.422.21.37.21.053.475-.317.264-.951.74-1.321 1.003-.369.265-.528.317-.686.37-.159.053-.264.053-7.606-6.073-7.341-6.074-21.917-18.274-29.259-24.454-7.341-6.179-7.499-6.337-7.552-6.496-.053-.158-.053-.264.211-.475.264-.211.74-.528 1.004-.634.264-.158.264-.158 2.799 1.954 2.535 2.06 7.605 6.233 12.147 10.035 4.542 3.803 8.503 7.183 11.355 9.612 2.799 2.483 4.489 3.961 6.285 5.44z" fill="#403E32"/><path fill-rule="evenodd" clip-rule="evenodd" d="M264.758 52.973c-.264.053-.528.264-.687.37-.158.105-.105.105-.105.158.053.053.105.158.634.634.528.528 1.584 1.426 8.291 7.024a7589.314 7589.314 0 0125.457 21.39c6.443 5.44 7.077 5.915 7.394 6.179.37.264.422.264.686.053.212-.212.634-.634.793-.845.211-.212.211-.212-.634-.793-.845-.58-2.535-1.795-5.07-3.802-2.588-2.007-6.021-4.859-9.454-7.764-3.433-2.905-6.866-5.81-10.616-8.978-3.75-3.17-7.763-6.55-10.246-8.662-2.482-2.06-3.38-2.852-4.119-3.433-.74-.58-1.215-1.003-1.585-1.267-.317-.212-.475-.317-.739-.264z" fill="#E6E6E6"/><path fill-rule="evenodd" clip-rule="evenodd" d="M45.473 103.463l3.222-83.34 2.218-.054-2.852 83.394h-2.588z" fill="#DBA758"/><path fill-rule="evenodd" clip-rule="evenodd" d="M48.061 103.463l2.852-83.394.687.212-2.694 82.76-.845.422z" fill="#F7CE66"/><path fill-rule="evenodd" clip-rule="evenodd" d="M67.074 103.674l-1.637-83.763 2.007-.211 1.954 83.816-2.324.158z" fill="#DBA758"/><path fill-rule="evenodd" clip-rule="evenodd" d="M69.398 103.516L67.444 19.7l.686.158 2.007 83.183-.739.475z" fill="#F7CE66"/><path fill-rule="evenodd" clip-rule="evenodd" d="M51.019 29.206l.052-2.799 14.524-.264.053 2.958-14.63.105zm14.788 9.19l-15.105.264-.106 3.116 15.264-.106-.053-3.274zm.263 13.837l-15.896.053-.053 3.17h16.003l-.053-3.223zm.318 14.841H49.645v3.01l16.795.106-.052-3.116zm.264 15.739l-17.693.053-.106 3.538 17.904-.053-.105-3.538z" fill="#DBA758"/><path fill-rule="evenodd" clip-rule="evenodd" d="M143.021 109.959c4.383 0 7.975-3.538 7.975-7.922s-3.592-7.922-7.975-7.922c-4.384 0-7.975 3.538-7.975 7.922s3.591 7.922 7.975 7.922z" fill="#2B2A29"/><path fill-rule="evenodd" clip-rule="evenodd" d="M143.021 105.259a3.201 3.201 0 003.222-3.222c0-1.743-1.426-3.222-3.222-3.222a3.2 3.2 0 00-3.222 3.222c0 1.743 1.426 3.222 3.222 3.222z" fill="#CCC"/><path fill-rule="evenodd" clip-rule="evenodd" d="M141.225 100.717c-1.901-1.373-5.545-4.067-7.394-5.493-1.848-1.373-1.954-1.426-2.06-1.479-.105-.053-.264-.053-4.383-.105l-16.32-.212-4.066-.052-1.215-2.905c-1.215-2.905-3.644-8.715-4.965-11.883-1.373-3.17-1.637-3.697-2.799-5.282-1.109-1.584-3.116-4.12-4.647-5.915-1.585-1.796-2.694-2.8-3.856-3.644-1.162-.845-2.271-1.532-3.01-1.902-.793-.37-1.162-.475-1.69-.422a8.27 8.27 0 00-1.426.158c-.317.053-.265.106-.265.317v1.162s.053 0 .423.053c.317 0 .95.053 1.32.106.423.052.634.105 1.374.528a28.503 28.503 0 013.221 2.165c1.162.95 2.218 2.007 3.486 3.486a52.927 52.927 0 013.908 5.176c1.215 1.901 2.218 3.855 3.328 6.337 1.056 2.483 2.218 5.546 3.116 8.028.897 2.482 1.478 4.384 1.848 5.334.317.951.423 1.004.739 1.004.317.053.951.053 3.856.105 2.905.053 8.133.106 12.253.159 4.172.053 7.235.053 8.82 0h1.743c.105 0 .158.053 1.743 1.215a381.15 381.15 0 006.232 4.594c1.637 1.215 1.901 1.374 2.165 1.479.211.159.423.264.581.212.158 0 .317-.159.37-.317.052-.159-.053-.317-.159-.423-.264-.211-.369-.211-2.271-1.584z" fill="#2B2A29"/><path fill-rule="evenodd" clip-rule="evenodd" d="M125.17 95.435h1.056c.053 0 .053 0-.317.423-.37.422-1.109 1.215-3.063 3.38-1.954 2.165-5.176 5.651-7.025 7.658-1.848 2.007-2.376 2.43-2.746 2.799-.37.37-.686.581-1.056.792-.423.212-1.004.37-1.637.423-.687.053-1.479-.053-1.902-.211-.475-.159-.581-.317-.633-.581-.053-.264 0-.528 0-3.063 0-2.483-.053-7.13-.053-9.507v-2.324h1.056v11.197c0 2.324.053 2.482.211 2.588.159.158.476.264.845.317.37.052.845.052 1.109 0 .317 0 .423-.053 2.641-2.219 2.165-2.218 6.391-6.601 8.609-8.925 2.218-2.324 2.429-2.588 2.535-2.694.106-.105.106-.105.158-.105-.105.052 0 .052.212.052z" fill="#737160"/><path fill-rule="evenodd" clip-rule="evenodd" d="M148.619 76.95c-.634.423-1.69 1.162-2.693 2.271-1.004 1.11-1.954 2.641-2.852 4.225-.898 1.585-1.743 3.328-2.483 4.595-.739 1.268-1.426 2.166-2.112 2.852a9.403 9.403 0 01-2.271 1.69 8.886 8.886 0 01-2.324.845c-.739.159-1.373.264-2.429.264-1.057.053-2.536 0-5.968-.052-3.433-.053-8.873-.106-12.306-.159-3.38-.053-4.753-.053-5.44-.053h-.687l-.158-.422c-.158-.423-.528-1.32-1.268-3.01a382.874 382.874 0 00-2.535-6.074c-.792-1.849-1.267-3.01-1.795-4.225-.528-1.215-1.057-2.483-1.374-3.116l-.264-.634h1.162c1.162 0 3.539-.053 9.929-.211 6.391-.159 16.848-.476 23.978-.687 7.13-.211 10.88-.264 12.834-.317 1.954-.053 2.06-.053 2.06.053.052.106.052.264.052.528s0 .634-.105.898c-.106.106-.317.264-.951.74z" fill="#CCC"/><path fill-rule="evenodd" clip-rule="evenodd" d="M101.562 93.323c-.792 0-.792 0-.792.053 0 .052 0 .21.264 3.274.264 3.063.792 9.137 1.109 12.147.264 3.011.264 3.064.317 3.116.052.053.105.159.633.212.528.105 1.426.158 3.011.211 1.584.053 3.75.053 5.123.053 1.373 0 1.901-.053 2.218-.106.264-.053.317-.053.317-.053l.422-3.116c.37-3.116 1.162-9.348 1.585-12.57.422-3.221.369-3.327.369-3.432 0-.106 0-.053-1.742 0-1.743.052-5.282.052-7.817.105-2.588.106-4.172.106-5.017.106z" fill="#F7F7F7"/><path fill-rule="evenodd" clip-rule="evenodd" d="M100.189 72.091c-1.373-1.161-3.644-3.38-5.018-6.284-1.32-2.958-1.69-6.655-1.479-9.401.212-2.747.951-4.49 1.427-5.599.528-1.109.739-1.584 1.109-1.584s.845.528 1.584 1.479c.74.95 1.69 2.27 2.535 4.12.845 1.848 1.532 4.119 1.954 6.548.423 2.377.634 4.806.634 6.919 0 2.112-.106 3.908-.264 4.753-.106.845-.264.687-.528.528-.211-.158-.581-.317-1.954-1.478zm7.077-15.58c-.74.053-1.479 1.004-2.06 2.324-.634 1.32-1.109 3.063-1.373 5.123-.317 2.06-.423 4.49-.37 6.919.106 2.482.37 5.017.74 6.549.316 1.531.686 2.112.897 2.376.264.264.37.264.687 0 .317-.317.792-.898 1.32-2.112.528-1.162 1.162-2.905 1.638-5.123.475-2.218.739-4.86.845-7.394.105-2.535-.053-4.86-.476-6.444-.422-1.478-1.109-2.27-1.848-2.218z" fill="#4AAB3C"/><path fill-rule="evenodd" clip-rule="evenodd" d="M110.593 41.776c-.422.634-1.056 1.373-1.637 2.64-.581 1.268-1.109 3.011-1.373 5.071-.264 2.113-.264 4.595.105 7.236.37 2.693 1.162 5.598 1.69 7.446.581 1.849.951 2.641 1.215 2.958.264.37.37.264 1.004-.475.633-.74 1.69-2.113 2.535-3.909.845-1.795 1.373-3.96 1.69-6.496.317-2.535.369-5.387-.37-8.239-.687-2.799-2.112-5.545-2.958-6.866-.792-1.32-1.003-1.162-1.161-.845-.159.317-.317.845-.74 1.48z" fill="#5DC94C"/><path fill-rule="evenodd" clip-rule="evenodd" d="M112.072 69.556c-.687 1.268-1.162 2.641-1.479 3.856-.317 1.267-.423 2.377-.264 3.486.106 1.109.475 2.165.898 3.063.422.898.898 1.584 1.214 1.848.317.264.476.106.951-.739a16.597 16.597 0 001.743-4.436c.475-2.007.634-4.49.528-6.338-.158-1.849-.581-3.063-1.267-3.063-.687 0-1.638 1.109-2.324 2.323z" fill="#4AAB3C"/><path fill-rule="evenodd" clip-rule="evenodd" d="M123.902 66.81c-1.056.528-2.852 1.532-4.33 3.275-1.426 1.742-2.483 4.278-3.169 6.496-.687 2.218-1.004 4.225-1.109 5.65-.106 1.48.052 2.43.105 2.906.106.475.106.475 1.004.105s2.64-1.109 4.066-2.27c1.426-1.163 2.535-2.8 3.275-4.596.792-1.795 1.215-3.697 1.479-5.756.264-2.06.317-4.226.317-5.335s-.106-1.109-.265-1.109c-.105 0-.369.106-1.373.634z" fill="#5DC94C"/><path fill-rule="evenodd" clip-rule="evenodd" d="M96.386 53.131c-.053-.053 0-.158.106-.211.052-.053.158 0 .21.105 1.321 3.592 2.589 7.236 3.539 10.669.476 1.69.845 3.38 1.215 5.176.317 1.795.634 3.644.898 5.862.264 1.849.475 3.961.687 5.968.316 2.694.528 5.282.739 7.13.317 3.275.37 4.384.422 5.493 0 .105-.052.158-.158.158-.106 0-.158-.053-.158-.158-.053-1.11-.106-2.218-.423-5.493a239.178 239.178 0 00-.739-7.13c-.212-2.007-.476-4.12-.687-5.968a98.278 98.278 0 00-.898-5.81 55.293 55.293 0 00-1.162-5.122c-.95-3.433-2.27-7.025-3.591-10.669zm10.457 8.45c0-.105.106-.158.159-.105.105 0 .158.105.105.158-.211 1.479-.422 2.958-.633 4.384a61.23 61.23 0 00-.476 4.489 127.355 127.355 0 00-.264 4.806c-.053 1.69-.105 3.433-.105 5.334 0 3.803 0 8.24.052 12.676 0 .105-.052.158-.158.158-.106 0-.159-.053-.159-.158-.052-4.437-.105-8.82-.052-12.676 0-1.9.052-3.697.105-5.334.053-1.69.159-3.274.264-4.806.106-1.532.317-3.063.529-4.542.211-1.479.422-2.958.633-4.384zm7.077 7.869c0-.105.053-.157.159-.157.105 0 .158.052.158.158-.105 2.377-.264 4.806-.528 6.866-.264 1.796-.581 3.327-.951 4.964l-.158.792c-.211 1.057-.475 2.166-.687 3.222-.211.95-.369 1.901-.528 2.8-.317 1.9-.528 3.538-.739 5.122 0 .106-.106.159-.159.106-.105 0-.158-.106-.105-.158.211-1.638.422-3.222.739-5.124.159-.897.317-1.848.528-2.851.212-1.11.476-2.219.687-3.222l.158-.792c.37-1.638.74-3.17.951-4.965.211-2.007.37-4.383.475-6.76zm9.19.054c.053-.053.106-.106.211-.053.053.053.106.106.053.211-.686 1.268-1.32 2.535-2.007 3.855a66.694 66.694 0 00-1.901 3.909c-.581 1.267-1.162 2.535-1.637 3.75-.581 1.373-1.109 2.64-1.532 3.802-.422 1.11-.739 2.06-1.056 2.905-.264.845-.476 1.584-.687 2.218a34.02 34.02 0 00-.369 1.69c-.106.476-.159.95-.212 1.373 0 .106-.105.159-.158.106-.106 0-.159-.106-.106-.158.053-.423.106-.898.211-1.426.106-.529.212-1.057.37-1.69.159-.634.37-1.374.687-2.271.264-.846.634-1.849 1.056-2.958a83.175 83.175 0 011.532-3.855c.528-1.215 1.056-2.483 1.637-3.75.634-1.32 1.267-2.641 1.954-3.909a134.404 134.404 0 011.954-3.75zm-11.672-24.559c0-.106.053-.158.158-.158.106 0 .159.052.159.158.106 3.644.264 7.341.106 11.038a136.17 136.17 0 01-.476 5.81c-.211 2.06-.528 4.33-.845 7.077l-.264 2.218c-.634 5.018-1.426 10.827-1.848 14.63-.476 4.33-.529 5.968-.581 7.605 0 .106-.053.158-.159.158-.105 0-.158-.052-.158-.158.053-1.637.105-3.275.581-7.605.422-3.75 1.162-9.612 1.848-14.63l.264-2.218c.37-2.694.634-4.965.845-7.077.212-2.06.37-3.908.476-5.757.158-3.75.052-7.394-.106-11.09z" fill="#409133"/><path fill-rule="evenodd" clip-rule="evenodd" d="M160.608 102.988l9.56.211-.74-17.904-9.559.053.739 17.64zm16.214-.581l9.56-.317-.74-17.323-9.559.422.739 17.218z" fill="#999"/><path fill-rule="evenodd" clip-rule="evenodd" d="M187.015 82.232c-1.426 1.373-2.535 2.482-3.327 3.327-10.246-1.11-21.812-1.584-34.857-1.479 1.214-1.162 3.432-2.165 6.654-3.01 18.749.158 29.259.528 31.53 1.162z" fill="#DBA758"/><path fill-rule="evenodd" clip-rule="evenodd" d="M186.857 110.751c-2.113 3.064-3.01 3.909-3.01 3.909-.317-9.929-.37-18.96-.212-29.101a98.853 98.853 0 013.328-3.327c.105 19.224-.106 28.519-.106 28.519z" fill="#DBA758"/><path fill-rule="evenodd" clip-rule="evenodd" d="M183.635 85.559c-.158 8.556-.158 17.587.212 29.101-20.44-.264-35.228-1.215-35.228-1.215-.158-15.052-.105-24.876.159-29.365 11.672-.158 23.291.317 34.857 1.479zm-29.787-3.01c-.158 0-.264-.106-.264-.317 0-.159.106-.317.264-.317 5.017-.159 10.14-.106 15.263.105a268.63 268.63 0 0115.633 1.11c.159 0 .264.158.212.317 0 .158-.106.264-.264.264-5.282-.529-10.458-.951-15.581-1.11-5.175-.158-10.246-.21-15.263-.052z" fill="#F7CE66"/><path fill-rule="evenodd" clip-rule="evenodd" d="M163.302 84.239c1.743.053 3.433.105 5.017.211.211-.211-.053 12.728 0 17.904 0 0-4.965-.211-5.176-.211-.053-.053.053-6.021.159-17.904z" fill="#F7F7F7"/><path fill-rule="evenodd" clip-rule="evenodd" d="M168.319 84.397c-3.327-.158-5.017-.211-5.017-.211 3.01-1.954 4.542-2.958 4.542-2.958 2.165.053 3.274.053 3.274.053-1.848 2.113-2.799 3.116-2.799 3.116z" fill="#E0E0E0"/><path fill-rule="evenodd" clip-rule="evenodd" d="M159.552 68.289a1841.5 1841.5 0 001.215 12.041c.317 3.01.317 3.222 1.426 3.38 1.109.159 3.38.317 5.545.265 2.113-.053 4.173-.37 5.229-.529 1.056-.158 1.215-.21 1.584-3.168.37-2.958.951-8.873 1.268-11.83.317-2.958.317-2.958.317-3.275 0-.317 0-.898-.528-1.162-.529-.317-1.638-.317-4.067-.317-2.43-.053-6.232-.106-8.503-.159-2.271-.052-3.063-.052-3.38.37-.423.317-.423 1.11-.106 4.384z" fill="#FDE742"/><path fill-rule="evenodd" clip-rule="evenodd" d="M157.915 65.225c.686.212 1.848.634 3.485.898 1.638.264 3.697.423 5.757.423 2.06 0 4.067-.106 5.81-.317a29.483 29.483 0 004.014-.792c.792-.212 1.003-.317 1.109-.423.105-.105.158-.211.158-.898V61.53c0-.634 0-.634-1.003-.846-1.004-.21-3.011-.58-5.916-.739-2.957-.158-6.813-.106-9.348.053-2.535.158-3.802.37-4.436.475-.634.106-.634.159-.634.845 0 .687 0 2.113.053 2.8.053.792.264.897.951 1.108z" fill="#F7CE66"/><path fill-rule="evenodd" clip-rule="evenodd" d="M159.13 61.634c.897.264 2.799.475 5.07.581 2.271.158 4.859.211 6.971.158a48.393 48.393 0 004.542-.316c.898-.159 1.162-.264 1.162-.37 0-.106-.264-.264-1.162-.475-.898-.264-2.429-.634-4.964-.793-2.535-.158-6.021-.052-8.292.053-2.218.106-3.169.212-3.697.423-.476.211-.581.528.37.74z" fill="#24231D"/><path fill-rule="evenodd" clip-rule="evenodd" d="M165.678 60.208c-.422-1.954-1.003-5.81-1.056-10.299-.053-4.489.423-9.559 1.532-13.414 1.109-3.856 2.852-6.444 4.436-8.556a86.598 86.598 0 013.644-4.542c.687-.792.687-.687.528 2.007-.158 2.746-.528 8.133-1.267 12.464a48.772 48.772 0 01-3.011 10.51c-1.161 2.905-2.323 5.334-2.957 7.552-.634 2.218-.74 4.173-.792 5.176-.053 1.003-.053 1.003-.212 1.003-.158.053-.422.053-.845-1.9z" fill="#4AAB3C"/><path fill-rule="evenodd" clip-rule="evenodd" d="M165.837 59.258c0-1.69-.053-5.44-1.056-8.979-1.004-3.591-2.905-7.024-5.018-9.56a25.77 25.77 0 00-5.968-5.228c-1.531-1.003-2.324-1.426-2.746-1.426-.423 0-.423.37-.264 1.426.158 1.056.475 2.8 1.32 4.754.845 2.006 2.165 4.225 3.644 6.073 1.479 1.901 3.011 3.38 4.331 4.965 1.32 1.531 2.324 3.116 3.222 4.594.898 1.48 1.584 2.905 2.007 3.803.422.898.528 1.268.528-.422z" fill="#5DC94C"/><path fill-rule="evenodd" clip-rule="evenodd" d="M169.904 54.029c.316-1.056 1.267-3.169 3.168-4.806 1.902-1.637 4.648-2.746 6.655-3.327 2.007-.634 3.222-.687 3.803-.687s.528.158.316.634c-.211.475-.58 1.267-1.32 2.43-.739 1.161-1.901 2.746-3.486 3.96-1.637 1.215-3.697 2.06-5.228 2.483-1.532.422-2.482.37-3.169.37-.687 0-1.056 0-.739-1.057z" fill="#4AAB3C"/><path fill-rule="evenodd" clip-rule="evenodd" d="M154.218 39.03a.16.16 0 010-.212c.052-.052.158-.052.211 0 1.426 1.796 2.905 3.539 4.225 5.388 1.32 1.848 2.588 3.697 3.591 5.65 1.004 1.955 1.796 3.962 2.535 6.021.687 2.06 1.268 4.173 1.849 6.285 0 .106-.053.159-.106.212-.105 0-.158-.053-.211-.106-.581-2.113-1.162-4.172-1.848-6.232-.687-2.06-1.479-4.067-2.483-6.021-1.003-1.954-2.218-3.803-3.591-5.598-1.268-1.849-2.746-3.645-4.172-5.387z" fill="#409133"/><path fill-rule="evenodd" clip-rule="evenodd" d="M171.382 30.896c.053-.105.106-.105.212-.105.105.053.105.105.105.211-.475 1.162-.898 2.377-1.32 3.644a69.653 69.653 0 00-1.268 4.437c-.369 1.584-.739 3.327-1.003 5.228-.37 2.166-.687 4.49-1.004 6.655a264.382 264.382 0 00-1.214 11.144c0 .105-.106.158-.212.158-.105 0-.158-.106-.158-.211.37-3.592.687-7.183 1.215-11.197.264-2.165.634-4.489 1.003-6.654a90.867 90.867 0 011.057-5.229 72.18 72.18 0 011.267-4.49c.423-1.214.898-2.376 1.32-3.59zm8.503 16.954c.106-.053.159 0 .212.053.052.105 0 .158-.053.21-2.218 1.374-4.437 2.694-6.127 3.856-.845.581-1.531 1.11-2.165 1.585-.634.475-1.109 1.003-1.584 1.478a7.506 7.506 0 00-1.162 1.48 9.409 9.409 0 00-.793 1.636c-.422 1.215-.581 2.641-.792 4.067 0 .106-.105.159-.211.159s-.158-.106-.158-.212c.211-1.426.369-2.904.792-4.12.211-.633.475-1.214.845-1.742a8.158 8.158 0 011.214-1.532c.476-.475 1.004-1.003 1.585-1.478a28.768 28.768 0 012.165-1.638c1.796-1.109 4.014-2.482 6.232-3.802z" fill="#409133"/><path fill-rule="evenodd" clip-rule="evenodd" d="M41.037 104.572l-8.82.159.58-13.573 8.768.052-.528 13.362zm-14.947-.422l-8.82-.264.581-13.151 8.767.317-.528 13.098z" fill="#999"/><path fill-rule="evenodd" clip-rule="evenodd" d="M16.584 88.78c1.32 1.057 2.376 1.902 3.116 2.536 9.4-.845 20.122-1.215 32.11-1.056-1.161-.898-3.168-1.638-6.126-2.272-17.375.106-27.093.37-29.1.793z" fill="#DBA758"/><path fill-rule="evenodd" clip-rule="evenodd" d="M16.69 110.699l3.01 3.485c.211-7.552.211-15.157 0-22.868-1.004-.845-2.06-1.743-3.116-2.535.053 14.629.105 21.918.105 21.918z" fill="#DBA758"/><path fill-rule="evenodd" clip-rule="evenodd" d="M19.647 91.316c.211 6.496.211 14.101 0 22.868 21.654-1.109 32.48-1.637 32.48-1.637.053-11.408-.105-18.855-.369-22.287-10.721-.159-21.39.21-32.111 1.056zm27.463-2.271a.227.227 0 00.212-.212.227.227 0 00-.212-.21 249.436 249.436 0 00-14.048.052c-4.753.159-9.56.422-14.366.845-.105 0-.21.106-.21.264 0 .106.105.211.263.211 4.86-.422 9.612-.686 14.366-.845 4.7-.158 9.4-.21 13.995-.105z" fill="#F7CE66"/><path fill-rule="evenodd" clip-rule="evenodd" d="M38.396 90.312c-1.637.053-3.169.106-4.595.159-.211-.159.159 9.665.159 13.573 0 0 4.595-.158 4.806-.158-.053.052-.159-4.49-.37-13.574z" fill="#F7F7F7"/><path fill-rule="evenodd" clip-rule="evenodd" d="M33.801 90.47l4.595-.158c-2.8-1.478-4.225-2.27-4.225-2.27-2.007.052-3.01.052-3.01.052a269.499 269.499 0 002.64 2.377z" fill="#E0E0E0"/><path d="M30.845 93.595l-8.088.86.58 5.462 8.088-.86-.58-5.462z" fill="#F7F7F7"/><path fill-rule="evenodd" clip-rule="evenodd" d="M29.365 92.847l-8.926-3.063-.211-28.837 9.295 1.48-.158 30.42z" fill="#DBA758"/><path fill-rule="evenodd" clip-rule="evenodd" d="M29.365 92.847l.158-30.42 10.088-.529-.37 29.999-9.876.95z" fill="#F7CE66"/><path fill-rule="evenodd" clip-rule="evenodd" d="M39.61 61.793l-10.087.845-9.295-1.69 9.665-.37 9.718 1.215z" fill="#DBA758"/><path fill-rule="evenodd" clip-rule="evenodd" d="M35.597 62.162l-3.275.264.211 19.278 3.17-.159-.106-19.383z" fill="#F7F7F7"/><path fill-rule="evenodd" clip-rule="evenodd" d="M32.322 62.426l3.275-.264-8.398-1.478-1.214.052v.529l6.337 1.161z" fill="#F7F7F7"/><path fill-rule="evenodd" clip-rule="evenodd" d="M83.288 90.26c0-.74.106-1.955.317-3.116.211-1.11.58-2.166.95-2.8.37-.633.74-.95.898-1.109.159-.158.159-.158.423-.052.264.105.792.316 1.056.475.264.158.317.211.317.317 0 .053-.105.105-.317.211-.211.106-.528.211-.792.687-.264.475-.475 1.267-.634 2.323-.105 1.057-.158 2.43-.211 3.064-.053.686-.106.686-.37.739-.21 0-.633.053-.95.106-.317.105-.476.264-.581.21-.053-.052-.106-.316-.106-1.055zm-7.236 5.017c.212.211.634.475 1.426.74.793.264 1.902.475 3.486.739 1.532.211 3.539.475 5.599.528 2.06.053 4.172 0 5.756-.159 1.585-.158 2.641-.37 3.38-.58.74-.212 1.11-.423 1.374-.581.264-.212.317-.37.37-.581.052-.212.052-.423-.16-.581-.21-.159-.58-.264-.95-.581-.317-.264-.58-.687-.898-1.162a46.63 46.63 0 00-.739-1.268c-.159-.264-.211-.317-.475-.264-.212.053-.581.159-1.374.317-.792.159-2.006.317-3.644.37-1.637.053-3.697 0-5.334-.106-1.584-.106-2.694-.211-3.433-.317-.687-.105-1.003-.211-1.162-.211-.158 0-.211.053-.475.37-.211.317-.634.897-1.004 1.267-.37.37-.792.581-1.056.74-.317.158-.475.317-.634.422-.105.106-.21.211-.21.317-.054.211-.054.37.157.581z" fill="#CBB935"/><path fill-rule="evenodd" clip-rule="evenodd" d="M81.175 92.108c-.633-.053-.792-.106-1.003-.106-.211-.052-.475-.105-.634-.105a.93.93 0 00-.317-.053c-.052 0-.105 0-.052-.053.052-.053.158-.211.475-.422.317-.212.898-.423 1.479-.634.58-.159 1.215-.264 2.007-.37a49.167 49.167 0 013.116-.105c1.214 0 2.588.105 3.697.21 1.109.106 2.007.265 2.746.423.74.159 1.32.37 1.532.528.264.159.21.212.105.264-.105.053-.264.106-.633.212-.37.105-1.004.211-1.638.317-.634.105-1.267.158-2.165.21-.898.054-2.113.054-3.169.054s-1.954-.053-2.905-.106c-.95-.106-2.007-.211-2.64-.264z" fill="#2B2A29"/><path fill-rule="evenodd" clip-rule="evenodd" d="M85.242 83.87a.728.728 0 01.581-.107c.212 0 .423.053.634.264.211.212.37.582.528 1.004.159.475.212 1.003.317 1.743.053.74.106 1.637.106 2.482 0 .845 0 1.637-.212 2.271-.21.634-.58 1.162-.844 1.585-.265.37-.37.58-.37.792 0 .211.105.422.317.58.21.16.475.212.74.212.263 0 .474-.053.633-.211.211-.159.37-.37.475-.476.106-.158.159-.21.211-.264.053-.053.053-.053.212.106.158.106.37.37.74.528.316.158.739.264 1.003.211.264-.053.422-.21.475-.422a1.08 1.08 0 000-.581 3.353 3.353 0 00-.423-.475 1.994 1.994 0 01-.528-.634c-.158-.264-.264-.475-.264-.95-.053-.476 0-1.11-.053-2.166 0-1.057-.052-2.43-.21-3.592-.16-1.109-.476-1.954-.846-2.535-.317-.528-.686-.792-1.056-.898-.37-.105-.74-.158-1.11-.052a1.78 1.78 0 00-.897.58c-.264.318-.423.687-.581 1.004-.159.37-.264.687-.317.845-.053.159-.053.159 0 .053.053-.106.158-.37.317-.528a.603.603 0 01.422-.37zm-8.45 11.882c-.211-.105-.37-.211-.475-.264-.106-.053-.159-.158-.264-.211-.053-.053-.159-.106-.159-.211-.053-.053-.053-.159-.053-.159v.634c0 .687.053 2.06.106 4.964v9.613c0 2.271.053 2.429.106 2.535.052.105.158.264.58.528.423.317 1.215.792 2.694 1.162 1.426.37 3.539.686 5.757.845 2.218.158 4.489.211 6.496-.159 2.007-.369 3.75-1.056 4.648-1.426.897-.369.95-.422.95-.475l.053-2.429c0-2.43.053-7.236.106-10.246.052-3.01.052-4.173.052-4.754v-.58l-.052.105c-.053.106-.212.37-.793.634-.633.264-1.742.58-2.957.74-1.215.158-2.64.263-4.49.263-1.9 0-4.277-.053-6.073-.158-1.743-.106-2.905-.264-3.697-.423-.792-.158-1.267-.264-1.637-.37a1.443 1.443 0 01-.898-.158z" fill="#FDE742"/><path fill-rule="evenodd" clip-rule="evenodd" d="M62.215 89.045c-.58.528-.633.58-.58.634.052.052.105.052.739.37.634.263 1.848.739 2.64 1.056.793.316 1.215.422 1.532.633.317.212.528.581 1.426 2.271.95 1.69 2.588 4.648 3.961 7.183 1.373 2.482 2.535 4.489 3.116 5.598.634 1.162.74 1.479.898 1.638.159.158.317.158.475.052.159-.105.37-.316.476-1.161.105-.845.211-2.271.158-3.433-.053-1.162-.211-2.007-.317-2.43-.105-.422-.105-.422-.898-1.426a143.199 143.199 0 01-3.644-4.859 160.962 160.962 0 01-3.116-4.33c-.58-.845-.58-.845-.686-1.638-.106-.792-.264-2.376-.37-3.221-.106-.845-.159-.898-.159-.898-.052-.053-.052-.053-.528.211-.475.264-1.373.74-2.376 1.479-1.004.74-2.113 1.743-2.747 2.27z" fill="#CBB935"/><path fill-rule="evenodd" clip-rule="evenodd" d="M67.497 85.718a6.631 6.631 0 01-1.11 1.267c-.58.528-1.425 1.11-2.165 1.532-.686.422-1.267.633-1.69.792-.422.158-.686.211-.845.211-.158 0-.264 0-.211-.158.053-.159.158-.37.528-.845.37-.476 1.004-1.11 1.637-1.638.634-.528 1.32-.95 1.902-1.267a7.664 7.664 0 011.478-.634c.37-.105.528-.105.634-.105.106 0 .159.052.106.21.053.16-.053.318-.264.635z" fill="#2B2A29"/><path fill-rule="evenodd" clip-rule="evenodd" d="M95.224 92.9c.106.212.211.423.317.528.106.159.158.212.211.317.053.053.106.106.106.159 0 .053 0 .053.422 0 .37 0 1.162 0 2.166.106 1.003.105 2.271.37 3.221.844a4.26 4.26 0 011.902 1.638c.317.58.369 1.109.369 1.637s-.105 1.056-.316 1.69a10.737 10.737 0 01-1.162 2.113 13.536 13.536 0 01-1.849 2.112 27.485 27.485 0 01-2.007 1.796c-.58.422-.95.686-1.109.792l-.211.106v2.165l.422-.264c.423-.264 1.32-.792 2.483-1.69 1.162-.898 2.588-2.218 3.538-3.644 1.004-1.426 1.532-3.011 1.69-4.331.159-1.32 0-2.43-.581-3.38-.581-.95-1.584-1.69-2.693-2.165-1.109-.476-2.377-.74-3.486-.846a31.783 31.783 0 00-2.746-.158h-1.004s0 .053.053.106c.106 0 .159.158.264.37z" fill="#CBB935"/></g><defs><clipPath id="clip0_601_13657"><path fill="#fff" d="M0 0h350v176.083H0z"/></clipPath></defs></svg>