<svg width="878" height="456" fill="none" xmlns="http://www.w3.org/2000/svg"><path d="M839.589 437.734C838.69 448.068 830.038 456 819.665 456H0L40.135 0H855.86c11.73 0 20.942 10.048 19.925 21.734l-36.196 416z" fill="#4AAB3C"/><mask id="a" style="mask-type:alpha" maskUnits="userSpaceOnUse" x="0" y="0" width="876" height="456"><path d="M839.589 437.734C838.69 448.068 830.038 456 819.665 456H0L40.135 0H855.86c11.73 0 20.942 10.048 19.925 21.734l-36.196 416z" fill="#4AAB3C"/></mask><g mask="url(#a)"><path fill-rule="evenodd" clip-rule="evenodd" d="M669.531 382.184c.076 1.752.076 3.809.381 4.952.304 1.143.99 1.295 2.132 1.371 1.218.077 2.893 0 3.807.077.914.076.914.304.914.914 0 .686 0 1.752-.229 2.285-.152.61-.456.686-1.066.915-.609.304-1.446.761-1.827 1.6-.381.838-.305 1.904.304 2.666.61.686 1.752.99 3.503 1.067 1.828.076 4.34 0 15.762-.077 11.422-.076 31.753-.228 46.296-.685 14.544-.534 23.301-1.448 32.438-2.514 9.138-1.067 18.732-2.286 27.641-3.276 8.833-.991 16.904-1.676 25.204-1.676s16.828.838 21.549 1.295c4.721.457 5.635.685 10.432.762 4.721.076 13.249.076 17.513.076 4.264 0 4.341 0 4.341.609v2.438c0 .61.076.61 4.492.533l17.59-.304 4.416-.076v.99c0 .99.076 2.895.152 3.809.077.991.153.991.305 1.067.152.076.305.152 8.452-.305 8.148-.457 24.367-1.371 40.738-3.047 16.371-1.676 32.894-3.962 42.793-5.029 9.896-1.066 13.246-.838 15.386-.685 2.13.152 3.04.228 10.96-.076 7.92-.305 22.77-1.067 30.23-1.372 7.46-.381 7.46-.381 6.78-1.142-.69-.762-1.98-2.286-3.35-3.581-1.37-1.372-2.82-2.514-9.6-8.304-6.77-5.867-18.88-16.38-30.61-22.094-11.72-5.714-22.918-6.552-31.522-6.247-8.528.305-14.315 1.752-20.635 7.009-6.244 5.257-13.021 14.246-17.209 19.808-4.188 5.638-5.863 7.847-14.239 9.142-8.376 1.295-23.453 1.752-31.753-.533-8.3-2.286-9.823-7.238-13.249-8.685-3.427-1.524-8.757.457-35.788.838-27.032.305-75.841-.991-107.441-1.752-31.6-.762-46.068-1.067-55.586-1.296-9.518-.228-14.163-.38-16.828.305-2.665.686-3.427 2.057-3.655 3.581-.076 1.371.076 2.895.076 4.647z" fill="#2B2923"/><path d="M871.621 171H571v182.463h300.621V171z" fill="#BDBDBD"/><path fill-rule="evenodd" clip-rule="evenodd" d="M831.188 384.851c31.372-.077 37.768-.077 40.966-.077h3.198l-.076-.761c-.076-.762-.304-2.362-.609-6.324-.304-4.038-.685-10.437-.837-14.932-.229-4.419-.229-6.857-.229-8.076v-1.218H594.453v1.752c0 1.752-.076 5.18-.076 6.933v1.904c0 .153-.076.534-.076 2.057-.076 1.448-.076 4.114-.153 5.409v1.295h18.199s-.076 0-.076 2.057 0 6.171.076 8.228v2.362c0 .076.076.076 12.488.076 12.488 0 37.387 0 78.049-.152 40.509-.229 96.932-.457 128.304-.533z" fill="#36342B"/><path d="M874.286 360.167H581.355v12.113h292.931v-12.113z" fill="#3F3D2E"/><path d="M859.894 360.167h-67.998v34.588h67.998v-34.588z" fill="#3F3D2E"/><path fill-rule="evenodd" clip-rule="evenodd" d="M673.567 384.317l-.381 1.067h-3.579l.457-1.371c.457-1.372 1.295-4.191 3.427-7.924 2.132-3.733 5.558-8.38 8.528-11.732 2.97-3.352 5.406-5.409 7.386-7.009 2.056-1.6 3.655-2.743 4.493-3.276.837-.533.837-.533 4.112-.533h28.402c2.436 0 2.436 0 3.502.609 1.143.61 3.351 1.752 6.092 3.505 2.741 1.828 5.939 4.19 8.909 7.466 2.97 3.2 5.635 7.314 7.081 10.742 1.447 3.504 1.6 6.399 1.676 7.847l.076 1.447h-3.274l-.077-.914c-.076-.914-.304-2.742-1.066-5.104-.761-2.362-2.132-5.333-3.502-7.695-1.447-2.438-2.97-4.266-5.254-6.399-2.285-2.134-5.407-4.495-7.691-6.019s-3.655-2.133-4.416-2.438c-.762-.305-.914-.228-5.94-.305-4.949 0-14.772-.076-19.721-.152h-4.874l-1.522.914c-1.523.914-4.569 2.743-7.539 5.333-2.97 2.59-5.787 5.866-7.995 8.761-2.132 2.895-3.655 5.409-4.797 7.771-1.295 2.286-2.132 4.419-2.513 5.409z" fill="#737160"/><path d="M712.326 424.924c18.168 0 32.895-14.326 32.895-31.998s-14.727-31.997-32.895-31.997c-18.167 0-32.894 14.325-32.894 31.997s14.727 31.998 32.894 31.998z" fill="#4F4D3E"/><path d="M712.324 413.953c11.944 0 21.626-9.414 21.626-21.027 0-11.613-9.682-21.027-21.626-21.027-11.943 0-21.625 9.414-21.625 21.027 0 11.613 9.682 21.027 21.625 21.027z" fill="#807E6D"/><path fill-rule="evenodd" clip-rule="evenodd" d="M712.325 407.554c7.691 0 13.935-6.324 13.935-14.094 0-7.771-6.244-14.095-13.935-14.095-7.69 0-13.934 6.324-13.934 14.095 0 7.77 6.244 14.094 13.934 14.094z" fill="#737160"/><path fill-rule="evenodd" clip-rule="evenodd" d="M874.668 370.604c.152 8.457.228 9.904.38 10.894.077 1.067.229 1.753.381 2.895.229 1.067.533 2.591.838 3.581.304.991.685 1.6 1.37 2.057.686.457 1.599.762 3.808.762 2.208 0 5.711-.305 10.66-.229 4.949 0 11.269.381 17.133.915 5.863.533 11.193 1.142 15.457 1.98 4.264.838 7.462 1.829 10.204 2.591 2.741.762 4.949 1.295 6.396 1.143 1.446-.077 2.056-.762 2.665-2.057.685-1.219 1.37-3.048 2.436-5.867 1.066-2.819 2.513-6.704 4.417-11.123 1.903-4.418 4.34-9.37 7.767-13.561 3.426-4.266 7.843-7.77 12.868-9.904 5.102-2.133 10.889-2.818 16.524-2.742 5.634.076 11.193.914 15.378 2.285 4.19 1.372 6.93 3.276 8.76 4.876 1.83 1.6 2.74 2.895 3.27 3.505.46.685.46.685.84.457.38-.229 1.07-.61 1.98-1.448.92-.838 2.06-2.057 2.59-2.742.53-.61.53-.61-1.29-2.134-1.83-1.523-5.49-4.494-10.74-6.856s-12.184-4.038-18.428-4.571a49.088 49.088 0 00-16.523 1.371c-4.721 1.295-8.605 3.124-11.879 5.257-3.35 2.133-6.092 4.495-8.147 6.704-2.056 2.209-3.427 4.343-5.026 7.085a600.112 600.112 0 00-4.493 8.304c-1.218 2.286-1.979 3.657-2.436 4.495-.457.838-.686 1.219-.838 1.448-.152.228-.381.381-.914.533-.533.076-1.446.152-7.31.229-5.939.076-16.828.152-22.767.152-6.015 0-7.081-.152-8.376-.609-1.294-.458-2.741-1.219-3.959-2.362-1.219-1.067-2.056-2.514-2.666-4.724-.533-2.209-.685-5.18-.913-11.351-.153-6.171-.305-15.466-.533-25.827-.229-10.361-.457-21.712-.99-37.026-.533-15.313-1.295-34.511-1.752-44.111l-.38-9.599h-12.26c-2.589 0-2.969.076-3.426 1.524-.457 1.447-1.066 4.266-1.142 18.513-.076 14.246.228 39.844.533 60.49.228 20.723.38 36.264.533 44.797z" fill="#4AAB3C"/><path d="M862.713 180.066H578.996v163.797h283.717V180.066z" fill="#4F4D3E"/><path fill-rule="evenodd" clip-rule="evenodd" d="M578.996 343.863V180.066l30.534 13.18v122.2l-30.534 28.417z" fill="#6A6856"/><path fill-rule="evenodd" clip-rule="evenodd" d="M578.996 343.863l30.534-28.417h224.628l28.555 28.417H578.996z" fill="#403E32"/><path fill-rule="evenodd" clip-rule="evenodd" d="M862.713 343.863V180.066l-28.555 13.18v122.2l28.555 28.417zm0-163.797H578.996l30.534 13.18h224.628l28.555-13.18z" fill="#6A6856"/><path fill-rule="evenodd" clip-rule="evenodd" d="M638.084 319.256l4.645-120.22 3.198-.076-4.112 120.219-3.731.077z" fill="#DBA757"/><path fill-rule="evenodd" clip-rule="evenodd" d="M641.814 319.179l4.112-120.219.99.228-3.883 119.382-1.219.609z" fill="#FBD16B"/><path fill-rule="evenodd" clip-rule="evenodd" d="M669.228 319.56l-2.285-120.905 2.894-.228 2.741 120.829-3.35.304z" fill="#DBA757"/><path fill-rule="evenodd" clip-rule="evenodd" d="M672.577 319.256l-2.741-120.829.914.228 2.893 119.991-1.066.61z" fill="#FBD16B"/><path fill-rule="evenodd" clip-rule="evenodd" d="M646.08 212.14l.076-4.038 20.94-.381.076 4.19-21.092.229zm21.321 13.256l-21.778.381-.152 4.419 22.082-.077-.152-4.723zm.38 19.884l-22.92.153-.076 4.571h23.148l-.152-4.724zm.457 21.408l-24.138.076v4.343l24.214.152-.076-4.571zm.38 22.779l-25.509.076-.152 5.029 25.813-.077-.152-5.028z" fill="#DBA757"/><path fill-rule="evenodd" clip-rule="evenodd" d="M778.724 328.626c6.321 0 11.498-5.104 11.498-11.427 0-6.324-5.177-11.428-11.498-11.428-6.32 0-11.497 5.104-11.497 11.428 0 6.247 5.177 11.427 11.497 11.427z" fill="#141515"/><path fill-rule="evenodd" clip-rule="evenodd" d="M778.725 321.77a4.616 4.616 0 004.645-4.648c0-2.514-2.056-4.647-4.645-4.647a4.616 4.616 0 00-4.645 4.647 4.616 4.616 0 004.645 4.648z" fill="#CBCCCD"/><path fill-rule="evenodd" clip-rule="evenodd" d="M776.136 315.218c-2.742-1.981-7.996-5.866-10.661-7.923-2.665-1.981-2.817-2.057-2.969-2.134-.153-.076-.381-.076-6.321-.152l-23.528-.305-5.864-.076-1.751-4.19c-1.751-4.19-5.254-12.571-7.158-17.142-1.979-4.571-2.36-5.333-4.035-7.618-1.599-2.286-4.493-5.943-6.701-8.533-2.284-2.59-3.883-4.038-5.559-5.257-1.675-1.219-3.274-2.209-4.34-2.742-1.142-.534-1.675-.686-2.436-.61-.762 0-1.676.153-2.056.229-.457.076-.381.152-.381.457v1.676s.076 0 .609.076c.457 0 1.371.076 1.904.153.609.076.913.152 1.979.761a41.223 41.223 0 014.645 3.124c1.675 1.371 3.198 2.895 5.026 5.028 1.827 2.133 3.883 4.8 5.635 7.466 1.751 2.743 3.198 5.562 4.797 9.142 1.523 3.581 3.198 8 4.492 11.581 1.295 3.58 2.132 6.323 2.665 7.694.457 1.372.61 1.448 1.066 1.448.457.076 1.371.076 5.559.152 4.188.076 11.726.152 17.666.229 6.015.076 10.432.076 12.716 0h2.513c.152 0 .228.076 2.513 1.752a555.545 555.545 0 008.985 6.628c2.36 1.752 2.741 1.981 3.122 2.133.304.229.609.381.837.305.229 0 .457-.229.533-.457.076-.229-.076-.457-.228-.61-.381-.228-.533-.304-3.274-2.285z" fill="#141515"/><path fill-rule="evenodd" clip-rule="evenodd" d="M752.987 307.675h1.523c.076 0 .076 0-.457.61-.533.609-1.599 1.752-4.416 4.876-2.817 3.123-7.462 8.152-10.127 11.047-2.665 2.895-3.427 3.504-3.96 4.037-.533.534-.99.838-1.523 1.143-.609.305-1.447.533-2.36.61-.99.076-2.132-.077-2.742-.305-.685-.229-.837-.457-.913-.838-.076-.381 0-.762 0-4.419 0-3.581-.076-10.285-.076-13.713v-3.352h1.522v16.151c0 3.352.077 3.581.305 3.733.228.229.685.381 1.218.457.533.076 1.219.076 1.599 0 .457 0 .61-.076 3.808-3.2 3.122-3.199 9.213-9.523 12.411-12.875 3.198-3.352 3.503-3.733 3.655-3.885.153-.153.153-.153.229-.153-.076.076 0 .076.304.076z" fill="#6A6856"/><path fill-rule="evenodd" clip-rule="evenodd" d="M786.796 280.935c-.914.609-2.437 1.676-3.884 3.276-1.447 1.599-2.817 3.809-4.112 6.094-1.294 2.286-2.512 4.8-3.579 6.628-1.066 1.829-2.055 3.124-3.045 4.114a13.5 13.5 0 01-3.275 2.438c-1.142.61-2.284.991-3.35 1.219-1.066.229-1.98.381-3.503.381-1.523.076-3.655 0-8.604-.076s-12.792-.152-17.742-.229c-4.873-.076-6.853-.076-7.843-.076h-.99l-.228-.609c-.229-.61-.762-1.905-1.828-4.343a552.525 552.525 0 00-3.655-8.761c-1.142-2.666-1.827-4.343-2.589-6.095-.761-1.752-1.522-3.58-1.979-4.495l-.381-.914h1.675c1.675 0 5.102-.076 14.315-.305 9.214-.228 24.291-.685 34.57-.99 10.28-.305 15.686-.381 18.504-.457 2.817-.076 2.969-.076 2.969.076.076.152.076.381.076.762s0 .914-.152 1.295c-.152.229-.457.457-1.37 1.067z" fill="#CBCCCD"/><path fill-rule="evenodd" clip-rule="evenodd" d="M719.025 304.628c-1.142 0-1.142 0-1.142.076s0 .305.381 4.724c.38 4.418 1.142 13.18 1.599 17.522.38 4.343.38 4.419.456 4.495.077.076.153.229.914.305.762.152 2.056.228 4.34.305 2.285.076 5.407.076 7.387.076 1.979 0 2.741-.076 3.198-.153.38-.076.457-.076.457-.076l.609-4.495c.533-4.495 1.675-13.484 2.284-18.132.609-4.647.533-4.799.533-4.952 0-.152 0-.076-2.513 0-2.513.077-7.614.077-11.269.153-3.807.152-6.092.152-7.234.152z" fill="#F9F9F9"/><path fill-rule="evenodd" clip-rule="evenodd" d="M716.969 273.926c-1.979-1.676-5.254-4.876-7.233-9.066-1.904-4.267-2.437-9.6-2.132-13.561.304-3.962 1.37-6.476 2.055-8.076.762-1.6 1.067-2.285 1.6-2.285.533 0 1.218.761 2.284 2.133 1.066 1.371 2.437 3.276 3.655 5.942 1.218 2.667 2.208 5.943 2.817 9.447.609 3.428.914 6.933.914 9.98 0 3.048-.152 5.638-.381 6.857-.152 1.219-.38.99-.761.762-.305-.153-.838-.381-2.818-2.133zm10.204-22.399c-1.066.076-2.132 1.448-2.97 3.352-.913 1.905-1.599 4.419-1.979 7.39-.457 2.972-.61 6.476-.533 9.981.152 3.58.533 7.237 1.066 9.446.456 2.21.989 3.048 1.294 3.429.381.381.533.381.99 0 .457-.457 1.142-1.295 1.904-3.048.761-1.676 1.675-4.19 2.36-7.39.685-3.199 1.066-7.009 1.218-10.665.153-3.657-.076-7.009-.685-9.295-.609-2.209-1.599-3.352-2.665-3.2z" fill="#4AAB3C"/><path fill-rule="evenodd" clip-rule="evenodd" d="M731.97 230.196c-.609.914-1.522 1.98-2.36 3.809-.838 1.828-1.599 4.342-1.98 7.314-.38 3.047-.381 6.628.153 10.437.533 3.885 1.675 8.075 2.436 10.742.838 2.666 1.371 3.809 1.751 4.266.381.534.534.381 1.447-.685a25.677 25.677 0 003.655-5.638c1.219-2.59 1.98-5.714 2.437-9.371.457-3.657.533-7.771-.533-11.885-.99-4.037-3.046-7.999-4.264-9.904-1.142-1.904-1.447-1.676-1.675-1.219-.229.534-.457 1.219-1.067 2.134z" fill="#5DC94C"/><path fill-rule="evenodd" clip-rule="evenodd" d="M734.102 270.345c-.99 1.828-1.675 3.809-2.132 5.561-.457 1.829-.609 3.429-.381 5.029.153 1.599.686 3.123 1.295 4.418.609 1.295 1.294 2.286 1.751 2.667.457.381.685.152 1.371-1.067.685-1.219 1.827-3.428 2.513-6.399.685-2.895.913-6.476.761-9.142-.228-2.667-.838-4.419-1.827-4.419-.99-.076-2.361 1.523-3.351 3.352z" fill="#4AAB3C"/><path fill-rule="evenodd" clip-rule="evenodd" d="M751.158 266.383c-1.523.762-4.112 2.21-6.244 4.724-2.056 2.514-3.579 6.171-4.568 9.371-.99 3.199-1.447 6.094-1.599 8.151-.153 2.133.076 3.505.152 4.19.152.686.152.686 1.447.153 1.294-.533 3.807-1.6 5.863-3.276 2.056-1.676 3.655-4.038 4.721-6.628 1.142-2.59 1.751-5.333 2.132-8.304.381-2.972.457-6.095.457-7.695 0-1.6-.153-1.6-.381-1.6-.152 0-.533.152-1.98.914z" fill="#5DC94C"/><path fill-rule="evenodd" clip-rule="evenodd" d="M711.487 246.651c-.076-.076 0-.228.152-.304.076-.076.229 0 .305.152 1.903 5.181 3.731 10.437 5.101 15.389.686 2.438 1.219 4.876 1.752 7.467.457 2.59.914 5.256 1.294 8.456.381 2.666.686 5.714.99 8.609.457 3.885.762 7.618 1.066 10.285.457 4.723.533 6.323.609 7.923 0 .152-.076.229-.228.229-.152 0-.228-.077-.228-.229-.077-1.6-.153-3.2-.61-7.923-.228-2.667-.609-6.4-1.066-10.285-.304-2.895-.685-5.943-.99-8.609a141.3 141.3 0 00-1.294-8.38c-.457-2.514-.99-4.952-1.675-7.39-1.371-4.952-3.274-10.209-5.178-15.39zm15.153 12.114c0-.153.152-.229.229-.153.152 0 .228.153.152.229-.305 2.133-.609 4.266-.914 6.323a88.905 88.905 0 00-.685 6.476c-.152 2.209-.305 4.495-.381 6.933-.076 2.438-.152 4.952-.152 7.695 0 5.485 0 11.884.076 18.284 0 .152-.076.228-.228.228-.153 0-.229-.076-.229-.228-.076-6.4-.152-12.723-.076-18.284 0-2.743.076-5.333.152-7.695.076-2.438.229-4.724.381-6.933.152-2.209.457-4.419.761-6.552.229-2.133.533-4.19.914-6.323zm10.126 11.351c0-.152.077-.228.229-.228.152 0 .228.076.228.228-.152 3.429-.38 6.933-.761 9.904-.381 2.591-.838 4.8-1.371 7.162l-.228 1.143c-.305 1.523-.686 3.123-.99 4.647-.305 1.371-.533 2.742-.762 4.038-.456 2.742-.761 5.104-1.066 7.39 0 .152-.152.228-.228.152-.152 0-.229-.152-.152-.229.304-2.361.609-4.647 1.066-7.39.228-1.295.457-2.666.761-4.114.305-1.599.685-3.199.99-4.647l.228-1.143c.533-2.361 1.066-4.571 1.371-7.161.305-2.819.533-6.247.685-9.752zm13.251.153c.076-.076.153-.153.305-.076.076.076.152.152.076.304-.99 1.829-1.904 3.657-2.893 5.562-.99 1.904-1.904 3.733-2.742 5.637-.837 1.829-1.675 3.657-2.36 5.41-.838 1.98-1.599 3.809-2.208 5.485-.61 1.6-1.066 2.971-1.523 4.19-.381 1.219-.686 2.286-.99 3.2-.229.914-.381 1.676-.533 2.438-.153.685-.229 1.371-.305 1.981 0 .152-.152.228-.228.152-.153 0-.229-.152-.153-.229.077-.609.153-1.295.305-2.057a50.08 50.08 0 01.533-2.438c.228-.914.533-1.98.99-3.276.381-1.218.914-2.666 1.523-4.266.609-1.676 1.37-3.581 2.208-5.561.762-1.753 1.523-3.581 2.361-5.409.913-1.905 1.827-3.81 2.817-5.638a191.796 191.796 0 012.817-5.409zm-16.83-35.426c0-.153.077-.229.229-.229.152 0 .228.076.228.229.153 5.257.381 10.589.153 15.922-.153 2.667-.381 5.333-.686 8.381-.304 2.971-.761 6.247-1.218 10.208l-.381 3.2c-.913 7.238-2.056 15.618-2.665 21.103-.685 6.248-.761 8.609-.837 10.971 0 .152-.077.229-.229.229-.152 0-.228-.077-.228-.229.076-2.362.152-4.723.837-10.971.609-5.409 1.676-13.865 2.665-21.103l.381-3.2c.533-3.885.914-7.161 1.218-10.208.305-2.971.533-5.638.686-8.304.228-5.41.076-10.742-.153-15.999z" fill="#509663"/><path fill-rule="evenodd" clip-rule="evenodd" d="M804.08 318.57l13.782.228-1.066-25.75-13.782.076 1.066 25.446zm23.453-.838l13.706-.457-1.066-24.989-13.706.533 1.066 24.913z" fill="#929293"/><path fill-rule="evenodd" clip-rule="evenodd" d="M842.153 288.629c-2.056 1.981-3.655 3.581-4.798 4.8-14.772-1.6-31.448-2.286-50.255-2.133 1.751-1.676 4.949-3.124 9.594-4.343 27.108.229 42.26.762 45.459 1.676z" fill="#DBB158"/><path fill-rule="evenodd" clip-rule="evenodd" d="M841.924 329.693c-3.046 4.419-4.34 5.638-4.34 5.638-.457-14.323-.533-27.351-.305-41.978a142.865 142.865 0 014.797-4.8c.152 27.808-.152 41.14-.152 41.14z" fill="#DBB158"/><path fill-rule="evenodd" clip-rule="evenodd" d="M837.355 293.429c-.229 12.342-.228 25.37.305 41.978-29.469-.381-50.789-1.752-50.789-1.752-.229-21.713-.153-35.884.228-42.359 16.752-.305 33.504.457 50.256 2.133zm-43.021-4.419c-.229 0-.381-.152-.381-.457 0-.228.152-.457.381-.457 7.234-.229 14.62-.152 22.006.152 7.386.305 14.924.838 22.539 1.6.228 0 .381.229.304.457 0 .229-.152.381-.38.381-7.615-.762-15.077-1.371-22.463-1.6-7.462-.228-14.772-.228-22.006-.076z" fill="#F7CE66"/><path fill-rule="evenodd" clip-rule="evenodd" d="M807.963 291.448c2.513.076 4.949.153 7.234.305.304-.305-.077 18.36 0 25.826 0 0-7.158-.304-7.463-.304l.229-25.827z" fill="#F9F9F9"/><path fill-rule="evenodd" clip-rule="evenodd" d="M815.197 291.753c-4.797-.229-7.234-.305-7.234-.305 4.34-2.819 6.548-4.266 6.548-4.266 3.122.076 4.721.076 4.721.076-2.665 2.971-4.035 4.495-4.035 4.495z" fill="#E1E2E1"/><path fill-rule="evenodd" clip-rule="evenodd" d="M802.632 268.44c.457 4.724 1.294 13.028 1.751 17.37.457 4.343.457 4.648 2.056 4.876 1.599.229 4.873.457 7.995.381 3.046-.076 6.016-.533 7.539-.762 1.523-.228 1.751-.304 2.284-4.571.533-4.266 1.371-12.799 1.828-17.065.457-4.266.457-4.266.457-4.724 0-.457 0-1.295-.762-1.676-.761-.457-2.36-.457-5.863-.457-3.503-.076-8.985-.152-12.259-.228-3.275-.077-4.417-.077-4.874.533-.685.533-.609 1.676-.152 6.323z" fill="#FDE742"/><path fill-rule="evenodd" clip-rule="evenodd" d="M800.197 264.098c.99.305 2.665.914 5.025 1.295 2.361.381 5.33.609 8.3.609 2.97 0 5.863-.152 8.376-.457 2.513-.304 4.645-.838 5.787-1.142 1.142-.305 1.447-.458 1.599-.61.152-.152.229-.305.229-1.295v-3.733c0-.914 0-.914-1.447-1.219-1.447-.305-4.34-.838-8.528-1.067-4.265-.228-9.823-.152-13.478.076-3.655.229-5.483.534-6.396.686-.914.153-.914.229-.914 1.219 0 .991 0 3.048.076 4.038.076 1.143.381 1.295 1.371 1.6z" fill="#FBD16B"/><path fill-rule="evenodd" clip-rule="evenodd" d="M801.947 258.917c1.294.381 4.035.686 7.31.838 3.274.229 7.005.305 10.051.229a69.771 69.771 0 006.548-.457c1.295-.229 1.675-.381 1.675-.534 0-.152-.38-.38-1.675-.685-1.294-.381-3.502-.914-7.157-1.143-3.655-.229-8.681-.076-11.955.076-3.198.153-4.569.305-5.33.61-.686.304-.762.685.533 1.066z" fill="#080902"/><path fill-rule="evenodd" clip-rule="evenodd" d="M811.39 256.86c-.609-2.819-1.447-8.38-1.523-14.856-.076-6.475.609-13.789 2.208-19.351 1.599-5.561 4.112-9.294 6.396-12.342a125.12 125.12 0 015.254-6.552c.99-1.142.99-.99.762 2.895-.229 3.962-.762 11.733-1.828 17.98s-2.665 11.047-4.34 15.161c-1.675 4.19-3.35 7.695-4.264 10.894-.914 3.2-1.066 6.019-1.142 7.466-.076 1.448-.076 1.448-.305 1.448-.228.076-.609.076-1.218-2.743z" fill="#4AAB3C"/><path fill-rule="evenodd" clip-rule="evenodd" d="M811.617 255.489c0-2.438-.076-7.847-1.523-12.951-1.446-5.181-4.188-10.133-7.233-13.79a37.17 37.17 0 00-8.605-7.542c-2.208-1.448-3.35-2.057-3.959-2.057s-.609.533-.381 2.057c.228 1.523.685 4.038 1.904 6.856 1.218 2.895 3.122 6.095 5.254 8.762 2.132 2.742 4.34 4.875 6.244 7.161 1.903 2.209 3.35 4.495 4.644 6.628 1.295 2.133 2.285 4.19 2.894 5.485.609 1.296.761 1.753.761-.609z" fill="#5DC94C"/><path fill-rule="evenodd" clip-rule="evenodd" d="M817.482 247.947c.457-1.524 1.827-4.571 4.569-6.933 2.741-2.362 6.7-3.962 9.594-4.8 2.893-.914 4.645-.99 5.482-.99.838 0 .762.228.457.914-.304.686-.837 1.828-1.903 3.504-1.067 1.677-2.742 3.962-5.026 5.714-2.361 1.753-5.33 2.972-7.538 3.581-2.209.609-3.579.533-4.569.533-.99 0-1.523 0-1.066-1.523z" fill="#4AAB3C"/><path fill-rule="evenodd" clip-rule="evenodd" d="M794.866 226.234c-.076-.076-.076-.229 0-.305a.231.231 0 01.304 0c2.056 2.59 4.188 5.105 6.092 7.771 1.904 2.667 3.731 5.333 5.178 8.152 1.447 2.819 2.589 5.714 3.655 8.685.99 2.971 1.827 6.018 2.665 9.066 0 .152-.076.228-.152.305-.153 0-.229-.077-.305-.153-.838-3.047-1.675-6.018-2.665-8.99-.99-2.971-2.132-5.866-3.579-8.685-1.447-2.818-3.198-5.485-5.178-8.075-1.827-2.667-3.959-5.181-6.015-7.771z" fill="#509663"/><path fill-rule="evenodd" clip-rule="evenodd" d="M819.612 214.578c.076-.153.153-.153.305-.153.152.077.152.153.152.305-.685 1.676-1.294 3.428-1.903 5.257a99.685 99.685 0 00-1.828 6.399c-.533 2.286-1.066 4.8-1.447 7.543-.533 3.123-.99 6.475-1.446 9.599-.762 5.79-1.295 10.971-1.752 16.075 0 .152-.152.228-.304.228-.153 0-.229-.152-.229-.304.533-5.181.99-10.361 1.752-16.151.38-3.124.913-6.476 1.446-9.6.457-2.666.99-5.256 1.523-7.542a103.242 103.242 0 011.828-6.476c.609-1.752 1.294-3.504 1.903-5.18zm12.26 24.379c.153-.076.229 0 .305.076.076.152 0 .229-.076.305-3.198 1.981-6.396 3.885-8.833 5.561-1.218.838-2.208 1.6-3.122 2.286-.914.685-1.599 1.447-2.284 2.133a10.799 10.799 0 00-1.675 2.133 13.539 13.539 0 00-1.143 2.362c-.609 1.752-.837 3.809-1.142 5.866 0 .152-.152.229-.304.229-.153 0-.229-.153-.229-.305.305-2.057.533-4.19 1.142-5.942.305-.915.686-1.753 1.219-2.515a11.794 11.794 0 011.751-2.209c.685-.686 1.447-1.447 2.284-2.133a41.495 41.495 0 013.122-2.362c2.589-1.524 5.787-3.504 8.985-5.485z" fill="#509663"/><path fill-rule="evenodd" clip-rule="evenodd" d="M631.687 320.855l-12.716.229.837-19.656 12.64.076-.761 19.351zm-21.549-.685l-12.716-.305.837-18.97 12.641.457-.762 18.818z" fill="#929293"/><path fill-rule="evenodd" clip-rule="evenodd" d="M596.432 298.076c1.903 1.524 3.426 2.743 4.492 3.657 13.554-1.219 29.012-1.752 46.296-1.524-1.675-1.295-4.568-2.361-8.832-3.276-25.052.077-38.987.458-41.956 1.143z" fill="#DBA757"/><path fill-rule="evenodd" clip-rule="evenodd" d="M596.584 329.693l4.34 5.028a594.748 594.748 0 000-32.988c-1.447-1.219-2.969-2.514-4.492-3.657.076 21.103.152 31.617.152 31.617z" fill="#DBB158"/><path fill-rule="evenodd" clip-rule="evenodd" d="M600.848 301.733c.304 9.371.304 20.341 0 32.988 31.219-1.6 46.829-2.362 46.829-2.362.076-16.456-.152-27.198-.533-32.15-15.458-.228-30.839.305-46.296 1.524zm39.671-3.276c.152 0 .304-.152.304-.305a.327.327 0 00-.304-.304c-6.701-.153-13.478-.153-20.255.076-6.853.228-13.782.609-20.711 1.219-.153 0-.305.152-.305.381 0 .152.152.304.381.304 7.005-.609 13.858-.99 20.711-1.219 6.701-.304 13.478-.304 20.179-.152z" fill="#F7CE66"/><path fill-rule="evenodd" clip-rule="evenodd" d="M627.955 300.286c-2.361.076-4.569.152-6.625.228-.304-.228.229 13.942.229 19.58 0 0 6.624-.229 6.929-.229-.152 0-.305-6.476-.533-19.579z" fill="#F9F9F9"/><path fill-rule="evenodd" clip-rule="evenodd" d="M621.255 300.514l6.624-.228a372.063 372.063 0 01-6.091-3.276c-2.894.076-4.341.076-4.341.076 2.589 2.285 3.808 3.428 3.808 3.428z" fill="#E1E2E1"/><path d="M616.995 305.022l-11.661 1.24.837 7.879 11.661-1.24-.837-7.879z" fill="#F9F9F9"/><path fill-rule="evenodd" clip-rule="evenodd" d="M614.859 303.866l-12.869-4.342-.228-41.597 13.325 2.133-.228 43.806z" fill="#DBB158"/><path fill-rule="evenodd" clip-rule="evenodd" d="M614.859 303.866l.229-43.806 14.544-.838-.533 43.349-14.24 1.295z" fill="#F7CE66"/><path fill-rule="evenodd" clip-rule="evenodd" d="M629.631 259.146l-14.544 1.219-13.325-2.514 13.858-.458 14.011 1.753z" fill="#DBA757"/><path fill-rule="evenodd" clip-rule="evenodd" d="M623.844 259.603l-4.721.457.305 27.807 4.568-.304-.152-27.96z" fill="#F9F9F9"/><path fill-rule="evenodd" clip-rule="evenodd" d="M619.124 260.06l4.721-.457-12.107-2.057-1.752.076.076.762 9.062 1.676z" fill="#F9F9F9"/><path fill-rule="evenodd" clip-rule="evenodd" d="M692.68 300.133c0-1.066.153-2.819.457-4.495.305-1.6.838-3.123 1.371-4.038.533-.914 1.066-1.371 1.294-1.599.229-.229.229-.229.609-.077.381.153 1.143.458 1.523.686.381.229.457.305.457.457 0 .076-.152.153-.457.305-.304.152-.761.305-1.142.99-.381.686-.685 1.829-.914 3.352-.152 1.524-.228 3.505-.304 4.419-.076.991-.153.991-.533 1.067-.305 0-.914.076-1.371.152-.457.153-.685.381-.837.305-.153 0-.229-.381-.153-1.524zm-10.507 7.314c.305.305.914.686 2.056 1.067 1.142.38 2.741.685 5.026 1.066 2.208.305 5.101.686 8.071.762 2.97.076 6.015 0 8.3-.229 2.284-.228 3.807-.533 4.873-.838 1.066-.304 1.599-.609 1.98-.838.381-.304.457-.533.533-.838.076-.304.076-.609-.229-.838-.304-.228-.837-.381-1.37-.838-.457-.381-.838-.99-1.295-1.676a64.812 64.812 0 00-1.066-1.828c-.228-.381-.304-.457-.685-.381-.305.076-.838.228-1.98.457s-2.893.457-5.254.533c-2.36.076-5.33 0-7.69-.152-2.285-.152-3.884-.305-4.95-.457-.99-.153-1.447-.305-1.675-.305-.228 0-.305.076-.685.533-.305.457-.914 1.295-1.447 1.829-.533.533-1.142.838-1.523 1.066-.457.229-.685.457-.914.61-.152.152-.304.305-.304.457-.076.305-.076.533.228.838z" fill="#C6B532"/><path fill-rule="evenodd" clip-rule="evenodd" d="M689.558 302.8c-.914-.077-1.142-.153-1.447-.153-.304-.076-.685-.152-.914-.152-.228-.076-.38-.076-.456-.076-.077 0-.153 0-.077-.076.076-.077.229-.305.686-.61.457-.305 1.294-.609 2.132-.914.837-.229 1.751-.381 2.893-.533a70.307 70.307 0 014.493-.153c1.751 0 3.731.153 5.33.305 1.599.152 2.893.381 3.96.609 1.066.229 1.903.534 2.208.762.38.229.304.305.152.381-.152.076-.381.153-.914.305s-1.446.305-2.36.457c-.914.152-1.828.229-3.122.305-1.295.076-3.046.076-4.569.076-1.523 0-2.817-.076-4.188-.152-1.37-.077-2.893-.229-3.807-.381z" fill="#141515"/><path fill-rule="evenodd" clip-rule="evenodd" d="M695.422 290.991c.228-.152.533-.229.838-.152.304 0 .609.076.913.381.305.304.533.838.762 1.447.228.686.304 1.448.457 2.514.076 1.067.152 2.362.152 3.581 0 1.219 0 2.362-.305 3.276-.304.914-.837 1.676-1.218 2.285-.381.534-.533.838-.533 1.143 0 .305.152.61.457.838.304.229.685.305 1.066.305s.685-.076.914-.305c.304-.228.533-.533.685-.685a2.01 2.01 0 01.305-.381c.076-.077.076-.077.304.152.229.152.533.533 1.066.762.457.228 1.066.381 1.447.305.381-.077.609-.305.685-.61.076-.305.076-.609 0-.838-.152-.229-.381-.457-.609-.686a2.856 2.856 0 01-.761-.914c-.229-.381-.381-.686-.381-1.371-.076-.686 0-1.6-.076-3.124 0-1.523-.076-3.504-.305-5.18-.228-1.6-.685-2.819-1.218-3.657-.457-.762-.99-1.143-1.523-1.295-.533-.153-1.066-.229-1.599-.077-.533.153-.99.458-1.295.839-.38.457-.609.99-.837 1.447-.229.533-.381.99-.457 1.219-.076.229-.076.229 0 .076.076-.152.228-.533.457-.762.076-.304.381-.457.609-.533z" fill="#F9E349"/><path fill-rule="evenodd" clip-rule="evenodd" d="M683.238 308.056c-.305-.152-.533-.304-.686-.38-.152-.077-.228-.229-.38-.305-.076-.076-.229-.153-.229-.305-.076-.076-.076-.229-.076-.229v.915c0 .99.076 2.971.152 7.161v13.866c0 3.276.077 3.504.153 3.657.076.152.228.38.837.761.61.457 1.752 1.143 3.884 1.676 2.056.534 5.101.991 8.3 1.219 3.198.229 6.472.305 9.365-.228 2.894-.533 5.407-1.524 6.701-2.057 1.295-.533 1.371-.61 1.371-.686l.076-3.504c0-3.505.076-10.438.152-14.78.076-4.343.076-6.019.076-6.857v-.838l-.076.153c-.076.152-.304.533-1.142.914-.914.381-2.513.838-4.264 1.066-1.751.229-3.807.381-6.472.381-2.742 0-6.168-.076-8.757-.228-2.513-.153-4.188-.381-5.33-.61-1.142-.228-1.828-.381-2.361-.533a2.195 2.195 0 01-1.294-.229z" fill="#FDE742"/><path fill-rule="evenodd" clip-rule="evenodd" d="M662.298 298.381c-.838.762-.914.838-.838.914.076.076.153.076 1.066.533.914.381 2.665 1.067 3.808 1.524 1.142.457 1.751.61 2.208.914.457.305.761.838 2.056 3.276a861.706 861.706 0 015.711 10.361c1.979 3.581 3.655 6.476 4.492 8.076.914 1.676 1.066 2.133 1.295 2.362.228.228.456.228.685.076.228-.152.533-.457.685-1.676.153-1.219.305-3.352.229-4.952-.076-1.676-.305-2.895-.457-3.505-.153-.609-.153-.609-1.295-2.057a206.445 206.445 0 01-5.254-7.009 231.745 231.745 0 01-4.492-6.247c-.838-1.219-.838-1.219-.99-2.361-.152-1.143-.381-3.429-.533-4.648-.152-1.219-.229-1.295-.229-1.295-.076-.076-.076-.076-.761.305s-1.98 1.066-3.427 2.133c-1.522 1.067-3.122 2.514-3.959 3.276z" fill="#C6B532"/><path fill-rule="evenodd" clip-rule="evenodd" d="M669.837 293.657c-.305.458-.761 1.067-1.599 1.829s-2.056 1.6-3.122 2.209c-.99.61-1.827.914-2.437 1.143-.609.229-.989.305-1.218.305-.228 0-.381 0-.304-.229.076-.228.228-.533.761-1.219.533-.685 1.447-1.6 2.36-2.361.914-.762 1.904-1.372 2.742-1.829.837-.457 1.599-.762 2.132-.914.533-.152.761-.152.914-.152.152 0 .228.076.152.304.076.229-.076.457-.381.914z" fill="#141515"/><path fill-rule="evenodd" clip-rule="evenodd" d="M709.889 303.942c.152.305.304.61.456.762.153.229.229.305.305.457.076.077.152.153.152.229 0 .076 0 .076.609 0 .533 0 1.676 0 3.122.152 1.447.153 3.275.534 4.645 1.219a6.14 6.14 0 012.741 2.362c.457.838.533 1.6.533 2.362s-.152 1.523-.456 2.438c-.381.914-.914 1.98-1.676 3.047a19.528 19.528 0 01-2.665 3.047 40.053 40.053 0 01-2.893 2.591c-.838.609-1.371.99-1.599 1.142l-.305.153v3.123l.609-.381c.609-.38 1.904-1.142 3.579-2.437 1.675-1.296 3.731-3.2 5.102-5.257 1.447-2.057 2.208-4.343 2.437-6.247.228-1.905 0-3.505-.838-4.876-.838-1.371-2.284-2.438-3.883-3.124-1.6-.685-3.427-1.066-5.026-1.219-1.599-.152-3.046-.228-3.96-.228h-1.446s0 .076.076.152.152.305.381.533z" fill="#C6B532"/></g></svg>