<svg width="788" height="396" fill="none" xmlns="http://www.w3.org/2000/svg"><g clip-path="url(#clip0_601_11963)"><path fill-rule="evenodd" clip-rule="evenodd" d="M153.696 329.248c.119 2.732.119 5.939.594 7.72.475 1.782 1.544 2.019 3.326 2.138 1.9.119 4.514 0 5.939.119 1.425.119 1.425.475 1.425 1.425 0 1.069 0 2.732-.356 3.564-.238.95-.713 1.069-1.663 1.425-.95.475-2.257 1.188-2.851 2.494-.593 1.307-.475 2.97.475 4.157.951 1.069 2.732 1.544 5.464 1.663 2.851.119 6.77 0 24.587-.119 17.816-.118 49.53-.356 72.216-1.069 22.686-.831 36.345-2.256 50.598-3.919 14.254-1.663 29.219-3.563 43.116-5.108 13.778-1.544 26.369-2.613 39.315-2.613 12.947 0 26.25 1.307 33.614 2.02 7.364.712 8.789 1.069 16.272 1.187 7.364.119 20.667.119 27.319.119 6.651 0 6.77 0 6.77.95v3.801c0 .95.119.95 7.008.832l27.437-.476 6.889-.118v1.544c0 1.544.119 4.513.238 5.939.118 1.544.237 1.544.475 1.662.237.119.475.238 13.184-.475 12.709-.712 38.008-2.138 63.545-4.751 25.537-2.613 51.312-6.176 66.753-7.839 15.44-1.663 20.667-1.306 23.992-1.069 3.326.238 4.751.356 17.104-.119 12.353-.475 35.514-1.663 47.154-2.138 11.64-.594 11.64-.594 10.571-1.781-1.069-1.188-3.088-3.564-5.226-5.583-2.138-2.138-4.395-3.919-10.333-18.173-5.939-14.253-15.56-40.977-33.852-49.886-18.291-8.908-45.135 0-63.07 5.583-17.935 5.582-26.962 7.839-36.82 16.035-9.74 8.195-20.311 22.211-26.844 30.882-6.533 8.789-9.146 12.233-22.211 14.253-13.065 2.019-36.583 2.732-44.541-5.464-7.958-8.077-.356-25.062-9.621-33.851-9.265-8.79-35.514-9.384-82.668-4.276-47.154 5.107-115.332 16.035-160.704 21.142-45.373 5.226-67.822 4.751-82.788 4.395-14.847-.357-22.092-.594-26.249.475s-5.345 3.207-5.701 5.582c-.119 2.613.118 4.989.118 7.721z" fill="#24231D"/><path d="M468.929 0H0v284.469h468.929V0z" fill="#4AAB3C"/><path fill-rule="evenodd" clip-rule="evenodd" d="M405.859 333.405c48.935-.119 58.913-.119 63.901-.119h4.989l-.119-1.187c-.119-1.188-.475-3.683-.95-9.859-.475-6.295-1.069-16.272-1.307-23.28-.356-6.889-.356-10.69-.356-12.59v-1.901H36.583v2.732c0 2.732-.119 8.077-.119 10.809v2.969c0 .238-.118.832-.118 3.207-.12 2.257-.12 6.414-.238 8.433v2.019h28.387s-.118 0-.118 3.207 0 9.621.119 12.828v3.682c0 .119.118.119 19.479.119 19.479 0 58.319 0 121.746-.238 63.188-.356 151.202-.712 200.138-.831z" fill="#36342B"/><path d="M473.086 294.921H16.154v18.886h456.932v-18.886z" fill="#4F4D3E"/><path d="M450.637 294.921H344.57v53.925h106.067v-53.925z" fill="#4F4D3E"/><path fill-rule="evenodd" clip-rule="evenodd" d="M159.992 332.573l-.594 1.663h-5.583l.713-2.138c.713-2.138 2.019-6.532 5.345-12.352 3.326-5.82 8.67-13.066 13.303-18.292 4.632-5.226 8.433-8.433 11.521-10.927 3.207-2.495 5.701-4.276 7.008-5.108 1.306-.831 1.306-.831 6.414-.831h44.303c3.801 0 3.801 0 5.464.95 1.782.95 5.226 2.732 9.502 5.464 4.276 2.85 9.265 6.532 13.897 11.64 4.632 4.988 8.789 11.402 11.046 16.747 2.257 5.464 2.494 9.978 2.613 12.234l.119 2.257h-5.107l-.119-1.425c-.119-1.426-.475-4.276-1.663-7.958-1.188-3.682-3.326-8.315-5.464-11.997-2.257-3.801-4.632-6.651-8.195-9.977-3.564-3.326-8.433-7.008-11.997-9.383-3.563-2.376-5.701-3.326-6.889-3.801-1.188-.475-1.425-.356-9.264-.475-7.721 0-23.043-.119-30.763-.238H198l-2.376 1.426c-2.375 1.425-7.126 4.276-11.758 8.314-4.633 4.038-9.027 9.146-12.472 13.659-3.326 4.514-5.701 8.433-7.483 12.115-2.019 3.564-3.326 6.889-3.919 8.433z" fill="#24231D"/><path d="M220.449 395.881c28.338 0 51.311-22.334 51.311-49.886 0-27.551-22.973-49.886-51.311-49.886-28.339 0-51.312 22.335-51.312 49.886 0 27.552 22.973 49.886 51.312 49.886z" fill="#24231D"/><path d="M220.449 378.777c18.63 0 33.732-14.677 33.732-32.782 0-18.105-15.102-32.782-33.732-32.782s-33.733 14.677-33.733 32.782c0 18.105 15.103 32.782 33.733 32.782z" fill="#403E32"/><path fill-rule="evenodd" clip-rule="evenodd" d="M220.449 368.8c11.996 0 21.736-9.858 21.736-21.973 0-12.116-9.74-21.974-21.736-21.974-11.997 0-21.736 9.858-21.736 21.974 0 12.115 9.739 21.973 21.736 21.973z" fill="#737160"/><path d="M679.163 395.881c28.338 0 51.311-22.334 51.311-49.886 0-27.551-22.973-49.886-51.311-49.886-28.339 0-51.312 22.335-51.312 49.886 0 27.552 22.973 49.886 51.312 49.886z" fill="#24231D"/><path d="M679.163 378.777c18.63 0 33.732-14.677 33.732-32.782 0-18.105-15.102-32.782-33.732-32.782s-33.733 14.677-33.733 32.782c0 18.105 15.103 32.782 33.733 32.782z" fill="#403E32"/><path fill-rule="evenodd" clip-rule="evenodd" d="M679.163 368.8c11.996 0 21.736-9.858 21.736-21.973 0-12.116-9.74-21.974-21.736-21.974-11.997 0-21.736 9.858-21.736 21.974 0 12.115 9.739 21.973 21.736 21.973z" fill="#737160"/><path d="M455.032 14.134H12.472v255.369h442.56V14.134z" fill="#4F4D3E"/><path fill-rule="evenodd" clip-rule="evenodd" d="M12.472 269.503V14.134L60.1 34.683V225.2l-47.63 44.303z" fill="#737160"/><path fill-rule="evenodd" clip-rule="evenodd" d="M12.472 269.503L60.1 225.2h350.39l44.541 44.303H12.472z" fill="#36342B"/><path fill-rule="evenodd" clip-rule="evenodd" d="M455.032 269.503V14.134l-44.541 20.549V225.2l44.541 44.303zm0-255.369H12.472L60.1 34.683h350.39l44.541-20.549z" fill="#737160"/><path fill-rule="evenodd" clip-rule="evenodd" d="M744.489 256.438c7.246-3.682 18.054-8.315 23.637-10.571 5.582-2.257 5.701-2.257 5.82-2.257.119 0 .119 0 1.306 3.326 1.188 3.325 3.564 9.858 5.345 16.628 1.782 6.771 2.97 13.66 3.682 17.223.594 3.444.713 3.444.951 3.682l.95.95c.237.238.237.356.356 1.782.238 1.425.594 4.276.713 8.314.119 4.157 0 9.502-.238 14.61-.237 5.107-.712 9.858-1.544 13.778-.831 3.8-1.9 6.77-3.919 9.502-2.02 2.732-4.752 5.345-8.79 7.364-4.038 2.019-9.146 3.444-11.759 4.157-2.613.713-2.613.713-4.276 1.188-1.663.475-4.988 1.544-8.195 2.019-3.207.475-6.533.356-8.196.237-1.663-.118-1.781-.118-1.781-.237v-1.069c0-.95.118-2.969 0-7.127-.119-4.157-.476-10.452-1.663-16.391-1.188-5.82-3.207-11.283-5.464-15.916-2.257-4.632-4.751-8.314-7.483-11.402-2.732-2.97-5.701-5.226-7.483-6.533-1.781-1.307-2.375-1.782-2.732-1.9-.356-.238-.356-.238.238-.713.475-.475 1.425-1.425 4.276-5.107 2.732-3.682 7.364-10.215 11.402-14.847 3.92-4.395 7.602-7.008 14.847-10.69z" fill="#36342B"/><path fill-rule="evenodd" clip-rule="evenodd" d="M749.003 223.062c-2.138-1.188-4.988-2.614-8.195-4.276-3.207-1.663-6.652-3.326-11.165-5.464-4.514-2.138-9.978-4.632-14.372-6.533l-9.621-4.276c-2.019-.95-3.088-1.306-3.92-1.663a27.148 27.148 0 00-2.257-.831 13.36 13.36 0 00-1.781-.475c-.594-.119-1.069-.238-1.544-.238-.475 0-.951-.118-1.188-.118-.238 0-.238-.001 9.74 5.582 9.977 5.582 29.931 16.866 40.621 23.755 10.69 6.889 12.115 9.265 14.61 11.046 2.494 1.782 6.176 2.97 8.433 4.039 2.375 1.069 3.325 1.9 4.394 2.138.951.237 1.901 0 2.376-.119.475-.119.475-.119.237-.95-.237-.832-.712-2.494-.95-3.207-.237-.832-.237-.832-.356-1.069-.119-.238-.356-.594-.594-.95-.238-.357-.475-.594-.95-1.069-.475-.357-1.069-.951-2.257-1.901-1.188-.95-2.969-2.138-4.989-3.563-2.019-1.425-4.394-2.851-6.295-4.038-1.9-1.188-3.444-2.138-4.988-2.97-1.426-.95-2.851-1.781-4.989-2.85z" fill="#fff"/><path fill-rule="evenodd" clip-rule="evenodd" d="M773.827 247.886c1.901-2.257 1.901-2.257 1.663-3.207-.237-.95-.831-2.851-1.306-4.038-.476-1.188-.951-1.782-3.445-3.801-2.494-1.901-7.008-5.226-13.54-9.027-6.533-3.92-14.966-8.315-23.874-12.709a1035.736 1035.736 0 00-24.468-11.165c-5.939-2.613-8.315-3.682-10.215-4.276-1.901-.594-3.207-.594-3.92-.594-.712 0-.712 0-3.444-1.782-2.732-1.781-8.077-5.226-14.61-10.333-6.532-5.108-14.134-11.997-25.893-21.974-11.64-10.096-27.437-23.399-38.483-32.663-11.047-9.265-17.579-14.61-23.518-18.648-5.939-3.92-11.521-6.414-20.43-7.958-8.908-1.544-21.261-2.138-35.633-2.138-14.371 0-30.881.594-39.908 1.069-9.027.475-10.453.95-11.165 1.663-.713.712-.713 1.781-.951 16.866-.237 15.084-.712 44.185-.475 83.143.238 38.959 1.069 87.776 1.544 112.6.476 24.824.476 25.775.713 26.606.356.831.95 1.544 1.663 2.019.713.475 1.544.713 2.138.832.594.118.831.118 10.215.237 9.383.119 27.556.475 50.123.832 22.568.356 49.292.831 62.833 1.069 13.422.237 13.54.237 13.659.237.119 0 .238 0 .357-1.069.118-1.069.356-3.326 1.187-8.671.832-5.344 2.613-13.778 4.751-20.785 2.138-7.008 4.514-12.472 7.721-17.342 3.207-4.87 7.126-9.145 11.284-12.352 4.157-3.326 8.551-5.702 13.421-7.483 4.87-1.782 10.096-2.851 15.916-3.207 5.82-.357 12.234.237 17.46 1.187 5.226.951 9.265 2.376 12.591 3.92 3.325 1.544 5.938 3.207 7.245 4.038l1.306.832 5.227-3.207c5.226-3.207 15.678-9.621 23.636-14.728 7.958-5.108 13.422-8.909 18.173-13.066 4.513-4.038 8.433-8.67 10.452-10.927z" fill="#4AAB3C"/><path fill-rule="evenodd" clip-rule="evenodd" d="M700.661 226.981c4.989 3.326 13.659 10.096 18.173 14.491 4.513 4.395 4.87 6.295 4.632 7.602-.237 1.306-1.069 2.019-2.969 2.138-1.901.118-4.989-.238-22.687-4.158-17.697-3.919-50.004-11.521-80.767-18.647-30.882-7.127-60.22-13.66-75.423-17.579-15.204-3.801-16.154-4.87-16.985-6.295-.832-1.426-1.663-3.089-1.544-4.514.118-1.425 1.187-2.375 1.781-2.969.594-.475.594-.475 25.537 2.732 25.062 3.325 75.067 9.858 101.791 13.54 26.725 3.682 30.17 4.632 33.139 5.82 2.969 1.188 5.345 2.732 7.245 3.563 1.901.832 3.089.832 8.077 4.276z" fill="#509663"/><path fill-rule="evenodd" clip-rule="evenodd" d="M543.401 201.682c9.502 1.663 25.062 4.038 44.898 7.126 19.835 3.089 43.947 7.008 61.407 9.978 17.46 2.85 28.269 4.751 34.683 5.82 6.414 1.069 8.433 1.187 9.739 1.187 1.307 0 1.782-.118 2.257-.356.356-.238.594-.594.713-1.069s0-1.069-.119-1.663c-.119-.594-.475-1.188-2.969-3.563-2.613-2.376-7.483-6.652-20.311-18.054-12.828-11.403-33.614-29.932-48.104-42.641-14.491-12.709-22.687-19.598-28.032-23.755-5.463-4.157-8.195-5.464-11.402-6.889-3.326-1.307-7.127-2.732-13.541-3.563-6.295-.951-15.203-1.426-23.042-1.782-7.84-.356-14.847-.475-18.767-.475s-4.87 0-6.176.356c-1.307.357-2.851 1.069-4.157 2.376-1.307 1.306-2.257 3.088-2.732 4.988-.475 1.782-.475 3.682.118 13.303.594 9.621 2.02 27.081 2.614 36.227.712 9.146.712 10.096 1.069 11.284.356 1.188.95 2.613 2.019 4.038 1.069 1.426 2.494 2.613 4.87 3.682 2.138.95 5.463 1.901 14.965 3.445z" fill="#403E32"/><path fill-rule="evenodd" clip-rule="evenodd" d="M533.424 196.812c-3.919-.95-5.345-1.782-6.414-2.732a8.965 8.965 0 01-2.257-3.088c-.475-1.069-.831-2.138-1.662-11.046-.832-8.909-2.257-25.775-2.97-35.277-.712-9.502-.831-11.759-.594-13.54.238-1.663.713-2.732 1.663-3.801.95-1.069 2.138-2.019 3.92-2.494 1.781-.476 3.919-.357 6.77-.238 2.969.119 6.533.238 12.115.475 5.583.238 13.066.475 19.123 1.069 6.177.475 11.046 1.188 14.372 1.9 3.326.713 5.226 1.545 6.176 1.901.951.356.951.356 1.069 2.494.119 2.138.476 6.414 1.426 18.529s2.613 31.832 3.563 42.285c.832 10.333.95 11.283.95 11.996 0 .713-.237 1.188-2.375.95-2.138-.237-6.295-1.187-13.066-2.256-6.77-1.069-16.034-2.376-23.874-3.564-7.72-1.425-14.134-2.613-17.935-3.563zm58.557-47.748c.831 10.809 2.494 31.357 3.444 42.285.832 10.927.951 12.115 1.069 13.065.119.95.475 1.663.832 2.138.356.594.831 1.069 1.781 1.425.832.357 2.138.713 7.602 1.544 5.464.832 15.203 2.376 20.073 3.089 4.87.712 4.87.712 5.108-3.089.237-3.8.594-11.402.712-18.41.119-6.889-.118-13.184-.475-17.223-.356-4.038-.831-5.82-2.019-7.601-1.188-1.782-3.326-3.563-8.552-8.077-5.226-4.513-13.659-11.996-18.529-16.154-4.87-4.157-5.939-5.107-7.008-5.82-.95-.712-1.9-1.306-2.613-1.544-.713-.237-1.306-.237-1.663 0-.356.238-.594.713-.594 1.544 0 .832 0 2.02.832 12.828z" fill="#E6E6E6"/><path fill-rule="evenodd" clip-rule="evenodd" d="M630.464 180.896c-.475 4.038-1.069 11.403-1.544 17.341a358.34 358.34 0 00-.831 13.541c-.119 2.85 0 3.919.475 4.87.356.831 1.069 1.544 2.732 2.138 1.663.594 4.276 1.069 6.77 1.069 2.494 0 4.87-.476 6.651-1.426 1.782-1.069 3.207-2.613 4.039-5.82.95-3.207 1.425-7.958 1.781-13.897.357-6.057.713-13.303.713-17.341s-.237-4.632-.95-5.345c-.713-.594-2.019-1.306-4.039-1.781-2.137-.594-5.107-1.069-7.364-1.188-2.256-.238-3.682-.119-4.869.356-1.188.356-1.901 1.069-2.376 1.901-.475.593-.831 1.544-1.188 5.582z" fill="#24231D"/><path fill-rule="evenodd" clip-rule="evenodd" d="M629.395 193.843c.476-5.583.951-10.453 1.188-13.184.238-2.732.356-3.326.475-3.682.119-.476.119-.713.238-.951.119-.237.237-.475.475-.831.237-.238.475-.594.831-.95.238-.238.475-.475.832-.594.356-.119.594-.357.95-.475.356-.119.713-.238 1.069-.238s.713-.119 1.188-.119h1.781c.713 0 1.544.119 2.495.238.95.119 2.138.237 3.207.475.95.238 1.781.356 2.494.594.713.237 1.306.356 2.019.713a7.52 7.52 0 011.663.95l.713.712c.118.119.118.119-1.188-.118-1.307-.357-4.038-.951-6.652-1.188-2.613-.356-5.226-.356-6.651-.119-1.425.119-1.663.356-2.138 1.425-.475 1.069-1.069 2.97-1.663 8.315-.594 5.226-1.188 13.778-1.425 19.717-.238 5.82-.238 9.027 0 11.046.237 2.019.712 2.85 1.425 3.326.713.475 1.544.712 1.901.712.475.119.475.119-.119 0s-1.663-.356-2.376-.594c-.712-.237-1.069-.356-1.306-.475-.357-.119-.594-.356-.832-.475-.237-.237-.475-.356-.594-.594-.237-.237-.356-.475-.475-.712-.118-.238-.237-.476-.237-.832-.119-.356-.119-.831-.119-1.544 0-.594 0-1.425.119-4.989-.119-3.8.237-9.977.712-15.559zM511.807 226.15c.475 1.425 1.544 3.563 2.494 4.87.95 1.188 2.019 1.544 6.177 1.663 4.157.119 11.402.119 15.203.119 3.682-.119 3.92-.238 5.107-1.426 1.188-1.188 3.326-3.326 4.395-4.751 1.069-1.425 1.188-2.019 1.069-2.732-.119-.712-.356-1.544-1.544-2.969-1.188-1.425-3.326-3.445-4.395-4.514-1.188-1.069-1.425-1.069-4.87-1.306-3.444-.119-10.096-.356-13.896-.356-3.683 0-4.514.118-5.345.593a8.687 8.687 0 00-2.732 2.495c-.832 1.187-1.426 2.732-1.782 3.682-.356.95-.356 1.425-.356 2.019 0 .594 0 1.188.475 2.613z" fill="#4F4D3E"/><path fill-rule="evenodd" clip-rule="evenodd" d="M521.784 226.981c.594.713 1.663 1.901 2.138 2.613.594.713.713.713 2.613.832 2.019.119 5.82.356 7.721.356 1.9 0 1.9 0 2.731-.831.832-.832 2.376-2.376 3.089-3.207.831-.832.831-.832.712-.95h-3.682c-3.326 0-9.621 0-12.828-.119-3.207 0-3.325 0-3.325.119.118.237.237.475.831 1.187zm10.452-5.107h-11.758s-.119-.119.712-.95c.832-.832 2.495-2.495 3.326-3.207.831-.832.831-.832 2.613-.832h6.889c1.782 0 1.9 0 2.138.238.238.119.713.356 1.425 1.069.832.712 1.901 1.9 2.495 2.613.594.594.594.713.594.831v.238s-.119.119-1.307.119c-1.307-.119-3.801-.119-7.127-.119z" fill="#24231D"/><path fill-rule="evenodd" clip-rule="evenodd" d="M660.277 245.986c0 1.187 0 2.85.119 3.8.119.951.119 1.069.594 1.188s1.188.356 3.563.475c2.376 0 6.295 0 8.433-.119 2.138-.118 2.613-.118 2.851-.356.356-.237.594-.475.713-1.782.118-1.187.118-3.325-.119-4.513-.119-1.188-.357-1.425-.713-1.544s-.594-.238-2.969-.356c-2.376-.119-6.652-.119-9.027 0-2.376 0-2.613.118-2.851.237-.237.119-.356.356-.475.832 0 .356-.119 1.069-.119 2.138z" fill="#403E32"/><path fill-rule="evenodd" clip-rule="evenodd" d="M661.465 245.273c0 1.069 0 2.969.119 3.919.118.951.237 1.069.475 1.188.356.119.831.238 2.019.238 1.307.119 3.326.119 5.345 0 1.9 0 3.801-.119 4.751-.238.95-.119 1.069-.119 1.188-.237.119-.119.237-.238.237-.951 0-.712 0-1.9-.118-2.85 0-.95-.119-1.782-.119-2.257-.119-.475-.238-.594-1.901-.594h-11.165c-.712 0-.712.119-.831.238.119.356 0 .475 0 1.544z" fill="#E6E6E6"/><path fill-rule="evenodd" clip-rule="evenodd" d="M627.614 293.853c4.87-4.633 11.402-10.096 17.816-14.016s12.59-6.414 20.192-7.839c7.483-1.426 16.391-1.663 23.874-1.188 7.483.475 13.659 1.663 18.886 3.444 5.226 1.782 9.502 4.158 12.234 5.939 2.731 1.782 3.8 2.97 4.394 3.564.594.593.594.593 1.901-.238 1.306-.831 3.919-2.376 6.295-3.92 2.375-1.544 4.751-2.969 5.82-3.682l1.188-.712-2.732-2.138c-2.732-2.138-8.077-6.414-16.629-10.334-8.552-3.919-20.429-7.72-32.07-9.264-11.64-1.545-23.161-.951-33.613 2.019-10.453 2.969-19.598 8.433-26.131 14.015-6.533 5.583-10.334 11.284-12.59 16.273-2.257 5.107-3.088 9.621-3.326 12.828-.238 3.207.238 5.226.831 6.295.594.95 1.545.95 3.564-.832 1.9-1.9 5.226-5.582 10.096-10.214z" fill="#5DC94C"/><path fill-rule="evenodd" clip-rule="evenodd" d="M748.884 237.077c2.376 5.108 6.652 14.491 9.146 19.598 2.494 5.108 3.088 5.939 3.801 6.533.594.594 1.306.713 4.157 2.019 2.851 1.307 7.958 3.563 10.927 4.87 2.97 1.307 3.682 1.663 4.158 1.782.356 0 .475-.357-.951-4.989-1.425-4.751-4.276-13.778-6.532-19.242-2.257-5.463-3.92-7.364-5.226-8.67-1.188-1.307-2.02-1.901-4.989-3.564-2.969-1.544-8.077-4.157-11.284-5.345-3.207-1.187-4.395-1.069-4.988-.831-.713.238-.832.713-.713 1.307-.119.712.119 1.425 2.494 6.532z" fill="#24231D"/><path fill-rule="evenodd" clip-rule="evenodd" d="M750.428 236.484c2.02 4.632 6.058 13.659 8.434 18.647 2.375 4.989 3.088 5.939 3.8 6.652.713.713 1.307 1.069 4.039 2.257 2.732 1.187 7.483 3.207 9.858 4.038 2.376.831 2.495.594 1.901-1.663-.594-2.138-1.782-6.295-3.564-10.927-1.781-4.632-4.157-9.74-5.582-12.591-1.544-2.85-2.138-3.444-4.751-4.869a381.382 381.382 0 00-9.977-5.226c-2.851-1.426-4.039-1.782-4.751-1.901-.713-.119-.951 0-1.188.238-.119.356-.238.712 1.781 5.345z" fill="#E6E6E6"/><path fill-rule="evenodd" clip-rule="evenodd" d="M777.866 264.277c.475 1.663.712 2.257.712 2.732.119.475.119.712.119.95 0 .237-.119.356-.238.356-.237.119-.475 0-.831 0-.356-.119-.831-.237-1.425-.475-.594-.237-1.426-.475-2.376-.95-.95-.356-2.138-.832-2.732-1.069-.594-.238-.594-.238-2.138-3.563-1.544-3.326-4.632-9.859-6.77-14.491s-3.207-7.245-3.682-8.789c-.594-1.426-.594-1.782-.356-1.901.237-.119.712 0 2.494.832 1.782.831 4.989 2.494 6.651 3.325 1.663.832 1.663.832 2.138 1.901.476 1.069 1.545 3.088 2.613 5.582 1.188 2.613 2.376 5.583 3.445 8.433a98.996 98.996 0 012.376 7.127z" fill="#E8E4BE"/><path fill-rule="evenodd" clip-rule="evenodd" d="M722.516 286.013c1.188-.713 2.257-1.425 2.85-1.782.594-.356.594-.356 2.614 1.901 2.019 2.257 6.176 6.77 9.502 11.877 3.325 5.108 5.938 10.809 7.839 17.223 1.9 6.414 3.088 13.659 3.682 17.46.594 3.801.713 4.039 3.444 4.157 2.732 0 8.077-.118 12.71-.475 4.632-.356 8.67-.95 11.283-1.425 2.613-.475 3.801-1.069 4.395-1.307.594-.237.594-.237.238.238-.357.475-1.188 1.425-2.02 2.257a25.95 25.95 0 01-2.732 2.375c-.95.713-1.9 1.426-3.444 2.257-1.544.713-3.801 1.663-6.058 2.375-2.256.832-4.632 1.545-6.057 1.901-1.426.475-2.019.594-2.376.713-.356.118-.594.237-1.544.475-.95.237-2.613.712-4.038 1.187-1.544.357-2.851.713-4.276.832-1.425.237-2.732.356-3.801.356h-2.494c-.832 0-1.782-.119-2.495-.119-.593 0-.95-.118-1.069-.118-.118 0-.118 0-.118-.951v-5.107c0-2.257-.119-4.87-.357-7.008-.118-2.138-.237-3.682-.594-5.82-.356-2.138-.712-4.751-1.306-7.008-.475-2.256-1.069-4.157-1.663-6.057-.594-1.901-1.425-3.801-2.257-5.701-.831-1.901-1.9-3.92-2.969-5.939s-2.257-3.92-3.92-5.939c-1.663-2.019-3.801-4.038-5.345-5.583-1.663-1.425-2.732-2.375-3.325-2.731l-.594-.476.475-.237c.475-.238 1.306-.831 2.375-1.425 1.069-.832 2.257-1.544 3.445-2.376z" fill="#403E32"/><path fill-rule="evenodd" clip-rule="evenodd" d="M755.536 329.485c4.157.119 13.065-.356 18.173-.831 5.107-.476 6.295-.951 7.245-2.376 1.069-1.425 1.9-3.801 2.613-6.651.713-2.732 1.188-5.939 1.425-8.196.238-2.257.238-3.682 0-4.632-.237-.95-.594-1.426-1.544-1.901-.95-.475-2.613-1.069-6.176-1.544-3.563-.475-9.146-.95-13.303-1.188-4.157-.237-6.889-.118-8.314 0-1.426.238-1.545.476-1.307.832.237.356.475.594 1.9.831 1.426.238 3.801.475 7.365.713 3.563.238 8.314.475 11.164.713 2.851.237 3.683.356 4.158.475.475.119.475.356.118 1.544-.356 1.188-1.187 3.563-1.662 6.533-.594 2.969-.832 6.77-.951 8.789-.118 2.019-.118 2.376-.118 2.494v.119l-3.089.238c-3.088.237-9.264.712-13.065 1.069-3.801.475-5.464.831-6.533 1.306-1.425.95-2.138 1.544 1.901 1.663z" fill="#24231D"/><path fill-rule="evenodd" clip-rule="evenodd" d="M778.697 311.669c.356-1.069.713-1.663.95-2.02.238-.356.238-.356.238.594 0 .951 0 2.613-.238 4.87-.237 2.138-.712 4.632-1.069 6.058-.356 1.425-.712 1.663-.831 1.544-.238-.119-.238-.594-.238-1.782 0-1.306.238-3.326.357-5.107.118-1.663.475-3.088.831-4.157z" fill="#E8E4BE"/><path fill-rule="evenodd" clip-rule="evenodd" d="M510.263 323.19c21.261.357 63.307.95 84.45 1.307 21.142.356 21.617.475 21.854.475.238 0 .119 0 .119-.119s.119-.475-2.138-1.544c-2.138-1.069-6.651-2.851-8.908-3.801-2.257-.95-2.257-.95-21.023-1.306-18.767-.357-56.3-1.069-75.542-1.426-19.242-.356-20.311-.356-20.786-.356-.594 0-.713 0-.831.119-.119.118-.119.475-.119 1.544v3.563c0 .832.119.95.475.95.475.357 1.188.357 22.449.594zm-21.261-39.077c.237.95.356.95 12.828 1.306 12.352.357 36.939 1.069 54.28 1.426 17.342.356 27.557.356 33.495.237 5.939-.119 7.721-.475 8.671-.713.95-.356.95-.593.119-1.425-.832-.831-2.376-2.019-3.682-3.207-1.307-1.069-2.495-2.138-2.97-2.613-.594-.475-.594-.475-2.613-.594s-6.295-.356-23.161-.594c-16.866-.356-46.56-.712-61.526-.831-15.085-.119-15.441 0-15.679.475-.237.475-.237 1.188-.118 2.494-.119 1.426.118 3.207.356 4.039z" fill="#5DC94C"/><path fill-rule="evenodd" clip-rule="evenodd" d="M486.151 238.621c.238.357.594.357 9.027.713s24.824.95 37.771 2.732c12.947 1.782 22.211 4.632 30.288 8.433 8.077 3.801 14.966 8.552 19.598 12.947 4.751 4.394 7.364 8.433 9.027 10.927 1.663 2.494 2.376 3.563 3.207 4.395a11.593 11.593 0 002.494 1.9c.832.475 1.426.832 1.901.475.356-.356.594-1.544-.357-4.513-.95-2.97-2.969-7.721-8.552-13.422-5.582-5.701-14.728-12.353-23.755-16.866-9.146-4.514-18.173-6.77-28.981-8.314-10.809-1.426-23.518-2.138-32.307-2.495-8.909-.356-14.016-.475-16.629-.475-2.613 0-2.732.119-2.732.356 0 .357-.119.832-.119 1.426-.118.712-.118 1.425.119 1.781z" fill="#3D8C31"/><path fill-rule="evenodd" clip-rule="evenodd" d="M531.049 113.906c9.739.475 23.636 1.307 32.544 2.019 8.909.713 12.828 1.545 16.629 2.732 3.801 1.188 7.364 2.851 10.69 4.751 3.207 1.901 6.057 3.92 13.303 9.978 7.245 5.938 18.766 15.916 26.012 22.211 7.245 6.176 10.096 8.789 11.64 10.214 1.544 1.426 1.663 1.663 1.782 1.901.118.237-.001.594-.119.713-.238.118-.594 0-1.069-.357-.475-.237-.832-.712-8.196-7.126-7.245-6.414-21.38-18.767-30.644-26.369-9.146-7.601-13.541-10.571-18.292-12.828-4.869-2.137-10.214-3.563-20.667-4.632-10.452-1.069-26.13-1.663-36.345-2.019-10.215-.356-14.966-.475-17.579-.356-2.613 0-3.088.237-3.563.594-.476.356-.951.831-1.069 2.494-.238 1.663-.119 4.276-.238 23.755 0 19.479-.119 55.706 0 74.948.119 19.123.356 21.261.594 22.924.237 1.663.356 2.85.95 4.87.594 1.9 1.544 4.632 2.613 7.126.95 2.613 2.019 5.108 2.613 7.602.594 2.494.832 4.988 1.069 7.126.119 2.257.238 4.158.713 13.541s1.425 26.249 1.9 36.227c.475 9.977.357 12.946.594 15.441.119 2.494.475 4.394 1.188 5.701.713 1.306 1.782 2.138 3.563 2.732 1.782.594 4.395.831 11.997.95 7.72.119 20.548.119 34.564.356 14.015.119 29.456.475 37.77.713 8.315.237 9.621.237 10.571.119.951-.119 1.426-.238 1.663-.475.238-.238.238-.594.476-2.376.237-1.782.593-4.989 1.662-9.977 1.069-4.989 2.97-11.878 5.345-17.817 2.376-5.938 5.226-10.927 6.889-13.421 1.663-2.495 2.02-2.495 2.257-2.376.238.119.356.356-.238 1.188-.593.95-1.781 2.494-3.444 5.582-1.782 3.207-4.038 7.958-5.701 12.947-1.782 4.989-2.97 10.096-3.801 14.016-.832 3.919-1.188 6.532-1.425 8.551-.357 2.02-.594 3.564-1.069 4.276-.476.832-1.188.832-15.56.713-14.253-.119-42.166-.594-57.963-.831-15.797-.238-19.36-.357-21.736-.713-2.375-.238-3.563-.713-4.513-1.425-1.069-.832-2.02-1.901-2.614-3.326-.593-1.425-.593-2.969-.712-5.701-.119-2.732-.238-6.652-.713-17.698-.594-11.046-1.544-29.1-2.138-38.84-.594-9.739-.712-10.927-1.069-12.709a49.702 49.702 0 00-1.9-7.008c-.95-3.088-2.495-7.007-3.326-9.858-.831-2.732-1.188-4.276-1.306-7.127-.119-2.85-.238-7.007-.238-21.973s-.119-40.622-.119-58.557c0-17.935.119-28.031.119-33.495 0-5.464.119-6.414.238-7.126a3.14 3.14 0 01.831-1.663c.356-.357.713-.594 1.425-.832.713-.237 1.782-.475 5.108-.475 3.325 0 8.314 0 18.054.475zm121.508 118.301c0 9.146.237 25.893.356 34.327.119 8.433.238 8.433.356 8.433.119 0 .475 0 .594-.119s.238-.356.119-9.621c0-9.264-.119-27.556-.238-36.821-.118-9.264-.118-9.502-.237-9.62-.119-.119-.475-.119-.594.118-.119.238-.238.594-.238 1.544-.118 1.069-.237 2.613-.118 11.759zm13.184-54.518c3.919 3.326 7.958 6.77 11.996 9.74 3.92 3.088 7.839 5.82 10.69 7.72 2.851 1.9 4.751 2.851 5.583 3.326.95.475.831.475.118 1.069-.712.594-2.138 1.663-2.969 2.257-.831.593-1.188.712-1.544.831-.356.119-.594.119-17.104-13.659-16.51-13.66-49.292-41.097-65.802-54.994-16.51-13.897-16.866-14.253-16.985-14.609-.119-.357-.119-.594.475-1.069s1.663-1.188 2.257-1.425c.594-.357.594-.357 6.295 4.394 5.701 4.633 17.104 14.016 27.319 22.568 10.214 8.552 19.123 16.153 25.536 21.617 6.296 5.582 10.096 8.908 14.135 12.234z" fill="#403E32"/><path fill-rule="evenodd" clip-rule="evenodd" d="M595.425 119.132c-.594.119-1.187.594-1.544.832-.356.237-.237.237-.237.356.118.119.237.356 1.425 1.425 1.188 1.188 3.563 3.207 18.648 15.798 15.084 12.59 42.759 35.87 57.25 48.104 14.491 12.234 15.916 13.303 16.629 13.897.831.594.95.594 1.544.119.475-.475 1.425-1.426 1.781-1.901.476-.475.476-.475-1.425-1.781-1.9-1.307-5.701-4.039-11.402-8.552-5.82-4.514-13.541-10.928-21.261-17.46-7.721-6.533-15.441-13.066-23.874-20.192-8.433-7.127-17.461-14.729-23.043-19.48-5.582-4.632-7.602-6.414-9.265-7.72-1.662-1.307-2.731-2.257-3.563-2.851-.712-.475-1.069-.712-1.663-.594z" fill="#E6E6E6"/><path d="M332.217 83.5h-199.9v124.715h199.9V83.499z" fill="#CCC"/><path d="M349.559 67.346H149.658v140.869h199.901V67.346z" fill="#B3B3B3"/><path fill-rule="evenodd" clip-rule="evenodd" d="M357.873 223.181l21.142.356-1.307-32.545-21.142.119 1.307 32.07zm35.87-1.069l21.024-.594-1.307-31.476-21.023.713 1.306 31.357z" fill="#999"/><path fill-rule="evenodd" clip-rule="evenodd" d="M416.548 185.41c-3.207 2.494-5.701 4.513-7.483 6.057-22.567-2.019-48.223-2.85-76.967-2.613 2.732-2.138 7.602-3.919 14.729-5.463 41.571.237 64.733.831 69.721 2.019z" fill="#DBA758"/><path fill-rule="evenodd" clip-rule="evenodd" d="M416.192 237.909c-4.751 5.582-7.127 8.314-7.127 8.314a1052.16 1052.16 0 010-54.756 92.531 92.531 0 017.483-6.057l-.356 52.499z" fill="#DBA758"/><path fill-rule="evenodd" clip-rule="evenodd" d="M409.065 191.467c-.594 15.56-.594 33.852 0 54.756-51.905-2.613-77.798-3.919-77.798-3.919-.119-27.438.237-45.254.95-53.45 25.656-.356 51.311.475 76.848 2.613zm-65.802-5.463c-.356 0-.594-.238-.594-.476 0-.356.238-.593.476-.593 11.164-.238 22.329-.238 33.732.118 11.402.357 22.805 1.069 34.445 2.02.356 0 .475.237.475.593 0 .357-.237.476-.594.476-11.64-.951-23.042-1.663-34.445-2.02-11.165-.356-22.448-.356-33.495-.118z" fill="#F7CE66"/><path fill-rule="evenodd" clip-rule="evenodd" d="M364.168 189.092c3.92.119 7.602.237 11.046.356.475-.356-.356 23.161-.356 32.545 0 0-10.928-.356-11.521-.356.118 0 .356-10.928.831-32.545z" fill="#F7F7F7"/><path fill-rule="evenodd" clip-rule="evenodd" d="M375.214 189.448l-11.046-.356c6.77-3.563 10.096-5.464 10.096-5.464 4.87.119 7.245.119 7.245.119a673.291 673.291 0 01-6.295 5.701z" fill="#E0E0E0"/><path d="M382.307 196.834l-1.393 13.11 19.488 2.071 1.393-13.11-19.488-2.071z" fill="#F7F7F7"/><path fill-rule="evenodd" clip-rule="evenodd" d="M60.338 252.162l21.38-7.364.356-69.009-22.21 3.563.474 72.81z" fill="#DBA758"/><path fill-rule="evenodd" clip-rule="evenodd" d="M60.338 252.162l-.475-72.81-24.111-1.425.95 71.978 23.636 2.257z" fill="#F7CE66"/><path fill-rule="evenodd" clip-rule="evenodd" d="M35.752 177.808l24.111 2.019 22.211-4.157-23.042-.712-23.28 2.85z" fill="#DBA758"/><path fill-rule="evenodd" clip-rule="evenodd" d="M45.373 178.64l7.839.594-.475 46.322-7.602-.475.238-46.441zm7.839.593l-7.84-.594 20.192-3.563 2.851.119-.119 1.307-15.084 2.731z" fill="#F7F7F7"/><path d="M334.118 213.797h-177.69v18.291h177.69v-18.291z" fill="#F7CE66"/><path fill-rule="evenodd" clip-rule="evenodd" d="M334.118 213.797h-177.69l12.472-5.464h157.26l7.958 5.464z" fill="#C2944E"/><path d="M337.919 199.663h-177.69v12.115h177.69v-12.115z" fill="#DBA758"/><path fill-rule="evenodd" clip-rule="evenodd" d="M337.919 199.663h-177.69l12.472-3.683h157.26l7.958 3.683z" fill="#C2944E"/><path d="M332.336 188.854H154.647v12.115h177.689v-12.115z" fill="#F7CE66"/><path fill-rule="evenodd" clip-rule="evenodd" d="M332.336 188.854H154.647l7.958-3.801 161.773.238 7.958 3.563z" fill="#DBA758"/><path fill-rule="evenodd" clip-rule="evenodd" d="M57.488 62.714c2.97 10.69 8.433 30.407 13.778 49.648 5.463 19.242 10.808 37.89 15.56 53.45 4.632 15.559 8.551 28.15 11.64 37.533a2523.41 2523.41 0 006.295 19.123c1.069 3.207 1.069 3.207 2.019 3.207h4.87c.119 0 .118 0-8.671-29.932-8.79-29.931-26.487-89.676-35.276-119.489l-8.909-29.931-.831.356c-.832.356-2.494 1.07-3.326 1.544-.831.357-.831.475-.95.594 0 .119-.119.119.119.95.237.713.712 2.257 3.682 12.947z" fill="#C2944E"/><path fill-rule="evenodd" clip-rule="evenodd" d="M94.07 165.574c-4.156-14.134-9.026-30.525-12.47-42.284-3.445-11.878-5.702-19.123-8.909-30.288-3.207-11.046-7.602-25.893-10.096-34.326-2.494-8.434-3.088-10.453-3.326-11.403l-.475-.95.357.237c.356.238 1.068.832 1.425 1.07.356.237.356.237.831 1.9.475 1.663 1.544 4.988 4.276 14.49a32255.03 32255.03 0 0011.64 40.384c4.395 15.204 8.67 29.932 12.59 43.235s7.484 25.062 11.284 37.533c3.801 12.59 7.958 25.893 9.978 32.545l2.019 6.651-.238.238c-.237.237-.831.594-1.069.831l-.237.238-.238-.95c-.237-.951-.713-2.732-1.9-6.414a1752.79 1752.79 0 00-5.345-18.054c-2.495-8.79-5.94-20.549-10.096-34.683zM63.664 71.741c.356 0 .713 0 1.07.475.355.357.712 1.188.712 1.782 0 .594-.238 1.069-.357 1.306-.118.238-.118.238-3.088 0l-11.877-.95c-2.97-.237-2.97-.237-3.089-.712-.118-.475-.237-1.426-.475-2.138-.237-.713-.356-1.188-.475-1.426-.118-.237 0-.356 2.732-.118 2.732.237 8.196.95 11.165 1.306 2.85.356 3.326.475 3.682.475zm6.058 38.365c-2.613.831-7.364 2.257-9.74 2.969-2.376.713-2.376.713-2.138 1.307s.713 1.9 1.07 2.494c.355.594.474.713.593.713s.238 0 2.732-.832c2.494-.831 7.483-2.613 10.096-3.563 2.613-.95 2.732-1.069 2.85-1.307.12-.237.357-.475.357-.831s0-.95-.238-1.188c-.119-.356-.356-.475-.713-.594-.356-.118-.83-.237-1.306-.118-.475-.119-.95.118-3.563.95zm13.54 42.521c-2.257 2.02-6.532 6.058-8.552 7.958-2.019 1.901-1.781 1.901-1.425 2.257.356.357 1.069.95 1.425 1.544.357.475.594.832.713 1.069.119.119.119.119 2.138-1.544 2.02-1.663 5.82-5.107 7.958-7.126 2.138-2.02 2.375-2.613 2.613-3.207.237-.594.237-1.069.119-1.663-.119-.594-.357-1.069-.713-1.425-.356-.238-.713-.238-1.188-.238-.475.119-.831.356-3.088 2.375zm11.759 40.622c-1.663 2.851-4.751 8.077-6.295 10.809l-1.544 2.613.594.475c.475.475 1.425 1.425 1.9 2.019.475.475.475.475.356.475l1.544-2.613a707.794 707.794 0 006.296-10.927c1.662-2.97 1.781-3.564 1.781-4.158 0-.593-.119-1.425-.475-1.781-.237-.475-.594-.594-.95-.594s-.713.119-.95.356c-.357.119-.594.475-2.257 3.326z" fill="#DBA758"/><path fill-rule="evenodd" clip-rule="evenodd" d="M36.464 60.814c4.751 16.034 13.778 46.916 23.28 77.085 9.503 30.288 19.242 59.982 25.3 78.63 6.057 18.648 8.314 26.131 9.383 29.813 1.188 3.682 1.188 3.682 1.307 3.801.237 0 .594.119 1.663.237 1.187.119 2.969.357 4.038.476.95.118 1.069.118 1.069.118l-1.307-4.751c-1.306-4.751-4.038-14.134-10.096-33.495-5.938-19.36-15.203-48.579-23.517-75.304a7687.665 7687.665 0 01-20.786-67.227c-4.87-16.035-7.127-23.874-8.433-27.794-1.188-4.038-1.307-4.276-1.426-4.395-.118-.118-.118-.118-.712 0-.594.12-1.544.238-2.494.713-.95.475-1.782 1.426-2.138 1.9-.476.476-.476.594-.476.713s0 .475.238 1.188c.119.831.356 2.138 5.107 18.292z" fill="#C2944E"/><path fill-rule="evenodd" clip-rule="evenodd" d="M38.008 40.74c-.237-.831-.593-1.782-.712-2.257l-.238-.475.357.238c.356.237.95.594 1.544 1.188.593.594 1.069 1.425 1.781 3.325.713 1.9 1.663 4.87 3.682 11.878 2.02 7.008 5.227 18.054 11.76 39.671 6.532 21.618 16.51 53.925 25.18 81.6 8.67 27.674 16.035 50.955 19.717 62.476 3.682 11.521 3.682 11.521 3.325 11.759-.356.118-1.069.475-1.544.712l-.356.119-.356-1.306c-.357-1.307-1.069-3.801-3.207-10.69-2.138-6.889-5.583-18.173-8.909-29.1-3.325-11.047-6.651-21.737-9.74-31.595-3.087-9.858-5.82-18.885-8.907-28.506-2.851-9.621-6.058-19.836-9.621-31.238C58.2 107.136 54.4 94.665 50.955 83.737c-3.326-10.927-6.295-20.43-8.195-26.962-2.02-6.533-2.97-10.096-3.683-12.234a450.47 450.47 0 00-1.069-3.8z" fill="#F7CE66"/><path fill-rule="evenodd" clip-rule="evenodd" d="M42.64 73.523c1.07 0 2.02-.95 2.02-2.257 0-1.306-.832-2.257-2.02-2.257-1.068 0-2.019.95-2.019 2.257 0 1.307.832 2.257 2.02 2.257z" fill="#DBA758"/><path d="M55.35 118.42a1.9 1.9 0 100-3.8 1.9 1.9 0 000 3.8z" fill="#DBA758"/><path fill-rule="evenodd" clip-rule="evenodd" d="M72.097 168.781c1.188 0 2.02-.95 2.02-2.138 0-1.187-.95-2.138-2.02-2.138-1.188 0-2.019.951-2.019 2.138 0 1.188.95 2.138 2.02 2.138zm14.847 46.085c1.07 0 2.02-.95 2.02-2.138 0-1.187-.95-2.138-2.02-2.138-1.069 0-2.019.951-2.019 2.138 0 1.188.95 2.138 2.02 2.138zm-34.801 30.645l11.046-10.215h346.233l10.214 10.215H52.143z" fill="#DBA758"/><path d="M419.637 245.511H52.143v12.234h367.494v-12.234z" fill="#C2944E"/><path fill-rule="evenodd" clip-rule="evenodd" d="M69.96 229.951l15.678-10.096H416.31l9.858 10.096H69.959z" fill="#DBA758"/><path d="M426.169 229.951H69.959v12.234h356.21v-12.234z" fill="#C2944E"/><path fill-rule="evenodd" clip-rule="evenodd" d="M249.905 187.429c-1.069-.594-2.732-1.425-3.563-1.782-.832-.356-.832-.356-1.188-.356h-1.425c-.356 0-.356 0 .713.594s3.088 1.9 4.038 2.494c1.069.594 1.069.594.95 5.82-.119 5.108-.356 15.441-.475 20.667-.119 5.108-.238 5.108-.238 5.108h1.901c.356 0 .356 0 .594-5.108.237-5.107.475-15.441.475-20.904-.119-5.583-.713-5.939-1.782-6.533z" fill="#2B2A29"/><path d="M171.632 196.693h-67.109v29.101h67.109v-29.101z" fill="#2B2A29"/><path d="M173.295 186.597h-70.078v10.096h70.078v-10.096z" fill="#FDE742"/><path d="M157.972 196.693h-40.265v29.101h40.265v-29.101z" fill="#E9D53D"/><path d="M125.309 193.843h-6.058v8.908h6.058v-8.908zm31.476.118h-6.058v8.909h6.058v-8.909z" fill="#2B2A29"/><path fill-rule="evenodd" clip-rule="evenodd" d="M126.615 175.195h25.3v11.402h-3.682v-7.839h-17.935v7.839h-3.683v-11.402z" fill="#2B2A29"/><path fill-rule="evenodd" clip-rule="evenodd" d="M355.378 221.28c1.069-.831 2.138-2.494 2.732-4.988.475-2.495.475-5.702-.594-7.958-1.069-2.257-3.088-3.564-4.157-4.158l-1.069-.593-13.303.118c-13.303.119-40.027.357-53.449.475l-13.303.119v18.529l13.303-.118 53.449-.476 13.303-.118h.475c.476.118 1.545 0 2.613-.832z" fill="#409133"/><path fill-rule="evenodd" clip-rule="evenodd" d="M272.235 204.295c1.663 0 3.088 4.158 3.088 9.265s-1.425 9.265-3.088 9.383c-1.663 0-3.088-4.157-3.088-9.264 0-5.226 1.425-9.384 3.088-9.384z" fill="#F7F7F7"/><path fill-rule="evenodd" clip-rule="evenodd" d="M272.116 209.997c.594 0 1.188 1.662 1.188 3.682 0 2.019-.475 3.682-1.188 3.682-.594 0-1.187-1.663-1.187-3.682 0-2.138.593-3.682 1.187-3.682z" fill="#2B2A29"/><path fill-rule="evenodd" clip-rule="evenodd" d="M380.797 224.369c1.069-.832 2.138-2.495 2.731-4.989.476-2.494.476-5.701-.593-7.958-1.069-2.257-3.089-3.563-4.158-4.157l-1.069-.594-13.303.119-53.449.475-13.303.119v18.529l13.303-.119 53.449-.475 13.303-.119h.475c.476 0 1.545 0 2.614-.831z" fill="#FDE742"/><path fill-rule="evenodd" clip-rule="evenodd" d="M297.653 207.265c1.663 0 3.088 4.157 3.088 9.264 0 5.108-1.425 9.265-3.088 9.384-1.663 0-3.088-4.158-3.088-9.265s1.425-9.383 3.088-9.383z" fill="#F7F7F7"/><path fill-rule="evenodd" clip-rule="evenodd" d="M297.534 212.966c.594 0 1.188 1.663 1.188 3.682s-.475 3.682-1.188 3.682c-.593 0-1.187-1.663-1.187-3.682s.475-3.682 1.187-3.682z" fill="#2B2A29"/><path fill-rule="evenodd" clip-rule="evenodd" d="M366.068 207.265c1.069-.832 2.138-2.495 2.732-4.989.475-2.494.475-5.701-.594-7.958-1.069-2.257-3.088-3.563-4.157-4.157l-1.069-.594-13.303.119-53.449.475-13.303.119v18.529l13.303-.119 53.449-.475 13.303-.119h.475c.475 0 1.544 0 2.613-.831z" fill="#5DC94C"/><path fill-rule="evenodd" clip-rule="evenodd" d="M282.925 190.161c1.663 0 3.088 4.157 3.088 9.264 0 5.108-1.425 9.265-3.088 9.384-1.663 0-3.088-4.158-3.088-9.265 0-5.226 1.425-9.383 3.088-9.383z" fill="#F7F7F7"/><path fill-rule="evenodd" clip-rule="evenodd" d="M282.806 195.862c.594 0 1.188 1.663 1.188 3.682s-.475 3.682-1.188 3.682c-.594 0-1.187-1.663-1.187-3.682s.475-3.682 1.187-3.682z" fill="#2B2A29"/></g><defs><clipPath id="clip0_601_11963"><path fill="#fff" d="M0 0h787.13v396H0z"/></clipPath></defs></svg>