<svg width="601" height="361" fill="none" xmlns="http://www.w3.org/2000/svg"><g clip-path="url(#clip0_2_15580)"><path fill-rule="evenodd" clip-rule="evenodd" d="M140.198 299.734c.108 2.487.108 5.406.541 7.028.434 1.622 1.409 1.838 3.034 1.946 1.734.108 4.117 0 5.417.108 1.3.109 1.3.433 1.3 1.298 0 .973.001 2.487-.325 3.244-.216.865-.65.973-1.516 1.297-.867.433-2.059 1.082-2.601 2.271-.541 1.19-.433 2.703.434 3.785.867.973 2.492 1.405 4.984 1.513 2.6.109 6.175 0 22.427-.108s45.18-.324 65.873-.973c20.694-.757 33.154-2.054 46.155-3.568 13.002-1.514 26.653-3.244 39.329-4.65 12.568-1.405 24.053-2.378 35.862-2.378 11.81 0 23.945 1.189 30.662 1.838 6.717.648 8.018.973 14.843 1.081 6.718.108 18.852.108 24.919.108 6.068 0 6.176 0 6.176.865v3.46c0 .865.108.865 6.392.757l25.028-.432 6.284-.108v1.405c0 1.406.108 4.109.217 5.407.108 1.405.216 1.405.433 1.513.217.109.434.217 12.026-.432 11.593-.649 34.671-1.946 57.965-4.325 23.294-2.379 46.805-5.623 60.89-7.137 14.084-1.514 18.852-1.189 21.885-.973 3.034.216 4.334.324 15.602-.108 11.268-.433 32.395-1.514 43.013-1.946 10.617-.541 10.617-.541 9.642-1.622-.975-1.082-2.817-3.244-4.767-5.082-1.95-1.947-4.009-3.569-9.426-16.544-5.417-12.976-14.193-37.305-30.878-45.414-16.685-8.11-41.171 0-57.531 5.082s-24.594 7.136-33.587 14.597c-8.884 7.461-18.527 20.22-24.486 28.114-5.959 8.001-8.342 11.137-20.26 12.975-11.918 1.838-33.37 2.487-40.63-4.974-7.259-7.352-.325-22.815-8.775-30.816-8.451-8.002-32.396-8.543-75.408-3.893-43.013 4.649-105.203 14.597-146.591 19.247-41.387 4.758-61.864 4.325-75.516 4.001-13.543-.325-20.152-.541-23.944.432-3.792.973-4.876 2.92-5.201 5.082-.108 2.379.109 4.542.109 7.029z" fill="#24231D"/><path d="M427.745 0H0v258.969h427.745V0z" fill="#4AAB3C"/><path fill-rule="evenodd" clip-rule="evenodd" d="M370.214 303.518c44.638-.108 53.739-.108 58.289-.108h4.551l-.109-1.081c-.108-1.082-.433-3.352-.866-8.975-.434-5.731-.975-14.814-1.192-21.193-.325-6.272-.325-9.732-.325-11.462v-1.73H33.37v2.487c0 2.487-.108 7.353-.108 9.84v2.703c0 .216-.108.757-.108 2.919-.109 2.055-.109 5.839-.217 7.678v1.838h25.894s-.108 0-.108 2.919c0 2.92 0 8.759.108 11.678v3.352c0 .108.109.108 17.769.108 17.768 0 53.197 0 111.053-.216 57.64-.324 137.923-.649 182.561-.757z" fill="#36342B"/><path d="M431.537 268.484H14.735v17.193h416.802v-17.193z" fill="#4F4D3E"/><path d="M411.059 268.484h-96.751v49.091h96.751v-49.091z" fill="#4F4D3E"/><path fill-rule="evenodd" clip-rule="evenodd" d="M145.94 302.761l-.542 1.514h-5.092l.65-1.946c.65-1.947 1.842-5.947 4.876-11.246 3.033-5.298 7.909-11.894 12.134-16.652 4.226-4.757 7.693-7.677 10.51-9.947 2.925-2.271 5.2-3.893 6.392-4.65 1.192-.757 1.192-.757 5.851-.757h40.412c3.467 0 3.467 0 4.984.865 1.625.865 4.767 2.487 8.668 4.974 3.9 2.595 8.451 5.947 12.676 10.597 4.225 4.541 8.018 10.38 10.076 15.246 2.059 4.974 2.275 9.083 2.384 11.137l.108 2.055h-4.659l-.108-1.298c-.109-1.297-.434-3.893-1.517-7.245-1.083-3.352-3.034-7.569-4.984-10.921-2.058-3.46-4.225-6.055-7.476-9.082-3.25-3.028-7.692-6.38-10.942-8.543-3.251-2.162-5.201-3.027-6.284-3.46-1.084-.432-1.301-.324-8.451-.432-7.043 0-21.019-.108-28.062-.216h-6.934l-2.167 1.297c-2.166 1.298-6.5 3.893-10.726 7.569-4.225 3.676-8.234 8.326-11.376 12.435-3.033 4.109-5.2 7.677-6.826 11.029-1.841 3.244-3.033 6.272-3.575 7.677z" fill="#24231D"/><path d="M201.088 360.394c25.849 0 46.804-20.333 46.804-45.414 0-25.082-20.955-45.414-46.804-45.414-25.85 0-46.805 20.332-46.805 45.414 0 25.081 20.955 45.414 46.805 45.414z" fill="#24231D"/><path d="M201.088 344.823c16.993 0 30.77-13.361 30.77-29.843s-13.777-29.844-30.77-29.844c-16.994 0-30.77 13.362-30.77 29.844s13.776 29.843 30.77 29.843z" fill="#403E32"/><path fill-rule="evenodd" clip-rule="evenodd" d="M201.088 335.741c10.943 0 19.827-8.975 19.827-20.004 0-11.029-8.884-20.004-19.827-20.004-10.943 0-19.827 8.975-19.827 20.004 0 11.029 8.884 20.004 19.827 20.004z" fill="#737160"/><path d="M619.515 360.394c25.85 0 46.805-20.333 46.805-45.414 0-25.082-20.955-45.414-46.805-45.414s-46.805 20.332-46.805 45.414c0 25.081 20.955 45.414 46.805 45.414z" fill="#24231D"/><path d="M619.515 344.823c16.994 0 30.77-13.361 30.77-29.843s-13.776-29.844-30.77-29.844-30.77 13.362-30.77 29.844 13.776 29.843 30.77 29.843z" fill="#403E32"/><path fill-rule="evenodd" clip-rule="evenodd" d="M619.515 335.741c10.942 0 19.827-8.975 19.827-20.004 0-11.029-8.885-20.004-19.827-20.004-10.943 0-19.827 8.975-19.827 20.004 0 11.029 8.884 20.004 19.827 20.004z" fill="#737160"/><path d="M415.068 12.867H11.376v232.478h403.692V12.867z" fill="#4F4D3E"/><path fill-rule="evenodd" clip-rule="evenodd" d="M11.376 245.345V12.867l43.446 18.707v173.439l-43.446 40.332z" fill="#737160"/><path fill-rule="evenodd" clip-rule="evenodd" d="M11.376 245.345l43.446-40.332H374.44l40.629 40.332H11.376z" fill="#36342B"/><path fill-rule="evenodd" clip-rule="evenodd" d="M415.068 245.345V12.867l-40.629 18.707v173.439l40.629 40.332z" fill="#737160"/><path fill-rule="evenodd" clip-rule="evenodd" d="M415.068 12.867H11.376l43.446 18.707H374.44l40.629-18.707z" fill="#737160"/><path fill-rule="evenodd" clip-rule="evenodd" d="M705.866 225.665c1.733-2.054 1.733-2.054 1.516-2.919a35.603 35.603 0 00-1.191-3.677c-.434-1.081-.867-1.621-3.142-3.46-2.276-1.73-6.393-4.757-12.352-8.217-5.959-3.569-13.651-7.57-21.777-11.57a939.93 939.93 0 00-22.319-10.164c-5.417-2.379-7.584-3.352-9.318-3.893-1.733-.541-2.925-.541-3.575-.541-.65 0-.65 0-3.142-1.622s-7.367-4.757-13.326-9.407c-5.959-4.649-12.893-10.921-23.619-20.004-10.618-9.191-25.028-21.301-35.104-29.735-10.076-8.434-16.035-13.3-21.452-16.976-5.418-3.569-10.51-5.84-18.636-7.245-8.126-1.406-19.393-1.946-32.503-1.946s-28.17.54-36.404.973c-8.234.432-9.534.865-10.184 1.513-.65.65-.65 1.622-.867 15.355-.217 13.732-.65 40.224-.433 75.69.216 35.466.975 79.907 1.408 102.506.433 22.599.433 23.464.65 24.221a4.231 4.231 0 001.517 1.839c.65.432 1.408.648 1.95.756.542.109.759.109 9.318.217s25.136.432 45.721.757c20.586.324 44.963.757 57.315.973 12.242.216 12.351.216 12.459.216.109 0 .217 0 .325-.973.109-.973.325-3.028 1.084-7.894.758-4.865 2.383-12.543 4.333-18.922 1.951-6.38 4.118-11.354 7.043-15.787 2.925-4.433 6.501-8.326 10.293-11.245 3.792-3.028 7.8-5.191 12.243-6.813 4.442-1.621 9.209-2.595 14.518-2.919 5.309-.324 11.159.216 15.926 1.081 4.768.865 8.451 2.163 11.485 3.569 3.034 1.405 5.417 2.919 6.609 3.676l1.192.757 4.767-2.92c4.767-2.919 14.301-8.758 21.561-13.408 7.259-4.649 12.242-8.109 16.576-11.894 4.117-3.676 7.693-7.893 9.535-9.948z" fill="#4AAB3C"/><path fill-rule="evenodd" clip-rule="evenodd" d="M639.125 206.635c4.551 3.027 12.46 9.191 16.577 13.191 4.117 4.001 4.442 5.731 4.225 6.921-.216 1.189-.975 1.838-2.708 1.946-1.734.108-4.551-.216-20.694-3.784-16.143-3.569-45.613-10.489-73.674-16.977-28.17-6.487-54.931-12.435-68.799-16.003-13.868-3.46-14.735-4.433-15.493-5.731-.759-1.297-1.517-2.811-1.409-4.109.108-1.297 1.083-2.162 1.625-2.703.542-.432.542-.432 23.294 2.487 22.861 3.028 68.474 8.975 92.852 12.327 24.377 3.352 27.519 4.217 30.228 5.298 2.708 1.082 4.875 2.487 6.609 3.244 1.733.757 2.817.757 7.367 3.893z" fill="#509663"/><path fill-rule="evenodd" clip-rule="evenodd" d="M495.677 183.603c8.668 1.514 22.861 3.677 40.954 6.488 18.094 2.811 40.088 6.379 56.014 9.083 15.927 2.595 25.786 4.325 31.637 5.298 5.851.973 7.693 1.081 8.884 1.081 1.192 0 1.626-.108 2.059-.324.325-.216.542-.541.65-.973.108-.433 0-.973-.108-1.514-.109-.541-.434-1.081-2.709-3.244-2.384-2.162-6.826-6.055-18.527-16.435-11.701-10.381-30.661-27.249-43.88-38.819-13.218-11.57-20.693-17.841-25.569-21.626-4.984-3.784-7.476-4.974-10.401-6.271-3.034-1.19-6.501-2.487-12.351-3.244-5.742-.865-13.868-1.298-21.019-1.622-7.151-.324-13.543-.432-17.119-.432-3.575 0-4.442 0-5.633.324-1.192.324-2.601.973-3.793 2.163-1.191 1.189-2.058 2.811-2.491 4.541-.434 1.622-.434 3.352.108 12.11.542 8.759 1.842 24.654 2.383 32.98.651 8.326.651 9.191.976 10.272a11.631 11.631 0 001.841 3.676c.976 1.298 2.276 2.379 4.443 3.352 1.95.865 4.983 1.73 13.651 3.136z" fill="#403E32"/><path fill-rule="evenodd" clip-rule="evenodd" d="M486.576 179.17c-3.575-.865-4.875-1.622-5.851-2.487a8.147 8.147 0 01-2.058-2.811c-.433-.974-.758-1.947-1.517-10.056-.758-8.11-2.058-23.464-2.709-32.115-.65-8.65-.758-10.704-.541-12.326.216-1.514.65-2.487 1.517-3.461.866-.973 1.95-1.838 3.575-2.27 1.625-.433 3.575-.325 6.176-.216 2.708.108 5.959.216 11.051.432 5.092.216 11.918.433 17.443.973 5.634.433 10.076 1.081 13.11 1.73 3.034.649 4.767 1.406 5.634 1.73.867.325.867.325.975 2.271.108 1.946.433 5.839 1.3 16.868.867 11.029 2.384 28.979 3.251 38.494.758 9.407.866 10.272.866 10.921 0 .649-.216 1.081-2.167.865-1.95-.216-5.742-1.081-11.918-2.054-6.175-.973-14.626-2.163-21.777-3.244-7.042-1.298-12.893-2.379-16.36-3.244zm53.414-43.468c.758 9.84 2.275 28.546 3.142 38.494.758 9.948.867 11.029.975 11.894.108.865.433 1.514.758 1.947.325.54.759.973 1.626 1.297.758.324 1.95.649 6.934 1.406 4.983.757 13.868 2.162 18.31 2.811 4.442.649 4.442.649 4.659-2.811.216-3.46.541-10.381.65-16.76.108-6.272-.109-12.003-.434-15.679s-.758-5.298-1.842-6.92c-1.083-1.622-3.033-3.244-7.8-7.353-4.768-4.109-12.46-10.921-16.902-14.706-4.442-3.784-5.417-4.649-6.392-5.298-.867-.649-1.734-1.189-2.384-1.406-.65-.216-1.192-.216-1.517 0-.325.217-.542.649-.542 1.406 0 .757 0 1.838.759 11.678z" fill="#E6E6E6"/><path fill-rule="evenodd" clip-rule="evenodd" d="M575.094 164.681c-.434 3.676-.975 10.38-1.409 15.787-.433 5.406-.65 9.731-.758 12.326-.109 2.595 0 3.568.433 4.434.325.756.975 1.405 2.492 1.946 1.517.54 3.901.973 6.176.973 2.275 0 4.442-.433 6.067-1.298 1.625-.973 2.925-2.378 3.684-5.298.867-2.919 1.3-7.245 1.625-12.651.325-5.515.65-12.11.65-15.787 0-3.676-.217-4.217-.867-4.866-.65-.54-1.842-1.189-3.684-1.622-1.95-.54-4.658-.973-6.717-1.081-2.058-.216-3.359-.108-4.442.325-1.083.324-1.734.973-2.167 1.73-.433.54-.758 1.405-1.083 5.082z" fill="#24231D"/><path fill-rule="evenodd" clip-rule="evenodd" d="M574.118 176.467c.434-5.082.867-9.516 1.084-12.003.216-2.487.325-3.027.433-3.352.108-.432.108-.648.217-.865.108-.216.217-.432.433-.757.217-.216.434-.54.759-.865.216-.216.433-.432.758-.54.325-.108.542-.325.867-.433.325-.108.65-.216.975-.216.325 0 .65-.108 1.083-.108h1.625c.651 0 1.409.108 2.276.216.866.108 1.95.216 2.925.433.867.216 1.625.324 2.275.54.65.217 1.192.325 1.842.649a6.903 6.903 0 011.517.865l.65.649c.108.108.108.108-1.083-.108a39.4 39.4 0 00-6.068-1.082c-2.383-.324-4.767-.324-6.067-.108-1.3.108-1.517.325-1.95 1.298-.434.973-.975 2.703-1.517 7.569-.542 4.758-1.084 12.543-1.3 17.949-.217 5.299-.217 8.218 0 10.056.216 1.839.65 2.595 1.3 3.028.65.432 1.408.649 1.733.649.434.108.434.108-.108 0s-1.517-.325-2.167-.541c-.65-.216-.975-.324-1.192-.432-.325-.109-.541-.325-.758-.433-.217-.216-.433-.324-.542-.541-.216-.216-.325-.432-.433-.648-.108-.217-.217-.433-.217-.757-.108-.325-.108-.757-.108-1.406 0-.541 0-1.298.108-4.541-.108-3.461.217-9.083.65-14.165zm-107.261 29.411c.434 1.297 1.409 3.244 2.275 4.433.867 1.081 1.842 1.406 5.634 1.514 3.792.108 10.401.108 13.868.108 3.359-.108 3.576-.216 4.659-1.298 1.084-1.081 3.034-3.027 4.009-4.325.975-1.297 1.084-1.838.975-2.487-.108-.649-.325-1.405-1.408-2.703-1.084-1.298-3.034-3.136-4.009-4.109-1.084-.973-1.3-.973-4.442-1.189-3.142-.108-9.209-.325-12.677-.325-3.358 0-4.117.108-4.875.541a7.904 7.904 0 00-2.492 2.271c-.758 1.081-1.3 2.487-1.625 3.352-.325.865-.325 1.297-.325 1.838 0 .54 0 1.081.433 2.379z" fill="#4F4D3E"/><path fill-rule="evenodd" clip-rule="evenodd" d="M475.958 206.635c.542.649 1.517 1.73 1.95 2.379.542.648.65.648 2.384.756 1.842.109 5.309.325 7.042.325 1.734 0 1.734 0 2.492-.757.759-.757 2.167-2.163 2.817-2.92.759-.756.759-.756.65-.865h-3.358c-3.034 0-8.776 0-11.702-.108-2.925 0-3.033 0-3.033.108.108.217.216.433.758 1.082zm9.535-4.65h-10.726s-.109-.108.65-.865c.758-.757 2.275-2.271 3.033-2.919.759-.757.759-.757 2.384-.757h6.284c1.625 0 1.733 0 1.95.216.217.108.65.324 1.3.973.759.649 1.734 1.73 2.275 2.379.542.54.542.649.542.757v.216s-.108.108-1.192.108c-1.191-.108-3.467-.108-6.5-.108z" fill="#24231D"/><path fill-rule="evenodd" clip-rule="evenodd" d="M572.493 267.511c4.442-4.217 10.401-9.191 16.252-12.759 5.851-3.568 11.485-5.839 18.419-7.136 6.825-1.298 14.951-1.514 21.777-1.082 6.826.433 12.46 1.514 17.227 3.136a51.069 51.069 0 0111.159 5.406c2.492 1.622 3.467 2.704 4.009 3.244.542.541.542.541 1.733-.216 1.192-.757 3.576-2.163 5.743-3.568 2.167-1.406 4.333-2.703 5.309-3.352l1.083-.649-2.492-1.946c-2.492-1.947-7.367-5.839-15.168-9.408-7.801-3.568-18.635-7.028-29.253-8.434-10.618-1.405-21.127-.865-30.662 1.839-9.534 2.703-17.877 7.677-23.836 12.759-5.959 5.082-9.426 10.272-11.484 14.813-2.059 4.65-2.817 8.759-3.034 11.678-.216 2.92.217 4.758.759 5.731.541.865 1.408.865 3.25-.757 1.734-1.73 4.767-5.082 9.209-9.299zm-107.044 26.708c19.393.324 57.747.865 77.033 1.189 19.285.325 19.718.433 19.935.433.217 0 .108 0 .108-.108s.109-.433-1.95-1.406c-1.95-.973-6.067-2.595-8.126-3.46-2.058-.865-2.058-.865-19.177-1.189-17.118-.325-51.355-.974-68.907-1.298-17.552-.324-18.527-.324-18.96-.324-.542 0-.65 0-.759.108-.108.108-.108.432-.108 1.405v3.244c0 .757.108.865.433.865.434.325 1.084.325 20.478.541zm-19.394-35.574c.217.865.325.865 11.702 1.189 11.267.324 33.695.973 49.513 1.298 15.818.324 25.136.324 30.553.216 5.418-.108 7.043-.433 7.909-.649.867-.324.867-.541.109-1.297-.759-.757-2.167-1.839-3.359-2.92-1.192-.973-2.275-1.946-2.709-2.379-.541-.432-.541-.432-2.383-.54-1.842-.109-5.742-.325-21.127-.541-15.385-.324-42.471-.649-56.123-.757-13.76-.108-14.085 0-14.301.433-.217.432-.217 1.081-.109 2.27-.108 1.298.109 2.92.325 3.677z" fill="#5DC94C"/><path fill-rule="evenodd" clip-rule="evenodd" d="M443.455 217.231c.217.325.542.325 8.234.649 7.693.324 22.644.865 34.454 2.487 11.809 1.622 20.26 4.217 27.628 7.677 7.367 3.46 13.651 7.785 17.876 11.786 4.334 4.001 6.718 7.677 8.235 9.948 1.516 2.271 2.167 3.244 2.925 4.001a10.578 10.578 0 002.275 1.73c.759.432 1.3.757 1.734.432.325-.324.541-1.405-.325-4.109-.867-2.703-2.709-7.028-7.801-12.218-5.092-5.19-13.435-11.246-21.669-15.354-8.343-4.109-16.577-6.164-26.436-7.569-9.86-1.298-21.452-1.947-29.47-2.271-8.126-.325-12.785-.433-15.168-.433-2.384 0-2.492.108-2.492.325 0 .324-.108.757-.108 1.297-.109.649-.109 1.298.108 1.622z" fill="#3D8C31"/><path fill-rule="evenodd" clip-rule="evenodd" d="M484.409 103.696c8.885.432 21.561 1.189 29.687 1.838 8.126.649 11.701 1.406 15.168 2.487 3.467 1.081 6.717 2.595 9.751 4.325 2.925 1.73 5.526 3.568 12.135 9.083 6.609 5.406 17.118 14.489 23.727 20.22 6.609 5.623 9.209 8.002 10.618 9.299 1.408 1.298 1.517 1.514 1.625 1.73.108.216 0 .541-.108.649-.217.108-.542 0-.975-.324-.434-.217-.759-.649-7.476-6.488-6.609-5.839-19.502-17.085-27.953-24.005-8.343-6.92-12.351-9.623-16.685-11.678-4.442-1.946-9.318-3.244-18.852-4.217-9.535-.973-23.836-1.514-33.154-1.838-9.317-.324-13.651-.433-16.035-.324-2.383 0-2.817.216-3.25.54-.433.325-.867.757-.975 2.271-.217 1.514-.108 3.893-.217 21.626 0 17.733-.108 50.712 0 68.229.109 17.409.325 19.355.542 20.869.217 1.514.325 2.595.867 4.433.541 1.73 1.408 4.217 2.383 6.488.867 2.379 1.842 4.65 2.384 6.92.542 2.271.758 4.542.975 6.488.108 2.055.217 3.785.65 12.327.433 8.542 1.3 23.896 1.734 32.979.433 9.083.325 11.786.541 14.057.109 2.271.434 4.001 1.084 5.19.65 1.189 1.625 1.946 3.25 2.487 1.625.541 4.009.757 10.943.865 7.042.108 18.743.108 31.528.324 12.785.109 26.87.433 34.454.649 7.584.216 8.776.216 9.642.108.867-.108 1.301-.216 1.517-.432.217-.216.217-.541.434-2.163.216-1.622.541-4.541 1.516-9.083.976-4.541 2.709-10.812 4.876-16.219 2.167-5.406 4.767-9.948 6.284-12.218 1.517-2.271 1.842-2.271 2.058-2.163.217.108.326.324-.216 1.081-.542.865-1.625 2.271-3.142 5.082-1.625 2.92-3.684 7.245-5.201 11.786-1.625 4.542-2.708 9.191-3.467 12.76-.758 3.568-1.083 5.947-1.3 7.785-.325 1.838-.542 3.244-.975 3.892-.433.757-1.083.757-14.193.649-13.002-.108-38.463-.54-52.872-.757-14.41-.216-17.661-.324-19.827-.648-2.167-.217-3.251-.649-4.118-1.298-.975-.757-1.841-1.73-2.383-3.028-.542-1.297-.542-2.703-.65-5.19-.109-2.487-.217-6.055-.65-16.111-.542-10.056-1.409-26.492-1.95-35.358-.542-8.867-.651-9.948-.976-11.57a45.23 45.23 0 00-1.733-6.38c-.867-2.811-2.275-6.379-3.034-8.974-.758-2.487-1.083-3.893-1.192-6.488-.108-2.595-.216-6.38-.216-20.004 0-13.624-.109-36.98-.109-53.307 0-16.328.109-25.519.109-30.493s.108-5.839.216-6.488a2.867 2.867 0 01.759-1.513c.325-.325.65-.541 1.3-.757.65-.217 1.625-.433 4.659-.433 3.033 0 7.584 0 16.468.433zm110.837 107.696c0 8.326.216 23.573.325 31.25.108 7.677.216 7.677.325 7.677.108 0 .433 0 .541-.108.109-.108.217-.325.109-8.759 0-8.434-.109-25.086-.217-33.52-.108-8.434-.108-8.65-.217-8.758-.108-.108-.433-.108-.541.108-.109.216-.217.541-.217 1.406-.108.973-.217 2.378-.108 10.704zm12.026-49.631c3.576 3.028 7.259 6.164 10.943 8.867 3.575 2.811 7.151 5.298 9.751 7.028 2.6 1.73 4.334 2.595 5.092 3.028.867.432.759.432.109.973-.65.541-1.951 1.514-2.709 2.054-.758.541-1.084.649-1.409.757-.325.108-.541.108-15.601-12.435-15.06-12.434-44.963-37.412-60.023-50.063-15.06-12.651-15.385-12.976-15.493-13.3-.109-.325-.109-.541.433-.973.542-.433 1.517-1.082 2.059-1.298.541-.324.541-.324 5.742 4.001 5.2 4.217 15.601 12.759 24.919 20.544 9.318 7.786 17.444 14.706 23.294 19.68 5.742 5.082 9.209 8.11 12.893 11.137z" fill="#403E32"/><path fill-rule="evenodd" clip-rule="evenodd" d="M543.132 108.454c-.542.108-1.084.54-1.409.756-.325.217-.216.217-.216.325.108.108.216.324 1.3 1.297 1.083 1.082 3.25 2.92 17.01 14.382 13.76 11.461 39.004 32.655 52.222 43.792 13.218 11.137 14.518 12.11 15.168 12.651.759.541.867.541 1.409.108.433-.432 1.3-1.297 1.625-1.73.433-.433.433-.433-1.3-1.622-1.734-1.189-5.201-3.676-10.401-7.785-5.309-4.109-12.352-9.948-19.394-15.895a46188.966 46188.966 0 00-21.777-18.382c-7.693-6.488-15.927-13.408-21.019-17.733-5.092-4.217-6.934-5.839-8.451-7.029-1.517-1.189-2.492-2.054-3.25-2.595-.65-.432-.976-.649-1.517-.54z" fill="#E6E6E6"/><path d="M303.04 76.015H120.696V189.55H303.04V76.015z" fill="#CCC"/><path d="M318.858 61.31H136.514v128.24h182.344V61.31z" fill="#B3B3B3"/><path fill-rule="evenodd" clip-rule="evenodd" d="M326.443 203.174l19.285.325-1.192-29.628-19.285.108 1.192 29.195zm32.72-.973l19.177-.54-1.192-28.655-19.177.649 1.192 28.546z" fill="#999"/><path fill-rule="evenodd" clip-rule="evenodd" d="M379.965 168.789c-2.926 2.271-5.201 4.109-6.826 5.515-20.586-1.838-43.988-2.595-70.207-2.379 2.492-1.946 6.934-3.568 13.434-4.974 37.921.216 59.048.757 63.599 1.838z" fill="#DBA758"/><path fill-rule="evenodd" clip-rule="evenodd" d="M379.64 216.582a1058.15 1058.15 0 01-6.501 7.569 956.538 956.538 0 010-49.847 84.389 84.389 0 016.826-5.515l-.325 47.793z" fill="#DBA758"/><path fill-rule="evenodd" clip-rule="evenodd" d="M373.139 174.304c-.542 14.165-.542 30.817 0 49.847-47.347-2.378-70.966-3.568-70.966-3.568-.108-24.978.217-41.197.867-48.658 23.403-.324 46.805.433 70.099 2.379zm-60.023-4.974c-.325 0-.542-.216-.542-.433 0-.324.217-.54.434-.54 10.184-.216 20.368-.216 30.769.108 10.402.324 20.803.973 31.42 1.838.325 0 .434.216.434.541 0 .324-.217.432-.542.432-10.618-.865-21.019-1.514-31.42-1.838-10.184-.324-20.477-.324-30.553-.108z" fill="#F7CE66"/><path fill-rule="evenodd" clip-rule="evenodd" d="M332.185 172.141c3.575.108 6.934.217 10.076.325.433-.325-.325 21.085-.325 29.627 0 0-9.968-.324-10.51-.324.109 0 .325-9.948.759-29.628z" fill="#F7F7F7"/><path fill-rule="evenodd" clip-rule="evenodd" d="M342.261 172.466l-10.076-.325c6.175-3.243 9.209-4.974 9.209-4.974 4.442.109 6.609.109 6.609.109-3.792 3.46-5.742 5.19-5.742 5.19z" fill="#E0E0E0"/><path d="M348.731 179.189l-1.271 11.935 17.777 1.886 1.271-11.935-17.777-1.886z" fill="#F7F7F7"/><path fill-rule="evenodd" clip-rule="evenodd" d="M55.04 229.558l19.501-6.704.325-62.823-20.26 3.244.433 66.283z" fill="#DBA758"/><path fill-rule="evenodd" clip-rule="evenodd" d="M55.04 229.558l-.434-66.283-21.994-1.298.867 65.526 21.56 2.055z" fill="#F7CE66"/><path fill-rule="evenodd" clip-rule="evenodd" d="M32.612 161.869l21.994 1.838 20.26-3.784-21.019-.649-21.235 2.595z" fill="#DBA758"/><path fill-rule="evenodd" clip-rule="evenodd" d="M41.388 162.626l7.15.541-.433 42.17-6.934-.433.217-42.278zm7.15.541l-7.15-.541 18.418-3.244 2.6.108-.108 1.19-13.76 2.487z" fill="#F7F7F7"/><path d="M304.774 194.632H142.69v16.652h162.084v-16.652z" fill="#F7CE66"/><path fill-rule="evenodd" clip-rule="evenodd" d="M304.774 194.632H142.69l11.376-4.974h143.448l7.26 4.974z" fill="#C2944E"/><path d="M308.241 181.765H146.157v11.029h162.084v-11.029z" fill="#DBA758"/><path fill-rule="evenodd" clip-rule="evenodd" d="M308.241 181.765H146.157l11.376-3.352h143.449l7.259 3.352z" fill="#C2944E"/><path d="M303.149 171.925H141.065v11.029h162.084v-11.029z" fill="#F7CE66"/><path fill-rule="evenodd" clip-rule="evenodd" d="M303.149 171.925H141.065l7.259-3.46 147.565.216 7.26 3.244z" fill="#DBA758"/><path fill-rule="evenodd" clip-rule="evenodd" d="M52.439 57.092c2.709 9.732 7.692 27.681 12.568 45.198 4.984 17.517 9.86 34.493 14.193 48.658 4.225 14.165 7.8 25.627 10.618 34.169 2.817 8.65 4.767 14.489 5.742 17.409.975 2.919.975 2.919 1.842 2.919h4.442c.108 0 .108 0-7.91-27.248-8.017-27.249-24.16-81.638-32.177-108.778L53.63 42.17l-.759.325c-.758.324-2.275.973-3.033 1.406-.759.324-.759.432-.867.54 0 .108-.108.108.108.865.217.649.65 2.055 3.359 11.786z" fill="#C2944E"/><path fill-rule="evenodd" clip-rule="evenodd" d="M85.809 150.732c-3.792-12.867-8.234-27.789-11.376-38.494-3.143-10.813-5.201-17.409-8.126-27.573-2.926-10.056-6.934-23.572-9.21-31.25-2.275-7.676-2.817-9.514-3.033-10.38l-.434-.865.325.217c.325.216.976.757 1.3.973.326.216.326.216.759 1.73s1.408 4.541 3.9 13.192c2.492 8.65 6.61 22.923 10.618 36.764 4.009 13.84 7.91 27.248 11.485 39.358 3.575 12.111 6.825 22.816 10.292 34.169 3.467 11.462 7.26 23.572 9.101 29.628l1.842 6.055-.216.216c-.217.216-.759.541-.976.757l-.216.216-.217-.865c-.217-.865-.65-2.487-1.733-5.839a1609.04 1609.04 0 00-4.876-16.435c-2.275-8.002-5.417-18.707-9.21-31.574zM58.073 65.31c.325 0 .65 0 .975.432.325.325.65 1.082.65 1.622 0 .541-.217.974-.325 1.19-.109.216-.109.216-2.817 0l-10.835-.865c-2.708-.216-2.708-.216-2.817-.65-.108-.432-.216-1.297-.433-1.945-.217-.65-.325-1.082-.433-1.298-.109-.216 0-.324 2.492-.108 2.492.216 7.475.865 10.184 1.19 2.6.324 3.034.432 3.359.432zm5.525 34.926c-2.383.757-6.717 2.054-8.884 2.703-2.167.649-2.167.649-1.95 1.189.217.541.65 1.73.975 2.271.325.541.434.649.542.649.108 0 .217 0 2.492-.757s6.825-2.379 9.209-3.244c2.384-.865 2.492-.973 2.6-1.189.109-.217.325-.433.325-.757 0-.325 0-.865-.216-1.082-.109-.324-.325-.432-.65-.54-.325-.108-.759-.216-1.192-.108-.434-.108-.867.108-3.25.865zm12.352 38.71c-2.059 1.838-5.96 5.514-7.801 7.244-1.842 1.73-1.625 1.73-1.3 2.055.325.324.975.865 1.3 1.406.325.432.542.756.65.973.108.108.108.108 1.95-1.406 1.842-1.514 5.31-4.65 7.26-6.488 1.95-1.838 2.166-2.379 2.383-2.919.217-.541.217-.973.108-1.514-.108-.541-.325-.973-.65-1.298-.325-.216-.65-.216-1.083-.216-.434.108-.759.325-2.817 2.163zm10.726 36.98c-1.517 2.595-4.334 7.353-5.743 9.84l-1.408 2.379.542.432c.433.433 1.3 1.298 1.733 1.838.434.433.434.433.325.433l1.409-2.379a644.749 644.749 0 005.742-9.948c1.517-2.703 1.625-3.244 1.625-3.784 0-.541-.108-1.298-.433-1.622-.217-.433-.542-.541-.867-.541-.325 0-.65.108-.867.324-.325.108-.541.433-2.058 3.028z" fill="#DBA758"/><path fill-rule="evenodd" clip-rule="evenodd" d="M33.262 55.362c4.334 14.598 12.568 42.711 21.235 70.176 8.668 27.573 17.552 54.605 23.078 71.581 5.525 16.977 7.584 23.789 8.559 27.141 1.083 3.352 1.083 3.352 1.192 3.46.216 0 .541.108 1.517.216 1.083.108 2.708.324 3.683.433.867.108.975.108.975.108l-1.191-4.325c-1.192-4.326-3.684-12.868-9.21-30.493-5.417-17.625-13.868-44.225-21.452-68.554a6992.857 6992.857 0 01-18.96-61.2c-4.442-14.598-6.501-21.735-7.693-25.303-1.083-3.676-1.191-3.892-1.3-4-.108-.109-.108-.109-.65 0-.542.108-1.408.216-2.275.648-.867.433-1.625 1.298-1.95 1.73-.434.433-.434.54-.434.649 0 .108 0 .433.217 1.081.108.757.325 1.947 4.659 16.652z" fill="#C2944E"/><path fill-rule="evenodd" clip-rule="evenodd" d="M34.67 37.088c-.217-.757-.542-1.622-.65-2.054l-.217-.433.325.217c.325.216.867.54 1.409 1.08.541.541.975 1.298 1.625 3.028s1.517 4.434 3.359 10.813c1.841 6.38 4.767 16.436 10.726 36.116 5.959 19.679 15.06 49.09 22.969 74.284 7.909 25.194 14.626 46.387 17.985 56.876 3.359 10.488 3.359 10.488 3.034 10.705-.325.108-.975.432-1.409.648l-.325.109-.325-1.19c-.325-1.189-.975-3.46-2.925-9.731-1.95-6.272-5.092-16.544-8.126-26.492-3.034-10.056-6.067-19.788-8.884-28.762-2.817-8.975-5.31-17.193-8.126-25.951-2.6-8.759-5.526-18.058-8.776-28.438-3.25-10.38-6.718-21.734-9.86-31.682-3.033-9.948-5.742-18.598-7.475-24.545-1.842-5.947-2.709-9.191-3.359-11.138a415.82 415.82 0 00-.975-3.46z" fill="#F7CE66"/><path fill-rule="evenodd" clip-rule="evenodd" d="M38.896 66.932c.975 0 1.841-.865 1.841-2.055 0-1.189-.758-2.054-1.841-2.054-.976 0-1.842.865-1.842 2.054 0 1.19.758 2.055 1.842 2.055z" fill="#DBA758"/><path d="M50.488 107.805c.958 0 1.734-.775 1.734-1.73 0-.956-.776-1.731-1.734-1.731-.957 0-1.733.775-1.733 1.731 0 .955.776 1.73 1.733 1.73z" fill="#DBA758"/><path fill-rule="evenodd" clip-rule="evenodd" d="M65.765 153.651c1.084 0 1.842-.865 1.842-1.946s-.867-1.946-1.842-1.946c-1.083 0-1.842.865-1.842 1.946s.867 1.946 1.842 1.946zm13.543 41.955c.975 0 1.842-.866 1.842-1.947s-.867-1.946-1.842-1.946c-.975 0-1.842.865-1.842 1.946s.867 1.947 1.842 1.947zm-31.745 27.897l10.076-9.299h315.825l9.318 9.299H47.563z" fill="#DBA758"/><path d="M382.782 223.503H47.563v11.137h335.219v-11.137z" fill="#C2944E"/><path fill-rule="evenodd" clip-rule="evenodd" d="M63.815 209.338l14.301-9.191h301.632l8.992 9.191H63.814z" fill="#DBA758"/><path d="M388.74 209.338H63.815v11.137H388.74v-11.137z" fill="#C2944E"/><path fill-rule="evenodd" clip-rule="evenodd" d="M227.957 170.627c-.975-.54-2.492-1.297-3.25-1.621-.759-.325-.759-.325-1.084-.325h-1.3c-.325 0-.325 0 .65.541.975.54 2.817 1.73 3.684 2.271.975.54.975.54.867 5.298l-.434 18.814c-.108 4.65-.216 4.65-.216 4.65h1.733c.325 0 .325 0 .542-4.65.217-4.649.433-14.056.433-19.03-.108-5.082-.65-5.407-1.625-5.948z" fill="#2B2A29"/><path d="M156.558 179.062H95.343v26.491h61.215v-26.491z" fill="#2B2A29"/><path d="M158.075 169.871H94.151v9.191h63.924v-9.191z" fill="#FDE742"/><path d="M144.098 179.062H107.37v26.491h36.728v-26.491z" fill="#E9D53D"/><path d="M114.303 176.467h-5.525v8.109h5.525v-8.109zm28.712.108h-5.526v8.109h5.526v-8.109z" fill="#2B2A29"/><path fill-rule="evenodd" clip-rule="evenodd" d="M115.495 159.49h23.078v10.381h-3.359v-7.137h-16.36v7.137h-3.359V159.49z" fill="#2B2A29"/><path fill-rule="evenodd" clip-rule="evenodd" d="M324.167 201.444c.975-.757 1.95-2.27 2.492-4.541.433-2.271.433-5.19-.542-7.245-.975-2.054-2.817-3.244-3.792-3.784l-.975-.541-12.135.108-48.755.433-12.134.108v16.868l12.134-.108 48.755-.433 12.135-.108h.433c.434.108 1.409 0 2.384-.757z" fill="#409133"/><path fill-rule="evenodd" clip-rule="evenodd" d="M248.326 185.982c1.517 0 2.817 3.784 2.817 8.434 0 4.65-1.3 8.434-2.817 8.542-1.517 0-2.817-3.784-2.817-8.434 0-4.758 1.3-8.542 2.817-8.542z" fill="#F7F7F7"/><path fill-rule="evenodd" clip-rule="evenodd" d="M248.217 191.172c.542 0 1.084 1.514 1.084 3.352 0 1.838-.434 3.352-1.084 3.352-.541 0-1.083-1.514-1.083-3.352 0-1.946.542-3.352 1.083-3.352z" fill="#2B2A29"/><path fill-rule="evenodd" clip-rule="evenodd" d="M347.353 204.256c.975-.757 1.95-2.271 2.492-4.542.433-2.27.433-5.19-.542-7.244-.975-2.055-2.817-3.244-3.792-3.785l-.975-.54-12.135.108-48.755.432-12.134.108v16.868l12.134-.108 48.755-.432 12.135-.108h.433c.434 0 1.409 0 2.384-.757z" fill="#FDE742"/><path fill-rule="evenodd" clip-rule="evenodd" d="M271.512 188.685c1.517 0 2.817 3.785 2.817 8.434 0 4.65-1.3 8.434-2.817 8.542-1.517 0-2.817-3.784-2.817-8.434 0-4.649 1.3-8.542 2.817-8.542z" fill="#F7F7F7"/><path fill-rule="evenodd" clip-rule="evenodd" d="M271.403 193.875c.542 0 1.084 1.514 1.084 3.352 0 1.838-.434 3.352-1.084 3.352-.541 0-1.083-1.514-1.083-3.352 0-1.838.433-3.352 1.083-3.352z" fill="#2B2A29"/><path fill-rule="evenodd" clip-rule="evenodd" d="M333.918 188.685c.975-.757 1.95-2.271 2.492-4.541.433-2.271.433-5.19-.542-7.245-.975-2.054-2.817-3.244-3.792-3.784l-.975-.541-12.135.108-48.755.433-12.134.108v16.868l12.134-.108 48.755-.433 12.135-.108h.433c.434 0 1.409 0 2.384-.757z" fill="#5DC94C"/><path fill-rule="evenodd" clip-rule="evenodd" d="M258.077 173.115c1.517 0 2.817 3.784 2.817 8.434 0 4.649-1.3 8.434-2.817 8.542-1.517 0-2.817-3.785-2.817-8.434 0-4.758 1.3-8.542 2.817-8.542z" fill="#F7F7F7"/><path fill-rule="evenodd" clip-rule="evenodd" d="M257.968 178.305c.542 0 1.084 1.514 1.084 3.352 0 1.838-.434 3.352-1.084 3.352-.542 0-1.083-1.514-1.083-3.352 0-1.838.433-3.352 1.083-3.352z" fill="#2B2A29"/></g><defs><clipPath id="clip0_2_15580"><path fill="#fff" d="M0 0h718v360.502H0z"/></clipPath></defs></svg>