<svg width="835" height="396" fill="none" xmlns="http://www.w3.org/2000/svg"><g clip-path="url(#clip0_601_11413)"><path fill-rule="evenodd" clip-rule="evenodd" d="M227.717 315.616c.114 2.619.114 5.693.569 7.401.456 1.708 1.481 1.935 3.188 2.049 1.822.114 4.327 0 5.693.114 1.367.114 1.367.455 1.367 1.366 0 1.025 0 2.619-.342 3.416-.228.911-.683 1.025-1.594 1.366-.911.456-2.163 1.139-2.732 2.391-.57 1.253-.456 2.847.455 3.985.911 1.025 2.619 1.481 5.237 1.594 2.733.114 6.49 0 23.569-.113 17.079-.114 47.479-.342 69.226-1.025 21.747-.797 34.841-2.163 48.504-3.757 13.663-1.594 28.009-3.416 41.331-4.896 13.207-1.481 25.276-2.505 37.687-2.505 12.41 0 25.162 1.252 32.222 1.935 7.059.683 8.425 1.025 15.598 1.139 7.06.114 19.812.114 26.188.114 6.376 0 6.49 0 6.49.911v3.643c0 .911.114.911 6.717.797l26.302-.455 6.603-.114v1.48c0 1.48.114 4.327.228 5.693.114 1.48.228 1.48.456 1.594.227.114.455.228 12.638-.455 12.183-.684 36.435-2.05 60.914-4.555 24.48-2.505 49.187-5.92 63.989-7.514 14.801-1.595 19.811-1.253 22.999-1.025 3.188.228 4.555.341 16.396-.114 11.841-.456 34.043-1.594 45.202-2.05 11.158-.569 11.158-.569 10.133-1.707-1.025-1.139-2.96-3.416-5.01-5.352-2.049-2.049-4.212-3.757-9.905-17.42-5.693-13.663-14.916-39.281-32.45-47.821-17.534-8.539-43.266 0-60.459 5.352-17.193 5.351-25.846 7.514-35.296 15.371-9.337 7.856-19.47 21.291-25.732 29.603-6.262 8.425-8.767 11.727-21.292 13.663-12.524 1.935-35.068 2.619-42.697-5.238-7.628-7.742-.341-24.024-9.222-32.449-8.881-8.426-34.044-8.995-79.246-4.099-45.202 4.896-110.556 15.371-154.05 20.267-43.494 5.009-65.014 4.554-79.36 4.212-14.232-.341-21.177-.569-25.162.456-3.986 1.024-5.124 3.074-5.466 5.351-.227 2.505 0 4.782.114 7.401z" fill="#24231D"/><path d="M529.898 0H80.384v272.691h449.514V0z" fill="#4AAB3C"/><path fill-rule="evenodd" clip-rule="evenodd" d="M469.439 319.601c46.909-.114 56.474-.114 61.256-.114h4.782l-.114-1.138c-.114-1.139-.456-3.53-.911-9.451-.455-6.034-1.025-15.598-1.253-22.316-.341-6.604-.341-10.247-.341-12.069v-1.822H115.453v2.619c0 2.619-.114 7.743-.114 10.361v2.847c0 .227-.114.797-.114 3.074-.114 2.163-.114 6.148-.228 8.084v1.935h27.212s-.114 0-.114 3.075c0 3.074 0 9.222.114 12.296v3.53c0 .114.114.114 18.673.114 18.673 0 55.905 0 116.705-.228 60.573-.341 144.942-.683 191.852-.797z" fill="#36342B"/><path d="M533.883 282.711H95.869v18.103h438.014v-18.103z" fill="#4F4D3E"/><path d="M512.364 282.711H410.688v51.692h101.676v-51.692z" fill="#4F4D3E"/><path fill-rule="evenodd" clip-rule="evenodd" d="M233.752 318.804l-.57 1.594h-5.351l.683-2.049c.683-2.05 1.936-6.263 5.124-11.842 3.188-5.579 8.312-12.524 12.752-17.534 4.44-5.01 8.084-8.084 11.044-10.475 3.074-2.391 5.465-4.099 6.718-4.896 1.252-.797 1.252-.797 6.148-.797h42.47c3.643 0 3.643 0 5.237.911 1.708.911 5.01 2.619 9.109 5.238 4.099 2.732 8.881 6.262 13.321 11.158 4.441 4.782 8.426 10.93 10.589 16.054 2.163 5.237 2.391 9.564 2.505 11.727l.114 2.163h-4.896l-.114-1.366c-.114-1.366-.455-4.099-1.594-7.628-1.139-3.53-3.188-7.97-5.238-11.5-2.163-3.644-4.44-6.376-7.856-9.564-3.416-3.188-8.084-6.718-11.499-8.995-3.416-2.277-5.466-3.188-6.604-3.643-1.139-.456-1.367-.342-8.881-.456-7.401 0-22.089-.114-29.49-.228h-7.287l-2.277 1.367c-2.277 1.366-6.831 4.099-11.272 7.97-4.44 3.871-8.653 8.767-11.955 13.094-3.188 4.326-5.465 8.083-7.173 11.613-1.936 3.416-3.188 6.604-3.757 8.084z" fill="#24231D"/><path d="M291.706 379.49c27.165 0 49.187-21.41 49.187-47.82 0-26.411-22.022-47.821-49.187-47.821s-49.187 21.41-49.187 47.821c0 26.41 22.022 47.82 49.187 47.82z" fill="#24231D"/><path d="M291.706 363.095c17.859 0 32.336-14.069 32.336-31.425 0-17.355-14.477-31.425-32.336-31.425-17.859 0-32.336 14.07-32.336 31.425 0 17.356 14.477 31.425 32.336 31.425z" fill="#403E32"/><path d="M291.706 353.531c11.507 0 20.836-9.431 20.836-21.064 0-11.633-9.329-21.064-20.836-21.064-11.508 0-20.836 9.431-20.836 21.064 0 11.633 9.328 21.064 20.836 21.064z" fill="#737160"/><path d="M731.428 379.49c27.165 0 49.186-21.41 49.186-47.82 0-26.411-22.021-47.821-49.186-47.821-27.166 0-49.187 21.41-49.187 47.821 0 26.41 22.021 47.82 49.187 47.82z" fill="#24231D"/><path d="M731.428 363.095c17.858 0 32.335-14.069 32.335-31.425 0-17.355-14.477-31.425-32.335-31.425-17.859 0-32.336 14.07-32.336 31.425 0 17.356 14.477 31.425 32.336 31.425z" fill="#403E32"/><path fill-rule="evenodd" clip-rule="evenodd" d="M731.427 353.531c11.5 0 20.837-9.45 20.837-21.064 0-11.613-9.337-21.064-20.837-21.064-11.499 0-20.836 9.451-20.836 21.064 0 11.614 9.337 21.064 20.836 21.064z" fill="#737160"/><path d="M516.576 13.55H92.339v244.795h424.237V13.549z" fill="#4F4D3E"/><path fill-rule="evenodd" clip-rule="evenodd" d="M92.34 258.345V13.549l45.657 19.698v182.629l-45.658 42.469z" fill="#737160"/><path fill-rule="evenodd" clip-rule="evenodd" d="M92.34 258.345l45.657-42.469h335.882l42.697 42.469H92.339z" fill="#36342B"/><path fill-rule="evenodd" clip-rule="evenodd" d="M516.576 258.345V13.549l-42.697 19.698v182.629l42.697 42.469z" fill="#737160"/><path fill-rule="evenodd" clip-rule="evenodd" d="M516.576 13.55H92.339l45.658 19.697h335.882l42.697-19.698z" fill="#737160"/><path fill-rule="evenodd" clip-rule="evenodd" d="M793.936 245.821c6.945-3.53 17.306-7.97 22.658-10.134 5.351-2.163 5.465-2.163 5.579-2.163.114 0 .114 0 1.252 3.188 1.139 3.188 3.416 9.45 5.124 15.94 1.708 6.49 2.846 13.094 3.529 16.51.57 3.302.684 3.302.911 3.529l.911.911c.228.228.228.342.342 1.708.228 1.366.569 4.099.683 7.97.114 3.985 0 9.109-.228 14.005-.228 4.896-.683 9.45-1.48 13.207-.797 3.644-1.822 6.49-3.757 9.109-1.936 2.619-4.555 5.124-8.426 7.059-3.871 1.936-8.767 3.302-11.272 3.985-2.505.683-2.505.683-4.099 1.139-1.594.455-4.782 1.48-7.856 1.935-3.074.456-6.262.342-7.856.228-1.594-.114-1.708-.114-1.708-.228v-1.024c0-.911.114-2.847 0-6.832s-.455-10.019-1.594-15.712c-1.139-5.579-3.074-10.817-5.238-15.257-2.163-4.441-4.554-7.97-7.173-10.931-2.618-2.846-5.465-5.01-7.173-6.262-1.708-1.252-2.277-1.708-2.618-1.822-.342-.227-.342-.227.227-.683.456-.455 1.367-1.366 4.099-4.896 2.619-3.529 7.059-9.792 10.931-14.232 3.757-4.213 7.286-6.718 14.232-10.247z" fill="#36342B"/><path fill-rule="evenodd" clip-rule="evenodd" d="M798.262 213.826c-2.049-1.138-4.782-2.504-7.856-4.098-3.074-1.594-6.376-3.188-10.703-5.238-4.326-2.049-9.564-4.44-13.776-6.262l-9.223-4.099c-1.936-.911-2.96-1.252-3.757-1.594-.797-.342-1.48-.569-2.164-.797a12.862 12.862 0 00-1.707-.456c-.57-.113-1.025-.227-1.481-.227-.455 0-.911-.114-1.138-.114-.228 0-.228 0 9.336 5.351 9.564 5.352 28.692 16.168 38.94 22.772 10.247 6.604 11.613 8.881 14.004 10.589 2.391 1.708 5.921 2.846 8.084 3.871 2.278 1.025 3.188 1.822 4.213 2.049.911.228 1.822 0 2.277-.113.456-.114.456-.114.228-.911s-.683-2.391-.911-3.074c-.228-.797-.228-.797-.341-1.025-.114-.228-.342-.569-.57-.911-.227-.342-.455-.569-.911-1.025-.455-.341-1.024-.911-2.163-1.821-1.139-.911-2.846-2.05-4.782-3.416-1.936-1.367-4.213-2.733-6.035-3.871-1.821-1.139-3.301-2.05-4.782-2.847-1.252-.911-2.732-1.708-4.782-2.733z" fill="#fff"/><path fill-rule="evenodd" clip-rule="evenodd" d="M822.173 237.623c1.821-2.164 1.821-2.164 1.594-3.074-.228-.911-.797-2.733-1.253-3.872-.455-1.138-.911-1.707-3.302-3.643-2.391-1.822-6.717-5.01-12.979-8.653-6.263-3.758-14.347-7.97-22.886-12.183a991.54 991.54 0 00-23.455-10.703c-5.693-2.505-7.97-3.529-9.792-4.099-1.821-.569-3.074-.569-3.757-.569-.683 0-.683 0-3.302-1.708-2.619-1.708-7.742-5.01-14.005-9.906-6.262-4.896-13.549-11.499-24.821-21.063-11.158-9.678-26.301-22.431-36.89-31.312-10.589-8.881-16.851-14.004-22.544-17.875-5.693-3.758-11.044-6.149-19.584-7.629-8.539-1.48-20.38-2.05-34.157-2.05-13.777 0-29.603.57-38.257 1.025-8.653.456-10.019.911-10.702 1.594-.683.684-.683 1.708-.911 16.168-.228 14.46-.683 42.356-.456 79.701.228 37.346 1.025 84.142 1.481 107.938.455 23.797.455 24.708.683 25.505.341.797.911 1.48 1.594 1.935.683.456 1.48.683 2.049.797.569.114.797.114 9.792.228 8.881.114 26.415.455 48.048.797 21.633.341 47.252.797 60.232 1.025 12.866.227 12.979.227 13.093.227.114 0 .228 0 .342-1.024.114-1.025.341-3.188 1.138-8.312.911-5.124 2.505-13.208 4.555-19.925 2.049-6.718 4.326-11.955 7.401-16.624 3.074-4.668 6.831-8.767 10.816-11.841 3.985-3.188 8.198-5.465 12.866-7.173 4.668-1.708 9.678-2.733 15.257-3.074 5.579-.342 11.728.227 16.737 1.138 5.01.911 8.881 2.278 12.069 3.758 3.188 1.48 5.693 3.074 6.946 3.871l1.252.797 5.01-3.074c5.01-3.074 15.029-9.223 22.658-14.119 7.628-4.896 12.866-8.539 17.42-12.524 4.327-3.871 8.084-8.312 10.02-10.475z" fill="#4AAB3C"/><path fill-rule="evenodd" clip-rule="evenodd" d="M752.036 217.584c4.782 3.188 13.094 9.678 17.42 13.89 4.327 4.213 4.669 6.035 4.441 7.287-.228 1.253-1.025 1.936-2.847 2.05-1.821.114-4.782-.228-21.747-3.985-16.964-3.758-47.934-11.045-77.423-17.876-29.604-6.832-57.727-13.094-72.301-16.851-14.573-3.644-15.484-4.668-16.281-6.035-.797-1.366-1.594-2.96-1.48-4.326.113-1.367 1.138-2.277 1.707-2.847.57-.455.57-.455 24.48 2.619 23.91 3.074 71.959 9.45 97.577 12.98 25.618 3.53 28.92 4.44 31.766 5.579 2.847 1.139 5.124 2.619 6.946 3.416 1.821.797 2.96.797 7.742 4.099z" fill="#509663"/><path fill-rule="evenodd" clip-rule="evenodd" d="M601.173 193.332c9.109 1.594 24.025 3.871 43.039 6.831 19.014 2.961 42.128 6.718 58.865 9.564 16.737 2.733 27.098 4.555 33.247 5.579 6.148 1.025 8.084 1.139 9.336 1.139 1.252 0 1.708-.114 2.163-.342.342-.227.57-.569.683-1.024.114-.456 0-1.025-.113-1.594-.114-.57-.456-1.139-2.847-3.416-2.505-2.277-7.173-6.376-19.47-17.307-12.296-10.93-32.222-28.692-46.112-40.875-13.891-12.183-21.747-18.786-26.871-22.772-5.238-3.985-7.856-5.237-10.93-6.603-3.189-1.253-6.832-2.619-12.98-3.416-6.035-.911-14.574-1.366-22.089-1.708-7.515-.342-14.232-.455-17.99-.455-3.757 0-4.668 0-5.92.341-1.253.342-2.733 1.025-3.985 2.277-1.253 1.253-2.164 2.961-2.619 4.782-.455 1.708-.455 3.53.114 12.753.569 9.222 1.935 25.959 2.505 34.726.683 8.768.683 9.678 1.024 10.817a12.262 12.262 0 001.936 3.871c1.025 1.366 2.391 2.505 4.668 3.53 2.164.911 5.352 1.822 14.346 3.302z" fill="#403E32"/><path fill-rule="evenodd" clip-rule="evenodd" d="M591.609 188.664c-3.757-.911-5.123-1.708-6.148-2.619a8.58 8.58 0 01-2.163-2.96c-.456-1.025-.798-2.05-1.595-10.589-.797-8.54-2.163-24.707-2.846-33.816-.683-9.109-.797-11.272-.569-12.98.227-1.594.683-2.619 1.594-3.643.911-1.025 2.049-1.936 3.757-2.392 1.708-.455 3.757-.341 6.49-.227 2.846.114 6.262.227 11.614.455 5.351.228 12.524.456 18.331 1.025 5.92.455 10.589 1.139 13.777 1.822 3.188.683 5.01 1.48 5.92 1.821.911.342.911.342 1.025 2.391.114 2.05.456 6.149 1.366 17.762.911 11.614 2.505 30.514 3.416 40.534.797 9.906.911 10.817.911 11.5 0 .683-.228 1.138-2.277.911-2.05-.228-6.035-1.139-12.525-2.164-6.49-1.024-15.37-2.277-22.885-3.415-7.287-1.367-13.436-2.505-17.193-3.416zm56.246-45.772c.797 10.362 2.391 30.059 3.302 40.534.797 10.475.911 11.614 1.025 12.525.114.91.455 1.594.797 2.049.342.569.797 1.025 1.708 1.366.797.342 2.049.683 7.287 1.48 5.237.797 14.574 2.278 19.242 2.961 4.668.683 4.668.683 4.896-2.961.228-3.643.569-10.93.683-17.648.114-6.603-.114-12.638-.455-16.509-.342-3.871-.797-5.579-1.936-7.287-1.139-1.708-3.188-3.416-8.198-7.742-5.01-4.327-13.094-11.5-17.762-15.485-4.668-3.985-5.693-4.896-6.717-5.579-.911-.683-1.822-1.253-2.505-1.48-.683-.228-1.253-.228-1.594 0-.342.227-.57.683-.57 1.48-.113.797 0 1.935.797 12.296z" fill="#E6E6E6"/><path fill-rule="evenodd" clip-rule="evenodd" d="M684.632 173.406c-.456 3.872-1.025 10.931-1.48 16.624a339.97 339.97 0 00-.797 12.98c-.114 2.732 0 3.757.455 4.668.342.797 1.025 1.48 2.619 2.049 1.594.57 4.099 1.025 6.49 1.025s4.668-.455 6.376-1.366c1.708-1.025 3.074-2.505 3.871-5.579.911-3.075 1.366-7.629 1.708-13.322.341-5.807.683-12.752.683-16.623 0-3.871-.228-4.441-.911-5.124-.683-.683-1.936-1.252-3.871-1.708-2.05-.569-4.896-1.024-7.059-1.138-2.164-.228-3.53-.114-4.669.341-1.138.342-1.821 1.025-2.277 1.822-.455.569-.683 1.48-1.138 5.351z" fill="#24231D"/><path fill-rule="evenodd" clip-rule="evenodd" d="M683.607 185.817c.456-5.351.911-10.02 1.139-12.638.227-2.619.341-3.188.455-3.53.114-.455.114-.683.228-.911.114-.227.228-.455.455-.797.228-.227.456-.569.797-.911.228-.227.456-.455.797-.569.342-.114.57-.341.911-.455.342-.114.683-.228 1.025-.228.341 0 .683-.114 1.138-.114h1.708c.683 0 1.48.114 2.391.228s2.05.228 3.075.455c.91.228 1.707.342 2.391.57.683.227 1.252.341 1.935.683a7.21 7.21 0 011.594.911l.683.683c.114.114.114.114-1.138-.114a41.305 41.305 0 00-6.376-1.139c-2.505-.341-5.01-.341-6.376-.114-1.367.114-1.594.342-2.05 1.367-.455 1.024-1.025 2.846-1.594 7.97-.569 5.01-1.138 13.207-1.366 18.9-.228 5.579-.228 8.654 0 10.589.228 1.936.683 2.733 1.366 3.188.683.456 1.48.683 1.822.683.455.114.455.114-.114 0-.569-.114-1.594-.341-2.277-.569-.683-.228-1.025-.342-1.253-.455-.341-.114-.569-.342-.797-.456-.227-.228-.455-.341-.569-.569-.228-.228-.342-.456-.455-.683-.114-.228-.228-.456-.228-.797-.114-.342-.114-.797-.114-1.48 0-.57 0-1.367.114-4.783-.114-3.643.342-9.564.683-14.915zm-112.606 30.97c.455 1.366 1.48 3.416 2.391 4.668.911 1.139 1.936 1.48 5.921 1.594 3.985.114 10.93.114 14.573.114 3.53-.114 3.758-.228 4.896-1.366 1.139-1.139 3.188-3.188 4.213-4.555 1.025-1.366 1.139-1.935 1.025-2.618-.114-.684-.342-1.481-1.48-2.847-1.139-1.366-3.188-3.302-4.213-4.327-1.139-1.024-1.366-1.024-4.668-1.252-3.302-.114-9.678-.342-13.322-.342-3.529 0-4.326.114-5.123.57a8.316 8.316 0 00-2.619 2.391c-.797 1.138-1.366 2.619-1.708 3.529-.342.911-.342 1.367-.342 1.936-.113.569 0 1.139.456 2.505z" fill="#4F4D3E"/><path fill-rule="evenodd" clip-rule="evenodd" d="M580.451 217.584c.569.683 1.594 1.821 2.049 2.504.57.684.683.684 2.505.797 1.936.114 5.579.342 7.401.342s1.822 0 2.619-.797c.797-.797 2.277-2.277 2.96-3.074.797-.797.797-.797.683-.911h-3.529c-3.188 0-9.223 0-12.297-.114-3.074 0-3.188 0-3.188.114.228.228.341.455.797 1.139zm10.133-4.896h-11.272s-.114-.114.683-.911 2.391-2.391 3.188-3.074c.797-.797.798-.797 2.505-.797h6.604c1.708 0 1.822 0 2.05.227.227.228.683.342 1.366 1.025.797.683 1.822 1.822 2.391 2.505.569.569.569.683.569.797v.228s-.114.114-1.252.114c-1.253-.114-3.644-.114-6.832-.114z" fill="#24231D"/><path fill-rule="evenodd" clip-rule="evenodd" d="M713.324 235.801c0 1.139 0 2.733.114 3.644.113.911.113 1.024.569 1.138.455.114 1.138.342 3.416.456 2.277 0 6.034 0 8.084-.114 2.049-.114 2.504-.114 2.732-.342.342-.227.57-.455.683-1.708.114-1.138.114-3.188-.114-4.326-.113-1.139-.341-1.367-.683-1.48-.341-.114-.569-.228-2.846-.342-2.277-.114-6.376-.114-8.653 0-2.278 0-2.505.114-2.733.228-.228.114-.342.341-.455.797-.114.341-.114 1.024-.114 2.049z" fill="#403E32"/><path fill-rule="evenodd" clip-rule="evenodd" d="M714.462 235.118c0 1.025 0 2.847.114 3.757.114.911.228 1.025.456 1.139.341.114.797.228 1.935.228 1.253.114 3.188.114 5.124 0 1.822 0 3.643-.114 4.554-.228.911-.114 1.025-.114 1.139-.228.114-.114.228-.227.228-.911 0-.683 0-1.821-.114-2.732 0-.911-.114-1.708-.114-2.164-.114-.455-.228-.569-1.822-.569h-10.703c-.683 0-.683.114-.797.228v1.48z" fill="#E6E6E6"/><path fill-rule="evenodd" clip-rule="evenodd" d="M682.013 281.686c4.668-4.441 10.93-9.678 17.078-13.435 6.149-3.758 12.069-6.149 19.356-7.515 7.173-1.366 15.713-1.594 22.886-1.139 7.173.456 13.094 1.594 18.103 3.302 5.01 1.708 9.109 3.985 11.728 5.693 2.619 1.708 3.643 2.847 4.213 3.416.569.569.569.569 1.821-.228 1.253-.797 3.758-2.277 6.035-3.757s4.554-2.847 5.579-3.53l1.139-.683-2.619-2.049c-2.619-2.05-7.743-6.149-15.94-9.906-8.198-3.757-19.584-7.401-30.742-8.881-11.158-1.48-22.203-.911-32.222 1.936-10.02 2.846-18.787 8.084-25.049 13.435-6.262 5.351-9.906 10.816-12.069 15.598-2.163 4.896-2.96 9.223-3.188 12.297-.228 3.074.228 5.01.797 6.035.569.911 1.48.911 3.416-.797 1.821-1.822 5.009-5.352 9.678-9.792z" fill="#5DC94C"/><path fill-rule="evenodd" clip-rule="evenodd" d="M798.149 227.262c2.277 4.896 6.376 13.891 8.767 18.787 2.391 4.895 2.96 5.692 3.643 6.262.57.569 1.253.683 3.985 1.935 2.733 1.253 7.629 3.416 10.475 4.669 2.847 1.252 3.53 1.594 3.985 1.707.342 0 .456-.341-.911-4.782-1.366-4.554-4.098-13.207-6.262-18.445-2.163-5.237-3.757-7.059-5.009-8.311-1.139-1.253-1.936-1.822-4.783-3.416-2.846-1.48-7.742-3.985-10.816-5.124-3.074-1.138-4.213-1.025-4.782-.797-.683.228-.797.683-.683 1.253-.114.683.227 1.366 2.391 6.262z" fill="#24231D"/><path fill-rule="evenodd" clip-rule="evenodd" d="M799.743 226.692c1.935 4.441 5.806 13.094 8.083 17.876 2.278 4.782 2.961 5.693 3.644 6.376.683.683 1.252 1.025 3.871 2.164 2.619 1.138 7.173 3.074 9.45 3.871 2.278.797 2.391.569 1.822-1.594-.569-2.05-1.708-6.035-3.416-10.475-1.708-4.441-3.985-9.337-5.351-12.069-1.48-2.733-2.049-3.302-4.554-4.668a365.762 365.762 0 00-9.564-5.01c-2.733-1.367-3.872-1.708-4.555-1.822-.683-.114-.911 0-1.138.228-.114.341-.228.683 1.708 5.123z" fill="#E6E6E6"/><path fill-rule="evenodd" clip-rule="evenodd" d="M826.044 253.335c.455 1.594.683 2.163.683 2.619.114.455.114.683.114.911 0 .227-.114.341-.228.341-.228.114-.455 0-.797 0-.342-.114-.797-.227-1.366-.455-.57-.228-1.367-.456-2.277-.911-.911-.342-2.05-.797-2.619-1.025-.57-.227-.569-.227-2.05-3.415-1.48-3.189-4.44-9.451-6.49-13.891-2.049-4.441-3.074-6.946-3.529-8.426-.569-1.366-.569-1.708-.342-1.821.228-.114.683 0 2.391.797s4.782 2.391 6.376 3.188c1.594.797 1.594.797 2.05 1.821.455 1.025 1.48 2.961 2.505 5.352 1.138 2.505 2.277 5.351 3.302 8.084a94.932 94.932 0 012.277 6.831z" fill="#E8E4BE"/><path fill-rule="evenodd" clip-rule="evenodd" d="M772.986 274.171c1.138-.683 2.163-1.366 2.732-1.707.57-.342.57-.342 2.505 1.821 1.936 2.164 5.921 6.49 9.109 11.386 3.188 4.896 5.693 10.361 7.515 16.51 1.821 6.148 2.96 13.093 3.529 16.737.569 3.643.683 3.871 3.302 3.985 2.619 0 7.742-.114 12.183-.456 4.44-.341 8.312-.91 10.816-1.366 2.505-.455 3.644-1.025 4.213-1.252.57-.228.57-.228.228.227-.342.456-1.139 1.367-1.936 2.164a24.981 24.981 0 01-2.618 2.277c-.911.683-1.822 1.366-3.302 2.163-1.48.683-3.644 1.594-5.807 2.277-2.163.797-4.441 1.481-5.807 1.822-1.366.456-1.935.569-2.277.683-.342.114-.569.228-1.48.456-.911.227-2.505.683-3.871 1.138-1.481.342-2.733.683-4.099.797-1.367.228-2.619.342-3.644.342h-2.391c-.797 0-1.708-.114-2.391-.114-.569 0-.911-.114-1.025-.114-.113 0-.113 0-.113-.911v-4.896c0-2.163-.114-4.668-.342-6.717-.114-2.05-.228-3.53-.569-5.579-.342-2.05-.683-4.555-1.253-6.718-.455-2.163-1.024-3.985-1.594-5.807-.569-1.822-1.366-3.643-2.163-5.465-.797-1.822-1.822-3.757-2.846-5.693-1.025-1.936-2.164-3.757-3.758-5.693-1.594-1.935-3.643-3.871-5.123-5.351-1.594-1.367-2.619-2.277-3.189-2.619l-.569-.455.456-.228c.455-.228 1.252-.797 2.277-1.366.911-.797 2.163-1.481 3.302-2.278z" fill="#403E32"/><path fill-rule="evenodd" clip-rule="evenodd" d="M804.638 315.844c3.985.114 12.525-.342 17.421-.797 4.896-.456 6.034-.911 6.945-2.277 1.025-1.367 1.822-3.644 2.505-6.376.683-2.619 1.139-5.693 1.366-7.857.228-2.163.228-3.529 0-4.44-.227-.911-.569-1.366-1.48-1.822-.911-.455-2.505-1.025-5.92-1.48-3.416-.455-8.768-.911-12.753-1.139-3.985-.227-6.603-.113-7.97 0-1.366.228-1.48.456-1.252.797.228.342.455.57 1.822.797 1.366.228 3.643.456 7.059.684 3.416.227 7.97.455 10.703.683 2.732.227 3.529.341 3.985.455.455.114.455.342.113 1.48-.341 1.139-1.138 3.416-1.594 6.263-.569 2.846-.797 6.489-.91 8.425-.114 1.936-.114 2.277-.114 2.391v.114l-2.961.228c-2.96.227-8.881.683-12.524 1.024-3.644.456-5.238.797-6.262 1.253-1.481.911-2.164 1.48 1.821 1.594z" fill="#24231D"/><path fill-rule="evenodd" clip-rule="evenodd" d="M826.727 298.765c.342-1.025.683-1.594.911-1.936.228-.341.228-.341.228.57 0 .91 0 2.504-.228 4.668-.228 2.049-.683 4.44-1.025 5.807-.341 1.366-.683 1.594-.797 1.48-.228-.114-.228-.57-.228-1.708 0-1.253.228-3.188.342-4.896.228-1.594.455-2.96.797-3.985z" fill="#E8E4BE"/><path fill-rule="evenodd" clip-rule="evenodd" d="M569.521 309.809c20.38.342 60.686.911 80.953 1.253 20.267.341 20.722.455 20.95.455.228 0 .114 0 .114-.114s.114-.455-2.05-1.48c-2.049-1.025-6.376-2.732-8.539-3.643-2.163-.911-2.163-.911-20.153-1.253-17.99-.341-53.969-1.024-72.414-1.366-18.445-.342-19.47-.342-19.925-.342-.57 0-.683 0-.797.114-.114.114-.114.456-.114 1.48v3.416c0 .797.114.911.455.911.456.342 1.025.342 21.52.569zm-20.495-37.459c.228.91.342.91 12.297 1.252 11.841.342 35.41 1.025 52.033 1.366 16.624.342 26.416.342 32.108.228 5.693-.114 7.401-.455 8.312-.683.911-.342.911-.569.114-1.366-.797-.797-2.277-1.936-3.53-3.075-1.252-1.024-2.391-2.049-2.846-2.505-.569-.455-.569-.455-2.505-.569-1.936-.114-6.035-.341-22.202-.569-16.168-.342-44.633-.683-58.979-.797-14.46-.114-14.802 0-15.029.455-.228.456-.228 1.139-.114 2.391 0 1.367.227 3.075.341 3.872z" fill="#5DC94C"/><path fill-rule="evenodd" clip-rule="evenodd" d="M546.294 228.742c.227.342.569.342 8.653.683 8.084.342 23.796.911 36.207 2.619 12.41 1.708 21.291 4.44 29.034 8.084 7.742 3.643 14.346 8.198 18.786 12.41 4.555 4.213 7.06 8.084 8.654 10.475 1.594 2.391 2.277 3.416 3.074 4.213a11.127 11.127 0 002.391 1.822c.797.455 1.366.797 1.822.455.341-.341.569-1.48-.342-4.326-.911-2.847-2.846-7.401-8.198-12.866-5.351-5.466-14.118-11.842-22.772-16.168-8.767-4.327-17.42-6.49-27.781-7.97-10.361-1.367-22.544-2.05-30.97-2.391-8.539-.342-13.435-.456-15.94-.456-2.505 0-2.618.114-2.618.342 0 .341-.114.797-.114 1.366 0 .683 0 1.366.114 1.708z" fill="#3D8C31"/><path fill-rule="evenodd" clip-rule="evenodd" d="M589.446 109.19c9.336.456 22.658 1.253 31.197 1.936 8.54.683 12.297 1.48 15.94 2.619 3.644 1.138 7.06 2.732 10.248 4.554 3.074 1.822 5.807 3.757 12.752 9.564 6.945 5.693 17.99 15.257 24.935 21.292 6.945 5.92 9.678 8.425 11.158 9.791 1.48 1.367 1.594 1.594 1.708 1.822.114.228 0 .57-.114.683-.228.114-.569 0-1.025-.341-.455-.228-.797-.683-7.856-6.832-6.945-6.148-20.494-17.989-29.375-25.276-8.881-7.287-12.98-10.134-17.535-12.297-4.668-2.049-9.791-3.416-19.811-4.441-10.02-1.024-25.049-1.594-34.841-1.935-9.791-.342-14.346-.456-16.851-.342-2.505 0-2.96.228-3.415.57-.456.341-.911.797-1.025 2.391-.228 1.594-.114 4.099-.228 22.771 0 18.673-.114 53.4 0 71.845.114 18.331.342 20.381.569 21.975.228 1.594.342 2.732.911 4.668.57 1.822 1.48 4.44 2.505 6.831.911 2.505 1.936 4.896 2.505 7.287s.797 4.783 1.025 6.832c.114 2.163.227 3.985.683 12.98.455 8.995 1.366 25.163 1.822 34.727.455 9.564.341 12.41.569 14.801.114 2.391.455 4.213 1.138 5.465.684 1.253 1.708 2.05 3.416 2.619 1.708.57 4.213.797 11.5.911 7.401.114 19.697.114 33.133.342 13.435.114 28.237.455 36.207.683 7.97.228 9.222.228 10.133.114.911-.114 1.367-.228 1.594-.456.228-.227.228-.569.456-2.277.227-1.708.569-4.782 1.594-9.564 1.024-4.782 2.846-11.386 5.123-17.079 2.278-5.693 5.01-10.475 6.604-12.866 1.594-2.391 1.936-2.391 2.163-2.277.228.114.342.342-.227 1.139-.57.91-1.708 2.391-3.302 5.351-1.708 3.074-3.871 7.628-5.465 12.411-1.708 4.782-2.847 9.678-3.644 13.435-.797 3.757-1.138 6.262-1.366 8.198-.342 1.935-.569 3.415-1.025 4.099-.455.797-1.138.797-14.915.683-13.663-.114-40.42-.57-55.563-.797-15.144-.228-18.559-.342-20.836-.683-2.278-.228-3.416-.684-4.327-1.367-1.025-.797-1.936-1.822-2.505-3.188s-.569-2.846-.683-5.465c-.114-2.619-.228-6.376-.683-16.965-.57-10.589-1.48-27.895-2.05-37.232-.569-9.336-.683-10.475-1.024-12.183a47.73 47.73 0 00-1.822-6.717c-.911-2.961-2.391-6.718-3.188-9.45-.797-2.619-1.139-4.099-1.253-6.832-.114-2.733-.227-6.718-.227-21.064s-.114-38.939-.114-56.132c0-17.193.114-26.871.114-32.108 0-5.238.113-6.149.227-6.832a3.024 3.024 0 01.797-1.594c.342-.341.684-.569 1.367-.797.683-.227 1.708-.455 4.896-.455 3.188 0 7.97 0 17.306.455zm116.363 113.404c0 8.767.228 24.821.342 32.905.114 8.084.227 8.084.341 8.084.228 0 .456 0 .569-.114.114-.114.228-.342.114-9.223 0-8.881-.113-26.415-.227-35.296s-.114-9.109-.228-9.222c-.114-.114-.455-.114-.569.113-.114.228-.228.57-.228 1.481 0 1.024-.114 2.505-.114 11.272zm12.639-52.262c3.757 3.188 7.628 6.49 11.499 9.337 3.758 2.96 7.515 5.579 10.247 7.401 2.733 1.821 4.555 2.732 5.352 3.188.911.455.797.455.114 1.024-.683.57-2.05 1.594-2.847 2.164-.797.569-1.138.683-1.48.797-.342.114-.569.114-16.396-13.094-15.826-13.094-47.251-39.395-63.077-52.717-15.827-13.321-16.168-13.663-16.282-14.004-.114-.342-.114-.569.456-1.025.569-.455 1.593-1.138 2.163-1.366.569-.342.569-.342 6.034 4.213 5.465 4.44 16.396 13.435 26.188 21.633 9.792 8.198 18.331 15.484 24.479 20.722 6.149 5.351 9.792 8.539 13.55 11.727z" fill="#403E32"/><path fill-rule="evenodd" clip-rule="evenodd" d="M651.157 114.2c-.569.114-1.138.569-1.48.797-.342.228-.228.228-.228.341.114.114.228.342 1.367 1.367 1.138 1.138 3.415 3.074 17.875 15.143s40.99 34.385 54.88 46.113c13.891 11.727 15.257 12.752 15.94 13.321.797.569.911.569 1.481.114.455-.455 1.366-1.366 1.707-1.822.456-.455.456-.455-1.366-1.708-1.822-1.252-5.465-3.871-10.93-8.197-5.579-4.327-12.98-10.475-20.381-16.738-7.401-6.262-14.802-12.524-22.885-19.356-8.084-6.831-16.738-14.118-22.089-18.672-5.351-4.441-7.287-6.149-8.881-7.401-1.594-1.253-2.619-2.164-3.416-2.733-.683-.455-1.024-.683-1.594-.569z" fill="#E6E6E6"/><path fill-rule="evenodd" clip-rule="evenodd" d="M52.375 135.947c-.228-1.024-.91-2.049-1.252-3.415-.342-1.367-.456-2.961-.456-3.758 0-.797 0-.797-.683-.911-.57 0-1.822-.113-3.416-.569-1.594-.455-3.53-1.138-5.465-1.935-1.936-.797-3.757-1.822-4.668-2.164-.911-.341-.911-.114-.911.683s.114 2.278 0 3.985c-.114 1.708-.228 3.758-.456 5.01-.227 1.253-.569 1.936-.569 2.505-.114.569.114 1.025.911 2.163.797 1.253 2.05 3.188 3.416 4.441 1.252 1.366 2.505 2.163 3.985 2.619 1.48.569 3.302.797 4.668.683 1.366-.114 2.163-.57 2.96-1.708.684-1.139 1.367-2.96 1.708-4.327.342-1.138.456-2.277.228-3.302z" fill="#FF9E69"/><path fill-rule="evenodd" clip-rule="evenodd" d="M24.707 379.263c.57 1.025 1.595 2.733 2.278 4.782.683 2.163.91 4.782 1.024 6.262.114 1.594-.114 2.05-.683 2.277-.455.342-1.366.456-4.44.456-3.075 0-8.426-.114-11.5-.228s-4.099-.228-4.554-.455c-.456-.228-.57-.683-.57-1.708 0-1.139-.113-2.847.228-4.668a18.224 18.224 0 011.822-5.124c.797-1.594 1.594-2.846 2.163-3.302.57-.569.911-.455 2.163-.341 1.253.113 3.302.113 5.124.113 1.708 0 3.074.114 3.985.114.911.114 1.366.114 1.708.342.342.228.683.455 1.252 1.48z" fill="#24231D"/><path fill-rule="evenodd" clip-rule="evenodd" d="M16.965 391.446c3.53 0 7.287.114 9.109.114 1.821 0 1.821 0 1.821.455v1.936c0 .569 0 .911-.113 1.138-.114.228-.228.228-.342.228h-2.163c-2.164 0-6.376-.114-9.792-.114-3.416 0-6.035-.114-7.401-.114-1.366 0-1.594 0-1.708-.114-.114 0-.228-.113-.228-.227v-.797c0-.57 0-1.708.114-2.164.114-.569.228-.569 1.936-.455 1.822 0 5.237.114 8.767.114z" fill="#F7CE66"/><path fill-rule="evenodd" clip-rule="evenodd" d="M38.598 135.833c1.025 1.253 1.935 2.391 2.96 3.416s2.164 1.822 3.188 2.277c1.025.456 1.708.683 2.505.228.797-.342 1.48-1.252 2.163-2.96.684-1.594 1.253-3.985 1.48-5.124.228-1.139.228-1.139 1.025-.455.797.683 2.278 2.049 5.693 3.643 3.416 1.594 8.654 3.416 12.183 4.554 1.025.342 4.668 1.708 5.352 1.708 7.286.57 15.37 22.203 18.445 25.505 3.985 4.326 8.084-2.164 9.905 1.366 1.708 3.53 1.936 6.262 1.708 8.881-.228 2.619-1.025 5.124-2.732 7.287-1.708 2.163-4.213 3.985-6.832 4.44-.57.114-1.252.114-1.822.114 1.025 6.946.911 12.752-.683 15.827-1.594 3.188-4.668 3.529-7.856 3.757-3.188.228-6.604.341-11.386.455-4.782.114-11.044.342-17.99.342-6.945.114-14.574.114-20.153.114-5.579 0-9.222-.114-11.158-.228-1.935-.114-2.277-.114-2.505-1.708-.227-1.594-.341-4.554-.569-7.97-.228-3.302-.57-6.945-1.252-9.906-.683-3.074-1.594-5.465-2.277-6.717-.684-1.253-1.253-1.253-2.391-1.594-1.14-.228-3.075-.797-5.352-1.481-2.39-.797-5.237-1.821-6.831-2.504-1.594-.684-2.05-1.025-2.278-1.481-.227-.455-.455-.91.114-4.782.456-3.871 1.708-11.044 2.96-16.168 1.253-5.009 2.733-7.97 3.644-9.564.911-1.594 1.253-1.708 3.644-2.618 2.39-.911 6.945-2.619 10.816-4.555 3.985-1.935 7.401-4.213 9.45-5.693 2.05-1.48 2.847-2.049 3.188-2.277.342-.341.342-.341.911.342.57 1.024 1.708 2.277 2.733 3.529z" fill="#5DC94C"/><path fill-rule="evenodd" clip-rule="evenodd" d="M48.048 140.615c-.569.911-1.024 1.139-1.252 1.253-.341.114-.455.114-1.366-.456-.911-.569-2.391-1.707-4.213-3.415-1.708-1.594-3.757-3.758-4.782-4.782-1.139-1.025-1.253-1.025-2.05-.684a20.869 20.869 0 00-2.732 1.481c-.683.455-.683.797-.342 2.163.456 1.366 1.367 3.871 2.505 6.262a51.803 51.803 0 003.416 6.035c1.025 1.366 1.594 1.708 2.391 1.48.797-.228 1.708-1.025 2.846-2.277a200.594 200.594 0 003.302-3.758c.797-.797.911-.797 2.164 0 1.138.797 3.415 2.505 5.01 3.416 1.593.911 2.732 1.139 3.415 1.025.683 0 1.025-.342 1.025-1.48 0-1.139-.114-3.075-.228-4.896-.114-1.822 0-3.644 0-4.669 0-1.024 0-1.252-.228-1.594-.227-.341-.797-.683-1.821-1.138-1.025-.569-2.505-1.366-3.302-1.594-.797-.228-.797 0-1.025.569-.114.683-.455 1.594-.91 2.96-.456 1.481-1.253 3.189-1.823 4.099z" fill="#4AAB3C"/><path fill-rule="evenodd" clip-rule="evenodd" d="M64.558 160.313c-.228 5.237-.228 11.272-.228 14.46-.114 3.188-.228 3.643-.455 3.871-.228.228-.684.342-3.416.455-2.733.114-7.856.228-12.752.342-4.782.228-9.337.455-11.614.683-2.277.114-2.505.114-3.074-3.529-.57-3.758-1.594-11.159-2.96-17.421-1.367-6.376-2.96-11.613-3.872-14.688-.91-3.074-1.024-3.985-1.252-4.554-.228-.569-.342-.911-.455-.911-.114-.114-.342 0-.456.114-.114.114-.341.342-.683.456-.342.113-.91.341-1.48.455-.57.114-1.025.114-1.367.228-.341.114-.455.227-.569.341 0 .228 0 .456 1.025 4.441 1.025 4.099 3.074 11.955 4.099 21.177 1.024 9.223 1.138 19.926 1.138 26.302 0 6.376-.114 8.539-.227 10.019-.114 1.481-.342 2.391-1.139 2.733-.797.342-2.05.342-2.733.683-.683.342-.569 1.139-.569 1.48 0 .342 0 .342-.455 2.619-.456 2.163-1.253 6.604-2.05 13.208-.797 6.603-1.48 15.257-2.163 29.034-.683 13.663-1.366 32.449-2.733 53.171-1.366 20.723-3.53 43.494-4.554 55.222-1.025 11.727-.797 12.297-.455 12.524.341.342.797.342 4.212.57 3.302.227 9.565.683 12.639.797 3.188.113 3.302-.228 4.212-5.693 1.025-5.579 2.847-16.282 4.896-28.237 2.05-12.069 4.213-25.277 6.604-39.054 2.277-13.777 4.782-28.123 6.149-35.979 1.366-7.856 1.593-9.223 1.935-9.906.342-.683.57-.797.683.114 0 .911-.114 2.847.342 15.371.455 12.524 1.594 35.752 2.619 54.538 1.024 18.787 1.935 33.247 2.277 40.876.455 7.628.455 8.425.455 9.222 0 .911-.114 1.822 1.936 1.594 1.935-.228 6.034-1.594 9.222-2.846 3.302-1.253 5.693-2.505 7.06-3.188 1.252-.684 1.48-.797 1.594-.911.113-.114.341-.342.341-5.238.114-4.896.114-14.574.57-31.652.569-17.079 1.593-41.559 1.935-59.093.342-17.648 0-28.351-1.025-38.94-1.024-10.589-2.505-20.95-3.757-33.474-1.252-12.525-2.05-27.098-2.505-37.46-.455-10.361-.341-16.395-.341-19.697 0-3.188.113-3.644-.114-3.757-.228-.228-.683-.228-1.253-.342-.57-.114-1.252-.455-1.822-.683-.569-.228-1.252-.456-1.594-.456-.455 0-.683.228-.683.456-.114.228-.114.341-.114 1.366-.113 1.025-.227 2.847-.455 6.035 0 3.074-.342 7.514-.57 12.752z" fill="#263238"/><path fill-rule="evenodd" clip-rule="evenodd" d="M61.37 254.132c-.911 2.505-2.391 6.718-3.644 9.565-1.138 2.846-2.05 4.326-2.618 6.603-.57 2.278-.911 5.352-1.48 7.515-.57 2.163-1.367 3.302-1.822 3.985-.456.569-.456.569-.57-2.505-.113-3.188-.341-9.45-.455-13.777-.114-4.326-.114-6.604-.228-7.97 0-1.366-.113-1.935-.113-2.163 0-.228 0-.228.91-.569.911-.342 2.733-.911 4.327-1.822 1.594-.797 2.96-1.822 3.985-2.619 1.025-.797 1.708-1.366 2.163-1.366.456 0 .683.569.683 1.252-.113.57-.227 1.367-1.138 3.871zm-7.287-42.81c2.733 0 5.92-.114 7.4-.114 1.595 0 1.595 0 1.595 1.48s.113 4.555.227 6.832.114 3.757 0 4.554c-.114.797-.341 1.025-3.188 1.139-2.846.227-8.311.455-12.524.683-4.213.114-7.173.114-8.995 0-1.822-.114-2.39-.342-2.733-.683-.341-.342-.341-.797-.341-3.075 0-2.277.114-6.49.114-8.653v-2.049h10.247c3.074 0 5.465-.114 8.198-.114zm-27.099.114c0-.342-.114-.57-.455-.684-.342 0-.57.114-.683.456-.683 4.668-1.48 9.45-2.163 14.46-.684 5.01-1.367 10.475-1.936 16.623-.57 6.49-1.025 13.549-1.708 22.089-.57 7.856-1.139 16.965-2.05 27.781-1.821 22.43-4.554 51.92-7.286 81.295v.114c0 .342.227.569.569.569.341 0 .57-.227.57-.569v-.114c2.732-29.603 5.464-59.092 7.286-81.295.797-10.702 1.48-19.811 2.05-27.781.569-8.54 1.024-15.713 1.594-22.089.569-6.148 1.252-11.499 1.935-16.623.797-4.896 1.594-9.564 2.277-14.232zm51.009 157.466c.114 1.025.114 2.96.114 4.327 0 1.366 0 2.277-.114 2.96 0 .683-.114 1.139-.683 1.708-.57.569-1.708 1.366-3.302 2.049-1.594.683-3.643 1.139-5.579 1.367-1.936.227-3.757.341-5.465.227a43.627 43.627 0 01-4.668-.569c-1.367-.228-2.391-.569-2.847-1.139-.455-.569-.455-1.366-.455-2.391 0-1.024.114-2.049.114-3.188 0-1.024-.228-2.163-.114-2.846.114-.683.57-1.139 1.366-1.139.911-.114 2.277.114 4.668.114s6.035-.341 8.54-.797c2.618-.455 4.326-1.138 5.465-1.594 1.138-.455 1.822-.569 2.277-.455.228.114.57.341.683 1.366z" fill="#24231D"/><path fill-rule="evenodd" clip-rule="evenodd" d="M30.97 373.228c-.342 1.253-.911 2.961-1.14 4.213-.227 1.253-.113 1.936-.113 2.505s-.228.911-1.594 1.253c-1.48.341-4.213.683-7.742.341-3.53-.341-7.857-1.252-10.248-2.049-2.39-.797-2.96-1.367-3.301-1.936-.342-.569-.57-1.025-.57-1.935 0-.911.228-2.392.456-3.644.227-1.252.455-2.505.797-3.302.341-.683.91-1.025 1.594-.911.683.114 1.594.57 3.074 1.025 1.48.455 3.416 1.025 5.807 1.366 2.39.342 5.01.57 7.4.456 2.278 0 4.213-.342 5.124 0 .797.455.797 1.366.456 2.618z" fill="#24231D"/><path fill-rule="evenodd" clip-rule="evenodd" d="M47.479 127.522c.797.228 1.708.341 2.277.455.57.228.797.456.911 1.025.114.569.228 1.366.342 2.049.114.684.114 1.025-.114 1.367-.342.341-1.025.683-2.05.797-1.024.114-2.505 0-4.212-.456-1.708-.455-3.644-1.252-5.124-2.049-1.594-.797-2.733-1.48-3.302-1.936-.57-.341-.57-.341-.57-.797v-4.326c0-.114 0-.456.456-.342.342.114 1.139.569 2.619 1.139 1.594.569 3.985 1.48 5.579 1.935 1.48.683 2.277.911 3.188 1.139z" fill="#FA723C"/><path fill-rule="evenodd" clip-rule="evenodd" d="M29.262 113.631c.341.114.341.114.683 1.48.341 1.253 1.138 3.871 2.05 5.693.796 1.708 1.82 2.619 3.643 3.985 1.821 1.367 4.668 3.074 7.059 4.099 2.39 1.025 4.326 1.139 5.579 1.253 1.252.113 1.935 0 3.302-.57 1.366-.569 3.416-1.821 5.237-3.529 1.822-1.822 3.53-4.099 4.327-5.807.797-1.708.797-2.733 1.025-5.01.114-2.277.455-5.693.797-10.019.341-4.213.91-9.337 1.138-12.411.228-3.074.114-4.213-.455-5.693-.57-1.48-1.822-3.302-4.896-5.237-3.074-1.936-7.97-3.872-12.183-4.1-4.213-.341-7.742 1.025-10.475 2.278-2.733 1.252-4.44 2.277-5.579 3.53-1.139 1.252-1.594 2.504-1.936 3.985-.341 1.366-.683 2.96-1.024 4.44-.342 1.594-.57 3.188-1.025 4.44-.456 1.253-1.025 2.278-1.366 2.96-.342.684-.456 1.025-.57 1.253-.113.228-.227.342-.569.569-.228.228-.57.684-.797 1.822-.228 1.025-.228 2.619.114 3.985.341 1.367.91 2.391 1.708 3.416.797.911 1.594 1.822 2.39 2.391.798.342 1.481.683 1.823.797z" fill="#FF9E69"/><path fill-rule="evenodd" clip-rule="evenodd" d="M55.108 117.616c-.683 0-1.594.228-3.075.455-1.48.228-3.301.342-4.782.342-1.48 0-2.618-.228-3.415-.456-.911-.227-1.594-.455-2.05-.569-.455 0-.57.114-.683.456 0 .341.114.683.456 1.48.341.797 1.024 2.163 1.935 3.074 1.025 1.025 2.277 1.708 3.757 2.049 1.367.342 2.847.228 4.213-.569 1.367-.683 2.505-2.049 3.302-3.188.797-1.139 1.139-1.936 1.253-2.391 0-.455-.228-.683-.911-.683z" fill="#24231D"/><path fill-rule="evenodd" clip-rule="evenodd" d="M54.31 117.844c0 .114-.227.569-.455.911-.228.341-.683.911-1.025 1.366a8.31 8.31 0 01-1.252 1.025c-.456.227-.797.227-1.48.341-.683 0-1.708 0-2.505-.114a33.856 33.856 0 01-2.277-.341c-.57-.114-.911-.228-1.253-.569-.227-.228-.455-.684-.683-1.025-.114-.342-.228-.797-.228-1.025 0-.228 0-.455.114-.569.114-.114.114-.114.57 0 .455.114 1.138.228 2.163.341 1.024.114 2.163.228 3.416.114 1.252 0 2.39-.227 3.302-.341.797-.114 1.138-.228 1.48-.228 0 0 .113 0 .113.114z" fill="#F7F7F7"/><path fill-rule="evenodd" clip-rule="evenodd" d="M50.553 106.686c0-.342-.227-.57-.569-.57-.342 0-.57.228-.57.57-.113.797-.113 1.594.228 2.391.228.455.456.797.797 1.138.342.342.684.569.911.797.228.114.342.228.57.456.341.227.569.341.683.569.114.114.114.228.227.341 0 .114.114.228.114.342v.228c0 .114-.114.114-.114.227l-.227.228c-.114.114-.342.228-.456.342-.341.227-.683.341-1.138.455-.342.114-.456.456-.342.683.114.342.456.456.683.342.456-.114.797-.342 1.253-.456l.683-.341a.89.89 0 00.455-.456c.114-.227.228-.455.342-.569.114-.228.114-.455.114-.683 0-.228-.114-.455-.228-.683-.114-.228-.228-.456-.342-.569a4.952 4.952 0 00-.797-.684c-.113-.113-.341-.227-.569-.341-.228-.228-.57-.456-.797-.683a3.483 3.483 0 01-.57-.797c-.454-.797-.34-1.48-.34-2.277z" fill="#FA723C"/><path fill-rule="evenodd" clip-rule="evenodd" d="M60.573 99.285c-.57-.455-1.708-.797-2.733-.91a7.546 7.546 0 00-2.732-.115c-.911.114-1.708.228-2.164.456-.455.228-.683.57-.683.91 0 .342.228.57.57.798.455.113 1.138.114 1.821.114h1.936c.683.113 1.48.227 2.05.341.569.114.91.228 1.252.228.455 0 .91-.228 1.024-.569.228-.342.228-.797-.341-1.253zm-16.51-1.253c0-.341-.114-.569-.341-.797-.228-.114-.683-.228-1.367-.114-.683.114-1.821.228-2.96.684-1.138.341-2.277.91-2.96 1.366-.683.57-1.025 1.025-1.025 1.48 0 .455.456.797.911.797.456 0 .91-.342 1.48-.797.683-.342 1.48-.797 2.277-1.025.797-.228 1.48-.341 2.05-.455.57 0 1.025 0 1.366-.228a2.48 2.48 0 00.57-.91z" fill="#36342B"/><path fill-rule="evenodd" clip-rule="evenodd" d="M58.182 105.092c.228.569.228 1.138.114 1.821a7.497 7.497 0 01-.57 1.708c-.227.456-.569.797-.797.911a1.253 1.253 0 01-.91 0 2.687 2.687 0 01-.911-1.025c-.228-.455-.342-1.024-.342-1.708 0-.683 0-1.252.228-1.821.227-.456.455-.911.797-1.025.341-.228.91-.228 1.366 0 .57.114.797.569 1.025 1.139zm-15.144 0c.228.569.228 1.138.114 1.821a7.506 7.506 0 01-.57 1.708c-.227.456-.568.797-.796.911-.342.114-.57.114-.911 0a2.688 2.688 0 01-.91-1.025c-.229-.455-.342-1.024-.342-1.708 0-.569 0-1.252.227-1.821.228-.456.456-.911.797-1.025.342-.228.911-.228 1.367 0 .569.114.91.569 1.024 1.139z" fill="#24231D"/><path fill-rule="evenodd" clip-rule="evenodd" d="M32.905 106.23c0-1.366.114-3.643.342-5.807a34.98 34.98 0 011.138-5.806c.456-1.594 1.139-2.733 1.822-3.075.797-.455 1.708-.227 3.074-.113 1.367 0 3.188-.114 4.555-.683 1.366-.57 2.39-1.48 3.074-2.278.683-.797.91-1.48 1.138-1.252.228.114.456 1.025 1.253 1.708.797.797 2.163 1.366 4.213 1.822 1.935.455 4.44.683 6.603.683 2.164 0 3.985-.114 5.352-.683 1.48-.456 2.505-1.253 3.302-2.392.797-1.138 1.366-2.732 1.707-4.212.342-1.48.342-2.96-.227-4.213-.456-1.252-1.48-2.163-2.619-2.619-1.139-.455-2.163-.455-2.619-.797-.455-.341-.341-.91-.341-1.936 0-1.024-.114-2.277-1.139-3.87-.91-1.595-2.733-3.416-4.782-4.213-2.05-.797-4.44-.456-6.148.114-1.708.569-2.733 1.48-3.53 2.163-.797.683-1.252 1.138-2.05 1.025-.683-.114-1.593-1.025-2.732-1.595-1.139-.569-2.391-.796-4.44-.796-1.936.113-4.669.455-6.946 1.707-2.277 1.139-4.099 3.075-5.237 5.01-1.139 1.936-1.48 3.757-1.708 5.238-.228 1.48-.228 2.39-.342 3.188-.114.797-.455 1.252-.91 1.707-.342.456-.798.797-1.025 2.733.227 1.822.114 5.465.227 7.97.114 2.505.342 4.1.456 4.896.114.797.114.797.57.683.454 0 1.252-.114 2.049.228.797.228 1.48.797 2.163 1.822.683 1.024 1.252 2.391 1.708 3.529.455 1.139.797 2.05 1.024 2.391.342.342.57.228.684-.113.341-.228.341-.797.341-2.164z" fill="#24231D"/><path fill-rule="evenodd" clip-rule="evenodd" d="M66.607 176.822c-.455-11.613-.227-11.727-.455-11.727-.228-.114-.797-.228-5.693-1.366-4.896-1.139-14.005-3.188-18.559-4.213l-4.554-1.025.569 12.297c.57 12.297 1.594 37.004 2.163 49.301.57 12.296.57 12.296.57 13.207v3.644c0 1.024.113 1.366 3.643 3.302 3.53 1.821 10.475 5.237 15.143 7.173 4.669 2.049 7.173 2.732 8.312 3.074 1.252.341 1.252.341 1.252-2.277 0-2.619 0-7.97-.455-22.317-.57-14.118-1.48-37.459-1.936-49.073z" fill="#F7CE66"/><path fill-rule="evenodd" clip-rule="evenodd" d="M48.048 160.882l5.238 1.139 1.138 61.256-4.895-1.48-1.48-60.915z" fill="#FBFBFB"/><path fill-rule="evenodd" clip-rule="evenodd" d="M34.954 209.5c-.114 1.48 0 2.846.228 4.213.228 1.366.342 2.846.456 5.009.113 2.278 0 5.352.227 6.832.114 1.594.456 1.594 1.366 1.708.911.114 2.505.455 3.986.569a86.42 86.42 0 015.693.569c2.618.342 6.376.911 8.197 1.139 1.822.228 1.936 0 1.936-.342v-1.252c0-.683.114-1.708.114-8.995 0-7.287 0-20.836-.114-27.554-.114-6.831-.114-6.945-.456-6.945-.227 0-.683 0-4.099-.228-3.415-.114-9.905-.455-13.093-.569l-3.188-.114v3.53c0 3.529 0 10.475-.228 14.915-.341 4.213-.797 5.921-1.025 7.515z" fill="#737160"/><path fill-rule="evenodd" clip-rule="evenodd" d="M46.226 187.183c-2.618-.113-5.237-.227-6.49-.341l-1.252-.114-.114 5.579c-.114 5.579-.341 16.623-.341 22.203-.114 5.579 0 5.579.113 5.806.114.114.456.456 3.075.911 2.618.456 7.742 1.025 10.247 1.253 2.505.227 2.619.227 2.619.227 0-.114 0-.227.114-6.034 0-5.807.113-17.307.113-23.113 0-5.807 0-6.035-.114-6.149 0-.114 0-.114-1.366-.114s-3.985 0-6.604-.114z" fill="#E6E6E6"/><path fill-rule="evenodd" clip-rule="evenodd" d="M42.242 185.248v.683c0 .228.114.228 1.48.342 1.366.114 4.099.227 5.465.227 1.366 0 1.48.114 1.48 0 0 0 .114-.113.114-.227v-.57c0-.114 0-.227-.114-.341l-1.366-.114c-1.366-.114-4.099-.228-5.465-.342-1.367-.114-1.367-.114-1.48-.114-.114.228-.114.228-.114.456z" fill="#B3B3B3"/><path fill-rule="evenodd" clip-rule="evenodd" d="M42.697 186.5v1.367c0 .341.114.341 1.138.455 1.139 0 3.188.114 4.44.228h1.595c.114 0 .114 0 .114-.342 0-.341-.114-.911-.114-1.252v-.342h-.228s-.114.114-.114.228-.114.342-.114.569c0 .228 0 .456-.113.57-.114.113-.342.113-1.253.113-1.025 0-2.846-.113-3.757-.227s-1.025-.114-1.139-.114c-.114 0-.114-.114-.114-.342 0-.227-.113-.683-.113-.911v-.227h-.114c0-.114-.114-.114-.114.227z" fill="#999"/><path fill-rule="evenodd" clip-rule="evenodd" d="M44.177 187.639c-.114.114-.114.456-.114.683 0 .228.114.228.684.228h2.505c.683 0 .683 0 .796-.114v-.455c0-.114 0-.228-.227-.228-.114 0-.456 0-1.025-.114-.57 0-1.594-.114-2.05-.114-.455 0-.455 0-.569.114z" fill="#263238"/><path fill-rule="evenodd" clip-rule="evenodd" d="M37.687 202.327c-1.025 1.48-1.708 2.391-2.732 2.96-1.025.57-2.505.683-5.466-.114-2.96-.683-7.4-2.277-10.702-3.529-3.302-1.253-5.466-2.391-6.604-3.074-1.139-.683-1.139-.911-1.139-1.48 0-.57.114-1.481.683-3.872.57-2.391 1.594-6.262 2.05-8.197.455-1.936.455-1.936.341-1.936-.113 0-.227-.114-.91-.228a64.15 64.15 0 00-3.075-.911c-1.138-.341-2.277-.797-3.643-1.252-1.366-.569-2.847-1.139-3.644-1.48l-.91-.456-.228 2.961c-.228 2.96-.797 8.994-1.139 13.89C.228 200.505 0 204.49 0 206.54c0 2.163.342 2.391 2.05 3.188 1.821.797 5.01 2.163 10.133 3.302 5.123 1.024 12.069 1.821 15.826 2.391 3.871.455 4.554.797 5.01 1.024.455.342.797.684 1.594 1.936.683 1.253 1.936 3.302 2.846 4.554 1.025 1.253 1.708 1.708 2.278 1.936.569.228.91.228 1.138.228.228 0 .228.114.57.455.341.342 1.024.797 1.707 1.139.57.341 1.139.341 1.48.227.342-.113.456-.569.57-.91.114-.342.114-.57.114-1.025 0-.456.114-1.025.114-1.48 0-.456-.228-.911-.456-1.253-.341-.455-.797-.911-1.366-1.366-.456-.455-1.025-1.025-1.253-1.366-.227-.342-.341-.456-.113-.456.227 0 .683.114 1.252.228.455.114 1.025.114 1.366-.228.342-.227.456-.797.456-1.252 0-.456-.228-.797-.57-1.253-.455-.455-1.024-1.024-1.708-2.391-.683-1.252-1.366-3.302-1.821-4.896-.456-1.594-.797-2.96-.911-3.757-.114-.911-.114-1.366.455-2.277.456-.797 1.48-2.05 1.936-2.847.57-.797.683-1.252.683-1.935 0-.569-.114-1.366-.228-1.708-.114-.342-.341-.228-.683-.114-.341.114-.683.342-1.594 1.366a110.696 110.696 0 00-3.188 4.327z" fill="#FF9E69"/><path fill-rule="evenodd" clip-rule="evenodd" d="M10.361 181.946c1.708.57 2.619.911 3.188 1.025.456.114.456.114.456.228v.455c0 .114-.114.342-.57.569-.455.228-1.366.57-2.505.684a20.854 20.854 0 01-3.757 0c-1.252-.114-2.163-.342-3.074-.57-.911-.227-1.708-.569-2.163-.683-.456-.114-.456-.114-.342-.911.114-.797.228-2.391.342-3.074.113-.797.113-.797.455-.569.342.114 1.025.455 2.505 1.024 1.48.342 3.871 1.253 5.465 1.822z" fill="#FA723C"/><path fill-rule="evenodd" clip-rule="evenodd" d="M66.835 77.31c0 .455.455 1.366.342 2.846-.114 1.48-.911 3.416-2.278 5.01-1.366 1.594-3.302 2.96-5.351 3.53-2.05.57-4.327.341-6.148.114-1.822-.228-3.302-.684-3.872-.684-.569 0-.227.342.342.684.57.341 1.252.683 2.505 1.024 1.139.342 2.846.683 4.327.797 1.48.228 2.846.228 4.212.228 1.367 0 2.733 0 3.985-.341 1.253-.342 2.278-1.14 3.075-1.708.683-.684 1.138-1.139 1.48-1.822.341-.57.683-1.366.91-2.163.228-.797.342-1.708.456-2.505.114-.797 0-1.48-.114-2.05-.114-.569-.341-1.024-.57-1.48-.227-.342-.455-.683-.796-1.025-.342-.341-.911-.683-1.367-.91-.683.113-1.138 0-1.138.455z" fill="#36342B"/><path fill-rule="evenodd" clip-rule="evenodd" d="M67.974 215.079c.227 8.767.569 21.406.683 27.782.114 6.376.114 6.376.114 6.603v1.139c0 .228.114.114 7.97-1.48 7.97-1.594 23.796-4.668 31.652-6.262 7.971-1.594 7.971-1.708 7.971-1.936 0-.228 0-.342-.456-14.005a8785.288 8785.288 0 01-1.594-54.538l-.455-13.549-7.97 1.025-31.88 4.099-7.97 1.024.227 5.352c.227 5.351.57 15.94.91 23.682.342 7.629.57 12.411.798 21.064z" fill="#DBA758"/><path fill-rule="evenodd" clip-rule="evenodd" d="M50.44 161.452c-4.783-1.139-8.995-2.05-11.045-2.505l-2.05-.456 7.857-.683c7.856-.683 23.683-2.049 31.539-2.732 7.856-.683 7.856-.683 8.084-.683.227 0 .569.113 5.465.91s14.232 2.278 18.9 2.961l4.669.683-2.391.341c-2.391.342-7.287.911-15.257 1.936s-19.129 2.391-24.708 3.188l-5.579.683-2.732-.569c-2.505-.683-7.97-1.936-12.753-3.074z" fill="#F7CE66"/><path fill-rule="evenodd" clip-rule="evenodd" d="M53.627 136.061l40.42.114.342 24.707-40.534 1.48-.228-26.301z" fill="#DBA758"/><path fill-rule="evenodd" clip-rule="evenodd" d="M49.642 136.175l3.985-.114.228 26.301-3.985-2.049-.228-24.138z" fill="#F7CE66"/><path fill-rule="evenodd" clip-rule="evenodd" d="M76.058 136.175l-6.832-.114v19.128h6.718l.114-19.014zm16.623 25.504l-7.287.911 2.391 71.048 7.06-1.253-2.164-70.706zm-12.183-.228l8.653-.341 3.53.569-7.287.911-4.896-1.139zm-27.212.684l-5.238-1.253 3.871-.683 1.708 1.822-.341.114z" fill="#FBFBFB"/><path d="M89.607 140.274H79.7v6.376h9.906v-6.376z" fill="#FBFBFB"/><path fill-rule="evenodd" clip-rule="evenodd" d="M97.577 166.575l11.613-1.708v7.743l-11.613 1.707v-7.742z" fill="#FBFBFB"/><path fill-rule="evenodd" clip-rule="evenodd" d="M74.919 379.946c.57 1.025 1.594 2.733 2.277 4.782.683 2.163.91 4.782 1.025 6.262.114 1.594-.114 2.05-.683 2.278-.456.341-1.367.455-4.44.455-3.075 0-8.426-.114-11.5-.228-3.075-.114-4.1-.227-4.555-.455-.455-.228-.57-.683-.57-1.708 0-1.139-.113-2.846.229-4.668a18.225 18.225 0 011.821-5.124c.797-1.594 1.594-2.846 2.164-3.302.569-.569.91-.455 2.163-.341 1.252.114 3.302.114 5.123.114 1.708 0 3.075.113 3.986.113.91.114 1.366.114 1.707.342.456.228.684.455 1.253 1.48z" fill="#24231D"/><path fill-rule="evenodd" clip-rule="evenodd" d="M67.29 392.129c3.53 0 7.287.114 9.109.114s1.822 0 1.822.455v1.936c0 .569 0 .911-.114 1.138-.114.228-.228.228-.342.228h-2.163c-2.163 0-6.376-.114-9.792-.114-3.416 0-6.035-.114-7.4-.114-1.367 0-1.595 0-1.709-.113a.245.245 0 01-.227-.228v-.797c0-.569 0-1.708.114-2.163.113-.57.227-.57 1.935-.456 1.822 0 5.238.114 8.767.114z" fill="#F7CE66"/><path fill-rule="evenodd" clip-rule="evenodd" d="M31.083 73.894c.456.911.114 3.302.342 5.238.228 1.935 1.138 3.416 2.505 4.554 1.366 1.139 3.074 1.822 4.554 2.05 1.48.341 2.733.114 3.758-.228 1.024-.342 1.935-1.025 2.504-1.025.57 0 .797.456.57 1.025-.228.57-.911 1.366-2.505 2.05-1.594.683-4.213 1.366-6.718 1.252-2.505-.114-4.896-1.139-6.604-2.619-1.594-1.48-2.505-3.416-2.618-5.465 0-2.163.569-4.44 1.594-5.807.91-1.366 2.163-1.935 2.618-1.025z" fill="#36342B"/><path fill-rule="evenodd" clip-rule="evenodd" d="M412.396 223.391l20.608.341-1.594-38.484-20.608.114 1.594 38.029zm34.954-1.253l20.609-.683-1.594-37.346-20.495.911 1.48 37.118z" fill="#999"/><path fill-rule="evenodd" clip-rule="evenodd" d="M469.325 178.644c-3.074 2.96-5.465 5.351-7.173 7.173-22.089-2.391-47.024-3.416-75.147-3.188 2.619-2.505 7.401-4.668 14.347-6.49 40.533.342 63.191 1.139 67.973 2.505z" fill="#DBA758"/><path fill-rule="evenodd" clip-rule="evenodd" d="M468.983 240.014c-4.554 6.604-6.489 8.425-6.489 8.425-.684-21.405-.798-40.875-.456-62.736a212.76 212.76 0 017.173-7.173c.228 41.559-.228 61.484-.228 61.484z" fill="#DBA758"/><path fill-rule="evenodd" clip-rule="evenodd" d="M462.152 185.817c-.342 18.445-.342 37.915.455 62.736-44.063-.569-75.943-2.618-75.943-2.618-.342-32.45-.228-53.628.341-63.306 25.049-.341 50.098.683 75.147 3.188zm-64.33-6.604c-.342 0-.57-.227-.57-.683 0-.341.228-.683.57-.683 10.816-.342 21.861-.228 32.905.228a578.296 578.296 0 0133.702 2.391c.342 0 .569.341.455.683 0 .342-.227.569-.569.569-11.386-1.138-22.544-2.049-33.588-2.391-11.158-.341-22.089-.341-32.905-.114z" fill="#F7CE66"/><path fill-rule="evenodd" clip-rule="evenodd" d="M418.202 182.857c3.758.114 7.401.228 10.817.455.455-.455-.114 27.44 0 38.598 0 0-10.703-.455-11.158-.455l.341-38.598z" fill="#F7F7F7"/><path fill-rule="evenodd" clip-rule="evenodd" d="M429.019 183.312c-7.173-.341-10.816-.455-10.816-.455 6.49-4.213 9.791-6.376 9.791-6.376 4.669.114 7.06.114 7.06.114-3.985 4.554-6.035 6.717-6.035 6.717z" fill="#E0E0E0"/><path fill-rule="evenodd" clip-rule="evenodd" d="M410.232 148.472c.684 7.059 1.936 19.47 2.619 25.96.683 6.49.683 6.945 3.074 7.287 2.391.341 7.287.683 11.955.569 4.555-.114 8.995-.797 11.272-1.139 2.278-.341 2.619-.455 3.416-6.831.797-6.376 2.05-19.129 2.733-25.505.683-6.376.683-6.376.683-7.059 0-.683 0-1.935-1.139-2.505-1.138-.683-3.529-.683-8.767-.683-5.237-.114-13.435-.228-18.331-.341-4.896-.114-6.604-.114-7.287.797-1.025.797-.911 2.504-.228 9.45z" fill="#FDE742"/><path fill-rule="evenodd" clip-rule="evenodd" d="M406.589 141.982c1.48.455 3.985 1.366 7.515 1.935 3.529.57 7.97.911 12.41.911 4.441 0 8.767-.228 12.525-.683 3.757-.455 6.945-1.252 8.653-1.708 1.708-.455 2.163-.683 2.391-.911.228-.227.342-.455.342-1.935v-5.579c0-1.367 0-1.367-2.164-1.822-2.163-.456-6.49-1.253-12.752-1.594-6.376-.342-14.688-.228-20.153.114-5.465.341-8.198.797-9.564 1.024-1.366.228-1.366.342-1.366 1.822s0 4.555.114 6.035c.113 1.708.569 1.935 2.049 2.391z" fill="#F7CE66"/><path fill-rule="evenodd" clip-rule="evenodd" d="M409.208 134.239c1.935.57 6.034 1.025 10.93 1.253 4.896.341 10.475.455 15.029.341 4.555-.114 7.857-.455 9.792-.683 1.936-.341 2.505-.569 2.505-.797 0-.228-.569-.569-2.505-1.025-1.935-.569-5.237-1.366-10.702-1.708-5.466-.341-12.98-.113-17.876.114-4.782.228-6.832.456-7.97.911-1.025.456-1.139 1.025.797 1.594z" fill="#24231D"/><path fill-rule="evenodd" clip-rule="evenodd" d="M423.326 131.165c-.911-4.213-2.163-12.524-2.277-22.202-.114-9.678.911-20.609 3.302-28.92 2.391-8.312 6.148-13.891 9.564-18.446 3.416-4.554 6.376-8.083 7.856-9.791 1.48-1.708 1.48-1.48 1.139 4.326-.342 5.921-1.139 17.535-2.733 26.87-1.594 9.337-3.985 16.51-6.49 22.659-2.505 6.262-5.009 11.5-6.376 16.282-1.366 4.782-1.594 8.994-1.708 11.158-.113 2.163-.113 2.163-.455 2.163-.342.114-.911.114-1.822-4.099z" fill="#4AAB3C"/><path fill-rule="evenodd" clip-rule="evenodd" d="M423.668 129.116c0-3.644-.114-11.728-2.277-19.356-2.164-7.743-6.263-15.143-10.817-20.609-4.554-5.465-9.45-9.108-12.866-11.272-3.302-2.163-5.01-3.074-5.921-3.074-.911 0-.911.797-.569 3.074.342 2.277 1.025 6.035 2.846 10.248 1.822 4.326 4.669 9.108 7.857 13.093 3.188 4.099 6.49 7.287 9.336 10.703 2.847 3.302 5.01 6.718 6.945 9.906 1.936 3.188 3.416 6.262 4.327 8.198.911 1.935 1.139 2.732 1.139-.911z" fill="#5DC94C"/><path fill-rule="evenodd" clip-rule="evenodd" d="M432.435 117.843c.683-2.277 2.732-6.831 6.831-10.361 4.099-3.529 10.02-5.92 14.347-7.173 4.326-1.366 6.945-1.48 8.197-1.48 1.253 0 1.139.342.683 1.366-.455 1.025-1.252 2.733-2.846 5.238-1.594 2.505-4.099 5.921-7.515 8.539-3.529 2.619-7.97 4.441-11.272 5.352-3.302.911-5.351.797-6.831.797-1.48 0-2.277 0-1.594-2.278z" fill="#4AAB3C"/><path fill-rule="evenodd" clip-rule="evenodd" d="M398.619 85.394a.346.346 0 010-.456.347.347 0 01.456 0c3.074 3.872 6.262 7.629 9.108 11.614 2.847 3.985 5.579 7.97 7.743 12.183 2.163 4.213 3.871 8.539 5.465 12.98 1.48 4.44 2.732 8.995 3.985 13.549 0 .228-.114.341-.228.455-.228 0-.341-.114-.455-.227-1.253-4.555-2.505-8.995-3.985-13.436-1.481-4.44-3.188-8.767-5.352-12.98-2.163-4.212-4.782-8.197-7.742-12.069-2.733-3.87-5.921-7.742-8.995-11.613z" fill="#409133"/><path fill-rule="evenodd" clip-rule="evenodd" d="M435.623 67.974c.114-.228.228-.228.456-.228.227.114.227.228.227.456-1.024 2.504-1.935 5.123-2.846 7.856a150.127 150.127 0 00-2.733 9.564c-.797 3.416-1.594 7.173-2.163 11.272-.797 4.668-1.48 9.678-2.163 14.346-1.139 8.653-1.936 16.396-2.619 24.024 0 .228-.228.342-.456.342-.227 0-.341-.228-.341-.456.797-7.742 1.48-15.484 2.619-24.138.569-4.668 1.366-9.678 2.163-14.346.683-3.985 1.48-7.856 2.277-11.272a155.171 155.171 0 012.733-9.678c.911-2.619 1.935-5.237 2.846-7.742zm18.331 36.434c.228-.113.342 0 .456.114.114.228 0 .342-.114.456-4.782 2.96-9.564 5.807-13.208 8.311-1.822 1.253-3.302 2.391-4.668 3.416s-2.391 2.164-3.416 3.188a16.307 16.307 0 00-2.505 3.188c-.683 1.139-1.252 2.277-1.707 3.53-.911 2.619-1.253 5.693-1.708 8.767 0 .228-.228.342-.456.342-.227 0-.341-.228-.341-.456.455-3.074.797-6.262 1.707-8.881.456-1.366 1.025-2.619 1.822-3.757.683-1.139 1.594-2.277 2.619-3.302 1.025-1.025 2.163-2.163 3.416-3.188a61.854 61.854 0 014.668-3.53c3.871-2.277 8.653-5.237 13.435-8.198z" fill="#409133"/><path fill-rule="evenodd" clip-rule="evenodd" d="M193.56 215.421l-20.267.227 1.366-31.197 20.153.114-1.252 30.856zm-34.386-1.139l-20.153-.569 1.253-30.173 20.153.683-1.253 30.059z" fill="#999"/><path fill-rule="evenodd" clip-rule="evenodd" d="M137.313 179.1c3.075 2.391 5.466 4.326 7.174 5.806 21.633-1.935 46.226-2.732 73.78-2.504-2.619-2.05-7.287-3.758-14.119-5.238-39.85.228-62.052.911-66.835 1.936z" fill="#DBA758"/><path fill-rule="evenodd" clip-rule="evenodd" d="M137.655 229.425c4.554 5.351 6.832 7.97 6.832 7.97.455-17.306.455-34.841 0-52.489a88.774 88.774 0 00-7.174-5.806l.342 50.325z" fill="#DBA758"/><path fill-rule="evenodd" clip-rule="evenodd" d="M144.486 184.907c.57 14.915.57 32.449 0 52.488 49.757-2.505 74.578-3.757 74.578-3.757.114-26.301-.228-43.38-.911-51.236-24.594-.342-49.187.455-73.667 2.505zm63.078-5.238c.342 0 .569-.228.569-.456 0-.341-.227-.569-.455-.569-10.703-.228-21.405-.228-32.336.114-10.93.341-21.861 1.025-33.019 1.936-.341 0-.455.227-.455.569 0 .341.227.455.569.455 11.158-.911 22.089-1.594 33.019-1.935 10.703-.342 21.519-.342 32.108-.114z" fill="#F7CE66"/><path fill-rule="evenodd" clip-rule="evenodd" d="M187.525 182.629c-3.757.114-7.287.228-10.589.342-.455-.342.342 22.202.342 31.197 0 0 10.475-.341 11.044-.341 0 0-.341-10.475-.797-31.198z" fill="#F7F7F7"/><path fill-rule="evenodd" clip-rule="evenodd" d="M176.936 182.971l10.589-.342c-6.49-3.416-9.678-5.237-9.678-5.237-4.668.113-6.945.113-6.945.113a657.562 657.562 0 006.034 5.466z" fill="#E0E0E0"/><path d="M170.179 190.104l-18.682 1.986 1.336 12.567 18.681-1.985-1.335-12.568z" fill="#F7F7F7"/><path fill-rule="evenodd" clip-rule="evenodd" d="M166.803 188.322l-20.608-6.945-.342-66.266 21.292 3.416-.342 69.795z" fill="#DBA758"/><path fill-rule="evenodd" clip-rule="evenodd" d="M166.803 188.322l.342-69.795 23.113-1.253-.797 68.885-22.658 2.163z" fill="#F7CE66"/><path fill-rule="evenodd" clip-rule="evenodd" d="M190.258 117.047l-23.113 1.935-21.292-3.985 22.089-.683 22.316 2.733z" fill="#DBA758"/><path fill-rule="evenodd" clip-rule="evenodd" d="M181.035 117.844l-7.401.569.342 44.405 7.287-.456-.228-44.518z" fill="#F7F7F7"/><path fill-rule="evenodd" clip-rule="evenodd" d="M173.634 118.413l7.401-.57-19.242-3.301h-2.732v1.252l14.573 2.619z" fill="#F7F7F7"/><path fill-rule="evenodd" clip-rule="evenodd" d="M147.447 242.291c-2.392-.114-5.58-.228-8.084-.342-2.505-.113-4.099-.227-5.58-.455-1.48-.114-2.846-.342-3.643-.569-.797-.114-1.139-.228-1.366-.342a1.41 1.41 0 01-.342-.228v3.188l1.253.228c1.252.228 3.643.797 8.425 1.366 4.668.57 11.728 1.139 18.787 1.253 7.059.114 14.232-.228 19.242-.683 5.123-.456 8.084-.911 9.678-1.367 1.594-.341 1.822-.569 1.822-.683.113-.114.113-.114.113-.683v-2.163c0-.569 0-.569-.113-.456-.114.114-.228.228-.57.342-.341.114-.797.228-1.48.342-.683.113-1.594.227-3.074.455-1.48.114-3.416.342-5.351.455-1.936.114-3.758.228-5.921.342-2.163.114-4.441.114-6.945.228H152.57c-1.366-.114-2.732-.114-5.123-.228z" fill="#2B2A29"/><path fill-rule="evenodd" clip-rule="evenodd" d="M158.035 242.405c16.396 0 29.718-.911 29.718-2.164 0-1.252-13.322-2.163-29.718-2.163-16.395 0-29.717.911-29.717 2.163 0 1.253 13.436 2.164 29.717 2.164z" fill="#24231D"/><path fill-rule="evenodd" clip-rule="evenodd" d="M132.987 43.494c-.684.342-.684.342-1.822 5.58-1.025 5.237-3.188 15.598-4.327 20.95-1.025 5.35-1.025 5.464-1.025 5.578 0 .114 0 .114.342.228s.911.455 2.505.91c1.594.456 4.099 1.026 10.475 1.367 6.262.342 16.396.456 24.821.228 8.426-.228 15.029-.683 19.014-1.253 3.872-.455 5.124-.91 5.693-1.138l.57-.228-.683-5.465c-.684-5.465-1.936-16.396-2.619-21.861-.683-5.465-.683-5.465-1.025-5.693-.455-.114-1.252-.455-3.416-.91-2.163-.342-5.465-.684-10.475-1.026-5.009-.227-11.613-.455-17.648-.227-6.034.114-11.386.683-14.801 1.252-3.302.683-4.782 1.367-5.579 1.708z" fill="#FDE742"/><path fill-rule="evenodd" clip-rule="evenodd" d="M145.169 74.122c-2.96.114-6.262.341-9.222.455-2.96.228-5.351.342-6.718.57-1.366.113-1.594.227-1.024.455.569.228 1.821.683 3.757 1.025 1.935.341 4.554.57 7.401.683 2.96.114 6.148.228 9.564.342 3.416.113 6.945.113 11.272 0a565.86 565.86 0 0013.891-.57c4.326-.227 7.97-.683 10.133-.91 2.163-.228 3.074-.456 3.416-.684.341-.228.227-.341-.342-.569-.569-.228-1.48-.342-4.44-.57-2.961-.227-7.857-.455-13.208-.569-5.351-.114-10.93-.114-15.029-.114-4.099.228-6.604.342-9.451.456z" fill="#24231D"/><path fill-rule="evenodd" clip-rule="evenodd" d="M159.06 149.155V77.424l.342-.228c.341-.227.91-.569 1.366-1.252.455-.57.683-1.366.797-1.708l.114-.342h-7.857c-.227 0-.227 0-.227.228.114.228.227.797.569 1.253.342.455.911 1.024 1.252 1.252.342.342.57.456.684.456l.113.113v163.16h2.619v-16.054c.228-15.941.228-48.049.228-75.147z" fill="#2B2A29"/><path fill-rule="evenodd" clip-rule="evenodd" d="M280.434 151.318c-1.481-5.92-3.872-16.509-5.01-23.569-1.139-7.059-1.139-10.361 0-12.866 1.138-2.504 3.416-3.985 7.401-5.237 3.985-1.139 9.905-1.936 21.177-2.163 11.272-.228 28.009.113 38.257.569 10.247.455 14.118 1.025 16.965 2.391 2.96 1.366 4.896 3.53 5.465 6.831.569 3.416-.342 7.971-1.708 14.802-1.366 6.832-3.188 15.94-3.985 20.495-.911 4.554-.911 4.554-2.05 5.806-1.138 1.253-3.529 3.872-5.692 6.946-2.164 3.188-4.099 6.831-5.58 8.425-1.48 1.48-2.391.911-2.96.57-.455-.342-.455-.342-6.604-.114-6.148.227-18.445.797-26.187.569-7.742-.114-10.93-1.025-12.525-1.48-1.594-.456-1.594-.456-2.049 0-.455.341-1.252 1.138-2.391-.569-1.139-1.708-2.619-5.693-4.327-8.312-1.708-2.619-3.415-3.757-4.668-4.896-1.366-1.252-2.049-2.391-3.529-8.198z" fill="#FDE742"/><path fill-rule="evenodd" clip-rule="evenodd" d="M295.463 172.268c.228.455.228.455-1.366 1.936-1.481 1.48-4.555 4.44-6.035 6.034a167.594 167.594 0 01-1.594 1.708s-.114 0-.569-1.822c-.456-1.935-1.139-5.807-2.163-8.767-.911-2.96-2.05-5.123-3.189-6.604-1.138-1.48-2.391-2.505-3.985-3.188-1.594-.797-3.643-1.366-4.895-1.708-1.253-.341-1.595-.341-1.708-.341h.113s-.227 0-.113-.114c.113-.114.683-.228 2.846-.683 2.05-.342 5.693-1.025 7.515-1.253 1.821-.227 1.821-.113 2.049.114.114.228.456.57.683.911.342.342.57.569 1.253.911.683.342 1.708.911 2.619 1.366.91.456 1.594 1.025 2.163 1.48.683.57 1.252 1.253 1.935 2.05.684.911 1.253 1.936 1.822 2.96.57 1.025 1.025 2.05 1.48 2.961.684.91 1.025 1.707 1.139 2.049zm50.553-5.465a75.666 75.666 0 00-2.049 3.53c-.683 1.138-1.139 2.163-1.48 2.732-.228.456-.228.456 1.252 1.822 1.594 1.366 4.668 3.985 6.149 5.351 1.594 1.367 1.594 1.48 1.707 1.48l.684-1.366c.569-1.366 1.821-4.099 3.871-7.401 2.049-3.302 4.896-7.059 6.49-9.564 1.594-2.505 1.821-3.757 2.277-4.326.569-.57 1.366-.456 1.708-.342.341 0 .227 0-.911-.114-1.253-.228-3.53-.569-5.01-.911-1.594-.227-2.391-.455-2.733-.569-.455-.114-.455-.114-.569 0-.228.114-.569.342-1.48.911-.797.455-2.049 1.138-3.302 2.049-1.252.797-2.277 1.708-3.188 2.505-.911.797-1.48 1.594-2.049 2.163-.456.57-.797 1.139-1.367 2.05z" fill="#CBB935"/><path fill-rule="evenodd" clip-rule="evenodd" d="M288.746 179.327a209.112 209.112 0 01-4.099 3.188c-.456.456.683-.114 12.524-.114 11.728 0 34.044.456 44.974.456 10.817 0 10.248-.569 10.02-.797-.342-.228-.342-.228-1.139-.911l-3.985-3.416c-1.594-1.366-3.074-2.732-3.871-3.302-.797-.683-.797-.683-1.025-.569-.227 0-.797.114-2.846.114-2.163 0-5.921-.114-12.866-.228-7.059-.114-17.307-.341-23-.569-5.693-.114-6.603-.228-7.059-.228-.455 0-.455 0-.911.342l-2.391 2.391c-1.366.911-2.732 2.277-4.326 3.643z" fill="#E9D53D"/><path fill-rule="evenodd" clip-rule="evenodd" d="M284.191 184.451c0 1.708.114 5.01.114 6.604v1.708s0 .114 3.871.227c3.871.114 11.5.228 23.341.228 11.841.114 28.009.228 36.093.228 8.084 0 8.198 0 8.198-.114.114-.114.228-.455.228-2.391 0-1.822 0-5.238-.114-7.059-.114-1.822-.228-2.05-.911-2.05-.683-.114-2.049-.114-7.515-.114h-25.959c-11.045 0-23.455-.227-29.831-.227h-7.06c-.227 0-.455 0-.455.114-.114.113-.114.227-.114.455.114.228.114.569.114 2.391z" fill="#F3DE3F"/><path fill-rule="evenodd" clip-rule="evenodd" d="M354.67 183.313v5.806c0 1.708-.114 2.505-.228 2.847 0 .341 0 .341-.228.341-.114 0-.455.114-.683.114h-19.698c-5.806 0-11.044 0-17.989-.114-7.059 0-15.94-.113-21.406-.227-5.465-.114-7.4-.114-8.311-.228-.911 0-.911 0-.911-.114v-9.336c0-.456 0-.57.114-.683 0-.114.114-.114.227-.114h.797v-.683c0-.684-.113-2.164-.341-4.213-.228-1.936-.456-4.441-.683-6.149-.228-1.707-.456-2.618-.797-3.643-.342-.911-.797-1.936-1.367-2.846-.569-.911-1.252-1.594-2.049-2.278-.797-.683-1.822-1.252-2.96-1.708-1.139-.455-2.391-.797-3.302-1.024-.911-.228-1.48-.228-2.164-.228-.683 0-1.48.114-2.391.455a6.454 6.454 0 00-2.618 1.822c-.797.911-1.367 2.164-1.367 3.758-.114 1.594.342 3.301 1.025 5.123.797 1.708 1.822 3.416 2.96 6.035 1.025 2.618 1.936 6.262 3.075 9.564 1.138 3.302 2.391 6.376 3.757 8.881s2.96 4.44 4.44 5.579c1.481 1.252 2.961 1.708 4.099 2.049 1.139.342 2.05.456 13.208.456 11.158 0 32.677-.114 43.835-.228 11.159-.114 11.956-.114 12.866-.455.911-.228 1.936-.797 3.302-2.733 1.367-1.936 3.074-5.351 4.213-8.767 1.139-3.416 1.594-6.718 2.391-8.995.797-2.391 1.936-3.757 2.847-5.579.91-1.822 1.707-4.099 2.163-6.604.455-2.505.569-5.01.114-6.831-.456-1.708-1.594-2.619-2.391-3.075-.797-.455-1.253-.569-1.708-.569-.456-.114-.683-.114-1.366 0-.684 0-1.708.228-2.733.456-.911.227-1.708.569-2.505.91a11.127 11.127 0 00-2.391 1.822c-.797.797-1.594 1.822-2.391 3.188-.797 1.253-1.48 2.847-1.936 4.213-.455 1.366-.797 2.619-1.024 3.985-.228 1.366-.456 2.96-.57 4.441-.114 1.48-.227 2.732-.227 3.415v.683h.455c.455 0 1.366 0 1.822.114.911-.114 1.025 0 1.025 1.367z" fill="#FDE742"/><path fill-rule="evenodd" clip-rule="evenodd" d="M289.77 202.327h-1.48c-.228 0-.228 0-2.277 5.806-2.05 5.807-6.035 17.535-7.97 23.455-1.936 5.921-1.936 6.149-1.708 6.263.228.113.569.227 1.366.227.797 0 2.163-.227 2.96-.455.797-.228.911-.456 2.733-4.441s5.351-11.613 7.97-17.306c2.619-5.807 4.555-9.678 5.352-11.614.797-1.935.683-1.935-.228-1.935h-3.644c-1.366.114-2.391 0-3.074 0zm16.624.114h-2.961l-1.594 4.326a3004.63 3004.63 0 00-6.376 17.534c-1.594 4.555-1.708 4.782-1.594 5.01.114.228.456.228 1.139.342.683 0 1.708 0 2.277-.114.569 0 .569 0 2.619-4.554 2.049-4.555 6.148-13.55 8.197-18.104 2.05-4.554 2.05-4.554 1.708-4.554h-1.594c-.683.114-1.138.114-1.821.114zm43.949-.114h1.48c.228 0 .228 0 2.277 5.806 2.05 5.807 6.035 17.535 7.971 23.455 1.935 5.921 1.935 6.149 1.707 6.263-.227.113-.569.227-1.366.227-.797 0-2.163-.227-2.96-.455-.797-.228-.911-.456-2.733-4.441s-5.351-11.613-7.97-17.306c-2.619-5.807-4.554-9.678-5.351-11.614-.797-1.935-.683-1.935.227-1.935h3.644c1.366.114 2.391 0 3.074 0zm-16.624.114h2.961l1.594 4.326a3004.63 3004.63 0 016.376 17.534c1.594 4.555 1.708 4.782 1.594 5.01-.114.228-.456.228-1.139.342-.683 0-1.708 0-2.277-.114-.569 0-.569 0-2.619-4.554-2.049-4.555-6.148-13.55-8.198-18.104-2.049-4.554-2.049-4.554-1.707-4.554h1.594c.569.114 1.024.114 1.821.114z" fill="#2B2A29"/></g><defs><clipPath id="clip0_601_11413"><path fill="#fff" d="M0 0h834.925v396H0z"/></clipPath></defs></svg>