<svg width="330" height="155" fill="none" xmlns="http://www.w3.org/2000/svg"><g clip-path="url(#clip0_2_28755)"><path fill-rule="evenodd" clip-rule="evenodd" d="M213.618 52.061c.132 9.715.088 28.35.794 41.155.706 12.85 2.117 19.871 3.176 23.845 1.103 3.974 1.853 4.901 3.75 6.182 1.897 1.28 4.941 2.914 9.397 3.356 4.456.441 10.412-.221 13.588-.883 3.221-.663 3.706-1.237 5.074-4.063 1.368-2.826 3.529-7.86 7.324-11.216 3.75-3.356 9.088-4.989 13.235-6.182 4.147-1.192 7.147-1.943 8.779-3.532 1.677-1.59 1.986-3.974 1.677-9.317-.309-5.344-1.28-13.557-2.559-18.723-1.28-5.167-2.912-7.198-6.927-11.216-4.014-4.018-10.455-10.024-15.794-13.733-5.338-3.71-9.617-5.122-14.691-6.712-5.073-1.59-10.985-3.444-15.529-3.488-4.544-.089-7.765 1.59-9.574 2.428-1.809.84-2.162.84-2.162 1.237-.044.441.309 1.192.442 10.862z" fill="#5DC94C"/><path fill-rule="evenodd" clip-rule="evenodd" d="M90.441 122.404c.044 1.016.044 2.208.22 2.87.177.662.574.751 1.236.795.706.044 1.677 0 2.206.044.53.044.53.177.53.53 0 .397 0 1.016-.133 1.325-.088.353-.265.397-.618.53-.353.176-.838.441-1.058.927-.221.486-.177 1.104.176 1.545.353.398 1.015.574 2.03.619 1.058.044 2.514 0 9.132-.045 6.617-.044 18.397-.132 26.823-.397 8.427-.309 13.5-.839 18.794-1.457 5.295-.618 10.853-1.325 16.015-1.899 5.118-.574 9.794-.971 14.603-.971 4.809 0 9.75.485 12.485.75 2.736.265 3.265.398 6.045.442 2.735.044 7.676.044 10.147.044 2.47 0 2.514 0 2.514.353v1.413c0 .354.044.354 2.603.309l10.191-.176 2.559-.044v.574c0 .574.044 1.678.088 2.208.045.574.089.574.177.618.088.044.176.088 4.897-.177s14.118-.795 23.603-1.766c9.485-.972 19.059-2.296 24.794-2.915 5.735-.618 7.677-.485 8.912-.397 1.235.088 1.765.132 6.353-.044 4.588-.177 13.191-.618 17.515-.795 4.323-.221 4.323-.221 3.926-.662-.397-.442-1.147-1.325-1.941-2.076-.794-.795-1.633-1.457-5.559-4.813-3.926-3.4-10.941-9.494-17.735-12.805-6.794-3.312-13.28-3.798-18.265-3.621-4.941.176-8.294 1.015-11.956 4.062-3.618 3.047-7.544 8.258-9.97 11.481-2.427 3.268-3.398 4.548-8.25 5.299-4.853.751-13.589 1.015-18.398-.309-4.808-1.325-5.691-4.195-7.676-5.034-1.985-.883-5.074.265-20.735.486-15.662.176-43.942-.574-62.25-1.016-18.309-.442-26.692-.618-32.206-.751-5.515-.132-8.206-.221-9.75.177-1.544.397-1.986 1.192-2.118 2.075-.088.795 0 1.678.044 2.694z" fill="#2B2923"/><path d="M207.485 0H33.309v105.757h174.176V0z" fill="#4AAB3C"/><path fill-rule="evenodd" clip-rule="evenodd" d="M184.059 123.949c18.176-.044 21.882-.044 23.735-.044h1.853l-.044-.441c-.044-.442-.176-1.369-.353-3.665-.176-2.341-.397-6.05-.485-8.655-.133-2.561-.133-3.974-.133-4.681v-.706H46.897v1.015c0 1.016-.044 3.003-.044 4.019v1.103c0 .089-.044.31-.044 1.193-.044.839-.044 2.384-.088 3.135v.751h10.544s-.044 0-.044 1.192 0 3.577.044 4.769v1.369c0 .044.044.044 7.235.044 7.235 0 21.662 0 45.221-.089 23.47-.132 56.161-.264 74.338-.309z" fill="#36342B"/><path d="M209.074 109.643H39.353v7.021h169.721v-7.021z" fill="#3F3D2E"/><path d="M200.691 109.643h-39.397v20.047h39.397v-20.047z" fill="#3F3D2E"/><path fill-rule="evenodd" clip-rule="evenodd" d="M92.78 123.64l-.221.619h-2.074l.265-.795c.265-.795.75-2.429 1.985-4.593 1.236-2.163 3.22-4.857 4.942-6.8 1.72-1.943 3.132-3.135 4.279-4.062 1.191-.928 2.118-1.59 2.603-1.899.485-.309.485-.309 2.382-.309h16.456c1.412 0 1.412 0 2.03.353.661.353 1.941 1.016 3.529 2.031 1.588 1.06 3.441 2.429 5.162 4.328 1.72 1.854 3.264 4.239 4.103 6.226.838 2.031.926 3.709.97 4.548l.044.839h-1.897l-.044-.53c-.044-.53-.176-1.589-.617-2.958-.442-1.369-1.236-3.091-2.03-4.46-.838-1.413-1.72-2.473-3.044-3.709-1.324-1.237-3.132-2.606-4.456-3.489-1.323-.883-2.118-1.236-2.559-1.413-.441-.177-.529-.132-3.441-.177-2.868 0-8.559-.044-11.426-.088h-2.824l-.882.53c-.883.53-2.647 1.59-4.368 3.091-1.72 1.501-3.353 3.4-4.632 5.078-1.236 1.678-2.118 3.135-2.78 4.504-.794 1.325-1.235 2.561-1.456 3.135z" fill="#737160"/><path d="M115.191 147.176c10.526 0 19.059-8.303 19.059-18.546 0-10.243-8.533-18.546-19.059-18.546-10.526 0-19.059 8.303-19.059 18.546 0 10.243 8.533 18.546 19.059 18.546z" fill="#4F4D3E"/><path d="M115.191 140.817c6.92 0 12.53-5.456 12.53-12.187 0-6.731-5.61-12.187-12.53-12.187-6.92 0-12.529 5.456-12.529 12.187 0 6.731 5.609 12.187 12.529 12.187z" fill="#807E6D"/><path fill-rule="evenodd" clip-rule="evenodd" d="M115.191 137.108c4.456 0 8.074-3.665 8.074-8.169 0-4.504-3.618-8.169-8.074-8.169-4.456 0-8.073 3.665-8.073 8.169 0 4.504 3.661 8.169 8.073 8.169z" fill="#737160"/><path fill-rule="evenodd" clip-rule="evenodd" d="M209.25 115.692c.088 4.901.132 5.74.221 6.314.044.619.132 1.016.22 1.678.133.619.309 1.502.485 2.076.177.574.398.927.795 1.192.397.265.926.442 2.205.442 1.28 0 3.309-.177 6.177-.133 2.868 0 6.529.221 9.926.53 3.397.309 6.486.662 8.956 1.148 2.471.486 4.324 1.06 5.912 1.501 1.588.442 2.868.751 3.706.663.838-.044 1.191-.442 1.544-1.192.397-.707.794-1.767 1.412-3.401.617-1.633 1.456-3.885 2.559-6.447 1.103-2.561 2.514-5.431 4.5-7.859 1.985-2.473 4.544-4.505 7.456-5.741 2.955-1.236 6.308-1.634 9.573-1.59 3.265.045 6.485.53 8.912 1.325 2.426.795 4.015 1.899 5.073 2.826 1.059.927 1.589 1.678 1.897 2.031.265.398.265.398.486.265.22-.132.617-.353 1.147-.839.529-.485 1.191-1.192 1.5-1.589.309-.354.309-.354-.75-1.237-1.059-.883-3.177-2.605-6.221-3.974-3.044-1.369-7.059-2.34-10.676-2.649a28.435 28.435 0 00-9.574.795c-2.735.75-4.985 1.81-6.882 3.046-1.941 1.237-3.53 2.606-4.721 3.886-1.191 1.281-1.985 2.517-2.912 4.107a335.608 335.608 0 00-2.602 4.813c-.706 1.325-1.148 2.12-1.412 2.605-.265.486-.397.707-.486.839-.088.133-.22.221-.529.309-.309.045-.838.089-4.235.133-3.441.044-9.75.088-13.191.088-3.486 0-4.103-.088-4.853-.353s-1.589-.707-2.294-1.369c-.706-.618-1.192-1.457-1.545-2.738-.308-1.28-.397-3.002-.529-6.579-.088-3.577-.176-8.964-.309-14.97-.132-6.005-.265-12.584-.573-21.46-.309-8.876-.75-20.003-1.015-25.567l-.221-5.564h-7.103c-1.5 0-1.72.044-1.985.883-.265.84-.618 2.473-.662 10.73-.044 8.258.133 23.095.309 35.061.177 12.011.221 21.019.309 25.965z" fill="#4AAB3C"/><path fill-rule="evenodd" clip-rule="evenodd" d="M236.779 40.934c2.559.088 4.721.265 6.883.795s4.367 1.457 5.47 1.943c1.103.441 1.147.441 1.192.397.044-.044.132-.177.308-.353.177-.177.442-.442.927-.972.485-.53 1.191-1.28 1.588-1.722.397-.441.485-.53 1.412.221.926.706 2.691 2.252 8.029 6.844 5.383 4.593 14.338 12.276 19.677 16.957 5.338 4.636 7.059 6.27 7.897 7.109.838.795.838.795 1.235.795.397 0 1.147-.044 1.632 0 .442 0 .618.088.75.265.133.176.309.486.486.75.22.265.441.486.75.663.309.176.617.353 1.588.706.971.354 2.559.972 3.441 1.325.882.398 1.059.574 1.103.707.088.132.044.264-2.426.574-2.471.309-7.456.794-11.692 1.06-4.235.264-7.808.308-9.661.353-1.809 0-1.942 0-1.986-.089-.044-.132-.044-.397-.132-1.413-.044-1.015-.176-2.87-.309-3.93-.132-1.06-.22-1.368-.706-2.163-.485-.795-1.411-2.076-2.823-3.93a84.575 84.575 0 00-6.044-6.977c-2.736-2.782-6.221-6.006-8.647-8.17-2.427-2.163-3.706-3.267-5.25-4.37-1.545-1.105-3.265-2.209-5.03-3.004-1.72-.794-3.441-1.324-5.867-1.633-2.427-.31-5.559-.398-9.398-.486-3.838-.044-8.338-.044-11.382-.044h-6.088c-1.368 0-2.515.044-3.088.044-.574 0-.574 0-.442-.22.133-.222.442-.663.706-1.06.265-.398.486-.707.618-.884.132-.176.132-.176.176-.176h2.78c2.735 0 8.25-.045 12.485-.089 4.324.044 7.28.089 9.838.177z" fill="#4F4D3E"/><path fill-rule="evenodd" clip-rule="evenodd" d="M214.941 40.846h-3.088c-.132 0-.132 0-.088-.31.044-.309.088-.883.529-1.545.441-.663 1.279-1.457 1.897-1.987.618-.574 1.015-.883 1.324-1.06.308-.177.573-.133 2.956-.133h10.058c3.177 0 5.074.045 6.706.089 1.633.044 3 .088 4.721.353 1.721.22 3.75.663 5.779 1.28 2.074.619 4.147 1.458 5.471 2.032 1.323.574 1.853.839 2.118.971.264.133.22.133 0 .354-.221.176-.618.574-1.103 1.104a38.794 38.794 0 00-1.412 1.5c-.353.354-.441.487-.485.53l-.045.045-.22-.088c-.221-.089-.706-.265-1.412-.53s-1.676-.618-2.515-.928a31.03 31.03 0 00-2.338-.706c-.662-.177-1.191-.31-1.72-.398-.53-.088-1.059-.176-1.677-.22-.618-.089-1.368-.133-2.382-.177a193.012 193.012 0 00-4.5-.132c-2.162-.044-5.162-.044-8.074-.044s-5.691 0-7.412.044c-1.72-.044-2.338-.044-3.088-.044z" fill="#5DC94C"/><path fill-rule="evenodd" clip-rule="evenodd" d="M256.985 48.573c2.692 2.473 7.853 7.198 12.574 11.48 4.72 4.284 8.956 8.214 11.25 10.201 2.25 2.031 2.559 2.12 2.779 2.164.265 0 .486-.044.927-.31.441-.22 1.147-.617 1.588-.882.397-.265.574-.442.618-.574.088-.133.088-.177.044-.265-.044-.089-.133-.177-5.206-4.46-5.074-4.283-15.088-12.806-20.25-17.177-5.162-4.372-5.471-4.637-5.691-4.77-.221-.132-.353-.176-.486-.088-.132.044-.22.177-.441.442-.22.265-.573.706-.617 1.06-.089.441.176.706 2.911 3.18z" fill="#F9F9F9"/><path fill-rule="evenodd" clip-rule="evenodd" d="M222.088 49.854c.132 2.737.397 7.86.618 12.32.264 4.415.485 8.169 1.147 10.377.617 2.207 1.632 2.87 3.397 3.488 1.765.618 4.323 1.236 8.603 1.722 4.279.442 10.323.795 15.309.972 5.029.176 9.044.22 11.206.22h2.735c.176 0 .176 0 .22.442 0 .441.045 1.325.133 1.81.044.486.132.618.617.618.486 0 1.324-.088 1.809-.176.486-.088.574-.177 1.28-1.016.75-.839 2.117-2.428 2.823-3.444s.75-1.457.75-2.075c0-.619-.088-1.458-.529-2.561-.397-1.06-1.191-2.385-2.338-4.063-1.192-1.634-2.78-3.62-4.412-5.564-1.588-1.899-3.221-3.709-5.294-5.696a81.584 81.584 0 00-6.927-5.917c-2.338-1.766-4.5-3.135-6.926-4.107-2.427-1.015-5.03-1.634-8.471-2.12-3.441-.44-7.632-.75-10.279-.794-2.603-.088-3.574 0-4.28.397-.661.398-1.059 1.104-1.235 1.59-.132.53-.088.839.044 3.577z" fill="#4F4D3E"/><path fill-rule="evenodd" clip-rule="evenodd" d="M223.897 52.15c.133 3.179.441 8.875.75 12.673.309 3.842.574 5.784.927 6.933.353 1.192.838 1.59 1.323 1.854.53.265 1.059.398 2.162.662 1.059.265 2.647.619 4.897 1.016 2.294.353 5.25.707 7.632.972 2.383.264 4.147.441 5.074.53.97.088 1.103.088 1.191-.045.088-.132.088-.397-.397-4.813-.485-4.416-1.5-13.07-2.074-17.707-.573-4.636-.705-5.299-.794-5.608-.088-.353-.132-.353-1.103-.706-.97-.354-2.823-.972-5.514-1.413-2.647-.442-6.133-.707-8.339-.795-2.25-.133-3.264-.089-3.926 0-.662.088-.971.22-1.191.353-.221.133-.397.265-.53.574-.132.265-.22.662-.264 1.192.044.442 0 1.104.176 4.328zm23.426 2.473c.486 4.239 1.368 12.099 1.853 16.426.486 4.327.618 5.078.706 5.476.089.397.089.397 2.647.485 2.559.089 7.677.221 10.236.31 2.603.088 2.647.088 2.691.044.044 0 .044-.045.132-1.943.044-1.9.133-5.653.133-7.595 0-1.943-.089-2.032-.398-2.43-.308-.44-.882-1.236-2.25-2.737a107.77 107.77 0 00-5.558-5.652c-2.03-1.899-3.927-3.4-5.383-4.592-1.5-1.148-2.559-1.943-3.397-2.473-.794-.53-1.323-.795-1.632-.84-.309-.087-.397 0-.397.354 0 .353.132.972.617 5.167z" fill="#F9F9F9"/><path fill-rule="evenodd" clip-rule="evenodd" d="M322.765 101.959c.97 1.899 1.941 4.151 2.47 5.343.53 1.237.618 1.457.618 1.59.044.132.044.132-5.294.088-5.339 0-16.015-.044-21.353-.044h-5.338l-.133.133c-.132.132-.353.397-.794.794-.441.398-1.103.928-1.412 1.193l-.309.265.486.75c.485.751 1.5 2.208 2.338 4.239.838 2.032 1.544 4.549 1.985 6.491.441 1.943.618 3.268.706 3.975.088.706.088.794.088.927 0 .088-.044.221-.044.353 0 .133-.044.221 2.339.133 2.382-.089 7.102-.442 11.602-.574 4.5-.133 8.736-.089 11.339-.221 2.603-.133 3.529-.442 4.279-.972.75-.485 1.324-1.192 1.588-1.854.309-.663.309-1.369.265-2.12-.044-.751-.221-1.589-.265-2.075-.044-.486 0-.618.353-.883.309-.265.883-.707 1.191-1.06.353-.309.442-.53.442-2.252 0-1.722-.044-4.99-.089-6.756-.044-1.767-.044-1.987-.132-2.12-.088-.132-.309-.132-.485-.176-.177 0-.309-.045-.706-1.723-.441-1.678-1.147-5.033-1.544-6.711-.353-1.678-.397-1.723-.397-1.767 0-.044 0-.044-1.103-.044h-5.515l.441.84c.53.706 1.456 2.339 2.383 4.238z" fill="#4F4D3E"/><path fill-rule="evenodd" clip-rule="evenodd" d="M317.118 108.98c-4.059 0-9.883 0-14.03-.044s-6.617-.088-7.853-.132l-1.235-.045s0-.044-.176.177c-.177.177-.53.574-1.015.972-.485.441-1.059.927-1.324 1.148l-.308.265h35.558c.221 0 .353 0 .53-.133.132-.132.309-.353.441-.618s.265-.574.309-.839c.088-.265.088-.486.088-.618 0-.133 0-.133-.397-.133s-1.147-.044-2.691-.044c-1.456 0-3.794 0-7.897.044z" fill="#737160"/><path fill-rule="evenodd" clip-rule="evenodd" d="M286.412 79.041l2.162-.132a35.869 35.869 0 001.72-.132l.353-.045 2.647 1.81c2.647 1.811 7.897 5.388 10.897 7.463 2.956 2.032 3.618 2.517 3.971 2.782.353.221.353.221 3 2.606 2.647 2.384 7.941 7.109 10.632 9.493l2.647 2.385.265.618 1.059 2.473.264.618h-5.338c-5.338 0-15.97-.044-21.309-.044h-5.338l-.264-.309c-.265-.309-.75-.883-1.412-1.457-.618-.574-1.368-1.104-2.162-1.59-.794-.53-1.677-1.016-2.868-1.545a38.874 38.874 0 00-3.97-1.502c-1.236-.397-2.25-.662-3.309-.839-1.059-.221-2.118-.353-2.824-.441-.705-.089-.97-.133-1.147-.133h-.132v-1.104c0-1.104-.044-3.356-.044-6.977V79.395h.617c.618 0 1.898 0 3.309-.044 1.412-.044 2.956-.089 4.103-.133 1.059-.088 1.765-.132 2.471-.177z" fill="#5DC94C"/><path fill-rule="evenodd" clip-rule="evenodd" d="M222.044 87.696c8.691.177 24.971.486 37.191.84 12.177.353 20.25.662 26.03 1.147 5.735.442 9.176 1.06 10.853 1.767 1.676.706 1.632 1.545 1.5 2.031-.177.486-.441.662-1.015.795-.574.132-1.412.22-4.544.22-3.177 0-8.647 0-22.015-.22-13.367-.177-34.632-.53-45.617-.707-11.03-.176-11.824-.176-12.353-.353-.53-.176-.839-.486-.971-1.28-.176-.751-.221-1.988-.132-2.782.044-.84.22-1.237.838-1.458.485-.176 1.544-.176 10.235 0z" fill="#47A639"/><path fill-rule="evenodd" clip-rule="evenodd" d="M284.426 93.967c1.103 0 2.03-.884 2.03-1.987 0-1.104-.927-1.988-2.03-1.988-1.103 0-2.029.884-2.029 1.987 0 1.104.926 1.988 2.029 1.988z" fill="#FDE742"/><path fill-rule="evenodd" clip-rule="evenodd" d="M295.632 78.247c-.926.088-1.808.176-2.647.265-.838.088-1.588.132-1.985.176l-.397.044 1.544 1.06a1606.5 1606.5 0 007.368 5.034c2.779 1.899 5.206 3.577 6.573 4.504 1.368.972 1.677 1.192 1.853 1.28.177.133.177.133.794.707.662.574 1.986 1.723 3.927 3.445 1.941 1.722 4.544 4.062 6.353 5.696 1.853 1.634 2.912 2.605 3.662 3.268.75.662 1.191 1.059 1.411 1.28.221.177.221.177-.397-1.016-.617-1.192-1.809-3.576-2.559-4.99-.705-1.412-.926-1.81-1.058-2.03l-.133-.221h3.044c1.103 0 2.339.044 2.956.044h.618l-.132-.442c-.133-.441-.398-1.369-2.648-3.4-2.25-2.031-6.485-5.122-10.279-7.771-3.794-2.65-7.059-4.814-9.088-6.05-1.985-1.236-2.647-1.546-3-1.722-.353-.177-.353-.177-.53-.088-.176.044-.573.176-1.014.309-.441.088-.971.176-1.721.264-.662.177-1.588.266-2.515.354z" fill="#4AAB3C"/><path fill-rule="evenodd" clip-rule="evenodd" d="M321.309 116.664c-5.074 0-14.956.044-19.985.088-5.03.044-5.118.044-5.25.221a1.301 1.301 0 00-.265.795c0 .309.176.662.441.838.265.177.662.177 5.603.221 4.941.044 14.471.089 19.279.133 4.809 0 4.942 0 5.206-.089.221-.088.618-.22.794-.529.177-.31.221-.751.133-1.06-.089-.265-.265-.398-.486-.442-.176-.132-.397-.176-5.47-.176z" fill="#3F3D2E"/><path fill-rule="evenodd" clip-rule="evenodd" d="M308.118 92.465c-.177.751-.309 2.032-.044 3.665.264 1.634.926 3.621 1.852 4.99.927 1.369 2.118 2.076 3.442 2.694 1.323.618 2.735 1.192 4.014 1.545 1.28.354 2.427.442 3.353.486.971.044 1.721 0 2.25-.177.53-.176.794-.441.839-.794.044-.354-.045-.751-.442-1.634a110.734 110.734 0 00-1.632-3.268c-.574-1.104-1.103-2.075-1.588-2.826-.486-.75-.927-1.236-1.633-1.899a26.912 26.912 0 00-2.691-2.075 12.648 12.648 0 00-2.647-1.369c-.838-.31-1.72-.486-2.426-.574-.75-.044-1.324 0-1.721.132-.529.177-.75.354-.926 1.104z" fill="#FDE742"/><path d="M272.471 147.176c10.526 0 19.058-8.303 19.058-18.546 0-10.243-8.532-18.546-19.058-18.546s-19.059 8.303-19.059 18.546c0 10.243 8.533 18.546 19.059 18.546z" fill="#4F4D3E"/><path d="M272.471 140.817c6.919 0 12.529-5.456 12.529-12.187 0-6.731-5.61-12.187-12.529-12.187-6.92 0-12.53 5.456-12.53 12.187 0 6.731 5.61 12.187 12.53 12.187z" fill="#807E6D"/><path fill-rule="evenodd" clip-rule="evenodd" d="M272.471 137.108c4.455 0 8.073-3.665 8.073-8.169 0-4.504-3.618-8.169-8.073-8.169-4.456 0-8.074 3.665-8.074 8.169 0 4.504 3.662 8.169 8.074 8.169z" fill="#737160"/><path d="M202.368 5.255H37.985v94.938h164.383V5.255z" fill="#4F4D3E"/><path fill-rule="evenodd" clip-rule="evenodd" d="M37.985 100.193V5.255l17.691 7.639v70.828l-17.69 16.471z" fill="#6A6856"/><path fill-rule="evenodd" clip-rule="evenodd" d="M37.985 100.193l17.691-16.47H185.78l16.589 16.47H37.985z" fill="#403E32"/><path fill-rule="evenodd" clip-rule="evenodd" d="M202.368 100.193V5.255l-16.589 7.639v70.828l16.589 16.471z" fill="#6A6856"/><path fill-rule="evenodd" clip-rule="evenodd" d="M202.368 5.255H37.985l17.691 7.639H185.78l16.589-7.64z" fill="#6A6856"/><path fill-rule="evenodd" clip-rule="evenodd" d="M163.323 85.62l7.986.133-.618-14.97-7.985.045.617 14.793zm13.545-.485l7.985-.309-.618-14.483-7.985.353.618 14.44z" fill="#929293"/><path fill-rule="evenodd" clip-rule="evenodd" d="M185.338 68.223a81.507 81.507 0 00-2.779 2.782c-8.559-.927-18.221-1.325-29.118-1.237 1.015-.971 2.868-1.81 5.559-2.517 15.706.177 24.485.486 26.338.972z" fill="#DBB158"/><path fill-rule="evenodd" clip-rule="evenodd" d="M185.25 92.068c-1.765 2.561-2.515 3.267-2.515 3.267-.264-8.301-.309-15.852-.176-24.33a82.589 82.589 0 012.779-2.782c.088 16.117-.088 23.845-.088 23.845z" fill="#DBB158"/><path fill-rule="evenodd" clip-rule="evenodd" d="M182.559 71.049c-.133 7.153-.132 14.704.176 24.33-17.073-.22-29.426-1.015-29.426-1.015-.133-12.585-.088-20.798.132-24.552 9.75-.176 19.456.266 29.118 1.237zm-24.883-2.561c-.132 0-.22-.088-.22-.265 0-.133.088-.265.22-.265 4.192-.133 8.471-.088 12.75.088 4.28.177 8.647.486 13.059.927.133 0 .221.133.177.265 0 .133-.089.221-.221.221-4.412-.441-8.735-.795-13.015-.927-4.323-.132-8.603-.177-12.75-.044z" fill="#F7CE66"/><path fill-rule="evenodd" clip-rule="evenodd" d="M165.573 69.9a123.4 123.4 0 014.192.177c.176-.176-.044 10.642 0 14.97 0 0-4.147-.177-4.324-.177-.044 0 0-4.99.132-14.97z" fill="#F9F9F9"/><path fill-rule="evenodd" clip-rule="evenodd" d="M169.765 70.077c-2.78-.132-4.192-.176-4.192-.176 2.515-1.634 3.795-2.473 3.795-2.473 1.808.044 2.735.044 2.735.044a96.63 96.63 0 00-2.338 2.605z" fill="#E1E2E1"/><path fill-rule="evenodd" clip-rule="evenodd" d="M162.441 56.566c.265 2.737.75 7.55 1.015 10.067.265 2.517.265 2.694 1.191 2.826.926.133 2.824.265 4.632.221 1.765-.044 3.486-.309 4.368-.441.882-.133 1.015-.177 1.324-2.65.308-2.473.794-7.418 1.058-9.891.265-2.473.265-2.473.265-2.738 0-.265 0-.75-.441-.971-.441-.265-1.368-.265-3.397-.265-2.03-.044-5.206-.088-7.103-.133-1.897-.044-2.559-.044-2.824.31-.353.308-.353.927-.088 3.664z" fill="#FDE742"/><path fill-rule="evenodd" clip-rule="evenodd" d="M161.074 54.048c.573.177 1.544.53 2.911.751 1.368.22 3.089.353 4.809.353 1.721 0 3.397-.088 4.853-.265a24.598 24.598 0 003.353-.662c.662-.177.838-.265.927-.353.088-.089.132-.177.132-.75v-2.165c0-.53 0-.53-.838-.706-.839-.177-2.515-.486-4.942-.618-2.47-.133-5.691-.089-7.808.044-2.118.132-3.177.309-3.706.397-.53.089-.53.133-.53.707s0 1.766.044 2.34c.045.662.221.707.795.927z" fill="#FBD16B"/><path fill-rule="evenodd" clip-rule="evenodd" d="M162.088 51.046c.75.22 2.339.397 4.236.486 1.897.132 4.058.176 5.823.132a40.362 40.362 0 003.794-.265c.75-.132.971-.22.971-.309 0-.088-.221-.22-.971-.397-.75-.221-2.029-.53-4.147-.663-2.117-.132-5.029-.044-6.926.044-1.853.089-2.647.177-3.088.354-.442.176-.486.397.308.618z" fill="#080902"/><path fill-rule="evenodd" clip-rule="evenodd" d="M167.515 49.853c-.353-1.633-.838-4.857-.883-8.61-.044-3.754.353-7.993 1.28-11.216.926-3.224 2.382-5.387 3.706-7.154a71.331 71.331 0 013.044-3.797c.573-.663.573-.574.441 1.678-.132 2.296-.441 6.8-1.059 10.421a40.782 40.782 0 01-2.514 8.787c-.971 2.429-1.942 4.46-2.471 6.315-.529 1.854-.618 3.488-.662 4.327-.044.84-.044.84-.176.84-.089.043-.309 0-.706-1.59z" fill="#47B909"/><path fill-rule="evenodd" clip-rule="evenodd" d="M167.691 49.014c0-1.413-.044-4.548-.882-7.506-.838-3.003-2.427-5.873-4.191-7.993a21.552 21.552 0 00-4.986-4.371c-1.279-.84-1.941-1.193-2.294-1.193s-.353.31-.22 1.193c.132.883.397 2.34 1.103 3.974.705 1.678 1.808 3.532 3.044 5.078 1.235 1.59 2.514 2.826 3.617 4.15 1.103 1.281 1.941 2.606 2.691 3.842a34.036 34.036 0 011.677 3.18c.353.75.441 1.06.441-.354z" fill="#64C324"/><path fill-rule="evenodd" clip-rule="evenodd" d="M171.088 44.687c.265-.883 1.059-2.65 2.647-4.018 1.589-1.37 3.883-2.296 5.559-2.782 1.677-.53 2.691-.574 3.177-.574.485 0 .441.132.264.53-.176.397-.485 1.06-1.103 2.03-.617.972-1.588 2.297-2.911 3.313-1.368 1.015-3.089 1.722-4.368 2.075-1.279.353-2.074.31-2.647.31-.574 0-.882 0-.618-.884z" fill="#47B909"/><path fill-rule="evenodd" clip-rule="evenodd" d="M157.985 32.102a.135.135 0 010-.176c.044-.044.133-.044.177 0 1.191 1.501 2.426 2.958 3.529 4.504 1.103 1.545 2.162 3.09 3 4.725.838 1.633 1.5 3.311 2.118 5.033.573 1.723 1.059 3.489 1.544 5.255 0 .089-.044.133-.088.177-.089 0-.133-.044-.177-.088-.485-1.767-.97-3.489-1.544-5.211-.573-1.722-1.235-3.4-2.073-5.034-.839-1.634-1.853-3.18-3-4.68-1.103-1.546-2.295-3.003-3.486-4.505z" fill="#389E00"/><path fill-rule="evenodd" clip-rule="evenodd" d="M172.324 25.346c.044-.088.088-.088.176-.088.088.044.088.088.088.176-.397.972-.75 1.988-1.103 3.047a58.27 58.27 0 00-1.059 3.71c-.308 1.324-.617 2.781-.838 4.371-.309 1.81-.573 3.753-.838 5.564-.441 3.356-.75 6.358-1.015 9.317 0 .088-.088.133-.176.133s-.132-.089-.132-.177c.308-3.003.573-6.005 1.014-9.361.221-1.81.53-3.754.838-5.564a76.25 76.25 0 01.883-4.372 60.24 60.24 0 011.059-3.753c.353-1.016.705-2.031 1.103-3.003zm7.102 14.131c.089-.045.133 0 .177.044.044.088 0 .132-.044.176-1.853 1.148-3.706 2.252-5.118 3.224-.706.486-1.279.927-1.809 1.325-.529.397-.926.838-1.323 1.236a6.308 6.308 0 00-.971 1.236 7.85 7.85 0 00-.662 1.37c-.353 1.015-.485 2.207-.661 3.4 0 .088-.089.132-.177.132s-.132-.088-.132-.177c.176-1.192.309-2.428.662-3.444a5.57 5.57 0 01.705-1.457 6.824 6.824 0 011.015-1.28c.397-.398.838-.84 1.324-1.237a23.913 23.913 0 011.809-1.37c1.5-.926 3.352-2.03 5.205-3.178z" fill="#389E00"/><path fill-rule="evenodd" clip-rule="evenodd" d="M78.53 82.486l-7.853.132.485-12.099 7.853.044-.486 11.923zm-13.324-.398l-7.853-.22.53-11.702 7.808.265-.485 11.657z" fill="#929293"/><path fill-rule="evenodd" clip-rule="evenodd" d="M56.735 68.444a71.382 71.382 0 012.78 2.252c8.382-.75 17.912-1.06 28.588-.972-1.015-.794-2.823-1.457-5.47-2.03-15.442.087-24.089.308-25.898.75z" fill="#DBB158"/><path fill-rule="evenodd" clip-rule="evenodd" d="M56.868 87.961a429.71 429.71 0 002.647 3.091 392.45 392.45 0 000-20.356 34.404 34.404 0 00-2.78-2.252l.133 19.517z" fill="#DBB158"/><path fill-rule="evenodd" clip-rule="evenodd" d="M59.47 70.696c.221 5.784.221 12.585 0 20.356 19.28-.971 28.898-1.457 28.898-1.457.044-10.2-.088-16.824-.353-19.87a294.07 294.07 0 00-28.544.97z" fill="#F7CE66"/><path fill-rule="evenodd" clip-rule="evenodd" d="M83.956 68.665c.132 0 .22-.089.22-.177 0-.133-.088-.22-.176-.22a237.369 237.369 0 00-12.53.043c-4.235.133-8.47.398-12.794.75-.132 0-.176.09-.176.222s.088.176.22.176c4.324-.353 8.56-.618 12.795-.75a233.88 233.88 0 0112.44-.044z" fill="#FBD16B"/><path fill-rule="evenodd" clip-rule="evenodd" d="M76.191 69.813c-1.456.044-2.823.088-4.103.132-.176-.132.133 8.61.133 12.1 0 0 4.059-.133 4.28-.133-.045-.044-.133-4.063-.31-12.1z" fill="#F9F9F9"/><path fill-rule="evenodd" clip-rule="evenodd" d="M72.088 69.945l4.103-.132a138.922 138.922 0 01-3.75-2.032c-1.809.045-2.691.045-2.691.045a253.07 253.07 0 002.338 2.12z" fill="#E1E2E1"/><path d="M69.471 72.71l-7.238.77.517 4.874 7.239-.77-.518-4.874z" fill="#F9F9F9"/><path fill-rule="evenodd" clip-rule="evenodd" d="M68.118 72.02l-7.941-2.737L60 43.627l8.25 1.325-.132 27.069z" fill="#DBB158"/><path fill-rule="evenodd" clip-rule="evenodd" d="M68.118 72.02l.132-27.068 9-.53-.353 26.76-8.78.839z" fill="#F7CE66"/><path fill-rule="evenodd" clip-rule="evenodd" d="M77.25 44.378l-9 .75L60 43.584l8.603-.309 8.647 1.104z" fill="#DBA757"/><path fill-rule="evenodd" clip-rule="evenodd" d="M73.676 44.687l-2.911.221.176 17.221 2.824-.176-.089-17.266z" fill="#F9F9F9"/><path fill-rule="evenodd" clip-rule="evenodd" d="M70.765 44.908l2.912-.22-7.5-1.326-1.06.045.045.485 5.603 1.016z" fill="#F9F9F9"/><path fill-rule="evenodd" clip-rule="evenodd" d="M60.662 92.951c-.927-.044-2.162-.088-3.133-.132-.97-.045-1.588-.089-2.162-.177-.573-.044-1.102-.133-1.411-.22-.31-.045-.442-.09-.53-.133-.088-.044-.132-.089-.132-.089v1.236l.485.089c.485.088 1.412.31 3.265.53a74.46 74.46 0 007.28.486 74.135 74.135 0 007.455-.265c1.986-.177 3.133-.354 3.75-.53.618-.133.706-.221.706-.265.044-.044.044-.044.044-.265v-.84c0-.22 0-.22-.044-.176a.471.471 0 01-.22.133 3.776 3.776 0 01-.574.132c-.265.044-.618.089-1.191.177-.574.044-1.324.132-2.074.177-.75.044-1.456.088-2.294.132-.838.044-1.72.044-2.691.088h-4.544a21.626 21.626 0 00-1.985-.088z" fill="#141515"/><path fill-rule="evenodd" clip-rule="evenodd" d="M64.765 92.995c6.353 0 11.514-.353 11.514-.839s-5.161-.839-11.514-.839-11.515.353-11.515.84c0 .485 5.162.838 11.515.838z" fill="#080902"/><path fill-rule="evenodd" clip-rule="evenodd" d="M55.059 15.808c-.265.133-.265.133-.706 2.164a669.25 669.25 0 01-1.677 8.125c-.44 2.075-.397 2.12-.397 2.163 0 .045 0 .045.133.089.132.044.353.177.97.353.618.177 1.589.397 4.06.53 2.425.133 6.352.177 9.617.088 3.264-.088 5.823-.265 7.367-.485 1.5-.177 1.986-.354 2.206-.442l.22-.088-.264-2.12c-.265-2.12-.75-6.358-1.015-8.478-.264-2.12-.264-2.12-.397-2.208-.176-.044-.485-.177-1.323-.353-.838-.133-2.118-.265-4.059-.398-1.941-.088-4.5-.176-6.838-.088-2.339.044-4.412.265-5.736.486-1.323.309-1.897.53-2.161.662z" fill="#FDE742"/><path fill-rule="evenodd" clip-rule="evenodd" d="M59.735 27.73c-1.147.045-2.426.133-3.573.177-1.148.088-2.074.133-2.603.221-.53.044-.618.088-.397.177.22.088.706.265 1.456.397s1.764.22 2.867.265c1.147.044 2.383.088 3.706.133a72.02 72.02 0 004.368 0c1.676-.045 3.706-.133 5.382-.221 1.677-.089 3.088-.265 3.927-.354.838-.088 1.19-.176 1.323-.264.132-.089.088-.133-.132-.221-.221-.089-.574-.133-1.721-.221-1.147-.088-3.044-.177-5.118-.22-2.073-.045-4.235-.045-5.823-.045a187.14 187.14 0 01-3.662.177z" fill="#080902"/><path fill-rule="evenodd" clip-rule="evenodd" d="M65.162 56.786V28.967l.132-.088c.132-.089.353-.221.53-.486.176-.22.264-.53.308-.662l.044-.133h-3.044c-.088 0-.088 0-.088.088.044.089.088.31.22.486.133.177.353.398.486.486.132.132.22.176.264.176l.045.045v63.277h1.014V85.93c.045-6.182.045-18.59.089-29.144z" fill="#141515"/><path fill-rule="evenodd" clip-rule="evenodd" d="M112.191 57.625c-.573-2.296-1.5-6.403-1.941-9.14-.441-2.738-.441-4.018 0-4.99.441-.971 1.324-1.545 2.868-2.031 1.544-.442 3.838-.75 8.206-.84 4.367-.088 10.853.045 14.823.222 3.971.176 5.471.397 6.574.927 1.147.53 1.897 1.369 2.117 2.65.221 1.324-.132 3.09-.661 5.74-.53 2.65-1.236 6.182-1.545 7.948-.353 1.766-.353 1.766-.794 2.252-.441.486-1.367 1.501-2.206 2.694-.838 1.236-1.588 2.65-2.161 3.267-.574.574-.927.354-1.147.221-.177-.132-.177-.132-2.559-.044-2.383.088-7.147.31-10.147.22-3-.043-4.236-.397-4.853-.573-.618-.177-.618-.177-.794 0-.177.132-.486.441-.927-.221-.441-.663-1.015-2.208-1.676-3.224-.662-1.015-1.324-1.457-1.809-1.898-.53-.442-.794-.883-1.368-3.18z" fill="#FDE742"/><path fill-rule="evenodd" clip-rule="evenodd" d="M118.015 65.794c.088.177.088.177-.53.751-.573.574-1.764 1.722-2.338 2.34a67.59 67.59 0 01-.617.663s-.045 0-.221-.707c-.177-.75-.441-2.252-.838-3.4-.397-1.148-.794-1.987-1.236-2.56-.441-.575-.926-.972-1.544-1.237-.617-.31-1.411-.53-1.897-.663-.485-.132-.617-.132-.662-.132h.045s-.089 0-.045-.044c.045-.044.265-.089 1.103-.265.795-.133 2.206-.398 2.912-.486.706-.088.706-.044.794.044.044.089.177.22.265.353.132.133.221.221.485.354.265.132.662.353 1.015.53.353.176.618.397.838.574.265.22.486.485.75.794.265.354.486.751.706 1.148.221.398.397.795.574 1.149.22.309.353.618.441.794zm19.588-2.119c-.221.353-.529.883-.794 1.369-.265.441-.441.839-.574 1.06-.088.176-.088.176.486.706.617.53 1.808 1.546 2.382 2.075.618.53.618.575.662.575l.264-.53c.221-.53.706-1.59 1.5-2.87.795-1.281 1.898-2.738 2.515-3.71.618-.971.706-1.457.883-1.678.22-.22.529-.176.661-.132.133 0 .089 0-.353-.044-.485-.089-1.367-.221-1.941-.354-.617-.088-.926-.176-1.059-.22-.132-.045-.132-.045-.22 0-.088.044-.221.132-.574.353-.309.176-.794.441-1.279.795-.485.309-.883.662-1.235.971-.353.31-.574.618-.795.84-.176.22-.308.44-.529.794z" fill="#C6B532"/><path fill-rule="evenodd" clip-rule="evenodd" d="M115.368 68.488a80.448 80.448 0 01-1.589 1.236c-.176.177.265-.044 4.853-.044 4.544 0 13.192.177 17.427.177 4.191 0 3.97-.221 3.882-.31-.132-.088-.132-.088-.441-.352l-1.544-1.325c-.618-.53-1.191-1.06-1.5-1.28-.309-.266-.309-.266-.397-.222-.088 0-.309.044-1.103.044-.838 0-2.294-.044-4.985-.088-2.736-.044-6.706-.132-8.912-.22-2.206-.045-2.559-.089-2.735-.089-.177 0-.177 0-.353.133l-.927.927c-.485.397-1.015.883-1.676 1.413z" fill="#E8D43F"/><path fill-rule="evenodd" clip-rule="evenodd" d="M113.647 70.475c0 .662.044 1.943.044 2.561v.662s0 .045 1.5.089 4.456.088 9.044.088c4.589.044 10.853.088 13.986.088 3.132 0 3.176 0 3.176-.044.044-.044.088-.176.088-.927 0-.707 0-2.031-.044-2.738-.044-.706-.088-.795-.353-.795-.264-.044-.794-.044-2.911-.044h-10.059c-4.28 0-9.088-.088-11.559-.088h-2.735c-.089 0-.177 0-.177.044-.044.044-.044.088-.044.177 0 .132 0 .265.044.927z" fill="#F1DB41"/><path fill-rule="evenodd" clip-rule="evenodd" d="M140.956 70.078v2.252c0 .662-.044.971-.088 1.104 0 .132 0 .132-.089.132-.044 0-.176.044-.264.044h-7.633c-2.25 0-4.279 0-6.97-.044-2.735 0-6.177-.044-8.294-.088-2.118-.044-2.868-.044-3.221-.088-.353-.045-.353 0-.353-.045v-3.621c0-.176 0-.22.044-.264 0-.045.044-.045.089-.045h.308v-.265c0-.265-.044-.839-.132-1.633-.088-.751-.176-1.723-.265-2.385-.088-.662-.176-1.016-.309-1.413a6.238 6.238 0 00-.529-1.104c-.221-.353-.485-.618-.794-.883-.309-.265-.706-.486-1.147-.662-.441-.177-.927-.31-1.28-.398-.352-.088-.573-.088-.838-.088a2.62 2.62 0 00-.926.176 2.503 2.503 0 00-1.015.707 2.165 2.165 0 00-.529 1.457c-.044.618.132 1.28.397 1.987.309.663.706 1.325 1.147 2.34.397 1.016.75 2.43 1.191 3.71.441 1.28.926 2.473 1.456 3.444.529.971 1.147 1.722 1.72 2.164.574.486 1.147.662 1.589.795.441.132.794.176 5.117.176 4.324 0 12.662-.044 16.986-.088 4.323-.044 4.632-.044 4.985-.177.353-.088.75-.309 1.279-1.06.53-.75 1.191-2.075 1.633-3.4.441-1.324.617-2.605.926-3.488.309-.927.75-1.457 1.103-2.164a9.68 9.68 0 00.838-2.56c.177-.972.221-1.944.044-2.65a1.921 1.921 0 00-.926-1.193c-.309-.176-.485-.22-.662-.22-.176-.044-.265-.044-.529 0-.265 0-.662.088-1.059.176a6.32 6.32 0 00-.971.354 4.326 4.326 0 00-.926.706 5.99 5.99 0 00-.927 1.236c-.308.486-.573 1.104-.75 1.634-.176.53-.308 1.016-.397 1.546-.088.53-.176 1.148-.22 1.722-.044.574-.088 1.06-.088 1.325v.265h.176c.176 0 .529 0 .706.044.309-.044.353 0 .397.53z" fill="#FDE742"/><path fill-rule="evenodd" clip-rule="evenodd" d="M115.765 77.452h-.574c-.088 0-.088 0-.882 2.252s-2.338 6.8-3.088 9.096c-.75 2.297-.75 2.385-.662 2.429.088.044.22.088.529.088.309 0 .838-.088 1.147-.176.309-.089.353-.177 1.059-1.723.706-1.545 2.074-4.504 3.088-6.711 1.015-2.252 1.765-3.754 2.074-4.504.309-.751.265-.751-.088-.751h-2.603zm6.441 0h-1.147l-.618 1.678c-.617 1.678-1.853 5.078-2.47 6.8-.618 1.766-.662 1.855-.618 1.943.044.088.177.088.441.132.265 0 .662 0 .883-.044.22 0 .22 0 1.014-1.766s2.383-5.255 3.177-7.021.794-1.766.662-1.766h-.618c-.221.044-.397.044-.706.044zm17.074 0h.573c.088 0 .088 0 .882 2.252.795 2.252 2.339 6.8 3.089 9.096.75 2.297.75 2.385.661 2.429-.088.044-.22.088-.529.088-.309 0-.838-.088-1.147-.176-.309-.089-.353-.177-1.059-1.723-.706-1.545-2.073-4.504-3.088-6.711-1.015-2.252-1.765-3.754-2.074-4.504-.308-.751-.264-.751.089-.751h2.603zm-6.442 0h1.147l.618 1.678a1161.1 1161.1 0 012.471 6.8c.617 1.766.661 1.855.617 1.943-.044.088-.176.088-.441.132-.265 0-.662 0-.882-.044-.221 0-.221 0-1.015-1.766-.794-1.766-2.382-5.255-3.176-7.021-.795-1.766-.795-1.766-.662-1.766h.617c.221.044.398.044.706.044z" fill="#141515"/><path fill-rule="evenodd" clip-rule="evenodd" d="M20.294 53.695c-.088-.397-.353-.795-.485-1.325a6.769 6.769 0 01-.177-1.457c0-.309 0-.309-.264-.353-.221 0-.706-.044-1.324-.22a20.805 20.805 0 01-2.118-.752c-.75-.309-1.456-.706-1.808-.838-.353-.133-.353-.045-.353.264 0 .31.044.884 0 1.546-.045.662-.089 1.457-.177 1.943s-.22.75-.22.971c-.045.221.044.398.352.84.31.485.795 1.236 1.324 1.721.485.53.97.84 1.544 1.016a4.4 4.4 0 001.809.265c.53-.044.838-.22 1.147-.662.265-.442.53-1.148.662-1.678.132-.442.176-.84.088-1.28z" fill="#FFAF69"/><path fill-rule="evenodd" clip-rule="evenodd" d="M9.574 148.059c.22.398.617 1.06.882 1.855.265.839.353 1.855.397 2.429.044.618-.044.794-.265.883-.176.132-.53.176-1.72.176-1.192 0-3.265-.044-4.456-.088-1.191-.044-1.588-.088-1.765-.177-.176-.088-.22-.264-.22-.662 0-.441-.045-1.104.088-1.81a7.066 7.066 0 01.706-1.987c.308-.619.617-1.104.838-1.281.22-.221.353-.177.838-.132.485.044 1.28.044 1.985.044.662 0 1.192.044 1.544.044.353.044.53.044.662.132.133.089.265.221.486.574z" fill="#080902"/><path fill-rule="evenodd" clip-rule="evenodd" d="M6.574 152.828c1.367 0 2.823.044 3.529.044s.706 0 .706.177v.751c0 .22 0 .353-.044.441-.044.089-.089.089-.133.089h-.838c-.838 0-2.47-.045-3.794-.045-1.324 0-2.338-.044-2.868-.044-.53 0-.617 0-.661-.044-.045 0-.089-.044-.089-.088v-.309c0-.221 0-.663.044-.839.045-.221.089-.221.75-.177.706 0 2.03 0 3.397.044z" fill="#FBD16B"/><path fill-rule="evenodd" clip-rule="evenodd" d="M14.956 53.651c.397.486.75.927 1.147 1.325.397.397.838.706 1.235.883.397.177.662.265.97.088.31-.132.574-.485.84-1.148.264-.618.484-1.545.573-1.987.088-.441.088-.441.397-.176.309.264.882.794 2.206 1.412 1.323.619 3.352 1.325 4.72 1.767.397.132 1.809.662 2.074.662 2.823.221 5.956 8.61 7.147 9.891 1.544 1.678 3.132-.839 3.838.53.662 1.37.75 2.429.662 3.445-.089 1.015-.397 1.987-1.059 2.826-.662.839-1.632 1.545-2.647 1.722-.22.044-.485.044-.706.044.397 2.694.353 4.945-.265 6.138-.617 1.236-1.809 1.369-3.044 1.457-1.235.088-2.559.132-4.412.177-1.853.044-4.279.132-6.97.132-2.691.044-5.647.044-7.809.044s-3.573-.044-4.324-.088c-.75-.044-.882-.044-.97-.663-.088-.618-.132-1.766-.22-3.09-.089-1.281-.221-2.694-.486-3.842-.265-1.192-.618-2.12-.882-2.605-.265-.486-.486-.486-.927-.619-.441-.088-1.191-.309-2.073-.574-.927-.309-2.03-.706-2.647-.971-.618-.265-.795-.398-.883-.574-.088-.177-.176-.353.044-1.855.177-1.501.662-4.283 1.147-6.27.486-1.943 1.06-3.091 1.412-3.71.353-.617.485-.662 1.412-1.015.926-.353 2.691-1.016 4.191-1.766a25.444 25.444 0 003.662-2.208 62.372 62.372 0 011.235-.883c.133-.133.133-.133.353.132.22.398.662.928 1.059 1.37z" fill="#4AAB3C"/><path fill-rule="evenodd" clip-rule="evenodd" d="M18.618 55.55c-.22.353-.397.441-.486.486-.132.044-.176.044-.53-.177-.352-.22-.925-.662-1.631-1.325-.662-.618-1.456-1.457-1.853-1.854-.441-.398-.486-.398-.795-.265a8.086 8.086 0 00-1.058.574c-.265.176-.265.309-.133.839.177.53.53 1.501.97 2.428.442.928.971 1.81 1.325 2.34.396.53.617.663.926.575.309-.089.662-.398 1.103-.883a77.05 77.05 0 001.28-1.458c.308-.309.352-.309.837 0 .442.31 1.324.972 1.942 1.325.617.353 1.058.442 1.323.398.265 0 .397-.133.397-.575 0-.441-.044-1.192-.088-1.898-.044-.707 0-1.413 0-1.81 0-.398 0-.486-.088-.619-.088-.132-.309-.265-.706-.442-.397-.22-.97-.53-1.28-.618-.308-.088-.308 0-.396.221-.045.265-.177.618-.354 1.148-.176.53-.485 1.192-.705 1.59z" fill="#5DC94C"/><path fill-rule="evenodd" clip-rule="evenodd" d="M25.015 63.145c-.088 2.031-.088 4.371-.088 5.608-.045 1.236-.089 1.413-.177 1.501-.088.088-.265.133-1.323.177-1.06.044-3.045.088-4.942.132-1.853.089-3.617.177-4.5.265-.882.044-.97.044-1.19-1.369-.221-1.457-.618-4.327-1.148-6.756-.53-2.473-1.147-4.504-1.5-5.696-.353-1.192-.397-1.545-.485-1.766-.088-.221-.133-.354-.177-.354-.044-.044-.132 0-.176.045a.682.682 0 01-.265.176c-.132.044-.353.133-.573.177-.221.044-.397.044-.53.088-.132.044-.176.089-.22.133 0 .088 0 .176.397 1.722.397 1.59 1.19 4.636 1.588 8.213.397 3.577.441 7.727.441 10.2 0 2.473-.044 3.312-.088 3.886-.044.574-.133.927-.441 1.06-.31.132-.794.132-1.06.265-.264.132-.22.441-.22.574 0 .132 0 .132-.176 1.016-.177.839-.486 2.56-.794 5.122-.31 2.56-.574 5.917-.839 11.26-.264 5.299-.529 12.585-1.058 20.621-.53 8.037-1.368 16.868-1.765 21.417-.397 4.548-.309 4.769-.177 4.857.133.132.31.132 1.633.221 1.28.088 3.706.265 4.897.309 1.235.044 1.28-.088 1.632-2.208.397-2.164 1.103-6.315 1.897-10.951.794-4.681 1.633-9.803 2.56-15.146.881-5.343 1.852-10.907 2.381-13.954.53-3.047.618-3.576.75-3.841.133-.265.221-.31.265.044 0 .353-.044 1.104.133 5.961.176 4.857.617 13.865 1.014 21.151s.75 12.894.883 15.853c.176 2.958.176 3.267.176 3.577 0 .353-.044.706.75.618.75-.089 2.338-.618 3.574-1.104 1.279-.486 2.205-.972 2.735-1.237.485-.265.573-.309.617-.353.045-.044.133-.132.133-2.031.044-1.899.044-5.652.22-12.276.221-6.623.618-16.117.75-22.917.133-6.845 0-10.996-.397-15.102-.397-4.107-.97-8.125-1.456-12.982-.485-4.858-.794-10.51-.97-14.528-.177-4.018-.132-6.359-.132-7.64 0-1.236.044-1.412-.045-1.457-.088-.088-.264-.088-.485-.132-.22-.044-.485-.177-.706-.265-.22-.088-.485-.177-.617-.177-.177 0-.265.089-.265.177-.044.088-.044.133-.044.53-.044.397-.088 1.104-.177 2.34 0 1.193-.132 2.915-.22 4.946z" fill="#101E25"/><path fill-rule="evenodd" clip-rule="evenodd" d="M23.78 99.53c-.354.972-.927 2.606-1.412 3.71-.441 1.104-.794 1.678-1.015 2.561-.22.883-.353 2.075-.574 2.914-.22.839-.529 1.281-.705 1.546-.177.221-.177.221-.221-.972-.044-1.236-.132-3.665-.177-5.343-.044-1.678-.044-2.561-.088-3.091 0-.53-.044-.75-.044-.839 0-.088 0-.088.353-.22.353-.133 1.059-.354 1.677-.707.617-.31 1.147-.707 1.544-1.016.397-.309.662-.53.838-.53.176 0 .265.221.265.486-.044.221-.089.53-.442 1.502zm-2.824-16.603c1.059 0 2.294-.044 2.867-.044.618 0 .618 0 .618.574s.044 1.767.088 2.65.044 1.457 0 1.766c-.044.31-.132.397-1.235.442-1.103.088-3.22.176-4.853.265-1.632.044-2.78.044-3.485 0-.706-.045-.927-.133-1.059-.265-.132-.133-.132-.31-.132-1.193s.044-2.517.044-3.356v-.794h3.97c1.192 0 2.118 0 3.177-.044zm-10.5.045c0-.133-.044-.221-.177-.265-.132 0-.22.044-.264.176-.265 1.81-.574 3.665-.839 5.608a147.72 147.72 0 00-.75 6.447c-.22 2.517-.397 5.255-.661 8.567-.221 3.046-.442 6.579-.794 10.774-.706 8.699-1.765 20.136-2.824 31.528v.044c0 .133.088.221.22.221.133 0 .221-.088.221-.221v-.044c1.059-11.481 2.118-22.917 2.824-31.528.309-4.151.573-7.683.794-10.774.22-3.312.397-6.094.617-8.567.221-2.384.486-4.46.75-6.447.31-1.899.618-3.71.883-5.52zm19.764 61.069c.045.397.045 1.148.045 1.678s0 .883-.044 1.148c0 .265-.045.442-.265.662-.22.221-.662.53-1.28.795-.617.265-1.411.442-2.161.53-.75.088-1.456.133-2.118.088a16.955 16.955 0 01-1.809-.22c-.53-.089-.926-.221-1.103-.442-.176-.221-.176-.53-.176-.927 0-.398.044-.795.044-1.237 0-.397-.088-.839-.044-1.104.044-.265.22-.441.53-.441.308 0 .882.044 1.808.044s2.338-.133 3.309-.309c1.015-.177 1.676-.442 2.117-.618.442-.177.706-.221.883-.177.088.044.22.133.265.53z" fill="#080902"/><path fill-rule="evenodd" clip-rule="evenodd" d="M12 145.763c-.132.486-.353 1.148-.441 1.634-.088.486-.044.751-.044.971 0 .221-.088.354-.618.486-.573.133-1.632.265-3 .133-1.368-.133-3.044-.486-3.97-.795-.971-.265-1.148-.486-1.28-.707-.132-.22-.22-.397-.22-.75 0-.354.088-.928.176-1.413.088-.486.176-.972.309-1.281.132-.265.353-.397.617-.353.265.044.618.221 1.192.397a14.11 14.11 0 002.25.53c.926.133 1.94.221 2.867.177.883 0 1.633-.133 1.986 0 .308.132.308.441.176.971z" fill="#080902"/><path fill-rule="evenodd" clip-rule="evenodd" d="M18.397 50.428c.309.088.662.132.882.176.221.089.31.177.353.398.044.22.089.53.133.794.044.265.044.398-.044.53-.133.133-.398.265-.794.31-.398.044-.971 0-1.633-.177a9.821 9.821 0 01-1.985-.795c-.618-.31-1.059-.574-1.28-.75-.22-.133-.22-.133-.22-.31v-1.678c0-.044 0-.176.176-.132.133.044.442.22 1.015.441.618.221 1.544.574 2.162.751.573.31.882.398 1.235.442z" fill="#FF9E69"/><path fill-rule="evenodd" clip-rule="evenodd" d="M11.338 45.04c.133.045.133.045.265.575.132.485.441 1.5.794 2.207.309.663.706 1.016 1.412 1.546s1.809 1.192 2.735 1.59c.927.397 1.677.441 2.162.485.485.044.75 0 1.28-.22.529-.221 1.323-.707 2.029-1.37.706-.706 1.367-1.589 1.676-2.251.309-.663.309-1.06.397-1.943.044-.883.177-2.208.309-3.886.132-1.634.353-3.621.441-4.813.088-1.193.044-1.634-.176-2.208-.22-.574-.706-1.28-1.897-2.031-1.192-.751-3.089-1.502-4.72-1.59-1.633-.133-3 .397-4.06.883-1.059.486-1.72.883-2.162 1.369-.44.486-.617.971-.75 1.545-.132.53-.264 1.149-.397 1.723-.132.618-.22 1.236-.397 1.722-.176.486-.397.883-.529 1.148-.132.265-.177.397-.22.486-.045.088-.089.132-.221.22-.088.089-.22.265-.309.707-.088.397-.088 1.016.044 1.545.132.53.353.928.662 1.325.309.353.617.707.926.927.31.177.574.265.706.31z" fill="#FFAF69"/><path fill-rule="evenodd" clip-rule="evenodd" d="M21.353 46.586c-.265 0-.618.088-1.191.177-.574.088-1.28.132-1.853.132a4.774 4.774 0 01-1.324-.177c-.353-.088-.617-.176-.794-.22-.176 0-.22.044-.264.176 0 .133.044.265.176.574.132.31.397.84.75 1.193a2.95 2.95 0 001.456.794c.53.133 1.103.089 1.632-.22.53-.265.97-.795 1.28-1.237.308-.441.44-.75.485-.927 0-.177-.088-.265-.353-.265z" fill="#080902"/><path fill-rule="evenodd" clip-rule="evenodd" d="M21.044 46.718c0 .045-.088.221-.176.354-.088.132-.265.353-.397.53a3.226 3.226 0 01-.486.397c-.176.088-.308.088-.573.133-.265 0-.662 0-.97-.045a13.34 13.34 0 01-.883-.132c-.22-.044-.353-.088-.485-.221-.089-.088-.177-.265-.265-.397a1.64 1.64 0 01-.088-.398c0-.088 0-.176.044-.22.044-.045.044-.045.22 0 .177.044.442.088.839.132.397.044.838.088 1.323.044.486 0 .927-.088 1.28-.132.308-.045.44-.089.573-.089 0-.044.044-.044.044.044z" fill="#F9F9F9"/><path fill-rule="evenodd" clip-rule="evenodd" d="M19.588 42.391c0-.133-.088-.22-.22-.22-.133 0-.221.087-.221.22-.044.31-.044.618.088.927.088.177.177.31.31.442.131.132.264.22.352.309a.776.776 0 01.22.177c.133.088.221.132.265.22.044.044.044.089.088.133 0 .044.045.088.045.132v.089c0 .044-.044.044-.044.088l-.089.088c-.044.044-.132.088-.176.133a1.319 1.319 0 01-.441.176c-.133.044-.177.177-.133.265.044.133.177.177.265.133.177-.044.309-.133.485-.177l.265-.132a.345.345 0 00.177-.177c.044-.088.088-.177.132-.22a.568.568 0 00.044-.266c0-.088-.044-.176-.088-.265-.044-.088-.088-.176-.133-.22a1.91 1.91 0 00-.308-.265.966.966 0 00-.221-.133c-.088-.088-.22-.176-.309-.265a1.342 1.342 0 01-.22-.309c-.177-.353-.133-.618-.133-.883z" fill="#F46F2D"/><path fill-rule="evenodd" clip-rule="evenodd" d="M23.47 39.477c-.22-.177-.661-.31-1.058-.353a2.918 2.918 0 00-1.06-.045c-.352.044-.66.089-.837.177-.177.088-.265.22-.265.353 0 .133.088.221.22.31.177.043.442.043.707.043h.75c.264.045.573.089.794.133.22.044.352.088.485.088.176 0 .353-.088.397-.22.088-.133.088-.31-.132-.486zm-6.396-.487a.401.401 0 00-.133-.308c-.088-.044-.264-.089-.53-.044-.264.044-.705.088-1.146.265a4.654 4.654 0 00-1.147.53c-.265.22-.397.397-.397.574 0 .176.176.309.353.309.176 0 .353-.133.573-.31.265-.132.574-.309.883-.397.308-.088.573-.132.794-.177.22 0 .397 0 .53-.088a.961.961 0 00.22-.353z" fill="#211F17"/><path fill-rule="evenodd" clip-rule="evenodd" d="M22.544 41.728c.088.221.088.442.044.707-.044.22-.132.486-.22.662-.088.177-.22.31-.31.354a.486.486 0 01-.352 0 1.04 1.04 0 01-.353-.398 1.475 1.475 0 01-.132-.662c0-.22 0-.486.088-.707.088-.176.176-.353.309-.397.132-.088.353-.088.53 0 .22.088.308.22.396.441zm-5.867 0c.088.221.088.442.044.707a2.92 2.92 0 01-.22.662c-.09.177-.222.31-.31.354a.486.486 0 01-.353 0 1.042 1.042 0 01-.353-.398 1.475 1.475 0 01-.132-.662c0-.22 0-.486.088-.707.088-.176.177-.353.31-.397.131-.088.352-.088.528 0 .221.088.353.22.398.441z" fill="#080902"/><path fill-rule="evenodd" clip-rule="evenodd" d="M12.75 42.17c0-.53.044-1.413.132-2.252.089-.839.265-1.634.441-2.252.177-.618.442-1.06.706-1.192.31-.177.662-.088 1.192-.044.529 0 1.235-.044 1.764-.265.53-.221.927-.574 1.192-.883.264-.31.352-.574.44-.486.089.044.177.397.486.662.309.31.838.53 1.632.707.75.176 1.72.265 2.56.265.837 0 1.543-.044 2.073-.265.573-.177.97-.486 1.28-.928.308-.441.529-1.06.66-1.633.133-.574.133-1.148-.087-1.634-.177-.486-.574-.84-1.015-1.016-.441-.176-.838-.176-1.015-.309-.132-.177-.044-.397-.044-.795 0-.397-.044-.883-.441-1.501-.353-.618-1.059-1.325-1.853-1.634-.794-.309-1.72-.177-2.382.044-.662.221-1.06.574-1.368.84-.309.264-.485.44-.794.397-.265-.044-.618-.398-1.059-.618-.441-.221-.927-.31-1.72-.31-.75.045-1.81.177-2.692.663-.882.441-1.588 1.192-2.03 1.943-.44.75-.573 1.457-.66 2.03-.09.575-.09.928-.133 1.237-.044.31-.177.486-.353.663-.133.176-.309.309-.397 1.06-.089.75-.133 2.163-.089 3.135.045.971.133 1.59.177 1.898.044.31.044.31.22.265.177 0 .486-.044.795.089.309.088.573.309.838.706.265.398.485.928.662 1.369.176.442.309.795.397.927.132.133.22.089.264-.044.221-.088.221-.309.221-.839z" fill="#403E32"/><path fill-rule="evenodd" clip-rule="evenodd" d="M25.809 69.548C25.632 65.044 25.72 65 25.632 65c-.088-.045-.308-.089-2.205-.53a1257.54 1257.54 0 00-7.192-1.634l-1.764-.398.22 4.77c.22 4.768.618 14.35.838 19.12.221 4.769.221 4.769.221 5.122v1.413c0 .397.044.53 1.412 1.28 1.367.707 4.059 2.032 5.867 2.782 1.81.795 2.78 1.06 3.221 1.193.485.132.485.132.485-.884 0-1.015 0-3.09-.176-8.654-.22-5.476-.574-14.484-.75-19.032z" fill="#F7CE66"/><path fill-rule="evenodd" clip-rule="evenodd" d="M18.618 63.366l2.03.486.44 23.756-1.897-.618-.573-23.624z" fill="#FBFBFC"/><path fill-rule="evenodd" clip-rule="evenodd" d="M13.544 82.22a6.68 6.68 0 00.088 1.635c.089.53.133 1.104.177 1.943.044.883 0 2.075.088 2.65.044.617.177.617.53.662.353.044.97.176 1.544.22.617.044 1.19.089 2.206.221 1.014.132 2.47.353 3.176.442.706.088.75 0 .75-.133v-.486c0-.264.044-.662.044-3.488s0-8.08-.044-10.686c-.044-2.65-.044-2.694-.177-2.694-.088 0-.264 0-1.588-.088-1.323-.044-3.838-.177-5.073-.22l-1.236-.045v1.369c0 1.369 0 4.062-.088 5.785-.132 1.633-.309 2.34-.397 2.914z" fill="#6A6856"/><path fill-rule="evenodd" clip-rule="evenodd" d="M17.912 73.566c-1.015-.044-2.03-.088-2.515-.132l-.485-.045-.044 2.164c-.044 2.164-.133 6.447-.133 8.61-.044 2.165 0 2.165.044 2.253.044.044.177.176 1.192.353 1.014.177 3 .397 3.97.486.97.088 1.015.088 1.015.088 0-.044 0-.088.044-2.34 0-2.252.044-6.712.044-8.964 0-2.252 0-2.34-.044-2.385 0-.044 0-.044-.53-.044-.529.044-1.543 0-2.558-.044z" fill="#E7E6E5"/><path fill-rule="evenodd" clip-rule="evenodd" d="M16.368 72.815v.265c0 .089.044.089.573.133.53.044 1.588.088 2.118.088.53 0 .573.044.573 0 0 0 .044-.044.044-.088v-.221c0-.044 0-.088-.044-.133l-.529-.044c-.53-.044-1.588-.088-2.118-.132-.53-.044-.53-.044-.573-.044-.044.088-.044.088-.044.176z" fill="#B1B1B1"/><path fill-rule="evenodd" clip-rule="evenodd" d="M16.544 73.301v.53c0 .132.044.132.441.176.442 0 1.236.045 1.721.089h.618c.044 0 .044 0 .044-.133 0-.132-.044-.353-.044-.485v-.133h-.089s-.044.044-.044.088c0 .045-.044.133-.044.221 0 .089 0 .177-.044.221-.044.044-.132.044-.485.044-.397 0-1.103-.044-1.456-.088s-.397-.044-.441-.044c-.044 0-.044-.044-.044-.133 0-.088-.045-.265-.045-.353v-.088h-.044c0-.044-.044-.044-.044.088z" fill="#929293"/><path fill-rule="evenodd" clip-rule="evenodd" d="M17.118 73.787c-.044.044-.044.176-.044.265 0 .088.044.088.264.088h.97c.265 0 .265 0 .31-.044v-.177c0-.044 0-.088-.089-.088-.044 0-.176 0-.397-.044-.22 0-.617-.044-.794-.044-.176-.044-.176-.044-.22.044z" fill="#101E25"/><path fill-rule="evenodd" clip-rule="evenodd" d="M14.603 79.439c-.397.574-.662.927-1.059 1.148-.397.22-.97.265-2.117-.044-1.148-.265-2.868-.883-4.148-1.369-1.279-.486-2.117-.927-2.558-1.192-.442-.265-.442-.353-.442-.574 0-.221.045-.574.265-1.502.22-.927.618-2.428.794-3.179.177-.75.177-.75.133-.75-.045 0-.089-.045-.353-.089-.265-.088-.706-.22-1.192-.353-.44-.133-.882-.31-1.411-.486-.53-.22-1.103-.442-1.412-.574l-.309-.132-.088 1.148c-.088 1.148-.309 3.488-.441 5.387C.132 78.777 0 80.278 0 81.117s.132.927.794 1.236c.706.31 1.941.84 3.927 1.28 1.985.398 4.676.707 6.132.928 1.5.177 1.765.31 1.941.398.177.132.309.264.618.75.264.486.75 1.28 1.103 1.766.397.486.662.663.882.751.22.088.353.088.441.088.089 0 .089.045.22.177.133.133.398.31.663.442.22.132.44.132.573.088.133-.044.177-.22.22-.353.045-.133.045-.221.045-.398 0-.176.044-.397.044-.574 0-.176-.088-.353-.177-.485a3 3 0 00-.529-.53c-.176-.177-.397-.398-.485-.53-.088-.133-.133-.177-.044-.177.088 0 .264.044.485.088.176.045.397.045.53-.088.132-.088.176-.309.176-.486 0-.176-.088-.309-.22-.485-.177-.177-.398-.398-.662-.928-.265-.485-.53-1.28-.706-1.898-.177-.619-.31-1.148-.353-1.458-.045-.353-.045-.53.176-.883.177-.309.574-.794.75-1.104.22-.309.265-.485.265-.75 0-.221-.044-.53-.088-.663-.044-.132-.133-.088-.265-.044-.133.044-.265.133-.618.53-.309.397-.838 1.104-1.235 1.634z" fill="#FFAF69"/><path fill-rule="evenodd" clip-rule="evenodd" d="M4.015 71.535c.661.22 1.014.353 1.235.397.176.044.176.044.176.089v.176c0 .044-.044.133-.22.221-.177.088-.53.22-.97.265a8.053 8.053 0 01-1.457 0 7.22 7.22 0 01-1.19-.22c-.354-.09-.663-.222-.84-.266-.176-.044-.176-.044-.131-.353.044-.31.088-.927.132-1.192.044-.31.044-.31.176-.221.133.044.397.177.97.397.574.133 1.5.486 2.119.707z" fill="#FF9E69"/><path fill-rule="evenodd" clip-rule="evenodd" d="M25.897 30.954c0 .177.177.53.133 1.104-.045.574-.354 1.325-.883 1.943-.53.618-1.28 1.148-2.073 1.369-.795.22-1.677.132-2.383.044-.706-.088-1.28-.265-1.5-.265-.22 0-.088.133.133.265.22.133.485.265.97.398a8.73 8.73 0 001.677.309c.573.088 1.103.088 1.632.088.53 0 1.059 0 1.544-.133.485-.132.883-.441 1.191-.662.265-.265.441-.442.574-.706.132-.221.265-.53.353-.84.088-.309.132-.662.176-.97.044-.31 0-.575-.044-.796a2.216 2.216 0 00-.22-.574c-.089-.132-.177-.265-.31-.397a2.216 2.216 0 00-.529-.353c-.264.088-.44 0-.44.176z" fill="#4F4D3E"/><path fill-rule="evenodd" clip-rule="evenodd" d="M26.338 84.385c.088 3.4.22 8.301.265 10.774.044 2.473.044 2.473.044 2.561v.442c0 .088.044.044 3.088-.575 3.088-.618 9.22-1.81 12.265-2.428 3.088-.618 3.088-.663 3.088-.75 0-.09 0-.133-.176-5.432a3385.65 3385.65 0 01-.618-21.151l-.176-5.255-3.089.397-12.353 1.59-3.088.397.088 2.076c.089 2.075.221 6.182.353 9.184.133 3.003.22 4.813.31 8.17z" fill="#DBB158"/><path fill-rule="evenodd" clip-rule="evenodd" d="M19.544 63.586c-1.853-.441-3.485-.794-4.28-.971l-.793-.177 3.044-.265c3.044-.265 9.176-.794 12.22-1.06 3.044-.264 3.044-.264 3.133-.264.088 0 .22.044 2.117.353 1.898.309 5.515.883 7.324 1.148l1.809.265-.927.132c-.926.133-2.823.354-5.912.751-3.088.398-7.411.927-9.573 1.236L25.544 65l-1.059-.22c-.97-.265-3.088-.751-4.94-1.193z" fill="#FBD16B"/><path fill-rule="evenodd" clip-rule="evenodd" d="M20.78 53.74l15.661.088.132 9.538-15.706.574-.088-10.2z" fill="#DBB158"/><path fill-rule="evenodd" clip-rule="evenodd" d="M19.235 53.784l1.544-.044.089 10.2-1.544-.795-.089-9.361z" fill="#F7CE66"/><path fill-rule="evenodd" clip-rule="evenodd" d="M29.47 53.783h-2.646v7.375h2.602l.045-7.375zm6.442 9.892l-2.824.353.927 27.554 2.735-.485-.838-27.422z" fill="#FBFBFC"/><path fill-rule="evenodd" clip-rule="evenodd" d="M31.191 63.587l3.353-.133 1.368.22-2.824.354-1.897-.441zm-10.544.265l-2.03-.486 1.5-.265.662.706-.132.044z" fill="#FBFBFC"/><path d="M34.72 55.373h-3.838v2.473h3.839v-2.473z" fill="#FBFBFC"/><path fill-rule="evenodd" clip-rule="evenodd" d="M37.809 65.618l4.5-.663v2.959l-4.5.662v-2.958z" fill="#FBFBFC"/><path fill-rule="evenodd" clip-rule="evenodd" d="M29.03 148.324c.22.398.617 1.06.882 1.855.264.839.353 1.855.397 2.429.044.618-.044.794-.265.883-.176.132-.53.176-1.72.176-1.192 0-3.265-.044-4.456-.088-1.192-.044-1.589-.088-1.765-.177-.177-.088-.22-.265-.22-.662 0-.442-.045-1.104.088-1.81a7.086 7.086 0 01.705-1.988c.31-.618.618-1.103.839-1.28.22-.221.353-.177.838-.133.485.045 1.28.045 1.985.045.662 0 1.191.044 1.544.044.353.044.53.044.662.132.177.089.265.177.485.574z" fill="#080902"/><path fill-rule="evenodd" clip-rule="evenodd" d="M26.073 153.049c1.368 0 2.824.044 3.53.044s.706 0 .706.177v.751c0 .22 0 .353-.044.441-.044.089-.089.089-.133.089h-.838c-.838 0-2.47-.045-3.794-.045-1.324 0-2.338-.044-2.868-.044-.53 0-.617 0-.661-.044-.045 0-.089-.044-.089-.088v-.309c0-.221 0-.663.044-.839.045-.221.089-.221.75-.177.706 0 2.03.044 3.398.044z" fill="#FBD16B"/><path fill-rule="evenodd" clip-rule="evenodd" d="M12.044 29.63c.177.353.044 1.28.133 2.03.088.751.44 1.325.97 1.767.53.442 1.191.706 1.765.795a2.612 2.612 0 001.456-.089c.397-.132.75-.397.97-.397.22 0 .31.177.22.398-.087.22-.352.53-.97.794-.617.265-1.632.53-2.603.486a4.278 4.278 0 01-2.558-1.016 3.119 3.119 0 01-1.015-2.12c-.044-.794.176-1.677.573-2.251.397-.53.883-.75 1.06-.398z" fill="#4F4D3E"/></g><defs><clipPath id="clip0_2_28755"><path fill="#fff" d="M0 0h330v154.595H0z"/></clipPath></defs></svg>