<svg width="661" height="396" fill="none" xmlns="http://www.w3.org/2000/svg"><path fill-rule="evenodd" clip-rule="evenodd" d="M547.638 133.357c.339 24.885.226 72.617 2.036 105.419 1.809 32.915 5.429 50.9 8.143 61.08 2.827 10.18 4.75 12.555 9.614 15.835 4.863 3.281 12.667 7.466 24.09 8.597 11.424 1.131 26.692-.566 34.836-2.262 8.256-1.697 9.5-3.168 13.006-10.407 3.506-7.239 9.048-20.133 18.775-28.73 9.614-8.596 23.299-12.781 33.931-15.835 10.631-3.054 18.322-4.977 22.507-9.049 4.298-4.072 5.089-10.18 4.298-23.866-.792-13.687-3.28-34.725-6.56-47.959-3.28-13.234-7.465-18.437-17.757-28.73-10.292-10.293-26.805-25.676-40.491-35.178-13.685-9.501-24.656-13.12-37.662-17.192-13.007-4.072-28.163-8.823-39.812-8.936-11.65-.226-19.906 4.072-24.543 6.221-4.637 2.149-5.542 2.149-5.542 3.167-.113 1.131.791 3.054 1.131 27.825z" fill="#5DC94C"/><path fill-rule="evenodd" clip-rule="evenodd" d="M231.858 313.542c.113 2.602.113 5.656.566 7.353.452 1.696 1.47 1.923 3.167 2.036 1.809.113 4.298 0 5.655.113 1.357.113 1.357.452 1.357 1.357 0 1.018 0 2.602-.339 3.393-.227.905-.679 1.018-1.584 1.358-.905.452-2.149 1.131-2.714 2.375-.566 1.244-.453 2.828.452 3.959.905 1.018 2.602 1.47 5.203 1.583 2.714.114 6.447 0 23.412-.113s47.163-.339 68.766-1.018c21.602-.791 34.609-2.149 48.181-3.732 13.572-1.584 27.823-3.394 41.056-4.864 13.12-1.471 25.108-2.488 37.436-2.488 12.329 0 24.996 1.244 32.008 1.922 7.013.679 8.37 1.018 15.495 1.131 7.012.114 19.68.114 26.014.114 6.333 0 6.446 0 6.446.904v3.62c0 .905.113.905 6.673.792l26.127-.453 6.56-.113v1.471c0 1.47.113 4.298.226 5.655.113 1.471.226 1.471.452 1.584.226.113.453.226 12.555-.453 12.101-.678 36.192-2.036 60.509-4.524 24.317-2.489 48.86-5.882 63.563-7.465 14.703-1.584 19.68-1.245 22.847-1.018 3.166.226 4.524.339 16.286-.114 11.763-.452 33.818-1.583 44.901-2.035 11.084-.566 11.085-.566 10.067-1.697-1.018-1.131-2.941-3.393-4.977-5.316-2.036-2.036-4.185-3.733-14.251-12.329-10.066-8.71-28.049-24.319-45.467-32.802-17.417-8.484-34.043-9.728-46.824-9.276-12.667.453-21.263 2.602-30.65 10.407-9.274 7.804-19.341 21.151-25.561 29.408-6.221 8.371-8.709 11.651-21.15 13.574-12.441 1.923-34.835 2.601-47.163-.792-12.329-3.393-14.591-10.746-19.68-12.895-5.09-2.262-13.007.679-53.158 1.244-40.151.453-112.649-1.47-159.586-2.601-46.937-1.131-68.427-1.584-82.564-1.923-14.138-.339-21.037-.566-24.996.452-3.958 1.018-5.089 3.054-5.429 5.317-.226 2.036 0 4.298.113 6.899z" fill="#2B2923"/><path d="M531.917 0H85.392v270.9h446.525V0z" fill="#4AAB3C"/><path fill-rule="evenodd" clip-rule="evenodd" d="M471.86 317.501c46.598-.113 56.098-.113 60.848-.113h4.751l-.113-1.131c-.114-1.131-.453-3.506-.905-9.388-.453-5.995-1.018-15.496-1.244-22.17-.34-6.56-.34-10.18-.34-11.99V270.9h-414.63v2.601c0 2.602-.113 7.692-.113 10.293v2.828c0 .226-.113.792-.113 3.054-.113 2.149-.113 6.108-.227 8.031v1.923h27.032s-.113 0-.113 3.054 0 9.162.113 12.216v3.506c0 .113.113.113 18.548.113 18.549 0 55.533 0 115.93-.226 60.17-.339 143.978-.679 190.576-.792z" fill="#36342B"/><path d="M535.989 280.854H100.887v17.984h435.102v-17.984z" fill="#3F3D2E"/><path d="M514.499 280.854H413.5v51.352h100.999v-51.352z" fill="#3F3D2E"/><path fill-rule="evenodd" clip-rule="evenodd" d="M237.852 316.71l-.565 1.583h-5.316l.679-2.036c.678-2.036 1.923-6.221 5.089-11.763 3.167-5.543 8.257-12.443 12.668-17.419 4.411-4.977 8.03-8.031 10.971-10.407 3.053-2.375 5.428-4.072 6.673-4.863 1.244-.792 1.244-.792 6.107-.792h42.187c3.619 0 3.619 0 5.203.905 1.696.905 4.976 2.601 9.048 5.203 4.071 2.715 8.822 6.221 13.233 11.085 4.411 4.75 8.369 10.858 10.518 15.948 2.149 5.203 2.375 9.502 2.488 11.651l.113 2.149h-4.863l-.113-1.358c-.113-1.357-.452-4.071-1.583-7.578-1.131-3.506-3.167-7.918-5.203-11.424-2.149-3.62-4.411-6.334-7.804-9.501-3.393-3.167-8.03-6.674-11.423-8.936-3.393-2.262-5.429-3.167-6.56-3.62-1.131-.452-1.357-.339-8.822-.452-7.352 0-21.942-.113-29.294-.226h-7.238l-2.262 1.357c-2.262 1.357-6.786 4.072-11.197 7.918s-8.596 8.709-11.876 13.007c-3.167 4.299-5.429 8.031-7.125 11.538-2.036 3.393-3.167 6.56-3.733 8.031z" fill="#737160"/><path d="M295.308 376.997c26.985 0 48.86-21.269 48.86-47.506 0-26.237-21.875-47.506-48.86-47.506-26.984 0-48.86 21.269-48.86 47.506 0 26.237 21.876 47.506 48.86 47.506z" fill="#4F4D3E"/><path d="M295.308 360.709c17.74 0 32.121-13.977 32.121-31.218 0-17.242-14.381-31.219-32.121-31.219-17.739 0-32.12 13.977-32.12 31.219 0 17.241 14.381 31.218 32.12 31.218z" fill="#807E6D"/><path fill-rule="evenodd" clip-rule="evenodd" d="M295.308 351.208c11.423 0 20.698-9.388 20.698-20.925s-9.275-20.926-20.698-20.926-20.698 9.389-20.698 20.926c0 11.537 9.388 20.925 20.698 20.925z" fill="#737160"/><path fill-rule="evenodd" clip-rule="evenodd" d="M536.441 296.35c.226 12.555.339 14.704.565 16.174.113 1.584.34 2.602.566 4.299.339 1.583.792 3.845 1.244 5.316.452 1.47 1.018 2.375 2.036 3.054 1.018.678 2.375 1.131 5.655 1.131 3.28 0 8.483-.453 15.834-.339 7.352 0 16.739.565 25.448 1.357s16.626 1.696 22.96 2.941c6.333 1.244 11.084 2.714 15.155 3.845 4.072 1.132 7.352 1.923 9.501 1.697 2.149-.113 3.053-1.131 3.958-3.054 1.018-1.81 2.036-4.524 3.62-8.709 1.583-4.185 3.732-9.954 6.559-16.515 2.828-6.56 6.447-13.912 11.537-20.133 5.089-6.334 11.649-11.537 19.114-14.705 7.578-3.167 16.173-4.185 24.543-4.072 8.369.114 16.626 1.358 22.846 3.394 6.221 2.036 10.293 4.864 13.007 7.239 2.715 2.375 4.072 4.298 4.864 5.203.678 1.018.678 1.018 1.244.679.565-.34 1.583-.905 2.94-2.15 1.358-1.244 3.054-3.053 3.846-4.071.791-.905.791-.905-1.923-3.168-2.714-2.262-8.143-6.673-15.947-10.18-7.804-3.506-18.097-5.994-27.371-6.786-9.274-.792-17.531.226-24.543 2.036-7.012 1.923-12.78 4.637-17.644 7.804-4.976 3.168-9.048 6.674-12.102 9.954-3.053 3.28-5.089 6.447-7.464 10.519-2.262 4.072-4.864 8.936-6.673 12.33-1.81 3.393-2.941 5.429-3.62 6.673-.678 1.244-1.017 1.81-1.244 2.149-.226.339-.565.566-1.357.792-.792.113-2.149.226-10.858.339-8.822.113-24.995.226-33.817.226-8.935 0-10.518-.226-12.441-.904-1.923-.679-4.072-1.81-5.881-3.507-1.81-1.583-3.054-3.733-3.959-7.013-.792-3.28-1.018-7.691-1.357-16.853-.226-9.162-.453-22.962-.792-38.345s-.679-32.236-1.47-54.971c-.792-22.736-1.923-51.239-2.602-65.491l-.565-14.252h-18.209c-3.846 0-4.411.113-5.09 2.262-.679 2.149-1.583 6.334-1.697 27.486-.113 21.151.34 59.157.792 89.81.453 30.766.566 53.84.792 66.509z" fill="#4AAB3C"/><path fill-rule="evenodd" clip-rule="evenodd" d="M607.016 104.853c6.56.227 12.102.679 17.644 2.036 5.542 1.358 11.197 3.733 14.025 4.977 2.827 1.131 2.94 1.131 3.053 1.018.113-.113.34-.452.792-.905a70.636 70.636 0 002.375-2.488c1.244-1.357 3.054-3.28 4.072-4.411 1.018-1.131 1.244-1.358 3.619.565 2.375 1.81 6.899 5.769 20.585 17.532 13.798 11.764 36.758 31.445 50.443 43.435 13.685 11.876 18.096 16.061 20.245 18.211 2.149 2.036 2.149 2.036 3.167 2.036 1.018 0 2.941-.114 4.185 0 1.131 0 1.583.226 1.922.678.34.453.792 1.244 1.244 1.923.566.679 1.132 1.244 1.923 1.697.792.452 1.584.905 4.072 1.81 2.488.904 6.56 2.488 8.822 3.393 2.262 1.018 2.714 1.47 2.827 1.81.227.339.113.678-6.22 1.47-6.334.792-19.114 2.036-29.972 2.715-10.858.678-20.019.791-24.769.905-4.638 0-4.977 0-5.09-.227-.113-.339-.113-1.018-.339-3.619-.113-2.602-.453-7.352-.792-10.067s-.566-3.506-1.81-5.542c-1.244-2.036-3.619-5.317-7.238-10.067-3.619-4.638-8.596-10.746-15.495-17.872-7.012-7.126-15.947-15.383-22.168-20.925-6.221-5.543-9.501-8.37-13.459-11.198-3.959-2.828-8.37-5.656-12.894-7.692-4.411-2.036-8.822-3.393-15.042-4.185-6.221-.791-14.251-1.018-24.091-1.244-9.84-.113-21.376-.113-29.18-.113h-15.608c-3.506 0-6.447.113-7.917.113-1.47 0-1.47 0-1.131-.565.339-.566 1.131-1.697 1.809-2.715a53.316 53.316 0 011.584-2.262c.339-.453.339-.453.452-.453h7.126c7.012 0 21.15-.113 32.007-.226 11.084.113 18.662.226 25.222.452z" fill="#4F4D3E"/><path fill-rule="evenodd" clip-rule="evenodd" d="M551.031 104.627h-7.917c-.34 0-.34 0-.227-.792.114-.791.227-2.262 1.358-3.959 1.131-1.696 3.28-3.732 4.863-5.09 1.583-1.47 2.601-2.262 3.393-2.714.792-.453 1.47-.34 7.578-.34h25.787c8.143 0 13.007.114 17.192.227 4.184.113 7.69.226 12.101.905 4.411.565 9.614 1.696 14.817 3.28 5.316 1.583 10.631 3.732 14.024 5.203 3.393 1.47 4.751 2.149 5.429 2.488.679.34.566.34 0 .905-.565.453-1.583 1.471-2.827 2.828a100.819 100.819 0 00-3.62 3.846c-.904.905-1.131 1.244-1.244 1.357l-.113.113-.565-.226c-.566-.226-1.81-.679-3.62-1.357-1.809-.679-4.297-1.584-6.446-2.376-2.262-.791-4.298-1.357-5.995-1.809-1.696-.453-3.053-.792-4.411-1.018-1.357-.227-2.714-.453-4.298-.566-1.583-.226-3.506-.339-6.107-.452-2.601-.114-5.994-.227-11.536-.34-5.542-.113-13.233-.113-20.698-.113s-14.59 0-19.001.113c-4.411-.113-5.994-.113-7.917-.113z" fill="#5DC94C"/><path fill-rule="evenodd" clip-rule="evenodd" d="M658.817 124.422a7708.298 7708.298 0 0032.234 29.408c12.102 10.972 22.959 21.039 28.841 26.129 5.768 5.203 6.56 5.429 7.125 5.542.679 0 1.244-.113 2.375-.791 1.131-.566 2.941-1.584 4.072-2.263 1.018-.678 1.47-1.131 1.583-1.47.227-.339.227-.453.113-.679-.113-.226-.339-.452-13.345-11.424-13.007-10.972-38.681-32.802-51.914-44-13.233-11.198-14.025-11.877-14.59-12.216-.566-.339-.905-.452-1.244-.226-.34.113-.566.452-1.131 1.131-.566.679-1.471 1.81-1.584 2.715-.226 1.131.453 1.809 7.465 8.144z" fill="#F9F9F9"/><path fill-rule="evenodd" clip-rule="evenodd" d="M569.353 127.702c.339 7.013 1.018 20.133 1.584 31.558.678 11.311 1.244 20.925 2.94 26.581 1.584 5.655 4.185 7.352 8.709 8.935 4.524 1.584 11.084 3.167 22.055 4.412 10.971 1.131 26.466 2.036 39.246 2.488 12.894.452 23.186.566 28.728.566h7.012c.453 0 .453 0 .566 1.131 0 1.131.113 3.393.339 4.637.113 1.244.339 1.584 1.583 1.584 1.245 0 3.393-.226 4.638-.453 1.244-.226 1.47-.452 3.28-2.601 1.922-2.149 5.428-6.221 7.238-8.823 1.81-2.601 1.923-3.732 1.923-5.316 0-1.584-.226-3.733-1.357-6.56-1.018-2.715-3.054-6.108-5.995-10.407-3.054-4.185-7.125-9.275-11.31-14.252-4.072-4.863-8.256-9.501-13.572-14.591-5.316-5.09-11.763-10.632-17.757-15.157-5.995-4.524-11.537-8.03-17.757-10.519-6.221-2.601-12.894-4.185-21.716-5.429-8.822-1.131-19.566-1.923-26.352-2.036-6.673-.226-9.161 0-10.971 1.018-1.697 1.018-2.715 2.828-3.167 4.072-.339 1.357-.226 2.149.113 9.162z" fill="#4F4D3E"/><path fill-rule="evenodd" clip-rule="evenodd" d="M573.99 133.584c.34 8.143 1.132 22.735 1.923 32.462.792 9.841 1.471 14.818 2.375 17.759.905 3.054 2.149 4.072 3.393 4.75 1.358.679 2.715 1.018 5.542 1.697 2.715.679 6.786 1.583 12.555 2.601 5.881.905 13.459 1.81 19.566 2.489a860.11 860.11 0 0013.007 1.357c2.488.226 2.827.226 3.054-.113.226-.339.226-1.018-1.018-12.329s-3.846-33.481-5.316-45.357c-1.47-11.877-1.81-13.574-2.036-14.365-.226-.905-.339-.905-2.827-1.81-2.489-.905-7.239-2.489-14.138-3.62-6.786-1.131-15.721-1.809-21.376-2.036-5.769-.339-8.37-.226-10.066 0-1.697.227-2.489.566-3.054.905-.566.34-1.018.679-1.357 1.471-.34.678-.566 1.696-.679 3.054.113 1.131 0 2.827.452 11.085zm60.057 6.334a24419.21 24419.21 0 014.751 42.077c1.244 11.085 1.583 13.008 1.809 14.026.226 1.018.226 1.017 6.786 1.244 6.56.226 19.68.565 26.24.792 6.673.226 6.786.226 6.899.113.113 0 .113-.113.339-4.977.113-4.864.34-14.478.34-19.455 0-4.977-.227-5.203-1.018-6.221-.792-1.131-2.262-3.167-5.768-7.013-3.507-3.846-9.049-9.615-14.251-14.478-5.203-4.864-10.066-8.71-13.799-11.764-3.845-2.941-6.56-4.977-8.708-6.334-2.036-1.357-3.394-2.036-4.185-2.149-.792-.226-1.018 0-1.018.905s.339 2.488 1.583 13.234z" fill="#F9F9F9"/><path fill-rule="evenodd" clip-rule="evenodd" d="M569.24 224.637c22.281.453 64.016 1.245 95.345 2.15 31.216.904 51.914 1.696 66.73 2.94 14.703 1.132 23.525 2.715 27.823 4.525 4.298 1.81 4.185 3.959 3.845 5.203-.452 1.244-1.131 1.697-2.601 2.036-1.47.339-3.619.565-11.649.565-8.144 0-22.168 0-56.438-.565-34.27-.453-88.785-1.357-116.947-1.81-28.276-.452-30.311-.452-31.669-.905-1.357-.452-2.149-1.244-2.488-3.28-.452-1.923-.565-5.09-.339-7.126.113-2.149.565-3.167 2.149-3.733 1.244-.452 3.958-.452 26.239 0z" fill="#47A639"/><path d="M698.515 376.997c26.985 0 48.86-21.269 48.86-47.506 0-26.237-21.875-47.506-48.86-47.506-26.984 0-48.86 21.269-48.86 47.506 0 26.237 21.876 47.506 48.86 47.506zM518.797 13.46H97.38v243.188h421.417V13.46z" fill="#4F4D3E"/><path fill-rule="evenodd" clip-rule="evenodd" d="M97.38 256.648V13.46l45.354 19.568v181.43l-45.354 42.19z" fill="#6A6856"/><path fill-rule="evenodd" clip-rule="evenodd" d="M97.38 256.648l45.354-42.19h333.537l42.526 42.19H97.38z" fill="#403E32"/><path fill-rule="evenodd" clip-rule="evenodd" d="M518.797 256.648V13.46l-42.526 19.568v181.43l42.526 42.19zm0-243.188H97.38l45.354 19.568h333.537l42.526-19.568z" fill="#6A6856"/><path fill-rule="evenodd" clip-rule="evenodd" d="M418.702 219.321l20.471.34-1.583-38.345-20.471.113 1.583 37.892zm34.723-1.244l20.471-.792-1.583-37.1-20.472.905 1.584 36.987z" fill="#929293"/><path fill-rule="evenodd" clip-rule="evenodd" d="M475.14 174.756c-3.054 2.941-5.429 5.316-7.125 7.126-21.942-2.376-46.711-3.394-74.647-3.167 2.601-2.489 7.351-4.638 14.25-6.448 40.265.453 62.772 1.245 67.522 2.489z" fill="#DBB158"/><path fill-rule="evenodd" clip-rule="evenodd" d="M474.914 235.836c-4.524 6.56-6.447 8.37-6.447 8.37-.679-21.265-.792-40.607-.453-62.324a211.839 211.839 0 017.126-7.126c.226 41.285-.226 61.08-.226 61.08z" fill="#DBB158"/><path fill-rule="evenodd" clip-rule="evenodd" d="M468.015 181.995c-.34 18.324-.34 37.666.452 62.324-43.77-.566-75.439-2.602-75.439-2.602-.339-32.236-.226-53.275.34-62.889 24.995-.453 49.877.678 74.647 3.167zm-63.79-6.56c-.339 0-.565-.227-.565-.679 0-.339.226-.679.565-.679 10.745-.339 21.716-.226 32.687.226a575.82 575.82 0 0133.478 2.376c.339 0 .565.339.452.678 0 .34-.226.566-.565.566-11.311-1.131-22.395-2.036-33.365-2.375-11.084-.34-22.055-.453-32.687-.113z" fill="#F7CE66"/><path fill-rule="evenodd" clip-rule="evenodd" d="M424.471 179.054c3.732.113 7.351.226 10.744.452.453-.452-.113 27.26 0 38.345 0 0-10.631-.453-11.084-.453-.113 0 0-12.781.34-38.344z" fill="#F9F9F9"/><path fill-rule="evenodd" clip-rule="evenodd" d="M435.215 179.507c-7.125-.34-10.744-.453-10.744-.453 6.446-4.185 9.726-6.334 9.726-6.334 4.638.113 7.013.113 7.013.113-4.072 4.411-5.995 6.674-5.995 6.674z" fill="#E1E2E1"/><path fill-rule="evenodd" clip-rule="evenodd" d="M416.44 144.895a3940.42 3940.42 0 002.602 25.789c.678 6.447.678 6.9 3.053 7.239 2.375.339 7.239.679 11.876.565 4.524-.113 8.935-.791 11.197-1.131 2.262-.339 2.601-.452 3.393-6.786.792-6.334 2.036-19.003 2.715-25.337.678-6.334.678-6.334.678-7.013 0-.679 0-1.923-1.131-2.488-1.131-.679-3.506-.679-8.709-.679-5.202-.113-13.346-.226-18.209-.339-4.863-.113-6.56-.113-7.239.791-.904.792-.904 2.376-.226 9.389z" fill="#FDE742"/><path fill-rule="evenodd" clip-rule="evenodd" d="M412.934 138.447c1.47.453 3.959 1.358 7.465 1.923 3.506.566 7.917.905 12.328.905s8.709-.226 12.441-.679c3.732-.452 6.899-1.244 8.596-1.696 1.696-.453 2.149-.679 2.375-.905.226-.226.339-.453.339-1.923v-5.542c0-1.358 0-1.358-2.149-1.81-2.149-.453-6.447-1.244-12.667-1.584-6.334-.339-14.59-.226-20.019.113-5.429.34-8.143.792-9.501 1.018-1.357.227-1.357.34-1.357 1.81 0 1.471 0 4.525.113 5.995.113 1.697.566 1.81 2.036 2.375z" fill="#FBD16B"/><path fill-rule="evenodd" clip-rule="evenodd" d="M415.536 130.756c1.922.565 5.994 1.018 10.857 1.244 4.864.339 10.406.452 14.93.339 4.524-.113 7.804-.452 9.727-.678 1.922-.34 2.488-.566 2.488-.792 0-.226-.566-.566-2.488-1.018-1.923-.566-5.203-1.357-10.632-1.697-5.429-.339-12.894-.113-17.757.113-4.75.227-6.786.453-7.917.905-1.131.453-1.244 1.018.792 1.584z" fill="#080902"/><path fill-rule="evenodd" clip-rule="evenodd" d="M429.447 127.702c-.905-4.185-2.149-12.442-2.262-22.057-.113-9.614.905-20.473 3.28-28.73 2.375-8.257 6.108-13.8 9.501-18.324 3.393-4.524 6.333-8.03 7.804-9.727 1.47-1.697 1.47-1.47 1.131 4.298-.34 5.882-1.131 17.419-2.715 26.694-1.583 9.275-3.958 16.401-6.447 22.509-2.488 6.221-4.976 11.424-6.333 16.175-1.357 4.751-1.584 8.936-1.697 11.085-.113 2.149-.113 2.149-.452 2.149-.226.113-.792 0-1.81-4.072z" fill="#47B909"/><path fill-rule="evenodd" clip-rule="evenodd" d="M429.899 125.553c0-3.62-.113-11.651-2.262-19.229-2.149-7.692-6.22-15.044-10.744-20.473-4.524-5.43-9.388-9.049-12.781-11.198-3.28-2.149-4.976-3.054-5.881-3.054-.905 0-.905.792-.566 3.054.34 2.262 1.018 5.995 2.828 10.18 1.809 4.298 4.637 9.049 7.804 13.008 3.167 4.072 6.447 7.239 9.274 10.632 2.828 3.28 4.977 6.674 6.899 9.841 1.923 3.167 3.393 6.221 4.298 8.144.905 1.923 1.131 2.714 1.131-.905z" fill="#64C324"/><path fill-rule="evenodd" clip-rule="evenodd" d="M438.608 114.468c.679-2.262 2.714-6.787 6.786-10.293 4.072-3.507 9.953-5.882 14.251-7.126 4.298-1.358 6.899-1.47 8.143-1.47 1.244 0 1.131.339.679 1.357-.453 1.018-1.244 2.714-2.828 5.203-1.583 2.488-4.071 5.882-7.464 8.483-3.507 2.602-7.918 4.411-11.197 5.316-3.28.905-5.316.792-6.787.792-1.47 0-2.262 0-1.583-2.262z" fill="#47B909"/><path fill-rule="evenodd" clip-rule="evenodd" d="M405.017 82.231a.344.344 0 010-.452.343.343 0 01.452 0c3.054 3.846 6.221 7.578 9.048 11.537 2.828 3.96 5.542 7.918 7.691 12.103s3.846 8.483 5.429 12.895c1.471 4.411 2.715 8.935 3.959 13.46 0 .226-.113.339-.226.452-.227 0-.34-.113-.453-.226-1.244-4.524-2.488-8.936-3.958-13.347-1.471-4.411-3.167-8.71-5.316-12.895-2.149-4.185-4.75-8.144-7.691-11.99-2.828-3.958-5.881-7.69-8.935-11.537z" fill="#389E00"/><path fill-rule="evenodd" clip-rule="evenodd" d="M441.775 64.925c.113-.226.226-.226.452-.226.227.113.227.226.227.453-1.018 2.488-1.923 5.09-2.828 7.804a148.543 148.543 0 00-2.714 9.502c-.792 3.393-1.584 7.126-2.149 11.198-.792 4.637-1.471 9.614-2.149 14.251-1.131 8.597-1.923 16.288-2.602 23.867 0 .226-.226.339-.452.339s-.339-.226-.339-.452c.791-7.692 1.47-15.383 2.601-23.98.566-4.637 1.357-9.614 2.149-14.252a195.21 195.21 0 012.262-11.198c.905-3.62 1.81-6.786 2.714-9.614.905-2.602 1.81-5.203 2.828-7.692zm18.209 36.196c.226-.113.339 0 .453.113.113.226 0 .339-.114.452-4.75 2.941-9.5 5.769-13.119 8.257-1.81 1.245-3.28 2.376-4.637 3.394-1.358 1.018-2.376 2.149-3.394 3.167a16.166 16.166 0 00-2.488 3.167c-.678 1.131-1.244 2.262-1.696 3.506-.905 2.602-1.244 5.656-1.697 8.71 0 .226-.226.339-.452.339s-.34-.226-.34-.452c.453-3.054.792-6.221 1.697-8.823.452-1.357 1.018-2.601 1.81-3.732.678-1.132 1.583-2.263 2.601-3.281 1.018-1.018 2.149-2.149 3.393-3.167a61.58 61.58 0 014.637-3.506c3.846-2.376 8.596-5.203 13.346-8.144z" fill="#389E00"/><path fill-rule="evenodd" clip-rule="evenodd" d="M201.321 211.29l-20.132.34 1.244-30.993 20.132.114-1.244 30.539zm-34.157-1.017l-20.132-.566 1.357-29.974 20.019.678-1.244 29.862z" fill="#929293"/><path fill-rule="evenodd" clip-rule="evenodd" d="M145.449 175.321c3.053 2.376 5.429 4.299 7.125 5.769 21.489-1.923 45.919-2.715 73.29-2.488-2.601-2.036-7.239-3.733-14.025-5.204-39.585.227-61.753.792-66.39 1.923z" fill="#DBB158"/><path fill-rule="evenodd" clip-rule="evenodd" d="M145.788 225.316c4.524 5.316 6.786 7.918 6.786 7.918.453-17.193.453-34.612 0-52.144a88.197 88.197 0 00-7.125-5.769l.339 49.995z" fill="#DBB158"/><path fill-rule="evenodd" clip-rule="evenodd" d="M152.461 181.09c.565 14.818.565 32.237 0 52.144 49.425-2.488 74.081-3.733 74.081-3.733.114-26.128-.226-43.095-.904-50.899-24.317-.34-48.747.452-73.177 2.488z" fill="#F7CE66"/><path fill-rule="evenodd" clip-rule="evenodd" d="M215.232 175.887c.34 0 .566-.226.566-.453 0-.339-.226-.565-.453-.565-10.631-.226-21.263-.226-32.12.113-10.858.339-21.716 1.018-32.8 1.923-.339 0-.452.226-.452.565 0 .34.226.453.565.453 11.084-.905 21.942-1.584 32.8-1.923 10.631-.339 21.376-.339 31.894-.113z" fill="#FBD16B"/><path fill-rule="evenodd" clip-rule="evenodd" d="M195.327 178.828c-3.733.113-7.239.226-10.519.339-.452-.339.339 22.057.339 30.992 0 0 10.406-.339 10.971-.339-.113-.113-.339-10.406-.791-30.992z" fill="#F9F9F9"/><path fill-rule="evenodd" clip-rule="evenodd" d="M184.808 179.167l10.518-.339c-6.446-3.393-9.613-5.203-9.613-5.203-4.638.113-6.9.113-6.9.113a655.457 655.457 0 005.995 5.429z" fill="#E1E2E1"/><path d="M178.099 186.249l-18.557 1.973 1.326 12.485 18.558-1.973-1.327-12.485z" fill="#F9F9F9"/><path fill-rule="evenodd" clip-rule="evenodd" d="M174.629 184.483l-20.358-7.013-.453-65.717 21.15 3.393-.339 69.337z" fill="#DBB158"/><path fill-rule="evenodd" clip-rule="evenodd" d="M174.629 184.483l.339-69.336 23.073-1.358-.905 68.545-22.507 2.149z" fill="#F7CE66"/><path fill-rule="evenodd" clip-rule="evenodd" d="M198.041 113.676l-23.073 1.923-21.15-3.959 22.055-.792 22.168 2.828z" fill="#DBA757"/><path fill-rule="evenodd" clip-rule="evenodd" d="M188.88 114.468l-7.465.566.452 44.113 7.239-.453-.226-44.226z" fill="#F9F9F9"/><path fill-rule="evenodd" clip-rule="evenodd" d="M181.415 115.034l7.465-.566-19.228-3.393-2.714.113.113 1.244 14.364 2.602z" fill="#F9F9F9"/><path fill-rule="evenodd" clip-rule="evenodd" d="M155.515 238.098c-2.375-.113-5.542-.227-8.03-.34-2.489-.113-4.072-.226-5.542-.452-1.471-.113-2.828-.339-3.62-.566-.791-.113-1.131-.226-1.357-.339-.226-.113-.339-.226-.339-.226v3.167l1.244.226c1.244.226 3.619.792 8.37 1.357 4.637.566 11.649 1.132 18.661 1.245 7.013.113 14.138-.227 19.115-.679 5.089-.452 8.03-.905 9.613-1.357 1.584-.34 1.81-.566 1.81-.679.113-.113.113-.113.113-.679v-2.149c0-.565 0-.565-.113-.452-.113.113-.226.226-.566.339-.339.113-.791.226-1.47.339-.679.114-1.583.227-3.054.453-1.47.113-3.393.339-5.316.452-1.922.113-3.732.227-5.881.34-2.149.113-4.411.113-6.899.226h-11.65a55.558 55.558 0 00-5.089-.226z" fill="#141515"/><path fill-rule="evenodd" clip-rule="evenodd" d="M166.033 238.211c16.287 0 29.52-.905 29.52-2.149 0-1.245-13.233-2.149-29.52-2.149-16.286 0-29.519.904-29.519 2.149 0 1.244 13.233 2.149 29.519 2.149z" fill="#080902"/><path fill-rule="evenodd" clip-rule="evenodd" d="M141.151 40.494c-.679.339-.679.339-1.81 5.542-1.018 5.203-3.166 15.496-4.297 20.812-1.131 5.317-1.018 5.43-1.018 5.543 0 .113 0 .113.339.226s.905.452 2.488.905c1.584.452 4.072 1.018 10.405 1.357 6.221.34 16.287.453 24.657.226 8.369-.226 14.929-.678 18.888-1.244 3.845-.452 5.089-.905 5.655-1.13l.565-.227-.678-5.43c-.679-5.429-1.923-16.287-2.602-21.717-.678-5.429-.678-5.429-1.018-5.655-.452-.113-1.244-.453-3.393-.905-2.149-.34-5.429-.679-10.405-1.018-4.977-.226-11.536-.453-17.531-.226-5.994.113-11.31.678-14.703 1.244-3.393.792-4.863 1.357-5.542 1.697z" fill="#FDE742"/><path fill-rule="evenodd" clip-rule="evenodd" d="M153.14 71.034c-2.941.113-6.221.339-9.162.452-2.94.226-5.315.34-6.673.566-1.357.113-1.583.226-1.017.452.565.226 1.809.679 3.732 1.018 1.923.34 4.524.566 7.352.679 2.94.113 6.107.226 9.5.339 3.393.113 6.899.113 11.197 0 4.298-.113 9.501-.34 13.799-.566 4.297-.226 7.917-.678 10.066-.904 2.148-.227 3.053-.453 3.393-.68.339-.225.226-.338-.34-.565-.565-.226-1.47-.34-4.411-.565-2.94-.227-7.804-.453-13.119-.566-5.316-.113-10.858-.113-14.93-.113-3.958.226-6.447.34-9.387.453z" fill="#080902"/><path fill-rule="evenodd" clip-rule="evenodd" d="M167.051 145.46V74.201l.34-.227c.339-.226.905-.565 1.357-1.244.452-.566.679-1.357.792-1.697l.113-.339h-7.804c-.226 0-.226 0-.226.226.113.227.226.792.565 1.245.339.452.905 1.017 1.244 1.244.339.34.566.452.679.452l.113.113v162.088h2.601v-15.949c.113-15.835.113-47.619.226-74.653z" fill="#141515"/><path fill-rule="evenodd" clip-rule="evenodd" d="M287.617 147.609c-1.47-5.881-3.845-16.401-4.976-23.414-1.131-7.012-1.131-10.293 0-12.781 1.131-2.488 3.393-3.959 7.351-5.203 3.959-1.131 9.84-1.923 21.037-2.149 11.197-.226 27.823.113 38.002.565 10.18.453 14.025 1.018 16.853 2.376 2.94 1.357 4.863 3.506 5.428 6.786.566 3.394-.339 7.918-1.696 14.705-1.357 6.786-3.167 15.835-3.959 20.36-.904 4.524-.904 4.524-2.035 5.768-1.132 1.244-3.507 3.846-5.656 6.9-2.149 3.167-4.071 6.787-5.542 8.37-1.47 1.471-2.375.905-2.94.566-.453-.34-.453-.34-6.56-.113-6.108.226-18.323.791-26.013.565-7.691-.113-10.858-1.018-12.442-1.47-1.583-.453-1.583-.453-2.035 0-.453.339-1.245 1.131-2.376-.566-1.131-1.697-2.601-5.655-4.297-8.257-1.697-2.602-3.394-3.733-4.638-4.864-1.357-1.131-2.035-2.262-3.506-8.144z" fill="#FDE742"/><path fill-rule="evenodd" clip-rule="evenodd" d="M302.547 168.535c.226.452.226.452-1.358 1.923-1.47 1.47-4.524 4.411-5.994 5.994a165.674 165.674 0 01-1.583 1.697s-.114 0-.566-1.81c-.452-1.923-1.131-5.768-2.149-8.709s-2.036-5.09-3.167-6.561c-1.131-1.47-2.375-2.488-3.958-3.167-1.584-.791-3.62-1.357-4.864-1.696-1.244-.34-1.583-.34-1.696-.34h.113s-.226 0-.113-.113.678-.226 2.827-.678c2.036-.34 5.655-1.018 7.465-1.245 1.81-.226 1.81-.113 2.036.113.113.227.452.566.679.905.339.34.565.566 1.244.905.678.34 1.696.905 2.601 1.358.905.452 1.583 1.018 2.149 1.47.679.566 1.244 1.244 1.923 2.036.678.905 1.244 1.923 1.809 2.941.566 1.018 1.018 2.036 1.471 2.941.565.791.904 1.583 1.131 2.036zm50.217-5.43a74.438 74.438 0 00-2.036 3.507c-.679 1.131-1.131 2.149-1.471 2.715-.226.452-.226.452 1.245 1.809 1.583 1.358 4.637 3.959 6.107 5.317 1.583 1.357 1.583 1.47 1.697 1.47l.678-1.357c.566-1.358 1.81-4.072 3.846-7.353 2.035-3.28 4.863-7.012 6.446-9.501 1.584-2.488 1.81-3.732 2.262-4.298.566-.566 1.358-.452 1.697-.339.339 0 .226 0-.905-.113-1.244-.227-3.506-.566-4.976-.905-1.584-.227-2.375-.453-2.715-.566-.339-.113-.339-.113-.565 0-.226.113-.566.339-1.471.905-.791.452-2.035 1.131-3.279 2.036-1.245.792-2.263 1.697-3.167 2.488-.905.792-1.471 1.584-2.036 2.149-.453.566-.792 1.132-1.357 2.036z" fill="#C6B532"/><path fill-rule="evenodd" clip-rule="evenodd" d="M295.76 175.435a215.724 215.724 0 01-4.071 3.167c-.453.452.678-.113 12.441-.113 11.649 0 33.817.452 44.675.452 10.745 0 10.179-.566 9.953-.792-.339-.226-.339-.226-1.131-.905l-3.959-3.393c-1.583-1.357-3.053-2.715-3.845-3.28-.792-.679-.792-.679-1.018-.566-.226 0-.792.113-2.828.113-2.149 0-5.881-.113-12.78-.226-7.012-.113-17.192-.339-22.847-.565-5.655-.114-6.559-.227-7.012-.227-.452 0-.452 0-.905.34l-2.375 2.375c-1.244 1.018-2.601 2.262-4.298 3.62z" fill="#E8D43F"/><path fill-rule="evenodd" clip-rule="evenodd" d="M291.349 180.524c0 1.697.114 4.977.114 6.561v1.696s0 .114 3.845.227 11.423.226 23.186.226c11.762.113 27.823.226 35.853.226 8.03 0 8.143 0 8.143-.113.113-.113.227-.452.227-2.375 0-1.81 0-5.203-.114-7.013-.113-1.81-.226-2.036-.904-2.036-.679-.113-2.036-.113-7.465-.113h-25.787c-10.971 0-23.299-.227-29.633-.227h-7.012c-.226 0-.453.001-.453.114-.113.113-.113.226-.113.452 0 .339 0 .679.113 2.375z" fill="#F1DB41"/><path fill-rule="evenodd" clip-rule="evenodd" d="M361.359 179.506v5.769c0 1.697-.113 2.489-.226 2.828 0 .339 0 .339-.226.339-.113 0-.452.113-.679.113h-19.566c-5.768 0-10.971 0-17.87-.113-7.013 0-15.834-.113-21.263-.226-5.429-.113-7.352-.113-8.257-.226-.905-.113-.905 0-.905-.113v-9.275c0-.453 0-.566.114-.679 0-.113.113-.113.226-.113h.791v-.679c0-.679-.113-2.149-.339-4.185-.226-1.923-.452-4.411-.678-6.108-.227-1.697-.453-2.601-.792-3.619-.34-.905-.792-1.923-1.357-2.828-.566-.905-1.245-1.584-2.036-2.262-.792-.679-1.81-1.245-2.941-1.697-1.131-.453-2.375-.792-3.28-1.018-.905-.226-1.47-.226-2.149-.226-.678 0-1.47.113-2.375.452a6.4 6.4 0 00-2.601 1.81c-.792.905-1.357 2.149-1.357 3.733-.114 1.583.339 3.28 1.017 5.09.792 1.696 1.81 3.393 2.941 5.994 1.018 2.602 1.923 6.221 3.054 9.502 1.131 3.28 2.375 6.334 3.732 8.822 1.357 2.489 2.941 4.412 4.411 5.543 1.47 1.244 2.941 1.696 4.072 2.036 1.131.339 2.036.452 13.12.452s32.46-.113 43.544-.226c11.084-.113 11.875-.113 12.78-.453.905-.226 1.923-.791 3.28-2.714 1.357-1.923 3.054-5.316 4.185-8.71 1.131-3.393 1.583-6.673 2.375-8.935.792-2.376 1.923-3.733 2.828-5.543.904-1.81 1.696-4.072 2.149-6.56.452-2.489.565-4.977.113-6.787-.453-1.697-1.584-2.601-2.376-3.054-.791-.452-1.244-.565-1.696-.565-.452-.114-.679-.114-1.357 0-.679 0-1.697.226-2.715.452-.905.226-1.696.566-2.488.905a11.013 11.013 0 00-2.375 1.81c-.792.791-1.583 1.809-2.375 3.167-.792 1.244-1.471 2.828-1.923 4.185-.452 1.357-.792 2.601-1.018 3.959-.226 1.357-.452 2.941-.565 4.411-.113 1.47-.227 2.715-.227 3.393v.679h.453c.452 0 1.357 0 1.809.113.792-.113.905 0 1.018 1.357z" fill="#FDE742"/><path fill-rule="evenodd" clip-rule="evenodd" d="M296.778 198.396h-1.47c-.226 0-.226 0-2.262 5.769-2.036 5.768-5.994 17.419-7.917 23.3-1.923 5.882-1.923 6.108-1.697 6.222.227.113.566.226 1.358.226.791 0 2.148-.227 2.94-.453.792-.226.905-.452 2.715-4.411 1.809-3.959 5.315-11.537 7.917-17.193 2.601-5.768 4.524-9.614 5.316-11.537.791-1.923.678-1.923-.227-1.923h-6.673zm16.513 0h-2.941l-1.583 4.298a3039.369 3039.369 0 00-6.334 17.419c-1.583 4.524-1.696 4.751-1.583 4.977.113.226.452.226 1.131.339.678 0 1.696 0 2.262-.113.565 0 .565 0 2.601-4.524 2.036-4.525 6.108-13.46 8.144-17.985 2.035-4.524 2.035-4.524 1.696-4.524h-1.583c-.566.113-1.018.113-1.81.113zm43.77 0h1.471c.226 0 .226 0 2.262 5.769 2.036 5.768 5.994 17.419 7.917 23.3 1.923 5.882 1.923 6.108 1.696 6.222-.226.113-.565.226-1.357.226-.791 0-2.149-.227-2.94-.453-.792-.226-.905-.452-2.715-4.411-1.809-3.959-5.316-11.537-7.917-17.193-2.601-5.768-4.524-9.614-5.316-11.537-.791-1.923-.678-1.923.226-1.923h6.673zm-16.512 0h2.94l1.584 4.298c1.583 4.298 4.75 13.008 6.333 17.419 1.584 4.524 1.697 4.751 1.584 4.977-.113.226-.453.226-1.131.339-.679 0-1.697 0-2.262-.113-.566 0-.566 0-2.602-4.524-2.036-4.525-6.107-13.46-8.143-17.985-2.036-4.524-2.036-4.524-1.696-4.524h1.583c.565.113 1.018.113 1.81.113z" fill="#141515"/><path fill-rule="evenodd" clip-rule="evenodd" d="M52.027 137.543c-.226-1.018-.905-2.036-1.244-3.394-.34-1.357-.453-2.941-.453-3.732 0-.792 0-.792-.678-.905-.566 0-1.81-.113-3.393-.566-1.584-.452-3.506-1.131-5.43-1.923-1.922-.792-3.732-1.81-4.636-2.149-.905-.339-.905-.113-.905.679s.113 2.262 0 3.959c-.113 1.696-.226 3.732-.452 4.977-.227 1.244-.566 1.922-.566 2.488-.113.566.113 1.018.905 2.149.792 1.244 2.036 3.167 3.393 4.411 1.244 1.358 2.488 2.149 3.958 2.602 1.47.565 3.28.792 4.638.679 1.357-.114 2.148-.566 2.94-1.697.679-1.131 1.357-2.941 1.697-4.298.339-1.131.452-2.149.226-3.28z" fill="#FFAF69"/><path fill-rule="evenodd" clip-rule="evenodd" d="M24.543 379.26c.566 1.018 1.584 2.714 2.262 4.75.679 2.149.905 4.751 1.018 6.221.113 1.584-.113 2.036-.678 2.263-.453.339-1.358.452-4.411.452-3.054 0-8.37-.113-11.424-.226-3.053-.113-4.071-.226-4.524-.453-.452-.226-.565-.678-.565-1.696 0-1.131-.113-2.828.226-4.638a18.111 18.111 0 011.81-5.09c.791-1.583 1.583-2.828 2.149-3.28.565-.566.904-.452 2.148-.339 1.245.113 3.28.113 5.09.113 1.697 0 3.054.113 3.959.113.904.113 1.357.113 1.696.339.34.226.679.566 1.244 1.471z" fill="#080902"/><path fill-rule="evenodd" clip-rule="evenodd" d="M16.852 391.476c3.506 0 7.239.113 9.048.113 1.81 0 1.81 0 1.81.452v1.923c0 .566 0 .905-.113 1.131-.113.226-.227.226-.34.226h-2.149c-2.148 0-6.333-.113-9.726-.113-3.393 0-5.995-.113-7.352-.113-1.357 0-1.583 0-1.696-.113a.243.243 0 01-.227-.226v-.792c0-.565 0-1.697.114-2.149.113-.566.226-.566 1.922-.452 1.81 0 5.203 0 8.71.113z" fill="#FBD16B"/><path fill-rule="evenodd" clip-rule="evenodd" d="M38.341 137.429c1.018 1.244 1.923 2.376 2.941 3.394 1.018 1.018 2.149 1.809 3.167 2.262 1.018.452 1.696.678 2.488.226.792-.339 1.47-1.244 2.15-2.941.678-1.583 1.243-3.959 1.47-5.09.226-1.131.226-1.131 1.017-.452.792.678 2.262 2.036 5.655 3.619 3.393 1.584 8.596 3.394 12.102 4.525 1.018.339 4.637 1.696 5.316 1.696 7.238.566 15.269 22.057 18.322 25.337 3.959 4.298 8.031-2.149 9.84 1.357 1.697 3.507 1.923 6.221 1.697 8.823-.226 2.602-1.018 5.09-2.715 7.239-1.696 2.149-4.184 3.959-6.786 4.411-.565.114-1.244.114-1.81.114 1.019 6.899.906 12.668-.678 15.722-1.583 3.167-4.637 3.506-7.804 3.733-3.167.226-6.56.339-11.31.452-4.75.113-10.971.339-17.87.339-6.9.113-14.477.113-20.02.113-5.541 0-9.16-.113-11.083-.226s-2.262-.113-2.488-1.696c-.227-1.584-.34-4.525-.566-7.918-.226-3.28-.565-6.9-1.244-9.841-.679-3.054-1.583-5.429-2.262-6.673-.679-1.245-1.244-1.245-2.375-1.584-1.131-.226-3.054-.792-5.316-1.47-2.375-.792-5.203-1.81-6.786-2.489-1.583-.678-2.036-1.018-2.262-1.47-.226-.453-.452-.905.113-4.751.452-3.846 1.697-10.972 2.94-16.062 1.245-4.976 2.715-7.917 3.62-9.501.905-1.583 1.244-1.696 3.62-2.601 2.374-.905 6.898-2.602 10.744-4.525 3.958-1.923 7.352-4.185 9.387-5.655 2.036-1.471 2.828-2.036 3.167-2.263.34-.339.34-.339.905.34.566 1.018 1.697 2.375 2.714 3.506z" fill="#4AAB3C"/><path fill-rule="evenodd" clip-rule="evenodd" d="M47.729 142.293c-.566.905-1.018 1.131-1.244 1.244-.34.113-.453.113-1.358-.452-.905-.566-2.375-1.697-4.184-3.393-1.697-1.584-3.733-3.733-4.75-4.751-1.132-1.018-1.245-1.018-2.036-.679a20.76 20.76 0 00-2.715 1.471c-.678.452-.678.791-.34 2.149.453 1.357 1.358 3.846 2.489 6.221a51.465 51.465 0 003.393 5.995c1.018 1.357 1.584 1.696 2.375 1.47.792-.226 1.697-1.018 2.828-2.262a196.488 196.488 0 003.28-3.733c.791-.791.904-.791 2.149 0 1.13.792 3.393 2.489 4.976 3.394 1.584.905 2.715 1.131 3.393 1.018.679 0 1.018-.34 1.018-1.471s-.113-3.054-.226-4.864c-.113-1.809 0-3.619 0-4.637 0-1.018 0-1.244-.226-1.584-.227-.339-.792-.678-1.81-1.131-1.018-.565-2.488-1.357-3.28-1.583-.792-.227-.792 0-1.018.565-.113.679-.452 1.584-.905 2.941-.452 1.357-1.244 3.054-1.81 4.072z" fill="#5DC94C"/><path fill-rule="evenodd" clip-rule="evenodd" d="M64.129 161.748c-.227 5.203-.227 11.198-.227 14.365-.113 3.167-.226 3.62-.452 3.846-.226.226-.679.339-3.393.452-2.715.113-7.804.227-12.668.34-4.75.226-9.274.452-11.536.678-2.262.113-2.488.113-3.054-3.506-.565-3.733-1.583-11.085-2.94-17.306-1.357-6.334-2.94-11.537-3.846-14.591-.905-3.054-1.018-3.959-1.244-4.525-.226-.565-.34-.905-.452-.905-.113-.113-.34 0-.453.114-.113.113-.339.339-.678.452-.34.113-.905.339-1.47.452-.566.114-1.018.114-1.358.227-.339.113-.452.226-.565.339 0 .226 0 .452 1.018 4.411 1.018 4.072 3.053 11.877 4.071 21.039 1.018 9.162 1.131 19.794 1.131 26.128 0 6.335-.113 8.484-.226 9.954-.113 1.471-.34 2.375-1.13 2.715-.793.339-2.037.339-2.715.678-.679.34-.566 1.131-.566 1.471 0 .339 0 .339-.452 2.601-.453 2.149-1.244 6.561-2.036 13.121-.792 6.561-1.47 15.157-2.149 28.843-.679 13.574-1.357 32.237-2.714 52.823-1.358 20.586-3.507 43.208-4.524 54.859-1.018 11.65-.792 12.216-.453 12.442.34.339.792.339 4.185.565 3.28.227 9.5.679 12.554.792 3.167.113 3.28-.226 4.185-5.655 1.018-5.543 2.827-16.175 4.863-28.052 2.036-11.99 4.185-25.11 6.56-38.797 2.262-13.686 4.75-27.938 6.108-35.743 1.357-7.804 1.583-9.162 1.922-9.84.34-.679.566-.792.679.113 0 .905-.113 2.828.34 15.27.452 12.442 1.583 35.516 2.6 54.18 1.019 18.663 1.923 33.028 2.263 40.606.452 7.579.452 8.371.452 9.162 0 .905-.113 1.81 1.923 1.584 1.922-.226 5.994-1.584 9.161-2.828 3.28-1.244 5.655-2.488 7.012-3.167 1.244-.679 1.47-.792 1.584-.905.113-.113.34-.339.34-5.203.112-4.864.112-14.478.565-31.445.565-16.966 1.583-41.285 1.922-58.704.34-17.532 0-28.165-1.018-38.684-1.017-10.519-2.488-20.812-3.732-33.254-1.244-12.443-2.036-26.921-2.488-37.214-.453-10.293-.34-16.288-.34-19.568 0-3.167.114-3.619-.113-3.732-.226-.227-.678-.227-1.244-.34-.565-.113-1.244-.452-1.81-.678-.565-.227-1.243-.453-1.583-.453-.452 0-.678.226-.678.453-.114.226-.114.339-.114 1.357-.113 1.018-.226 2.828-.452 5.995 0 3.054-.34 7.465-.565 12.668z" fill="#101E25"/><path fill-rule="evenodd" clip-rule="evenodd" d="M60.962 254.951c-.905 2.489-2.375 6.674-3.62 9.502-1.13 2.827-2.035 4.298-2.6 6.56-.566 2.262-.906 5.316-1.471 7.465-.566 2.149-1.357 3.281-1.81 3.959-.452.566-.452.566-.565-2.488-.113-3.167-.34-9.388-.453-13.687-.113-4.298-.113-6.56-.226-7.917 0-1.358-.113-1.923-.113-2.149 0-.227 0-.227.905-.566.905-.339 2.714-.905 4.298-1.81 1.583-.792 2.94-1.81 3.958-2.601 1.018-.792 1.697-1.358 2.15-1.358.452 0 .678.566.678 1.245-.113.565-.226 1.357-1.131 3.845zm-7.239-42.529c2.715 0 5.881-.113 7.352-.113 1.583 0 1.583 0 1.583 1.47s.113 4.524.226 6.787c.114 2.262.114 3.732 0 4.524-.113.792-.339 1.018-3.166 1.131-2.828.226-8.257.453-12.442.679-4.184.113-7.125.113-8.935 0-1.81-.113-2.375-.339-2.714-.679-.34-.339-.34-.792-.34-3.054 0-2.262.114-6.447.114-8.596v-2.036H45.58c3.054 0 5.429 0 8.143-.113zm-26.918.113c0-.34-.113-.566-.453-.679-.339 0-.565.113-.678.452-.679 4.638-1.47 9.389-2.15 14.365-.678 4.977-1.356 10.407-1.922 16.515-.565 6.447-1.018 13.46-1.696 21.943-.566 7.805-1.131 16.853-2.036 27.599-1.81 22.283-4.524 51.578-7.239 80.761v.113c0 .339.227.566.566.566.34 0 .565-.227.565-.566v-.113c2.715-29.409 5.43-58.704 7.239-80.761.792-10.632 1.47-19.681 2.036-27.599.565-8.483 1.018-15.609 1.583-21.943.566-6.108 1.244-11.425 1.923-16.515.792-4.863 1.583-9.501 2.262-14.138zm50.669 156.431c.114 1.018.114 2.941.114 4.299 0 1.357 0 2.262-.114 2.941 0 .678-.113 1.131-.678 1.696-.566.566-1.697 1.358-3.28 2.036-1.584.679-3.62 1.131-5.542 1.358-1.923.226-3.733.339-5.429.226a43.382 43.382 0 01-4.637-.566c-1.357-.226-2.375-.565-2.828-1.131-.452-.565-.452-1.357-.452-2.375s.113-2.036.113-3.167c0-1.018-.226-2.149-.113-2.828.113-.679.565-1.131 1.357-1.131s2.262.113 4.637.113c2.375 0 5.995-.339 8.483-.792 2.601-.452 4.298-1.131 5.429-1.583 1.13-.453 1.81-.566 2.262-.453.226.113.565.34.678 1.357z" fill="#080902"/><path fill-rule="evenodd" clip-rule="evenodd" d="M30.764 373.378c-.34 1.244-.905 2.941-1.131 4.185-.226 1.244-.113 1.923-.113 2.488 0 .566-.227.905-1.584 1.245-1.47.339-4.184.678-7.69.339-3.507-.339-7.805-1.244-10.18-2.036-2.488-.679-2.94-1.244-3.28-1.81-.34-.565-.565-1.018-.565-1.923s.226-2.375.452-3.619c.226-1.244.453-2.489.792-3.28.34-.679.905-1.018 1.583-.905.679.113 1.584.565 3.054 1.018 1.47.452 3.393 1.018 5.768 1.357 2.375.339 4.977.566 7.352.452 2.262 0 4.184-.339 5.09 0 .791.34.791 1.132.452 2.489z" fill="#080902"/><path fill-rule="evenodd" clip-rule="evenodd" d="M47.163 129.172c.792.226 1.697.34 2.263.453.565.226.791.452.904 1.018.113.565.227 1.357.34 2.036.113.678.113 1.018-.114 1.357-.339.339-1.017.679-2.035.792-1.018.113-2.489 0-4.185-.453-1.697-.452-3.62-1.244-5.09-2.036-1.583-.791-2.714-1.47-3.28-1.923-.565-.339-.565-.339-.565-.791v-4.299c0-.113 0-.452.452-.339.34.113 1.131.566 2.602 1.131 1.583.566 3.958 1.471 5.542 1.923 1.47.792 2.262 1.018 3.166 1.131z" fill="#FF9E69"/><path fill-rule="evenodd" clip-rule="evenodd" d="M29.067 115.373c.34.113.34.113.679 1.47.339 1.245 1.13 3.846 2.036 5.656.791 1.697 1.81 2.601 3.619 3.959 1.81 1.357 4.637 3.054 7.012 4.072 2.375 1.018 4.298 1.131 5.542 1.244 1.244.113 1.923 0 3.28-.566 1.357-.565 3.393-1.809 5.203-3.506 1.81-1.81 3.506-4.072 4.297-5.769.792-1.696.792-2.714 1.018-4.977.114-2.262.453-5.655.792-9.953.34-4.185.905-9.275 1.131-12.33.226-3.053.113-4.184-.452-5.655-.566-1.47-1.81-3.28-4.864-5.203-3.053-1.923-7.917-3.846-12.102-4.072-4.184-.34-7.69 1.018-10.405 2.262-2.714 1.245-4.41 2.263-5.542 3.507-1.13 1.244-1.583 2.488-1.922 3.959-.34 1.357-.68 2.94-1.018 4.41-.34 1.584-.566 3.168-1.018 4.412-.453 1.244-1.018 2.262-1.358 2.941-.339.679-.452 1.018-.565 1.244-.113.227-.226.34-.566.566-.226.226-.565.678-.791 1.81-.227 1.018-.227 2.601.113 3.958.34 1.358.905 2.376 1.696 3.394.792.905 1.584 1.81 2.375 2.375a9.59 9.59 0 001.81.792z" fill="#FFAF69"/><path fill-rule="evenodd" clip-rule="evenodd" d="M54.741 119.332c-.678 0-1.583.226-3.054.452-1.47.226-3.28.339-4.75.339-1.47 0-2.601-.226-3.393-.452-.905-.226-1.583-.452-2.036-.566-.452 0-.565.114-.678.453 0 .339.113.679.452 1.47.34.792 1.018 2.149 1.923 3.054 1.018 1.018 2.262 1.697 3.732 2.036 1.357.34 2.828.227 4.185-.565 1.357-.679 2.488-2.036 3.28-3.167.791-1.131 1.13-1.923 1.244-2.376 0-.452-.226-.678-.905-.678z" fill="#080902"/><path fill-rule="evenodd" clip-rule="evenodd" d="M53.95 119.671c0 .113-.227.566-.453.905-.226.339-.678.905-1.018 1.357a8.201 8.201 0 01-1.244 1.018c-.452.226-.791.226-1.47.34-.679 0-1.697 0-2.488-.114a34.267 34.267 0 01-2.262-.339c-.566-.113-.905-.226-1.245-.565-.226-.227-.452-.679-.678-1.018-.113-.34-.226-.792-.226-1.018 0-.227 0-.453.113-.566.113-.113.113-.113.565 0 .453.113 1.131.226 2.15.339 1.017.113 2.148.227 3.392.113 1.244 0 2.375-.226 3.28-.339.792-.113 1.131-.226 1.47-.226 0-.113.114-.113.114.113z" fill="#F9F9F9"/><path fill-rule="evenodd" clip-rule="evenodd" d="M50.217 108.586c0-.339-.226-.565-.565-.565-.34 0-.566.226-.566.565-.113.792-.113 1.584.226 2.375.227.453.453.792.792 1.131.34.34.679.566.905.792.226.113.34.226.565.453.34.226.566.339.679.565.113.113.113.226.226.34 0 .113.113.226.113.339v.226c0 .113-.113.113-.113.226l-.226.227c-.113.113-.34.226-.452.339-.34.226-.679.339-1.131.452-.34.113-.453.453-.34.679.113.339.453.452.679.339.452-.113.792-.339 1.244-.452l.679-.339a.888.888 0 00.452-.453c.113-.226.226-.452.34-.565.113-.227.113-.453.113-.679 0-.226-.114-.453-.227-.679-.113-.226-.226-.452-.339-.565a4.867 4.867 0 00-.792-.679c-.113-.113-.34-.226-.565-.339-.227-.227-.566-.453-.792-.679a3.438 3.438 0 01-.566-.792c-.452-.905-.339-1.583-.339-2.262z" fill="#F46F2D"/><path fill-rule="evenodd" clip-rule="evenodd" d="M60.17 101.121c-.566-.453-1.697-.792-2.714-.905a7.49 7.49 0 00-2.715-.113c-.905.113-1.696.226-2.149.452-.452.227-.678.566-.678.905 0 .34.226.566.565.792.453.113 1.131.113 1.81.113h1.922c.679.113 1.47.226 2.036.339.566.114.905.227 1.244.227.453 0 .905-.227 1.018-.566.227-.339.227-.792-.339-1.244zm-16.4-1.245c0-.339-.113-.565-.339-.791-.226-.113-.678-.226-1.357-.113-.679.113-1.81.226-2.94.678-1.132.34-2.263.905-2.941 1.358-.679.565-1.018 1.018-1.018 1.47 0 .453.452.792.905.792.452 0 .904-.339 1.47-.792.678-.339 1.47-.792 2.262-1.018.792-.226 1.47-.339 2.036-.452.565 0 1.018 0 1.357-.227.226-.226.452-.565.566-.905z" fill="#211F17"/><path fill-rule="evenodd" clip-rule="evenodd" d="M57.795 106.889c.226.566.226 1.131.113 1.81a7.477 7.477 0 01-.566 1.697c-.226.452-.565.792-.791.905a1.25 1.25 0 01-.905 0 2.68 2.68 0 01-.905-1.018c-.226-.453-.34-1.018-.34-1.697 0-.566 0-1.244.227-1.81.226-.452.453-.905.792-1.018.34-.226.905-.226 1.357 0 .566.227.792.566 1.018 1.131zm-15.043 0c.227.566.227 1.131.113 1.81a7.477 7.477 0 01-.565 1.697c-.226.452-.566.792-.792.905a1.25 1.25 0 01-.905 0 2.68 2.68 0 01-.904-1.018c-.227-.453-.34-1.018-.34-1.697 0-.566 0-1.244.227-1.81.226-.452.452-.905.791-1.018.34-.226.905-.226 1.357 0 .566.227.905.566 1.018 1.131z" fill="#080902"/><path fill-rule="evenodd" clip-rule="evenodd" d="M32.687 108.021c0-1.358.113-3.62.339-5.769a34.74 34.74 0 011.13-5.769c.453-1.583 1.132-2.714 1.81-3.054.792-.452 1.697-.226 3.054-.113 1.357 0 3.167-.113 4.524-.678 1.358-.566 2.375-1.47 3.054-2.263.679-.791.905-1.47 1.131-1.244.226.113.453 1.018 1.244 1.697.792.792 2.15 1.357 4.185 1.81 1.923.452 4.41.678 6.56.678 2.149 0 3.958-.113 5.316-.678 1.47-.453 2.488-1.245 3.28-2.376.791-1.13 1.357-2.714 1.696-4.185.34-1.47.34-2.94-.226-4.185-.453-1.244-1.47-2.149-2.602-2.602-1.13-.452-2.148-.452-2.6-.791-.34-.453-.114-1.018-.114-2.036s-.113-2.262-1.13-3.846c-.906-1.584-2.715-3.393-4.751-4.185-2.036-.792-4.411-.453-6.108.113-1.696.566-2.714 1.47-3.506 2.15-.791.678-1.244 1.13-2.036 1.017-.678-.113-1.583-1.018-2.714-1.583-1.131-.566-2.375-.792-4.411-.792-1.923.113-4.637.452-6.9 1.697-2.261 1.13-4.07 3.053-5.202 4.976-1.13 1.923-1.47 3.733-1.696 5.203-.227 1.47-.227 2.376-.34 3.168-.113.791-.452 1.244-.905 1.696-.339.453-.791.792-1.017 2.715-.227 1.923-.34 5.542-.227 8.03.113 2.49.34 4.073.453 4.864.113.792.113.792.565.679.453 0 1.244-.113 2.036.226.792.227 1.47.792 2.149 1.81s1.244 2.375 1.696 3.506c.453 1.132.792 2.036 1.018 2.376.34.339.566.226.679-.113.566-.227.566-.792.566-2.149z" fill="#403E32"/><path fill-rule="evenodd" clip-rule="evenodd" d="M66.164 178.149c-.452-11.537-.226-11.65-.452-11.65-.226-.113-.792-.227-5.655-1.358-4.864-1.131-13.912-3.167-18.436-4.185l-4.524-1.018.566 12.216c.565 12.216 1.583 36.761 2.149 48.977.565 12.216.565 12.216.565 13.121v3.619c0 1.018.113 1.358 3.62 3.281 3.505 1.809 10.405 5.203 15.042 7.126 4.637 2.036 7.125 2.714 8.256 3.054 1.244.339 1.244.339 1.244-2.263 0-2.601 0-7.917-.452-22.169a41135.69 41135.69 0 01-1.923-48.751z" fill="#F7CE66"/><path fill-rule="evenodd" clip-rule="evenodd" d="M47.729 162.314l5.203 1.244 1.13 60.853-4.863-1.583-1.47-60.514z" fill="#FBFBFC"/><path fill-rule="evenodd" clip-rule="evenodd" d="M34.722 210.612c-.113 1.47 0 2.828.226 4.185.227 1.357.34 2.828.453 4.977.113 2.262 0 5.316.226 6.787.113 1.583.452 1.583 1.357 1.696.905.113 2.488.453 3.959.566 1.583.113 3.053.226 5.655.565 2.601.34 6.334.905 8.143 1.131 1.81.227 1.923 0 1.923-.339v-1.244c0-.679.113-1.697.113-8.936s0-20.699-.113-27.373c-.113-6.786-.113-6.899-.453-6.899-.226 0-.678 0-4.071-.227-3.393-.113-9.84-.452-13.007-.565l-3.167-.113v3.506c0 3.507 0 10.406-.226 14.818-.34 4.185-.792 5.995-1.018 7.465z" fill="#6A6856"/><path fill-rule="evenodd" clip-rule="evenodd" d="M45.92 188.442c-2.602-.113-5.203-.226-6.448-.339l-1.244-.113-.113 5.542c-.113 5.543-.34 16.514-.34 22.057-.112 5.542 0 5.542.114 5.768.113.113.452.453 3.054.905 2.601.453 7.69 1.018 10.179 1.244 2.488.227 2.601.227 2.601.227 0-.113 0-.227.113-5.995 0-5.769.113-17.193.113-22.962 0-5.768 0-5.994-.113-6.108 0-.113 0-.113-1.357-.113-1.357.113-3.959 0-6.56-.113z" fill="#E7E6E5"/><path fill-rule="evenodd" clip-rule="evenodd" d="M41.96 186.519v.679c0 .226.114.226 1.471.339 1.358.113 4.072.227 5.43.227 1.356 0 1.47.113 1.47 0 0 0 .113-.114.113-.227v-.565c0-.113 0-.226-.114-.34l-1.357-.113c-1.357-.113-4.071-.226-5.429-.339-1.357-.113-1.357-.113-1.47-.113-.113.226-.113.226-.113.452z" fill="#B1B1B1"/><path fill-rule="evenodd" clip-rule="evenodd" d="M42.413 187.764v1.357c0 .339.113.339 1.131.452 1.131 0 3.167.113 4.411.227h1.584c.113 0 .113 0 .113-.34 0-.339-.114-.905-.114-1.244v-.339h-.226s-.113.113-.113.226-.113.339-.113.565c0 .227 0 .453-.113.566-.113.113-.34.113-1.244.113-1.018 0-2.828-.113-3.733-.226-.904-.113-1.017-.113-1.13-.113-.114 0-.114-.113-.114-.34 0-.226-.113-.678-.113-.904v-.227h-.113c0-.113-.113-.113-.113.227z" fill="#929293"/><path fill-rule="evenodd" clip-rule="evenodd" d="M43.884 189.008c-.114.113-.114.452-.114.678 0 .227.114.227.68.227h2.487c.679 0 .679 0 .792-.113v-.453c0-.113 0-.226-.226-.226-.113 0-.453 0-1.018-.113-.566 0-1.584-.113-2.036-.113-.452-.114-.452-.113-.565.113z" fill="#101E25"/><path fill-rule="evenodd" clip-rule="evenodd" d="M37.437 203.486c-1.018 1.47-1.697 2.375-2.715 2.941-1.018.565-2.488.678-5.429-.113-2.94-.679-7.351-2.263-10.631-3.507-3.28-1.244-5.43-2.375-6.56-3.054-1.131-.678-1.131-.905-1.131-1.47 0-.566.113-1.471.678-3.846.566-2.375 1.584-6.221 2.036-8.144.453-1.923.453-1.923.34-1.923-.114 0-.227-.113-.905-.226a63.405 63.405 0 00-3.054-.905c-1.131-.339-2.262-.792-3.62-1.244-1.356-.566-2.827-1.131-3.618-1.471l-.792-.339-.226 2.941c-.227 2.941-.792 8.936-1.131 13.799-.34 4.864-.679 8.71-.679 10.859 0 2.149.34 2.375 2.036 3.167 1.81.792 4.976 2.149 10.066 3.28 5.09 1.018 11.989 1.81 15.721 2.376 3.846.452 4.524.791 4.977 1.018.452.339.791.678 1.583 1.923.678 1.244 1.923 3.28 2.827 4.524 1.018 1.244 1.697 1.697 2.262 1.923.566.226.905.226 1.131.226.227 0 .227.113.566.452.34.34 1.018.792 1.697 1.132.565.339 1.13.339 1.47.226.34-.113.452-.566.565-.905.113-.339.113-.566.113-1.018 0-.453.113-1.018.113-1.47 0-.453-.226-.905-.452-1.245-.34-.452-.792-.905-1.357-1.357-.453-.452-1.018-1.018-1.244-1.357-.226-.34-.34-.453-.113-.453.226 0 .678.113 1.244.226.452.114 1.018.114 1.357-.226.34-.226.452-.792.452-1.244 0-.452-.226-.792-.565-1.244-.453-.453-1.018-1.018-1.697-2.376-.678-1.244-1.357-3.28-1.81-4.863-.452-1.584-.79-2.941-.904-3.733-.113-.905-.113-1.357.452-2.262.453-.792 1.47-2.036 1.923-2.828.566-.792.679-1.244.679-1.923 0-.565-.113-1.357-.227-1.696-.113-.34-.339-.227-.678-.114-.34.114-.679.34-1.584 1.358a369.116 369.116 0 00-3.166 4.185z" fill="#FFAF69"/><path fill-rule="evenodd" clip-rule="evenodd" d="M10.292 183.239c1.697.566 2.601.905 3.167 1.018.452.113.452.113.452.226v.453c0 .113-.113.339-.565.565-.453.227-1.357.566-2.488.679a20.579 20.579 0 01-3.733 0c-1.244-.113-2.149-.339-3.053-.566-.905-.226-1.697-.565-2.15-.678-.452-.113-.452-.113-.339-.905.113-.792.227-2.375.34-3.054.113-.792.113-.792.452-.566.34.114 1.018.453 2.488 1.018 1.47.34 3.846 1.245 5.43 1.81z" fill="#FF9E69"/><path fill-rule="evenodd" clip-rule="evenodd" d="M66.39 79.29c0 .453.453 1.358.34 2.828-.113 1.47-.905 3.394-2.262 4.977-1.357 1.584-3.28 2.941-5.316 3.507-2.036.565-4.298.339-6.107.113-1.81-.227-3.28-.679-3.846-.679-.565 0-.226.34.34.679.565.34 1.244.678 2.488 1.018a22.41 22.41 0 004.298.791c1.47.227 2.827.227 4.184.227 1.358 0 2.715 0 3.959-.34 1.244-.339 2.262-1.13 3.054-1.696.678-.679 1.13-1.131 1.47-1.81.34-.566.679-1.357.905-2.15.226-.79.34-1.696.452-2.488.113-.791 0-1.47-.113-2.035-.113-.566-.34-1.019-.565-1.471-.227-.34-.453-.679-.792-1.018-.34-.34-.905-.679-1.357-.905-.679.226-1.131 0-1.131.453z" fill="#4F4D3E"/><path fill-rule="evenodd" clip-rule="evenodd" d="M67.522 216.154c.226 8.71.565 21.265.678 27.599.114 6.334.114 6.334.114 6.561v1.131c0 .226.113.113 7.917-1.471 7.917-1.583 23.638-4.637 31.442-6.221 7.917-1.583 7.917-1.697 7.917-1.923 0-.226 0-.339-.452-13.912a8672.58 8672.58 0 01-1.584-54.18l-.452-13.46-7.917 1.018-31.669 4.072-7.917 1.018.226 5.316c.227 5.316.566 15.835.905 23.527.34 7.691.566 12.329.792 20.925z" fill="#DBB158"/><path fill-rule="evenodd" clip-rule="evenodd" d="M50.104 162.879c-4.75-1.131-8.935-2.036-10.971-2.488l-2.036-.453 7.804-.678c7.804-.679 23.525-2.036 31.33-2.715 7.803-.679 7.803-.679 8.03-.679.226 0 .565.114 5.428.905 4.864.792 14.138 2.263 18.775 2.941l4.637.679-2.375.339c-2.375.34-7.238.905-15.155 1.923-7.917 1.018-19.001 2.375-24.543 3.167l-5.542.679-2.715-.566c-2.488-.678-7.917-1.923-12.667-3.054z" fill="#FBD16B"/><path fill-rule="evenodd" clip-rule="evenodd" d="M53.271 137.656l40.151.226.34 24.432-40.265 1.47-.226-26.128z" fill="#DBB158"/><path fill-rule="evenodd" clip-rule="evenodd" d="M49.313 137.769l3.958-.113.226 26.128-3.958-2.036-.227-23.979z" fill="#F7CE66"/><path fill-rule="evenodd" clip-rule="evenodd" d="M75.552 137.769h-6.786v18.889h6.673l.113-18.889zm16.513 25.336l-7.239.905 2.375 70.581 7.013-1.244-2.15-70.242z" fill="#FBFBFC"/><path fill-rule="evenodd" clip-rule="evenodd" d="M79.963 162.879l8.596-.339 3.506.565-7.239.905-4.863-1.131zm-27.031.679l-5.203-1.244 3.846-.679 1.696 1.81-.34.113z" fill="#FBFBFC"/><path d="M89.01 141.841h-9.84v6.334h9.84v-6.334z" fill="#FBFBFC"/><path fill-rule="evenodd" clip-rule="evenodd" d="M96.928 168.082l11.537-1.696v7.578l-11.537 1.697v-7.579z" fill="#FBFBFC"/><path fill-rule="evenodd" clip-rule="evenodd" d="M74.42 379.938c.566 1.018 1.584 2.715 2.263 4.751.678 2.149.904 4.751 1.018 6.221.113 1.584-.113 2.036-.679 2.262-.452.34-1.357.453-4.411.453-3.054 0-8.37-.113-11.423-.226-3.054-.114-4.072-.227-4.524-.453-.453-.226-.566-.679-.566-1.697 0-1.131-.113-2.827.226-4.637a18.1 18.1 0 011.81-5.09c.792-1.584 1.583-2.828 2.149-3.28.565-.566.905-.453 2.149-.34 1.244.114 3.28.114 5.09.114 1.696 0 3.053.113 3.958.113.905.113 1.357.113 1.697.339.452.226.678.452 1.244 1.47z" fill="#080902"/><path fill-rule="evenodd" clip-rule="evenodd" d="M66.843 392.041c3.506 0 7.239.113 9.048.113 1.81 0 1.81 0 1.81.453v1.923c0 .565 0 .904-.113 1.131-.113.226-.226.226-.34.226H75.1c-2.15 0-6.334-.113-9.727-.113-3.393 0-5.994-.113-7.352-.113-1.357 0-1.583 0-1.696-.113-.113 0-.226-.114-.226-.227v-.791c0-.566 0-1.697.113-2.15.113-.565.226-.565 1.922-.452 1.81 0 5.203.113 8.71.113z" fill="#FBD16B"/><path fill-rule="evenodd" clip-rule="evenodd" d="M30.877 75.897c.452.905.113 3.28.34 5.203.225 1.923 1.13 3.394 2.487 4.525 1.358 1.13 3.054 1.81 4.524 2.036 1.47.339 2.715.113 3.733-.227 1.018-.339 1.922-1.018 2.488-1.018.566 0 .792.453.566 1.018-.227.566-.905 1.358-2.489 2.036-1.583.68-4.184 1.358-6.673 1.245-2.488-.114-4.863-1.132-6.56-2.602-1.583-1.47-2.488-3.393-2.601-5.43-.113-2.035.452-4.297 1.47-5.768 1.018-1.357 2.262-1.923 2.715-1.018z" fill="#4F4D3E"/></svg>