<svg width="788" height="396" fill="none" xmlns="http://www.w3.org/2000/svg"><g clip-path="url(#clip0_601_11852)"><path fill-rule="evenodd" clip-rule="evenodd" d="M153.696 329.248c.119 2.732.119 5.939.594 7.72.475 1.782 1.544 2.019 3.326 2.138 1.9.119 4.514 0 5.939.119 1.425.119 1.425.475 1.425 1.425 0 1.069 0 2.732-.356 3.564-.238.95-.713 1.069-1.663 1.425-.95.475-2.257 1.188-2.851 2.494-.593 1.307-.475 2.97.475 4.157.951 1.069 2.732 1.544 5.464 1.663 2.851.119 6.77 0 24.587-.119 17.816-.118 49.53-.356 72.216-1.069 22.686-.831 36.345-2.256 50.598-3.919 14.254-1.663 29.219-3.563 43.116-5.108 13.778-1.544 26.369-2.613 39.315-2.613 12.947 0 26.25 1.307 33.614 2.02 7.364.712 8.789 1.069 16.272 1.187 7.364.119 20.667.119 27.319.119 6.651 0 6.77 0 6.77.95v3.801c0 .95.119.95 7.008.832l27.437-.476 6.889-.118v1.544c0 1.544.119 4.513.238 5.939.118 1.544.237 1.544.475 1.662.237.119.475.238 13.184-.475 12.709-.712 38.008-2.138 63.545-4.751 25.537-2.613 51.312-6.176 66.753-7.839 15.44-1.663 20.667-1.306 23.992-1.069 3.326.238 4.751.356 17.104-.119 12.353-.475 35.514-1.663 47.154-2.138 11.64-.594 11.64-.594 10.571-1.781-1.069-1.188-3.088-3.564-5.226-5.583-2.138-2.138-4.395-3.919-10.333-18.173-5.939-14.253-15.56-40.977-33.852-49.886-18.291-8.908-45.135 0-63.07 5.583-17.935 5.582-26.962 7.839-36.82 16.035-9.74 8.195-20.311 22.211-26.844 30.882-6.533 8.789-9.146 12.233-22.211 14.253-13.065 2.019-36.583 2.732-44.541-5.464-7.958-8.077-.356-25.062-9.621-33.851-9.265-8.79-35.514-9.384-82.668-4.276-47.154 5.107-115.332 16.035-160.704 21.142-45.373 5.226-67.822 4.751-82.788 4.395-14.847-.357-22.092-.594-26.249.475s-5.345 3.207-5.701 5.582c-.119 2.613.118 4.989.118 7.721z" fill="#24231D"/><path d="M468.929 0H0v284.469h468.929V0z" fill="#4AAB3C"/><path fill-rule="evenodd" clip-rule="evenodd" d="M405.858 333.405c48.936-.119 58.913-.119 63.902-.119h4.989l-.119-1.187c-.119-1.188-.475-3.683-.95-9.859-.475-6.295-1.069-16.272-1.307-23.28-.356-6.889-.356-10.69-.356-12.59v-1.901H36.583v2.732c0 2.732-.119 8.077-.119 10.809v2.969c0 .238-.118.832-.118 3.207-.12 2.257-.12 6.414-.238 8.433v2.019h28.387s-.118 0-.118 3.207 0 9.621.118 12.828v3.682c0 .119.12.119 19.48.119 19.479 0 58.319 0 121.745-.238 63.189-.356 151.203-.712 200.138-.831z" fill="#36342B"/><path d="M473.086 294.921H16.154v18.886h456.932v-18.886z" fill="#4F4D3E"/><path d="M450.637 294.921H344.57v53.925h106.067v-53.925z" fill="#4F4D3E"/><path fill-rule="evenodd" clip-rule="evenodd" d="M159.992 332.573l-.594 1.663h-5.583l.713-2.138c.713-2.138 2.019-6.532 5.345-12.352 3.326-5.82 8.67-13.066 13.303-18.292 4.632-5.226 8.433-8.433 11.521-10.927 3.207-2.495 5.701-4.276 7.008-5.108 1.306-.831 1.306-.831 6.414-.831h44.303c3.801 0 3.801 0 5.464.95 1.782.95 5.226 2.732 9.502 5.464 4.276 2.85 9.265 6.532 13.897 11.64 4.632 4.988 8.789 11.402 11.046 16.747 2.257 5.464 2.494 9.978 2.613 12.234l.119 2.257h-5.107l-.119-1.425c-.119-1.426-.475-4.276-1.663-7.958-1.188-3.682-3.326-8.315-5.464-11.997-2.257-3.801-4.632-6.651-8.195-9.977-3.564-3.326-8.433-7.008-11.997-9.383-3.563-2.376-5.701-3.326-6.889-3.801-1.188-.475-1.425-.356-9.264-.475-7.721 0-23.043-.119-30.763-.238H198l-2.376 1.426c-2.375 1.425-7.126 4.276-11.758 8.314-4.633 4.038-9.027 9.146-12.472 13.659-3.326 4.514-5.701 8.433-7.483 12.115-2.019 3.564-3.326 6.889-3.919 8.433z" fill="#24231D"/><path d="M220.449 395.881c28.338 0 51.311-22.334 51.311-49.886 0-27.551-22.973-49.886-51.311-49.886-28.339 0-51.312 22.335-51.312 49.886 0 27.552 22.973 49.886 51.312 49.886z" fill="#24231D"/><path d="M220.449 378.777c18.63 0 33.732-14.677 33.732-32.782 0-18.105-15.102-32.782-33.732-32.782s-33.733 14.677-33.733 32.782c0 18.105 15.103 32.782 33.733 32.782z" fill="#403E32"/><path fill-rule="evenodd" clip-rule="evenodd" d="M220.449 368.8c11.996 0 21.736-9.858 21.736-21.973 0-12.116-9.74-21.974-21.736-21.974-11.997 0-21.736 9.858-21.736 21.974 0 12.115 9.739 21.973 21.736 21.973z" fill="#737160"/><path d="M679.162 395.881c28.339 0 51.312-22.334 51.312-49.886 0-27.551-22.973-49.886-51.312-49.886-28.338 0-51.311 22.335-51.311 49.886 0 27.552 22.973 49.886 51.311 49.886z" fill="#24231D"/><path d="M679.163 378.777c18.63 0 33.732-14.677 33.732-32.782 0-18.105-15.102-32.782-33.732-32.782s-33.733 14.677-33.733 32.782c0 18.105 15.103 32.782 33.733 32.782z" fill="#403E32"/><path fill-rule="evenodd" clip-rule="evenodd" d="M679.163 368.8c11.996 0 21.736-9.858 21.736-21.973 0-12.116-9.74-21.974-21.736-21.974-11.997 0-21.736 9.858-21.736 21.974 0 12.115 9.739 21.973 21.736 21.973z" fill="#737160"/><path d="M455.032 14.134H12.472v255.369h442.56V14.134z" fill="#4F4D3E"/><path fill-rule="evenodd" clip-rule="evenodd" d="M12.471 269.503V14.134l47.63 20.549V225.2l-47.63 44.303z" fill="#737160"/><path fill-rule="evenodd" clip-rule="evenodd" d="M12.471 269.503l47.63-44.303h350.39l44.541 44.303H12.472z" fill="#36342B"/><path fill-rule="evenodd" clip-rule="evenodd" d="M455.032 269.503V14.134l-44.541 20.549V225.2l44.541 44.303zm0-255.369H12.472L60.1 34.683h350.39l44.541-20.549z" fill="#737160"/><path fill-rule="evenodd" clip-rule="evenodd" d="M744.489 256.438c7.246-3.682 18.054-8.315 23.637-10.571 5.582-2.257 5.701-2.257 5.82-2.257.119 0 .119 0 1.306 3.326 1.188 3.325 3.564 9.858 5.345 16.628 1.782 6.771 2.97 13.66 3.682 17.223.594 3.444.713 3.444.951 3.682l.95.95c.237.238.237.356.356 1.782.238 1.425.594 4.276.713 8.314.119 4.157 0 9.502-.238 14.61-.237 5.107-.712 9.858-1.544 13.778-.831 3.8-1.9 6.77-3.919 9.502-2.02 2.732-4.752 5.345-8.79 7.364-4.038 2.019-9.146 3.444-11.759 4.157-2.613.713-2.613.713-4.276 1.188-1.663.475-4.988 1.544-8.195 2.019-3.207.475-6.533.356-8.196.237-1.663-.118-1.781-.118-1.781-.237v-1.069c0-.95.118-2.969 0-7.127-.119-4.157-.476-10.452-1.663-16.391-1.188-5.82-3.207-11.283-5.464-15.916-2.257-4.632-4.751-8.314-7.483-11.402-2.732-2.97-5.701-5.226-7.483-6.533-1.781-1.307-2.375-1.782-2.732-1.9-.356-.238-.356-.238.238-.713.475-.475 1.425-1.425 4.276-5.107 2.732-3.682 7.364-10.215 11.402-14.847 3.92-4.395 7.602-7.008 14.847-10.69z" fill="#36342B"/><path fill-rule="evenodd" clip-rule="evenodd" d="M749.003 223.062c-2.138-1.188-4.989-2.614-8.196-4.276-3.207-1.663-6.651-3.326-11.165-5.464-4.513-2.138-9.977-4.632-14.372-6.533l-9.62-4.276c-2.02-.95-3.089-1.306-3.92-1.663a27.28 27.28 0 00-2.257-.831 13.4 13.4 0 00-1.781-.475c-.594-.119-1.069-.238-1.545-.238-.475 0-.95-.118-1.187-.118-.238 0-.238-.001 9.739 5.582 9.978 5.582 29.932 16.866 40.622 23.755 10.69 6.889 12.115 9.265 14.609 11.046 2.495 1.782 6.177 2.97 8.433 4.039 2.376 1.069 3.326 1.9 4.395 2.138.95.237 1.901 0 2.376-.119.475-.119.475-.119.237-.95-.237-.832-.712-2.494-.95-3.207-.238-.832-.238-.832-.356-1.069-.119-.238-.357-.594-.594-.95-.238-.357-.475-.594-.95-1.069-.476-.357-1.069-.951-2.257-1.901-1.188-.95-2.97-2.138-4.989-3.563-2.019-1.425-4.394-2.851-6.295-4.038-1.9-1.188-3.444-2.138-4.989-2.97-1.425-.95-2.85-1.781-4.988-2.85z" fill="#fff"/><path fill-rule="evenodd" clip-rule="evenodd" d="M773.827 247.886c1.9-2.257 1.901-2.257 1.663-3.207-.238-.95-.832-2.851-1.307-4.038-.475-1.188-.95-1.782-3.444-3.801-2.494-1.901-7.008-5.226-13.541-9.027-6.532-3.92-14.965-8.315-23.874-12.709a1033.88 1033.88 0 00-24.468-11.165c-5.938-2.613-8.314-3.682-10.214-4.276-1.901-.594-3.207-.594-3.92-.594-.713 0-.713 0-3.444-1.782-2.732-1.781-8.077-5.226-14.61-10.333-6.533-5.108-14.134-11.997-25.893-21.974-11.64-10.096-27.437-23.399-38.484-32.663-11.046-9.265-17.578-14.61-23.517-18.648-5.939-3.92-11.522-6.414-20.43-7.958-8.908-1.544-21.261-2.138-35.633-2.138-14.372 0-30.882.594-39.909 1.069-9.027.475-10.452.95-11.164 1.663-.713.712-.713 1.781-.951 16.866-.237 15.084-.712 44.185-.475 83.143.238 38.959 1.069 87.776 1.544 112.6.475 24.824.475 25.775.713 26.606.356.831.95 1.544 1.663 2.019.712.475 1.544.713 2.138.832.594.118.831.118 10.215.237 9.264.119 27.556.475 50.123.832 22.568.356 49.292.831 62.833 1.069 13.421.237 13.54.237 13.659.237.119 0 .238 0 .356-1.069.119-1.069.357-3.326 1.188-8.671.95-5.344 2.613-13.778 4.751-20.785 2.138-7.008 4.514-12.472 7.721-17.342 3.207-4.87 7.126-9.145 11.283-12.352 4.158-3.326 8.552-5.702 13.422-7.483 4.87-1.782 10.096-2.851 15.916-3.207 5.82-.357 12.234.237 17.46 1.187 5.226.951 9.265 2.376 12.591 3.92 3.325 1.544 5.938 3.207 7.245 4.038l1.306.832 5.227-3.207c5.226-3.207 15.678-9.621 23.636-14.728 7.958-5.108 13.422-8.909 18.173-13.066 4.513-4.038 8.433-8.67 10.452-10.927z" fill="#4AAB3C"/><path fill-rule="evenodd" clip-rule="evenodd" d="M700.661 226.981c4.989 3.326 13.659 10.096 18.173 14.491 4.513 4.395 4.87 6.295 4.632 7.602-.238 1.306-1.069 2.019-2.969 2.138-1.901.118-4.989-.238-22.687-4.158-17.697-3.919-50.004-11.521-80.768-18.647-30.881-7.127-60.219-13.66-75.422-17.579-15.204-3.801-16.154-4.87-16.985-6.295-.832-1.426-1.663-3.089-1.545-4.514.119-1.425 1.188-2.375 1.782-2.969.594-.475.594-.475 25.537 2.732 25.062 3.325 75.067 9.858 101.791 13.54 26.725 3.682 30.169 4.632 33.139 5.82 2.969 1.188 5.345 2.732 7.245 3.563 1.901.832 3.088.832 8.077 4.276z" fill="#509663"/><path fill-rule="evenodd" clip-rule="evenodd" d="M543.401 201.682c9.502 1.663 25.062 4.038 44.898 7.126 19.835 3.089 43.947 7.008 61.407 9.978 17.46 2.85 28.269 4.751 34.683 5.82 6.414 1.069 8.433 1.187 9.739 1.187 1.307 0 1.782-.118 2.257-.356.356-.238.594-.594.713-1.069s0-1.069-.119-1.663c-.119-.594-.475-1.188-2.969-3.563-2.614-2.376-7.483-6.652-20.311-18.054-12.828-11.403-33.614-29.932-48.105-42.641-14.49-12.709-22.686-19.598-28.031-23.755-5.463-4.157-8.195-5.464-11.402-6.889-3.326-1.307-7.127-2.732-13.541-3.563-6.295-.951-15.203-1.426-23.042-1.782-7.84-.356-14.847-.475-18.767-.475s-4.87 0-6.176.356c-1.307.357-2.851 1.069-4.158 2.376-1.306 1.306-2.256 3.088-2.731 4.988-.476 1.782-.476 3.682.118 13.303s2.02 27.081 2.613 36.227c.713 9.146.713 10.096 1.069 11.284a12.805 12.805 0 002.02 4.038c1.069 1.426 2.494 2.613 4.869 3.682 2.138.95 5.464 1.901 14.966 3.445z" fill="#403E32"/><path fill-rule="evenodd" clip-rule="evenodd" d="M533.424 196.812c-3.92-.95-5.345-1.782-6.414-2.732a8.952 8.952 0 01-2.257-3.088c-.475-1.069-.831-2.138-1.663-11.046-.831-8.909-2.256-25.775-2.969-35.277-.713-9.502-.831-11.759-.594-13.54.238-1.663.713-2.732 1.663-3.801.95-1.069 2.138-2.019 3.92-2.494 1.781-.476 3.919-.357 6.77-.238 2.969.119 6.533.238 12.115.475 5.583.238 13.066.475 19.123 1.069 6.176.475 11.046 1.188 14.372 1.9 3.326.713 5.226 1.545 6.176 1.901.951.356.951.356 1.069 2.494.119 2.138.475 6.414 1.426 18.529.95 12.115 2.613 31.832 3.563 42.285.831 10.333.95 11.283.95 11.996 0 .713-.237 1.188-2.375.95-2.138-.237-6.295-1.187-13.066-2.256-6.77-1.069-16.035-2.376-23.874-3.564-7.72-1.425-14.134-2.613-17.935-3.563zm58.557-47.748c.831 10.809 2.494 31.357 3.444 42.285.832 10.927.95 12.115 1.069 13.065.119.95.475 1.663.832 2.138.356.594.831 1.069 1.781 1.425.832.357 2.138.713 7.602 1.544 5.464.832 15.203 2.376 20.073 3.089 4.87.712 4.87.712 5.107-3.089.238-3.8.594-11.402.713-18.41.119-6.889-.119-13.184-.475-17.223-.356-4.038-.831-5.82-2.019-7.601-1.188-1.782-3.326-3.563-8.552-8.077-5.226-4.513-13.659-11.996-18.529-16.154-4.87-4.157-5.939-5.107-7.008-5.82-.95-.712-1.9-1.306-2.613-1.544-.713-.237-1.307-.237-1.663 0-.356.238-.594.713-.594 1.544 0 .832 0 2.02.832 12.828z" fill="#E6E6E6"/><path fill-rule="evenodd" clip-rule="evenodd" d="M630.464 180.896c-.475 4.038-1.069 11.403-1.544 17.341a358.34 358.34 0 00-.831 13.541c-.119 2.85 0 3.919.475 4.87.356.831 1.069 1.544 2.732 2.138 1.663.594 4.276 1.069 6.77 1.069 2.494 0 4.87-.476 6.651-1.426 1.782-1.069 3.207-2.613 4.039-5.82.95-3.207 1.425-7.958 1.781-13.897.357-6.057.713-13.303.713-17.341s-.237-4.632-.95-5.345c-.713-.712-2.019-1.306-4.039-1.781-2.137-.594-5.107-1.069-7.364-1.188-2.256-.238-3.682-.119-4.869.356-1.188.356-1.901 1.069-2.376 1.901-.475.593-.831 1.544-1.188 5.582z" fill="#24231D"/><path fill-rule="evenodd" clip-rule="evenodd" d="M629.395 193.843c.475-5.583.95-10.453 1.188-13.184.237-2.732.356-3.326.475-3.682.119-.476.119-.713.238-.951.118-.237.237-.475.475-.831.237-.238.475-.594.831-.95.238-.238.475-.475.832-.594.356-.119.593-.357.95-.475.356-.119.712-.238 1.069-.238.356 0 .712-.119 1.187-.119h1.782c.713 0 1.544.119 2.494.238.951.119 2.138.237 3.207.475.951.238 1.782.356 2.495.594.712.237 1.306.356 2.019.713a7.52 7.52 0 011.663.95l.712.712c.119.119.119.119-1.187-.118-1.307-.357-4.039-.951-6.652-1.188-2.613-.356-5.226-.356-6.651-.119-1.426.119-1.663.356-2.138 1.425-.475 1.069-1.069 2.97-1.663 8.315-.594 5.226-1.188 13.778-1.425 19.717-.238 5.82-.238 9.027 0 11.046.237 2.019.712 2.85 1.425 3.326.713.475 1.544.712 1.9.712.475.119.475.119-.118 0-.594-.119-1.663-.356-2.376-.594-.713-.237-1.069-.356-1.307-.475-.356-.119-.593-.356-.831-.475-.238-.237-.475-.356-.594-.594-.237-.237-.356-.475-.475-.712-.119-.238-.238-.476-.238-.832-.118-.356-.118-.831-.118-1.544 0-.594 0-1.425.118-4.989-.118-3.8.238-9.977.713-15.559zM511.807 226.15c.475 1.425 1.544 3.563 2.494 4.87.95 1.188 2.019 1.544 6.176 1.663s11.403.119 15.204.119c3.682-.119 3.919-.238 5.107-1.426 1.188-1.188 3.326-3.326 4.395-4.751 1.069-1.425 1.188-2.019 1.069-2.732-.119-.712-.357-1.544-1.544-2.969-1.188-1.425-3.326-3.445-4.395-4.514-1.188-1.069-1.425-1.069-4.87-1.306-3.444-.119-10.096-.356-13.897-.356-3.682 0-4.513.118-5.345.593a8.695 8.695 0 00-2.731 2.495c-.832 1.187-1.426 2.732-1.782 3.682-.356.95-.356 1.425-.356 2.019 0 .594 0 1.188.475 2.613z" fill="#4F4D3E"/><path fill-rule="evenodd" clip-rule="evenodd" d="M521.784 226.981c.594.713 1.663 1.901 2.138 2.613.594.713.712.713 2.613.832 2.019.119 5.82.356 7.72.356 1.901 0 1.901 0 2.732-.831.832-.832 2.376-2.376 3.088-3.207.832-.832.832-.832.713-.95h-3.682c-3.326 0-9.621 0-12.828-.119-3.207 0-3.326 0-3.326.119.119.237.238.475.832 1.187zm10.452-5.107h-11.759s-.119-.119.713-.95c.831-.832 2.494-2.495 3.326-3.207.831-.832.831-.832 2.613-.832h6.889c1.781 0 1.9 0 2.138.238.237.119.712.356 1.425 1.069.832.712 1.901 1.9 2.494 2.613.594.594.594.713.594.831v.238s-.119.119-1.306.119c-1.307-.119-3.801-.119-7.127-.119z" fill="#24231D"/><path fill-rule="evenodd" clip-rule="evenodd" d="M660.277 245.986c0 1.187 0 2.85.119 3.8.119.951.119 1.069.594 1.188s1.187.356 3.563.475c2.376 0 6.295 0 8.433-.119 2.138-.118 2.613-.118 2.851-.356.356-.237.594-.475.712-1.782.119-1.187.119-3.325-.118-4.513-.119-1.188-.357-1.425-.713-1.544s-.594-.238-2.969-.356c-2.376-.119-6.652-.119-9.027 0-2.376 0-2.613.118-2.851.237s-.356.356-.475.832c0 .356-.119 1.069-.119 2.138z" fill="#403E32"/><path fill-rule="evenodd" clip-rule="evenodd" d="M661.465 245.273c0 1.069 0 2.969.119 3.919.118.951.237 1.069.475 1.188.356.119.831.238 2.019.238 1.306.119 3.326.119 5.345 0 1.9 0 3.801-.119 4.751-.238.95-.119 1.069-.119 1.188-.237.118-.119.237-.238.237-.951 0-.712 0-1.9-.119-2.85 0-.95-.118-1.782-.118-2.257-.119-.475-.238-.594-1.901-.594h-11.165c-.712 0-.712.119-.831.238.119.356 0 .475 0 1.544z" fill="#E6E6E6"/><path fill-rule="evenodd" clip-rule="evenodd" d="M627.613 293.853c4.87-4.633 11.403-10.096 17.817-14.016s12.59-6.414 20.192-7.839c7.483-1.426 16.391-1.663 23.874-1.188 7.483.475 13.659 1.663 18.885 3.444 5.226 1.782 9.502 4.158 12.234 5.939 2.732 1.782 3.801 2.97 4.395 3.564.594.593.594.593 1.9-.238 1.307-.831 3.92-2.376 6.296-3.92 2.375-1.544 4.751-2.969 5.82-3.682l1.187-.712-2.731-2.138c-2.732-2.138-8.077-6.414-16.629-10.334-8.552-3.919-20.43-7.72-32.07-9.264-11.64-1.545-23.161-.951-33.613 2.019-10.453 2.969-19.599 8.433-26.131 14.015-6.533 5.583-10.334 11.284-12.591 16.273-2.256 5.107-3.088 9.621-3.325 12.828-.238 3.207.237 5.226.831 6.295.594.95 1.544.95 3.564-.832 1.9-1.9 5.226-5.582 10.095-10.214z" fill="#5DC94C"/><path fill-rule="evenodd" clip-rule="evenodd" d="M748.884 237.077c2.376 5.108 6.651 14.491 9.146 19.598 2.494 5.108 3.088 5.939 3.801 6.533.594.594 1.306.713 4.157 2.019 2.85 1.307 7.958 3.563 10.927 4.87 2.97 1.307 3.682 1.663 4.157 1.782.357 0 .475-.357-.95-4.989-1.425-4.751-4.276-13.778-6.533-19.242-2.256-5.463-3.919-7.364-5.226-8.67-1.187-1.307-2.019-1.901-4.988-3.564-2.97-1.544-8.077-4.157-11.284-5.345-3.207-1.187-4.395-1.069-4.989-.831-.712.238-.831.713-.712 1.307-.119.712.118 1.425 2.494 6.532z" fill="#24231D"/><path fill-rule="evenodd" clip-rule="evenodd" d="M750.428 236.484c2.019 4.632 6.058 13.659 8.433 18.647 2.376 4.989 3.088 5.939 3.801 6.652.713.713 1.307 1.069 4.039 2.257 2.731 1.187 7.482 3.207 9.858 4.038 2.376.831 2.494.594 1.9-1.663-.593-2.138-1.781-6.295-3.563-10.927-1.781-4.632-4.157-9.74-5.582-12.591-1.544-2.85-2.138-3.444-4.751-4.869a379.88 379.88 0 00-9.978-5.226c-2.85-1.426-4.038-1.782-4.751-1.901-.712-.119-.95 0-1.187.238-.119.356-.238.712 1.781 5.345z" fill="#E6E6E6"/><path fill-rule="evenodd" clip-rule="evenodd" d="M777.866 264.277c.475 1.663.712 2.257.712 2.732 0 .475.119.712.119.95 0 .237-.119.356-.238.356-.237.119-.475 0-.831 0s-.831-.237-1.425-.475c-.594-.237-1.426-.475-2.376-.95-.95-.356-2.138-.832-2.732-1.069-.594-.238-.594-.238-2.138-3.563-1.544-3.326-4.632-9.859-6.77-14.491s-3.207-7.245-3.682-8.789c-.594-1.426-.594-1.782-.356-1.901.237-.119.712 0 2.494.832 1.782.831 4.989 2.494 6.651 3.325 1.663.832 1.663.832 2.138 1.901.476 1.069 1.545 3.088 2.613 5.582 1.188 2.613 2.376 5.583 3.445 8.433a98.996 98.996 0 012.376 7.127z" fill="#E8E4BE"/><path fill-rule="evenodd" clip-rule="evenodd" d="M722.516 286.013c1.188-.713 2.257-1.425 2.85-1.782.594-.356.594-.356 2.614 1.901 2.019 2.257 6.176 6.77 9.502 11.877 3.325 5.108 5.938 10.809 7.839 17.223 1.9 6.414 3.088 13.659 3.682 17.46.594 3.801.713 4.039 3.444 4.157 2.732 0 8.077-.118 12.71-.475 4.632-.356 8.67-.95 11.283-1.425 2.613-.475 3.801-1.069 4.395-1.307.594-.237.594-.237.238.238-.357.475-1.188 1.425-2.02 2.257a25.95 25.95 0 01-2.732 2.375c-.95.713-1.9 1.426-3.444 2.257-1.544.713-3.801 1.663-6.058 2.375-2.256.832-4.632 1.545-6.057 1.901-1.426.475-2.019.594-2.376.713-.356.118-.594.237-1.544.475-.95.237-2.613.712-4.038 1.187-1.544.357-2.851.713-4.276.832-1.425.237-2.732.356-3.801.356h-2.494c-.832 0-1.782-.119-2.495-.119-.593 0-.95-.118-1.069-.118-.118 0-.118 0-.118-.951v-5.107c0-2.257-.119-4.87-.357-7.008-.118-2.138-.237-3.682-.594-5.82-.356-2.138-.712-4.751-1.306-7.008-.475-2.256-1.069-4.157-1.663-6.057-.594-1.901-1.425-3.801-2.257-5.701-.831-1.901-1.9-3.92-2.969-5.939s-2.257-3.92-3.92-5.939c-1.663-2.019-3.801-4.038-5.345-5.583-1.663-1.425-2.732-2.375-3.325-2.731l-.594-.476.475-.237c.475-.238 1.306-.831 2.375-1.425 1.069-.832 2.257-1.544 3.445-2.376z" fill="#403E32"/><path fill-rule="evenodd" clip-rule="evenodd" d="M755.535 329.485c4.158.119 13.066-.356 18.173-.831 5.108-.476 6.295-.951 7.246-2.376 1.069-1.425 1.9-3.801 2.613-6.651.712-2.732 1.187-5.939 1.425-8.196.238-2.257.238-3.682 0-4.632-.238-.95-.594-1.426-1.544-1.901-.95-.475-2.613-1.069-6.176-1.544-3.564-.475-9.146-.95-13.303-1.188-4.158-.237-6.889-.118-8.315 0-1.425.238-1.544.476-1.306.832.237.356.475.594 1.9.831 1.425.238 3.801.475 7.364.713 3.564.238 8.315.475 11.165.713 2.851.237 3.682.356 4.157.475.475.119.476.356.119 1.544-.356 1.188-1.188 3.563-1.663 6.533-.594 2.969-.831 6.77-.95 8.789s-.119 2.376-.119 2.494v.119l-3.088.238c-3.088.237-9.264.712-13.065 1.069-3.801.475-5.464.831-6.533 1.306-1.425.95-2.138 1.544 1.9 1.663z" fill="#24231D"/><path fill-rule="evenodd" clip-rule="evenodd" d="M778.697 311.669c.356-1.069.713-1.663.95-2.02.238-.356.238-.356.238.594 0 .951 0 2.613-.238 4.87-.237 2.138-.713 4.632-1.069 6.058-.356 1.425-.713 1.663-.831 1.544-.238-.119-.238-.594-.238-1.782 0-1.306.238-3.326.356-5.107.119-1.663.475-3.088.832-4.157z" fill="#E8E4BE"/><path fill-rule="evenodd" clip-rule="evenodd" d="M510.263 323.19c21.261.357 63.307.95 84.45 1.307 21.142.356 21.617.475 21.854.475.238 0 .119 0 .119-.119s.119-.475-2.138-1.544c-2.138-1.069-6.651-2.851-8.908-3.801-2.257-.95-2.257-.95-21.023-1.306-18.767-.357-56.3-1.069-75.542-1.426-19.242-.356-20.311-.356-20.786-.356-.594 0-.713 0-.831.119-.119.118-.119.475-.119 1.544v3.563c0 .832.119.95.475.95.475.357 1.188.357 22.449.594zm-21.261-39.077c.237.95.356.95 12.828 1.306 12.352.357 36.939 1.069 54.28 1.426 17.342.356 27.556.356 33.495.237 5.939-.119 7.721-.475 8.671-.713.95-.356.95-.593.119-1.425-.832-.831-2.376-2.019-3.682-3.207-1.307-1.069-2.495-2.138-2.97-2.613-.594-.475-.594-.475-2.613-.594s-6.295-.356-23.161-.594c-16.866-.356-46.561-.712-61.526-.831-15.085-.119-15.441 0-15.679.475-.237.475-.237 1.188-.119 2.494-.118 1.426.119 3.207.357 4.039z" fill="#5DC94C"/><path fill-rule="evenodd" clip-rule="evenodd" d="M486.151 238.621c.238.357.594.357 9.027.713s24.824.95 37.771 2.732c12.947 1.782 22.211 4.632 30.288 8.433 8.077 3.801 14.966 8.552 19.598 12.947 4.751 4.394 7.364 8.433 9.027 10.927 1.663 2.494 2.376 3.563 3.207 4.395a11.593 11.593 0 002.494 1.9c.832.475 1.426.832 1.901.475.356-.356.594-1.544-.357-4.513-.95-2.97-2.969-7.721-8.552-13.422-5.582-5.701-14.728-12.353-23.755-16.866-9.146-4.514-18.173-6.77-28.981-8.314-10.809-1.426-23.518-2.138-32.307-2.495-8.909-.356-14.016-.475-16.629-.475-2.613 0-2.732.119-2.732.356 0 .357-.119.832-.119 1.426-.118.712-.118 1.425.119 1.781z" fill="#3D8C31"/><path fill-rule="evenodd" clip-rule="evenodd" d="M531.048 113.906c9.74.475 23.637 1.307 32.545 2.019 8.908.713 12.828 1.545 16.629 2.732 3.801 1.188 7.364 2.851 10.69 4.751 3.207 1.901 6.057 3.92 13.303 9.978 7.245 5.938 18.766 15.916 26.012 22.211 7.245 6.176 10.096 8.789 11.64 10.214 1.544 1.426 1.663 1.663 1.781 1.901.119.237 0 .594-.119.713-.237.118-.593 0-1.068-.357-.476-.237-.832-.712-8.196-7.126-7.245-6.414-21.38-18.767-30.644-26.369-9.146-7.601-13.541-10.571-18.292-12.828-4.87-2.137-10.215-3.563-20.667-4.632-10.452-1.069-26.131-1.663-36.345-2.019-10.215-.356-14.966-.475-17.579-.356-2.613 0-3.089.237-3.564.594-.475.356-.95.831-1.069 2.494-.237 1.663-.118 4.276-.237 23.755 0 19.479-.119 55.706 0 74.948.119 19.123.356 21.261.594 22.924.237 1.663.356 2.85.95 4.87.594 1.9 1.544 4.632 2.613 7.126.95 2.613 2.019 5.108 2.613 7.602.594 2.494.831 4.988 1.069 7.126.119 2.257.238 4.158.713 13.541s1.425 26.249 1.9 36.227c.475 9.977.356 12.946.594 15.441.119 2.494.475 4.394 1.188 5.701.712 1.306 1.781 2.138 3.563 2.732 1.782.594 4.395.831 11.996.95 7.721.119 20.549.119 34.564.356 14.016.119 29.457.475 37.771.713 8.315.237 9.621.237 10.571.119.95-.119 1.426-.238 1.663-.475.238-.238.238-.594.475-2.376.238-1.782.594-4.989 1.663-9.977 1.069-4.989 2.97-11.878 5.345-17.817 2.376-5.938 5.226-10.927 6.889-13.421 1.663-2.495 2.019-2.495 2.257-2.376.237.119.356.356-.238 1.188-.594.95-1.781 2.494-3.444 5.582-1.782 3.207-4.039 7.958-5.702 12.947-1.781 4.989-2.969 10.096-3.8 14.016-.832 3.919-1.188 6.532-1.426 8.551-.356 2.02-.594 3.564-1.069 4.276-.475.832-1.187.832-15.559.713-14.253-.119-42.166-.594-57.963-.831-15.797-.238-19.361-.357-21.736-.713-2.376-.238-3.563-.713-4.514-1.425-1.069-.832-2.019-1.901-2.613-3.326-.594-1.425-.594-2.969-.712-5.701-.119-2.732-.238-6.652-.713-17.698-.594-11.046-1.544-29.1-2.138-38.84-.594-9.739-.713-10.927-1.069-12.709a49.702 49.702 0 00-1.9-7.008c-.951-3.088-2.495-7.007-3.326-9.858-.832-2.732-1.188-4.276-1.307-7.127-.118-2.85-.237-7.007-.237-21.973s-.119-40.622-.119-58.557c0-17.935.119-28.031.119-33.495 0-5.464.119-6.414.237-7.126a3.142 3.142 0 01.832-1.663c.356-.357.712-.594 1.425-.832.713-.237 1.782-.475 5.107-.475 3.326 0 8.315 0 18.054.475zm121.509 118.301c0 9.146.237 25.893.356 34.327.119 8.433.237 8.433.356 8.433.238 0 .475 0 .594-.119s.238-.356.119-9.621c0-9.264-.119-27.556-.238-36.821-.118-9.264-.118-9.502-.237-9.62-.119-.119-.475-.119-.594.118-.119.238-.238.594-.238 1.544-.119 1.069-.237 2.613-.118 11.759zm13.184-54.518c3.919 3.326 7.958 6.77 11.996 9.74 3.92 3.088 7.839 5.82 10.69 7.72 2.851 1.9 4.751 2.851 5.582 3.326.951.475.832.475.119 1.069-.712.594-2.138 1.663-2.969 2.257-.832.593-1.188.712-1.544.831-.357.119-.594.119-17.104-13.659-16.51-13.66-49.292-41.097-65.802-54.994-16.51-13.897-16.866-14.253-16.985-14.609-.119-.357-.119-.594.475-1.069s1.663-1.188 2.257-1.425c.594-.357.594-.357 6.295 4.394 5.701 4.633 17.104 14.016 27.318 22.568 10.215 8.552 19.123 16.153 25.537 21.617 6.295 5.582 10.096 8.908 14.135 12.234z" fill="#403E32"/><path fill-rule="evenodd" clip-rule="evenodd" d="M595.425 119.132c-.594.119-1.188.594-1.544.832-.356.237-.237.237-.237.356.118.119.237.356 1.425 1.425 1.188 1.188 3.563 3.207 18.648 15.798 15.084 12.59 42.759 35.87 57.25 48.104 14.491 12.234 15.916 13.303 16.629 13.897.831.594.95.594 1.544.119.475-.475 1.425-1.426 1.781-1.901.475-.475.475-.475-1.425-1.781-1.9-1.307-5.701-4.039-11.403-8.552-5.82-4.514-13.54-10.928-21.261-17.46-7.72-6.533-15.44-13.066-23.874-20.192-8.433-7.127-17.46-14.729-23.042-19.48-5.583-4.632-7.602-6.414-9.265-7.72-1.663-1.307-2.732-2.257-3.563-2.851-.713-.475-1.069-.712-1.663-.594z" fill="#E6E6E6"/><path fill-rule="evenodd" clip-rule="evenodd" d="M271.404 160.585l8.433 60.101-31.476 2.376-1.307-61.17 24.35-1.307z" fill="#DBA758"/><path fill-rule="evenodd" clip-rule="evenodd" d="M271.404 160.586l-24.349 1.306-14.372-4.395 29.1-1.187 9.621 4.276z" fill="#F7CE66"/><path fill-rule="evenodd" clip-rule="evenodd" d="M247.055 161.892l-14.372-4.394 2.138 62.238 13.54 3.326-1.306-61.17z" fill="#F7E399"/><path fill-rule="evenodd" clip-rule="evenodd" d="M303.592 158.923l.119 1.781.356 43.591 34.326 17.223-.118-58.2-34.683-4.395z" fill="#DBA758"/><path fill-rule="evenodd" clip-rule="evenodd" d="M338.393 221.518l-.118-58.2 42.997-4.514-.119 45.254-42.76 17.46z" fill="#F7CE66"/><path fill-rule="evenodd" clip-rule="evenodd" d="M338.275 163.318l42.997-4.514-34.327-2.732-43.353 2.851 34.683 4.395z" fill="#F7E399"/><path fill-rule="evenodd" clip-rule="evenodd" d="M332.336 195.506l-4.276 35.395-35.871 5.464.238-36.702 39.909-4.157z" fill="#DBA758"/><path fill-rule="evenodd" clip-rule="evenodd" d="M292.427 199.663l-.238 36.702-25.774-12.709-.238-30.882 26.25 6.889z" fill="#F7CE66"/><path fill-rule="evenodd" clip-rule="evenodd" d="M266.177 192.774l44.066-2.019 22.093 4.751-39.909 4.157-26.25-6.889z" fill="#F7E399"/><path fill-rule="evenodd" clip-rule="evenodd" d="M360.961 203.583l-43.116-4.276.238 37.058 42.522 7.008.356-39.79z" fill="#F7CE66"/><path fill-rule="evenodd" clip-rule="evenodd" d="M360.961 203.583l-43.116-4.276 29.932-8.196 36.227 3.564-23.043 8.908z" fill="#F7E399"/><path fill-rule="evenodd" clip-rule="evenodd" d="M384.004 194.674l-23.043 8.909-.356 39.79 22.805-14.254.594-34.088v-.357z" fill="#DBA758"/><path fill-rule="evenodd" clip-rule="evenodd" d="M200.851 200.851l63.189-.951.118 37.534-62.476.95-.831-37.533z" fill="#F7CE66"/><path fill-rule="evenodd" clip-rule="evenodd" d="M264.04 199.901l-63.189.95 6.77-7.127 54.043-.475 2.376 6.652z" fill="#F7E399"/><path fill-rule="evenodd" clip-rule="evenodd" d="M258.932 100.366l.832 59.269 78.748 1.545.357-63.07-79.937 2.256z" fill="#DBA758"/><path fill-rule="evenodd" clip-rule="evenodd" d="M338.869 98.11l-.357 63.07 3.92-2.97.119-55.587-3.682-4.514zM255.25 196.1l-.238-36.583 60.339-.119-.238 35.87-59.863.832z" fill="#F7CE66"/><path fill-rule="evenodd" clip-rule="evenodd" d="M315.351 159.398l-60.339.119 3.683-2.138 53.093-.119 3.563 2.138z" fill="#F7E399"/><path fill-rule="evenodd" clip-rule="evenodd" d="M360.13 192.299l5.701.594-25.418 8.67-5.82-.594 25.537-8.67zm-25.537 46.798l5.82.95v-38.483l-5.82-.594v38.127zm-43.235-97.515l.238-42.166 9.027-.119v42.285h-9.265zm69.603 47.985l3.92-.95-.475-28.032-4.039.476.594 28.506z" fill="#F7F7F7"/><path fill-rule="evenodd" clip-rule="evenodd" d="M342.432 158.21v-.594l21.973 2.97-4.038.475-18.173-2.613.238-.238zm-103.811 28.982l2.613.831-.356-28.031-2.494-.713.237 27.913z" fill="#F7F7F7"/><path fill-rule="evenodd" clip-rule="evenodd" d="M257.032 158.329l-1.544.832-14.61.831-2.494-.713 18.648-.95zm26.606 1.188l4.513-.119v25.537h-4.395l-.118-25.418z" fill="#F7F7F7"/><path fill-rule="evenodd" clip-rule="evenodd" d="M283.638 159.517l4.513-.119-.712-2.138h-3.801v2.257zm-1.426 37.414l-2.969-.712-.357 33.613 2.732 1.307.594-34.208z" fill="#F7F7F7"/><path fill-rule="evenodd" clip-rule="evenodd" d="M285.182 195.743l13.303-.237-16.273 1.425-2.969-.712 5.939-.476zm29.219 1.663l-3.326.357-.119 35.751 3.326-.475.119-35.633z" fill="#F7F7F7"/><path fill-rule="evenodd" clip-rule="evenodd" d="M304.423 195.506l3.801-.119 6.177 2.019-3.326.357-6.652-2.257zm-41.809.475l.475 1.188-59.744 1.069 1.188-1.307 58.081-.95z" fill="#F7F7F7"/><path d="M210.626 204.616l-1.999 8.193 12.231 2.985 2-8.193-12.232-2.985zm61.372-39.279h-11.997v7.364h11.997v-7.364z" fill="#F7F7F7"/><path fill-rule="evenodd" clip-rule="evenodd" d="M356.091 208.809l-10.452-1.188v7.008l10.452 1.069v-6.889z" fill="#F7F7F7"/><path fill-rule="evenodd" clip-rule="evenodd" d="M86.707 152.746l125.427-1.782 13.303 13.422-148.589 1.069 9.859-12.709z" fill="#E0E0E0"/><path fill-rule="evenodd" clip-rule="evenodd" d="M225.437 164.386l-148.589 1.069.356 7.364 147.877-.237.356-8.196z" fill="#CCC"/><path fill-rule="evenodd" clip-rule="evenodd" d="M97.753 172.819h-6.414c-2.494 45.848-3.682 67.822-3.563 65.684 1.306.475 2.375.712 4.513.118 3.207-43.828 5.464-65.802 5.464-65.802zm130.179 75.186c-.951.95-2.613 1.188-4.751.594l-7.84-75.898h6.414l6.177 75.304zm-24.943-75.186h6.413c2.495 45.848 3.683 67.822 3.564 65.684-1.307.475-2.376.712-4.514.118-3.207-43.828-5.463-65.802-5.463-65.802zM72.335 248.005c.95.95 2.613 1.188 4.75.594l7.84-75.898h-6.414l-6.176 75.304z" fill="#2B2A29"/><path fill-rule="evenodd" clip-rule="evenodd" d="M140.987 155.953c9.74 0 17.698-.713 17.698-1.544 0-.832-7.958-1.544-17.698-1.544-9.739 0-17.697.712-17.697 1.544 0 .95 7.958 1.544 17.697 1.544z" fill="#24231D"/><path fill-rule="evenodd" clip-rule="evenodd" d="M140.037 155.953c-10.215 0-15.797-.593-16.866-1.544v2.613c2.375 1.188 11.046 1.426 16.866 1.426 6.058 0 14.61 0 18.529-1.426v-2.731c-.712 1.187-6.889 1.662-18.529 1.662z" fill="#2B2A29"/><path d="M150.608 141.462h-19.835v13.066h19.835v-13.066z" fill="#24231D"/><path fill-rule="evenodd" clip-rule="evenodd" d="M104.523 92.527h71.86a4.511 4.511 0 014.513 4.513v36.583h-80.768V97.04c-.118-2.494 1.901-4.513 4.395-4.513z" fill="#2B2A29"/><path fill-rule="evenodd" clip-rule="evenodd" d="M100.01 133.623h80.767v5.701c0 2.376-2.019 4.395-4.394 4.395h-71.979c-2.375 0-4.394-2.019-4.394-4.395v-5.701z" fill="#E0E0E0"/><path fill-rule="evenodd" clip-rule="evenodd" d="M140.75 140.631c1.069 0 1.9-.832 1.9-1.9a1.876 1.876 0 00-1.9-1.901 1.877 1.877 0 00-1.901 1.901c0 .95.832 1.9 1.901 1.9z" fill="#2B2A29"/><path d="M160.229 139.087H146.57v1.425h13.659v-1.425zm4.276-2.138h-8.314v1.069h8.314v-1.069z" fill="#2B2A29"/><path fill-rule="evenodd" clip-rule="evenodd" d="M176.739 156.429c.119-.594.356-.951 1.069-1.426.713-.356 1.782-.594 3.207-.712 1.425 0 3.207.237 4.632.593 1.307.357 2.257.832 2.732 1.426.475.594.475 1.306.238 1.9-.238.594-.713.95-1.307 1.188a6.637 6.637 0 01-2.494.475c-1.188 0-2.732 0-4.039-.238-1.306-.237-2.494-.831-3.207-1.425-.831-.594-.95-1.306-.831-1.781z" fill="#FDE742"/><path fill-rule="evenodd" clip-rule="evenodd" d="M178.521 155.241c.237 0 .712.118 1.187.237.476.119.832.238 1.188.238.238 0 .475 0 .475-.119.119-.119 0-.238-.118-.356a1.218 1.218 0 00-.713-.594 5.092 5.092 0 00-1.425-.238c-.476 0-.832.238-.951.357-.118.118-.237.237-.118.237.118.119.118.119.475.238z" fill="#2B2A29"/><path fill-rule="evenodd" clip-rule="evenodd" d="M182.797 138.018c.475 3.563 1.306 9.74 1.662 13.065.476 3.207.476 3.445 2.257 3.801 1.782.357 5.345.713 8.433.713 3.088-.119 5.464-.594 6.889-.95 1.307-.357 1.544-.357 2.02-3.564.475-3.207 1.306-9.62 1.781-12.827.475-3.207.475-3.207.475-3.564 0-.356 0-.95-.712-1.306-.713-.357-2.257-.357-5.702-.357-3.444 0-8.789-.118-12.115-.118-3.207 0-4.276 0-4.87.356-.594.356-.594 1.188-.118 4.751z" fill="#F7F7F7"/><path fill-rule="evenodd" clip-rule="evenodd" d="M180.421 134.692c.95.238 2.613.713 4.989.95 2.256.238 5.345.475 8.195.475 2.97 0 5.82-.118 8.196-.356a57.108 57.108 0 005.701-.831c1.188-.238 1.425-.357 1.544-.475.119-.119.238-.238.238-.951v-2.732c0-.712 0-.712-1.426-1.069-1.425-.356-4.394-.95-8.789-1.187-4.395-.238-10.096-.119-13.778.118-3.563.238-4.989.594-5.701.832-.713.237-.713.237-.713 1.069 0 .713 0 2.257.119 3.088.237.832.475.832 1.425 1.069z" fill="#CCC"/><path fill-rule="evenodd" clip-rule="evenodd" d="M182.203 130.891c1.306.238 4.038.475 7.245.594s6.889.238 9.859.238c2.969 0 5.226-.238 6.532-.357 1.307-.118 1.663-.237 1.663-.356s-.356-.238-1.663-.475c-1.306-.238-3.444-.713-7.126-.832-3.564-.118-8.552.001-11.759.119-3.207.119-4.514.238-5.226.475-.832 0-.832.238.475.594z" fill="#24231D"/><path fill-rule="evenodd" clip-rule="evenodd" d="M205.958 99.534c-1.782.95-3.444 2.019-4.87 3.445-1.425 1.425-2.494 3.207-3.207 4.988-.594 1.663-.831 3.326-.712 4.87.118 1.544.356 2.97.593 3.682.238.713.238.713 1.782-.119 1.544-.831 4.395-2.613 6.652-4.632 2.256-2.138 3.682-4.632 4.513-7.126.713-2.495.713-4.87.832-6.177 0-1.306.118-1.306-.832-.95-1.069.356-2.969 1.069-4.751 2.02z" fill="#5DC94C"/><path fill-rule="evenodd" clip-rule="evenodd" d="M179.59 104.879c2.256.832 5.463 1.901 7.601 3.801 2.257 1.901 3.445 4.514 3.92 7.008.475 2.376.237 4.632 0 5.701-.238 1.069-.238 1.069-2.257.238s-6.057-2.494-8.671-4.87c-2.613-2.375-3.682-5.582-4.394-7.958-.594-2.375-.832-4.038-.832-4.87-.118-.831-.118-.831.594-.594.594.357 1.782.832 4.039 1.544zm14.965-22.686a30.618 30.618 0 00-2.613 3.801c-.831 1.425-1.544 2.97-1.9 4.513-.356 1.544-.475 3.089-.356 4.395 0 1.307.118 2.376.475 3.92.356 1.544.95 3.444 1.188 4.395.237.95.237.95.356.95 0 0 .119 0 1.544-1.663s4.276-4.989 5.464-8.077c1.306-3.088 1.069-5.701.594-8.314-.476-2.613-1.188-4.751-1.545-5.94-.356-1.187-.356-1.187-.831-.593a31.634 31.634 0 00-2.376 2.613z" fill="#409133"/><path fill-rule="evenodd" clip-rule="evenodd" d="M195.149 87.063a533.01 533.01 0 00-2.375 11.64c-.357 1.544-.594 2.732-.713 3.92-.237 1.188-.356 2.257-.594 3.444-.237 1.307-.356 2.732-.594 4.395-.237 1.663-.475 3.563-.594 5.583a384.773 384.773 0 00-.95 14.134h-.356c.237-4.989.594-9.977.95-14.134.238-2.138.356-3.92.594-5.583.238-1.663.475-3.088.594-4.395.237-1.306.356-2.375.594-3.563.237-1.188.475-2.375.712-3.92.594-2.969 1.544-7.245 2.376-11.52v-.12l.356.12z" fill="#4AAB3C"/><path fill-rule="evenodd" clip-rule="evenodd" d="M176.977 106.423c1.663 1.544 3.444 3.089 4.988 4.633a52.63 52.63 0 014.395 4.632 32 32 0 013.207 4.513c.831 1.426 1.663 2.851 2.138 4.039.594 1.188 1.069 2.375 1.425 3.207.357.95.594 1.544.832 2.019l.356.95-.356.119-.357-.95c-.118-.475-.475-1.188-.831-2.019a33.614 33.614 0 00-1.425-3.207c-.594-1.188-1.307-2.614-2.138-4.039a32.164 32.164 0 00-3.207-4.513 52.637 52.637 0 00-4.395-4.633l-4.989-4.632.357-.119zm31.119-5.226c-.831.95-1.663 1.901-2.494 2.97-.832 1.069-1.663 2.138-2.495 3.444-.831 1.307-1.781 2.732-2.494 4.276a130.177 130.177 0 00-2.019 4.276c-.594 1.425-.95 2.851-1.307 4.157a23.637 23.637 0 00-.712 3.801c-.357 2.375-.357 4.395-.475 6.533h-.238c.119-2.02.119-4.158.475-6.533.119-1.188.356-2.494.713-3.801.356-1.306.712-2.732 1.306-4.276a72.422 72.422 0 012.02-4.395 53.16 53.16 0 012.613-4.394c.831-1.307 1.663-2.376 2.494-3.445.831-1.069 1.663-2.019 2.494-2.969l.119.356z" fill="#4AAB3C"/></g><defs><clipPath id="clip0_601_11852"><path fill="#fff" d="M0 0h787.13v396H0z"/></clipPath></defs></svg>