<svg width="270" height="208" fill="none" xmlns="http://www.w3.org/2000/svg"><path fill-rule="evenodd" clip-rule="evenodd" d="M250.622 171.124h-51.396c-.862-54.656-1.581-100.256-2.12-136.729a462.924 462.924 0 0154.198-2.407c.395 117.36-1.149 120.307-.682 139.136z" fill="#B1B1B1"/><path fill-rule="evenodd" clip-rule="evenodd" d="M67.993 162.212c43.1-.071 64.614-.071 64.614-.071.934-69.137 1.041-122.966.359-161.487C108.471-1.071 87.28.618 69.358 5.72c-.934 104.316-1.365 156.492-1.365 156.492z" fill="#CBCCCD"/><path fill-rule="evenodd" clip-rule="evenodd" d="M154.477 164.979c63.177 0 113.927-1.15 114.394 14.374.036.755.359-.611 0 0-5.316 9.343-54.234 14.373-114.394 14.373-14.834 0-29.021-.359-42.058-1.006-11.925 1.617-27.405 2.623-44.321 2.623C30.493 195.343 0 190.492 0 184.491c0-4.887 20.221-9.019 48.02-10.384 16.773-5.355 58.113-9.128 106.457-9.128z" fill="#E7E6E5"/><path fill-rule="evenodd" clip-rule="evenodd" d="M20.11 177.161h59.333c-1.903-57.423-2.55-107.91-1.975-151.426-16.665.252-35.773 2.156-57.359 5.678.934 77.15.934 125.733 0 145.748z" fill="#E7E6E5"/><path fill-rule="evenodd" clip-rule="evenodd" d="M31.968 42.337l11.386-1.402.036 17.177-11.422.467V42.337z" fill="#CBCCCD"/><path fill-rule="evenodd" clip-rule="evenodd" d="M51.35 40.253l11.386-1.474.036 18.183-11.422.503V40.253z" fill="#F8E49C"/><path fill-rule="evenodd" clip-rule="evenodd" d="M31.995 67.347l11.385-.396.036 17.644-11.421.072v-17.32zm19.355-.539l11.422-.467v18.182l-11.386-.036-.036-17.68zm-18.815 70.179l11.458.862-.252-18.793-11.421-.575.215 18.506z" fill="#CBCCCD"/><path fill-rule="evenodd" clip-rule="evenodd" d="M51.97 137.49l11.422.323-.216-18.182-11.421-.216.215 18.075z" fill="#fff"/><path fill-rule="evenodd" clip-rule="evenodd" d="M32.21 109.713l11.422.503-.216-17.643-11.421-.18.215 17.32z" fill="#F8E49C"/><path fill-rule="evenodd" clip-rule="evenodd" d="M51.64 110.431l11.385.575-.216-18.182-11.421-.072.251 17.679z" fill="#CBCCCD"/><path fill-rule="evenodd" clip-rule="evenodd" d="M32.074 145.431l11.386.503.036 17.644-11.422-.827v-17.32zm19.359.934l11.422.396.036 18.218-11.422-.934-.036-17.68z" fill="#fff"/><path fill-rule="evenodd" clip-rule="evenodd" d="M111.908 177.161H78.47c-1.113-66.729-1.508-117.217-1.113-151.426 13.9 1.69 25.429 4.744 34.551 9.235v142.191z" fill="#B1B1B1"/><path fill-rule="evenodd" clip-rule="evenodd" d="M150.244 169.04c-21.945.287-39.796.287-53.516-.036.36-75.21.503-124.116.431-146.79 17.42-3.09 34.3-5.354 50.678-6.792 1.581 102.412 2.407 153.618 2.407 153.618z" fill="#E7E6E5"/><path fill-rule="evenodd" clip-rule="evenodd" d="M173.161 20.848c-.287 48.26 2.658 148.371 2.658 148.371s-4.813-.071-25.608-.179c-1.222-78.408-2.048-129.614-2.407-153.618 10.919 3.09 19.359 4.887 25.357 5.426z" fill="#CBCCCD"/><path fill-rule="evenodd" clip-rule="evenodd" d="M105.71 33.066l11.422-1.581v16.134l-11.422.755V33.066zm19.393-2.444l11.422-1.688v17.104l-11.422.755v-16.17zM105.71 56.567l11.422-.647v16.6l-11.422.36V56.567z" fill="#B1B1B1"/><path fill-rule="evenodd" clip-rule="evenodd" d="M125.103 55.596l11.422-.718v17.104l-11.422.252V55.596z" fill="#F8E49C"/><path fill-rule="evenodd" clip-rule="evenodd" d="M106.211 122.11l11.422.503-.18-17.679-11.422-.252.18 17.428z" fill="#fff"/><path fill-rule="evenodd" clip-rule="evenodd" d="M125.64 122.074h11.422l-.216-17.104-11.421.108.215 16.996z" fill="#B1B1B1"/><path fill-rule="evenodd" clip-rule="evenodd" d="M105.926 96.453l11.421.144-.215-16.566-11.422.108.216 16.314z" fill="#F8E49C"/><path fill-rule="evenodd" clip-rule="evenodd" d="M125.319 96.597l11.421.252-.215-17.069-11.422.216.216 16.601z" fill="#B1B1B1"/><path fill-rule="evenodd" clip-rule="evenodd" d="M105.71 130.016l11.422.179v16.602l-11.422-.467v-16.314z" fill="#fff"/><path fill-rule="evenodd" clip-rule="evenodd" d="M125.103 130.411l11.422.108v17.104l-11.422-.575v-16.637zm66.473 41.719l40.837.108c.18-36.689.467-78.587.934-125.66-13.109-.432-27.26.035-42.381 1.329.467 28.783.682 70.179.61 124.223z" fill="#B1B1B1"/><path fill-rule="evenodd" clip-rule="evenodd" d="M264.307 172.238h-31.894s.324-41.899.934-125.66c10.955.754 21.586 2.191 31.858 4.347-.179 60.8-.467 101.226-.898 121.313z" fill="#CBCCCD"/><path fill-rule="evenodd" clip-rule="evenodd" d="M198.039 60.088l27.799-.647-.072 12.541-27.799.683.072-12.577zm-.142 22.028l27.799-.647-.107 12.54-27.8.648.108-12.541zm-.176 21.991l27.8-.647-.072 12.577-27.8.647.072-12.577zm-.153 22.028l27.8-.647-.108 12.577-27.8.647.108-12.577zm-.174 22.027l27.8-.647-.072 12.577-27.835.647.107-12.577z" fill="#fff"/><path fill-rule="evenodd" clip-rule="evenodd" d="M250.477 59.441l-8.584-1.401-.108 14.302 8.584.647.108-13.548zm-.138 20.806l-8.585-.575-.143 14.697 8.62.324.108-14.446zm-.83 57.998l-8.62.467.287-15.632 8.584-.251-.251 15.416z" fill="#B1B1B1"/><path fill-rule="evenodd" clip-rule="evenodd" d="M249.9 115.534l-8.584.144.252-14.661 8.584.108-.252 14.409zm-.066 29.754l-8.584.143-.108 14.697 8.584-.431.108-14.409z" fill="#F8E49C"/><path fill-rule="evenodd" clip-rule="evenodd" d="M171.893 170.944c34.336.683 52.294 1.043 53.839 1.078.646-29.861 1.4-85.235 2.191-166.122-21.443-.431-40.119-.79-56.03-1.114v166.158z" fill="#E7E6E5"/><path fill-rule="evenodd" clip-rule="evenodd" d="M191.679 28.107l15.516.144v14.66l-15.516-.107V28.107z" fill="#F8E49C"/><path fill-rule="evenodd" clip-rule="evenodd" d="M191.679 53.836l15.516.144v14.697l-15.516-.144V53.836zm0 25.728l15.516.144v14.697l-15.516-.144V79.564z" fill="#B1B1B1"/><path fill-rule="evenodd" clip-rule="evenodd" d="M191.679 105.329l15.516.108v14.697l-15.516-.144v-14.661zm0 25.729l15.516.144v14.661l-15.516-.108v-14.697z" fill="#fff"/><path fill-rule="evenodd" clip-rule="evenodd" d="M113.065 156.679c-.647.287-1.58 1.185-2.55 2.012a49.7 49.7 0 01-2.55 1.94c-.539.36-.539.36-.575 2.372-.036 2.012-.144 6.001.072 8.372.215 2.372.754 3.163 1.113 3.774.36.646.539 1.149.683 1.401.143.252.179.252.862.287.682.036 1.975.072 2.658.108.682.036.79.036.862 0 .071 0 .107-.036.287-.575.18-.539.503-1.581.718-3.485.216-1.905.323-4.636.252-7.403-.072-2.803-.288-5.641-.575-7.222-.287-1.581-.647-1.905-1.257-1.581z" fill="#403E32"/><path fill-rule="evenodd" clip-rule="evenodd" d="M113.852 161.602c.359 0 .647 2.946.647 6.504 0 3.593-.288 6.468-.647 6.468-.359 0-.646-2.947-.646-6.504 0-3.594.287-6.468.646-6.468z" fill="#737160"/><path fill-rule="evenodd" clip-rule="evenodd" d="M110.902 89.913a9.563 9.563 0 001.042-1.006l.215-.215 1.365 2.12a2832.79 2832.79 0 015.387 8.408l1.365 2.12-.072 8.445c-.071 8.444-.251 25.369-.323 33.85l-.072 8.444-1.293 1.833c-1.293 1.832-3.879 5.533-5.172 7.366l-1.293 1.833s-.035 0-.215-.18-.539-.503-.826-.826c-.287-.36-.539-.719-.718-12.613-.18-11.93-.36-35.431-.252-47.253.108-11.823.467-12.002.862-12.326z" fill="#4AAB3C"/><path fill-rule="evenodd" clip-rule="evenodd" d="M66.26 157.577c-4.095-4.528-12.356-12.577-16.486-16.566l-4.166-3.988-.072-6.9c-.072-6.899-.215-20.662-.287-27.848-.072-7.187-.072-7.834-.108-8.121v-.324l.18-.036c.179-.036.574-.072 11.744-.934a30509.8 30509.8 0 0144.106-3.342l10.99-.826-.036 12.397c-.036 12.397-.072 37.227-.108 49.625l-.036 12.397-7.003.179c-7.004.18-20.975.539-27.907.216-6.86-.323-6.753-1.365-10.811-5.929z" fill="#5DC94C"/><path fill-rule="evenodd" clip-rule="evenodd" d="M114.782 159.23a2.522 2.522 0 01-.251.323l-.036.072v.144c0 .144.036.431.072.718.036.288.036.539.072.683v.144l.574.036c.575.036 1.724.072 2.335.072l.574.036v-3.055l-.431-.036c-.431-.036-1.328-.071-1.759-.107l-.431-.036-.072.107c-.072.108-.252.36-.359.504-.144.215-.216.287-.288.395z" fill="#080902"/><path fill-rule="evenodd" clip-rule="evenodd" d="M30.346 152.366c.215-.898.682-2.335 1.724-4.887 1.041-2.551 2.657-6.216 4.166-9.881 1.508-3.63 2.91-7.259 3.987-9.774 1.077-2.516 1.867-3.917 2.478-4.78.61-.862 1.077-1.221 1.903-1.581.827-.359 2.048-.754 8.62-1.114 6.573-.359 18.57-.682 27.943-.79 9.375-.108 16.091-.036 19.719.179 3.627.18 4.13.468 4.381.827.252.359.252.755.252.934 0 .216 0 .216-.288.324-.287.143-.897.431-1.257.646-.359.216-.467.396-.502.468-.036.071-.036.071-.18 2.623-.108 2.551-.359 7.654-1.221 12.577-.898 4.923-2.407 9.666-3.592 12.648-1.185 2.983-2.011 4.169-2.478 4.851-.467.683-.503.863-.754.935-.252.108-.683.108-.97.108-.287 0-.467 0-.61-.072a.867.867 0 01-.36-.36c-.072-.143-.072-.287-.072-.359 0-.072 0-.108.647-1.366.646-1.257 1.903-3.701 2.91-5.713 1.005-2.012 1.795-3.629 2.37-5.426.61-1.797 1.041-3.737 1.4-6.36.395-2.624.719-5.965.862-8.265.144-2.3.072-3.594.036-4.24l-.036-.647-2.298-.108c-2.299-.108-6.86-.359-14.116-.431-7.29-.072-17.275.036-24.674.251-7.435.216-12.284.539-14.798.719-2.514.18-2.694.216-2.801.18-.108-.036-.144-.144-.18-.216-.036-.072-.036-.072-.97 2.156a665.106 665.106 0 00-4.31 10.169c-1.436 3.45-2.37 5.894-3.232 8.301-.898 2.408-1.724 4.779-2.227 6.396-.503 1.617-.718 2.48-.898 2.875-.18.395-.359.324-.503.216-.107-.108-.18-.252-.251-.503-.036-.288-.036-.647.18-1.51z" fill="#47A639"/><path fill-rule="evenodd" clip-rule="evenodd" d="M71.393 122.577c-.826 0-2.011.036-3.232.072-1.222.036-2.514.072-3.664.108-1.15.036-2.119.072-3.34.108-1.221.036-2.658.108-3.915.179-1.257.072-2.299.108-3.448.18-1.113.072-2.299.144-3.412.216a73.558 73.558 0 00-3.125.251c-1.005.072-1.975.18-2.73.252-.754.072-1.292.179-1.58.215l-.287.036-.108.252c-.108.251-.359.755-.826 1.797-.467 1.042-1.15 2.695-1.867 4.348-.719 1.653-1.401 3.341-2.012 4.743-.575 1.401-1.041 2.515-1.437 3.557-.395 1.042-.79 1.941-1.113 2.839-.323.863-.646 1.689-.79 2.084l-.144.396 5.998.215c5.998.216 17.959.611 27.872.827 9.912.215 17.742.287 22.411.323 4.67.036 6.214 0 6.968 0h.754l.144-.359c.144-.36.395-1.078.682-1.869.252-.79.503-1.725.719-2.515.179-.827.323-1.509.467-2.3a46.66 46.66 0 00.359-2.479c.108-.863.215-1.761.323-2.839.108-1.078.216-2.3.323-3.45.108-1.15.144-2.228.18-3.126.036-.898.036-1.653.072-2.156v-.97l-.467-.036-2.335-.18c-.933-.072-1.903-.144-3.232-.216-1.293-.071-2.981-.179-4.346-.215a121.102 121.102 0 00-4.094-.144 283.595 283.595 0 00-5.64-.072H77.14c-1.33 0-2.622.036-3.52.036-.934-.144-1.4-.144-2.227-.108z" fill="#211F17"/><path fill-rule="evenodd" clip-rule="evenodd" d="M42.013 127.932c-.898 2.012-2.514 5.569-3.52 8.049-1.041 2.479-1.472 3.881-1.58 4.707-.108.827.108 1.114.395 1.294.252.179.539.251 3.089.395 2.55.144 7.363.359 15.767.611 8.405.215 20.365.467 27.512.575 7.148.108 9.482.072 10.74.036 1.256-.072 1.472-.144 1.76-.432.322-.251.718-.682 1.148-1.437.431-.719.862-1.761 1.294-3.521.43-1.761.862-4.277 1.149-6.612.287-2.336.431-4.456.467-5.642.036-1.15-.036-1.365-.108-1.473-.072-.108-.108-.108-.647-.216-.538-.072-1.544-.215-4.812-.359-3.269-.144-8.8-.324-15.732-.324-6.932 0-15.3.216-21.298.396-5.998.215-9.698.431-11.637.539-1.94.108-2.12.108-2.299.179-.144.072-.251.18-.395.468-.18.287-.395.754-1.293 2.767z" fill="#F9F9F9"/><path fill-rule="evenodd" clip-rule="evenodd" d="M31.463 153.948c.467.646 1.544 1.724 2.263 2.479.754.755 1.149 1.258 1.364 1.581.216.324.216.467.288.611.072.144.18.288 3.987.719s11.35 1.078 19.897 1.401c8.548.324 18.138.288 23.274.108 5.136-.18 5.819-.467 6.573-.97.754-.503 1.58-1.186 2.299-1.869a20.914 20.914 0 001.508-1.689c.287-.359.251-.431.287-.503.036-.108.072-.215.54-1.15.466-.934 1.364-2.659 1.975-3.881.61-1.221.97-1.904 1.292-2.551a65.62 65.62 0 00.827-1.689c.215-.467.359-.754.43-.934l.072-.144h-6.392c-1.294 0-2.515 0-3.772-.036-1.293 0-2.658-.036-3.771-.036-1.15 0-2.047-.036-3.556-.036-1.508-.035-3.663-.035-5.675-.071-2.047-.036-3.986-.072-5.782-.108a238.262 238.262 0 01-5.208-.144c-1.76-.036-3.592-.108-5.639-.144-2.047-.072-4.31-.143-6.393-.179-2.083-.072-3.951-.108-6.393-.216-2.443-.072-5.388-.18-7.4-.252-1.974-.071-2.98-.107-3.483-.107h-.503l-.251.718c-.252.719-.79 2.156-1.15 3.198-.359 1.043-.61 1.725-.826 2.408-.251.719-.467 1.473-.682 2.012-.252.539-.467.827 0 1.474z" fill="#4AAB3C"/><path fill-rule="evenodd" clip-rule="evenodd" d="M38.933 145.862c.072-.287.144-.431.215-.539.036-.107.108-.179.144-.143.036.036.072.179-.072 1.581-.143 1.401-.467 4.06-.61 5.749-.144 1.689-.144 2.408-.108 2.839.036.431.107.539.575.683.466.144 1.293.359 7.255.79 5.962.432 17.024 1.042 23.489 1.366 6.465.287 8.333.287 9.338.179 1.006-.107 1.15-.287 2.155-1.581.97-1.293 2.802-3.701 4.346-5.533 1.544-1.833 2.802-3.055 3.484-3.666.682-.611.754-.575.718-.467-.036.144-.251.36-1.041 1.366-.79 1.006-2.191 2.731-3.52 4.599-1.329 1.833-2.586 3.773-3.304 4.851-.719 1.078-.934 1.258-1.33 1.402-.358.143-.897.287-2.478.323-1.58.036-4.166 0-10.056-.287-5.89-.288-15.013-.827-20.257-1.15-5.244-.324-6.609-.503-7.686-.611-1.078-.108-1.868-.216-2.299-.575-.43-.359-.467-1.006-.467-1.689-.036-.683-.036-1.401.18-2.803.215-1.401.61-3.521.898-4.743.251-1.294.359-1.689.43-1.941z" fill="#47A639"/><path fill-rule="evenodd" clip-rule="evenodd" d="M102.928 130.986c.143-1.474.215-2.803.287-3.737.072-.935.072-1.51.108-2.013.036-.467.036-.898.072-1.221 0-.324.036-.611.036-.791 0-.18.036-.252.036-.287v-.036l.035-.036.108-.108.144-.144c.072-.036.144-.108.323-.215.144-.072.359-.216.539-.288.179-.108.323-.144.467-.216.143-.071.287-.143.359-.215.072-.072.108-.144.108-.18 0-.036 0-.036.179.827.144.862.467 2.623.898 6.935.395 4.312.898 11.175 1.329 19.368.395 8.193.718 17.716.862 22.459.144 4.743.144 4.743-.215 5.498-.36.754-1.078 2.228-1.76 3.378-.683 1.15-1.365 1.94-2.191 2.407-.826.431-1.832.503-2.191-1.293-.359-1.797-.108-5.426-.036-7.475.036-2.048-.108-2.515-.323-2.874-.216-.36-.467-.539-2.048-1.833-1.544-1.294-4.381-3.629-5.818-4.887-1.437-1.258-1.473-1.437-1.15-2.228.324-.79 1.042-2.264 1.545-3.306.503-1.042.79-1.725 1.042-2.228.251-.503.467-.826.754-1.329.287-.467.646-1.114 1.006-1.833.359-.719.718-1.545 1.113-2.515a43.07 43.07 0 001.078-2.947c.323-.898.538-1.617.79-2.551.251-.934.574-2.048.862-3.27.287-1.186.574-2.48.754-3.522.215-1.042.323-1.868.467-3.054.143-1.186.287-2.767.431-4.24z" fill="#4AAB3C"/><path fill-rule="evenodd" clip-rule="evenodd" d="M104.005 125.38a99.674 99.674 0 01-.431 7.007c-.324 3.378-.898 7.798-1.329 10.673-.431 2.91-.683 4.312-.755 5.102-.071.791-.035 1.006 0 1.294.036.287.036.718.072.898.036.216.108.216 1.006-.575.898-.754 2.586-2.3 3.448-3.162.898-.862 1.006-1.078 1.042-1.258.035-.179.035-.359-.144-3.198-.18-2.803-.539-8.265-.862-11.93-.323-3.665-.575-5.498-.683-6.432-.107-.934-.107-.934-.323-.826-.179.107-.574.287-.754.395-.216.144-.216.215-.251.323-.036.108 0 .431-.036 1.689z" fill="#211F17"/><path fill-rule="evenodd" clip-rule="evenodd" d="M102.681 157.613v.898c.036.324.036.575.108.755.072.179.18.287.395.359.252.072.647.108.934.108.287 0 .503.036.611-.036.143-.072.179-.18.215-.575 0-.395 0-1.078-.036-1.437-.036-.36-.072-.432-.359-.503a6.277 6.277 0 00-1.185-.144c-.323 0-.467.072-.539.108-.072.036-.108.072-.144.107v.36z" fill="#FDE742"/><path fill-rule="evenodd" clip-rule="evenodd" d="M104.583 132.747c.072 2.91.143 7.977.215 10.636.036 2.623.036 2.839.072 2.947 0 .107.036.107.108.071.072-.035.179-.107.431-.287.251-.18.682-.467.898-.683a.786.786 0 00.251-.575c0-.179-.036-.359-.179-2.982-.144-2.623-.431-7.726-.683-10.996-.251-3.27-.431-4.707-.503-5.57-.107-.862-.107-1.114-.179-1.221-.036-.144-.144-.144-.216-.108a.502.502 0 00-.215.251c-.036.108-.072.252-.072.935v2.946c0 .97.036 1.725.072 4.636z" fill="#F9F9F9"/><path fill-rule="evenodd" clip-rule="evenodd" d="M106.808 145.144c0 .718 0 1.509-.036 1.904s-.072.395-.108.395h-.574c-.431 0-1.221-.035-1.76-.035h-1.006c-.144-.036-.179-.072-.179-.18-.036-.108-.072-.216-.144-.288-.072-.036-.144-.036-.216.072-.071.108-.143.288-.215.539-.072.288-.072.647-.108 1.042 0 .396.036.791.072 1.114.072.288.18.467.251.503.108.036.18-.036.252-.215.072-.18.143-.467.143-.647s0-.252.611-.252 1.868.072 2.478.108c.647.036.647 0 .647 0s.036.036.036.288c0 .251-.036.682 0 .934s.107.359.467.395c.359.072.969.072 1.903.036a40.386 40.386 0 003.089-.359c.826-.144 1.221-.324 1.509-.539.251-.18.395-.395.466-.611.072-.216.144-.431.18-1.869.072-1.437.144-4.024.18-5.533.036-1.474 0-1.797-.144-2.121-.18-.287-.467-.574-1.006-.754-.538-.18-1.365-.288-2.37-.324-1.006-.035-2.227-.035-2.981.036-.755.072-1.006.18-1.186.503-.179.36-.287.899-.359 1.294-.036.395-.036.575-.036.647 0 .108-.036.108-.538.072-.503-.072-1.473-.18-1.976-.252l-.503-.072-.036-.179c-.035-.18-.143-.503-.251-.647-.108-.144-.215-.072-.323.072-.108.144-.18.359-.252.683-.036.323-.071.718-.036 1.078.036.359.144.682.252.826.108.144.251.144.323.072.072-.072.072-.108.108-.144.036-.036.144-.036.682 0 .575.072 1.617.18 2.119.216l.539.072v.323c.036.431.036 1.078.036 1.797zm-76.858.036c.072 1.221.215 1.653.395 1.94.18.324.395.539.646.683.252.144.54.215.683.287l.143.036.288-.718c.287-.719.898-2.156 1.436-3.45a160.955 160.955 0 001.222-2.911l.251-.539h-.431c-.108 0-.144 0-.144-.036 0-.072 0-.179-.036-.575 0-.395-.035-1.078-.143-1.509-.108-.395-.288-.503-.862-.467-.575.036-1.617.252-2.263.431-.647.18-.934.36-1.078.575-.143.216-.143.431-.143.611v1.33c0 1.114 0 3.126.036 4.312z" fill="#211F17"/><path fill-rule="evenodd" clip-rule="evenodd" d="M31.242 182.623c.54.395 1.257.719 3.269 1.114 1.975.395 5.208.862 14.69 1.796 9.446.935 25.141 2.372 34.372 3.019 9.23.683 11.996.611 13.397.251 1.4-.395 1.436-1.078 2.119-1.796.718-.719 2.083-1.474 3.088-2.264 1.042-.791 1.724-1.581 1.724-2.192-.036-.611-.754-1.042-1.113-2.875-.359-1.832-.323-5.066-.359-6.791-.072-1.725-.216-1.941-.323-2.048-.072-.108-.072-.108-.144-.18s-.216-.252-.467-.467c-.216-.216-.539-.503-1.185-1.006-.61-.504-1.545-1.294-2.478-2.049-.934-.79-1.868-1.581-2.622-2.228a94.747 94.747 0 01-1.688-1.473c-.36-.323-.54-.431-1.15-.719-.61-.323-1.688-.79-2.658-1.185-1.005-.396-1.903-.647-2.37-.791-.467-.144-.467-.144-.898-.108-.431.036-1.293.108-2.442.144-1.15.072-2.514.108-3.915.144-1.365.036-2.73.036-4.49.072h-6.106c-2.226-.036-4.49-.072-6.967-.144-2.443-.072-5.1-.18-7.435-.288-2.335-.107-4.346-.251-6.465-.395a155.96 155.96 0 01-6.25-.539 131.04 131.04 0 01-4.848-.539c-1.15-.18-1.688-.323-2.12-.395-.466-.072-.825-.108-1.831-.324-1.042-.215-2.73-.575-3.592-.754-.862-.18-.934-.216-.934-.216-.035 0-.035 0-.107.899a100.72 100.72 0 00-.288 5.066c-.072 2.336-.036 5.139.036 7.798.072 2.623.216 5.103.431 6.755.216 1.653.539 2.516.862 3.199.36.646.719 1.114 1.257 1.509z" fill="#4F4D3E"/><path fill-rule="evenodd" clip-rule="evenodd" d="M41.084 180.97c.575 1.473.79 1.653 1.508 1.904.719.252 1.976.539 7.112 1.007 5.136.467 14.187 1.078 18.856 1.365 4.67.288 4.92.288 5.172 0 .251-.287.467-.862 1.15-2.515.646-1.689 1.723-4.456 2.37-6.145.682-1.653.934-2.192 1.365-2.695.43-.503 1.041-.97 2.083-1.258 1.041-.251 2.514-.323 4.597-.467 2.083-.144 4.777-.359 6.68-.575 1.904-.251 3.053-.503 3.664-.718.646-.216.754-.324.79-.504.036-.179-.072-.431-.18-.682-.107-.216-.25-.431-.466-.503-.216-.072-.503-.036-2.838.251-2.298.324-6.644.899-9.302 1.222-2.658.323-3.663.395-4.633.826-.97.432-1.904 1.258-3.017 3.306-1.114 2.084-2.37 5.39-3.017 7.151-.647 1.761-.683 1.905-.79 2.048-.108.108-.252.216-2.586.072-2.37-.143-6.932-.467-11.637-.898a1383.15 1383.15 0 01-11.996-1.15c-2.479-.252-2.586-.287-2.694-.431-.108-.18-.252-.467-.754-2.012-.503-1.546-1.437-4.348-1.94-5.894-.503-1.545-.575-1.796-.79-2.192a6.381 6.381 0 00-1.078-1.401c-.502-.503-1.185-1.006-2.406-1.581-1.221-.539-2.981-1.15-4.382-1.653-1.4-.503-2.37-.862-2.873-1.042-.503-.18-.503-.18-.503.036v.934c0 .252 0 .252.36.431.358.18 1.077.539 2.19.899 1.114.359 2.622.754 3.628 1.078 1.005.323 1.472.575 1.867.862.395.323.683.683 1.006 1.366.287.682.61 1.724 1.221 3.593.754 1.797 1.688 4.528 2.263 5.965z" fill="#403E32"/><path fill-rule="evenodd" clip-rule="evenodd" d="M53.655 162.464a83.717 83.717 0 01-3.88-.252c-1.76-.107-4.058-.287-5.782-.395-1.724-.144-2.837-.251-3.628-.323-.79-.072-1.257-.144-1.544-.144-.287-.036-.36-.036-.395-.036-.036 0-.036 0 .18 1.258.215 1.257.646 3.773 1.257 6.324.574 2.551 1.329 5.103 1.831 6.684.503 1.581.719 2.192.934 2.731.216.503.36.934.467 1.186.108.251.144.359.18.395.036.072.072.108.072.144.035.035.035.071.071.071.036.036.072.036.108.072.036 0 .072.036.108.036.036 0 .108.036.323.036.18.036.503.072.898.108.395.036.934.108 1.473.144.574.036 1.185.107 2.047.179.862.072 2.011.18 3.232.288 1.221.108 2.55.215 3.7.323 1.15.108 2.119.18 3.16.252 1.078.072 2.227.179 3.233.251 1.005.072 1.832.144 2.981.216 1.15.072 2.586.18 3.7.251 1.113.072 1.867.108 2.334.144.467.036.61.036.718.036h.36c.107 0 .25 0 .323-.036.072 0 .107 0 .107-.036.036 0 .036-.036.072-.036.036-.036.036-.036.072-.107.036-.072.072-.144.18-.396.107-.251.287-.647.934-2.443a632.26 632.26 0 002.586-7.439 250.542 250.542 0 001.903-5.749c.467-1.366.718-2.264.862-2.695l.144-.431h-2.694c-1.257 0-3.053 0-5.172-.036-2.12-.036-4.597-.072-7.183-.144-2.55-.072-5.208-.18-6.896-.251a116.65 116.65 0 00-3.376-.18z" fill="#403E32"/><path fill-rule="evenodd" clip-rule="evenodd" d="M33.212 174.466c1.15.036 2.047 1.006 2.047 2.12s-.933 1.976-2.047 1.94c-1.15-.035-2.047-1.006-2.047-2.12s.934-1.976 2.047-1.94zm54.059 4.923c1.15.036 2.047 1.006 2.047 2.12s-.933 1.976-2.047 1.94c-1.15-.036-2.047-1.006-2.047-2.12 0-1.078.934-1.976 2.047-1.94z" fill="#fff"/><path fill-rule="evenodd" clip-rule="evenodd" d="M28.948 161.745c.18.324.575.719 1.437 1.186.861.467 2.154 1.006 3.304 1.473 1.15.468 2.083.863 2.694 1.078.61.216.933.252 1.041.108.144-.144.108-.431-.143-1.653-.252-1.221-.683-3.413-1.33-5.21-.646-1.761-1.544-3.126-2.37-4.061-.826-.934-1.544-1.473-2.083-1.725-.539-.251-.934-.251-1.113-.251-.18 0-.18 0-.324.251-.143.252-.43.719-.682 1.366-.252.647-.431 1.473-.503 2.587-.108 1.114-.108 2.516-.108 3.342.036.898 0 1.186.18 1.509zm66.692-.79c-.072.826-.18 1.473-.287 2.048-.108.575-.252 1.15-.431 1.545-.144.395-.287.647-.683.934-.359.288-.97.647-2.262 1.043-1.293.395-3.269.862-5.244 1.149-1.976.288-3.95.396-5.064.468-1.078.035-1.293 0-1.401-.108-.108-.108-.18-.288.36-1.689.538-1.437 1.651-4.133 2.729-5.786 1.077-1.688 2.119-2.335 3.591-3.018 1.473-.683 3.412-1.401 4.705-1.761 1.293-.395 2.012-.431 2.622-.395.61.036 1.15.144 1.401.647.251.467.216 1.293.18 2.228a32.733 32.733 0 01-.216 2.695z" fill="#FDE742"/><path fill-rule="evenodd" clip-rule="evenodd" d="M37.169 184.168c-.54-.072-1.15-.18-1.688-.252-.54-.107-.97-.179-1.222-.215-.251-.036-.323-.072-.359-.072-.036 0-.036 0-.072.575s-.071 1.761.036 2.803c.108 1.006.36 1.904.61 2.443.288.539.576.791 1.222.97.647.18 1.616.324 2.442.36.827.036 1.473-.072 1.868-.324.395-.251.539-.646.647-1.257.107-.611.18-1.402.215-2.192.036-.791 0-1.545 0-1.941 0-.395 0-.395-.144-.395-.143 0-.43-.036-.826-.108a24.86 24.86 0 01-1.365-.179c-.467-.072-.861-.108-1.364-.216z" fill="#403E32"/><path fill-rule="evenodd" clip-rule="evenodd" d="M104.727 180.683c.108-1.689.324-5.067.252-7.583-.072-2.551-.395-4.24-.718-5.03-.36-.791-.683-.719-1.006-.431-.323.287-.575.718-1.006 2.048-.431 1.329-.969 3.557-1.257 4.707-.251 1.15-.251 1.294-.108 1.976.108.683.36 1.941.503 2.947.18 1.006.324 1.725.467 2.336.18.647.359 1.186.503 1.509.144.323.251.467.359.323.108-.143.252-.575.287-.79.072-.216.072-.216.108-.18a.467.467 0 00.323.108c.18.036.431.036.611-.036.18-.036.323-.144.395-.18.18-.036.18-.036.287-1.724z" fill="#36342B"/><path fill-rule="evenodd" clip-rule="evenodd" d="M101.604 173.208c.179.503.539 1.545.79 3.486.251 1.94.359 4.743.395 7.726.036 2.982-.036 6.108-.179 8.336-.144 2.228-.324 3.522-.683 4.24-.359.719-.898.791-1.796.863-.933.036-2.227.036-3.017-.036-.826-.108-1.113-.288-1.293-.575-.18-.288-.215-.611-.251-1.976-.072-1.366-.144-3.738-.18-4.923-.036-1.186-.036-1.186.252-1.222.287-.036.826-.108 1.22-.216.396-.072.647-.179.791-.395.18-.216.287-.611.718-2.336.467-1.725 1.293-4.779 1.724-6.791.467-2.013.539-2.911.683-3.845a16.21 16.21 0 01.539-2.264c.071-.575.071-.575.287-.072zm108.546-11.93c-.719.323-1.76 1.329-2.874 2.264-1.113.934-2.298 1.761-2.873 2.192-.575.431-.575.431-.646 2.659-.072 2.264-.18 6.755.071 9.415.252 2.695.826 3.521 1.222 4.24.395.718.61 1.293.754 1.581.143.287.215.287.97.323.754.036 2.226.072 3.017.108.79.036.897.036.969.036.072 0 .108-.036.324-.647.215-.611.574-1.797.826-3.917.251-2.12.359-5.21.287-8.336-.072-3.127-.323-6.325-.647-8.121-.287-1.761-.682-2.12-1.4-1.797z" fill="#403E32"/><path d="M211.08 181.437c.397 0 .719-3.266.719-7.295 0-4.028-.322-7.294-.719-7.294-.396 0-.718 3.266-.718 7.294 0 4.029.322 7.295.718 7.295z" fill="#737160"/><path fill-rule="evenodd" clip-rule="evenodd" d="M207.779 86.248c.467-.36.934-.862 1.185-1.114l.251-.251 1.509 2.371c1.508 2.372 4.561 7.115 6.07 9.487l1.508 2.371-.107 9.523c-.108 9.522-.288 28.531-.36 38.054l-.107 9.522-1.437 2.085c-1.437 2.084-4.382 6.144-5.819 8.228-1.436 2.085-1.436 2.085-1.472 2.085 0 0-.036 0-.252-.18-.215-.18-.61-.575-.933-.934-.324-.396-.575-.791-.791-14.194-.215-13.404-.395-39.815-.251-53.111.144-13.367.539-13.583 1.006-13.942z" fill="#4AAB3C"/><path fill-rule="evenodd" clip-rule="evenodd" d="M157.524 162.32c-4.597-5.102-13.899-14.122-18.532-18.614l-4.67-4.491-.071-7.726c-.072-7.726-.252-23.213-.36-31.299-.071-8.085-.107-8.803-.107-9.163v-.36l.215-.035c.216-.036.647-.072 13.217-1.042 12.571-.97 37.246-2.839 49.601-3.773l12.355-.934-.036 13.942c-.035 13.942-.071 41.863-.107 55.805l-.036 13.943-7.866.215c-7.866.216-23.561.611-31.355.216-7.794-.359-7.65-1.581-12.248-6.684z" fill="#5DC94C"/><path fill-rule="evenodd" clip-rule="evenodd" d="M212.122 164.189c-.108.143-.216.287-.252.395l-.071.072v.179c0 .18.036.503.071.791.036.323.072.611.072.791v.143l.647.036c.646.036 1.939.072 2.622.108l.646.036v-.575c0-.575 0-1.725-.036-2.3v-.575l-.503-.036c-.502-.036-1.472-.072-1.975-.107l-.503-.036-.108.143a8.536 8.536 0 00-.395.575 3.169 3.169 0 00-.215.36z" fill="#080902"/><path fill-rule="evenodd" clip-rule="evenodd" d="M117.16 156.427c.251-1.006.79-2.623 1.939-5.498 1.185-2.875 2.981-7.007 4.705-11.104 1.688-4.096 3.269-8.157 4.49-10.995 1.221-2.839 2.083-4.42 2.765-5.39.683-.971 1.221-1.366 2.155-1.797.934-.431 2.299-.863 9.698-1.258 7.399-.395 20.867-.79 31.391-.898 10.523-.144 18.102-.036 22.16.18 4.059.215 4.633.539 4.921.934.287.395.287.826.287 1.078 0 .215 0 .215-.323.395-.323.18-1.006.467-1.401.719-.395.251-.503.431-.575.539-.071.108-.071.108-.179 2.946-.144 2.875-.395 8.589-1.401 14.122-1.006 5.534-2.73 10.888-4.058 14.23-1.329 3.342-2.263 4.708-2.766 5.462-.503.755-.575.97-.862 1.042-.287.108-.754.108-1.113.108-.324 0-.539 0-.683-.072-.179-.072-.323-.251-.395-.395-.072-.144-.072-.288-.072-.395 0-.108 0-.144.719-1.546.718-1.401 2.155-4.168 3.268-6.432 1.149-2.299 2.011-4.096 2.694-6.073.682-2.012 1.149-4.204 1.58-7.15.431-2.983.79-6.72.97-9.307.143-2.588.072-4.025.036-4.744l-.036-.718-2.55-.144c-2.55-.144-7.686-.431-15.875-.503-8.189-.072-19.395.036-27.764.287-8.332.252-13.792.611-16.629.827-2.838.216-3.017.251-3.161.216-.108-.036-.179-.18-.179-.252-.036-.072-.036-.072-1.114 2.443-1.077 2.516-3.232 7.547-4.848 11.427-1.617 3.881-2.658 6.648-3.664 9.343a173.512 173.512 0 00-2.514 7.187c-.575 1.833-.79 2.767-1.006 3.234-.215.431-.431.359-.574.216-.144-.144-.216-.288-.252-.575 0-.288-.036-.683.216-1.689z" fill="#47A639"/><path fill-rule="evenodd" clip-rule="evenodd" d="M163.312 122.937c-.934 0-2.227.036-3.627.071-1.401.036-2.838.072-4.131.108-1.293.036-2.406.072-3.771.144-1.365.036-2.981.108-4.418.18-1.401.072-2.622.143-3.879.215-1.257.072-2.586.144-3.807.252-1.221.072-2.406.18-3.52.287-1.113.108-2.227.18-3.089.288-.862.108-1.472.179-1.759.215l-.324.036-.143.288c-.144.287-.395.826-.934 2.012a228.14 228.14 0 00-2.119 4.887 830.065 830.065 0 01-2.263 5.318c-.647 1.581-1.185 2.839-1.616 3.989-.467 1.15-.862 2.192-1.257 3.162-.36.97-.719 1.905-.898 2.336l-.18.467 6.717.216c6.716.215 20.185.682 31.319.934 11.134.251 19.969.323 25.213.359 5.28.036 6.968 0 7.83 0h.862l.144-.395c.143-.395.466-1.186.754-2.084.287-.899.574-1.941.79-2.839.215-.898.395-1.725.539-2.587.143-.863.287-1.833.431-2.803.143-.97.251-1.976.395-3.198.143-1.186.251-2.587.359-3.881.108-1.294.18-2.479.215-3.522.036-1.042.072-1.868.072-2.443v-1.114l-.539-.036c-.538-.036-1.58-.144-2.657-.216-1.078-.071-2.155-.179-3.628-.251-1.472-.108-3.34-.18-4.885-.252a156.572 156.572 0 00-4.597-.143 357.748 357.748 0 00-6.321-.072h-4.921c-1.472 0-2.945.036-3.986.036-.898.036-1.437.036-2.371.036z" fill="#211F17"/><path fill-rule="evenodd" clip-rule="evenodd" d="M130.311 128.973c-1.005 2.264-2.837 6.289-3.987 9.056-1.149 2.803-1.652 4.348-1.795 5.282-.108.934.143 1.258.431 1.473.287.216.61.252 3.484.432 2.873.143 8.296.395 17.742.682 9.446.252 22.915.539 30.96.647 8.046.108 10.632.072 12.068.036 1.401-.072 1.652-.18 1.976-.467.359-.288.826-.791 1.293-1.617.467-.827.969-1.977 1.436-3.989.503-1.976.97-4.815 1.293-7.402a72.4 72.4 0 00.503-6.325c.036-1.329-.036-1.509-.108-1.653-.072-.107-.107-.143-.718-.215-.611-.072-1.76-.252-5.423-.431-3.664-.18-9.877-.36-17.671-.36-7.794 0-17.204.216-23.957.467-6.752.216-10.882.468-13.073.611-2.191.144-2.407.144-2.586.216-.18.072-.287.18-.467.503-.144.287-.395.791-1.401 3.054z" fill="#F9F9F9"/><path fill-rule="evenodd" clip-rule="evenodd" d="M118.418 158.26c.503.754 1.724 1.904 2.55 2.803.826.862 1.293 1.437 1.509 1.796.251.36.251.503.323.683.072.18.215.323 4.489.79 4.31.468 12.751 1.222 22.376 1.582 9.626.359 20.401.323 26.183.107 5.783-.179 6.537-.539 7.399-1.114a17.442 17.442 0 002.55-2.084 15.149 15.149 0 001.688-1.904c.288-.395.288-.467.324-.575.036-.108.071-.252.61-1.294s1.509-3.018 2.227-4.384l1.437-2.874c.359-.719.682-1.366.898-1.905.251-.503.395-.862.467-1.042l.071-.18h-7.183c-1.472 0-2.801 0-4.274-.036-1.437 0-2.981-.036-4.274-.036-1.293 0-2.299-.035-3.987-.035-1.724-.036-4.094-.072-6.393-.108a338.766 338.766 0 01-6.501-.144c-2.011-.036-3.915-.108-5.854-.144-1.976-.036-4.023-.108-6.357-.179-2.299-.072-4.849-.144-7.184-.216-2.334-.072-4.453-.144-7.183-.216-2.73-.107-6.07-.215-8.297-.287-2.227-.072-3.34-.108-3.915-.144l-.574-.036-.288.791c-.287.79-.862 2.407-1.293 3.593a64.792 64.792 0 00-.933 2.731 83.03 83.03 0 01-.755 2.264c-.143.719-.359 1.042.144 1.797z" fill="#4AAB3C"/><path fill-rule="evenodd" clip-rule="evenodd" d="M126.819 149.132c.108-.287.18-.467.216-.611.072-.107.108-.179.144-.143.036.036.071.215-.072 1.796-.144 1.582-.503 4.564-.683 6.469-.179 1.904-.143 2.695-.107 3.162.036.467.107.611.646.79.503.18 1.473.396 8.153.863 6.681.467 19.144 1.186 26.399 1.509 7.255.359 9.374.323 10.487.18 1.15-.108 1.293-.324 2.407-1.761 1.113-1.473 3.16-4.169 4.884-6.217 1.724-2.048 3.161-3.449 3.915-4.132.755-.683.862-.647.791-.503-.072.144-.252.431-1.15 1.545-.898 1.114-2.478 3.09-3.951 5.138-1.508 2.085-2.909 4.241-3.735 5.462-.826 1.186-1.077 1.402-1.508 1.582-.431.179-1.006.323-2.802.359-1.76.036-4.705 0-11.278-.324-6.608-.323-16.88-.898-22.771-1.293-5.89-.395-7.434-.539-8.656-.683-1.221-.144-2.119-.251-2.586-.647-.467-.395-.502-1.15-.538-1.904-.036-.755-.036-1.581.179-3.162.216-1.581.683-3.953 1.006-5.355.395-1.401.539-1.832.61-2.12z" fill="#47A639"/><path fill-rule="evenodd" clip-rule="evenodd" d="M198.795 132.423c.143-1.653.251-3.162.323-4.204.072-1.078.108-1.689.108-2.264.036-.539.036-1.006.072-1.366.036-.395.035-.682.071-.898 0-.215.036-.287.036-.323v-.036l.036-.036a.497.497 0 00.108-.144l.144-.144c.071-.071.179-.143.359-.251.179-.108.395-.216.61-.324.18-.107.36-.179.503-.251.144-.072.323-.144.431-.252.108-.072.108-.179.144-.215 0-.036 0-.036.179.934.18 1.006.539 2.983 1.006 7.834.467 4.851 1.006 12.576 1.473 21.776.467 9.199.79 19.907.969 25.261.18 5.354.18 5.354-.215 6.181-.395.826-1.185 2.515-1.975 3.809-.791 1.293-1.509 2.192-2.479 2.695-.934.503-2.047.575-2.478-1.438-.395-2.012-.108-6.072-.072-8.408.072-2.3-.143-2.839-.359-3.234-.251-.395-.539-.611-2.299-2.048-1.759-1.438-4.92-4.061-6.536-5.498-1.617-1.438-1.653-1.617-1.293-2.516.359-.898 1.149-2.515 1.724-3.701.574-1.186.898-1.94 1.185-2.515.287-.575.539-.935.862-1.474a31.53 31.53 0 001.113-2.048 46.35 46.35 0 001.257-2.839c.431-1.078.862-2.299 1.222-3.305a38.21 38.21 0 00.897-2.875c.288-1.042.647-2.3.97-3.665.323-1.366.647-2.803.862-3.953.216-1.186.359-2.084.539-3.45.144-1.365.323-3.162.503-4.815z" fill="#4AAB3C"/><path fill-rule="evenodd" clip-rule="evenodd" d="M200.023 126.099a95.604 95.604 0 01-.503 7.905c-.359 3.809-1.005 8.768-1.508 12.002-.467 3.27-.754 4.851-.862 5.75-.108.898-.036 1.149 0 1.473.036.323.036.79.072 1.006.036.216.143.216 1.149-.647 1.006-.862 2.873-2.587 3.879-3.557 1.006-.971 1.113-1.186 1.185-1.402.072-.215.072-.431-.143-3.593-.216-3.162-.611-9.307-.97-13.403-.359-4.097-.611-6.181-.754-7.223-.144-1.042-.144-1.042-.36-.934-.215.107-.646.323-.862.467-.215.143-.251.215-.287.359 0 .18 0 .395-.036 1.797z" fill="#211F17"/><path fill-rule="evenodd" clip-rule="evenodd" d="M198.473 162.356c0 .252 0 .647.036 1.006.036.36.072.647.143.863.072.215.18.323.467.395.288.072.719.108 1.042.108.323 0 .575.036.718-.036.144-.072.216-.216.216-.647.036-.431 0-1.186-.036-1.617-.036-.431-.072-.503-.431-.575a7.906 7.906 0 00-1.329-.144c-.395 0-.503.072-.611.108-.107.036-.107.072-.143.144-.036.072-.072.143-.072.395z" fill="#FDE742"/><path fill-rule="evenodd" clip-rule="evenodd" d="M200.666 134.4c.072 3.27.18 8.983.252 11.966.071 2.982.071 3.198.071 3.305.036.108.072.108.144.072.072-.036.18-.143.467-.323.287-.216.754-.539 1.006-.791.251-.251.287-.467.287-.646 0-.18-.036-.396-.216-3.342-.179-2.947-.502-8.696-.754-12.362-.251-3.665-.467-5.318-.574-6.252-.108-.934-.144-1.222-.18-1.366-.072-.143-.144-.143-.251-.107-.108.036-.18.143-.252.287-.036.144-.072.288-.072 1.078 0 .791-.036 2.192 0 3.342-.036 1.042 0 1.869.072 5.139z" fill="#F9F9F9"/><path fill-rule="evenodd" clip-rule="evenodd" d="M203.144 148.342c0 .79 0 1.689-.036 2.156-.036.467-.072.467-.144.467h-.646c-.503 0-1.365-.036-1.976-.036h-1.113c-.18-.036-.18-.108-.216-.18-.035-.107-.071-.251-.143-.323-.072-.072-.144-.036-.252.072a1.291 1.291 0 00-.215.611 5.786 5.786 0 00-.108 1.186c0 .431.036.898.108 1.221.072.324.18.503.287.575.108.072.18-.036.288-.215.071-.216.143-.539.179-.755.036-.216 0-.287.683-.287.682 0 2.083.071 2.801.107.718.036.718 0 .718 0 .036 0 .036.072.036.324 0 .251-.036.754 0 1.042.036.287.144.395.503.467.395.072 1.078.072 2.155.036 1.078-.072 2.514-.216 3.448-.395.934-.18 1.401-.396 1.688-.575.288-.216.431-.431.539-.683.108-.252.144-.503.215-2.12.072-1.617.18-4.528.18-6.217.036-1.653 0-2.048-.18-2.371-.179-.324-.502-.647-1.149-.827-.61-.215-1.544-.323-2.694-.395a25.762 25.762 0 00-3.376.036c-.826.072-1.149.215-1.365.575-.215.395-.323 1.042-.395 1.437-.072.431-.036.647-.036.755 0 .108-.036.143-.574.072-.575-.072-1.652-.216-2.227-.288l-.539-.072-.036-.179c-.036-.18-.143-.575-.287-.755-.108-.144-.251-.072-.359.108a2.439 2.439 0 00-.288.79c-.071.36-.071.827-.035 1.222.035.395.143.755.287.934.108.18.287.144.359.108.072-.036.072-.108.144-.179.036-.036.143-.036.79 0 .646.071 1.796.179 2.406.251l.575.072v2.228zm-86.411.036c.071 1.365.215 1.832.431 2.192.215.359.431.575.718.754.287.18.61.252.754.324l.144.036.323-.827c.323-.826 1.006-2.443 1.616-3.881.611-1.437 1.114-2.659 1.401-3.27l.251-.611h-.107c-.108 0-.288 0-.431.036-.108 0-.144 0-.18-.071-.036-.072-.036-.18-.036-.647-.036-.467-.072-1.222-.179-1.689-.108-.467-.324-.575-.97-.503-.683.036-1.796.287-2.514.503-.719.215-1.042.431-1.186.647-.143.215-.143.503-.143.682 0 .18.036.324 0 1.51.072 1.221.036 3.449.108 4.815z" fill="#211F17"/><path fill-rule="evenodd" clip-rule="evenodd" d="M118.165 190.492c.61.431 1.436.827 3.663 1.258 2.227.431 5.855.97 16.522 2.012 10.631 1.042 28.266 2.659 38.646 3.414 10.38.755 13.469.683 15.049.287 1.58-.431 1.616-1.221 2.406-2.012.79-.826 2.335-1.653 3.484-2.515 1.149-.863 1.94-1.797 1.904-2.48-.036-.682-.862-1.186-1.221-3.234-.396-2.048-.36-5.713-.431-7.618-.072-1.94-.252-2.156-.36-2.3-.107-.107-.107-.107-.179-.215s-.252-.288-.503-.503c-.251-.252-.611-.539-1.329-1.15-.718-.575-1.76-1.437-2.801-2.336a151.015 151.015 0 01-2.981-2.515c-.862-.719-1.473-1.294-1.904-1.653-.395-.359-.575-.467-1.293-.827-.682-.359-1.904-.898-3.017-1.329a33.252 33.252 0 00-2.658-.899c-.503-.143-.503-.143-1.006-.107-.502.036-1.472.107-2.729.179-1.293.072-2.838.108-4.382.144-1.544.036-3.053.072-5.028.072h-6.86c-2.479-.036-5.065-.072-7.83-.144a293.677 293.677 0 01-8.333-.323c-2.622-.144-4.884-.288-7.255-.431-2.37-.18-4.813-.396-7.04-.575-2.226-.216-4.166-.432-5.459-.611-1.293-.18-1.867-.36-2.406-.431-.503-.108-.934-.144-2.083-.36-1.15-.215-3.053-.647-4.023-.862-.97-.216-1.042-.252-1.078-.252-.035 0-.035 0-.107 1.006-.072 1.043-.252 3.091-.324 5.714a145.07 145.07 0 00.036 8.768c.072 2.982.252 5.749.503 7.618.252 1.868.611 2.839.97 3.593.467.647.826 1.15 1.437 1.617z" fill="#4F4D3E"/><path fill-rule="evenodd" clip-rule="evenodd" d="M129.262 188.624c.646 1.653.862 1.868 1.688 2.12.826.287 2.227.611 8.009 1.114 5.783.503 15.947 1.222 21.191 1.545 5.244.323 5.531.323 5.818 0 .288-.323.539-.97 1.293-2.839.719-1.868 1.94-5.03 2.694-6.899.754-1.869 1.042-2.444 1.545-3.018.502-.575 1.149-1.114 2.334-1.402 1.185-.287 2.838-.359 5.172-.503 2.335-.144 5.352-.395 7.507-.647 2.155-.287 3.412-.575 4.13-.79.718-.216.862-.36.898-.575.036-.216-.072-.503-.18-.755-.107-.251-.287-.503-.502-.575-.252-.108-.575-.036-3.197.288a723.49 723.49 0 01-10.452 1.365c-2.981.359-4.13.431-5.208.934-1.077.503-2.155 1.402-3.376 3.738-1.221 2.335-2.658 6.072-3.412 8.013-.718 1.976-.754 2.156-.862 2.3-.108.143-.287.215-2.909.071-2.658-.143-7.794-.539-13.074-1.006a979.588 979.588 0 01-13.468-1.293c-2.766-.288-2.91-.324-3.053-.503-.144-.18-.252-.539-.826-2.264-.575-1.761-1.617-4.887-2.191-6.648-.575-1.761-.647-2.048-.898-2.479a7.87 7.87 0 00-1.221-1.582c-.575-.575-1.329-1.149-2.694-1.76s-3.34-1.294-4.921-1.869a87.063 87.063 0 01-3.232-1.186c-.575-.215-.575-.215-.575.036v1.042c0 .252 0 .252.395.467.395.216 1.222.611 2.479 1.043 1.257.431 2.981.826 4.094 1.185 1.113.36 1.652.647 2.119.971.431.359.79.754 1.114 1.545.323.79.682 1.94 1.364 4.06.683 2.048 1.76 5.139 2.407 6.756z" fill="#403E32"/><path fill-rule="evenodd" clip-rule="evenodd" d="M143.376 167.782a382.095 382.095 0 00-4.382-.251c-1.975-.144-4.561-.324-6.501-.468-1.939-.143-3.196-.287-4.094-.359-.898-.072-1.401-.144-1.724-.18-.323-.035-.395-.035-.431-.035-.036 0-.036 0 .215 1.401.252 1.401.719 4.24 1.401 7.079.647 2.839 1.509 5.749 2.047 7.51.539 1.797.826 2.48 1.042 3.054.215.575.431 1.043.539 1.33.107.288.179.395.215.467.036.072.072.108.072.144.036.036.036.072.072.108.036.036.072.072.108.072.035.036.071.036.107.036.072 0 .144.035.359.071.216.036.575.072 1.042.108.467.036 1.042.108 1.688.144.647.072 1.329.108 2.299.216.969.071 2.262.215 3.627.323 1.401.108 2.874.251 4.167.359 1.293.108 2.37.216 3.555.288 1.186.108 2.479.179 3.628.287 1.113.072 2.083.144 3.376.252 1.293.072 2.909.179 4.13.287 1.258.072 2.12.108 2.622.144.503.036.683.036.826.036h.396c.143 0 .287 0 .359-.036.072 0 .107 0 .143-.036a.077.077 0 00.072-.072c.036-.036.036-.036.072-.108.036-.072.072-.179.216-.467.107-.287.323-.754 1.041-2.731.718-2.012 1.94-5.57 2.873-8.372.97-2.839 1.653-4.923 2.155-6.468.503-1.546.826-2.516.97-3.019l.144-.503h-3.017c-1.401 0-3.412-.036-5.819-.036-2.406-.036-5.172-.072-8.045-.144s-5.854-.179-7.758-.287c-1.939-.036-2.73-.072-3.807-.144z" fill="#403E32"/><path fill-rule="evenodd" clip-rule="evenodd" d="M120.39 181.293c1.257.036 2.299 1.114 2.299 2.372 0 1.258-1.042 2.228-2.299 2.192-1.257-.036-2.298-1.114-2.298-2.372 0-1.258 1.041-2.228 2.298-2.192zm60.804 5.57c1.257.036 2.299 1.114 2.299 2.372 0 1.257-1.042 2.228-2.299 2.192-1.257-.036-2.299-1.114-2.299-2.372-.035-1.258 1.006-2.264 2.299-2.192z" fill="#fff"/><path fill-rule="evenodd" clip-rule="evenodd" d="M115.612 167.027c.215.396.646.827 1.616 1.33.97.539 2.442 1.15 3.699 1.689 1.293.539 2.335.97 3.053 1.186.719.251 1.042.251 1.186.107.143-.143.107-.467-.144-1.868-.252-1.401-.754-3.845-1.509-5.821-.754-1.977-1.724-3.522-2.657-4.564-.898-1.042-1.724-1.653-2.371-1.94-.611-.288-1.042-.288-1.257-.288-.216 0-.216 0-.359.288-.18.287-.503.826-.754 1.545-.252.718-.467 1.653-.575 2.91-.108 1.258-.108 2.803-.144 3.773.036.935 0 1.258.216 1.653zm74.998-.898c-.107.934-.179 1.653-.323 2.336-.143.683-.287 1.293-.467 1.725-.179.431-.323.718-.754 1.042-.431.323-1.113.718-2.55 1.15-1.437.467-3.663.97-5.89 1.293a53.667 53.667 0 01-5.675.503c-1.221.036-1.437 0-1.58-.107-.144-.108-.18-.324.395-1.905.61-1.617 1.867-4.635 3.053-6.54 1.221-1.868 2.37-2.623 4.022-3.414 1.652-.754 3.807-1.581 5.28-2.012 1.473-.431 2.263-.503 2.945-.467.682.036 1.293.18 1.58.719.288.539.252 1.473.18 2.515-.036 1.078-.144 2.228-.216 3.162z" fill="#FDE742"/><path fill-rule="evenodd" clip-rule="evenodd" d="M124.812 192.217c-.575-.072-1.293-.216-1.904-.287-.611-.108-1.078-.18-1.365-.252-.287-.072-.359-.072-.395-.072-.036 0-.036 0-.072.647s-.072 1.976.036 3.126c.108 1.15.395 2.12.683 2.731.287.611.646.863 1.364 1.078.719.216 1.832.36 2.766.396.934.035 1.652-.072 2.119-.36.467-.287.611-.754.718-1.437.144-.683.216-1.581.252-2.48.036-.898.036-1.724 0-2.156 0-.431 0-.431-.18-.431a9.78 9.78 0 00-.934-.108 18.27 18.27 0 00-1.544-.179 15.66 15.66 0 01-1.544-.216z" fill="#403E32"/><path fill-rule="evenodd" clip-rule="evenodd" d="M200.769 188.3c.108-1.904.359-5.677.287-8.552-.072-2.839-.431-4.779-.826-5.678-.395-.898-.79-.826-1.113-.503-.359.288-.647.827-1.114 2.336a78.556 78.556 0 00-1.4 5.318c-.288 1.294-.252 1.438-.108 2.228.144.791.395 2.192.575 3.306.179 1.114.359 1.941.538 2.623.18.719.395 1.33.575 1.689.18.395.287.539.395.36.144-.18.251-.647.323-.899.072-.251.072-.251.144-.215.072.035.18.107.359.143.216.036.503.036.718-.036.216-.036.36-.143.467-.179.072-.036.072-.036.18-1.941z" fill="#36342B"/><path fill-rule="evenodd" clip-rule="evenodd" d="M197.25 179.856c.215.575.61 1.725.862 3.917.251 2.156.395 5.318.431 8.66.036 3.342-.072 6.863-.216 9.343-.143 2.515-.359 3.988-.754 4.779-.395.79-1.006.898-2.047.97-1.042.036-2.478.036-3.412-.072-.898-.108-1.257-.323-1.473-.647-.179-.323-.251-.718-.287-2.228-.072-1.545-.144-4.204-.216-5.533-.036-1.33-.036-1.33.252-1.366.323-.036.934-.144 1.401-.215.431-.108.718-.216.897-.468.18-.251.324-.682.827-2.623.502-1.94 1.436-5.39 1.939-7.654.503-2.263.611-3.27.79-4.312.18-1.006.431-2.012.575-2.551.215-.503.251-.539.431 0z" fill="#403E32"/></svg>