<svg width="328" height="232" fill="none" xmlns="http://www.w3.org/2000/svg"><path fill-rule="evenodd" clip-rule="evenodd" d="M227.575 184.744c2.96-1.246 7.907-2.258 20.217-2.492 12.349-.233 32.06.312 44.798 1.246 12.739.934 18.426 2.258 22.049 4.009 3.623 1.752 5.181 3.893 5.609 5.878.468 1.986-.156 3.737-2.921 5.255-2.766 1.518-7.713 2.764-12.505 3.62-4.791.857-9.388 1.363-15.387 1.869-5.96.545-13.284 1.129-17.53 1.713-4.246.584-5.414 1.206-6.077 1.829-.701.662-.935 1.324-2.103 1.869-1.208.545-3.35.934-8.376 1.284-5.025.39-12.855.74-19.828.39-6.934-.351-12.933-1.402-16.516-3.115-3.584-1.751-4.753-4.165-4.324-5.916.428-1.752 2.415-2.842 4.324-3.971 1.869-1.129 3.661-2.374 4.246-3.931.584-1.596-.039-3.504.155-5.216.195-1.635 1.208-3.076 4.169-4.321z" fill="#CBCCCD"/><path fill-rule="evenodd" clip-rule="evenodd" d="M121.773 45.583c5.921-.818 14.374-.156 18.581 2.18 3.974 2.257 7.48 7.512 7.246 14.246-.273 6.93-3.701 11.289-7.557 13.897-3.662 2.491-13.245 3.309-18.309 2.219l.039-32.542zm-.117 41.261c6.311-1.167 15.816 1.752 25.165-3.698 5.843-3.386 10.206-8.408 11.764-16.7 3.311-17.71-9.271-30.206-26.061-30.245l-22.204-.039.039 42.235-7.129.04-.039 8.29 7.168.117v4.866l-7.09.039-.078 8.252 7.129.117v18.49h11.336l-.039-18.607 30.93-.117-.078-8.057c-6.194-.506-27.736.506-30.813-.273v-4.71z" fill="#E1E2E1"/><path fill-rule="evenodd" clip-rule="evenodd" d="M21.737 185.95c-5.259 2.258-8.336 3.698-10.245 5.294-1.909 1.596-2.65 3.348-2.688 5.022-.039 1.674.584 3.27 2.376 4.827 1.792 1.596 4.753 3.153 9.466 3.97 4.714.779 11.22.779 16.206.74 4.986-.039 8.492-.195 11.491.194 3 .428 5.454 1.363 6.545 2.258 1.09.895.857 1.713-.312 2.336-1.169.622-3.233 1.051-4.558 2.141-1.285 1.128-1.83 2.958-.39 4.671 1.403 1.751 4.753 3.386 10.051 4.554 5.298 1.168 12.504 1.83 21.036 1.479 8.53-.35 18.347-1.713 21.853-4.009 3.506-2.297.74-5.528.351-7.591-.39-2.102 1.636-3.036 8.414-2.802 6.778.233 18.348 1.673 33.813 1.907 15.465.233 34.865-.701 49.823-2.569 14.92-1.869 25.399-4.632 31.32-7.941 5.882-3.309 7.207-7.163 5.532-10.666-1.675-3.503-6.311-6.617-14.375-8.875-8.063-2.258-19.555-3.698-39.928-4.983-20.335-1.284-49.551-2.413-70.158-3.269-20.607-.818-32.644-1.363-42.15-.468-9.504.896-16.477 3.154-23.645 5.839-7.207 2.647-14.608 5.684-19.828 7.941z" fill="#CBCCCD"/><path fill-rule="evenodd" clip-rule="evenodd" d="M73.625 131.921c-.156-9.809-.04-9.809-.195-9.926-.195-.078-.662-.234-4.714-1.246a4621.804 4621.804 0 00-15.542-3.854l-3.818-.934.234 10.393c.233 10.394.74 31.141.974 41.535.233 10.393.233 10.393.233 11.133 0 .739-.039 2.179-.039 3.075 0 .895.078 1.168 3 2.802 2.921 1.635 8.765 4.555 12.66 6.345 3.935 1.791 5.96 2.453 6.973 2.764 1.013.312 1.013.312 1.052-1.907.039-2.258.117-6.734-.04-18.763-.194-12.067-.622-31.608-.778-41.417z" fill="#F7CE66"/><path fill-rule="evenodd" clip-rule="evenodd" d="M58.238 118.141l4.363 1.09.039 51.538-4.169-1.401-.233-51.227z" fill="#FBFBFC"/><path fill-rule="evenodd" clip-rule="evenodd" d="M74.131 164.113c.078 7.318.117 18.062.117 23.395.04 5.371.04 5.371 0 5.605 0 .233-.039.74 0 .934 0 .195.04.117 6.778-1.09 6.7-1.206 20.101-3.464 26.801-4.671 6.701-1.207 6.701-1.323 6.701-1.44 0-.117 0-.234-.117-11.756l-.468-45.855-.117-11.444-6.739.7-26.918 2.803-6.739.701.078 4.476c.078 4.477.273 13.43.39 19.892.117 6.461.194 10.432.233 17.75z" fill="#DBB158"/><path fill-rule="evenodd" clip-rule="evenodd" d="M60.302 118.686c-4.012-1.012-7.518-1.868-9.232-2.297l-1.753-.428 6.661-.428 26.645-1.713c6.662-.428 6.662-.428 6.817-.389.156.039.507.078 4.597.817 4.09.74 11.959 2.141 15.855 2.842l3.934.701-2.026.194c-2.025.195-6.115.623-12.855 1.324-6.739.701-16.127 1.674-20.801 2.18l-4.675.506-2.26-.584c-2.337-.584-6.895-1.713-10.907-2.725z" fill="#F7CE66"/><path fill-rule="evenodd" clip-rule="evenodd" d="M62.951 97.277l34.086.194.233 20.748-34.163 1.207-.156-22.15z" fill="#DBB158"/><path fill-rule="evenodd" clip-rule="evenodd" d="M59.64 98.172l3.311-.895.156 22.149-3.35-1.752-.117-19.502z" fill="#F7CE66"/><path fill-rule="evenodd" clip-rule="evenodd" d="M81.844 97.355h-5.726l-.039 16.037 5.649-.039.116-15.998zm13.946 22.304l-6.077.623.818 59.791 5.96-.935-.701-59.479zm-12.427-.934l7.246-.273 5.18 1.207-6.076.623-6.35-1.557zm-20.763.545l-4.362-1.129 3.35-.467 1.324 1.557-.311.039z" fill="#FBFBFC"/><path d="M93.258 100.858h-8.336v5.372h8.336v-5.372z" fill="#FBFBFC"/><path fill-rule="evenodd" clip-rule="evenodd" d="M99.88 123.902l9.817-1.207-.117 6.462-9.816 1.207.117-6.462z" fill="#FBFBFC"/><path fill-rule="evenodd" clip-rule="evenodd" d="M168.246 190.855c-1.519-.039-3.622-.156-5.181-.233-1.597-.078-2.649-.156-3.583-.273-.974-.117-1.831-.234-2.377-.311-.545-.117-.701-.156-.857-.234-.117-.078-.195-.117-.233-.156-.039-.039-.039-.039-.039.312v1.712l.779.156c.779.156 2.376.506 5.414.857 3.039.35 7.519.739 12.076.856 4.558.117 9.155-.156 12.388-.428 3.272-.273 5.181-.623 6.233-.857 1.013-.233 1.13-.389 1.207-.428.078-.078.078-.078.078-.428v-1.401c0-.351 0-.351-.039-.312a1.18 1.18 0 01-.35.195c-.195.078-.507.156-.974.233-.468.078-1.052.156-1.987.273-.935.078-2.22.195-3.428.272-1.246.078-2.454.156-3.817.195-1.364.039-2.883.078-4.441.117-1.558.039-3.156.039-4.402.039h-3.117c-.895-.078-1.83-.117-3.35-.156z" fill="#141515"/><path fill-rule="evenodd" clip-rule="evenodd" d="M175.103 190.972c10.517 0 19.087-.623 19.087-1.363 0-.739-8.57-1.362-19.087-1.362-10.518 0-19.088.623-19.088 1.362 0 .74 8.57 1.363 19.088 1.363z" fill="#080902"/><path fill-rule="evenodd" clip-rule="evenodd" d="M158.975 63.177c-.467.234-.467.234-1.169 3.581-.701 3.348-2.064 10.043-2.765 13.469-.663 3.425-.663 3.542-.663 3.581 0 .078 0 .078.195.156.195.117.585.311 1.597.584 1.013.272 2.649.661 6.701.895 4.051.234 10.556.272 15.932.156 5.376-.156 9.7-.468 12.193-.779 2.532-.311 3.272-.584 3.662-.7l.389-.156-.428-3.504c-.429-3.503-1.247-10.549-1.675-14.052-.429-3.503-.429-3.503-.701-3.62-.273-.117-.819-.311-2.182-.545-1.363-.234-3.545-.467-6.739-.623-3.194-.156-7.479-.272-11.336-.156-3.857.117-7.285.429-9.505.779-2.065.311-2.999.74-3.506.934z" fill="#FDE742"/><path fill-rule="evenodd" clip-rule="evenodd" d="M166.766 82.913c-1.87.078-4.051.194-5.921.311-1.87.117-3.467.234-4.324.35-.857.078-1.013.156-.662.312.35.156 1.168.428 2.415.623 1.247.194 2.883.35 4.752.467 1.87.117 3.935.156 6.116.195 2.182.038 4.441.077 7.246.038 2.805-.038 6.116-.194 8.921-.35a158.29 158.29 0 006.505-.584c1.441-.156 1.987-.272 2.221-.39.233-.116.155-.233-.195-.35-.351-.116-.974-.233-2.883-.35a233.025 233.025 0 00-8.492-.35c-3.428-.078-7.051-.078-9.661-.078-2.532 0-4.129.039-6.038.156z" fill="#080902"/><path fill-rule="evenodd" clip-rule="evenodd" d="M175.726 131.026V84.937s.039 0 .233-.156c.195-.117.585-.389.857-.778.273-.35.468-.857.546-1.09l.078-.234h-5.026c-.155 0-.155 0-.116.156.038.156.116.467.35.778.234.312.584.623.818.818.234.195.39.272.468.311l.078.04v47.372c0 17.439 0 37.408-.039 47.374v9.965h.272c.273 0 .857 0 1.13.039h.273v-10.277c.078-10.199.078-30.791.078-48.229z" fill="#141515"/><path fill-rule="evenodd" clip-rule="evenodd" d="M117.41 143.17c-.934-3.62-2.376-10.12-3.077-14.441-.74-4.282-.74-6.345-.039-7.863.701-1.518 2.065-2.492 4.558-3.192 2.493-.74 6.038-1.207 12.972-1.324 6.895-.155 17.14.078 23.451.351 6.31.272 8.648.622 10.401 1.44 1.791.817 3.038 2.141 3.389 4.204.35 2.063-.195 4.866-1.013 9.07-.818 4.204-1.909 9.77-2.493 12.534-.546 2.803-.546 2.803-1.286 3.581-.74.779-2.181 2.336-3.467 4.282-1.324 1.907-2.532 4.204-3.428 5.138-.896.935-1.48.545-1.792.312-.311-.195-.311-.195-4.051-.039-3.779.155-11.297.467-16.049.35-4.753-.117-6.701-.623-7.675-.856-.973-.273-.973-.273-1.246-.039-.273.233-.779.7-1.48-.312-.702-1.012-1.637-3.503-2.649-5.138-1.013-1.596-2.143-2.297-2.883-2.997-.779-.779-1.208-1.479-2.143-5.061z" fill="#FDE742"/><path fill-rule="evenodd" clip-rule="evenodd" d="M126.643 156.016c.117.234.117.234-.818 1.168-.935.895-2.766 2.725-3.701 3.659-.935.934-.974 1.012-1.013 1.051-.039.039-.078.039-.311-1.129-.273-1.168-.741-3.542-1.286-5.372-.584-1.829-1.246-3.114-1.948-4.048-.701-.934-1.48-1.518-2.454-1.985a19.716 19.716 0 00-2.96-1.051c-.741-.195-.974-.195-1.013-.195h.078s-.156-.039-.039-.078c.117-.039.467-.155 1.714-.389 1.285-.234 3.467-.623 4.596-.779 1.13-.155 1.13-.077 1.247.039.078.156.234.351.429.545.194.195.389.351.818.584.428.234 1.051.545 1.597.857.545.311.935.583 1.363.934.39.35.779.739 1.169 1.284.389.506.779 1.168 1.129 1.791.351.623.663 1.246.935 1.791.156.583.39 1.09.468 1.323zm31.008-3.348c-.351.584-.818 1.402-1.247 2.141-.389.74-.74 1.363-.896 1.674-.155.311-.155.311.779 1.129.935.817 2.844 2.413 3.818 3.27.974.856 1.013.895 1.013.934l.389-.856a29.814 29.814 0 012.338-4.516c1.246-1.985 3.038-4.321 3.973-5.839.974-1.518 1.091-2.296 1.441-2.647.312-.35.857-.272 1.052-.233.234.039.156.039-.584-.078a93.114 93.114 0 01-3.116-.545c-.935-.156-1.442-.273-1.676-.312-.233-.038-.233-.038-.35.039-.117.078-.351.234-.896.545-.506.312-1.286.74-2.026 1.207a17.63 17.63 0 00-1.986 1.557c-.546.506-.935.973-1.247 1.324-.195.35-.428.622-.779 1.206z" fill="#C6B532"/><path fill-rule="evenodd" clip-rule="evenodd" d="M122.474 160.337c-1.012.856-2.259 1.713-2.532 1.985-.272.273.429-.078 7.635-.078 7.207-.039 20.88.273 27.581.234 6.661-.039 6.31-.351 6.115-.506-.194-.156-.194-.156-.662-.584a84.705 84.705 0 00-2.415-2.102 85.043 85.043 0 01-2.376-2.063c-.468-.389-.468-.389-.623-.389-.156.038-.468.077-1.753.077-1.325 0-3.623-.039-7.908-.116-4.324-.078-10.635-.234-14.102-.312-3.467-.078-4.051-.155-4.363-.155-.312-.039-.312-.039-.545.233-.273.273-.779.779-1.481 1.44-.701.662-1.519 1.48-2.571 2.336z" fill="#E8D43F"/><path fill-rule="evenodd" clip-rule="evenodd" d="M119.747 163.451c0 1.09.039 3.036.039 4.048v1.051c0 .039.039.078 2.377.117 2.376.039 7.051.117 14.335.156 7.285.039 17.179.116 22.165.155 4.948.039 4.987.039 5.065-.077.038-.117.116-.312.116-1.441s-.039-3.231-.078-4.321c-.077-1.089-.155-1.206-.584-1.284-.428-.078-1.246-.078-4.558-.039-3.311 0-9.193.039-15.932 0-6.739-.039-14.374-.117-18.309-.117-3.934-.039-4.168 0-4.324 0-.156 0-.273 0-.312.078-.038.039-.077.156-.038.311 0 .117 0 .312.038 1.363z" fill="#F1DB41"/><path fill-rule="evenodd" clip-rule="evenodd" d="M162.949 162.828c.039.856.039 2.491 0 3.542-.039 1.051-.078 1.518-.117 1.713-.039.234-.039.234-.117.234-.078 0-.273.039-.429.039h-2.337c-2.065 0-6.116 0-9.7-.039-3.584 0-6.739-.039-11.063-.039-4.324-.039-9.778-.078-13.128-.117-3.311-.039-4.518-.078-5.103-.117-.584-.039-.584-.039-.584-.117v-.622c0-.351 0-.935.039-1.635 0-.701.039-1.557.039-2.18v-1.324c0-.272.039-.35.078-.428.039-.078.078-.078.117-.078h.428l-.039-.467c-.039-.467-.078-1.362-.195-2.569-.116-1.207-.272-2.725-.428-3.776-.156-1.051-.273-1.635-.507-2.219a7.002 7.002 0 00-.857-1.712 5.528 5.528 0 00-1.285-1.402c-.506-.428-1.091-.778-1.792-1.09-.701-.272-1.441-.506-2.026-.622a5.768 5.768 0 00-1.324-.156c-.429 0-.896.078-1.441.311a3.573 3.573 0 00-1.598 1.129 3.916 3.916 0 00-.857 2.297c-.039.934.195 2.063.663 3.114.467 1.051 1.168 2.102 1.792 3.698.623 1.596 1.207 3.815 1.908 5.878.702 2.063 1.481 3.931 2.338 5.449.857 1.518 1.792 2.686 2.688 3.426.896.739 1.791 1.051 2.532 1.245.74.195 1.285.273 8.141.273s20.023-.078 26.84-.117c6.817-.039 7.324-.078 7.869-.272.545-.156 1.169-.467 2.026-1.674.857-1.207 1.908-3.309 2.61-5.372.701-2.063 1.012-4.087 1.48-5.527.506-1.441 1.168-2.297 1.753-3.426.584-1.129 1.052-2.53 1.363-4.048.273-1.518.39-3.114.078-4.165-.273-1.051-.974-1.557-1.441-1.869-.468-.272-.779-.311-1.013-.35-.234-.039-.429-.078-.857-.039-.429.039-1.091.117-1.636.272-.584.156-1.052.312-1.558.584-.468.273-.974.584-1.442 1.09a10.509 10.509 0 00-1.441 1.947c-.467.778-.896 1.751-1.208 2.569a13.886 13.886 0 00-.662 2.491 20.782 20.782 0 00-.311 2.725 27.662 27.662 0 00-.117 2.102v.389h.272c.273 0 .818 0 1.13.039.351.078.39.156.429 1.012z" fill="#FDE742"/><path fill-rule="evenodd" clip-rule="evenodd" d="M123.137 174.467c-.468 0-.779-.039-.935-.039-.156 0-.156 0-1.402 3.581a1559.341 1559.341 0 00-4.909 14.403c-1.207 3.659-1.168 3.737-1.052 3.815.117.078.312.155.858.155.506 0 1.324-.116 1.791-.272.468-.156.585-.312 1.675-2.725 1.13-2.413 3.234-7.085 4.87-10.627 1.636-3.542 2.766-5.917 3.272-7.084.506-1.207.429-1.207-.117-1.207h-4.051zm10.206.039h-1.753l-.974 2.647c-.974 2.647-2.922 7.98-3.896 10.744-1.012 2.763-1.051 2.958-.973 3.075.078.117.272.155.662.194.428 0 1.091-.039 1.402-.039.312 0 .312 0 1.597-2.802 1.247-2.764 3.779-8.33 5.026-11.094 1.246-2.764 1.246-2.764 1.051-2.764h-1.013c-.389.039-.662.039-1.129.039zm26.957-.039c.467 0 .779-.039.934-.039.156 0 .156 0 1.403 3.581a1559.323 1559.323 0 014.908 14.403c1.208 3.659 1.169 3.737 1.052 3.815-.117.078-.312.155-.857.155-.506 0-1.325-.116-1.792-.272-.467-.156-.584-.312-1.675-2.725-1.13-2.413-3.233-7.085-4.869-10.627-1.637-3.542-2.766-5.917-3.273-7.084-.506-1.207-.428-1.207.117-1.207h4.052zm-10.206.039h1.753l.974 2.647c.973 2.647 2.921 7.98 3.895 10.744 1.013 2.763 1.052 2.958.974 3.075-.078.117-.273.155-.662.194-.429 0-1.091-.039-1.403-.039-.311 0-.311 0-1.597-2.802-1.246-2.764-3.778-8.33-5.025-11.094-1.247-2.764-1.247-2.764-1.052-2.764h1.013c.39.039.662.039 1.13.039z" fill="#141515"/><path fill-rule="evenodd" clip-rule="evenodd" d="M180.166 170.925c-1.09 0-1.09 0-1.09.078s0 .272.389 4.476c.39 4.204 1.13 12.418 1.481 16.544.389 4.126.389 4.165.428 4.243.078.078.195.195.857.311.701.117 1.987.234 4.09.312 2.104.078 5.103.117 6.934.078 1.87 0 2.61-.078 3-.117.389-.039.428-.078.428-.078l.546-4.243c.545-4.243 1.597-12.729 2.142-17.05.546-4.359.546-4.554.546-4.632 0-.078 0-.078-2.377 0-2.376.039-7.167.117-10.634.117-3.506-.039-5.688-.039-6.74-.039z" fill="#F9F9F9"/><path fill-rule="evenodd" clip-rule="evenodd" d="M178.258 142.003c-1.831-1.596-4.987-4.554-6.778-8.564-1.792-4.009-2.299-9.031-2.026-12.768.273-3.698 1.285-6.072 1.948-7.59.701-1.518 1.051-2.18 1.558-2.141.506.039 1.168.739 2.142 2.024.974 1.285 2.299 3.114 3.428 5.605 1.13 2.492 2.065 5.645 2.688 8.876.585 3.23.818 6.539.857 9.42.039 2.88-.156 5.294-.311 6.422-.195 1.129-.351.935-.702.74-.428-.156-.973-.389-2.804-2.024zm9.66-21.137c-.974.078-1.986 1.323-2.804 3.153-.819 1.79-1.481 4.165-1.909 7.007-.429 2.802-.585 6.072-.468 9.42.117 3.347.546 6.773.974 8.914.429 2.102.935 2.88 1.247 3.27.311.389.506.389.935-.039.428-.429 1.051-1.246 1.792-2.842.74-1.596 1.558-3.97 2.181-6.968.623-2.997 1.052-6.617 1.169-10.043.117-3.425-.078-6.617-.624-8.758-.584-2.141-1.519-3.192-2.493-3.114z" fill="#4AAB3C"/><path fill-rule="evenodd" clip-rule="evenodd" d="M192.398 100.819c-.545.856-1.441 1.868-2.259 3.542-.818 1.674-1.52 4.049-1.87 6.929a36.577 36.577 0 00.156 9.848c.506 3.659 1.558 7.591 2.337 10.121.779 2.491 1.285 3.581 1.636 4.049.351.467.506.35 1.363-.662.818-1.012 2.299-2.92 3.428-5.333 1.13-2.414 1.909-5.411 2.299-8.836.428-3.426.467-7.357-.468-11.172-.935-3.815-2.921-7.552-4.012-9.343-1.091-1.79-1.324-1.595-1.558-1.167-.234.467-.468 1.168-1.052 2.024zm2.026 37.797c-.935 1.674-1.597 3.542-1.987 5.255-.389 1.713-.545 3.231-.389 4.749.155 1.479.662 2.92 1.246 4.126.545 1.207 1.208 2.141 1.636 2.531.429.389.662.155 1.325-.974a23.566 23.566 0 002.376-5.994c.662-2.725.896-6.112.701-8.642-.195-2.491-.818-4.126-1.753-4.204-.974-.039-2.22 1.479-3.155 3.153zm16.049-3.737c-1.402.74-3.895 2.064-5.843 4.438-1.948 2.375-3.389 5.8-4.324 8.836-.935 3.036-1.363 5.722-1.519 7.708-.117 1.985.039 3.308.156 3.931.117.662.195.662 1.402.156 1.208-.506 3.584-1.518 5.532-3.114 1.948-1.596 3.428-3.815 4.48-6.228 1.051-2.414 1.675-5.061 2.025-7.863.351-2.803.429-5.762.429-7.28 0-1.479-.117-1.518-.351-1.479-.234.039-.584.156-1.987.895z" fill="#5DC94C"/><path fill-rule="evenodd" clip-rule="evenodd" d="M173.077 116.273c-.039-.117 0-.234.116-.273.117-.039.234 0 .273.117v.039c1.792 4.905 3.545 9.848 4.831 14.48.662 2.336 1.168 4.594 1.636 7.007.467 2.414.857 4.983 1.246 7.941.351 2.53.662 5.372.974 8.097.39 3.62.74 7.162.974 9.692.428 4.477.506 5.995.584 7.513 0 .117-.078.195-.194.234-.117 0-.195-.078-.234-.195-.078-1.518-.156-3.036-.585-7.474-.233-2.53-.584-6.033-.973-9.692-.312-2.764-.624-5.567-.974-8.097-.39-2.958-.779-5.528-1.247-7.902a100.671 100.671 0 00-1.597-6.968c-1.247-4.671-3.038-9.576-4.83-14.519zm14.257 11.483c0-.117.117-.195.234-.156.117 0 .194.117.155.234-.311 1.985-.584 4.009-.857 5.994a99.875 99.875 0 00-.662 6.151 112.119 112.119 0 00-.389 6.5 211.08 211.08 0 00-.117 7.28c-.039 5.216.039 11.21.078 17.205 0 .117-.078.195-.195.195s-.195-.078-.195-.195c-.078-5.995-.117-11.989-.078-17.205 0-2.608.039-5.022.117-7.28.078-2.296.195-4.437.39-6.539.194-2.102.428-4.126.701-6.151.234-2.102.506-4.087.818-6.033zm9.622 10.704c0-.116.078-.194.195-.194s.195.078.195.194v.039c-.195 3.27-.351 6.501-.741 9.343-.311 2.413-.779 4.515-1.285 6.773l-.234 1.09c-.312 1.401-.623 2.919-.935 4.398-.272 1.324-.506 2.608-.74 3.815-.467 2.608-.74 4.788-1.013 6.968 0 .117-.117.195-.234.156-.116 0-.194-.117-.155-.234a157.15 157.15 0 011.013-6.968c.194-1.206.467-2.53.74-3.853.311-1.48.623-2.998.935-4.399l.233-1.09c.507-2.219.974-4.321 1.286-6.734.35-2.803.545-6.073.74-9.304zm12.465.078c.039-.117.195-.155.273-.078.117.039.156.195.078.273-.896 1.752-1.831 3.464-2.727 5.255-.896 1.791-1.792 3.542-2.61 5.333-.779 1.713-1.558 3.425-2.259 5.099-.779 1.83-1.48 3.62-2.065 5.216a135.195 135.195 0 00-1.402 3.971c-.39 1.168-.662 2.18-.896 3.036-.234.856-.39 1.596-.506 2.297-.117.661-.195 1.284-.312 1.907 0 .117-.117.195-.234.156-.117 0-.195-.117-.156-.234.078-.623.195-1.207.312-1.907a23.01 23.01 0 01.506-2.297c.234-.895.507-1.907.896-3.075.39-1.168.857-2.491 1.403-4.009a104.818 104.818 0 012.103-5.217c.701-1.673 1.481-3.386 2.26-5.099a170.612 170.612 0 012.61-5.333 230.94 230.94 0 012.726-5.294zm-15.854-33.359c0-.117.078-.195.195-.195.116 0 .194.078.194.195.195 4.982.351 9.965.117 14.986a119.828 119.828 0 01-.623 7.863 664.337 664.337 0 01-1.169 9.615l-.389 3.036c-.896 6.813-1.909 14.715-2.493 19.892-.663 5.917-.702 8.135-.779 10.315 0 .117-.117.195-.195.195-.117 0-.195-.117-.195-.195.078-2.219.117-4.437.779-10.354.584-5.1 1.597-13.079 2.493-19.891l.39-3.037c.467-3.659.857-6.773 1.168-9.576.312-2.802.507-5.332.624-7.824.233-5.06.039-10.043-.117-15.025z" fill="#509663"/><path fill-rule="evenodd" clip-rule="evenodd" d="M152.041 73.493c.624.428 1.325.856 1.831 1.09.507.233.896.272 1.208.116.311-.117.623-.428.974-.584.35-.155.779-.194 1.129-.078.351.117.663.39 1.091.662.429.273 1.013.584 1.558.506.546-.078 1.013-.506 1.247-.74.234-.233.234-.233.662-.272.429-.039 1.286-.117 1.948.117.623.233 1.052.778 1.753 1.129.701.35 1.714.506 2.571.506.896-.04 1.636-.234 2.22-.662.546-.428.896-1.09 1.597-1.05.702 0 1.753.7 2.493 1.128.741.428 1.208.623 1.637.584.428-.04.779-.35 1.129-.623.39-.273.779-.506 1.091-.584.312-.117.545-.078.74-.195.195-.116.312-.428.273-.817-.039-.39-.234-.895-.429-1.401-.194-.506-.35-1.09-.311-1.635.039-.545.272-1.051.506-1.596.234-.506.468-1.051.429-1.596-.039-.545-.312-1.129-.702-1.713-.389-.584-.818-1.129-1.012-1.713-.195-.584-.117-1.206 0-1.751.116-.545.311-1.051.428-1.557a3.924 3.924 0 00-.117-1.635c-.195-.584-.506-1.168-.779-1.635-.273-.467-.467-.818-.545-1.09-.117-.273-.117-.428-.195-.934-.117-.506-.312-1.363-.779-2.063-.429-.701-1.13-1.207-1.753-1.518-.623-.312-1.169-.39-1.558-.584-.429-.195-.74-.545-1.286-1.013-.584-.467-1.402-1.128-2.22-1.206-.818-.117-1.675.311-2.221.545-.506.194-.74.194-1.285 0-.546-.195-1.48-.623-2.493-.662-1.013 0-2.143.39-2.922.895-.779.545-1.246 1.207-1.636 1.557-.39.39-.701.468-1.052.506-.35.04-.74 0-1.48.35-.74.351-1.87 1.052-2.649 2.18-.818 1.09-1.324 2.609-1.441 4.166-.117 1.596.155 3.23.194 4.904.039 1.635-.155 3.27-.311 4.399-.195 1.129-.351 1.752-.507 2.18-.155.428-.311.662-.428.973-.117.312-.195.7.078 1.129.156.39.701.817 1.324 1.285z" fill="#403E32"/><path fill-rule="evenodd" clip-rule="evenodd" d="M162.248 74.35c-.039.466.116 1.44.077 2.568 0 1.13-.194 2.375-.311 3.075-.117.74-.156.974-.117 1.246.039.272.117.545.312.856.194.273.467.584.857 1.013.389.428.896 1.05 1.402 1.44.467.389.935.584 1.324.662.39.038.741-.04 1.013-.156.273-.156.507-.35.701-.7a6.2 6.2 0 00.546-1.402c.156-.545.234-1.168.272-1.557.039-.39 0-.623-.039-.974-.038-.35-.116-.856-.116-1.673 0-.857.039-2.024.039-2.686 0-.623 0-.74-.078-.74h-.779c-.546-.039-1.442-.117-2.065-.233-.623-.117-1.013-.312-1.402-.506-.39-.195-.741-.39-1.052-.506-.312-.156-.546-.195-.584.272z" fill="#FFAF69"/><path fill-rule="evenodd" clip-rule="evenodd" d="M162.287 75.556c0 .311.038.584.038.7 0 .117 0 .117.156.312.156.156.468.506.974.817a7.027 7.027 0 001.831.779c.623.156 1.169.233 1.636.194.468 0 .896-.077 1.091-.116.195-.04.195-.04.195-.234v-2.18c0-.272-.039-.428-.117-.467-.078-.078-.195-.078-.818-.156-.585-.078-1.636-.233-2.454-.35-.78-.117-1.325-.234-1.714-.311-.39-.078-.624-.156-.741-.156-.116 0-.116.078-.116.272 0 .234 0 .623.039.896z" fill="#FF9E69"/><path fill-rule="evenodd" clip-rule="evenodd" d="M172.999 52.706c-1.013-.934-2.221-1.557-4.052-1.907-1.831-.35-4.363-.467-6.427.078-2.065.544-3.74 1.79-4.831 2.958-1.09 1.168-1.597 2.335-1.908 3.815-.273 1.479-.351 3.27-.351 4.204-.039.934-.039 1.012-.195 1.168-.195.155-.545.428-.818.856-.273.428-.467 1.05-.467 1.79s.156 1.635.545 2.297c.39.7 1.013 1.168 1.558 1.44.546.273 1.052.35 1.325.429.272.077.272.116.467.428.156.311.468.817.701 1.362.234.545.39 1.051.779 1.635.39.545 1.013 1.129 2.065 1.713 1.052.584 2.493 1.129 3.74 1.557 1.246.39 2.337.623 3.194.584.857-.04 1.48-.273 2.22-.857.741-.545 1.559-1.4 2.143-2.102.584-.7.896-1.206 1.091-1.635.195-.428.272-.74.311-1.4a45.69 45.69 0 01.273-2.803c.156-1.246.429-2.764.662-4.866.234-2.102.468-4.75.156-6.657-.35-1.907-1.169-3.153-2.181-4.087z" fill="#FFAF69"/><path fill-rule="evenodd" clip-rule="evenodd" d="M167.506 69.872c-.039 0-.117-.038-.117-.078 0-.038.039-.116.078-.116.39-.078.779-.156 1.013-.312a.699.699 0 00.273-.194 1.21 1.21 0 00.194-.273c.039-.039.039-.078.039-.117 0-.038-.039-.077-.078-.116-.039-.04-.078-.117-.155-.156a5.685 5.685 0 01-.429-.467c-.117-.156-.195-.312-.312-.467-.116-.195-.194-.35-.233-.545-.078-.156-.117-.312-.156-.428-.039-.156-.078-.312-.078-.468-.039-.35-.117-.817-.156-1.284 0-.039.039-.117.078-.117s.117.04.117.078c.039.467.117.934.156 1.285.039.155.039.311.078.467.039.116.078.272.117.428.077.156.155.35.233.506.078.156.195.311.273.467.156.195.273.35.389.467l.156.156c.078.078.117.156.117.233 0 .078 0 .156-.039.234a1.274 1.274 0 01-.234.311 2.089 2.089 0 01-.311.234c-.234.117-.623.195-1.013.272z" fill="#F46F2D"/><path fill-rule="evenodd" clip-rule="evenodd" d="M171.012 61.931c.312-.038.74-.116 1.208-.077.467.039.935.116 1.324.272.39.156.662.35.857.545.195.195.273.39.351.506.078.156.117.234.078.273-.039.038-.195.038-.351-.078-.156-.078-.35-.273-.623-.428-.273-.156-.662-.35-1.091-.429a4.267 4.267 0 00-1.207-.039 6.45 6.45 0 00-.702.117c-.155.04-.272 0-.35-.078-.078-.078-.117-.233-.039-.35.117-.117.272-.195.545-.233zm-5.259.389a2.064 2.064 0 00-.973-.427c-.507-.078-1.169-.078-1.714.078-.546.155-1.013.506-1.286.778-.273.273-.351.467-.429.584-.038.156-.038.233 0 .272.039.04.078.04.234-.077.156-.117.39-.35.701-.506a3.37 3.37 0 011.091-.429 2.38 2.38 0 011.169-.078c.389.078.818.234 1.091.312.272.078.311.078.35-.039.039-.117-.039-.311-.234-.467z" fill="#3F3D2E"/><path fill-rule="evenodd" clip-rule="evenodd" d="M163.455 67.264c.662 0 1.208-.622 1.208-1.362 0-.74-.546-1.362-1.208-1.362-.662 0-1.207.622-1.207 1.362 0 .74.545 1.362 1.207 1.362zm8.453 0c.663 0 1.208-.622 1.208-1.362 0-.74-.545-1.362-1.208-1.362-.662 0-1.207.622-1.207 1.362 0 .74.545 1.362 1.207 1.362z" fill="#36342B"/><path fill-rule="evenodd" clip-rule="evenodd" d="M164.117 71.74c.117.312.351.857.662 1.247.312.428.74.7 1.169.895.428.194.857.311 1.246.311.39 0 .741-.078 1.091-.272.312-.156.623-.428.857-.623.234-.195.351-.39.546-.7.155-.312.35-.74.428-.974.078-.194.039-.194-.389-.155-.429.038-1.208.077-2.065.077s-1.792-.039-2.415-.117c-.624-.038-.935-.116-1.091-.116-.156.078-.156.117-.039.428z" fill="#101E25"/><path fill-rule="evenodd" clip-rule="evenodd" d="M166.104 71.546c-.156 0-.39-.039-.624-.039-.272-.038-.545-.038-.74-.077-.155 0-.233-.04-.272-.04h-.039v.429c0 .078 0 .117.156.194.116.117.389.273.662.429.272.155.545.233 1.052.311.506.078 1.207.078 1.714.039.506-.039.74-.156.973-.273.195-.116.351-.233.468-.31.117-.079.156-.118.156-.157.039-.039.039-.078.039-.155v-.428h-.195c-.195 0-.545.038-.818.038h-2.182c-.155.04-.194.04-.35.04zm2.142 2.414a1.934 1.934 0 01-.272.117l-.351.116c-.117.04-.234.04-.351.04-.116 0-.272 0-.389-.04-.117 0-.273-.039-.39-.078-.117-.038-.272-.077-.389-.116a3.078 3.078 0 01-.351-.156.416.416 0 01-.195-.117c-.039-.039-.039-.039.195-.039s.662-.039 1.169 0c.545 0 1.168 0 1.519.04h.312l-.039.038c-.039.039-.156.078-.195.156-.117-.04-.195 0-.273.039z" fill="#fff"/><path fill-rule="evenodd" clip-rule="evenodd" d="M165.637 71.507a4.79 4.79 0 01-.741-.077c-.233-.04-.467-.04-.584-.078h-.156s.039 0 .234-.04c.195-.038.584-.077.896-.155.273-.078.467-.117.623-.194.156-.04.273-.078.351-.078.117 0 .195.039.311.078.117.038.234.077.351.077.117.04.195.04.312.04.117 0 .233 0 .35-.04.117-.039.273-.078.351-.116.117-.04.195-.078.312-.078.077 0 .155.039.272.078.117.038.234.116.39.194s.35.117.545.156c.195.039.351.078.429.117.078.039.078.039-.039.039-.117 0-.39.038-.663.038-.272 0-.584.04-.857.04h-2.687zm3.934 1.207a7.797 7.797 0 01-.273.39c-.117.116-.233.272-.389.389a1.735 1.735 0 01-.429.311c-.156.117-.35.195-.506.273a1.203 1.203 0 01-.507.116.794.794 0 01-.428 0c-.156 0-.312-.039-.429-.078a2.15 2.15 0 01-.467-.155c-.156-.078-.351-.156-.506-.273-.156-.117-.351-.233-.468-.35-.156-.117-.273-.273-.389-.39-.117-.116-.195-.272-.273-.389a2.591 2.591 0 01-.234-.467 11.107 11.107 0 01-.195-.506l.039.117c.078.234.234.7.39 1.09.195.39.428.662.623.856.195.195.351.312.545.429.195.116.468.233.78.311.311.078.662.117.973.078.312-.04.624-.117.857-.234.273-.117.468-.311.702-.506.194-.194.389-.428.545-.7.156-.234.312-.507.39-.779.077-.272.116-.545.155-.662v-.078c-.039.04-.078.156-.116.312-.039.117-.117.233-.156.39a2.08 2.08 0 01-.234.505z" fill="#F46F2D"/><path fill-rule="evenodd" clip-rule="evenodd" d="M146.47 193.697c-.272.739-.662 2.024-.973 3.036-.312 1.051-.507 1.868-.585 2.686a10.48 10.48 0 00-.078 2.141c0 .506.039.739.117.856.078.117.273.195 1.013.234.779.039 2.104.077 3 .039.857 0 1.207-.078 1.48-.195.234-.117.389-.273.428-.506.078-.234.078-.584.039-1.479a84.348 84.348 0 00-.233-3.737c-.117-1.285-.273-2.375-.429-2.998-.117-.622-.195-.739-.351-.817-.155-.078-.35-.078-.74-.117-.35-.039-.896-.117-1.207-.156-.312-.038-.429-.116-.546-.116-.117-.039-.233-.039-.35.078-.156.116-.312.311-.585 1.051zm22.828 2.141c-.234.661-.74 1.79-1.013 2.685-.273.857-.273 1.441-.156 2.025.117.584.351 1.206.702 1.596.35.35.896.467 2.337.545a80.3 80.3 0 005.298.077c1.48 0 2.064-.077 2.493-.272.389-.195.623-.545.662-.779.078-.233 0-.389-.234-.583-.233-.195-.584-.429-1.324-.857-.74-.428-1.87-1.129-2.844-1.907-.974-.779-1.792-1.635-2.376-2.258-.584-.623-.896-1.051-1.091-1.246-.195-.194-.273-.194-.506-.116-.234.077-.585.233-.896.194-.312-.039-.546-.272-.701-.311-.156-.039-.156.078-.156.233 0 .117.039.312-.195.974z" fill="#FFAF69"/><path fill-rule="evenodd" clip-rule="evenodd" d="M168.597 200.042c.312.311.818.817 1.208 1.128.389.312.584.429.818.506.195.078.389.117 1.48.156 1.091.039 3.039.078 4.051.117 1.013.039 1.091.039 1.169.039.078 0 .117-.039.117-.195 0-.155 0-.428.039-.817.039-.389.156-.895.273-1.129.116-.234.194-.156.467-.039.273.117.74.273 1.324.506.624.195 1.364.467 1.948.662.585.194.974.389 1.208.584.234.194.35.428.389.623a.966.966 0 01-.117.661.937.937 0 01-.35.428c-.156.117-.351.195-1.052.234-.701.039-1.87.078-3.155.117-1.286 0-2.688 0-3.623-.039s-1.402-.117-1.87-.156a16.647 16.647 0 00-1.052-.078c-.194 0-.233 0-.233.039s0 .117-.156.156c-.156.039-.429.039-.896.039-.468 0-1.091-.039-1.597-.039-.468 0-.818-.039-.974-.039-.195 0-.195 0-.234-.623a51.501 51.501 0 01-.078-2.491c0-.662.039-.779.117-.818.078-.038.156-.077.234 0 .117.039.233.156.545.468zm-23.529-1.168c0 .272 0 .739.039 1.051.039.311.078.467.156.545.039.078.078.039.273-.117s.506-.428.896-.623c.389-.195.779-.35 1.207-.389.429-.039.818-.039 1.208.078.389.116.779.311 1.052.506.272.194.389.35.506.428.117.078.156.117.234.039.078-.078.117-.195.156-.389v-.506c0-.156.039-.234.078-.234s.077.039.155.428.234 1.051.312 1.674c.078.623.078 1.207.039 1.596 0 .35-.039.506-.078.623-.039.117-.156.194-.662.272-.507.078-1.48.156-2.454.234-.974.039-1.987.039-2.61 0-.624-.039-.896-.117-1.052-.234-.156-.117-.195-.272-.195-.895s0-1.713.117-2.608c.156-.856.428-1.518.584-1.791.156-.272.117-.233.117-.116-.078.038-.078.155-.078.428zm19.594-86.65c-1.947.078-3.077.078-3.661.078-.585 0-.585 0-1.13.934-.545.934-1.636 2.842-2.571 4.632-.935 1.752-1.714 3.387-2.532 6.19-.818 2.802-1.675 6.773-1.987 11.483-.312 4.71-.078 10.199 0 13.663.078 3.464 0 4.944 0 5.683-.039.74-.039.74-.506 1.363-.468.622-1.442 1.907-2.377 4.865-.973 2.959-1.947 7.63-2.61 13.586-.662 5.955-.973 13.235-1.129 16.855l-.156 3.62h.74c.74 0 2.259.039 3 .078h.74l.389-1.752c.39-1.752 1.13-5.294 2.377-10.277 1.207-4.943 2.882-11.327 4.362-16.193 1.442-4.866 2.688-8.135 4.247-12.768 1.519-4.632 3.311-10.549 4.363-13.896 1.051-3.348 1.285-4.126 1.48-4.555.195-.428.272-.506.35-.311.078.195.156.623.195 3.348.039 2.724.039 7.785.195 11.21.156 3.426.428 5.255.584 6.19.156.934.156.934-.156 1.557-.311.622-.934 1.907-1.363 4.165-.428 2.257-.701 5.488-.701 9.186 0 3.698.311 7.824.584 10.822.273 2.997.546 4.905.779 7.24.234 2.336.468 5.138.585 6.501l.116 1.401.819-.039c.818-.039 2.493-.078 3.311-.117.818-.039.779-.077.74-.116-.039-.039-.078-.078-.039-1.441.078-1.362.234-4.048.506-7.824.273-3.776.585-8.68.935-13.04.351-4.36.662-8.214 1.208-11.561.506-3.348 1.207-6.228 2.025-9.926.818-3.698 1.753-8.175 2.338-12.379.545-4.204.74-8.135.428-11.989-.311-3.854-1.052-7.669-1.675-10.316-.623-2.647-1.168-4.126-1.558-5.099-.429-1.012-.701-1.518-.896-1.791-.195-.272-.234-.311-1.052-.194a84.21 84.21 0 01-4.402.506c-2.259.233-4.986.35-6.895.428z" fill="#101E25"/><path fill-rule="evenodd" clip-rule="evenodd" d="M180.595 92.839c.818 1.83 2.026 5.138 2.96 7.668.663 1.83 1.169 3.192 1.559 4.321.233 0 .545-.039.896-.039a86.61 86.61 0 006.388-.817c1.831-.312 7.908-1.09 9.271-1.869.507-.311 1.325-.739 1.792-1.206.468-.467.624-.896.935-1.402.312-.506.74-1.09 1.325-1.596.623-.506 1.363-.973 1.909-1.206.506-.234.779-.195.857-.117.078.078 0 .233-.078.39-.039.155-.078.272-.312.505-.273.195-.779.506-1.052.7-.311.234-.389.39-.467.507-.078.156-.078.272-.078.39.039.116.078.155.623.194.507.039 1.48.039 2.337.039.857 0 1.598.039 2.065.078.429.038.584.116.662.194.078.078.078.195-.078.35-.155.156-.428.39-.701.662-.311.273-.662.973-1.129 1.363-1.169.934-1.091 1.012-2.766 1.362-.507.117-1.208-.039-1.831.117-.623.194-1.091.428-1.558.662-.896.428-1.52.7-2.416 1.167-1.83.935-5.492 2.647-8.258 3.776-2.766 1.129-4.597 1.674-6.077 2.063-1.48.39-2.571.584-3.467.273-.857-.312-1.48-1.09-1.948-1.635a4.765 4.765 0 01-.428-.467c-.39-.273-.779-.662-1.169-1.09-1.324-1.44-2.844-3.815-3.817-5.683-1.013-1.869-1.481-3.231-1.675-4.36-.195-1.129-.039-1.947.35-2.88a9.49 9.49 0 011.831-2.648c.701-.74 1.48-1.284 1.792-1.635.312-.35.234-.544.389-.428.117.078.546.467 1.364 2.297z" fill="#FFAF69"/><path fill-rule="evenodd" clip-rule="evenodd" d="M175.804 85.093a7.176 7.176 0 011.558-.584c.351-.117.351-.117.389-.04.039.079.156.195.624.78.467.583 1.285 1.673 2.259 3.892.935 2.219 2.026 5.644 2.649 7.552.623 1.907.74 2.335.818 2.608.078.272.117.428 0 .584-.117.194-.428.428-1.091.661a17.79 17.79 0 01-2.376.623c-.662.117-.935.117-1.363-.195-.429-.311-1.052-.973-1.52-1.985-.428-1.012-.701-2.374-1.051-3.853-.351-1.44-.818-2.998-1.169-4.555-.351-1.557-.584-3.075-.545-4.01 0-.894.311-1.206.818-1.478z" fill="#CBCCCD"/><path fill-rule="evenodd" clip-rule="evenodd" d="M148.886 104.011a67.377 67.377 0 00-.351 5.216c-.078 1.713-.078 3.036.039 3.931.117.896.351 1.324 1.091 1.557.74.273 2.026.351 2.766 0 .74-.35.974-1.09 1.246-2.257.273-1.168.624-2.803.935-4.36.312-1.557.585-3.114.779-4.282.156-1.168.195-1.946.117-2.608-.078-.623-.311-1.09-.623-1.323-.351-.234-.779-.234-1.364-.273-.584-.039-1.324-.117-1.791-.117-.507-.039-.741-.039-1.013.117-.273.117-.507.389-.74.623-.195.233-.39.467-.546 1.012-.234.467-.389 1.323-.545 2.764z" fill="#FFAF69"/><path fill-rule="evenodd" clip-rule="evenodd" d="M210.902 100.507c.39-.584.701-1.168 1.13-1.79.428-.623.935-1.207 1.597-1.596.623-.39 1.363-.584 1.753-.7.389-.118.389-.235.233-.43-.116-.233-.389-.583-.701-.894-.311-.312-.662-.623-.974-.818-.311-.194-.545-.311-.818-.35-.272-.078-.545-.117-.935-.234a11.681 11.681 0 01-1.246-.35c-.351-.117-.506-.234-.623-.234-.117 0-.234.078-.74.701-.507.623-1.403 1.83-2.026 2.647-.623.817-1.013 1.323-1.48 2.063a43.355 43.355 0 00-1.364 2.297c-.311.584-.311.739-.234.856.078.117.234.156.741.234.506.078 1.402.194 2.181.233.779.039 1.441 0 1.987-.272.623-.273 1.09-.818 1.519-1.363z" fill="#47B909"/><path fill-rule="evenodd" clip-rule="evenodd" d="M162.091 80.421c-.116-.428-.116-.428-.389-.311-.234.117-.74.35-1.909.817-1.169.468-3.077 1.207-4.519 1.947-1.441.74-2.415 1.479-2.999 1.985-.585.506-.74.7-.779.856-.039.156.078.273.623.584.545.312 1.519.857 2.22 2.608.702 1.752 1.091 4.75 1.13 9.498.078 4.749-.195 11.289-.818 16.7-.623 5.449-1.675 9.77-2.259 13.235-.624 3.464-.818 5.994-.896 7.279-.117 1.245-.117 1.245.117 1.284.233.078.662.234 1.714.312 1.051.078 2.765.078 4.168-.039 1.402-.117 2.532-.389 5.921-.428 3.428-.039 9.154.116 12.465.35 3.312.234 4.169.506 4.831.779.662.233 1.091.428 1.363.467.273 0 .39-.156.468-.273.078-.117.156-.233-.156-2.219-.312-1.985-.974-5.916-1.441-9.887-.468-3.97-.702-8.019-.663-13.235.039-5.216.351-11.561.312-15.298-.039-3.737-.428-4.866-1.013-6.072-.584-1.207-1.402-2.53-1.753-3.153-.389-.662-.35-.623-.234-1.09.117-.467.312-1.402.39-1.869.078-.467.078-.506-.273-.895-.35-.39-1.051-1.09-2.298-1.83s-3-1.44-4.285-1.946c-1.286-.506-2.104-.74-2.493-.856-.39-.117-.39-.156-.351.35.039.506.156 1.48-.117 2.141-.272.662-.857 1.012-1.83 1.012-.974 0-2.338-.35-3.117-.934-.818-.545-1.013-1.44-1.13-1.869z" fill="#E1E2E1"/><path fill-rule="evenodd" clip-rule="evenodd" d="M153.989 85.988a3.405 3.405 0 00-1.519-.7c-.39-.04-.623-.04-.74 0-.117 0-.117 0-.351.272-.234.272-.662.778-1.246 2.802-.585 2.025-1.286 5.567-1.675 8.136-.39 2.57-.429 4.165-.468 5.294-.078 1.09-.156 1.713-.078 2.102.078.389.273.545.896.662.584.155 1.558.272 2.844.272 1.285 0 2.844-.117 3.739-.233.935-.117 1.208-.273 1.442-.39.272-.155.506-.272.623-.35.117-.078.117-.078.039-1.635-.078-1.557-.195-4.71-.506-7.318-.312-2.608-.779-4.71-1.286-6.15-.545-1.48-1.13-2.258-1.714-2.764z" fill="#E1E2E1"/><path fill-rule="evenodd" clip-rule="evenodd" d="M204.63 101.675c-.117-.078-.078-.117.039-.467.156-.35.429-.934.701-1.79.312-.818.624-1.869.896-2.959a53.59 53.59 0 00.624-2.725c.116-.584.194-.7.311-.74.117-.038.312-.077.74 0 .468.079 1.208.234 1.987.312.779.039 1.636 0 2.104 0 .467 0 .506.078.428.623-.078.506-.312 1.48-.545 2.219-.234.74-.429 1.284-.546 1.635-.117.35-.117.506-.272.934-.156.39-.429 1.05-.663 1.44-.194.389-.35.545-.662.779-.311.272-.818.622-1.013.856-.233.234-.194.35-.428.389-.234.039-.779.039-1.169 0-.389-.039-.623-.078-.896-.117-.311-.038-.662-.077-.974-.155a17.572 17.572 0 00-.662-.234z" fill="#64C324"/><path fill-rule="evenodd" clip-rule="evenodd" d="M155.353 62.749c.389.078 1.246.039 2.376-.234 1.129-.233 2.61-.7 3.428-1.673.818-.935.974-2.375 1.636-3.231.662-.857 1.792-1.168 2.493-1.713.701-.545.974-1.363 1.091-2.102.117-.779.117-1.48.117-2.024v-1.09c0-.195-.039-.195-.273-.234-.273-.039-.779-.156-1.247-.194-.467-.04-.896 0-1.402.077-.545.078-1.169.195-1.714.312a8.104 8.104 0 00-1.402.545 9.65 9.65 0 00-1.091.623c-.351.233-.662.506-1.013.778a9.43 9.43 0 00-1.052 1.09c-.35.428-.74.973-1.013 1.44-.272.467-.428.935-.584 1.363-.117.428-.195.817-.273 1.245a7.8 7.8 0 00-.116 1.363c-.039.467-.039.934-.039 1.362 0 .428-.039.74-.078 1.051-.039.312-.078.584-.078.818-.156.233-.195.389.234.428z" fill="#3F3D2E"/><path fill-rule="evenodd" clip-rule="evenodd" d="M166.104 50.877c.039.428-.117 1.206 0 1.907.117.7.506 1.323 1.285 1.79.779.507 1.909.896 2.844 1.44.935.546 1.636 1.285 1.909 2.064.272.778.117 1.557.039 2.14-.078.585-.117.935 0 1.363.117.428.311.973.662 1.401.351.429.896.78 1.363 1.052.468.272.857.544 1.091.778.234.234.351.506.468.35.116-.155.272-.622.389-1.518.117-.934.234-2.257.039-4.048-.156-1.79-.623-4.048-1.091-5.489-.506-1.401-1.012-1.985-1.947-2.53-.935-.545-2.221-1.012-3.195-1.284-.974-.273-1.636-.312-2.337-.273-.701.039-1.402.156-1.636.234-.195.155.078.194.117.623z" fill="#3F3D2E"/><path fill-rule="evenodd" clip-rule="evenodd" d="M174.09 54.263a7.966 7.966 0 00-2.494-2.063c-1.246-.662-2.921-1.129-4.557-1.324-1.636-.155-3.233-.038-4.909.584-1.675.584-3.506 1.674-4.791 3.114-1.286 1.44-2.065 3.27-2.415 4.866a12.788 12.788 0 00-.273 3.543c.039.622.117.545.195.467.117-.117.234-.234.428-.35.156-.117.39-.195.468-.234.117-.04.117-.04.35-.895.234-.857.741-2.53 1.598-4.127.857-1.635 2.103-3.192 3.583-4.165 1.442-.973 3.117-1.401 4.636-1.518a12.698 12.698 0 013.935.195 8.927 8.927 0 012.765 1.09c.779.506 1.442 1.129 1.714 1.362.312.195.195-.039-.233-.545z" fill="#FDE742"/><path fill-rule="evenodd" clip-rule="evenodd" d="M164.896 52.2c.312 0 .662-.039.935-.078s.429-.039.506-.272c.078-.234.078-.623.156-.934.078-.312.195-.545.039-.623-.156-.078-.584 0-.896 0-.311 0-.545 0-.779.116-.234.117-.545.429-.74.662-.195.234-.234.39-.234.545 0 .156.078.312.273.39.156.155.428.194.74.194z" fill="#F9E349"/><path fill-rule="evenodd" clip-rule="evenodd" d="M165.403 50.059c0-.584-.078-1.44-.312-2.14a3.87 3.87 0 00-.857-1.597c-.35-.39-.779-.623-1.091-.817-.311-.234-.584-.467-.701-.506-.156-.078-.156.039-.156.272 0 .234.039.623.039.895 0 .312-.039.507-.116.779a3.633 3.633 0 00-.156.973c0 .35.117.7.195.857.077.194.116.194.35.428.273.233.701.661 1.013.934.273.272.389.35.545.467.117.078.312.195.468.273.195.116.428.233.584.116.117-.078.195-.35.195-.934zm.818.701c0-.312.117-.7.389-1.168a5.45 5.45 0 011.169-1.401 6.058 6.058 0 011.753-1.012c.623-.234 1.246-.312 1.675-.39.389-.078.584-.116.74-.233.156-.117.351-.234.429-.195.077.078.077.35.077.623-.038.273-.077.584-.233.934-.156.35-.39.74-.701 1.168-.312.428-.663.934-1.403 1.246-.74.311-1.909.428-2.571.584-.662.155-.896.35-1.052.35-.194-.04-.272-.195-.272-.506z" fill="#FDE742"/><path fill-rule="evenodd" clip-rule="evenodd" d="M148.652 108.993c-.117.74-.117 1.869-.078 2.959.039 1.09.117 2.18 1.169 3.347 1.052 1.207 3.116 2.492 5.765 3.854 2.649 1.362 5.882 2.764 7.752 3.503 1.87.74 2.298.74 2.61.818.312.039.468.117.623-.039.156-.156.312-.506.468-.818.117-.311.234-.583.117-.856-.117-.272-.39-.584-2.143-1.907-1.753-1.324-4.908-3.737-7.012-5.45-2.103-1.713-3.155-2.764-3.623-3.387-.506-.622-.428-.895-.545-1.167-.117-.273-.389-.623-.74-.935a4.598 4.598 0 00-1.441-.895c-.624-.233-1.442-.428-2.026-.311-.506.117-.779.506-.896 1.284zm62.211-8.058a9.263 9.263 0 001.013-.895c.195-.194.312-.311.351-.467.038-.156-.039-.35-.039-.545 0-.195.039-.39-.078-.584-.117-.194-.39-.428-.818-.506-.39-.078-.896-.039-1.325.04-.428.077-.74.194-1.052.272-.311.077-.623.116-.857.233-.272.117-.506.273-.584.467-.078.195 0 .35.039.467.039.117.117.117.039.156-.039.039-.195.117-.273.273a.855.855 0 00-.078.545c0 .155.078.272.195.428.117.155.312.35.429.467.116.117.194.156.194.389 0 .234-.117.623-.078.779.039.155.234.116.39.039.195-.078.39-.156.818-.429a14.26 14.26 0 001.714-1.129z" fill="#FFAF69"/><path fill-rule="evenodd" clip-rule="evenodd" d="M182.115 124.252c.116.195.077.429-.234.935-.273.506-.779 1.323-1.208 1.985a45.544 45.544 0 00-1.013 1.713c-.233.389-.35.622-.467.739-.117.117-.273.078-.584-.039-.273-.117-.702-.35-1.091-.584a8.477 8.477 0 01-1.48-.973c-.663-.506-1.481-1.245-2.026-1.713a19.502 19.502 0 00-.857-.7.89.89 0 01-.234-.467c-.039-.195-.039-.467-.039-.662s-.039-.35.078-.545c.078-.234.273-.506.468-.895.194-.39.389-.857.506-1.246.117-.389.195-.662.273-.817.078-.156.194-.195.389-.234.195 0 .546 0 1.013.078.468.078 1.13.233 1.714.506.623.272 1.208.623 1.831.973s1.285.74 1.675.973c.39.234.506.312.545.351.039.038.039.038.195.116.156.156.429.312.546.506z" fill="#101E25"/><path fill-rule="evenodd" clip-rule="evenodd" d="M177.44 127.561c.233-.078.467-.117.623-.156.156-.038.195-.116.195-.194 0-.117-.117-.234-.156-.351-.039-.116-.078-.194 0-.233.078-.039.273-.039.39-.078a.4.4 0 00.233-.195c0-.116-.039-.233-.428-.428-.39-.194-1.052-.467-1.636-.7-.546-.234-.974-.429-1.403-.623-.428-.195-.818-.467-1.09-.662-.312-.234-.507-.428-.585-.545-.078-.156-.078-.234-.039-.311.039-.117.039-.234.078-.351.039-.116.078-.155-.195-.272-.233-.078-.779-.195-1.597-.312-.818-.077-1.986-.155-2.843-.272-.858-.117-1.481-.273-1.87-.428-.39-.156-.546-.312-.779-.506-.234-.195-.546-.467-.702-.584-.155-.117-.155-.117-.233-.039-.078.078-.195.272-.312.506a5.985 5.985 0 00-.351.934c-.155.389-.311.818-.428 1.051-.078.234-.078.234.195.312.272.077.818.233 1.402.545a8.985 8.985 0 011.831 1.323c.584.545 1.091 1.129 1.558 1.596.468.467.935.779 1.441 1.012.507.234 1.091.389 1.637.506.584.156 1.129.273 1.636.35.467.078.896.156 1.246.156.351.039.701.039 1.013.039.351 0 .662.039.818-.078.156-.117.117-.311 0-.428-.078-.117-.195-.156-.156-.234.117-.116.273-.272.507-.35z" fill="#FFAF69"/><path fill-rule="evenodd" clip-rule="evenodd" d="M174.869 121.255c-.117.039-.195.156-.156.234 0 .116.078.233.311.428.234.155.624.35 1.169.584.545.233 1.286.506 1.948.778.662.273 1.207.506 1.636.74.467.233.779.506.974.623.195.116.234.155.272.233.039.078.039.234-.272.895-.312.662-.974 1.869-1.325 2.57-.35.7-.467.856-.506 1.012-.078.116-.078.233-.078.272 0 .039.078.078.078.078.039 0 .039 0 .078-.078s.156-.233.506-.895c.39-.662 1.052-1.869 1.442-2.569.389-.74.467-.973.506-1.168.039-.195.078-.312.078-.428 0-.117 0-.195-.545-.506a86.712 86.712 0 00-2.416-1.324c-.857-.467-1.48-.817-1.986-1.051-.507-.233-.818-.35-1.091-.389a.884.884 0 00-.623-.039z" fill="#B1B1B1"/><path fill-rule="evenodd" clip-rule="evenodd" d="M175.142 121.8c.038-.117.194-.35.272-.545.117-.195.156-.311.273-.389.117-.078.312-.156.428-.117.156.039.273.156.585.311.311.156.818.351 1.402.584.584.234 1.247.545 1.831.779.584.233 1.091.467 1.363.623.273.155.312.233.312.35 0 .117-.078.233-.156.389s-.234.312-.311.467c-.078.156-.156.312-.234.39-.039.077-.117.038-.195-.039a3.8 3.8 0 00-.506-.429 11.678 11.678 0 00-1.013-.622c-.351-.195-.623-.312-.896-.468-.312-.155-.662-.272-1.091-.428-.428-.155-.935-.272-1.246-.389-.351-.117-.507-.195-.663-.234-.078-.038-.194-.077-.155-.233z" fill="#47B909"/><path fill-rule="evenodd" clip-rule="evenodd" d="M160.611 80.733c-.039-.078-.039-.078.039-.117.078-.039.234-.117.39-.156.155-.078.272-.116.428-.194l.39-.195.078-.039.077.234c.078.233.234.74.429 1.129.195.389.428.661.74.895.312.233.662.428 1.091.584.428.156.935.272 1.363.311.429.04.74.04 1.052 0 .312-.039.545-.117.779-.272.234-.156.39-.312.545-.584a3.94 3.94 0 00.273-.895c.039-.273.039-.507.039-.779 0-.273-.039-.623-.039-.817-.039-.195-.039-.234.039-.234s.273.078.507.156c.233.078.467.155.623.194.156.04.195.078.234.078.038 0 .116.04.155.04.039 0 .039 0 .039.427.039.39.078 1.207 0 1.947-.039.7-.233 1.323-.701 1.751-.506.428-1.324.74-2.22.818a6.518 6.518 0 01-2.727-.35c-.896-.312-1.714-.857-2.26-1.48-.584-.623-.896-1.323-1.09-1.79-.195-.39-.234-.584-.273-.662z" fill="#CBCCCD"/><path fill-rule="evenodd" clip-rule="evenodd" d="M30.074 194.164a2.859 2.859 0 002.843-2.842 2.859 2.859 0 00-2.843-2.842 2.859 2.859 0 00-2.844 2.842 2.859 2.859 0 002.844 2.842z" fill="#403E32"/><path d="M24.102 194.132a2.842 2.842 0 10-.91-5.61 2.842 2.842 0 10.91 5.61zm21.047.032a2.843 2.843 0 002.844-2.842 2.843 2.843 0 00-5.688 0 2.843 2.843 0 002.844 2.842z" fill="#403E32"/><path fill-rule="evenodd" clip-rule="evenodd" d="M51.654 194.164a2.859 2.859 0 002.844-2.842 2.859 2.859 0 00-2.844-2.842 2.859 2.859 0 00-2.844 2.842 2.859 2.859 0 002.844 2.842z" fill="#141515"/><path fill-rule="evenodd" clip-rule="evenodd" d="M21.348 132.388h32.566c3.233 0 5.843 2.647 5.843 5.839v47.139c0 3.231-2.649 5.839-5.843 5.839H21.348c-3.234 0-5.844-2.647-5.844-5.839v-47.139c-.039-3.231 2.61-5.839 5.844-5.839z" fill="#4F4D3E"/><path d="M52.55 186.807H22.71v4.437h29.84v-4.437z" fill="#E8E4BE"/><path d="M24.152 144.494H22.05v40.756h2.103v-40.756zm5.726 0h-2.103v40.756h2.104v-40.756zm5.882 0h-2.103v40.756h2.104v-40.756zm5.96 0h-2.103v40.756h2.104v-40.756zm5.377 0h-2.104v40.756h2.104v-40.756zm5.843 0h-2.104v40.756h2.104v-40.756zm-22.321-14.753h-3.233v2.647h3.233v-2.647zm17.373 0H44.76v2.647h3.233v-2.647z" fill="#403E32"/><path d="M30.346 101.442h-2.688v28.299h2.688v-28.299zm17.414 0h-2.69v28.299h2.688v-28.299z" fill="#E8E4BE"/><path fill-rule="evenodd" clip-rule="evenodd" d="M28.905 94.513h17.53c.934 0 1.714.778 1.714 1.712v5.178h-3.506v-3.465H30.697v3.465H27.19v-5.178c0-.934.779-1.712 1.714-1.712zM16.01 186.729c-.038.039-.116.039-.194 0-.04-.039-.04-.117 0-.195l4.051-3.97v-44.532l-3.194-2.958c-.04-.039-.04-.117 0-.195.039-.039.117-.039.195 0l3.194 2.997c.039.039.039.078.039.117v44.648c0 .039 0 .078-.04.078l-4.05 4.01zm43.24 0c.04.039.117.039.195 0 .04-.039.04-.117 0-.195l-4.051-3.97v-44.532l3.194-2.958c.04-.039.04-.117 0-.195-.039-.039-.117-.039-.195 0l-3.194 2.997c-.039.039-.039.078-.039.117v44.648c0 .039 0 .078.04.078l4.05 4.01z" fill="#403E32"/><path fill-rule="evenodd" clip-rule="evenodd" d="M267.932 71.624c.116-.506.428-1.012.623-1.674.156-.661.195-1.479.234-1.868 0-.39 0-.39.311-.428.312-.04.896-.078 1.714-.273.779-.194 1.792-.584 2.727-.973.935-.428 1.87-.895 2.337-1.05.468-.196.468-.079.429.35 0 .428-.039 1.128-.039 1.985.039.856.117 1.83.234 2.491.117.662.272.973.311 1.246.039.272-.039.506-.428 1.09-.39.583-1.052 1.557-1.675 2.218a4.959 4.959 0 01-1.987 1.324c-.74.272-1.636.39-2.298.35-.662-.039-1.091-.272-1.442-.817-.35-.545-.662-1.44-.857-2.141-.233-.74-.311-1.285-.194-1.83z" fill="#FFAF69"/><path fill-rule="evenodd" clip-rule="evenodd" d="M281.644 192.295a9.138 9.138 0 00-1.091 2.375c-.312 1.051-.468 2.335-.507 3.114-.039.778.078 1.012.312 1.168.234.155.662.194 2.182.233 1.519 0 4.168-.039 5.726-.078 1.558-.039 2.026-.078 2.259-.233.234-.117.273-.312.312-.857a8.338 8.338 0 00-.156-2.296c-.156-.896-.545-1.791-.935-2.569-.389-.779-.779-1.402-1.091-1.674-.272-.273-.467-.195-1.051-.156-.624.039-1.636.039-2.532.039-.857 0-1.559.039-1.987.078-.429.039-.662.078-.857.156-.117.077-.273.194-.584.7z" fill="#080902"/><path fill-rule="evenodd" clip-rule="evenodd" d="M285.461 198.368c-1.753.039-3.584.039-4.519.039-.896 0-.896 0-.896.233v.973c0 .312 0 .467.039.545.039.078.117.117.156.117.039 0 .039 0 1.091-.039 1.052 0 3.155-.039 4.869-.078s3-.039 3.662-.039c.701 0 .779 0 .818-.039.078-.039.117-.077.117-.116.039-.039.039-.078 0-.39 0-.272-.039-.817-.078-1.09-.039-.272-.117-.272-.974-.233-.818.039-2.493.078-4.285.117z" fill="#FBD16B"/><path fill-rule="evenodd" clip-rule="evenodd" d="M233.379 98.678c-.429-.078-.779-.195-1.481-.312a32.706 32.706 0 00-2.61-.311 87.712 87.712 0 00-2.687-.195c-.78-.038 1.402-.194.818-.506-2.455-1.401-3.974-3.036.194-3.114 1.169-.039.195.117 1.481.078 1.285-.078 2.103-.194 2.921-.117.779.078 1.558.312 1.87.662.312.35.234.779 1.286 1.129 1.051.311 3.817.623 4.986.778 1.168.156 1.207.156 1.675.234 3.155.506 5.493.506 6.311.584.857.078.623.039.896.039.389-1.09.896-2.491 1.558-4.321.935-2.491 2.142-5.8 2.96-7.668.818-1.83 1.247-2.22 1.403-2.336.156-.117.078.078.389.428.312.35 1.052.895 1.792 1.635.701.74 1.403 1.752 1.831 2.647.429.934.545 1.752.351 2.88-.195 1.13-.663 2.492-1.675 4.36-1.013 1.869-2.494 4.243-3.818 5.684a9.542 9.542 0 01-1.169 1.09c-.117.155-.272.272-.428.467-.507.545-1.091 1.323-1.948 1.635-.857.311-1.87.583-3.35.194-1.48-.389-1.948-.428-4.714-1.518-2.61-1.051-5.181-3.036-8.842-4.126z" fill="#FFAF69"/><path fill-rule="evenodd" clip-rule="evenodd" d="M274.749 71.585c-.506.623-.974 1.207-1.48 1.674a6.245 6.245 0 01-1.559 1.129c-.467.233-.857.311-1.246.117-.39-.195-.74-.662-1.052-1.44-.312-.818-.584-1.986-.74-2.53-.156-.585-.156-.585-.506-.234-.39.35-1.13 1.012-2.805 1.79-1.675.779-4.285 1.674-6.038 2.297-.507.156-2.376.662-2.649.856-4.168 2.88-5.649 15.026-5.649 15.026 1.598.117 5.22 2.063 7.597 2.102 2.376.078 4.207 16.543 7.635 16.582 3.428.039 7.206.078 10.011.078 2.805 0 4.597-.078 5.571-.078.974-.039 1.129-.077 1.207-.817.117-.779.195-2.297.312-3.932.117-1.635.273-3.425.584-4.943.312-1.518.779-2.725 1.13-3.348.351-.623.623-.662 1.208-.778.584-.117 1.519-.39 2.688-.74 1.168-.39 2.571-.895 3.389-1.246.818-.35 1.012-.506 1.129-.74.117-.194.195-.427-.039-2.335-.233-1.907-.818-5.488-1.48-8.019-.662-2.49-1.363-3.97-1.831-4.71-.467-.778-.623-.856-1.831-1.323-1.207-.467-3.428-1.285-5.376-2.258-1.947-.973-3.661-2.102-4.713-2.803-1.052-.7-1.402-.973-1.597-1.129-.195-.155-.195-.155-.468.195-.311.312-.857.934-1.402 1.557z" fill="#4AAB3C"/><path fill-rule="evenodd" clip-rule="evenodd" d="M270.074 73.96c.312.467.507.584.662.623.156.038.273.038.702-.234.428-.273 1.207-.856 2.064-1.674.857-.817 1.87-1.83 2.415-2.335.546-.506.624-.506 1.013-.312.39.195 1.013.506 1.364.779.35.233.35.35.156 1.05-.234.662-.663 1.908-1.208 3.076-.545 1.207-1.208 2.335-1.714 2.997-.506.662-.818.818-1.208.74-.389-.117-.857-.506-1.441-1.09-.584-.623-1.286-1.44-1.675-1.869-.39-.428-.468-.428-1.052 0-.584.39-1.714 1.207-2.493 1.674-.818.467-1.363.545-1.675.545-.351-.039-.467-.156-.506-.74-.039-.544.077-1.517.116-2.452.039-.934.039-1.79 0-2.296 0-.506 0-.623.117-.779.117-.156.39-.311.896-.584.507-.272 1.247-.661 1.636-.817.39-.117.429 0 .507.311.078.312.195.818.467 1.48.195.622.585 1.44.857 1.907z" fill="#5DC94C"/><path fill-rule="evenodd" clip-rule="evenodd" d="M261.894 83.73c.078 2.608.078 5.567.116 7.163.039 1.596.117 1.83.234 1.946.117.117.312.195 1.714.234 1.364.039 3.935.077 6.311.194 2.376.078 4.636.234 5.765.312 1.169.077 1.208.077 1.519-1.752.273-1.83.78-5.528 1.442-8.68.662-3.154 1.441-5.762 1.909-7.319.428-1.518.545-1.985.623-2.258.078-.272.156-.428.234-.467.078-.038.155 0 .233.078a.9.9 0 00.351.234c.195.078.467.155.701.233.273.04.507.078.662.117.156.04.234.078.273.195.039.078 0 .194-.506 2.219-.507 2.024-1.52 5.916-2.026 10.51-.506 4.593-.584 9.887-.584 13.04 0 3.153.039 4.243.117 4.982.077.74.155 1.168.545 1.363.389.194 1.052.156 1.363.35.312.156.273.545.273.74 0 .194 0 .194.195 1.284.234 1.09.662 3.309 1.013 6.54.389 3.27.701 7.591 1.051 14.403.351 6.812.663 16.076 1.364 26.353.701 10.276 1.753 21.565 2.22 27.365.468 5.8.39 6.072.234 6.228-.156.156-.39.156-2.065.272-1.675.117-4.752.351-6.31.39-1.559.039-1.597-.078-2.104-2.842-.467-2.725-1.402-8.058-2.415-14.013-1.013-5.956-2.104-12.535-3.272-19.386-1.169-6.851-2.338-13.974-3.039-17.867-.662-3.892-.818-4.554-.974-4.943-.155-.351-.272-.39-.311.039-.039.428.078 1.401-.156 7.629-.234 6.228-.818 17.712-1.325 27.015-.506 9.303-.935 16.466-1.168 20.242-.234 3.775-.234 4.165-.195 4.593 0 .428.039.895-.935.817-.974-.078-2.999-.778-4.597-1.401-1.597-.623-2.843-1.246-3.467-1.557-.662-.312-.74-.389-.779-.428-.078-.078-.155-.156-.194-2.608-.039-2.453-.039-7.202-.312-15.688-.273-8.447-.779-20.592-.974-29.311-.156-8.719.039-14.052.506-19.307.468-5.255 1.247-10.394 1.87-16.583.585-6.19 1.052-13.468 1.247-18.568.195-5.138.156-8.135.156-9.731-.039-1.596-.039-1.79.078-1.869.116-.078.35-.117.623-.194.273-.078.584-.195.896-.312.311-.117.584-.233.779-.233a.39.39 0 01.351.194c.038.078.038.156.077.662s.078 1.401.234 2.958c.117 1.596.312 3.815.429 6.423z" fill="#101E25"/><path fill-rule="evenodd" clip-rule="evenodd" d="M263.452 130.208a110.745 110.745 0 001.792 4.749c.584 1.401 1.013 2.18 1.285 3.309.273 1.129.468 2.647.74 3.698.273 1.051.702 1.674.896 1.946.195.311.195.311.273-1.246.078-1.557.195-4.71.234-6.812.078-2.141.078-3.269.117-3.931.039-.701.078-.934.078-1.09 0-.117 0-.117-.429-.273-.428-.155-1.324-.467-2.103-.895-.78-.428-1.442-.934-1.948-1.323-.507-.39-.857-.701-1.052-.701-.195 0-.351.272-.351.623-.039.35.039.739.468 1.946zm2.727-31.375c-1.364-.038-2.922-.077-3.662-.116-.779-.04-.779-.04-.779 1.635-.039 1.673-.078 5.021-.117 7.512-.039 2.492-.078 4.165 0 5.061.039.895.156 1.051 1.558 1.323 1.403.234 4.091.545 6.194.701 2.104.117 3.584.078 4.48-.039.896-.117 1.208-.35 1.363-.701.156-.35.195-.817.195-3.386s-.039-7.202-.039-9.498v-2.336h-.896c-.896 0-2.688 0-4.207-.039-1.519-.039-2.727-.078-4.09-.117zm14.335 10.199c-.039-.156.078-.311.234-.311.155-.039.311.078.311.233.351 2.336.74 4.671 1.052 7.163.351 2.491.662 5.177.935 8.252.273 3.192.545 6.734.818 10.977.273 3.932.584 8.408 1.013 13.78.896 11.133 2.259 25.73 3.623 40.328v.038c0 .156-.117.273-.273.312-.156 0-.273-.117-.312-.273v-.039c-1.363-14.675-2.727-29.311-3.622-40.327-.429-5.333-.741-9.848-1.013-13.78a479.165 479.165 0 00-.818-10.938 164.686 164.686 0 00-.935-8.214c-.312-2.569-.663-4.865-1.013-7.201zm-25.282 78.125c-.078.506-.039 1.44-.039 2.141 0 .701.039 1.129.039 1.479.039.35.078.545.351.856.312.312.857.701 1.636 1.013.779.311 1.792.544 2.766.7.974.117 1.87.156 2.727.117a18.39 18.39 0 002.337-.273c.662-.116 1.169-.272 1.402-.544.234-.273.234-.701.234-1.207-.039-.467-.078-1.051-.039-1.557.039-.545.117-1.051.078-1.402-.039-.35-.273-.545-.701-.583-.429-.039-1.13.077-2.337.077-1.208 0-2.961-.155-4.247-.428-1.285-.233-2.103-.584-2.687-.778-.585-.195-.896-.273-1.091-.234-.234 0-.39.078-.429.623z" fill="#080902"/><path fill-rule="evenodd" clip-rule="evenodd" d="M278.527 189.337c.156.662.429 1.479.546 2.102.117.623.039.973.078 1.246 0 .272.078.467.818.661.74.195 2.064.351 3.817.195 1.753-.156 3.896-.623 5.103-1.012 1.208-.389 1.442-.662 1.636-.934.195-.273.312-.506.312-.974 0-.467-.117-1.167-.234-1.829-.117-.662-.194-1.246-.389-1.596-.195-.35-.429-.467-.818-.428-.351.039-.818.272-1.52.506-.701.233-1.714.467-2.882.661-1.169.156-2.493.273-3.662.234-1.13-.039-2.065-.156-2.532-.039-.429.117-.429.545-.273 1.207z" fill="#080902"/><path fill-rule="evenodd" clip-rule="evenodd" d="M270.347 67.459c-.428.078-.857.156-1.13.233-.272.117-.389.234-.428.507-.078.272-.117.7-.156 1.012-.039.311-.078.506.078.7.156.195.467.35 1.013.39.506.077 1.246.038 2.064-.195.818-.234 1.792-.662 2.571-1.051.779-.39 1.325-.74 1.598-.934.272-.195.272-.195.272-.39v-2.14c0-.077-.039-.194-.195-.155-.194.039-.545.272-1.324.584-.779.311-1.948.7-2.766.973-.779.272-1.168.389-1.597.467z" fill="#FF9E69"/><path fill-rule="evenodd" clip-rule="evenodd" d="M265.478 88.48l-.507 20.903-14.14-.623.194-20.631 14.453.35z" fill="#F7CE66"/><path fill-rule="evenodd" clip-rule="evenodd" d="M265.478 88.479l-.507 20.903 5.22-3.581.117-17.594-4.83.272z" fill="#DBB158"/><path fill-rule="evenodd" clip-rule="evenodd" d="M279.423 60.57c-.155.077-.155.077-.35.739-.195.661-.584 1.946-1.013 2.802-.428.857-.896 1.285-1.792 1.947-.935.661-2.298 1.557-3.467 2.024-1.169.506-2.142.584-2.805.623-.662.039-.973 0-1.636-.312-.662-.311-1.714-.895-2.61-1.79-.935-.896-1.714-2.024-2.142-2.88-.39-.818-.429-1.324-.507-2.453a246.085 246.085 0 00-.428-4.944c-.195-2.102-.429-4.593-.546-6.15-.116-1.518-.077-2.063.234-2.803.312-.74.896-1.674 2.415-2.608 1.52-.934 3.974-1.907 6.038-2.063 2.104-.156 3.857.545 5.181 1.129 1.325.584 2.221 1.129 2.805 1.713.546.584.779 1.245.974 1.946.195.7.351 1.44.468 2.219.155.778.272 1.596.506 2.218.234.662.506 1.13.701 1.44.195.312.234.507.312.623.078.117.156.156.272.273.117.117.273.35.39.895.078.506.117 1.324-.039 1.986-.156.661-.467 1.206-.818 1.673-.39.468-.818.896-1.208 1.168-.428.39-.779.506-.935.584z" fill="#FFAF69"/><path fill-rule="evenodd" clip-rule="evenodd" d="M268.828 57.144c0-.156.116-.273.272-.273.156 0 .273.117.273.273.039.389.078.817-.117 1.206-.078.195-.234.39-.389.545a4.66 4.66 0 01-.468.428 1.186 1.186 0 01-.273.195c-.155.117-.272.195-.35.273-.039.039-.078.116-.117.155-.039.04-.039.117-.039.195v.117c0 .039.039.078.039.116l.117.117c.078.04.156.117.234.156.155.078.35.156.545.233.156.04.234.234.156.35-.039.157-.234.234-.351.157a3.922 3.922 0 01-.584-.273.848.848 0 01-.312-.195c-.078-.077-.156-.116-.234-.194v-.04c-.077-.077-.116-.194-.155-.31-.039-.117-.039-.234-.039-.312 0-.117.039-.233.078-.35.039-.117.116-.195.194-.312.117-.117.234-.233.429-.35.078-.039.156-.117.273-.195.116-.117.272-.233.428-.35.117-.117.234-.273.312-.39.117-.272.078-.583.078-.934v-.038z" fill="#F46F2D"/><path fill-rule="evenodd" clip-rule="evenodd" d="M263.881 53.446c.272-.195.857-.39 1.363-.468.506-.078.974-.116 1.363-.078.429.04.818.117 1.091.234.234.117.351.312.351.467 0 .156-.078.312-.312.39-.234.077-.545.077-.896.077h-.974c-.35.04-.74.117-1.013.156-.272.078-.467.117-.662.078a.743.743 0 01-.545-.273c-.078-.116-.039-.35.234-.584zm8.18-.623a.37.37 0 01.156-.39c.117-.077.311-.116.701-.077.351.038.896.116 1.441.311.546.195 1.13.428 1.481.7.35.273.506.507.506.701-.039.195-.234.39-.429.39-.194 0-.428-.195-.74-.35-.311-.195-.74-.39-1.09-.546-.39-.116-.741-.194-1.013-.194-.273-.04-.507 0-.663-.117-.233-.078-.311-.273-.35-.428zm-7.012 3.503a2.266 2.266 0 00-.078.895c.039.312.156.623.273.857.116.233.272.39.389.428.156.078.273.078.429-.039.155-.078.311-.272.428-.506.117-.233.195-.545.195-.817 0-.312-.039-.623-.117-.896a1.01 1.01 0 00-.428-.545.97.97 0 00-.663 0 1.2 1.2 0 00-.428.623zm7.479 0a2.266 2.266 0 00-.078.895c.039.312.156.623.273.857.117.233.273.39.39.428.155.078.272.078.428-.039.156-.078.312-.272.429-.506.116-.233.194-.545.194-.817 0-.312-.039-.623-.116-.896a1.007 1.007 0 00-.429-.545.968.968 0 00-.662 0c-.195.156-.351.35-.429.623z" fill="#36342B"/><path fill-rule="evenodd" clip-rule="evenodd" d="M277.593 56.871c0-.7-.039-1.83-.156-2.92a16.616 16.616 0 00-.584-2.841c-.234-.779-.546-1.324-.896-1.557-.39-.234-.818-.078-1.52-.078-.662.039-1.558-.039-2.259-.311a3.433 3.433 0 01-1.519-1.168c-.312-.39-.468-.7-.585-.662-.116.078-.233.506-.623.856-.389.39-1.091.701-2.064.896-.974.233-2.221.35-3.312.35-1.051 0-1.947-.078-2.688-.311-.701-.234-1.246-.623-1.636-1.207-.389-.584-.701-1.362-.857-2.102-.155-.74-.155-1.48.117-2.063.234-.584.74-1.09 1.286-1.324.506-.233 1.052-.233 1.285-.389.234-.155.156-.467.156-.934s.078-1.129.545-1.907c.468-.779 1.325-1.713 2.338-2.063 1.013-.39 2.181-.234 3.038.038.857.273 1.364.74 1.714 1.051.39.35.662.584 1.013.506.351-.077.818-.506 1.363-.778.546-.273 1.208-.428 2.182-.39.974.04 2.298.234 3.428.857 1.13.584 2.026 1.557 2.571 2.491.545.935.74 1.869.857 2.608.078.701.078 1.207.195 1.558.078.389.234.622.428.856.195.233.39.39.507 1.362.117.973.156 2.764.117 4.01-.039 1.284-.195 2.024-.234 2.413-.039.39-.078.39-.273.35-.234 0-.662-.038-1.052.078-.389.117-.74.428-1.09.896-.312.506-.624 1.206-.857 1.751-.234.584-.39 1.012-.546 1.207-.156.195-.272.117-.35-.039-.039-.117-.039-.39-.039-1.09z" fill="#403E32"/><path fill-rule="evenodd" clip-rule="evenodd" d="M270.464 99.573c.194.856.272 1.44.662 1.907.389.468 1.013.818 2.493 1.051 1.48.273 3.818.429 5.609.506 1.753.078 2.961 0 3.623-.038.624-.078.701-.195.818-.429.117-.272.234-.7.507-1.907.233-1.207.623-3.192.779-4.204.195-1.012.195-1.012.234-.973.039 0 .155.039.467.078.351.077.896.155 1.48.233.585.078 1.208.117 1.87-.078.701-.233 1.48-.7 1.87-.934l.39-.233-.039.389c-.039.389-.117 1.168-.546 2.802-.428 1.674-1.246 4.204-2.025 6.384-.78 2.18-1.481 4.01-1.909 4.944-.429.934-.624 1.012-1.597 1.051-.974.039-2.727 0-5.259-.545-2.532-.545-5.844-1.557-7.674-2.102-1.831-.545-2.221-.584-2.494-.545-.272.039-.506.156-1.09.545-.585.389-1.52 1.129-2.221 1.518-.701.389-1.129.428-1.441.428-.312 0-.467-.078-.584-.116-.117 0-.117.038-.351.077a3.638 3.638 0 01-.974.156c-.35 0-.584-.078-.701-.195-.117-.155-.117-.35-.078-.506.039-.155.078-.311.156-.506.078-.194.156-.467.273-.661.116-.195.272-.351.506-.506.234-.117.545-.234.896-.39.312-.116.662-.272.818-.35.195-.078.234-.156.156-.195-.117-.039-.351-.077-.585-.155-.233-.078-.467-.156-.545-.351-.078-.194-.039-.467.039-.661.117-.195.234-.312.506-.429.273-.116.663-.272 1.208-.739.545-.467 1.247-1.207 1.792-1.83.545-.623.935-1.168 1.13-1.557.233-.389.311-.623.233-1.09-.077-.467-.272-1.206-.35-1.674-.078-.467-.039-.74.078-1.012.117-.272.311-.622.467-.74.156-.116.234-.038.351.079.117.116.272.272.467.934.156.623.39 1.713.585 2.569z" fill="#FFAF69"/><path fill-rule="evenodd" clip-rule="evenodd" d="M286.669 94.98c-.74.233-1.168.35-1.363.39-.195.038-.234.038-.234.116 0 .039-.039.156 0 .194 0 .04.039.078.234.195.233.117.623.312 1.441.312.779 0 1.948-.195 2.766-.429.818-.233 1.246-.467 1.48-.584.234-.116.234-.077.273-.389.039-.311.117-.895.195-1.206.039-.312.039-.312-.273-.195-.312.117-.935.39-1.792.662-.896.35-1.948.7-2.727.934z" fill="#FF9E69"/><path fill-rule="evenodd" clip-rule="evenodd" d="M265.361 37.953c-.117.195-.546.506-.779 1.207-.273.7-.351 1.713-.117 2.725.233 1.012.779 2.063 1.597 2.763.779.701 1.831 1.13 2.727 1.402.896.272 1.636.428 1.87.584.272.116.039.233-.312.272-.312.039-.74.039-1.325-.078a12.298 12.298 0 01-2.103-.584 12.23 12.23 0 01-1.909-.817c-.623-.273-1.207-.623-1.675-1.051-.467-.428-.779-1.012-.974-1.44a2.395 2.395 0 01-.234-1.09c0-.35 0-.74.078-1.13a7.04 7.04 0 01.351-1.206c.156-.35.312-.662.506-.895.195-.234.351-.39.546-.506a2.68 2.68 0 01.584-.273c.234-.078.545-.117.818-.117.234 0 .429.04.351.234z" fill="#36342B"/><path fill-rule="evenodd" clip-rule="evenodd" d="M255.115 192.646c-.467.467-1.285 1.323-1.792 2.374-.467 1.051-.623 2.336-.662 3.114-.039.779.078 1.012.312 1.168.234.156.662.195 2.181.233 1.52 0 4.169-.038 5.727-.077 1.558-.039 2.025-.078 2.493-.156.506-.078 1.052-.156 1.48-.234.429-.077.701-.116.857-.584.156-.467.156-1.323 0-2.024-.156-.7-.467-1.245-.623-2.063-.156-.817-.117-1.907-.156-2.413-.078-.506-.234-.428-1.324-.389-1.091.077-3.078.116-4.402.155-1.325.039-2.026.039-2.455.078-.467.039-.662.078-.857.156-.194.039-.311.194-.779.662z" fill="#080902"/><path fill-rule="evenodd" clip-rule="evenodd" d="M259.322 198.679c-2.142.039-4.401.039-5.531.039s-1.13 0-1.13.234v.973c0 .311 0 .467.039.545a.214.214 0 00.195.117c.039 0 .039 0 1.363-.039 1.286 0 3.857-.039 5.96-.078 2.065-.039 3.662-.039 4.48-.039.857 0 .935 0 1.013-.039a.538.538 0 00.156-.117c.039-.039.039-.078 0-.389 0-.273-.039-.818-.078-1.09-.039-.273-.117-.273-1.208-.234-1.012.039-3.116.078-5.259.117z" fill="#FBD16B"/><path fill-rule="evenodd" clip-rule="evenodd" d="M274.359 48.113c-.156-.545-1.091-1.324-1.675-2.141a4.012 4.012 0 01-.701-2.686c.078-.934.467-1.83.896-2.492.428-.661.896-1.05 1.402-1.323.507-.234 1.013-.35 1.247-.545.233-.195.117-.467-.156-.623-.273-.155-.74-.194-1.558.156-.818.35-1.987 1.05-2.805 2.063-.818 1.012-1.364 2.297-1.402 3.464-.078 1.168.311 2.22.973 3.076.702.856 1.714 1.479 2.532 1.673.78.195 1.403-.077 1.247-.622z" fill="#36342B"/><path fill-rule="evenodd" clip-rule="evenodd" d="M267.581 64.267c-.117-.039-.195-.156-.156-.311.039-.117.156-.195.312-.156.234.078.467.117.701.195.234.038.467.116.701.155.234.04.468.04.74.04.234 0 .468-.04.74-.118.195-.078.429-.155.624-.272.272-.156.506-.311.662-.428.195-.156.234-.195.273-.234.039-.078.117-.156.233-.156.117 0 .234.117.234.234 0 .039 0 .078-.039.117-.039.078-.078.194-.428.428a5.044 5.044 0 01-.74.467c-.234.117-.468.234-.702.312-.272.077-.584.116-.857.155-.272 0-.545 0-.818-.039a4.15 4.15 0 01-.74-.156c-.234-.077-.506-.155-.74-.233z" fill="#F46F2D"/><path fill-rule="evenodd" clip-rule="evenodd" d="M270.308 88.207l-15.27-.39-4.013.312 14.453.35 4.83-.272z" fill="#DBB158"/><path fill-rule="evenodd" clip-rule="evenodd" d="M225.003 87.895c.507 3.27 1.52 9.382 2.026 12.496.506 3.114.506 3.153.506 3.425.039.234.117.662.39.895.312.234.818.273 3.194.545 2.377.273 6.545.818 8.648 1.051l2.104.273-.584-3.659c-.585-3.66-1.715-10.939-2.299-14.637-.623-3.697-.701-3.853-.74-3.931-.078-.078-.117-.078-2.415-.234a367.683 367.683 0 00-9.077-.467c-2.259-.078-2.298.078-2.298.156v.311c0 .156 0 .545.545 3.776z" fill="#101E25"/><path fill-rule="evenodd" clip-rule="evenodd" d="M225.938 92.722c-.234.117-.545.35-.701.623-.156.272-.156.662-.156 1.09 0 .467-.078 1.012-.039 1.518s.156.895.234 1.246c.078.35.156.661.35.856.195.195.468.311.896.39a8.423 8.423 0 001.403 0c.389-.04.584-.079.662-.195.078-.117.078-.35 0-.506a.496.496 0 00-.351-.273c-.155-.078-.272-.156-.194-.234.117-.116.428-.233.662-.505.234-.273.35-.701.35-1.052 0-.35-.116-.622-.233-.817-.078-.195-.156-.35-.156-.467 0-.117.117-.195.078-.428a1.274 1.274 0 00-.584-.896c-.39-.272-1.052-.428-1.442-.467-.389-.078-.545 0-.779.117z" fill="#FF9F66"/><path fill-rule="evenodd" clip-rule="evenodd" d="M253.83 101.48c0 .545.039 4.204 0 4.438-.468 0-.545-.039-.974.078-.74.194-.701.117-.74.428l3.934.156v-.156c-.155-.156-.545-.234-.779-.311-.467-.156-.506-.078-.974-.156v-4.438c.663-.155.857-.272 1.208-.661.312-.351.506-.857.506-1.48 0-1.323.039-2.686 0-3.97l-3.895-.156c-.039.623 0 1.324 0 1.947v1.985c0 1.245.662 2.102 1.714 2.296zm4.129 4.243l-.389-.039v.857l6.466.233v-.856l-6.077-.195zm3.467-7.746h.507v7.24l.818.039v-7.201h.506c0-.156-.857-2.414-.896-2.491l-.935 2.413zm-3.155-.117h.467v7.24l.857.039v-7.24h.507l-.935-2.491-.468 1.168c-.117.428-.311.856-.428 1.284z" fill="#211F17"/><path fill-rule="evenodd" clip-rule="evenodd" d="M257.414 88.284h-.312c-.233 0-.662-.038-.896-.038h-.233l-.039 1.985c-.039 1.985-.117 5.956-.117 7.94l-.039 1.986h3.038v-1.985c0-1.986-.039-5.917-.039-7.902 0-1.986 0-1.986.039-1.986h-1.402z" fill="#E1E2E1"/><path fill-rule="evenodd" clip-rule="evenodd" d="M256.245 88.246h-.233l.467-.04c.468-.038 1.403-.155 1.87-.194l.467-.039h.39c.39 0 1.169.04 1.597.04h.546c.038 0 .038 0-.39.038-.429.039-1.286.156-1.675.233l-.429.04h-.233c-.234 0-.701-.04-1.169-.04-.467 0-.974-.038-1.208-.038z" fill="#CBCCCD"/><path d="M264.737 90.309h-5.414V93.5h5.414v-3.192z" fill="#E1E2E1"/><path fill-rule="evenodd" clip-rule="evenodd" d="M82.662 183.771l-12.777.233 1.013-23.862 12.738.078-.974 23.551zm-21.659-.779l-12.738-.428 1.013-23.122 12.7.545-.975 23.005z" fill="#929293"/><path fill-rule="evenodd" clip-rule="evenodd" d="M47.447 156.055c1.91 1.869 3.39 3.348 4.441 4.477 13.634-1.48 29.138-2.141 46.473-1.947-1.636-1.557-4.596-2.88-8.843-4.009-25.047.156-39.071.662-42.07 1.479z" fill="#DBB158"/><path fill-rule="evenodd" clip-rule="evenodd" d="M47.642 194.086c2.844 4.048 3.973 5.216 3.973 5.216.429-13.235.507-25.263.273-38.77-1.441-1.518-2.96-2.998-4.44-4.477-.079 25.691.194 38.031.194 38.031z" fill="#DBB158"/><path fill-rule="evenodd" clip-rule="evenodd" d="M51.888 160.532c.234 11.405.195 23.433-.273 38.77 27.269-.35 46.98-1.596 46.98-1.596.234-20.086.156-33.126-.234-39.16a404.001 404.001 0 00-46.473 1.986zm39.812-4.049c.195 0 .35-.155.35-.389s-.116-.389-.311-.428c-6.7-.195-13.518-.156-20.374.117-6.856.272-13.829.778-20.84 1.518-.195 0-.312.194-.312.428 0 .233.156.389.35.35a319.876 319.876 0 0120.802-1.518c6.895-.233 13.674-.272 20.335-.078z" fill="#F7CE66"/><path fill-rule="evenodd" clip-rule="evenodd" d="M79.078 158.702c-2.337.078-4.557.156-6.66.273-.274-.273.077 16.971 0 23.861 0 0 6.621-.272 6.933-.272-.039 0-.117-7.941-.273-23.862z" fill="#F9F9F9"/><path fill-rule="evenodd" clip-rule="evenodd" d="M72.378 158.975c4.48-.195 6.7-.273 6.7-.273l-6.076-3.97c-2.922.039-4.363.078-4.363.078a461.926 461.926 0 003.74 4.165z" fill="#E1E2E1"/><path fill-rule="evenodd" clip-rule="evenodd" d="M84.065 137.449c-.429 4.359-1.208 12.067-1.597 16.037-.39 3.971-.39 4.282-1.91 4.477-1.519.233-4.518.428-7.362.311-2.843-.078-5.531-.467-6.973-.662-1.441-.194-1.636-.272-2.103-4.204-.507-3.97-1.286-11.833-1.675-15.765-.39-3.931-.39-3.931-.39-4.321 0-.389 0-1.167.701-1.557.702-.389 2.143-.389 5.415-.428 3.233-.039 8.297-.156 11.336-.194 3.038-.039 4.051-.039 4.558.467.467.467.39 1.479 0 5.839z" fill="#FDE742"/><path fill-rule="evenodd" clip-rule="evenodd" d="M86.246 133.4c-.935.312-2.454.857-4.635 1.207-2.182.35-4.987.545-7.713.584-2.727 0-5.415-.156-7.752-.467a50.686 50.686 0 01-5.376-1.012c-1.09-.273-1.325-.429-1.48-.584-.156-.156-.195-.273-.195-1.168 0-.895 0-2.569.039-3.426 0-.856 0-.856 1.363-1.129 1.325-.272 4.013-.778 7.908-.973 3.934-.194 9.076-.116 12.504.078 3.428.195 5.065.467 5.883.623.818.156.857.195.857 1.168 0 .934.039 2.802-.117 3.776-.078.934-.35 1.012-1.286 1.323z" fill="#FBD16B"/><path fill-rule="evenodd" clip-rule="evenodd" d="M84.649 128.612c-1.208.311-3.74.623-6.778.779-3 .194-6.506.272-9.31.233-2.805-.039-4.87-.272-6.077-.467-1.208-.195-1.52-.35-1.52-.506 0-.156.35-.311 1.559-.662 1.207-.35 3.272-.817 6.66-1.012 3.39-.194 8.064-.078 11.025.078 2.96.156 4.246.311 4.908.584.702.272.78.662-.467.973z" fill="#4F4D3E"/><path fill-rule="evenodd" clip-rule="evenodd" d="M75.923 126.705c.584-2.608 1.364-7.746 1.442-13.741.077-5.956-.585-12.729-2.065-17.867-1.48-5.138-3.818-8.603-5.882-11.406-2.104-2.841-3.935-5.021-4.87-6.033-.935-1.051-.935-.934-.7 2.686.233 3.62.7 10.821 1.674 16.621.974 5.8 2.454 10.199 3.974 14.053 1.519 3.853 3.116 7.123 3.973 10.081.857 2.959 1.013 5.606 1.052 6.929.078 1.324.078 1.324.272 1.324.195-.039.546-.039 1.13-2.647z" fill="#4AAB3C"/><path fill-rule="evenodd" clip-rule="evenodd" d="M75.69 125.42c0-2.257.077-7.24 1.402-11.989 1.324-4.788 3.895-9.381 6.7-12.768 2.805-3.425 5.882-5.644 7.947-7.007 2.064-1.362 3.116-1.868 3.662-1.868.545 0 .545.506.311 1.907a24.968 24.968 0 01-1.753 6.384c-1.13 2.647-2.921 5.606-4.87 8.097-1.947 2.491-4.05 4.554-5.764 6.617-1.753 2.064-3.117 4.166-4.285 6.151a55.716 55.716 0 00-2.65 5.099c-.584 1.168-.7 1.635-.7-.623zm-5.454-6.929c-.429-1.401-1.714-4.243-4.207-6.384s-6.233-3.62-8.882-4.437c-2.649-.818-4.285-.934-5.064-.934-.78.039-.662.233-.39.856.273.623.74 1.674 1.753 3.231s2.532 3.659 4.675 5.255c2.142 1.635 4.947 2.764 6.973 3.348 2.025.544 3.35.506 4.207.467.896 0 1.363 0 .935-1.402z" fill="#5DC94C"/><path fill-rule="evenodd" clip-rule="evenodd" d="M91.193 98.445a.206.206 0 00-.039-.312.206.206 0 00-.311.039c-1.948 2.375-3.857 4.749-5.649 7.162-1.792 2.414-3.428 4.905-4.791 7.513-1.364 2.608-2.415 5.294-3.35 8.058-.935 2.764-1.675 5.566-2.454 8.369-.04.117.038.234.155.273.117.038.234-.039.273-.156.78-2.803 1.558-5.606 2.454-8.33.896-2.725 1.987-5.411 3.311-7.98 1.364-2.569 3-5.061 4.753-7.474 1.792-2.452 3.74-4.827 5.648-7.162z" fill="#509663"/><path fill-rule="evenodd" clip-rule="evenodd" d="M68.288 87.623c-.039-.117-.156-.156-.273-.117-.117.039-.156.156-.117.272a100.938 100.938 0 011.792 4.905 71.71 71.71 0 011.675 5.917c.507 2.102.935 4.477 1.364 6.968.506 2.919.935 5.955 1.324 8.836.701 5.333 1.169 10.121 1.636 14.909 0 .117.117.194.234.194s.195-.116.195-.233c-.468-4.788-.935-9.537-1.636-14.909-.39-2.88-.818-5.956-1.325-8.875a139.314 139.314 0 00-1.363-6.968c-.545-2.258-1.09-4.204-1.675-5.956-.623-1.79-1.247-3.347-1.831-4.943zM56.913 110.2c-.117-.078-.233-.039-.311.078-.078.117-.04.234.078.311 2.96 1.791 5.92 3.621 8.18 5.139a46.193 46.193 0 012.883 2.141c.818.661 1.519 1.284 2.103 1.946.585.662 1.13 1.284 1.558 1.985.429.701.78 1.402 1.091 2.219.545 1.596.818 3.503 1.052 5.411 0 .116.117.194.273.194.117 0 .194-.116.194-.272-.233-1.908-.506-3.854-1.051-5.489a9.68 9.68 0 00-1.13-2.296 19.424 19.424 0 00-1.597-2.063 21.49 21.49 0 00-2.143-1.986c-.818-.661-1.792-1.362-2.921-2.141-2.299-1.557-5.26-3.386-8.259-5.177z" fill="#509663"/><path fill-rule="evenodd" clip-rule="evenodd" d="M110.749 107.436c-.312 2.375-.857 6.618-1.169 8.798-.312 2.18-.273 2.335-1.48 2.569-1.208.233-3.662.506-5.688.428-2.064-.039-3.74-.428-4.635-.623-.896-.194-1.052-.233-1.403-2.413-.35-2.18-.935-6.501-1.207-8.642-.273-2.141-.273-2.141-.273-2.374 0-.234 0-.662.506-.857.507-.233 1.559-.233 3.896-.233 2.337-.039 5.96-.078 8.141-.117 2.182-.039 2.922-.039 3.273.273.35.272.311.817.039 3.191z" fill="#F9F9F9"/><path fill-rule="evenodd" clip-rule="evenodd" d="M112.307 105.218c-.662.155-1.792.467-3.35.661-1.558.195-3.584.312-5.532.312a61.26 61.26 0 01-5.57-.234c-1.675-.155-3.078-.389-3.857-.584-.779-.155-.935-.233-1.052-.311-.117-.078-.117-.156-.156-.662v-1.868c0-.467 0-.467 1.013-.701.974-.234 2.96-.623 5.922-.817 2.96-.156 6.856-.078 9.271.077 2.415.156 3.35.429 3.817.584.468.156.507.156.507.701 0 .506.039 1.518-.078 2.063-.078.584-.273.623-.935.779z" fill="#CBCCCD"/><path fill-rule="evenodd" clip-rule="evenodd" d="M111.177 102.61c-.896.194-2.688.35-4.869.428a98.302 98.302 0 01-6.7.116 59.76 59.76 0 01-4.364-.233c-.856-.117-1.09-.195-1.09-.273 0-.077.273-.194 1.13-.35.856-.195 2.337-.467 4.791-.545 2.415-.117 5.804-.039 7.947.039 2.142.078 3.038.156 3.545.311.428.117.467.312-.39.507z" fill="#4F4D3E"/><path fill-rule="evenodd" clip-rule="evenodd" d="M95.089 81.473c1.207.623 2.337 1.362 3.272 2.335.935.973 1.714 2.18 2.143 3.348a7.756 7.756 0 01.467 3.309 13.455 13.455 0 01-.351 2.49c-.116.468-.155.468-1.168-.077-1.013-.584-3-1.752-4.48-3.153-1.48-1.44-2.493-3.114-3-4.788-.506-1.674-.506-3.309-.545-4.165-.039-.856-.078-.895.545-.662.585.195 1.91.74 3.117 1.363z" fill="#5DC94C"/><path fill-rule="evenodd" clip-rule="evenodd" d="M112.891 85.093c-1.48.545-3.661 1.284-5.181 2.569-1.48 1.284-2.337 3.075-2.649 4.71-.311 1.635-.117 3.153 0 3.892.117.74.156.74 1.559.195 1.363-.545 4.09-1.674 5.804-3.27 1.753-1.634 2.493-3.736 2.96-5.371.429-1.635.546-2.725.585-3.27.039-.545.039-.545-.351-.428-.389.155-1.207.428-2.727.973zm-10.128-15.337a23.27 23.27 0 011.714 2.608c.545.973 1.052 1.985 1.324 3.036.273 1.051.273 2.063.273 2.959 0 .895-.078 1.596-.273 2.608-.233 1.012-.623 2.335-.779 2.958-.195.662-.195.662-.233.662-.039 0-.078 0-1.052-1.13-.974-1.128-2.844-3.386-3.701-5.449-.857-2.063-.74-3.892-.428-5.566a29.556 29.556 0 011.051-4.01c.234-.778.234-.778.546-.428.311.273.935.973 1.558 1.752z" fill="#4AAB3C"/><path fill-rule="evenodd" clip-rule="evenodd" d="M102.374 73.026v.078c.584 2.88 1.207 5.722 1.597 7.785.194 1.05.35 1.868.506 2.608.156.778.273 1.518.39 2.374.117.857.272 1.869.428 2.959.156 1.129.273 2.374.429 3.776.233 2.802.428 6.189.623 9.575h.234c-.195-3.386-.39-6.773-.624-9.575a69.861 69.861 0 00-.428-3.815c-.156-1.13-.273-2.102-.429-2.998-.116-.856-.272-1.596-.389-2.374-.156-.779-.312-1.596-.507-2.608-.389-2.024-1.012-4.905-1.597-7.785v-.078l-.233.078z" fill="#509663"/><path fill-rule="evenodd" clip-rule="evenodd" d="M114.644 86.066c-1.168 1.05-2.337 2.102-3.389 3.153-1.091 1.05-2.103 2.102-2.96 3.153-.857 1.051-1.598 2.063-2.182 3.075a28.02 28.02 0 00-1.48 2.764c-.39.817-.701 1.557-.974 2.18-.234.584-.429 1.09-.545 1.401l-.234.623.195.078.233-.623c.117-.311.273-.779.546-1.401.233-.623.545-1.324.935-2.141a32.96 32.96 0 011.48-2.725c.584-.973 1.324-1.985 2.181-3.036s1.87-2.063 2.961-3.114c1.091-1.052 2.259-2.103 3.389-3.154l-.156-.233zm-20.997-3.464c.585.661 1.13 1.323 1.715 1.985.584.7 1.13 1.44 1.714 2.335a33.996 33.996 0 011.714 2.92c.506.973.973 1.985 1.363 2.92.389.972.662 1.907.896 2.802.234.895.35 1.752.467 2.53.234 1.596.273 2.997.312 4.399h.234c-.039-1.402-.078-2.803-.312-4.399a36.748 36.748 0 00-.467-2.569c-.234-.895-.507-1.869-.896-2.842a33.437 33.437 0 00-1.364-2.958 26.323 26.323 0 00-1.753-2.92 46.107 46.107 0 00-1.714-2.335c-.584-.7-1.13-1.362-1.714-2.024l-.195.156z" fill="#509663"/><path fill-rule="evenodd" clip-rule="evenodd" d="M38.721 33.126c3.39-.467 8.22-.117 10.596 1.246 2.26 1.284 4.285 4.282 4.13 8.135-.156 3.97-2.104 6.423-4.325 7.941-2.103 1.402-7.557 1.869-10.44 1.285l.04-18.607zm-.077 23.59c3.583-.662 9.037 1.012 14.374-2.102 3.35-1.947 5.843-4.827 6.74-9.537 1.908-10.121-5.299-17.245-14.882-17.284l-12.699-.039V51.89h-4.09l-.04 4.71 4.091.078v2.802h-4.051l-.04 4.71 4.091.078v10.55h6.467v-10.63l17.685-.078-.039-4.593c-3.545-.272-15.854.273-17.607-.156v-2.647zm48.81-47.802c2.415-.311 5.804-.078 7.518.895 1.597.896 3.038 3.037 2.922 5.761-.117 2.803-1.48 4.555-3.078 5.645-1.48 1.012-5.376 1.323-7.401.895l.039-13.196zm-.04 16.738c2.572-.467 6.39.701 10.207-1.518 2.376-1.362 4.129-3.425 4.752-6.773 1.364-7.201-3.74-12.223-10.556-12.262h-8.999v17.128h-2.883v3.348l2.883.038V27.6h-2.883l-.038 3.347 2.882.04v7.473h4.597v-7.552l12.543-.038-.039-3.27c-2.493-.195-11.219.194-12.465-.117v-1.83zM77.13 58.195c1.598-.234 3.857-.04 4.987.584 1.052.622 2.026 2.024 1.948 3.853-.078 1.869-.974 3.037-2.026 3.737-.974.662-3.584.896-4.908.584v-8.758zm-.038 11.094c1.714-.312 4.246.467 6.778-1.012 1.558-.935 2.766-2.258 3.155-4.477.896-4.788-2.493-8.135-7.012-8.135h-5.96V67.03h-1.909v2.219l1.91.039v1.323h-1.91v2.219l1.91.039v4.983h3.038V72.83l8.336-.039-.039-2.18c-1.675-.117-7.48.117-8.297-.078V69.29z" fill="#E1E2E1"/></svg>