<svg width="121" height="120" fill="none" xmlns="http://www.w3.org/2000/svg"><g clip-path="url(#clip0_164_1338)"><path d="M120.5 60c0-33.132-26.868-60-60-60C27.368 0 .5 26.868.5 60c0 33.132 26.868 60 60 60 33.132 0 60-26.868 60-60z" fill="#FFF8E5"/><g clip-path="url(#clip1_164_1338)" fill="#4AAB3C"><path d="M56.71 48.667V45H34.244c-2.063 0-3.744 1.646-3.744 3.667V56h27c-.52-2.24-.79-4.653-.79-7.333zM90.346 64c-2.557 4.029-6.457 7.456-12.045 10.737a5.552 5.552 0 01-2.801.763 5.55 5.55 0 01-2.79-.755c-5.588-3.29-9.487-6.72-12.049-10.745H30.5v19.167c0 2.116 1.684 3.833 3.75 3.833h52.5c2.07 0 3.75-1.717 3.75-3.833V64h-.154zM47.375 75.5h-7.5C38.84 75.5 38 74.641 38 73.583s.84-1.916 1.875-1.916h7.5c1.035 0 1.875.858 1.875 1.916 0 1.058-.84 1.917-1.875 1.917z"/><path d="M89.364 39.7l-13.125-5.55c-.477-.2-1.005-.2-1.481 0L61.633 39.7a1.845 1.845 0 00-1.133 1.698v7.4c0 10.18 3.814 16.13 14.066 21.958a1.9 1.9 0 001.868 0C86.686 64.943 90.5 58.993 90.5 48.799v-7.4c0-.74-.446-1.41-1.136-1.699zm-6.773 8.407l-7.5 9.25c-.36.437-.9.692-1.466.692h-.079a1.888 1.888 0 01-1.481-.821l-3.75-5.55a1.833 1.833 0 01.521-2.565 1.89 1.89 0 012.599.515l2.329 3.445 5.895-7.275a1.9 1.9 0 012.636-.288c.81.632.937 1.798.296 2.597z"/></g></g><defs><clipPath id="clip0_164_1338"><path fill="#fff" transform="translate(.5)" d="M0 0h120v120H0z"/></clipPath><clipPath id="clip1_164_1338"><path fill="#fff" transform="translate(30.5 30)" d="M0 0h60v60H0z"/></clipPath></defs></svg>