<svg width="66" height="66" fill="none" xmlns="http://www.w3.org/2000/svg"><path d="M66 33C66 14.777 51.222 0 33 0 14.777 0 0 14.777 0 33c0 18.222 14.777 33 33 33 18.222 0 33-14.778 33-33z" fill="#FFF8E5"/><path d="M30.852 26.578V24.5h-12.73c-1.17 0-2.122.933-2.122 2.078v4.155h15.3c-.295-1.27-.448-2.636-.448-4.155zm19.061 8.689c-1.45 2.283-3.66 4.225-6.826 6.084a3.146 3.146 0 01-1.587.432c-.553 0-1.1-.147-1.581-.428-3.166-1.863-5.376-3.807-6.828-6.088H16v10.86c0 1.2.954 2.173 2.125 2.173h29.75c1.173 0 2.125-.973 2.125-2.172V35.267h-.087zm-24.35 6.516h-4.25a1.075 1.075 0 01-1.063-1.086c0-.6.476-1.086 1.063-1.086h4.25c.586 0 1.062.487 1.062 1.086 0 .6-.476 1.086-1.063 1.086z" fill="#4AAB3C"/><path d="M49.356 21.497l-7.437-3.145a1.08 1.08 0 00-.84 0l-7.437 3.145a1.046 1.046 0 00-.642.962v4.194c0 5.768 2.161 9.14 7.97 12.442a1.077 1.077 0 001.06 0C47.838 35.8 50 32.429 50 26.653v-4.194c0-.42-.253-.799-.644-.962zm-3.838 4.764l-4.25 5.242a1.08 1.08 0 01-.83.392h-.045a1.07 1.07 0 01-.84-.466l-2.124-3.145a1.039 1.039 0 01.295-1.453 1.071 1.071 0 011.473.291l1.32 1.953 3.34-4.123a1.077 1.077 0 011.493-.163c.46.358.532 1.019.168 1.472z" fill="#4AAB3C"/></svg>