<svg width="66" height="66" fill="none" xmlns="http://www.w3.org/2000/svg"><path d="M66 33C66 14.777 51.222 0 33 0 14.777 0 0 14.777 0 33c0 18.222 14.777 33 33 33 18.222 0 33-14.778 33-33z" fill="#FFF8E5"/><g clip-path="url(#clip0_38_14000)"><path d="M46.788 37.236v7.224a5 5 0 01-5 5H21.407v-4.292h8.046v-3.857h7.949v-4.075h9.386zm-12.134-4.45l-3.35-1.232 3.348-4.323c.741-.957.546-2.309-.444-3.077-.608-.471-1.288-.556-2.21-.273l-8.2 3.194c-.29.113-.518.329-.64.608a1.1 1.1 0 00-.01.87c.178.433.603.714 1.084.714.148 0 .294-.028.434-.082l4.032-1.571-1.956 2.525c-.241.332-.499.74-.499 1.377l-.052 6.106a.22.22 0 01-.028.106l-2.736 5.07a1.308 1.308 0 00-.096 1.028c.11.344.352.626.68.793.198.101.42.155.643.155a1.39 1.39 0 001.229-.722l2.736-5.07a2.88 2.88 0 00.345-1.337c.041-1.44.11-3.565.145-4.015l3.78 1.39-.87 4.19a1.31 1.31 0 00.203 1.013 1.414 1.414 0 001.157.603c.656 0 1.227-.454 1.358-1.081l1.037-4.989c.174-.839-.297-1.667-1.12-1.97zM36.637 19.8c-1.323 0-2.4 1.047-2.4 2.334 0 1.287 1.077 2.333 2.4 2.333s2.399-1.046 2.399-2.333c0-1.287-1.077-2.334-2.4-2.334zm-4.206 3.015L29.606 16l-9.07 3.556 2.824 6.815 9.07-3.556z" fill="#4AAB3C"/></g><defs><clipPath id="clip0_38_14000"><path fill="#fff" transform="translate(20 16)" d="M0 0h26.788v34H0z"/></clipPath></defs></svg>