<svg width="66" height="66" fill="none" xmlns="http://www.w3.org/2000/svg"><path d="M66 33C66 14.777 51.222 0 33 0 14.777 0 0 14.777 0 33c0 18.222 14.777 33 33 33 18.222 0 33-14.778 33-33z" fill="#FFF8E5"/><path d="M33 16c-9.389 0-17 7.611-17 17s7.611 17 17 17 17-7.611 17-17-7.611-17-17-17zm0 30.71c-7.56 0-13.71-6.15-13.71-13.71 0-7.56 6.15-13.71 13.71-13.71 7.56 0 13.71 6.15 13.71 13.71 0 7.56-6.15 13.71-13.71 13.71z" fill="#4AAB3C"/><path d="M21.667 31.628h3.851v2.742h-3.851v-2.742zm6.89 12.705l-.95-.551 1.463-2.506.952.552-1.464 2.505zM23.68 39.89l-.55-.95 2.523-1.453.55.95-2.523 1.453zm1.973-11.376L23.13 27.06l.55-.95 2.524 1.454-.551.95zm3.418-3.79l-1.464-2.505.952-.551 1.463 2.505-.951.552zm11.464 6.84c-.111.342-.168.87-.168 1.583 0 .68.057 1.2.168 1.56.112.36.342.54.688.54.347 0 .574-.18.682-.54.108-.36.162-.88.162-1.56 0-.713-.054-1.24-.162-1.584-.108-.342-.335-.513-.682-.513-.347-.001-.576.17-.688.514z" fill="#4AAB3C"/><path d="M33 20.533V44.9c6.885 0 12.467-5.455 12.467-12.183 0-6.729-5.582-12.184-12.467-12.184zm5.42 14.783c-.352.376-.872.564-1.56.564-.85 0-1.438-.27-1.77-.812a1.934 1.934 0 01-.223-.593c-.063-.294.184-.538.49-.538h.047c.307 0 .55.134.58.297.02.106.05.201.091.284.144.283.404.425.78.425a.88.88 0 00.605-.233c.172-.155.258-.377.258-.67 0-.384-.16-.642-.478-.77a1.58 1.58 0 00-.423-.09c-.24-.025-.435-.205-.435-.432 0-.228.182-.41.405-.434.173-.018.304-.047.395-.087.261-.113.391-.342.391-.687a.757.757 0 00-.2-.546c-.133-.14-.32-.21-.563-.21-.278 0-.482.086-.613.259a.869.869 0 00-.152.329c-.047.195-.282.361-.586.361s-.546-.19-.504-.419a2.7 2.7 0 01.107-.409c.097-.229.248-.44.454-.634.155-.137.337-.242.55-.315a2.43 2.43 0 01.78-.11c.573 0 1.035.146 1.386.435.352.29.527.678.527 1.166a1.271 1.271 0 01-.502 1.05c-.114.086-.1.144.025.228.063.043.134.099.212.169.301.272.451.644.451 1.115 0 .496-.175.932-.526 1.307zm4.808-4.693c.307.525.46 1.272.46 2.239 0 .967-.153 1.712-.46 2.234-.308.523-.843.784-1.607.784s-1.3-.261-1.607-.784c-.308-.522-.46-1.267-.46-2.234 0-.967.152-1.714.46-2.24.308-.525.843-.787 1.607-.787s1.299.262 1.607.788z" fill="#4AAB3C"/></svg>