<svg width="61" height="60" fill="none" xmlns="http://www.w3.org/2000/svg"><g clip-path="url(#clip0_401_3646)" fill="#4AAB3C"><path d="M26.71 18.667V15H4.244C2.181 15 .5 16.646.5 18.667V26h27c-.52-2.24-.79-4.653-.79-7.333zM60.346 34c-2.557 4.029-6.457 7.456-12.045 10.737a5.552 5.552 0 01-2.801.763 5.55 5.55 0 01-2.79-.755c-5.588-3.29-9.487-6.72-12.049-10.745H.5v19.167C.5 55.283 2.184 57 4.25 57h52.5c2.07 0 3.75-1.717 3.75-3.833V34h-.154zM17.375 45.5h-7.5C8.84 45.5 8 44.641 8 43.583s.84-1.916 1.875-1.916h7.5c1.035 0 1.875.858 1.875 1.916 0 1.058-.84 1.917-1.875 1.917z"/><path d="M59.364 9.7L46.239 4.15c-.477-.2-1.005-.2-1.481 0L31.633 9.7a1.845 1.845 0 00-1.133 1.7v7.4c0 10.18 3.814 16.129 14.066 21.957a1.9 1.9 0 001.868 0C56.686 34.943 60.5 28.993 60.5 18.799v-7.4c0-.74-.446-1.41-1.136-1.699zm-6.773 8.407l-7.5 9.25c-.36.437-.9.692-1.466.692h-.079a1.888 1.888 0 01-1.481-.821l-3.75-5.55a1.833 1.833 0 01.521-2.565 1.89 1.89 0 012.599.515l2.329 3.445 5.895-7.275a1.9 1.9 0 012.636-.289c.81.633.937 1.799.296 2.598z"/></g><defs><clipPath id="clip0_401_3646"><path fill="#fff" transform="translate(.5)" d="M0 0h60v60H0z"/></clipPath></defs></svg>