<svg width="66" height="66" fill="none" xmlns="http://www.w3.org/2000/svg"><path d="M66 33C66 14.777 51.222 0 33 0 14.777 0 0 14.777 0 33c0 18.222 14.777 33 33 33 18.222 0 33-14.778 33-33z" fill="#FFF8E5"/><path d="M43.405 16H18.491A2.503 2.503 0 0016 18.491v24.914a2.503 2.503 0 002.491 2.491h11.404a11.909 11.909 0 01-1.082-4.982c0-6.677 5.424-12.101 12.1-12.101 1.78 0 3.46.384 4.984 1.082V18.49A2.503 2.503 0 0043.405 16zm-6.691 12.727a1.141 1.141 0 01-.427.086c-.27 0-.527-.1-.726-.285l-4.613-4.3-4.612 4.3c-.313.285-.77.37-1.153.2a1.079 1.079 0 01-.641-.983v-9.61h12.813v9.61c0 .427-.257.811-.641.982z" fill="#4AAB3C"/><path d="M40.913 31.828c-5.01 0-9.086 4.076-9.086 9.086 0 5.01 4.076 9.086 9.086 9.086C45.923 50 50 45.924 50 40.914c0-5.01-4.077-9.087-9.087-9.087zm-1.397 11.881a.7.7 0 010 1.398H36.02a.7.7 0 01-.7-.699v-1.747c0-1.349 1-2.446 2.23-2.446h.435c.457 0 .83-.471.83-1.049 0-.577-.373-1.048-.83-1.048H36.02a.7.7 0 010-1.398h1.965c1.229 0 2.228 1.097 2.228 2.446 0 1.35-1 2.447-2.228 2.447h-.436c-.457 0-.83.47-.83 1.048v1.048h2.796zm6.989-2.795v3.494a.7.7 0 01-1.398 0v-2.795H43.84c-1.228 0-2.228-1.098-2.228-2.447V37.42a.7.7 0 011.398 0v1.747c0 .578.373 1.049.83 1.049h1.267V37.42a.7.7 0 011.398 0v3.495z" fill="#4AAB3C"/><circle cx="40.62" cy="40.621" fill="#4AAB3C" r="9.379"/><path d="M38.216 41.454c-.862.608-1.461 1.179-1.798 1.635a2.9 2.9 0 00-.487 1.635h4.683v-1.217h-2.997c.224-.304.637-.684 1.273-1.064.675-.419 1.124-.837 1.35-1.18a2.42 2.42 0 00.374-1.33c0-.646-.225-1.179-.637-1.559-.45-.418-.974-.608-1.649-.608-.711 0-1.31.228-1.723.646-.412.456-.6 1.027-.6 1.787h1.312c0-.418.075-.722.225-.95a.866.866 0 01.712-.343c.3 0 .524.076.711.267.188.19.262.418.262.76 0 .266-.074.532-.224.76-.113.229-.375.495-.787.76zm5.545 3.232v-1.521h-2.698v-1.217l2.548-4.258h1.498v4.334h.787v1.103h-.787v1.52l-1.348.039zm0-2.586v-2.89l-1.649 2.814-.037.114c-.038-.038 1.686-.038 1.686-.038z" fill="#F2F2F2"/></svg>