<svg width="121" height="120" fill="none" xmlns="http://www.w3.org/2000/svg"><g clip-path="url(#clip0_164_1315)"><path d="M120.5 60c0-33.132-26.868-60-60-60C27.368 0 .5 26.868.5 60c0 33.132 26.868 60 60 60 33.132 0 60-26.868 60-60z" fill="#FFF8E5"/><g clip-path="url(#clip1_164_1315)" fill="#4AAB3C"><path d="M60.5 30c-16.569 0-30 13.431-30 30 0 16.569 13.431 30 30 30 16.569 0 30-13.431 30-30 0-16.569-13.431-30-30-30zm0 54.194C47.16 84.194 36.306 73.34 36.306 60S47.16 35.806 60.5 35.806 84.694 46.66 84.694 60 73.84 84.194 60.5 84.194z"/><path d="M40.5 57.578h6.796v4.84H40.5v-4.84zM52.66 80l-1.678-.974 2.583-4.422 1.679.975L52.66 80zm-8.607-7.842l-.972-1.677 4.453-2.564.971 1.676-4.453 2.565zm3.481-20.077l-4.453-2.564.971-1.677 4.454 2.566-.972 1.675zm6.032-6.686l-2.583-4.421L52.662 40l2.583 4.421-1.679.974zm20.231 12.068c-.197.605-.297 1.537-.297 2.794 0 1.2.1 2.118.297 2.753.197.637.602.955 1.214.955s1.013-.318 1.204-.955c.189-.635.285-1.552.285-2.753 0-1.257-.096-2.189-.285-2.794-.19-.605-.592-.907-1.204-.907-.613 0-1.017.302-1.214.907z"/><path d="M60.5 38v43c12.15 0 22-9.626 22-21.5S72.65 38 60.5 38zm9.563 26.088c-.62.662-1.537.995-2.753.995-1.497 0-2.537-.478-3.12-1.433a3.416 3.416 0 01-.396-1.047c-.11-.519.326-.95.867-.95h.082c.541 0 .971.237 1.023.524.035.188.089.356.161.502.253.5.712.75 1.377.75.407 0 .763-.139 1.066-.412.304-.273.456-.666.456-1.18 0-.68-.281-1.134-.844-1.362a2.78 2.78 0 00-.746-.159c-.422-.043-.767-.36-.767-.761 0-.402.32-.724.714-.765.306-.032.536-.083.697-.154.46-.2.69-.605.69-1.213 0-.395-.117-.715-.352-.963-.236-.247-.567-.37-.995-.37-.49 0-.85.152-1.081.455a1.535 1.535 0 00-.268.581c-.084.346-.497.639-1.034.639s-.964-.336-.89-.74a4.78 4.78 0 01.189-.721c.17-.405.437-.778.801-1.12.273-.243.596-.428.97-.556.375-.129.833-.193 1.378-.193 1.01 0 1.825.256 2.446.767.62.511.929 1.197.929 2.058 0 .608-.185 1.121-.554 1.54-.11.122-.22.226-.332.311-.201.152-.177.256.044.404.112.075.237.174.375.298.53.48.796 1.136.796 1.968 0 .875-.31 1.644-.929 2.307zm8.486-8.283c.543.927.813 2.245.813 3.95 0 1.708-.27 3.022-.813 3.944-.543.923-1.488 1.384-2.836 1.384-1.348 0-2.292-.461-2.836-1.384-.542-.922-.812-2.236-.812-3.943 0-1.707.27-3.024.812-3.951.544-.927 1.488-1.39 2.836-1.39 1.348-.001 2.293.463 2.836 1.39z"/></g></g><defs><clipPath id="clip0_164_1315"><path fill="#fff" transform="translate(.5)" d="M0 0h120v120H0z"/></clipPath><clipPath id="clip1_164_1315"><path fill="#fff" transform="translate(30.5 30)" d="M0 0h60v60H0z"/></clipPath></defs></svg>