<svg width="74" height="47" fill="none" xmlns="http://www.w3.org/2000/svg"><path fill-rule="evenodd" clip-rule="evenodd" d="M52.145 43.3c-.461-.024-1.076-.048-1.558-.072a9.25 9.25 0 01-1.075-.095 3.66 3.66 0 01-.702-.12.799.799 0 01-.264-.071.273.273 0 01-.066-.048v.668l.242.047c.241.048.702.167 1.623.286.9.12 2.26.239 3.62.263a33.98 33.98 0 003.709-.143c.987-.096 1.557-.191 1.865-.286.307-.072.35-.12.35-.143.023-.024.023-.024.023-.143v-.453c0-.12 0-.12-.022-.096a.233.233 0 01-.11.072 1.756 1.756 0 01-.285.071c-.132.024-.307.048-.593.096-.285.023-.658.071-1.03.095-.374.024-.725.048-1.142.072-.417.023-.855.023-1.338.047h-2.26a9.936 9.936 0 00-.987-.047z" fill="#141515"/><path fill-rule="evenodd" clip-rule="evenodd" d="M54.186 43.323c3.16 0 5.726-.19 5.726-.453 0-.262-2.567-.453-5.726-.453-3.16 0-5.727.191-5.727.453 0 .263 2.567.453 5.727.453z" fill="#080902"/><path fill-rule="evenodd" clip-rule="evenodd" d="M49.358 1.653c-.132.071-.132.071-.352 1.168a387.158 387.158 0 01-.833 4.386c-.22 1.12-.198 1.145-.198 1.169 0 .023 0 .023.066.047s.176.096.483.19c.307.096.79.215 2.018.287 1.207.072 3.16.095 4.783.048 1.624-.048 2.897-.143 3.664-.263.747-.095.988-.19 1.098-.238l.11-.048-.132-1.144c-.132-1.144-.373-3.433-.505-4.577-.132-1.144-.132-1.144-.198-1.192-.087-.024-.24-.095-.658-.19-.417-.072-1.053-.144-2.018-.215-.966-.048-2.238-.096-3.401-.048a19.078 19.078 0 00-2.852.262c-.659.167-.944.286-1.075.358z" fill="#FDE742"/><path fill-rule="evenodd" clip-rule="evenodd" d="M51.683 8.09c-.57.023-1.207.071-1.777.095-.571.048-1.032.071-1.295.119-.263.024-.307.048-.197.095.11.048.35.143.724.215.373.071.877.12 1.426.143.57.024 1.184.048 1.843.072.658.023 1.338.023 2.172 0a99.837 99.837 0 002.677-.12c.833-.047 1.535-.143 1.952-.19.417-.048.593-.096.659-.143.066-.048.044-.072-.066-.12-.11-.047-.285-.071-.856-.119a46.842 46.842 0 00-2.545-.119c-1.031-.024-2.106-.024-2.896-.024a81.69 81.69 0 01-1.821.095z" fill="#080902"/><path fill-rule="evenodd" clip-rule="evenodd" d="M54.38 23.775V8.757l.067-.048c.065-.047.175-.119.263-.262.087-.12.131-.286.153-.358l.022-.071h-1.513c-.044 0-.044 0-.044.048.022.047.044.166.11.262.066.095.175.214.241.262.066.072.11.095.132.095l.022.024V42.87h.504v-3.36c.022-3.338.022-10.037.044-15.735z" fill="#141515"/><path fill-rule="evenodd" clip-rule="evenodd" d="M62.78 41.187l3.971.072-.307-8.082-3.971.024.307 7.986zm6.736-.262l3.971-.167-.307-7.82-3.971.191.307 7.796z" fill="#929293"/><path fill-rule="evenodd" clip-rule="evenodd" d="M73.73 31.794c-.592.62-1.053 1.12-1.382 1.502-4.256-.5-9.061-.715-14.48-.667.504-.525 1.425-.978 2.764-1.359 7.81.095 12.177.262 13.099.524z" fill="#DBB158"/><path fill-rule="evenodd" clip-rule="evenodd" d="M73.684 44.667c-.877 1.383-1.25 1.764-1.25 1.764a290.455 290.455 0 01-.087-13.135c.46-.524.92-1.025 1.381-1.502.044 8.702-.044 12.873-.044 12.873z" fill="#DBB158"/><path fill-rule="evenodd" clip-rule="evenodd" d="M72.347 33.32a271.71 271.71 0 00.088 13.136c-8.49-.12-14.634-.549-14.634-.549-.066-6.794-.044-11.228.066-13.254 4.849-.096 9.676.143 14.48.667zm-12.374-1.382c-.066 0-.11-.048-.11-.143 0-.072.044-.144.11-.144a80.545 80.545 0 016.34.048c2.13.095 4.301.262 6.495.5.066 0 .11.072.088.144 0 .071-.044.119-.11.119-2.194-.238-4.344-.43-6.472-.5-2.15-.072-4.279-.096-6.341-.024z" fill="#F7CE66"/><path fill-rule="evenodd" clip-rule="evenodd" d="M63.9 32.7c.724.024 1.426.048 2.085.096.087-.096-.022 5.745 0 8.081 0 0-2.063-.095-2.15-.095-.023 0 0-2.694.065-8.082z" fill="#F9F9F9"/><path fill-rule="evenodd" clip-rule="evenodd" d="M65.983 32.796a131.706 131.706 0 00-2.085-.096c1.251-.882 1.887-1.335 1.887-1.335.9.024 1.36.024 1.36.024-.79.93-1.162 1.407-1.162 1.407z" fill="#E1E2E1"/><path fill-rule="evenodd" clip-rule="evenodd" d="M62.344 25.501c.131 1.478.373 4.076.505 5.435.131 1.36.131 1.455.592 1.526.46.071 1.404.143 2.304.12.877-.025 1.733-.168 2.172-.24.439-.07.504-.094.658-1.43.154-1.334.395-4.005.527-5.34.131-1.334.131-1.334.131-1.477 0-.143 0-.406-.22-.525-.219-.143-.68-.143-1.689-.143-1.009-.024-2.589-.048-3.532-.071-.944-.024-1.273-.024-1.404.166-.176.167-.176.501-.044 1.98z" fill="#FDE742"/><path fill-rule="evenodd" clip-rule="evenodd" d="M61.663 24.142c.285.096.768.286 1.448.405.68.12 1.536.191 2.392.191.855 0 1.69-.047 2.413-.143a11.37 11.37 0 001.668-.357c.329-.096.416-.143.46-.191.044-.048.066-.095.066-.405v-1.168c0-.287 0-.287-.417-.382a14.933 14.933 0 00-2.457-.334 34.884 34.884 0 00-3.884.024c-1.053.072-1.58.167-1.843.215-.263.047-.263.071-.263.381s0 .954.022 1.264c.022.357.11.381.395.5z" fill="#FBD16B"/><path fill-rule="evenodd" clip-rule="evenodd" d="M62.167 22.521c.373.12 1.163.215 2.107.262.943.072 2.018.096 2.896.072a18.515 18.515 0 001.887-.143c.373-.072.482-.12.482-.167 0-.048-.11-.12-.482-.215-.373-.119-1.01-.286-2.063-.357-1.053-.072-2.501-.024-3.444.024-.922.047-1.317.095-1.536.19-.22.096-.242.215.153.334z" fill="#080902"/><path fill-rule="evenodd" clip-rule="evenodd" d="M64.864 21.878c-.175-.883-.417-2.623-.439-4.649-.022-2.026.176-4.315.637-6.055.46-1.74 1.185-2.908 1.843-3.862a38.42 38.42 0 011.514-2.05c.285-.358.285-.31.22.906-.067 1.24-.22 3.67-.527 5.626a23.467 23.467 0 01-1.251 4.744c-.483 1.31-.966 2.407-1.229 3.409-.263 1-.307 1.883-.329 2.336-.022.453-.022.453-.088.453-.044.024-.153 0-.35-.858z" fill="#60D213"/><path fill-rule="evenodd" clip-rule="evenodd" d="M64.956 21.425c0-.763-.022-2.456-.44-4.053a12.403 12.403 0 00-2.083-4.315 11.028 11.028 0 00-2.48-2.36c-.636-.453-.965-.643-1.14-.643-.176 0-.176.166-.11.643.065.477.197 1.264.548 2.146.351.905.9 1.907 1.514 2.741.614.858 1.25 1.526 1.8 2.24.548.692.965 1.407 1.338 2.075.373.667.658 1.311.833 1.716.176.406.22.573.22-.19zm1.687-2.337c.132-.477.527-1.43 1.317-2.17.79-.738 1.93-1.239 2.764-1.5.834-.287 1.339-.31 1.58-.31.242 0 .22.07.132.285a8.253 8.253 0 01-.549 1.097c-.307.524-.79 1.24-1.448 1.788-.68.548-1.536.93-2.172 1.12-.636.19-1.031.167-1.316.167-.286 0-.44 0-.308-.477z" fill="#60D213"/><path fill-rule="evenodd" clip-rule="evenodd" d="M60.126 12.294a.077.077 0 010-.095.063.063 0 01.088 0c.592.81 1.206 1.597 1.755 2.431.548.835 1.075 1.67 1.492 2.551.417.882.746 1.788 1.053 2.718.285.93.527 1.883.768 2.837 0 .047-.022.071-.044.095-.044 0-.066-.024-.088-.048a58.388 58.388 0 00-.768-2.813 20.148 20.148 0 00-1.03-2.717 17.055 17.055 0 00-1.493-2.527c-.548-.835-1.14-1.621-1.733-2.432z" fill="#389E00"/><path fill-rule="evenodd" clip-rule="evenodd" d="M67.256 8.647c.022-.048.044-.048.088-.048.043.024.043.048.043.096a27.876 27.876 0 00-.548 1.645 33.7 33.7 0 00-.527 2.002 28.067 28.067 0 00-.417 2.36c-.153.978-.285 2.026-.416 3.004-.22 1.812-.373 3.433-.505 5.03 0 .047-.044.071-.088.071s-.066-.047-.066-.095c.154-1.621.286-3.242.505-5.054.11-.977.263-2.026.417-3.004a44.41 44.41 0 01.439-2.36c.175-.763.35-1.43.526-2.026.176-.548.351-1.097.549-1.621zm3.531 7.629c.044-.024.066 0 .087.023.022.048 0 .072-.021.096-.922.62-1.843 1.215-2.546 1.74-.35.262-.636.5-.9.715-.263.215-.46.453-.657.668a3.32 3.32 0 00-.483.667 4.383 4.383 0 00-.33.74c-.175.547-.24 1.191-.328 1.835 0 .047-.044.071-.088.071s-.066-.047-.066-.095c.088-.644.154-1.311.33-1.86.087-.286.197-.548.35-.786.132-.239.307-.477.505-.692.197-.214.417-.453.658-.667.263-.239.549-.477.9-.74.746-.5 1.667-1.096 2.589-1.715z" fill="#389E00"/><path fill-rule="evenodd" clip-rule="evenodd" d="M29.698 39.677l-3.905.071.241-6.531 3.906.023-.242 6.437zm-6.628-.215l-3.906-.119.263-6.317 3.884.143-.241 6.294z" fill="#929293"/><path fill-rule="evenodd" clip-rule="evenodd" d="M18.86 32.096c.592.5 1.053.906 1.382 1.216 4.168-.405 8.908-.572 14.217-.524-.504-.43-1.404-.787-2.72-1.097-7.68.048-11.98.167-12.88.405z" fill="#DBB158"/><path fill-rule="evenodd" clip-rule="evenodd" d="M18.925 42.633c.877 1.12 1.316 1.669 1.316 1.669.088-3.624.088-7.295 0-10.99-.439-.43-.9-.834-1.382-1.216l.066 10.537z" fill="#DBB158"/><path fill-rule="evenodd" clip-rule="evenodd" d="M20.22 33.312c.11 3.123.11 6.794 0 10.99l14.372-.787c.022-5.507-.044-9.083-.175-10.727-4.718-.072-9.457.095-14.196.524z" fill="#F7CE66"/><path fill-rule="evenodd" clip-rule="evenodd" d="M32.396 32.216c.066 0 .11-.048.11-.096 0-.071-.044-.119-.088-.119a108.753 108.753 0 00-6.231.024c-2.106.071-4.213.214-6.363.405-.066 0-.088.048-.088.12 0 .07.044.095.11.095 2.15-.191 4.257-.334 6.363-.406 2.062-.071 4.147-.071 6.187-.023z" fill="#FBD16B"/><path fill-rule="evenodd" clip-rule="evenodd" d="M28.534 32.835c-.724.024-1.404.048-2.04.072-.088-.072.066 4.648.066 6.532 0 0 2.018-.072 2.128-.072-.022-.024-.066-2.193-.154-6.532z" fill="#F9F9F9"/><path fill-rule="evenodd" clip-rule="evenodd" d="M26.495 32.907l2.04-.072a67.134 67.134 0 01-1.865-1.096c-.9.023-1.338.023-1.338.023a136.15 136.15 0 001.163 1.145z" fill="#E1E2E1"/><path d="M25.192 34.4l-3.6.415.257 2.631 3.6-.415-.257-2.632z" fill="#F9F9F9"/><path fill-rule="evenodd" clip-rule="evenodd" d="M24.518 34.027l-3.95-1.478-.088-13.85 4.103.715-.065 14.613z" fill="#DBB158"/><path fill-rule="evenodd" clip-rule="evenodd" d="M24.516 34.027l.065-14.613 4.476-.286-.175 14.446-4.366.453z" fill="#F7CE66"/><path fill-rule="evenodd" clip-rule="evenodd" d="M29.06 19.104l-4.477.405-4.102-.834 4.278-.167 4.3.596z" fill="#DBA757"/><path fill-rule="evenodd" clip-rule="evenodd" d="M27.281 19.27l-1.447.12.088 9.297 1.403-.095-.044-9.321z" fill="#F9F9F9"/><path fill-rule="evenodd" clip-rule="evenodd" d="M25.834 19.39l1.448-.12-3.73-.715-.527.024.022.263 2.787.548z" fill="#F9F9F9"/><path fill-rule="evenodd" clip-rule="evenodd" d="M6.862 9.972c-.03-.146-.12-.292-.164-.486a2.689 2.689 0 01-.06-.535c0-.114 0-.114-.09-.13a1.64 1.64 0 01-.447-.08 6.677 6.677 0 01-.716-.276c-.254-.114-.493-.26-.612-.308-.12-.05-.12-.017-.12.097 0 .113.015.324 0 .567-.014.243-.03.535-.06.714-.029.178-.074.275-.074.356-.015.081.015.146.12.308.104.178.268.454.447.633.164.194.328.307.522.372.194.081.433.114.612.098.18-.017.284-.081.388-.244.09-.162.18-.421.224-.616.045-.162.06-.308.03-.47z" fill="#FFAF69"/><path fill-rule="evenodd" clip-rule="evenodd" d="M3.238 44.617c.075.146.209.389.298.68.09.309.12.682.135.892.015.227-.015.292-.09.325-.06.048-.179.064-.582.064-.403 0-1.104-.016-1.507-.032-.403-.016-.537-.032-.597-.065-.06-.032-.074-.097-.074-.243 0-.162-.015-.405.03-.665.044-.26.134-.519.238-.73.105-.226.21-.405.284-.47.074-.08.12-.064.283-.048.164.016.433.016.672.016.224 0 .403.016.522.016.12.017.18.017.224.05.045.032.09.08.164.21z" fill="#080902"/><path fill-rule="evenodd" clip-rule="evenodd" d="M2.222 46.368c.463 0 .955.016 1.194.016s.239 0 .239.065v.275c0 .081 0 .13-.015.163-.015.032-.03.032-.045.032H3.31c-.283 0-.835-.016-1.283-.016-.447 0-.79-.017-.97-.017-.179 0-.209 0-.223-.016-.015 0-.03-.016-.03-.032v-.114c0-.08 0-.243.015-.308.015-.08.03-.08.253-.064.239 0 .687 0 1.15.016z" fill="#FBD16B"/><path fill-rule="evenodd" clip-rule="evenodd" d="M5.058 9.956c.134.178.254.34.388.486.134.146.284.26.418.325.134.064.224.097.328.032.105-.049.194-.178.284-.421.09-.228.164-.568.194-.73.03-.162.03-.162.134-.065.104.097.298.292.746.519.448.227 1.134.486 1.596.648.135.049.612.243.702.243.955.082 2.014 3.162 2.417 3.632.522.616 1.06-.308 1.298.194.224.503.254.892.224 1.265-.03.373-.134.73-.358 1.038-.224.308-.552.567-.895.632-.075.016-.165.016-.24.016.135.989.12 1.816-.089 2.253-.209.454-.611.503-1.03.535-.417.033-.865.05-1.491.065-.627.017-1.448.049-2.358.049-.91.016-1.91.016-2.64.016-.732 0-1.21-.016-1.463-.032-.254-.016-.299-.016-.328-.243-.03-.227-.045-.649-.075-1.135-.03-.47-.075-.99-.164-1.41a4.198 4.198 0 00-.299-.957c-.09-.178-.164-.178-.313-.227a9.104 9.104 0 01-.701-.21c-.314-.114-.687-.26-.895-.358-.21-.097-.27-.146-.299-.21-.03-.065-.06-.13.015-.681.06-.551.224-1.573.388-2.302.164-.714.358-1.135.477-1.362.12-.227.165-.243.478-.373.313-.13.91-.373 1.417-.648.523-.276.97-.6 1.239-.811.268-.21.373-.292.418-.324.044-.049.044-.049.119.048.075.146.224.34.358.503z" fill="#E0E0E0"/><path fill-rule="evenodd" clip-rule="evenodd" d="M6.297 10.653c-.075.13-.134.162-.164.178-.045.017-.06.017-.18-.064a4.067 4.067 0 01-.551-.487c-.224-.227-.493-.535-.627-.68-.15-.147-.164-.147-.269-.098a2.675 2.675 0 00-.358.21c-.09.066-.09.114-.044.309a7.546 7.546 0 00.776 1.75c.134.195.208.244.313.211.104-.032.224-.146.373-.324.15-.178.343-.421.433-.535.104-.113.119-.113.283 0 .15.114.448.357.657.487.209.13.358.162.447.145.09 0 .135-.048.135-.21 0-.162-.015-.438-.03-.697-.015-.26 0-.52 0-.665 0-.146 0-.178-.03-.227-.03-.049-.105-.097-.239-.162-.134-.081-.328-.195-.433-.227-.104-.033-.104 0-.134.08-.015.098-.06.228-.12.422a3.977 3.977 0 01-.238.584z" fill="#BDBDBD"/><path fill-rule="evenodd" clip-rule="evenodd" d="M8.459 13.442c-.03.745-.03 1.605-.03 2.059-.015.454-.03.518-.06.55-.03.033-.09.05-.448.066s-1.03.032-1.67.048c-.627.033-1.224.065-1.523.098-.298.016-.328.016-.402-.503-.075-.535-.21-1.589-.388-2.48-.18-.908-.388-1.654-.508-2.092-.12-.438-.134-.567-.164-.648-.03-.081-.045-.13-.06-.13-.014-.016-.044 0-.06.016a.229.229 0 01-.089.065c-.045.016-.12.049-.194.065-.074.016-.134.016-.179.032a.158.158 0 00-.074.049c0 .032 0 .065.134.632.134.584.403 1.703.537 3.016s.15 2.837.15 3.745c0 .907-.016 1.215-.03 1.426-.016.211-.045.34-.15.39-.104.048-.268.048-.358.097-.09.048-.075.162-.075.21 0 .049 0 .049-.06.373-.059.308-.163.94-.268 1.88-.104.941-.194 2.173-.283 4.135-.09 1.945-.18 4.62-.358 7.57-.18 2.951-.463 6.194-.597 7.863-.135 1.67-.105 1.751-.06 1.784.045.048.105.048.552.08.433.033 1.254.098 1.656.114.418.017.433-.032.552-.81.135-.795.373-2.319.642-4.02.269-1.72.552-3.6.866-5.562.298-1.961.626-4.004.805-5.122.18-1.119.21-1.314.254-1.41.045-.098.075-.114.09.015 0 .13-.015.406.044 2.189.06 1.783.21 5.09.343 7.765.135 2.675.254 4.734.299 5.82.06 1.087.06 1.2.06 1.314 0 .13-.015.259.253.227.254-.033.791-.227 1.209-.406.432-.178.746-.356.925-.454.164-.097.194-.113.209-.13.015-.016.045-.048.045-.745.014-.697.014-2.075.074-4.507.075-2.432.209-5.917.254-8.414.044-2.513 0-4.037-.134-5.544-.135-1.508-.329-2.983-.493-4.767-.164-1.783-.268-3.858-.328-5.333-.06-1.476-.045-2.335-.045-2.805 0-.454.015-.519-.015-.535-.03-.032-.09-.032-.164-.049-.075-.016-.164-.064-.239-.097a.711.711 0 00-.209-.065c-.06 0-.09.033-.09.065-.014.033-.014.049-.014.195-.015.146-.03.405-.06.859 0 .438-.045 1.07-.074 1.816z" fill="#101E25"/><path fill-rule="evenodd" clip-rule="evenodd" d="M8.043 26.8c-.12.357-.313.957-.477 1.362-.15.405-.269.616-.343.94-.075.324-.12.762-.194 1.07-.075.308-.18.47-.239.568-.06.08-.06.08-.074-.357-.015-.454-.045-1.346-.06-1.962-.015-.616-.015-.94-.03-1.135 0-.194-.015-.275-.015-.308 0-.032 0-.032.12-.08.119-.05.358-.13.566-.26.21-.114.388-.26.522-.373.135-.113.224-.194.284-.194.06 0 .09.08.09.178-.016.08-.03.194-.15.551zm-.955-6.096c.358 0 .776-.016.97-.016.21 0 .21 0 .21.211 0 .21.014.648.029.973.015.324.015.535 0 .648-.015.114-.045.146-.418.162-.373.033-1.089.065-1.641.098-.552.016-.94.016-1.179 0-.239-.017-.313-.05-.358-.098-.045-.048-.045-.113-.045-.437 0-.325.015-.925.015-1.233v-.291h1.343c.403 0 .716 0 1.074-.017zm-3.552.016c0-.048-.015-.08-.06-.097-.044 0-.074.017-.09.065-.089.665-.193 1.346-.283 2.06-.09.712-.179 1.49-.253 2.366-.075.924-.135 1.93-.224 3.145-.075 1.119-.15 2.416-.269 3.956a1188.81 1188.81 0 01-.955 11.575v.016c0 .049.03.081.075.081s.075-.032.075-.08v-.017c.358-4.215.716-8.414.954-11.575.105-1.524.194-2.821.27-3.956.074-1.216.133-2.237.208-3.145a62.05 62.05 0 01.254-2.367c.104-.697.209-1.362.298-2.026zm6.685 22.422c.015.145.015.421.015.616 0 .194 0 .324-.015.421a.31.31 0 01-.09.243 1.442 1.442 0 01-.432.292 2.583 2.583 0 01-.731.195 3.678 3.678 0 01-.716.032 5.29 5.29 0 01-.612-.081c-.179-.032-.313-.081-.373-.162s-.06-.195-.06-.34c0-.146.015-.292.015-.454 0-.146-.03-.309-.015-.406.015-.097.075-.162.18-.162.104 0 .298.016.611.016s.79-.048 1.12-.113c.342-.065.566-.162.715-.227.15-.065.24-.081.299-.065.03.016.074.049.09.195z" fill="#080902"/><path fill-rule="evenodd" clip-rule="evenodd" d="M4.058 43.774c-.045.178-.12.421-.149.6-.03.178-.015.275-.015.356 0 .082-.03.13-.209.179a3.032 3.032 0 01-1.014.048 6.603 6.603 0 01-1.343-.291c-.329-.098-.388-.179-.433-.26a.493.493 0 01-.075-.275c0-.13.03-.34.06-.52.03-.177.06-.356.104-.47.045-.097.12-.145.21-.129.089.016.208.081.402.146a4.876 4.876 0 001.73.26c.3 0 .553-.05.672 0 .105.048.105.161.06.356z" fill="#080902"/><path fill-rule="evenodd" clip-rule="evenodd" d="M6.222 8.773c.104.032.224.048.298.064.075.033.105.065.12.146.014.081.03.195.044.292.015.097.015.146-.015.195a.437.437 0 01-.268.113c-.135.016-.329 0-.552-.065a3.172 3.172 0 01-.672-.292 2.708 2.708 0 01-.432-.275c-.075-.049-.075-.049-.075-.114v-.616c0-.016 0-.065.06-.048.044.016.149.08.343.162.209.08.522.21.73.275.195.114.3.146.419.163z" fill="#FF9E69"/><path fill-rule="evenodd" clip-rule="evenodd" d="M3.835 6.795c.045.016.045.016.09.21.044.179.149.552.268.811.105.243.239.373.478.567.238.195.611.438.925.584.313.146.567.162.73.178.165.017.255 0 .434-.08.179-.082.447-.26.686-.503.239-.26.463-.584.567-.827.104-.243.104-.39.134-.713.015-.325.06-.81.105-1.427.044-.6.12-1.33.149-1.767.03-.438.015-.6-.06-.81-.074-.211-.239-.47-.641-.746-.403-.276-1.045-.552-1.597-.584-.552-.049-1.015.146-1.373.324-.358.179-.582.324-.73.503-.15.178-.21.356-.254.567-.045.195-.09.422-.135.632-.045.227-.074.454-.134.633-.06.178-.134.324-.18.421-.044.098-.059.146-.074.179-.015.032-.03.048-.074.08-.03.033-.075.098-.105.26-.03.146-.03.373.015.567.045.195.12.34.224.487.104.13.209.26.313.34.105.065.194.098.239.114z" fill="#FFAF69"/><path fill-rule="evenodd" clip-rule="evenodd" d="M7.222 7.362c-.09 0-.209.033-.403.065a4.08 4.08 0 01-.627.049c-.194 0-.343-.033-.447-.065-.12-.033-.21-.065-.269-.081-.06 0-.074.016-.09.065 0 .048.016.097.06.21.045.114.135.308.254.438a.978.978 0 00.492.292c.18.048.373.032.553-.081.179-.097.328-.292.432-.454a1.17 1.17 0 00.164-.34c0-.065-.03-.098-.119-.098z" fill="#080902"/><path fill-rule="evenodd" clip-rule="evenodd" d="M7.116 7.41a.48.48 0 01-.06.13c-.03.05-.09.13-.134.195a1.11 1.11 0 01-.164.146c-.06.032-.104.032-.194.049-.09 0-.224 0-.328-.017a4.179 4.179 0 01-.298-.048c-.075-.017-.12-.033-.164-.081-.03-.033-.06-.098-.09-.146a.647.647 0 01-.03-.146c0-.033 0-.065.015-.081s.015-.016.075 0 .149.032.283.048c.134.017.284.033.448.017.164 0 .313-.033.432-.049.104-.016.15-.032.194-.032 0-.017.015-.017.015.016z" fill="#F9F9F9"/><path fill-rule="evenodd" clip-rule="evenodd" d="M6.625 5.822c0-.049-.03-.081-.075-.081-.044 0-.074.032-.074.081a.666.666 0 00.03.34c.03.065.06.114.104.163.045.048.09.08.12.113.03.016.044.033.074.065.045.032.074.049.09.081.014.016.014.032.03.049 0 .016.014.032.014.048v.033c0 .016-.015.016-.015.032l-.03.033c-.015.016-.044.032-.06.048a.427.427 0 01-.148.065.074.074 0 00-.045.097c.015.049.06.065.09.049.059-.016.104-.049.163-.065l.09-.049a.122.122 0 00.06-.064.361.361 0 01.044-.081c.015-.033.015-.065.015-.098a.244.244 0 00-.03-.097c-.015-.032-.03-.065-.044-.081-.03-.032-.06-.065-.105-.097-.015-.017-.045-.033-.074-.049-.03-.032-.075-.065-.105-.097a.494.494 0 01-.074-.114c-.06-.13-.045-.227-.045-.324z" fill="#F46F2D"/><path fill-rule="evenodd" clip-rule="evenodd" d="M7.938 4.752c-.074-.065-.223-.113-.358-.13a.91.91 0 00-.358-.016.954.954 0 00-.283.065c-.06.032-.09.081-.09.13 0 .048.03.08.075.113.06.016.15.016.239.016h.253c.09.017.194.033.269.049.074.016.12.032.164.032.06 0 .12-.032.134-.08.03-.05.03-.114-.045-.179zm-2.164-.178a.153.153 0 00-.045-.114.278.278 0 00-.179-.016c-.09.016-.238.032-.387.097a1.52 1.52 0 00-.388.195c-.09.08-.134.146-.134.21 0 .065.06.114.119.114.06 0 .12-.049.194-.113.09-.05.194-.114.298-.146.104-.033.194-.049.269-.065.074 0 .134 0 .179-.033a.359.359 0 00.074-.13z" fill="#211F17"/><path fill-rule="evenodd" clip-rule="evenodd" d="M7.623 5.579a.5.5 0 01.015.26 1.136 1.136 0 01-.074.242.3.3 0 01-.105.13.152.152 0 01-.12 0 .374.374 0 01-.118-.146.582.582 0 01-.045-.243c0-.081 0-.178.03-.26.03-.064.06-.13.104-.145.045-.033.12-.033.179 0 .075.032.104.08.134.162zm-1.98 0a.5.5 0 01.015.26 1.136 1.136 0 01-.075.242.3.3 0 01-.104.13.152.152 0 01-.12 0 .374.374 0 01-.119-.146.582.582 0 01-.045-.243c0-.081 0-.178.03-.26.03-.064.06-.13.105-.145.044-.033.119-.033.179 0 .074.032.119.08.134.162z" fill="#080902"/><path fill-rule="evenodd" clip-rule="evenodd" d="M4.312 5.74c0-.194.015-.518.045-.826.03-.308.09-.6.15-.827.059-.227.148-.389.238-.437.104-.065.224-.033.403-.017.179 0 .417-.016.597-.097.179-.08.313-.21.402-.324.09-.114.12-.21.15-.178.03.016.06.145.164.243.104.113.283.194.552.26.253.064.582.096.865.096.284 0 .522-.016.702-.097a.791.791 0 00.432-.34c.105-.162.18-.39.224-.6.045-.21.045-.422-.03-.6a.626.626 0 00-.343-.373c-.15-.065-.283-.065-.343-.113-.045-.065-.015-.146-.015-.292S8.49.894 8.355.667C8.237.44 7.999.18 7.73.067c-.269-.114-.582-.065-.806.016-.224.081-.358.21-.462.308-.105.097-.164.162-.269.146C6.102.52 5.983.39 5.834.31c-.15-.081-.313-.114-.582-.114-.254.017-.612.065-.91.244a1.789 1.789 0 00-.686.713c-.15.276-.194.535-.224.746-.03.21-.03.34-.045.454a.407.407 0 01-.12.243c-.044.065-.104.113-.134.389-.03.276-.044.794-.03 1.151.015.357.045.584.06.697.015.114.015.114.075.097.06 0 .164-.016.268.033.105.032.194.113.284.26.09.145.164.34.224.502.06.162.104.292.134.34.045.049.075.033.09-.016.074-.032.074-.114.074-.308z" fill="#403E32"/><path fill-rule="evenodd" clip-rule="evenodd" d="M8.727 15.792c-.06-1.653-.03-1.67-.06-1.67-.03-.016-.104-.032-.745-.194-.642-.162-1.836-.454-2.433-.6l-.596-.146.074 1.751c.075 1.75.21 5.269.284 7.02.074 1.75.074 1.75.074 1.88v.52c0 .145.015.194.478.47a30.72 30.72 0 001.984 1.02c.612.292.94.39 1.09.438.164.049.164.049.164-.324s0-1.135-.06-3.178c-.075-2.01-.194-5.317-.254-6.987z" fill="#F7CE66"/><path fill-rule="evenodd" clip-rule="evenodd" d="M6.297 13.523l.686.178.15 8.722-.642-.227-.194-8.673z" fill="#FBFBFC"/><path fill-rule="evenodd" clip-rule="evenodd" d="M4.582 20.445c-.015.21 0 .405.03.6.03.194.045.405.06.713.014.325 0 .762.03.973.014.227.06.227.178.243.12.016.329.065.523.081.209.016.403.033.746.081.343.049.835.13 1.074.162.239.033.254 0 .254-.048v-.179c0-.097.015-.243.015-1.28 0-1.038 0-2.967-.015-3.924-.015-.972-.015-.989-.06-.989-.03 0-.09 0-.537-.032-.448-.016-1.298-.065-1.716-.081l-.418-.016v.502c0 .503 0 1.492-.03 2.124-.044.6-.104.86-.134 1.07z" fill="#6A6856"/><path fill-rule="evenodd" clip-rule="evenodd" d="M6.057 17.267c-.343-.016-.686-.032-.85-.048l-.165-.016-.014.794c-.015.794-.045 2.367-.045 3.161-.015.795 0 .795.015.827.015.016.06.065.403.13s1.014.146 1.342.178c.329.033.344.033.344.033l.015-.86c0-.826.014-2.464.014-3.29 0-.827 0-.86-.014-.876 0-.016 0-.016-.18-.016-.179.016-.522 0-.865-.017z" fill="#E7E6E5"/><path fill-rule="evenodd" clip-rule="evenodd" d="M5.537 16.992v.097c0 .033.015.033.194.049s.537.032.716.032c.179 0 .194.016.194 0 0 0 .015-.016.015-.032v-.081c0-.016 0-.033-.015-.049l-.18-.016c-.178-.016-.536-.033-.715-.049-.18-.016-.18-.016-.194-.016-.015.032-.015.032-.015.065z" fill="#B1B1B1"/><path fill-rule="evenodd" clip-rule="evenodd" d="M5.596 17.17v.195c0 .049.015.049.149.065a7.5 7.5 0 01.582.032h.208c.015 0 .015 0 .015-.049 0-.048-.015-.13-.015-.178v-.049h-.03s-.014.017-.014.033-.015.049-.015.081 0 .065-.015.081-.045.016-.164.016a4.73 4.73 0 01-.492-.032c-.12-.016-.135-.016-.15-.016-.015 0-.015-.017-.015-.049s-.014-.097-.014-.13v-.032H5.61c0-.016-.015-.016-.015.032z" fill="#929293"/><path fill-rule="evenodd" clip-rule="evenodd" d="M5.79 17.349c-.015.016-.015.064-.015.097 0 .032.015.032.09.032h.328c.09 0 .09 0 .104-.016v-.065c0-.016 0-.032-.03-.032-.014 0-.06 0-.134-.016-.074 0-.208-.017-.268-.017-.06-.016-.06-.016-.075.017z" fill="#101E25"/><path fill-rule="evenodd" clip-rule="evenodd" d="M4.939 19.424c-.134.21-.224.34-.358.421-.135.081-.328.098-.716-.016-.388-.097-.97-.324-1.403-.503a5.378 5.378 0 01-.865-.437c-.15-.098-.15-.13-.15-.211 0-.081.015-.21.09-.551.074-.34.209-.892.268-1.168.06-.275.06-.275.045-.275s-.03-.016-.12-.033a7.983 7.983 0 00-.402-.13c-.15-.048-.298-.113-.477-.178-.18-.08-.374-.162-.478-.21l-.104-.049-.03.422c-.03.421-.105 1.28-.15 1.977C.046 19.181 0 19.732 0 20.04c0 .308.045.34.269.454.238.113.656.308 1.328.47.671.146 1.581.26 2.074.34.507.065.596.114.656.146.06.049.105.098.209.276.09.178.254.47.373.648.134.179.224.244.298.276.075.032.12.032.15.032s.03.017.074.065a.968.968 0 00.224.162c.075.049.15.049.194.033.045-.017.06-.081.075-.13s.015-.081.015-.146c0-.065.015-.146.015-.21 0-.066-.03-.13-.06-.179a1.062 1.062 0 00-.18-.195c-.059-.064-.134-.145-.163-.194-.03-.049-.045-.065-.015-.065s.09.016.164.032c.06.017.134.017.179-.032.045-.032.06-.113.06-.178 0-.065-.03-.114-.075-.179a1.14 1.14 0 01-.224-.34 4.09 4.09 0 01-.239-.697 5.14 5.14 0 01-.119-.535c-.015-.13-.015-.195.06-.324.06-.114.194-.292.253-.406a.433.433 0 00.09-.275 1.06 1.06 0 00-.03-.243c-.015-.05-.045-.033-.09-.017-.044.017-.089.049-.208.195-.105.146-.284.405-.418.6z" fill="#FFAF69"/><path fill-rule="evenodd" clip-rule="evenodd" d="M1.358 16.522c.224.08.343.13.417.146.06.016.06.016.06.032v.065c0 .016-.015.049-.074.081a.933.933 0 01-.329.097 2.277 2.277 0 01-.895-.081c-.119-.032-.223-.08-.283-.097-.06-.016-.06-.016-.045-.13.015-.113.03-.34.045-.437.015-.114.015-.114.06-.081.045.016.134.064.328.145.194.05.507.179.716.26z" fill="#FF9E69"/><path fill-rule="evenodd" clip-rule="evenodd" d="M8.758 1.623c0 .065.06.195.044.405-.015.211-.12.487-.298.714a1.49 1.49 0 01-.701.502c-.269.081-.567.049-.806.017-.239-.033-.433-.098-.507-.098-.075 0-.03.049.044.098.075.048.164.097.329.145.149.05.373.098.567.114.194.032.373.032.552.032.179 0 .358 0 .522-.048.164-.049.298-.162.403-.243a.992.992 0 00.194-.26 1.42 1.42 0 00.12-.308c.029-.113.044-.243.059-.356a.905.905 0 00-.015-.292c-.015-.081-.045-.146-.075-.211a.886.886 0 00-.104-.146.749.749 0 00-.18-.13c-.089.033-.148 0-.148.065z" fill="#4F4D3E"/><path fill-rule="evenodd" clip-rule="evenodd" d="M8.91 21.24c.03 1.248.075 3.047.09 3.955l.014.94v.162c0 .033.015.017 1.045-.21 1.044-.227 3.118-.665 4.148-.892 1.044-.227 1.044-.243 1.044-.276 0-.032 0-.048-.06-1.994-.059-1.945-.163-5.82-.208-7.765l-.06-1.93-1.044.147-4.178.583-1.045.146.03.762c.03.762.075 2.27.12 3.372.044 1.103.074 1.767.104 3z" fill="#DBB158"/><path fill-rule="evenodd" clip-rule="evenodd" d="M6.609 13.604c-.627-.162-1.18-.292-1.448-.357l-.268-.065 1.03-.097 4.132-.39c1.03-.097 1.03-.097 1.06-.097.03 0 .074.017.716.13.642.114 1.865.324 2.477.422l.611.097-.313.049c-.313.048-.955.13-2 .275-1.044.146-2.506.34-3.237.454l-.731.097-.358-.08c-.329-.098-1.045-.276-1.671-.438z" fill="#FBD16B"/><path fill-rule="evenodd" clip-rule="evenodd" d="M7.027 9.989l5.297.032.045 3.502-5.312.21-.03-3.744z" fill="#DBB158"/><path fill-rule="evenodd" clip-rule="evenodd" d="M6.506 10.005l.522-.016.03 3.744-.522-.291-.03-3.437z" fill="#F7CE66"/><path fill-rule="evenodd" clip-rule="evenodd" d="M9.967 10.005h-.895v2.707h.88l.015-2.707zm2.177 3.631l-.954.13.313 10.116.924-.179-.283-10.067z" fill="#FBFBFC"/><path fill-rule="evenodd" clip-rule="evenodd" d="M10.549 13.604l1.133-.05.463.082-.955.13-.641-.162zm-3.566.096l-.686-.177.507-.098.224.26-.045.016z" fill="#FBFBFC"/><path d="M11.74 10.588h-1.297v.908h1.298v-.908z" fill="#FBFBFC"/><path fill-rule="evenodd" clip-rule="evenodd" d="M12.787 14.35l1.521-.244v1.086l-1.52.244v-1.087z" fill="#FBFBFC"/><path fill-rule="evenodd" clip-rule="evenodd" d="M9.818 44.714c.075.146.209.39.299.681.089.308.119.681.134.892.015.227-.015.292-.09.324-.06.049-.179.065-.582.065-.403 0-1.104-.016-1.507-.033-.403-.016-.537-.032-.597-.064-.06-.033-.074-.098-.074-.244 0-.162-.015-.405.03-.664.044-.26.134-.52.238-.73.105-.227.21-.405.284-.47.075-.081.12-.065.283-.049.165.017.433.017.672.017.224 0 .403.016.522.016.12.016.18.016.224.049.06.032.09.064.164.21z" fill="#080902"/><path fill-rule="evenodd" clip-rule="evenodd" d="M8.816 46.449c.462 0 .955.016 1.194.016.238 0 .238 0 .238.065v.275c0 .081 0 .13-.015.163-.014.032-.03.032-.044.032h-.284c-.283 0-.835-.016-1.283-.016-.448 0-.79-.017-.97-.017-.179 0-.209 0-.224-.016-.015 0-.03-.016-.03-.032v-.114c0-.08 0-.243.015-.308.015-.08.03-.08.254-.065.239 0 .686.017 1.149.017z" fill="#FBD16B"/><path fill-rule="evenodd" clip-rule="evenodd" d="M4.073 1.137c.06.13.015.47.045.746a.99.99 0 00.329.648c.179.162.402.26.596.292a.818.818 0 00.493-.033c.134-.048.253-.146.328-.146.075 0 .104.065.075.146-.03.081-.12.195-.329.292a2.007 2.007 0 01-.88.179 1.386 1.386 0 01-.865-.373 1.186 1.186 0 01-.344-.779c-.015-.291.06-.616.194-.826.135-.195.299-.276.358-.146z" fill="#4F4D3E"/><path fill-rule="evenodd" clip-rule="evenodd" d="M33.073 26.423c-.285-1.24-.746-3.456-.965-4.934-.22-1.479-.22-2.17 0-2.694.22-.525.658-.835 1.426-1.097.768-.238 1.909-.405 4.081-.453 2.172-.047 5.398.024 7.372.12 1.975.095 2.72.214 3.27.5.57.286.943.739 1.053 1.43.11.715-.066 1.669-.33 3.1-.263 1.43-.614 3.337-.767 4.29-.176.954-.176.954-.395 1.216-.22.262-.68.81-1.097 1.454-.417.668-.79 1.43-1.075 1.764-.286.31-.461.191-.571.12-.088-.072-.088-.072-1.273-.024-1.184.047-3.554.167-5.046.119-1.492-.024-2.106-.215-2.413-.31-.308-.095-.308-.095-.395 0-.088.072-.242.238-.461-.12-.22-.357-.505-1.191-.834-1.74-.33-.548-.658-.786-.9-1.024-.263-.239-.395-.477-.68-1.717z" fill="#FDE742"/><path fill-rule="evenodd" clip-rule="evenodd" d="M35.97 30.833c.044.096.044.096-.264.406-.285.31-.877.93-1.162 1.263-.286.334-.308.358-.308.358s-.021 0-.11-.382c-.087-.405-.219-1.216-.416-1.835-.198-.62-.395-1.073-.614-1.383-.22-.31-.461-.524-.768-.667-.308-.167-.703-.287-.944-.358-.241-.072-.307-.072-.329-.072h.022s-.044 0-.022-.023c.022-.024.132-.048.549-.143.394-.072 1.096-.215 1.448-.263.35-.047.35-.024.395.024.021.048.087.12.131.19.066.072.11.12.241.192.132.071.33.19.505.286.176.095.307.214.417.31.132.119.241.262.373.429.132.19.241.405.351.62.11.214.198.429.285.62.11.166.176.333.22.428zm9.741-1.143c-.11.19-.263.476-.395.738-.131.238-.22.453-.285.572-.044.096-.044.096.241.382.308.286.9.834 1.185 1.12.307.286.307.31.33.31l.13-.286c.11-.286.352-.858.747-1.55.395-.69.943-1.478 1.25-2.002.308-.524.352-.787.44-.906.11-.12.263-.095.328-.072.066 0 .044 0-.175-.023-.241-.048-.68-.12-.965-.191a2.885 2.885 0 01-.527-.12c-.066-.023-.066-.023-.11 0-.044.025-.11.072-.285.192-.153.095-.395.238-.636.429-.242.166-.44.357-.615.524-.175.167-.285.334-.395.453-.087.12-.153.238-.263.43z" fill="#C6B532"/><path fill-rule="evenodd" clip-rule="evenodd" d="M34.653 32.288c-.33.286-.702.596-.79.667-.088.096.132-.024 2.414-.024 2.26 0 6.56.096 8.666.096 2.085 0 1.975-.12 1.931-.167-.066-.048-.066-.048-.22-.191l-.767-.715c-.307-.286-.593-.572-.746-.692-.154-.143-.154-.143-.198-.119-.044 0-.153.024-.548.024-.417 0-1.141-.024-2.48-.048-1.36-.023-3.335-.071-4.432-.119-1.097-.023-1.272-.047-1.36-.047-.088 0-.088 0-.175.071l-.461.5c-.242.215-.505.477-.834.764z" fill="#E8D43F"/><path fill-rule="evenodd" clip-rule="evenodd" d="M33.797 33.36c0 .358.022 1.05.022 1.383v.357s0 .024.746.048 2.216.048 4.498.048c2.282.024 5.398.048 6.955.048 1.558 0 1.58 0 1.58-.024.022-.024.044-.096.044-.5 0-.382 0-1.097-.022-1.479-.022-.381-.044-.429-.175-.429-.132-.024-.395-.024-1.449-.024h-5.002c-2.128 0-4.52-.047-5.749-.047h-1.36c-.044 0-.088 0-.088.023-.022.024-.022.048-.022.096 0 .071 0 .143.022.5z" fill="#F1DB41"/><path fill-rule="evenodd" clip-rule="evenodd" d="M47.38 33.146v1.215c0 .358-.023.525-.045.597 0 .071 0 .071-.044.071-.022 0-.087.024-.131.024h-3.796c-1.12 0-2.128 0-3.467-.024-1.36 0-3.072-.024-4.125-.048-1.053-.023-1.426-.023-1.601-.047-.176-.024-.176 0-.176-.024v-1.955c0-.095 0-.12.022-.143 0-.024.022-.024.044-.024h.154v-.143c0-.143-.022-.453-.066-.882-.044-.405-.088-.93-.132-1.287a4.002 4.002 0 00-.154-.763 3.534 3.534 0 00-.263-.596 2 2 0 00-.395-.477 2.015 2.015 0 00-.57-.357 4.804 4.804 0 00-.636-.215c-.176-.048-.286-.048-.417-.048a1.2 1.2 0 00-.461.096 1.23 1.23 0 00-.768 1.168c-.022.334.066.691.197 1.073.154.357.351.715.57 1.263.198.548.374 1.311.593 2.003.22.69.461 1.335.724 1.859.264.524.57.93.856 1.168.285.262.57.358.79.43.22.07.395.095 2.545.095s6.297-.024 8.447-.048c2.15-.024 2.304-.024 2.48-.096.175-.047.373-.166.636-.572.263-.405.592-1.12.812-1.835.22-.715.307-1.407.46-1.884.154-.5.373-.786.549-1.168a5.55 5.55 0 00.417-1.382c.088-.525.11-1.05.022-1.43a1.026 1.026 0 00-.46-.644c-.154-.096-.242-.12-.33-.12a.487.487 0 00-.263 0c-.132 0-.33.048-.527.096-.175.048-.329.12-.483.19a2.166 2.166 0 00-.46.382 3.228 3.228 0 00-.461.667 4.388 4.388 0 00-.373.883 5.744 5.744 0 00-.198.834c-.044.286-.087.62-.11.93-.021.31-.043.572-.043.715v.143h.088c.087 0 .263 0 .35.024.154-.024.176 0 .198.286z" fill="#FDE742"/><path fill-rule="evenodd" clip-rule="evenodd" d="M34.849 37.127h-.285c-.044 0-.044 0-.44 1.215a314.045 314.045 0 00-1.535 4.911c-.373 1.24-.373 1.288-.33 1.311.045.024.11.048.264.048.154 0 .417-.048.57-.095.154-.048.176-.096.527-.93.351-.834 1.031-2.431 1.536-3.623.505-1.216.878-2.027 1.031-2.432.154-.405.132-.405-.044-.405H34.85zm3.207 0h-.57l-.307.906a655.16 655.16 0 00-1.229 3.67c-.307.954-.329 1.002-.307 1.05.022.047.088.047.22.071.131 0 .328 0 .438-.024.11 0 .11 0 .505-.953.395-.954 1.185-2.837 1.58-3.79.395-.954.395-.954.329-.954h-.308c-.11.024-.197.024-.35.024zm8.487 0h.285c.044 0 .044 0 .439 1.215a314.045 314.045 0 011.536 4.911c.373 1.24.373 1.288.329 1.311-.044.024-.11.048-.264.048-.153 0-.416-.048-.57-.095-.154-.048-.176-.096-.527-.93-.35-.834-1.03-2.431-1.535-3.623-.505-1.216-.878-2.027-1.032-2.432-.153-.405-.131-.405.044-.405h1.295zm-3.2 0h.571l.307.906c.307.905.921 2.741 1.229 3.67.307.954.329 1.002.307 1.05-.022.047-.088.047-.22.071-.131 0-.329 0-.438-.024-.11 0-.11 0-.505-.953-.395-.954-1.185-2.837-1.58-3.79-.395-.954-.395-.954-.329-.954h.307c.11.024.198.024.351.024z" fill="#141515"/></svg>