<svg width="75" height="58" fill="none" xmlns="http://www.w3.org/2000/svg"><path fill-rule="evenodd" clip-rule="evenodd" d="M59.659 51.276l5.282.091-.409-10.315-5.282.03.409 10.194zm8.962-.335l5.283-.213-.409-9.98-5.282.244.409 9.949z" fill="#929293"/><path fill-rule="evenodd" clip-rule="evenodd" d="M74.225 39.288c-.788.79-1.401 1.43-1.839 1.916-5.661-.639-12.053-.912-19.261-.852.671-.669 1.897-1.247 3.677-1.734 10.39.122 16.197.335 17.423.67z" fill="#DBB158"/><path fill-rule="evenodd" clip-rule="evenodd" d="M74.164 55.718C72.997 57.483 72.5 57.97 72.5 57.97a355.699 355.699 0 01-.117-16.766 55.88 55.88 0 011.838-1.916c.059 11.105-.058 16.43-.058 16.43z" fill="#DBB158"/><path fill-rule="evenodd" clip-rule="evenodd" d="M72.384 41.235c-.087 4.93-.087 10.132.117 16.765-11.294-.152-19.465-.7-19.465-.7-.088-8.671-.059-14.33.087-16.917 6.45-.122 12.87.182 19.261.852zM55.925 39.47c-.087 0-.146-.061-.146-.183 0-.09.059-.182.146-.182 2.773-.091 5.604-.06 8.434.06 2.831.122 5.72.335 8.639.64.087 0 .146.09.116.181 0 .092-.058.153-.145.153-2.919-.305-5.779-.548-8.61-.639-2.86-.091-5.69-.121-8.434-.03z" fill="#F7CE66"/><path fill-rule="evenodd" clip-rule="evenodd" d="M61.147 40.444c.963.03 1.897.06 2.773.121.117-.121-.03 7.333 0 10.315 0 0-2.744-.122-2.86-.122-.03 0 0-3.438.087-10.314z" fill="#F9F9F9"/><path fill-rule="evenodd" clip-rule="evenodd" d="M63.917 40.566a182.53 182.53 0 00-2.773-.122c1.664-1.126 2.51-1.704 2.51-1.704 1.197.03 1.81.03 1.81.03-1.05 1.187-1.547 1.796-1.547 1.796z" fill="#E1E2E1"/><path fill-rule="evenodd" clip-rule="evenodd" d="M59.078 31.255c.175 1.886.496 5.203.671 6.937.175 1.735.175 1.856.788 1.948.613.09 1.868.182 3.064.152 1.168-.03 2.306-.213 2.89-.305.583-.09.67-.121.875-1.825.204-1.704.525-5.112.7-6.816.176-1.704.176-1.704.176-1.886 0-.183 0-.518-.292-.67-.292-.182-.905-.182-2.247-.182-1.343-.03-3.444-.061-4.699-.091s-1.693-.03-1.868.213c-.233.212-.233.639-.058 2.525z" fill="#FDE742"/><path fill-rule="evenodd" clip-rule="evenodd" d="M58.172 29.52c.38.122 1.021.366 1.926.518.904.152 2.043.243 3.18.243 1.139 0 2.248-.06 3.211-.182.963-.122 1.78-.335 2.218-.457.438-.122.555-.182.613-.243.058-.061.087-.122.087-.517V27.39c0-.365 0-.365-.554-.487-.555-.122-1.664-.335-3.269-.426a48.352 48.352 0 00-5.165.03c-1.401.092-2.101.213-2.452.274-.35.061-.35.091-.35.487s0 1.217.03 1.613c.029.456.145.486.525.638z" fill="#FBD16B"/><path fill-rule="evenodd" clip-rule="evenodd" d="M58.842 27.451c.496.153 1.547.274 2.802.335 1.254.091 2.684.122 3.852.091a25.676 25.676 0 002.51-.182c.496-.091.641-.152.641-.213s-.145-.152-.642-.274c-.496-.152-1.342-.365-2.743-.456-1.4-.092-3.327-.03-4.582.03-1.225.06-1.75.122-2.042.244-.292.121-.322.273.204.425z" fill="#080902"/><path fill-rule="evenodd" clip-rule="evenodd" d="M62.432 26.63c-.234-1.126-.555-3.347-.584-5.933-.03-2.587.233-5.507.846-7.729.613-2.22 1.576-3.712 2.452-4.929a49.21 49.21 0 012.013-2.617c.38-.456.38-.395.292 1.157-.087 1.582-.292 4.685-.7 7.18a28.998 28.998 0 01-1.664 6.055c-.642 1.674-1.284 3.073-1.634 4.351-.35 1.278-.409 2.404-.438 2.982-.029.578-.029.578-.117.578-.058.03-.204 0-.466-1.095z" fill="#60D213"/><path fill-rule="evenodd" clip-rule="evenodd" d="M62.555 26.052c0-.974-.03-3.134-.584-5.173-.554-2.069-1.605-4.047-2.772-5.507A14.444 14.444 0 0055.9 12.36c-.846-.578-1.284-.822-1.518-.822-.233 0-.233.213-.146.822.088.608.263 1.612.73 2.738a15.624 15.624 0 002.014 3.5c.817 1.095 1.663 1.947 2.393 2.86.73.882 1.284 1.795 1.78 2.647.496.851.875 1.673 1.109 2.19.233.517.292.73.292-.243zm2.241-2.982c.175-.608.7-1.826 1.75-2.769 1.051-.943 2.569-1.582 3.678-1.917 1.109-.365 1.78-.395 2.101-.395.321 0 .292.091.175.365-.116.274-.32.73-.73 1.4-.408.669-1.05 1.582-1.925 2.281-.905.7-2.043 1.187-2.89 1.43-.846.244-1.371.214-1.75.214-.38 0-.584 0-.41-.609z" fill="#60D213"/><path fill-rule="evenodd" clip-rule="evenodd" d="M56.127 14.398c-.029-.03-.029-.091 0-.121.03-.03.088-.03.117 0 .788 1.034 1.605 2.038 2.335 3.103.73 1.065 1.43 2.13 1.984 3.256.555 1.126.992 2.282 1.401 3.469.38 1.186.7 2.403 1.022 3.62 0 .061-.03.092-.059.122-.058 0-.087-.03-.117-.06a72.031 72.031 0 00-1.021-3.591c-.38-1.187-.817-2.343-1.372-3.469a21.596 21.596 0 00-1.984-3.225c-.73-1.065-1.518-2.07-2.306-3.104z" fill="#389E00"/><path fill-rule="evenodd" clip-rule="evenodd" d="M65.612 9.743c.03-.06.059-.06.117-.06.058.03.058.06.058.121a34.71 34.71 0 00-.73 2.1c-.233.76-.466 1.582-.7 2.555a34.557 34.557 0 00-.554 3.013c-.204 1.247-.38 2.586-.554 3.833a158.25 158.25 0 00-.672 6.42c0 .061-.058.092-.116.092-.059 0-.088-.061-.088-.122.204-2.069.38-4.138.671-6.45a86.55 86.55 0 01.555-3.834c.175-1.065.38-2.1.583-3.013a42.92 42.92 0 01.7-2.586c.234-.7.468-1.4.73-2.069zm4.696 9.737c.059-.03.088 0 .117.03.03.06 0 .091-.029.122-1.226.79-2.451 1.551-3.385 2.22-.467.336-.847.64-1.197.914-.35.274-.613.578-.875.852a4.317 4.317 0 00-.642.852 5.5 5.5 0 00-.438.943c-.234.7-.321 1.521-.438 2.343 0 .06-.058.091-.117.091-.058 0-.087-.06-.087-.122.117-.821.204-1.673.438-2.373.116-.365.262-.7.466-1.004.176-.304.41-.609.672-.882.262-.274.554-.579.875-.852.35-.305.73-.609 1.197-.944.992-.639 2.218-1.4 3.443-2.19z" fill="#389E00"/><path fill-rule="evenodd" clip-rule="evenodd" d="M18.656 49.348l-5.195.091.321-8.337 5.195.03-.321 8.216zm-8.816-.274l-5.195-.152.35-8.063 5.165.183-.32 8.032z" fill="#929293"/><path fill-rule="evenodd" clip-rule="evenodd" d="M4.238 39.672a47.55 47.55 0 011.839 1.552c5.545-.517 11.848-.73 18.91-.67-.67-.547-1.867-1.003-3.618-1.399-10.214.06-15.934.213-17.13.517z" fill="#DBB158"/><path fill-rule="evenodd" clip-rule="evenodd" d="M4.326 53.121c1.167 1.43 1.75 2.13 1.75 2.13.118-4.625.118-9.31 0-14.027a22.954 22.954 0 00-1.838-1.552l.088 13.449z" fill="#DBB158"/><path fill-rule="evenodd" clip-rule="evenodd" d="M6.05 41.224c.147 3.986.147 8.672 0 14.027l19.116-1.004c.03-7.029-.058-11.593-.233-13.692a186.781 186.781 0 00-18.882.67z" fill="#F7CE66"/><path fill-rule="evenodd" clip-rule="evenodd" d="M22.245 39.824c.088 0 .146-.06.146-.121 0-.092-.058-.152-.117-.152a150.877 150.877 0 00-8.288.03c-2.801.091-5.603.274-8.463.517-.088 0-.117.06-.117.152 0 .091.059.121.146.121 2.86-.243 5.662-.425 8.463-.516 2.744-.091 5.516-.091 8.23-.03z" fill="#FBD16B"/><path fill-rule="evenodd" clip-rule="evenodd" d="M17.11 40.615c-.964.03-1.868.061-2.715.092-.116-.092.088 5.933.088 8.337 0 0 2.685-.092 2.83-.092-.028-.03-.087-2.799-.203-8.337z" fill="#F9F9F9"/><path fill-rule="evenodd" clip-rule="evenodd" d="M14.396 40.707l2.714-.091c-1.663-.913-2.48-1.4-2.48-1.4-1.197.03-1.78.03-1.78.03 1.021.974 1.546 1.461 1.546 1.461z" fill="#E1E2E1"/><path d="M12.663 42.612l-4.788.53.342 3.359 4.789-.53-.343-3.36z" fill="#F9F9F9"/><path fill-rule="evenodd" clip-rule="evenodd" d="M11.764 42.137l-5.253-1.886-.116-17.678 5.457.912-.088 18.652z" fill="#DBB158"/><path fill-rule="evenodd" clip-rule="evenodd" d="M11.764 42.137l.087-18.652 5.954-.365-.234 18.439-5.807.578z" fill="#F7CE66"/><path fill-rule="evenodd" clip-rule="evenodd" d="M17.805 23.09l-5.953.517-5.457-1.065 5.69-.213 5.72.76z" fill="#DBA757"/><path fill-rule="evenodd" clip-rule="evenodd" d="M15.442 23.303l-1.926.152.116 11.866L15.5 35.2l-.058-11.897zm-1.927.151l1.926-.152-4.961-.912-.7.03.028.335 3.707.699z" fill="#F9F9F9"/><path fill-rule="evenodd" clip-rule="evenodd" d="M29.862 32.734c-.38-1.582-.992-4.412-1.284-6.299-.292-1.886-.292-2.768 0-3.438.292-.67.876-1.065 1.897-1.4 1.022-.304 2.54-.517 5.428-.578 2.89-.06 7.18.03 9.806.153 2.627.121 3.619.273 4.348.639.76.365 1.255.943 1.401 1.825.146.913-.087 2.13-.438 3.956-.35 1.825-.817 4.26-1.02 5.477-.234 1.217-.234 1.217-.526 1.551-.292.335-.905 1.035-1.46 1.856-.554.852-1.05 1.826-1.43 2.252-.379.395-.612.243-.758.152-.117-.091-.117-.091-1.693-.03-1.576.06-4.728.213-6.712.152-1.985-.03-2.802-.274-3.21-.396-.409-.122-.409-.122-.526 0-.116.091-.32.304-.613-.152-.291-.456-.67-1.521-1.108-2.221-.438-.7-.876-1.004-1.197-1.308-.35-.305-.525-.609-.905-2.191z" fill="#FDE742"/><path fill-rule="evenodd" clip-rule="evenodd" d="M33.715 38.363c.059.122.059.122-.35.517-.38.396-1.167 1.187-1.547 1.613l-.408.456s-.03 0-.146-.487c-.117-.517-.292-1.551-.555-2.343-.262-.79-.525-1.369-.817-1.764-.292-.396-.613-.67-1.021-.852-.409-.213-.934-.365-1.255-.457-.321-.09-.409-.09-.438-.09h.03s-.06 0-.03-.031c.03-.03.175-.061.73-.183.525-.091 1.459-.274 1.926-.335.467-.06.467-.03.525.03.03.062.117.153.175.244.088.092.146.152.321.244.175.091.438.243.671.365.234.121.409.274.555.395.175.152.321.335.496.548a7 7 0 01.467.791c.146.274.263.548.38.791.145.213.233.426.291.548zm12.956-1.461c-.146.244-.35.609-.525.944-.175.304-.292.578-.38.73-.058.121-.058.121.322.487.408.365 1.196 1.065 1.575 1.43.409.365.409.395.438.395l.175-.365a14.57 14.57 0 01.993-1.978c.525-.882 1.255-1.886 1.663-2.556.409-.669.467-1.004.584-1.156.146-.152.35-.121.438-.091.087 0 .058 0-.234-.03-.321-.061-.905-.153-1.284-.244a3.965 3.965 0 01-.7-.152c-.088-.03-.088-.03-.146 0-.059.03-.146.091-.38.243-.204.122-.525.305-.846.548-.321.213-.584.456-.817.67-.234.212-.38.425-.526.578-.116.152-.204.304-.35.547z" fill="#C6B532"/><path fill-rule="evenodd" clip-rule="evenodd" d="M31.962 40.219a63.3 63.3 0 01-1.05.852c-.117.122.174-.03 3.21-.03 3.005 0 8.725.121 11.527.121 2.772 0 2.627-.152 2.568-.213-.087-.06-.087-.06-.292-.243l-1.021-.913c-.409-.365-.788-.73-.992-.882-.205-.183-.205-.183-.263-.152-.058 0-.204.03-.73.03-.554 0-1.517-.03-3.297-.06-1.81-.031-4.436-.092-5.895-.153-1.46-.03-1.693-.06-1.81-.06-.117 0-.117 0-.233.09l-.613.64c-.321.273-.671.608-1.11.973z" fill="#E8D43F"/><path fill-rule="evenodd" clip-rule="evenodd" d="M30.822 41.588c0 .456.03 1.339.03 1.765v.456s0 .03.992.061c.992.03 2.947.06 5.982.06 3.035.031 7.18.062 9.252.062 2.072 0 2.1 0 2.1-.03.03-.031.06-.122.06-.64 0-.486 0-1.4-.03-1.886-.03-.487-.058-.548-.234-.548-.175-.03-.525-.03-1.926-.03h-6.654c-2.83 0-6.011-.061-7.646-.061h-1.81c-.057 0-.116 0-.116.03-.029.03-.029.061-.029.122 0 .091 0 .183.03.639z" fill="#F1DB41"/><path fill-rule="evenodd" clip-rule="evenodd" d="M48.89 41.314v1.552c0 .456-.03.67-.06.76 0 .092 0 .092-.057.092-.03 0-.117.03-.176.03H43.55c-1.489 0-2.831 0-4.611-.03-1.81 0-4.086-.03-5.487-.06-1.4-.031-1.897-.031-2.13-.062-.234-.03-.234 0-.234-.03v-2.495c0-.122 0-.152.03-.183 0-.03.029-.03.058-.03h.205v-.183c0-.182-.03-.578-.088-1.125-.059-.518-.117-1.187-.176-1.644a4.913 4.913 0 00-.204-.973 4.407 4.407 0 00-.35-.76 2.7 2.7 0 00-1.284-1.065 6.599 6.599 0 00-.846-.275c-.234-.06-.38-.06-.555-.06-.175 0-.38.03-.613.121a1.654 1.654 0 00-.671.487 1.53 1.53 0 00-.35 1.004c-.03.426.087.883.262 1.37.205.456.467.912.76 1.612.262.7.495 1.673.787 2.556.292.882.613 1.704.963 2.373.35.67.759 1.187 1.138 1.491.38.335.76.456 1.051.548.292.091.525.121 3.385.121s8.376-.03 11.236-.06c2.86-.03 3.064-.03 3.298-.122.233-.061.496-.213.846-.73.35-.518.788-1.43 1.08-2.343.292-.913.409-1.795.613-2.404.204-.639.496-1.004.73-1.49a6.874 6.874 0 00.554-1.766c.117-.67.146-1.338.029-1.825a1.316 1.316 0 00-.613-.822c-.204-.121-.32-.152-.438-.152-.116-.03-.175-.03-.35 0-.175 0-.438.06-.7.122-.234.06-.438.152-.642.243a2.863 2.863 0 00-.613.487 4.116 4.116 0 00-.613.852c-.204.335-.38.76-.496 1.126-.117.365-.204.7-.263 1.065a14.62 14.62 0 00-.146 1.186c-.029.396-.058.73-.058.913v.183h.117c.116 0 .35 0 .467.03.204-.03.233 0 .262.365z" fill="#FDE742"/><path fill-rule="evenodd" clip-rule="evenodd" d="M32.224 46.395h-.38c-.058 0-.058 0-.584 1.552a389.283 389.283 0 00-2.042 6.268c-.497 1.582-.497 1.643-.438 1.674.058.03.146.06.35.06s.555-.06.759-.121c.204-.061.233-.122.7-1.187.467-1.065 1.372-3.103 2.043-4.625.671-1.552 1.168-2.586 1.372-3.103.204-.518.175-.518-.059-.518h-1.721zm4.266 0h-.759l-.408 1.157a830.29 830.29 0 00-1.635 4.685c-.408 1.217-.438 1.278-.408 1.34.029.06.117.06.292.09.175 0 .437 0 .583-.03.146 0 .146 0 .672-1.217.525-1.217 1.575-3.62 2.1-4.838.526-1.217.526-1.217.438-1.217h-.408c-.146.03-.263.03-.467.03zm11.288 0h.38c.058 0 .058 0 .583 1.552a390.28 390.28 0 012.043 6.268c.496 1.582.496 1.643.438 1.674-.059.03-.146.06-.35.06-.205 0-.555-.06-.76-.121-.203-.061-.233-.122-.7-1.187-.466-1.065-1.371-3.103-2.042-4.625-.672-1.552-1.168-2.586-1.372-3.103-.204-.518-.175-.518.058-.518h1.722zm-4.258 0h.759l.409 1.157a918.407 918.407 0 011.634 4.685c.409 1.217.438 1.278.409 1.34-.03.06-.117.06-.292.09-.175 0-.438 0-.584-.03-.146 0-.146 0-.671-1.217s-1.576-3.62-2.101-4.838c-.526-1.217-.526-1.217-.438-1.217h.408c.147.03.263.03.468.03zM5.784 53.972c-.613-.03-1.43-.06-2.072-.091-.642-.03-1.05-.061-1.43-.122-.38-.03-.73-.091-.934-.152-.204-.03-.292-.06-.35-.091-.059-.03-.088-.061-.088-.061v.852l.321.06c.321.062.934.214 2.16.366a47 47 0 004.815.335 47.1 47.1 0 004.932-.183c1.313-.122 2.072-.243 2.48-.365.41-.092.468-.152.468-.183.029-.03.029-.03.029-.182v-.578c0-.153 0-.153-.03-.122a.317.317 0 01-.145.091 2.42 2.42 0 01-.38.091c-.175.03-.408.061-.788.122-.379.03-.875.091-1.371.122-.496.03-.963.06-1.518.091-.554.03-1.138.03-1.78.061H7.097c-.35-.03-.73-.06-1.313-.06z" fill="#141515"/><path fill-rule="evenodd" clip-rule="evenodd" d="M8.5 54.002c4.202 0 7.617-.244 7.617-.578 0-.334-3.415-.578-7.617-.578-4.203 0-7.617.244-7.617.578 0 .334 3.414.578 7.617.578z" fill="#080902"/><path fill-rule="evenodd" clip-rule="evenodd" d="M2.078.816c-.175.092-.175.092-.467 1.491C1.348 3.707.794 6.476.5 7.906c-.29 1.43-.26 1.46-.26 1.49 0 .031 0 .031.088.062.087.03.233.121.642.243.408.122 1.05.274 2.685.365 1.605.091 4.202.122 6.362.061 2.16-.06 3.852-.183 4.873-.335.993-.121 1.314-.243 1.46-.304l.145-.06-.175-1.461c-.175-1.46-.496-4.382-.67-5.842-.176-1.46-.176-1.46-.264-1.522-.116-.03-.32-.121-.875-.243-.555-.091-1.4-.183-2.685-.274-1.284-.06-2.977-.122-4.523-.06-1.547.03-2.919.182-3.794.334-.876.213-1.255.365-1.43.456z" fill="#FDE742"/><path fill-rule="evenodd" clip-rule="evenodd" d="M5.171 9.032c-.759.03-1.605.09-2.364.121-.759.06-1.372.091-1.722.152-.35.03-.408.06-.262.122.146.06.467.182.963.273.496.092 1.167.152 1.897.183.758.03 1.576.06 2.451.09.876.031 1.78.031 2.89 0 1.108-.03 2.45-.09 3.56-.151 1.109-.06 2.043-.182 2.597-.243.555-.061.788-.122.876-.183.087-.06.058-.09-.088-.152-.146-.06-.38-.09-1.138-.152a64.96 64.96 0 00-3.386-.152c-1.371-.03-2.801-.03-3.852-.03-1.021.06-1.663.091-2.422.122z" fill="#080902"/><path fill-rule="evenodd" clip-rule="evenodd" d="M8.76 29.053V9.885l.088-.061c.087-.061.233-.152.35-.335.117-.152.175-.365.204-.456l.03-.092H7.417c-.059 0-.059 0-.059.061.03.061.059.213.146.335.088.122.234.274.321.335.088.091.146.121.175.121l.03.03v43.603h.671v-4.29c.029-4.26.029-12.81.058-20.082z" fill="#141515"/></svg>