<svg width="60" height="47" fill="none" xmlns="http://www.w3.org/2000/svg"><path fill-rule="evenodd" clip-rule="evenodd" d="M48.15 41.551l4.28.074-.33-8.358-4.28.024.33 8.26zm7.264-.271l4.28-.173-.33-8.087-4.281.197.331 8.063z" fill="#929293"/><path fill-rule="evenodd" clip-rule="evenodd" d="M59.955 31.836a44.416 44.416 0 00-1.49 1.554c-4.588-.518-9.767-.74-15.609-.69.544-.543 1.538-1.012 2.98-1.406 8.42.099 13.125.271 14.119.542z" fill="#DBB158"/><path fill-rule="evenodd" clip-rule="evenodd" d="M59.905 45.15c-.946 1.43-1.348 1.825-1.348 1.825a288.1 288.1 0 01-.094-13.585 44.61 44.61 0 011.49-1.554c.047 9-.048 13.315-.048 13.315z" fill="#DBB158"/><path fill-rule="evenodd" clip-rule="evenodd" d="M58.463 33.414A271.5 271.5 0 0058.558 47c-9.152-.123-15.774-.567-15.774-.567-.07-7.027-.047-11.613.071-13.709 5.226-.099 10.43.148 15.608.69zm-13.338-1.43c-.07 0-.118-.05-.118-.148 0-.074.047-.147.118-.147a90.23 90.23 0 016.835.049c2.294.098 4.635.27 7 .517.07 0 .118.074.094.148 0 .074-.047.123-.118.123-2.365-.246-4.682-.443-6.976-.517-2.318-.074-4.612-.099-6.835-.025z" fill="#F7CE66"/><path fill-rule="evenodd" clip-rule="evenodd" d="M49.357 32.773c.78.025 1.537.05 2.247.099.094-.099-.024 5.942 0 8.358 0 0-2.223-.098-2.318-.098-.023 0 0-2.786.071-8.359z" fill="#F9F9F9"/><path fill-rule="evenodd" clip-rule="evenodd" d="M51.602 32.872c-1.49-.074-2.246-.099-2.246-.099 1.347-.912 2.033-1.38 2.033-1.38.97.024 1.466.024 1.466.024a53.106 53.106 0 00-1.253 1.455z" fill="#E1E2E1"/><path fill-rule="evenodd" clip-rule="evenodd" d="M47.681 25.327c.142 1.529.402 4.216.544 5.622.142 1.405.142 1.504.639 1.578.496.074 1.513.148 2.483.123.946-.025 1.868-.172 2.341-.246.473-.074.544-.1.71-1.48.165-1.38.425-4.142.567-5.523.142-1.38.142-1.38.142-1.529 0-.148 0-.419-.236-.542-.237-.148-.734-.148-1.822-.148-1.087-.025-2.79-.05-3.807-.074-1.017-.024-1.372-.024-1.514.173-.189.172-.189.518-.047 2.046z" fill="#FDE742"/><path fill-rule="evenodd" clip-rule="evenodd" d="M46.945 23.922c.308.098.828.296 1.561.419a16.2 16.2 0 002.578.197c.922 0 1.82-.05 2.601-.148.78-.098 1.443-.271 1.798-.37.354-.098.449-.148.496-.197.048-.05.071-.099.071-.419v-1.208c0-.296 0-.296-.45-.395a16.725 16.725 0 00-2.648-.345 39.153 39.153 0 00-4.186.025c-1.135.074-1.702.172-1.986.222-.284.049-.284.074-.284.394s0 .986.024 1.307c.023.37.118.395.425.518z" fill="#FBD16B"/><path fill-rule="evenodd" clip-rule="evenodd" d="M47.49 22.245c.401.123 1.253.222 2.27.271 1.016.074 2.175.099 3.121.074a20.81 20.81 0 002.034-.148c.402-.074.52-.123.52-.172 0-.05-.118-.124-.52-.222-.402-.123-1.088-.296-2.223-.37-1.135-.074-2.696-.025-3.713.025-.993.049-1.419.098-1.655.197-.237.099-.26.222.165.345z" fill="#080902"/><path fill-rule="evenodd" clip-rule="evenodd" d="M50.398 21.58c-.19-.913-.45-2.713-.473-4.808-.024-2.096.189-4.463.685-6.263.497-1.8 1.278-3.008 1.987-3.995.71-.986 1.324-1.75 1.632-2.12.307-.37.307-.32.236.937-.07 1.282-.236 3.797-.567 5.819a23.497 23.497 0 01-1.348 4.906c-.52 1.357-1.04 2.49-1.325 3.526-.284 1.036-.33 1.948-.354 2.417-.024.468-.024.468-.095.468-.047.025-.166 0-.378-.888z" fill="#60D213"/><path fill-rule="evenodd" clip-rule="evenodd" d="M50.497 21.11c0-.788-.023-2.539-.472-4.19a12.62 12.62 0 00-2.247-4.464 11.7 11.7 0 00-2.672-2.44c-.686-.469-1.041-.666-1.23-.666-.19 0-.19.172-.118.666.07.493.212 1.306.59 2.219.38.937.97 1.972 1.633 2.835.662.888 1.347 1.578 1.939 2.318.59.715 1.04 1.454 1.442 2.145.402.69.71 1.356.899 1.775.19.42.236.592.236-.197zm1.816-2.415a5.105 5.105 0 011.419-2.244c.851-.764 2.081-1.282 2.98-1.553.898-.296 1.442-.321 1.702-.321s.237.074.142.296c-.094.222-.26.592-.59 1.134-.332.542-.852 1.282-1.562 1.85-.733.566-1.655.96-2.34 1.158-.687.197-1.112.173-1.42.173-.307 0-.473 0-.33-.493z" fill="#60D213"/><path fill-rule="evenodd" clip-rule="evenodd" d="M45.288 11.668c-.023-.025-.023-.074 0-.1a.07.07 0 01.095 0c.638.84 1.3 1.653 1.892 2.516.591.863 1.159 1.726 1.608 2.638.45.912.804 1.85 1.135 2.81.307.962.568 1.949.828 2.935 0 .05-.024.074-.048.099-.047 0-.07-.025-.094-.05a58.27 58.27 0 00-.828-2.91 20.307 20.307 0 00-1.111-2.81 17.493 17.493 0 00-1.608-2.614c-.592-.863-1.23-1.676-1.869-2.514z" fill="#389E00"/><path fill-rule="evenodd" clip-rule="evenodd" d="M52.976 7.895c.023-.049.047-.049.094-.049.047.025.047.05.047.099a28.1 28.1 0 00-.59 1.7 33.6 33.6 0 00-.568 2.072c-.166.74-.331 1.553-.45 2.441-.165 1.01-.307 2.096-.449 3.107-.236 1.873-.402 3.55-.544 5.202 0 .05-.047.074-.094.074-.048 0-.071-.05-.071-.099.165-1.676.307-3.353.544-5.227a70.17 70.17 0 01.449-3.106 43.66 43.66 0 01.473-2.441c.189-.79.378-1.48.567-2.096.19-.567.379-1.134.592-1.677zm3.806 7.89c.047-.024.07 0 .094.025.024.05 0 .074-.023.098-.994.642-1.987 1.258-2.744 1.8-.378.272-.685.518-.97.74-.283.222-.496.469-.709.69a3.496 3.496 0 00-.52.69 4.45 4.45 0 00-.355.765c-.189.567-.26 1.233-.354 1.899 0 .05-.048.074-.095.074s-.07-.05-.07-.099c.094-.666.165-1.356.354-1.923.094-.296.213-.567.378-.814a3.8 3.8 0 01.544-.715c.213-.222.45-.468.71-.69.283-.247.59-.493.97-.764.803-.518 1.797-1.135 2.79-1.776z" fill="#389E00"/><path fill-rule="evenodd" clip-rule="evenodd" d="M14.923 39.989l-4.21.074.261-6.756 4.21.025-.26 6.657zm-7.143-.222l-4.21-.123.284-6.534 4.186.148-.26 6.51z" fill="#929293"/><path fill-rule="evenodd" clip-rule="evenodd" d="M3.241 32.148c.639.518 1.135.937 1.49 1.258 4.493-.42 9.601-.592 15.325-.543-.544-.444-1.514-.813-2.933-1.134-8.277.05-12.912.173-13.882.42z" fill="#DBB158"/><path fill-rule="evenodd" clip-rule="evenodd" d="M3.312 43.046a238.978 238.978 0 001.42 1.726 227.65 227.65 0 000-11.366c-.474-.444-.97-.863-1.49-1.258l.07 10.898z" fill="#DBB158"/><path fill-rule="evenodd" clip-rule="evenodd" d="M4.709 33.406c.118 3.23.118 7.027 0 11.366l15.49-.813c.024-5.696-.047-9.395-.19-11.096a151.366 151.366 0 00-15.3.543z" fill="#F7CE66"/><path fill-rule="evenodd" clip-rule="evenodd" d="M17.833 32.271c.07 0 .118-.049.118-.098 0-.074-.047-.123-.095-.123a122.14 122.14 0 00-6.716.024c-2.27.074-4.54.222-6.858.42-.07 0-.095.048-.095.122s.048.099.119.099c2.317-.197 4.588-.345 6.858-.419 2.223-.074 4.47-.074 6.669-.025z" fill="#FBD16B"/><path fill-rule="evenodd" clip-rule="evenodd" d="M13.67 32.913c-.78.024-1.513.049-2.198.073-.095-.073.07 4.808.07 6.756 0 0 2.176-.074 2.294-.074-.023-.024-.07-2.268-.165-6.755z" fill="#F9F9F9"/><path fill-rule="evenodd" clip-rule="evenodd" d="M11.472 32.987l2.2-.074c-1.349-.74-2.01-1.135-2.01-1.135-.97.025-1.443.025-1.443.025.828.79 1.253 1.184 1.253 1.184z" fill="#E1E2E1"/><path d="M10.068 34.53l-3.88.43.277 2.722 3.88-.43-.277-2.722z" fill="#F9F9F9"/><path fill-rule="evenodd" clip-rule="evenodd" d="M9.34 34.145l-4.257-1.528-.095-14.325 4.423.74-.071 15.113z" fill="#DBB158"/><path fill-rule="evenodd" clip-rule="evenodd" d="M9.339 34.145l.07-15.114 4.825-.296-.189 14.942-4.706.468z" fill="#F7CE66"/><path fill-rule="evenodd" clip-rule="evenodd" d="M14.235 18.71l-4.824.42-4.423-.863 4.612-.173 4.635.617z" fill="#DBA757"/><path fill-rule="evenodd" clip-rule="evenodd" d="M12.32 18.883l-1.561.123.094 9.616 1.514-.098-.047-9.64zm-1.562.123l1.561-.123-4.02-.74-.568.025.024.271 3.003.567z" fill="#F9F9F9"/><path fill-rule="evenodd" clip-rule="evenodd" d="M24.006 26.526c-.307-1.283-.804-3.576-1.04-5.104-.237-1.529-.237-2.244 0-2.786.236-.543.709-.863 1.537-1.135.827-.246 2.057-.419 4.398-.468 2.342-.05 5.818.025 7.946.123 2.129.099 2.933.222 3.524.518.615.296 1.017.764 1.135 1.48.118.739-.07 1.725-.355 3.205a261.36 261.36 0 00-.827 4.438c-.19.986-.19.986-.426 1.257-.236.272-.733.839-1.182 1.504-.45.69-.852 1.48-1.16 1.825-.307.32-.496.197-.614.123-.095-.074-.095-.074-1.372-.024-1.277.049-3.83.172-5.439.123-1.608-.025-2.27-.222-2.601-.32-.331-.1-.331-.1-.426 0-.095.073-.26.246-.497-.124-.236-.37-.543-1.233-.898-1.8s-.71-.814-.97-1.06c-.284-.247-.426-.493-.733-1.775z" fill="#FDE742"/><path fill-rule="evenodd" clip-rule="evenodd" d="M27.128 31.087c.047.099.047.099-.284.42-.307.32-.946.96-1.253 1.306-.307.345-.331.37-.331.37s-.024 0-.118-.395c-.095-.419-.237-1.257-.45-1.898-.212-.641-.425-1.11-.662-1.43-.236-.32-.496-.543-.828-.69-.33-.173-.756-.296-1.016-.37-.26-.074-.331-.074-.355-.074h.024s-.048 0-.024-.025.142-.05.591-.148c.426-.074 1.183-.222 1.56-.271.38-.05.38-.025.427.024.023.05.094.124.142.198a.81.81 0 00.26.197c.142.074.354.197.544.296.189.098.33.222.449.32.142.124.26.271.402.444.142.197.26.42.378.641.119.222.213.444.308.641.118.173.189.345.236.444zm10.499-1.183c-.118.197-.284.493-.426.764-.142.246-.236.468-.307.592-.047.098-.047.098.26.394.331.296.97.863 1.277 1.159.331.296.331.32.355.32l.142-.295c.118-.296.378-.888.804-1.603.425-.715 1.017-1.529 1.348-2.071.33-.543.378-.814.473-.937.118-.123.284-.099.355-.074.07 0 .047 0-.19-.025-.26-.05-.733-.123-1.04-.197a3.23 3.23 0 01-.568-.123c-.07-.025-.07-.025-.118 0-.047.024-.118.074-.307.197-.166.099-.426.247-.686.444-.26.172-.473.37-.662.542-.19.173-.308.345-.426.469-.095.123-.166.246-.284.444z" fill="#C6B532"/><path fill-rule="evenodd" clip-rule="evenodd" d="M25.708 32.591c-.355.296-.757.617-.851.69-.095.1.141-.024 2.6-.024 2.437 0 7.072.098 9.342.098 2.247 0 2.129-.123 2.081-.172-.07-.05-.07-.05-.236-.197l-.828-.74c-.331-.296-.638-.592-.804-.715-.166-.148-.166-.148-.213-.123-.047 0-.165.024-.591.024-.45 0-1.23-.024-2.672-.05a236.546 236.546 0 01-4.777-.122c-1.183-.025-1.372-.05-1.467-.05-.094 0-.094 0-.189.074l-.497.518c-.26.222-.543.493-.898.79z" fill="#E8D43F"/><path fill-rule="evenodd" clip-rule="evenodd" d="M24.784 33.7c0 .37.024 1.085.024 1.43v.37s0 .025.804.05c.804.024 2.389.049 4.848.049 2.46.025 5.818.05 7.497.05 1.679 0 1.703 0 1.703-.025.023-.025.047-.099.047-.518 0-.395 0-1.134-.024-1.529-.023-.394-.047-.444-.189-.444-.142-.024-.426-.024-1.56-.024H32.54c-2.294 0-4.871-.05-6.196-.05H24.88c-.047 0-.095 0-.095.025-.023.025-.023.05-.023.099 0 .074 0 .148.023.517z" fill="#F1DB41"/><path fill-rule="evenodd" clip-rule="evenodd" d="M39.425 33.479v1.257c0 .37-.024.543-.048.617 0 .073 0 .073-.047.073-.024 0-.095.025-.142.025h-4.091c-1.206 0-2.294 0-3.737-.025-1.466 0-3.31-.024-4.446-.049-1.135-.025-1.537-.025-1.726-.05-.19-.024-.19 0-.19-.024v-2.022c0-.098 0-.123.024-.148 0-.024.024-.024.048-.024h.165v-.148c0-.148-.023-.469-.07-.912-.048-.42-.095-.962-.143-1.332a3.994 3.994 0 00-.165-.789 3.59 3.59 0 00-.284-.616 2.189 2.189 0 00-1.04-.863 5.319 5.319 0 00-.686-.222c-.19-.05-.308-.05-.45-.05a1.35 1.35 0 00-.496.1 1.34 1.34 0 00-.544.394 1.24 1.24 0 00-.284.813c-.024.345.07.715.213 1.11.165.37.378.74.615 1.307.212.567.402 1.356.638 2.07.237.716.497 1.382.78 1.924.284.542.616.962.923 1.208.307.271.615.37.851.444.237.074.426.099 2.744.099 2.317 0 6.787-.025 9.104-.05 2.318-.024 2.483-.024 2.673-.098.189-.05.402-.173.686-.592.283-.42.638-1.159.875-1.899.236-.74.33-1.454.496-1.947.166-.518.402-.814.591-1.209.19-.394.355-.887.45-1.43.094-.542.118-1.085.023-1.48a1.066 1.066 0 00-.496-.665c-.166-.099-.26-.123-.355-.123-.095-.025-.142-.025-.284 0-.142 0-.355.05-.567.099-.19.049-.355.123-.52.197a2.32 2.32 0 00-.497.394 3.338 3.338 0 00-.497.69 4.438 4.438 0 00-.402.913 5.743 5.743 0 00-.213.863c-.047.296-.094.641-.118.961-.024.321-.047.592-.047.74v.148h.094c.095 0 .284 0 .379.025.165-.025.189 0 .212.296z" fill="#FDE742"/><path fill-rule="evenodd" clip-rule="evenodd" d="M25.92 37.596h-.308c-.048 0-.048 0-.473 1.258a315.803 315.803 0 00-1.656 5.079c-.402 1.282-.402 1.331-.355 1.356.048.025.119.05.284.05.166 0 .45-.05.615-.1.166-.049.19-.098.568-.961.378-.863 1.111-2.515 1.655-3.748.544-1.257.946-2.096 1.112-2.515.165-.419.142-.419-.048-.419H25.92zm3.457 0h-.615l-.331.937a665.37 665.37 0 00-1.325 3.797c-.33.986-.354 1.036-.33 1.085.023.05.094.05.236.074.142 0 .354 0 .473-.025.118 0 .118 0 .544-.986.425-.986 1.277-2.934 1.702-3.92.426-.986.426-.986.355-.986h-.331a1.767 1.767 0 01-.378.024zm9.146 0h.307c.048 0 .048 0 .473 1.258a314.809 314.809 0 011.656 5.079c.402 1.282.402 1.331.355 1.356-.048.025-.119.05-.284.05-.166 0-.45-.05-.615-.1-.166-.049-.19-.098-.568-.961-.378-.863-1.111-2.515-1.655-3.748-.544-1.257-.946-2.096-1.112-2.515-.165-.419-.142-.419.048-.419h1.395zm-3.449 0h.615l.33.937c.332.937.994 2.836 1.325 3.797.331.986.355 1.036.331 1.085-.023.05-.094.05-.236.074-.142 0-.355 0-.473-.025-.119 0-.119 0-.544-.986-.426-.986-1.277-2.934-1.703-3.92-.426-.986-.426-.986-.355-.986h.331c.119.024.213.024.379.024zm-30.58 6.14c-.496-.025-1.159-.05-1.679-.074-.52-.025-.851-.05-1.159-.099A4.096 4.096 0 01.9 43.44a.886.886 0 01-.284-.074.293.293 0 01-.071-.05v.692l.26.05c.26.049.757.172 1.75.295.97.124 2.436.247 3.902.272 1.466.024 2.956-.05 3.997-.148 1.064-.099 1.679-.198 2.01-.296.331-.074.378-.123.378-.148.024-.025.024-.025.024-.148v-.468c0-.124 0-.124-.024-.1a.25.25 0 01-.118.075c-.07.025-.165.05-.307.074-.142.024-.331.05-.639.098-.307.025-.71.074-1.111.099-.402.025-.78.05-1.23.074-.45.025-.922.025-1.443.05H5.558c-.283-.025-.59-.05-1.064-.05z" fill="#141515"/><path fill-rule="evenodd" clip-rule="evenodd" d="M6.694 43.76c3.405 0 6.172-.197 6.172-.468s-2.767-.468-6.172-.468c-3.406 0-6.173.197-6.173.468 0 .27 2.767.468 6.173.468z" fill="#080902"/><path fill-rule="evenodd" clip-rule="evenodd" d="M1.49.661c-.14.074-.14.074-.377 1.209a387.288 387.288 0 01-.899 4.536C-.023 7.566.001 7.59.001 7.615c0 .024 0 .024.07.049.072.025.19.099.52.197.332.099.852.222 2.177.296 1.3.074 3.405.099 5.155.05 1.75-.05 3.122-.149 3.95-.272.803-.099 1.064-.197 1.182-.246l.118-.05-.142-1.183c-.142-1.184-.402-3.55-.544-4.734-.142-1.184-.142-1.184-.213-1.233-.094-.025-.26-.099-.709-.197C11.115.218 10.43.144 9.389.07 8.35.02 6.977-.03 5.724.02a21.404 21.404 0 00-3.075.272c-.71.172-1.017.296-1.158.37z" fill="#FDE742"/><path fill-rule="evenodd" clip-rule="evenodd" d="M3.997 7.319c-.615.024-1.3.074-1.915.098-.615.05-1.112.074-1.396.123-.283.025-.33.05-.212.099.118.05.378.148.78.222.402.074.946.123 1.537.147.615.025 1.277.05 1.987.074.71.025 1.442.025 2.34 0 .9-.024 1.987-.074 2.886-.123.899-.05 1.655-.148 2.105-.197.45-.05.638-.098.71-.148.07-.049.046-.074-.072-.123-.118-.05-.307-.074-.922-.123a52.637 52.637 0 00-2.743-.123C7.97 7.22 6.812 7.22 5.96 7.22c-.828.05-1.348.074-1.963.099z" fill="#080902"/><path fill-rule="evenodd" clip-rule="evenodd" d="M6.906 23.543V8.01l.07-.05c.072-.049.19-.122.284-.27.095-.124.142-.296.166-.37l.024-.074H5.818c-.047 0-.047 0-.047.05.023.048.047.172.118.27.07.099.189.222.26.271.07.074.118.1.142.1l.023.024v35.332h.544v-3.476c.024-3.452.024-10.38.048-16.273z" fill="#141515"/></svg>