<svg width="13" height="13" fill="none" xmlns="http://www.w3.org/2000/svg"><g clip-path="url(#clip0_2_3723)" stroke="#BDBDBD" stroke-linecap="round" stroke-linejoin="round"><path d="M2 1.5h3v3"/><path d="M8.666 1.755c1.022.325 1.899.94 2.499 1.754.6.812.89 1.779.827 2.753-.064.974-.477 1.903-1.178 2.648-.701.744-1.652 1.263-2.71 1.479a5.512 5.512 0 01-3.152-.284c-.99-.4-1.807-1.078-2.33-1.933a4.12 4.12 0 01-.572-2.805c.152-.966.649-1.862 1.416-2.552L5.888.5"/></g><defs><clipPath id="clip0_2_3723"><path fill="#fff" transform="rotate(-90 6.25 6.25)" d="M0 0h12v13H0z"/></clipPath></defs></svg>