<svg width="80" height="80" fill="none" xmlns="http://www.w3.org/2000/svg"><g opacity=".1" clip-path="url(#clip0_137_1304)" fill="#4AAB3C"><path d="M40 0C17.944 0 0 17.944 0 40s17.944 40 40 40 40-17.944 40-40C80 17.945 62.056 0 40 0zm0 76.013C20.142 76.013 3.987 59.858 3.987 40 3.987 20.143 20.142 3.987 40 3.987c19.858 0 36.013 16.156 36.013 36.013 0 19.858-16.156 36.013-36.013 36.013z"/><path d="M38.006 38.007H22.1v3.987h19.893v-30.33h-3.987v26.343z"/></g><defs><clipPath id="clip0_137_1304"><path fill="#fff" d="M0 0h80v80H0z"/></clipPath></defs></svg>