<svg width="80" height="80" fill="none" xmlns="http://www.w3.org/2000/svg"><path opacity=".1" d="M57.778 8.418H22.222v2.104c0 1.162-.995 2.105-2.222 2.105-1.227 0-2.222-.943-2.222-2.105V8.418H11.11c-3.682 0-6.667 2.826-6.667 6.313v10.522h71.112V14.731c0-3.487-2.985-6.313-6.667-6.313h-6.667v2.104c0 1.162-.995 2.105-2.222 2.105-1.227 0-2.222-.943-2.222-2.105V8.418zm4.444-4.21h6.667C75.025 4.209 80 8.92 80 14.732v54.747C80 75.289 75.025 80 68.889 80H11.11C4.975 80 0 75.289 0 69.478V14.73C0 8.92 4.975 4.21 11.111 4.21h6.667V2.104C17.778.942 18.773 0 20 0c1.227 0 2.222.942 2.222 2.104V4.21h35.556V2.104C57.778.942 58.773 0 60 0c1.227 0 2.222.942 2.222 2.104V4.21zm13.334 25.254H4.444v40.016c0 3.487 2.985 6.313 6.667 6.313H68.89c3.682 0 6.667-2.826 6.667-6.313V29.462z" fill="#4AAB3C"/></svg>