<svg width="80" height="80" fill="none" xmlns="http://www.w3.org/2000/svg"><g opacity=".1" fill="#4AAB3C"><path d="M40 0C26.745 0 16 13.432 16 30c0 16.568 10.745 30 24 30s24-13.432 24-30C64 13.432 53.255 0 40 0zm0 56c-11.028 0-20-11.664-20-26S28.972 4 40 4s20 11.664 20 26-8.972 26-20 26z"/><path d="M57.47 56.525a28.519 28.519 0 01-3.409 2.828c3.81 1.77 7.154 3.243 10.008 4.49C74.662 68.465 76 69.38 76 72c0 1.812-1.783 4-4 4H8c-2.216 0-4-2.188-4-4 0-2.62 1.337-3.535 11.93-8.157a453.383 453.383 0 0010.007-4.49 28.559 28.559 0 01-3.409-2.828C5.875 64.147 0 65.168 0 72c0 4 3.581 8 8 8h64c4.419 0 8-4 8-8 0-6.832-5.875-7.853-22.53-15.475z"/></g></svg>