<svg width="78" height="46" fill="none" xmlns="http://www.w3.org/2000/svg"><path fill-rule="evenodd" clip-rule="evenodd" d="M13.223 40.323L14.697.203l1.016-.025-1.306 40.12-1.184.025z" fill="#DBA757"/><path fill-rule="evenodd" clip-rule="evenodd" d="M14.412 40.297L15.718.177l.314.077-1.233 39.84-.387.203z" fill="#FBD16B"/><path fill-rule="evenodd" clip-rule="evenodd" d="M23.106 40.425L22.381.076 23.3 0l.87 40.323-1.064.102z" fill="#DBA757"/><path fill-rule="evenodd" clip-rule="evenodd" d="M24.173 40.323L23.303 0l.29.076.919 40.044-.339.203z" fill="#FBD16B"/><path fill-rule="evenodd" clip-rule="evenodd" d="M15.763 4.577l.024-1.348 6.649-.127.024 1.398-6.697.077zM22.523 9l-6.915.127-.048 1.475 7.01-.025L22.524 9zm.13 6.636l-7.277.05-.024 1.526h7.35l-.049-1.576zm.141 7.144l-7.664.026v1.449l7.688.05-.024-1.525zm.121 7.602l-8.1.025-.047 1.678 8.196-.025-.049-1.678z" fill="#DBA757"/><path fill-rule="evenodd" clip-rule="evenodd" d="M57.856 43.45c2.006 0 3.65-1.703 3.65-3.814 0-2.11-1.644-3.813-3.65-3.813-2.007 0-3.65 1.703-3.65 3.813 0 2.085 1.643 3.814 3.65 3.814z" fill="#141515"/><path fill-rule="evenodd" clip-rule="evenodd" d="M57.868 41.162c.822 0 1.475-.687 1.475-1.55 0-.84-.653-1.552-1.475-1.552-.822 0-1.474.687-1.474 1.551 0 .864.652 1.55 1.474 1.55z" fill="#CBCCCD"/><path fill-rule="evenodd" clip-rule="evenodd" d="M57.042 38.975c-.87-.66-2.539-1.957-3.385-2.644-.846-.66-.895-.686-.943-.712-.048-.025-.121-.025-2.007-.05l-7.47-.102-1.862-.026-.556-1.398-2.273-5.72c-.629-1.526-.75-1.78-1.281-2.543-.508-.762-1.427-1.983-2.128-2.847-.725-.865-1.233-1.348-1.765-1.755-.532-.406-1.04-.737-1.378-.915-.363-.178-.532-.229-.773-.203-.242 0-.532.05-.653.076-.145.026-.121.051-.121.153v.559s.024 0 .193.025c.145 0 .435.026.605.051.193.026.29.051.628.255.339.203.919.584 1.475 1.042.532.458 1.016.966 1.596 1.678a25.54 25.54 0 011.789 2.491c.556.916 1.015 1.857 1.523 3.051a83.104 83.104 0 011.426 3.865c.411 1.195.677 2.11.847 2.568.145.457.193.483.338.483.145.025.435.025 1.765.05 1.33.026 3.723.052 5.61.077 1.91.025 3.311.025 4.037 0h.798c.048 0 .072.025.797.585.702.559 2.08 1.627 2.853 2.212.75.584.87.66.992.712.096.076.193.127.265.101.073 0 .146-.076.17-.152.024-.077-.024-.153-.073-.204-.12-.076-.169-.101-1.04-.763z" fill="#141515"/><path fill-rule="evenodd" clip-rule="evenodd" d="M49.687 36.459h.483c.024 0 .024 0-.145.203-.17.203-.508.585-1.402 1.627-.895 1.043-2.37 2.72-3.216 3.687-.846.966-1.088 1.17-1.257 1.347-.17.178-.314.28-.483.382-.194.101-.46.178-.75.203-.314.025-.677-.026-.87-.102-.218-.076-.266-.152-.29-.28-.025-.127 0-.254 0-1.474 0-1.195-.025-3.432-.025-4.576v-1.12h.484v5.391c0 1.119.024 1.195.097 1.246.072.076.217.127.386.152.17.026.387.026.508 0 .145 0 .194-.025 1.21-1.068a683.769 683.769 0 003.94-4.296c1.015-1.119 1.112-1.246 1.16-1.297.049-.05.049-.05.073-.05-.024.025 0 .025.097.025z" fill="#6A6856"/><path fill-rule="evenodd" clip-rule="evenodd" d="M60.436 27.535c-.29.203-.774.559-1.233 1.093-.46.534-.895 1.27-1.306 2.034-.411.762-.798 1.601-1.136 2.212-.339.61-.653 1.042-.967 1.372a4.34 4.34 0 01-1.04.814 3.94 3.94 0 01-1.064.407 4.506 4.506 0 01-1.112.127c-.484.025-1.16 0-2.732-.026-1.571-.025-4.062-.05-5.633-.076-1.548-.025-2.176-.025-2.49-.025h-.315l-.072-.204a36.3 36.3 0 00-.58-1.449c-.315-.813-.798-2.034-1.161-2.924-.363-.89-.58-1.449-.822-2.034-.242-.584-.484-1.194-.629-1.5l-.12-.305h.531c.532 0 1.62-.025 4.546-.101 2.925-.077 7.712-.23 10.976-.33 3.264-.103 4.98-.128 5.875-.153.895-.026.943-.026.943.025.024.05.024.127.024.254s0 .305-.048.433c-.049.076-.145.152-.435.356z" fill="#CBCCCD"/><path fill-rule="evenodd" clip-rule="evenodd" d="M38.93 35.441c-.364 0-.364 0-.364.026a436.553 436.553 0 00.629 7.424c.12 1.449.12 1.474.145 1.5.024.025.048.076.29.101.242.051.653.077 1.378.102a73.52 73.52 0 002.345.026c.63 0 .87-.026 1.016-.051.12-.026.145-.026.145-.026l.193-1.5c.17-1.5.532-4.5.726-6.05.193-1.552.169-1.602.169-1.653 0-.051 0-.026-.798 0-.798.025-2.418.025-3.578.05-1.209.051-1.934.051-2.297.051z" fill="#F9F9F9"/><path fill-rule="evenodd" clip-rule="evenodd" d="M38.266 25.195c-.629-.559-1.668-1.627-2.297-3.025-.604-1.424-.774-3.204-.677-4.526a8.182 8.182 0 01.653-2.695c.242-.534.338-.762.508-.762.169 0 .386.254.725.712a9.844 9.844 0 011.16 1.983c.387.89.701 1.983.895 3.152a20.57 20.57 0 01.29 3.33c0 1.018-.048 1.882-.12 2.289-.05.407-.122.33-.243.254-.096-.05-.266-.127-.894-.712zm3.248-7.475c-.338.026-.677.484-.943 1.12-.29.635-.507 1.474-.628 2.465-.145.992-.194 2.162-.17 3.331.049 1.195.17 2.415.339 3.153.145.737.314 1.017.411 1.144.12.127.17.127.314 0 .145-.153.363-.433.605-1.017.242-.56.532-1.399.75-2.466.217-1.068.338-2.34.386-3.56.048-1.22-.024-2.339-.218-3.102-.193-.737-.507-1.118-.846-1.067z" fill="#33BB1F"/><path fill-rule="evenodd" clip-rule="evenodd" d="M43.032 10.602c-.194.305-.484.661-.75 1.271-.266.61-.507 1.45-.628 2.44a14.137 14.137 0 00.048 3.484c.17 1.297.532 2.695.774 3.585.266.89.435 1.271.556 1.424.12.178.17.127.46-.23a8.622 8.622 0 001.16-1.88c.386-.865.628-1.907.773-3.128.145-1.22.17-2.593-.169-3.966-.314-1.348-.967-2.67-1.354-3.305-.362-.636-.46-.56-.532-.407-.072.178-.145.407-.338.712z" fill="#60D213"/><path fill-rule="evenodd" clip-rule="evenodd" d="M43.705 24a8.679 8.679 0 00-.677 1.856c-.145.61-.193 1.144-.12 1.678.048.534.217 1.043.41 1.475.194.432.411.763.556.89.145.127.218.05.436-.356.217-.407.58-1.144.797-2.136.218-.966.29-2.16.242-3.05-.072-.89-.266-1.475-.58-1.475-.314-.026-.75.508-1.064 1.118z" fill="#33BB1F"/><path fill-rule="evenodd" clip-rule="evenodd" d="M49.12 22.678c-.483.255-1.305.738-1.982 1.577-.653.839-1.137 2.06-1.45 3.127a13.19 13.19 0 00-.509 2.72c-.048.712.024 1.17.049 1.399.048.229.048.229.46.05.41-.177 1.208-.533 1.86-1.093.654-.559 1.161-1.347 1.5-2.212.362-.864.556-1.78.677-2.77.12-.992.145-2.035.145-2.569 0-.534-.049-.534-.121-.534-.049 0-.17.051-.629.305z" fill="#60D213"/><path fill-rule="evenodd" clip-rule="evenodd" d="M36.533 16.093c-.024-.025 0-.076.048-.101.024-.026.073 0 .097.05.604 1.73 1.185 3.484 1.62 5.136.217.814.387 1.627.556 2.492.145.864.29 1.754.41 2.822.122.89.218 1.907.315 2.873.145 1.297.242 2.542.339 3.432.145 1.576.169 2.11.193 2.644 0 .051-.024.076-.072.076-.049 0-.073-.025-.073-.076-.024-.534-.048-1.068-.193-2.644-.073-.89-.194-2.135-.339-3.432-.096-.966-.217-1.983-.314-2.873a49.734 49.734 0 00-.411-2.797 27.839 27.839 0 00-.532-2.466c-.435-1.652-1.04-3.407-1.644-5.136zm4.809 4.043c0-.051.048-.076.072-.051.049 0 .073.05.049.076-.097.712-.194 1.424-.29 2.11-.097.712-.17 1.424-.218 2.162-.048.737-.096 1.5-.12 2.313a84.138 84.138 0 00-.05 2.568c0 1.83 0 3.966.025 6.102 0 .05-.024.076-.072.076-.049 0-.073-.025-.073-.076-.024-2.136-.048-4.246-.024-6.102 0-.915.024-1.78.048-2.568.024-.813.073-1.576.121-2.313.048-.738.145-1.475.242-2.187.072-.712.17-1.398.29-2.11zm3.217 3.788c0-.05.024-.076.073-.076.048 0 .072.025.072.076-.048 1.144-.12 2.314-.242 3.305-.12.865-.266 1.602-.435 2.39l-.072.382c-.097.508-.218 1.042-.315 1.55-.096.458-.169.916-.242 1.348-.145.915-.241 1.703-.338 2.466 0 .051-.048.076-.073.051-.048 0-.072-.05-.048-.076.097-.789.194-1.551.339-2.467.072-.432.145-.89.241-1.372.097-.534.218-1.068.315-1.551l.072-.382c.17-.788.339-1.525.435-2.39.097-.94.17-2.084.218-3.254zm4.211.051c.024-.026.048-.05.097-.026.024.026.048.051.024.102-.314.61-.605 1.22-.919 1.856a32.683 32.683 0 00-.87 1.882c-.266.61-.532 1.22-.75 1.805a40.8 40.8 0 00-.7 1.83c-.194.534-.34.992-.484 1.399-.121.406-.218.762-.315 1.067-.072.306-.12.56-.169.814-.048.229-.072.458-.097.661 0 .05-.048.076-.072.05-.048 0-.073-.05-.048-.075.024-.204.048-.433.096-.687.049-.254.097-.508.17-.813.072-.306.169-.662.314-1.094.12-.407.29-.89.483-1.424.194-.559.435-1.194.701-1.855.242-.585.484-1.195.75-1.806.29-.635.58-1.27.895-1.881.265-.56.58-1.195.894-1.805zm-5.366-11.822c0-.051.024-.077.073-.077.048 0 .072.026.072.077.049 1.754.121 3.534.049 5.313a68.99 68.99 0 01-.218 2.797c-.097.991-.242 2.085-.387 3.407l-.12 1.068c-.29 2.415-.653 5.212-.847 7.042-.217 2.085-.242 2.873-.266 3.661 0 .051-.024.076-.072.076-.049 0-.073-.025-.073-.076.024-.788.049-1.576.266-3.66.194-1.806.532-4.628.846-7.043l.121-1.068c.17-1.297.29-2.39.387-3.407.097-.992.17-1.882.218-2.771.072-1.806.024-3.585-.049-5.34z" fill="#509663"/><path fill-rule="evenodd" clip-rule="evenodd" d="M65.928 40.094l4.376.076-.338-8.593-4.376.025.338 8.492zm7.44-.28l4.352-.152-.339-8.34-4.352.178.339 8.314z" fill="#929293"/><path fill-rule="evenodd" clip-rule="evenodd" d="M77.999 30.102a45.69 45.69 0 00-1.524 1.602c-4.69-.534-9.985-.763-15.956-.712.556-.56 1.571-1.042 3.046-1.45 8.607.077 13.418.255 14.434.56z" fill="#DBB158"/><path fill-rule="evenodd" clip-rule="evenodd" d="M77.925 43.806c-.968 1.475-1.379 1.881-1.379 1.881a299.14 299.14 0 01-.096-14.008 46.517 46.517 0 011.523-1.602c.048 9.28-.048 13.729-.048 13.729z" fill="#DBB158"/><path fill-rule="evenodd" clip-rule="evenodd" d="M76.482 31.704a280.54 280.54 0 00.097 14.009c-9.356-.127-16.126-.585-16.126-.585-.073-7.246-.048-11.975.072-14.136 5.32-.102 10.638.153 15.957.712zM62.826 30.23c-.073 0-.12-.052-.12-.153 0-.077.047-.153.12-.153a91.641 91.641 0 016.987.051c2.345.102 4.739.28 7.157.534.072 0 .12.076.096.152 0 .077-.048.127-.12.127-2.418-.254-4.788-.457-7.133-.533a128.42 128.42 0 00-6.987-.026z" fill="#F7CE66"/><path fill-rule="evenodd" clip-rule="evenodd" d="M67.147 31.043c.798.025 1.571.05 2.297.102.096-.102-.025 6.127 0 8.618 0 0-2.273-.101-2.37-.101l.073-8.62z" fill="#F9F9F9"/><path fill-rule="evenodd" clip-rule="evenodd" d="M69.448 31.145a141.678 141.678 0 00-2.297-.102 473.48 473.48 0 002.08-1.424c.99.026 1.499.026 1.499.026l-1.282 1.5z" fill="#E1E2E1"/><path fill-rule="evenodd" clip-rule="evenodd" d="M65.463 23.365a867.7 867.7 0 00.556 5.797c.145 1.449.145 1.55.652 1.627.508.076 1.548.152 2.539.127.967-.026 1.91-.178 2.394-.254.483-.077.556-.102.725-1.526.17-1.424.435-4.271.58-5.695.145-1.424.145-1.424.145-1.576 0-.153 0-.432-.242-.56-.241-.152-.75-.152-1.861-.152-1.112-.025-2.853-.051-3.893-.076-1.04-.026-1.402-.026-1.547.178-.218.178-.194.559-.048 2.11z" fill="#FDE742"/><path fill-rule="evenodd" clip-rule="evenodd" d="M64.692 21.916c.314.101.846.305 1.596.432.749.127 1.692.203 2.635.203.943 0 1.861-.05 2.66-.152.797-.102 1.474-.28 1.837-.382.362-.101.46-.152.507-.203.049-.05.073-.102.073-.432v-1.246c0-.305 0-.305-.46-.407a17.004 17.004 0 00-2.707-.356 39.741 39.741 0 00-4.28.026c-1.16.076-1.74.178-2.03.229-.29.05-.29.076-.29.406s0 1.017.024 1.348c.024.381.12.432.435.534z" fill="#FBD16B"/><path fill-rule="evenodd" clip-rule="evenodd" d="M65.244 20.187c.411.127 1.282.229 2.321.28 1.04.076 2.225.101 3.192.076a21.093 21.093 0 002.079-.153c.411-.076.532-.127.532-.178 0-.05-.121-.127-.532-.229-.411-.127-1.112-.305-2.273-.38-1.16-.077-2.756-.026-3.795.025-1.016.05-1.451.101-1.693.203-.217.102-.242.229.17.356z" fill="#080902"/><path fill-rule="evenodd" clip-rule="evenodd" d="M68.238 19.5c-.193-.94-.46-2.796-.483-4.957-.024-2.161.193-4.602.7-6.458.509-1.856 1.306-3.102 2.032-4.119a41.12 41.12 0 011.668-2.186c.314-.382.314-.331.242.966-.073 1.322-.242 3.915-.58 6a24.395 24.395 0 01-1.379 5.06c-.532 1.398-1.063 2.567-1.353 3.635-.29 1.068-.339 2.008-.363 2.492-.024.483-.024.483-.097.483-.072.025-.193.025-.387-.916z" fill="#33BB1F"/><path fill-rule="evenodd" clip-rule="evenodd" d="M68.307 19.043c0-.814-.024-2.619-.483-4.322a13.054 13.054 0 00-2.297-4.602 12.002 12.002 0 00-2.732-2.517c-.701-.483-1.064-.687-1.257-.687-.194 0-.194.178-.121.687.072.508.217 1.347.604 2.288a13.09 13.09 0 001.668 2.924c.677.915 1.378 1.627 1.983 2.39.604.737 1.064 1.5 1.475 2.212.41.711.725 1.398.918 1.83.194.432.242.585.242-.203z" fill="#60D213"/><path fill-rule="evenodd" clip-rule="evenodd" d="M70.177 16.526a5.272 5.272 0 011.451-2.314c.87-.788 2.128-1.322 3.046-1.601.92-.306 1.475-.331 1.741-.331s.242.076.145.305a8.69 8.69 0 01-.604 1.17c-.339.559-.87 1.322-1.596 1.906-.75.585-1.692.992-2.393 1.195-.701.204-1.137.178-1.451.178-.314 0-.484 0-.339-.508z" fill="#33BB1F"/><path fill-rule="evenodd" clip-rule="evenodd" d="M62.993 9.28c-.024-.026-.024-.077 0-.102a.07.07 0 01.096 0c.653.864 1.33 1.703 1.935 2.593.604.89 1.184 1.78 1.644 2.72.459.941.822 1.907 1.16 2.899.314.991.58 2.008.846 3.025 0 .051-.024.077-.048.102-.048 0-.073-.025-.097-.05a60.653 60.653 0 00-.846-3 21.07 21.07 0 00-1.136-2.9 18.07 18.07 0 00-1.644-2.694c-.58-.89-1.258-1.729-1.91-2.593z" fill="#509663"/><path fill-rule="evenodd" clip-rule="evenodd" d="M70.852 5.39c.024-.05.048-.05.096-.05.049.025.049.05.049.1-.218.56-.411 1.145-.605 1.755a34.8 34.8 0 00-.58 2.136 29.24 29.24 0 00-.46 2.517c-.169 1.042-.314 2.16-.459 3.203a133.45 133.45 0 00-.556 5.365c0 .05-.048.076-.097.076-.048 0-.072-.05-.072-.102.17-1.728.314-3.457.556-5.39.12-1.042.29-2.16.46-3.203.145-.89.314-1.754.483-2.517.193-.814.387-1.525.58-2.161.194-.585.411-1.17.605-1.729zm3.891 8.136c.049-.026.073 0 .097.025.024.051 0 .076-.024.102-1.016.66-2.031 1.296-2.805 1.856-.387.28-.7.534-.991.763-.29.228-.508.483-.725.712a3.602 3.602 0 00-.532.711 4.614 4.614 0 00-.363.788c-.193.585-.266 1.272-.363 1.958 0 .051-.048.076-.096.076-.049 0-.073-.05-.073-.101.097-.687.17-1.399.363-1.983.097-.305.217-.585.387-.84a3.89 3.89 0 01.556-.737c.217-.229.46-.483.725-.712.29-.254.605-.508.991-.788.822-.508 1.838-1.17 2.853-1.83z" fill="#509663"/><path fill-rule="evenodd" clip-rule="evenodd" d="M11.198 40.857l-4.038.076.266-6.56 4.014.026-.242 6.458zm-6.84-.229L.32 40.526l.266-6.33 4.014.152-.242 6.28z" fill="#929293"/><path fill-rule="evenodd" clip-rule="evenodd" d="M0 33.255c.604.508 1.088.915 1.426 1.22 4.304-.407 9.212-.584 14.7-.508-.532-.432-1.45-.788-2.804-1.093-7.955.025-12.38.152-13.322.38z" fill="#DBA757"/><path fill-rule="evenodd" clip-rule="evenodd" d="M.048 43.806l1.378 1.678c.097-3.636.097-7.297 0-11.009-.459-.407-.942-.839-1.426-1.22.024 7.042.048 10.551.048 10.551z" fill="#DBB158"/><path fill-rule="evenodd" clip-rule="evenodd" d="M1.395 34.475c.096 3.128.096 6.789 0 11.01 9.912-.535 14.868-.789 14.868-.789.025-5.492-.048-9.076-.169-10.729-4.908-.076-9.792.102-14.7.508zm12.592-1.093c.048 0 .097-.05.097-.102 0-.05-.049-.101-.097-.101-2.128-.051-4.28-.051-6.431.025-2.176.076-4.376.203-6.576.407-.049 0-.097.05-.097.127 0 .05.048.102.12.102 2.225-.204 4.4-.33 6.577-.407a89.761 89.761 0 016.407-.051z" fill="#F7CE66"/><path fill-rule="evenodd" clip-rule="evenodd" d="M10.005 33.992c-.75.026-1.45.051-2.103.077-.097-.077.072 4.652.072 6.534 0 0 2.104-.077 2.2-.077-.048 0-.096-2.16-.169-6.534z" fill="#F9F9F9"/><path fill-rule="evenodd" clip-rule="evenodd" d="M7.879 34.068l2.103-.076C8.701 33.28 8.048 32.9 8.048 32.9c-.919.025-1.378.025-1.378.025a62.224 62.224 0 011.209 1.144z" fill="#E1E2E1"/><path d="M6.526 35.573l-3.703.414.266 2.63 3.702-.415-.265-2.629z" fill="#F9F9F9"/><path fill-rule="evenodd" clip-rule="evenodd" d="M5.855 35.187l-4.086-1.45-.073-13.881 4.231.712-.072 14.619z" fill="#DBB158"/><path fill-rule="evenodd" clip-rule="evenodd" d="M5.86 35.187l.072-14.62 4.618-.279-.17 14.466-4.52.433z" fill="#F7CE66"/><path fill-rule="evenodd" clip-rule="evenodd" d="M10.545 20.263l-4.618.407-4.23-.84 4.4-.152 4.448.585z" fill="#DBA757"/><path fill-rule="evenodd" clip-rule="evenodd" d="M8.716 20.416l-1.5.152.098 9.28 1.45-.102-.048-9.33zm-1.501.152l1.499-.153-3.844-.686-.557.025.025.255 2.877.559z" fill="#F9F9F9"/><path fill-rule="evenodd" clip-rule="evenodd" d="M30.548 33.941c0-.356.048-.94.145-1.5.096-.534.266-1.042.435-1.347.17-.305.338-.458.41-.534.073-.076.073-.076.194-.025.121.05.363.152.484.228.12.077.145.102.145.153 0 .025-.048.05-.145.101-.097.051-.242.102-.363.331-.12.229-.218.61-.29 1.119-.048.508-.072 1.17-.097 1.474-.024.33-.048.33-.169.356-.097 0-.29.026-.435.051-.145.051-.218.127-.266.102-.048 0-.073-.127-.048-.509zm-3.338 2.441c.097.102.29.229.653.356.362.127.87.229 1.596.356.7.101 1.62.229 2.562.254.943.025 1.91 0 2.636-.076.725-.077 1.208-.178 1.547-.28.338-.102.508-.203.629-.28a.441.441 0 00.169-.28c.024-.101.024-.203-.073-.279-.096-.076-.266-.127-.435-.28-.145-.127-.266-.33-.411-.559-.12-.229-.266-.483-.338-.61-.073-.127-.097-.153-.218-.127-.097.025-.266.076-.629.152a9.963 9.963 0 01-1.668.178c-.75.026-1.692 0-2.442-.05a21.505 21.505 0 01-1.571-.153c-.315-.051-.46-.102-.532-.102-.073 0-.097.026-.218.178a4.41 4.41 0 01-.46.61c-.168.178-.362.28-.483.356-.145.076-.217.153-.29.204-.048.05-.097.101-.097.152-.024.102-.024.178.073.28z" fill="#C6B532"/><path fill-rule="evenodd" clip-rule="evenodd" d="M29.562 34.831c-.29-.025-.363-.05-.46-.05a1.378 1.378 0 00-.29-.052c-.073-.025-.12-.025-.145-.025-.024 0-.048 0-.024-.026.024-.025.072-.101.217-.203.146-.102.411-.203.677-.305a6.71 6.71 0 01.92-.178c.386-.025.87-.05 1.426-.05.556 0 1.184.05 1.692.1.508.052.919.128 1.257.204.339.076.605.178.701.255.121.076.097.101.049.127a1.79 1.79 0 01-.29.101c-.17.051-.46.102-.75.153-.29.05-.58.076-.991.102-.411.025-.967.025-1.45.025-.484 0-.895-.025-1.33-.05a12.064 12.064 0 01-1.21-.128z" fill="#141515"/><path fill-rule="evenodd" clip-rule="evenodd" d="M31.417 30.89a.322.322 0 01.266-.05.37.37 0 01.29.127c.097.101.17.28.242.483.072.229.097.483.145.839.024.356.048.788.048 1.195 0 .407 0 .788-.096 1.093-.097.305-.266.56-.387.763-.121.178-.17.28-.17.381 0 .102.049.203.146.28a.535.535 0 00.338.101c.121 0 .218-.025.29-.101.097-.077.17-.178.218-.23a.68.68 0 01.097-.126c.024-.026.024-.026.096.05.073.051.17.179.339.255.145.076.338.127.46.102a.265.265 0 00.217-.204.545.545 0 000-.28 1.608 1.608 0 00-.194-.228.95.95 0 01-.241-.305.783.783 0 01-.121-.458c-.024-.229 0-.534-.024-1.042 0-.509-.025-1.17-.097-1.73-.073-.533-.218-.94-.387-1.22-.145-.254-.314-.381-.484-.432-.169-.05-.338-.076-.507-.025a.812.812 0 00-.411.28c-.121.152-.194.33-.266.482-.073.178-.121.33-.145.407-.024.076-.024.076 0 .026.024-.051.072-.178.145-.255.024-.101.12-.152.193-.178z" fill="#F9E349"/><path fill-rule="evenodd" clip-rule="evenodd" d="M27.554 36.586c-.096-.051-.169-.102-.217-.127-.049-.026-.073-.077-.121-.102-.024-.025-.073-.05-.073-.102-.024-.025-.024-.076-.024-.076v.305c0 .33.024.992.049 2.39v4.627c0 1.093.024 1.17.048 1.22.024.051.072.128.266.255.193.152.556.381 1.233.56.653.177 1.62.33 2.635.406 1.016.076 2.055.102 2.974-.076s1.717-.509 2.128-.687c.41-.178.435-.203.435-.229l.024-1.17c0-1.169.024-3.482.048-4.931.024-1.45.024-2.009.024-2.289v-.28l-.024.052c-.024.05-.097.178-.362.305-.29.127-.798.28-1.354.356a14.94 14.94 0 01-2.055.127c-.87 0-1.959-.026-2.78-.076-.799-.051-1.33-.128-1.693-.204a9.612 9.612 0 01-.75-.178.67.67 0 01-.41-.076z" fill="#FDE742"/><path fill-rule="evenodd" clip-rule="evenodd" d="M20.903 33.356c-.266.255-.29.28-.266.306.024.025.049.025.339.178.29.127.846.355 1.208.508.363.153.556.203.702.305.145.102.241.28.652 1.093a285.14 285.14 0 011.814 3.458c.628 1.195 1.16 2.161 1.426 2.695.29.56.339.712.411.788.073.077.145.077.218.026.072-.051.169-.153.217-.56.049-.407.097-1.118.073-1.652a6.511 6.511 0 00-.145-1.17c-.049-.203-.049-.203-.411-.686a69.027 69.027 0 01-1.668-2.34 77.387 77.387 0 01-1.427-2.084c-.266-.407-.266-.407-.314-.788-.049-.382-.121-1.144-.17-1.551-.048-.407-.072-.432-.072-.432-.024-.026-.024-.026-.242.101-.217.128-.628.356-1.088.712-.483.356-.991.84-1.257 1.093z" fill="#C6B532"/><path fill-rule="evenodd" clip-rule="evenodd" d="M23.3 31.78a3.143 3.143 0 01-.508.61 6.063 6.063 0 01-.991.738c-.315.203-.58.305-.774.381-.194.077-.314.102-.387.102-.072 0-.12 0-.097-.076.025-.076.073-.178.242-.407a5.431 5.431 0 011.62-1.398 3.35 3.35 0 01.677-.305c.17-.051.242-.051.29-.051.049 0 .073.025.049.102.024.076-.025.152-.121.305z" fill="#141515"/><path fill-rule="evenodd" clip-rule="evenodd" d="M36.024 35.213c.048.101.097.203.145.254.048.076.073.102.097.152.024.026.048.051.048.077 0 .025 0 .025.194 0 .169 0 .531 0 .99.05.46.051 1.04.178 1.476.407.435.204.7.509.87.788.145.28.17.534.17.789 0 .254-.05.508-.146.813-.12.305-.29.661-.532 1.017a6.445 6.445 0 01-.846 1.017c-.314.33-.653.636-.919.864-.266.204-.435.331-.507.382l-.097.05v1.043l.193-.127c.194-.127.605-.381 1.137-.814.532-.432 1.184-1.067 1.62-1.754.459-.686.7-1.449.773-2.085.073-.635 0-1.17-.266-1.627-.266-.457-.725-.813-1.233-1.042a5.275 5.275 0 00-1.596-.407 13.85 13.85 0 00-1.257-.076h-.46s0 .025.025.05c.024.026.048.102.121.179z" fill="#C6B532"/></svg>