<svg width="39" height="39" fill="none" xmlns="http://www.w3.org/2000/svg"><circle cx="19.5" cy="19.5" r="19.5" fill="#fff"/><g clip-path="url(#clip0_38_10972)"><path fill-rule="evenodd" clip-rule="evenodd" d="M33.931 25.383a14.03 14.03 0 00-2.597-3.587 16.625 16.625 0 00-1.098-1.124l-.463-.406a34.845 34.845 0 003.658-6.264v-.179a2.253 2.253 0 00-.256-2.009c-.24-.3-.551-.539-.906-.697a2.482 2.482 0 00-1.13-.211h-2.67a2.81 2.81 0 00-1.61.43 2.676 2.676 0 00-1.061 1.303 20.7 20.7 0 01-2.207 3.91v-3.157a2.685 2.685 0 00-.476-1.662 2.25 2.25 0 00-.837-.634 2.297 2.297 0 00-1.041-.19h-4.304a2.233 2.233 0 00-1.543.565c-.42.377-.676.898-.713 1.455v.096c.015.463.177.91.463 1.279.07.104.147.204.232.299l.11.19c.194.27.296.592.292.921v1.758a23.776 23.776 0 01-2.134-4.52 3.458 3.458 0 00-.866-1.362 2.68 2.68 0 00-1.817-.634H8.165a2.585 2.585 0 00-1.013.163 2.544 2.544 0 00-.865.543 2.21 2.21 0 00-.598 1.518v.323a23.033 23.033 0 004.634 9.563 12.244 12.244 0 004.154 3.962 12.532 12.532 0 005.54 1.669h.11a4.6 4.6 0 002.44-.526 2.32 2.32 0 00.767-.883c.175-.354.255-.745.232-1.137v-1.363c.244.191.549.454.915.8.365.347.792.802 1.085 1.136l.159.168c.243.263.475.514.682.717.285.303.619.557.988.753.433.221.914.336 1.402.335h2.805a2.67 2.67 0 001.095-.162c.35-.13.666-.332.93-.591a2.346 2.346 0 00.39-2.283v-.108l-.086-.168zm-6.975.167c-.317-.335-.695-.741-1.22-1.196-1.646-1.554-2.438-1.829-2.963-1.829a1.017 1.017 0 00-.829.287.851.851 0 00-.17.419c-.021.174-.021.35 0 .526v2.39c0 .311 0 .43-.196.527a2.856 2.856 0 01-1.475.227 10.688 10.688 0 01-4.701-1.422 10.444 10.444 0 01-3.53-3.36 21.34 21.34 0 01-4.353-8.966.41.41 0 01.097-.31s.195-.144.549-.144h2.78a.828.828 0 01.537.167c.2.205.347.456.427.73a24.562 24.562 0 002.438 5.164c.357.58.765 1.127 1.22 1.637.168.18.356.34.56.479.168.12.367.19.574.203a.781.781 0 00.353-.072.568.568 0 00.305-.275c.137-.312.192-.654.159-.992v-4.076a3.27 3.27 0 00-.659-1.913l-.183-.24-.073-.214a.58.58 0 01-.11-.264.392.392 0 01.135-.239.432.432 0 01.268-.095h4.341c.256 0 .341 0 .378.12a.965.965 0 01.11.573v5.416c0 .645.305 1.075.744 1.075s.878-.298 1.512-.92a22.355 22.355 0 003.463-5.643.84.84 0 01.354-.442.879.879 0 01.548-.143h2.805c.378 0 .5.095.549.155a.552.552 0 010 .442 33.865 33.865 0 01-3.659 6.217 1.48 1.48 0 00-.317.717c-.002.306.116.601.33.825a6.3 6.3 0 00.829.884c.368.337.718.692 1.049 1.064a12.088 12.088 0 012.268 3.085c.097.31 0 .478 0 .562a.823.823 0 01-.635.179h-2.743a1.153 1.153 0 01-.549-.12 2.976 2.976 0 01-.549-.442c-.17-.167-.366-.37-.597-.634l-.17-.12z" fill="#4AAB3C"/></g><defs><clipPath id="clip0_38_10972"><path fill="#fff" transform="translate(5.69 10.906)" d="M0 0h28.461v17.788H0z"/></clipPath></defs></svg>