<svg width="124" height="76" fill="none" xmlns="http://www.w3.org/2000/svg"><path d="M106.827 47.935H14.762v9.201h92.065v-9.2z" fill="#914F46"/><path opacity=".4" d="M106.823 47.935H14.758v9.2h92.065v-9.2z" fill="#000"/><path d="M86.878 58.297H59.702v8.52h27.176v-8.52z" fill="#455A64"/><path d="M40.712 54.443v11.264h9.28l3.719-5.39h67.755v-5.874H40.712z" fill="#263238"/><path d="M40.132 18.775a.693.693 0 00-.718-.653c-3.667.15-21.078.95-24.658 2.67-2.741 1.318-5.743 6.24-7.86 9.555-1.518 2.376-4.87 7.65-5.548 10.348-.574 2.28-.92 7.024-.881 9.377l.958 12.452h15.779l1.58-4.114a6.946 6.946 0 016.483-4.45h15.68V33.294l-.815-14.52z" fill="#914F46"/><path d="M12.888 22.17c-2.173 2.074-4.354 5.599-5.99 8.178-1.406 2.2-4.383 6.883-5.355 9.706-.019.052-.033.102-.05.154.481-.133 1.221-.404 1.451-.86.347-.69.79-3.056 6.276-11.986 1.667-2.722 3.292-4.314 3.668-5.191z" fill="#455A64"/><path d="M32.027 21.248c-4.035.23-12.782.83-15.576 1.779-3.641 1.244-7.727 10.882-7.92 11.305l-2.753 7.049a.307.307 0 00.29.404h7.117c.27 0 .537-.047.79-.14l18.72-6.98a2.164 2.164 0 001.407-2.027v-9.427a1.966 1.966 0 00-2.075-1.963z" fill="#263238"/><path d="M6.573 41.093s2.637-5.915 3.525-7.853c1.339-2.928 4.467-8.915 6.58-9.56 1.943-.582 7.528-1.291 15.39-1.741h.074a1.277 1.277 0 011.273 1.275v9.64a1.171 1.171 0 01-.759 1.093l-13.83 1.706a3.85 3.85 0 00-2.747 1.708l-2.397 3.656c-.14.052-.29.078-.44.078l-6.669-.002z" fill="#455A64"/><path d="M18.325 35.759l-4.702 5.237 2.602-17.388.65-.224-1.28 12.88a.378.378 0 00.518.388l2.212-.893z" fill="#263238"/><path d="M.16 51.28c-.017-.225.06-.414.176-.414l2.52-.232c.208-.02.4.371.426.83l.114 1.934c.018.31-.075.574-.208.597l-2.57.444c-.116.02-.228-.152-.245-.38l-.214-2.778z" fill="#EBEBEB"/><path d="M18.323 60.318H.157v7.284h18.166v-7.284zm12.126 14.891c5.485-.211 9.76-4.828 9.55-10.314-.21-5.485-4.828-9.76-10.313-9.55-5.485.211-9.761 4.828-9.55 10.314.21 5.485 4.828 9.76 10.313 9.55z" fill="#263238"/><path d="M20.138 65.106a9.939 9.939 0 1019.876.313v-.025l-19.876-.288z" fill="#263238"/><path d="M23.096 65.174a6.978 6.978 0 1013.955.206 6.978 6.978 0 00-13.955-.206z" fill="#FAFAFA"/><path d="M30.174 58.3a6.978 6.978 0 00-7.078 6.874l13.955.207a6.98 6.98 0 00-6.877-7.082z" fill="#E0E0E0"/><path d="M25.824 65.213a4.25 4.25 0 108.498.124 4.25 4.25 0 00-8.498-.124zM10.795 27.561h-.81c-.914 0-1.655.741-1.655 1.655v6.578c0 .914.74 1.655 1.655 1.655h.81c.914 0 1.655-.741 1.655-1.655v-6.578c0-.914-.741-1.655-1.655-1.655z" fill="#263238"/><path d="M6.625 43.56h-.207V33.105a1.882 1.882 0 011.88-1.88h.498v.207h-.498a1.675 1.675 0 00-1.673 1.673V43.56z" fill="#263238"/><path d="M8.039 43.573l-.577-9.776a1.244 1.244 0 011.23-1.304v.208a1.025 1.025 0 00-1.022 1.084l.576 9.777-.207.01z" fill="#263238"/><path d="M8.69 42.62H5.896v3.235H8.69V42.62zm-1.032-6.144H6.52v.207h1.137v-.207z" fill="#263238"/><path d="M17.146 21.528l.247-.033.728-.085 2.82-.325 10.51-1.197c.56-.06 1.13-.134 1.721-.186a3.23 3.23 0 01.902.058c.302.07.592.18.865.327a3.224 3.224 0 011.308 1.36c.15.294.252.61.3.935.027.165.041.331.044.498v29.259h-10.92c-.623-.02-1.247.01-1.866.09a7.241 7.241 0 00-5.73 4.575c-.09.221-.165.447-.226.678-.067.228-.12.46-.16.695l-.053.352-.025.176-.01.177-.017.354v.199a.448.448 0 01-.056.058H3.68V43.185c.006-.328.03-.655.07-.98a9.837 9.837 0 011.174-3.57c.57-1.075 1.123-2.111 1.658-3.11l2.94-5.509 2.386-4.472c.174-.325.342-.64.502-.943.083-.15.155-.3.243-.442.085-.138.179-.27.28-.398a5.876 5.876 0 011.256-1.167 6.334 6.334 0 012.15-.935 5.51 5.51 0 01.802-.13l-.207.03a8.42 8.42 0 00-.595.116 6.363 6.363 0 00-2.136.946c-.47.326-.888.72-1.244 1.167a3.68 3.68 0 00-.275.394c-.085.137-.158.29-.24.442l-.5.945-2.366 4.476c-.887 1.671-1.866 3.514-2.923 5.513l-1.659 3.11a9.723 9.723 0 00-1.159 3.543 9.28 9.28 0 00-.068.972v16.248l-.052-.05H17.51c.015-.01-.1.1-.052.05v-.201l.019-.361v-.178l.027-.179.054-.358c.04-.238.093-.474.162-.705.061-.234.138-.464.23-.688a7.356 7.356 0 015.815-4.644 11.85 11.85 0 011.866-.09h10.87l-.054.052V23.374c.014-.328 0-.658-.041-.984a3.11 3.11 0 00-1.567-2.241 3.318 3.318 0 00-.843-.322 3.167 3.167 0 00-.88-.06c-.587.05-1.162.124-1.72.185l-10.509 1.163-2.821.308-.728.077-.193.03z" fill="#263238"/><path d="M33.28 44.442s.059 0 .162-.025a1.14 1.14 0 00.427-.17 1.08 1.08 0 00.434-.564c.047-.145.066-.297.056-.448a1.089 1.089 0 00-.515-.894 1.073 1.073 0 00-.545-.157h-4.503a1.063 1.063 0 00-1.055.943c-.033.246.013.497.13.715.117.208.3.37.519.46.217.076.447.104.676.084h1.855l1.727.016h.47a.826.826 0 01.163.013c-.054.006-.108.01-.162.01h-.47l-1.728.017h-2.205a1.247 1.247 0 01-.363-.083 1.17 1.17 0 01-.569-.502 1.288 1.288 0 01-.145-.777 1.167 1.167 0 011.157-1.037H33.3a1.15 1.15 0 011.128 1.138c.007.159-.017.317-.068.467-.086.24-.25.445-.467.58a1.076 1.076 0 01-.446.156.717.717 0 01-.165.058z" fill="#263238"/><path d="M32.902 41.838a15.05 15.05 0 01-1.777.051c-.593.018-1.187 0-1.778-.051a14.896 14.896 0 011.778-.054c.593-.018 1.187 0 1.777.054z" fill="#fff"/><path d="M19.15 67.662l-1.659-.12c.433-5.94 1.068-9.494 1.94-10.864 1.676-2.633 3.34-3.11 5.184-3.423 1.716-.293 3.448-.224 5.123-.156l.414.017c3.459.135 10.702.014 10.781.014l.027 1.659c-.072 0-7.362.122-10.866-.015l-.414-.016c-1.59-.063-3.232-.13-4.78.134-1.647.28-2.744.602-4.067 2.68-.4.619-1.15 2.773-1.683 10.09z" fill="#263238"/><path d="M123.499 0h-81.68v54.385h81.68V0z" fill="#914F46"/><path d="M122.519 53.309l-.043-52.08.043.042-79.819.012.054-.053v52.079l-.05-.05 79.82.05-79.82.05h-.057V1.178h.06l79.819.01h.043v.044c-.033 31.78-.05 51.729-.05 52.077z" fill="#263238"/><path d="M30.206 25.753s-.025.025-.077.065l-.228.163c-.207.143-.491.343-.852.59a140.688 140.688 0 01-5.757 3.685c-.374.226-.678.415-.89.531l-.245.137a.413.413 0 01-.089.044s.025-.025.077-.06l.234-.158.873-.558 2.88-1.837 2.87-1.849.872-.558.24-.149a.478.478 0 01.092-.046zm-3.544.937s-.025.025-.077.064l-.228.164c-.207.141-.491.342-.854.587a107.79 107.79 0 01-2.853 1.866c-1.121.709-2.15 1.358-2.902 1.812-.374.226-.678.415-.89.529l-.244.138a.317.317 0 01-.09.042.44.44 0 01.077-.06l.234-.156.871-.56 2.882-1.834 2.87-1.85.872-.56.239-.147a.38.38 0 01.093-.035zM9.209 32.726a.564.564 0 01-.064-.183 14.465 14.465 0 01-.131-.508 7.397 7.397 0 01-.207-1.72 3.732 3.732 0 01.394-1.688c.082-.157.18-.304.294-.44a.624.624 0 01.137-.134c-.133.196-.254.4-.365.61a3.97 3.97 0 00-.355 1.658 8.86 8.86 0 00.185 1.704c.052.231.09.465.112.7zM.767 47.425a1.097 1.097 0 010-.222c0-.15 0-.365.013-.622a48.946 48.946 0 01.328-4.146c.033-.266.062-.48.084-.622.008-.077.024-.153.048-.226a.9.9 0 010 .232l-.054.622c-.045.555-.108 1.275-.176 2.073-.069.798-.11 1.516-.15 2.073l-.047.622a.9.9 0 01-.046.216zm22.72 4.025c0 .022-.4.078-1.02.28a8.047 8.047 0 00-1.06.428 7.977 7.977 0 00-2.243 1.659c-.263.276-.506.57-.728.881-.375.533-.551.9-.57.89a1.6 1.6 0 01.116-.262c.047-.101.1-.2.158-.294.066-.112.139-.243.234-.378.215-.32.455-.623.718-.906a8.35 8.35 0 011.059-.947 8.03 8.03 0 011.215-.728 7.184 7.184 0 011.078-.414c.155-.052.303-.081.429-.112a3.24 3.24 0 01.33-.063c.093-.02.188-.032.284-.035zm20.415-12.517a.492.492 0 010-.09v-.26c0-.237 0-.575-.015-1.006-.012-.88-.029-2.142-.052-3.699l-.217-12.2c-.085-4.763-.158-9.081-.187-12.204a330.487 330.487 0 01-.016-3.698V4.42c.002.03.002.06 0 .09v.26c0 .235 0 .573.014 1.006l.052 3.696.218 12.203c.085 4.765.16 9.079.186 12.201.015 1.564.02 2.826.019 3.699v1.268c0 .03 0 .06-.002.09z" fill="#FAFAFA"/><path d="M103.888 75.197c5.485-.22 9.754-4.844 9.534-10.329-.219-5.484-4.843-9.753-10.328-9.533-5.485.219-9.753 4.843-9.534 10.328.22 5.485 4.844 9.753 10.328 9.534z" fill="#263238"/><path d="M93.549 65.106v.026a9.938 9.938 0 1019.874.286v-.024l-19.874-.288z" fill="#263238"/><path d="M96.508 65.174a6.977 6.977 0 1013.953.201 6.977 6.977 0 00-13.953-.201z" fill="#FAFAFA"/><path d="M103.586 58.3a6.98 6.98 0 00-6.508 4.212 6.979 6.979 0 00-.57 2.662l13.953.207a6.976 6.976 0 00-6.875-7.082z" fill="#E0E0E0"/><path d="M99.244 65.213a4.25 4.25 0 108.498.124 4.25 4.25 0 00-8.498-.124z" fill="#263238"/><path d="M90.421 67.998S88.908 53.9 103.516 53.9c13.476 0 13.177 12.124 13.049 14h-2.113s1.076-11.95-10.936-11.95-10.967 12.193-10.967 12.193-.888-.044-2.128-.145z" fill="#455A64"/><path d="M98.247 55.36a.478.478 0 01-.114.04c-.077.028-.191.055-.332.105a9.963 9.963 0 00-1.188.462 9.504 9.504 0 00-5.229 6.22c-.11.409-.193.824-.25 1.243-.023.15-.032.266-.044.345a.732.732 0 01-.02.12.483.483 0 010-.12c0-.081 0-.208.024-.349a9.286 9.286 0 016.697-7.976c.145-.04.26-.064.338-.082a.538.538 0 01.118-.009z" fill="#FAFAFA"/></svg>