<svg width="45" height="27" fill="none" xmlns="http://www.w3.org/2000/svg"><path d="M38.78 17.121H5.308v3.286H38.78v-3.286z" fill="#914F46"/><path opacity=".4" d="M38.78 17.12H5.308v3.287H38.78v-3.286z" fill="#000"/><path d="M31.53 20.822h-9.88v3.043h9.88v-3.043z" fill="#455A64"/><path d="M14.743 19.445v4.023h3.374l1.352-1.925h24.634v-2.098h-29.36z" fill="#263238"/><path d="M14.532 6.706a.246.246 0 00-.081-.17.255.255 0 00-.18-.063c-1.333.054-7.663.339-8.965.953-.996.471-2.088 2.23-2.857 3.413-.552.849-1.77 2.733-2.017 3.696-.209.815-.335 2.509-.32 3.35l.348 4.447h5.737l.574-1.47a2.49 2.49 0 01.927-1.154c.421-.284.92-.435 1.43-.435h5.7v-7.38l-.296-5.187z" fill="#914F46"/><path d="M4.626 7.919c-.79.74-1.583 2-2.178 2.92-.51.786-1.593 2.459-1.947 3.467l-.018.055c.175-.047.444-.144.528-.307.126-.247.287-1.092 2.282-4.28.606-.973 1.197-1.542 1.333-1.855z" fill="#455A64"/><path d="M11.585 7.59c-1.467.081-4.647.295-5.663.635-1.323.444-2.809 3.886-2.88 4.037l-1 2.518a.108.108 0 00.055.132.113.113 0 00.05.012h2.588a.841.841 0 00.287-.05l6.806-2.492a.785.785 0 00.371-.284.763.763 0 00.14-.44V8.29a.69.69 0 00-.223-.51.716.716 0 00-.53-.19z" fill="#263238"/><path d="M2.331 14.677s.959-2.112 1.281-2.805c.487-1.045 1.625-3.184 2.393-3.414.706-.208 2.737-.461 5.595-.622h.027a.464.464 0 01.463.455v3.444a.424.424 0 01-.276.39l-5.028.61a1.416 1.416 0 00-.999.61l-.871 1.305a.468.468 0 01-.16.028H2.33z" fill="#455A64"/><path d="M6.605 12.772l-1.71 1.87.946-6.21.237-.08-.466 4.6a.133.133 0 00.055.122.14.14 0 00.134.017l.804-.319z" fill="#263238"/><path d="M0 18.316c-.006-.08.022-.148.064-.148l.916-.083c.076-.007.146.133.155.296l.041.691c.007.111-.027.205-.075.213l-.935.159c-.042.007-.082-.054-.089-.136L0 18.316z" fill="#EBEBEB"/><path d="M6.603 21.544H0v2.601h6.604v-2.601zm4.409 5.318c1.995-.075 3.55-1.724 3.473-3.683-.077-1.96-1.756-3.487-3.75-3.412-1.994.076-3.549 1.725-3.472 3.684.076 1.96 1.755 3.486 3.75 3.411z" fill="#263238"/><path d="M7.263 23.254v.01a3.517 3.517 0 001.023 2.521 3.644 3.644 0 002.538 1.075 3.649 3.649 0 002.569-1.002 3.52 3.52 0 001.096-2.492v-.01l-7.226-.102z" fill="#263238"/><path d="M8.34 23.278a2.46 2.46 0 00.406 1.39c.273.415.664.74 1.125.935a2.574 2.574 0 002.773-.5 2.48 2.48 0 00.713-1.267 2.452 2.452 0 00-.123-1.442 2.502 2.502 0 00-.918-1.131 2.569 2.569 0 00-3.208.264 2.473 2.473 0 00-.769 1.751z" fill="#FAFAFA"/><path d="M10.912 20.823a2.562 2.562 0 00-1.804.704 2.47 2.47 0 00-.77 1.751l5.074.074a2.47 2.47 0 00-.716-1.773 2.56 2.56 0 00-1.784-.756z" fill="#E0E0E0"/><path d="M9.331 23.292c-.004.3.082.595.248.847.166.252.405.45.685.57a1.57 1.57 0 001.69-.306c.218-.21.37-.478.433-.771.064-.294.038-.6-.075-.879a1.523 1.523 0 00-.559-.689 1.564 1.564 0 00-1.954.161 1.51 1.51 0 00-.468 1.067zM3.866 9.844h-.295a.596.596 0 00-.601.591v2.35c0 .326.269.59.601.59h.295a.596.596 0 00.601-.59v-2.35a.596.596 0 00-.601-.59z" fill="#263238"/><path d="M2.35 15.559h-.076v-3.735c0-.178.073-.349.2-.474a.69.69 0 01.484-.197h.181v.074h-.18a.615.615 0 00-.43.175.593.593 0 00-.18.422v3.735z" fill="#263238"/><path d="M2.865 15.563l-.21-3.492a.437.437 0 01.123-.326.452.452 0 01.325-.14v.075a.379.379 0 00-.271.115.364.364 0 00-.1.272l.209 3.492-.076.004z" fill="#263238"/><path d="M3.101 15.222H2.085v1.156h1.016v-1.156zm-.374-2.194h-.414v.074h.414v-.074z" fill="#263238"/><path d="M6.174 7.69l.09-.012.264-.03 1.025-.117 3.822-.427c.204-.022.41-.048.626-.067.11-.008.22-.001.328.02a1.16 1.16 0 01.79.603 1.1 1.1 0 01.109.334c.01.06.014.119.016.178v10.451h-3.97a4.296 4.296 0 00-.679.032 2.657 2.657 0 00-1.268.538 2.59 2.59 0 00-.956 1.586l-.02.126-.008.063-.004.063-.006.126v.073a.16.16 0 01-.02.02H1.278v-5.824A3.471 3.471 0 011.73 13.8l.604-1.111 1.068-1.968.868-1.597.182-.337c.03-.054.057-.108.089-.158.03-.05.065-.097.101-.142.131-.16.285-.3.457-.417a2.324 2.324 0 011.074-.38l-.076.01c-.049.008-.121.02-.216.042a2.333 2.333 0 00-.777.338c-.17.116-.323.257-.452.417a1.32 1.32 0 00-.1.14c-.031.05-.057.104-.088.158l-.181.338-.86 1.598c-.323.597-.679 1.255-1.063 1.97l-.603 1.11a3.431 3.431 0 00-.446 1.613v5.803l-.02-.018h5.016c.005-.003-.037.036-.02.018v-.072l.008-.129v-.063l.01-.064.019-.128c.014-.085.034-.17.059-.252a2.63 2.63 0 01.912-1.357 2.69 2.69 0 011.286-.547c.225-.028.452-.04.678-.032h3.952l-.02.018V8.35c.005-.118 0-.236-.014-.352a1.12 1.12 0 00-.57-.8 1.22 1.22 0 00-.306-.116 1.172 1.172 0 00-.32-.021c-.214.018-.423.044-.626.066l-3.82.415-1.026.11-.265.028-.07.01z" fill="#263238"/><path d="M12.042 15.873s.021 0 .059-.008a.42.42 0 00.155-.061.387.387 0 00.178-.362.385.385 0 00-.385-.375H10.41a.39.39 0 00-.256.097.378.378 0 00-.127.24.384.384 0 00.236.42.599.599 0 00.246.03h.675l.628.005h.171c.02 0 .04.001.06.005a.502.502 0 01-.06.003h-.17l-.629.006h-.802a.423.423 0 01-.391-.487.415.415 0 01.139-.263.429.429 0 01.282-.106h1.637a.422.422 0 01.289.121c.076.076.12.178.12.285a.404.404 0 01-.357.43.267.267 0 01-.059.02z" fill="#263238"/><path d="M11.905 14.944c-.215.019-.43.025-.646.019a5.54 5.54 0 01-.647-.02c.215-.019.431-.025.647-.019.216-.006.431 0 .646.02z" fill="#fff"/><path d="M6.905 24.167l-.603-.043c.157-2.122.388-3.391.705-3.88.61-.941 1.215-1.111 1.885-1.223.624-.105 1.253-.08 1.862-.056l.151.006c1.257.048 3.89.006 3.92.006l.01.592c-.027 0-2.677.044-3.951-.005l-.15-.006c-.579-.022-1.176-.047-1.738.048-.6.1-.998.215-1.48.957-.145.221-.418.99-.611 3.604z" fill="#263238"/><path d="M44.844 0H15.147v19.425h29.697V0z" fill="#914F46"/><path d="M44.488 19.04L44.472.44l.016.014-29.02.005.02-.02v18.602l-.019-.018 29.02.018-29.02.017h-.02V.42h.021l29.02.004h.016V.44a78006.9 78006.9 0 00-.018 18.6z" fill="#263238"/><path d="M10.924 9.198s-.009.01-.027.023l-.084.059c-.075.051-.178.122-.31.21a50.953 50.953 0 01-2.092 1.317c-.136.08-.247.148-.324.19l-.089.048a.154.154 0 01-.032.016s.009-.01.028-.022l.085-.056.317-.2 1.047-.655 1.043-.66.318-.2.087-.053a.172.172 0 01.033-.017zm-1.289.335s-.009.009-.028.023l-.083.058c-.075.05-.178.123-.31.21-.263.175-.63.413-1.037.666-.408.254-.782.485-1.056.648-.135.08-.246.148-.323.188l-.089.05a.117.117 0 01-.032.015.156.156 0 01.028-.022l.085-.055.316-.2 1.048-.655 1.043-.66.318-.2.086-.053a.14.14 0 01.034-.013zM3.29 11.689a.198.198 0 01-.024-.065 5.095 5.095 0 01-.047-.182 2.598 2.598 0 01-.075-.614c-.002-.21.048-.416.143-.603a.872.872 0 01.107-.157.223.223 0 01.05-.048 2.38 2.38 0 00-.133.218c-.086.186-.13.388-.129.592.002.204.025.408.067.609.019.082.033.166.04.25zm-3.068 5.25a.385.385 0 010-.08c0-.053 0-.13.004-.221a17.186 17.186 0 01.15-1.703.38.38 0 01.018-.081.304.304 0 010 .083l-.02.222-.064.74c-.025.285-.04.542-.054.74l-.018.223a.317.317 0 01-.016.077zm8.258 1.437c0 .008-.146.028-.37.1a2.898 2.898 0 00-1.465 1.06c-.138.19-.202.322-.208.318a.57.57 0 01.042-.093.96.96 0 01.057-.105c.024-.04.05-.087.085-.135a2.6 2.6 0 01.261-.324c.118-.123.247-.236.385-.338.14-.1.287-.186.442-.26.126-.06.257-.109.392-.148.056-.018.11-.029.156-.04.04-.01.08-.017.12-.022a.56.56 0 01.103-.013zm7.425-4.47a.169.169 0 010-.032v-.093c0-.085 0-.205-.005-.36l-.02-1.32-.078-4.358a528.864 528.864 0 01-.068-4.359 117.25 117.25 0 01-.006-1.32v-.486a.17.17 0 010 .032v.093c0 .084 0 .204.005.36l.019 1.32.079 4.358c.03 1.702.058 3.243.068 4.358.005.558.007 1.009.007 1.32v.456l-.001.032z" fill="#FAFAFA"/><path d="M37.713 26.858c1.994-.078 3.546-1.73 3.466-3.689-.08-1.959-1.76-3.483-3.755-3.405-1.994.079-3.546 1.73-3.466 3.69.08 1.958 1.76 3.483 3.755 3.404z" fill="#263238"/><path d="M33.953 23.254v.01a3.516 3.516 0 001.02 2.524 3.645 3.645 0 002.54 1.076 3.648 3.648 0 002.57-1.004 3.52 3.52 0 001.095-2.494v-.01l-7.225-.102z" fill="#263238"/><path d="M35.029 23.278a2.46 2.46 0 00.407 1.39c.272.414.664.739 1.124.934.46.195.97.252 1.463.163.494-.09.95-.32 1.309-.664a2.48 2.48 0 00.713-1.265 2.45 2.45 0 00-.123-1.442 2.5 2.5 0 00-.917-1.131 2.568 2.568 0 00-3.207.264 2.47 2.47 0 00-.77 1.751z" fill="#FAFAFA"/><path d="M37.602 20.823a2.575 2.575 0 00-1.805.704 2.477 2.477 0 00-.769 1.751l5.073.074a2.453 2.453 0 00-.716-1.774 2.536 2.536 0 00-.815-.552 2.577 2.577 0 00-.968-.203z" fill="#E0E0E0"/><path d="M36.023 23.292c-.005.3.081.595.248.847.166.252.404.45.685.57a1.57 1.57 0 001.688-.306 1.493 1.493 0 00.36-1.65 1.523 1.523 0 00-.56-.689 1.564 1.564 0 00-1.953.161c-.294.28-.462.665-.468 1.067z" fill="#263238"/><path d="M32.816 24.287s-.55-5.035 4.76-5.035c4.9 0 4.792 4.33 4.745 5h-.768s.391-4.268-3.976-4.268-3.988 4.355-3.988 4.355-.322-.016-.773-.052z" fill="#455A64"/><path d="M35.663 19.773a.178.178 0 01-.042.015c-.028.01-.07.019-.12.037a3.723 3.723 0 00-.432.165 3.45 3.45 0 00-1.205.9 3.374 3.374 0 00-.696 1.321c-.04.146-.07.295-.091.445-.009.053-.012.094-.016.123a.262.262 0 01-.008.043.172.172 0 010-.043c0-.03 0-.075.01-.125a3.295 3.295 0 01.773-1.791 3.371 3.371 0 011.66-1.058l.124-.03a.199.199 0 01.043-.002z" fill="#FAFAFA"/></svg>