<svg width="50" height="50" fill="none" xmlns="http://www.w3.org/2000/svg"><circle cx="25" cy="25" r="25" fill="#4AAB3C"/><path d="M13.912 24.585l5.293 2.002 2.049 6.678a.62.62 0 00.99.302l2.95-2.438a.871.871 0 011.073-.03l5.322 3.915c.367.27.886.067.978-.382l3.898-19.005c.1-.49-.375-.899-.835-.718l-21.725 8.493c-.536.21-.531.979.007 1.183zm7.012.936l10.345-6.457c.186-.116.377.14.218.29l-8.538 8.042c-.3.283-.494.662-.549 1.073l-.29 2.185c-.04.291-.443.32-.523.038l-1.118-3.983a1.06 1.06 0 01.455-1.188z" fill="#fff"/></svg>