<svg width="60" height="60" fill="none" xmlns="http://www.w3.org/2000/svg"><circle cx="30" cy="30" r="29.5" stroke="#E0E0E0"/><path d="M31.648 22.054a.568.568 0 000-1.135H28.62a.568.568 0 000 1.135h3.028z" fill="#4AAB3C"/><path d="M42.62 18.649c.94 0 1.704-.764 1.704-1.703v-2.27c0-.939-.764-1.703-1.703-1.703H17.648c-.939 0-1.703.764-1.703 1.703v2.27c0 .939.764 1.703 1.703 1.703v10.216c0 .2.04.39.104.568h-.104c-.939 0-1.703.764-1.703 1.702v2.27c0 .94.764 1.703 1.703 1.703v10.217c0 .938.764 1.702 1.703 1.702h21.567c.94 0 1.703-.764 1.703-1.703V35.108c.939 0 1.703-.764 1.703-1.702v-2.27c0-.94-.764-1.703-1.703-1.703h-.104c.063-.179.104-.368.104-.568V18.65zm-20.43 25.54h-1.703a.567.567 0 110-1.135h1.703a.567.567 0 110 1.135zm1.135-2.27h-2.838a.567.567 0 110-1.135h2.838a.567.567 0 110 1.135zm8.324-2.27h-3.027a1.705 1.705 0 01-1.703-1.703c0-.939.764-1.703 1.703-1.703h3.027c.939 0 1.703.764 1.703 1.703 0 .939-.764 1.703-1.703 1.703zm10.973-9.081c.313 0 .567.255.567.567v2.27a.568.568 0 01-.567.568H17.648a.568.568 0 01-.567-.567v-2.27c0-.313.254-.568.567-.568h24.973zm-22.135-3.973h1.703a.567.567 0 110 1.135h-1.703a.567.567 0 110-1.135zm-.568-1.703c0-.313.254-.567.568-.567h2.838a.567.567 0 110 1.135h-2.838a.567.567 0 01-.568-.568zm7-3.405c0-.94.764-1.703 1.703-1.703h3.027c.939 0 1.703.764 1.703 1.703 0 .938-.764 1.702-1.703 1.702h-3.027a1.705 1.705 0 01-1.703-1.702zm15.135-3.973H17.648a.568.568 0 01-.567-.568v-2.27c0-.313.254-.568.567-.568h24.973c.313 0 .568.255.568.568v2.27a.568.568 0 01-.568.568h-.568z" fill="#4AAB3C"/><path d="M31.648 37.378H28.62a.568.568 0 000 1.136h3.028a.568.568 0 000-1.136z" fill="#4AAB3C"/></svg>