<svg width="50" height="50" fill="none" xmlns="http://www.w3.org/2000/svg"><circle cx="25" cy="25" r="24.5" stroke="#E0E0E0"/><path d="M39.123 26.292l-2.268-.94-.608-4.132a1.201 1.201 0 00-1.188-1.026h-3.297c.609-2.212.84-4.2.889-4.684a1.205 1.205 0 00-.304-.926 1.204 1.204 0 00-.891-.396H15.002a1.2 1.2 0 00-1.188 1.021l-.392 2.583h6.78a1.2 1.2 0 110 2.402h-7.144l-.182 1.201h6.998a1.202 1.202 0 010 2.403h-7.362l-.337 2.22-1.12 5.967a1.203 1.203 0 001.18 1.422h2.625c.497 1.395 1.819 2.403 3.383 2.403s2.885-1.008 3.382-2.402h7.65c.497 1.394 1.818 2.402 3.382 2.402s2.885-1.008 3.383-2.402h2.623c.663 0 1.201-.539 1.201-1.202v-4.804c0-.486-.293-.924-.741-1.11zm-1.661 4.713h-1.407c-.014-.04-.036-.077-.051-.116-.027-.068-.058-.131-.088-.196a3.631 3.631 0 00-.21-.387c-.036-.059-.071-.118-.112-.174a3.667 3.667 0 00-.332-.402c-.025-.027-.047-.057-.072-.082a3.664 3.664 0 00-.484-.4c-.048-.033-.1-.06-.15-.091a3.685 3.685 0 00-.406-.221 3.775 3.775 0 00-.634-.218c-.066-.017-.13-.036-.197-.048a3.528 3.528 0 00-.662-.067 3.53 3.53 0 00-.662.067c-.067.012-.13.031-.197.048a3.343 3.343 0 00-.633.218 3.538 3.538 0 00-.407.22c-.05.032-.102.06-.15.092a3.67 3.67 0 00-.485.4c-.025.025-.046.055-.072.082-.12.126-.23.26-.331.402-.04.056-.076.115-.112.174a3.66 3.66 0 00-.21.387 2.883 2.883 0 00-.088.196c-.015.04-.037.075-.051.116H21.64c-.015-.04-.036-.077-.052-.116-.026-.068-.058-.131-.088-.196a3.631 3.631 0 00-.21-.387c-.036-.059-.07-.118-.111-.174a3.667 3.667 0 00-.332-.402c-.025-.027-.047-.057-.072-.082a3.664 3.664 0 00-.484-.4c-.048-.033-.101-.06-.15-.091a3.678 3.678 0 00-.406-.221 3.708 3.708 0 00-.635-.218c-.066-.017-.13-.036-.197-.048a3.529 3.529 0 00-.662-.067 3.53 3.53 0 00-.661.067c-.068.012-.131.031-.197.048a3.343 3.343 0 00-.633.218 3.552 3.552 0 00-.408.22c-.049.032-.102.06-.15.092a3.67 3.67 0 00-.484.4c-.025.025-.047.055-.072.082-.12.126-.23.26-.332.402a3.34 3.34 0 00-.111.174 3.66 3.66 0 00-.21.387 2.935 2.935 0 00-.088.196c-.016.04-.037.075-.052.116h-1.16l.673-3.588H25.63c.322 0 .633-.043.936-.11.082-.02.16-.048.241-.071a4.37 4.37 0 00.64-.24 4.806 4.806 0 00.817-.504c.059-.044.118-.088.176-.134.188-.157.372-.334.55-.525.053-.057.107-.108.158-.167.15-.172.295-.363.436-.56.074-.1.15-.197.219-.302.085-.13.167-.272.25-.412.123-.206.245-.413.358-.63.021-.04.04-.085.062-.127.17-.338.328-.684.475-1.038h3.074l.556 3.779a1.2 1.2 0 00.729.934l2.155.894v2.801z" fill="#4AAB3C"/></svg>