<svg width="50" height="50" fill="none" xmlns="http://www.w3.org/2000/svg"><circle cx="25" cy="25" r="24.5" stroke="#E0E0E0"/><path d="M26.365 18.378a.473.473 0 000-.946h-2.523a.473.473 0 000 .946h2.523z" fill="#4AAB3C"/><path d="M35.515 15.541a1.42 1.42 0 001.419-1.419v-1.891a1.42 1.42 0 00-1.42-1.42h-20.81a1.42 1.42 0 00-1.419 1.42v1.891a1.42 1.42 0 001.42 1.42v8.513c0 .166.033.324.086.473h-.087a1.42 1.42 0 00-1.419 1.419v1.892a1.42 1.42 0 001.42 1.419v8.513a1.42 1.42 0 001.418 1.419h17.973a1.42 1.42 0 001.419-1.419v-8.513a1.42 1.42 0 001.419-1.42v-1.891a1.42 1.42 0 00-1.42-1.42h-.086c.053-.148.087-.306.087-.472V15.54zM18.488 36.825h-1.42a.473.473 0 110-.946h1.42a.473.473 0 110 .946zm.946-1.892h-2.365a.473.473 0 110-.946h2.365a.473.473 0 110 .946zm6.937-1.892h-2.523a1.42 1.42 0 01-1.419-1.418 1.42 1.42 0 011.419-1.42h2.523a1.42 1.42 0 011.419 1.42 1.42 1.42 0 01-1.42 1.418zm9.144-7.567c.26 0 .473.212.473.473v1.892c0 .26-.212.473-.473.473H14.704a.473.473 0 01-.473-.473v-1.892c0-.26.212-.473.473-.473h20.811zm-18.446-3.311h1.419a.473.473 0 110 .946h-1.42a.473.473 0 110-.946zm-.473-1.419c0-.261.211-.473.473-.473h2.365a.473.473 0 110 .946h-2.365a.473.473 0 01-.473-.473zm5.833-2.838a1.42 1.42 0 011.42-1.419h2.522a1.42 1.42 0 011.419 1.42 1.42 1.42 0 01-1.42 1.418h-2.522a1.42 1.42 0 01-1.419-1.419zm12.613-3.31H14.704a.473.473 0 01-.473-.473V12.23c0-.261.212-.473.473-.473h20.81c.262 0 .474.212.474.473v1.891a.473.473 0 01-.473.473h-.473z" fill="#4AAB3C"/><path d="M26.365 31.149h-2.523a.473.473 0 000 .946h2.523a.473.473 0 000-.946z" fill="#4AAB3C"/></svg>