<svg width="60" height="60" fill="none" xmlns="http://www.w3.org/2000/svg"><circle cx="30" cy="30" r="29.5" stroke="#E0E0E0"/><path d="M46.948 31.55l-2.722-1.128-.73-4.957a1.441 1.441 0 00-1.425-1.23h-3.957a36.607 36.607 0 001.067-5.622 1.446 1.446 0 00-.365-1.112 1.445 1.445 0 00-1.07-.474H18.003a1.44 1.44 0 00-1.426 1.225l-.47 3.1h8.136a1.441 1.441 0 110 2.882H15.67l-.22 1.441h8.398a1.442 1.442 0 010 2.883h-8.834l-.404 2.664-1.343 7.161a1.443 1.443 0 001.417 1.707h3.148c.597 1.673 2.182 2.883 4.06 2.883 1.876 0 3.461-1.21 4.058-2.883h9.18c.596 1.673 2.182 2.883 4.058 2.883 1.877 0 3.463-1.21 4.06-2.883h3.148c.795 0 1.441-.646 1.441-1.442v-5.765c0-.583-.352-1.109-.89-1.332zm-1.994 5.657h-1.688c-.017-.049-.043-.092-.062-.14-.032-.08-.069-.157-.105-.235a4.38 4.38 0 00-.252-.464c-.044-.07-.085-.141-.134-.209a4.417 4.417 0 00-.398-.483c-.03-.031-.056-.068-.087-.098a4.405 4.405 0 00-.58-.48c-.058-.039-.122-.072-.18-.11a4.434 4.434 0 00-.488-.264 4.5 4.5 0 00-.761-.261c-.08-.02-.156-.044-.236-.058a4.242 4.242 0 00-.795-.08 4.24 4.24 0 00-.794.08c-.08.014-.157.038-.236.058a4.483 4.483 0 00-.76.26c-.17.078-.332.168-.489.266-.059.037-.122.07-.18.11a4.412 4.412 0 00-.58.48c-.031.03-.057.066-.087.097a4.397 4.397 0 00-.398.483c-.048.068-.09.139-.134.21-.094.15-.177.303-.252.463a3.434 3.434 0 00-.106.235c-.018.048-.044.091-.061.14h-9.142c-.017-.049-.043-.092-.062-.14-.032-.08-.07-.157-.105-.235a4.38 4.38 0 00-.253-.464c-.043-.07-.085-.141-.134-.209a4.417 4.417 0 00-.397-.483c-.03-.031-.057-.068-.087-.098a4.405 4.405 0 00-.58-.48c-.058-.039-.122-.072-.181-.11a4.434 4.434 0 00-.487-.264 4.5 4.5 0 00-.761-.261c-.08-.02-.156-.044-.237-.058a4.242 4.242 0 00-.794-.08 4.24 4.24 0 00-.794.08c-.081.014-.157.038-.237.058a4.483 4.483 0 00-.76.26c-.17.078-.33.168-.488.266-.06.037-.122.07-.18.11a4.412 4.412 0 00-.581.48c-.03.03-.056.066-.086.097a4.397 4.397 0 00-.398.483c-.048.068-.091.139-.134.21a4.38 4.38 0 00-.253.463 3.434 3.434 0 00-.105.235c-.019.048-.044.091-.062.14h-1.392l.807-4.306h13.528c.386 0 .76-.051 1.123-.132.1-.023.193-.058.29-.085.26-.077.518-.17.768-.289a5.715 5.715 0 00.98-.604c.07-.053.141-.105.21-.161.227-.187.447-.4.66-.63.064-.068.129-.13.191-.2.18-.206.353-.436.523-.672.088-.121.179-.236.263-.362.102-.157.2-.327.3-.494.148-.248.293-.496.429-.757.026-.049.049-.102.075-.153.205-.405.393-.82.57-1.245h3.688l.667 4.535c.074.501.405.926.875 1.121l2.586 1.073v3.361z" fill="#4AAB3C"/></svg>