<svg width="42" height="42" fill="none" xmlns="http://www.w3.org/2000/svg"><circle cx="21" cy="21" r="21" fill="url(#paint0_linear_2_33073)"/><g clip-path="url(#clip0_2_33073)"><path d="M17.446 21a3.554 3.554 0 117.108 0 3.554 3.554 0 01-7.108 0zm-1.921 0a5.475 5.475 0 1010.949 0 5.475 5.475 0 00-10.95 0zm9.886-5.691a1.28 1.28 0 102.56 0 1.28 1.28 0 00-2.56 0zm-8.72 14.37c-1.039-.048-1.604-.221-1.98-.367a3.317 3.317 0 01-1.226-.798 3.294 3.294 0 01-.797-1.225c-.146-.376-.32-.94-.367-1.98-.051-1.124-.062-1.462-.062-4.309 0-2.847.011-3.184.062-4.308.048-1.04.222-1.604.367-1.98.194-.498.425-.853.797-1.227a3.291 3.291 0 011.227-.797c.375-.147.94-.32 1.98-.367 1.124-.052 1.461-.062 4.307-.062 2.848 0 3.184.011 4.309.062 1.04.047 1.604.221 1.98.367.498.193.852.425 1.226.797.373.373.604.729.798 1.227.146.375.32.94.366 1.98.052 1.124.063 1.461.063 4.308 0 2.846-.01 3.184-.063 4.309-.047 1.04-.22 1.604-.366 1.98a3.304 3.304 0 01-.798 1.225 3.31 3.31 0 01-1.226.797c-.376.147-.94.32-1.98.367-1.124.052-1.462.062-4.309.062-2.846 0-3.183-.01-4.307-.062zm-.087-19.276c-1.135.052-1.91.232-2.588.495a5.232 5.232 0 00-1.889 1.23 5.216 5.216 0 00-1.23 1.889c-.263.678-.443 1.453-.495 2.588-.052 1.136-.064 1.5-.064 4.395 0 2.895.012 3.259.065 4.396.051 1.135.231 1.91.495 2.588a5.213 5.213 0 001.23 1.888 5.23 5.23 0 001.888 1.23c.679.264 1.453.443 2.588.495 1.137.052 1.5.065 4.395.065 2.897 0 3.26-.012 4.396-.065 1.135-.052 1.91-.232 2.588-.495a5.243 5.243 0 001.888-1.23 5.236 5.236 0 001.23-1.888c.264-.678.445-1.453.495-2.588.052-1.138.064-1.5.064-4.396 0-2.895-.012-3.259-.064-4.395-.051-1.135-.231-1.91-.495-2.588a5.243 5.243 0 00-1.23-1.889 5.228 5.228 0 00-1.887-1.23c-.679-.263-1.454-.444-2.588-.495-1.137-.052-1.5-.064-4.396-.064s-3.259.012-4.396.064z" fill="#fff"/></g><defs><linearGradient id="paint0_linear_2_33073" x1="42" y1="4.5" x2="-8.159" y2="5.773" gradientUnits="userSpaceOnUse"><stop stop-color="#52CB3F"/><stop offset="1" stop-color="#4FC63C" stop-opacity=".7"/></linearGradient><clipPath id="clip0_2_33073"><path fill="#fff" d="M10.338 10.339h21.323v21.323H10.338z"/></clipPath></defs></svg>