<svg width="92" height="50" fill="none" xmlns="http://www.w3.org/2000/svg"><path fill-rule="evenodd" clip-rule="evenodd" d="M58.26 23.978l2.462 17.705-9.19.7-.382-18.02 7.11-.385z" fill="#DBB158"/><path fill-rule="evenodd" clip-rule="evenodd" d="M58.268 23.978l-7.109.385-4.196-1.295 8.496-.35 2.81 1.26z" fill="#FBD16B"/><path fill-rule="evenodd" clip-rule="evenodd" d="M51.16 24.363l-4.197-1.294.624 18.334 3.954.98-.382-18.02z" fill="#F8E49C"/><path fill-rule="evenodd" clip-rule="evenodd" d="M67.666 23.488l.035.525.104 12.841 10.022 5.074-.035-17.145-10.126-1.295z" fill="#DBB158"/><path fill-rule="evenodd" clip-rule="evenodd" d="M77.834 41.928l-.035-17.145 12.554-1.33-.035 13.331-12.484 5.144z" fill="#F7CE66"/><path fill-rule="evenodd" clip-rule="evenodd" d="M77.792 24.783l12.554-1.33-10.022-.804-12.658.84 10.126 1.294z" fill="#F8E49C"/><path fill-rule="evenodd" clip-rule="evenodd" d="M76.07 34.265l-1.25 10.427-10.472 1.61.069-10.813 11.652-1.224z" fill="#DBB158"/><path fill-rule="evenodd" clip-rule="evenodd" d="M64.404 35.49l-.069 10.81-7.525-3.744-.07-9.097 7.664 2.03z" fill="#F7CE66"/><path fill-rule="evenodd" clip-rule="evenodd" d="M56.74 33.46l12.866-.595 6.45 1.4-11.652 1.225-7.664-2.03z" fill="#F8E49C"/><path fill-rule="evenodd" clip-rule="evenodd" d="M84.413 36.644l-12.589-1.26.07 10.917 12.415 2.065.104-11.722z" fill="#F7CE66"/><path fill-rule="evenodd" clip-rule="evenodd" d="M84.413 36.644l-12.589-1.26 8.74-2.413 10.577 1.05-6.728 2.623z" fill="#F8E49C"/><path fill-rule="evenodd" clip-rule="evenodd" d="M91.142 34.02l-6.727 2.624-.105 11.721 6.659-4.198.173-10.042v-.105z" fill="#DBB158"/><path fill-rule="evenodd" clip-rule="evenodd" d="M37.67 35.84l18.45-.28.034 11.056-18.241.28-.243-11.056z" fill="#F7CE66"/><path fill-rule="evenodd" clip-rule="evenodd" d="M56.12 35.56l-18.45.28 1.977-2.1 15.779-.14.693 1.96z" fill="#F8E49C"/><path fill-rule="evenodd" clip-rule="evenodd" d="M54.623 6.239l.243 17.46 22.992.454.104-18.58-23.339.666z" fill="#DBB158"/><path fill-rule="evenodd" clip-rule="evenodd" d="M77.954 5.574l-.104 18.58 1.144-.876.035-16.375-1.075-1.33zM53.544 34.44l-.07-10.777 17.618-.035-.07 10.567-17.478.245z" fill="#F7CE66"/><path fill-rule="evenodd" clip-rule="evenodd" d="M71.092 23.629l-17.617.035 1.075-.63 15.501-.035 1.04.63z" fill="#F8E49C"/><path fill-rule="evenodd" clip-rule="evenodd" d="M84.185 33.32l1.664.175-7.421 2.555-1.7-.175 7.457-2.555z" fill="#F9F9F9"/><path fill-rule="evenodd" clip-rule="evenodd" d="M76.728 47.106l1.7.28V36.049l-1.7-.175v11.232zM64.094 18.38l.07-12.422 2.635-.035V18.38h-2.705zM84.43 32.515l1.144-.28-.139-8.257-1.18.14.174 8.397zm-5.413-9.237v-.175l6.415.875-1.179.14-5.306-.77.07-.07zm-30.325 8.537l.763.245-.104-8.257-.728-.21.07 8.222zm5.376-8.502l-.451.245-4.266.245-.728-.21 5.445-.28zm7.776.35l1.318-.035v7.523h-1.284l-.034-7.488z" fill="#F9F9F9"/><path fill-rule="evenodd" clip-rule="evenodd" d="M61.844 23.663l1.318-.035-.209-.63h-1.11v.665zm-.41 11.021l-.867-.21-.104 9.903.797.384.174-10.077z" fill="#F9F9F9"/><path fill-rule="evenodd" clip-rule="evenodd" d="M62.3 34.335l3.885-.07-4.752.42-.867-.21 1.734-.14zm8.516.49l-.97.105-.035 10.531.97-.14.035-10.496z" fill="#F9F9F9"/><path fill-rule="evenodd" clip-rule="evenodd" d="M67.918 34.265l1.11-.035 1.803.595-.971.105-1.942-.665zm-12.205.14l.139.35-17.444.315.347-.385 16.958-.28z" fill="#F9F9F9"/><path d="M40.535 36.948l-.584 2.414 3.571.88.584-2.414-3.571-.88zm17.917-11.571h-3.503v2.17h3.503v-2.17z" fill="#F9F9F9"/><path fill-rule="evenodd" clip-rule="evenodd" d="M82.997 38.184l-3.052-.35v2.064l3.052.315v-2.03z" fill="#F9F9F9"/><path fill-rule="evenodd" clip-rule="evenodd" d="M4.35 21.668l36.62-.525 3.885 3.954-43.384.315 2.878-3.744z" fill="#E1E2E1"/><path fill-rule="evenodd" clip-rule="evenodd" d="M44.855 25.097l-43.384.315.104 2.17 43.176-.07.104-2.415z" fill="#CBCCCD"/><path fill-rule="evenodd" clip-rule="evenodd" d="M7.572 27.582H5.699C4.971 41.087 4.624 47.56 4.659 46.93c.381.14.693.21 1.317.035.937-12.911 1.596-19.384 1.596-19.384zm38.01 22.148c-.277.28-.763.35-1.387.175l-2.289-22.358h1.873l1.803 22.183zm-7.299-22.148h1.873a26549.16 26549.16 0 011.04 19.349c-.381.14-.693.21-1.317.035-.937-12.911-1.596-19.384-1.596-19.384zM.143 49.73c.277.28.763.35 1.387.175l2.289-22.358H1.946L.143 49.73z" fill="#141515"/><path fill-rule="evenodd" clip-rule="evenodd" d="M20.19 22.613c2.844 0 5.168-.21 5.168-.455 0-.245-2.324-.455-5.167-.455-2.844 0-5.168.21-5.168.455 0 .28 2.324.455 5.168.455z" fill="#080902"/><path fill-rule="evenodd" clip-rule="evenodd" d="M19.901 22.613c-2.982 0-4.612-.175-4.924-.455v.77c.693.35 3.225.42 4.924.42 1.769 0 4.266 0 5.41-.42v-.805c-.208.35-2.011.49-5.41.49z" fill="#141515"/><path d="M22.987 18.344h-5.792v3.85h5.792v-3.85z" fill="#080902"/><path fill-rule="evenodd" clip-rule="evenodd" d="M9.544 3.929h20.981c.729 0 1.318.594 1.318 1.33v10.776H8.261V5.258a1.273 1.273 0 011.283-1.33z" fill="#141515"/><path fill-rule="evenodd" clip-rule="evenodd" d="M8.232 16.035h23.582v1.68c0 .7-.59 1.294-1.283 1.294H9.516c-.694 0-1.284-.595-1.284-1.295v-1.68z" fill="#E1E2E1"/><path fill-rule="evenodd" clip-rule="evenodd" d="M20.121 18.1a.55.55 0 00.555-.56.55.55 0 00-.555-.56.55.55 0 00-.555.56c0 .28.243.56.555.56z" fill="#141515"/><path d="M25.805 17.645h-3.989v.42h3.989v-.42zm1.245-.63h-2.427v.315h2.428v-.315z" fill="#141515"/><path fill-rule="evenodd" clip-rule="evenodd" d="M30.625 22.753c.034-.175.104-.28.312-.42.208-.105.52-.175.936-.21.416 0 .936.07 1.353.175.381.105.659.245.797.42a.552.552 0 01.07.56c-.07.175-.209.28-.382.35a1.92 1.92 0 01-.728.14c-.347 0-.798 0-1.18-.07a2.123 2.123 0 01-.936-.42c-.242-.175-.277-.385-.242-.525z" fill="#FDE742"/><path fill-rule="evenodd" clip-rule="evenodd" d="M31.147 22.403c.07 0 .208.035.347.07.139.035.243.07.347.07.07 0 .139 0 .139-.035.034-.035 0-.07-.035-.105a.356.356 0 00-.208-.175 1.479 1.479 0 00-.416-.07.416.416 0 00-.278.105c-.034.035-.07.07-.034.07.034.035.034.035.138.07z" fill="#141515"/><path fill-rule="evenodd" clip-rule="evenodd" d="M32.385 17.33c.139 1.05.382 2.87.486 3.849.139.945.139 1.015.659 1.12.52.104 1.56.21 2.462.21a9.818 9.818 0 002.011-.28c.382-.105.451-.105.59-1.05.139-.945.381-2.834.52-3.779.139-.945.139-.945.139-1.05 0-.105 0-.28-.208-.385-.208-.105-.66-.105-1.665-.105-1.006 0-2.566-.035-3.537-.035-.937 0-1.249 0-1.422.105-.174.105-.174.35-.035 1.4z" fill="#F9F9F9"/><path fill-rule="evenodd" clip-rule="evenodd" d="M31.71 16.35c.278.07.764.21 1.457.28.659.07 1.56.14 2.393.14.867 0 1.7-.035 2.393-.105.728-.07 1.318-.175 1.664-.245.347-.07.417-.105.451-.14.035-.035.07-.07.07-.28v-.805c0-.21 0-.21-.416-.314-.417-.105-1.284-.28-2.567-.35a38.013 38.013 0 00-4.023.035c-1.04.07-1.456.175-1.664.245-.208.07-.208.07-.208.315 0 .21 0 .664.034.91.07.244.14.244.417.314z" fill="#CBCCCD"/><path fill-rule="evenodd" clip-rule="evenodd" d="M32.213 15.23c.381.07 1.179.14 2.115.175.936.035 2.011.07 2.878.07s1.526-.07 1.908-.105c.381-.035.485-.07.485-.105 0-.035-.104-.07-.485-.14-.382-.07-1.006-.21-2.081-.245-1.04-.035-2.497 0-3.433.035-.937.035-1.318.07-1.526.14-.243 0-.243.07.139.175z" fill="#080902"/><path fill-rule="evenodd" clip-rule="evenodd" d="M39.163 5.993c-.52.28-1.006.595-1.422 1.015a4.4 4.4 0 00-.936 1.47 3.52 3.52 0 00-.208 1.434c.034.455.104.874.173 1.084.07.21.07.21.52-.035.451-.245 1.283-.77 1.942-1.364a5.084 5.084 0 001.318-2.1c.208-.734.208-1.434.243-1.819 0-.385.034-.385-.243-.28a9.493 9.493 0 00-1.387.595zM31.47 7.568c.658.245 1.595.56 2.219 1.12.659.56 1.005 1.329 1.144 2.064.139.7.07 1.364 0 1.68-.07.314-.07.314-.659.07-.59-.246-1.768-.736-2.531-1.435-.763-.7-1.075-1.645-1.283-2.345-.174-.7-.243-1.19-.243-1.434-.035-.245-.035-.245.173-.175.174.105.52.245 1.18.455zM35.827.885c-.277.35-.52.7-.762 1.12-.243.42-.451.874-.555 1.329-.104.455-.14.91-.104 1.295 0 .385.034.7.138 1.154.104.455.278 1.015.347 1.295.07.28.07.28.104.28 0 0 .035 0 .451-.49.416-.49 1.248-1.47 1.595-2.38.382-.909.312-1.679.174-2.449-.14-.77-.347-1.4-.451-1.749-.104-.35-.104-.35-.243-.175-.139.14-.416.42-.694.77z" fill="#60D213"/><path fill-rule="evenodd" clip-rule="evenodd" d="M36.002 2.32a157.96 157.96 0 00-.693 3.429 9.195 9.195 0 00-.208 1.154c-.07.35-.104.665-.173 1.015-.07.385-.105.805-.174 1.295-.07.49-.139 1.05-.173 1.644a113.83 113.83 0 00-.278 4.164H34.2c.07-1.47.174-2.94.278-4.164.069-.63.104-1.155.173-1.644.07-.49.139-.91.173-1.295.07-.385.105-.7.174-1.05.07-.35.139-.7.208-1.154.173-.875.45-2.135.694-3.394v-.035l.103.035z" fill="#509663"/><path fill-rule="evenodd" clip-rule="evenodd" d="M30.702 8.023c.485.455 1.005.91 1.456 1.364.486.455.902.91 1.283 1.365.382.455.694.91.937 1.33.242.42.485.84.624 1.19.173.349.312.699.416.944.104.28.174.455.243.595l.104.28-.104.035-.104-.28c-.035-.14-.139-.35-.243-.595a10.13 10.13 0 00-.416-.945c-.174-.35-.382-.77-.624-1.19a9.447 9.447 0 00-.937-1.33 15.422 15.422 0 00-1.283-1.364l-1.456-1.364.104-.035zm9.085-1.54c-.243.28-.486.56-.728.875-.243.315-.486.63-.729 1.015-.242.384-.52.804-.728 1.26a39.37 39.37 0 00-.59 1.259c-.173.42-.277.84-.381 1.224-.104.385-.173.77-.208 1.12-.104.7-.104 1.295-.139 1.925h-.069c.034-.595.034-1.225.139-1.925.034-.35.104-.735.208-1.12.104-.384.208-.804.381-1.26.174-.42.382-.874.59-1.294a15.8 15.8 0 01.763-1.294c.242-.385.485-.7.728-1.015.243-.315.485-.595.728-.875l.035.105z" fill="#509663"/></svg>