<svg width="135" height="97" fill="none" xmlns="http://www.w3.org/2000/svg"><path d="M91.001 33.5l.107-.488L91 33.5zm34.573 35.262a.5.5 0 00.688.164l3.835-2.354a.5.5 0 00-.523-.853l-3.409 2.093-2.093-3.409a.5.5 0 10-.852.524l2.354 3.835zm1.046-7.15a.5.5 0 10-.991.133l.991-.132zm-6.244-12.08a.5.5 0 00.786-.619l-.786.619zm-9.826-9.481a.5.5 0 00-.496.868l.496-.868zm-13.033-4.362a.5.5 0 00.288-.958l-.288.958zM85.413 32.04a.5.5 0 00-.127.992l.127-.992zm-11.528.31a.5.5 0 100-1v1zm-11.516-.483a.5.5 0 10.086.996l-.086-.996zm-11.285 2.36a.5.5 0 10-.15-.988l.15.989zM39.6 35.258a.5.5 0 10.2.98l-.2-.98zm-10.993 3.51a.5.5 0 00-.24-.97l.24.97zM17.263 40.77a.5.5 0 00.276.961l-.276-.96zM6.582 45.107a.5.5 0 00-.313-.95l.313.95zM126 68.5l.486.116v-.001l.001-.003.002-.008a.317.317 0 01.006-.028l.022-.103c.018-.09.043-.22.071-.388.056-.335.124-.822.174-1.437a23.71 23.71 0 00-.143-5.035l-.991.132c.264 1.983.233 3.652.137 4.821a16.55 16.55 0 01-.163 1.355 9.833 9.833 0 01-.083.438l-.005.02-.001.005.487.116zm-4.839-19.587c-2.423-3.078-5.835-6.134-10.612-8.862l-.496.868c4.674 2.669 7.985 5.643 10.322 8.613l.786-.619zM97.805 34.731a89.301 89.301 0 00-6.697-1.72l-.213.978a88.307 88.307 0 016.622 1.7l.288-.958zm-6.697-1.72a66.567 66.567 0 00-5.695-.97l-.127.991c1.923.246 3.796.563 5.61.957l.212-.977zm-17.223-1.66c-3.778-.005-7.64.182-11.516.516l.086.996c3.852-.331 7.684-.517 11.43-.513v-1zm-22.95 1.888A227.52 227.52 0 0039.6 35.258l.2.98c3.667-.746 7.451-1.43 11.284-2.01l-.15-.99zm-22.568 4.557c-4.014.994-7.755 2.01-11.104 2.974l.276.961c3.34-.96 7.068-1.974 11.068-2.964l-.24-.97zM6.269 44.158a224.956 224.956 0 00-5.075 1.74l-.274.099-.07.025a5.635 5.635 0 00-.017.007l-.005.001H.826L1 46.5l.173.469h.001l.005-.002.016-.006.068-.025.27-.098a224.005 224.005 0 015.049-1.73l-.313-.95zM91 33.5l.213-.977L91 33.5zm34.147 35.523a1 1 0 001.376.33l7.67-4.71a1 1 0 00-1.047-1.704l-6.817 4.186-4.186-6.818a1 1 0 00-1.705 1.046l4.709 7.67zm1.968-7.476a1 1 0 00-1.983.264l1.983-.264zm-7.133-11.706a1 1 0 001.572-1.237l-1.572 1.237zm-9.185-10.225a1 1 0 00-.992 1.737l.992-1.737zm-13.425-3.448a1 1 0 10.575-1.916l-.575 1.916zm-11.896-4.623a1 1 0 10-.254 1.983l.254-1.983zM73.884 32.85a1 1 0 10.002-2l-.002 2zm-11.558-1.48a1 1 0 10.172 1.992l-.172-1.992zM51.16 34.722a1 1 0 10-.3-1.978l.3 1.978zm-11.659.046a1 1 0 10.399 1.96l-.399-1.96zm-10.773 4.484a1 1 0 00-.48-1.941l.48 1.941zM17.125 40.29a1 1 0 00.553 1.922l-.553-1.922zM6.738 45.582a1 1 0 10-.626-1.9l.626 1.9zM126.001 68.5l.972.232.001-.002.001-.003.002-.01.007-.032a9.303 9.303 0 00.098-.518c.058-.348.128-.848.179-1.478a24.196 24.196 0 00-.145-5.142l-1.983.264a22.17 22.17 0 01.135 4.715 16.03 16.03 0 01-.159 1.313c-.024.15-.046.262-.061.334l-.016.078-.004.016v.001l.973.232zm-4.446-19.896c-2.466-3.133-5.928-6.23-10.757-8.988l-.992 1.737c4.622 2.64 7.882 5.572 10.177 8.488l1.572-1.237zM97.948 34.252a89.83 89.83 0 00-6.734-1.729l-.425 1.954a87.8 87.8 0 016.584 1.69l.575-1.915zm-6.734-1.729a67.045 67.045 0 00-5.737-.979l-.254 1.984c1.91.244 3.768.559 5.566.95l.425-1.955zM73.886 30.85c-3.795-.004-7.671.184-11.56.519l.172 1.992c3.84-.33 7.658-.514 11.386-.51l.002-2zM50.86 32.744c-3.861.584-7.67 1.273-11.36 2.024l.399 1.96a225.74 225.74 0 0111.26-2.006l-.3-1.978zm-22.613 4.567a305.173 305.173 0 00-11.122 2.979l.553 1.922a306.28 306.28 0 0111.05-2.96l-.481-1.941zM6.112 43.683a226.986 226.986 0 00-5.088 1.744 64.001 64.001 0 00-.346.126l-.018.007-.005.001H.653L1 46.5l.346.938h.001l.004-.002.017-.006.067-.024.267-.097a224.261 224.261 0 015.036-1.726l-.626-1.9z" fill="#4AAB3C"/></svg>