<svg fill="none" xmlns="http://www.w3.org/2000/svg"><path d="M17.967 29.902l-2.78-2.78c-.553-.552-1.47-.535-2.043.038l-1.4 1.4c-.09-.048-.18-.1-.277-.153-.884-.49-2.095-1.162-3.368-2.437-1.278-1.277-1.95-2.49-2.442-3.374-.052-.094-.101-.184-.15-.27l.94-.939.462-.463c.574-.573.59-1.49.037-2.043l-2.78-2.78c-.552-.553-1.47-.536-2.043.038l-.784.788.022.021a4.531 4.531 0 00-.646 1.139c-.15.397-.244.775-.287 1.155-.367 3.043 1.023 5.824 4.797 9.597 5.216 5.217 9.42 4.822 9.602 4.803a4.697 4.697 0 001.158-.29c.413-.162.8-.381 1.134-.644l.018.016.793-.777c.573-.575.59-1.491.037-2.045zM33.348.344h-4.51a.719.719 0 00-.711.726c0 .4.318.725.71.725h4.511c.883 0 1.602.734 1.602 1.635v11.076c0 .901-.719 1.635-1.602 1.635H16.725a.705.705 0 00-.503.212l-4.095 4.18v-3.667c0-.4-.318-.725-.71-.725h-1.354c-.884 0-1.602-.734-1.602-1.635V3.43c0-.901.718-1.635 1.602-1.635h16.405a.719.719 0 00.71-.725.718.718 0 00-.71-.726H10.063c-1.668 0-3.024 1.385-3.024 3.086v11.076c0 1.701 1.357 3.086 3.024 3.086h.643v4.692c0 .294.173.559.439.67a.7.7 0 00.774-.156l5.1-5.206h16.33c1.666 0 3.023-1.384 3.023-3.086V3.43c0-1.701-1.357-3.086-3.024-3.086z" fill="#4AAB3C"/><path d="M13.98 9.81c.768-.62 1.723-1.394 1.723-2.717 0-.628-.215-1.163-.62-1.547a1.99 1.99 0 00-1.359-.535c-.93 0-1.92.677-1.92 1.932 0 .553.197.822.602.822.457 0 .704-.3.704-.582 0-.469.227-.738.622-.738.466 0 .632.376.632.697 0 .595-.593 1.11-1.22 1.655-.709.615-1.44 1.252-1.44 2.084v.97c0 .3.346.493.584.493h3.007c.217 0 .408-.329.408-.703 0-.364-.19-.683-.408-.683h-2.202v-.077c0-.35.412-.684.888-1.07zm6.029 2.534c.542 0 .789-.255.789-.493v-1.047h.416c.247 0 .49-.363.49-.732 0-.504-.254-.733-.49-.733h-.416v-.687c0-.222-.207-.482-.79-.482-.582 0-.789.26-.789.482v.687h-.823l1.754-3.531a.505.505 0 00.05-.195c0-.163-.103-.32-.293-.44a1.01 1.01 0 00-.496-.162.713.713 0 00-.658.406l-2.3 4.529a.65.65 0 00-.082.306c0 .33.214.552.531.552h2.317v1.047c0 .238.247.493.79.493zM25.47 5.24l-3.054 6.444a.42.42 0 00-.045.174c0 .235.2.486.499.486.175 0 .34-.095.401-.23l3.064-6.443a.408.408 0 00.036-.175c0-.29-.271-.486-.525-.486a.394.394 0 00-.375.23zm2.973 2.285c.412 0 .76-.224.76-.489v-.652h1.668v.678l-2.325 4.222a.54.54 0 00-.067.264c0 .469.5.796.948.796.213 0 .353-.07.426-.215l2.213-4.443c.071-.14.304-.623.304-.947v-1.24c0-.213-.318-.488-.655-.488h-3.357c-.33 0-.655.242-.655.488v1.537c0 .27.332.489.74.489z" fill="#4AAB3C"/></svg>