<svg width="26" height="25" fill="none" xmlns="http://www.w3.org/2000/svg"><path d="M12.677 21.795l-2.002-2.003c-.4-.397-1.06-.385-1.473.028l-1.009 1.009-.199-.111c-.637-.353-1.509-.837-2.427-1.755-.92-.92-1.404-1.794-1.758-2.432l-.109-.194.677-.676.333-.334c.414-.413.425-1.073.027-1.472l-2.003-2.003c-.398-.398-1.059-.386-1.472.028l-.564.567.015.016c-.19.241-.347.52-.465.82a3.401 3.401 0 00-.207.832c-.265 2.192.737 4.196 3.456 6.915 3.758 3.758 6.787 3.474 6.918 3.46a3.385 3.385 0 001.651-.673l.013.011.572-.56c.412-.413.424-1.074.026-1.473zM23.76.5h-3.25a.518.518 0 00-.513.523c0 .289.23.523.513.523h3.25c.636 0 1.153.528 1.153 1.178v7.979c0 .65-.517 1.178-1.154 1.178H11.783a.508.508 0 00-.363.153l-2.95 3.011v-2.641a.517.517 0 00-.512-.523h-.975a1.167 1.167 0 01-1.154-1.178v-7.98c0-.649.518-1.177 1.154-1.177h11.82a.518.518 0 00.512-.523.518.518 0 00-.513-.523H6.983c-1.201 0-2.178.998-2.178 2.224v7.979c0 1.226.977 2.224 2.178 2.224h.463v3.38c0 .212.125.402.316.483a.505.505 0 00.559-.113l3.674-3.75h11.764c1.201 0 2.179-.998 2.179-2.224v-7.98C25.938 1.499 24.96.5 23.759.5z" fill="#4AAB3C"/><path d="M9.805 7.32c.553-.447 1.24-1.005 1.24-1.958 0-.452-.154-.837-.447-1.114a1.434 1.434 0 00-.978-.386c-.67 0-1.383.488-1.383 1.392 0 .399.142.593.434.593.329 0 .507-.217.507-.42 0-.337.163-.531.448-.531.336 0 .455.27.455.502 0 .429-.427.8-.88 1.192-.51.443-1.037.902-1.037 1.502v.698c0 .217.25.355.421.355h2.167c.157 0 .294-.236.294-.506 0-.262-.137-.492-.294-.492H9.165v-.055c0-.253.297-.493.64-.771zm4.343 1.825c.39 0 .569-.183.569-.354v-.755h.3c.178 0 .353-.261.353-.528 0-.362-.184-.527-.354-.527h-.3v-.495c0-.16-.148-.348-.568-.348-.42 0-.569.187-.569.348v.495h-.593l1.264-2.544a.363.363 0 00.036-.14c0-.119-.075-.231-.21-.318a.728.728 0 00-.358-.117.514.514 0 00-.475.293l-1.657 3.263a.47.47 0 00-.059.22c0 .238.154.398.383.398h1.67v.754c0 .172.177.355.568.355zm3.939-5.117L15.886 8.67a.302.302 0 00-.032.126c0 .169.144.35.359.35.126 0 .245-.069.29-.166l2.206-4.642a.295.295 0 00.026-.126c0-.21-.195-.35-.378-.35a.284.284 0 00-.27.166zm2.138 1.646c.296 0 .546-.162.546-.353v-.47h1.202v.49L20.3 8.38a.39.39 0 00-.049.191c0 .338.36.573.683.573.154 0 .255-.05.308-.155l1.594-3.2c.05-.1.218-.449.218-.683v-.893c0-.154-.228-.352-.472-.352h-2.418c-.238 0-.472.174-.472.352V5.32c0 .195.24.353.534.353z" fill="#4AAB3C"/></svg>