<svg width="186" height="359" fill="none" xmlns="http://www.w3.org/2000/svg"><g clip-path="url(#clip0_2_4432)" fill="#FAEECC"><path d="M137.61 318.494a3.015 3.015 0 003.017-3.013 3.015 3.015 0 00-3.017-3.014 3.015 3.015 0 100 6.027zm14.957-.001a3.015 3.015 0 100-6.027 3.015 3.015 0 100 6.027zm14.957.001a3.015 3.015 0 100-6.027 3.015 3.015 0 100 6.027zm14.954-.001a3.014 3.014 0 100-6.027 3.015 3.015 0 00-3.017 3.014 3.015 3.015 0 003.017 3.013zm-29.911 14.94a3.015 3.015 0 100-6.027 3.014 3.014 0 100 6.027zm14.957-.001a3.015 3.015 0 100-6.027 3.015 3.015 0 100 6.027zm14.954 0a3.014 3.014 0 100-6.027 3.015 3.015 0 00-3.017 3.014 3.015 3.015 0 003.017 3.013zm-14.954 14.938a3.015 3.015 0 100-6.027 3.015 3.015 0 100 6.027zm14.954 0a3.014 3.014 0 100-6.027 3.015 3.015 0 00-3.017 3.014 3.015 3.015 0 003.017 3.013zm-14.954-44.814a3.015 3.015 0 100-6.027 3.015 3.015 0 100 6.027zm14.954-.001a3.014 3.014 0 100-6.027 3.016 3.016 0 00-3.017 3.014 3.015 3.015 0 003.017 3.013zm-59.821.001a3.015 3.015 0 003.017-3.013 3.015 3.015 0 00-3.017-3.014 3.015 3.015 0 100 6.027zm-14.957-14.94a3.015 3.015 0 003.017-3.013 3.015 3.015 0 00-3.017-3.013 3.014 3.014 0 00-3.016 3.013 3.014 3.014 0 003.016 3.013zm29.91 14.939a3.015 3.015 0 100-6.027 3.014 3.014 0 100 6.027zm14.957-.001a3.015 3.015 0 100-6.027 3.014 3.014 0 100 6.027zm14.957-14.938a3.015 3.015 0 003.017-3.013 3.015 3.015 0 00-3.017-3.013 3.014 3.014 0 00-3.016 3.013 3.014 3.014 0 003.016 3.013zm14.954 0a3.014 3.014 0 003.016-3.013 3.014 3.014 0 00-3.016-3.013 3.015 3.015 0 00-3.017 3.013 3.015 3.015 0 003.017 3.013zm-59.821.001a3.015 3.015 0 003.017-3.013 3.016 3.016 0 00-6.033 0 3.014 3.014 0 003.016 3.013zm14.953 0a3.015 3.015 0 100-6.027 3.014 3.014 0 100 6.027zm14.957-.001a3.015 3.015 0 003.017-3.013 3.015 3.015 0 00-3.017-3.013 3.014 3.014 0 00-3.016 3.013 3.014 3.014 0 003.016 3.013zm-29.91-14.938a3.016 3.016 0 003.017-3.014 3.015 3.015 0 00-3.017-3.013 3.014 3.014 0 100 6.027zm59.821 0a3.014 3.014 0 100-6.027 3.015 3.015 0 00-3.017 3.013 3.016 3.016 0 003.017 3.014zm-44.868 0a3.015 3.015 0 003.017-3.013 3.015 3.015 0 00-3.017-3.013 3.014 3.014 0 00-3.016 3.013 3.014 3.014 0 003.016 3.013zm-44.859 0a3.015 3.015 0 003.017-3.013 3.015 3.015 0 00-3.017-3.013 3.015 3.015 0 00-3.017 3.013 3.015 3.015 0 003.017 3.013zm14.949 0a3.016 3.016 0 003.017-3.014 3.015 3.015 0 00-3.017-3.013 3.014 3.014 0 100 6.027zm44.867 0a3.015 3.015 0 100-6.027 3.014 3.014 0 100 6.027zm14.957 0a3.015 3.015 0 100-6.027 3.014 3.014 0 100 6.027zM137.61 258.74a3.015 3.015 0 100-6.027 3.014 3.014 0 100 6.027zm14.957 0a3.015 3.015 0 100-6.027 3.014 3.014 0 100 6.027zm-44.867 0a3.016 3.016 0 003.017-3.014 3.015 3.015 0 00-3.017-3.013 3.014 3.014 0 100 6.027zm14.957-.001a3.015 3.015 0 003.017-3.013 3.015 3.015 0 00-3.017-3.014 3.015 3.015 0 100 6.027zm-44.867.001a3.016 3.016 0 003.017-3.014 3.015 3.015 0 00-3.017-3.013 3.015 3.015 0 00-3.017 3.013 3.016 3.016 0 003.017 3.014zm14.957-.001a3.015 3.015 0 003.017-3.013 3.015 3.015 0 00-3.017-3.014 3.015 3.015 0 00-3.016 3.014 3.015 3.015 0 003.016 3.013zm74.777.001a3.015 3.015 0 100-6.027 3.014 3.014 0 100 6.027zm14.954 0a3.014 3.014 0 100-6.027 3.015 3.015 0 00-3.017 3.013 3.016 3.016 0 003.017 3.014zm-29.911-14.939a3.015 3.015 0 100-6.027 3.015 3.015 0 100 6.027zm14.957-.001a3.015 3.015 0 100-6.027 3.014 3.014 0 100 6.027zm-44.867 0a3.015 3.015 0 003.017-3.013 3.016 3.016 0 00-6.033 0 3.014 3.014 0 003.016 3.013zm14.953 0a3.015 3.015 0 100-6.027 3.014 3.014 0 100 6.027zm-44.859 0a3.015 3.015 0 003.017-3.013 3.016 3.016 0 00-3.017-3.014 3.016 3.016 0 00-3.017 3.014 3.015 3.015 0 003.017 3.013zm14.949.001a3.015 3.015 0 003.017-3.013 3.015 3.015 0 00-3.017-3.014 3.015 3.015 0 100 6.027zm-44.863-.001a3.015 3.015 0 003.017-3.013 3.016 3.016 0 00-3.017-3.014 3.016 3.016 0 00-3.017 3.014 3.015 3.015 0 003.017 3.013zm14.953.001a3.015 3.015 0 003.017-3.013 3.015 3.015 0 00-3.017-3.014 3.015 3.015 0 00-3.017 3.014 3.015 3.015 0 003.017 3.013zm104.688-.001a3.014 3.014 0 100-6.027 3.016 3.016 0 00-3.017 3.014 3.015 3.015 0 003.017 3.013zm-14.954-14.938a3.015 3.015 0 100-6.027 3.014 3.014 0 100 6.027zm14.954 0a3.014 3.014 0 100-6.027 3.016 3.016 0 00-3.017 3.014 3.015 3.015 0 003.017 3.013zm-44.868 0a3.015 3.015 0 100-6.027 3.014 3.014 0 100 6.027zm14.957-.001a3.015 3.015 0 100-6.027 3.014 3.014 0 100 6.027zm-44.867.002a3.015 3.015 0 003.017-3.013 3.016 3.016 0 00-6.033 0 3.014 3.014 0 003.016 3.013zm14.957-.001a3.015 3.015 0 003.017-3.013 3.016 3.016 0 00-6.033 0 3.014 3.014 0 003.016 3.013zm-44.867 0a3.015 3.015 0 003.017-3.013 3.016 3.016 0 00-3.017-3.014 3.016 3.016 0 00-3.017 3.014 3.015 3.015 0 003.017 3.013zm14.961 0a3.015 3.015 0 003.017-3.013 3.016 3.016 0 00-3.017-3.014 3.016 3.016 0 00-3.017 3.014 3.015 3.015 0 003.017 3.013zm-44.867 0a3.015 3.015 0 003.017-3.013 3.016 3.016 0 00-3.017-3.014 3.016 3.016 0 00-3.017 3.014 3.015 3.015 0 003.017 3.013zm14.953 0a3.015 3.015 0 003.017-3.013 3.016 3.016 0 00-3.017-3.014 3.016 3.016 0 00-3.017 3.014 3.015 3.015 0 003.017 3.013zm104.687-14.939a3.015 3.015 0 100-6.027 3.014 3.014 0 100 6.027zm14.954 0a3.014 3.014 0 100-6.027 3.016 3.016 0 00-3.017 3.014 3.015 3.015 0 003.017 3.013zm-44.868 0a3.015 3.015 0 100-6.027 3.014 3.014 0 100 6.027zm14.957 0a3.015 3.015 0 100-6.027 3.014 3.014 0 100 6.027zm-44.867 0a3.015 3.015 0 003.017-3.013 3.016 3.016 0 00-6.033 0 3.014 3.014 0 003.016 3.013zm14.957 0a3.015 3.015 0 003.017-3.013 3.016 3.016 0 00-6.033 0 3.014 3.014 0 003.016 3.013zm-44.867 0a3.015 3.015 0 003.017-3.013 3.016 3.016 0 00-3.017-3.014 3.016 3.016 0 00-3.017 3.014 3.015 3.015 0 003.017 3.013zm14.961 0a3.015 3.015 0 003.017-3.013 3.016 3.016 0 00-3.017-3.014 3.016 3.016 0 00-3.017 3.014 3.015 3.015 0 003.017 3.013zm-44.867 0a3.015 3.015 0 003.017-3.013 3.016 3.016 0 00-3.017-3.014 3.016 3.016 0 00-3.017 3.014 3.015 3.015 0 003.017 3.013zm-14.957 0a3.015 3.015 0 003.017-3.013 3.016 3.016 0 00-3.017-3.014 3.016 3.016 0 00-3.017 3.014 3.015 3.015 0 003.017 3.013zm0-14.939a3.015 3.015 0 003.017-3.013 3.015 3.015 0 00-3.017-3.013 3.015 3.015 0 00-3.017 3.013 3.015 3.015 0 003.017 3.013zm-14.957 0a3.015 3.015 0 003.017-3.013 3.015 3.015 0 00-3.017-3.013 3.015 3.015 0 00-3.017 3.013 3.015 3.015 0 003.017 3.013zm14.957-14.938a3.016 3.016 0 003.017-3.014 3.015 3.015 0 00-3.017-3.013 3.015 3.015 0 00-3.017 3.013 3.016 3.016 0 003.017 3.014zm-14.957.001a3.016 3.016 0 003.017-3.014 3.015 3.015 0 00-3.017-3.013 3.015 3.015 0 00-3.017 3.013 3.016 3.016 0 003.017 3.014zm-14.953 0a3.016 3.016 0 003.016-3.014 3.015 3.015 0 00-3.016-3.013A3.015 3.015 0 000 181.033a3.016 3.016 0 003.017 3.014zm59.82 29.876a3.015 3.015 0 003.017-3.013 3.016 3.016 0 00-3.017-3.014 3.016 3.016 0 00-3.017 3.014 3.015 3.015 0 003.017 3.013zm104.687-14.938a3.015 3.015 0 100-6.027 3.014 3.014 0 100 6.027zm14.954-.001a3.014 3.014 0 003.016-3.013 3.014 3.014 0 00-3.016-3.013 3.015 3.015 0 00-3.017 3.013 3.015 3.015 0 003.017 3.013zm-44.868 0a3.015 3.015 0 003.017-3.013 3.015 3.015 0 00-3.017-3.013 3.014 3.014 0 00-3.016 3.013 3.014 3.014 0 003.016 3.013zm14.957 0a3.015 3.015 0 003.017-3.013 3.015 3.015 0 00-3.017-3.013 3.014 3.014 0 00-3.016 3.013 3.014 3.014 0 003.016 3.013zm-44.867 0a3.015 3.015 0 003.017-3.013 3.015 3.015 0 00-3.017-3.013 3.014 3.014 0 00-3.016 3.013 3.014 3.014 0 003.016 3.013zm14.957.001a3.015 3.015 0 003.017-3.013 3.016 3.016 0 00-6.033 0 3.014 3.014 0 003.016 3.013zm-44.867-.001a3.016 3.016 0 003.017-3.014 3.015 3.015 0 00-3.017-3.013 3.015 3.015 0 00-3.017 3.013 3.016 3.016 0 003.017 3.014zm14.961 0a3.015 3.015 0 003.017-3.013 3.015 3.015 0 00-3.017-3.013 3.015 3.015 0 00-3.017 3.013 3.015 3.015 0 003.017 3.013zm-44.867 0a3.015 3.015 0 003.017-3.013 3.015 3.015 0 00-3.017-3.013 3.015 3.015 0 00-3.017 3.013 3.015 3.015 0 003.017 3.013zm14.953 0a3.015 3.015 0 003.017-3.013 3.015 3.015 0 00-3.017-3.013 3.015 3.015 0 00-3.017 3.013 3.015 3.015 0 003.017 3.013zm104.687-14.938a3.015 3.015 0 100-6.027 3.014 3.014 0 100 6.027zm14.954 0a3.014 3.014 0 100-6.027 3.015 3.015 0 00-3.017 3.013 3.016 3.016 0 003.017 3.014zm-44.868.001a3.016 3.016 0 003.017-3.014 3.015 3.015 0 00-3.017-3.013 3.014 3.014 0 100 6.027zm14.957-.001a3.015 3.015 0 100-6.027 3.014 3.014 0 100 6.027zm-44.867 0a3.016 3.016 0 003.017-3.014 3.015 3.015 0 00-3.017-3.013 3.014 3.014 0 100 6.027zm14.957 0a3.016 3.016 0 003.017-3.014 3.015 3.015 0 00-3.017-3.013 3.014 3.014 0 100 6.027zm-44.867 0a3.016 3.016 0 003.017-3.014 3.015 3.015 0 00-3.017-3.013 3.015 3.015 0 00-3.017 3.013 3.016 3.016 0 003.017 3.014zm14.961.001a3.016 3.016 0 003.017-3.014 3.015 3.015 0 00-3.017-3.013 3.015 3.015 0 00-3.017 3.013 3.016 3.016 0 003.017 3.014zm-44.867 0a3.016 3.016 0 003.017-3.014 3.015 3.015 0 00-3.017-3.013 3.015 3.015 0 00-3.017 3.013 3.016 3.016 0 003.017 3.014zm14.953-.001a3.016 3.016 0 003.017-3.014 3.015 3.015 0 00-3.017-3.013 3.015 3.015 0 00-3.017 3.013 3.016 3.016 0 003.017 3.014zm-29.91-14.938a3.015 3.015 0 003.017-3.014 3.015 3.015 0 00-3.017-3.013 3.015 3.015 0 00-3.017 3.013 3.015 3.015 0 003.017 3.014zm-14.957 0a3.015 3.015 0 003.017-3.014 3.015 3.015 0 00-3.017-3.013 3.015 3.015 0 00-3.017 3.013 3.015 3.015 0 003.017 3.014zm-14.953 0a3.016 3.016 0 003.016-3.014 3.015 3.015 0 00-3.016-3.013A3.015 3.015 0 000 166.094a3.016 3.016 0 003.017 3.014zm164.507 0a3.015 3.015 0 100-6.027 3.014 3.014 0 100 6.027zm14.954 0a3.015 3.015 0 100-6.027 3.015 3.015 0 00-3.017 3.013 3.015 3.015 0 003.017 3.014zm-44.868 0a3.015 3.015 0 003.017-3.014 3.015 3.015 0 00-3.017-3.013 3.014 3.014 0 100 6.027zm14.957 0a3.015 3.015 0 100-6.027 3.014 3.014 0 100 6.027zm-44.867 0a3.015 3.015 0 003.017-3.014 3.015 3.015 0 00-3.017-3.013 3.014 3.014 0 100 6.027zm14.957 0a3.015 3.015 0 003.017-3.014 3.015 3.015 0 00-3.017-3.013 3.014 3.014 0 100 6.027zm-44.867 0a3.015 3.015 0 003.017-3.014 3.015 3.015 0 00-3.017-3.013 3.015 3.015 0 00-3.017 3.013 3.015 3.015 0 003.017 3.014zm14.961 0a3.015 3.015 0 003.017-3.014 3.015 3.015 0 00-3.017-3.013 3.015 3.015 0 00-3.017 3.013 3.015 3.015 0 003.017 3.014zm-44.867 0a3.015 3.015 0 003.017-3.014 3.015 3.015 0 00-3.017-3.013 3.015 3.015 0 00-3.017 3.013 3.015 3.015 0 003.017 3.014zm14.953 0a3.015 3.015 0 003.017-3.014 3.015 3.015 0 00-3.017-3.013 3.015 3.015 0 00-3.017 3.013 3.015 3.015 0 003.017 3.014zM32.93 154.169a3.015 3.015 0 003.017-3.014 3.015 3.015 0 00-3.016-3.013 3.015 3.015 0 00-3.017 3.013 3.015 3.015 0 003.017 3.014zm-14.96.001a3.015 3.015 0 003.017-3.014 3.015 3.015 0 00-3.017-3.013 3.015 3.015 0 00-3.017 3.013 3.015 3.015 0 003.017 3.014zm149.554-.001a3.015 3.015 0 100-6.027 3.014 3.014 0 100 6.027zm14.954.001a3.015 3.015 0 100-6.027 3.015 3.015 0 00-3.017 3.013 3.015 3.015 0 003.017 3.014zm-44.868 0a3.015 3.015 0 003.017-3.014 3.015 3.015 0 00-3.017-3.013 3.014 3.014 0 100 6.027zm14.957 0a3.015 3.015 0 100-6.027 3.014 3.014 0 100 6.027zm-44.867-.001a3.015 3.015 0 003.017-3.014 3.015 3.015 0 00-3.017-3.013 3.014 3.014 0 100 6.027zm14.957 0a3.015 3.015 0 003.017-3.014 3.015 3.015 0 00-3.017-3.013 3.014 3.014 0 100 6.027zm-44.867 0a3.015 3.015 0 003.017-3.014 3.015 3.015 0 00-3.017-3.013 3.015 3.015 0 00-3.017 3.013 3.015 3.015 0 003.017 3.014zm14.957 0a3.015 3.015 0 003.017-3.014 3.015 3.015 0 00-3.017-3.013 3.015 3.015 0 00-3.016 3.013 3.015 3.015 0 003.016 3.014zm-44.867 0a3.015 3.015 0 003.017-3.014 3.015 3.015 0 00-3.017-3.013 3.015 3.015 0 00-3.017 3.013 3.015 3.015 0 003.017 3.014zm14.957.001a3.015 3.015 0 003.017-3.014 3.015 3.015 0 00-3.017-3.013 3.015 3.015 0 00-3.017 3.013 3.015 3.015 0 003.017 3.014zM32.93 139.23a3.015 3.015 0 003.017-3.013 3.015 3.015 0 00-3.016-3.014 3.015 3.015 0 00-3.017 3.014 3.015 3.015 0 003.017 3.013zm134.594 0a3.015 3.015 0 100-6.027 3.015 3.015 0 100 6.027zm14.954 0a3.014 3.014 0 100-6.027 3.015 3.015 0 00-3.017 3.014 3.015 3.015 0 003.017 3.013zm-44.868-.001a3.015 3.015 0 100-6.027 3.015 3.015 0 100 6.027zm14.957.001a3.015 3.015 0 100-6.027 3.015 3.015 0 100 6.027zm-44.867 0a3.015 3.015 0 003.017-3.013 3.015 3.015 0 00-3.017-3.014 3.015 3.015 0 100 6.027zm14.957 0a3.015 3.015 0 003.017-3.013 3.015 3.015 0 00-3.017-3.014 3.015 3.015 0 100 6.027zm-44.867 0a3.015 3.015 0 003.017-3.013 3.015 3.015 0 00-3.017-3.014 3.015 3.015 0 00-3.017 3.014 3.015 3.015 0 003.017 3.013zm14.957 0a3.015 3.015 0 003.017-3.013 3.015 3.015 0 00-3.017-3.014 3.015 3.015 0 00-3.016 3.014 3.015 3.015 0 003.016 3.013zm-44.867 0a3.015 3.015 0 003.017-3.013 3.015 3.015 0 00-3.017-3.014 3.015 3.015 0 00-3.017 3.014 3.015 3.015 0 003.017 3.013zm14.957 0a3.015 3.015 0 003.017-3.013 3.015 3.015 0 00-3.017-3.014 3.015 3.015 0 00-3.017 3.014 3.015 3.015 0 003.017 3.013zm104.687-14.939a3.015 3.015 0 100-6.027 3.015 3.015 0 100 6.027zm14.954 0a3.014 3.014 0 100-6.027 3.015 3.015 0 00-3.017 3.014 3.015 3.015 0 003.017 3.013zm-44.868 0a3.015 3.015 0 100-6.027 3.015 3.015 0 100 6.027zm14.957-.001a3.015 3.015 0 100-6.027 3.014 3.014 0 100 6.027zm-44.867 0a3.015 3.015 0 003.017-3.013 3.016 3.016 0 00-6.033 0 3.014 3.014 0 003.016 3.013zm14.957.001a3.015 3.015 0 003.017-3.013 3.015 3.015 0 00-3.017-3.014 3.015 3.015 0 100 6.027zm-44.867 0a3.015 3.015 0 003.017-3.013 3.015 3.015 0 00-3.017-3.014 3.015 3.015 0 00-3.017 3.014 3.015 3.015 0 003.017 3.013zm14.961 0a3.015 3.015 0 003.017-3.013 3.015 3.015 0 00-3.017-3.014 3.015 3.015 0 00-3.017 3.014 3.015 3.015 0 003.017 3.013zm-44.867 0a3.015 3.015 0 003.017-3.013 3.015 3.015 0 00-3.017-3.014 3.015 3.015 0 00-3.017 3.014 3.015 3.015 0 003.017 3.013zm14.953-.001a3.015 3.015 0 003.017-3.013 3.016 3.016 0 00-3.017-3.014 3.016 3.016 0 00-3.017 3.014 3.015 3.015 0 003.017 3.013zm104.687-14.937a3.015 3.015 0 100-6.027 3.014 3.014 0 100 6.027zm14.954-.001a3.014 3.014 0 100-6.027 3.016 3.016 0 00-3.017 3.014 3.015 3.015 0 003.017 3.013zm-44.868.001a3.015 3.015 0 100-6.027 3.014 3.014 0 100 6.027zm14.957-.001a3.015 3.015 0 100-6.027 3.014 3.014 0 100 6.027zm-44.867 0a3.015 3.015 0 003.017-3.013 3.016 3.016 0 00-6.033 0 3.014 3.014 0 003.016 3.013zm14.957.001a3.015 3.015 0 003.017-3.013 3.016 3.016 0 00-6.033 0 3.014 3.014 0 003.016 3.013zm-44.867 0a3.015 3.015 0 003.017-3.013 3.016 3.016 0 00-3.017-3.014 3.016 3.016 0 00-3.017 3.014 3.015 3.015 0 003.017 3.013zm14.961 0a3.015 3.015 0 003.017-3.013 3.016 3.016 0 00-3.017-3.014 3.016 3.016 0 00-3.017 3.014 3.015 3.015 0 003.017 3.013zm-29.914-.001a3.015 3.015 0 003.017-3.013 3.016 3.016 0 00-3.017-3.014 3.016 3.016 0 00-3.017 3.014 3.015 3.015 0 003.017 3.013zm104.687-14.937a3.015 3.015 0 003.017-3.013 3.015 3.015 0 00-3.017-3.013 3.014 3.014 0 100 6.026zm14.954 0a3.015 3.015 0 100-6.027 3.015 3.015 0 00-3.017 3.013 3.015 3.015 0 003.017 3.014zm-44.868 0a3.015 3.015 0 003.017-3.014 3.015 3.015 0 00-3.017-3.013 3.014 3.014 0 100 6.026zm14.957 0a3.015 3.015 0 003.017-3.014 3.015 3.015 0 00-3.017-3.013 3.014 3.014 0 100 6.026zm-44.867 0a3.015 3.015 0 003.017-3.014 3.015 3.015 0 00-3.017-3.013 3.014 3.014 0 100 6.026zm14.957 0a3.015 3.015 0 003.017-3.014 3.015 3.015 0 00-3.017-3.013 3.014 3.014 0 100 6.026zm-44.867-.002a3.015 3.015 0 003.017-3.013 3.015 3.015 0 00-3.017-3.013 3.015 3.015 0 00-3.017 3.013 3.015 3.015 0 003.017 3.013zm14.961.002a3.015 3.015 0 003.017-3.014 3.015 3.015 0 00-3.017-3.013 3.015 3.015 0 00-3.017 3.013 3.015 3.015 0 003.017 3.014zm74.773-14.94a3.015 3.015 0 003.017-3.013 3.015 3.015 0 00-3.017-3.014 3.015 3.015 0 100 6.027zm14.954 0a3.014 3.014 0 100-6.027 3.015 3.015 0 00-3.017 3.014 3.015 3.015 0 003.017 3.013zm-44.868.001a3.015 3.015 0 003.017-3.013 3.015 3.015 0 00-3.017-3.014 3.015 3.015 0 100 6.027zm14.957-.001a3.015 3.015 0 003.017-3.013 3.015 3.015 0 00-3.017-3.014 3.015 3.015 0 100 6.027zm-44.867 0a3.015 3.015 0 003.017-3.013 3.015 3.015 0 00-3.017-3.014 3.015 3.015 0 100 6.027zm14.957 0a3.015 3.015 0 003.017-3.013 3.015 3.015 0 00-3.017-3.014 3.015 3.015 0 100 6.027zm-29.906.001a3.015 3.015 0 003.017-3.013 3.015 3.015 0 00-3.017-3.014 3.015 3.015 0 00-3.017 3.014 3.015 3.015 0 003.017 3.013zm74.773-14.939a3.015 3.015 0 003.017-3.013 3.015 3.015 0 00-3.017-3.014 3.014 3.014 0 100 6.027zm14.954 0a3.015 3.015 0 100-6.027 3.015 3.015 0 00-3.017 3.014 3.015 3.015 0 003.017 3.013zm-44.868 0a3.015 3.015 0 003.017-3.013 3.015 3.015 0 00-3.017-3.014 3.014 3.014 0 100 6.027zm14.957 0a3.015 3.015 0 003.017-3.013 3.015 3.015 0 00-3.017-3.014 3.014 3.014 0 100 6.027zm-44.867 0a3.015 3.015 0 003.017-3.013 3.015 3.015 0 00-3.017-3.014 3.014 3.014 0 100 6.027zm14.957 0a3.015 3.015 0 003.017-3.013 3.015 3.015 0 00-3.017-3.014 3.014 3.014 0 100 6.027zm44.867-14.939a3.015 3.015 0 003.017-3.013 3.015 3.015 0 00-3.017-3.014 3.014 3.014 0 100 6.027zm14.954.001a3.014 3.014 0 100-6.027 3.015 3.015 0 00-3.017 3.014 3.015 3.015 0 003.017 3.013zm-44.868 0a3.015 3.015 0 003.017-3.013 3.015 3.015 0 00-3.017-3.014 3.014 3.014 0 100 6.027zm14.957-.001a3.015 3.015 0 003.017-3.013 3.015 3.015 0 00-3.017-3.014 3.014 3.014 0 100 6.027zm-29.91 0a3.015 3.015 0 003.017-3.013 3.015 3.015 0 00-3.017-3.014 3.014 3.014 0 100 6.027zm44.867-14.938a3.015 3.015 0 003.017-3.013 3.015 3.015 0 00-3.017-3.014 3.014 3.014 0 100 6.027zm14.954 0a3.014 3.014 0 100-6.027 3.015 3.015 0 00-3.017 3.014 3.015 3.015 0 003.017 3.013zm-44.868 0a3.015 3.015 0 003.017-3.014 3.015 3.015 0 00-3.017-3.014 3.015 3.015 0 100 6.027zm14.957 0a3.015 3.015 0 003.017-3.013 3.015 3.015 0 00-3.017-3.014 3.014 3.014 0 100 6.027zm14.957-13.694a3.015 3.015 0 003.017-3.014 3.015 3.015 0 00-3.017-3.013 3.014 3.014 0 100 6.027zm14.954.001a3.014 3.014 0 100-6.027 3.015 3.015 0 00-3.017 3.013 3.015 3.015 0 003.017 3.014zM167.524 6.028a3.015 3.015 0 003.017-3.014 3.015 3.015 0 00-3.017-3.013 3.014 3.014 0 100 6.027zm14.954-.001a3.014 3.014 0 100-6.027 3.015 3.015 0 00-3.017 3.013 3.015 3.015 0 003.017 3.014zm-29.911 14.939a3.015 3.015 0 003.017-3.014 3.015 3.015 0 00-3.017-3.013 3.014 3.014 0 100 6.027z"/></g><defs><clipPath id="clip0_2_4432"><path fill="#fff" d="M0 0h186v359H0z"/></clipPath></defs></svg>