<svg width="67" height="66" fill="none" xmlns="http://www.w3.org/2000/svg"><path d="M21.544 45.682c-2.32 0-4.208 1.88-4.208 4.19 0 2.311 1.887 4.19 4.208 4.19 2.32 0 4.208-1.879 4.208-4.19 0-2.31-1.887-4.19-4.208-4.19z" fill="url(#paint0_linear_2_12440)"/><path d="M52.813 45.682c-2.32 0-4.208 1.88-4.208 4.19 0 2.311 1.888 4.19 4.208 4.19 2.321 0 4.209-1.879 4.209-4.19 0-2.31-1.888-4.19-4.209-4.19z" fill="url(#paint1_linear_2_12440)"/><path d="M63.34 30.363l-.019-5.335a2.225 2.225 0 00-2.23-2.212h-3.344l-1.895 7.547h7.488z" fill="url(#paint2_linear_2_12440)"/><path d="M55.91 14.64a2.212 2.212 0 00-.437-1.87 2.234 2.234 0 00-1.74-.832H18.786c-1.046 0-1.95.723-2.177 1.739l-.43 1.924h-4.751c-1.232 0-2.23.994-2.23 2.22 0 1.226.998 2.22 2.23 2.22h3.76l-1.052 4.718H5.909c-1.232 0-2.23.994-2.23 2.22 0 1.226.998 2.22 2.23 2.22h7.235l-1.053 4.717H2.23c-1.232 0-2.23.994-2.23 2.22 0 1.226.998 2.22 2.23 2.22h8.87l-1.85 8.287a2.214 2.214 0 00.437 1.871c.424.525 1.063.83 1.74.83h1.467c.274-4.513 4.048-8.102 8.65-8.102 4.6 0 8.375 3.589 8.65 8.103h13.97c.2-3.268 2.233-6.05 5.087-7.338l6.66-27.367z" fill="url(#paint3_linear_2_12440)"/><path d="M66.577 34.78a2.227 2.227 0 00-1.321-.864H54.959l-1.842 7.333c4.452.153 8.06 3.665 8.344 8.064a2.226 2.226 0 001.746-1.49l3.68-11.044c.224-.677.11-1.42-.31-1.998z" fill="url(#paint4_linear_2_12440)"/><defs><linearGradient id="paint0_linear_2_12440" x1="25.752" y1="46.58" x2="15.701" y2="46.836" gradientUnits="userSpaceOnUse"><stop stop-color="#FFCD3F"/><stop offset="1" stop-color="#FAEECC"/></linearGradient><linearGradient id="paint1_linear_2_12440" x1="57.022" y1="46.58" x2="46.971" y2="46.836" gradientUnits="userSpaceOnUse"><stop stop-color="#FFCD3F"/><stop offset="1" stop-color="#FAEECC"/></linearGradient><linearGradient id="paint2_linear_2_12440" x1="63.34" y1="23.624" x2="54.397" y2="23.849" gradientUnits="userSpaceOnUse"><stop stop-color="#FFCD3F"/><stop offset="1" stop-color="#FAEECC"/></linearGradient><linearGradient id="paint3_linear_2_12440" x1="55.963" y1="15.946" x2="-10.819" y2="18.482" gradientUnits="userSpaceOnUse"><stop stop-color="#FFCD3F"/><stop offset="1" stop-color="#FAEECC"/></linearGradient><linearGradient id="paint4_linear_2_12440" x1="66.999" y1="35.565" x2="50.418" y2="35.945" gradientUnits="userSpaceOnUse"><stop stop-color="#FFCD3F"/><stop offset="1" stop-color="#FAEECC"/></linearGradient></defs></svg>