<svg width="35" height="36" fill="none" xmlns="http://www.w3.org/2000/svg"><path d="M28.211.5H2.565A2.577 2.577 0 000 3.065V28.71a2.577 2.577 0 002.565 2.565h11.738a12.26 12.26 0 01-1.113-5.13c0-6.873 5.583-12.456 12.457-12.456 1.831 0 3.56.395 5.129 1.113V3.065A2.577 2.577 0 0028.21.5zm-6.888 13.102a1.177 1.177 0 01-.44.088c-.278 0-.542-.103-.747-.293L15.388 8.97l-4.748 4.425a1.108 1.108 0 01-1.187.206 1.11 1.11 0 01-.66-1.011V2.697h13.19v9.893c0 .44-.264.835-.66 1.01z" fill="url(#paint0_linear_2_28690)"/><path d="M25.647 16.793c-5.158 0-9.354 4.196-9.354 9.353 0 5.158 4.196 9.354 9.354 9.354 5.157 0 9.353-4.196 9.353-9.354 0-5.157-4.196-9.353-9.353-9.353zm-1.44 12.231a.72.72 0 010 1.44H20.61a.72.72 0 01-.72-.72v-1.799c0-1.389 1.03-2.518 2.294-2.518h.45c.47 0 .854-.485.854-1.08 0-.594-.384-1.079-.855-1.079H20.61a.72.72 0 010-1.439h2.023c1.265 0 2.294 1.13 2.294 2.519 0 1.388-1.029 2.518-2.294 2.518h-.449c-.47 0-.854.485-.854 1.08v1.078h2.878zm7.196-2.878v3.598a.72.72 0 01-1.44 0v-2.878H28.66c-1.265 0-2.294-1.13-2.294-2.518v-1.8a.72.72 0 011.44 0v1.8c0 .594.383 1.079.854 1.079h1.304v-2.878a.72.72 0 011.439 0v3.597z" fill="#FFD357"/><circle cx="25.345" cy="25.845" fill="#FFD357" r="9.655"/><path d="M22.87 26.703c-.887.626-1.504 1.213-1.851 1.683a2.985 2.985 0 00-.502 1.683h4.821v-1.253h-3.085c.231-.313.655-.704 1.311-1.096.694-.43 1.157-.86 1.389-1.213a2.49 2.49 0 00.385-1.37c0-.666-.231-1.214-.655-1.605-.463-.43-1.003-.626-1.697-.626-.733 0-1.35.235-1.774.665-.425.47-.617 1.057-.617 1.84h1.35c0-.43.076-.744.23-.979a.89.89 0 01.733-.352c.309 0 .54.078.733.274.193.196.27.43.27.783 0 .274-.077.548-.231.783-.116.234-.386.508-.81.782zm5.708 3.327v-1.566H25.8V27.21l2.622-4.384h1.544v4.463h.81v1.135h-.81v1.565l-1.388.04zm0-2.662v-2.975L26.88 27.29l-.039.117c-.038-.04 1.736-.04 1.736-.04z" fill="#F2F2F2"/><defs><linearGradient id="paint0_linear_2_28690" x1="30.776" y1="3.797" x2="-5.979" y2="4.73" gradientUnits="userSpaceOnUse"><stop stop-color="#FFCD3F"/><stop offset="1" stop-color="#FAEECC"/></linearGradient></defs></svg>