<svg width="41" height="40" fill="none" xmlns="http://www.w3.org/2000/svg"><path d="M13.184 27.686c-1.42 0-2.575 1.14-2.575 2.54 0 1.4 1.155 2.539 2.575 2.539 1.42 0 2.576-1.139 2.576-2.54 0-1.4-1.155-2.539-2.576-2.539z" fill="url(#paint0_linear_2_28670)"/><path d="M32.317 27.686c-1.42 0-2.575 1.14-2.575 2.54 0 1.4 1.155 2.539 2.575 2.539 1.42 0 2.575-1.139 2.575-2.54 0-1.4-1.155-2.539-2.575-2.539z" fill="url(#paint1_linear_2_28670)"/><path d="M38.762 18.402l-.011-3.233a1.355 1.355 0 00-1.365-1.341H35.34l-1.16 4.574h4.583z" fill="url(#paint2_linear_2_28670)"/><path d="M34.214 8.873a1.331 1.331 0 00-.268-1.134 1.372 1.372 0 00-1.064-.504H11.495a1.36 1.36 0 00-1.332 1.054L9.9 9.455H6.993c-.754 0-1.365.603-1.365 1.346 0 .743.611 1.345 1.365 1.345h2.3l-.643 2.86H3.616c-.754 0-1.365.602-1.365 1.345s.611 1.345 1.365 1.345h4.427l-.644 2.86H1.364C.611 20.555 0 21.157 0 21.9s.611 1.345 1.364 1.345h5.428L5.661 28.27c-.09.398.008.815.267 1.133.26.319.65.504 1.065.504h.897c.168-2.736 2.478-4.91 5.293-4.91 2.816 0 5.126 2.174 5.294 4.91h8.549c.122-1.98 1.366-3.667 3.113-4.447l4.075-16.586z" fill="url(#paint3_linear_2_28670)"/><path d="M40.74 21.08a1.364 1.364 0 00-.808-.525h-6.301l-1.127 4.444c2.724.093 4.932 2.222 5.106 4.888.482-.08.904-.414 1.068-.903l2.252-6.694a1.33 1.33 0 00-.19-1.21z" fill="url(#paint4_linear_2_28670)"/><defs><linearGradient id="paint0_linear_2_28670" x1="15.76" y1="28.23" x2="9.609" y2="28.389" gradientUnits="userSpaceOnUse"><stop stop-color="#FFCD3F"/><stop offset="1" stop-color="#FAEECC"/></linearGradient><linearGradient id="paint1_linear_2_28670" x1="34.892" y1="28.23" x2="28.742" y2="28.389" gradientUnits="userSpaceOnUse"><stop stop-color="#FFCD3F"/><stop offset="1" stop-color="#FAEECC"/></linearGradient><linearGradient id="paint2_linear_2_28670" x1="38.762" y1="14.318" x2="33.289" y2="14.457" gradientUnits="userSpaceOnUse"><stop stop-color="#FFCD3F"/><stop offset="1" stop-color="#FAEECC"/></linearGradient><linearGradient id="paint3_linear_2_28670" x1="34.246" y1="9.664" x2="-6.619" y2="11.231" gradientUnits="userSpaceOnUse"><stop stop-color="#FFCD3F"/><stop offset="1" stop-color="#FAEECC"/></linearGradient><linearGradient id="paint4_linear_2_28670" x1="40.999" y1="21.555" x2="30.852" y2="21.789" gradientUnits="userSpaceOnUse"><stop stop-color="#FFCD3F"/><stop offset="1" stop-color="#FAEECC"/></linearGradient></defs></svg>