<svg width="48" height="60" fill="none" xmlns="http://www.w3.org/2000/svg"><path d="M4.969 19.825l37.86-9.644-.317-1.468c-.423-1.782-2.327-2.83-4.124-2.411L7.084 14.269c-1.798.42-2.855 2.306-2.432 4.088l.317 1.468z" fill="url(#paint0_linear_2_12448)"/><path d="M45.265 32.72c1.797-.42 2.855-2.307 2.432-4.09L44.63 16.68l-26.44 6.71h17.873c3.596 0 6.557 2.934 6.557 6.499v3.564l2.644-.734z" fill="url(#paint1_linear_2_12448)"/><path d="M39.343 29.889c0-1.887-1.481-3.355-3.385-3.355H3.598c-1.904 0-3.385 1.468-3.385 3.355v20.547c0 1.887 1.48 3.354 3.384 3.354h32.361c1.904 0 3.385-1.467 3.385-3.354V29.889zm-35.428 2.41c0-.838.74-1.572 1.586-1.572h17.978c.846 0 1.587.734 1.587 1.573s-.74 1.572-1.587 1.572H5.501c-.846 0-1.586-.733-1.586-1.572zm20.41 18.451c-2.96 0-5.393-2.41-5.393-5.346 0-2.935 2.432-5.242 5.393-5.242s5.394 2.411 5.394 5.347c0 2.935-2.433 5.241-5.394 5.241zm11.633-5.241c0 2.935-2.432 5.346-5.393 5.346-.317 0-.74 0-1.058-.105 1.375-1.362 2.115-3.145 2.115-5.241 0-2.097-.846-3.88-2.115-5.242.318-.105.635-.105 1.058-.105 3.067 0 5.393 2.411 5.393 5.347z" fill="url(#paint2_linear_2_12448)"/><defs><linearGradient id="paint0_linear_2_12448" x1="42.829" y1="7.668" x2="-2.674" y2="10.914" gradientUnits="userSpaceOnUse"><stop stop-color="#FFCD3F"/><stop offset="1" stop-color="#FAEECC"/></linearGradient><linearGradient id="paint1_linear_2_12448" x1="47.79" y1="18.477" x2="12.489" y2="20.058" gradientUnits="userSpaceOnUse"><stop stop-color="#FFCD3F"/><stop offset="1" stop-color="#FAEECC"/></linearGradient><linearGradient id="paint2_linear_2_12448" x1="39.343" y1="29.454" x2="-7.357" y2="31.156" gradientUnits="userSpaceOnUse"><stop stop-color="#FFCD3F"/><stop offset="1" stop-color="#FAEECC"/></linearGradient></defs></svg>