<svg width="42" height="43" fill="none" xmlns="http://www.w3.org/2000/svg"><path d="M33.853.5H3.078A3.092 3.092 0 000 3.578v30.775a3.092 3.092 0 003.078 3.078h14.086a14.71 14.71 0 01-1.336-6.155c0-8.248 6.7-14.948 14.948-14.948 2.198 0 4.273.474 6.155 1.336V3.578A3.092 3.092 0 0033.853.5zm-8.265 15.722a1.42 1.42 0 01-.528.105 1.31 1.31 0 01-.897-.351l-5.698-5.311-5.697 5.31a1.33 1.33 0 01-1.425.247 1.333 1.333 0 01-.791-1.214V3.139h15.827v11.87c0 .528-.316 1.003-.791 1.214z" fill="url(#paint0_linear_2_12458)"/><path d="M30.776 20.052c-6.189 0-11.224 5.035-11.224 11.224 0 6.188 5.035 11.224 11.224 11.224S42 37.464 42 31.276c0-6.19-5.035-11.224-11.224-11.224zm-1.727 14.677a.864.864 0 010 1.727h-4.317a.864.864 0 01-.863-.864v-2.158c0-1.666 1.234-3.022 2.752-3.022h.539c.565 0 1.026-.582 1.026-1.295s-.461-1.295-1.026-1.295h-2.428a.864.864 0 010-1.727h2.428c1.518 0 2.753 1.356 2.753 3.022 0 1.666-1.235 3.022-2.753 3.022h-.539c-.564 0-1.025.582-1.025 1.295v1.295h3.453zm8.634-3.453v4.317a.864.864 0 01-1.727 0v-3.454h-1.564c-1.518 0-2.753-1.356-2.753-3.022V26.96a.864.864 0 011.727 0v2.158c0 .713.461 1.295 1.026 1.295h1.564V26.96a.864.864 0 011.727 0v4.317z" fill="#FFD357"/><circle cx="30.414" cy="30.913" fill="#FFD357" r="11.586"/><path d="M27.444 31.943c-1.065.751-1.805 1.456-2.222 2.02a3.582 3.582 0 00-.601 2.02h5.785v-1.504h-3.703c.278-.376.787-.845 1.574-1.315.833-.517 1.388-1.033 1.666-1.456.277-.423.462-.986.462-1.644 0-.799-.277-1.456-.786-1.926-.556-.517-1.203-.751-2.037-.751-.879 0-1.62.282-2.128.798-.51.564-.74 1.268-.74 2.208h1.619c0-.517.093-.893.278-1.175.231-.281.509-.422.879-.422s.648.094.88.329c.23.234.323.516.323.939 0 .329-.092.658-.277.94-.14.281-.463.61-.972.939zm6.849 3.992v-1.879h-3.332v-1.503l3.147-5.26h1.851v5.354h.972v1.363h-.972v1.878l-1.666.047zm0-3.194v-3.57l-2.036 3.476-.047.141c-.046-.047 2.083-.047 2.083-.047z" fill="#F2F2F2"/><defs><linearGradient id="paint0_linear_2_12458" x1="36.931" y1="4.457" x2="-7.175" y2="5.576" gradientUnits="userSpaceOnUse"><stop stop-color="#FFCD3F"/><stop offset="1" stop-color="#FAEECC"/></linearGradient></defs></svg>