<svg width="31" height="40" fill="none" xmlns="http://www.w3.org/2000/svg"><g clip-path="url(#clip0_2_28686)"><path d="M31 24.859v9.022a5 5 0 01-5 5H1.628v-4.923h9.31v-4.425h9.2V24.86H31zm-14.042-5.104l-3.876-1.414 3.873-4.958c.858-1.098.633-2.648-.513-3.53-.704-.54-1.491-.638-2.559-.313l-9.49 3.664a1.33 1.33 0 00-.74.697c-.141.32-.146.675-.011.998.206.497.699.819 1.255.819.172 0 .34-.032.502-.094l4.666-1.802-2.263 2.897c-.28.38-.578.848-.578 1.578l-.06 7.004a.266.266 0 01-.032.123l-3.166 5.815c-.2.366-.239.785-.111 1.18.127.394.406.717.786.909.23.116.487.177.744.177.6 0 1.144-.317 1.423-.828l3.166-5.816a3.282 3.282 0 00.399-1.533c.048-1.652.128-4.09.168-4.606l4.375 1.596-1.008 4.805c-.085.405-.001.818.236 1.162.237.345.599.58 1.019.661.105.021.213.031.32.031.759 0 1.42-.521 1.57-1.24l1.2-5.723c.203-.962-.342-1.912-1.295-2.26zm2.294-14.896c-1.53 0-2.776 1.201-2.776 2.677s1.245 2.677 2.776 2.677c1.531 0 2.777-1.201 2.777-2.677s-1.246-2.677-2.777-2.677zm-4.867 3.458L11.116.5.62 4.579l3.269 7.817 10.496-4.08z" fill="url(#paint0_linear_2_28686)"/></g><defs><linearGradient id="paint0_linear_2_28686" x1="31" y1="4.612" x2="-5.29" y2="5.341" gradientUnits="userSpaceOnUse"><stop stop-color="#FFCD3F"/><stop offset="1" stop-color="#FAEECC"/></linearGradient><clipPath id="clip0_2_28686"><path fill="#fff" transform="translate(0 .5)" d="M0 0h31v39H0z"/></clipPath></defs></svg>