<svg width="33" height="40" fill="none" xmlns="http://www.w3.org/2000/svg"><path d="M3.415 13.102l26.029-6.539-.218-.995c-.291-1.208-1.6-1.919-2.836-1.634L4.87 9.335c-1.236.284-1.963 1.564-1.672 2.772l.218.995z" fill="url(#paint0_linear_2_28679)"/><path d="M31.12 21.843c1.237-.284 1.964-1.563 1.673-2.771l-2.108-8.102-18.177 4.548h12.287c2.472 0 4.508 1.99 4.508 4.407v2.416l1.818-.498z" fill="url(#paint1_linear_2_28679)"/><path d="M27.05 19.925c0-1.28-1.018-2.275-2.327-2.275H2.475c-1.309 0-2.327.995-2.327 2.275v13.93c0 1.28 1.018 2.274 2.327 2.274h22.248c1.309 0 2.327-.995 2.327-2.274v-13.93zM2.693 21.559c0-.568.51-1.066 1.09-1.066h12.36c.583 0 1.091.498 1.091 1.066 0 .569-.508 1.066-1.09 1.066H3.784c-.582 0-1.09-.497-1.09-1.066zm14.033 12.51c-2.036 0-3.708-1.636-3.708-3.626s1.672-3.553 3.708-3.553c2.035 0 3.708 1.634 3.708 3.625 0 1.99-1.673 3.553-3.708 3.553zm7.997-3.555c0 1.99-1.672 3.625-3.708 3.625-.218 0-.509 0-.727-.07.945-.925 1.454-2.133 1.454-3.555 0-1.42-.581-2.63-1.454-3.553.218-.071.436-.071.727-.071 2.109 0 3.708 1.634 3.708 3.625z" fill="url(#paint2_linear_2_28679)"/><defs><linearGradient id="paint0_linear_2_28679" x1="29.444" y1="4.86" x2="-1.835" y2="7.123" gradientUnits="userSpaceOnUse"><stop stop-color="#FFCD3F"/><stop offset="1" stop-color="#FAEECC"/></linearGradient><linearGradient id="paint1_linear_2_28679" x1="32.857" y1="12.188" x2="8.589" y2="13.29" gradientUnits="userSpaceOnUse"><stop stop-color="#FFCD3F"/><stop offset="1" stop-color="#FAEECC"/></linearGradient><linearGradient id="paint2_linear_2_28679" x1="27.05" y1="19.63" x2="-5.055" y2="20.816" gradientUnits="userSpaceOnUse"><stop stop-color="#FFCD3F"/><stop offset="1" stop-color="#FAEECC"/></linearGradient></defs></svg>