<svg width="72" height="74" fill="none" xmlns="http://www.w3.org/2000/svg"><path d="M70.93 28.246v.031l.07 2.295c-.008 16.984-13.133 30.769-29.47 31.311v-7.245c5.904-.253 11.417-2.737 15.612-7.048h0a24.283 24.283 0 002.332-2.788l1.4-1.953-2.373.384a14.43 14.43 0 01-2.306.185c-8.112 0-14.734-6.767-14.734-15.172 0-8.405 6.622-15.171 14.734-15.171S70.93 19.84 70.93 28.245zm-40.46 0v.031l.07 2.295C30.532 47.556 17.407 61.34 1.07 61.883v-7.245c5.903-.253 11.417-2.737 15.611-7.048a24.255 24.255 0 002.332-2.788l1.4-1.953-2.372.384a14.43 14.43 0 01-2.306.185C7.623 43.418 1 36.65 1 28.246c0-8.405 6.623-15.171 14.735-15.171 8.112 0 14.734 6.766 14.734 15.171z" stroke="#fff" stroke-width="2" opacity=".9"/></svg>