<svg width="124" height="116" fill="none" xmlns="http://www.w3.org/2000/svg"><g opacity=".9" clip-path="url(#clip0_2_509)"><path d="M122.379 44.278v.025l.001.025.12 3.596c-.014 26.604-22.706 48.415-51.197 49.157V85.589c10.147-.347 19.654-4.21 26.898-10.986h0a39.059 39.059 0 004.005-4.357l2.331-2.961-3.728.549a27.656 27.656 0 01-4.029.294c-14.233 0-25.598-10.77-25.598-23.85 0-13.08 11.365-23.85 25.598-23.85 14.234 0 25.599 10.77 25.599 23.85zm-69.682 0v.05l.12 3.596C52.805 74.528 30.113 96.34 1.622 97.081V85.589c10.146-.347 19.655-4.21 26.898-10.986a39.012 39.012 0 004.005-4.357l2.331-2.961-3.728.549a27.647 27.647 0 01-4.029.294c-14.233 0-25.598-10.77-25.598-23.85 0-13.08 11.365-23.85 25.598-23.85 14.234 0 25.599 10.77 25.599 23.85z" stroke="#5CCD4A" stroke-opacity=".3" stroke-width="3"/></g><defs><clipPath id="clip0_2_509"><path fill="#fff" transform="rotate(-180 62 58)" d="M0 0h124v116H0z"/></clipPath></defs></svg>