<svg width="64" height="62" fill="none" xmlns="http://www.w3.org/2000/svg"><path d="M1.062 38.334v-.032L1 36.382c.009-14.054 11.517-25.555 25.973-26.064v5.747c-5.218.236-10.098 2.318-13.824 5.928h0a20.828 20.828 0 00-2.088 2.353l-1.495 1.966 2.442-.373a13.548 13.548 0 012.04-.154c7.203 0 12.987 5.648 12.987 12.55 0 6.9-5.784 12.548-12.986 12.548-7.203 0-12.987-5.648-12.987-12.549zm35.965 0v-.032l-.062-1.92c.009-14.054 11.517-25.555 25.973-26.064v5.747c-5.218.236-10.098 2.318-13.825 5.928a20.811 20.811 0 00-2.087 2.353l-1.495 1.966 2.441-.373a13.549 13.549 0 012.042-.154c7.202 0 12.986 5.648 12.986 12.55 0 6.9-5.784 12.548-12.986 12.548-7.203 0-12.987-5.648-12.987-12.549z" stroke="#D0E5A9" stroke-width="2" opacity=".9"/></svg>