<svg width="79" height="78" fill="none" xmlns="http://www.w3.org/2000/svg"><path d="M1.577 48.227v-.048L1.5 45.77c.012-17.477 13.975-31.762 31.529-32.536v6.749a26.129 26.129 0 00-16.994 7.523h0a26.279 26.279 0 00-2.601 2.988l-2.196 2.943 3.628-.564a16.115 16.115 0 012.476-.191c8.724 0 15.764 6.978 15.764 15.546 0 8.567-7.04 15.546-15.765 15.546-8.724 0-15.764-6.979-15.764-15.546zm44.394 0v-.048l-.077-2.41c.013-17.477 13.975-31.762 31.529-32.536v6.749a26.129 26.129 0 00-16.994 7.523 26.27 26.27 0 00-2.601 2.988l-2.196 2.943 3.628-.564a16.115 16.115 0 012.476-.191c8.724 0 15.764 6.978 15.764 15.546 0 8.567-7.04 15.546-15.764 15.546-8.725 0-15.765-6.979-15.765-15.546z" stroke="#D0E5A9" stroke-width="3" opacity=".9"/></svg>