<svg width="140" height="325" fill="none" xmlns="http://www.w3.org/2000/svg"><g opacity=".3" clip-path="url(#clip0_101_7959)" fill="#4AAB3C"><path d="M124.639 288.33a2.73 2.73 0 002.732-2.728 2.73 2.73 0 00-2.732-2.728 2.731 2.731 0 00-2.733 2.728 2.73 2.73 0 002.733 2.728zm13.544-.001a2.73 2.73 0 002.733-2.728 2.731 2.731 0 00-2.733-2.728 2.73 2.73 0 00-2.732 2.728 2.73 2.73 0 002.732 2.728zm0 13.525a2.73 2.73 0 002.733-2.728 2.731 2.731 0 00-2.733-2.728 2.73 2.73 0 00-2.732 2.728 2.73 2.73 0 002.732 2.728zm-27.091-27.047a2.73 2.73 0 002.732-2.728 2.73 2.73 0 00-2.732-2.728 2.731 2.731 0 00-2.733 2.728 2.73 2.73 0 002.733 2.728zm-13.545-13.525a2.73 2.73 0 002.732-2.728 2.73 2.73 0 00-2.732-2.728 2.73 2.73 0 00-2.733 2.728 2.73 2.73 0 002.733 2.728zm27.092 13.524a2.73 2.73 0 002.732-2.728 2.73 2.73 0 00-2.732-2.728 2.731 2.731 0 00-2.733 2.728 2.73 2.73 0 002.733 2.728zm13.544-.001a2.73 2.73 0 002.733-2.728 2.731 2.731 0 00-2.733-2.728 2.73 2.73 0 00-2.732 2.728 2.73 2.73 0 002.732 2.728zm-27.091-13.522a2.73 2.73 0 002.732-2.728 2.73 2.73 0 00-2.732-2.728 2.73 2.73 0 00-2.733 2.728 2.73 2.73 0 002.733 2.728zm13.547 0a2.73 2.73 0 002.732-2.728 2.73 2.73 0 00-2.732-2.728 2.73 2.73 0 00-2.733 2.728 2.73 2.73 0 002.733 2.728zm13.544-.001a2.73 2.73 0 002.733-2.728 2.731 2.731 0 00-2.733-2.728 2.73 2.73 0 00-2.732 2.728 2.73 2.73 0 002.732 2.728zm-27.093-13.524a2.73 2.73 0 002.732-2.728 2.73 2.73 0 00-2.732-2.728 2.731 2.731 0 00-2.733 2.728 2.73 2.73 0 002.733 2.728zm13.549.001a2.73 2.73 0 002.732-2.728 2.73 2.73 0 00-2.732-2.728 2.73 2.73 0 00-2.733 2.728 2.73 2.73 0 002.733 2.728zm-40.635 0a2.73 2.73 0 002.732-2.728 2.73 2.73 0 00-2.732-2.728 2.73 2.73 0 00-2.733 2.728 2.73 2.73 0 002.733 2.728zm13.543-.001a2.73 2.73 0 002.732-2.728 2.73 2.73 0 00-2.732-2.728 2.73 2.73 0 00-2.733 2.728 2.73 2.73 0 002.733 2.728zm40.636 0a2.73 2.73 0 002.733-2.728 2.731 2.731 0 00-2.733-2.728 2.73 2.73 0 00-2.732 2.728 2.73 2.73 0 002.732 2.728zm-13.544-13.523a2.73 2.73 0 002.732-2.728 2.73 2.73 0 00-2.732-2.728 2.73 2.73 0 00-2.733 2.728 2.73 2.73 0 002.733 2.728zm13.544 0a2.73 2.73 0 002.733-2.728 2.73 2.73 0 00-2.733-2.728 2.73 2.73 0 00-2.732 2.728 2.73 2.73 0 002.732 2.728zm-40.636 0a2.73 2.73 0 002.732-2.728 2.73 2.73 0 00-2.732-2.728 2.73 2.73 0 00-2.733 2.728 2.73 2.73 0 002.733 2.728zm13.545-.001a2.73 2.73 0 002.732-2.728 2.73 2.73 0 00-2.732-2.728 2.731 2.731 0 00-2.733 2.728 2.73 2.73 0 002.733 2.728zm-40.635.001a2.73 2.73 0 002.732-2.728 2.73 2.73 0 00-2.732-2.728 2.73 2.73 0 00-2.732 2.728 2.73 2.73 0 002.732 2.728zm13.545-.001a2.73 2.73 0 002.732-2.728 2.73 2.73 0 00-2.732-2.728 2.73 2.73 0 00-2.733 2.728 2.73 2.73 0 002.733 2.728zm54.181-13.523a2.73 2.73 0 002.733-2.728 2.731 2.731 0 00-2.733-2.728 2.73 2.73 0 00-2.732 2.728 2.73 2.73 0 002.732 2.728zm-27.091-.001a2.73 2.73 0 002.732-2.728 2.73 2.73 0 00-2.732-2.728 2.731 2.731 0 00-2.733 2.728 2.73 2.73 0 002.733 2.728zm13.547 0a2.73 2.73 0 002.732-2.728 2.73 2.73 0 00-2.732-2.728 2.731 2.731 0 00-2.733 2.728 2.73 2.73 0 002.733 2.728zm-40.635 0a2.73 2.73 0 002.732-2.728 2.73 2.73 0 00-2.732-2.728 2.73 2.73 0 00-2.733 2.728 2.73 2.73 0 002.733 2.728zm13.543.001a2.73 2.73 0 002.732-2.728 2.73 2.73 0 00-2.732-2.728 2.73 2.73 0 00-2.733 2.728 2.73 2.73 0 002.733 2.728zm-40.635-.001a2.73 2.73 0 002.732-2.728 2.73 2.73 0 00-2.732-2.728 2.73 2.73 0 00-2.732 2.728 2.73 2.73 0 002.732 2.728zm13.545.001a2.73 2.73 0 002.732-2.728 2.73 2.73 0 00-2.732-2.728 2.73 2.73 0 00-2.732 2.728 2.73 2.73 0 002.732 2.728zm54.182-13.524a2.73 2.73 0 002.732-2.728 2.73 2.73 0 00-2.732-2.728 2.731 2.731 0 00-2.733 2.728 2.73 2.73 0 002.733 2.728zm13.544-.001a2.73 2.73 0 002.733-2.728 2.731 2.731 0 00-2.733-2.728 2.73 2.73 0 00-2.732 2.728 2.73 2.73 0 002.732 2.728zm-40.636.002a2.73 2.73 0 002.732-2.728 2.73 2.73 0 00-2.732-2.728 2.73 2.73 0 00-2.733 2.728 2.73 2.73 0 002.733 2.728zm13.545-.001a2.73 2.73 0 002.732-2.728 2.73 2.73 0 00-2.732-2.728 2.731 2.731 0 00-2.733 2.728 2.73 2.73 0 002.733 2.728zm-40.635 0a2.73 2.73 0 002.732-2.728 2.73 2.73 0 00-2.732-2.728 2.73 2.73 0 00-2.732 2.728 2.73 2.73 0 002.732 2.728zm13.547 0a2.73 2.73 0 002.732-2.728 2.73 2.73 0 00-2.732-2.728 2.73 2.73 0 00-2.733 2.728 2.73 2.73 0 002.733 2.728zm-40.635 0a2.73 2.73 0 002.732-2.728 2.73 2.73 0 00-2.732-2.728 2.73 2.73 0 00-2.732 2.728 2.73 2.73 0 002.732 2.728zm13.543 0a2.73 2.73 0 002.732-2.728 2.73 2.73 0 00-2.732-2.728 2.73 2.73 0 00-2.732 2.728 2.73 2.73 0 002.732 2.728zm67.727-13.524a2.73 2.73 0 002.732-2.728 2.73 2.73 0 00-2.732-2.728 2.731 2.731 0 00-2.733 2.728 2.73 2.73 0 002.733 2.728zm13.544 0a2.73 2.73 0 002.733-2.728 2.731 2.731 0 00-2.733-2.728 2.73 2.73 0 00-2.732 2.728 2.73 2.73 0 002.732 2.728zm-40.636 0a2.73 2.73 0 002.732-2.728 2.73 2.73 0 00-2.732-2.728 2.73 2.73 0 00-2.733 2.728 2.73 2.73 0 002.733 2.728zm13.545 0a2.73 2.73 0 002.732-2.728 2.73 2.73 0 00-2.732-2.728 2.731 2.731 0 00-2.733 2.728 2.73 2.73 0 002.733 2.728zm-40.635 0a2.73 2.73 0 002.732-2.728 2.73 2.73 0 00-2.732-2.728 2.73 2.73 0 00-2.732 2.728 2.73 2.73 0 002.732 2.728zm13.547 0a2.73 2.73 0 002.732-2.728 2.73 2.73 0 00-2.732-2.728 2.73 2.73 0 00-2.733 2.728 2.73 2.73 0 002.733 2.728zm-40.635 0a2.73 2.73 0 002.732-2.728 2.73 2.73 0 00-2.732-2.728 2.73 2.73 0 00-2.732 2.728 2.73 2.73 0 002.732 2.728zm-13.547 0a2.73 2.73 0 002.732-2.728 2.73 2.73 0 00-2.732-2.728 2.73 2.73 0 00-2.732 2.728 2.73 2.73 0 002.732 2.728zm0-13.524a2.73 2.73 0 002.732-2.728 2.73 2.73 0 00-2.732-2.728 2.73 2.73 0 00-2.732 2.728 2.73 2.73 0 002.732 2.728zm-13.545 0a2.73 2.73 0 002.732-2.728 2.73 2.73 0 00-2.732-2.728 2.73 2.73 0 00-2.732 2.728 2.73 2.73 0 002.732 2.728zm13.545-13.524a2.73 2.73 0 002.732-2.728 2.73 2.73 0 00-2.732-2.728 2.73 2.73 0 00-2.732 2.728 2.73 2.73 0 002.732 2.728zm-13.545.001a2.73 2.73 0 002.732-2.728 2.73 2.73 0 00-2.732-2.728 2.73 2.73 0 00-2.732 2.728 2.73 2.73 0 002.732 2.728zm-13.543 0a2.73 2.73 0 002.732-2.728 2.73 2.73 0 00-2.732-2.728 2.73 2.73 0 00-2.732 2.728 2.73 2.73 0 002.732 2.728zm54.178 27.047a2.73 2.73 0 002.732-2.728 2.73 2.73 0 00-2.732-2.728 2.73 2.73 0 00-2.732 2.728 2.73 2.73 0 002.732 2.728zm67.727-13.524a2.73 2.73 0 002.732-2.728 2.73 2.73 0 00-2.732-2.728 2.73 2.73 0 00-2.733 2.728 2.73 2.73 0 002.733 2.728zm13.544 0a2.73 2.73 0 002.733-2.728 2.73 2.73 0 00-2.733-2.728 2.73 2.73 0 00-2.732 2.728 2.73 2.73 0 002.732 2.728zm-40.636 0a2.73 2.73 0 002.732-2.728 2.73 2.73 0 00-2.732-2.728 2.73 2.73 0 00-2.733 2.728 2.73 2.73 0 002.733 2.728zm13.545.001a2.73 2.73 0 002.732-2.728 2.73 2.73 0 00-2.732-2.728 2.73 2.73 0 00-2.733 2.728 2.73 2.73 0 002.733 2.728zm-40.635-.002a2.73 2.73 0 002.732-2.728 2.73 2.73 0 00-2.732-2.728 2.73 2.73 0 00-2.732 2.728 2.73 2.73 0 002.732 2.728zm13.547.001a2.73 2.73 0 002.732-2.728 2.73 2.73 0 00-2.732-2.728 2.73 2.73 0 00-2.733 2.728 2.73 2.73 0 002.733 2.728zm-40.635 0a2.73 2.73 0 002.732-2.728 2.73 2.73 0 00-2.732-2.728 2.73 2.73 0 00-2.732 2.728 2.73 2.73 0 002.732 2.728zm13.543 0a2.73 2.73 0 002.732-2.728 2.73 2.73 0 00-2.732-2.728 2.73 2.73 0 00-2.732 2.728 2.73 2.73 0 002.732 2.728zm67.727-13.523a2.73 2.73 0 002.732-2.728 2.73 2.73 0 00-2.732-2.728 2.73 2.73 0 00-2.733 2.728 2.73 2.73 0 002.733 2.728zm13.544-.001a2.73 2.73 0 002.733-2.728 2.73 2.73 0 00-2.733-2.728 2.73 2.73 0 00-2.732 2.728 2.73 2.73 0 002.732 2.728zm-40.636 0a2.73 2.73 0 002.732-2.728 2.73 2.73 0 00-2.732-2.728 2.73 2.73 0 00-2.733 2.728 2.73 2.73 0 002.733 2.728zm13.543 0a2.73 2.73 0 002.732-2.728 2.73 2.73 0 00-2.732-2.728 2.73 2.73 0 00-2.733 2.728 2.73 2.73 0 002.733 2.728zm-40.633 0a2.73 2.73 0 002.732-2.728 2.73 2.73 0 00-2.732-2.728 2.73 2.73 0 00-2.732 2.728 2.73 2.73 0 002.732 2.728zm13.547.001a2.73 2.73 0 002.732-2.728 2.73 2.73 0 00-2.732-2.728 2.73 2.73 0 00-2.733 2.728 2.73 2.73 0 002.733 2.728zm-40.635 0a2.73 2.73 0 002.732-2.728 2.73 2.73 0 00-2.732-2.728 2.73 2.73 0 00-2.732 2.728 2.73 2.73 0 002.732 2.728zm13.543-.001a2.73 2.73 0 002.732-2.728 2.73 2.73 0 00-2.732-2.728 2.73 2.73 0 00-2.732 2.728 2.73 2.73 0 002.732 2.728zm-27.09-13.523a2.73 2.73 0 002.732-2.728 2.73 2.73 0 00-2.732-2.728 2.73 2.73 0 00-2.732 2.728 2.73 2.73 0 002.732 2.728zm-13.545 0a2.73 2.73 0 002.732-2.728 2.73 2.73 0 00-2.732-2.728 2.73 2.73 0 00-2.732 2.728 2.73 2.73 0 002.732 2.728zm-13.545 0a2.73 2.73 0 002.732-2.728 2.73 2.73 0 00-2.732-2.728A2.73 2.73 0 000 150.364a2.73 2.73 0 002.732 2.728zm121.907 0a2.73 2.73 0 002.732-2.728 2.73 2.73 0 00-2.732-2.728 2.73 2.73 0 00-2.733 2.728 2.731 2.731 0 002.733 2.728zm13.544 0a2.731 2.731 0 002.733-2.728 2.73 2.73 0 00-2.733-2.728 2.73 2.73 0 00-2.732 2.728 2.73 2.73 0 002.732 2.728zm-40.636 0a2.73 2.73 0 002.732-2.728 2.73 2.73 0 00-2.732-2.728 2.73 2.73 0 00-2.733 2.728 2.73 2.73 0 002.733 2.728zm13.543 0a2.73 2.73 0 002.732-2.728 2.73 2.73 0 00-2.732-2.728 2.73 2.73 0 00-2.733 2.728 2.731 2.731 0 002.733 2.728zm-40.633 0a2.73 2.73 0 002.732-2.728 2.73 2.73 0 00-2.732-2.728 2.73 2.73 0 00-2.732 2.728 2.73 2.73 0 002.732 2.728zm13.547 0a2.73 2.73 0 002.732-2.728 2.73 2.73 0 00-2.732-2.728 2.73 2.73 0 00-2.733 2.728 2.73 2.73 0 002.733 2.728zm-40.635 0a2.73 2.73 0 002.732-2.728 2.73 2.73 0 00-2.732-2.728 2.73 2.73 0 00-2.732 2.728 2.73 2.73 0 002.732 2.728zm13.543 0a2.73 2.73 0 002.732-2.728 2.73 2.73 0 00-2.732-2.728 2.73 2.73 0 00-2.732 2.728 2.73 2.73 0 002.732 2.728zm-27.088-13.524a2.73 2.73 0 002.732-2.728 2.73 2.73 0 00-2.732-2.728 2.73 2.73 0 00-2.732 2.728 2.73 2.73 0 002.732 2.728zm-13.547.001a2.73 2.73 0 002.732-2.728 2.73 2.73 0 00-2.732-2.728 2.73 2.73 0 00-2.732 2.728 2.73 2.73 0 002.732 2.728zm108.362 0a2.73 2.73 0 002.732-2.728 2.73 2.73 0 00-2.732-2.728 2.73 2.73 0 00-2.733 2.728 2.731 2.731 0 002.733 2.728zm13.544 0a2.731 2.731 0 002.733-2.728 2.73 2.73 0 00-2.733-2.728 2.73 2.73 0 00-2.732 2.728 2.73 2.73 0 002.732 2.728zm-40.636-.001a2.73 2.73 0 002.732-2.728 2.73 2.73 0 00-2.732-2.728 2.73 2.73 0 00-2.733 2.728 2.73 2.73 0 002.733 2.728zm13.545 0a2.73 2.73 0 002.732-2.728 2.73 2.73 0 00-2.732-2.728 2.73 2.73 0 00-2.733 2.728 2.731 2.731 0 002.733 2.728zm-40.635 0a2.73 2.73 0 002.732-2.728 2.73 2.73 0 00-2.732-2.728 2.73 2.73 0 00-2.732 2.728 2.73 2.73 0 002.732 2.728zm13.545 0a2.73 2.73 0 002.732-2.728 2.73 2.73 0 00-2.732-2.728 2.73 2.73 0 00-2.733 2.728 2.73 2.73 0 002.733 2.728zm-40.635 0a2.73 2.73 0 002.732-2.728 2.73 2.73 0 00-2.732-2.728 2.73 2.73 0 00-2.732 2.728 2.73 2.73 0 002.732 2.728zm13.545.001a2.73 2.73 0 002.732-2.728 2.73 2.73 0 00-2.732-2.728 2.73 2.73 0 00-2.732 2.728 2.73 2.73 0 002.732 2.728zm-27.088-13.525a2.73 2.73 0 002.732-2.728 2.73 2.73 0 00-2.732-2.728 2.73 2.73 0 00-2.732 2.728 2.73 2.73 0 002.732 2.728zm94.815-.001a2.73 2.73 0 002.732-2.728 2.73 2.73 0 00-2.732-2.728 2.73 2.73 0 00-2.733 2.728 2.73 2.73 0 002.733 2.728zm13.544.001a2.73 2.73 0 002.733-2.728 2.73 2.73 0 00-2.733-2.728 2.73 2.73 0 00-2.732 2.728 2.73 2.73 0 002.732 2.728zm-40.636 0a2.73 2.73 0 002.732-2.728 2.73 2.73 0 00-2.732-2.728 2.73 2.73 0 00-2.733 2.728 2.73 2.73 0 002.733 2.728zm13.545 0a2.73 2.73 0 002.732-2.728 2.73 2.73 0 00-2.732-2.728 2.73 2.73 0 00-2.733 2.728 2.73 2.73 0 002.733 2.728zm-40.635 0a2.73 2.73 0 002.732-2.728 2.73 2.73 0 00-2.732-2.728 2.73 2.73 0 00-2.732 2.728 2.73 2.73 0 002.732 2.728zm13.545 0a2.73 2.73 0 002.732-2.728 2.73 2.73 0 00-2.732-2.728 2.73 2.73 0 00-2.733 2.728 2.73 2.73 0 002.733 2.728zm-40.635 0a2.73 2.73 0 002.732-2.728 2.73 2.73 0 00-2.732-2.728 2.73 2.73 0 00-2.732 2.728 2.73 2.73 0 002.732 2.728zm13.545 0a2.73 2.73 0 002.732-2.728 2.73 2.73 0 00-2.732-2.728 2.73 2.73 0 00-2.732 2.728 2.73 2.73 0 002.732 2.728zm67.727-13.524a2.73 2.73 0 002.732-2.728 2.73 2.73 0 00-2.732-2.728 2.73 2.73 0 00-2.733 2.728 2.731 2.731 0 002.733 2.728zm13.544-.001a2.73 2.73 0 002.733-2.728 2.73 2.73 0 00-2.733-2.728 2.73 2.73 0 00-2.732 2.728 2.73 2.73 0 002.732 2.728zm-40.636 0a2.73 2.73 0 002.732-2.728 2.73 2.73 0 00-2.732-2.728 2.73 2.73 0 00-2.733 2.728 2.73 2.73 0 002.733 2.728zm13.545.001a2.73 2.73 0 002.732-2.728 2.73 2.73 0 00-2.732-2.728 2.73 2.73 0 00-2.733 2.728 2.731 2.731 0 002.733 2.728zm-40.635 0a2.73 2.73 0 002.732-2.728 2.73 2.73 0 00-2.732-2.728 2.73 2.73 0 00-2.732 2.728 2.73 2.73 0 002.732 2.728zm13.547 0a2.73 2.73 0 002.732-2.728 2.73 2.73 0 00-2.732-2.728 2.73 2.73 0 00-2.733 2.728 2.73 2.73 0 002.733 2.728zm-40.635 0a2.73 2.73 0 002.732-2.728 2.73 2.73 0 00-2.732-2.728 2.73 2.73 0 00-2.732 2.728 2.73 2.73 0 002.732 2.728zm13.543-.001a2.73 2.73 0 002.732-2.728 2.73 2.73 0 00-2.732-2.728 2.73 2.73 0 00-2.732 2.728 2.73 2.73 0 002.732 2.728zm67.727-13.522a2.73 2.73 0 002.732-2.728 2.73 2.73 0 00-2.732-2.728 2.73 2.73 0 00-2.733 2.728 2.73 2.73 0 002.733 2.728zm13.544-.001a2.73 2.73 0 002.733-2.728 2.73 2.73 0 00-2.733-2.728 2.73 2.73 0 00-2.732 2.728 2.73 2.73 0 002.732 2.728zm-40.636 0a2.73 2.73 0 002.732-2.728 2.73 2.73 0 00-2.732-2.728 2.73 2.73 0 00-2.733 2.728 2.73 2.73 0 002.733 2.728zm13.545.001a2.73 2.73 0 002.732-2.728 2.73 2.73 0 00-2.732-2.728 2.73 2.73 0 00-2.733 2.728 2.73 2.73 0 002.733 2.728zm-40.635 0a2.73 2.73 0 002.732-2.728 2.73 2.73 0 00-2.732-2.728 2.73 2.73 0 00-2.732 2.728 2.73 2.73 0 002.732 2.728zm13.547 0a2.73 2.73 0 002.732-2.728 2.73 2.73 0 00-2.732-2.728 2.73 2.73 0 00-2.733 2.728 2.73 2.73 0 002.733 2.728zm-27.092-.001a2.73 2.73 0 002.732-2.728 2.73 2.73 0 00-2.732-2.728 2.73 2.73 0 00-2.732 2.728 2.73 2.73 0 002.732 2.728zm67.727-13.523a2.73 2.73 0 002.732-2.728 2.73 2.73 0 00-2.732-2.728 2.73 2.73 0 00-2.733 2.728 2.73 2.73 0 002.733 2.728zm13.544 0a2.73 2.73 0 002.733-2.728 2.73 2.73 0 00-2.733-2.728 2.73 2.73 0 00-2.732 2.728 2.73 2.73 0 002.732 2.728zm-40.636 0a2.73 2.73 0 002.732-2.728 2.73 2.73 0 00-2.732-2.728 2.73 2.73 0 00-2.733 2.728 2.73 2.73 0 002.733 2.728zm13.545 0a2.73 2.73 0 002.732-2.728 2.73 2.73 0 00-2.732-2.728 2.73 2.73 0 00-2.733 2.728 2.73 2.73 0 002.733 2.728zm-40.635-.001a2.73 2.73 0 002.732-2.728 2.73 2.73 0 00-2.732-2.728 2.73 2.73 0 00-2.732 2.728 2.73 2.73 0 002.732 2.728zm13.547.001a2.73 2.73 0 002.732-2.728 2.73 2.73 0 00-2.732-2.728 2.73 2.73 0 00-2.733 2.728 2.73 2.73 0 002.733 2.728zm40.635-13.523a2.73 2.73 0 002.732-2.729 2.73 2.73 0 00-2.732-2.728 2.73 2.73 0 00-2.733 2.728 2.73 2.73 0 002.733 2.728zm13.544-.002a2.73 2.73 0 002.733-2.728 2.73 2.73 0 00-2.733-2.728 2.73 2.73 0 00-2.732 2.728 2.73 2.73 0 002.732 2.728zm-40.636 0a2.73 2.73 0 002.732-2.728 2.73 2.73 0 00-2.732-2.728 2.73 2.73 0 00-2.733 2.728 2.73 2.73 0 002.733 2.728zm13.543 0a2.73 2.73 0 002.732-2.728 2.73 2.73 0 00-2.732-2.728 2.73 2.73 0 00-2.733 2.728 2.73 2.73 0 002.733 2.728zm-27.086.002a2.73 2.73 0 002.732-2.729 2.73 2.73 0 00-2.732-2.728 2.73 2.73 0 00-2.733 2.728 2.73 2.73 0 002.733 2.728zm40.635-13.525a2.73 2.73 0 002.732-2.728 2.73 2.73 0 00-2.732-2.728 2.73 2.73 0 00-2.733 2.728 2.73 2.73 0 002.733 2.728zm13.544 0a2.73 2.73 0 002.733-2.728 2.73 2.73 0 00-2.733-2.728 2.73 2.73 0 00-2.732 2.728 2.73 2.73 0 002.732 2.728zm-40.636 0a2.73 2.73 0 002.732-2.728 2.73 2.73 0 00-2.732-2.728 2.73 2.73 0 00-2.733 2.728 2.73 2.73 0 002.733 2.728zm13.543 0a2.73 2.73 0 002.732-2.728 2.73 2.73 0 00-2.732-2.728 2.73 2.73 0 00-2.733 2.728 2.73 2.73 0 002.733 2.728zm13.549-13.524a2.73 2.73 0 002.732-2.728 2.73 2.73 0 00-2.732-2.727 2.73 2.73 0 00-2.733 2.727 2.73 2.73 0 002.733 2.728zm13.544-.001a2.73 2.73 0 002.733-2.727 2.73 2.73 0 00-2.733-2.728 2.73 2.73 0 00-2.732 2.728 2.73 2.73 0 002.732 2.728zm-27.091 0a2.73 2.73 0 002.732-2.727 2.73 2.73 0 00-2.732-2.728 2.73 2.73 0 00-2.733 2.728 2.73 2.73 0 002.733 2.728zm13.547-13.523a2.73 2.73 0 002.732-2.728 2.73 2.73 0 00-2.732-2.728 2.73 2.73 0 00-2.733 2.728 2.73 2.73 0 002.733 2.728zm13.544 0a2.73 2.73 0 002.733-2.728 2.73 2.73 0 00-2.733-2.728 2.73 2.73 0 00-2.732 2.728 2.73 2.73 0 002.732 2.728zm0-12.397a2.73 2.73 0 002.733-2.728 2.73 2.73 0 00-2.733-2.728 2.73 2.73 0 00-2.732 2.728 2.73 2.73 0 002.732 2.728z"/></g><defs><clipPath id="clip0_101_7959"><path fill="#fff" d="M0 0h317v325H0z"/></clipPath></defs></svg>