<svg width="333" height="444" fill="none" xmlns="http://www.w3.org/2000/svg"><g opacity=".3" clip-path="url(#clip0_101_7960)" fill="#4AAB3C"><path d="M176.248 393.904a3.73 3.73 0 003.732-3.727 3.73 3.73 0 00-3.732-3.727 3.73 3.73 0 00-3.732 3.727 3.73 3.73 0 003.732 3.727zm18.5-.002a3.73 3.73 0 003.732-3.727 3.729 3.729 0 00-3.732-3.726 3.729 3.729 0 00-3.732 3.726 3.73 3.73 0 003.732 3.727zm18.502.001a3.729 3.729 0 003.732-3.726 3.73 3.73 0 00-3.732-3.727 3.729 3.729 0 00-3.732 3.727 3.728 3.728 0 003.732 3.726zm18.5-.001a3.73 3.73 0 003.732-3.727 3.729 3.729 0 00-3.732-3.726 3.728 3.728 0 00-3.732 3.726 3.729 3.729 0 003.732 3.727zm18.504.001a3.729 3.729 0 003.732-3.726 3.73 3.73 0 00-3.732-3.727 3.73 3.73 0 00-3.733 3.727 3.73 3.73 0 003.733 3.726zm-55.506 18.476a3.729 3.729 0 003.732-3.726 3.73 3.73 0 00-3.732-3.727 3.73 3.73 0 00-3.732 3.727 3.729 3.729 0 003.732 3.726zm18.502-.001a3.73 3.73 0 003.732-3.727 3.729 3.729 0 00-3.732-3.726 3.728 3.728 0 00-3.732 3.726 3.729 3.729 0 003.732 3.727zm18.5 0a3.73 3.73 0 003.732-3.727 3.729 3.729 0 00-3.732-3.726 3.728 3.728 0 00-3.732 3.726 3.729 3.729 0 003.732 3.727zm-18.5 18.475a3.73 3.73 0 003.732-3.727 3.73 3.73 0 00-3.732-3.727 3.73 3.73 0 00-3.732 3.727 3.73 3.73 0 003.732 3.727zm18.5 0a3.73 3.73 0 003.732-3.727 3.73 3.73 0 00-3.732-3.727 3.73 3.73 0 00-3.732 3.727 3.73 3.73 0 003.732 3.727zm18.502-18.474a3.729 3.729 0 003.732-3.726 3.73 3.73 0 00-3.732-3.727 3.729 3.729 0 00-3.732 3.727 3.728 3.728 0 003.732 3.726zm18.502-18.476a3.729 3.729 0 003.732-3.726 3.73 3.73 0 00-3.732-3.727 3.73 3.73 0 00-3.733 3.727 3.73 3.73 0 003.733 3.726zm0-18.475a3.73 3.73 0 003.732-3.727 3.73 3.73 0 00-3.732-3.727 3.73 3.73 0 00-3.733 3.727 3.73 3.73 0 003.733 3.727zm18.503 0a3.73 3.73 0 003.733-3.727 3.73 3.73 0 00-3.733-3.727 3.73 3.73 0 00-3.732 3.727 3.73 3.73 0 003.732 3.727zm18.499-18.476a3.73 3.73 0 003.732-3.727 3.73 3.73 0 00-3.732-3.727 3.73 3.73 0 00-3.733 3.727 3.73 3.73 0 003.733 3.727zm-18.499.001a3.73 3.73 0 003.733-3.727 3.73 3.73 0 00-3.733-3.727 3.73 3.73 0 00-3.732 3.727 3.73 3.73 0 003.732 3.727zm-74.007 18.476a3.73 3.73 0 003.732-3.727 3.73 3.73 0 00-3.732-3.727 3.73 3.73 0 00-3.732 3.727 3.73 3.73 0 003.732 3.727zm18.5-.001a3.73 3.73 0 003.732-3.727 3.73 3.73 0 00-3.732-3.727 3.729 3.729 0 00-3.732 3.727 3.73 3.73 0 003.732 3.727zm18.502-.002a3.73 3.73 0 003.732-3.727 3.729 3.729 0 00-3.732-3.726 3.728 3.728 0 00-3.732 3.726 3.729 3.729 0 003.732 3.727zm-92.508.003a3.73 3.73 0 003.732-3.727 3.73 3.73 0 00-3.732-3.727 3.73 3.73 0 00-3.732 3.727 3.73 3.73 0 003.732 3.727zm-18.502-18.477a3.73 3.73 0 003.732-3.727 3.73 3.73 0 00-3.732-3.727 3.73 3.73 0 00-3.732 3.727 3.73 3.73 0 003.732 3.727zm37.006 18.476a3.73 3.73 0 003.732-3.727 3.73 3.73 0 00-3.732-3.727 3.73 3.73 0 00-3.732 3.727 3.73 3.73 0 003.732 3.727zm18.5-.002a3.73 3.73 0 003.732-3.727 3.729 3.729 0 00-3.732-3.726 3.729 3.729 0 00-3.732 3.726 3.73 3.73 0 003.732 3.727zm74.006-18.473a3.73 3.73 0 003.732-3.727 3.73 3.73 0 00-3.732-3.727 3.73 3.73 0 00-3.733 3.727 3.73 3.73 0 003.733 3.727zm-55.504-.001a3.73 3.73 0 003.732-3.727 3.73 3.73 0 00-3.732-3.727 3.73 3.73 0 00-3.732 3.727 3.73 3.73 0 003.732 3.727zm18.5 0a3.73 3.73 0 003.732-3.727 3.73 3.73 0 00-3.732-3.727 3.73 3.73 0 00-3.732 3.727 3.73 3.73 0 003.732 3.727zm18.502 0a3.73 3.73 0 003.732-3.727 3.73 3.73 0 00-3.732-3.727 3.73 3.73 0 00-3.732 3.727 3.73 3.73 0 003.732 3.727zm-92.508.001a3.73 3.73 0 003.732-3.727 3.73 3.73 0 00-3.732-3.727 3.73 3.73 0 00-3.732 3.727 3.73 3.73 0 003.732 3.727zm18.504 0a3.73 3.73 0 003.732-3.727 3.73 3.73 0 00-3.732-3.727 3.73 3.73 0 00-3.732 3.727 3.73 3.73 0 003.732 3.727zm18.5-.001a3.73 3.73 0 003.732-3.727 3.73 3.73 0 00-3.732-3.727 3.73 3.73 0 00-3.732 3.727 3.73 3.73 0 003.732 3.727zm129.511-18.475a3.73 3.73 0 003.733-3.727 3.73 3.73 0 00-3.733-3.727 3.73 3.73 0 00-3.732 3.727 3.73 3.73 0 003.732 3.727zm-18.503-.001a3.73 3.73 0 003.732-3.727 3.73 3.73 0 00-3.732-3.727 3.73 3.73 0 00-3.733 3.727 3.73 3.73 0 003.733 3.727zm-148.014 0a3.73 3.73 0 003.732-3.727 3.73 3.73 0 00-3.732-3.727 3.73 3.73 0 00-3.732 3.727 3.73 3.73 0 003.732 3.727zm129.515 0a3.73 3.73 0 003.733-3.727 3.73 3.73 0 00-3.733-3.727 3.73 3.73 0 00-3.732 3.727 3.73 3.73 0 003.732 3.727zm-55.507 0a3.73 3.73 0 003.732-3.727 3.73 3.73 0 00-3.732-3.727 3.73 3.73 0 00-3.732 3.727 3.729 3.729 0 003.732 3.727zm18.502 0a3.73 3.73 0 003.732-3.727 3.73 3.73 0 00-3.732-3.727 3.73 3.73 0 00-3.732 3.727 3.729 3.729 0 003.732 3.727zm18.504.001a3.73 3.73 0 003.732-3.727 3.73 3.73 0 00-3.732-3.727 3.73 3.73 0 00-3.733 3.727 3.73 3.73 0 003.733 3.727zm-92.508 0a3.73 3.73 0 003.732-3.727 3.73 3.73 0 00-3.732-3.727 3.73 3.73 0 00-3.732 3.727 3.73 3.73 0 003.732 3.727zm-55.504 0a3.73 3.73 0 003.732-3.727 3.73 3.73 0 00-3.732-3.727 3.73 3.73 0 00-3.732 3.727 3.73 3.73 0 003.732 3.727zm18.498-.001a3.73 3.73 0 003.732-3.727 3.73 3.73 0 00-3.732-3.727 3.73 3.73 0 00-3.732 3.727 3.73 3.73 0 003.732 3.727zm55.506 0a3.73 3.73 0 003.732-3.727 3.73 3.73 0 00-3.732-3.727 3.73 3.73 0 00-3.732 3.727 3.73 3.73 0 003.732 3.727zm18.502 0a3.73 3.73 0 003.732-3.727 3.73 3.73 0 00-3.732-3.727 3.73 3.73 0 00-3.732 3.727 3.729 3.729 0 003.732 3.727zm111.009-18.475a3.73 3.73 0 003.733-3.727 3.73 3.73 0 00-3.733-3.727 3.73 3.73 0 00-3.732 3.727 3.73 3.73 0 003.732 3.727zm-148.011 0a3.73 3.73 0 003.732-3.727 3.73 3.73 0 00-3.732-3.727 3.73 3.73 0 00-3.732 3.727 3.73 3.73 0 003.732 3.727zm129.508 0a3.73 3.73 0 003.732-3.727 3.73 3.73 0 00-3.732-3.727 3.73 3.73 0 00-3.733 3.727 3.73 3.73 0 003.733 3.727zm-55.504 0a3.73 3.73 0 003.732-3.727 3.73 3.73 0 00-3.732-3.727 3.73 3.73 0 00-3.732 3.727 3.73 3.73 0 003.732 3.727zm18.502-.001a3.73 3.73 0 003.732-3.727 3.729 3.729 0 00-3.732-3.726 3.73 3.73 0 00-3.733 3.726 3.73 3.73 0 003.733 3.727zm18.503.001a3.73 3.73 0 003.733-3.727 3.73 3.73 0 00-3.733-3.727 3.73 3.73 0 00-3.732 3.727 3.73 3.73 0 003.732 3.727zm-92.509 0a3.73 3.73 0 003.732-3.727 3.73 3.73 0 00-3.732-3.727 3.73 3.73 0 00-3.732 3.727 3.73 3.73 0 003.732 3.727zm-55.506 0a3.73 3.73 0 003.732-3.727 3.73 3.73 0 00-3.732-3.727 3.73 3.73 0 00-3.732 3.727 3.73 3.73 0 003.732 3.727zm18.502-.001a3.73 3.73 0 003.732-3.727 3.729 3.729 0 00-3.732-3.726 3.729 3.729 0 00-3.732 3.726 3.73 3.73 0 003.732 3.727zm-55.504.001a3.73 3.73 0 003.732-3.727 3.73 3.73 0 00-3.732-3.727 3.73 3.73 0 00-3.732 3.727 3.73 3.73 0 003.732 3.727zm18.502-.001a3.73 3.73 0 003.732-3.727 3.729 3.729 0 00-3.732-3.726 3.729 3.729 0 00-3.732 3.726 3.73 3.73 0 003.732 3.727zm92.508.001a3.73 3.73 0 003.732-3.727 3.73 3.73 0 00-3.732-3.727 3.73 3.73 0 00-3.732 3.727 3.73 3.73 0 003.732 3.727zm18.5 0a3.73 3.73 0 003.732-3.727 3.73 3.73 0 00-3.732-3.727 3.73 3.73 0 00-3.732 3.727 3.73 3.73 0 003.732 3.727zm-37.002-18.475a3.73 3.73 0 003.732-3.727 3.73 3.73 0 00-3.732-3.727 3.73 3.73 0 00-3.732 3.727 3.73 3.73 0 003.732 3.727zm129.509-.002a3.73 3.73 0 003.733-3.727 3.73 3.73 0 00-3.733-3.726 3.729 3.729 0 00-3.732 3.726 3.73 3.73 0 003.732 3.727zm-55.503 0a3.73 3.73 0 003.732-3.727 3.729 3.729 0 00-3.732-3.726 3.73 3.73 0 00-3.733 3.726 3.73 3.73 0 003.733 3.727zm18.503 0a3.73 3.73 0 003.733-3.727 3.73 3.73 0 00-3.733-3.726 3.729 3.729 0 00-3.732 3.726 3.73 3.73 0 003.732 3.727zm18.499 0a3.73 3.73 0 003.732-3.727 3.729 3.729 0 00-3.732-3.726 3.73 3.73 0 00-3.733 3.726 3.73 3.73 0 003.733 3.727zm-92.506 0a3.73 3.73 0 003.732-3.727 3.729 3.729 0 00-3.732-3.726 3.728 3.728 0 00-3.732 3.726 3.729 3.729 0 003.732 3.727zm-55.506 0a3.73 3.73 0 003.732-3.727 3.729 3.729 0 00-3.732-3.726 3.729 3.729 0 00-3.732 3.726 3.73 3.73 0 003.732 3.727zm18.504 0a3.73 3.73 0 003.732-3.727 3.729 3.729 0 00-3.732-3.726 3.729 3.729 0 00-3.732 3.726 3.73 3.73 0 003.732 3.727zm-55.504 0a3.73 3.73 0 003.732-3.727 3.729 3.729 0 00-3.732-3.726 3.729 3.729 0 00-3.732 3.726 3.73 3.73 0 003.732 3.727zm18.498.002a3.73 3.73 0 003.732-3.727 3.73 3.73 0 00-3.732-3.727 3.73 3.73 0 00-3.732 3.727 3.73 3.73 0 003.732 3.727zm-55.504-.002a3.73 3.73 0 003.732-3.727 3.729 3.729 0 00-3.732-3.726 3.729 3.729 0 00-3.732 3.726 3.73 3.73 0 003.732 3.727zm18.502.002a3.73 3.73 0 003.732-3.727 3.73 3.73 0 00-3.732-3.727 3.73 3.73 0 00-3.732 3.727 3.73 3.73 0 003.732 3.727zm129.51-.002a3.73 3.73 0 003.732-3.727 3.729 3.729 0 00-3.732-3.726 3.728 3.728 0 00-3.732 3.726 3.729 3.729 0 003.732 3.727zm18.502.002a3.73 3.73 0 003.732-3.727 3.73 3.73 0 00-3.732-3.727 3.729 3.729 0 00-3.732 3.727 3.73 3.73 0 003.732 3.727zm-37.002-18.477a3.729 3.729 0 003.732-3.726 3.73 3.73 0 00-3.732-3.727 3.729 3.729 0 00-3.732 3.727 3.728 3.728 0 003.732 3.726zm74.007 0a3.73 3.73 0 003.733-3.726 3.73 3.73 0 00-3.733-3.727 3.73 3.73 0 00-3.732 3.727 3.729 3.729 0 003.732 3.726zm18.499 0a3.729 3.729 0 003.732-3.726 3.73 3.73 0 00-3.732-3.727 3.73 3.73 0 00-3.733 3.727 3.73 3.73 0 003.733 3.726zm18.501 0a3.73 3.73 0 003.733-3.726 3.73 3.73 0 00-3.733-3.727 3.73 3.73 0 00-3.732 3.727 3.729 3.729 0 003.732 3.726zm-92.507 0a3.729 3.729 0 003.732-3.726 3.73 3.73 0 00-3.732-3.727 3.729 3.729 0 00-3.732 3.727 3.728 3.728 0 003.732 3.726zm-55.502 0a3.729 3.729 0 003.732-3.726 3.73 3.73 0 00-3.732-3.727 3.73 3.73 0 00-3.732 3.727 3.729 3.729 0 003.732 3.726zm18.5-.001a3.729 3.729 0 003.732-3.726 3.73 3.73 0 00-3.732-3.727 3.73 3.73 0 00-3.732 3.727 3.729 3.729 0 003.732 3.726zm-55.506.003a3.73 3.73 0 003.732-3.727 3.73 3.73 0 00-3.732-3.727 3.73 3.73 0 00-3.732 3.727 3.73 3.73 0 003.732 3.727zm18.502-.002a3.729 3.729 0 003.732-3.726 3.73 3.73 0 00-3.732-3.727 3.73 3.73 0 00-3.732 3.727 3.729 3.729 0 003.732 3.726zm-55.504 0a3.729 3.729 0 003.732-3.726 3.73 3.73 0 00-3.732-3.727 3.73 3.73 0 00-3.732 3.727 3.73 3.73 0 003.732 3.726zm18.504 0a3.729 3.729 0 003.732-3.726 3.73 3.73 0 00-3.732-3.727 3.73 3.73 0 00-3.732 3.727 3.729 3.729 0 003.732 3.726zm-55.506 0a3.729 3.729 0 003.732-3.726 3.73 3.73 0 00-3.732-3.727 3.73 3.73 0 00-3.732 3.727 3.729 3.729 0 003.732 3.726zm18.5 0a3.729 3.729 0 003.732-3.726 3.73 3.73 0 00-3.732-3.727 3.73 3.73 0 00-3.732 3.727 3.729 3.729 0 003.732 3.726zm166.516 0a3.729 3.729 0 003.732-3.726 3.73 3.73 0 00-3.732-3.727 3.73 3.73 0 00-3.733 3.727 3.73 3.73 0 003.733 3.726zm18.5 0a3.729 3.729 0 003.732-3.726 3.73 3.73 0 00-3.732-3.727 3.73 3.73 0 00-3.733 3.727 3.73 3.73 0 003.733 3.726zm-55.504-18.475a3.73 3.73 0 003.732-3.727 3.73 3.73 0 00-3.732-3.727 3.729 3.729 0 00-3.732 3.727 3.73 3.73 0 003.732 3.727zm74.007 0a3.73 3.73 0 003.733-3.727 3.73 3.73 0 00-3.733-3.727 3.73 3.73 0 00-3.732 3.727 3.73 3.73 0 003.732 3.727zm18.499 0a3.73 3.73 0 003.732-3.727 3.73 3.73 0 00-3.732-3.727 3.73 3.73 0 00-3.733 3.727 3.73 3.73 0 003.733 3.727zm18.501 0a3.73 3.73 0 003.733-3.727 3.73 3.73 0 00-3.733-3.727 3.73 3.73 0 00-3.732 3.727 3.73 3.73 0 003.732 3.727zm-92.507 0a3.73 3.73 0 003.732-3.727 3.73 3.73 0 00-3.732-3.727 3.729 3.729 0 00-3.732 3.727 3.73 3.73 0 003.732 3.727zm-55.502 0a3.73 3.73 0 003.732-3.727 3.73 3.73 0 00-3.732-3.727 3.73 3.73 0 00-3.732 3.727 3.73 3.73 0 003.732 3.727zm18.5 0a3.73 3.73 0 003.732-3.727 3.73 3.73 0 00-3.732-3.727 3.73 3.73 0 00-3.732 3.727 3.73 3.73 0 003.732 3.727zm-55.506 0a3.73 3.73 0 003.732-3.727 3.73 3.73 0 00-3.732-3.727 3.73 3.73 0 00-3.732 3.727 3.73 3.73 0 003.732 3.727zm18.502 0a3.73 3.73 0 003.732-3.727 3.73 3.73 0 00-3.732-3.727 3.73 3.73 0 00-3.732 3.727 3.73 3.73 0 003.732 3.727zm-55.504 0a3.73 3.73 0 003.732-3.727 3.73 3.73 0 00-3.732-3.727 3.73 3.73 0 00-3.732 3.727 3.73 3.73 0 003.732 3.727zm18.504 0a3.73 3.73 0 003.732-3.727 3.73 3.73 0 00-3.732-3.727 3.73 3.73 0 00-3.732 3.727 3.73 3.73 0 003.732 3.727zm-55.506 0a3.73 3.73 0 003.732-3.727 3.73 3.73 0 00-3.732-3.727 3.73 3.73 0 00-3.732 3.727 3.73 3.73 0 003.732 3.727zm-18.502 0a3.73 3.73 0 003.732-3.727 3.73 3.73 0 00-3.732-3.727 3.73 3.73 0 00-3.732 3.727 3.73 3.73 0 003.732 3.727zm0-18.476a3.73 3.73 0 003.732-3.727 3.73 3.73 0 00-3.732-3.727 3.73 3.73 0 00-3.732 3.727 3.73 3.73 0 003.732 3.727zm-18.502 0a3.73 3.73 0 003.732-3.727 3.73 3.73 0 00-3.732-3.727 3.73 3.73 0 00-3.732 3.727 3.73 3.73 0 003.732 3.727zm18.502-18.476a3.73 3.73 0 003.732-3.727 3.73 3.73 0 00-3.732-3.727 3.73 3.73 0 00-3.732 3.727 3.73 3.73 0 003.732 3.727zm-18.502.001a3.73 3.73 0 003.732-3.727 3.73 3.73 0 00-3.732-3.727 3.73 3.73 0 00-3.732 3.727 3.73 3.73 0 003.732 3.727zm-18.5 0a3.73 3.73 0 003.732-3.727 3.73 3.73 0 00-3.732-3.727 3.73 3.73 0 00-3.732 3.727 3.73 3.73 0 003.732 3.727zm74.004 36.951a3.73 3.73 0 003.732-3.727 3.73 3.73 0 00-3.732-3.727 3.73 3.73 0 00-3.732 3.727 3.73 3.73 0 003.732 3.727zm166.516 0a3.73 3.73 0 003.732-3.727 3.73 3.73 0 00-3.732-3.727 3.73 3.73 0 00-3.733 3.727 3.73 3.73 0 003.733 3.727zm18.5 0a3.73 3.73 0 003.732-3.727 3.73 3.73 0 00-3.732-3.727 3.73 3.73 0 00-3.733 3.727 3.73 3.73 0 003.733 3.727zm-55.504-18.475a3.73 3.73 0 003.732-3.727 3.73 3.73 0 00-3.732-3.727 3.73 3.73 0 00-3.732 3.727 3.73 3.73 0 003.732 3.727zm74.007-.001a3.73 3.73 0 003.733-3.727 3.73 3.73 0 00-3.733-3.727 3.73 3.73 0 00-3.732 3.727 3.73 3.73 0 003.732 3.727zm18.499.001a3.73 3.73 0 003.732-3.727 3.73 3.73 0 00-3.732-3.727 3.73 3.73 0 00-3.733 3.727 3.73 3.73 0 003.733 3.727zm18.501-.001a3.73 3.73 0 003.732-3.727 3.73 3.73 0 00-3.732-3.727 3.73 3.73 0 00-3.732 3.727 3.73 3.73 0 003.732 3.727zm-92.507 0a3.73 3.73 0 003.732-3.727 3.73 3.73 0 00-3.732-3.727 3.73 3.73 0 00-3.732 3.727 3.73 3.73 0 003.732 3.727zm-55.502 0a3.73 3.73 0 003.732-3.727 3.73 3.73 0 00-3.732-3.727 3.73 3.73 0 00-3.732 3.727 3.73 3.73 0 003.732 3.727zm18.5 0a3.73 3.73 0 003.732-3.727 3.73 3.73 0 00-3.732-3.727 3.73 3.73 0 00-3.732 3.727 3.73 3.73 0 003.732 3.727zm-55.506 0a3.73 3.73 0 003.732-3.727 3.73 3.73 0 00-3.732-3.727 3.73 3.73 0 00-3.732 3.727 3.73 3.73 0 003.732 3.727zm18.502.001a3.73 3.73 0 003.732-3.727 3.73 3.73 0 00-3.732-3.727 3.73 3.73 0 00-3.732 3.727 3.73 3.73 0 003.732 3.727zm-55.504-.002a3.73 3.73 0 003.732-3.727 3.73 3.73 0 00-3.732-3.727 3.73 3.73 0 00-3.732 3.727 3.73 3.73 0 003.732 3.727zm18.504.001a3.73 3.73 0 003.732-3.727 3.73 3.73 0 00-3.732-3.727 3.73 3.73 0 00-3.732 3.727 3.73 3.73 0 003.732 3.727zm-55.506 0a3.73 3.73 0 003.732-3.727 3.73 3.73 0 00-3.732-3.727 3.73 3.73 0 00-3.732 3.727 3.73 3.73 0 003.732 3.727zm18.5 0a3.73 3.73 0 003.732-3.727 3.73 3.73 0 00-3.732-3.727 3.73 3.73 0 00-3.732 3.727 3.73 3.73 0 003.732 3.727zm166.514-.001a3.73 3.73 0 003.732-3.727 3.73 3.73 0 00-3.732-3.727 3.729 3.729 0 00-3.732 3.727 3.73 3.73 0 003.732 3.727zm18.502.001a3.73 3.73 0 003.732-3.727 3.73 3.73 0 00-3.732-3.727 3.73 3.73 0 00-3.733 3.727 3.73 3.73 0 003.733 3.727zm-55.504-18.476a3.73 3.73 0 003.732-3.727 3.73 3.73 0 00-3.732-3.727 3.73 3.73 0 00-3.732 3.727 3.73 3.73 0 003.732 3.727zm74.007 0a3.73 3.73 0 003.733-3.727 3.73 3.73 0 00-3.733-3.727 3.73 3.73 0 00-3.732 3.727 3.73 3.73 0 003.732 3.727zm18.499 0a3.73 3.73 0 003.732-3.727 3.73 3.73 0 00-3.732-3.727 3.73 3.73 0 00-3.733 3.727 3.73 3.73 0 003.733 3.727zm18.503.001a3.73 3.73 0 003.733-3.727 3.73 3.73 0 00-3.733-3.727 3.73 3.73 0 00-3.732 3.727 3.73 3.73 0 003.732 3.727zm-92.509-.001a3.73 3.73 0 003.732-3.727 3.73 3.73 0 00-3.732-3.727 3.73 3.73 0 00-3.732 3.727 3.73 3.73 0 003.732 3.727zm-55.502.001a3.73 3.73 0 003.732-3.727 3.73 3.73 0 00-3.732-3.727 3.73 3.73 0 00-3.732 3.727 3.73 3.73 0 003.732 3.727zm18.5-.001a3.73 3.73 0 003.732-3.727 3.73 3.73 0 00-3.732-3.727 3.73 3.73 0 00-3.732 3.727 3.73 3.73 0 003.732 3.727zm-55.506 0a3.73 3.73 0 003.732-3.727 3.73 3.73 0 00-3.732-3.727 3.73 3.73 0 00-3.732 3.727 3.73 3.73 0 003.732 3.727zm18.5 0a3.73 3.73 0 003.732-3.727 3.73 3.73 0 00-3.732-3.727 3.73 3.73 0 00-3.732 3.727 3.73 3.73 0 003.732 3.727zm-55.502 0a3.73 3.73 0 003.732-3.727 3.73 3.73 0 00-3.732-3.727 3.73 3.73 0 00-3.732 3.727 3.73 3.73 0 003.732 3.727zm18.504.001a3.73 3.73 0 003.732-3.727 3.73 3.73 0 00-3.732-3.727 3.73 3.73 0 00-3.732 3.727 3.73 3.73 0 003.732 3.727zm-55.506 0a3.73 3.73 0 003.732-3.727 3.73 3.73 0 00-3.732-3.727 3.73 3.73 0 00-3.732 3.727 3.73 3.73 0 003.732 3.727zm18.5-.001a3.73 3.73 0 003.732-3.727 3.73 3.73 0 00-3.732-3.727 3.73 3.73 0 00-3.732 3.727 3.73 3.73 0 003.732 3.727zm166.514 0a3.73 3.73 0 003.732-3.727 3.73 3.73 0 00-3.732-3.727 3.73 3.73 0 00-3.732 3.727 3.73 3.73 0 003.732 3.727zm18.502.001a3.73 3.73 0 003.732-3.727 3.73 3.73 0 00-3.732-3.727 3.73 3.73 0 00-3.733 3.727 3.73 3.73 0 003.733 3.727zM46.736 209.147a3.73 3.73 0 003.732-3.727 3.73 3.73 0 00-3.732-3.727 3.73 3.73 0 00-3.732 3.727 3.73 3.73 0 003.732 3.727zm-18.502 0a3.73 3.73 0 003.732-3.727 3.73 3.73 0 00-3.732-3.727 3.73 3.73 0 00-3.732 3.727 3.73 3.73 0 003.732 3.727zm-18.502 0a3.73 3.73 0 003.732-3.727 3.73 3.73 0 00-3.732-3.727A3.73 3.73 0 006 205.42a3.73 3.73 0 003.732 3.727zm203.518 0a3.73 3.73 0 003.732-3.727 3.73 3.73 0 00-3.732-3.727 3.73 3.73 0 00-3.732 3.727 3.729 3.729 0 003.732 3.727zm74.007 0a3.73 3.73 0 003.733-3.727 3.73 3.73 0 00-3.733-3.727 3.73 3.73 0 00-3.732 3.727 3.73 3.73 0 003.732 3.727zm18.499 0a3.73 3.73 0 003.732-3.727 3.73 3.73 0 00-3.732-3.727 3.73 3.73 0 00-3.733 3.727 3.73 3.73 0 003.733 3.727zm18.503 0a3.73 3.73 0 003.733-3.727 3.73 3.73 0 00-3.733-3.727 3.73 3.73 0 00-3.732 3.727 3.73 3.73 0 003.732 3.727zm-92.509 0a3.73 3.73 0 003.732-3.727 3.73 3.73 0 00-3.732-3.727 3.73 3.73 0 00-3.732 3.727 3.729 3.729 0 003.732 3.727zm-55.502 0a3.73 3.73 0 003.732-3.727 3.73 3.73 0 00-3.732-3.727 3.73 3.73 0 00-3.732 3.727 3.73 3.73 0 003.732 3.727zm18.5 0a3.73 3.73 0 003.732-3.727 3.73 3.73 0 00-3.732-3.727 3.73 3.73 0 00-3.732 3.727 3.73 3.73 0 003.732 3.727zm-55.506 0a3.73 3.73 0 003.732-3.727 3.73 3.73 0 00-3.732-3.727 3.73 3.73 0 00-3.732 3.727 3.73 3.73 0 003.732 3.727zm18.5 0a3.73 3.73 0 003.732-3.727 3.73 3.73 0 00-3.732-3.727 3.73 3.73 0 00-3.732 3.727 3.73 3.73 0 003.732 3.727zm-55.502 0a3.73 3.73 0 003.732-3.727 3.73 3.73 0 00-3.732-3.727 3.73 3.73 0 00-3.732 3.727 3.73 3.73 0 003.732 3.727zm18.504 0a3.73 3.73 0 003.732-3.727 3.73 3.73 0 00-3.732-3.727 3.73 3.73 0 00-3.732 3.727 3.73 3.73 0 003.732 3.727zm-55.506 0a3.73 3.73 0 003.732-3.727 3.73 3.73 0 00-3.732-3.727 3.73 3.73 0 00-3.732 3.727 3.73 3.73 0 003.732 3.727zm18.5 0a3.73 3.73 0 003.732-3.727 3.73 3.73 0 00-3.732-3.727 3.73 3.73 0 00-3.732 3.727 3.73 3.73 0 003.732 3.727zm166.514 0a3.73 3.73 0 003.732-3.727 3.73 3.73 0 00-3.732-3.727 3.73 3.73 0 00-3.732 3.727 3.729 3.729 0 003.732 3.727zm18.502-.001a3.73 3.73 0 003.732-3.727 3.73 3.73 0 00-3.732-3.727 3.73 3.73 0 00-3.733 3.727 3.73 3.73 0 003.733 3.727zM46.738 190.671a3.73 3.73 0 003.732-3.727 3.729 3.729 0 00-3.732-3.726 3.729 3.729 0 00-3.732 3.726 3.73 3.73 0 003.732 3.727zm-18.504.001a3.73 3.73 0 003.732-3.727 3.729 3.729 0 00-3.732-3.726 3.729 3.729 0 00-3.732 3.726 3.73 3.73 0 003.732 3.727zm185.016-.001a3.73 3.73 0 003.732-3.727 3.729 3.729 0 00-3.732-3.726 3.728 3.728 0 00-3.732 3.726 3.729 3.729 0 003.732 3.727zm74.007.001a3.73 3.73 0 003.733-3.727 3.73 3.73 0 00-3.733-3.726 3.729 3.729 0 00-3.732 3.726 3.73 3.73 0 003.732 3.727zm18.499-.001a3.73 3.73 0 003.732-3.727 3.729 3.729 0 00-3.732-3.726 3.73 3.73 0 00-3.733 3.726 3.73 3.73 0 003.733 3.727zm18.503.001a3.73 3.73 0 003.733-3.727 3.73 3.73 0 00-3.733-3.726 3.729 3.729 0 00-3.732 3.726 3.73 3.73 0 003.732 3.727zm-92.509 0a3.73 3.73 0 003.732-3.727 3.729 3.729 0 00-3.732-3.726 3.728 3.728 0 00-3.732 3.726 3.729 3.729 0 003.732 3.727zm-55.502 0a3.73 3.73 0 003.732-3.727 3.729 3.729 0 00-3.732-3.726 3.729 3.729 0 00-3.732 3.726 3.73 3.73 0 003.732 3.727zm18.5 0a3.73 3.73 0 003.732-3.727 3.729 3.729 0 00-3.732-3.726 3.729 3.729 0 00-3.732 3.726 3.73 3.73 0 003.732 3.727zm-55.506-.001a3.73 3.73 0 003.732-3.727 3.729 3.729 0 00-3.732-3.726 3.729 3.729 0 00-3.732 3.726 3.73 3.73 0 003.732 3.727zm18.502 0a3.73 3.73 0 003.732-3.727 3.729 3.729 0 00-3.732-3.726 3.729 3.729 0 00-3.732 3.726 3.73 3.73 0 003.732 3.727zm-55.504 0a3.73 3.73 0 003.732-3.727 3.729 3.729 0 00-3.732-3.726 3.73 3.73 0 00-3.732 3.726 3.73 3.73 0 003.732 3.727zm18.502 0a3.73 3.73 0 003.732-3.727 3.729 3.729 0 00-3.732-3.726 3.729 3.729 0 00-3.732 3.726 3.73 3.73 0 003.732 3.727zm-55.506 0a3.73 3.73 0 003.732-3.727 3.729 3.729 0 00-3.732-3.726 3.729 3.729 0 00-3.732 3.726 3.73 3.73 0 003.732 3.727zm18.502.001a3.73 3.73 0 003.732-3.727 3.729 3.729 0 00-3.732-3.726 3.729 3.729 0 00-3.732 3.726 3.73 3.73 0 003.732 3.727zm166.514-.001a3.73 3.73 0 003.732-3.727 3.729 3.729 0 00-3.732-3.726 3.728 3.728 0 00-3.732 3.726 3.729 3.729 0 003.732 3.727zm18.502 0a3.73 3.73 0 003.732-3.727 3.729 3.729 0 00-3.732-3.726 3.73 3.73 0 00-3.733 3.726 3.73 3.73 0 003.733 3.727zM46.738 172.195a3.73 3.73 0 003.732-3.727 3.73 3.73 0 00-3.732-3.727 3.73 3.73 0 00-3.732 3.727 3.73 3.73 0 003.732 3.727zm166.512 0a3.73 3.73 0 003.732-3.727 3.73 3.73 0 00-3.732-3.727 3.73 3.73 0 00-3.732 3.727 3.729 3.729 0 003.732 3.727zm74.007 0a3.73 3.73 0 003.733-3.727 3.73 3.73 0 00-3.733-3.727 3.73 3.73 0 00-3.732 3.727 3.73 3.73 0 003.732 3.727zm18.499 0a3.73 3.73 0 003.732-3.727 3.73 3.73 0 00-3.732-3.727 3.73 3.73 0 00-3.733 3.727 3.73 3.73 0 003.733 3.727zm18.501 0a3.73 3.73 0 003.733-3.727 3.73 3.73 0 00-3.733-3.727 3.73 3.73 0 00-3.732 3.727 3.73 3.73 0 003.732 3.727zm-92.507 0a3.73 3.73 0 003.732-3.727 3.73 3.73 0 00-3.732-3.727 3.73 3.73 0 00-3.732 3.727 3.729 3.729 0 003.732 3.727zm-55.502-.001a3.73 3.73 0 003.732-3.727 3.73 3.73 0 00-3.732-3.727 3.73 3.73 0 00-3.732 3.727 3.73 3.73 0 003.732 3.727zm18.5.001a3.73 3.73 0 003.732-3.727 3.73 3.73 0 00-3.732-3.727 3.73 3.73 0 00-3.732 3.727 3.73 3.73 0 003.732 3.727zm-55.506 0a3.73 3.73 0 003.732-3.727 3.73 3.73 0 00-3.732-3.727 3.73 3.73 0 00-3.732 3.727 3.73 3.73 0 003.732 3.727zm18.502 0a3.73 3.73 0 003.732-3.727 3.73 3.73 0 00-3.732-3.727 3.73 3.73 0 00-3.732 3.727 3.73 3.73 0 003.732 3.727zm-55.504 0a3.73 3.73 0 003.732-3.727 3.73 3.73 0 00-3.732-3.727 3.73 3.73 0 00-3.732 3.727 3.73 3.73 0 003.732 3.727zm18.502 0a3.73 3.73 0 003.732-3.727 3.73 3.73 0 00-3.732-3.727 3.73 3.73 0 00-3.732 3.727 3.73 3.73 0 003.732 3.727zm-55.506 0a3.73 3.73 0 003.732-3.727 3.73 3.73 0 00-3.732-3.727 3.73 3.73 0 00-3.732 3.727 3.73 3.73 0 003.732 3.727zm18.502 0a3.73 3.73 0 003.732-3.727 3.73 3.73 0 00-3.732-3.727 3.73 3.73 0 00-3.732 3.727 3.73 3.73 0 003.732 3.727zm166.514 0a3.73 3.73 0 003.732-3.727 3.73 3.73 0 00-3.732-3.727 3.73 3.73 0 00-3.732 3.727 3.729 3.729 0 003.732 3.727zm18.502 0a3.73 3.73 0 003.732-3.727 3.73 3.73 0 00-3.732-3.727 3.73 3.73 0 00-3.733 3.727 3.73 3.73 0 003.733 3.727zm-55.504-18.476a3.73 3.73 0 003.732-3.727 3.729 3.729 0 00-3.732-3.726 3.728 3.728 0 00-3.732 3.726 3.729 3.729 0 003.732 3.727zm74.007 0a3.73 3.73 0 003.733-3.727 3.73 3.73 0 00-3.733-3.726 3.729 3.729 0 00-3.732 3.726 3.73 3.73 0 003.732 3.727zm18.499 0a3.73 3.73 0 003.732-3.727 3.729 3.729 0 00-3.732-3.726 3.73 3.73 0 00-3.733 3.726 3.73 3.73 0 003.733 3.727zm18.501 0a3.73 3.73 0 003.733-3.727 3.73 3.73 0 00-3.733-3.726 3.729 3.729 0 00-3.732 3.726 3.73 3.73 0 003.732 3.727zm-92.507 0a3.73 3.73 0 003.732-3.727 3.729 3.729 0 00-3.732-3.726 3.728 3.728 0 00-3.732 3.726 3.729 3.729 0 003.732 3.727zm-55.502 0a3.73 3.73 0 003.732-3.727 3.729 3.729 0 00-3.732-3.726 3.729 3.729 0 00-3.732 3.726 3.73 3.73 0 003.732 3.727zm18.5-.001a3.73 3.73 0 003.732-3.727 3.73 3.73 0 00-3.732-3.727 3.73 3.73 0 00-3.732 3.727 3.73 3.73 0 003.732 3.727zm-55.506 0a3.73 3.73 0 003.732-3.727 3.73 3.73 0 00-3.732-3.727 3.73 3.73 0 00-3.732 3.727 3.73 3.73 0 003.732 3.727zm18.502.001a3.73 3.73 0 003.732-3.727 3.729 3.729 0 00-3.732-3.726 3.729 3.729 0 00-3.732 3.726 3.73 3.73 0 003.732 3.727zm-55.504 0a3.73 3.73 0 003.732-3.727 3.729 3.729 0 00-3.732-3.726 3.73 3.73 0 00-3.732 3.726 3.73 3.73 0 003.732 3.727zm18.504 0a3.73 3.73 0 003.732-3.727 3.729 3.729 0 00-3.732-3.726 3.729 3.729 0 00-3.732 3.726 3.73 3.73 0 003.732 3.727zm-55.506 0a3.73 3.73 0 003.732-3.727 3.729 3.729 0 00-3.732-3.726 3.729 3.729 0 00-3.732 3.726 3.73 3.73 0 003.732 3.727zm18.5-.001a3.73 3.73 0 003.732-3.727 3.73 3.73 0 00-3.732-3.727 3.73 3.73 0 00-3.732 3.727 3.73 3.73 0 003.732 3.727zm166.516.001a3.73 3.73 0 003.732-3.727 3.729 3.729 0 00-3.732-3.726 3.73 3.73 0 00-3.733 3.726 3.73 3.73 0 003.733 3.727zm18.5 0a3.73 3.73 0 003.732-3.727 3.729 3.729 0 00-3.732-3.726 3.73 3.73 0 00-3.733 3.726 3.73 3.73 0 003.733 3.727zm-55.504-18.474a3.73 3.73 0 003.732-3.727 3.73 3.73 0 00-3.732-3.727 3.73 3.73 0 00-3.732 3.727 3.73 3.73 0 003.732 3.727zm74.007-.002a3.73 3.73 0 003.733-3.726 3.73 3.73 0 00-3.733-3.727 3.73 3.73 0 00-3.732 3.727 3.729 3.729 0 003.732 3.726zm18.499.002a3.73 3.73 0 003.732-3.727 3.73 3.73 0 00-3.732-3.727 3.73 3.73 0 00-3.733 3.727 3.73 3.73 0 003.733 3.727zm18.501 0a3.73 3.73 0 003.733-3.727 3.73 3.73 0 00-3.733-3.727 3.73 3.73 0 00-3.732 3.727 3.73 3.73 0 003.732 3.727zm-92.507-.002a3.729 3.729 0 003.732-3.726 3.73 3.73 0 00-3.732-3.727 3.729 3.729 0 00-3.732 3.727 3.728 3.728 0 003.732 3.726zm-55.502.002a3.73 3.73 0 003.732-3.727 3.73 3.73 0 00-3.732-3.727 3.73 3.73 0 00-3.732 3.727 3.73 3.73 0 003.732 3.727zm18.5-.002a3.729 3.729 0 003.732-3.726 3.73 3.73 0 00-3.732-3.727 3.73 3.73 0 00-3.732 3.727 3.729 3.729 0 003.732 3.726zm-55.506 0a3.729 3.729 0 003.732-3.726 3.73 3.73 0 00-3.732-3.727 3.73 3.73 0 00-3.732 3.727 3.729 3.729 0 003.732 3.726zm18.502.002a3.73 3.73 0 003.732-3.727 3.73 3.73 0 00-3.732-3.727 3.73 3.73 0 00-3.732 3.727 3.73 3.73 0 003.732 3.727zm-55.504 0a3.73 3.73 0 003.732-3.727 3.73 3.73 0 00-3.732-3.727 3.73 3.73 0 00-3.732 3.727 3.73 3.73 0 003.732 3.727zm18.504 0a3.73 3.73 0 003.732-3.727 3.73 3.73 0 00-3.732-3.727 3.73 3.73 0 00-3.732 3.727 3.73 3.73 0 003.732 3.727zm-37.006-.002a3.729 3.729 0 003.732-3.726 3.73 3.73 0 00-3.732-3.727 3.73 3.73 0 00-3.732 3.727 3.729 3.729 0 003.732 3.726zm166.514 0a3.729 3.729 0 003.732-3.726 3.73 3.73 0 00-3.732-3.727 3.729 3.729 0 00-3.732 3.727 3.728 3.728 0 003.732 3.726zm18.502.002a3.73 3.73 0 003.732-3.727 3.73 3.73 0 00-3.732-3.727 3.73 3.73 0 00-3.733 3.727 3.73 3.73 0 003.733 3.727zM213.25 116.77a3.73 3.73 0 003.732-3.727 3.73 3.73 0 00-3.732-3.727 3.73 3.73 0 00-3.732 3.727 3.73 3.73 0 003.732 3.727zm74.007-.001a3.73 3.73 0 003.733-3.727 3.73 3.73 0 00-3.733-3.727 3.73 3.73 0 00-3.732 3.727 3.73 3.73 0 003.732 3.727zm18.499.001a3.73 3.73 0 003.732-3.727 3.73 3.73 0 00-3.732-3.727 3.73 3.73 0 00-3.733 3.727 3.73 3.73 0 003.733 3.727zm18.503-.001a3.73 3.73 0 003.733-3.727 3.73 3.73 0 00-3.733-3.727 3.73 3.73 0 00-3.732 3.727 3.73 3.73 0 003.732 3.727zm-92.509 0a3.73 3.73 0 003.732-3.727 3.73 3.73 0 00-3.732-3.727 3.73 3.73 0 00-3.732 3.727 3.73 3.73 0 003.732 3.727zm-55.502 0a3.73 3.73 0 003.732-3.727 3.73 3.73 0 00-3.732-3.727 3.73 3.73 0 00-3.732 3.727 3.73 3.73 0 003.732 3.727zm18.5 0a3.73 3.73 0 003.732-3.727 3.73 3.73 0 00-3.732-3.727 3.73 3.73 0 00-3.732 3.727 3.73 3.73 0 003.732 3.727zm-55.506 0a3.73 3.73 0 003.732-3.727 3.73 3.73 0 00-3.732-3.727 3.73 3.73 0 00-3.732 3.727 3.73 3.73 0 003.732 3.727zm18.502 0a3.73 3.73 0 003.732-3.727 3.73 3.73 0 00-3.732-3.727 3.73 3.73 0 00-3.732 3.727 3.73 3.73 0 003.732 3.727zm-55.504-.002a3.729 3.729 0 003.732-3.726 3.73 3.73 0 00-3.732-3.727 3.73 3.73 0 00-3.732 3.727 3.73 3.73 0 003.732 3.726zm18.504.002a3.73 3.73 0 003.732-3.727 3.73 3.73 0 00-3.732-3.727 3.73 3.73 0 00-3.732 3.727 3.73 3.73 0 003.732 3.727zm129.508-.002a3.729 3.729 0 003.732-3.726 3.73 3.73 0 00-3.732-3.727 3.729 3.729 0 00-3.732 3.727 3.728 3.728 0 003.732 3.726zm18.502.002a3.73 3.73 0 003.732-3.727 3.73 3.73 0 00-3.732-3.727 3.73 3.73 0 00-3.733 3.727 3.73 3.73 0 003.733 3.727zM213.25 98.292a3.73 3.73 0 003.732-3.727 3.73 3.73 0 00-3.732-3.726 3.729 3.729 0 00-3.732 3.727 3.729 3.729 0 003.732 3.726zm74.007 0a3.73 3.73 0 003.733-3.727 3.73 3.73 0 00-3.733-3.726 3.73 3.73 0 00-3.732 3.727 3.73 3.73 0 003.732 3.726zm18.499 0a3.73 3.73 0 003.732-3.727 3.73 3.73 0 00-3.732-3.726 3.73 3.73 0 00-3.733 3.727 3.73 3.73 0 003.733 3.726zm18.503.001a3.73 3.73 0 003.733-3.726 3.73 3.73 0 00-3.733-3.727 3.73 3.73 0 00-3.732 3.727 3.73 3.73 0 003.732 3.727zm-92.509-.001a3.73 3.73 0 003.732-3.727 3.73 3.73 0 00-3.732-3.726 3.729 3.729 0 00-3.732 3.727 3.729 3.729 0 003.732 3.726zm-55.502.001a3.73 3.73 0 003.732-3.726 3.73 3.73 0 00-3.732-3.727 3.73 3.73 0 00-3.732 3.727 3.73 3.73 0 003.732 3.727zm18.5-.001a3.73 3.73 0 003.732-3.727 3.73 3.73 0 00-3.732-3.726 3.73 3.73 0 00-3.732 3.727 3.73 3.73 0 003.732 3.726zm-55.506 0a3.73 3.73 0 003.732-3.727 3.73 3.73 0 00-3.732-3.726 3.73 3.73 0 00-3.732 3.727 3.73 3.73 0 003.732 3.726zm18.5 0a3.73 3.73 0 003.732-3.727 3.73 3.73 0 00-3.732-3.726 3.73 3.73 0 00-3.732 3.727 3.73 3.73 0 003.732 3.726zm-36.998.001a3.73 3.73 0 003.732-3.726 3.73 3.73 0 00-3.732-3.727 3.73 3.73 0 00-3.732 3.727 3.73 3.73 0 003.732 3.727zm129.508-.001a3.73 3.73 0 003.732-3.727 3.73 3.73 0 00-3.732-3.726 3.729 3.729 0 00-3.732 3.727 3.729 3.729 0 003.732 3.726zm18.504.001a3.73 3.73 0 003.732-3.726 3.73 3.73 0 00-3.732-3.727 3.73 3.73 0 00-3.733 3.727 3.73 3.73 0 003.733 3.727zM213.25 79.818a3.73 3.73 0 003.732-3.727 3.73 3.73 0 00-3.732-3.727 3.729 3.729 0 00-3.732 3.727 3.729 3.729 0 003.732 3.727zm74.007 0a3.73 3.73 0 003.733-3.727 3.73 3.73 0 00-3.733-3.727 3.73 3.73 0 00-3.732 3.727 3.73 3.73 0 003.732 3.727zm18.499 0a3.73 3.73 0 003.732-3.727 3.73 3.73 0 00-3.732-3.727 3.73 3.73 0 00-3.733 3.727 3.73 3.73 0 003.733 3.727zm-74.006 0a3.73 3.73 0 003.732-3.727 3.73 3.73 0 00-3.732-3.727 3.729 3.729 0 00-3.732 3.727 3.729 3.729 0 003.732 3.727zm-55.502 0a3.73 3.73 0 003.732-3.727 3.73 3.73 0 00-3.732-3.727 3.73 3.73 0 00-3.732 3.727 3.73 3.73 0 003.732 3.727zm18.5 0a3.73 3.73 0 003.732-3.727 3.73 3.73 0 00-3.732-3.727 3.73 3.73 0 00-3.732 3.727 3.73 3.73 0 003.732 3.727zm-55.506 0a3.73 3.73 0 003.732-3.727 3.73 3.73 0 00-3.732-3.727 3.73 3.73 0 00-3.732 3.727 3.73 3.73 0 003.732 3.727zm18.5 0a3.73 3.73 0 003.732-3.727 3.73 3.73 0 00-3.732-3.727 3.73 3.73 0 00-3.732 3.727 3.73 3.73 0 003.732 3.727zm92.51 0a3.73 3.73 0 003.732-3.727 3.73 3.73 0 00-3.732-3.727 3.729 3.729 0 00-3.732 3.727 3.729 3.729 0 003.732 3.727zm18.502 0a3.73 3.73 0 003.732-3.727 3.73 3.73 0 00-3.732-3.727 3.73 3.73 0 00-3.733 3.727 3.73 3.73 0 003.733 3.727zM213.25 61.341a3.73 3.73 0 003.732-3.727 3.73 3.73 0 00-3.732-3.726 3.729 3.729 0 00-3.732 3.727 3.729 3.729 0 003.732 3.726zm74.007.001a3.73 3.73 0 003.733-3.727 3.73 3.73 0 00-3.733-3.726 3.73 3.73 0 00-3.732 3.726 3.73 3.73 0 003.732 3.727zm-55.507 0a3.73 3.73 0 003.732-3.727 3.73 3.73 0 00-3.732-3.726 3.729 3.729 0 00-3.732 3.726 3.729 3.729 0 003.732 3.727zm-55.502 0a3.73 3.73 0 003.732-3.727 3.73 3.73 0 00-3.732-3.726 3.73 3.73 0 00-3.732 3.726 3.73 3.73 0 003.732 3.727zm18.5-.001a3.73 3.73 0 003.732-3.727 3.73 3.73 0 00-3.732-3.726 3.73 3.73 0 00-3.732 3.727 3.73 3.73 0 003.732 3.726zm-37.004 0a3.73 3.73 0 003.732-3.727 3.73 3.73 0 00-3.732-3.726 3.73 3.73 0 00-3.732 3.727 3.73 3.73 0 003.732 3.726zm92.508 0a3.73 3.73 0 003.732-3.727 3.73 3.73 0 00-3.732-3.726 3.729 3.729 0 00-3.732 3.727 3.729 3.729 0 003.732 3.726zm18.502 0a3.73 3.73 0 003.732-3.727 3.73 3.73 0 00-3.732-3.726 3.73 3.73 0 00-3.733 3.727 3.73 3.73 0 003.733 3.726zM213.25 42.866a3.73 3.73 0 003.732-3.727 3.73 3.73 0 00-3.732-3.726 3.729 3.729 0 00-3.732 3.726 3.729 3.729 0 003.732 3.727zm18.5 0a3.73 3.73 0 003.732-3.727 3.73 3.73 0 00-3.732-3.726 3.729 3.729 0 00-3.732 3.726 3.729 3.729 0 003.732 3.727zm-55.502-.001a3.73 3.73 0 003.732-3.727 3.73 3.73 0 00-3.732-3.726 3.73 3.73 0 00-3.732 3.727 3.73 3.73 0 003.732 3.726zm18.5.001a3.73 3.73 0 003.732-3.727 3.73 3.73 0 00-3.732-3.726 3.73 3.73 0 00-3.732 3.726 3.73 3.73 0 003.732 3.727zm55.504 0a3.73 3.73 0 003.732-3.727 3.73 3.73 0 00-3.732-3.726 3.729 3.729 0 00-3.732 3.726 3.729 3.729 0 003.732 3.727zM213.25 25.93a3.73 3.73 0 003.732-3.727 3.73 3.73 0 00-3.732-3.727 3.729 3.729 0 00-3.732 3.727 3.729 3.729 0 003.732 3.727zm18.5.001a3.73 3.73 0 003.732-3.727 3.73 3.73 0 00-3.732-3.727 3.729 3.729 0 00-3.732 3.727 3.729 3.729 0 003.732 3.727zm-18.5-18.476a3.73 3.73 0 003.732-3.727A3.73 3.73 0 00213.25.001a3.729 3.729 0 00-3.732 3.727 3.729 3.729 0 003.732 3.727zm18.5-.001a3.73 3.73 0 003.732-3.727A3.73 3.73 0 00231.75 0a3.729 3.729 0 00-3.732 3.727 3.729 3.729 0 003.732 3.727zM194.748 25.93a3.73 3.73 0 003.732-3.727 3.73 3.73 0 00-3.732-3.727 3.73 3.73 0 00-3.732 3.727 3.73 3.73 0 003.732 3.727zm55.504 0a3.73 3.73 0 003.732-3.727 3.73 3.73 0 00-3.732-3.727 3.729 3.729 0 00-3.732 3.727 3.729 3.729 0 003.732 3.727zm18.502 16.935a3.73 3.73 0 003.732-3.727 3.73 3.73 0 00-3.732-3.726 3.73 3.73 0 00-3.733 3.727 3.73 3.73 0 003.733 3.726z"/></g><defs><clipPath id="clip0_101_7960"><path fill="#fff" transform="translate(6)" d="M0 0h433v444H0z"/></clipPath></defs></svg>