<svg width="142" height="290" fill="none" xmlns="http://www.w3.org/2000/svg"><g opacity=".8" clip-path="url(#clip0_229_7783)" fill="#FFE7A4"><path d="M111.662 257.279a2.441 2.441 0 002.448-2.434 2.441 2.441 0 00-2.448-2.434 2.441 2.441 0 00-2.448 2.434 2.441 2.441 0 002.448 2.434zm12.136 0a2.441 2.441 0 002.448-2.435 2.441 2.441 0 00-2.448-2.434 2.441 2.441 0 00-2.448 2.434 2.441 2.441 0 002.448 2.435zm12.136 0a2.441 2.441 0 002.448-2.434 2.441 2.441 0 00-2.448-2.434 2.441 2.441 0 00-2.448 2.434 2.441 2.441 0 002.448 2.434zm-12.136 12.068a2.441 2.441 0 002.448-2.434 2.44 2.44 0 00-2.448-2.434 2.44 2.44 0 00-2.448 2.434 2.441 2.441 0 002.448 2.434zm12.136-.001a2.441 2.441 0 002.448-2.434 2.441 2.441 0 00-2.448-2.434 2.441 2.441 0 00-2.448 2.434 2.441 2.441 0 002.448 2.434zm0 12.067a2.441 2.441 0 002.448-2.434 2.441 2.441 0 00-2.448-2.434 2.441 2.441 0 00-2.448 2.434 2.441 2.441 0 002.448 2.434zm0-36.201a2.44 2.44 0 002.448-2.434 2.441 2.441 0 00-2.448-2.434 2.441 2.441 0 00-2.448 2.434 2.44 2.44 0 002.448 2.434zm-36.405 0a2.44 2.44 0 002.448-2.434 2.441 2.441 0 00-2.448-2.434 2.441 2.441 0 00-2.448 2.434 2.44 2.44 0 002.448 2.434zM87.39 233.144a2.441 2.441 0 002.448-2.434 2.44 2.44 0 00-2.448-2.434 2.44 2.44 0 00-2.448 2.434 2.441 2.441 0 002.448 2.434zm24.272 12.068a2.441 2.441 0 002.448-2.435 2.441 2.441 0 00-2.448-2.434 2.441 2.441 0 00-2.448 2.434 2.441 2.441 0 002.448 2.435zm12.136-.001a2.441 2.441 0 002.448-2.434 2.44 2.44 0 00-2.448-2.434 2.44 2.44 0 00-2.448 2.434 2.441 2.441 0 002.448 2.434zm12.136-12.067a2.44 2.44 0 002.447-2.434 2.44 2.44 0 00-2.447-2.434 2.44 2.44 0 00-2.448 2.434 2.441 2.441 0 002.448 2.434zm-36.405.001a2.441 2.441 0 002.448-2.434 2.441 2.441 0 00-2.448-2.435 2.441 2.441 0 00-2.448 2.435 2.441 2.441 0 002.448 2.434zm12.133 0a2.441 2.441 0 002.448-2.434 2.441 2.441 0 00-2.448-2.435 2.441 2.441 0 00-2.448 2.435 2.441 2.441 0 002.448 2.434zm12.136-.001a2.441 2.441 0 002.448-2.434 2.44 2.44 0 00-2.448-2.434 2.44 2.44 0 00-2.448 2.434 2.441 2.441 0 002.448 2.434zm-24.272-12.067a2.441 2.441 0 002.448-2.435 2.441 2.441 0 00-2.448-2.434 2.441 2.441 0 00-2.447 2.434 2.441 2.441 0 002.447 2.435zm12.136 0a2.44 2.44 0 002.448-2.434 2.441 2.441 0 00-2.448-2.434 2.441 2.441 0 00-2.448 2.434 2.44 2.44 0 002.448 2.434zm-36.405 0a2.44 2.44 0 002.448-2.434 2.441 2.441 0 00-2.448-2.434 2.441 2.441 0 00-2.447 2.434 2.44 2.44 0 002.447 2.434zm12.133 0a2.441 2.441 0 002.448-2.435 2.441 2.441 0 00-2.448-2.434 2.441 2.441 0 00-2.448 2.434 2.441 2.441 0 002.448 2.435zm36.408 0a2.441 2.441 0 002.448-2.435 2.441 2.441 0 00-2.448-2.434 2.441 2.441 0 00-2.448 2.434 2.441 2.441 0 002.448 2.435zm12.136 0a2.44 2.44 0 002.447-2.435 2.44 2.44 0 00-2.447-2.434 2.441 2.441 0 00-2.448 2.434 2.441 2.441 0 002.448 2.435zm-24.272-12.067a2.441 2.441 0 002.448-2.434 2.441 2.441 0 00-2.448-2.435 2.441 2.441 0 00-2.448 2.435 2.441 2.441 0 002.448 2.434zm12.136 0a2.441 2.441 0 002.448-2.434 2.441 2.441 0 00-2.448-2.435 2.441 2.441 0 00-2.448 2.435 2.441 2.441 0 002.448 2.434zm-36.408 0a2.441 2.441 0 002.448-2.434 2.441 2.441 0 00-2.448-2.435 2.441 2.441 0 00-2.448 2.435 2.441 2.441 0 002.448 2.434zm12.139-.001a2.441 2.441 0 002.448-2.434 2.44 2.44 0 00-2.448-2.434 2.44 2.44 0 00-2.448 2.434 2.441 2.441 0 002.448 2.434zm-36.405.001a2.441 2.441 0 002.448-2.434 2.441 2.441 0 00-2.448-2.435 2.441 2.441 0 00-2.448 2.435 2.441 2.441 0 002.448 2.434zm12.133-.001a2.441 2.441 0 002.448-2.434 2.44 2.44 0 00-2.448-2.434 2.44 2.44 0 00-2.447 2.434 2.441 2.441 0 002.447 2.434zm60.677.001a2.44 2.44 0 002.447-2.434 2.44 2.44 0 00-2.447-2.435 2.441 2.441 0 00-2.448 2.435 2.441 2.441 0 002.448 2.434zm-12.136-12.068a2.44 2.44 0 002.448-2.434 2.441 2.441 0 00-2.448-2.434 2.441 2.441 0 00-2.448 2.434 2.44 2.44 0 002.448 2.434zm12.136 0a2.441 2.441 0 002.448-2.435 2.441 2.441 0 00-2.448-2.434 2.441 2.441 0 00-2.448 2.434 2.441 2.441 0 002.448 2.435zm-36.405 0a2.441 2.441 0 002.448-2.435 2.441 2.441 0 00-2.448-2.434 2.441 2.441 0 00-2.448 2.434 2.441 2.441 0 002.448 2.435zm12.133 0a2.441 2.441 0 002.448-2.435 2.441 2.441 0 00-2.448-2.434 2.441 2.441 0 00-2.448 2.434 2.441 2.441 0 002.448 2.435zm-36.405 0a2.441 2.441 0 002.448-2.435 2.441 2.441 0 00-2.448-2.434 2.441 2.441 0 00-2.447 2.434 2.441 2.441 0 002.447 2.435zm12.133 0a2.44 2.44 0 002.448-2.434 2.441 2.441 0 00-2.448-2.434 2.441 2.441 0 00-2.448 2.434 2.44 2.44 0 002.448 2.434zm-36.404 0a2.441 2.441 0 002.448-2.435 2.441 2.441 0 00-2.448-2.434 2.441 2.441 0 00-2.448 2.434 2.441 2.441 0 002.448 2.435zm12.138 0a2.44 2.44 0 002.448-2.434 2.441 2.441 0 00-2.448-2.434 2.441 2.441 0 00-2.448 2.434 2.44 2.44 0 002.448 2.434zm72.81-12.067a2.441 2.441 0 002.448-2.434 2.441 2.441 0 00-2.448-2.435 2.441 2.441 0 00-2.448 2.435 2.441 2.441 0 002.448 2.434zm-24.272 0a2.441 2.441 0 002.448-2.434 2.441 2.441 0 00-2.448-2.435 2.441 2.441 0 00-2.448 2.435 2.441 2.441 0 002.448 2.434zm12.136-.001a2.441 2.441 0 002.448-2.434 2.44 2.44 0 00-2.448-2.434 2.44 2.44 0 00-2.448 2.434 2.441 2.441 0 002.448 2.434zm-36.408.001a2.44 2.44 0 002.448-2.434 2.441 2.441 0 00-2.448-2.434 2.441 2.441 0 00-2.448 2.434 2.44 2.44 0 002.448 2.434zm12.139 0a2.441 2.441 0 002.448-2.434 2.441 2.441 0 00-2.448-2.435 2.441 2.441 0 00-2.448 2.435 2.441 2.441 0 002.448 2.434zm-36.405 0a2.441 2.441 0 002.448-2.434 2.441 2.441 0 00-2.448-2.435 2.441 2.441 0 00-2.448 2.435 2.441 2.441 0 002.448 2.434zm12.133 0a2.441 2.441 0 002.448-2.434 2.441 2.441 0 00-2.448-2.435 2.441 2.441 0 00-2.447 2.435 2.441 2.441 0 002.447 2.434zm-36.404 0a2.441 2.441 0 002.447-2.434 2.441 2.441 0 00-2.447-2.435 2.441 2.441 0 00-2.448 2.435 2.441 2.441 0 002.448 2.434zm12.133 0a2.441 2.441 0 002.448-2.434 2.441 2.441 0 00-2.448-2.435 2.441 2.441 0 00-2.448 2.435 2.441 2.441 0 002.448 2.434zm84.948-12.068a2.441 2.441 0 002.448-2.434 2.441 2.441 0 00-2.448-2.434 2.441 2.441 0 00-2.448 2.434 2.441 2.441 0 002.448 2.434zm-24.272 0a2.441 2.441 0 002.448-2.434 2.441 2.441 0 00-2.448-2.434 2.441 2.441 0 00-2.448 2.434 2.441 2.441 0 002.448 2.434zm12.136 0a2.441 2.441 0 002.448-2.434 2.441 2.441 0 00-2.448-2.434 2.441 2.441 0 00-2.448 2.434 2.441 2.441 0 002.448 2.434zm-36.408 0a2.441 2.441 0 002.448-2.434 2.441 2.441 0 00-2.448-2.434 2.441 2.441 0 00-2.448 2.434 2.441 2.441 0 002.448 2.434zm12.139 0a2.441 2.441 0 002.448-2.434 2.441 2.441 0 00-2.448-2.434 2.441 2.441 0 00-2.448 2.434 2.441 2.441 0 002.448 2.434zm-36.405 0a2.441 2.441 0 002.448-2.434 2.441 2.441 0 00-2.448-2.434 2.441 2.441 0 00-2.448 2.434 2.441 2.441 0 002.448 2.434zm12.133 0a2.441 2.441 0 002.448-2.434 2.441 2.441 0 00-2.448-2.434 2.441 2.441 0 00-2.447 2.434 2.441 2.441 0 002.447 2.434zm-36.404 0a2.441 2.441 0 002.447-2.434 2.441 2.441 0 00-2.447-2.434 2.441 2.441 0 00-2.448 2.434 2.441 2.441 0 002.448 2.434zm-12.133 0a2.441 2.441 0 002.447-2.434 2.441 2.441 0 00-2.448-2.434 2.441 2.441 0 00-2.448 2.434 2.441 2.441 0 002.448 2.434zm0-12.067a2.441 2.441 0 002.447-2.435 2.441 2.441 0 00-2.448-2.434 2.441 2.441 0 00-2.448 2.434 2.441 2.441 0 002.448 2.435zm-12.136-.001a2.44 2.44 0 002.447-2.434 2.441 2.441 0 00-2.447-2.434 2.441 2.441 0 00-2.448 2.434 2.44 2.44 0 002.448 2.434zm12.136-12.067a2.441 2.441 0 002.447-2.434 2.441 2.441 0 00-2.448-2.435 2.441 2.441 0 00-2.448 2.435 2.441 2.441 0 002.448 2.434zm-12.136.001a2.441 2.441 0 002.447-2.435 2.441 2.441 0 00-2.447-2.434 2.441 2.441 0 00-2.448 2.434 2.441 2.441 0 002.448 2.435zm-12.136 0a2.441 2.441 0 002.448-2.435 2.441 2.441 0 00-2.448-2.434A2.441 2.441 0 000 146.238a2.441 2.441 0 002.448 2.435zm48.538 24.134a2.441 2.441 0 002.448-2.434 2.441 2.441 0 00-2.448-2.434 2.441 2.441 0 00-2.448 2.434 2.441 2.441 0 002.448 2.434zm84.948-12.067a2.441 2.441 0 002.448-2.434 2.441 2.441 0 00-2.448-2.434 2.441 2.441 0 00-2.448 2.434 2.441 2.441 0 002.448 2.434zm-24.272 0a2.441 2.441 0 002.448-2.435 2.441 2.441 0 00-2.448-2.434 2.441 2.441 0 00-2.448 2.434 2.441 2.441 0 002.448 2.435zm12.136-.001a2.44 2.44 0 002.448-2.434 2.441 2.441 0 00-2.448-2.434 2.441 2.441 0 00-2.448 2.434 2.44 2.44 0 002.448 2.434zm-36.408 0a2.44 2.44 0 002.448-2.434 2.441 2.441 0 00-2.448-2.434 2.441 2.441 0 00-2.448 2.434 2.44 2.44 0 002.448 2.434zm12.139.001a2.441 2.441 0 002.448-2.434 2.441 2.441 0 00-2.448-2.434 2.441 2.441 0 00-2.448 2.434 2.441 2.441 0 002.448 2.434zm-36.405-.001a2.441 2.441 0 002.448-2.434 2.441 2.441 0 00-2.448-2.435 2.441 2.441 0 00-2.448 2.435 2.441 2.441 0 002.448 2.434zm12.133 0a2.44 2.44 0 002.448-2.434 2.441 2.441 0 00-2.448-2.434 2.441 2.441 0 00-2.447 2.434 2.44 2.44 0 002.447 2.434zm-36.404 0a2.44 2.44 0 002.447-2.434 2.441 2.441 0 00-2.447-2.434 2.441 2.441 0 00-2.448 2.434 2.44 2.44 0 002.448 2.434zm12.133 0a2.44 2.44 0 002.448-2.434 2.441 2.441 0 00-2.448-2.434 2.441 2.441 0 00-2.448 2.434 2.44 2.44 0 002.448 2.434zm84.948-12.067a2.44 2.44 0 002.447-2.434 2.44 2.44 0 00-2.447-2.435 2.441 2.441 0 00-2.448 2.435 2.441 2.441 0 002.448 2.434zm-24.272.001a2.441 2.441 0 002.448-2.435 2.441 2.441 0 00-2.448-2.434 2.441 2.441 0 00-2.448 2.434 2.441 2.441 0 002.448 2.435zm12.136-.001a2.441 2.441 0 002.448-2.434 2.441 2.441 0 00-2.448-2.435 2.441 2.441 0 00-2.448 2.435 2.441 2.441 0 002.448 2.434zm-36.408 0a2.441 2.441 0 002.448-2.434 2.441 2.441 0 00-2.448-2.435 2.441 2.441 0 00-2.448 2.435 2.441 2.441 0 002.448 2.434zm12.136 0a2.441 2.441 0 002.448-2.434 2.441 2.441 0 00-2.448-2.435 2.441 2.441 0 00-2.447 2.435 2.441 2.441 0 002.447 2.434zm-36.402 0a2.441 2.441 0 002.448-2.434 2.441 2.441 0 00-2.448-2.435 2.441 2.441 0 00-2.448 2.435 2.441 2.441 0 002.448 2.434zm12.133.001a2.441 2.441 0 002.448-2.435 2.441 2.441 0 00-2.448-2.434 2.441 2.441 0 00-2.447 2.434 2.441 2.441 0 002.447 2.435zm-36.404 0a2.441 2.441 0 002.447-2.435 2.441 2.441 0 00-2.447-2.434 2.441 2.441 0 00-2.448 2.434 2.441 2.441 0 002.448 2.435zm12.133-.001a2.441 2.441 0 002.448-2.434 2.441 2.441 0 00-2.448-2.435 2.441 2.441 0 00-2.448 2.435 2.441 2.441 0 002.448 2.434zM26.72 136.605a2.441 2.441 0 002.447-2.434 2.44 2.44 0 00-2.448-2.434 2.44 2.44 0 00-2.448 2.434 2.441 2.441 0 002.448 2.434zm-12.136 0a2.441 2.441 0 002.447-2.434 2.44 2.44 0 00-2.447-2.434 2.44 2.44 0 00-2.448 2.434 2.441 2.441 0 002.448 2.434zm-12.136 0a2.441 2.441 0 002.448-2.434 2.44 2.44 0 00-2.448-2.434A2.44 2.44 0 000 134.171a2.441 2.441 0 002.448 2.434zm133.486 0a2.44 2.44 0 002.447-2.434 2.44 2.44 0 00-2.447-2.434 2.44 2.44 0 00-2.448 2.434 2.441 2.441 0 002.448 2.434zm-24.272 0a2.441 2.441 0 002.448-2.434 2.44 2.44 0 00-2.448-2.434 2.44 2.44 0 00-2.448 2.434 2.441 2.441 0 002.448 2.434zm12.136 0a2.441 2.441 0 002.448-2.434 2.44 2.44 0 00-2.448-2.434 2.44 2.44 0 00-2.448 2.434 2.441 2.441 0 002.448 2.434zm-36.408 0a2.441 2.441 0 002.448-2.434 2.44 2.44 0 00-2.448-2.434 2.44 2.44 0 00-2.448 2.434 2.441 2.441 0 002.448 2.434zm12.136 0a2.441 2.441 0 002.448-2.434 2.44 2.44 0 00-2.448-2.434 2.44 2.44 0 00-2.447 2.434 2.441 2.441 0 002.447 2.434zm-36.402 0a2.441 2.441 0 002.448-2.434 2.44 2.44 0 00-2.448-2.434 2.44 2.44 0 00-2.448 2.434 2.441 2.441 0 002.448 2.434zm12.133 0a2.441 2.441 0 002.448-2.434 2.44 2.44 0 00-2.448-2.434 2.44 2.44 0 00-2.447 2.434 2.441 2.441 0 002.447 2.434zm-36.404 0a2.441 2.441 0 002.447-2.434 2.44 2.44 0 00-2.447-2.434 2.44 2.44 0 00-2.448 2.434 2.441 2.441 0 002.448 2.434zm12.133 0a2.441 2.441 0 002.448-2.434 2.44 2.44 0 00-2.448-2.434 2.44 2.44 0 00-2.448 2.434 2.441 2.441 0 002.448 2.434zM26.72 124.537a2.44 2.44 0 002.447-2.434 2.441 2.441 0 00-2.448-2.434 2.441 2.441 0 00-2.448 2.434 2.44 2.44 0 002.448 2.434zm-12.136.001a2.44 2.44 0 002.447-2.434 2.441 2.441 0 00-2.447-2.434 2.441 2.441 0 00-2.448 2.434 2.44 2.44 0 002.448 2.434zm121.35-.001a2.44 2.44 0 002.448-2.434 2.441 2.441 0 00-2.448-2.434 2.441 2.441 0 00-2.448 2.434 2.44 2.44 0 002.448 2.434zm-24.272.001a2.44 2.44 0 002.448-2.434 2.441 2.441 0 00-2.448-2.434 2.441 2.441 0 00-2.448 2.434 2.44 2.44 0 002.448 2.434zm12.136 0a2.44 2.44 0 002.448-2.434 2.441 2.441 0 00-2.448-2.434 2.441 2.441 0 00-2.448 2.434 2.44 2.44 0 002.448 2.434zm-36.408-.001a2.44 2.44 0 002.448-2.434 2.441 2.441 0 00-2.448-2.434 2.441 2.441 0 00-2.448 2.434 2.44 2.44 0 002.448 2.434zm12.139 0a2.44 2.44 0 002.448-2.434 2.441 2.441 0 00-2.448-2.434 2.441 2.441 0 00-2.448 2.434 2.44 2.44 0 002.448 2.434zm-36.405.001a2.441 2.441 0 002.448-2.435 2.441 2.441 0 00-2.448-2.434 2.441 2.441 0 00-2.448 2.434 2.441 2.441 0 002.448 2.435zm12.133-.001a2.44 2.44 0 002.448-2.434 2.441 2.441 0 00-2.448-2.434 2.441 2.441 0 00-2.447 2.434 2.44 2.44 0 002.447 2.434zm-36.404 0a2.44 2.44 0 002.447-2.434 2.441 2.441 0 00-2.447-2.434 2.441 2.441 0 00-2.448 2.434 2.44 2.44 0 002.448 2.434zm12.133.001a2.44 2.44 0 002.448-2.434 2.441 2.441 0 00-2.448-2.434 2.441 2.441 0 00-2.448 2.434 2.44 2.44 0 002.448 2.434zM26.72 112.47a2.441 2.441 0 002.447-2.434 2.44 2.44 0 00-2.448-2.434 2.44 2.44 0 00-2.448 2.434 2.441 2.441 0 002.448 2.434zm109.214 0a2.441 2.441 0 002.448-2.434 2.44 2.44 0 00-2.448-2.434 2.44 2.44 0 00-2.448 2.434 2.441 2.441 0 002.448 2.434zm-24.272-.001a2.441 2.441 0 002.448-2.434 2.44 2.44 0 00-2.448-2.434 2.44 2.44 0 00-2.448 2.434 2.441 2.441 0 002.448 2.434zm12.136.001a2.441 2.441 0 002.448-2.434 2.44 2.44 0 00-2.448-2.434 2.44 2.44 0 00-2.448 2.434 2.441 2.441 0 002.448 2.434zm-36.408 0a2.441 2.441 0 002.448-2.434 2.44 2.44 0 00-2.448-2.434 2.44 2.44 0 00-2.448 2.434 2.441 2.441 0 002.448 2.434zm12.139 0a2.441 2.441 0 002.448-2.434 2.44 2.44 0 00-2.448-2.434 2.44 2.44 0 00-2.448 2.434 2.441 2.441 0 002.448 2.434zm-36.405 0a2.441 2.441 0 002.448-2.434 2.44 2.44 0 00-2.448-2.434 2.44 2.44 0 00-2.448 2.434 2.441 2.441 0 002.448 2.434zm12.133 0a2.441 2.441 0 002.448-2.434 2.44 2.44 0 00-2.448-2.434 2.44 2.44 0 00-2.447 2.434 2.441 2.441 0 002.447 2.434zm-36.404 0a2.441 2.441 0 002.447-2.434 2.44 2.44 0 00-2.447-2.434 2.44 2.44 0 00-2.448 2.434 2.441 2.441 0 002.448 2.434zm12.133 0a2.441 2.441 0 002.448-2.434 2.44 2.44 0 00-2.448-2.434 2.44 2.44 0 00-2.448 2.434 2.441 2.441 0 002.448 2.434zm84.948-12.068a2.44 2.44 0 002.448-2.434 2.441 2.441 0 00-2.448-2.434 2.441 2.441 0 00-2.448 2.434 2.44 2.44 0 002.448 2.434zm-24.272 0a2.44 2.44 0 002.448-2.434 2.441 2.441 0 00-2.448-2.434 2.441 2.441 0 00-2.448 2.434 2.44 2.44 0 002.448 2.434zm12.136-.001a2.44 2.44 0 002.448-2.434 2.441 2.441 0 00-2.448-2.434 2.441 2.441 0 00-2.448 2.434 2.44 2.44 0 002.448 2.434zm-36.408 0a2.44 2.44 0 002.448-2.434 2.441 2.441 0 00-2.448-2.434 2.441 2.441 0 00-2.448 2.434 2.44 2.44 0 002.448 2.434zm12.139.001a2.44 2.44 0 002.448-2.434 2.441 2.441 0 00-2.448-2.434 2.441 2.441 0 00-2.448 2.434 2.44 2.44 0 002.448 2.434zm-36.405 0a2.44 2.44 0 002.448-2.434 2.441 2.441 0 00-2.448-2.434 2.441 2.441 0 00-2.448 2.434 2.44 2.44 0 002.448 2.434zm12.133 0a2.44 2.44 0 002.448-2.434 2.441 2.441 0 00-2.448-2.434 2.441 2.441 0 00-2.447 2.434 2.44 2.44 0 002.447 2.434zm-36.404 0a2.44 2.44 0 002.447-2.434 2.441 2.441 0 00-2.447-2.434 2.441 2.441 0 00-2.448 2.434 2.44 2.44 0 002.448 2.434zm12.133-.001a2.44 2.44 0 002.448-2.434 2.441 2.441 0 00-2.448-2.434 2.441 2.441 0 00-2.448 2.434 2.44 2.44 0 002.448 2.434zm84.948-12.066a2.441 2.441 0 002.448-2.434 2.441 2.441 0 00-2.448-2.434 2.441 2.441 0 00-2.448 2.434 2.441 2.441 0 002.448 2.434zm-24.272 0a2.441 2.441 0 002.448-2.434 2.441 2.441 0 00-2.448-2.434 2.441 2.441 0 00-2.448 2.434 2.441 2.441 0 002.448 2.434zm12.136 0a2.441 2.441 0 002.448-2.434 2.441 2.441 0 00-2.448-2.435 2.441 2.441 0 00-2.448 2.434 2.441 2.441 0 002.448 2.435zm-36.408 0a2.441 2.441 0 002.448-2.434 2.441 2.441 0 00-2.448-2.435 2.441 2.441 0 00-2.448 2.434 2.441 2.441 0 002.448 2.435zm12.139 0a2.441 2.441 0 002.448-2.434 2.441 2.441 0 00-2.448-2.434 2.441 2.441 0 00-2.448 2.434 2.441 2.441 0 002.448 2.434zm-36.405 0a2.441 2.441 0 002.448-2.434 2.441 2.441 0 00-2.448-2.434 2.441 2.441 0 00-2.448 2.434 2.441 2.441 0 002.448 2.434zm12.133 0a2.441 2.441 0 002.448-2.434 2.441 2.441 0 00-2.448-2.434 2.441 2.441 0 00-2.447 2.434 2.441 2.441 0 002.447 2.434zm-24.271 0a2.441 2.441 0 002.448-2.434 2.441 2.441 0 00-2.448-2.435 2.441 2.441 0 00-2.448 2.434 2.441 2.441 0 002.448 2.435zm84.948-12.066a2.441 2.441 0 002.448-2.435 2.441 2.441 0 00-2.448-2.434 2.441 2.441 0 00-2.448 2.434 2.441 2.441 0 002.448 2.434zm-24.272-.001a2.441 2.441 0 002.448-2.434 2.441 2.441 0 00-2.448-2.435 2.441 2.441 0 00-2.448 2.435 2.441 2.441 0 002.448 2.434zm12.136 0a2.441 2.441 0 002.448-2.434 2.441 2.441 0 00-2.448-2.435 2.441 2.441 0 00-2.448 2.435 2.441 2.441 0 002.448 2.434zm-36.408 0a2.441 2.441 0 002.448-2.434 2.441 2.441 0 00-2.448-2.435 2.441 2.441 0 00-2.448 2.435 2.441 2.441 0 002.448 2.434zm12.139 0a2.441 2.441 0 002.448-2.434 2.441 2.441 0 00-2.448-2.435 2.441 2.441 0 00-2.448 2.435 2.441 2.441 0 002.448 2.434zm-36.405-.001a2.441 2.441 0 002.448-2.434 2.441 2.441 0 00-2.448-2.434 2.441 2.441 0 00-2.448 2.434 2.441 2.441 0 002.448 2.434zm12.133.001a2.441 2.441 0 002.448-2.434 2.441 2.441 0 00-2.448-2.435 2.441 2.441 0 00-2.447 2.435 2.441 2.441 0 002.447 2.434zM135.934 64.2a2.44 2.44 0 002.447-2.434 2.44 2.44 0 00-2.447-2.434 2.441 2.441 0 00-2.448 2.434 2.441 2.441 0 002.448 2.434zm-24.272 0a2.441 2.441 0 002.448-2.434 2.441 2.441 0 00-2.448-2.434 2.441 2.441 0 00-2.448 2.434 2.441 2.441 0 002.448 2.435zm12.136 0a2.441 2.441 0 002.448-2.434 2.441 2.441 0 00-2.448-2.434 2.441 2.441 0 00-2.448 2.434 2.441 2.441 0 002.448 2.434zm-36.408 0a2.441 2.441 0 002.448-2.434 2.441 2.441 0 00-2.448-2.434 2.441 2.441 0 00-2.448 2.434A2.441 2.441 0 0087.39 64.2zm12.136 0a2.441 2.441 0 002.448-2.434 2.441 2.441 0 00-2.448-2.434 2.441 2.441 0 00-2.447 2.434 2.441 2.441 0 002.447 2.434zm-24.269 0a2.441 2.441 0 002.448-2.434 2.441 2.441 0 00-2.448-2.434 2.441 2.441 0 00-2.447 2.434 2.441 2.441 0 002.447 2.435zm60.677-12.067a2.44 2.44 0 002.447-2.434 2.44 2.44 0 00-2.447-2.434 2.441 2.441 0 00-2.448 2.434 2.441 2.441 0 002.448 2.434zm-24.272 0a2.441 2.441 0 002.448-2.434 2.441 2.441 0 00-2.448-2.434 2.441 2.441 0 00-2.448 2.434 2.441 2.441 0 002.448 2.434zm12.136 0a2.441 2.441 0 002.448-2.434 2.441 2.441 0 00-2.448-2.434 2.441 2.441 0 00-2.448 2.434 2.441 2.441 0 002.448 2.434zm-36.408 0a2.441 2.441 0 002.448-2.434 2.441 2.441 0 00-2.448-2.434 2.441 2.441 0 00-2.448 2.434 2.441 2.441 0 002.448 2.434zm12.136 0a2.441 2.441 0 002.448-2.434 2.441 2.441 0 00-2.448-2.434 2.441 2.441 0 00-2.447 2.434 2.441 2.441 0 002.447 2.434zm36.408-12.068a2.441 2.441 0 002.448-2.434 2.441 2.441 0 00-2.448-2.434 2.441 2.441 0 00-2.448 2.434 2.441 2.441 0 002.448 2.434zm-24.272.001a2.441 2.441 0 002.448-2.434 2.441 2.441 0 00-2.448-2.434 2.441 2.441 0 00-2.448 2.434 2.441 2.441 0 002.448 2.434zm12.136-.001a2.441 2.441 0 002.448-2.434 2.441 2.441 0 00-2.448-2.434 2.441 2.441 0 00-2.448 2.434 2.441 2.441 0 002.448 2.434zm-24.269 0a2.441 2.441 0 002.448-2.434 2.441 2.441 0 00-2.448-2.434 2.441 2.441 0 00-2.448 2.434 2.441 2.441 0 002.448 2.434zm36.405-12.067a2.441 2.441 0 002.448-2.434 2.441 2.441 0 00-2.448-2.434 2.441 2.441 0 00-2.448 2.434 2.441 2.441 0 002.448 2.434zm-24.272 0a2.441 2.441 0 002.448-2.435 2.441 2.441 0 00-2.448-2.434 2.441 2.441 0 00-2.448 2.434 2.441 2.441 0 002.448 2.435zm12.136 0a2.441 2.441 0 002.448-2.434 2.441 2.441 0 00-2.448-2.434 2.441 2.441 0 00-2.448 2.434 2.441 2.441 0 002.448 2.434zm12.136-11.062a2.441 2.441 0 002.448-2.434 2.441 2.441 0 00-2.448-2.434 2.441 2.441 0 00-2.448 2.434 2.441 2.441 0 002.448 2.434zm0-12.066a2.441 2.441 0 002.448-2.435A2.441 2.441 0 00135.934 0a2.441 2.441 0 00-2.448 2.434 2.441 2.441 0 002.448 2.434zm-12.136 12.066a2.441 2.441 0 002.448-2.434 2.441 2.441 0 00-2.448-2.434 2.441 2.441 0 00-2.448 2.434 2.441 2.441 0 002.448 2.434z"/></g><defs><clipPath id="clip0_229_7783"><path fill="#fff" d="M0 0h284v290H0z"/></clipPath></defs></svg>