<svg width="102" height="199" fill="none" xmlns="http://www.w3.org/2000/svg"><g opacity=".8" clip-path="url(#clip0_205_877)" fill="#FFE7A4"><path d="M76.669 176.547c.928 0 1.68-.748 1.68-1.671 0-.922-.752-1.67-1.68-1.67-.928 0-1.68.748-1.68 1.67 0 .923.752 1.671 1.68 1.671zm8.332-.001c.928 0 1.68-.748 1.68-1.67 0-.923-.752-1.67-1.68-1.67-.928 0-1.68.747-1.68 1.67 0 .922.752 1.67 1.68 1.67zm8.332.001c.928 0 1.68-.748 1.68-1.671 0-.922-.752-1.67-1.68-1.67-.928 0-1.68.748-1.68 1.67 0 .923.752 1.671 1.68 1.671zm8.332-.001c.928 0 1.681-.748 1.681-1.67 0-.923-.753-1.67-1.681-1.67s-1.68.747-1.68 1.67c0 .922.752 1.67 1.68 1.67zm-16.664 8.282c.928 0 1.68-.748 1.68-1.671 0-.922-.752-1.67-1.68-1.67-.928 0-1.68.748-1.68 1.67 0 .923.752 1.671 1.68 1.671zm8.332-.001c.928 0 1.68-.748 1.68-1.67 0-.923-.752-1.671-1.68-1.671-.928 0-1.68.748-1.68 1.671 0 .922.752 1.67 1.68 1.67zm8.332 0c.928 0 1.681-.748 1.681-1.67 0-.923-.753-1.671-1.681-1.671s-1.68.748-1.68 1.671c0 .922.752 1.67 1.68 1.67zm-8.332 8.281c.928 0 1.68-.748 1.68-1.671 0-.922-.752-1.67-1.68-1.67-.928 0-1.68.748-1.68 1.67 0 .923.752 1.671 1.68 1.671zm8.332 0c.928 0 1.681-.748 1.681-1.671 0-.922-.753-1.67-1.681-1.67s-1.68.748-1.68 1.67c0 .923.752 1.671 1.68 1.671zm-8.332-24.842c.928 0 1.68-.747 1.68-1.67 0-.922-.752-1.67-1.68-1.67-.928 0-1.68.748-1.68 1.67 0 .923.752 1.67 1.68 1.67zm8.332 0c.928 0 1.681-.748 1.681-1.67 0-.923-.753-1.671-1.681-1.671s-1.68.748-1.68 1.671c0 .922.752 1.67 1.68 1.67zm-33.328 0c.928 0 1.68-.747 1.68-1.67 0-.922-.752-1.67-1.68-1.67-.928 0-1.68.748-1.68 1.67 0 .923.752 1.67 1.68 1.67zm-8.332-8.281c.928 0 1.68-.748 1.68-1.67 0-.923-.752-1.671-1.68-1.671-.928 0-1.68.748-1.68 1.671 0 .922.752 1.67 1.68 1.67zm16.664 8.281c.928 0 1.68-.748 1.68-1.67 0-.923-.752-1.671-1.68-1.671-.928 0-1.68.748-1.68 1.671 0 .922.752 1.67 1.68 1.67zm8.332 0c.928 0 1.68-.748 1.68-1.671 0-.922-.752-1.67-1.68-1.67-.928 0-1.68.748-1.68 1.67 0 .923.752 1.671 1.68 1.671zm8.332-8.281c.928 0 1.68-.748 1.68-1.67 0-.923-.752-1.671-1.68-1.671-.928 0-1.68.748-1.68 1.671 0 .922.752 1.67 1.68 1.67zm8.332 0c.928 0 1.681-.748 1.681-1.67 0-.923-.753-1.671-1.681-1.671s-1.68.748-1.68 1.671c0 .922.752 1.67 1.68 1.67zm-33.328.001c.928 0 1.68-.748 1.68-1.671 0-.922-.752-1.67-1.68-1.67-.928 0-1.68.748-1.68 1.67 0 .923.752 1.671 1.68 1.671zm8.332 0c.928 0 1.68-.748 1.68-1.671 0-.922-.752-1.67-1.68-1.67-.928 0-1.68.748-1.68 1.67 0 .923.752 1.671 1.68 1.671zm8.332-.001c.928 0 1.68-.748 1.68-1.67 0-.923-.752-1.671-1.68-1.671-.928 0-1.68.748-1.68 1.671 0 .922.752 1.67 1.68 1.67zm-16.664-8.281c.928 0 1.68-.748 1.68-1.67 0-.923-.752-1.67-1.68-1.67-.928 0-1.68.747-1.68 1.67 0 .922.752 1.67 1.68 1.67zm33.328 0c.928 0 1.681-.748 1.681-1.67 0-.923-.753-1.67-1.681-1.67s-1.68.747-1.68 1.67c0 .922.752 1.67 1.68 1.67zm-24.996.001c.928 0 1.68-.748 1.68-1.671 0-.922-.752-1.67-1.68-1.67-.928 0-1.68.748-1.68 1.67 0 .923.752 1.671 1.68 1.671zm-24.996 0c.928 0 1.68-.748 1.68-1.671 0-.922-.752-1.67-1.68-1.67-.928 0-1.68.748-1.68 1.67 0 .923.752 1.671 1.68 1.671zm8.332-.001c.928 0 1.68-.748 1.68-1.67 0-.923-.752-1.67-1.68-1.67-.928 0-1.68.747-1.68 1.67 0 .922.752 1.67 1.68 1.67zm24.996 0c.928 0 1.68-.748 1.68-1.67 0-.923-.752-1.67-1.68-1.67-.928 0-1.68.747-1.68 1.67 0 .922.752 1.67 1.68 1.67zm8.332 0c.928 0 1.68-.748 1.68-1.67 0-.923-.752-1.67-1.68-1.67-.928 0-1.68.747-1.68 1.67 0 .922.752 1.67 1.68 1.67zm-16.664-8.28c.928 0 1.68-.748 1.68-1.67 0-.923-.752-1.671-1.68-1.671-.928 0-1.68.748-1.68 1.671 0 .922.752 1.67 1.68 1.67zm8.332 0c.928 0 1.68-.748 1.68-1.67 0-.923-.752-1.671-1.68-1.671-.928 0-1.68.748-1.68 1.671 0 .922.752 1.67 1.68 1.67zm-24.996 0c.928 0 1.68-.748 1.68-1.67 0-.923-.752-1.671-1.68-1.671-.928 0-1.68.748-1.68 1.671 0 .922.752 1.67 1.68 1.67zm8.332-.001c.928 0 1.68-.747 1.68-1.67 0-.922-.752-1.67-1.68-1.67-.928 0-1.68.748-1.68 1.67 0 .923.752 1.67 1.68 1.67zm-24.997.001c.93 0 1.682-.748 1.682-1.67 0-.923-.753-1.671-1.681-1.671s-1.68.748-1.68 1.671c0 .922.752 1.67 1.68 1.67zm8.333-.001c.928 0 1.68-.747 1.68-1.67 0-.922-.752-1.67-1.68-1.67-.928 0-1.68.748-1.68 1.67 0 .923.752 1.67 1.68 1.67zm41.66.001c.928 0 1.68-.748 1.68-1.67 0-.923-.752-1.671-1.68-1.671-.928 0-1.68.748-1.68 1.671 0 .922.752 1.67 1.68 1.67zm8.332 0c.928 0 1.681-.748 1.681-1.67 0-.923-.753-1.671-1.681-1.671s-1.68.748-1.68 1.671c0 .922.752 1.67 1.68 1.67zm-16.664-8.281c.928 0 1.68-.748 1.68-1.67 0-.923-.752-1.671-1.68-1.671-.928 0-1.68.748-1.68 1.671 0 .922.752 1.67 1.68 1.67zm8.332 0c.928 0 1.68-.748 1.68-1.671 0-.922-.752-1.67-1.68-1.67-.928 0-1.68.748-1.68 1.67 0 .923.752 1.671 1.68 1.671zm-24.996 0c.928 0 1.68-.748 1.68-1.671 0-.922-.752-1.67-1.68-1.67-.928 0-1.68.748-1.68 1.67 0 .923.752 1.671 1.68 1.671zm8.332 0c.928 0 1.68-.748 1.68-1.671 0-.922-.752-1.67-1.68-1.67-.928 0-1.68.748-1.68 1.67 0 .923.752 1.671 1.68 1.671zm-24.996 0c.928 0 1.68-.748 1.68-1.671 0-.922-.752-1.67-1.68-1.67-.928 0-1.68.748-1.68 1.67 0 .923.752 1.671 1.68 1.671zm8.332 0c.928 0 1.68-.748 1.68-1.67 0-.923-.752-1.671-1.68-1.671-.928 0-1.68.748-1.68 1.671 0 .922.752 1.67 1.68 1.67zm-24.996 0c.928 0 1.68-.748 1.68-1.671 0-.922-.752-1.67-1.68-1.67-.928 0-1.68.748-1.68 1.67 0 .923.752 1.671 1.68 1.671zm8.331 0c.93 0 1.682-.748 1.682-1.67 0-.923-.753-1.671-1.681-1.671s-1.68.748-1.68 1.671c0 .922.752 1.67 1.68 1.67zm58.325 0c.928 0 1.681-.748 1.681-1.671 0-.922-.753-1.67-1.681-1.67s-1.68.748-1.68 1.67c0 .923.752 1.671 1.68 1.671zm-8.332-8.281c.928 0 1.68-.748 1.68-1.67 0-.923-.752-1.671-1.68-1.671-.928 0-1.68.748-1.68 1.671 0 .922.752 1.67 1.68 1.67zm8.332 0c.928 0 1.681-.748 1.681-1.67 0-.923-.753-1.671-1.681-1.671s-1.68.748-1.68 1.671c0 .922.752 1.67 1.68 1.67zm-24.996 0c.928 0 1.68-.748 1.68-1.67 0-.923-.752-1.671-1.68-1.671-.928 0-1.68.748-1.68 1.671 0 .922.752 1.67 1.68 1.67zm8.332 0c.928 0 1.68-.748 1.68-1.671 0-.922-.752-1.67-1.68-1.67-.928 0-1.68.748-1.68 1.67 0 .923.752 1.671 1.68 1.671zm-24.996.001c.928 0 1.68-.748 1.68-1.671 0-.922-.752-1.67-1.68-1.67-.928 0-1.68.748-1.68 1.67 0 .923.752 1.671 1.68 1.671zm8.332-.001c.928 0 1.68-.748 1.68-1.67 0-.923-.752-1.671-1.68-1.671-.928 0-1.68.748-1.68 1.671 0 .922.752 1.67 1.68 1.67zm-24.997 0c.93 0 1.682-.748 1.682-1.67 0-.923-.753-1.671-1.681-1.671s-1.68.748-1.68 1.671c0 .922.752 1.67 1.68 1.67zm8.333 0c.928 0 1.68-.748 1.68-1.67 0-.923-.752-1.671-1.68-1.671-.928 0-1.68.748-1.68 1.671 0 .922.752 1.67 1.68 1.67zm-24.996 0c.928 0 1.68-.748 1.68-1.67 0-.923-.752-1.671-1.68-1.671-.928 0-1.68.748-1.68 1.671 0 .922.752 1.67 1.68 1.67zm8.332 0c.928 0 1.68-.748 1.68-1.67 0-.923-.752-1.671-1.68-1.671-.928 0-1.68.748-1.68 1.671 0 .922.752 1.67 1.68 1.67zm58.324-8.281c.928 0 1.68-.747 1.68-1.67 0-.922-.752-1.67-1.68-1.67-.928 0-1.68.748-1.68 1.67 0 .923.752 1.67 1.68 1.67zm8.332 0c.928 0 1.681-.747 1.681-1.67 0-.922-.753-1.67-1.681-1.67s-1.68.748-1.68 1.67c0 .923.752 1.67 1.68 1.67zm-24.996 0c.928 0 1.68-.747 1.68-1.67 0-.922-.752-1.67-1.68-1.67-.928 0-1.68.748-1.68 1.67 0 .923.752 1.67 1.68 1.67zm8.332 0c.928 0 1.68-.747 1.68-1.67 0-.922-.752-1.67-1.68-1.67-.928 0-1.68.748-1.68 1.67 0 .923.752 1.67 1.68 1.67zm-24.996 0c.928 0 1.68-.747 1.68-1.67 0-.922-.752-1.67-1.68-1.67-.928 0-1.68.748-1.68 1.67 0 .923.752 1.67 1.68 1.67zm8.332 0c.928 0 1.68-.747 1.68-1.67 0-.922-.752-1.67-1.68-1.67-.928 0-1.68.748-1.68 1.67 0 .923.752 1.67 1.68 1.67zm-24.997 0c.93 0 1.682-.747 1.682-1.67 0-.922-.753-1.67-1.681-1.67s-1.68.748-1.68 1.67c0 .923.752 1.67 1.68 1.67zm8.333 0c.928 0 1.68-.747 1.68-1.67 0-.922-.752-1.67-1.68-1.67-.928 0-1.68.748-1.68 1.67 0 .923.752 1.67 1.68 1.67zm-24.996 0c.928 0 1.68-.747 1.68-1.67 0-.922-.752-1.67-1.68-1.67-.928 0-1.68.748-1.68 1.67 0 .923.752 1.67 1.68 1.67zm-8.332 0c.928 0 1.68-.747 1.68-1.67 0-.922-.752-1.67-1.68-1.67-.928 0-1.68.748-1.68 1.67 0 .923.752 1.67 1.68 1.67zm0-8.281c.928 0 1.68-.747 1.68-1.67 0-.922-.752-1.67-1.68-1.67-.928 0-1.68.748-1.68 1.67 0 .923.752 1.67 1.68 1.67zm-8.332.001c.928 0 1.68-.748 1.68-1.671 0-.922-.752-1.67-1.68-1.67-.928 0-1.681.748-1.681 1.67 0 .923.753 1.671 1.68 1.671zm8.332-8.281c.928 0 1.68-.748 1.68-1.671 0-.922-.752-1.67-1.68-1.67-.928 0-1.68.748-1.68 1.67 0 .923.752 1.671 1.68 1.671zm-8.332 0c.928 0 1.68-.748 1.68-1.67 0-.923-.752-1.67-1.68-1.67-.928 0-1.681.747-1.681 1.67 0 .922.753 1.67 1.68 1.67zm-8.333 0c.929 0 1.681-.748 1.681-1.67 0-.923-.752-1.67-1.68-1.67-.929 0-1.681.747-1.681 1.67 0 .922.752 1.67 1.68 1.67zm33.329 16.561c.928 0 1.68-.747 1.68-1.67 0-.922-.752-1.67-1.68-1.67-.928 0-1.68.748-1.68 1.67 0 .923.752 1.67 1.68 1.67zm58.324-8.28c.928 0 1.68-.748 1.68-1.67 0-.923-.752-1.671-1.68-1.671-.928 0-1.68.748-1.68 1.671 0 .922.752 1.67 1.68 1.67zm8.332 0c.928 0 1.681-.748 1.681-1.671 0-.922-.753-1.67-1.681-1.67s-1.68.748-1.68 1.67c0 .923.752 1.671 1.68 1.671zm-24.996-.001c.928 0 1.68-.747 1.68-1.67 0-.922-.752-1.67-1.68-1.67-.928 0-1.68.748-1.68 1.67 0 .923.752 1.67 1.68 1.67zm8.332.001c.928 0 1.68-.748 1.68-1.671 0-.922-.752-1.67-1.68-1.67-.928 0-1.68.748-1.68 1.67 0 .923.752 1.671 1.68 1.671zm-24.996 0c.928 0 1.68-.748 1.68-1.671 0-.922-.752-1.67-1.68-1.67-.928 0-1.68.748-1.68 1.67 0 .923.752 1.671 1.68 1.671zm8.332 0c.928 0 1.68-.748 1.68-1.67 0-.923-.752-1.671-1.68-1.671-.928 0-1.68.748-1.68 1.671 0 .922.752 1.67 1.68 1.67zM43.34 110.3c.93 0 1.682-.748 1.682-1.67 0-.923-.753-1.671-1.681-1.671s-1.68.748-1.68 1.671c0 .922.752 1.67 1.68 1.67zm8.333.001c.928 0 1.68-.748 1.68-1.671 0-.922-.752-1.67-1.68-1.67-.928 0-1.68.748-1.68 1.67 0 .923.752 1.671 1.68 1.671zm-24.996 0c.928 0 1.68-.748 1.68-1.671 0-.922-.752-1.67-1.68-1.67-.928 0-1.68.748-1.68 1.67 0 .923.752 1.671 1.68 1.671zm8.332 0c.928 0 1.68-.748 1.68-1.671 0-.922-.752-1.67-1.68-1.67-.928 0-1.68.748-1.68 1.67 0 .923.752 1.671 1.68 1.671zm58.324-8.281c.928 0 1.68-.748 1.68-1.671 0-.922-.752-1.67-1.68-1.67-.928 0-1.68.748-1.68 1.67 0 .923.752 1.671 1.68 1.671zm8.332 0c.928 0 1.681-.748 1.681-1.671 0-.922-.753-1.67-1.681-1.67s-1.68.748-1.68 1.67c0 .923.752 1.671 1.68 1.671zm-24.996 0c.928 0 1.68-.748 1.68-1.67 0-.923-.752-1.67-1.68-1.67-.928 0-1.68.747-1.68 1.67 0 .922.752 1.67 1.68 1.67zm8.332 0c.928 0 1.68-.748 1.68-1.671 0-.922-.752-1.67-1.68-1.67-.928 0-1.68.748-1.68 1.67 0 .923.752 1.671 1.68 1.671zm-24.996 0c.928 0 1.68-.748 1.68-1.671 0-.922-.752-1.67-1.68-1.67-.928 0-1.68.748-1.68 1.67 0 .923.752 1.671 1.68 1.671zm8.332 0c.928 0 1.68-.748 1.68-1.671 0-.922-.752-1.67-1.68-1.67-.928 0-1.68.748-1.68 1.67 0 .923.752 1.671 1.68 1.671zm-24.997 0c.93 0 1.682-.748 1.682-1.671 0-.922-.753-1.67-1.681-1.67s-1.68.748-1.68 1.67c0 .923.752 1.671 1.68 1.671zm8.333 0c.928 0 1.68-.748 1.68-1.67 0-.923-.752-1.67-1.68-1.67-.928 0-1.68.747-1.68 1.67 0 .922.752 1.67 1.68 1.67zm-24.996 0c.928 0 1.68-.748 1.68-1.67 0-.923-.752-1.67-1.68-1.67-.928 0-1.68.747-1.68 1.67 0 .922.752 1.67 1.68 1.67zm8.332 0c.928 0 1.68-.748 1.68-1.671 0-.922-.752-1.67-1.68-1.67-.928 0-1.68.748-1.68 1.67 0 .923.752 1.671 1.68 1.671zm-16.664-8.28c.928 0 1.68-.748 1.68-1.671 0-.922-.752-1.67-1.68-1.67-.928 0-1.68.748-1.68 1.67 0 .923.752 1.67 1.68 1.67zm-8.332 0c.928 0 1.68-.748 1.68-1.671 0-.922-.752-1.67-1.68-1.67-.928 0-1.681.748-1.681 1.67 0 .923.753 1.67 1.68 1.67zm-8.333 0c.929 0 1.681-.748 1.681-1.671 0-.922-.752-1.67-1.68-1.67-.929 0-1.681.748-1.681 1.67 0 .923.752 1.67 1.68 1.67zm91.653 0c.928 0 1.68-.748 1.68-1.671 0-.922-.752-1.67-1.68-1.67-.928 0-1.68.748-1.68 1.67 0 .923.752 1.67 1.68 1.67zm8.332 0c.928 0 1.681-.748 1.681-1.671 0-.922-.753-1.67-1.681-1.67s-1.68.748-1.68 1.67c0 .923.752 1.67 1.68 1.67zm-24.996 0c.928 0 1.68-.748 1.68-1.671 0-.922-.752-1.67-1.68-1.67-.928 0-1.68.748-1.68 1.67 0 .923.752 1.67 1.68 1.67zm8.332 0c.928 0 1.68-.748 1.68-1.671 0-.922-.752-1.67-1.68-1.67-.928 0-1.68.748-1.68 1.67 0 .923.752 1.67 1.68 1.67zm-24.996 0c.928 0 1.68-.748 1.68-1.671 0-.922-.752-1.67-1.68-1.67-.928 0-1.68.748-1.68 1.67 0 .923.752 1.67 1.68 1.67zm8.332 0c.928 0 1.68-.748 1.68-1.671 0-.922-.752-1.67-1.68-1.67-.928 0-1.68.748-1.68 1.67 0 .923.752 1.67 1.68 1.67zm-24.997 0c.93 0 1.682-.748 1.682-1.671 0-.922-.753-1.67-1.681-1.67s-1.68.748-1.68 1.67c0 .923.752 1.67 1.68 1.67zm8.333 0c.928 0 1.68-.748 1.68-1.671 0-.922-.752-1.67-1.68-1.67-.928 0-1.68.748-1.68 1.67 0 .923.752 1.67 1.68 1.67zm-24.996 0c.928 0 1.68-.748 1.68-1.671 0-.922-.752-1.67-1.68-1.67-.928 0-1.68.748-1.68 1.67 0 .923.752 1.67 1.68 1.67zm8.332 0c.928 0 1.68-.748 1.68-1.671 0-.922-.752-1.67-1.68-1.67-.928 0-1.68.748-1.68 1.67 0 .923.752 1.67 1.68 1.67zm-16.664-8.282c.928 0 1.68-.747 1.68-1.67 0-.922-.752-1.67-1.68-1.67-.928 0-1.68.748-1.68 1.67 0 .923.752 1.67 1.68 1.67zm-8.332.001c.928 0 1.68-.748 1.68-1.67 0-.923-.752-1.67-1.68-1.67-.928 0-1.681.747-1.681 1.67 0 .922.753 1.67 1.68 1.67zm83.32-.001c.928 0 1.68-.747 1.68-1.67 0-.922-.752-1.67-1.68-1.67-.928 0-1.68.748-1.68 1.67 0 .923.752 1.67 1.68 1.67zm8.332.001c.928 0 1.681-.748 1.681-1.67 0-.923-.753-1.67-1.681-1.67s-1.68.747-1.68 1.67c0 .922.752 1.67 1.68 1.67zm-24.996 0c.928 0 1.68-.748 1.68-1.67 0-.923-.752-1.67-1.68-1.67-.928 0-1.68.747-1.68 1.67 0 .922.752 1.67 1.68 1.67zm8.332 0c.928 0 1.68-.748 1.68-1.67 0-.923-.752-1.67-1.68-1.67-.928 0-1.68.747-1.68 1.67 0 .922.752 1.67 1.68 1.67zm-24.996-.001c.928 0 1.68-.747 1.68-1.67 0-.922-.752-1.67-1.68-1.67-.928 0-1.68.748-1.68 1.67 0 .923.752 1.67 1.68 1.67zm8.332 0c.928 0 1.68-.747 1.68-1.67 0-.922-.752-1.67-1.68-1.67-.928 0-1.68.748-1.68 1.67 0 .923.752 1.67 1.68 1.67zm-24.997 0c.93 0 1.682-.748 1.682-1.67 0-.922-.753-1.67-1.681-1.67s-1.68.748-1.68 1.67c0 .922.752 1.67 1.68 1.67zm8.333 0c.928 0 1.68-.747 1.68-1.67 0-.922-.752-1.67-1.68-1.67-.928 0-1.68.748-1.68 1.67 0 .923.752 1.67 1.68 1.67zm-24.996 0c.928 0 1.68-.747 1.68-1.67 0-.922-.752-1.67-1.68-1.67-.928 0-1.68.748-1.68 1.67 0 .923.752 1.67 1.68 1.67zm8.332.001c.928 0 1.68-.748 1.68-1.67 0-.923-.752-1.67-1.68-1.67-.928 0-1.68.747-1.68 1.67 0 .922.752 1.67 1.68 1.67zm-16.664-8.281c.928 0 1.68-.748 1.68-1.67 0-.923-.752-1.671-1.68-1.671-.928 0-1.68.748-1.68 1.67 0 .923.752 1.67 1.68 1.67zm74.988 0c.928 0 1.68-.748 1.68-1.67 0-.923-.752-1.671-1.68-1.671-.928 0-1.68.748-1.68 1.67 0 .923.752 1.67 1.68 1.67zm8.332 0c.928 0 1.681-.748 1.681-1.67 0-.923-.753-1.671-1.681-1.671s-1.68.748-1.68 1.67c0 .923.752 1.67 1.68 1.67zm-24.996-.001c.928 0 1.68-.748 1.68-1.67 0-.923-.752-1.67-1.68-1.67-.928 0-1.68.747-1.68 1.67 0 .922.752 1.67 1.68 1.67zm8.332.001c.928 0 1.68-.748 1.68-1.67 0-.923-.752-1.671-1.68-1.671-.928 0-1.68.748-1.68 1.67 0 .923.752 1.67 1.68 1.67zm-24.996 0c.928 0 1.68-.748 1.68-1.67 0-.923-.752-1.671-1.68-1.671-.928 0-1.68.748-1.68 1.67 0 .923.752 1.67 1.68 1.67zm8.332 0c.928 0 1.68-.748 1.68-1.67 0-.923-.752-1.671-1.68-1.671-.928 0-1.68.748-1.68 1.67 0 .923.752 1.67 1.68 1.67zm-24.997 0c.93 0 1.682-.748 1.682-1.67 0-.923-.753-1.671-1.681-1.671s-1.68.748-1.68 1.67c0 .923.752 1.67 1.68 1.67zm8.333 0c.928 0 1.68-.748 1.68-1.67 0-.923-.752-1.671-1.68-1.671-.928 0-1.68.748-1.68 1.67 0 .923.752 1.67 1.68 1.67zm-24.996 0c.928 0 1.68-.748 1.68-1.67 0-.923-.752-1.671-1.68-1.671-.928 0-1.68.748-1.68 1.67 0 .923.752 1.67 1.68 1.67zm8.332 0c.928 0 1.68-.748 1.68-1.67 0-.923-.752-1.671-1.68-1.671-.928 0-1.68.748-1.68 1.67 0 .923.752 1.67 1.68 1.67zm58.324-8.281c.928 0 1.68-.748 1.68-1.67 0-.923-.752-1.671-1.68-1.671-.928 0-1.68.748-1.68 1.67 0 .923.752 1.67 1.68 1.67zm8.332 0c.928 0 1.681-.748 1.681-1.67 0-.923-.753-1.671-1.681-1.671s-1.68.748-1.68 1.67c0 .923.752 1.67 1.68 1.67zm-24.996 0c.928 0 1.68-.748 1.68-1.67 0-.923-.752-1.671-1.68-1.671-.928 0-1.68.748-1.68 1.67 0 .923.752 1.67 1.68 1.67zm8.332-.001c.928 0 1.68-.748 1.68-1.67 0-.923-.752-1.67-1.68-1.67-.928 0-1.68.747-1.68 1.67 0 .922.752 1.67 1.68 1.67zm-24.996 0c.928 0 1.68-.748 1.68-1.67 0-.923-.752-1.67-1.68-1.67-.928 0-1.68.747-1.68 1.67 0 .922.752 1.67 1.68 1.67zm8.332.001c.928 0 1.68-.748 1.68-1.67 0-.923-.752-1.671-1.68-1.671-.928 0-1.68.748-1.68 1.67 0 .923.752 1.67 1.68 1.67zm-24.997 0c.93 0 1.682-.748 1.682-1.67 0-.923-.753-1.671-1.681-1.671s-1.68.748-1.68 1.67c0 .923.752 1.67 1.68 1.67zm8.333 0c.928 0 1.68-.748 1.68-1.67 0-.923-.752-1.671-1.68-1.671-.928 0-1.68.748-1.68 1.67 0 .923.752 1.67 1.68 1.67zm-24.996 0c.928 0 1.68-.748 1.68-1.67 0-.923-.752-1.671-1.68-1.671-.928 0-1.68.748-1.68 1.67 0 .923.752 1.67 1.68 1.67zm8.332-.001c.928 0 1.68-.748 1.68-1.67 0-.923-.752-1.67-1.68-1.67-.928 0-1.68.747-1.68 1.67 0 .922.752 1.67 1.68 1.67zm58.324-8.28c.928 0 1.68-.748 1.68-1.67 0-.922-.752-1.67-1.68-1.67-.928 0-1.68.747-1.68 1.67 0 .922.752 1.67 1.68 1.67zm8.332 0c.928 0 1.681-.748 1.681-1.67 0-.923-.753-1.67-1.681-1.67s-1.68.747-1.68 1.67c0 .922.752 1.67 1.68 1.67zm-24.996 0c.928 0 1.68-.748 1.68-1.67 0-.922-.752-1.67-1.68-1.67-.928 0-1.68.747-1.68 1.67 0 .922.752 1.67 1.68 1.67zm8.332 0c.928 0 1.68-.748 1.68-1.67 0-.923-.752-1.67-1.68-1.67-.928 0-1.68.747-1.68 1.67 0 .922.752 1.67 1.68 1.67zm-24.996 0c.928 0 1.68-.748 1.68-1.67 0-.923-.752-1.67-1.68-1.67-.928 0-1.68.747-1.68 1.67 0 .922.752 1.67 1.68 1.67zm8.332 0c.928 0 1.68-.748 1.68-1.67 0-.922-.752-1.67-1.68-1.67-.928 0-1.68.747-1.68 1.67 0 .922.752 1.67 1.68 1.67zm-24.997 0c.93 0 1.682-.748 1.682-1.67 0-.922-.753-1.67-1.681-1.67s-1.68.747-1.68 1.67c0 .922.752 1.67 1.68 1.67zm8.333 0c.928 0 1.68-.748 1.68-1.67 0-.922-.752-1.67-1.68-1.67-.928 0-1.68.747-1.68 1.67 0 .922.752 1.67 1.68 1.67zm-16.664 0c.928 0 1.68-.748 1.68-1.67 0-.923-.752-1.67-1.68-1.67-.928 0-1.68.747-1.68 1.67 0 .922.752 1.67 1.68 1.67zm58.324-8.28c.928 0 1.68-.748 1.68-1.67 0-.923-.752-1.67-1.68-1.67-.928 0-1.68.747-1.68 1.67 0 .922.752 1.67 1.68 1.67zm8.332 0c.928 0 1.681-.748 1.681-1.67 0-.923-.753-1.671-1.681-1.671s-1.68.748-1.68 1.67c0 .923.752 1.67 1.68 1.67zm-24.996 0c.928 0 1.68-.748 1.68-1.67 0-.923-.752-1.671-1.68-1.671-.928 0-1.68.748-1.68 1.67 0 .923.752 1.67 1.68 1.67zm8.332 0c.928 0 1.68-.748 1.68-1.67 0-.923-.752-1.671-1.68-1.671-.928 0-1.68.748-1.68 1.67 0 .923.752 1.67 1.68 1.67zm-24.996 0c.928 0 1.68-.748 1.68-1.67 0-.923-.752-1.671-1.68-1.671-.928 0-1.68.748-1.68 1.67 0 .923.752 1.67 1.68 1.67zm8.332 0c.928 0 1.68-.748 1.68-1.67 0-.923-.752-1.671-1.68-1.671-.928 0-1.68.748-1.68 1.67 0 .923.752 1.67 1.68 1.67zm-24.997-.001c.93 0 1.682-.748 1.682-1.67 0-.923-.753-1.67-1.681-1.67s-1.68.747-1.68 1.67c0 .922.752 1.67 1.68 1.67zm8.333.001c.928 0 1.68-.748 1.68-1.67 0-.923-.752-1.671-1.68-1.671-.928 0-1.68.748-1.68 1.67 0 .923.752 1.67 1.68 1.67zm41.66-8.282c.928 0 1.68-.748 1.68-1.67 0-.922-.752-1.67-1.68-1.67-.928 0-1.68.748-1.68 1.67 0 .922.752 1.67 1.68 1.67zm8.332 0c.928 0 1.681-.748 1.681-1.67 0-.922-.753-1.67-1.681-1.67s-1.68.748-1.68 1.67c0 .922.752 1.67 1.68 1.67zm-24.996.001c.928 0 1.68-.748 1.68-1.67 0-.923-.752-1.67-1.68-1.67-.928 0-1.68.747-1.68 1.67 0 .922.752 1.67 1.68 1.67zm8.332-.001c.928 0 1.68-.748 1.68-1.67 0-.922-.752-1.67-1.68-1.67-.928 0-1.68.748-1.68 1.67 0 .922.752 1.67 1.68 1.67zm-24.996 0c.928 0 1.68-.748 1.68-1.67 0-.922-.752-1.67-1.68-1.67-.928 0-1.68.748-1.68 1.67 0 .922.752 1.67 1.68 1.67zm8.332 0c.928 0 1.68-.748 1.68-1.67 0-.922-.752-1.67-1.68-1.67-.928 0-1.68.748-1.68 1.67 0 .922.752 1.67 1.68 1.67zm-16.664.001c.928 0 1.68-.748 1.68-1.67 0-.923-.752-1.67-1.68-1.67-.928 0-1.68.747-1.68 1.67 0 .922.752 1.67 1.68 1.67zm41.66-8.281c.928 0 1.68-.748 1.68-1.67 0-.923-.752-1.67-1.68-1.67-.928 0-1.68.747-1.68 1.67 0 .922.752 1.67 1.68 1.67zm8.332 0c.928 0 1.681-.748 1.681-1.67 0-.923-.753-1.67-1.681-1.67s-1.68.747-1.68 1.67c0 .922.752 1.67 1.68 1.67zm-24.996 0c.928 0 1.68-.748 1.68-1.67 0-.923-.752-1.67-1.68-1.67-.928 0-1.68.747-1.68 1.67 0 .922.752 1.67 1.68 1.67zm8.332 0c.928 0 1.68-.748 1.68-1.67 0-.923-.752-1.67-1.68-1.67-.928 0-1.68.747-1.68 1.67 0 .922.752 1.67 1.68 1.67zm-24.996 0c.928 0 1.68-.748 1.68-1.67 0-.923-.752-1.67-1.68-1.67-.928 0-1.68.747-1.68 1.67 0 .922.752 1.67 1.68 1.67zm8.332 0c.928 0 1.68-.748 1.68-1.67 0-.923-.752-1.67-1.68-1.67-.928 0-1.68.747-1.68 1.67 0 .922.752 1.67 1.68 1.67zm24.996-8.281c.928 0 1.68-.748 1.68-1.67 0-.923-.752-1.67-1.68-1.67-.928 0-1.68.747-1.68 1.67 0 .922.752 1.67 1.68 1.67zm8.332.001c.928 0 1.681-.748 1.681-1.67 0-.923-.753-1.671-1.681-1.671s-1.68.748-1.68 1.67c0 .923.752 1.67 1.68 1.67zm-24.996 0c.928 0 1.68-.748 1.68-1.67 0-.923-.752-1.671-1.68-1.671-.928 0-1.68.748-1.68 1.67 0 .923.752 1.67 1.68 1.67zm8.332-.001c.928 0 1.68-.748 1.68-1.67 0-.923-.752-1.67-1.68-1.67-.928 0-1.68.747-1.68 1.67 0 .922.752 1.67 1.68 1.67zm-16.664 0c.928 0 1.68-.748 1.68-1.67 0-.923-.752-1.67-1.68-1.67-.928 0-1.68.747-1.68 1.67 0 .922.752 1.67 1.68 1.67zm24.996-8.28c.928 0 1.68-.748 1.68-1.67 0-.923-.752-1.671-1.68-1.671-.928 0-1.68.748-1.68 1.67 0 .923.752 1.67 1.68 1.67zm8.332 0c.928 0 1.681-.748 1.681-1.67 0-.923-.753-1.671-1.681-1.671s-1.68.748-1.68 1.67c0 .923.752 1.67 1.68 1.67zm-24.996-.001c.928 0 1.68-.748 1.68-1.67 0-.923-.752-1.67-1.68-1.67-.928 0-1.68.747-1.68 1.67 0 .922.752 1.67 1.68 1.67zm8.332.001c.928 0 1.68-.748 1.68-1.67 0-.923-.752-1.671-1.68-1.671-.928 0-1.68.748-1.68 1.67 0 .923.752 1.67 1.68 1.67zm8.332-7.591c.928 0 1.68-.748 1.68-1.67 0-.923-.752-1.671-1.68-1.671-.928 0-1.68.748-1.68 1.67 0 .923.752 1.67 1.68 1.67zm8.332 0c.928 0 1.681-.748 1.681-1.67 0-.923-.753-1.67-1.681-1.67s-1.68.747-1.68 1.67c0 .922.752 1.67 1.68 1.67zm-8.332-8.281c.928 0 1.68-.748 1.68-1.67 0-.923-.752-1.67-1.68-1.67-.928 0-1.68.747-1.68 1.67 0 .922.752 1.67 1.68 1.67zm8.332-.001c.928 0 1.681-.747 1.681-1.67 0-.922-.753-1.67-1.681-1.67s-1.68.748-1.68 1.67c0 .923.752 1.67 1.68 1.67zm-16.664 8.282c.928 0 1.68-.748 1.68-1.67 0-.923-.752-1.671-1.68-1.671-.928 0-1.68.748-1.68 1.67 0 .923.752 1.67 1.68 1.67z"/></g><defs><clipPath id="clip0_205_877"><path fill="#fff" d="M0 0h195v199H0z"/></clipPath></defs></svg>