<svg width="40" height="40" fill="none" xmlns="http://www.w3.org/2000/svg"><circle cx="19.872" cy="20" r="19.5" fill="url(#paint0_linear_2_7450)"/><g clip-path="url(#clip0_2_7450)" fill="#fff"><path d="M24.326 21.942c-.24-.124-1.44-.712-1.664-.791-.223-.084-.386-.124-.548.124-.161.247-.627.79-.773.956-.142.164-.285.184-.526.062-1.432-.716-2.371-1.277-3.315-2.897-.25-.43.25-.4.716-1.33.08-.164.04-.303-.022-.427-.062-.123-.548-1.321-.751-1.81-.197-.475-.4-.408-.548-.417-.142-.009-.303-.009-.467-.009a.901.901 0 00-.65.303c-.222.245-.852.835-.852 2.033s.873 2.358.992 2.521c.124.164 1.717 2.621 4.163 3.68 1.547.667 2.153.724 2.926.61.47-.071 1.44-.588 1.642-1.16.201-.573.201-1.06.141-1.16-.06-.11-.223-.17-.464-.288z"/><path d="M29.005 16.163a9.887 9.887 0 00-9.131-6.063h-.045a9.904 9.904 0 00-8.795 14.364v3.358a1.017 1.017 0 001.017 1.017h3.361a9.931 9.931 0 004.417 1.06h.047a9.865 9.865 0 006.972-2.861 9.936 9.936 0 002.157-10.875zm-3.34 9.68a8.177 8.177 0 01-5.791 2.377h-.038a8.249 8.249 0 01-3.825-.961l-.186-.1h-3.111v-3.111l-.1-.186a8.25 8.25 0 01-.96-3.825 8.17 8.17 0 012.377-5.83 8.162 8.162 0 015.807-2.428h.038a8.211 8.211 0 018.223 8.258 8.19 8.19 0 01-2.433 5.805z"/></g><defs><linearGradient id="paint0_linear_2_7450" x1="39.372" y1="4.679" x2="-7.204" y2="5.86" gradientUnits="userSpaceOnUse"><stop stop-color="#52CB3F"/><stop offset="1" stop-color="#4FC63C" stop-opacity=".7"/></linearGradient><clipPath id="clip0_2_7450"><path fill="#fff" transform="translate(9.974 10.1)" d="M0 0h19.8v19.8H0z"/></clipPath></defs></svg>