<svg width="60" height="18" fill="none" xmlns="http://www.w3.org/2000/svg"><g clip-path="url(#clip0_38_14137)" fill="#000"><path d="M2.218 8.325c0 .583.187 1.15.53 1.616.345.466.829.807 1.38.972.551.164 1.14.143 1.678-.06a2.67 2.67 0 001.31-1.065h2.427a4.941 4.941 0 01-2.069 2.73 4.82 4.82 0 01-3.323.701 4.863 4.863 0 01-2.97-1.666A4.992 4.992 0 010 8.325c0-1.185.419-2.33 1.18-3.228A4.862 4.862 0 014.152 3.43a4.824 4.824 0 013.323.701 4.942 4.942 0 012.069 2.73H7.116a2.67 2.67 0 00-1.31-1.066 2.627 2.627 0 00-1.678-.059 2.662 2.662 0 00-1.38.972 2.726 2.726 0 00-.53 1.616zM11.113.013h2.219v.9c0 .358-.14.702-.39.955s-.588.395-.941.395h-.888V.013zm1.331 3.601h.888v9.45h-2.219v-8.1c0-.359.14-.702.39-.955s.588-.395.941-.395zM22.468.45v3.726a4.824 4.824 0 00-4.988-.202 4.911 4.911 0 00-1.867 1.82 5.003 5.003 0 000 5.063 4.911 4.911 0 001.866 1.82 4.824 4.824 0 004.989-.203v.576h2.218V.225L22.468.45zm-2.662 10.575a2.636 2.636 0 01-1.48-.455 2.692 2.692 0 01-.98-1.212 2.736 2.736 0 01.577-2.942 2.65 2.65 0 011.363-.739 2.627 2.627 0 011.538.154c.487.204.902.55 1.195.994a2.727 2.727 0 01-.331 3.41c-.247.25-.54.449-.864.585a2.63 2.63 0 01-1.018.205zm14.692-7.272l-.719.072v.351a4.827 4.827 0 00-5.975.51 4.971 4.971 0 00-1.505 2.83 5.01 5.01 0 00.528 3.171c.173.324.381.626.621.9a4.86 4.86 0 002.971 1.637 4.824 4.824 0 003.307-.714c.018-.014.035-.022.053-.036v.576c0 .583-.187 1.15-.53 1.616a2.663 2.663 0 01-1.38.972 2.626 2.626 0 01-1.678-.06 2.669 2.669 0 01-1.31-1.066h-2.427a4.941 4.941 0 002.068 2.732c.99.63 2.17.88 3.324.702a4.863 4.863 0 002.971-1.667 4.992 4.992 0 001.18-3.229V3.6l-1.499.153zm-.772 5.112a2.72 2.72 0 01-.462 1.058 2.641 2.641 0 01-4.465-.27 2.73 2.73 0 01.104-2.825 2.673 2.673 0 011.1-.954 2.629 2.629 0 012.767.336c.386.31.68.722.848 1.19.169.47.206.976.108 1.465zM37.55 0h2.22v.9c0 .358-.141.701-.39.955-.25.253-.589.395-.942.395h-.887V0zm1.332 3.6h.887v9.45h-2.218v-8.1a1.366 1.366 0 01.39-.955 1.33 1.33 0 01.94-.395zm4.658 0h1.638v2.25H43.54v3.681a1.285 1.285 0 00.366.898 1.248 1.248 0 00.885.371h.386v2.25h-.417a3.32 3.32 0 01-1.22-.23 3.451 3.451 0 01-1.61-1.28 3.527 3.527 0 01-.609-1.982V.45L43.54.225V3.6zm10.75.743v.35a4.824 4.824 0 00-4.988-.202 4.912 4.912 0 00-1.867 1.82 5.004 5.004 0 000 5.063 4.912 4.912 0 001.866 1.82 4.825 4.825 0 004.989-.202v.576h2.218v-9.45l-2.218.225zm-2.662 7.2a2.636 2.636 0 01-1.479-.455 2.692 2.692 0 01-.98-1.212 2.737 2.737 0 01-.152-1.56 2.712 2.712 0 01.729-1.383 2.65 2.65 0 011.363-.739 2.627 2.627 0 011.538.154c.486.204.902.55 1.194.995a2.728 2.728 0 01-.33 3.409 2.63 2.63 0 01-1.882.79zM60 .225v13.343h-2.22V.45L60 .225z"/></g><defs><clipPath id="clip0_38_14137"><path fill="#fff" d="M0 0h60v18H0z"/></clipPath></defs></svg>