<svg width="115" height="43" fill="none" xmlns="http://www.w3.org/2000/svg"><path d="M80.76 4.677L67.157 16.309l6.031 5.114 6.57 5.56h-8.436l-6.56-5.569-3.88-3.28-3.578 8.848h-6.358c-2.925 0-5.29-2.493-5.29-5.56h8.151l1.329-3.28H43.163c-2.926 0-5.29-2.492-5.29-5.559h19.504l1.328-3.28H35.331c-2.926 0-5.29-2.493-5.29-5.56h32.61c1.425 0 2.64 1.165 2.697 2.664.016.454-.065.891-.236 1.268l-1.997 4.917 10.831-9.26.921-.788.123-.103a.596.596 0 00.146-.394.581.581 0 00-.587-.582h-.44L74.484 0H85.08c.383 0 .554.505.26.762l-4.58 3.915z" fill="#4AAB3C"/><path d="M3.472 33.963l-.326 2.399c-.04.325-.114.66-.204 1.01-.098.343-.22.643-.367.891.066.24.106.506.13.806.025.3.017.573-.024.839l-.399 2.92H0l1.182-8.865h2.29zm.416 3.452l-.204 1.61H2.225l.204-1.61h1.459zm4.205-3.452c-.252.634-.473 1.182-.652 1.636a15.97 15.97 0 01-.513 1.157 2.99 2.99 0 01-.506.754c-.179.197-.39.342-.635.454-.245.11-.546.18-.889.222l-.016.077c.326.052.595.129.807.223.212.103.383.248.521.454.139.206.253.471.351.797.09.334.18.745.26 1.25.082.506.172 1.114.286 1.842H4.752a142.42 142.42 0 00-.27-1.962c-.073-.505-.154-.882-.244-1.147-.09-.266-.22-.446-.375-.549-.163-.094-.391-.145-.684-.145l.13-1.61c.285 0 .522-.052.725-.163.196-.112.375-.3.546-.557.163-.257.343-.617.522-1.062.18-.446.383-1.002.611-1.67h2.38zm6.414 0c.179 0 .342.069.48.197a.786.786 0 01.253.472l1.198 8.197H14.14l-.612-6.142c-.016-.162-.024-.325-.032-.47-.008-.155-.008-.31-.008-.463h-.342c-.033.128-.074.274-.115.437a3.94 3.94 0 01-.155.47l-2.314 6.168H8.174l3.399-8.292a.831.831 0 01.31-.428.878.878 0 01.496-.146h2.128zm.513 4.994l-.196 1.79h-4.4l.203-1.79h4.393zm6.57-4.994L20.4 42.83h-2.29l1.19-8.866h2.29zm.986-.128c.815 0 1.459.094 1.931.274.473.188.79.497.962.942.163.445.196 1.062.09 1.842-.098.762-.27 1.353-.498 1.756a1.87 1.87 0 01-1.018.856c-.44.163-1.019.24-1.736.24a8.66 8.66 0 01-1.158-.069 11.864 11.864 0 01-1.067-.162 7.828 7.828 0 01-.84-.206 1.952 1.952 0 01-.48-.197l.073-1.105h3.276c.261 0 .465-.026.62-.085.154-.06.268-.18.358-.369.082-.18.147-.462.196-.84.04-.29.04-.513.008-.676a.511.511 0 00-.236-.351c-.13-.069-.31-.103-.555-.103-.798 0-1.475.009-2.037.017-.563.009-.938.026-1.141.043l-.033-1.687c.35-.043.677-.069.986-.086.31-.017.636-.026.995-.034h1.304zm7.156.085c.48 0 .97 0 1.459.009.489.008.961.017 1.418.043.456.026.872.06 1.247.111l-.253 1.713h-3.04c-.22 0-.383.043-.48.129-.107.085-.172.24-.205.462l-.53 4.052c-.032.188-.008.334.074.428.081.103.22.146.432.146h3.024l-.05 1.739c-.382.051-.798.085-1.254.094l-1.378.026c-.464 0-.913.008-1.345.008-.676 0-1.173-.205-1.483-.634-.318-.42-.432-.968-.35-1.627l.652-4.823c.073-.574.285-1.028.643-1.362.35-.342.824-.514 1.419-.514zm-2.054 3.53h5.248l-.195 1.627h-5.29l.237-1.627zm15.209-3.487l-.196 1.62h-2.787c-.27 0-.465.05-.587.162-.123.111-.22.308-.285.6-.074.36-.147.71-.229 1.062-.081.342-.155.685-.236 1.01-.082.326-.163.643-.245.934-.081.3-.179.583-.269.84a8.637 8.637 0 01-.301.728c-.277.59-.587 1.045-.921 1.353-.342.317-.71.514-1.117.591a3.782 3.782 0 01-1.32.009l-.081-1.876.488-.103c.163-.034.318-.111.473-.223.147-.111.294-.308.424-.582.081-.154.163-.334.236-.548.074-.206.155-.446.229-.703.073-.257.146-.54.228-.848.073-.308.163-.65.244-1.019.09-.377.172-.771.253-1.2.13-.599.375-1.044.725-1.353.359-.3.84-.454 1.46-.454h3.814zm.17 0l-1.19 8.866h-2.281l1.181-8.866h2.29zm8.265-.153c.92 0 1.646.153 2.176.453.53.3.888.788 1.067 1.473.18.686.196 1.602.041 2.759-.138 1.113-.367 1.995-.676 2.646-.31.651-.742 1.123-1.296 1.405-.554.291-1.272.437-2.144.446-.668 0-1.222-.035-1.654-.103a6.773 6.773 0 01-1.223-.309l.277-1.747c.35.043.726.077 1.125.094.4.017.856.026 1.37.026.415-.009.741-.086.977-.248.237-.155.416-.42.555-.806.13-.377.244-.908.342-1.584.073-.514.114-.934.114-1.25 0-.326-.033-.566-.106-.738a.658.658 0 00-.359-.36 1.735 1.735 0 00-.643-.102c-.35 0-.66.008-.938.017-.277.009-.53.009-.774.009s-.505.008-.782.025l-.09-1.773a8.29 8.29 0 011.247-.248c.456-.06.913-.086 1.394-.086zm2.958 3.64l-.22 1.627h-5.232l.17-1.627h5.282zm5.453-3.487l-.326 2.399a6.98 6.98 0 01-.203 1.01c-.098.352-.22.643-.367.891.065.24.106.506.13.805.025.3.017.574-.024.84l-.391 2.912H56.27l1.181-8.865h2.282v.008zm.416 3.452l-.212 1.61h-1.45l.203-1.61h1.46zm4.206-3.452c-.253.634-.473 1.182-.652 1.636-.188.463-.35.848-.514 1.157a3.223 3.223 0 01-.505.753c-.18.197-.391.343-.636.454-.244.112-.546.18-.897.223l-.016.077c.326.052.595.129.807.223.212.103.383.248.53.454.138.205.252.471.35.797.09.334.18.745.261 1.25.082.505.171 1.114.277 1.842h-2.347c-.106-.806-.196-1.456-.269-1.962-.073-.505-.155-.882-.245-1.148-.09-.265-.22-.445-.383-.548-.163-.094-.39-.145-.684-.145l.13-1.61c.285 0 .53-.052.726-.164.195-.111.375-.3.546-.556.163-.257.342-.617.521-1.063.18-.445.383-1.002.612-1.67h2.388zm5.288-.153c.416 0 .775.008 1.076.042a7.333 7.333 0 011.59.3l-.27 1.764c-.285-.017-.554-.025-.798-.034-.245 0-.497-.009-.766-.017-.27 0-.579-.009-.946-.009-.26 0-.48.035-.66.094a.958.958 0 00-.456.369c-.13.18-.237.445-.326.796-.09.352-.172.814-.229 1.371-.09.651-.13 1.156-.114 1.508.008.36.098.6.253.736.163.137.416.206.766.206.595 0 1.092-.009 1.483-.035.392-.017.775-.05 1.166-.085l.081 1.773a9.01 9.01 0 01-1.287.3c-.424.06-.938.085-1.54.085-.905 0-1.623-.154-2.144-.454-.522-.3-.864-.788-1.044-1.481-.17-.686-.179-1.602-.024-2.75.122-.882.285-1.61.481-2.201.196-.583.448-1.037.766-1.371a2.607 2.607 0 011.198-.71c.49-.13 1.068-.198 1.744-.198zm7.263.153l-1.182 8.866h-2.298l1.182-8.866h2.298zm2.584 0l-.204 1.62h-2.69l.22-1.62h2.674zm2.16 0l-1.182 8.866H78.16l1.182-8.866h2.306zm4.816 0l-1.182 8.866h-2.282l1.182-8.866h2.282zm.994-.128c.815 0 1.459.094 1.932.274.472.188.79.497.961.942.163.445.196 1.062.09 1.842-.098.762-.269 1.353-.505 1.756a1.87 1.87 0 01-1.019.856c-.44.163-1.019.24-1.736.24a8.66 8.66 0 01-1.157-.069 11.233 11.233 0 01-1.06-.162 7.368 7.368 0 01-.84-.206c-.228-.068-.39-.137-.472-.197l.073-1.105h3.277c.26 0 .464-.026.627-.085.155-.06.27-.18.35-.369.082-.18.147-.462.196-.84.041-.29.041-.513.008-.676a.511.511 0 00-.236-.351c-.13-.069-.31-.103-.554-.103-.799 0-1.475.009-2.038.017a18.64 18.64 0 00-1.14.043l-.041-1.687c.35-.043.676-.069.986-.086.31-.017.635-.026.994-.034h1.304zm7.149.085c.48 0 .97 0 1.459.009.489.008.961.017 1.418.043.456.026.872.06 1.247.111l-.253 1.713h-3.04c-.22 0-.383.043-.481.129-.106.085-.171.24-.204.462l-.521 4.052c-.033.188-.008.334.073.428.081.103.22.146.432.146h3.016l-.05 1.739c-.382.051-.798.085-1.254.094l-1.378.026c-.464 0-.913.008-1.345.008-.676 0-1.173-.205-1.483-.634-.318-.42-.432-.968-.35-1.627l.652-4.823c.073-.574.285-1.028.643-1.362.35-.342.824-.514 1.419-.514zm-2.054 3.53h5.248l-.195 1.627H92.31l.245-1.627zm11.629-3.64c.416 0 .775.008 1.076.042a7.29 7.29 0 011.589.3l-.269 1.764c-.285-.017-.554-.025-.798-.034-.245 0-.497-.009-.766-.017-.269 0-.579-.009-.946-.009a2.09 2.09 0 00-.66.094.958.958 0 00-.456.369c-.131.18-.237.445-.326.796a9.59 9.59 0 00-.229 1.371c-.089.651-.13 1.156-.114 1.508.008.36.098.6.253.736.163.137.416.206.766.206.595 0 1.092-.009 1.483-.035.392-.017.775-.05 1.166-.085l.081 1.773a8.993 8.993 0 01-1.287.3c-.424.06-.938.085-1.541.085-.904 0-1.622-.154-2.143-.454-.522-.3-.864-.788-1.043-1.481-.172-.686-.18-1.602-.025-2.75.122-.882.285-1.61.481-2.201.196-.583.448-1.037.766-1.371a2.607 2.607 0 011.198-.71c.489-.13 1.068-.198 1.744-.198zm8.126 0c.416 0 .775.008 1.076.042a7.29 7.29 0 011.589.3l-.269 1.764c-.285-.017-.554-.025-.798-.034-.245 0-.497-.009-.766-.017-.269 0-.579-.009-.946-.009a2.09 2.09 0 00-.66.094.958.958 0 00-.456.369c-.131.18-.237.445-.326.796a9.59 9.59 0 00-.229 1.371c-.089.651-.13 1.156-.114 1.508.008.36.098.6.253.736.163.137.416.206.766.206.595 0 1.092-.009 1.483-.035.392-.017.775-.05 1.166-.085l.081 1.773a9.025 9.025 0 01-1.287.3c-.424.06-.938.085-1.541.085-.904 0-1.622-.154-2.143-.454-.522-.3-.864-.788-1.043-1.481-.172-.686-.18-1.602-.025-2.75.122-.882.285-1.61.481-2.201.196-.583.448-1.037.766-1.371a2.607 2.607 0 011.198-.71c.489-.13 1.068-.198 1.744-.198z" fill="#3B3B31"/></svg>