<svg width="115" height="41" fill="none" xmlns="http://www.w3.org/2000/svg"><path d="M80.761 4.46L67.158 15.55l6.031 4.877 6.57 5.3h-8.436l-6.561-5.309-3.88-3.128-3.577 8.437h-6.358a5.294 5.294 0 01-5.29-5.3h8.151l1.329-3.129H43.164a5.294 5.294 0 01-5.29-5.3h19.504l1.328-3.128H35.331a5.294 5.294 0 01-5.289-5.3h32.61c1.425 0 2.64 1.11 2.697 2.54a2.58 2.58 0 01-.237 1.208l-1.996 4.688 10.831-8.829.921-.751.123-.098a.554.554 0 00.146-.376c0-.31-.26-.555-.587-.555h-.44L74.485 0h10.596c.383 0 .554.482.26.727l-4.58 3.732z" fill="#4AAB3C"/><path d="M3.472 32.383l-.326 2.287c-.04.31-.114.63-.204.964-.098.327-.22.613-.367.85.066.228.106.481.13.767a3.24 3.24 0 01-.024.8l-.399 2.786H0l1.182-8.454h2.29zm.416 3.292l-.204 1.535H2.225l.204-1.535h1.459zm4.205-3.291c-.252.604-.473 1.127-.652 1.56-.187.44-.358.808-.513 1.102a2.846 2.846 0 01-.506.719c-.179.188-.39.327-.635.433-.245.106-.546.171-.889.212l-.016.074c.326.048.595.122.807.212.212.098.383.237.521.433.139.196.253.449.351.76.09.318.18.71.26 1.192.082.482.172 1.061.286 1.756H4.752a125.71 125.71 0 00-.27-1.87c-.073-.483-.154-.842-.244-1.095s-.22-.425-.375-.523c-.163-.09-.391-.139-.684-.139l.13-1.535c.285 0 .522-.049.725-.155.196-.106.375-.286.546-.531a6.28 6.28 0 00.522-1.013c.18-.425.383-.955.611-1.593h2.38zm6.415-.001c.179 0 .342.066.48.188a.74.74 0 01.253.45l1.198 7.816h-2.298l-.611-5.856c-.017-.155-.025-.31-.033-.45-.008-.146-.008-.294-.008-.44h-.343c-.032.122-.073.26-.114.416a3.64 3.64 0 01-.155.45l-2.314 5.88H8.175l3.398-7.906a.796.796 0 01.31-.409.908.908 0 01.497-.139h2.128zm.513 4.762l-.196 1.707h-4.4l.203-1.707h4.393zm6.569-4.762l-1.19 8.454h-2.29l1.19-8.454h2.29zm.986-.122c.815 0 1.459.09 1.931.261.473.18.79.474.962.899.163.424.196 1.013.09 1.756-.098.727-.27 1.29-.498 1.674a1.85 1.85 0 01-1.018.817c-.44.155-1.019.228-1.736.228a9.08 9.08 0 01-1.158-.065c-.383-.04-.733-.09-1.067-.155a8.146 8.146 0 01-.84-.196 2.009 2.009 0 01-.48-.188l.073-1.053h3.276c.261 0 .465-.025.62-.082.154-.057.268-.172.358-.351.082-.172.147-.441.196-.8.04-.279.04-.49.008-.646a.488.488 0 00-.236-.335c-.13-.065-.31-.098-.555-.098-.798 0-1.475.008-2.037.017-.563.008-.938.024-1.141.04l-.033-1.609c.35-.04.677-.065.986-.081.31-.017.636-.025.995-.033h1.304zm7.156.082c.48 0 .97 0 1.459.008.489.008.961.016 1.418.04a16.9 16.9 0 011.247.107l-.253 1.633h-3.04c-.22 0-.383.041-.48.123-.107.082-.172.229-.205.441l-.53 3.863c-.032.18-.008.319.074.409.081.098.22.138.432.138h3.024l-.05 1.658c-.382.05-.798.082-1.254.09l-1.378.025c-.464 0-.913.008-1.345.008-.676 0-1.173-.196-1.483-.605-.318-.4-.432-.922-.35-1.551l.652-4.599c.073-.547.285-.98.643-1.298.35-.327.824-.49 1.419-.49zm-2.054 3.365h5.248l-.195 1.552h-5.29l.237-1.552zm15.209-3.325l-.196 1.544h-2.787c-.27 0-.465.05-.587.155-.123.106-.22.294-.285.572-.074.343-.147.678-.229 1.013-.081.326-.155.653-.236.964-.082.31-.163.612-.245.89-.081.286-.179.555-.269.8a8.012 8.012 0 01-.301.694c-.277.564-.587.997-.921 1.29-.342.303-.71.49-1.117.564a3.965 3.965 0 01-1.32.009l-.081-1.79.488-.097c.163-.033.318-.106.473-.212.147-.107.294-.295.424-.556.081-.147.163-.318.236-.523.074-.196.155-.424.229-.67.073-.244.146-.514.228-.808.073-.294.163-.62.244-.972.09-.36.172-.735.253-1.143.13-.572.375-.997.725-1.29.359-.286.84-.434 1.46-.434h3.814zm.17 0l-1.19 8.454h-2.281l1.181-8.454h2.29zm8.265-.146c.92 0 1.646.147 2.176.432.53.286.888.752 1.067 1.405.18.654.196 1.528.041 2.63-.138 1.062-.367 1.903-.676 2.524-.31.62-.742 1.07-1.296 1.34-.554.277-1.272.416-2.144.424-.668 0-1.222-.033-1.654-.098a7.036 7.036 0 01-1.223-.294l.277-1.666c.35.04.726.073 1.125.09.4.016.856.024 1.37.024.415-.008.741-.081.977-.237.237-.147.416-.4.555-.767.13-.36.244-.866.342-1.511.073-.49.114-.89.114-1.193 0-.31-.033-.539-.106-.702a.643.643 0 00-.359-.343 1.812 1.812 0 00-.643-.098c-.35 0-.66.008-.938.016-.277.008-.53.008-.774.008s-.505.008-.782.025l-.09-1.69c.4-.107.815-.189 1.247-.238a11.13 11.13 0 011.394-.081zm2.958 3.47l-.22 1.553h-5.232l.17-1.552h5.282zm5.453-3.323l-.326 2.286c-.04.31-.106.63-.203.964-.098.335-.22.613-.367.85.065.228.106.481.13.767a3.24 3.24 0 01-.024.8l-.391 2.778H56.27l1.181-8.453h2.282v.008zm.416 3.291l-.212 1.536h-1.45l.203-1.536h1.46zm4.206-3.291c-.253.604-.473 1.127-.652 1.56-.188.44-.35.808-.514 1.102a3.068 3.068 0 01-.505.719 1.91 1.91 0 01-.636.433c-.244.106-.546.171-.897.212l-.016.074c.326.049.595.122.807.212.212.098.383.237.53.433.138.196.252.45.35.76.09.318.18.71.261 1.192.082.482.171 1.062.277 1.756h-2.347a139.52 139.52 0 00-.269-1.87c-.073-.482-.155-.842-.245-1.095s-.22-.425-.383-.523c-.163-.09-.39-.138-.684-.138l.13-1.536c.285 0 .53-.049.726-.155.195-.106.375-.286.546-.531.163-.245.342-.588.521-1.013.18-.424.383-.955.612-1.592h2.388zm5.289-.147c.416 0 .775.008 1.076.04a7.672 7.672 0 011.59.286l-.27 1.683c-.285-.017-.554-.025-.798-.033-.245 0-.497-.008-.766-.016-.27 0-.579-.008-.946-.008-.26 0-.48.032-.66.09a.951.951 0 00-.456.35c-.13.172-.237.425-.326.76-.09.335-.172.776-.229 1.307-.09.62-.13 1.102-.114 1.437.008.343.098.572.253.703.163.13.416.196.766.196.595 0 1.092-.008 1.483-.033.392-.016.775-.049 1.166-.082l.081 1.691a9.35 9.35 0 01-1.287.286c-.424.057-.938.082-1.54.082-.905 0-1.623-.147-2.144-.433-.522-.286-.864-.752-1.043-1.413-.172-.654-.18-1.528-.025-2.622.122-.841.285-1.535.48-2.099.197-.555.45-.988.767-1.307a2.635 2.635 0 011.198-.678c.49-.122 1.068-.187 1.744-.187zm7.262.146l-1.182 8.454h-2.298l1.182-8.454h2.298zm2.584 0l-.204 1.544h-2.69l.22-1.544h2.674zm2.16 0l-1.182 8.454H78.16l1.182-8.454h2.306zm4.816 0l-1.182 8.454h-2.282l1.182-8.454h2.282zm.994-.122c.815 0 1.459.09 1.932.261.472.18.79.474.961.899.163.424.196 1.013.09 1.756-.098.727-.269 1.29-.505 1.674a1.85 1.85 0 01-1.019.817c-.44.155-1.019.228-1.736.228-.391 0-.774-.016-1.157-.065-.383-.04-.734-.09-1.06-.155a7.667 7.667 0 01-.84-.196c-.228-.065-.39-.13-.472-.188l.073-1.053h3.277c.26 0 .464-.025.627-.082a.613.613 0 00.35-.351c.082-.172.147-.441.196-.8.041-.279.041-.49.008-.646a.488.488 0 00-.236-.335c-.13-.065-.31-.098-.554-.098-.799 0-1.475.008-2.038.017-.562.008-.937.024-1.14.04l-.041-1.609c.35-.04.676-.065.986-.081.31-.017.635-.025.994-.033h1.304zm7.148.082c.48 0 .97 0 1.459.008.489.008.961.016 1.418.04a16.9 16.9 0 011.247.107l-.253 1.633h-3.04c-.22 0-.383.041-.48.123-.107.082-.172.229-.205.441l-.521 3.863c-.033.18-.008.319.073.409.082.098.22.138.432.138h3.016l-.05 1.658c-.382.05-.798.082-1.254.09l-1.378.025c-.464 0-.913.008-1.345.008-.676 0-1.173-.196-1.483-.605-.318-.4-.432-.922-.35-1.551l.652-4.599c.073-.547.285-.98.643-1.298.35-.327.824-.49 1.419-.49zm-2.054 3.365h5.248l-.195 1.552h-5.298l.245-1.552zm11.63-3.471c.416 0 .775.008 1.076.04a7.628 7.628 0 011.589.286l-.268 1.683c-.286-.017-.555-.025-.799-.033-.245 0-.497-.008-.766-.016-.269 0-.579-.008-.946-.008-.261 0-.481.032-.66.09a.95.95 0 00-.456.35c-.131.172-.237.425-.326.76-.09.335-.172.776-.229 1.307-.089.62-.13 1.102-.114 1.437.008.343.098.572.253.703.163.13.416.196.766.196.595 0 1.092-.008 1.483-.033.392-.016.775-.049 1.166-.082l.081 1.691c-.432.13-.863.22-1.287.286-.424.057-.938.082-1.541.082-.904 0-1.622-.147-2.143-.433-.522-.286-.864-.752-1.043-1.413-.172-.654-.18-1.528-.025-2.622.122-.841.285-1.535.481-2.099.196-.555.448-.988.766-1.307a2.635 2.635 0 011.198-.678c.489-.122 1.068-.187 1.744-.187zm8.126 0c.416 0 .775.008 1.076.04a7.628 7.628 0 011.589.286l-.269 1.683c-.285-.017-.554-.025-.798-.033-.245 0-.497-.008-.766-.016-.269 0-.579-.008-.946-.008-.261 0-.481.032-.66.09a.95.95 0 00-.456.35c-.131.172-.237.425-.326.76-.09.335-.172.776-.229 1.307-.089.62-.13 1.102-.114 1.437.008.343.098.572.253.703.163.13.416.196.766.196.595 0 1.092-.008 1.483-.033.392-.016.775-.049 1.166-.082l.081 1.691a9.37 9.37 0 01-1.287.286c-.424.057-.938.082-1.541.082-.904 0-1.622-.147-2.143-.433-.522-.286-.864-.752-1.043-1.413-.172-.654-.18-1.528-.025-2.622.122-.841.285-1.535.481-2.099.196-.555.448-.988.766-1.307a2.635 2.635 0 011.198-.678c.489-.122 1.068-.187 1.744-.187z" fill="#3B3B31"/></svg>