<svg width="330" height="164" fill="none" xmlns="http://www.w3.org/2000/svg"><g clip-path="url(#clip0_2_17124)"><path fill-rule="evenodd" clip-rule="evenodd" d="M200.533 57.861c.147 10.797.098 31.508.883 45.74.785 14.281 2.356 22.084 3.534 26.501 1.227 4.417 2.061 5.447 4.171 6.871 2.111 1.423 5.497 3.239 10.454 3.73 4.957.49 11.582-.246 15.116-.982 3.583-.736 4.123-1.374 5.644-4.515 1.521-3.141 3.926-8.736 8.147-12.465 4.172-3.73 10.11-5.546 14.723-6.871 4.614-1.325 7.951-2.16 9.767-3.926 1.865-1.767 2.208-4.417 1.865-10.355-.344-5.939-1.423-15.067-2.847-20.809-1.423-5.742-3.239-8-7.705-12.465-4.466-4.466-11.631-11.14-17.57-15.263-5.938-4.123-10.699-5.693-16.343-7.46-5.644-1.767-12.22-3.828-17.275-3.877-5.055-.098-8.638 1.767-10.65 2.7-2.012.932-2.405.932-2.405 1.373 0 .491.344 1.326.491 12.073z" fill="#5DC94C"/><path fill-rule="evenodd" clip-rule="evenodd" d="M63.507 136.04c.05 1.129.05 2.454.245 3.19.197.736.639.834 1.375.883.785.05 1.865.001 2.454.05.589.049.589.196.589.588 0 .442 0 1.129-.148 1.473-.098.392-.294.441-.687.589-.392.196-.932.49-1.178 1.03-.245.54-.196 1.227.197 1.718.392.442 1.129.638 2.257.687 1.178.049 2.798 0 10.16-.049 7.361-.049 20.465-.147 29.839-.442 9.374-.343 15.018-.932 20.907-1.619 5.889-.687 12.073-1.473 17.815-2.111 5.693-.638 10.896-1.079 16.245-1.079 5.35 0 10.846.54 13.889.834 3.043.295 3.632.442 6.724.491 3.043.049 8.539.049 11.288.049 2.748 0 2.797 0 2.797.393v1.57c0 .393.049.393 2.896.344l11.337-.197 2.846-.049v.638c0 .638.049 1.865.098 2.454.049.638.099.638.197.687.098.049.196.098 5.447-.196 5.252-.295 15.705-.884 26.257-1.963 10.552-1.08 21.202-2.552 27.582-3.239 6.38-.687 8.539-.54 9.914-.442 1.374.098 1.963.147 7.067-.049s14.674-.687 19.484-.884c4.809-.245 4.809-.245 4.368-.736-.442-.49-1.276-1.472-2.16-2.306-.883-.884-1.816-1.62-6.184-5.35-4.367-3.778-12.171-10.551-19.729-14.232-7.558-3.681-14.772-4.22-20.318-4.024-5.497.196-9.227 1.129-13.3 4.515-4.025 3.386-8.393 9.177-11.092 12.76-2.699 3.632-3.779 5.055-9.177 5.889-5.399.834-15.116 1.129-20.466-.343-5.349-1.473-6.331-4.663-8.54-5.595-2.208-.982-5.643.294-23.066.54-17.423.196-48.882-.638-69.249-1.129-20.367-.491-29.692-.687-35.827-.834-6.135-.148-9.129-.246-10.846.196-1.718.442-2.209 1.325-2.356 2.306-.049.884.05 1.865.05 2.994z" fill="#2B2923"/><path d="M193.76 0H0v117.538h193.76V0z" fill="#4AAB3C"/><path fill-rule="evenodd" clip-rule="evenodd" d="M167.7 137.758c20.22-.049 24.342-.049 26.403-.049h2.062l-.049-.491c-.049-.491-.197-1.521-.393-4.073a270.508 270.508 0 01-.54-9.619c-.147-2.847-.147-4.417-.147-5.202v-.786H15.116v1.129c0 1.129-.049 3.337-.049 4.466v1.227c0 .098-.049.344-.049 1.325-.049.932-.049 2.65-.098 3.484v.835h11.729s-.049 0-.049 1.325 0 3.975.05 5.3v1.521c0 .05.049.05 8.048.05 8.05 0 24.098 0 50.305-.099 26.11-.147 62.476-.294 82.697-.343z" fill="#36342B"/><path d="M195.478 121.857H6.675v7.803h188.803v-7.803z" fill="#3F3D2E"/><path d="M186.202 121.857h-43.827v22.281h43.827v-22.281z" fill="#3F3D2E"/><path fill-rule="evenodd" clip-rule="evenodd" d="M66.108 137.414l-.246.687h-2.306l.294-.883c.295-.883.834-2.699 2.209-5.104 1.374-2.405 3.582-5.398 5.496-7.558 1.914-2.159 3.485-3.484 4.76-4.515 1.326-1.03 2.357-1.767 2.897-2.11.54-.344.54-.344 2.65-.344h18.306c1.57 0 1.57 0 2.257.393.737.393 2.16 1.129 3.927 2.258 1.766 1.177 3.828 2.699 5.742 4.809 1.914 2.061 3.631 4.711 4.564 6.92.932 2.257 1.031 4.122 1.08 5.055l.049.932h-2.111l-.049-.589c-.049-.589-.196-1.767-.687-3.288-.491-1.521-1.374-3.435-2.257-4.957-.933-1.57-1.914-2.748-3.387-4.122-1.472-1.374-3.484-2.896-4.957-3.877-1.472-.982-2.355-1.374-2.846-1.571-.491-.196-.589-.147-3.828-.196-3.19 0-9.521-.049-12.711-.098h-3.141l-.982.589c-.981.589-2.945 1.767-4.859 3.435-1.914 1.669-3.73 3.779-5.153 5.644-1.374 1.865-2.356 3.485-3.092 5.006a25.969 25.969 0 00-1.62 3.484z" fill="#737160"/><path d="M91.088 163.572c11.71 0 21.202-9.228 21.202-20.612 0-11.384-9.492-20.612-21.202-20.612-11.709 0-21.201 9.228-21.201 20.612 0 11.384 9.492 20.612 21.201 20.612z" fill="#4F4D3E"/><path d="M91.088 156.505c7.698 0 13.939-6.064 13.939-13.545s-6.24-13.545-13.939-13.545c-7.697 0-13.938 6.064-13.938 13.545s6.24 13.545 13.938 13.545z" fill="#807E6D"/><path fill-rule="evenodd" clip-rule="evenodd" d="M91.089 152.383c4.957 0 8.981-4.074 8.981-9.079 0-5.006-4.024-9.08-8.981-9.08s-8.982 4.074-8.982 9.08c0 5.005 4.025 9.079 8.982 9.079z" fill="#737160"/><path fill-rule="evenodd" clip-rule="evenodd" d="M195.723 128.581c.098 5.447.147 6.379.245 7.017.05.688.148 1.129.246 1.865.147.687.343 1.669.54 2.307.196.638.441 1.031.883 1.325.442.294 1.031.491 2.454.491 1.423 0 3.681-.197 6.871-.147 3.19 0 7.263.245 11.042.588 3.779.344 7.215.737 9.963 1.276 2.749.54 4.81 1.178 6.577 1.669 1.766.491 3.19.834 4.122.736.933-.049 1.325-.491 1.718-1.325.442-.785.883-1.963 1.57-3.779.688-1.816 1.62-4.318 2.847-7.165 1.227-2.846 2.797-6.036 5.006-8.736 2.208-2.748 5.055-5.005 8.294-6.379 3.288-1.375 7.018-1.816 10.65-1.767 3.632.049 7.214.589 9.914 1.472 2.699.883 4.466 2.11 5.644 3.141 1.178 1.031 1.766 1.865 2.11 2.257.295.442.295.442.54.295.245-.147.687-.393 1.276-.933.589-.539 1.325-1.325 1.669-1.766.343-.393.343-.393-.835-1.374-1.178-.982-3.533-2.896-6.92-4.417-3.386-1.522-7.852-2.601-11.877-2.945a31.683 31.683 0 00-10.649.883c-3.043.835-5.546 2.013-7.657 3.387-2.159 1.374-3.926 2.895-5.251 4.318-1.325 1.424-2.208 2.798-3.239 4.565a380.123 380.123 0 00-2.896 5.349c-.785 1.472-1.276 2.356-1.57 2.895-.295.54-.442.786-.54.933-.098.147-.245.245-.589.343-.344.05-.932.099-4.711.148-3.829.049-10.847.098-14.675.098-3.877 0-4.564-.098-5.398-.393-.835-.294-1.767-.785-2.552-1.521-.786-.687-1.326-1.62-1.718-3.043-.344-1.423-.442-3.337-.589-7.312-.098-3.975-.196-9.963-.344-16.637-.147-6.675-.294-13.987-.638-23.851-.343-9.865-.834-22.232-1.128-28.416l-.246-6.183h-7.901c-1.669 0-1.914.049-2.209.981-.294.933-.687 2.748-.736 11.926-.049 9.177.147 25.667.343 38.967.148 13.348.246 23.36.344 28.857z" fill="#4AAB3C"/><path fill-rule="evenodd" clip-rule="evenodd" d="M226.298 45.494c2.847.098 5.251.294 7.656.883 2.405.59 4.859 1.62 6.086 2.16 1.227.49 1.276.49 1.325.441.049-.049.147-.196.344-.392.196-.197.49-.491 1.03-1.08.54-.589 1.325-1.423 1.767-1.914.442-.49.54-.589 1.57.245 1.031.786 2.994 2.503 8.933 7.607 5.987 5.104 15.95 13.644 21.888 18.846 5.939 5.153 7.853 6.969 8.785 7.901.933.883.933.883 1.375.883.441 0 1.276-.049 1.815 0 .491 0 .688.099.835.295.147.196.343.54.54.834.245.295.49.54.834.736.343.197.687.393 1.767.786a160.99 160.99 0 013.828 1.472c.981.441 1.178.638 1.227.785.098.147.049.294-2.7.638-2.748.344-8.294.883-13.005 1.178-4.712.294-8.687.343-10.748.392-2.012 0-2.16 0-2.209-.098-.049-.147-.049-.441-.147-1.57-.049-1.129-.196-3.19-.344-4.368-.147-1.178-.245-1.521-.785-2.405-.54-.883-1.57-2.306-3.141-4.367a93.953 93.953 0 00-6.723-7.755c-3.043-3.091-6.92-6.674-9.62-9.079-2.699-2.404-4.122-3.631-5.84-4.858-1.718-1.227-3.632-2.454-5.595-3.337-1.914-.884-3.828-1.473-6.527-1.816-2.7-.344-6.184-.442-10.454-.54-4.27-.05-9.276-.05-12.662-.05h-6.773c-1.521 0-2.797.05-3.435.05-.638 0-.638 0-.491-.246.147-.245.491-.736.785-1.177.295-.442.54-.786.687-.982.148-.196.148-.196.197-.196h3.092c3.042 0 9.177-.05 13.889-.098 4.809.049 8.098.098 10.944.196z" fill="#4F4D3E"/><path fill-rule="evenodd" clip-rule="evenodd" d="M202.054 45.396h-3.435c-.148 0-.148 0-.098-.344.049-.343.098-.981.589-1.717.49-.736 1.423-1.62 2.11-2.209.687-.638 1.129-.981 1.472-1.178.344-.196.638-.147 3.288-.147h11.19c3.534 0 5.644.05 7.46.098 1.816.05 3.337.098 5.251.393 1.914.245 4.172.736 6.43 1.423 2.306.687 4.613 1.62 6.085 2.258 1.473.638 2.062.932 2.356 1.08.294.147.245.147 0 .392-.245.196-.687.638-1.227 1.227a42.92 42.92 0 00-1.57 1.669c-.393.392-.491.54-.54.589l-.049.049-.246-.099c-.245-.098-.785-.294-1.57-.588-.786-.295-1.865-.688-2.798-1.031a34.86 34.86 0 00-2.601-.785c-.736-.197-1.325-.344-1.914-.442-.589-.098-1.178-.196-1.865-.245-.687-.099-1.521-.148-2.65-.197a215.09 215.09 0 00-5.006-.147c-2.405-.049-5.742-.049-8.981-.049s-6.331 0-8.245.05c-1.963-.05-2.601-.05-3.436-.05z" fill="#5DC94C"/><path fill-rule="evenodd" clip-rule="evenodd" d="M248.776 53.984c2.994 2.748 8.736 8 13.987 12.76 5.252 4.76 9.963 9.128 12.515 11.337 2.503 2.257 2.847 2.355 3.092 2.404.294 0 .54-.049 1.031-.343.49-.245 1.276-.687 1.766-.982.442-.294.638-.49.687-.638.099-.147.099-.196.05-.294-.049-.098-.148-.196-5.792-4.957-5.644-4.76-16.784-14.232-22.526-19.09-5.742-4.86-6.086-5.154-6.331-5.3-.246-.148-.393-.197-.54-.099-.148.05-.246.196-.491.49-.245.295-.638.786-.687 1.179-.049.49.245.785 3.239 3.533z" fill="#F9F9F9"/><path fill-rule="evenodd" clip-rule="evenodd" d="M210.004 55.407c.147 3.043.442 8.736.687 13.693.295 4.907.54 9.079 1.276 11.533.687 2.454 1.816 3.19 3.779 3.877 1.963.687 4.81 1.374 9.571 1.914 4.76.49 11.484.883 17.03 1.08a373.89 373.89 0 0012.465.245h3.043c.196 0 .196 0 .246.49 0 .491.049 1.473.147 2.013.049.54.147.687.687.687s1.472-.098 2.012-.196c.54-.099.638-.197 1.423-1.13.835-.932 2.356-2.698 3.141-3.827.786-1.129.835-1.62.835-2.307 0-.687-.099-1.62-.589-2.846-.442-1.178-1.325-2.65-2.601-4.515-1.326-1.816-3.092-4.025-4.908-6.184-1.767-2.11-3.583-4.122-5.89-6.33a90.517 90.517 0 00-7.705-6.577c-2.601-1.963-5.006-3.485-7.705-4.564-2.699-1.129-5.595-1.816-9.423-2.356-3.828-.49-8.49-.834-11.435-.883-2.896-.098-3.975 0-4.761.441-.736.442-1.178 1.227-1.374 1.767-.147.59-.098.933.049 3.975z" fill="#4F4D3E"/><path fill-rule="evenodd" clip-rule="evenodd" d="M212.017 57.96c.147 3.533.49 9.864.834 14.084.343 4.27.638 6.43 1.031 7.705.392 1.325.932 1.767 1.472 2.062.589.294 1.178.441 2.405.736 1.178.294 2.944.687 5.447 1.128 2.552.393 5.841.786 8.491 1.08 2.65.294 4.613.49 5.644.589 1.08.098 1.227.098 1.325-.05.098-.146.098-.44-.442-5.348-.54-4.908-1.668-14.527-2.306-19.68-.638-5.153-.786-5.89-.884-6.233-.098-.392-.147-.392-1.227-.785-1.079-.393-3.141-1.08-6.135-1.57-2.944-.491-6.821-.786-9.275-.884-2.503-.147-3.632-.098-4.368 0-.736.098-1.08.245-1.325.393-.246.147-.442.294-.589.638-.147.294-.246.736-.295 1.325.049.49 0 1.227.197 4.81zm26.06 2.748c.54 4.71 1.521 13.447 2.061 18.256.54 4.81.687 5.644.785 6.085.098.442.098.442 2.945.54 2.846.099 8.539.246 11.386.344 2.896.098 2.945.098 2.994.049.049 0 .049-.05.147-2.16.049-2.11.147-6.281.147-8.44 0-2.16-.098-2.258-.441-2.7-.344-.49-.982-1.374-2.503-3.043-1.522-1.668-3.927-4.171-6.184-6.281-2.258-2.11-4.368-3.78-5.988-5.104-1.668-1.276-2.846-2.16-3.779-2.748-.883-.59-1.472-.884-1.816-.933-.343-.098-.441 0-.441.393 0 .392.147 1.08.687 5.742z" fill="#F9F9F9"/><path fill-rule="evenodd" clip-rule="evenodd" d="M322 113.318c1.08 2.11 2.159 4.613 2.748 5.938.589 1.374.687 1.619.687 1.767.049.147.049.147-5.889.098-5.938 0-17.815-.049-23.754-.049h-5.938l-.147.147c-.148.147-.393.442-.884.883-.491.442-1.227 1.031-1.57 1.325l-.344.295.54.834c.54.834 1.669 2.454 2.601 4.712.933 2.257 1.718 5.054 2.209 7.214.49 2.159.687 3.631.785 4.417.098.785.098.883.098 1.03 0 .098-.049.246-.049.393 0 .147-.049.245 2.601.147s7.902-.491 12.908-.638c5.006-.147 9.717-.098 12.613-.245 2.895-.147 3.926-.491 4.76-1.08.835-.54 1.473-1.325 1.767-2.061.344-.736.344-1.522.294-2.356-.049-.834-.245-1.767-.294-2.306-.049-.54 0-.688.393-.982.343-.294.981-.785 1.325-1.178.392-.343.491-.589.491-2.503 0-1.914-.05-5.545-.099-7.508s-.049-2.209-.147-2.356c-.098-.147-.343-.147-.54-.196-.196 0-.343-.049-.785-1.914-.491-1.865-1.276-5.595-1.718-7.46-.392-1.865-.441-1.914-.441-1.963 0-.049 0-.049-1.227-.049h-6.135l.491.932c.589.786 1.619 2.601 2.65 4.712z" fill="#4F4D3E"/><path fill-rule="evenodd" clip-rule="evenodd" d="M315.718 121.121c-4.515 0-10.993 0-15.607-.049-4.613-.049-7.361-.098-8.735-.147l-1.375-.049s0-.049-.196.196c-.196.196-.589.638-1.129 1.08-.54.49-1.178 1.03-1.472 1.276l-.344.294h39.557c.246 0 .393 0 .589-.147.147-.147.344-.393.491-.687.147-.295.294-.638.343-.933.099-.294.099-.54.099-.687 0-.147 0-.147-.442-.147s-1.276-.049-2.994-.049c-1.619 0-4.221 0-8.785.049z" fill="#737160"/><path fill-rule="evenodd" clip-rule="evenodd" d="M281.56 87.847c.786-.05 1.62-.098 2.405-.147.785-.05 1.522-.098 1.914-.148l.393-.049 2.945 2.013c2.944 2.012 8.785 5.987 12.122 8.293 3.288 2.258 4.024 2.798 4.417 3.092.392.246.392.246 3.337 2.896a2567.34 2567.34 0 0011.828 10.551l2.945 2.65.294.687 1.178 2.749.294.687h-5.938c-5.938 0-17.766-.049-23.705-.049h-5.938l-.295-.344c-.294-.343-.834-.981-1.57-1.619-.687-.638-1.521-1.227-2.405-1.767-.883-.589-1.865-1.129-3.19-1.718a42.963 42.963 0 00-4.417-1.668c-1.374-.442-2.503-.736-3.681-.933-1.178-.245-2.356-.392-3.141-.491-.785-.098-1.08-.147-1.276-.147h-.147v-1.227c0-1.227-.049-3.73-.049-7.754V88.24h.687c.687 0 2.11 0 3.681-.05 1.57-.049 3.288-.098 4.564-.147 1.178-.098 1.963-.147 2.748-.196z" fill="#5DC94C"/><path fill-rule="evenodd" clip-rule="evenodd" d="M209.956 97.466c9.668.196 27.778.54 41.372.933 13.546.392 22.527.736 28.956 1.276 6.38.49 10.208 1.177 12.073 1.963 1.865.785 1.816 1.717 1.669 2.257-.196.54-.491.736-1.129.884-.638.147-1.57.245-5.055.245-3.533 0-9.619 0-24.49-.245-14.87-.197-38.526-.589-50.746-.786-12.27-.196-13.153-.196-13.742-.392-.589-.196-.933-.54-1.08-1.423-.196-.835-.245-2.209-.147-3.092.049-.933.245-1.374.932-1.62.54-.196 1.718-.196 11.387 0z" fill="#47A639"/><path fill-rule="evenodd" clip-rule="evenodd" d="M279.351 104.435c1.227 0 2.258-.981 2.258-2.208 0-1.227-1.031-2.209-2.258-2.209s-2.257.982-2.257 2.209 1.03 2.208 2.257 2.208z" fill="#FDE742"/><path fill-rule="evenodd" clip-rule="evenodd" d="M291.818 86.964a296.23 296.23 0 00-2.945.294c-.933.098-1.767.147-2.209.197l-.441.049 1.717 1.177c1.718 1.178 5.154 3.534 8.196 5.595 3.092 2.11 5.792 3.975 7.313 5.006 1.521 1.08 1.865 1.325 2.061 1.423.197.147.197.147.884.785.736.638 2.208 1.914 4.368 3.828 2.159 1.914 5.055 4.515 7.067 6.331 2.061 1.816 3.239 2.896 4.073 3.632.835.736 1.325 1.178 1.571 1.423.245.196.245.196-.442-1.129s-2.012-3.975-2.846-5.545c-.786-1.571-1.031-2.012-1.178-2.258l-.148-.245h3.387c1.227 0 2.601.049 3.288.049h.687l-.147-.491c-.147-.491-.442-1.521-2.945-3.779-2.503-2.257-7.214-5.693-11.435-8.637-4.221-2.945-7.852-5.35-10.11-6.724-2.208-1.374-2.945-1.717-3.337-1.914-.393-.196-.393-.196-.589-.098-.197.05-.638.196-1.129.344-.491.098-1.08.196-1.914.294-.736.196-1.767.295-2.797.393z" fill="#4AAB3C"/><path fill-rule="evenodd" clip-rule="evenodd" d="M320.381 129.66c-5.644 0-16.638.049-22.233.098-5.594.049-5.693.049-5.84.246-.147.196-.294.49-.294.883 0 .344.196.736.49.933.295.196.737.196 6.233.245 5.497.049 16.098.098 21.447.147 5.35 0 5.497 0 5.792-.098.245-.098.687-.245.883-.589.196-.343.245-.834.147-1.178-.098-.294-.294-.441-.54-.491-.245-.147-.441-.196-6.085-.196z" fill="#3F3D2E"/><path fill-rule="evenodd" clip-rule="evenodd" d="M305.707 102.766c-.196.835-.344 2.258-.049 4.074.294 1.816 1.03 4.024 2.061 5.545 1.031 1.522 2.356 2.307 3.828 2.994 1.472.687 3.043 1.325 4.466 1.718 1.423.392 2.699.49 3.73.54 1.08.049 1.914 0 2.503-.197.589-.196.883-.491.933-.883.049-.393-.05-.834-.491-1.816a126.18 126.18 0 00-1.816-3.632c-.638-1.227-1.227-2.306-1.767-3.141-.54-.834-1.031-1.374-1.816-2.11a29.946 29.946 0 00-2.994-2.306 14.057 14.057 0 00-2.944-1.522 12.54 12.54 0 00-2.7-.638c-.834-.049-1.472 0-1.914.147-.588.197-.834.393-1.03 1.227z" fill="#FDE742"/><path d="M266.051 163.572c11.71 0 21.202-9.228 21.202-20.612 0-11.384-9.492-20.612-21.202-20.612-11.709 0-21.201 9.228-21.201 20.612 0 11.384 9.492 20.612 21.201 20.612z" fill="#4F4D3E"/><path d="M266.051 156.505c7.698 0 13.939-6.064 13.939-13.545s-6.241-13.545-13.939-13.545c-7.697 0-13.938 6.064-13.938 13.545s6.241 13.545 13.938 13.545z" fill="#807E6D"/><path fill-rule="evenodd" clip-rule="evenodd" d="M266.052 152.383c4.956 0 8.981-4.074 8.981-9.079 0-5.006-4.025-9.08-8.981-9.08-4.957 0-8.982 4.074-8.982 9.08 0 5.005 4.025 9.079 8.982 9.079z" fill="#737160"/><path d="M188.018 5.84H5.153v105.515h182.865V5.84z" fill="#4F4D3E"/><path fill-rule="evenodd" clip-rule="evenodd" d="M5.153 111.355V5.84l19.68 8.49v78.72l-19.68 18.305z" fill="#6A6856"/><path fill-rule="evenodd" clip-rule="evenodd" d="M5.153 111.355l19.68-18.306h144.78l18.405 18.306H5.153z" fill="#403E32"/><path fill-rule="evenodd" clip-rule="evenodd" d="M188.018 111.355V5.84l-18.405 8.49v78.72l18.405 18.305z" fill="#6A6856"/><path fill-rule="evenodd" clip-rule="evenodd" d="M188.018 5.84H5.153l19.68 8.49h144.78l18.405-8.49z" fill="#6A6856"/><path fill-rule="evenodd" clip-rule="evenodd" d="M144.632 95.16l8.884.147-.737-16.637-8.834.049.687 16.44zm15.068-.54l8.883-.344-.736-16.097-8.834.393.687 16.048z" fill="#929293"/><path fill-rule="evenodd" clip-rule="evenodd" d="M169.123 75.823c-1.325 1.276-2.356 2.307-3.092 3.092-9.521-1.03-20.269-1.472-32.391-1.374 1.128-1.08 3.19-2.012 6.183-2.797 17.472.196 27.239.54 29.3 1.08z" fill="#DBB158"/><path fill-rule="evenodd" clip-rule="evenodd" d="M168.976 102.325c-1.964 2.846-2.798 3.631-2.798 3.631-.294-9.226-.343-17.618-.196-27.04a90.952 90.952 0 013.092-3.093c.098 17.913-.098 26.502-.098 26.502z" fill="#DBB158"/><path fill-rule="evenodd" clip-rule="evenodd" d="M166.031 78.964c-.148 7.95-.148 16.343.196 27.042-18.993-.246-32.735-1.129-32.735-1.129-.147-13.987-.098-23.115.147-27.287 10.846-.196 21.595.295 32.392 1.374zm-27.729-2.846c-.147 0-.245-.098-.245-.295 0-.147.098-.294.245-.294 4.662-.147 9.423-.098 14.184.098 4.76.196 9.619.54 14.527 1.03.147 0 .245.148.196.295 0 .148-.098.246-.245.246-4.908-.491-9.718-.884-14.478-1.031-4.81-.147-9.522-.196-14.184-.05z" fill="#F7CE66"/><path fill-rule="evenodd" clip-rule="evenodd" d="M147.135 77.688c1.62.05 3.19.098 4.663.197.196-.197-.049 11.827 0 16.636 0 0-4.614-.196-4.81-.196-.049 0 0-5.546.147-16.637z" fill="#F9F9F9"/><path fill-rule="evenodd" clip-rule="evenodd" d="M151.798 77.885a315.175 315.175 0 00-4.662-.197c2.797-1.816 4.22-2.748 4.22-2.748 2.013.049 3.043.049 3.043.049-1.767 1.914-2.601 2.896-2.601 2.896z" fill="#E1E2E1"/><path fill-rule="evenodd" clip-rule="evenodd" d="M143.651 62.867c.295 3.043.834 8.392 1.129 11.19.294 2.797.294 2.993 1.325 3.14 1.031.148 3.141.295 5.153.246 1.963-.05 3.877-.344 4.859-.49.981-.148 1.129-.197 1.472-2.946.344-2.748.884-8.244 1.178-10.993.295-2.748.295-2.748.295-3.042 0-.295 0-.835-.491-1.08-.491-.295-1.522-.295-3.779-.295-2.258-.049-5.791-.098-7.902-.147-2.11-.049-2.846-.049-3.141.344-.441.343-.392 1.03-.098 4.073z" fill="#FDE742"/><path fill-rule="evenodd" clip-rule="evenodd" d="M142.13 60.07c.638.196 1.717.589 3.239.834 1.521.246 3.435.393 5.349.393 1.914 0 3.779-.098 5.399-.295 1.62-.196 2.994-.54 3.73-.736.736-.196.932-.294 1.031-.392.098-.099.147-.197.147-.835v-2.404c0-.59 0-.59-.933-.786-.932-.196-2.797-.54-5.496-.687-2.749-.147-6.332-.098-8.687.05-2.356.146-3.534.343-4.123.44-.589.1-.589.148-.589.786s0 1.963.049 2.601c.049.736.246.785.884 1.03z" fill="#FBD16B"/><path fill-rule="evenodd" clip-rule="evenodd" d="M143.209 56.733c.835.245 2.602.441 4.712.54 2.11.147 4.515.196 6.478.147a44.957 44.957 0 004.221-.295c.834-.147 1.08-.245 1.08-.343 0-.098-.246-.246-1.08-.442-.834-.245-2.258-.589-4.613-.736-2.356-.147-5.595-.05-7.706.049-2.061.098-2.944.196-3.435.393-.442.196-.491.441.343.687z" fill="#080902"/><path fill-rule="evenodd" clip-rule="evenodd" d="M149.295 55.407c-.393-1.815-.933-5.398-.982-9.57-.049-4.17.393-8.882 1.423-12.465 1.031-3.582 2.651-5.987 4.123-7.95a79.737 79.737 0 013.386-4.22c.638-.737.638-.639.491 1.864-.147 2.552-.491 7.558-1.178 11.582a45.276 45.276 0 01-2.797 9.766c-1.08 2.7-2.16 4.957-2.748 7.018-.589 2.061-.688 3.877-.737 4.81-.049.932-.049.932-.196.932-.098.05-.393 0-.785-1.767z" fill="#47B909"/><path fill-rule="evenodd" clip-rule="evenodd" d="M149.492 54.475c0-1.57-.049-5.055-.982-8.343-.932-3.337-2.699-6.527-4.662-8.883a23.976 23.976 0 00-5.546-4.858c-1.423-.933-2.159-1.326-2.552-1.326-.393 0-.393.344-.245 1.326.147.981.441 2.6 1.227 4.416.785 1.865 2.012 3.926 3.386 5.644 1.374 1.767 2.797 3.141 4.024 4.613 1.227 1.424 2.16 2.896 2.994 4.27.834 1.374 1.472 2.7 1.865 3.534.393.834.491 1.177.491-.393z" fill="#64C324"/><path fill-rule="evenodd" clip-rule="evenodd" d="M153.27 49.666c.294-.982 1.178-2.945 2.945-4.466 1.766-1.522 4.318-2.552 6.183-3.092 1.865-.59 2.994-.638 3.534-.638.54 0 .491.147.295.589-.197.441-.54 1.178-1.227 2.257-.688 1.08-1.767 2.552-3.24 3.681-1.521 1.129-3.435 1.914-4.858 2.307-1.424.392-2.307.343-2.945.343-.687 0-.982 0-.687-.981z" fill="#47B909"/><path fill-rule="evenodd" clip-rule="evenodd" d="M138.645 35.679a.15.15 0 010-.197c.049-.049.147-.049.197 0 1.325 1.669 2.699 3.288 3.926 5.006 1.227 1.718 2.405 3.435 3.337 5.251.933 1.816 1.669 3.681 2.356 5.595.638 1.914 1.178 3.877 1.718 5.84 0 .098-.05.147-.099.197-.098 0-.147-.05-.196-.099-.54-1.963-1.08-3.877-1.718-5.79-.638-1.915-1.374-3.78-2.306-5.595-.933-1.816-2.062-3.534-3.338-5.203-1.178-1.717-2.503-3.337-3.877-5.005z" fill="#389E00"/><path fill-rule="evenodd" clip-rule="evenodd" d="M154.645 28.17c.049-.098.098-.098.196-.098.098.049.098.098.098.196a55.028 55.028 0 00-1.227 3.386 64.746 64.746 0 00-1.177 4.123c-.344 1.472-.688 3.092-.933 4.858-.343 2.013-.638 4.172-.932 6.184-.491 3.73-.835 7.067-1.129 10.355 0 .098-.098.147-.197.147-.098 0-.147-.098-.147-.196.344-3.337.638-6.674 1.129-10.404.245-2.012.589-4.172.933-6.184.294-1.718.638-3.386.981-4.858a66.89 66.89 0 011.178-4.172c.344-1.129.785-2.257 1.227-3.337zm7.901 15.705c.098-.05.147 0 .196.049.049.098 0 .147-.049.196-2.061 1.276-4.122 2.503-5.693 3.583-.785.54-1.423 1.03-2.012 1.472-.589.442-1.031.933-1.472 1.374a6.965 6.965 0 00-1.08 1.374c-.294.491-.54.982-.736 1.522-.393 1.129-.54 2.454-.736 3.779 0 .098-.098.147-.197.147-.098 0-.147-.098-.147-.196.196-1.325.344-2.7.736-3.828.197-.59.442-1.13.786-1.62.294-.49.687-.981 1.128-1.423.442-.442.933-.933 1.473-1.374a26.731 26.731 0 012.012-1.522c1.619-1.03 3.73-2.257 5.791-3.533z" fill="#389E00"/><path fill-rule="evenodd" clip-rule="evenodd" d="M50.256 91.675l-8.687.148.54-13.448 8.687.05-.54 13.25zm-14.772-.441l-8.736-.246.54-13.005 8.736.294-.54 12.957z" fill="#929293"/><path fill-rule="evenodd" clip-rule="evenodd" d="M26.06 76.069a78.8 78.8 0 013.093 2.503c9.324-.835 19.925-1.178 31.802-1.08-1.129-.883-3.141-1.62-6.086-2.258-17.226.099-26.796.344-28.808.835z" fill="#DBB158"/><path fill-rule="evenodd" clip-rule="evenodd" d="M26.159 97.76a485.36 485.36 0 002.945 3.436 434.66 434.66 0 000-22.624 38.218 38.218 0 00-3.092-2.503l.147 21.691z" fill="#DBB158"/><path fill-rule="evenodd" clip-rule="evenodd" d="M29.104 78.572c.245 6.429.245 13.986 0 22.624l32.146-1.62c.049-11.336-.099-18.698-.393-22.084a327.433 327.433 0 00-31.753 1.08z" fill="#F7CE66"/><path fill-rule="evenodd" clip-rule="evenodd" d="M56.341 76.314c.148 0 .246-.098.246-.196 0-.147-.098-.246-.197-.246a264.302 264.302 0 00-13.938.05c-4.711.147-9.423.441-14.232.834-.147 0-.197.098-.197.245s.099.197.246.197c4.81-.393 9.52-.688 14.232-.835a260.66 260.66 0 0113.84-.049z" fill="#FBD16B"/><path fill-rule="evenodd" clip-rule="evenodd" d="M47.704 77.59c-1.62.05-3.141.098-4.564.147-.197-.147.147 9.57.147 13.448 0 0 4.515-.148 4.76-.148-.049-.049-.147-4.515-.343-13.447z" fill="#F9F9F9"/><path fill-rule="evenodd" clip-rule="evenodd" d="M43.09 77.737l4.565-.147c-2.798-1.472-4.172-2.258-4.172-2.258-2.012.05-2.994.05-2.994.05a139.304 139.304 0 012.601 2.355z" fill="#E1E2E1"/><path d="M40.228 80.808l-8.052.856.576 5.417 8.052-.856-.576-5.417z" fill="#F9F9F9"/><path fill-rule="evenodd" clip-rule="evenodd" d="M38.723 80.044L29.889 77l-.197-28.514 9.178 1.473-.147 30.084z" fill="#DBB158"/><path fill-rule="evenodd" clip-rule="evenodd" d="M38.723 80.044l.147-30.084 9.963-.589-.344 29.74-9.766.933z" fill="#F7CE66"/><path fill-rule="evenodd" clip-rule="evenodd" d="M48.833 49.322l-9.963.834-9.178-1.718 9.522-.343 9.619 1.227z" fill="#DBA757"/><path fill-rule="evenodd" clip-rule="evenodd" d="M44.857 49.666l-3.19.245.196 19.14 3.141-.197-.147-19.188z" fill="#F9F9F9"/><path fill-rule="evenodd" clip-rule="evenodd" d="M41.668 49.91l3.19-.244-8.294-1.473-1.178.05v.54l6.282 1.128z" fill="#F9F9F9"/><path fill-rule="evenodd" clip-rule="evenodd" d="M30.38 103.306c-1.031-.049-2.405-.098-3.485-.147-1.08-.049-1.767-.098-2.405-.197-.638-.049-1.227-.147-1.57-.245-.344-.049-.491-.098-.59-.147-.097-.049-.146-.098-.146-.098v1.374l.54.098c.54.098 1.57.344 3.631.589a82.44 82.44 0 008.098.54 82.35 82.35 0 008.294-.295c2.209-.196 3.485-.392 4.172-.589.687-.147.785-.245.785-.294.05-.049.05-.049.05-.295v-.932c0-.245 0-.245-.05-.196-.049.049-.098.098-.245.147a4.21 4.21 0 01-.638.147c-.295.049-.687.098-1.325.196-.638.05-1.473.148-2.307.197-.834.049-1.62.098-2.552.147-.933.049-1.914.049-2.994.098H32.59a22.42 22.42 0 00-2.21-.098z" fill="#141515"/><path fill-rule="evenodd" clip-rule="evenodd" d="M34.993 103.355c7.067 0 12.81-.392 12.81-.932s-5.743-.933-12.81-.933-12.81.393-12.81.933 5.743.932 12.81.932z" fill="#080902"/><path fill-rule="evenodd" clip-rule="evenodd" d="M24.196 17.57c-.295.147-.295.147-.785 2.404a742.777 742.777 0 01-1.865 9.03c-.491 2.307-.442 2.356-.442 2.405 0 .049 0 .049.147.098.147.05.393.196 1.08.393.687.196 1.767.441 4.515.589 2.7.147 7.067.196 10.699.098 3.632-.098 6.478-.295 8.196-.54 1.669-.196 2.209-.393 2.454-.49l.245-.099-.294-2.356c-.295-2.355-.834-7.067-1.129-9.422-.294-2.356-.294-2.356-.442-2.454-.196-.05-.54-.197-1.472-.393-.933-.147-2.356-.294-4.515-.441-2.16-.099-5.006-.197-7.607-.099-2.601.05-4.908.295-6.38.54-1.473.344-2.11.59-2.405.736z" fill="#FDE742"/><path fill-rule="evenodd" clip-rule="evenodd" d="M29.398 30.82c-1.276.05-2.7.147-3.975.196-1.276.099-2.307.148-2.896.246-.589.049-.687.098-.442.196a8.18 8.18 0 001.62.442c.834.147 1.963.245 3.19.294 1.276.05 2.65.098 4.123.148 1.472.049 2.993.049 4.858 0a249.64 249.64 0 005.988-.246c1.865-.098 3.435-.294 4.368-.392.932-.099 1.325-.197 1.472-.295.147-.098.098-.147-.147-.245-.246-.099-.638-.148-1.914-.246-1.276-.098-3.387-.196-5.693-.245-2.307-.05-4.712-.05-6.479-.05-1.717.099-2.797.148-4.073.197z" fill="#080902"/><path fill-rule="evenodd" clip-rule="evenodd" d="M35.386 63.112V32.194l.147-.098c.148-.098.393-.245.59-.54.196-.245.294-.589.343-.736l.049-.147h-3.387c-.098 0-.098 0-.098.098.05.098.098.343.246.54.147.196.392.442.54.54.147.147.245.196.294.196l.05.05v70.325h1.128v-6.92c.098-6.87.098-20.661.098-32.39z" fill="#141515"/><path fill-rule="evenodd" clip-rule="evenodd" d="M87.702 64.045c-.638-2.552-1.668-7.116-2.16-10.159-.49-3.043-.49-4.466 0-5.546.492-1.08 1.473-1.717 3.191-2.257 1.718-.49 4.27-.834 9.128-.933 4.859-.098 12.074.05 16.491.246s6.085.441 7.312 1.03c1.276.59 2.111 1.522 2.356 2.945.245 1.472-.147 3.435-.736 6.38s-1.374 6.87-1.718 8.834c-.393 1.963-.393 1.963-.883 2.503-.491.54-1.522 1.668-2.454 2.993-.933 1.374-1.767 2.945-2.405 3.632-.638.638-1.031.393-1.276.245-.196-.147-.196-.147-2.847-.049-2.65.098-7.95.344-11.287.246-3.338-.05-4.712-.442-5.4-.638-.686-.197-.686-.197-.882 0-.197.147-.54.49-1.031-.246-.49-.736-1.129-2.454-1.865-3.582-.736-1.13-1.472-1.62-2.012-2.11-.59-.491-.835-.982-1.522-3.534z" fill="#FDE742"/><path fill-rule="evenodd" clip-rule="evenodd" d="M94.23 73.124c.098.197.098.197-.59.835-.637.638-1.962 1.914-2.6 2.6-.638.688-.687.737-.687.737s-.05 0-.246-.785c-.196-.835-.49-2.503-.932-3.78-.442-1.275-.884-2.208-1.374-2.846-.491-.638-1.031-1.08-1.718-1.374-.687-.344-1.57-.589-2.11-.736-.54-.147-.688-.147-.737-.147h.05s-.099 0-.05-.05c.05-.049.295-.098 1.227-.294.884-.147 2.454-.442 3.24-.54.785-.098.785-.049.883.05.049.097.196.245.294.392.148.147.246.245.54.392.295.148.736.393 1.129.59.393.196.687.441.932.637.295.246.54.54.835.884.294.393.54.834.785 1.276.245.442.442.883.638 1.276.245.343.393.687.49.883zm21.79-2.355c-.245.392-.589.981-.883 1.52-.295.492-.491.933-.638 1.179-.098.196-.098.196.54.785.687.589 2.012 1.718 2.65 2.307.687.589.687.638.736.638l.294-.59c.246-.588.786-1.766 1.669-3.19.883-1.423 2.11-3.042 2.797-4.122.688-1.08.786-1.62.982-1.865.245-.245.589-.196.736-.147.147 0 .098 0-.392-.05-.54-.097-1.522-.244-2.16-.392-.687-.098-1.03-.196-1.178-.245-.196-.05-.196-.05-.245 0-.098.049-.245.147-.638.393-.344.196-.884.49-1.423.883-.54.343-.982.736-1.375 1.08-.392.343-.638.687-.883.932-.196.245-.344.49-.589.883z" fill="#C6B532"/><path fill-rule="evenodd" clip-rule="evenodd" d="M91.285 76.118a91.133 91.133 0 01-1.767 1.374c-.196.196.294-.05 5.399-.05 5.055 0 14.674.197 19.385.197 4.663 0 4.417-.245 4.319-.343-.147-.099-.147-.099-.491-.393l-1.717-1.472c-.687-.59-1.325-1.178-1.669-1.424-.343-.294-.343-.294-.442-.245-.098 0-.343.05-1.227.05-.932 0-2.552-.05-5.545-.1-3.043-.048-7.46-.146-9.914-.245-2.454-.049-2.847-.098-3.043-.098-.196 0-.196 0-.393.148l-1.03 1.03c-.54.442-1.129.982-1.865 1.57z" fill="#E8D43F"/><path fill-rule="evenodd" clip-rule="evenodd" d="M89.323 78.326c0 .736.049 2.16.049 2.847v.736s0 .049 1.668.098c1.669.049 4.957.098 10.061.098 5.104.05 12.073.098 15.558.098 3.484 0 3.534 0 3.534-.049.049-.049.098-.196.098-1.03 0-.786 0-2.258-.049-3.043-.049-.786-.099-.884-.393-.884-.294-.049-.883-.049-3.239-.049h-11.19c-4.76 0-10.11-.098-12.858-.098h-3.043c-.098 0-.197 0-.197.05-.049.048-.049.097-.049.195.05.148.05.295.05 1.031z" fill="#F1DB41"/><path fill-rule="evenodd" clip-rule="evenodd" d="M119.701 77.884v2.503c0 .737-.049 1.08-.098 1.227 0 .147 0 .147-.098.147-.049 0-.196.05-.294.05h-8.491c-2.503 0-4.76 0-7.754-.05-3.043 0-6.871-.049-9.227-.098s-3.19-.049-3.583-.098c-.392 0-.392 0-.392-.049v-4.024c0-.197 0-.246.049-.295 0-.049.049-.049.098-.049h.344v-.294c0-.295-.05-.933-.148-1.816-.098-.834-.196-1.914-.294-2.65-.098-.736-.196-1.129-.344-1.57a6.994 6.994 0 00-.589-1.227c-.245-.393-.54-.688-.883-.982-.344-.294-.785-.54-1.276-.736-.49-.197-1.03-.344-1.423-.442-.393-.098-.638-.098-.933-.098-.294 0-.638.049-1.03.196a2.782 2.782 0 00-1.13.785 2.406 2.406 0 00-.588 1.62c-.05.687.147 1.423.442 2.209.343.736.785 1.472 1.276 2.6.441 1.13.834 2.7 1.325 4.123.49 1.423 1.03 2.748 1.62 3.828.588 1.08 1.275 1.914 1.913 2.405.638.54 1.276.736 1.767.883.49.147.884.196 5.693.196 4.81 0 14.086-.049 18.895-.098 4.81-.049 5.153-.049 5.546-.196.393-.098.834-.344 1.423-1.178.589-.834 1.325-2.307 1.816-3.779.491-1.472.687-2.895 1.031-3.877.343-1.03.834-1.62 1.227-2.405a10.77 10.77 0 00.932-2.846c.196-1.08.246-2.16.049-2.945a2.139 2.139 0 00-1.03-1.325c-.344-.196-.54-.245-.737-.245-.196-.05-.294-.05-.588 0-.295 0-.737.098-1.178.196-.393.098-.737.246-1.08.393a4.79 4.79 0 00-1.031.785 6.656 6.656 0 00-1.03 1.374c-.344.54-.638 1.227-.835 1.816a11.058 11.058 0 00-.441 1.718 22.23 22.23 0 00-.246 1.914c-.049.638-.098 1.177-.098 1.472v.294h.196c.197 0 .589 0 .786.05.392-.05.441 0 .441.588z" fill="#FDE742"/><path fill-rule="evenodd" clip-rule="evenodd" d="M91.727 86.08h-.639c-.098 0-.098 0-.981 2.503a610.18 610.18 0 00-3.436 10.11c-.834 2.552-.834 2.651-.736 2.7.099.049.246.098.59.098.343 0 .932-.098 1.275-.197.344-.098.393-.196 1.178-1.914.785-1.717 2.307-5.005 3.436-7.46 1.128-2.502 1.963-4.171 2.306-5.005.344-.835.295-.835-.098-.835h-2.896zm7.165 0h-1.276l-.687 1.865a1284.8 1284.8 0 00-2.749 7.558c-.687 1.963-.736 2.062-.687 2.16.05.098.197.098.491.147.295 0 .736 0 .982-.05.245 0 .245 0 1.129-1.962.883-1.963 2.65-5.84 3.533-7.804.884-1.963.884-1.963.736-1.963h-.687c-.245.05-.442.05-.785.05zm18.945 0h.638c.098 0 .098 0 .981 2.503a611.115 611.115 0 013.436 10.11c.834 2.552.834 2.651.736 2.7-.098.049-.245.098-.589.098s-.932-.098-1.276-.197c-.344-.098-.393-.196-1.178-1.914-.785-1.717-2.307-5.005-3.435-7.46-1.129-2.502-1.963-4.171-2.307-5.005-.344-.835-.294-.835.098-.835h2.896zm-7.166 0h1.276l.687 1.865c.688 1.865 2.062 5.644 2.749 7.558.687 1.963.736 2.062.687 2.16-.049.098-.196.098-.491.147-.294 0-.736 0-.981-.05-.246 0-.246 0-1.129-1.962-.884-1.963-2.65-5.84-3.534-7.804-.883-1.963-.883-1.963-.736-1.963h.687c.295.05.491.05.785.05z" fill="#141515"/></g><defs><clipPath id="clip0_2_17124"><path fill="#fff" d="M0 0h330v163.621H0z"/></clipPath></defs></svg>