<svg width="788" height="396" fill="none" xmlns="http://www.w3.org/2000/svg"><g clip-path="url(#clip0_601_11557)"><path fill-rule="evenodd" clip-rule="evenodd" d="M153.696 329.248c.119 2.732.119 5.939.594 7.72.475 1.782 1.544 2.019 3.326 2.138 1.9.119 4.514 0 5.939.119 1.425.119 1.425.475 1.425 1.425 0 1.069 0 2.732-.356 3.564-.238.95-.713 1.069-1.663 1.425-.95.475-2.257 1.188-2.851 2.494-.593 1.307-.475 2.97.475 4.157.951 1.069 2.732 1.544 5.464 1.663 2.851.119 6.77 0 24.587-.119 17.816-.118 49.53-.356 72.216-1.069 22.686-.831 36.345-2.256 50.598-3.919 14.254-1.663 29.219-3.563 43.116-5.108 13.778-1.544 26.369-2.613 39.315-2.613 12.947 0 26.25 1.307 33.614 2.02 7.364.712 8.789 1.069 16.272 1.187 7.364.119 20.667.119 27.319.119 6.651 0 6.77 0 6.77.95v3.801c0 .95.119.95 7.008.832l27.437-.476 6.889-.118v1.544c0 1.544.119 4.513.238 5.939.118 1.544.237 1.544.475 1.662.237.119.475.238 13.184-.475 12.709-.712 38.008-2.138 63.545-4.751 25.537-2.613 51.312-6.176 66.753-7.839 15.44-1.663 20.667-1.306 23.992-1.069 3.326.238 4.751.356 17.104-.119 12.353-.475 35.514-1.663 47.154-2.138 11.64-.594 11.64-.594 10.571-1.781-1.069-1.188-3.088-3.564-5.226-5.583-2.138-2.138-4.395-3.919-10.333-18.173-5.939-14.253-15.56-40.977-33.852-49.886-18.291-8.908-45.135 0-63.07 5.583-17.935 5.582-26.962 7.839-36.82 16.035-9.74 8.195-20.311 22.211-26.844 30.882-6.533 8.789-9.146 12.233-22.211 14.253-13.065 2.019-36.583 2.732-44.541-5.464-7.958-8.077-.356-25.062-9.621-33.851-9.265-8.79-35.514-9.384-82.668-4.276-47.154 5.107-115.332 16.035-160.704 21.142-45.373 5.226-67.822 4.751-82.788 4.395-14.847-.357-22.092-.594-26.249.475s-5.345 3.207-5.701 5.582c-.119 2.613.118 4.989.118 7.721z" fill="#24231D"/><path d="M468.929 0H0v284.469h468.929V0z" fill="#4AAB3C"/><path fill-rule="evenodd" clip-rule="evenodd" d="M405.858 333.405c48.936-.119 58.913-.119 63.902-.119h4.989l-.119-1.187c-.119-1.188-.475-3.683-.95-9.859-.475-6.295-1.069-16.272-1.307-23.28-.356-6.889-.356-10.69-.356-12.59v-1.901H36.583v2.732c0 2.732-.119 8.077-.119 10.809v2.969c0 .238-.118.832-.118 3.207-.12 2.257-.12 6.414-.238 8.433v2.019h28.387s-.118 0-.118 3.207 0 9.621.118 12.828v3.682c0 .119.12.119 19.48.119 19.479 0 58.319 0 121.745-.238 63.189-.356 151.203-.712 200.138-.831z" fill="#36342B"/><path d="M473.086 294.921H16.154v18.886h456.932v-18.886z" fill="#4F4D3E"/><path d="M450.637 294.921H344.57v53.925h106.067v-53.925z" fill="#4F4D3E"/><path fill-rule="evenodd" clip-rule="evenodd" d="M159.992 332.573l-.594 1.663h-5.583l.713-2.138c.713-2.138 2.019-6.532 5.345-12.352 3.326-5.82 8.671-13.066 13.303-18.292 4.632-5.226 8.433-8.433 11.521-10.927 3.207-2.495 5.702-4.276 7.008-5.108 1.307-.831 1.307-.831 6.414-.831h44.304c3.8 0 3.8 0 5.463.95 1.782.95 5.226 2.732 9.502 5.464 4.276 2.85 9.265 6.532 13.897 11.64 4.632 4.988 8.79 11.402 11.046 16.747 2.257 5.464 2.495 9.978 2.613 12.234l.119 2.257h-5.107l-.119-1.425c-.119-1.426-.475-4.276-1.663-7.958-1.188-3.682-3.326-8.315-5.464-11.997-2.256-3.801-4.632-6.651-8.195-9.977-3.563-3.326-8.433-7.008-11.996-9.383-3.564-2.376-5.702-3.326-6.89-3.801-1.187-.475-1.425-.356-9.264-.475-7.721 0-23.043-.119-30.763-.238H198l-2.375 1.426c-2.376 1.425-7.127 4.276-11.759 8.314-4.632 4.038-9.027 9.146-12.472 13.659-3.325 4.514-5.701 8.433-7.483 12.115-2.019 3.564-3.325 6.889-3.919 8.433z" fill="#24231D"/><path d="M220.449 395.881c28.338 0 51.311-22.334 51.311-49.886 0-27.551-22.973-49.886-51.311-49.886-28.339 0-51.312 22.335-51.312 49.886 0 27.552 22.973 49.886 51.312 49.886z" fill="#24231D"/><path d="M220.449 378.777c18.63 0 33.732-14.677 33.732-32.782 0-18.105-15.102-32.782-33.732-32.782s-33.733 14.677-33.733 32.782c0 18.105 15.103 32.782 33.733 32.782z" fill="#403E32"/><path fill-rule="evenodd" clip-rule="evenodd" d="M220.449 368.8c11.996 0 21.736-9.858 21.736-21.973 0-12.116-9.74-21.974-21.736-21.974s-21.736 9.858-21.736 21.974c0 12.115 9.74 21.973 21.736 21.973z" fill="#737160"/><path d="M679.162 395.881c28.339 0 51.312-22.334 51.312-49.886 0-27.551-22.973-49.886-51.312-49.886-28.338 0-51.311 22.335-51.311 49.886 0 27.552 22.973 49.886 51.311 49.886z" fill="#24231D"/><path d="M679.163 378.777c18.63 0 33.732-14.677 33.732-32.782 0-18.105-15.102-32.782-33.732-32.782s-33.733 14.677-33.733 32.782c0 18.105 15.103 32.782 33.733 32.782z" fill="#403E32"/><path fill-rule="evenodd" clip-rule="evenodd" d="M679.163 368.8c11.996 0 21.736-9.858 21.736-21.973 0-12.116-9.74-21.974-21.736-21.974-11.997 0-21.736 9.858-21.736 21.974 0 12.115 9.739 21.973 21.736 21.973z" fill="#737160"/><path d="M455.032 14.134H12.472v255.369h442.56V14.134z" fill="#4F4D3E"/><path fill-rule="evenodd" clip-rule="evenodd" d="M12.471 269.503V14.134l47.63 20.549V225.2l-47.63 44.303z" fill="#737160"/><path fill-rule="evenodd" clip-rule="evenodd" d="M12.471 269.503l47.63-44.303h350.39l44.541 44.303H12.472z" fill="#36342B"/><path fill-rule="evenodd" clip-rule="evenodd" d="M455.032 269.503V14.134l-44.541 20.549V225.2l44.541 44.303zm0-255.369H12.472L60.1 34.683h350.39l44.541-20.549z" fill="#737160"/><path fill-rule="evenodd" clip-rule="evenodd" d="M744.489 256.438c7.245-3.682 18.054-8.315 23.637-10.571 5.582-2.257 5.701-2.257 5.82-2.257.118 0 .118 0 1.306 3.326 1.188 3.325 3.563 9.858 5.345 16.628 1.782 6.771 2.97 13.66 3.682 17.223.594 3.444.713 3.444.95 3.682l.951.95c.237.238.237.356.356 1.782.237 1.425.594 4.276.713 8.314.118 4.157 0 9.502-.238 14.61-.238 5.107-.713 9.858-1.544 13.778-.832 3.8-1.9 6.77-3.92 9.502-2.019 2.732-4.751 5.345-8.789 7.364-4.039 2.019-9.146 3.444-11.759 4.157-2.613.713-2.613.713-4.276 1.188-1.663.475-4.989 1.544-8.195 2.019-3.207.475-6.533.356-8.196.237-1.663-.118-1.782-.118-1.782-.237v-1.069c0-.95.119-2.969 0-7.127-.118-4.157-.475-10.452-1.663-16.391-1.187-5.82-3.207-11.283-5.463-15.916-2.257-4.632-4.751-8.314-7.483-11.402-2.732-2.97-5.701-5.226-7.483-6.533-1.782-1.307-2.376-1.782-2.732-1.9-.356-.238-.356-.238.238-.713.475-.475 1.425-1.425 4.276-5.107 2.731-3.682 7.364-10.215 11.402-14.847 3.92-4.395 7.602-7.008 14.847-10.69z" fill="#36342B"/><path fill-rule="evenodd" clip-rule="evenodd" d="M749.003 223.062c-2.138-1.188-4.989-2.614-8.196-4.276-3.207-1.663-6.651-3.326-11.165-5.464-4.513-2.138-9.977-4.632-14.372-6.533l-9.62-4.276c-2.02-.95-3.089-1.306-3.92-1.663a27.28 27.28 0 00-2.257-.831 13.4 13.4 0 00-1.781-.475c-.594-.119-1.069-.238-1.545-.238-.475 0-.95-.118-1.187-.118-.238 0-.238-.001 9.739 5.582 9.978 5.582 29.932 16.866 40.622 23.755 10.69 6.889 12.115 9.265 14.609 11.046 2.495 1.782 6.177 2.97 8.433 4.039 2.376 1.069 3.326 1.9 4.395 2.138.95.237 1.901 0 2.376-.119.475-.119.475-.119.237-.95-.237-.832-.712-2.494-.95-3.207-.238-.832-.238-.832-.356-1.069-.119-.238-.357-.594-.594-.95-.238-.357-.475-.594-.95-1.069-.476-.357-1.069-.951-2.257-1.901-1.188-.95-2.97-2.138-4.989-3.563-2.019-1.425-4.394-2.851-6.295-4.038-1.9-1.188-3.444-2.138-4.989-2.97-1.425-.95-2.85-1.781-4.988-2.85z" fill="#fff"/><path fill-rule="evenodd" clip-rule="evenodd" d="M773.827 247.886c1.9-2.257 1.901-2.257 1.663-3.207-.238-.95-.832-2.851-1.307-4.038-.475-1.188-.95-1.782-3.444-3.801-2.494-1.901-7.008-5.226-13.541-9.027-6.532-3.92-14.965-8.315-23.874-12.709a1033.88 1033.88 0 00-24.468-11.165c-5.938-2.613-8.314-3.682-10.214-4.276-1.901-.594-3.207-.594-3.92-.594-.713 0-.713 0-3.444-1.782-2.732-1.781-8.077-5.226-14.61-10.333-6.533-5.108-14.134-11.997-25.893-21.974-11.64-10.096-27.437-23.399-38.484-32.663-11.046-9.265-17.578-14.61-23.517-18.648-5.939-3.92-11.522-6.414-20.43-7.958-8.908-1.544-21.261-2.138-35.633-2.138-14.372 0-30.882.594-39.909 1.069-9.027.475-10.452.95-11.164 1.663-.713.712-.713 1.781-.951 16.866-.237 15.084-.712 44.185-.475 83.143.238 38.959 1.069 87.776 1.544 112.6.475 24.824.475 25.775.713 26.606.356.831.95 1.544 1.663 2.019.712.475 1.544.713 2.138.832.594.118.831.118 10.215.237 9.383.119 27.556.475 50.123.832 22.568.356 49.292.831 62.833 1.069 13.421.237 13.54.237 13.659.237.119 0 .238 0 .356-1.069.119-1.069.357-3.326 1.188-8.671.832-5.344 2.613-13.778 4.751-20.785 2.138-7.008 4.514-12.472 7.721-17.342 3.207-4.87 7.126-9.145 11.283-12.352 4.158-3.326 8.552-5.702 13.422-7.483 4.87-1.782 10.096-2.851 15.916-3.207 5.82-.357 12.234.237 17.46 1.187 5.226.951 9.265 2.376 12.591 3.92 3.325 1.544 5.938 3.207 7.245 4.038l1.306.832 5.227-3.207c5.226-3.207 15.678-9.621 23.636-14.728 7.958-5.108 13.422-8.909 18.173-13.066 4.513-4.038 8.433-8.67 10.452-10.927z" fill="#4AAB3C"/><path fill-rule="evenodd" clip-rule="evenodd" d="M700.661 226.981c4.989 3.326 13.659 10.096 18.173 14.491 4.513 4.395 4.87 6.295 4.632 7.602-.238 1.306-1.069 2.019-2.969 2.138-1.901.118-4.989-.238-22.687-4.158-17.697-3.919-50.004-11.521-80.768-18.647-30.881-7.127-60.219-13.66-75.422-17.579-15.204-3.801-16.154-4.87-16.985-6.295-.832-1.426-1.663-3.089-1.545-4.514.119-1.425 1.188-2.375 1.782-2.969.594-.475.594-.475 25.537 2.732 25.062 3.325 75.067 9.858 101.791 13.54 26.725 3.682 30.169 4.632 33.139 5.82 2.969 1.188 5.345 2.732 7.245 3.563 1.901.832 3.088.832 8.077 4.276z" fill="#509663"/><path fill-rule="evenodd" clip-rule="evenodd" d="M543.401 201.682c9.502 1.663 25.062 4.038 44.898 7.126 19.835 3.089 43.947 7.008 61.407 9.978 17.46 2.85 28.269 4.751 34.683 5.82 6.414 1.069 8.433 1.187 9.739 1.187 1.307 0 1.782-.118 2.257-.356.356-.238.594-.594.713-1.069s0-1.069-.119-1.663c-.119-.594-.475-1.188-2.969-3.563-2.614-2.376-7.483-6.652-20.311-18.054-12.828-11.403-33.614-29.932-48.105-42.641-14.49-12.709-22.686-19.598-28.031-23.755-5.463-4.157-8.195-5.464-11.402-6.889-3.326-1.307-7.127-2.732-13.541-3.563-6.295-.951-15.203-1.426-23.042-1.782-7.84-.356-14.847-.475-18.767-.475s-4.87 0-6.176.356c-1.307.357-2.851 1.069-4.158 2.376-1.306 1.306-2.256 3.088-2.731 4.988-.476 1.782-.476 3.682.118 13.303s2.02 27.081 2.613 36.227c.713 9.146.713 10.096 1.069 11.284a12.805 12.805 0 002.02 4.038c1.069 1.426 2.494 2.613 4.869 3.682 2.138.95 5.464 1.901 14.966 3.445z" fill="#403E32"/><path fill-rule="evenodd" clip-rule="evenodd" d="M533.424 196.812c-3.92-.95-5.345-1.782-6.414-2.732a8.952 8.952 0 01-2.257-3.088c-.475-1.069-.831-2.138-1.663-11.046-.831-8.909-2.256-25.775-2.969-35.277-.713-9.502-.831-11.759-.594-13.54.238-1.663.713-2.732 1.663-3.801.95-1.069 2.138-2.019 3.92-2.494 1.781-.476 3.919-.357 6.77-.238 2.969.119 6.533.238 12.115.475 5.583.238 13.066.475 19.123 1.069 6.176.475 11.046 1.188 14.372 1.9 3.326.713 5.226 1.545 6.176 1.901.951.356.951.356 1.069 2.494.119 2.138.475 6.414 1.426 18.529.95 12.115 2.613 31.832 3.563 42.285.831 10.333.95 11.283.95 11.996 0 .713-.237 1.188-2.375.95-2.138-.237-6.295-1.187-13.066-2.256-6.77-1.069-16.035-2.376-23.874-3.564-7.72-1.425-14.134-2.613-17.935-3.563zm58.557-47.748c.831 10.809 2.494 31.357 3.444 42.285.832 10.927.951 12.115 1.069 13.065.119.95.475 1.663.832 2.138.356.594.831 1.069 1.781 1.425.832.357 2.138.713 7.602 1.544 5.464.832 15.203 2.376 20.073 3.089 4.87.712 4.87.712 5.108-3.089.237-3.8.594-11.402.712-18.41.119-6.889-.118-13.184-.475-17.223-.356-4.038-.831-5.82-2.019-7.601-1.188-1.782-3.326-3.563-8.552-8.077-5.226-4.513-13.659-11.996-18.529-16.154-4.87-4.157-5.939-5.107-7.008-5.82-.95-.712-1.9-1.306-2.613-1.544-.713-.237-1.306-.237-1.663 0-.356.238-.594.713-.594 1.544 0 .832 0 2.02.832 12.828z" fill="#E6E6E6"/><path fill-rule="evenodd" clip-rule="evenodd" d="M630.464 180.896c-.475 4.038-1.069 11.403-1.544 17.341a358.34 358.34 0 00-.831 13.541c-.119 2.85 0 3.919.475 4.87.356.831 1.069 1.544 2.732 2.138 1.663.594 4.276 1.069 6.77 1.069 2.494 0 4.87-.476 6.651-1.426 1.782-1.069 3.207-2.613 4.039-5.82.95-3.207 1.425-7.958 1.781-13.897.357-6.057.713-13.303.713-17.341s-.237-4.632-.95-5.345c-.713-.594-2.019-1.306-4.039-1.781-2.137-.594-5.107-1.069-7.364-1.188-2.256-.238-3.682-.119-4.869.356-1.188.356-1.901 1.069-2.376 1.901-.475.593-.831 1.544-1.188 5.582z" fill="#24231D"/><path fill-rule="evenodd" clip-rule="evenodd" d="M629.395 193.843c.476-5.583.951-10.453 1.188-13.184.238-2.732.356-3.326.475-3.682.119-.476.119-.713.238-.951.119-.237.237-.475.475-.831.237-.238.475-.594.831-.95.238-.238.475-.475.832-.594.356-.119.594-.357.95-.475.356-.119.713-.238 1.069-.238s.713-.119 1.188-.119h1.781c.713 0 1.544.119 2.495.238.95.119 2.138.237 3.207.475.95.238 1.781.356 2.494.594.713.237 1.306.356 2.019.713a7.52 7.52 0 011.663.95l.713.712c.118.119.118.119-1.188-.118-1.307-.357-4.038-.951-6.652-1.188-2.613-.356-5.226-.356-6.651-.119-1.425.119-1.663.356-2.138 1.425-.475 1.069-1.069 2.97-1.663 8.315-.594 5.226-1.188 13.778-1.425 19.717-.238 5.82-.238 9.027 0 11.046.237 2.019.712 2.85 1.425 3.326.713.475 1.544.712 1.901.712.475.119.475.119-.119 0s-1.663-.356-2.376-.594c-.712-.237-1.069-.356-1.306-.475-.357-.119-.594-.356-.832-.475-.237-.237-.475-.356-.594-.594-.237-.237-.356-.475-.475-.712-.118-.238-.237-.476-.237-.832-.119-.356-.119-.831-.119-1.544 0-.594 0-1.425.119-4.989-.119-3.8.237-9.977.712-15.559zM511.807 226.15c.475 1.425 1.544 3.563 2.494 4.87.95 1.188 2.019 1.544 6.176 1.663s11.403.119 15.204.119c3.682-.119 3.919-.238 5.107-1.426 1.188-1.188 3.326-3.326 4.395-4.751 1.069-1.425 1.188-2.019 1.069-2.732-.119-.712-.357-1.544-1.544-2.969-1.188-1.425-3.326-3.445-4.395-4.514-1.188-1.069-1.425-1.069-4.87-1.306-3.444-.119-10.096-.356-13.897-.356-3.682 0-4.513.118-5.345.593a8.695 8.695 0 00-2.731 2.495c-.832 1.187-1.426 2.732-1.782 3.682-.356.95-.356 1.425-.356 2.019 0 .594 0 1.188.475 2.613z" fill="#4F4D3E"/><path fill-rule="evenodd" clip-rule="evenodd" d="M521.784 226.981c.594.713 1.663 1.901 2.138 2.613.594.713.713.713 2.613.832 2.019.119 5.82.356 7.721.356 1.9 0 1.9 0 2.731-.831.832-.832 2.376-2.376 3.089-3.207.831-.832.831-.832.712-.95h-3.682c-3.326 0-9.621 0-12.828-.119-3.207 0-3.325 0-3.325.119.118.237.237.475.831 1.187zm10.452-5.107h-11.758s-.119-.119.712-.95c.832-.832 2.495-2.495 3.326-3.207.831-.832.831-.832 2.613-.832h6.889c1.782 0 1.9 0 2.138.238.238.119.713.356 1.425 1.069.832.712 1.901 1.9 2.495 2.613.594.594.594.713.594.831v.238s-.119.119-1.307.119c-1.307-.119-3.801-.119-7.127-.119z" fill="#24231D"/><path fill-rule="evenodd" clip-rule="evenodd" d="M660.277 245.986c0 1.187 0 2.85.119 3.8.118.951.118 1.069.593 1.188.476.119 1.188.356 3.564.475 2.375 0 6.295 0 8.433-.119 2.138-.118 2.613-.118 2.851-.356.356-.237.593-.475.712-1.782.119-1.187.119-3.325-.119-4.513-.118-1.188-.356-1.425-.712-1.544-.357-.119-.594-.238-2.97-.356-2.375-.119-6.651-.119-9.027 0-2.375 0-2.613.118-2.85.237-.238.119-.357.356-.475.832 0 .356-.119 1.069-.119 2.138z" fill="#403E32"/><path fill-rule="evenodd" clip-rule="evenodd" d="M661.465 245.273c0 1.069 0 2.969.119 3.919.118.951.237 1.069.475 1.188.356.119.831.238 2.019.238 1.306.119 3.326.119 5.345 0 1.9 0 3.801-.119 4.751-.238.95-.119 1.069-.119 1.188-.237.118-.119.237-.238.237-.951 0-.712 0-1.9-.119-2.85 0-.95-.118-1.782-.118-2.257-.119-.475-.238-.594-1.901-.594h-11.165c-.712 0-.712.119-.831.238.119.356 0 .475 0 1.544z" fill="#E6E6E6"/><path fill-rule="evenodd" clip-rule="evenodd" d="M627.614 293.853c4.87-4.633 11.402-10.096 17.816-14.016s12.59-6.414 20.192-7.839c7.483-1.426 16.391-1.663 23.874-1.188 7.483.475 13.659 1.663 18.886 3.444 5.226 1.782 9.502 4.158 12.234 5.939 2.731 1.782 3.8 2.97 4.394 3.564.594.593.594.593 1.901-.238 1.306-.831 3.919-2.376 6.295-3.92 2.375-1.544 4.751-2.969 5.82-3.682l1.188-.712-2.732-2.138c-2.732-2.138-8.077-6.414-16.629-10.334-8.552-3.919-20.429-7.72-32.07-9.264-11.64-1.545-23.161-.951-33.613 2.019-10.453 2.969-19.598 8.433-26.131 14.015-6.533 5.583-10.334 11.284-12.59 16.273-2.257 5.107-3.088 9.621-3.326 12.828-.238 3.207.238 5.226.831 6.295.594.95 1.545.95 3.564-.832 1.9-1.9 5.226-5.582 10.096-10.214z" fill="#5DC94C"/><path fill-rule="evenodd" clip-rule="evenodd" d="M748.884 237.077c2.376 5.108 6.651 14.491 9.146 19.598 2.494 5.108 3.088 5.939 3.801 6.533.594.594 1.306.713 4.157 2.019 2.85 1.307 7.958 3.563 10.927 4.87 2.97 1.307 3.682 1.663 4.157 1.782.357 0 .475-.357-.95-4.989-1.425-4.751-4.276-13.778-6.533-19.242-2.256-5.463-3.919-7.364-5.226-8.67-1.187-1.307-2.019-1.901-4.988-3.564-2.97-1.544-8.077-4.157-11.284-5.345-3.207-1.187-4.395-1.069-4.989-.831-.712.238-.831.713-.712 1.307-.119.712.118 1.425 2.494 6.532z" fill="#24231D"/><path fill-rule="evenodd" clip-rule="evenodd" d="M750.428 236.484c2.02 4.632 6.058 13.659 8.434 18.647 2.375 4.989 3.088 5.939 3.8 6.652.713.713 1.307 1.069 4.039 2.257 2.732 1.187 7.483 3.207 9.858 4.038 2.376.831 2.495.594 1.901-1.663-.594-2.138-1.782-6.295-3.564-10.927-1.781-4.632-4.157-9.74-5.582-12.591-1.544-2.85-2.138-3.444-4.751-4.869a381.382 381.382 0 00-9.977-5.226c-2.851-1.426-4.039-1.782-4.751-1.901-.713-.119-.951 0-1.188.238-.119.356-.238.712 1.781 5.345z" fill="#E6E6E6"/><path fill-rule="evenodd" clip-rule="evenodd" d="M777.865 264.277c.475 1.663.713 2.257.713 2.732.119.475.119.712.119.95 0 .237-.119.356-.238.356-.237.119-.475 0-.831 0-.357-.119-.832-.237-1.426-.475-.593-.237-1.425-.475-2.375-.95-.95-.356-2.138-.832-2.732-1.069-.594-.238-.594-.238-2.138-3.563-1.544-3.326-4.632-9.859-6.77-14.491s-3.207-7.245-3.682-8.789c-.594-1.426-.594-1.782-.357-1.901.238-.119.713 0 2.495.832 1.781.831 4.988 2.494 6.651 3.325 1.663.832 1.663.832 2.138 1.901.475 1.069 1.544 3.088 2.613 5.582 1.188 2.613 2.376 5.583 3.445 8.433a98.4 98.4 0 012.375 7.127z" fill="#E8E4BE"/><path fill-rule="evenodd" clip-rule="evenodd" d="M722.516 286.013c1.188-.713 2.257-1.425 2.85-1.782.594-.356.594-.356 2.614 1.901 2.019 2.257 6.176 6.77 9.502 11.877 3.325 5.108 5.938 10.809 7.839 17.223 1.9 6.414 3.088 13.659 3.682 17.46.594 3.801.713 4.039 3.444 4.157 2.732 0 8.077-.118 12.71-.475 4.632-.356 8.67-.95 11.283-1.425 2.613-.475 3.801-1.069 4.395-1.307.594-.237.594-.237.238.238-.357.475-1.188 1.425-2.02 2.257a25.95 25.95 0 01-2.732 2.375c-.95.713-1.9 1.426-3.444 2.257-1.544.713-3.801 1.663-6.058 2.375-2.256.832-4.632 1.545-6.057 1.901-1.426.475-2.019.594-2.376.713-.356.118-.594.237-1.544.475-.95.237-2.613.712-4.038 1.187-1.544.357-2.851.713-4.276.832-1.425.237-2.732.356-3.801.356h-2.494c-.832 0-1.782-.119-2.495-.119-.593 0-.95-.118-1.069-.118-.118 0-.118 0-.118-.951v-5.107c0-2.257-.119-4.87-.357-7.008-.118-2.138-.237-3.682-.594-5.82-.356-2.138-.712-4.751-1.306-7.008-.475-2.256-1.069-4.157-1.663-6.057-.594-1.901-1.425-3.801-2.257-5.701-.831-1.901-1.9-3.92-2.969-5.939s-2.257-3.92-3.92-5.939c-1.663-2.019-3.801-4.038-5.345-5.583-1.663-1.425-2.732-2.375-3.325-2.731l-.594-.476.475-.237c.475-.238 1.306-.831 2.375-1.425 1.069-.832 2.257-1.544 3.445-2.376z" fill="#403E32"/><path fill-rule="evenodd" clip-rule="evenodd" d="M755.536 329.485c4.157.119 13.065-.356 18.173-.831 5.107-.476 6.295-.951 7.245-2.376 1.069-1.425 1.9-3.801 2.613-6.651.713-2.732 1.188-5.939 1.425-8.196.238-2.257.238-3.682 0-4.632-.237-.95-.594-1.426-1.544-1.901-.95-.475-2.613-1.069-6.176-1.544-3.563-.475-9.146-.95-13.303-1.188-4.157-.237-6.889-.118-8.314 0-1.426.238-1.545.476-1.307.832.237.356.475.594 1.9.831 1.426.238 3.801.475 7.365.713 3.563.238 8.314.475 11.164.713 2.851.237 3.683.356 4.158.475.475.119.475.356.118 1.544-.356 1.188-1.187 3.563-1.662 6.533-.594 2.969-.832 6.77-.951 8.789-.118 2.019-.118 2.376-.118 2.494v.119l-3.089.238c-3.088.237-9.264.712-13.065 1.069-3.801.475-5.464.831-6.533 1.306-1.425.95-2.138 1.544 1.901 1.663z" fill="#24231D"/><path fill-rule="evenodd" clip-rule="evenodd" d="M778.697 311.669c.356-1.069.713-1.663.95-2.02.238-.356.238-.356.238.594 0 .951 0 2.613-.238 4.87-.237 2.138-.712 4.632-1.069 6.058-.356 1.425-.712 1.663-.831 1.544-.238-.119-.238-.594-.238-1.782 0-1.306.238-3.326.357-5.107.118-1.663.475-3.088.831-4.157z" fill="#E8E4BE"/><path fill-rule="evenodd" clip-rule="evenodd" d="M510.263 323.19c21.261.357 63.307.95 84.45 1.307 21.142.356 21.617.475 21.854.475.238 0 .119 0 .119-.119s.119-.475-2.138-1.544c-2.138-1.069-6.651-2.851-8.908-3.801-2.257-.95-2.257-.95-21.023-1.306-18.767-.357-56.3-1.069-75.542-1.426-19.242-.356-20.311-.356-20.786-.356-.594 0-.713 0-.831.119-.119.118-.119.475-.119 1.544v3.563c0 .832.119.95.475.95.475.357 1.188.357 22.449.594zm-21.261-39.077c.237.95.356.95 12.828 1.306 12.352.357 36.939 1.069 54.28 1.426 17.342.356 27.556.356 33.495.237 5.939-.119 7.721-.475 8.671-.713.95-.356.95-.593.119-1.425-.832-.831-2.376-2.019-3.682-3.207-1.307-1.069-2.495-2.138-2.97-2.613-.594-.475-.594-.475-2.613-.594s-6.295-.356-23.161-.594c-16.866-.356-46.561-.712-61.526-.831-15.085-.119-15.441 0-15.679.475-.237.475-.237 1.188-.119 2.494-.118 1.426.119 3.207.357 4.039z" fill="#5DC94C"/><path fill-rule="evenodd" clip-rule="evenodd" d="M486.151 238.621c.237.357.594.357 9.027.713s24.824.95 37.771 2.732c12.946 1.782 22.211 4.632 30.288 8.433 8.076 3.801 14.965 8.552 19.598 12.947 4.751 4.394 7.364 8.433 9.027 10.927 1.663 2.494 2.375 3.563 3.207 4.395a11.593 11.593 0 002.494 1.9c.831.475 1.425.832 1.9.475.357-.356.594-1.544-.356-4.513-.95-2.97-2.969-7.721-8.552-13.422-5.582-5.701-14.728-12.353-23.755-16.866-9.146-4.514-18.173-6.77-28.981-8.314-10.809-1.426-23.518-2.138-32.308-2.495-8.908-.356-14.015-.475-16.628-.475-2.613 0-2.732.119-2.732.356 0 .357-.119.832-.119 1.426-.119.712-.119 1.425.119 1.781z" fill="#3D8C31"/><path fill-rule="evenodd" clip-rule="evenodd" d="M531.048 113.906c9.74.475 23.637 1.307 32.545 2.019 8.908.713 12.828 1.545 16.629 2.732 3.801 1.188 7.364 2.851 10.69 4.751 3.207 1.901 6.057 3.92 13.303 9.978 7.245 5.938 18.766 15.916 26.012 22.211 7.245 6.176 10.096 8.789 11.64 10.214 1.544 1.426 1.663 1.663 1.781 1.901.119.237 0 .594-.119.713-.237.118-.593 0-1.068-.357-.476-.237-.832-.712-8.196-7.126-7.245-6.414-21.38-18.767-30.644-26.369-9.146-7.601-13.541-10.571-18.292-12.828-4.87-2.137-10.215-3.563-20.667-4.632-10.452-1.069-26.131-1.663-36.345-2.019-10.215-.356-14.966-.475-17.579-.356-2.613 0-3.089.237-3.564.594-.475.356-.95.831-1.069 2.494-.237 1.663-.118 4.276-.237 23.755 0 19.479-.119 55.706 0 74.948.119 19.123.356 21.261.594 22.924.237 1.663.356 2.85.95 4.87.594 1.9 1.544 4.632 2.613 7.126.95 2.613 2.019 5.108 2.613 7.602.594 2.494.831 4.988 1.069 7.126.119 2.257.238 4.158.713 13.541s1.425 26.249 1.9 36.227c.475 9.977.356 12.946.594 15.441.119 2.494.475 4.394 1.188 5.701.712 1.306 1.781 2.138 3.563 2.732 1.782.594 4.395.831 11.996.95 7.721.119 20.549.119 34.564.356 14.016.119 29.457.475 37.771.713 8.315.237 9.621.237 10.571.119.95-.119 1.426-.238 1.663-.475.238-.238.238-.594.475-2.376.238-1.782.594-4.989 1.663-9.977 1.069-4.989 2.97-11.878 5.345-17.817 2.376-5.938 5.226-10.927 6.889-13.421 1.663-2.495 2.019-2.495 2.257-2.376.237.119.356.356-.238 1.188-.594.95-1.781 2.494-3.444 5.582-1.782 3.207-4.039 7.958-5.702 12.947-1.781 4.989-2.969 10.096-3.8 14.016-.832 3.919-1.188 6.532-1.426 8.551-.356 2.02-.594 3.564-1.069 4.276-.475.832-1.187.832-15.559.713-14.253-.119-42.166-.594-57.963-.831-15.797-.238-19.361-.357-21.736-.713-2.376-.238-3.563-.713-4.514-1.425-1.069-.832-2.019-1.901-2.613-3.326-.594-1.425-.594-2.969-.712-5.701-.119-2.732-.238-6.652-.713-17.698-.594-11.046-1.544-29.1-2.138-38.84-.594-9.739-.713-10.927-1.069-12.709a49.702 49.702 0 00-1.9-7.008c-.951-3.088-2.495-7.007-3.326-9.858-.832-2.732-1.188-4.276-1.307-7.127-.118-2.85-.237-7.007-.237-21.973s-.119-40.622-.119-58.557c0-17.935.119-28.031.119-33.495 0-5.464.119-6.414.237-7.126a3.142 3.142 0 01.832-1.663c.356-.357.712-.594 1.425-.832.713-.237 1.782-.475 5.107-.475 3.326 0 8.315 0 18.054.475zm121.509 118.301c0 9.146.237 25.893.356 34.327.119 8.433.237 8.433.356 8.433s.475 0 .594-.119.238-.356.119-9.621c0-9.264-.119-27.556-.238-36.821-.118-9.264-.118-9.502-.237-9.62-.119-.119-.475-.119-.594.118-.119.238-.238.594-.238 1.544-.119 1.069-.237 2.613-.118 11.759zm13.184-54.518c3.92 3.326 7.958 6.77 11.996 9.74 3.92 3.088 7.84 5.82 10.69 7.72 2.851 1.9 4.751 2.851 5.583 3.326.95.475.831.475.119 1.069-.713.594-2.138 1.663-2.97 2.257-.831.593-1.188.712-1.544.831-.356.119-.594.119-17.104-13.659-16.51-13.66-49.292-41.097-65.802-54.994-16.51-13.897-16.866-14.253-16.985-14.609-.119-.357-.119-.594.475-1.069s1.663-1.188 2.257-1.425c.594-.357.594-.357 6.295 4.394 5.701 4.633 17.104 14.016 27.319 22.568 10.214 8.552 19.123 16.153 25.537 21.617 6.295 5.582 10.096 8.908 14.134 12.234z" fill="#403E32"/><path fill-rule="evenodd" clip-rule="evenodd" d="M595.425 119.132c-.594.119-1.188.594-1.544.832-.356.237-.237.237-.237.356.118.119.237.356 1.425 1.425 1.188 1.188 3.563 3.207 18.648 15.798 15.084 12.59 42.759 35.87 57.25 48.104 14.491 12.234 15.916 13.303 16.629 13.897.831.594.95.594 1.544.119.475-.475 1.425-1.426 1.781-1.901.475-.475.475-.475-1.425-1.781-1.9-1.307-5.701-4.039-11.403-8.552-5.82-4.514-13.54-10.928-21.261-17.46-7.72-6.533-15.44-13.066-23.874-20.192-8.433-7.127-17.46-14.729-23.042-19.48-5.583-4.632-7.602-6.414-9.265-7.72-1.663-1.307-2.732-2.257-3.563-2.851-.713-.475-1.069-.712-1.663-.594z" fill="#E6E6E6"/><path fill-rule="evenodd" clip-rule="evenodd" d="M346.471 233.039l21.498.356-1.782-40.146-21.379.119 1.663 39.671zm36.463-1.307l21.38-.712-1.663-38.959-21.38.95 1.663 38.721z" fill="#999"/><path fill-rule="evenodd" clip-rule="evenodd" d="M405.74 186.36c-3.207 3.088-5.702 5.582-7.483 7.483-23.043-2.495-49.055-3.564-78.393-3.326 2.732-2.613 7.721-4.87 14.966-6.77 42.284.356 65.921 1.187 70.91 2.613z" fill="#DBA758"/><path fill-rule="evenodd" clip-rule="evenodd" d="M405.383 250.38c-4.751 6.889-6.77 8.79-6.77 8.79-.713-22.33-.831-42.641-.475-65.446a222.755 222.755 0 017.483-7.483c.237 43.354-.238 64.139-.238 64.139z" fill="#DBA758"/><path fill-rule="evenodd" clip-rule="evenodd" d="M398.257 193.843c-.357 19.241-.357 39.552.475 65.445-45.967-.712-79.224-2.732-79.224-2.732-.356-33.851-.238-55.943.356-66.039 26.131-.357 52.262.712 78.393 3.326zm-67.109-6.889c-.356 0-.594-.238-.594-.713 0-.356.238-.713.594-.713 11.284-.356 22.805-.237 34.326.238a604.527 604.527 0 0135.158 2.494c.357 0 .594.357.475.713 0 .356-.237.594-.594.594-11.877-1.188-23.517-2.138-35.039-2.494-11.64-.357-23.042-.357-34.326-.119z" fill="#F7CE66"/><path fill-rule="evenodd" clip-rule="evenodd" d="M352.409 190.754c3.92.119 7.721.238 11.284.475.475-.475-.119 28.626 0 40.266 0 0-11.165-.475-11.64-.475l.356-40.266z" fill="#F7F7F7"/><path fill-rule="evenodd" clip-rule="evenodd" d="M363.693 191.23c-7.483-.357-11.284-.475-11.284-.475 6.77-4.395 10.215-6.652 10.215-6.652 4.87.119 7.364.119 7.364.119-4.157 4.751-6.295 7.008-6.295 7.008z" fill="#E0E0E0"/><path fill-rule="evenodd" clip-rule="evenodd" d="M344.095 154.884c.713 7.364 2.019 20.311 2.732 27.081.713 6.77.713 7.245 3.207 7.602 2.494.356 7.602.712 12.471.593 4.751-.118 9.384-.831 11.759-1.187 2.376-.357 2.732-.475 3.563-7.127.832-6.651 2.138-19.954 2.851-26.606.713-6.651.713-6.651.713-7.364 0-.713 0-2.019-1.188-2.613-1.188-.713-3.682-.713-9.146-.713-5.464-.118-14.015-.237-19.123-.356-5.107-.119-6.889-.119-7.601.832-1.069.831-.951 2.613-.238 9.858z" fill="#FDE742"/><path fill-rule="evenodd" clip-rule="evenodd" d="M340.294 148.114c1.544.475 4.157 1.425 7.839 2.019 3.682.594 8.314.95 12.947.95 4.632 0 9.145-.237 13.065-.712 3.92-.476 7.245-1.307 9.027-1.782 1.782-.475 2.257-.713 2.494-.95.238-.238.357-.475.357-2.02v-5.82c0-1.425 0-1.425-2.257-1.9-2.257-.475-6.77-1.307-13.303-1.663-6.651-.356-15.322-.237-21.023.119-5.702.356-8.552.831-9.978 1.069-1.425.237-1.425.356-1.425 1.9s0 4.751.119 6.295c.237 1.782.594 2.02 2.138 2.495z" fill="#F7CE66"/><path fill-rule="evenodd" clip-rule="evenodd" d="M343.026 140.037c2.019.594 6.295 1.069 11.402 1.307 5.108.356 10.928.475 15.679.356 4.751-.119 8.196-.475 10.215-.713 2.019-.356 2.613-.594 2.613-.831 0-.238-.594-.594-2.613-1.069-2.019-.594-5.464-1.425-11.165-1.782-5.702-.356-13.541-.119-18.648.119-4.989.238-7.127.475-8.314.95-1.069.475-1.188 1.069.831 1.663z" fill="#24231D"/><path fill-rule="evenodd" clip-rule="evenodd" d="M357.754 136.83c-.95-4.395-2.257-13.065-2.375-23.161-.119-10.096.95-21.499 3.444-30.17 2.494-8.67 6.414-14.49 9.977-19.241 3.563-4.751 6.652-8.433 8.196-10.215 1.544-1.782 1.544-1.544 1.188 4.514-.357 6.176-1.188 18.291-2.851 28.03-1.663 9.74-4.157 17.223-6.77 23.637-2.613 6.533-5.226 11.997-6.652 16.985-1.425 4.989-1.663 9.384-1.781 11.64-.119 2.257-.119 2.257-.476 2.257-.356.119-.95.119-1.9-4.276z" fill="#4AAB3C"/><path fill-rule="evenodd" clip-rule="evenodd" d="M358.229 134.692c0-3.801-.119-12.234-2.375-20.192-2.257-8.077-6.533-15.797-11.284-21.499-4.751-5.7-9.859-9.502-13.422-11.758-3.444-2.257-5.226-3.207-6.176-3.207-.95 0-.95.831-.594 3.207.356 2.375 1.069 6.295 2.969 10.69 1.901 4.513 4.87 9.502 8.196 13.659 3.326 4.276 6.77 7.601 9.74 11.165 2.969 3.444 5.226 7.008 7.245 10.333 2.019 3.326 3.563 6.533 4.513 8.552.951 2.019 1.069 2.851 1.188-.95z" fill="#5DC94C"/><path fill-rule="evenodd" clip-rule="evenodd" d="M367.256 122.933c.713-2.375 2.851-7.126 7.127-10.808 4.276-3.682 10.452-6.177 14.966-7.483 4.513-1.426 7.245-1.544 8.552-1.544 1.306 0 1.187.356.712 1.425-.475 1.069-1.306 2.851-2.969 5.464-1.663 2.613-4.276 6.176-7.839 8.908-3.683 2.732-8.315 4.632-11.759 5.582-3.445.951-5.583.832-7.127.832-1.544 0-2.257 0-1.663-2.376z" fill="#4AAB3C"/><path fill-rule="evenodd" clip-rule="evenodd" d="M331.98 89.082a.36.36 0 010-.475c.118-.119.356-.119.475 0 3.207 4.038 6.532 7.958 9.502 12.115 2.969 4.158 5.82 8.315 8.077 12.709 2.256 4.395 4.038 8.909 5.701 13.541 1.544 4.632 2.851 9.383 4.157 14.134 0 .238-.119.357-.237.475-.238 0-.357-.118-.476-.237-1.306-4.751-2.613-9.384-4.157-14.016s-3.325-9.146-5.582-13.54c-2.257-4.395-4.989-8.552-8.077-12.591-2.851-4.038-6.058-8.076-9.383-12.115z" fill="#409133"/><path fill-rule="evenodd" clip-rule="evenodd" d="M370.582 70.91c.118-.238.237-.238.475-.238.237.119.237.237.237.475-1.069 2.613-2.019 5.345-2.969 8.195-.95 2.97-1.901 6.177-2.851 9.978-.831 3.563-1.663 7.483-2.257 11.759-.831 4.869-1.544 10.096-2.256 14.965-1.188 9.027-2.019 17.104-2.732 25.062 0 .238-.238.357-.475.357-.238 0-.357-.238-.357-.476.832-8.076 1.545-16.153 2.732-25.18.594-4.87 1.426-10.096 2.257-14.966a204.583 204.583 0 012.376-11.759c.95-3.8 1.9-7.126 2.85-10.096.95-2.732 2.019-5.464 2.97-8.077zm19.242 38.008c.237-.119.356 0 .475.119.118.237 0 .356-.119.475-4.989 3.088-9.977 6.057-13.778 8.67-1.901 1.307-3.445 2.495-4.87 3.564-1.425 1.069-2.494 2.256-3.563 3.325a16.892 16.892 0 00-2.613 3.326c-.713 1.188-1.307 2.376-1.782 3.682-.95 2.732-1.307 5.939-1.782 9.146 0 .238-.237.356-.475.356-.237 0-.356-.237-.356-.475.475-3.207.831-6.532 1.782-9.264.475-1.426 1.069-2.732 1.9-3.92.713-1.188 1.663-2.375 2.732-3.444 1.069-1.069 2.257-2.257 3.563-3.326a64.436 64.436 0 014.87-3.682c3.92-2.376 8.908-5.464 14.016-8.552z" fill="#409133"/><path fill-rule="evenodd" clip-rule="evenodd" d="M118.064 224.725l-21.143.237 1.426-32.545 21.023.119-1.306 32.189zm-35.871-1.188l-21.023-.594 1.306-31.476 21.143.713-1.426 31.357z" fill="#999"/><path fill-rule="evenodd" clip-rule="evenodd" d="M59.388 186.835c3.207 2.494 5.701 4.514 7.483 6.058 22.568-2.02 48.223-2.851 76.967-2.613-2.732-2.138-7.602-3.92-14.728-5.464-41.572.237-64.733.95-69.722 2.019z" fill="#DBA758"/><path fill-rule="evenodd" clip-rule="evenodd" d="M59.745 239.334c4.75 5.583 7.126 8.314 7.126 8.314a1051.9 1051.9 0 000-54.755 92.437 92.437 0 00-7.483-6.058l.357 52.499z" fill="#DBA758"/><path fill-rule="evenodd" clip-rule="evenodd" d="M66.871 192.893c.594 15.559.594 33.851 0 54.755 51.905-2.613 77.799-3.919 77.799-3.919.118-27.438-.238-45.254-.951-53.45-25.655-.356-51.192.476-76.848 2.614zm65.802-5.464c.356 0 .594-.238.594-.475 0-.357-.238-.594-.475-.594-11.165-.238-22.33-.238-33.733.119-11.402.356-22.805 1.069-34.445 2.019-.356 0-.475.237-.475.594 0 .356.238.475.594.475 11.64-.95 23.043-1.663 34.445-2.019 11.284-.357 22.449-.357 33.495-.119z" fill="#F7CE66"/><path fill-rule="evenodd" clip-rule="evenodd" d="M111.769 190.517c-3.92.119-7.602.238-11.047.356-.475-.356.357 23.162.357 32.545 0 0 10.927-.356 11.521-.356 0 0-.238-10.928-.831-32.545z" fill="#F7F7F7"/><path fill-rule="evenodd" clip-rule="evenodd" d="M100.722 190.873l11.047-.356c-6.771-3.563-10.096-5.464-10.096-5.464-4.87.119-7.246.119-7.246.119 4.276 3.801 6.295 5.701 6.295 5.701z" fill="#E0E0E0"/><path d="M93.673 198.315l-19.489 2.071 1.394 13.111 19.488-2.072-1.393-13.11z" fill="#F7F7F7"/><path fill-rule="evenodd" clip-rule="evenodd" d="M90.151 196.456l-21.498-7.245-.357-69.128 22.211 3.563-.356 72.81z" fill="#DBA758"/><path fill-rule="evenodd" clip-rule="evenodd" d="M90.151 196.456l.356-72.81 24.112-1.306-.831 71.859-23.637 2.257z" fill="#F7CE66"/><path fill-rule="evenodd" clip-rule="evenodd" d="M114.619 122.102l-24.112 2.019-22.21-4.157 23.042-.713 23.28 2.851z" fill="#DBA758"/><path fill-rule="evenodd" clip-rule="evenodd" d="M104.998 122.934l-7.72.593.475 46.323 7.483-.475-.238-46.441z" fill="#F7F7F7"/><path fill-rule="evenodd" clip-rule="evenodd" d="M97.278 123.528l7.72-.594-20.073-3.445h-2.85v1.307l15.203 2.732z" fill="#F7F7F7"/><path fill-rule="evenodd" clip-rule="evenodd" d="M69.96 252.756c-2.495-.119-5.82-.237-8.434-.356-2.613-.119-4.276-.238-5.82-.475-1.544-.119-2.97-.357-3.8-.594-.832-.119-1.188-.238-1.426-.357a1.453 1.453 0 01-.356-.237v3.326l1.306.237c1.307.238 3.801.832 8.79 1.425 4.87.594 12.234 1.188 19.598 1.307 7.364.119 14.847-.238 20.073-.713 5.345-.475 8.433-.95 10.096-1.425 1.663-.356 1.9-.594 1.9-.713.119-.118.119-.118.119-.712v-2.257c0-.594 0-.594-.119-.475-.118.119-.237.237-.593.356-.357.119-.832.238-1.545.357-.712.118-1.662.237-3.207.475-1.544.237-3.563.356-5.582.475-2.02.119-3.92.237-6.176.356-2.257.119-4.633.119-7.246.238H75.304c-1.425-.119-2.85-.119-5.345-.238z" fill="#2B2A29"/><path fill-rule="evenodd" clip-rule="evenodd" d="M81.124 252.875c17.104 0 31.001-.95 31.001-2.257 0-1.306-13.897-2.257-31-2.257-17.104 0-31.001.951-31.001 2.257 0 1.307 13.897 2.257 31 2.257z" fill="#24231D"/><path fill-rule="evenodd" clip-rule="evenodd" d="M54.875 45.373c-.713.356-.713.356-1.9 5.82-1.07 5.463-3.326 16.272-4.514 21.855-1.188 5.582-.95 5.7-.95 5.82 0 .118 0 .118.356.237s.95.475 2.613.95 4.276 1.07 10.927 1.426c6.533.356 17.104.475 25.894.237 8.79-.237 15.678-.713 19.835-1.306 4.039-.476 5.345-.95 5.939-1.188l.594-.238-.713-5.701c-.712-5.701-2.019-17.104-2.732-22.805-.712-5.701-.712-5.701-1.069-5.939-.475-.119-1.306-.475-3.563-.95-2.257-.356-5.701-.713-10.927-1.069-5.226-.238-12.115-.475-18.41-.238-6.296.12-11.878.713-15.441 1.307-3.564.713-5.108 1.425-5.94 1.782z" fill="#FDE742"/><path fill-rule="evenodd" clip-rule="evenodd" d="M67.584 77.323c-3.088.119-6.533.357-9.621.475-3.088.238-5.583.357-7.008.594-1.425.119-1.663.238-1.069.475.594.238 1.9.713 3.92 1.07 2.019.356 4.75.593 7.72.712 3.088.119 6.414.237 9.977.356 3.564.12 7.246.12 11.76 0 4.513-.118 9.976-.356 14.49-.594 4.513-.237 8.314-.712 10.571-.95 2.257-.237 3.207-.475 3.563-.712.357-.238.238-.357-.356-.594-.594-.238-1.544-.357-4.632-.594-3.089-.238-8.196-.475-13.778-.594-5.583-.119-11.403-.119-15.679-.119-4.276.238-6.77.356-9.858.475z" fill="#24231D"/><path fill-rule="evenodd" clip-rule="evenodd" d="M82.075 155.597V80.768l.356-.237c.356-.238.95-.594 1.425-1.307.475-.594.713-1.425.832-1.782l.118-.356h-8.195c-.238 0-.238 0-.238.237.12.238.238.832.594 1.307s.95 1.069 1.307 1.307c.356.356.594.475.712.475l.12.118v170.207h2.73v-16.748c.237-16.628.237-50.123.237-78.392z" fill="#2B2A29"/><path fill-rule="evenodd" clip-rule="evenodd" d="M208.69 157.854c-1.544-6.177-4.039-17.223-5.226-24.587-1.188-7.364-1.188-10.809 0-13.422 1.187-2.613 3.563-4.157 7.72-5.463 4.157-1.188 10.334-2.02 22.092-2.257 11.759-.238 29.219.119 39.909.594 10.69.475 14.728 1.069 17.698 2.494 3.088 1.425 5.107 3.682 5.701 7.127.594 3.563-.356 8.314-1.782 15.441-1.425 7.126-3.325 16.628-4.157 21.379-.95 4.751-.95 4.751-2.138 6.058-1.187 1.306-3.682 4.038-5.938 7.245-2.257 3.326-4.276 7.127-5.82 8.79-1.545 1.544-2.495.95-3.089.594-.475-.357-.475-.357-6.889-.119-6.414.237-19.241.831-27.318.594-8.077-.119-11.403-1.069-13.066-1.544-1.662-.476-1.662-.476-2.138 0-.475.356-1.306 1.187-2.494-.594-1.188-1.782-2.732-5.939-4.513-8.671-1.782-2.732-3.564-3.92-4.87-5.107-1.426-1.307-2.138-2.495-3.682-8.552z" fill="#FDE742"/><path fill-rule="evenodd" clip-rule="evenodd" d="M224.368 179.709c.238.475.238.475-1.425 2.019-1.544 1.544-4.751 4.632-6.295 6.295a174.68 174.68 0 01-1.663 1.782s-.119 0-.594-1.901c-.475-2.019-1.188-6.057-2.257-9.146-1.069-3.088-2.138-5.345-3.326-6.889-1.187-1.544-2.494-2.613-4.157-3.325-1.663-.832-3.801-1.426-5.107-1.782-1.307-.356-1.663-.356-1.782-.356h.119s-.238 0-.119-.119.713-.238 2.97-.713c2.138-.356 5.938-1.069 7.839-1.306 1.9-.238 1.9-.119 2.138.118.119.238.475.594.713.951.356.356.593.594 1.306.95.713.356 1.782.95 2.732 1.425.95.475 1.663 1.069 2.257 1.544.712.594 1.306 1.307 2.019 2.138.713.95 1.306 2.019 1.9 3.088.594 1.069 1.069 2.138 1.544 3.089.713.95 1.069 1.781 1.188 2.138zm52.737-5.702a79.872 79.872 0 00-2.138 3.682c-.712 1.188-1.188 2.257-1.544 2.851-.237.475-.237.475 1.307 1.9 1.663 1.426 4.869 4.158 6.414 5.583 1.662 1.425 1.662 1.544 1.781 1.544l.713-1.425c.594-1.426 1.9-4.276 4.038-7.721 2.138-3.444 5.108-7.364 6.77-9.977 1.663-2.613 1.901-3.92 2.376-4.513.594-.594 1.425-.476 1.782-.357.356 0 .237 0-.951-.119-1.306-.237-3.682-.593-5.226-.95-1.663-.237-2.494-.475-2.85-.594-.475-.118-.475-.118-.594 0-.238.119-.594.357-1.544.951-.832.475-2.138 1.187-3.445 2.138-1.306.831-2.375 1.781-3.326 2.613-.95.831-1.544 1.662-2.138 2.256-.356.594-.831 1.188-1.425 2.138z" fill="#CBB935"/><path fill-rule="evenodd" clip-rule="evenodd" d="M217.361 187.073a228.062 228.062 0 01-4.276 3.326c-.475.475.712-.119 13.065-.119 12.234 0 35.514.475 46.917.475 11.284 0 10.69-.594 10.452-.832-.356-.237-.356-.237-1.188-.95l-4.157-3.563c-1.663-1.425-3.207-2.851-4.038-3.445-.832-.712-.832-.712-1.069-.593-.238 0-.832.118-2.97.118-2.256 0-6.176-.118-13.421-.237-7.364-.119-18.054-.356-23.993-.594-5.939-.119-6.889-.238-7.364-.238-.475 0-.475 0-.95.357l-2.495 2.494c-1.425.95-2.732 2.376-4.513 3.801z" fill="#E9D53D"/><path fill-rule="evenodd" clip-rule="evenodd" d="M212.61 192.418c0 1.781.118 5.226.118 6.889v1.781s0 .119 4.039.238c4.038.119 11.996.238 24.349.238 12.353.118 29.219.237 37.652.237s8.552 0 8.552-.119c.119-.118.237-.475.237-2.494 0-1.9 0-5.464-.118-7.364-.119-1.901-.238-2.138-.951-2.138-.712-.119-2.138-.119-7.839-.119h-27.081c-11.521 0-24.468-.237-31.119-.237h-7.364c-.238 0-.475 0-.475.118-.119.119-.119.238-.119.475.118.238.119.594.119 2.495z" fill="#F3DE3F"/><path fill-rule="evenodd" clip-rule="evenodd" d="M286.132 191.23v6.058c0 1.781-.119 2.613-.238 2.969 0 .356 0 .356-.237.356-.119 0-.475.119-.713.119h-20.548c-6.058 0-11.521 0-18.767-.119-7.364 0-16.628-.118-22.33-.237-5.701-.119-7.72-.119-8.67-.238-.951 0-.951 0-.951-.118v-9.74c0-.475 0-.594.119-.713 0-.119.119-.119.238-.119h.831v-.712c0-.713-.119-2.257-.356-4.395-.238-2.019-.475-4.632-.713-6.414-.237-1.781-.475-2.732-.831-3.801-.357-.95-.832-2.019-1.426-2.969-.593-.95-1.306-1.663-2.138-2.376-.831-.712-1.9-1.306-3.088-1.781-1.187-.475-2.494-.832-3.444-1.069-.95-.238-1.544-.238-2.257-.238-.713 0-1.544.119-2.494.475a6.742 6.742 0 00-2.732 1.901c-.832.95-1.425 2.256-1.425 3.919-.119 1.663.356 3.445 1.069 5.345.831 1.782 1.9 3.564 3.088 6.295 1.069 2.732 2.019 6.533 3.207 9.978 1.187 3.444 2.494 6.651 3.919 9.264 1.426 2.613 3.088 4.632 4.633 5.82 1.544 1.307 3.088 1.782 4.276 2.138 1.187.357 2.137.475 13.778.475 11.64 0 34.088-.118 45.728-.237s12.472-.119 13.422-.475c.95-.238 2.019-.832 3.445-2.851 1.425-2.019 3.207-5.582 4.394-9.146 1.188-3.563 1.663-7.008 2.495-9.383.831-2.494 2.019-3.92 2.969-5.82.95-1.901 1.782-4.276 2.257-6.889.475-2.613.594-5.226.119-7.127-.476-1.781-1.663-2.732-2.495-3.207-.831-.475-1.306-.594-1.781-.594-.475-.118-.713-.118-1.426 0-.712 0-1.781.238-2.85.476-.951.237-1.782.593-2.613.95a11.598 11.598 0 00-2.495 1.9c-.831.832-1.663 1.901-2.494 3.326-.831 1.306-1.544 2.969-2.019 4.395-.475 1.425-.832 2.731-1.069 4.157-.238 1.425-.475 3.088-.594 4.632-.119 1.544-.238 2.851-.238 3.563v.713h.475c.476 0 1.426 0 1.901.119.95-.119 1.069 0 1.069 1.425z" fill="#FDE742"/><path fill-rule="evenodd" clip-rule="evenodd" d="M218.43 211.065h-1.545c-.237 0-.237 0-2.375 6.058s-6.295 18.292-8.314 24.468c-2.02 6.176-2.02 6.414-1.782 6.533.238.118.594.237 1.425.237.832 0 2.257-.237 3.088-.475.832-.237.951-.475 2.851-4.632s5.583-12.115 8.314-18.054c2.732-6.058 4.751-10.096 5.583-12.115.831-2.02.713-2.02-.238-2.02h-3.8c-1.426.119-2.495 0-3.207 0zm17.341.119h-3.088l-1.663 4.514a3104.59 3104.59 0 00-6.652 18.291c-1.663 4.751-1.781 4.989-1.663 5.226.119.238.476.238 1.188.357.713 0 1.782 0 2.376-.119.594 0 .594 0 2.732-4.751 2.138-4.751 6.413-14.134 8.551-18.886 2.138-4.751 2.138-4.751 1.782-4.751h-1.663c-.594.119-1.069.119-1.9.119zm45.847-.119h1.544c.238 0 .238 0 2.376 6.058s6.295 18.292 8.314 24.468c2.019 6.176 2.019 6.414 1.782 6.533-.238.118-.594.237-1.425.237-.832 0-2.257-.237-3.089-.475-.831-.237-.95-.475-2.85-4.632-1.901-4.157-5.583-12.115-8.315-18.054-2.731-6.058-4.751-10.096-5.582-12.115-.832-2.02-.713-2.02.237-2.02h3.801c1.426.119 2.495 0 3.207 0zm-17.341.119h3.088l1.663 4.514a3104.59 3104.59 0 016.652 18.291c1.662 4.751 1.781 4.989 1.662 5.226-.118.238-.475.238-1.187.357-.713 0-1.782 0-2.376-.119-.594 0-.594 0-2.732-4.751-2.138-4.751-6.414-14.134-8.552-18.886-2.138-4.751-2.138-4.751-1.781-4.751h1.663c.712.119 1.187.119 1.9.119z" fill="#2B2A29"/></g><defs><clipPath id="clip0_601_11557"><path fill="#fff" d="M0 0h787.13v396H0z"/></clipPath></defs></svg>