<svg width="880" height="460" fill="none" xmlns="http://www.w3.org/2000/svg"><path d="M841.191 438.579c-.869 10.337-9.498 18.294-19.872 18.323L1.658 459.263 40.479 3.149 856.201.8c11.73-.034 20.971 9.988 19.988 21.676L841.191 438.58z" fill="#4AAB3C"/><mask id="a" style="mask-type:alpha" maskUnits="userSpaceOnUse" x="1" y="0" width="876" height="460"><path d="M841.189 438.579c-.869 10.337-9.498 18.294-19.872 18.323L1.656 459.263 40.477 3.149 856.2.8c11.73-.034 20.971 9.988 19.988 21.676L841.189 438.58z" fill="#4AAB3C"/></mask><g mask="url(#a)"><path fill-rule="evenodd" clip-rule="evenodd" d="M699.95 375.568c.068 1.623.068 3.528.339 4.586.271 1.058.881 1.199 1.898 1.27 1.084.07 2.575 0 3.389.07.813.071.813.283.813.847 0 .635 0 1.623-.203 2.117-.136.564-.407.635-.949.846-.542.282-1.288.706-1.627 1.482-.339.776-.271 1.764.271 2.469.543.635 1.559.917 3.118.988 1.627.07 3.864 0 14.031-.071 10.167-.07 28.264-.211 41.211-.635 12.946-.494 20.74-1.34 28.874-2.328 8.134-.988 16.674-2.117 24.605-3.034 7.862-.917 15.047-1.552 22.435-1.552 7.388 0 14.979.776 19.182 1.2 4.202.423 5.016.635 9.286.705 4.202.071 11.794.071 15.589.071 3.796 0 3.864 0 3.864.564v2.258c0 .564.068.564 3.999.494l15.657-.283 3.932-.07v.917c0 .917.067 2.681.135 3.528.068.917.136.917.271.987.136.071.271.141 7.524-.282 7.252-.423 21.69-1.27 36.263-2.822 14.573-1.552 29.281-3.669 38.092-4.656 8.811-.988 11.791-.776 13.691-.635 1.9.141 2.71.211 9.76-.071s20.27-.988 26.91-1.27c6.64-.353 6.64-.353 6.03-1.058-.61-.706-1.76-2.117-2.98-3.316-1.22-1.27-2.51-2.328-8.54-7.69-6.03-5.433-16.81-15.169-27.25-20.46-10.436-5.291-20.4-6.067-28.059-5.785-7.591.282-12.743 1.623-18.368 6.491-5.558 4.868-11.591 13.193-15.319 18.343-3.728 5.221-5.219 7.267-12.675 8.466-7.456 1.199-20.876 1.623-28.264-.494-7.388-2.116-8.744-6.702-11.794-8.043-3.05-1.411-7.795.424-31.857.776-24.062.283-67.51-.917-95.639-1.622-28.129-.706-41.007-.988-49.48-1.2-8.472-.211-12.607-.352-14.979.283-2.373.634-3.05 1.904-3.254 3.315-.135 1.27 0 2.681.068 4.304z" fill="#2B2923"/><path d="M879.772 180H612.174v168.97h267.598V180z" fill="#BDBDBD"/><path fill-rule="evenodd" clip-rule="evenodd" d="M843.781 378.037c27.925-.07 33.619-.07 36.466-.07h2.847l-.068-.706c-.068-.705-.271-2.187-.542-5.855-.272-3.74-.61-9.666-.746-13.828-.203-4.092-.203-6.35-.203-7.479v-1.129H633.05v1.623c0 1.623-.067 4.797-.067 6.42v1.764c0 .141-.068.494-.068 1.905-.068 1.34-.068 3.81-.136 5.009v1.199h16.2s-.068 0-.068 1.905 0 5.715.068 7.62v2.187c0 .07.068.07 11.116.07 11.116 0 33.28 0 69.475-.141 36.06-.211 86.285-.423 114.211-.494z" fill="#36342B"/><path d="M882.212 355.179H621.459v11.217h260.753v-11.217z" fill="#3F3D2E"/><path d="M869.335 355.179h-60.528v32.03h60.528v-32.03z" fill="#3F3D2E"/><path fill-rule="evenodd" clip-rule="evenodd" d="M703.542 377.544l-.339.987h-3.185l.406-1.27c.407-1.27 1.153-3.88 3.05-7.337 1.898-3.457 4.948-7.761 7.592-10.865 2.643-3.104 4.812-5.009 6.575-6.491 1.83-1.481 3.253-2.539 3.999-3.033.745-.494.745-.494 3.66-.494h25.282c2.169 0 2.169 0 3.118.564 1.017.565 2.982 1.623 5.422 3.246 2.44 1.693 5.287 3.88 7.931 6.914 2.643 2.963 5.015 6.773 6.303 9.947 1.288 3.246 1.424 5.927 1.491 7.267l.068 1.341h-2.914l-.068-.847c-.068-.847-.271-2.54-.949-4.727-.678-2.187-1.898-4.938-3.118-7.126-1.288-2.257-2.643-3.95-4.677-5.926-2.033-1.975-4.812-4.162-6.846-5.573-2.033-1.411-3.253-1.976-3.931-2.258-.678-.282-.813-.212-5.287-.282-4.406 0-13.149-.071-17.555-.141h-4.338l-1.356.846c-1.355.847-4.066 2.54-6.71 4.939-2.643 2.399-5.151 5.432-7.117 8.113-1.898 2.681-3.253 5.009-4.27 7.196-1.22 2.117-1.898 4.092-2.237 5.01z" fill="#737160"/><path d="M737.975 415.147c16.171 0 29.281-13.266 29.281-29.631 0-16.365-13.11-29.632-29.281-29.632-16.172 0-29.282 13.267-29.282 29.632 0 16.365 13.11 29.631 29.282 29.631z" fill="#4F4D3E"/><path d="M737.974 404.988c10.632 0 19.25-8.718 19.25-19.472 0-10.754-8.618-19.472-19.25-19.472-10.631 0-19.249 8.718-19.249 19.472 0 10.754 8.618 19.472 19.249 19.472z" fill="#807E6D"/><path fill-rule="evenodd" clip-rule="evenodd" d="M737.974 399.062c6.846 0 12.404-5.856 12.404-13.052s-5.558-13.052-12.404-13.052-12.404 5.856-12.404 13.052 5.626 13.052 12.404 13.052z" fill="#737160"/><path d="M871.91 188.396H619.359v151.685H871.91V188.396z" fill="#4F4D3E"/><path fill-rule="evenodd" clip-rule="evenodd" d="M619.359 340.081V188.396l27.18 12.205v113.164l-27.18 26.316z" fill="#6A6856"/><path fill-rule="evenodd" clip-rule="evenodd" d="M619.359 340.081l27.18-26.316h199.886l25.485 26.316H619.359z" fill="#403E32"/><path fill-rule="evenodd" clip-rule="evenodd" d="M871.909 340.081V188.396l-25.485 12.205v113.164l25.485 26.316z" fill="#6A6856"/><path fill-rule="evenodd" clip-rule="evenodd" d="M871.91 188.396H619.359l27.18 12.205h199.886l25.485-12.205z" fill="#6A6856"/><path fill-rule="evenodd" clip-rule="evenodd" d="M811.924 316.799l12.268.212-.949-23.917-12.268.07.949 23.635zm20.81-.776l12.268-.494-.949-23.141-12.268.565.949 23.07z" fill="#929293"/><path fill-rule="evenodd" clip-rule="evenodd" d="M845.748 289.002c-1.83 1.834-3.254 3.316-4.271 4.445-13.149-1.482-27.993-2.117-44.735-1.976 1.559-1.552 4.406-2.892 8.541-4.021 24.13.282 37.618.776 40.465 1.552z" fill="#DBB158"/><path fill-rule="evenodd" clip-rule="evenodd" d="M845.611 327.099c-2.711 4.092-3.864 5.221-3.864 5.221-.406-13.263-.474-25.328-.271-38.874a130.56 130.56 0 014.27-4.444c.136 25.751-.135 38.097-.135 38.097z" fill="#DBB158"/><path fill-rule="evenodd" clip-rule="evenodd" d="M841.477 293.517c-.203 11.429-.203 23.494.271 38.874-26.231-.353-45.21-1.623-45.21-1.623-.203-20.107-.135-33.23.204-39.226 14.979-.283 29.891.423 44.735 1.975zm-38.228-4.092c-.203 0-.339-.141-.339-.423 0-.212.136-.423.339-.423 6.439-.212 13.014-.142 19.589.141a331.65 331.65 0 0120.063 1.481c.203 0 .339.212.271.424 0 .211-.136.352-.339.352-6.778-.705-13.421-1.27-19.995-1.481-6.643-.212-13.218-.283-19.589-.071z" fill="#F7CE66"/><path fill-rule="evenodd" clip-rule="evenodd" d="M815.381 291.683c2.237.07 4.406.141 6.439.282.271-.282-.068 17.003 0 23.917 0 0-6.371-.282-6.642-.282-.068 0 0-7.973.203-23.917z" fill="#F9F9F9"/><path fill-rule="evenodd" clip-rule="evenodd" d="M821.82 291.965c-4.27-.212-6.439-.282-6.439-.282 3.863-2.611 5.829-3.951 5.829-3.951 2.779.07 4.202.07 4.202.07-2.44 2.752-3.592 4.163-3.592 4.163z" fill="#E1E2E1"/><path fill-rule="evenodd" clip-rule="evenodd" d="M810.569 270.376c.407 4.374 1.152 12.065 1.559 16.086.407 4.021.407 4.304 1.83 4.515 1.424.212 4.338.424 7.117.353 2.711-.071 5.355-.494 6.711-.705 1.355-.212 1.558-.283 2.033-4.234.474-3.95 1.22-11.852 1.627-15.803.406-3.951.406-3.951.406-4.374 0-.424 0-1.2-.677-1.552-.678-.424-2.102-.424-5.22-.424-3.117-.07-7.998-.141-10.912-.211-2.915-.071-3.932-.071-4.338.494-.543.493-.542 1.481-.136 5.855z" fill="#FDE742"/><path fill-rule="evenodd" clip-rule="evenodd" d="M808.468 266.355c.881.282 2.372.846 4.473 1.199 2.101.353 4.745.565 7.388.565 2.644 0 5.219-.142 7.456-.424a36.478 36.478 0 005.151-1.058c1.017-.282 1.288-.423 1.424-.564.135-.142.203-.283.203-1.2v-3.457c0-.846 0-.846-1.288-1.129-1.288-.282-3.863-.776-7.591-.987-3.796-.212-8.744-.141-11.997.07-3.254.212-4.881.494-5.694.635-.813.141-.813.212-.813 1.129s0 2.822.067 3.739c.068 1.058.339 1.129 1.221 1.482z" fill="#FBD16B"/><path fill-rule="evenodd" clip-rule="evenodd" d="M810.028 261.557c1.152.353 3.592.635 6.506.776a96.04 96.04 0 008.948.212 59.931 59.931 0 005.829-.423c1.152-.212 1.491-.353 1.491-.494 0-.141-.339-.353-1.491-.635-1.153-.353-3.118-.847-6.372-1.058-3.253-.212-7.727-.071-10.641.07-2.847.141-4.067.282-4.745.565-.678.282-.746.635.475.987z" fill="#080902"/><path fill-rule="evenodd" clip-rule="evenodd" d="M818.365 259.652c-.543-2.61-1.288-7.76-1.356-13.757-.068-5.997.542-12.77 1.966-17.92 1.423-5.15 3.66-8.607 5.693-11.429a114.524 114.524 0 014.677-6.068c.881-1.058.881-.917.678 2.681-.203 3.669-.678 10.865-1.627 16.65-.949 5.785-2.372 10.23-3.863 14.04-1.492 3.88-2.983 7.126-3.796 10.089-.813 2.963-.949 5.573-1.017 6.914-.068 1.34-.068 1.34-.271 1.34-.135.071-.474 0-1.084-2.54z" fill="#47B909"/><path fill-rule="evenodd" clip-rule="evenodd" d="M818.634 258.312c0-2.258-.068-7.267-1.356-11.994-1.287-4.797-3.728-9.383-6.439-12.769a33.508 33.508 0 00-7.659-6.985c-1.966-1.341-2.982-1.905-3.525-1.905-.542 0-.542.494-.338 1.905.203 1.411.61 3.739 1.694 6.35 1.085 2.681 2.779 5.644 4.677 8.113 1.898 2.54 3.863 4.515 5.558 6.632 1.694 2.046 2.982 4.162 4.135 6.138 1.152 1.975 2.033 3.88 2.575 5.079.542 1.2.678 1.694.678-.564z" fill="#64C324"/><path fill-rule="evenodd" clip-rule="evenodd" d="M823.854 251.398c.407-1.411 1.627-4.233 4.067-6.42 2.44-2.187 5.965-3.669 8.54-4.445 2.576-.847 4.135-.917 4.881-.917.745 0 .678.211.406.846-.271.635-.745 1.694-1.694 3.246s-2.44 3.668-4.474 5.291c-2.101 1.623-4.744 2.752-6.71 3.316-1.966.564-3.186.494-4.067.494-.881 0-1.355 0-.949-1.411z" fill="#47B909"/><path fill-rule="evenodd" clip-rule="evenodd" d="M803.723 231.291c-.068-.071-.068-.212 0-.282.067-.071.203-.071.271 0 1.83 2.398 3.728 4.727 5.422 7.196 1.695 2.469 3.322 4.938 4.609 7.549 1.288 2.61 2.305 5.291 3.254 8.043.881 2.751 1.627 5.573 2.372 8.395 0 .141-.068.212-.135.282-.136 0-.204-.07-.271-.141-.746-2.822-1.492-5.573-2.373-8.325-.881-2.751-1.898-5.432-3.186-8.043-1.287-2.61-2.846-5.079-4.609-7.478-1.694-2.469-3.524-4.797-5.354-7.196z" fill="#389E00"/><path fill-rule="evenodd" clip-rule="evenodd" d="M825.752 220.496c.068-.141.136-.141.271-.141.136.071.136.141.136.283-.61 1.552-1.152 3.174-1.695 4.868a95.799 95.799 0 00-1.626 5.926c-.475 2.116-.949 4.445-1.288 6.984-.475 2.893-.881 5.997-1.288 8.89a366.796 366.796 0 00-1.559 14.886c0 .141-.136.212-.271.212-.136 0-.203-.141-.203-.282.474-4.798.881-9.595 1.558-14.957.339-2.893.814-5.997 1.288-8.89.407-2.469.881-4.868 1.356-6.984a98.463 98.463 0 011.627-5.997c.542-1.623 1.084-3.245 1.694-4.798zm10.912 22.577c.136-.071.203 0 .271.07.068.142 0 .212-.068.283-2.846 1.834-5.693 3.598-7.862 5.15-1.085.776-1.966 1.481-2.779 2.116-.814.635-1.424 1.341-2.034 1.976a10.03 10.03 0 00-1.491 1.975 12.787 12.787 0 00-1.016 2.187c-.543 1.623-.746 3.528-1.017 5.433 0 .141-.136.212-.271.212-.136 0-.204-.142-.204-.283.271-1.905.475-3.88 1.017-5.503.271-.846.61-1.622 1.085-2.328.406-.705.948-1.411 1.559-2.046.61-.635 1.287-1.34 2.033-1.975a36.735 36.735 0 012.779-2.187c2.304-1.482 5.151-3.246 7.998-5.08z" fill="#389E00"/><path fill-rule="evenodd" clip-rule="evenodd" d="M681.649 311.79l-12.065.211.746-19.331 12.065.071-.746 19.049zm-20.469-.635l-12.065-.353.814-18.696 11.997.423-.746 18.626z" fill="#929293"/><path fill-rule="evenodd" clip-rule="evenodd" d="M648.166 289.355c1.83 1.481 3.253 2.68 4.27 3.598 12.879-1.2 27.519-1.694 43.922-1.552-1.559-1.27-4.338-2.329-8.405-3.246-23.723.141-37.008.494-39.787 1.2z" fill="#DBB158"/><path fill-rule="evenodd" clip-rule="evenodd" d="M648.369 320.538a712.692 712.692 0 004.067 4.939 650.646 650.646 0 000-32.524 53.22 53.22 0 00-4.27-3.599l.203 31.184z" fill="#DBB158"/><path fill-rule="evenodd" clip-rule="evenodd" d="M652.369 292.953c.339 9.242.339 20.107 0 32.524 29.62-1.552 44.397-2.328 44.397-2.328.067-16.298-.136-26.88-.543-31.748-14.573-.212-29.213.282-43.854 1.552z" fill="#F7CE66"/><path fill-rule="evenodd" clip-rule="evenodd" d="M689.986 289.707c.204 0 .339-.141.339-.282 0-.212-.135-.353-.271-.353-6.371-.141-12.743-.141-19.25.071-6.506.212-13.013.635-19.656 1.199-.203 0-.271.141-.271.353s.136.282.339.282c6.642-.564 13.149-.987 19.656-1.199 6.372-.212 12.811-.212 19.114-.071z" fill="#FBD16B"/><path fill-rule="evenodd" clip-rule="evenodd" d="M678.057 291.542c-2.237.07-4.338.141-6.303.211-.272-.211.203 13.758.203 19.331 0 0 6.236-.211 6.575-.211-.068-.071-.204-6.491-.475-19.331z" fill="#F9F9F9"/><path fill-rule="evenodd" clip-rule="evenodd" d="M671.754 291.753l6.304-.211c-3.863-2.117-5.761-3.246-5.761-3.246-2.779.071-4.135.071-4.135.071a399.374 399.374 0 003.592 3.386z" fill="#E1E2E1"/><path d="M667.733 296.171l-11.122 1.23.796 7.787 11.121-1.23-.795-7.787z" fill="#F9F9F9"/><path fill-rule="evenodd" clip-rule="evenodd" d="M665.653 295.069l-12.2-4.374-.271-40.99 12.675 2.116-.204 43.248z" fill="#DBB158"/><path fill-rule="evenodd" clip-rule="evenodd" d="M665.652 295.069l.204-43.248 13.827-.846-.542 42.754-13.489 1.34z" fill="#F7CE66"/><path fill-rule="evenodd" clip-rule="evenodd" d="M679.684 250.904l-13.827 1.199-12.675-2.469 13.217-.494 13.285 1.764z" fill="#DBA757"/><path fill-rule="evenodd" clip-rule="evenodd" d="M674.194 251.398l-4.473.353.271 27.515 4.338-.283-.136-27.585zm-4.473.353l4.473-.353-11.522-2.117-1.627.071.068.776 8.608 1.623z" fill="#F9F9F9"/><path fill-rule="evenodd" clip-rule="evenodd" d="M654.198 328.51c-1.423-.07-3.321-.141-4.812-.211-1.491-.071-2.44-.141-3.321-.282-.882-.071-1.695-.212-2.169-.353-.475-.071-.678-.141-.814-.212a.83.83 0 01-.203-.141v1.975l.745.142c.746.141 2.169.493 5.016.846 2.779.353 6.982.706 11.184.776 4.203.071 8.473-.141 11.455-.423 3.05-.282 4.812-.564 5.761-.847.949-.211 1.085-.352 1.085-.423.068-.071.068-.071.068-.423v-1.341c0-.353 0-.353-.068-.282a.725.725 0 01-.339.212c-.203.07-.474.141-.881.211-.407.071-.949.141-1.83.283-.881.07-2.034.211-3.186.282-1.152.07-2.237.141-3.525.211-1.287.071-2.643.071-4.134.142h-6.982a31.763 31.763 0 00-3.05-.142z" fill="#141515"/><path fill-rule="evenodd" clip-rule="evenodd" d="M660.501 328.581c9.761 0 17.691-.564 17.691-1.34 0-.776-7.93-1.341-17.691-1.341-9.76 0-17.69.565-17.69 1.341s7.93 1.34 17.69 1.34z" fill="#080902"/><path fill-rule="evenodd" clip-rule="evenodd" d="M645.59 205.257c-.406.212-.406.212-1.084 3.457-.61 3.246-1.898 9.666-2.576 12.982-.678 3.316-.61 3.386-.61 3.457 0 .07 0 .07.204.141.203.071.542.282 1.491.564.949.283 2.44.635 6.236.847 3.728.212 9.76.282 14.776.141s8.947-.423 11.319-.776c2.305-.282 3.05-.564 3.389-.705l.339-.142-.407-3.386c-.406-3.387-1.152-10.159-1.559-13.546-.406-3.386-.406-3.386-.61-3.527-.271-.071-.745-.283-2.033-.565-1.288-.212-3.253-.423-6.236-.635-2.982-.141-6.913-.282-10.506-.141-3.592.071-6.778.423-8.811.776-2.034.494-2.915.847-3.322 1.058z" fill="#FDE742"/><path fill-rule="evenodd" clip-rule="evenodd" d="M652.774 224.306c-1.762.071-3.727.212-5.49.282-1.762.142-3.185.212-3.999.353-.813.071-.949.141-.61.282.339.142 1.085.424 2.237.635 1.152.212 2.711.353 4.406.424 1.762.07 3.66.141 5.693.211 2.034.071 4.135.071 6.711 0 2.575-.07 5.693-.211 8.269-.352 2.575-.142 4.744-.424 6.032-.565 1.288-.141 1.83-.282 2.034-.423.203-.141.135-.212-.204-.353-.339-.141-.881-.212-2.643-.353-1.762-.141-4.677-.282-7.863-.352-3.185-.071-6.507-.071-8.947-.071a259.93 259.93 0 01-5.626.282z" fill="#080902"/><path fill-rule="evenodd" clip-rule="evenodd" d="M661.113 270.729v-44.447l.203-.141c.204-.142.542-.353.814-.776.271-.353.406-.847.474-1.059l.068-.211h-4.677c-.136 0-.136 0-.136.141.068.141.136.494.339.776.204.282.543.635.746.776.203.211.339.282.407.282l.067.071v101.1h1.559v-9.948c.068-9.877.068-29.702.136-46.564z" fill="#141515"/><path fill-rule="evenodd" clip-rule="evenodd" d="M733.366 272.069c-.881-3.668-2.305-10.229-2.983-14.604-.677-4.374-.677-6.42 0-7.972.678-1.552 2.034-2.469 4.406-3.245 2.372-.706 5.897-1.2 12.607-1.341 6.711-.141 16.674.071 22.775.353 6.1.282 8.404.635 10.099 1.482 1.762.846 2.915 2.187 3.253 4.233.339 2.116-.203 4.938-1.016 9.171-.814 4.233-1.898 9.877-2.373 12.7-.542 2.822-.542 2.822-1.22 3.598-.677.776-2.101 2.398-3.389 4.303-1.287 1.976-2.44 4.233-3.321 5.221-.881.917-1.423.564-1.762.353-.271-.212-.271-.212-3.931-.071-3.661.141-10.981.494-15.59.353-4.609-.071-6.507-.635-7.456-.917-.949-.282-.949-.282-1.22 0-.271.212-.746.705-1.423-.353-.678-1.058-1.559-3.527-2.576-5.15-1.017-1.623-2.033-2.328-2.779-3.034-.813-.705-1.22-1.411-2.101-5.08z" fill="#FDE742"/><path fill-rule="evenodd" clip-rule="evenodd" d="M742.313 285.121c.136.283.136.283-.813 1.2-.881.917-2.711 2.751-3.593 3.739-.881.988-.948 1.058-.948 1.058s-.068 0-.339-1.128c-.271-1.2-.678-3.599-1.288-5.433-.61-1.834-1.22-3.175-1.898-4.092-.678-.917-1.423-1.552-2.372-1.975-.949-.494-2.169-.847-2.915-1.059-.746-.211-.949-.211-1.017-.211h.068s-.135 0-.068-.071c.068-.07.407-.141 1.695-.423 1.22-.212 3.389-.635 4.473-.776 1.085-.141 1.085-.071 1.22.07.068.141.272.353.407.565.203.211.339.353.746.564.406.212 1.016.565 1.559.847.542.282.949.635 1.287.917.407.353.746.776 1.153 1.27.406.564.745 1.199 1.084 1.834.339.635.61 1.27.881 1.835.339.493.543.987.678 1.269zm30.096-3.386a47.43 47.43 0 00-1.22 2.187c-.407.706-.678 1.341-.881 1.693-.136.282-.136.282.745 1.129.949.847 2.779 2.469 3.661 3.316.948.847.948.917 1.016.917l.407-.846c.339-.847 1.084-2.54 2.304-4.586 1.221-2.046 2.915-4.374 3.864-5.927.949-1.552 1.085-2.328 1.356-2.681.339-.352.813-.282 1.016-.211.204 0 .136 0-.542-.071-.745-.141-2.101-.352-2.982-.564-.949-.141-1.424-.282-1.627-.353-.203-.07-.203-.07-.339 0-.135.071-.339.212-.881.565-.475.282-1.22.705-1.966 1.269-.745.494-1.355 1.059-1.898 1.553-.542.493-.881.987-1.22 1.34-.271.353-.474.706-.813 1.27z" fill="#C6B532"/><path fill-rule="evenodd" clip-rule="evenodd" d="M738.246 289.425a129.518 129.518 0 01-2.44 1.976c-.271.282.406-.071 7.456-.071 6.981 0 20.266.282 26.773.282 6.439 0 6.1-.353 5.965-.494-.204-.141-.204-.141-.678-.564l-2.373-2.117c-.948-.846-1.83-1.693-2.304-2.046-.475-.423-.475-.423-.61-.352-.136 0-.475.07-1.695.07-1.287 0-3.524-.07-7.659-.141-4.202-.07-10.303-.212-13.692-.353-3.389-.07-3.931-.141-4.202-.141-.271 0-.271 0-.542.212l-1.424 1.481c-.745.635-1.559 1.412-2.575 2.258z" fill="#E8D43F"/><path fill-rule="evenodd" clip-rule="evenodd" d="M735.603 292.6c0 1.058.068 3.104.068 4.092v1.058s0 .071 2.304.141c2.305.071 6.846.141 13.895.141 7.05.071 16.674.141 21.487.141 4.812 0 4.88 0 4.88-.07.068-.071.136-.282.136-1.482 0-1.129 0-3.245-.068-4.374-.068-1.129-.136-1.27-.542-1.27-.407-.07-1.22-.07-4.474-.07h-15.454c-6.575 0-13.963-.141-17.759-.141h-4.202c-.136 0-.271 0-.271.07-.068.071-.068.141-.068.282 0 .212 0 .424.068 1.482z" fill="#F1DB41"/><path fill-rule="evenodd" clip-rule="evenodd" d="M777.559 291.965v3.598c0 1.058-.067 1.552-.135 1.764 0 .212 0 .212-.136.212-.067 0-.271.07-.406.07h-11.726c-3.457 0-6.575 0-10.71-.07-4.202 0-9.489-.071-12.743-.142-3.253-.07-4.405-.07-4.948-.141-.542-.07-.542 0-.542-.07v-5.785c0-.283 0-.353.068-.424 0-.07.068-.07.136-.07h.474v-.424c0-.423-.068-1.34-.203-2.61-.136-1.199-.271-2.752-.407-3.81-.136-1.058-.271-1.622-.475-2.257-.203-.565-.474-1.2-.813-1.764-.339-.565-.745-.988-1.22-1.411-.474-.424-1.084-.776-1.762-1.058-.678-.283-1.424-.494-1.966-.635-.542-.142-.881-.142-1.288-.142-.406 0-.881.071-1.423.283a3.836 3.836 0 00-1.559 1.128c-.475.565-.813 1.341-.813 2.329-.068.987.203 2.046.61 3.174.474 1.059 1.084 2.117 1.762 3.74.61 1.622 1.152 3.88 1.83 5.926.678 2.046 1.423 3.951 2.237 5.503.813 1.552 1.762 2.751 2.643 3.457.881.776 1.762 1.058 2.44 1.27.678.212 1.22.282 7.863.282 6.642 0 19.453-.07 26.095-.141 6.643-.071 7.117-.071 7.66-.282.542-.141 1.152-.494 1.965-1.693.814-1.2 1.83-3.316 2.508-5.433.678-2.116.949-4.162 1.424-5.573.474-1.482 1.152-2.329 1.694-3.457a15.935 15.935 0 001.288-4.092c.271-1.553.339-3.105.068-4.233a3.049 3.049 0 00-1.424-1.905c-.474-.283-.745-.353-1.016-.353-.271-.071-.407-.071-.814 0-.406 0-1.016.141-1.626.282-.543.141-1.017.353-1.492.565a6.627 6.627 0 00-1.423 1.128c-.475.494-.949 1.129-1.423 1.976-.475.776-.882 1.764-1.153 2.61a16.504 16.504 0 00-.61 2.469 34.15 34.15 0 00-.339 2.752c-.067.917-.135 1.693-.135 2.116v.424h.271c.271 0 .813 0 1.084.07.475-.07.543 0 .61.847z" fill="#FDE742"/><path fill-rule="evenodd" clip-rule="evenodd" d="M738.857 303.747h-.881c-.135 0-.135 0-1.355 3.598a898.947 898.947 0 00-4.745 14.534c-1.152 3.668-1.152 3.809-1.017 3.88.136.07.339.141.814.141.474 0 1.287-.141 1.762-.282.474-.141.542-.282 1.627-2.752 1.084-2.469 3.185-7.196 4.744-10.723 1.559-3.599 2.712-5.997 3.186-7.197.474-1.199.407-1.199-.136-1.199h-3.999zm9.895 0h-1.762l-.949 2.681a1885.4 1885.4 0 00-3.796 10.865c-.949 2.822-1.016 2.963-.949 3.104.068.141.272.141.678.212.407 0 1.017 0 1.356-.071.339 0 .339 0 1.559-2.822s3.66-8.396 4.88-11.218c1.22-2.822 1.22-2.822 1.017-2.822h-.949c-.339.071-.61.071-1.085.071zm26.231 0h.881c.136 0 .136 0 1.356 3.598a908.915 908.915 0 014.745 14.534c1.152 3.668 1.152 3.809 1.016 3.88-.135.07-.339.141-.813.141-.475 0-1.288-.141-1.762-.282-.475-.141-.543-.282-1.627-2.752-1.085-2.469-3.186-7.196-4.745-10.723-1.559-3.599-2.711-5.997-3.185-7.197-.475-1.199-.407-1.199.135-1.199h3.999zm-9.896 0h1.763l.949 2.681c.948 2.681 2.846 8.113 3.795 10.865.949 2.822 1.017 2.963.949 3.104-.068.141-.271.141-.678.212-.406 0-1.016 0-1.355-.071-.339 0-.339 0-1.559-2.822s-3.66-8.396-4.88-11.218c-1.22-2.822-1.22-2.822-1.017-2.822h.949c.339.071.61.071 1.084.071z" fill="#141515"/><path fill-rule="evenodd" clip-rule="evenodd" d="M592.179 265.79c-.135-.635-.542-1.27-.745-2.116a11.191 11.191 0 01-.271-2.328c0-.494 0-.494-.407-.565-.339 0-1.084-.07-2.033-.353a31.061 31.061 0 01-3.254-1.199c-1.152-.494-2.237-1.129-2.779-1.34-.542-.212-.542-.071-.542.423s.068 1.411 0 2.469c-.068 1.058-.136 2.328-.271 3.104-.136.777-.339 1.2-.339 1.553-.068.352.068.635.542 1.34.475.776 1.22 1.975 2.034 2.752.745.846 1.491 1.34 2.372 1.622.881.353 1.965.494 2.779.424.813-.071 1.288-.353 1.762-1.059.407-.705.814-1.834 1.017-2.681.203-.705.271-1.34.135-2.046z" fill="#FFAF69"/><path fill-rule="evenodd" clip-rule="evenodd" d="M575.708 416.558c.339.635.949 1.694 1.356 2.964.406 1.34.542 2.963.61 3.88.068.988-.068 1.27-.407 1.411-.271.212-.813.282-2.643.282-1.83 0-5.016-.07-6.846-.141-1.83-.071-2.44-.141-2.711-.282-.272-.141-.339-.424-.339-1.058 0-.706-.068-1.764.135-2.893a11.6 11.6 0 011.085-3.175c.474-.988.949-1.764 1.288-2.046.338-.353.542-.282 1.287-.212.746.071 1.966.071 3.05.071 1.017 0 1.831.071 2.373.071.542.07.813.07 1.017.211.203.141.406.353.745.917z" fill="#080902"/><path fill-rule="evenodd" clip-rule="evenodd" d="M571.099 424.178c2.102 0 4.338.071 5.423.071 1.084 0 1.084 0 1.084.282v1.199c0 .353 0 .565-.068.706-.067.141-.135.141-.203.141h-1.288c-1.288 0-3.795-.071-5.829-.071-2.033 0-3.592-.07-4.406-.07-.813 0-.949 0-1.016-.071-.068 0-.136-.07-.136-.141v-.494c0-.353 0-1.058.068-1.34.068-.353.135-.353 1.152-.283 1.085 0 3.118 0 5.219.071z" fill="#FBD16B"/><path fill-rule="evenodd" clip-rule="evenodd" d="M583.978 265.72c.61.776 1.152 1.481 1.762 2.116.61.635 1.288 1.129 1.898 1.411.61.283 1.017.424 1.491.141.475-.211.881-.776 1.288-1.834.407-.988.746-2.469.881-3.175.136-.705.136-.705.61-.282.475.423 1.356 1.27 3.389 2.258 2.034.987 5.152 2.116 7.253 2.822.61.211 2.779 1.058 3.186 1.058 4.338.353 9.15 13.758 10.98 15.804 2.372 2.68 4.813-1.341 5.897.846 1.017 2.187 1.152 3.88 1.017 5.503-.136 1.623-.61 3.175-1.627 4.515-1.017 1.341-2.508 2.47-4.067 2.752-.339.07-.745.07-1.084.07.61 4.304.542 7.902-.407 9.807-.949 1.976-2.779 2.187-4.677 2.328-1.898.141-3.931.212-6.778.283-2.847.07-6.575.211-10.709.211-4.135.071-8.676.071-11.998.071-3.321 0-5.49-.071-6.642-.141-1.152-.071-1.356-.071-1.491-1.059-.136-.987-.204-2.822-.339-4.938-.136-2.046-.339-4.304-.746-6.138-.406-1.905-.949-3.387-1.355-4.163-.407-.776-.746-.776-1.424-.987-.678-.142-1.83-.494-3.185-.918-1.424-.493-3.118-1.128-4.067-1.552-.949-.423-1.22-.635-1.356-.917-.135-.282-.271-.564.068-2.963.271-2.399 1.017-6.844 1.762-10.018.746-3.105 1.627-4.939 2.169-5.927.542-.987.746-1.058 2.169-1.622 1.424-.565 4.135-1.623 6.439-2.822 2.373-1.2 4.406-2.611 5.626-3.528a97.304 97.304 0 011.898-1.411c.203-.212.203-.212.542.212.339.635 1.017 1.481 1.627 2.187z" fill="#E0E0E0"/><path fill-rule="evenodd" clip-rule="evenodd" d="M589.603 268.754c-.339.564-.61.705-.745.776-.204.07-.272.07-.814-.283-.542-.352-1.423-1.058-2.508-2.116-1.016-.988-2.236-2.328-2.846-2.963-.678-.635-.746-.635-1.22-.424-.475.212-1.221.635-1.627.918-.407.282-.407.493-.204 1.34.272.847.814 2.399 1.492 3.88a32.353 32.353 0 002.033 3.74c.61.846.949 1.058 1.423.917.475-.141 1.017-.635 1.695-1.411.678-.776 1.559-1.835 1.966-2.328.474-.494.542-.494 1.287 0 .678.493 2.034 1.552 2.983 2.116.949.564 1.627.706 2.033.635.407 0 .61-.212.61-.917 0-.706-.068-1.905-.135-3.034-.068-1.129 0-2.258 0-2.892 0-.635 0-.777-.136-.988-.135-.212-.474-.423-1.084-.706-.61-.352-1.492-.846-1.966-.987-.475-.142-.475 0-.61.352-.068.424-.271.988-.542 1.835a17.478 17.478 0 01-1.085 2.54z" fill="#BDBDBD"/><path fill-rule="evenodd" clip-rule="evenodd" d="M599.431 280.888c-.136 3.246-.136 6.985-.136 8.96-.067 1.976-.135 2.258-.271 2.399-.135.141-.407.212-2.033.282-1.627.071-4.677.141-7.592.212-2.846.141-5.558.282-6.913.423-1.356.071-1.492.071-1.83-2.187-.339-2.328-.949-6.914-1.763-10.794-.813-3.951-1.762-7.196-2.304-9.101-.543-1.905-.61-2.47-.746-2.822-.135-.353-.203-.565-.271-.565-.068-.07-.203 0-.271.071-.068.07-.203.211-.407.282-.203.071-.542.212-.881.282-.339.071-.61.071-.813.141-.204.071-.271.141-.339.212 0 .141 0 .282.61 2.751.61 2.54 1.83 7.408 2.44 13.123.61 5.715.678 12.346.678 16.297 0 3.951-.068 5.292-.136 6.209-.068.917-.203 1.481-.678 1.693-.474.212-1.22.212-1.626.423-.407.212-.339.706-.339.918 0 .211 0 .211-.271 1.622-.272 1.341-.746 4.092-1.22 8.184-.475 4.092-.882 9.454-1.288 17.991-.407 8.466-.814 20.107-1.627 32.947-.813 12.841-2.101 26.951-2.711 34.218-.61 7.266-.475 7.619-.271 7.76.203.212.474.212 2.508.353 1.965.141 5.693.423 7.523.494 1.898.07 1.966-.141 2.508-3.528.61-3.457 1.695-10.089 2.915-17.496 1.22-7.479 2.508-15.663 3.931-24.2 1.356-8.536 2.847-17.426 3.66-22.294.813-4.868.949-5.714 1.152-6.138.204-.423.339-.494.407.071 0 .564-.068 1.764.203 9.524.272 7.761.949 22.153 1.559 33.794.61 11.641 1.153 20.601 1.356 25.328.271 4.727.271 5.221.271 5.715 0 .564-.068 1.129 1.152.988 1.153-.142 3.593-.988 5.491-1.764 1.965-.776 3.389-1.552 4.202-1.976.746-.423.881-.493.949-.564.068-.071.203-.212.203-3.245.068-3.034.068-9.031.339-19.614.339-10.582.949-25.751 1.152-36.616.204-10.935 0-17.567-.61-24.128-.61-6.562-1.491-12.982-2.236-20.742-.746-7.761-1.22-16.792-1.492-23.212-.271-6.42-.203-10.159-.203-12.205 0-1.976.068-2.258-.068-2.328-.135-.141-.406-.141-.745-.212-.339-.07-.746-.282-1.085-.423-.339-.141-.745-.282-.949-.282-.271 0-.406.141-.406.282-.068.141-.068.211-.068.846-.068.635-.136 1.764-.271 3.74 0 1.904-.204 4.656-.339 7.901z" fill="#101E25"/><path fill-rule="evenodd" clip-rule="evenodd" d="M597.534 339.023c-.542 1.552-1.423 4.162-2.169 5.926-.677 1.764-1.22 2.681-1.559 4.092-.339 1.411-.542 3.316-.881 4.656-.339 1.341-.813 2.046-1.084 2.47-.271.352-.271.352-.339-1.553-.068-1.975-.204-5.855-.271-8.536-.068-2.681-.068-4.092-.136-4.939 0-.846-.068-1.199-.068-1.34 0-.141 0-.141.543-.353.542-.212 1.626-.565 2.575-1.129.949-.494 1.763-1.129 2.373-1.623.61-.493 1.016-.846 1.287-.846.272 0 .407.353.407.776-.068.353-.135.846-.678 2.399zm-4.337-26.528c1.626 0 3.524-.07 4.405-.07.949 0 .949 0 .949.917s.068 2.822.136 4.233c.068 1.411.068 2.328 0 2.822-.068.494-.203.635-1.898.705-1.694.142-4.948.283-7.456.424-2.508.07-4.27.07-5.354 0-1.085-.071-1.424-.212-1.627-.424-.204-.211-.204-.493-.204-1.904s.068-4.022.068-5.362v-1.27h6.1c1.831 0 3.254 0 4.881-.071zm-16.133.071c0-.212-.068-.353-.271-.423-.204 0-.339.07-.407.282-.407 2.892-.881 5.856-1.288 8.96a244.755 244.755 0 00-1.152 10.3c-.339 4.022-.61 8.396-1.017 13.687-.339 4.868-.678 10.512-1.22 17.215-1.084 13.898-2.711 32.171-4.338 50.373v.071c0 .212.136.353.339.353s.339-.141.339-.353v-.071c1.627-18.343 3.253-36.616 4.338-50.373.474-6.632.881-12.276 1.22-17.215.339-5.291.61-9.736.949-13.687.339-3.809.745-7.125 1.152-10.3.475-3.034.949-5.927 1.356-8.819zm30.365 97.572c.068.635.068 1.835.068 2.681 0 .847 0 1.411-.068 1.835 0 .423-.067.705-.406 1.058-.339.353-1.017.846-1.966 1.27-.949.423-2.169.705-3.321.846-1.152.141-2.237.212-3.254.141a24.961 24.961 0 01-2.779-.352c-.813-.141-1.423-.353-1.694-.706-.271-.353-.271-.846-.271-1.481 0-.635.068-1.27.068-1.976 0-.635-.136-1.34-.068-1.764.068-.423.339-.705.813-.705.475 0 1.356.07 2.779.07 1.424 0 3.592-.211 5.084-.493 1.559-.283 2.575-.706 3.253-.988.678-.282 1.085-.353 1.356-.282.135.07.339.211.406.846z" fill="#080902"/><path fill-rule="evenodd" clip-rule="evenodd" d="M579.437 412.89c-.203.776-.542 1.834-.678 2.61-.135.776-.068 1.2-.068 1.552 0 .353-.135.565-.949.776-.881.212-2.507.424-4.609.212-2.101-.212-4.677-.776-6.1-1.27-1.491-.423-1.762-.776-1.966-1.129-.203-.352-.338-.635-.338-1.199 0-.564.135-1.482.271-2.258.135-.776.271-1.552.474-2.046.203-.423.542-.635.949-.564.407.07.949.353 1.83.635.881.282 2.034.635 3.457.846 1.423.212 2.982.353 4.406.283 1.355 0 2.508-.212 3.05 0 .474.211.474.705.271 1.552z" fill="#080902"/><path fill-rule="evenodd" clip-rule="evenodd" d="M589.264 260.57c.475.141 1.017.211 1.356.282.339.141.474.282.542.635.068.352.135.846.203 1.27.068.423.068.635-.068.846-.203.212-.61.424-1.22.494-.61.071-1.491 0-2.507-.282a14.748 14.748 0 01-3.051-1.27c-.949-.494-1.626-.917-1.965-1.199-.339-.212-.339-.212-.339-.494v-2.681c0-.071 0-.282.271-.212.203.071.678.353 1.559.706.949.352 2.372.917 3.321 1.199.881.494 1.356.635 1.898.706z" fill="#FF9E69"/><path fill-rule="evenodd" clip-rule="evenodd" d="M578.419 251.962c.204.071.204.071.407.917.203.777.678 2.399 1.22 3.528.474 1.058 1.085 1.623 2.169 2.469 1.084.847 2.779 1.905 4.202 2.54 1.424.635 2.576.706 3.322.776.745.071 1.152 0 1.965-.352.814-.353 2.034-1.129 3.118-2.188 1.085-1.128 2.101-2.539 2.576-3.598.474-1.058.474-1.693.61-3.104.068-1.411.271-3.528.474-6.208.204-2.611.543-5.786.678-7.691.136-1.904.068-2.61-.271-3.527-.339-.917-1.084-2.046-2.915-3.245-1.83-1.2-4.744-2.399-7.252-2.54-2.508-.212-4.609.635-6.236 1.411-1.627.776-2.643 1.411-3.321 2.187-.678.776-.949 1.552-1.152 2.469-.204.847-.407 1.834-.61 2.752-.204.987-.339 1.975-.61 2.751-.272.776-.61 1.411-.814 1.834-.203.424-.271.635-.339.776-.068.142-.135.212-.339.353-.135.141-.339.424-.474 1.129-.136.635-.136 1.623.068 2.469.203.847.542 1.482 1.016 2.117.475.564.949 1.129 1.424 1.481.474.283.881.424 1.084.494z" fill="#FFAF69"/><path fill-rule="evenodd" clip-rule="evenodd" d="M593.806 254.432c-.407 0-.949.141-1.83.282-.881.141-1.966.211-2.847.211a7.09 7.09 0 01-2.034-.282c-.542-.141-.948-.282-1.22-.352-.271 0-.338.07-.406.282 0 .211.068.423.271.917.203.494.61 1.34 1.152 1.905a4.49 4.49 0 002.237 1.27c.813.211 1.694.141 2.508-.353.813-.423 1.491-1.27 1.965-1.975.475-.706.678-1.2.746-1.482 0-.282-.136-.423-.542-.423z" fill="#080902"/><path fill-rule="evenodd" clip-rule="evenodd" d="M593.332 254.643c0 .071-.136.353-.271.565-.136.211-.407.564-.61.846a4.956 4.956 0 01-.746.635c-.271.141-.474.141-.881.212-.407 0-1.017 0-1.491-.071a19.877 19.877 0 01-1.356-.211c-.339-.071-.542-.141-.745-.353-.136-.141-.271-.423-.407-.635-.068-.212-.136-.494-.136-.635 0-.141 0-.282.068-.353.068-.07.068-.07.339 0 .271.071.678.141 1.288.212.61.07 1.288.141 2.033.07.746 0 1.424-.141 1.966-.211.474-.071.678-.141.881-.141 0-.071.068-.071.068.07z" fill="#F9F9F9"/><path fill-rule="evenodd" clip-rule="evenodd" d="M591.095 247.729c0-.211-.135-.353-.339-.353-.203 0-.339.142-.339.353-.067.494-.067.988.136 1.482.136.282.271.494.475.705.203.212.406.353.542.494.135.071.203.141.339.282.203.141.339.212.406.353.068.071.068.141.136.212 0 .07.068.141.068.211v.142c0 .07-.068.07-.068.141l-.136.141c-.067.07-.203.141-.271.211-.203.141-.406.212-.678.283-.203.07-.271.282-.203.423.068.212.271.282.407.212.271-.071.474-.212.745-.283l.407-.211a.541.541 0 00.271-.282c.068-.142.136-.283.204-.353.067-.141.067-.282.067-.424 0-.141-.067-.282-.135-.423-.068-.141-.136-.282-.204-.353a2.97 2.97 0 00-.474-.423c-.068-.07-.203-.141-.339-.212-.136-.141-.339-.282-.474-.423a2.109 2.109 0 01-.339-.494c-.271-.564-.204-.987-.204-1.411z" fill="#F46F2D"/><path fill-rule="evenodd" clip-rule="evenodd" d="M597.059 243.073c-.339-.282-1.016-.494-1.626-.565a4.312 4.312 0 00-1.627-.07c-.542.07-1.017.141-1.288.282-.271.141-.407.353-.407.565 0 .211.136.352.339.493.271.071.678.071 1.085.071h1.152c.407.071.881.141 1.22.212.339.07.542.141.746.141.271 0 .542-.141.61-.353.135-.212.135-.494-.204-.776zm-9.828-.776a.65.65 0 00-.203-.494c-.135-.071-.407-.141-.813-.071-.407.071-1.085.141-1.763.424a7.028 7.028 0 00-1.762.846c-.407.353-.61.635-.61.917 0 .283.271.494.542.494s.543-.211.881-.494c.407-.211.882-.493 1.356-.635.475-.141.881-.211 1.22-.282.339 0 .61 0 .814-.141.135-.141.271-.353.338-.564z" fill="#211F17"/><path fill-rule="evenodd" clip-rule="evenodd" d="M595.635 246.671c.136.353.136.705.068 1.129a4.825 4.825 0 01-.339 1.058c-.136.282-.339.494-.475.564a.716.716 0 01-.542 0 1.636 1.636 0 01-.542-.635c-.136-.282-.203-.634-.203-1.058 0-.353 0-.776.135-1.129.136-.282.271-.564.475-.635.203-.141.542-.141.813 0 .339.142.474.353.61.706zm-9.014 0c.136.353.136.705.068 1.129a4.772 4.772 0 01-.339 1.058c-.135.282-.339.494-.474.564a.719.719 0 01-.543 0 1.645 1.645 0 01-.542-.635c-.135-.282-.203-.634-.203-1.058 0-.353 0-.776.135-1.129.136-.282.272-.564.475-.635.203-.141.542-.141.813 0 .339.142.543.353.61.706z" fill="#080902"/><path fill-rule="evenodd" clip-rule="evenodd" d="M580.589 247.376c0-.846.068-2.257.203-3.598.136-1.34.407-2.61.678-3.598.271-.987.678-1.693 1.085-1.905.474-.282 1.016-.141 1.83-.07.813 0 1.898-.071 2.711-.423.813-.353 1.423-.918 1.83-1.412.407-.493.542-.917.678-.776.135.071.271.635.746 1.059.474.494 1.287.846 2.507 1.129 1.153.282 2.644.423 3.932.423 1.288 0 2.372-.071 3.185-.423a3.576 3.576 0 001.966-1.482c.475-.706.813-1.693 1.017-2.61.203-.918.203-1.835-.136-2.611-.271-.776-.881-1.34-1.559-1.623-.678-.282-1.288-.282-1.559-.493-.203-.283-.068-.635-.068-1.27s-.067-1.411-.677-2.399c-.543-.988-1.627-2.117-2.847-2.61-1.22-.494-2.644-.283-3.66.07-1.017.353-1.627.917-2.101 1.341-.475.423-.746.705-1.221.635-.406-.071-.948-.635-1.626-.988-.678-.353-1.424-.494-2.644-.494-1.152.071-2.779.282-4.134 1.058-1.356.706-2.44 1.905-3.118 3.104-.678 1.2-.881 2.329-1.017 3.246-.136.917-.136 1.481-.203 1.975-.068.494-.271.776-.543 1.059-.203.282-.474.493-.61 1.693-.135 1.199-.203 3.457-.135 5.009.068 1.552.203 2.54.271 3.034.068.493.068.493.339.423.271 0 .745-.071 1.22.141.474.141.881.494 1.288 1.129.406.635.745 1.481 1.016 2.187.272.705.475 1.27.611 1.482.203.211.338.141.406-.071.339-.141.339-.494.339-1.341z" fill="#403E32"/><path fill-rule="evenodd" clip-rule="evenodd" d="M600.652 291.118c-.271-7.196-.135-7.267-.271-7.267-.136-.07-.475-.141-3.389-.846-2.915-.706-8.337-1.976-11.048-2.611l-2.712-.634.339 7.619c.339 7.62.949 22.929 1.288 30.549.339 7.619.339 7.619.339 8.184v2.257c0 .635.068.847 2.169 2.046 2.101 1.129 6.236 3.246 9.015 4.445 2.779 1.27 4.27 1.693 4.948 1.905.745.212.745.212.745-1.411s0-4.939-.271-13.828c-.339-8.748-.881-23.141-1.152-30.408z" fill="#F7CE66"/><path fill-rule="evenodd" clip-rule="evenodd" d="M589.604 281.241l3.117.776.678 37.957-2.914-.988-.881-37.745z" fill="#FBFBFC"/><path fill-rule="evenodd" clip-rule="evenodd" d="M581.808 311.366c-.068.918 0 1.764.135 2.611.136.846.204 1.764.272 3.104.067 1.411 0 3.316.135 4.233.068.988.271.988.813 1.058.543.071 1.492.283 2.373.353.949.071 1.83.141 3.389.353 1.559.212 3.796.564 4.88.705 1.085.142 1.152 0 1.152-.211v-.776c0-.424.068-1.059.068-5.574s0-12.911-.068-17.073c-.067-4.233-.067-4.304-.271-4.304-.135 0-.406 0-2.44-.141-2.033-.07-5.897-.282-7.795-.353l-1.898-.07v2.187c0 2.187 0 6.491-.135 9.242-.203 2.61-.475 3.739-.61 4.656z" fill="#6A6856"/><path fill-rule="evenodd" clip-rule="evenodd" d="M588.52 297.538c-1.559-.07-3.118-.141-3.864-.211l-.745-.071-.068 3.457c-.068 3.457-.204 10.301-.204 13.758-.067 3.457 0 3.457.068 3.598.068.07.271.282 1.83.564 1.559.282 4.609.635 6.101.776 1.491.141 1.558.141 1.558.141 0-.07 0-.141.068-3.739 0-3.598.068-10.724.068-14.322 0-3.598 0-3.739-.068-3.809 0-.071 0-.071-.813-.071-.813.071-2.372 0-3.931-.071z" fill="#E7E6E5"/><path fill-rule="evenodd" clip-rule="evenodd" d="M586.146 296.339v.423c0 .142.068.142.882.212.813.071 2.44.141 3.253.141.813 0 .881.071.881 0 0 0 .068-.07.068-.141v-.353c0-.07 0-.141-.068-.211l-.813-.071c-.813-.07-2.44-.141-3.254-.212-.813-.07-.813-.07-.881-.07-.068.141-.068.141-.068.282z" fill="#B1B1B1"/><path fill-rule="evenodd" clip-rule="evenodd" d="M586.418 297.115v.847c0 .211.068.211.678.282.678 0 1.898.071 2.643.141h.949c.068 0 .068 0 .068-.212 0-.211-.068-.564-.068-.776v-.211h-.135s-.068.07-.068.141c0 .07-.068.211-.068.353 0 .141 0 .282-.068.352-.068.071-.203.071-.745.071-.61 0-1.695-.071-2.237-.141-.542-.071-.61-.071-.678-.071-.068 0-.068-.07-.068-.211 0-.142-.067-.424-.067-.565v-.141h-.068c0-.07-.068-.07-.068.141z" fill="#929293"/><path fill-rule="evenodd" clip-rule="evenodd" d="M587.298 297.891c-.068.071-.068.282-.068.424 0 .141.068.141.407.141h1.491c.407 0 .407 0 .475-.071v-.282c0-.071 0-.141-.136-.141-.068 0-.271 0-.61-.071-.339 0-.949-.07-1.22-.07-.271-.071-.271-.071-.339.07z" fill="#101E25"/><path fill-rule="evenodd" clip-rule="evenodd" d="M583.435 306.922c-.61.917-1.016 1.481-1.626 1.834-.61.353-1.491.423-3.254-.07-1.762-.424-4.406-1.412-6.371-2.188-1.966-.776-3.254-1.481-3.931-1.904-.678-.424-.678-.565-.678-.918 0-.352.068-.917.406-2.398.339-1.482.949-3.881 1.22-5.08.272-1.199.272-1.199.204-1.199-.068 0-.136-.071-.542-.142a37.615 37.615 0 00-1.831-.564c-.677-.212-1.355-.494-2.168-.776-.814-.353-1.695-.706-2.169-.917l-.475-.212-.136 1.835c-.135 1.834-.474 5.573-.677 8.607-.204 3.033-.407 5.432-.407 6.773 0 1.34.203 1.481 1.22 1.975 1.085.494 2.982 1.341 6.033 2.046 3.05.635 7.184 1.129 9.421 1.482 2.305.282 2.711.494 2.982.635.272.211.475.423.949 1.199.407.776 1.153 2.046 1.695 2.822.61.776 1.017 1.058 1.355 1.199.339.142.543.142.678.142.136 0 .136.07.339.282.204.211.61.494 1.017.705.339.212.678.212.881.141.203-.07.271-.352.339-.564.068-.212.068-.353.068-.635 0-.282.068-.635.068-.917 0-.282-.136-.565-.272-.776a4.684 4.684 0 00-.813-.847c-.271-.282-.61-.635-.746-.846-.135-.212-.203-.283-.067-.283.135 0 .406.071.745.141.271.071.61.071.814-.141.203-.141.271-.494.271-.776 0-.282-.136-.494-.339-.776-.271-.282-.61-.635-1.017-1.481-.407-.776-.813-2.046-1.084-3.034-.271-.988-.475-1.834-.543-2.328-.067-.565-.067-.847.272-1.411.271-.494.881-1.27 1.152-1.764.339-.494.406-.776.406-1.199 0-.353-.067-.847-.135-1.059-.068-.211-.203-.141-.407-.07-.203.07-.406.211-.949.846-.474.635-1.288 1.764-1.898 2.611z" fill="#FFAF69"/><path fill-rule="evenodd" clip-rule="evenodd" d="M567.169 294.293c1.017.353 1.559.564 1.898.635.271.071.271.071.271.141v.282c0 .071-.068.212-.339.353a4.354 4.354 0 01-1.491.423c-.678.071-1.491.071-2.237 0-.746-.07-1.288-.211-1.83-.352s-1.017-.353-1.288-.424c-.271-.07-.271-.07-.203-.564.068-.494.135-1.482.203-1.905.068-.494.068-.494.271-.353.204.071.61.283 1.491.635.882.212 2.305.776 3.254 1.129z" fill="#FF9E69"/><path fill-rule="evenodd" clip-rule="evenodd" d="M600.787 229.457c0 .282.272.846.204 1.763-.068.917-.543 2.117-1.356 3.105-.813.987-1.966 1.834-3.186 2.187-1.22.352-2.575.211-3.66.07-1.084-.141-1.965-.423-2.304-.423-.339 0-.136.212.203.423.339.212.746.424 1.491.635a12.98 12.98 0 002.576.494c.881.141 1.694.141 2.508.141.813 0 1.627 0 2.372-.212.746-.211 1.356-.705 1.83-1.058.407-.423.678-.705.881-1.129.204-.352.407-.846.543-1.34.135-.494.203-1.058.271-1.552.067-.494 0-.917-.068-1.27s-.203-.635-.339-.917c-.136-.212-.271-.424-.474-.635-.204-.212-.543-.424-.814-.565-.406.141-.678 0-.678.283z" fill="#4F4D3E"/><path fill-rule="evenodd" clip-rule="evenodd" d="M601.465 314.824c.135 5.432.339 13.263.406 17.214.068 3.951.068 3.951.068 4.092v.706c0 .141.068.07 4.745-.918 4.745-.987 14.166-2.892 18.843-3.88 4.745-.988 4.745-1.058 4.745-1.199 0-.141 0-.212-.272-8.678a5604.83 5604.83 0 01-.948-33.794l-.272-8.396-4.744.635-18.979 2.54-4.745.635.136 3.316c.136 3.316.339 9.877.542 14.675.204 4.797.339 7.69.475 13.052z" fill="#DBB158"/><path fill-rule="evenodd" clip-rule="evenodd" d="M591.027 281.594c-2.847-.706-5.354-1.27-6.575-1.552l-1.22-.282 4.677-.424c4.677-.423 14.099-1.27 18.776-1.693 4.676-.423 4.676-.423 4.812-.423.136 0 .339.07 3.253.564 2.915.494 8.473 1.411 11.252 1.834l2.779.424-1.423.211c-1.424.212-4.338.565-9.083 1.2s-11.387 1.481-14.708 1.975l-3.322.424-1.626-.353c-1.492-.424-4.745-1.2-7.592-1.905z" fill="#FBD16B"/><path fill-rule="evenodd" clip-rule="evenodd" d="M592.924 265.861l24.062.141.203 15.239-24.13.917-.135-16.297z" fill="#DBB158"/><path fill-rule="evenodd" clip-rule="evenodd" d="M590.553 265.932l2.372-.071.136 16.297-2.373-1.27-.135-14.956z" fill="#F7CE66"/><path fill-rule="evenodd" clip-rule="evenodd" d="M606.278 265.932h-4.067v11.782h3.999l.068-11.782zm9.896 15.803l-4.338.564 1.423 44.024 4.203-.776-1.288-43.812z" fill="#FBFBFC"/><path fill-rule="evenodd" clip-rule="evenodd" d="M608.922 281.594l5.151-.212 2.101.353-4.338.564-2.914-.705zm-16.201.423l-3.117-.776 2.304-.423 1.017 1.129-.204.07z" fill="#FBFBFC"/><path d="M614.344 268.471h-5.897v3.951h5.897v-3.951z" fill="#FBFBFC"/><path fill-rule="evenodd" clip-rule="evenodd" d="M619.088 284.839l6.914-1.058v4.727l-6.914 1.058v-4.727z" fill="#FBFBFC"/><path fill-rule="evenodd" clip-rule="evenodd" d="M605.601 416.982c.339.635.949 1.693 1.355 2.963.407 1.34.543 2.963.61 3.88.068.988-.067 1.27-.406 1.411-.271.212-.814.282-2.644.282s-5.016-.07-6.846-.141c-1.83-.07-2.44-.141-2.711-.282-.271-.141-.339-.423-.339-1.058 0-.706-.068-1.764.136-2.893a11.61 11.61 0 011.084-3.175c.475-.987.949-1.763 1.288-2.046.339-.352.542-.282 1.288-.211.746.07 1.966.07 3.05.07 1.017 0 1.83.071 2.372.071.543.07.814.07 1.017.212.271.141.407.282.746.917z" fill="#080902"/><path fill-rule="evenodd" clip-rule="evenodd" d="M601.058 424.531c2.102 0 4.338.07 5.423.07 1.084 0 1.084 0 1.084.283v1.199c0 .353 0 .564-.068.705-.067.141-.135.142-.203.142h-1.288c-1.288 0-3.795-.071-5.829-.071-2.033 0-3.592-.071-4.406-.071-.813 0-.949 0-1.016-.07-.068 0-.136-.071-.136-.141v-.494c0-.353 0-1.058.068-1.341.068-.352.135-.352 1.152-.282 1.085 0 3.118.071 5.219.071z" fill="#FBD16B"/><path fill-rule="evenodd" clip-rule="evenodd" d="M579.505 227.34c.271.564.068 2.046.203 3.245.136 1.2.678 2.117 1.491 2.822a5.622 5.622 0 002.711 1.27c.882.212 1.627.071 2.237-.141.61-.212 1.153-.635 1.491-.635.339 0 .475.282.339.635-.135.353-.542.847-1.491 1.27-.949.423-2.508.847-3.999.776a6.428 6.428 0 01-3.931-1.623 5.064 5.064 0 01-1.559-3.386c-.068-1.27.271-2.681.881-3.598.61-.847 1.356-1.199 1.627-.635z" fill="#4F4D3E"/></g></svg>