<svg width="350" height="177" fill="none" xmlns="http://www.w3.org/2000/svg"><g clip-path="url(#clip0_601_12497)"><path fill-rule="evenodd" clip-rule="evenodd" d="M68.341 146.401c.053 1.215.053 2.641.265 3.433.21.792.686.898 1.478.951.845.052 2.007 0 2.641.052.634.053.634.212.634.634 0 .475 0 1.215-.159 1.585-.105.422-.317.475-.739.633-.422.212-1.003.528-1.267 1.109-.265.581-.212 1.321.21 1.849.423.475 1.216.687 2.43.739 1.268.053 3.01 0 10.933-.052 7.922-.053 22.023-.159 32.111-.476 10.087-.37 16.161-1.003 22.499-1.743 6.337-.739 12.992-1.584 19.171-2.271 6.127-.686 11.725-1.162 17.482-1.162s11.672.581 14.946.898c3.275.317 3.908.476 7.236.528 3.274.053 9.189.053 12.147.053s3.01 0 3.01.423v1.69c0 .422.053.422 3.116.369l12.201-.211 3.063-.053v.687c0 .687.053 2.007.105 2.641.053.686.106.686.212.739.105.053.211.106 5.862-.211s16.901-.951 28.256-2.113 22.815-2.746 29.681-3.485c6.866-.74 9.19-.581 10.669-.476 1.479.106 2.112.159 7.605-.053 5.493-.211 15.791-.739 20.967-.95 5.176-.264 5.176-.264 4.701-.792-.476-.529-1.373-1.585-2.324-2.483-.951-.95-1.954-1.743-4.595-8.08-2.641-6.338-6.919-18.221-15.052-22.182-8.133-3.961-20.069 0-28.044 2.482-7.975 2.482-11.989 3.486-16.373 7.13-4.331 3.644-9.031 9.876-11.936 13.732-2.905 3.908-4.067 5.439-9.876 6.337-5.81.898-16.267 1.215-19.805-2.429-3.539-3.592-.159-11.144-4.278-15.052-4.12-3.909-15.792-4.173-36.759-1.902s-51.283 7.13-71.458 9.401c-20.175 2.324-30.157 2.113-36.811 1.955-6.602-.159-9.824-.265-11.672.211-1.849.475-2.377 1.426-2.535 2.482-.053 1.162.052 2.218.052 3.433z" fill="#24231D"/><path d="M208.511 0H0v126.49h208.511V0z" fill="#4AAB3C"/><path fill-rule="evenodd" clip-rule="evenodd" d="M180.466 148.249c21.76-.052 26.196-.052 28.414-.052h2.218l-.052-.528c-.053-.529-.212-1.638-.423-4.384-.211-2.799-.475-7.236-.581-10.352-.158-3.063-.158-4.753-.158-5.598v-.845H16.267v1.215c0 1.214-.053 3.591-.053 4.806v1.32c0 .106-.053.37-.053 1.426-.053 1.004-.053 2.852-.106 3.75v.898h12.623s-.053 0-.053 1.426 0 4.278.053 5.704v1.637c0 .053.053.053 8.662.053 8.661 0 25.931 0 54.134-.106 28.097-.158 67.233-.317 88.992-.37z" fill="#36342B"/><path d="M210.359 131.138H7.183v8.397h203.176v-8.397z" fill="#4F4D3E"/><path d="M200.377 131.138h-47.163v23.977h47.163v-23.977z" fill="#4F4D3E"/><path fill-rule="evenodd" clip-rule="evenodd" d="M71.14 147.88l-.263.739h-2.482l.316-.95c.317-.951.898-2.905 2.377-5.493 1.479-2.588 3.856-5.81 5.915-8.133 2.06-2.324 3.75-3.75 5.123-4.859 1.426-1.109 2.535-1.902 3.116-2.271.581-.37.581-.37 2.852-.37h19.7c1.69 0 1.69 0 2.429.422.793.423 2.324 1.215 4.226 2.43 1.901 1.267 4.119 2.905 6.179 5.176 2.06 2.218 3.908 5.07 4.912 7.447 1.003 2.429 1.109 4.436 1.161 5.439l.053 1.004h-2.271l-.053-.634c-.052-.634-.211-1.901-.739-3.538-.528-1.638-1.479-3.697-2.429-5.335-1.004-1.69-2.06-2.957-3.645-4.436-1.584-1.479-3.749-3.116-5.334-4.172-1.584-1.057-2.535-1.479-3.063-1.69-.528-.212-.634-.159-4.12-.212-3.432 0-10.245-.053-13.678-.105h-3.38l-1.057.633c-1.056.634-3.169 1.902-5.228 3.697-2.06 1.796-4.014 4.067-5.546 6.074-1.479 2.007-2.535 3.75-3.327 5.387a27.96 27.96 0 00-1.743 3.75z" fill="#24231D"/><path d="M98.023 176.03c12.601 0 22.816-9.931 22.816-22.182s-10.215-22.182-22.816-22.182c-12.6 0-22.816 9.931-22.816 22.182s10.216 22.182 22.816 22.182z" fill="#24231D"/><path d="M98.023 168.425c8.284 0 14.999-6.527 14.999-14.577 0-8.051-6.715-14.577-14.999-14.577s-15 6.526-15 14.577c0 8.05 6.716 14.577 15 14.577z" fill="#403E32"/><path fill-rule="evenodd" clip-rule="evenodd" d="M98.023 163.988c5.334 0 9.665-4.383 9.665-9.77s-4.331-9.771-9.665-9.771c-5.334 0-9.665 4.384-9.665 9.771 0 5.387 4.33 9.77 9.665 9.77z" fill="#737160"/><path d="M301.992 176.03c12.601 0 22.816-9.931 22.816-22.182s-10.215-22.182-22.816-22.182c-12.601 0-22.816 9.931-22.816 22.182s10.215 22.182 22.816 22.182z" fill="#24231D"/><path d="M301.992 168.425c8.284 0 14.999-6.527 14.999-14.577 0-8.051-6.715-14.577-14.999-14.577s-14.999 6.526-14.999 14.577c0 8.05 6.715 14.577 14.999 14.577z" fill="#403E32"/><path fill-rule="evenodd" clip-rule="evenodd" d="M301.992 163.988c5.334 0 9.665-4.383 9.665-9.77s-4.331-9.771-9.665-9.771c-5.334 0-9.665 4.384-9.665 9.771 0 5.387 4.331 9.77 9.665 9.77z" fill="#737160"/><path d="M202.331 6.285H5.545v113.551h196.786V6.285z" fill="#4F4D3E"/><path fill-rule="evenodd" clip-rule="evenodd" d="M5.545 119.836V6.285l21.179 9.137v84.714l-21.179 19.7z" fill="#737160"/><path fill-rule="evenodd" clip-rule="evenodd" d="M5.545 119.835l21.179-19.699h155.802l19.805 19.699H5.545z" fill="#36342B"/><path fill-rule="evenodd" clip-rule="evenodd" d="M202.331 119.836V6.285l-19.805 9.137v84.714l19.805 19.7z" fill="#737160"/><path fill-rule="evenodd" clip-rule="evenodd" d="M202.331 6.285H5.545l21.179 9.137h155.802l19.805-9.137z" fill="#737160"/><path fill-rule="evenodd" clip-rule="evenodd" d="M331.04 114.026c3.221-1.637 8.027-3.697 10.51-4.701 2.482-1.003 2.535-1.003 2.588-1.003.052 0 .052 0 .581 1.479.528 1.479 1.584 4.383 2.376 7.394.792 3.01 1.321 6.073 1.637 7.658.265 1.531.317 1.531.423 1.637l.423.423c.105.105.105.158.158.792.106.634.264 1.901.317 3.697.053 1.848 0 4.225-.106 6.496-.105 2.271-.317 4.384-.686 6.126-.37 1.691-.845 3.011-1.743 4.226a10.685 10.685 0 01-3.909 3.274c-1.795.898-4.066 1.532-5.228 1.849-1.162.316-1.162.316-1.901.528-.74.211-2.219.686-3.645.898-1.426.211-2.904.158-3.644.105-.739-.053-.792-.053-.792-.105v-.476c0-.422.053-1.32 0-3.169-.053-1.848-.211-4.647-.739-7.288-.529-2.588-1.426-5.017-2.43-7.077-1.003-2.06-2.112-3.697-3.327-5.07-1.215-1.321-2.535-2.324-3.327-2.905-.793-.581-1.057-.792-1.215-.845-.159-.106-.159-.106.105-.317.212-.211.634-.634 1.902-2.271 1.214-1.637 3.274-4.542 5.07-6.602 1.743-1.954 3.38-3.116 6.602-4.753z" fill="#36342B"/><path fill-rule="evenodd" clip-rule="evenodd" d="M333.047 99.185c-.951-.528-2.219-1.162-3.645-1.901-1.426-.74-2.957-1.48-4.964-2.43-2.007-.95-4.437-2.06-6.391-2.904l-4.278-1.902c-.897-.422-1.373-.58-1.742-.74-.37-.158-.687-.263-1.004-.369a5.98 5.98 0 00-.792-.211c-.264-.053-.476-.106-.687-.106-.211 0-.422-.053-.528-.053-.106 0-.106 0 4.331 2.483 4.436 2.482 13.309 7.5 18.062 10.562 4.754 3.064 5.387 4.12 6.496 4.912 1.11.792 2.747 1.321 3.75 1.796 1.057.475 1.479.845 1.954.951.423.105.845 0 1.057-.053.211-.053.211-.053.105-.423a48.987 48.987 0 00-.422-1.426c-.106-.369-.106-.369-.159-.475-.052-.106-.158-.264-.264-.423-.105-.158-.211-.264-.422-.475-.211-.158-.476-.422-1.004-.845s-1.32-.951-2.218-1.584c-.898-.634-1.954-1.268-2.799-1.796s-1.532-.951-2.218-1.32a19.396 19.396 0 00-2.218-1.268z" fill="#fff"/><path fill-rule="evenodd" clip-rule="evenodd" d="M344.085 110.223c.845-1.003.845-1.003.739-1.426a17.121 17.121 0 00-.581-1.795c-.211-.529-.422-.793-1.531-1.69a57.136 57.136 0 00-6.021-4.014c-2.905-1.743-6.655-3.697-10.616-5.651a459.722 459.722 0 00-10.88-4.965c-2.64-1.162-3.697-1.637-4.542-1.901-.845-.264-1.426-.264-1.742-.264-.317 0-.317 0-1.532-.793-1.215-.792-3.591-2.323-6.496-4.595-2.905-2.27-6.285-5.334-11.514-9.77-5.175-4.49-12.2-10.404-17.111-14.524-4.912-4.12-7.817-6.496-10.458-8.292-2.64-1.743-5.123-2.852-9.084-3.538-3.961-.687-9.454-.951-15.844-.951-6.391 0-13.732.264-17.746.475-4.014.211-4.647.423-4.964.74-.317.317-.317.792-.423 7.5-.105 6.707-.317 19.646-.211 36.97.106 17.322.475 39.029.687 50.067.211 11.038.211 11.461.317 11.831.158.369.422.686.739.897.317.212.687.317.951.37.264.053.369.053 4.542.106 4.172.053 12.253.211 22.287.369 10.035.159 21.918.37 27.939.476 5.968.105 6.021.105 6.074.105.052 0 .105 0 .158-.475.053-.475.158-1.479.528-3.855.37-2.377 1.162-6.127 2.113-9.243.95-3.116 2.007-5.545 3.433-7.711 1.426-2.165 3.169-4.066 5.017-5.492 1.849-1.479 3.803-2.536 5.968-3.328 2.165-.792 4.489-1.267 7.077-1.426 2.588-.158 5.44.106 7.764.528 2.324.423 4.119 1.057 5.598 1.743a27.29 27.29 0 013.222 1.796l.581.37 2.324-1.426c2.323-1.426 6.971-4.278 10.51-6.549 3.538-2.271 5.968-3.961 8.08-5.81 2.007-1.796 3.75-3.855 4.648-4.859z" fill="#4AAB3C"/><path fill-rule="evenodd" clip-rule="evenodd" d="M311.551 100.928c2.218 1.479 6.074 4.489 8.081 6.443 2.007 1.954 2.165 2.799 2.06 3.38-.106.581-.476.898-1.321.951-.845.053-2.218-.106-10.087-1.849-7.87-1.742-22.235-5.122-35.914-8.291-13.732-3.17-26.777-6.074-33.537-7.817-6.76-1.69-7.183-2.165-7.552-2.799-.37-.634-.74-1.373-.687-2.007.053-.634.528-1.056.792-1.32.264-.212.264-.212 11.355 1.214 11.144 1.48 33.379 4.384 45.262 6.021 11.883 1.638 13.415 2.06 14.735 2.588 1.321.528 2.377 1.215 3.222 1.585.845.37 1.373.37 3.591 1.901z" fill="#509663"/><path fill-rule="evenodd" clip-rule="evenodd" d="M241.625 89.679c4.225.739 11.144 1.795 19.964 3.168a2174.1 2174.1 0 0127.305 4.437c7.764 1.267 12.57 2.112 15.422 2.588 2.852.475 3.75.528 4.331.528.58 0 .792-.053 1.003-.159a.769.769 0 00.317-.475c.053-.211 0-.475-.053-.74-.053-.263-.211-.527-1.32-1.584-1.162-1.056-3.328-2.957-9.032-8.027-5.703-5.07-14.946-13.31-21.389-18.96-6.444-5.652-10.088-8.715-12.464-10.564-2.43-1.848-3.645-2.43-5.071-3.063-1.478-.58-3.169-1.215-6.02-1.584-2.8-.423-6.761-.634-10.246-.792a198.186 198.186 0 00-8.345-.212c-1.743 0-2.165 0-2.746.159a4.166 4.166 0 00-1.849 1.056c-.581.58-1.003 1.373-1.215 2.218-.211.792-.211 1.637.053 5.915.264 4.278.898 12.042 1.162 16.109.317 4.066.317 4.489.475 5.017.159.528.423 1.162.898 1.796.476.633 1.109 1.162 2.166 1.637.95.422 2.429.845 6.654 1.532z" fill="#403E32"/><path fill-rule="evenodd" clip-rule="evenodd" d="M237.189 87.513c-1.743-.422-2.377-.792-2.852-1.215a3.997 3.997 0 01-1.004-1.373c-.211-.475-.369-.95-.739-4.912-.37-3.96-1.003-11.46-1.32-15.685-.317-4.226-.37-5.229-.264-6.021.105-.74.317-1.215.739-1.69.423-.476.951-.898 1.743-1.11.792-.21 1.743-.158 3.01-.105 1.321.053 2.905.106 5.387.211 2.483.106 5.81.212 8.503.476 2.747.21 4.912.528 6.391.845 1.479.317 2.324.686 2.746.845.423.158.423.158.476 1.109.052.95.211 2.852.633 8.239a1910.12 1910.12 0 001.585 18.802c.37 4.594.422 5.017.422 5.334 0 .317-.105.528-1.056.422-.951-.105-2.799-.528-5.809-1.003-3.011-.475-7.13-1.056-10.616-1.585-3.433-.633-6.285-1.161-7.975-1.584zm26.037-21.231a2444.74 2444.74 0 001.532 18.802c.37 4.858.423 5.387.475 5.81.053.422.212.739.37.95.158.264.37.475.792.634.37.158.951.317 3.38.686 2.43.37 6.761 1.056 8.926 1.373 2.165.317 2.165.317 2.271-1.373.106-1.69.264-5.07.317-8.186.053-3.063-.053-5.862-.211-7.658-.159-1.796-.37-2.588-.898-3.38-.528-.792-1.479-1.585-3.803-3.591-2.324-2.008-6.074-5.335-8.239-7.183-2.165-1.849-2.641-2.271-3.116-2.588-.422-.317-.845-.581-1.162-.687-.317-.105-.581-.105-.739 0-.159.106-.264.317-.264.687 0 .37 0 .898.369 5.704z" fill="#E6E6E6"/><path fill-rule="evenodd" clip-rule="evenodd" d="M280.338 80.436c-.211 1.796-.475 5.07-.687 7.71a159.862 159.862 0 00-.369 6.022c-.053 1.267 0 1.743.211 2.165.158.37.475.687 1.215.95.739.265 1.901.476 3.01.476 1.109 0 2.166-.211 2.958-.634.792-.475 1.426-1.162 1.795-2.588.423-1.426.634-3.538.793-6.179.158-2.693.317-5.915.317-7.71 0-1.796-.106-2.06-.423-2.377-.317-.264-.898-.581-1.796-.793a16.931 16.931 0 00-3.274-.528c-1.004-.105-1.637-.053-2.166.159a1.742 1.742 0 00-1.056.845c-.211.264-.37.686-.528 2.482z" fill="#24231D"/><path fill-rule="evenodd" clip-rule="evenodd" d="M279.863 86.193c.211-2.482.422-4.648.528-5.862.106-1.215.158-1.48.211-1.638.053-.211.053-.317.106-.422a3.07 3.07 0 01.211-.37c.106-.106.211-.264.37-.422.105-.106.211-.212.37-.265.158-.052.264-.158.422-.21.158-.054.317-.107.475-.107.159 0 .317-.052.529-.052h.792c.317 0 .686.052 1.109.105.422.053.95.106 1.426.212.422.105.792.158 1.109.264.317.105.581.158.898.317.264.105.528.264.739.422l.317.317c.053.053.053.053-.528-.053a19.162 19.162 0 00-2.958-.528c-1.162-.158-2.324-.158-2.957-.053-.634.053-.74.159-.951.634-.211.475-.475 1.32-.739 3.697-.264 2.324-.528 6.126-.634 8.767-.106 2.588-.106 4.014 0 4.912.106.898.317 1.267.634 1.479.317.21.686.316.845.316.211.053.211.053-.053 0a9.918 9.918 0 01-1.056-.264c-.317-.105-.476-.158-.581-.21-.159-.054-.264-.16-.37-.212-.106-.106-.211-.159-.264-.264a1.08 1.08 0 01-.211-.317.761.761 0 01-.106-.37c-.053-.158-.053-.37-.053-.686 0-.264 0-.634.053-2.218-.053-1.69.106-4.437.317-6.92zm-52.286 14.365c.211.634.686 1.585 1.109 2.166.422.528.898.686 2.746.739 1.849.053 5.07.053 6.76.053 1.638-.053 1.743-.106 2.271-.634.529-.528 1.479-1.479 1.955-2.113.475-.633.528-.897.475-1.214-.053-.317-.159-.687-.687-1.32-.528-.634-1.479-1.532-1.954-2.008-.528-.475-.634-.475-2.165-.58-1.532-.053-4.489-.159-6.179-.159-1.638 0-2.007.053-2.377.264-.37.211-.845.581-1.215 1.11-.37.527-.634 1.214-.792 1.636-.159.423-.159.634-.159.898s0 .528.212 1.162z" fill="#4F4D3E"/><path fill-rule="evenodd" clip-rule="evenodd" d="M232.013 100.928c.264.317.739.845.951 1.162.264.317.317.317 1.162.369.897.053 2.587.159 3.432.159.846 0 .846 0 1.215-.37.37-.369 1.057-1.056 1.373-1.426.37-.369.37-.369.317-.422h-1.637c-1.479 0-4.278 0-5.704-.053-1.426 0-1.479 0-1.479.053.053.105.106.211.37.528zm4.648-2.271h-5.229s-.053-.053.317-.423 1.109-1.109 1.479-1.426c.369-.37.369-.37 1.162-.37h3.063c.792 0 .845 0 .951.106.105.053.316.159.633.476.37.317.845.845 1.109 1.162.264.264.264.317.264.37v.105s-.052.053-.58.053c-.581-.053-1.691-.053-3.169-.053z" fill="#24231D"/><path fill-rule="evenodd" clip-rule="evenodd" d="M293.594 109.378c0 .528 0 1.268.053 1.69.053.423.053.476.264.528.212.053.528.159 1.585.212 1.056 0 2.799 0 3.75-.053.95-.053 1.162-.053 1.267-.159.159-.105.264-.211.317-.792.053-.528.053-1.479-.053-2.007-.053-.528-.158-.634-.317-.686-.158-.053-.264-.106-1.32-.159a50.687 50.687 0 00-4.014 0c-1.056 0-1.162.053-1.267.106-.106.053-.159.158-.212.37 0 .158-.053.475-.053.95z" fill="#403E32"/><path fill-rule="evenodd" clip-rule="evenodd" d="M294.123 109.061c0 .476 0 1.321.052 1.743.053.423.106.475.212.528.158.053.369.106.897.106.581.053 1.479.053 2.377 0 .845 0 1.69-.053 2.113-.106.422-.053.475-.053.528-.105.053-.053.105-.106.105-.423s0-.845-.052-1.267c0-.423-.053-.793-.053-1.004-.053-.211-.106-.264-.845-.264h-4.965c-.317 0-.317.053-.369.106.052.158 0 .211 0 .686z" fill="#E6E6E6"/><path fill-rule="evenodd" clip-rule="evenodd" d="M279.07 130.662c2.166-2.059 5.071-4.489 7.923-6.232 2.852-1.743 5.598-2.852 8.978-3.486 3.327-.633 7.288-.739 10.616-.528 3.327.212 6.073.74 8.397 1.532a24.83 24.83 0 015.44 2.641c1.215.792 1.69 1.32 1.954 1.584s.264.264.845-.106c.581-.369 1.743-1.056 2.799-1.742 1.057-.687 2.113-1.321 2.588-1.638l.528-.317-1.214-.95c-1.215-.951-3.592-2.852-7.394-4.595-3.803-1.743-9.084-3.433-14.26-4.12-5.176-.686-10.299-.422-14.947.898-4.647 1.321-8.714 3.75-11.619 6.232-2.905 2.483-4.595 5.018-5.598 7.236-1.004 2.271-1.373 4.278-1.479 5.704-.105 1.426.106 2.324.37 2.799.264.423.686.423 1.584-.37.845-.845 2.324-2.482 4.489-4.542z" fill="#5DC94C"/><path fill-rule="evenodd" clip-rule="evenodd" d="M332.994 105.417c1.056 2.271 2.957 6.444 4.067 8.715 1.109 2.271 1.373 2.64 1.69 2.904.264.264.581.317 1.848.898 1.268.581 3.539 1.585 4.859 2.166 1.32.581 1.637.739 1.849.792.158 0 .211-.159-.423-2.218-.634-2.113-1.901-6.127-2.905-8.556-1.003-2.43-1.743-3.275-2.324-3.856-.528-.581-.897-.845-2.218-1.584-1.32-.687-3.591-1.849-5.017-2.377-1.426-.528-1.954-.475-2.218-.37-.317.106-.37.317-.317.581-.053.317.053.634 1.109 2.905z" fill="#24231D"/><path fill-rule="evenodd" clip-rule="evenodd" d="M333.68 105.153c.898 2.06 2.694 6.074 3.75 8.292 1.057 2.218 1.373 2.641 1.69 2.958.317.316.581.475 1.796 1.003 1.215.528 3.327 1.426 4.384 1.796 1.056.369 1.109.264.845-.74a53.466 53.466 0 00-1.585-4.859c-.792-2.059-1.848-4.33-2.482-5.598-.687-1.267-.951-1.532-2.113-2.165a171.538 171.538 0 00-4.436-2.324c-1.268-.634-1.796-.792-2.113-.845-.317-.053-.422 0-.528.105-.053.159-.105.317.792 2.377z" fill="#E6E6E6"/><path fill-rule="evenodd" clip-rule="evenodd" d="M345.881 117.512c.211.739.316 1.003.316 1.214.053.212.053.317.053.423 0 .106-.053.158-.105.158-.106.053-.212 0-.37 0-.159-.052-.37-.105-.634-.211-.264-.105-.634-.211-1.056-.422-.423-.159-.951-.37-1.215-.476-.264-.105-.264-.105-.951-1.584-.686-1.479-2.059-4.384-3.01-6.443-.951-2.06-1.426-3.222-1.637-3.909-.264-.633-.264-.792-.159-.845.106-.053.317 0 1.109.37.793.37 2.219 1.109 2.958 1.479.739.369.739.369.951.845.211.475.686 1.373 1.162 2.482a61.359 61.359 0 011.531 3.75 43.703 43.703 0 011.057 3.169z" fill="#E8E4BE"/><path fill-rule="evenodd" clip-rule="evenodd" d="M321.269 127.177c.528-.317 1.004-.634 1.268-.793.264-.158.264-.158 1.162.845.897 1.004 2.746 3.011 4.225 5.282 1.479 2.271 2.64 4.806 3.485 7.658.845 2.852 1.374 6.074 1.638 7.764.264 1.69.317 1.795 1.531 1.848 1.215 0 3.592-.053 5.651-.211a51.087 51.087 0 005.018-.634c1.162-.211 1.69-.475 1.954-.581.264-.105.264-.105.106.106-.159.211-.529.634-.898 1.003-.37.37-.793.74-1.215 1.057-.423.316-.845.633-1.532 1.003-.686.317-1.69.739-2.693 1.056-1.004.37-2.06.687-2.694.845-.633.212-.898.264-1.056.317-.158.053-.264.106-.687.211-.422.106-1.161.317-1.795.529-.687.158-1.268.316-1.902.369-.633.106-1.214.159-1.69.159h-1.109c-.369 0-.792-.053-1.109-.053-.264 0-.422-.053-.475-.053-.053 0-.053 0-.053-.422v-2.271c0-1.004-.053-2.166-.158-3.116-.053-.951-.106-1.638-.264-2.588-.159-.951-.317-2.113-.581-3.116-.212-1.004-.476-1.849-.74-2.694s-.634-1.69-1.003-2.535c-.37-.845-.845-1.743-1.321-2.641a15.07 15.07 0 00-1.743-2.64c-.739-.898-1.69-1.796-2.376-2.483-.74-.633-1.215-1.056-1.479-1.214l-.264-.212.211-.105c.211-.106.581-.37 1.057-.634.475-.37 1.003-.687 1.531-1.056z" fill="#403E32"/><path fill-rule="evenodd" clip-rule="evenodd" d="M335.952 146.507c1.848.052 5.809-.159 8.08-.37s2.799-.423 3.222-1.056c.475-.634.845-1.69 1.162-2.958.317-1.215.528-2.641.634-3.644.105-1.004.105-1.637 0-2.06-.106-.422-.265-.634-.687-.845-.423-.211-1.162-.475-2.746-.687-1.585-.211-4.067-.422-5.916-.528-1.848-.105-3.063-.052-3.697 0-.633.106-.686.212-.581.37.106.158.212.264.845.37.634.105 1.691.211 3.275.317 1.584.105 3.697.211 4.964.316 1.268.106 1.638.159 1.849.212.211.053.211.158.053.686-.159.528-.528 1.585-.74 2.905-.264 1.32-.369 3.011-.422 3.908-.053.898-.053 1.057-.053 1.109v.053l-1.373.106c-1.373.106-4.12.317-5.81.475-1.69.212-2.429.37-2.904.581-.634.423-.951.687.845.74z" fill="#24231D"/><path fill-rule="evenodd" clip-rule="evenodd" d="M346.25 138.584a3.57 3.57 0 01.423-.897c.105-.159.105-.159.105.264 0 .422 0 1.162-.105 2.165-.106.951-.317 2.06-.475 2.694-.159.633-.317.739-.37.686-.106-.053-.106-.264-.106-.792 0-.581.106-1.479.159-2.271a7.586 7.586 0 01.369-1.849z" fill="#E8E4BE"/><path fill-rule="evenodd" clip-rule="evenodd" d="M226.89 143.707c9.454.159 28.15.423 37.551.581 9.401.159 9.612.212 9.718.212.106 0 .053 0 .053-.053s.053-.211-.951-.687c-.951-.475-2.958-1.267-3.961-1.69-1.003-.422-1.003-.422-9.348-.581-8.345-.158-25.034-.475-33.59-.634-8.556-.158-9.031-.158-9.242-.158-.265 0-.317 0-.37.053-.053.053-.053.211-.053.686v1.585c0 .37.053.422.211.422.212.159.528.159 9.982.264zm-9.454-17.375c.106.422.159.422 5.704.581 5.493.158 16.425.475 24.136.633 7.711.159 12.253.159 14.894.106 2.641-.053 3.433-.211 3.855-.317.423-.158.423-.264.053-.634-.369-.369-1.056-.898-1.637-1.426a21.098 21.098 0 01-1.32-1.162c-.264-.211-.264-.211-1.162-.264-.898-.052-2.799-.158-10.299-.264-7.5-.158-20.703-.317-27.358-.369-6.707-.053-6.866 0-6.971.211-.106.211-.106.528-.053 1.109a5.972 5.972 0 00.158 1.796z" fill="#5DC94C"/><path fill-rule="evenodd" clip-rule="evenodd" d="M216.169 106.104c.105.158.264.158 4.014.317 3.749.158 11.038.422 16.795 1.214 5.756.793 9.876 2.06 13.467 3.75 3.592 1.69 6.655 3.803 8.715 5.757 2.112 1.954 3.274 3.75 4.013 4.859.74 1.109 1.057 1.584 1.426 1.954.37.37.74.634 1.11.845.369.211.633.37.845.211.158-.158.264-.686-.159-2.007-.422-1.32-1.32-3.433-3.802-5.968-2.483-2.535-6.549-5.492-10.563-7.499-4.067-2.007-8.081-3.011-12.887-3.697-4.806-.634-10.457-.951-14.365-1.109-3.962-.159-6.233-.212-7.394-.212-1.162 0-1.215.053-1.215.159 0 .158-.053.369-.053.634-.053.316-.053.633.053.792z" fill="#3D8C31"/><path fill-rule="evenodd" clip-rule="evenodd" d="M236.133 50.649c4.33.211 10.51.58 14.471.898 3.961.317 5.704.686 7.394 1.214 1.69.528 3.274 1.268 4.753 2.113 1.426.845 2.693 1.743 5.915 4.436 3.222 2.641 8.345 7.077 11.566 9.877 3.222 2.746 4.49 3.908 5.176 4.542.687.633.74.739.792.845.053.105 0 .264-.052.317-.106.052-.264 0-.476-.159-.211-.106-.369-.317-3.644-3.169-3.222-2.852-9.506-8.345-13.626-11.725-4.067-3.38-6.021-4.7-8.133-5.703-2.166-.951-4.542-1.585-9.19-2.06-4.648-.476-11.619-.74-16.161-.898-4.542-.158-6.655-.211-7.817-.158-1.162 0-1.373.105-1.584.264-.211.158-.423.37-.475 1.109-.106.739-.053 1.9-.106 10.563 0 8.661-.053 24.77 0 33.325.053 8.503.158 9.454.264 10.193.106.74.158 1.268.423 2.166.264.845.686 2.06 1.161 3.169.423 1.162.898 2.271 1.162 3.38.264 1.109.37 2.218.476 3.169.053 1.003.105 1.848.317 6.02.211 4.173.633 11.672.845 16.109.211 4.436.158 5.757.264 6.866.052 1.109.211 1.954.528 2.535.317.581.792.95 1.584 1.214.792.265 1.954.37 5.334.423 3.433.053 9.137.053 15.369.158a929.96 929.96 0 0116.795.317c3.697.106 4.278.106 4.701.053.422-.053.634-.106.739-.211.106-.106.106-.264.211-1.056.106-.793.265-2.219.74-4.437.475-2.218 1.32-5.281 2.377-7.922 1.056-2.641 2.323-4.859 3.063-5.968.739-1.109.898-1.109 1.003-1.056.106.053.159.158-.105.528-.264.422-.793 1.109-1.532 2.482a35.69 35.69 0 00-2.535 5.757c-.792 2.218-1.32 4.489-1.69 6.232a39.634 39.634 0 00-.634 3.803c-.158.897-.264 1.584-.475 1.901-.212.37-.528.37-6.919.317-6.338-.053-18.749-.264-25.773-.37-7.025-.106-8.609-.158-9.665-.317-1.057-.105-1.585-.317-2.007-.634-.476-.369-.898-.845-1.162-1.478-.264-.634-.264-1.321-.317-2.535-.053-1.215-.106-2.958-.317-7.87-.264-4.911-.686-12.939-.951-17.27-.264-4.331-.316-4.859-.475-5.651a22.104 22.104 0 00-.845-3.116c-.422-1.373-1.109-3.116-1.479-4.384-.369-1.214-.528-1.901-.581-3.169-.052-1.267-.105-3.116-.105-9.77 0-6.655-.053-18.063-.053-26.038 0-7.975.053-12.464.053-14.893 0-2.43.053-2.852.105-3.17a1.4 1.4 0 01.37-.738c.158-.159.317-.265.634-.37.317-.106.792-.212 2.271-.212 1.479 0 3.697 0 8.028.212zm54.029 52.603c0 4.066.105 11.513.158 15.263.053 3.75.106 3.75.158 3.75.053 0 .212 0 .264-.053.053-.053.106-.158.053-4.278 0-4.119-.053-12.253-.105-16.372-.053-4.12-.053-4.225-.106-4.278-.053-.053-.211-.053-.264.052-.053.106-.106.265-.106.687-.052.475-.105 1.162-.052 5.229zm5.862-24.242c1.743 1.479 3.539 3.01 5.334 4.33a75.765 75.765 0 004.754 3.434c1.267.845 2.112 1.267 2.482 1.479.422.21.37.21.053.475-.317.264-.951.74-1.321 1.003-.369.265-.528.317-.686.37-.159.053-.264.053-7.606-6.073-7.341-6.074-21.917-18.274-29.259-24.454-7.341-6.179-7.499-6.337-7.552-6.496-.053-.158-.053-.264.211-.475.264-.211.74-.528 1.004-.634.264-.158.264-.158 2.799 1.954 2.535 2.06 7.605 6.233 12.147 10.035 4.542 3.803 8.503 7.183 11.355 9.612 2.799 2.483 4.489 3.961 6.285 5.44z" fill="#403E32"/><path fill-rule="evenodd" clip-rule="evenodd" d="M264.758 52.973c-.264.053-.528.264-.687.37-.158.105-.105.105-.105.158.053.053.105.158.634.634.528.528 1.584 1.426 8.291 7.024a7589.314 7589.314 0 0125.457 21.39c6.443 5.44 7.077 5.915 7.394 6.179.37.264.422.264.686.053.212-.212.634-.634.793-.845.211-.212.211-.212-.634-.793-.845-.58-2.535-1.795-5.07-3.802-2.588-2.007-6.021-4.859-9.454-7.764-3.433-2.905-6.866-5.81-10.616-8.978-3.75-3.17-7.763-6.55-10.246-8.662-2.482-2.06-3.38-2.852-4.119-3.433-.74-.58-1.215-1.003-1.585-1.267-.317-.212-.475-.317-.739-.264z" fill="#E6E6E6"/><path fill-rule="evenodd" clip-rule="evenodd" d="M154.059 103.621l9.56.159-.793-17.851-9.506.052.739 17.64zm16.214-.58l9.507-.317-.74-17.323-9.506.422.739 17.218z" fill="#999"/><path fill-rule="evenodd" clip-rule="evenodd" d="M180.413 82.865c-1.426 1.374-2.535 2.483-3.327 3.328-10.246-1.11-21.812-1.585-34.857-1.479 1.214-1.162 3.433-2.165 6.654-3.01 18.802.158 29.312.528 31.53 1.162z" fill="#DBA758"/><path fill-rule="evenodd" clip-rule="evenodd" d="M180.255 111.332c-2.113 3.064-3.01 3.909-3.01 3.909-.317-9.929-.37-18.96-.212-29.101a97.926 97.926 0 013.328-3.327c.105 19.277-.106 28.519-.106 28.519z" fill="#DBA758"/><path fill-rule="evenodd" clip-rule="evenodd" d="M177.086 86.193c-.158 8.556-.158 17.587.211 29.1-20.439-.317-35.227-1.214-35.227-1.214-.158-15.052-.105-24.876.159-29.365a307.827 307.827 0 0134.857 1.479zm-29.84-3.063c-.158 0-.264-.106-.264-.317 0-.159.106-.317.264-.317 5.017-.158 10.14-.106 15.263.106 5.123.21 10.352.58 15.633 1.109.159 0 .264.158.212.317 0 .158-.106.264-.264.264-5.282-.529-10.458-.951-15.581-1.11a294.787 294.787 0 00-15.263-.052z" fill="#F7CE66"/><path fill-rule="evenodd" clip-rule="evenodd" d="M156.7 84.82c1.743.052 3.433.105 5.017.21.212-.21-.053 12.73 0 17.905 0 0-4.964-.211-5.175-.211l.158-17.904z" fill="#F7F7F7"/><path fill-rule="evenodd" clip-rule="evenodd" d="M161.717 85.03c-3.327-.157-5.017-.21-5.017-.21 3.01-1.954 4.542-2.958 4.542-2.958 2.165.053 3.274.053 3.274.053-1.848 2.112-2.799 3.116-2.799 3.116z" fill="#E0E0E0"/><path fill-rule="evenodd" clip-rule="evenodd" d="M153.003 68.87a1841.5 1841.5 0 001.215 12.041c.317 3.01.317 3.222 1.426 3.38 1.109.159 3.38.317 5.545.265 2.113-.053 4.172-.37 5.229-.528 1.056-.159 1.214-.212 1.584-3.17.37-2.957.951-8.872 1.268-11.83.317-2.957.317-2.957.317-3.274 0-.317 0-.898-.529-1.162-.528-.317-1.637-.317-4.066-.317-2.43-.053-6.232-.106-8.503-.159-2.271-.052-3.064-.052-3.38.37-.476.37-.423 1.162-.106 4.384z" fill="#FDE742"/><path fill-rule="evenodd" clip-rule="evenodd" d="M151.313 65.86c.686.21 1.848.633 3.486.897 1.637.264 3.697.423 5.756.423 2.06 0 4.067-.106 5.81-.317a29.438 29.438 0 004.014-.793c.792-.21 1.003-.316 1.109-.422.105-.106.158-.211.158-.898v-2.588c0-.633 0-.633-1.003-.845-1.004-.211-3.011-.58-5.915-.74-2.958-.158-6.813-.105-9.349.054-2.535.158-3.802.37-4.436.475-.634.106-.634.158-.634.845 0 .687 0 2.113.053 2.8.106.791.264.897.951 1.108z" fill="#F7CE66"/><path fill-rule="evenodd" clip-rule="evenodd" d="M152.528 62.268c.897.264 2.799.475 5.07.58 2.271.16 4.859.212 6.971.16a48.349 48.349 0 004.542-.318c.898-.158 1.162-.264 1.162-.37 0-.105-.264-.263-1.162-.475-.898-.264-2.429-.633-4.964-.792-2.535-.158-6.021-.053-8.292.053-2.218.106-3.169.211-3.697.422-.475.212-.528.476.37.74z" fill="#24231D"/><path fill-rule="evenodd" clip-rule="evenodd" d="M159.077 60.842c-.423-1.954-1.004-5.81-1.057-10.299-.053-4.489.423-9.56 1.532-13.415 1.109-3.855 2.852-6.443 4.436-8.555a86.598 86.598 0 013.644-4.543c.687-.792.687-.686.529 2.007-.159 2.747-.529 8.134-1.268 12.465a48.72 48.72 0 01-3.01 10.51c-1.162 2.904-2.324 5.334-2.958 7.552-.634 2.218-.739 4.172-.792 5.176-.053 1.003-.053 1.003-.211 1.003-.159.053-.423.053-.845-1.901z" fill="#4AAB3C"/><path fill-rule="evenodd" clip-rule="evenodd" d="M159.288 59.891c0-1.69-.053-5.44-1.057-8.978-1.003-3.591-2.904-7.024-5.017-9.56a25.77 25.77 0 00-5.968-5.228c-1.532-1.004-2.324-1.426-2.746-1.426-.423 0-.423.37-.264 1.426.158 1.056.475 2.8 1.32 4.753.845 2.007 2.165 4.225 3.644 6.074 1.479 1.901 3.011 3.38 4.331 4.964 1.32 1.532 2.324 3.117 3.222 4.595.897 1.48 1.584 2.905 2.007 3.803.422.898.475 1.267.528-.423z" fill="#5DC94C"/><path fill-rule="evenodd" clip-rule="evenodd" d="M163.302 54.663c.317-1.056 1.267-3.17 3.169-4.806 1.901-1.638 4.647-2.747 6.654-3.328 2.007-.633 3.222-.686 3.803-.686s.528.158.317.633a17.772 17.772 0 01-1.321 2.43c-.739 1.162-1.901 2.746-3.485 3.961-1.638 1.215-3.697 2.06-5.229 2.482-1.532.423-2.482.37-3.169.37-.687 0-1.003 0-.739-1.056z" fill="#4AAB3C"/><path fill-rule="evenodd" clip-rule="evenodd" d="M147.616 39.61a.16.16 0 010-.21.16.16 0 01.211 0c1.426 1.795 2.905 3.538 4.225 5.386 1.321 1.849 2.588 3.697 3.592 5.652 1.003 1.954 1.795 3.96 2.535 6.02.686 2.06 1.267 4.173 1.848 6.285 0 .106-.053.159-.106.212-.105 0-.158-.053-.211-.106-.581-2.113-1.162-4.172-1.848-6.232-.687-2.06-1.479-4.067-2.483-6.02-1.003-1.955-2.218-3.803-3.591-5.6-1.267-1.795-2.693-3.59-4.172-5.386z" fill="#409133"/><path fill-rule="evenodd" clip-rule="evenodd" d="M164.78 31.53c.053-.105.106-.105.212-.105.105.052.105.105.105.21-.475 1.163-.898 2.378-1.32 3.645a69.635 69.635 0 00-1.268 4.436c-.369 1.585-.739 3.328-1.003 5.229-.37 2.165-.687 4.49-1.004 6.655a264.382 264.382 0 00-1.214 11.143c0 .106-.106.159-.212.159-.105 0-.158-.106-.158-.211.37-3.592.687-7.183 1.215-11.197.264-2.165.633-4.49 1.003-6.655a91.763 91.763 0 011.056-5.228 71.94 71.94 0 011.268-4.49c.423-1.214.898-2.429 1.32-3.59zm8.556 16.9c.106-.052.159 0 .212.053.052.106 0 .159-.053.212-2.218 1.373-4.437 2.693-6.127 3.855-.845.581-1.531 1.11-2.165 1.585-.634.475-1.109 1.003-1.585 1.478a7.5 7.5 0 00-1.161 1.48 9.409 9.409 0 00-.793 1.636c-.422 1.215-.581 2.641-.792 4.067 0 .106-.105.159-.211.159s-.159-.106-.159-.212c.212-1.426.37-2.905.793-4.12.211-.633.475-1.214.845-1.742a8.158 8.158 0 011.214-1.532c.476-.475 1.004-1.003 1.585-1.479a28.795 28.795 0 012.165-1.637c1.743-1.056 3.961-2.43 6.232-3.802z" fill="#409133"/><path fill-rule="evenodd" clip-rule="evenodd" d="M52.497 99.925l-9.4.105.633-14.47 9.348.052-.58 14.313zm-15.949-.529l-9.349-.264.581-13.996 9.401.317-.633 13.943z" fill="#999"/><path fill-rule="evenodd" clip-rule="evenodd" d="M26.407 83.077c1.426 1.109 2.535 2.007 3.328 2.693 10.034-.897 21.442-1.267 34.223-1.162-1.215-.95-3.38-1.743-6.549-2.429-18.485.106-28.784.422-31.002.898z" fill="#DBA758"/><path fill-rule="evenodd" clip-rule="evenodd" d="M26.566 106.421a522.865 522.865 0 003.169 3.697c.21-8.028.21-16.161 0-24.348a41.157 41.157 0 00-3.328-2.693l.159 23.344z" fill="#DBA758"/><path fill-rule="evenodd" clip-rule="evenodd" d="M29.735 85.77c.264 6.919.264 15.052 0 24.348l34.593-1.743c.053-12.2-.106-20.122-.423-23.766a351.714 351.714 0 00-34.17 1.161zm29.259-2.43c.158 0 .264-.105.264-.21 0-.159-.106-.264-.212-.264a284.495 284.495 0 00-14.999.052c-5.07.159-10.14.476-15.316.898-.158 0-.211.106-.211.264 0 .159.105.212.264.212 5.176-.423 10.246-.74 15.316-.898a280.52 280.52 0 0114.894-.053z" fill="#F7CE66"/><path fill-rule="evenodd" clip-rule="evenodd" d="M49.698 84.714c-1.742.053-3.38.106-4.911.159-.212-.159.158 10.298.158 14.47 0 0 4.859-.158 5.123-.158 0 0-.106-4.859-.37-14.47z" fill="#F7F7F7"/><path fill-rule="evenodd" clip-rule="evenodd" d="M44.787 84.873l4.911-.159c-3.01-1.584-4.489-2.43-4.489-2.43-2.165.053-3.222.053-3.222.053 1.902 1.69 2.8 2.536 2.8 2.536z" fill="#E0E0E0"/><path d="M41.652 88.181l-8.666.922.62 5.83 8.666-.922-.62-5.83z" fill="#F7F7F7"/><path fill-rule="evenodd" clip-rule="evenodd" d="M40.086 87.355l-9.56-3.222-.158-30.738 9.877 1.584-.159 32.376z" fill="#DBA758"/><path fill-rule="evenodd" clip-rule="evenodd" d="M40.086 87.355l.159-32.375 10.72-.581-.369 31.952-10.51 1.004z" fill="#F7CE66"/><path fill-rule="evenodd" clip-rule="evenodd" d="M50.966 54.293l-10.721.898-9.877-1.849 10.246-.317 10.352 1.268z" fill="#DBA758"/><path fill-rule="evenodd" clip-rule="evenodd" d="M46.688 54.663l-3.433.264.211 20.597 3.328-.211-.106-20.65z" fill="#F7F7F7"/><path fill-rule="evenodd" clip-rule="evenodd" d="M43.255 54.927l3.433-.264-8.926-1.532h-1.267v.581l6.76 1.215z" fill="#F7F7F7"/><path fill-rule="evenodd" clip-rule="evenodd" d="M31.108 112.389c-1.11-.053-2.588-.106-3.75-.159-1.162-.053-1.901-.105-2.588-.211-.686-.053-1.32-.159-1.69-.264-.37-.053-.528-.106-.634-.159-.105-.052-.158-.105-.158-.105v1.479l.58.105c.582.106 1.69.37 3.91.634 2.164.264 5.439.528 8.713.581a88.85 88.85 0 008.926-.317c2.377-.211 3.75-.423 4.49-.634.739-.158.844-.264.844-.317.053-.052.053-.052.053-.317v-1.003c0-.264 0-.264-.053-.211a.565.565 0 01-.264.158c-.158.053-.37.106-.686.159-.317.052-.74.105-1.426.211-.687.106-1.585.158-2.483.211-.898.053-1.742.106-2.746.159-1.004.052-2.06.052-3.222.105h-5.439c-.634-.053-1.268-.053-2.377-.105z" fill="#2B2A29"/><path fill-rule="evenodd" clip-rule="evenodd" d="M36.072 112.442c7.606 0 13.785-.423 13.785-1.004s-6.18-1.003-13.785-1.003-13.784.422-13.784 1.003 6.18 1.004 13.784 1.004z" fill="#24231D"/><path fill-rule="evenodd" clip-rule="evenodd" d="M24.4 20.175c-.317.158-.317.158-.845 2.588a800.328 800.328 0 01-2.007 9.718c-.528 2.482-.422 2.535-.422 2.588 0 .052 0 .052.158.105.159.053.423.212 1.162.423.74.211 1.901.475 4.86.633 2.904.159 7.604.212 11.513.106 3.908-.105 6.971-.317 8.82-.58 1.795-.212 2.376-.423 2.64-.529l.264-.106-.316-2.535c-.317-2.535-.898-7.605-1.215-10.14-.317-2.535-.317-2.535-.476-2.64-.21-.053-.58-.212-1.584-.423-1.003-.159-2.535-.317-4.859-.476-2.324-.105-5.387-.21-8.186-.105-2.8.053-5.282.317-6.866.58-1.584.318-2.271.634-2.64.793z" fill="#FDE742"/><path fill-rule="evenodd" clip-rule="evenodd" d="M30.051 34.382c-1.373.053-2.904.158-4.277.211-1.374.106-2.483.159-3.117.264-.633.053-.739.106-.475.212.264.105.845.316 1.743.475.898.158 2.113.264 3.433.317a881.7 881.7 0 004.436.158c1.585.053 3.222.053 5.229 0s4.436-.158 6.443-.264c2.007-.105 3.697-.317 4.7-.422 1.004-.106 1.427-.212 1.585-.317.159-.106.106-.159-.158-.264-.264-.106-.687-.159-2.06-.265-1.373-.105-3.644-.21-6.127-.264-2.482-.052-5.07-.052-6.971-.052-1.901.105-3.01.158-4.384.21z" fill="#24231D"/><path fill-rule="evenodd" clip-rule="evenodd" d="M36.495 69.187V35.914l.158-.106c.159-.106.423-.264.634-.581.211-.264.317-.634.37-.792l.053-.159h-3.645c-.105 0-.105 0-.105.106.053.106.105.37.264.58.158.212.422.476.58.582.16.158.265.211.318.211l.052.053v75.683h1.215v-7.447c.106-7.394.106-22.288.106-34.857z" fill="#2B2A29"/><path fill-rule="evenodd" clip-rule="evenodd" d="M92.795 70.19c-.687-2.746-1.796-7.658-2.324-10.932-.528-3.275-.528-4.806 0-5.969.528-1.161 1.584-1.848 3.433-2.429 1.849-.528 4.595-.898 9.823-1.003 5.229-.106 12.993.052 17.746.264 4.753.21 6.549.475 7.869 1.109 1.374.634 2.271 1.637 2.535 3.169.264 1.584-.158 3.697-.792 6.865-.634 3.17-1.479 7.395-1.848 9.507-.423 2.113-.423 2.113-.951 2.694-.528.58-1.637 1.795-2.641 3.221-1.003 1.48-1.901 3.17-2.588 3.908-.686.687-1.109.423-1.373.265-.211-.159-.211-.159-3.063-.053-2.852.105-8.556.37-12.147.264-3.592-.053-5.07-.475-5.81-.687-.74-.211-.74-.211-.95 0-.212.159-.581.528-1.11-.264-.528-.792-1.214-2.64-2.007-3.855-.792-1.215-1.584-1.743-2.165-2.271-.634-.581-.95-1.11-1.637-3.803z" fill="#FDE742"/><path fill-rule="evenodd" clip-rule="evenodd" d="M99.766 79.908c.106.211.106.211-.634.898-.686.686-2.112 2.06-2.799 2.799-.686.74-.739.792-.739.792s-.053 0-.264-.845c-.211-.898-.528-2.694-1.004-4.067-.475-1.373-.95-2.376-1.478-3.063-.528-.686-1.11-1.162-1.849-1.479-.74-.37-1.69-.633-2.27-.792-.582-.158-.74-.158-.793-.158h.053s-.106 0-.053-.053.317-.106 1.32-.317c.95-.159 2.641-.475 3.486-.581.845-.106.845-.053.95.053.054.105.212.264.318.422.158.159.264.264.58.423.317.158.793.422 1.215.634.423.21.74.475 1.004.686.317.264.58.581.898.95.317.423.58.899.845 1.374.264.475.475.95.686 1.373.317.423.475.792.528.95zm23.45-2.535a35.237 35.237 0 00-.951 1.637c-.317.528-.528 1.003-.686 1.268-.106.21-.106.21.581.845.739.633 2.165 1.848 2.852 2.482.739.634.739.686.792.686l.317-.633c.264-.634.845-1.902 1.795-3.433.951-1.532 2.271-3.275 3.011-4.437.739-1.162.845-1.742 1.056-2.007.264-.264.634-.21.792-.158.159 0 .106 0-.422-.053-.581-.105-1.637-.264-2.324-.422-.739-.106-1.109-.212-1.268-.264-.211-.053-.211-.053-.264 0-.105.052-.264.158-.686.422-.37.211-.951.528-1.532.95-.581.37-1.056.793-1.479 1.163-.422.37-.686.74-.95 1.003-.159.264-.37.528-.634.95z" fill="#CBB935"/><path fill-rule="evenodd" clip-rule="evenodd" d="M96.65 83.183a99.42 99.42 0 01-1.901 1.478c-.211.212.317-.053 5.809-.053 5.44 0 15.792.212 20.862.212 5.017 0 4.753-.264 4.648-.37-.159-.106-.159-.106-.528-.422l-1.849-1.585c-.739-.634-1.426-1.267-1.796-1.532-.369-.316-.369-.316-.475-.264-.106 0-.37.053-1.32.053-1.004 0-2.747-.053-5.968-.105-3.275-.053-8.028-.159-10.669-.264-2.64-.053-3.063-.106-3.274-.106-.211 0-.211 0-.423.158l-1.109 1.11c-.634.422-1.215 1.056-2.007 1.69z" fill="#E9D53D"/><path fill-rule="evenodd" clip-rule="evenodd" d="M94.538 85.559c0 .792.053 2.324.053 3.063v.792s0 .053 1.795.106c1.796.053 5.334.106 10.827.106 5.493.052 12.992.105 16.742.105s3.803 0 3.803-.052c.053-.053.105-.212.105-1.11 0-.845 0-2.43-.052-3.274-.053-.845-.106-.95-.423-.95-.317-.054-.951-.054-3.486-.054h-12.041c-5.123 0-10.88-.105-13.838-.105H94.75c-.106 0-.211 0-.211.053-.053.052-.053.105-.053.21.053.106.053.265.053 1.11z" fill="#F3DE3F"/><path fill-rule="evenodd" clip-rule="evenodd" d="M127.23 85.031v2.694c0 .792-.053 1.161-.106 1.32 0 .158 0 .158-.106.158-.052 0-.211.053-.316.053h-9.137c-2.694 0-5.123 0-8.345-.053-3.274 0-7.394-.053-9.929-.105-2.535-.053-3.433-.053-3.855-.106-.423 0-.423 0-.423-.053v-4.33c0-.212 0-.265.053-.317 0-.053.053-.053.105-.053h.37v-.317c0-.317-.053-1.004-.158-1.954-.106-.898-.212-2.06-.317-2.852-.106-.792-.211-1.215-.37-1.69a7.524 7.524 0 00-.634-1.32c-.264-.423-.58-.74-.95-1.057-.37-.317-.845-.58-1.373-.792-.529-.211-1.11-.37-1.532-.475-.423-.106-.687-.106-1.003-.106-.317 0-.687.053-1.11.211a2.993 2.993 0 00-1.214.845c-.37.423-.634 1.004-.634 1.743-.053.74.158 1.532.475 2.377.37.792.845 1.584 1.373 2.799.476 1.215.898 2.905 1.426 4.436.529 1.532 1.11 2.958 1.743 4.12.634 1.162 1.373 2.06 2.06 2.588.687.58 1.373.792 1.901.95.528.159.951.212 6.127.212s15.157-.053 20.333-.106c5.176-.053 5.546-.053 5.968-.211.423-.106.898-.37 1.532-1.268s1.426-2.482 1.954-4.067c.528-1.584.739-3.116 1.109-4.172.37-1.109.898-1.743 1.32-2.588a11.56 11.56 0 001.004-3.063c.211-1.162.264-2.324.053-3.169a2.306 2.306 0 00-1.109-1.426c-.37-.211-.581-.264-.793-.264-.211-.053-.316-.053-.633 0-.317 0-.793.106-1.268.211-.422.106-.792.264-1.162.423a5.15 5.15 0 00-1.109.845c-.37.37-.739.845-1.109 1.479-.37.58-.687 1.32-.898 1.954-.211.634-.37 1.215-.475 1.848a24.253 24.253 0 00-.264 2.06c-.053.687-.106 1.268-.106 1.585v.316h.211c.212 0 .634 0 .845.053.423-.053.476 0 .476.634z" fill="#FDE742"/><path fill-rule="evenodd" clip-rule="evenodd" d="M97.126 93.85h-.687c-.106 0-.106 0-1.056 2.694a657.8 657.8 0 00-3.697 10.88c-.898 2.746-.898 2.852-.793 2.905.106.053.265.106.634.106.37 0 1.004-.106 1.373-.212.37-.105.423-.211 1.268-2.06.845-1.848 2.482-5.387 3.697-8.027 1.215-2.694 2.113-4.49 2.482-5.387.37-.898.317-.898-.105-.898h-1.69c-.634.053-1.11 0-1.426 0zm7.71.054h-1.373l-.739 2.007a1378.1 1378.1 0 00-2.958 8.133c-.74 2.113-.792 2.218-.74 2.324.054.105.212.105.529.158.317 0 .792 0 1.056-.053.264 0 .264 0 1.215-2.112.951-2.113 2.852-6.285 3.803-8.398.95-2.112.95-2.112.792-2.112h-.74c-.264.053-.475.053-.845.053zm20.387-.054h.686c.106 0 .106 0 1.057 2.694a665.57 665.57 0 013.697 10.88c.898 2.746.898 2.852.792 2.905-.106.053-.264.106-.634.106s-1.003-.106-1.373-.212c-.37-.105-.423-.211-1.268-2.06-.845-1.848-2.482-5.387-3.697-8.027-1.214-2.694-2.112-4.49-2.482-5.387-.37-.898-.317-.898.106-.898h1.69c.634.053 1.109 0 1.426 0zm-7.711.054h1.373l.739 2.007c.74 2.007 2.219 6.073 2.958 8.133.739 2.113.792 2.218.739 2.324-.052.105-.211.105-.528.158-.317 0-.792 0-1.056-.053-.264 0-.264 0-1.215-2.112-.95-2.113-2.852-6.285-3.802-8.398-.951-2.112-.951-2.112-.793-2.112h.74c.317.053.528.053.845.053z" fill="#2B2A29"/></g><defs><clipPath id="clip0_601_12497"><path fill="#fff" d="M0 0h350v176.083H0z"/></clipPath></defs></svg>