<svg width="618" height="409" fill="none" xmlns="http://www.w3.org/2000/svg"><g clip-path="url(#clip0_2_10279)"><path d="M1.284 0H1223.19v409.644H1.284V0z" fill="#fff"/><path fill-rule="evenodd" clip-rule="evenodd" d="M575.093 329.454l47.07-181.634c-46.11 37.357-127.762 91.139-168.108 22.543-24.016-40.578-22.735-53.782-116.876-57.969-21.774-.966-33.302-12.882-43.548-28.018C238.555 4.51 84.215 6.441 1.281 45.408v313.674l127.123 50.562h374.002l72.687-80.19z" fill="url(#paint0_linear_2_10279)"/><path fill-rule="evenodd" clip-rule="evenodd" d="M618.329 327.844c-203.332 8.051-409.865-5.475-617.04-26.73v108.53h617.04v-81.8z" fill="url(#paint1_linear_2_10279)"/><path fill-rule="evenodd" clip-rule="evenodd" d="M372.726 303.368c35.864 22.866 72.047 45.409 107.91 68.274-30.419 9.018-62.12 15.137-95.742 18.357-8.645-4.509-17.291-9.339-25.937-13.848-11.207-1.288-22.414-2.254-33.621-3.542-13.449-6.763-26.578-13.849-40.026-20.611-.961 11.271-1.921 22.865-3.202 34.137-24.336 7.085-48.352 14.17-72.687 21.255-22.415-12.882-44.189-26.408-63.081-40.9 5.443-.644 10.887-.967 16.33-1.611 6.084-13.204 11.848-26.407 17.932-39.933-15.05.322-30.42.644-45.469.966-.961 14.17-1.922 28.34-2.882 42.832-31.701.966-64.042 4.509-95.102.966-9.926-7.729-18.572-16.102-24.656-26.73 5.123-.322 10.567-.322 15.69-.644 1.601-7.729 3.523-15.458 5.124-23.187l-32.341-.322v-42.511l371.76 27.052z" fill="#C8C8C8"/><path fill-rule="evenodd" clip-rule="evenodd" d="M1.288 225.755l18.893-4.831.96-46.697 26.898-9.017 14.41 5.475 1.6-50.561 16.65-5.153 14.41 1.61.96-16.424 27.539.644 22.094 7.085 56.997 4.186 20.813.966v-10.949l15.05-9.34 29.459 6.442.32 21.577h14.41v23.509l38.745.966-1.922 56.358 42.588-5.796 22.414 9.661v21.899l32.021 11.916-2.561 119.157-12.809 9.662h-68.204l-34.262-19.323L189.25 317.86 1.288 314.64v-88.885z" fill="#EFE6C9"/><path fill-rule="evenodd" clip-rule="evenodd" d="M172.913 57.968c-15.37 0-26.577 10.628-26.577 21.9 0 10.95 15.69 12.56 30.74 12.56 15.37 0 25.616 5.796 24.015-10.95-.96-16.746-12.808-23.51-28.178-23.51z" fill="#737160"/><path fill-rule="evenodd" clip-rule="evenodd" d="M146.652 77.935c-7.685 13.204 7.685 12.56 33.942 13.204 12.808-6.763 1.601-16.424-8.646-13.204-9.286 2.899-22.094 5.797-25.296 0z" fill="#807E6D"/><path fill-rule="evenodd" clip-rule="evenodd" d="M207.508 64.087c1.921 10.95-3.843 14.814-13.769 15.459-11.528 0-19.853-3.543-16.331-19.967-2.561-13.848 6.725-14.17 8.326-5.475 5.123-.322 9.286-.322 12.808.322 8.005-12.882 9.286 2.898 8.966 9.661z" fill="#807E6D"/><path fill-rule="evenodd" clip-rule="evenodd" d="M203.343 63.443c-.961 1.61-1.922 2.255-2.882 2.255-.961 0-2.242-.966-3.202-2.255l-.641.322c1.281 1.289 2.562 2.255 3.523 2.255 1.28 0 2.561-.644 3.522-2.577h-.32zm-13.141 0c-1.281 1.932-2.242 2.576-3.523 2.576-1.28 0-2.241-.966-3.522-2.576l-.64.322c1.281 1.61 2.562 2.577 3.842 2.577 1.281.322 2.882-.644 4.163-2.899h-.32zm9.938 6.441c-.641 1.288-1.281 1.61-1.922 1.61-.64 0-1.601-.644-2.241-1.932l-.32-.644-.32.644c-.321.644-.641 1.288-.961 1.61-.32.322-.961.644-1.281.644h-1.601c-.64-.322-1.281-.644-1.921-1.288l-.641.322c.641.644 1.281 1.288 2.242 1.288.64.322 1.281.322 1.921 0 .64 0 1.281-.322 1.601-.966.32-.322.641-.966.961-1.288.96 1.288 1.601 1.932 2.561 1.932.961 0 1.922-.644 2.562-2.254l-.64.322z" fill="#403E32"/><path d="M168.914 65.443l15.492 2.497-.101.636-15.493-2.497.102-.636zm15.342 4.854l.101.636-15.492 2.496-.101-.636 15.492-2.496z" fill="#E8E4BE"/><path fill-rule="evenodd" clip-rule="evenodd" d="M204.61 67.952l9.927-3.543-.321-.644-9.926 3.543.32.644zm.649 2.576l9.606.322v-.966h-9.606v.644z" fill="#E8E4BE"/><path fill-rule="evenodd" clip-rule="evenodd" d="M172.906 179.702l42.267 16.102-12.168 9.662-72.366 8.695-34.583-19.967-3.842-13.848 80.692-.644z" fill="#FFDF75"/><path fill-rule="evenodd" clip-rule="evenodd" d="M215.173 195.805l-84.214 7.407-7.685 4.83-4.803 102.09 8.005 12.237 84.214-3.22 4.483-123.344z" fill="#F7CE66"/><path fill-rule="evenodd" clip-rule="evenodd" d="M92.23 180.346l38.745 22.866-4.483 119.157-38.745-28.984 4.483-113.039zm42.896-93.071l22.094-3.543 7.045 8.051.64 87.919-11.207 17.391-18.892-12.56.32-97.258z" fill="#DBB158"/><path fill-rule="evenodd" clip-rule="evenodd" d="M209.1 91.14c-17.291-2.577-34.582-4.832-52.194-7.086-1.281 37.68-2.241 75.359-3.522 113.039 17.291-1.61 34.582-3.221 52.194-4.509.32-32.849.96-66.02 3.522-101.445z" fill="#F7CE66"/><path fill-rule="evenodd" clip-rule="evenodd" d="M479.353 283.724c1.281-2.255 2.242-4.509 3.522-6.441-10.246-5.475-20.813-11.272-31.06-16.747l-89.337.966c1.28 2.899 2.241 5.797 3.522 8.696 8.325 6.763 16.33 13.526 24.656 19.966 29.459-1.932 58.918-4.186 88.697-6.44z" fill="#FFDF75"/><path fill-rule="evenodd" clip-rule="evenodd" d="M365.36 370.998l-3.202-109.496 28.178 21.577 6.084 12.238.641 81.156-6.084 8.051-25.617-13.526z" fill="#DBB158"/><path fill-rule="evenodd" clip-rule="evenodd" d="M482.875 277.282c-30.739 3.543-61.479 6.441-92.539 6.119.32 33.815.64 67.63.64 101.445 29.779-2.576 59.559-6.441 89.658-12.882.64-31.882 1.601-63.443 2.241-94.682z" fill="#F7CE66"/><path fill-rule="evenodd" clip-rule="evenodd" d="M417.87 260.858l29.139 19.967.32 30.273-17.291 1.932-.32-30.917-25.937-21.255h14.089z" fill="#F7F3CD"/><path fill-rule="evenodd" clip-rule="evenodd" d="M467.831 269.231l-88.377 5.475-.32 24.798-8.326-6.441.321-24.798 87.736-4.186 8.966 5.152z" fill="#F7F3CD"/><path fill-rule="evenodd" clip-rule="evenodd" d="M472.63 308.199v-9.661c1.281 0 2.562-.322 3.843-.322-1.281-1.611-2.562-2.899-3.843-4.509l-3.842-4.831c-1.281 1.933-2.562 3.865-4.163 5.475-1.281 1.932-2.561 3.543-3.842 5.475 1.281 0 2.561-.322 3.842-.322v9.661c1.281 0 2.562-.322 3.843-.322 1.921-.322 3.202-.644 4.162-.644z" fill="#DBB158"/><path fill-rule="evenodd" clip-rule="evenodd" d="M286.907 235.738l10.247-13.526-52.194-20.933-73.648 7.407 6.084 18.679 43.868 23.832 65.643-15.459z" fill="#FFDF75"/><path fill-rule="evenodd" clip-rule="evenodd" d="M162.34 365.524c4.483-50.562 7.045-103.056 8.646-157.159 16.971 10.305 33.621 20.288 50.592 30.594 3.843 6.119 7.365 12.238 11.208 18.679-.641 43.154-1.601 86.308-2.562 129.463-4.163 4.83-8.325 9.661-12.168 14.492-18.572-11.916-37.144-23.832-55.716-36.069z" fill="#DBB158"/><path fill-rule="evenodd" clip-rule="evenodd" d="M218.062 401.915l3.523-162.634 75.569-17.069-6.405 158.77-72.687 20.933z" fill="#F7CE66"/><path fill-rule="evenodd" clip-rule="evenodd" d="M215.825 204.178l56.357 23.509.32 40.9-17.611 3.865.96-40.9-56.356-25.764 16.33-1.61z" fill="#F7F3CD"/><path fill-rule="evenodd" clip-rule="evenodd" d="M271.215 211.585l-68.845 16.102-1.921 32.205-13.769-8.051 1.281-33.171 72.046-11.594 11.208 4.509z" fill="#F7F3CD"/><path fill-rule="evenodd" clip-rule="evenodd" d="M243.356 271.486c0-1.932.32-4.187.32-6.119 0-1.932.32-3.865.32-6.119 1.281-.322 2.882-.322 4.163-.644-1.281-1.932-2.562-3.543-3.843-5.475-1.281-1.932-2.561-3.542-4.163-5.475-1.601 1.933-3.202 4.187-4.803 6.119-1.601 2.255-3.522 4.509-5.123 6.763 1.601-.322 3.202-.322 4.803-.644 0 1.932-.32 4.187-.32 6.441 0 2.254-.32 4.187-.32 6.441l4.803-.966c1.281.322 2.562 0 4.163-.322z" fill="#DBB158"/><path fill-rule="evenodd" clip-rule="evenodd" d="M200.449 147.175l-1.921-8.695 42.587-2.576 28.819 12.56-7.685 7.085-40.346 5.797-21.454-14.171z" fill="#FFDF75"/><path fill-rule="evenodd" clip-rule="evenodd" d="M223.184 137.192l1.602-.322 22.414 14.17-.641.966-23.375-14.814z" fill="#F7CE66"/><path fill-rule="evenodd" clip-rule="evenodd" d="M198.532 138.48l23.375 15.458 5.764 9.984v54.748l-7.365 7.407-24.656-15.78 2.882-71.817z" fill="#DBB158"/><path fill-rule="evenodd" clip-rule="evenodd" d="M269.934 148.464l-48.031 5.474-1.601 72.139 47.711-10.628 1.921-66.985z" fill="#F7CE66"/><path fill-rule="evenodd" clip-rule="evenodd" d="M244.961 144.277l-3.522-3.865-21.454 1.933 7.685 4.508 17.291-2.576z" fill="#F7F3CD"/><path fill-rule="evenodd" clip-rule="evenodd" d="M242.086 183.245v-10.306c1.281 0 2.882-.322 4.163-.322-1.281-1.61-2.882-3.22-4.163-4.83-1.281-1.611-2.882-3.221-4.163-4.831-1.281 1.932-2.882 3.864-4.163 5.797-1.28 1.932-2.881 3.864-4.162 5.797 1.281 0 2.882-.323 4.162-.323v10.306c1.281 0 2.882-.322 4.163-.322 1.601-.644 2.882-.966 4.163-.966z" fill="#DBB158"/><path fill-rule="evenodd" clip-rule="evenodd" d="M140.576 263.112l5.443-10.627-34.262-15.78-80.372-.322 5.764 18.034 16.65 11.916 86.777-3.221z" fill="#FFDF75"/><path fill-rule="evenodd" clip-rule="evenodd" d="M64.368 266.977L54.12 256.349l-22.734-19.966-2.882 105.953 20.173 22.221 12.488-5.152 3.202-92.428z" fill="#DBB158"/><path fill-rule="evenodd" clip-rule="evenodd" d="M146.027 252.485c-30.42 1.288-61.16 2.576-91.58 3.543-1.92 36.069-3.842 72.138-5.443 108.207 31.38-.322 62.441-.644 93.501-.644 0-38.645 8.645-67.63 3.522-111.106z" fill="#F7CE66"/><path fill-rule="evenodd" clip-rule="evenodd" d="M85.174 236.705l26.257 17.39 1.281 26.408H90.618l1.921-25.764-24.976-18.034h17.611z" fill="#F7F3CD"/><path fill-rule="evenodd" clip-rule="evenodd" d="M134.168 283.724v-10.306c1.601 0 3.202 0 4.483-.322-1.601-1.61-2.882-3.542-4.483-5.153-1.601-1.61-2.882-3.542-4.483-5.152-1.601 1.932-3.202 3.864-4.803 5.474-1.601 1.933-3.202 3.543-4.483 5.475 1.601 0 2.882 0 4.483-.322v10.306h9.286z" fill="#DBB158"/><path fill-rule="evenodd" clip-rule="evenodd" d="M318.287 394.186c-15.369 0-28.498 1.288-33.301 2.898-1.601 0-3.522-.322-5.444-.322-9.286 0-16.65 1.933-16.65 4.187 0 2.254 7.364 4.187 16.65 4.187 8.006 0 14.73-1.289 16.331-3.221 6.084.644 13.769.966 22.414.966 19.213 0 34.903-1.932 34.903-4.186.32-2.577-15.37-4.509-34.903-4.509z" fill="#C8C8C8"/><path fill-rule="evenodd" clip-rule="evenodd" d="M331.739 376.795c-3.842-.966-7.685-2.254-11.527-3.22-3.843 3.542-6.084 7.085-7.685 12.238 1.601 1.61 6.084 5.475 9.606 6.441.64-.322 1.601-1.933 2.241-2.255 1.281 2.577 2.562 4.831 3.843 7.407 8.645 2.255 17.291 1.933 25.937.967 0-10.306-7.045-9.34-20.174-12.238-1.921-3.543-3.202-6.763-2.241-9.34zm-47.388 3.221c4.483.644 8.966 1.288 13.769 1.932 1.601 3.542 1.601 8.695 1.281 13.848-.961 0-1.601 0-2.562.322 0 2.254-.32 4.831-.32 7.085-7.685 2.576-15.37 1.932-23.055.644.32-6.441 1.601-10.305 8.005-12.238a76.577 76.577 0 012.882-11.593z" fill="#4F4D3E"/><path fill-rule="evenodd" clip-rule="evenodd" d="M312.206 212.551c8.005 0 15.69.322 23.695.322 8.326 28.985 14.73 60.545 19.533 93.716-1.921 11.272-9.606 36.391-20.173 67.308-2.882 5.153-9.286 2.576-16.331-1.288 3.203-26.086 6.084-52.816 12.168-69.884-7.685-14.493-13.769-30.595-18.892-48.308v-41.866z" fill="#263238"/><path fill-rule="evenodd" clip-rule="evenodd" d="M321.497 282.758c-3.202-8.374-6.084-17.069-8.965-26.086 2.881-6.763 5.763-13.526 8.645-20.611-1.281 16.746-1.921 32.527.32 46.697z" fill="#1A2D37"/><path fill-rule="evenodd" clip-rule="evenodd" d="M292.997 205.466c11.528 4.187 23.375 8.051 34.903 11.916-5.123 25.442-10.567 50.561-16.331 85.342-2.882 24.476-7.685 51.206-12.488 78.58-7.044 4.831-13.128 5.797-17.611 0 .64-28.34.32-57.647 3.522-81.478-.64-19.001-.64-38.968 1.921-64.41-.64-12.559 1.922-21.899 6.084-29.95z" fill="#263238"/><path fill-rule="evenodd" clip-rule="evenodd" d="M365.993 108.208c.32 2.898.96 5.797 1.28 8.373-1.921-2.254-4.162-4.83-5.763-4.508-.32-2.255 0-3.865 4.483-3.865z" fill="#FFAF69"/><path fill-rule="evenodd" clip-rule="evenodd" d="M363.756 74.07c0-.643 1.281-1.287 1.921-.965 4.803 1.932 9.606 5.797 14.409 7.729.321 12.882-.64 25.12-1.921 37.357l-13.449 2.899c-1.28.322-1.601 0-1.601-.966 1.281-14.815 2.242-30.273.641-46.053z" fill="#807E6D"/><path fill-rule="evenodd" clip-rule="evenodd" d="M365.68 73.427l16.331 6.763c.32 12.882-.641 25.119-1.921 37.357l-15.37 2.899c1.601-15.459 2.561-30.917.96-47.02z" fill="#4F4D3E"/><path fill-rule="evenodd" clip-rule="evenodd" d="M341.342 174.228c1.601-5.797 3.202-11.916 4.483-17.713 13.769 21.577 17.291 10.306 19.532-23.187.321-3.221-.32-7.085-.32-10.306 0-1.61 2.562-2.576 6.084-2.898.961-4.509 1.601-9.017.961-14.814 1.281-1.288 2.561-1.288 3.522-.322.32 3.22.32 6.119.64 9.339.321-4.509.641-9.339.961-13.848.961-.966 1.601-.966 2.562 0 .96-.644 1.601 0 1.921 1.288 0 6.441 0 12.882-.32 19.001-4.803 3.865-6.084 8.373-9.286 12.238-.641 13.526 3.202 58.29-20.173 47.985-5.444-2.577-7.045-3.865-10.567-6.763z" fill="#FFAF69"/><path fill-rule="evenodd" clip-rule="evenodd" d="M302.925 220.281c-5.764 44.12-8.646 92.105-11.848 142.022l-1.601 22.866h.961l1.601-22.866c3.202-49.917 6.083-98.224 11.847-142.022h-.96zm24.006.322c4.163 9.017 7.685 19 10.887 30.272 3.202 10.95 5.764 22.865 8.325 34.781 4.163 20.289 3.523 22.865-1.28 40.9l-1.281 4.187c-4.483 16.424-9.286 30.916-14.089 45.73l-.321.645.961.322.32-.644c4.803-14.493 9.606-29.307 14.089-45.731l1.281-4.187c4.803-18.034 5.444-20.933 1.281-41.544-2.562-11.916-5.123-23.831-8.325-34.781-3.202-10.95-6.405-21.255-10.887-30.272l-.961.322z" fill="#1A2D37"/><path fill-rule="evenodd" clip-rule="evenodd" d="M322.453 160.058c-.641-10.628-1.601-19.323-2.242-29.629 13.129 4.187 19.533 17.069 28.499 25.12-3.202 6.441-4.803 12.56-5.764 21.577-7.365-4.509-14.089-10.305-20.493-17.068z" fill="#fff"/><path fill-rule="evenodd" clip-rule="evenodd" d="M339.746 174.872c-4.803-3.221-9.286-6.763-13.449-10.95-1.28-9.339-2.241-17.712-4.162-28.34 14.409 13.848 14.729 29.95 17.611 39.29z" fill="#E8E4BE"/><path fill-rule="evenodd" clip-rule="evenodd" d="M292.667 129.141c6.084-.322 11.207-.966 17.291-1.288 2.882.322 6.724-.644 9.606 1.288 21.134 30.273 19.213 63.766 19.853 92.75-20.493 7.729-42.908 6.763-60.839-7.085 5.123-19.967 10.887-45.087 1.601-66.02 1.921-6.441 3.842-12.56 5.764-19.001-.321-5.152 1.921-5.152 6.724-.644z" fill="#fff"/><path fill-rule="evenodd" clip-rule="evenodd" d="M278.579 214.806c5.123-19.967 10.887-45.087 1.601-66.02l1.281-4.187h2.241c8.005 19.645 1.921 55.715-5.123 70.207z" fill="#F7F3CD"/><path fill-rule="evenodd" clip-rule="evenodd" d="M304.203 112.073c-5.444-2.577-10.567-5.153-16.011-7.729 4.163 9.339 6.084 17.712 4.483 25.119-.96 0-1.921 0-2.882.322 8.646 8.051 16.971 10.628 24.336-.644h-3.522c-3.522-4.831-5.764-10.305-6.404-17.068z" fill="#FFAF69"/><path fill-rule="evenodd" clip-rule="evenodd" d="M290.746 111.106c2.241 6.441 10.567 9.662 15.049 9.018-.64-1.933-1.28-3.865-1.601-6.119-4.162-.966-8.965-2.254-13.448-2.899z" fill="#FF9E69"/><path fill-rule="evenodd" clip-rule="evenodd" d="M309.003 85.987c.96 1.932.96 4.186 1.28 6.119 15.05 26.407-9.606 33.17-23.375 14.492-3.202.322-6.404-1.288-8.005-8.696 0-21.899 17.291-24.475 30.1-11.915z" fill="#FFAF69"/><path fill-rule="evenodd" clip-rule="evenodd" d="M292.03 84.054c2.562 2.577 8.325 2.577 10.247-.966 4.803 6.12 13.128 1.288 11.207-4.83 3.522-17.069-17.612-21.255-23.375-9.984-3.202-3.22-12.809 1.288-11.848 7.085-5.123 3.865-5.444 8.373-1.921 13.848-1.601 4.509.32 6.763 2.241 9.018.32-4.831 5.124-1.289 8.326 2.576-1.601-2.255-2.882-4.83-2.242-9.017 4.803-1.289 7.045-3.865 7.365-7.73z" fill="#403E32"/><path d="M301 95.97c-.53 0-.96-.721-.96-1.61 0-.89.43-1.61.96-1.61.531 0 .961.72.961 1.61 0 .889-.43 1.61-.961 1.61z" fill="#36342B"/><path fill-rule="evenodd" clip-rule="evenodd" d="M308.676 90.817c-.64 0-.96.645-.96 1.61 0 .967.32 1.61.96 1.61.641 0 .961-.643.961-1.61 0-.966-.32-1.61-.961-1.61z" fill="#36342B"/><path fill-rule="evenodd" clip-rule="evenodd" d="M300.675 88.885c-.961.322-1.601.966-2.242 1.61-.64.645-1.28 1.61-1.601 2.577l.961.322c.32-.966.961-1.61 1.281-2.254.64-.644 1.281-.967 1.921-1.289l-.32-.966zm6.731 0c.32 0 .96 0 1.281.322.32.322.64.322.96.644l.641-.644c-.321-.322-.961-.644-1.281-.966-.641-.322-.961-.322-1.601-.322v.966z" fill="#403E32"/><path fill-rule="evenodd" clip-rule="evenodd" d="M299.075 100.801c-.64 8.373 10.247 9.339 11.528 2.254-3.843.644-8.326 0-11.528-2.254zm-18.248 28.34c1.921-1.932 3.843-2.254 5.444.644 6.083 7.407 4.803 14.17.32 21.255-4.803-2.254-13.129-2.898-21.774-2.898-1.921-6.441-3.202-13.204-2.882-20.611 6.084.966 12.488 1.61 18.892 1.61z" fill="#fff"/><path fill-rule="evenodd" clip-rule="evenodd" d="M261.926 136.226c1.921 1.932 3.843 4.187 6.084 6.119-.32 2.898-.961 4.509-1.921 5.153-1.921-2.899-2.882-7.085-4.163-11.272z" fill="#E8E4BE"/><path fill-rule="evenodd" clip-rule="evenodd" d="M268.015 142.023c.32-3.543.32-9.017-3.202-12.56-8.325-.322-17.932-1.288-24.976-.966-9.286.644-8.326 3.22-4.483 7.729 8.645 10.306 20.493 17.391 31.06 26.086-2.882 1.288-3.202 10.305-5.444 17.712-1.921 2.899-3.522 5.153-6.084 6.441.321.967 1.281.967 1.922.645-1.922.644-3.523 1.61-2.882 3.22 2.241.322 4.803.322 7.044 1.61-.64.966-.32 1.61.321 1.933 2.881-2.577 5.763-4.831 8.645-7.408l1.921-6.763c0 1.933.321 3.221.961 4.187 1.281-1.61 2.242-3.865 2.882-7.085 0-3.542-.32-7.085-.32-10.95 0 0-1.921-4.83-2.882-6.118-5.764-7.086-11.528-14.815-20.173-20.611 5.123 2.898 10.246 3.864 15.69 2.898z" fill="#FFAF69"/><path fill-rule="evenodd" clip-rule="evenodd" d="M252.325 140.091c.96.322 2.241.644 3.202.966-3.522-3.221-7.365-6.119-12.168-7.407 3.522 1.61 6.404 3.542 8.966 6.441z" fill="#FF9E69"/><path fill-rule="evenodd" clip-rule="evenodd" d="M298.756 155.227c7.365 8.373 12.168 18.357 16.011 29.306 3.842 10.95 6.404 22.866 8.645 34.459l.961-.322c-2.562-11.916-5.123-23.831-8.646-34.781-3.842-10.95-8.645-20.933-16.01-29.628l-.961.966zm-.642-6.763c5.443 3.864 9.606 7.729 13.128 12.238 3.522 4.186 6.404 8.695 9.286 13.204l.64-.322c-2.881-4.509-5.763-9.018-9.286-13.526-3.522-4.187-8.005-8.374-13.448-12.238l-.32.644zm4.81-2.576c3.202.644 4.803 1.61 6.724 2.898l1.922.966.32-.644c-.641-.322-1.281-.644-1.601-.966-1.921-1.288-3.843-2.254-7.045-2.899l-.32.645zm-12.174 10.949c1.921 5.475 3.202 11.916 3.842 18.679.641 6.763 1.281 14.17 1.601 21.255h.961c-.32-7.407-.641-14.492-1.601-21.255-.641-6.763-1.921-13.204-3.843-19.001l-.96.322z" fill="#E8E4BE"/><path fill-rule="evenodd" clip-rule="evenodd" d="M374.008 80.512v5.153c0 .322 0 .644.32.644.32.644.32.644.64.644h1.281c.32 0 .32 0 .641-.322 0 0 .32-.322.32-.644v-4.509c0-.322 0-.322-.32-.644 0-.322-.321-.322-.641-.322s-.32 0-.64-.322c-.321 0-.32 0-.641-.322h-.64c0 .322-.32.322-.32.644z" fill="#807E6D"/><path fill-rule="evenodd" clip-rule="evenodd" d="M374.645 82.122c0 .322 0 .644.32.966.32.322.64.322.64.644h.641c.32 0 .32-.322.32-.644s0-.644-.32-.966l-.641-.644h-.64c-.32 0-.32.322-.32.644zm.318 2.898c0 .323.32.645.64.645.321 0 .641-.322.641-.644 0-.323-.32-.645-.641-.645-.32 0-.64.322-.64.645z" fill="#36342B"/><path d="M418.19 275.672c-13.794 0-24.976-2.451-24.976-5.475 0-3.023 11.182-5.474 24.976-5.474 13.794 0 24.976 2.451 24.976 5.474 0 3.024-11.182 5.475-24.976 5.475z" fill="#DBB158"/><path fill-rule="evenodd" clip-rule="evenodd" d="M399.307 219.958c16.01-.322 32.341-.644 48.351-.644-1.921 16.747-3.842 33.493-5.443 50.24-10.887 6.118-23.696 4.83-36.824 1.61-1.921-17.069-3.843-34.137-6.084-51.206z" fill="#FF9861"/><path fill-rule="evenodd" clip-rule="evenodd" d="M445.722 214.805c2.241-1.61 4.482-3.22 7.044-4.83-19.212-2.577-38.745-1.933-58.278.644 3.203 1.932 6.084 4.186 9.286 6.119 14.09-.322 27.858-1.289 41.948-1.933z" fill="#4F4D3E"/><path fill-rule="evenodd" clip-rule="evenodd" d="M429.4 191.618c-19.853-28.34-26.577-58.29-8.966-90.495 16.651 40.578 15.37 67.63 8.966 90.495z" fill="#5DC94C"/><path fill-rule="evenodd" clip-rule="evenodd" d="M431.64 185.177c-2.562-31.883 11.527-49.595 32.661-61.189 3.842 22.543-9.926 42.51-32.661 61.189z" fill="#4AAB3C"/><path fill-rule="evenodd" clip-rule="evenodd" d="M382.967 167.787c27.537 5.152 31.06 14.814 34.582 24.475-16.651 0-31.701-2.898-34.582-24.475z" fill="#5DC94C"/><path fill-rule="evenodd" clip-rule="evenodd" d="M448.291 148.142c-6.404 5.796-11.207 13.848-14.409 25.119-3.202 10.95-4.483 25.12-4.163 42.511h.961c-.641-17.391.96-31.239 3.842-42.511 3.202-10.949 8.006-19 14.41-24.475l-.641-.644zm-25.292-17.069c2.882 14.492 3.842 28.662 4.483 42.832.32 14.171 0 28.019-.32 41.867h.96c.321-13.848.961-28.018.321-41.867-.321-14.17-1.602-28.34-4.483-42.832h-.961zm-24.978 49.274c21.454 8.373 23.695 18.678 26.257 28.984.32 1.61.64 3.22 1.281 5.153l.96-.323c-.32-1.61-.96-3.22-1.281-5.152-2.241-10.628-4.803-20.933-26.577-29.629l-.64.967z" fill="#509663"/><path fill-rule="evenodd" clip-rule="evenodd" d="M452.769 209.975c.321 3.542.321 7.407.641 10.949-19.533 6.763-39.065 5.797-58.918 1.288 0-3.864 0-7.729.32-11.593 19.853 3.542 39.065 2.576 57.957-.644z" fill="#FF9E69"/><path fill-rule="evenodd" clip-rule="evenodd" d="M376.575 15.458c-5.444 0-10.567 2.577-14.089 6.441-12.168 13.848 6.084 35.425 12.808 49.596.64-.323.961-.645 1.281-1.289 6.724-14.492 24.976-33.815 14.729-47.34-3.202-4.51-8.645-7.408-14.729-7.408zm0 8.696c4.483 0 8.005 3.542 8.005 8.05 0 4.51-3.522 8.052-8.005 8.052-4.483 0-8.005-3.543-8.005-8.051-.321-4.187 3.522-8.051 8.005-8.051z" fill="#2E8120"/><path fill-rule="evenodd" clip-rule="evenodd" d="M377.85 14.17c-5.443 0-10.567 2.577-14.089 6.441-12.168 13.848 6.084 35.425 12.808 49.595 7.365-13.848 26.898-34.137 16.011-48.629-3.202-4.508-8.646-7.407-14.73-7.407zm0 8.695c4.483 0 8.005 3.543 8.005 8.052 0 4.508-3.522 8.05-8.005 8.05-4.483 0-8.005-3.542-8.005-8.05 0-4.187 3.522-8.052 8.005-8.052z" fill="#4FAB3F"/></g><defs><linearGradient id="paint0_linear_2_10279" x1="8.873" y1="28.315" x2="673.18" y2="197.791" gradientUnits="userSpaceOnUse"><stop offset=".391" stop-color="#F5F5F5"/><stop offset="1" stop-color="#F5F5F5" stop-opacity="0"/></linearGradient><linearGradient id="paint1_linear_2_10279" x1="257.501" y1="247.5" x2="279.174" y2="451.982" gradientUnits="userSpaceOnUse"><stop stop-color="#CECECE"/><stop offset="1" stop-color="#CECECE" stop-opacity="0"/></linearGradient><clipPath id="clip0_2_10279"><path fill="#fff" transform="matrix(-1 0 0 1 618 0)" d="M0 0h618v409H0z"/></clipPath></defs></svg>