<svg width="360" height="238" fill="none" xmlns="http://www.w3.org/2000/svg"><g clip-path="url(#clip0_2_30216)"><path d="M-.24 0h723.657v241.38H-.24V0z" fill="#fff"/><path fill-rule="evenodd" clip-rule="evenodd" d="M339.589 194.128l27.877-107.026c-27.308 22.012-75.665 53.703-99.56 13.283-14.223-23.91-13.464-31.69-69.217-34.157-12.896-.57-19.723-7.591-25.791-16.51C140.28 2.657 48.875 3.795-.241 26.757v184.83l75.286 29.792h221.496l43.048-47.251z" fill="url(#paint0_linear_2_30216)"/><path fill-rule="evenodd" clip-rule="evenodd" d="M365.195 193.18c-120.42 4.744-242.736-3.226-365.431-15.751v63.951h365.431v-48.2z" fill="url(#paint1_linear_2_30216)"/><path fill-rule="evenodd" clip-rule="evenodd" d="M219.741 178.757c21.239 13.474 42.668 26.757 63.908 40.23-18.016 5.314-36.79 8.919-56.702 10.817-5.12-2.657-10.24-5.503-15.36-8.16-6.638-.759-13.275-1.328-19.912-2.087-7.965-3.985-15.74-8.16-23.705-12.145-.569 6.642-1.138 13.473-1.896 20.115-14.413 4.175-28.636 8.349-43.048 12.524-13.275-7.59-26.17-15.56-37.359-24.1 3.224-.379 6.448-.569 9.672-.949 3.603-7.78 7.016-15.56 10.62-23.53-8.913.189-18.016.379-26.929.569-.569 8.35-1.138 16.699-1.707 25.238-18.774.57-37.927 2.657-56.322.57-5.879-4.555-10.999-9.488-14.602-15.751 3.034-.189 6.258-.189 9.292-.379.948-4.554 2.086-9.109 3.034-13.663l-19.153-.19v-25.049l220.169 15.94z" fill="#C8C8C8"/><path fill-rule="evenodd" clip-rule="evenodd" d="M-.237 133.024l11.189-2.846.569-27.516 15.93-5.313 8.533 3.226.948-29.793 9.861-3.036 8.534.949.569-9.678 16.309.379 13.085 4.175 33.755 2.467 12.326.57v-6.453l8.913-5.503 17.447 3.795.19 12.714h8.533v13.853l22.946.57-1.137 33.208 25.221-3.416 13.275 5.693v12.904l18.964 7.021-1.517 70.213-7.586 5.693h-40.393l-20.291-11.386-64.856-18.217-111.317-1.898v-52.375z" fill="#EFE6C9"/><path fill-rule="evenodd" clip-rule="evenodd" d="M101.405 34.157c-9.103 0-15.74 6.263-15.74 12.904 0 6.452 9.292 7.401 18.205 7.401 9.103 0 15.171 3.416 14.223-6.452-.569-9.867-7.585-13.852-16.688-13.852z" fill="#737160"/><path fill-rule="evenodd" clip-rule="evenodd" d="M85.852 45.923c-4.551 7.78 4.551 7.4 20.102 7.78 7.585-3.985.948-9.678-5.121-7.78-5.5 1.708-13.085 3.416-14.981 0z" fill="#807E6D"/><path fill-rule="evenodd" clip-rule="evenodd" d="M121.893 37.763c1.138 6.452-2.276 8.73-8.154 9.109-6.827 0-11.758-2.088-9.672-11.766-1.517-8.16 3.982-8.35 4.931-3.226 3.034-.19 5.499-.19 7.585.19 4.741-7.59 5.5 1.708 5.31 5.693z" fill="#807E6D"/><path fill-rule="evenodd" clip-rule="evenodd" d="M119.426 37.383c-.569.95-1.137 1.329-1.706 1.329s-1.328-.57-1.897-1.329l-.379.19c.758.76 1.517 1.328 2.086 1.328.758 0 1.517-.379 2.086-1.518h-.19zm-7.782 0c-.759 1.139-1.328 1.518-2.086 1.518-.759 0-1.328-.569-2.086-1.518l-.379.19c.758.949 1.517 1.518 2.275 1.518.759.19 1.707-.38 2.465-1.708h-.189zm5.885 3.796c-.379.759-.758.948-1.138.948-.379 0-.948-.379-1.327-1.138l-.19-.38-.189.38c-.19.38-.38.759-.569.949-.19.19-.569.38-.759.38h-.948c-.379-.19-.759-.38-1.138-.76l-.379.19c.379.38.758.759 1.327.759.38.19.759.19 1.138 0 .379 0 .759-.19.948-.57.19-.189.38-.569.569-.758.569.759.948 1.138 1.517 1.138s1.138-.38 1.517-1.328l-.379.19z" fill="#403E32"/><path d="M99.036 38.562l9.175 1.47-.06.376-9.175-1.471.06-.375zm9.087 2.86l.06.375-9.176 1.47-.06-.374 9.176-1.471z" fill="#E8E4BE"/><path fill-rule="evenodd" clip-rule="evenodd" d="M120.177 40.04l5.879-2.087-.19-.38-5.879 2.088.19.38zm.384 1.518l5.689.19v-.57h-5.689v.38z" fill="#E8E4BE"/><path fill-rule="evenodd" clip-rule="evenodd" d="M101.401 105.888l25.032 9.488-7.206 5.693-42.858 5.124-20.481-11.765-2.276-8.16 47.789-.38z" fill="#FFDF75"/><path fill-rule="evenodd" clip-rule="evenodd" d="M126.433 115.376l-49.875 4.365-4.551 2.846-2.845 60.156 4.741 7.211 49.875-1.898 2.655-72.68z" fill="#F7CE66"/><path fill-rule="evenodd" clip-rule="evenodd" d="M53.622 106.268l22.946 13.473-2.655 70.213-22.946-17.079 2.655-66.607zm25.404-54.842l13.085-2.087 4.172 4.744.38 51.805-6.638 10.247-11.189-7.4.19-57.309z" fill="#DBB158"/><path fill-rule="evenodd" clip-rule="evenodd" d="M122.836 53.703c-10.24-1.518-20.481-2.846-30.91-4.175-.76 22.203-1.328 44.405-2.087 66.607 10.24-.948 20.481-1.897 30.911-2.656.19-19.356.569-38.902 2.086-59.776z" fill="#F7CE66"/><path fill-rule="evenodd" clip-rule="evenodd" d="M282.889 167.182c.758-1.328 1.327-2.657 2.086-3.795-6.069-3.226-12.327-6.642-18.395-9.868l-52.909.569c.759 1.708 1.328 3.416 2.086 5.124 4.931 3.985 9.672 7.97 14.602 11.765 17.447-1.138 34.894-2.467 52.53-3.795z" fill="#FFDF75"/><path fill-rule="evenodd" clip-rule="evenodd" d="M215.379 218.608l-1.897-64.52 16.688 12.714 3.603 7.211.38 47.821-3.604 4.744-15.17-7.97z" fill="#DBB158"/><path fill-rule="evenodd" clip-rule="evenodd" d="M284.975 163.387c-18.205 2.087-36.411 3.795-54.805 3.605.189 19.925.379 39.851.379 59.776 17.636-1.518 35.272-3.796 53.098-7.591.38-18.786.949-37.383 1.328-55.79z" fill="#F7CE66"/><path fill-rule="evenodd" clip-rule="evenodd" d="M246.476 153.709l17.257 11.765.19 17.838-10.24 1.138-.19-18.217-15.361-12.524h8.344z" fill="#F7F3CD"/><path fill-rule="evenodd" clip-rule="evenodd" d="M276.065 158.643l-52.34 3.226-.189 14.611-4.931-3.795.19-14.612 51.96-2.467 5.31 3.037z" fill="#F7F3CD"/><path fill-rule="evenodd" clip-rule="evenodd" d="M278.907 181.604v-5.693c.759 0 1.518-.19 2.276-.19-.758-.949-1.517-1.708-2.276-2.656l-2.275-2.847c-.759 1.139-1.517 2.277-2.465 3.226-.759 1.139-1.518 2.088-2.276 3.226.758 0 1.517-.19 2.276-.19v5.693c.758 0 1.517-.19 2.275-.19 1.138-.189 1.897-.379 2.465-.379z" fill="#DBB158"/><path fill-rule="evenodd" clip-rule="evenodd" d="M168.916 138.907l6.068-7.97-30.911-12.335-43.616 4.365 3.603 11.006 25.98 14.043 38.876-9.109z" fill="#FFDF75"/><path fill-rule="evenodd" clip-rule="evenodd" d="M95.143 215.382c2.655-29.793 4.172-60.724 5.12-92.605 10.051 6.073 19.912 11.955 29.963 18.028 2.276 3.605 4.362 7.211 6.637 11.006-.379 25.428-.948 50.857-1.517 76.285-2.465 2.847-4.93 5.693-7.206 8.539-10.999-7.021-21.998-14.042-32.997-21.253z" fill="#DBB158"/><path fill-rule="evenodd" clip-rule="evenodd" d="M128.144 236.825l2.086-95.831 44.754-10.057-3.793 93.554-43.047 12.334z" fill="#F7CE66"/><path fill-rule="evenodd" clip-rule="evenodd" d="M126.819 120.31l33.376 13.853.19 24.1-10.43 2.277.569-24.1-33.377-15.181 9.672-.949z" fill="#F7F3CD"/><path fill-rule="evenodd" clip-rule="evenodd" d="M159.622 124.675l-40.772 9.488-1.138 18.976-8.154-4.744.759-19.545 42.668-6.832 6.637 2.657z" fill="#F7F3CD"/><path fill-rule="evenodd" clip-rule="evenodd" d="M143.123 159.971c0-1.139.19-2.467.19-3.606 0-1.138.19-2.277.19-3.605.758-.19 1.706-.19 2.465-.38-.759-1.138-1.517-2.087-2.276-3.226-.758-1.138-1.517-2.087-2.465-3.226-.948 1.139-1.897 2.467-2.845 3.606-.948 1.328-2.086 2.657-3.034 3.985.948-.19 1.896-.19 2.845-.38 0 1.139-.19 2.467-.19 3.796 0 1.328-.19 2.467-.19 3.795l2.845-.569c.758.189 1.517 0 2.465-.19z" fill="#DBB158"/><path fill-rule="evenodd" clip-rule="evenodd" d="M117.713 86.722l-1.138-5.124 25.222-1.518 17.067 7.401-4.551 4.175-23.895 3.416-12.705-8.35z" fill="#FFDF75"/><path fill-rule="evenodd" clip-rule="evenodd" d="M131.177 80.84l.949-.19L145.4 89l-.379.569-13.844-8.73z" fill="#F7CE66"/><path fill-rule="evenodd" clip-rule="evenodd" d="M116.577 81.598l13.843 9.11 3.414 5.882v32.26l-4.362 4.364-14.602-9.298 1.707-42.318z" fill="#DBB158"/><path fill-rule="evenodd" clip-rule="evenodd" d="M158.864 87.481l-28.446 3.226-.948 42.507 28.256-6.262 1.138-39.47z" fill="#F7CE66"/><path fill-rule="evenodd" clip-rule="evenodd" d="M144.074 85.014l-2.086-2.277-12.706 1.139 4.552 2.656 10.24-1.518z" fill="#F7F3CD"/><path fill-rule="evenodd" clip-rule="evenodd" d="M142.371 107.976v-6.073c.759 0 1.707-.19 2.465-.19-.758-.948-1.706-1.897-2.465-2.846-.758-.949-1.707-1.898-2.465-2.847-.759 1.139-1.707 2.278-2.465 3.416-.759 1.139-1.707 2.277-2.466 3.416.759 0 1.707-.19 2.466-.19v6.073c.758 0 1.706-.19 2.465-.19.948-.38 1.707-.569 2.465-.569z" fill="#DBB158"/><path fill-rule="evenodd" clip-rule="evenodd" d="M82.254 155.037l3.224-6.262-20.292-9.299-47.599-.189 3.414 10.626 9.861 7.022 51.392-1.898z" fill="#FFDF75"/><path fill-rule="evenodd" clip-rule="evenodd" d="M37.12 157.314l-6.068-6.262-13.464-11.765-1.707 62.432 11.948 13.094 7.395-3.037 1.897-54.462z" fill="#DBB158"/><path fill-rule="evenodd" clip-rule="evenodd" d="M85.482 148.775c-18.016.759-36.22 1.518-54.236 2.087-1.138 21.254-2.276 42.507-3.224 63.761 18.584-.19 36.98-.38 55.374-.38 0-22.771 5.12-39.85 2.086-65.468z" fill="#F7CE66"/><path fill-rule="evenodd" clip-rule="evenodd" d="M49.443 139.476l15.55 10.248.759 15.56H52.667l1.138-15.181-14.792-10.627h10.43z" fill="#F7F3CD"/><path fill-rule="evenodd" clip-rule="evenodd" d="M78.459 167.182v-6.073c.948 0 1.896 0 2.655-.189-.948-.949-1.707-2.088-2.655-3.037-.948-.948-1.707-2.087-2.655-3.036-.948 1.139-1.896 2.277-2.845 3.226-.948 1.139-1.896 2.088-2.654 3.226.948 0 1.706 0 2.654-.19v6.073h5.5z" fill="#DBB158"/><path fill-rule="evenodd" clip-rule="evenodd" d="M187.501 232.271c-9.103 0-16.878.759-19.723 1.708-.948 0-2.086-.19-3.224-.19-5.499 0-9.861 1.139-9.861 2.467s4.362 2.467 9.861 2.467c4.741 0 8.724-.759 9.672-1.898 3.603.38 8.154.57 13.275.57 11.378 0 20.67-1.139 20.67-2.467.19-1.518-9.103-2.657-20.67-2.657z" fill="#C8C8C8"/><path fill-rule="evenodd" clip-rule="evenodd" d="M195.467 222.024c-2.276-.57-4.551-1.329-6.827-1.898-2.276 2.087-3.603 4.175-4.551 7.211.948.949 3.603 3.226 5.689 3.795.379-.189.948-1.138 1.327-1.328.759 1.518 1.517 2.846 2.276 4.365 5.12 1.328 10.24 1.138 15.36.569 0-6.073-4.172-5.503-11.947-7.211-1.138-2.088-1.896-3.985-1.327-5.503zm-28.065 1.897c2.655.38 5.31.759 8.154 1.139.949 2.087.949 5.123.759 8.16-.569 0-.948 0-1.517.189 0 1.329-.19 2.847-.19 4.175-4.551 1.518-9.102 1.139-13.654.38.19-3.795.949-6.073 4.741-7.211a45.02 45.02 0 011.707-6.832z" fill="#4F4D3E"/><path fill-rule="evenodd" clip-rule="evenodd" d="M183.899 125.244c4.741 0 9.292.19 14.033.19 4.93 17.079 8.723 35.675 11.568 55.221-1.138 6.642-5.689 21.443-11.947 39.661-1.707 3.036-5.5 1.518-9.672-.759 1.896-15.371 3.603-31.122 7.206-41.179-4.551-8.539-8.154-18.028-11.188-28.465v-24.669z" fill="#263238"/><path fill-rule="evenodd" clip-rule="evenodd" d="M189.401 166.613c-1.896-4.934-3.603-10.058-5.309-15.371 1.706-3.985 3.413-7.97 5.12-12.145-.759 9.868-1.138 19.166.189 27.516z" fill="#1A2D37"/><path fill-rule="evenodd" clip-rule="evenodd" d="M172.523 121.069c6.827 2.467 13.843 4.744 20.67 7.022-3.034 14.991-6.258 29.792-9.671 50.287-1.707 14.422-4.552 30.172-7.396 46.302-4.172 2.847-7.775 3.416-10.43 0 .379-16.699.189-33.967 2.086-48.01-.38-11.196-.38-22.961 1.138-37.953-.38-7.4 1.137-12.904 3.603-17.648z" fill="#263238"/><path fill-rule="evenodd" clip-rule="evenodd" d="M215.753 63.76c.19 1.709.569 3.416.758 4.935-1.137-1.329-2.465-2.847-3.413-2.657-.19-1.328 0-2.277 2.655-2.277z" fill="#FFAF69"/><path fill-rule="evenodd" clip-rule="evenodd" d="M214.428 43.646c0-.38.759-.76 1.138-.57 2.845 1.139 5.689 3.416 8.534 4.555.189 7.59-.38 14.801-1.138 22.012l-7.965 1.708c-.758.19-.948 0-.948-.57.758-8.728 1.327-17.837.379-27.135z" fill="#807E6D"/><path fill-rule="evenodd" clip-rule="evenodd" d="M215.568 43.266l9.671 3.985c.19 7.59-.379 14.802-1.137 22.013l-9.103 1.708c.948-9.109 1.517-18.218.569-27.706z" fill="#4F4D3E"/><path fill-rule="evenodd" clip-rule="evenodd" d="M201.154 102.662c.948-3.416 1.896-7.021 2.655-10.437 8.154 12.714 10.24 6.073 11.568-13.663.189-1.897-.19-4.174-.19-6.072 0-.949 1.517-1.518 3.603-1.708.569-2.657.948-5.313.569-8.73.759-.758 1.517-.758 2.086-.189.19 1.898.19 3.606.379 5.503.19-2.656.38-5.503.569-8.16.569-.569.949-.569 1.518 0 .568-.38.948 0 1.137.76 0 3.795 0 7.59-.189 11.196-2.845 2.277-3.603 4.933-5.5 7.21-.379 7.97 1.897 34.348-11.947 28.275-3.224-1.518-4.172-2.277-6.258-3.985z" fill="#FFAF69"/><path fill-rule="evenodd" clip-rule="evenodd" d="M178.402 129.798c-3.413 25.998-5.12 54.273-7.017 83.686l-.948 13.474h.569l.948-13.474c1.897-29.413 3.603-57.878 7.017-83.686h-.569zm14.217.19c2.466 5.314 4.552 11.196 6.448 17.838 1.896 6.452 3.413 13.473 4.931 20.495 2.465 11.955 2.086 13.473-.759 24.1l-.759 2.466c-2.654 9.678-5.499 18.218-8.344 26.947l-.189.379.569.19.189-.379c2.845-8.54 5.689-17.269 8.344-26.947l.759-2.467c2.844-10.626 3.224-12.334.758-24.479-1.517-7.022-3.034-14.043-4.93-20.495-1.897-6.452-3.793-12.524-6.448-17.838l-.569.19z" fill="#1A2D37"/><path fill-rule="evenodd" clip-rule="evenodd" d="M189.967 94.313c-.379-6.263-.948-11.386-1.327-17.459 7.775 2.467 11.567 10.058 16.877 14.802-1.896 3.795-2.844 7.4-3.413 12.714-4.362-2.657-8.344-6.072-12.137-10.057z" fill="#fff"/><path fill-rule="evenodd" clip-rule="evenodd" d="M200.209 103.042c-2.845-1.898-5.5-3.985-7.965-6.452-.758-5.503-1.327-10.437-2.465-16.7 8.534 8.16 8.723 17.649 10.43 23.152z" fill="#E8E4BE"/><path fill-rule="evenodd" clip-rule="evenodd" d="M172.327 76.095c3.603-.19 6.637-.569 10.241-.759 1.706.19 3.982-.38 5.689.76 12.516 17.837 11.378 37.573 11.757 54.651-12.137 4.555-25.411 3.985-36.031-4.175 3.034-11.765 6.448-26.566.948-38.901 1.138-3.795 2.276-7.4 3.414-11.196-.19-3.036 1.138-3.036 3.982-.38z" fill="#fff"/><path fill-rule="evenodd" clip-rule="evenodd" d="M163.984 126.572c3.034-11.765 6.447-26.566.948-38.901l.758-2.467h1.328c4.741 11.576 1.138 32.829-3.034 41.368z" fill="#F7F3CD"/><path fill-rule="evenodd" clip-rule="evenodd" d="M179.159 66.038c-3.224-1.518-6.258-3.036-9.482-4.554 2.465 5.503 3.603 10.437 2.655 14.801-.569 0-1.138 0-1.707.19 5.12 4.744 10.051 6.262 14.413-.38h-2.086c-2.086-2.846-3.414-6.072-3.793-10.057z" fill="#FFAF69"/><path fill-rule="evenodd" clip-rule="evenodd" d="M171.189 65.469c1.328 3.795 6.258 5.692 8.913 5.313-.379-1.139-.758-2.277-.948-3.606-2.465-.569-5.31-1.328-7.965-1.707z" fill="#FF9E69"/><path fill-rule="evenodd" clip-rule="evenodd" d="M182.002 50.667c.569 1.139.569 2.467.758 3.605 8.913 15.561-5.689 19.546-13.843 8.54-1.897.19-3.793-.76-4.741-5.124 0-12.904 10.24-14.422 17.826-7.021z" fill="#FFAF69"/><path fill-rule="evenodd" clip-rule="evenodd" d="M171.95 49.528c1.517 1.519 4.93 1.519 6.068-.569 2.845 3.606 7.775.76 6.637-2.846 2.086-10.058-10.43-12.525-13.843-5.883-1.896-1.898-7.586.759-7.017 4.175-3.034 2.277-3.224 4.934-1.138 8.16-.948 2.656.19 3.985 1.328 5.313.19-2.846 3.034-.76 4.931 1.518-.949-1.328-1.707-2.846-1.328-5.313 2.845-.76 4.172-2.277 4.362-4.555z" fill="#403E32"/><path d="M177.262 56.55c-.314 0-.568-.425-.568-.95 0-.523.254-.948.568-.948.315 0 .569.425.569.949s-.254.949-.569.949z" fill="#36342B"/><path fill-rule="evenodd" clip-rule="evenodd" d="M181.808 53.513c-.379 0-.569.38-.569.95 0 .569.19.948.569.948.38 0 .569-.38.569-.949 0-.57-.189-.949-.569-.949z" fill="#36342B"/><path fill-rule="evenodd" clip-rule="evenodd" d="M177.07 52.375c-.569.19-.949.57-1.328.949a4.14 4.14 0 00-.948 1.518l.569.19c.19-.57.569-.95.758-1.329.38-.38.759-.57 1.138-.759l-.189-.57zm3.986 0c.19 0 .569 0 .759.19.189.19.379.19.568.38l.38-.38c-.19-.19-.569-.38-.759-.57-.379-.19-.569-.19-.948-.19v.57z" fill="#403E32"/><path fill-rule="evenodd" clip-rule="evenodd" d="M176.122 59.396c-.379 4.934 6.069 5.503 6.827 1.328-2.275.38-4.93 0-6.827-1.328zm-10.807 16.699c1.138-1.138 2.276-1.328 3.224.38 3.603 4.364 2.845 8.35.19 12.524-2.845-1.328-7.776-1.708-12.896-1.708-1.138-3.795-1.896-7.78-1.706-12.144 3.603.569 7.395.948 11.188.948z" fill="#fff"/><path fill-rule="evenodd" clip-rule="evenodd" d="M154.121 80.27c1.138 1.139 2.276 2.467 3.603 3.606-.189 1.707-.569 2.656-1.137 3.036-1.138-1.708-1.707-4.175-2.466-6.642z" fill="#E8E4BE"/><path fill-rule="evenodd" clip-rule="evenodd" d="M157.728 83.686c.189-2.088.189-5.314-1.897-7.4-4.93-.19-10.62-.76-14.792-.57-5.499.38-4.93 1.897-2.655 4.554 5.121 6.073 12.137 10.247 18.395 15.371-1.706.759-1.896 6.072-3.224 10.437-1.137 1.708-2.086 3.036-3.603 3.795.19.57.759.57 1.138.38-1.138.379-2.086.949-1.707 1.897 1.328.19 2.845.19 4.172.949-.379.569-.189.949.19 1.139 1.707-1.518 3.414-2.847 5.12-4.365l1.138-3.985c0 1.139.19 1.898.569 2.467.759-.949 1.328-2.277 1.707-4.175 0-2.087-.19-4.174-.19-6.452 0 0-1.138-2.846-1.707-3.605-3.413-4.175-6.827-8.73-11.947-12.145 3.034 1.708 6.069 2.277 9.293 1.708z" fill="#FFAF69"/><path fill-rule="evenodd" clip-rule="evenodd" d="M148.435 82.547c.569.19 1.328.38 1.897.57-2.086-1.898-4.362-3.606-7.207-4.365 2.086.949 3.793 2.087 5.31 3.795z" fill="#FF9E69"/><path fill-rule="evenodd" clip-rule="evenodd" d="M175.933 91.466c4.362 4.934 7.207 10.817 9.482 17.269 2.276 6.452 3.793 13.473 5.121 20.304l.568-.189c-1.517-7.022-3.034-14.043-5.12-20.495-2.275-6.452-5.12-12.335-9.482-17.458l-.569.57zm-.38-3.985c3.224 2.277 5.689 4.555 7.775 7.211 2.086 2.467 3.793 5.124 5.499 7.78l.38-.189c-1.707-2.657-3.414-5.314-5.5-7.97-2.086-2.467-4.741-4.934-7.965-7.211l-.189.38zm2.849-1.518c1.896.38 2.844.949 3.982 1.708l1.138.57.19-.38c-.38-.19-.759-.38-.949-.57-1.137-.759-2.275-1.328-4.172-1.707l-.189.379zm-7.21 6.452c1.137 3.226 1.896 7.021 2.275 11.006.38 3.985.759 8.35.948 12.525h.569c-.189-4.365-.379-8.54-.948-12.525-.379-3.985-1.138-7.78-2.275-11.196l-.569.19z" fill="#E8E4BE"/><path fill-rule="evenodd" clip-rule="evenodd" d="M220.5 47.44v3.037c0 .19 0 .38.189.38.19.38.19.38.38.38h.758c.19 0 .19 0 .379-.19 0 0 .19-.19.19-.38V48.01c0-.19 0-.19-.19-.38 0-.19-.189-.19-.379-.19s-.19 0-.379-.189c-.19 0-.19 0-.379-.19h-.38c0 .19-.189.19-.189.38z" fill="#807E6D"/><path fill-rule="evenodd" clip-rule="evenodd" d="M220.877 48.39c0 .19 0 .38.19.569.189.19.379.19.379.38h.379c.19 0 .19-.19.19-.38s0-.38-.19-.57l-.379-.379h-.379c-.19 0-.19.19-.19.38zm.189 1.708c0 .19.189.38.379.38s.379-.19.379-.38-.189-.38-.379-.38-.379.19-.379.38z" fill="#36342B"/><path d="M246.666 162.438c-8.169 0-14.792-1.445-14.792-3.226 0-1.782 6.623-3.226 14.792-3.226s14.792 1.444 14.792 3.226c0 1.781-6.623 3.226-14.792 3.226z" fill="#DBB158"/><path fill-rule="evenodd" clip-rule="evenodd" d="M235.483 129.609c9.482-.19 19.153-.38 28.635-.38-1.138 9.868-2.276 19.736-3.224 29.603-6.448 3.606-14.033 2.847-21.808.949-1.138-10.057-2.276-20.115-3.603-30.172z" fill="#FF9861"/><path fill-rule="evenodd" clip-rule="evenodd" d="M262.971 126.572c1.328-.948 2.655-1.897 4.172-2.846-11.378-1.518-22.946-1.139-34.514.38 1.896 1.138 3.603 2.466 5.5 3.605 8.344-.19 16.498-.759 24.842-1.139z" fill="#4F4D3E"/><path fill-rule="evenodd" clip-rule="evenodd" d="M253.305 112.909c-11.758-16.699-15.74-34.347-5.31-53.323 9.861 23.91 9.103 39.85 5.31 53.323z" fill="#5DC94C"/><path fill-rule="evenodd" clip-rule="evenodd" d="M254.631 109.114c-1.517-18.786 6.827-29.223 19.343-36.055 2.276 13.284-5.878 25.049-19.343 36.055z" fill="#4AAB3C"/><path fill-rule="evenodd" clip-rule="evenodd" d="M225.806 98.867c16.308 3.036 18.394 8.729 20.48 14.422-9.861 0-18.774-1.708-20.48-14.422z" fill="#5DC94C"/><path fill-rule="evenodd" clip-rule="evenodd" d="M264.493 87.291c-3.793 3.416-6.637 8.16-8.534 14.802-1.896 6.452-2.655 14.802-2.465 25.049h.569c-.379-10.247.569-18.407 2.276-25.049 1.896-6.452 4.741-11.196 8.533-14.422l-.379-.38zm-14.979-10.057c1.707 8.54 2.276 16.889 2.655 25.238.19 8.35 0 16.51-.19 24.67h.569c.19-8.16.569-16.51.19-24.67-.19-8.35-.948-16.699-2.655-25.238h-.569zm-14.793 29.034c12.706 4.934 14.033 11.006 15.55 17.079.19.948.38 1.897.759 3.036l.569-.19c-.19-.949-.569-1.898-.759-3.036-1.327-6.262-2.844-12.335-15.74-17.459l-.379.57z" fill="#509663"/><path fill-rule="evenodd" clip-rule="evenodd" d="M267.145 123.726c.19 2.087.19 4.365.379 6.452-11.567 3.985-23.135 3.416-34.893.759 0-2.277 0-4.554.19-6.831 11.757 2.087 23.136 1.518 34.324-.38z" fill="#FF9E69"/><path fill-rule="evenodd" clip-rule="evenodd" d="M222.02 9.109c-3.224 0-6.258 1.518-8.344 3.795-7.206 8.16 3.603 20.874 7.586 29.223.379-.19.569-.379.758-.759 3.983-8.539 14.792-19.925 8.723-27.895-1.896-2.657-5.12-4.364-8.723-4.364zm0 5.123c2.655 0 4.741 2.088 4.741 4.744 0 2.657-2.086 4.744-4.741 4.744s-4.741-2.087-4.741-4.744c-.189-2.467 2.086-4.744 4.741-4.744z" fill="#2E8120"/><path fill-rule="evenodd" clip-rule="evenodd" d="M222.775 8.35c-3.223 0-6.258 1.518-8.344 3.795-7.206 8.16 3.603 20.874 7.586 29.224 4.362-8.16 15.929-20.115 9.482-28.655-1.897-2.657-5.12-4.364-8.724-4.364zm0 5.123c2.655 0 4.741 2.088 4.741 4.744 0 2.657-2.086 4.745-4.741 4.745s-4.741-2.088-4.741-4.745c0-2.466 2.086-4.744 4.741-4.744z" fill="#4FAB3F"/></g><defs><linearGradient id="paint0_linear_2_30216" x1="4.255" y1="16.685" x2="397.435" y2="117.5" gradientUnits="userSpaceOnUse"><stop offset=".391" stop-color="#F5F5F5"/><stop offset="1" stop-color="#F5F5F5" stop-opacity="0"/></linearGradient><linearGradient id="paint1_linear_2_30216" x1="-5.326" y1="177.351" x2="339.342" y2="209.515" gradientUnits="userSpaceOnUse"><stop stop-color="#CECECE"/><stop offset="1" stop-color="#CECECE" stop-opacity="0"/></linearGradient><clipPath id="clip0_2_30216"><path fill="#fff" transform="matrix(-1 0 0 1 365 0)" d="M0 0h366v241H0z"/></clipPath></defs></svg>