<svg width="429" height="396" fill="none" xmlns="http://www.w3.org/2000/svg"><g clip-path="url(#clip0_601_11756)"><path fill-rule="evenodd" clip-rule="evenodd" d="M43.765 331.978c-10.28 3.779-28.648 7.029-37.567 12.321-8.92 5.366-8.239 12.774 2.192 16.402 10.431 3.552 30.688 3.25 43.69 3.855 13.076.605 18.972 2.192 21.013 4.837 2.04 2.646.15 6.35 0 9.676-.152 3.25 1.436 6.046 5.517 8.843 4.158 2.797 10.81 5.594 18.595 6.879 7.785 1.209 16.629.907 37.264 1.058 20.635.151 52.987.756 78.686-2.495 25.7-3.25 44.672-10.431 52.609-14.966 7.936-4.535 4.837-6.349 3.855-9.373-.907-2.947.302-7.029 4.535-9.675 4.233-2.645 11.338-3.855 22.071-5.291 10.734-1.436 25.019-2.948 42.178-4.384 17.082-1.436 37.037-2.645 49.66-4.535 12.623-1.89 17.914-4.384 20.409-9.448 2.494-5.065 2.267-12.699-6.727-16.932-8.995-4.233-26.758-5.215-46.638-7.332-19.879-2.192-41.799-5.593-59.26-7.483-17.46-1.89-30.461-2.343-59.789-2.494-29.328-.151-74.982 0-105.897 0-30.84 0-46.94-.227-56.464 2.721-9.448 3.099-12.472 9.146-14.966 14.361-2.57 5.216-4.762 9.676-14.966 13.455z" fill="#E6E6E6"/><path fill-rule="evenodd" clip-rule="evenodd" d="M105.595 2.872c-21.467 2.42-61.15 7.105-81.03 9.449L4.687 14.664l-.15 52.382c-.076 52.381-.303 157.069-.379 209.451l-.15 52.382 21.541 1.663c21.543 1.663 64.703 4.988 86.245 6.651l21.542 1.663V0l-1.587.076c-1.512.15-4.762.302-26.153 2.796z" fill="#CCC"/><path fill-rule="evenodd" clip-rule="evenodd" d="M133.411 73.924V0l14.664 3.326a71996.41 71996.41 0 0058.731 13.303l14.664 3.326.302 50.492c.302 50.492.831 151.552 1.134 202.044l.302 50.492-14.966 2.646c-14.966 2.645-44.823 7.936-59.789 10.582l-14.967 2.645v-52.155c0-52.155-.075-156.314-.075-212.777z" fill="#B3B3B3"/><path fill-rule="evenodd" clip-rule="evenodd" d="M221.999 106.88c-.227-34.468-.303-60.696-.378-73.773l-.151-13.152h151.098l-.227 50.568c-.226 50.567-.604 151.778-.831 202.422l-.227 50.567-24.717-.075c-24.717-.076-74.075-.303-98.792-.378l-24.717-.076-.076-16.024c-.075-16.025-.302-48.149-.453-85.565-.151-37.415-.378-80.046-.529-114.514z" fill="#CCC"/><path fill-rule="evenodd" clip-rule="evenodd" d="M107.938 16.251c-19.652 2.268-55.934 6.576-74.075 8.692l-18.14 2.192-.077 48.15c-.075 48.148-.302 144.446-.453 192.595l-.076 48.149 19.729 1.512c19.728 1.511 59.184 4.61 78.912 6.122l19.729 1.512V13.605l-1.437.076c-1.511.151-4.459.302-24.112 2.57z" fill="#E6E6E6"/><path fill-rule="evenodd" clip-rule="evenodd" d="M133.411 81.558V13.455l14.513 3.099c14.512 3.099 43.613 9.221 58.126 12.245l14.513 3.099.302 46.561c.302 46.562.831 139.609 1.134 186.171l.302 46.562-14.815 2.418c-14.815 2.419-44.445 7.332-59.26 9.751l-14.815 2.419V81.558z" fill="#CCC"/><path fill-rule="evenodd" clip-rule="evenodd" d="M221.923 111.944a42743.73 42743.73 0 00-.378-67.953l-.075-12.093h137.341l-.227 46.637c-.226 46.637-.604 139.835-.755 186.397l-.227 46.637-22.45-.075c-22.449-.076-67.347-.303-89.797-.378l-22.449-.076-.076-14.815c-.075-14.815-.226-44.37-.453-78.762-.076-34.543-.303-73.848-.454-105.519z" fill="#E6E6E6"/><path d="M358.736 288.44l-3.099.604s-.832 2.495-3.099 2.495c-2.192 0-5.821 0-5.518-1.512.378-1.512-.303-5.367-.303-5.367l-1.36-.605-2.419-2.872-2.192-.604-3.628-.605-.832-4.006-2.721-5.518s0-6.349-.68-6.349-1.209-5.518-7.408-7.257c-6.198-1.738-8.919.151-9.977.151-.983 0-4.46.983-4.989 3.251-.529 2.267 1.588 1.511 1.588 1.511l.302 3.024s-3.099 2.721-3.402 4.384c-.377 1.738-2.192 5.518-1.889 6.274.378.755-.832 3.628-2.873 4.232-1.587.454-3.628-.151-5.593-.831l-1.814-.68c-2.419-.983-4.308.378-5.14-.605-.907-.983-1.89-2.646-4.308.378-2.419 3.023-6.199 4.611-10.507 4.611s-8.541-1.134-9.222-3.024c-.68-1.889-2.721-1.511-2.721-1.511s-1.209-3.855-4.611-3.024c-3.401.756-8.919 3.25-11.111.151-7.483-10.204-1.058-4.157-13.379-11.111-4.308 4.989-3.401 8.768-2.721 9.902.68 1.134-.302 5.367-1.889 5.14-1.588-.151-4.082-2.495-6.199-1.739-.604.227-1.285.303-1.965.227V33.409a43.423 43.423 0 018.012-1.21c1.21-.075 2.117-.301 2.873-.68h53.818c1.965 4.233 2.872 9.071.075 12.85-5.744 7.635-16.705 18.066-15.344 20.106 1.361 2.041 6.652 1.512 12.094 2.57 5.518.983 19.879.454 22.676 4.838 2.721 4.308 15.798 10.204 15.798 4.61 0-5.593-1.361-9.448 9.146-4.308 10.506 5.14 11.64 7.408 10.279 11.187-1.36 3.855-2.721 7.408-.68 11.187 2.041 3.855 8.012 16.78 9.827 7.105 1.814-9.675.68-11.489 5.517-7.407.454.378 1.059.756 1.663 1.058V288.44h-.075zm-9.373 22.827c-.529-.983-1.361-2.872-.907-3.477.68-.756 3.099-3.628 4.837-2.268 1.739 1.361 1.89 1.739 3.402-1.512.68-1.436 1.436-2.947 2.041-4.232v11.564h-9.373v-.075z" fill="#B3B3B3"/><path d="M223.133 277.858c-1.588.075-3.251-.681-3.855-2.268-.151-.453-6.047-1.814-7.332-2.116l-10.658 9.901c-16.327 4.914-29.479-7.331-38.625-17.007-.529-.453-5.291-4.837-5.291-4.837s-.529-1.436.151-2.117c.68-.604 2.948-3.628-1.209-.604-17.688 12.849-19.199-4.082-19.35-4.082-.681.076-1.361 1.134-3.251.983h-.226V89.646c.68-.529 1.587-.68 2.796-.529 3.704.53 9.6 1.36 7.559 11.565-2.041 10.204.907 10.884.68 15.722-.227 4.837-1.814 22.147.454 21.845 2.267-.303 6.198 1.511 4.989-6.501-1.134-8.012-2.722-24.112 2.494-28.345 5.291-4.233 12.321-10.96 14.21-9.902 1.814 1.058 6.425 6.878 8.693 6.576 2.343-.302 3.93-2.494 1.814-5.593-2.041-3.1-7.105-11.867-5.972-15.269 1.134-3.477 20.182-5.064 21.769-9.07 1.588-4.006-5.517-6.954-1.36-13.077 4.082-6.122 9.373-14.664 15.344-15.42 5.971-.755 8.012-4.081 10.96-5.669 1.361-.755 3.175-1.587 5.216-2.343v244.222z" fill="#999"/><path d="M15.57 120.41c1.21.983 2.495 2.267 3.931 3.93 4.99 5.896 13.228 9.751 13.38 14.967.15 5.215 1.209 6.198-2.42 9.675-3.628 3.477-5.669 4.988-13.53.151-.453-.302-.907-.529-1.36-.832V120.41zm117.841 130.387c-10.28-3.023-19.88 8.239-30.386 4.611-2.872 5.291 5.971 6.425-2.721 12.094-1.512.983-.68 2.419-.68 2.419s2.04.756 3.25 2.267c1.209 1.437 2.419 5.367.151 5.14-2.872-.302-11.414-3.703-15.571-3.401-4.989.378-35.072-13.152-34.392 7.407-.151.454 7.785 2.873 8.012 8.391.227 6.047-7.407 10.884-7.256 16.629.075 1.663 1.587 4.006 1.738 6.803.227 3.93-3.401 5.744-8.768 5.442-2.796-1.285-4.913-4.838-13.379-6.501-9.826-1.965-14.815-10.506-12.774-14.286 1.512-2.796 3.401-5.669 4.006-5.971.605-.302 3.326-1.587.605-1.89-2.192-.226-4.686-.529-1.587-3.628.756-.756 3.023-.453 4.233-.302 6.651.831 5.668-11.263-2.117-13.833-4.308-1.436-7.71-3.854-10.129-6.198v-96.071c.983.907 2.041 1.588 2.721 1.739 1.89.378 4.082.605 3.629-1.361-.53-1.965-2.57-3.477-3.93-6.122-1.361-2.646-.53-5.216 2.72-2.57 3.25 2.645 11.49 5.593 9.6 1.738-1.89-3.855-3.93-4.988-1.89-6.727 2.041-1.663 7.256-9.6 10.658-7.332 3.401 2.268 5.518 3.024 5.518.227 0-1.285-.454-2.872-.907-4.687-.605-2.343-1.134-5.064-.756-7.785.68-4.762 3.175-9.6 4.61-8.466 1.361 1.134 7.786 7.408 4.838 8.92-2.419 1.209-4.157 4.61-3.099 6.802.227.454.53.832.983 1.134 2.72 1.814 1.36 2.192 7.105-4.913 5.745-7.03 13.984-14.362 19.501-10.733 5.518 3.628 6.198 1.889 10.28 1.814 4.082-.076 8.24.075 12.094-1.361 3.931-1.36 1.814-7.936-.453-9.448-2.344-1.512 0-3.855 4.837-1.058 4.838 2.796 11.187 4.232 15.344 9.75 4.082 5.518 7.332 9.675 8.693 9.751 1.36.151 5.744-.453 1.36-7.483-4.384-7.03-7.785-15.344-6.425-18.972 1.361-3.704 5.292-11.716 7.332-19.35a80.028 80.028 0 011.285-4.536l2.268.227v161.68h-.151z" fill="#B3B3B3"/><path fill-rule="evenodd" clip-rule="evenodd" d="M283.149 30.537c6.349 0 11.489 5.14 11.489 11.49 0 6.349-5.14 11.489-11.489 11.489-6.35 0-11.489-5.14-11.489-11.49 0-6.349 5.139-11.489 11.489-11.489zM265.31 60.545c2.948 7.408 8.617 16.705 11.792 21.694 3.174 4.988 3.93 5.744 4.308 6.122.378.378.378.378 3.326-3.326 7.71-9.6 15.042-20.03 18.594-32.124 4.082-13.833-.151-32.276-20.257-32.276-13.454 0-19.879 8.693-21.391 18.141-1.134 7.483.983 15.042 3.628 21.77z" fill="#999"/><path fill-rule="evenodd" clip-rule="evenodd" d="M279.52 30.537c6.35 0 11.49 5.14 11.49 11.49 0 6.349-5.14 11.489-11.49 11.489-6.349 0-11.489-5.14-11.489-11.49 0-6.349 5.14-11.489 11.489-11.489zm-17.762 30.008c2.947 7.408 8.616 16.705 11.791 21.694 3.175 4.988 3.931 5.744 4.309 6.122.377.378.377.378 3.325-3.326 7.71-9.6 15.042-20.03 18.595-32.124 4.081-13.833-.151-32.276-20.258-32.276-13.454 0-19.879 8.693-21.391 18.141-1.209 7.483.907 15.042 3.629 21.77z" fill="#FDE742"/><path fill-rule="evenodd" clip-rule="evenodd" d="M60.848 86.17a16.226 16.226 0 0116.25 16.25 16.227 16.227 0 01-16.25 16.252 16.227 16.227 0 01-16.252-16.252c-.075-8.919 7.257-16.25 16.252-16.25zm-25.17 42.479c4.232 10.507 12.169 23.583 16.704 30.688 4.535 7.106 5.593 8.164 6.122 8.693.53.529.53.529 4.687-4.687 10.884-13.605 21.24-28.345 26.304-45.427 5.82-19.577-.227-45.655-28.647-45.655-18.973 0-28.119 12.32-30.235 25.7-1.739 10.506 1.21 21.164 5.064 30.688z" fill="#999"/><path fill-rule="evenodd" clip-rule="evenodd" d="M55.708 86.17a16.226 16.226 0 0116.25 16.25 16.227 16.227 0 01-16.25 16.252 16.227 16.227 0 01-16.252-16.252c0-8.919 7.257-16.25 16.252-16.25zm-25.171 42.479c4.233 10.507 12.17 23.583 16.705 30.688 4.535 7.106 5.593 8.164 6.122 8.693.53.529.53.529 4.687-4.687 10.884-13.605 21.24-28.345 26.304-45.427 5.82-19.577-.227-45.655-28.648-45.655-18.972 0-28.118 12.32-30.234 25.7-1.663 10.506 1.21 21.164 5.064 30.688z" fill="#FDE742"/><path d="M56.614 175.815c.152 5.291.303 10.582.908 14.966.604 4.384 1.738 7.786 3.401 10.431 1.738 2.646 4.082 4.536 8.768 5.518 4.762.983 11.867 1.134 20.182.303 8.239-.832 17.612-2.722 24.566-3.402 7.029-.68 11.64-.227 14.437.529 2.796.756 3.628 1.89 6.122 4.535 2.495 2.646 6.576 6.879 10.734 9.676 4.157 2.796 8.39 4.232 10.582-4.536 2.267-8.692 2.57-27.513 6.878-42.631 4.384-15.117 12.774-26.682 21.618-33.334 8.768-6.727 17.914-8.541 27.665-7.18 9.75 1.36 20.181 5.971 30.99 5.442 10.809-.529 22.072-6.123 28.346-13.455 6.273-7.331 7.483-16.326 8.768-25.397" stroke="#fff" stroke-width="2" stroke-miterlimit="22.926" stroke-linecap="round" stroke-dasharray="10 10"/><path fill-rule="evenodd" clip-rule="evenodd" d="M77.93 342.863c.076 1.209.227 2.721 1.134 4.837.907 2.117 2.494 4.687 4.384 6.727a18.453 18.453 0 006.274 4.46c2.267.983 4.61 1.512 7.18 1.739 2.57.226 5.291.226 7.71-.076 2.419-.302 4.46-.907 6.576-1.965 2.041-1.059 4.082-2.57 5.745-4.233 1.663-1.663 2.872-3.402 3.477-4.309l.605-.907-7.257-1.511c-7.256-1.512-21.693-4.46-28.874-5.594-7.105-1.058-7.03-.302-6.954.832z" fill="#403E32"/><path fill-rule="evenodd" clip-rule="evenodd" d="M84.506 344.147c.227 1.285.605 3.477 1.436 5.518.756 2.041 1.966 3.855 3.1 5.291 1.133 1.436 2.343 2.419 3.854 3.25a18.859 18.859 0 005.216 2.117c1.889.453 3.93.453 6.198.227 2.268-.227 4.686-.756 6.878-1.814 2.192-1.059 4.082-2.646 5.443-3.931 1.285-1.285 2.04-2.192 2.57-2.948.529-.756.907-1.285.907-1.965 0-.68-.378-1.436-1.21-2.192-.831-.756-2.041-1.436-3.704-2.041-1.738-.605-3.93-1.134-7.029-1.36-3.099-.227-7.105-.076-10.658-.378-3.553-.227-6.651-.832-8.692-1.361-2.041-.529-2.948-1.058-3.477-1.134-.53-.075-.756.227-.832.605-.151.378-.227.831 0 2.116zm56.69 4.309c1.134 2.041 4.913 5.896 9.373 8.314 4.46 2.419 9.751 3.553 13.152 4.158 3.402.68 4.913.907 5.972.226.982-.68 1.511-2.418 2.872-4.535 1.36-2.192 3.628-4.837 6.198-7.332 2.494-2.419 5.291-4.686 8.919-6.727 3.628-2.041 8.239-3.931 11.187-5.064 2.948-1.134 4.384-1.437 6.501-1.663 2.116-.227 4.837-.378 6.802-.303 1.966.076 3.175.303 3.78.832.605.529.605 1.209.982 2.721.378 1.512 1.134 3.704 1.588 4.913.529 1.21.756 1.436 1.889 1.361 1.059 0 2.948-.303 4.46-1.285 1.512-.983 2.57-2.646 3.024-4.006.453-1.361.453-2.419-.378-5.896-.756-3.402-2.268-9.222-3.175-13.984-.907-4.837-1.361-8.692-2.494-11.64-1.134-2.948-3.024-4.838-5.518-6.879-2.495-2.04-5.594-4.081-10.356-5.366-4.762-1.21-11.187-1.663-18.821-.227-7.634 1.436-16.402 4.611-22.222 8.088-5.821 3.477-8.693 7.181-10.885 11.716-2.192 4.611-3.628 10.128-5.367 15.193-1.738 5.14-3.628 9.902-5.366 12.396-1.739 2.721-3.25 2.948-2.117 4.989zm121.62-18.897c8.541-.454 25.397-2.797 34.921-4.157 9.524-1.361 11.867-1.663 13.984-2.041 2.116-.303 4.157-.68 5.971-.832 1.814-.151 3.552-.075 4.989 0 1.436.076 2.645.152 5.14.152 2.494 0 6.273-.076 14.966.302 8.768.378 22.525 1.285 30.008 1.89 7.483.604 8.692 1.058 9.297 1.209.605.227.68.227.831.076.076-.076.227-.303.454-2.419.227-2.117.453-6.047.605-8.164.075-2.116 0-2.418 0-2.418 0-.076.075.075 3.855.453 3.854.378 11.413.983 17.007 1.436 5.669.454 9.297.681 11.187.907 1.814.151 1.814.227 1.814-1.285v-7.861l-4.158-.302-16.629-1.209-4.157-.303.075-1.436c.076-1.436.303-4.233.378-5.669.076-1.436.076-1.512-1.511-1.663-1.588-.151-4.762-.453-6.35-.756-1.663-.302-1.814-.604-1.814-1.209v-2.041c0-.605-.075-.831-.378-1.209-.302-.303-.907-.756-3.779-.983-2.797-.227-7.861-.302-17.158-.302s-22.827 0-35.375.378c-12.547.453-24.112 1.285-34.09 2.721-9.977 1.436-18.443 3.477-23.583 5.366-5.064 1.89-6.878 3.629-8.163 6.123-1.285 2.494-2.192 5.669-2.872 8.314-.681 2.646-1.21 4.762-2.041 7.03-.756 2.343-1.814 4.838-2.117 6.878-.151 2.041.151 3.477 8.693 3.024z" fill="#24231D"/><path fill-rule="evenodd" clip-rule="evenodd" d="M278.689 330.088c5.971-.756 17.612-2.343 23.583-3.25s6.274-1.134 6.576-1.89c.303-.756.529-1.965.605-3.477.075-1.512-.151-3.25-.302-4.837a34.91 34.91 0 00-.605-3.855c-.227-1.059-.529-1.89-1.058-2.268-.454-.378-1.134-.227-5.443.227-4.232.453-12.094 1.209-18.367 2.041-6.274.831-11.036 1.738-13.304 2.116-2.267.378-2.192.151-2.192.605 0 .453-.151 1.663-.151 3.628s.151 4.686.151 6.5c0 1.815-.075 2.57 0 3.402.076.756.227 1.512.605 1.89.378.377.983.453 1.512.377.605-.075 1.134-.302 1.587-.377.454-.076.832-.076 6.803-.832z" fill="#403E32"/><path fill-rule="evenodd" clip-rule="evenodd" d="M337.496 319.884c-.529 3.628-.454 7.634-.076 10.809.378 3.174 1.058 5.518 2.268 7.71 1.209 2.192 3.023 4.157 4.61 5.366 1.588 1.21 3.024 1.663 4.082 1.89 1.058.227 1.663.151 3.099.151 1.436 0 3.628 0 4.762-.302 1.134-.302 1.134-.832 1.134-1.663-.076-.831-.151-1.814-.983-5.291-.831-3.402-2.267-9.222-2.267-15.118 0-5.895 1.511-11.867 2.494-15.646 1.058-3.779 1.663-5.442 1.285-6.5-.378-1.059-1.738-1.437-3.704-1.059-1.965.378-4.535 1.436-6.425 2.495a20.462 20.462 0 00-4.232 3.099c-1.134 1.134-2.192 2.419-3.251 4.686-1.058 2.419-2.192 5.669-2.796 9.373z" fill="#24231D"/><path fill-rule="evenodd" clip-rule="evenodd" d="M345.508 311.796c-1.436 3.931-1.814 9.524-1.663 13.757.151 4.233.756 7.181 1.663 9.751.983 2.57 2.343 4.686 3.552 6.273 1.21 1.512 2.268 2.495 3.251 3.099.907.605 1.738.832 2.116.983.378.151.378.151 1.21.076.831 0 2.494-.076 3.552-.152.983 0 1.361 0 1.512-.226.151-.227.075-.605-.151-6.576-.227-5.972-.605-17.461-.832-24.339-.151-6.879-.151-9.071-.227-10.734-.075-1.663-.302-2.796-.907-3.25-.529-.453-1.436-.378-2.57.227-1.209.529-2.645 1.512-4.61 3.174-2.041 1.588-4.46 4.007-5.896 7.937z" fill="#36342B"/><path fill-rule="evenodd" clip-rule="evenodd" d="M360.852 302.121c-1.89.605-3.855 2.041-5.669 4.913-1.814 2.872-3.401 7.332-4.233 12.094-.831 4.837-.831 10.129-.151 13.983.605 3.855 1.89 6.35 3.099 8.239 1.209 1.815 2.343 3.024 3.175 3.629.831.604 1.436.604 2.796.68 1.285.075 3.326.302 4.536.378 1.209.075 1.587-.076 2.343-.227.831-.227 2.041-.529 3.552-2.192 1.512-1.663 3.326-4.611 4.611-9.977 1.285-5.443 2.117-13.304 1.965-18.368-.151-5.064-1.133-7.332-2.267-8.919-1.134-1.588-2.268-2.495-3.704-3.099-1.436-.605-3.099-.983-4.838-1.285-1.511-.303-3.325-.454-5.215.151z" fill="#403E32"/><path fill-rule="evenodd" clip-rule="evenodd" d="M366.067 303.482c-1.738.755-3.25 2.192-4.686 4.232-1.361 2.041-2.645 4.762-3.477 7.408-.831 2.57-1.209 5.064-1.361 7.559-.151 2.494-.075 4.988.152 7.407.302 2.419.756 4.611 1.436 6.576.68 1.966 1.512 3.628 2.494 5.065.983 1.436 2.117 2.57 3.024 3.25.982.68 1.814.756 2.948.756 1.133-.076 2.569-.227 4.006-1.059 1.511-.831 3.023-2.192 4.233-3.93 1.285-1.739 2.192-3.855 3.023-6.198a34.136 34.136 0 001.587-8.012c.227-2.948.076-6.198-.226-8.92-.303-2.721-.756-4.913-1.437-6.878-.68-1.965-1.662-3.704-2.796-4.989-1.134-1.36-2.343-2.267-3.931-2.721-1.36-.378-3.25-.302-4.989.454z" fill="#403E32"/><path fill-rule="evenodd" clip-rule="evenodd" d="M373.853 312.174c-.529-.604-.907-1.058-1.436-1.36-.454-.378-.983-.605-1.663-.756-.605-.151-1.361-.227-1.965-.151-.605.075-1.059.226-1.739.68-.68.453-1.663 1.134-2.494 2.192-.907 1.134-1.739 2.645-2.343 4.46-.605 1.814-.983 3.93-1.134 5.971-.151 2.041-.151 3.93.075 5.82.227 1.89.605 3.779 1.285 5.291.681 1.512 1.588 2.721 2.57 3.553.907.756 1.814 1.134 2.797 1.209.983.076 2.041-.151 2.948-.529.907-.453 1.738-1.058 2.57-2.192.831-1.134 1.738-2.797 2.419-4.535.68-1.739 1.209-3.553 1.36-5.745a27.808 27.808 0 00-.151-6.651c-.302-1.966-.907-3.477-1.512-4.611-.453-1.134-1.058-1.966-1.587-2.646z" fill="#4F4D3E"/><path fill-rule="evenodd" clip-rule="evenodd" d="M363.422 316.709c-.454 1.059-.756 2.192-1.058 3.326-.303 1.134-.454 2.192-.529 3.553-.076 1.36-.076 3.023.075 4.535s.302 2.797.605 3.93c.302 1.134.68 2.117.907 2.646.227.529.302.605.453.68.152.076.303.151.756-.075.454-.151 1.285-.605 2.192-1.588.907-1.058 1.814-2.721 2.419-4.157s.832-2.721.907-4.46c.076-1.738 0-4.006-.378-5.82-.378-1.889-1.209-3.401-1.889-4.384-.681-.982-1.285-1.36-1.588-1.587-.302-.227-.302-.227-.453-.076-.227.151-.605.454-.983 1.059-.529.453-1.058 1.36-1.436 2.418z" fill="#737160"/><path fill-rule="evenodd" clip-rule="evenodd" d="M362.515 294.94c-.453 1.059-1.285 2.495-2.192 4.384-.983 1.89-2.116 4.309-2.721 7.257-.605 2.948-.68 6.5-.832 8.239-.151 1.814-.302 1.889-.831 1.889-.529 0-1.436 0-3.931-.151-2.494-.151-6.651-.529-9.372-.831-2.721-.227-4.006-.378-4.611-.756-.605-.378-.529-.983-.529-1.965 0-.983-.076-2.419-.076-4.158 0-1.738 0-3.703.151-5.139.152-1.361.454-2.192.681-2.722.226-.529.378-.755.831-1.133.454-.378 1.209-.756 2.268-1.814 1.058-.983 2.57-2.57 4.611-3.553 2.116-.983 4.913-1.436 7.558-1.739 2.646-.302 5.14-.453 6.727-.453 1.588 0 2.268.151 2.57.453.303.605.152 1.21-.302 2.192z" fill="#24231D"/><path fill-rule="evenodd" clip-rule="evenodd" d="M375.591 292.975c.454.529 1.437 1.21 2.495 2.495 1.058 1.285 2.041 3.099 2.948 5.971s1.663 6.727 2.116 8.768c.454 2.041.529 2.192.756 2.268.151.075.378.151.454 0 .151-.152.151-.605.151-1.21 0-.68-.151-1.587-.378-3.25s-.454-4.082-1.134-6.576c-.68-2.494-1.739-4.913-2.872-6.652-1.134-1.663-2.344-2.57-3.099-2.948-.832-.378-1.285-.226-1.512.076-.302.151-.454.529.075 1.058zm-14.588 2.041c-.604.756-1.436 2.041-2.343 4.081-.907 2.041-1.814 4.838-2.494 7.71-.681 2.873-.983 5.82-1.134 7.483-.151 1.663-.076 2.041.227 2.344.302.226.756.302 1.133.302.378-.076.605-.227.681-1.285.075-1.058.075-3.023.529-5.593.529-2.57 1.587-5.821 2.57-8.391a42.195 42.195 0 012.645-5.669c.681-1.209.983-1.738 1.134-2.04.076-.303-.075-.378-.378-.378-.302 0-.756.151-1.134.302-.453.151-.831.378-1.436 1.134z" fill="#4F4D3E"/><path fill-rule="evenodd" clip-rule="evenodd" d="M279.143 277.253v26.606l24.49-2.721c24.49-2.721 73.546-8.087 98.414-10.809 24.792-2.721 25.397-2.796 25.7-2.872l.302-.075v-1.966c0-1.965-.076-5.896 0-26.38.075-20.484.227-57.597.302-77.098.076-19.502.076-21.467.076-22.45v-.982l-24.868-3.78c-24.868-3.779-74.68-11.262-99.548-15.041l-24.868-3.78v141.348z" fill="#3D8C31"/><path fill-rule="evenodd" clip-rule="evenodd" d="M173.774 282.015c0 14.89.983 16.1 1.437 16.704.453.605.453.605 1.889.681 1.436.075 4.233.226 21.467.982 17.234.756 48.905 2.117 64.702 2.797l15.798.68V136.208l-17.46 2.494c-17.461 2.494-52.307 7.483-69.767 9.902l-17.461 2.494.151 9.449c.152 9.448.454 28.269.681 38.095.151 9.827.151 10.507-.227 25.171s-1.285 43.311-1.21 58.202z" fill="#4AAB3C"/><path fill-rule="evenodd" clip-rule="evenodd" d="M174.757 169.39c-.151-10.053-.227-14.21-.227-16.251v-2.116l2.117-.303c2.116-.302 6.425-.907 8.541-1.209l2.116-.303.983 6.425c.983 6.425 2.948 19.351 6.198 27.212 3.25 7.936 7.786 10.884 17.839 12.169 10.053 1.285 25.624.907 36.13.907 10.582 0 16.176.529 19.199 1.21 3.024.68 3.477 1.738 4.082 4.157s1.209 6.274 2.041 17.99c.756 11.716 1.663 31.368 1.965 46.788.378 15.344.151 26.455.076 31.973l-.076 5.518-16.1-.68c-16.1-.681-48.3-2.117-64.4-2.797-16.1-.68-16.1-.68-16.931-7.559-.832-6.878-2.495-20.559-3.326-27.438l-.832-6.878.227-7.861a2213.3 2213.3 0 00.756-39.381c0-15.646-.227-31.52-.378-41.573z" fill="#509663"/><path fill-rule="evenodd" clip-rule="evenodd" d="M111.566 237.418c-6.425 6.803-10.809 10.809-13.908 13.606-3.099 2.797-4.989 4.384-7.18 6.047-2.192 1.739-4.687 3.553-8.617 6.652-3.93 3.099-9.373 7.483-12.472 10.431-3.1 2.948-3.93 4.308-4.158 4.913-.302.605-.075.529-.302 2.343-.227 1.814-.983 5.518-1.285 7.408-.378 1.889-.378 1.889 9.6 3.023 9.902 1.209 29.781 3.553 42.102 3.779 12.32.227 17.082-1.738 21.542-2.872 4.46-1.209 8.617-1.587 12.245-1.814 3.628-.227 6.576-.227 10.355-1.512 3.704-1.285 8.164-3.93 15.042-10.128 6.879-6.274 16.327-16.1 27.363-28.119 11.035-12.018 23.81-26.228 31.973-34.089 8.163-7.862 11.716-9.298 17.083-10.129 5.366-.832 12.623-.907 15.57-1.587 2.948-.681 1.588-1.966.53-2.646-1.059-.756-1.739-.907-8.617-1.285-6.879-.378-19.88-.831-34.014-.756-14.135.076-29.328.756-41.044 1.436-11.641.681-19.728 1.361-25.624 2.041-5.896.68-9.6 1.361-12.018 1.89-2.419.529-3.477.831-4.46 1.209-.983.378-1.89.907-2.872 1.663-.983.756-2.041 1.739-6.879 6.954-4.989 5.14-13.53 14.74-19.955 21.542z" fill="#5DC94C"/><path fill-rule="evenodd" clip-rule="evenodd" d="M151.93 209.451c-3.855.378-7.786.907-10.582 1.361-2.797.453-4.309.756-5.443 1.209-1.134.378-1.738.907-2.343 1.436-.605.53-1.209 1.21-4.233 4.536-3.023 3.326-8.541 9.448-11.943 13.076-3.401 3.704-4.61 4.989-5.669 6.123-1.058 1.134-2.04 2.116-3.552 3.93-1.587 1.814-3.779 4.46-5.594 6.576-1.814 2.117-3.174 3.78-4.081 5.14-.907 1.361-1.36 2.419-1.436 2.873-.076.529.15.529 4.535.604 4.384.076 12.85.076 24.641.303 11.792.151 26.834.378 36.962.529 10.129.151 15.344.151 17.99.151 2.645 0 2.797 0 3.704-.454.907-.453 2.494-1.36 5.215-3.628 2.721-2.267 6.576-5.971 11.263-11.64 4.61-5.669 10.053-13.379 14.21-19.124 4.157-5.744 6.954-9.448 8.39-11.64 1.436-2.192 1.436-2.797.832-3.099-.605-.302-1.815-.151-7.786-.151-5.896 0-16.553-.076-26.229.075-9.75.151-18.67.529-24.943.907-6.35.303-10.053.529-13.908.907z" fill="#403E32"/><path fill-rule="evenodd" clip-rule="evenodd" d="M108.77 252.914c5.593.151 16.251.454 27.06.605 10.809.151 21.844.151 29.781.227 7.937 0 12.699.075 15.344.075 2.646 0 3.175 0 3.704-.151.454-.151.907-.454 1.738-1.058.832-.605 1.966-1.512 3.704-3.024 1.739-1.512 3.931-3.704 6.652-6.576 2.645-2.872 5.669-6.425 9.07-10.658 3.326-4.232 7.03-9.146 9.751-12.925a201.586 201.586 0 005.367-7.634c.907-1.361.831-1.512.756-1.588-.076-.075-.227-.151-2.117-.226-1.89 0-5.518 0-11.943-.152-6.424-.075-15.722-.226-25.926-.151-10.204.151-21.391.605-28.496.983s-10.129.756-12.548 1.058c-2.418.303-4.232.529-5.744 1.436-1.512.907-2.797 2.419-4.006 3.855-1.21 1.512-2.419 2.948-6.652 7.635-4.233 4.762-11.64 12.698-15.949 17.687-4.308 4.989-5.669 6.878-6.349 8.012-.68 1.134-.68 1.436-.605 1.663.151.227.378.302.756.454.454.226 1.058.302 6.652.453z" fill="#E6E6E6"/><path fill-rule="evenodd" clip-rule="evenodd" d="M114.439 243.163c4.157-5.064 11.338-13.832 15.571-18.821 4.232-4.989 5.593-6.122 6.727-6.878 1.134-.756 1.965-1.21 5.971-1.512 4.006-.378 11.111-.68 20.258-.756 9.146-.076 20.257.227 26.153.227 5.895 0 6.576-.227 6.954-.454.378-.226.453-.453.226-.68-.226-.227-.756-.529-1.133-.756-.303-.302-.454-.529-.076-.831.378-.303 1.209-.529 4.006-.605 2.721-.076 7.408 0 9.978 0 2.569 0 3.174 0 3.477-.227.377-.227.529-.68.302-.907-.227-.227-.756-.302-4.233-.378-3.477-.075-9.826-.151-17.309-.151-7.484 0-16.176.151-23.357.378-7.181.227-12.774.454-16.931.756-4.158.227-6.879.529-9.297.831-2.419.303-4.611.605-5.896 1.134-1.361.529-1.89 1.21-6.879 7.03-4.988 5.82-14.286 16.78-19.123 22.751-4.762 5.896-4.989 6.803-4.46 7.257.454.453 1.588.453 2.721-.227 1.134-.831 2.268-2.116 6.35-7.181z" fill="#FDE742"/><path fill-rule="evenodd" clip-rule="evenodd" d="M273.322 269.845c.605 16.63.378 33.939.303 42.556-.076 8.617-.076 8.617 0 9.07l.302 1.814c.076.454.076.454.076 1.966 0 1.511-.076 4.459-.227 6.5-.076 1.965-.227 3.024-.454 3.628-.151.681-.453.983-.68 1.21-.227.226-.453.453-4.686 1.285-4.233.831-12.472 2.343-20.484 3.703-8.013 1.361-15.647 2.722-20.106 3.326-4.384.605-5.518.529-6.047.529-.529 0-.529 0-.529-1.511 0-1.512 0-4.536-.227-7.484a61.472 61.472 0 00-1.21-8.238c-.529-2.419-1.133-4.309-1.965-6.577-.831-2.267-1.89-4.913-3.779-7.332-1.89-2.418-4.535-4.459-7.257-5.744-2.721-1.209-5.593-1.587-8.465-1.361-2.873.151-5.821.832-8.466 2.117-2.646 1.285-5.064 3.099-6.576 4.459-1.512 1.361-2.192 2.268-2.494 2.646-.303.453-.303.453-.53.378-.226-.076-.604-.227-6.802-3.704-6.199-3.552-18.217-10.431-24.491-14.059-6.273-3.628-6.802-3.931-5.215-5.064 1.587-1.134 5.367-3.024 7.332-4.082 1.965-1.058 2.041-1.285 3.704-2.57 1.663-1.285 4.988-3.553 10.506-7.71s13.228-10.28 18.973-14.966c5.744-4.762 9.523-8.088 11.867-10.431 2.418-2.268 3.401-3.477 7.256-8.617 3.855-5.064 10.582-14.059 15.571-20.711 4.913-6.652 8.088-10.96 10.658-14.135 2.57-3.174 4.535-5.14 6.576-6.198 2.041-1.134 4.233-1.36 9.221-1.436 4.989-.075 12.85 0 17.007.076 4.158 0 4.687 0 5.14.075.378.076.681.378.983 1.361.227.982.453 2.645.756 5.518.302 2.872.756 6.954 1.587 17.082 1.058 9.902 2.343 26.002 2.872 42.631z" fill="#4AAB3C"/><path fill-rule="evenodd" clip-rule="evenodd" d="M180.199 295.545c-2.267 1.436-4.384 2.948-6.5 4.837-2.117 1.89-4.158 4.082-5.216 5.216-1.058 1.134-1.058 1.134-.907 1.209.076.076.303.227 1.965 1.058a496.31 496.31 0 016.35 3.251l1.511.756.605-.605c.605-.605 1.814-1.89 3.78-3.477 1.965-1.587 4.762-3.553 8.087-4.838 3.326-1.285 7.106-1.889 10.658-1.814 3.553.076 6.803.832 9.978 2.495 3.174 1.663 6.349 4.384 8.39 6.5 2.041 2.192 3.023 3.855 3.703 4.686.681.908 1.059.908 1.059-.377 0-1.285-.454-3.931-1.588-7.03-1.133-3.023-2.872-6.5-5.215-9.07-2.343-2.57-5.291-4.309-8.466-5.594a32.731 32.731 0 00-10.204-2.116c-3.553-.151-7.256.302-10.28 1.209-3.099.983-5.518 2.268-7.71 3.704z" fill="#5DC94C"/><path fill-rule="evenodd" clip-rule="evenodd" d="M234.244 207.864c-1.285.605-2.419 1.436-3.477 2.343-1.058.907-1.89 1.89-3.099 3.326-1.21 1.512-2.721 3.477-4.384 5.593-1.588 2.041-3.25 4.158-4.082 5.291-.831 1.134-.831 1.361-.756 1.437.076.075.151.075 1.814-2.041 1.663-2.117 4.913-6.35 7.181-9.071 2.268-2.645 3.477-3.779 4.762-4.61 1.285-.832 2.57-1.512 4.082-1.966 1.512-.453 3.326-.68 5.896-.907 2.569-.227 5.971-.378 9.372-.453 3.402-.076 6.728 0 8.617 0 1.89.075 2.192.151 2.495.302.226.151.378.378.529.529.075.151.151.303.226.151.076-.151.152-.529 0-.907-.151-.378-.529-.831-1.738-1.058-1.209-.227-3.175-.302-7.256-.151-4.082.076-10.129.302-13.833.68-3.779.454-5.14.832-6.349 1.512z" fill="#3D8C31"/><path fill-rule="evenodd" clip-rule="evenodd" d="M216.556 266.519c-10.128 2.722-17.536 4.687-21.995 5.821-4.46 1.133-5.972 1.36-6.879 1.511-.907.152-1.209.152-2.645 1.815-1.512 1.662-4.158 4.837-5.82 6.953-1.663 2.117-2.268 3.1-2.495 3.855-.302.756-.227 1.361.227 1.89.453.454 1.209.832 2.57.68 1.285-.151 3.099-.68 9.675-2.947 6.652-2.268 18.065-6.199 29.63-10.431a1166.009 1166.009 0 0029.933-11.263c6.727-2.646 8.616-3.477 9.977-4.233 1.361-.756 2.268-1.436 2.948-2.419.605-.982.983-2.343 1.209-3.477.227-1.133.303-2.116.227-8.465-.151-6.35-.529-18.217-.907-24.566-.378-6.425-.831-7.332-1.209-7.937-.378-.604-.756-.756-1.059-.831-.302-.076-.453.075-.453.378 0 .302.227.982.378 2.419.151 1.511.302 3.854.302 9.901s0 15.798-.151 20.938c-.076 5.064-.151 5.518-.605 6.349-.378.756-1.058 1.966-2.267 2.721-1.21.756-2.948 1.21-10.28 3.175-7.256 1.89-20.182 5.442-30.311 8.163z" fill="#509663"/><path fill-rule="evenodd" clip-rule="evenodd" d="M248.605 210.737c-2.796.151-5.442.226-7.634.453-2.116.227-3.704.454-5.064.983-1.436.453-2.646 1.133-4.082 2.267s-2.948 2.797-7.936 9.222c-4.914 6.425-13.228 17.763-19.955 26.455-6.728 8.768-11.868 14.967-14.513 18.217-2.721 3.25-2.948 3.552-2.872 4.006.075.453.604.983.831 1.209.227.303.227.303 2.268-.226 1.965-.454 5.971-1.437 9.146-2.193 3.174-.755 5.442-1.36 8.768-2.267 3.25-.907 7.558-2.041 12.018-3.25 4.46-1.21 9.146-2.495 13.757-3.704 4.611-1.21 9.07-2.494 11.791-3.175 2.646-.756 3.477-.982 4.385-1.209a59.219 59.219 0 002.947-.832c.983-.302 1.814-.529 2.57-.755.756-.227 1.361-.53 1.814-.756.454-.227.756-.454 1.059-.681.302-.226.453-.453.756-.755.226-.303.604-.756.831-1.21.227-.453.378-.831.454-1.36.075-.53.075-1.21.151-2.495 0-1.285.075-3.023.075-8.163v-18.066c0-4.61-.075-5.442-.151-6.273-.075-.832-.151-1.588-.302-2.268-.076-.68-.151-1.134-.303-1.587-.151-.454-.378-.832-.755-1.134-.378-.302-.908-.605-2.57-.68-1.815 0-4.687.151-7.484.227z" fill="#403E32"/><path fill-rule="evenodd" clip-rule="evenodd" d="M230.011 221.772c0-3.099 0-3.25-.151-3.326a.467.467 0 00-.529.076c-.227.151-.378.378-2.797 3.552-2.419 3.175-6.954 9.298-9.297 12.397-2.343 3.099-2.343 3.174-2.268 7.483.076 4.308.378 12.774.529 17.082.152 4.309.227 4.536.303 4.687.075.151.151.151 2.494-.454 2.343-.605 6.879-1.814 9.222-2.419 2.343-.604 2.494-.68 2.57-.68.075 0 .075 0 0-3.93-.076-3.855-.152-11.641-.152-18.519 0-6.954 0-12.926.076-15.949zm3.25 35.375v3.023l3.175-.831c3.175-.832 9.599-2.57 13.379-3.553 3.704-1.058 4.686-1.436 5.518-1.814.756-.378 1.36-.832 1.814-1.436.453-.681.831-1.588.982-3.099.152-1.512 0-3.704-.075-9.146-.151-5.443-.303-14.135-.454-18.821-.151-4.687-.226-5.443-.453-6.199-.227-.755-.605-1.511-1.134-1.965-.529-.453-1.209-.605-2.948-.68-1.738-.076-4.535 0-7.407.151-2.873.076-5.821.227-7.635.378s-2.419.378-3.023.756c-.681.378-1.361.907-1.739 1.209-.378.303-.378.303-.302 4.762.076 4.46.151 13.455.227 20.938 0 7.407.075 13.379.075 16.327z" fill="#E6E6E6"/><path fill-rule="evenodd" clip-rule="evenodd" d="M216.179 243.541c-.681.303-1.059.681-1.285 1.814-.151 1.059-.151 2.797-.151 3.704s0 .907-.378.832a41.621 41.621 0 01-1.663-.378c-.529-.151-.907-.303-1.285-.303-.303 0-.605 0-.907.303-.303.226-.605.68-.832 1.209-.227.529-.302 1.21-.227 1.739.076.529.227.907.53 1.133.226.227.529.378 1.436.454.907.076 2.343.076 3.099.076h.756l.075 1.209c.076 1.209.151 3.704.151 4.913.076 1.209.076 1.209-.302 1.209-.302 0-.983 0-1.512-.075-.529 0-.831 0-1.36.151-.454.151-1.134.454-1.512.832-.454.377-.68.831-.756 1.284-.075.454.076.832.151 1.134.151.303.227.378.454.529.227.076.453.227 1.285.227.831 0 2.116-.075 2.872-.075h.756l.151.302c.151.302.378.983.983 1.738.529.832 1.36 1.815 2.419 2.419 1.058.605 2.267.907 3.93.907 1.663 0 3.704-.227 5.216-.529 1.511-.302 2.494-.756 3.25-1.285.756-.529 1.209-1.209 1.36-1.89.227-.68.227-1.436.152-4.308-.076-2.872-.152-8.012-.303-11.262-.151-3.251-.302-4.536-.68-5.518-.378-.983-.983-1.588-1.89-2.041-.907-.454-2.267-.605-4.233-.756-1.965-.151-4.61-.151-6.425-.076-1.738-.075-2.645.076-3.325.378z" fill="#4F4D3E"/><path fill-rule="evenodd" clip-rule="evenodd" d="M230.465 248.076c.302 1.436.529 3.931.604 7.332.151 3.326.151 7.559 0 9.902-.075 2.343-.302 2.721-1.436 3.024-1.058.302-3.023.604-4.838.68-1.814.075-3.401 0-4.61-.378-1.21-.302-2.041-.907-2.646-1.285-.605-.378-.982-.605-1.285-1.285-.302-.68-.453-1.814-.68-4.611a574.295 574.295 0 01-.68-9.675c-.152-2.494-.152-2.948-.152-3.477 0-.529 0-.983.227-1.436.151-.454.529-.907 1.21-1.134.68-.302 1.663-.453 3.174-.529 1.512-.076 3.628 0 5.367.151 1.814.151 3.326.302 4.233.605.907.302 1.209.68 1.512 2.116z" fill="#24231D"/><path fill-rule="evenodd" clip-rule="evenodd" d="M254.728 265.084c-.454.68-1.285 1.814-1.814 2.569-.454.756-.605 1.134-.605 1.512 0 .378.076.756.454 1.512s1.058 1.814 1.511 2.57c.454.756.756 1.134.907 1.36.152.227.227.303 1.663.378 1.436 0 4.233 0 5.669-.075 1.512-.076 1.663-.227 1.966-.907.302-.681.831-1.965 1.133-2.873.303-.907.378-1.436.378-1.738 0-.302 0-.378-.529-1.209-.529-.832-1.512-2.419-2.116-3.326-.605-.832-.756-.907-2.041-.907s-3.628.075-4.838.226c-1.285.076-1.285.227-1.738.908z" fill="#4F4D3E"/><path fill-rule="evenodd" clip-rule="evenodd" d="M256.542 266.293c-.302.453-.831 1.209-1.058 1.587-.227.378-.151.454 1.285.529h7.029s-.075-.075-.377-.604a88.926 88.926 0 01-1.285-1.89c-.303-.454-.303-.454-1.134-.454-.756 0-2.343 0-3.099.076-.756 0-.832.076-.832.151-.151.076-.227.227-.529.605zm-1.285 5.291c.302.453.983 1.285 1.285 1.738.378.454.454.529 1.209.529.756 0 2.268 0 3.024-.075.756 0 .756 0 1.134-.529.378-.454 1.058-1.436 1.436-1.89.378-.529.378-.529.378-.605v-.075h-1.587c-1.437 0-4.309 0-5.745.075-1.436 0-1.436 0-1.436.076v.151c-.076.076 0 .151.302.605z" fill="#24231D"/><path fill-rule="evenodd" clip-rule="evenodd" d="M240.744 307.714c6.728-.755 19.88-2.267 26.456-3.023l6.576-.756v-4.913l-3.704.378c-3.704.378-11.111 1.209-17.612 1.89-6.5.68-12.169 1.285-15.041 1.587-2.873.302-2.948.453-3.251 1.209-.302.756-.907 2.041-1.133 2.873-.303.831-.303 1.058-.227 1.209.075.151.378.227.605.227.302.075.604.075 7.331-.681z" fill="#5DC94C"/><path fill-rule="evenodd" clip-rule="evenodd" d="M259.036 277.026c-3.325.605-6.727 1.512-9.826 3.023-3.099 1.588-5.971 3.855-8.39 6.577-2.494 2.721-4.535 5.744-6.198 8.692-1.663 2.948-2.797 5.669-3.402 7.105-.604 1.436-.604 1.512-.302 1.512.227 0 .756-.151 1.209-.302.454-.152.756-.303 1.21-.907.453-.605 1.058-1.663 2.267-3.855 1.21-2.192 3.1-5.443 5.443-8.315a32.989 32.989 0 018.163-7.03c3.099-1.814 6.576-3.099 10.204-3.93 3.629-.756 7.408-1.058 9.827-1.209 2.418-.152 3.401-.152 3.93-.227.529 0 .529 0 .529-.454 0-.453 0-1.285-.075-1.663v-.453h-.756c-.756 0-2.192.075-4.611.227-2.494.226-5.82.604-9.222 1.209z" fill="#3D8C31"/><path fill-rule="evenodd" clip-rule="evenodd" d="M235.075 330.315c8.013-.983 23.508-3.024 31.218-4.082 7.71-.982 7.71-.982 7.71-1.134v-1.36c0-.227 0-.378-.076-.378 0-.076 0-.076-.075-.378-.076-.302-.152-.907-.227-1.209l-.076-.303-7.332.983c-7.332.982-21.996 2.872-29.327 3.779l-7.332.983s0 .075-.681.756c-.68.68-1.965 2.041-2.57 2.721-.604.68-.604.68-.302.68.454-.076 1.058-.075 9.07-1.058z" fill="#5DC94C"/><path fill-rule="evenodd" clip-rule="evenodd" d="M211.795 307.941c.907.756 2.192 1.89 3.401 3.477 1.285 1.587 2.57 3.628 3.779 6.425 1.21 2.797 2.268 6.274 2.873 9.373.68 3.099.907 5.744 1.058 8.163.151 2.419.151 4.535.227 5.669 0 1.134.075 1.285.151 1.361.075.075.227.075 2.721-.378 2.494-.378 7.332-1.21 13.53-2.344 6.198-1.058 13.757-2.418 17.612-3.099 3.779-.68 3.855-.755 3.93-.831.076-.076.076-.227.076-.227s0-.075-.302 0c-.378.076-1.059.151-5.972.907-4.913.832-13.983 2.343-19.728 3.25-5.745.983-8.088 1.437-9.297 1.588-1.21.151-1.361.151-1.436 0-.076-.151-.076-.303-.227-2.721-.151-2.419-.454-6.954-1.285-11.187a51.947 51.947 0 00-3.553-11.111c-1.436-2.948-2.872-5.065-4.308-6.577-1.436-1.511-2.872-2.569-3.628-3.023-.756-.529-.756-.529-1.059-5.593-.377-5.14-1.133-15.345-1.587-21.543-.529-6.198-.756-8.39-.907-9.448-.151-1.058-.151-1.058-.302-1.058-.227.075-.605.151-.756.226l-.227.076.529 6.198c.529 6.198 1.588 18.519 2.041 24.717.529 6.198.529 6.274.832 6.501.226.075.831.453 1.814 1.209z" fill="#403E32"/><path fill-rule="evenodd" clip-rule="evenodd" d="M160.547 257.147c-3.855-.076-7.71-.076-12.926-.151-5.215-.076-11.867-.151-18.216-.227-6.35-.076-12.397-.151-16.554-.227-4.157-.075-6.576-.075-8.314-.075-1.739 0-2.873 0-3.855-.076-.983 0-1.814 0-2.192-.076h-.227c.151 0 .529 0 3.779.303 3.25.302 9.297.831 20.484 1.36 11.187.529 27.514 1.059 35.98 1.361 8.541.302 9.221.378 9.524.68.226.303 0 .832-.303 1.21-.302.378-.529.604-.529.907 0 .302.378.68.907.831.529.151 1.285 0 3.477-.983 2.192-.982 5.896-2.872 7.71-3.779s1.814-.907.302-.907c-1.511 0-4.535 0-7.936-.076-3.402 0-7.257-.075-11.111-.075z" fill="#509663"/><path fill-rule="evenodd" clip-rule="evenodd" d="M161.907 350.345c.378 1.89 1.134 5.291 2.192 8.542 1.058 3.25 2.57 6.425 4.384 8.919 1.814 2.57 4.006 4.611 6.123 5.896 2.041 1.285 3.93 1.889 5.518 2.267 1.587.378 2.872.605 4.686.681 1.814.075 4.006.075 6.501-.454 2.494-.529 5.139-1.587 7.256-3.93 2.116-2.268 3.628-5.821 5.291-10.96 1.663-5.14 3.401-11.943 3.023-18.595-.377-6.727-2.872-13.379-4.988-17.007-2.117-3.628-3.931-4.233-5.82-4.611-1.815-.378-3.704-.453-6.047-.378-2.419.076-5.367.227-8.013.832-2.645.604-5.064 1.587-7.18 2.872-2.117 1.285-4.007 2.872-5.594 5.064-1.587 2.117-2.948 4.838-4.006 7.332-1.058 2.495-1.965 4.687-2.494 6.501-.529 1.814-.756 3.099-.907 3.93-.303.832-.303 1.21.075 3.099z" fill="#403E32"/><path fill-rule="evenodd" clip-rule="evenodd" d="M207.033 326.838c-1.285-1.21-3.175-2.872-5.443-3.855-2.192-1.058-4.686-1.512-7.105-1.512-2.419 0-4.686.454-6.727 1.285-2.041.832-3.93 2.041-5.896 3.78-1.889 1.738-3.855 4.006-5.366 6.198-1.512 2.192-2.57 4.384-3.477 7.407-.907 3.024-1.663 6.803-1.739 10.734a31.449 31.449 0 001.965 11.489c1.361 3.628 3.402 6.878 5.443 9.221 2.04 2.344 4.006 3.704 5.971 4.46 1.965.756 3.855.907 5.669.831 1.814-.075 3.553-.302 5.518-.982 1.965-.68 4.157-1.663 6.122-3.024 1.966-1.285 3.78-2.872 5.367-4.913 1.587-2.041 2.948-4.611 4.082-7.407a34.746 34.746 0 002.419-9.751c.377-3.704.302-8.012-.53-11.64-.831-3.629-2.267-6.501-3.401-8.391-.907-1.814-1.587-2.645-2.872-3.93z" fill="#403E32"/><path fill-rule="evenodd" clip-rule="evenodd" d="M193.276 331.298c8.314-.983 14.966 6.5 14.966 16.704 0 10.205-6.727 19.351-14.966 20.333-8.315.983-14.967-6.5-14.967-16.704-.075-10.28 6.652-19.351 14.967-20.333z" fill="#4F4D3E"/><path fill-rule="evenodd" clip-rule="evenodd" d="M203.405 343.316c-.303-1.436-.681-2.494-1.512-3.704-.832-1.209-2.041-2.645-3.402-3.628-1.36-.982-2.872-1.587-4.61-1.738-1.739-.227-3.704 0-5.443.68-1.738.68-3.174 1.814-4.459 3.401a20.422 20.422 0 00-3.175 5.972c-.756 2.192-1.058 4.459-1.058 6.727 0 2.268.302 4.535 1.058 6.576.756 2.041 2.041 3.855 3.401 5.064 1.361 1.21 2.873 1.89 4.611 2.041 1.739.151 3.78-.075 5.669-.831 1.814-.756 3.402-1.966 4.611-3.25 1.209-1.21 1.965-2.419 2.419-3.553.453-1.134.605-2.116.605-2.419 0-.302 0 .076-.832.983-.756.907-2.267 2.267-3.855 3.023-1.587.756-3.174.907-4.611.605-1.436-.378-2.645-1.209-3.628-2.419-.982-1.209-1.663-2.721-1.587-5.215 0-2.495.756-5.896 2.494-8.088 1.739-2.117 4.46-2.948 6.425-3.024 1.965-.075 3.099.605 3.931 1.437.831.755 1.36 1.662 1.738 2.418.378.832.605 1.588.832 2.344.151.755.302 1.511.453 1.814.151.302.227.075.227-.983.151-.907 0-2.797-.302-4.233z" fill="#737160"/><path fill-rule="evenodd" clip-rule="evenodd" d="M58.278 307.639c-.152 2.721-.303 7.634.075 12.547s1.134 9.978 2.268 13.228c1.058 3.25 2.494 4.837 4.233 6.122 1.814 1.21 4.006 2.192 7.785 3.402 3.704 1.209 8.995 2.721 17.007 4.233 8.012 1.511 18.821 3.099 27.363 4.232 8.541 1.059 14.89 1.739 21.391 2.041 6.5.378 13.076.454 17.309.454 4.233 0 6.198-.076 7.332-.529 1.209-.454 1.663-1.21 2.192-2.268.529-1.058 1.058-2.419 2.268-6.122 1.209-3.704 2.948-9.751 4.837-14.589 1.89-4.837 3.931-8.39 5.291-10.431 1.285-2.041 1.814-2.57 2.419-3.174l1.436-1.436.303-.303-.756-.529c-.756-.529-2.192-1.587-4.535-2.948-2.344-1.36-5.594-3.023-12.775-6.878-7.18-3.855-18.216-9.827-23.885-12.85-5.669-3.023-5.82-3.099-6.425-3.099-.529.076-1.436.227-2.343.302-.907.076-1.739 0-2.117 0-.453 0-.453 0-5.291-.226-4.837-.152-14.512-.53-23.205-.908-8.692-.453-16.327-.982-21.769-1.436-5.442-.453-8.541-.907-10.355-1.133-1.814-.303-2.192-.454-2.646-.53-.453-.075-.907 0-1.21.152-.302.151-.302.453-.755 2.192-.454 1.738-1.21 4.837-1.739 6.349-.529 1.512-.68 1.512-.831 1.663-.151.075-.227.378-.303.68-.075.302-.15.756-.226 1.436-.076.756-.076 1.814-.303 3.024-.302 1.209-.831 2.494-1.209 3.326-.453.831-.68 1.285-.831 4.006z" fill="#36342B"/><path fill-rule="evenodd" clip-rule="evenodd" d="M158.355 286.701c.68-2.116.982-3.704 1.133-4.838.152-1.133.152-1.738-.075-2.343-.151-.604-.529-1.285-1.209-1.663-.681-.378-1.588-.453-2.722-.378-1.209.076-2.57.227-4.384.605-1.814.378-3.93.907-6.425 1.587-2.494.681-5.215 1.512-7.936 2.722-2.646 1.209-5.216 2.872-6.954 4.308-1.739 1.436-2.57 2.797-3.931 4.838-1.285 2.116-3.023 4.913-4.459 7.332-1.436 2.418-2.495 4.384-3.024 5.593-.453 1.209-.378 1.587-.227 1.814.152.227.303.378 1.361.378s2.948-.076 6.123-.453c3.174-.378 7.634-1.059 11.413-1.739 3.78-.68 6.954-1.361 9.146-1.965 2.192-.681 3.402-1.285 4.157-1.588.681-.378.908-.453 1.663-1.511.756-1.134 2.041-3.251 3.251-5.669 1.285-2.268 2.343-4.914 3.099-7.03z" fill="#24231D"/><path fill-rule="evenodd" clip-rule="evenodd" d="M148.15 301.138c.378-.151.756-.302 1.21-.604.453-.303.907-.756 1.663-1.814.756-1.059 1.738-2.797 2.872-5.216s2.419-5.518 3.25-7.936c.832-2.419 1.134-4.233 1.134-5.367 0-1.134-.454-1.587-1.058-1.814-.605-.227-1.361-.227-2.646-.151-1.285.151-3.099.453-5.14.907-2.116.529-4.459 1.285-6.576 1.889-2.041.605-3.704 1.21-5.366 1.814a27.223 27.223 0 00-4.46 2.192c-1.361.832-2.494 1.663-3.401 2.495-.908.831-1.512 1.738-2.268 3.174-.832 1.437-1.89 3.477-2.872 5.67-1.059 2.192-2.041 4.459-2.57 5.82-.529 1.36-.529 1.814-.454 2.192.076.302.227.453 1.587.378 1.361-.076 3.931-.303 7.181-.756 3.25-.454 7.257-.983 10.129-1.512 2.948-.453 4.837-.831 5.896-1.058 1.209 0 1.511-.151 1.889-.303zm-87.076-5.669c.227.605.53 1.361.983 2.041a11.27 11.27 0 001.285 1.588c.302.302.453.302.529.151.075-.151.075-.605.453-3.175s.983-7.407 1.285-10.733c.303-3.326.152-5.291.152-6.198-.076-.983-.076-.983-.303-.681-.227.227-.756.756-1.285 1.814-.529 1.059-1.134 2.722-1.663 5.065-.604 2.343-1.133 5.442-1.436 7.256-.302 1.814-.227 2.268 0 2.872z" fill="#E6E6E6"/><path fill-rule="evenodd" clip-rule="evenodd" d="M63.04 283.149c.226-.756.377-1.134.529-1.588.15-.453.377-.907.453-1.133.151-.303.151-.378.227-.454 0-.076 0-.076.075.378.076.453.151 1.36.151 2.948 0 1.587-.15 3.779-.377 6.047-.227 2.267-.605 4.535-.756 5.82-.151 1.361-.151 1.738-.227 1.965-.076.227-.227.227-.605-.378-.378-.604-.982-1.814-1.285-2.57-.302-.756-.302-.982-.227-1.587.076-.605.227-1.512.454-2.57.227-1.134.454-2.494.756-3.704.302-1.209.605-2.343.831-3.174zm79.215 19.274c1.587-.302 2.796-.529 3.779-.982.983-.454 1.663-1.059 2.343-2.117.756-.982 1.436-2.419 2.57-4.762 1.134-2.343 2.646-5.669 3.553-7.936.907-2.268 1.134-3.553 1.209-4.384.076-.832-.075-1.285-.529-1.437-.453-.226-1.134-.151-2.645.076-1.437.302-3.629.756-6.803 1.738-3.175.907-7.332 2.268-9.978 3.402-2.645 1.134-3.704 2.041-5.215 4.157-1.436 2.117-3.25 5.442-4.384 7.71-1.134 2.268-1.588 3.628-1.739 4.46-.227.831-.151 1.133.076 1.36.227.227.604.378 1.209.529.605.151 1.436.151 3.326 0 1.89-.151 4.762-.529 7.181-.907 2.57-.302 4.459-.604 6.047-.907z" fill="#E8E4BE"/><path fill-rule="evenodd" clip-rule="evenodd" d="M70.825 336.891c2.57.756 7.18 1.738 12.623 2.721 5.442.983 11.716 2.041 15.798 2.494 4.081.454 5.971.454 7.18.227 1.21-.227 1.739-.529 2.117-1.209.378-.681.68-1.739 1.436-4.913.756-3.175 1.965-8.542 2.948-12.094.982-3.477 1.738-5.14 2.57-6.425.831-1.285 1.814-2.117 2.948-2.646 1.133-.453 2.418-.605 6.878-.982 4.384-.378 11.943-.983 16.856-1.437 4.913-.378 7.332-.604 8.466-.831 1.134-.302.982-.605-.076-.983-1.058-.302-3.099-.604-6.5-.529-3.402.076-8.088.529-12.699.907-4.535.378-8.919.756-11.943 1.361-2.948.605-4.535 1.512-5.82 3.477-1.209 1.965-2.116 5.064-3.099 9.221-.983 4.158-2.116 9.298-3.023 11.943-.907 2.646-1.512 2.797-2.873 2.797-1.436 0-3.703-.076-9.448-.907-5.82-.756-15.193-2.268-20.106-3.175-4.913-.907-5.443-1.209-5.972-1.512-.529-.302-1.133-.68-1.511-1.058-.378-.302-.605-.604-.605-.378 0 .227.151.907.454 1.588.302.907.83 1.587 3.4 2.343z" fill="#737160"/><path fill-rule="evenodd" clip-rule="evenodd" d="M152.988 325.477c-3.855.227-10.658.832-16.251 1.285-5.594.53-9.978 1.059-12.397 1.588-2.418.529-2.872 1.134-3.174 1.889-.227.756-.303 1.588.075 2.873.303 1.285 1.059 3.023 1.588 4.157.604 1.134 1.058 1.814 1.663 2.494.604.681 1.36 1.437 2.04 1.966.681.529 1.361.755 2.192.907.832.151 1.89.302 7.03.302 5.14 0 14.437-.151 19.426-.227 4.989-.075 5.745-.075 6.198-.151.454-.075.68-.151.68-.302 0-.076-.075-.151-1.511-.378-1.361-.151-4.007-.454-5.367-.605-1.361-.151-1.361-.151-4.535-.151-3.099 0-9.298.076-12.548.076-3.174 0-3.401 0-3.174-.227.151-.151.68-.529 1.209-1.058.529-.605 1.134-1.361 1.512-2.57.378-1.134.529-2.646.226-3.931-.302-1.285-1.133-2.419-2.04-3.25-.907-.832-1.966-1.361-2.419-1.663-.454-.302-.302-.302 2.797-.529 3.099-.227 9.297-.68 13.378-1.058 4.082-.378 6.123-.756 7.257-.983 1.134-.227 1.436-.454 1.587-.605.151-.151.151-.226-.227-.302-.453.227-1.36.151-5.215.453z" fill="#24231D"/><path fill-rule="evenodd" clip-rule="evenodd" d="M133.864 330.995c1.285-.075 2.344 1.587 2.495 3.704.151 2.116-.756 3.855-2.041 3.93-1.285.076-2.343-1.587-2.495-3.703-.075-2.117.832-3.855 2.041-3.931z" fill="#E8E4BE"/><path fill-rule="evenodd" clip-rule="evenodd" d="M84.28 286.853c-2.344-.152-4.838-.378-7.257-.605-2.419-.227-4.686-.454-6.123-.68-1.436-.152-2.04-.227-2.267-.303-.302-.075-.302-.075-.454.454-.15.529-.377 1.512-.755 4.535s-.908 8.163-1.134 13.228c-.227 5.064-.152 10.053.378 14.739.529 4.687 1.511 9.146 2.192 11.792.68 2.645 1.058 3.477 1.36 4.006.303.529.53.756 3.326 1.285 2.797.529 8.088 1.436 13.379 2.192 5.291.756 10.582 1.512 13.757 1.814 3.174.302 4.308.227 4.989-.076.68-.302.831-.756.982-1.889.151-1.134.227-3.024.756-6.576.529-3.553 1.587-8.768 3.023-14.06 1.437-5.291 3.402-10.657 5.065-14.89 1.663-4.309 3.174-7.559 4.006-9.449.907-1.889 1.209-2.494 1.36-2.872.152-.378.152-.605.152-.68 0-.076-.076-.076-1.361-.151-1.209-.076-3.628-.151-5.896-.227a286.055 286.055 0 01-7.105-.302 300.133 300.133 0 00-8.314-.378 548.421 548.421 0 01-7.257-.454c-2.343-.151-4.46-.302-6.803-.453z" fill="#36342B"/><path fill-rule="evenodd" clip-rule="evenodd" d="M72.11 290.556c2.268.302 6.198.907 12.17 1.436 6.046.529 14.134 1.058 19.123 1.361 4.989.226 6.727.226 8.466.226h4.081c.832 0 .832 0 1.134-.68.303-.68.983-2.041 1.285-2.721l.303-.68-3.553-.151c-3.553-.152-10.733-.454-16.856-.832-6.122-.378-11.187-.756-15.797-1.209-4.611-.454-8.844-.907-10.96-1.134-2.117-.227-2.193-.227-2.193-.151 0 .075-.075.302-.15.982-.152.681-.303 1.815-.454 2.344-.076.529-.076.529-.076.604 0 0 .076.076.378.076.227.151.831.227 3.1.529zm8.541 3.099c-3.855-.378-7.71-.756-9.75-.983-2.041-.226-2.268-.302-2.344-.302-.15 0-.15 0-.227.68-.075.756-.302 2.192-.377 2.873-.076.756-.152.756.075.831.227.076.605.227 3.855.756s9.297 1.361 14.89 1.814c5.519.454 10.583.605 14.891.756 4.309.151 8.013.302 9.827.378 1.814.076 1.889 0 1.965 0 .075-.076.151-.076.453-.68.303-.605.832-1.814 1.134-2.495.303-.68.378-.982.303-1.058 0-.151-.152-.151-.152-.151-.075 0-.075 0-1.436-.076-1.36-.075-4.157-.151-7.936-.378-3.78-.226-8.617-.529-12.926-.831-4.46-.454-8.39-.756-12.245-1.134zm-13.303 6.123a42.836 42.836 0 00-.151 2.948c0 .68 0 .68 1.663.982 1.663.303 4.913.832 9.373 1.436 4.46.529 9.977 1.059 15.344 1.361 5.366.302 10.431.453 13.379.453 2.947 0 3.779-.075 4.232-.075.454-.076.454-.076.681-.832a48.09 48.09 0 001.058-3.023c.227-.832.227-.907.151-.907-.076-.076-.151-.076-2.116-.151-2.041-.076-5.896-.227-10.129-.378-4.157-.151-8.617-.378-13.757-.832-5.064-.378-10.733-.982-14.059-1.436-3.326-.453-4.308-.756-4.838-.907-.529-.151-.604-.151-.604 0-.151.151-.227.454-.227 1.361zm-.076 7.03v3.325c0 .832.076.908.756 1.134.68.227 1.89.681 5.518 1.21 3.553.529 9.524 1.133 15.193 1.663 5.67.529 11.036.907 14.286 1.058 3.25.227 4.309.227 4.838.227.529 0 .529 0 .907-.983s1.209-2.872 1.587-4.006c.378-1.134.454-1.436.378-1.588 0-.151-.076-.151-2.948-.226-2.872-.076-8.617-.227-14.362-.605-5.744-.378-11.489-.983-15.797-1.512-4.309-.529-7.257-1.058-8.768-1.285-1.512-.226-1.512-.302-1.588-.302v1.89zm1.738 18.896c.303 1.285.832 3.628 1.135 4.838.302 1.209.302 1.436.453 1.587.151.227.454.378 2.57.832 2.116.453 6.123 1.209 10.431 1.889 4.309.681 8.844 1.285 12.547 1.739 3.629.453 6.35.68 7.786.756 1.361.075 1.436 0 1.587-.907.076-.832.227-2.495.303-4.006.151-1.512.226-2.948.302-3.629 0-.68-.076-.68-4.082-1.133-4.006-.454-12.018-1.437-18.292-2.192a2818.92 2818.92 0 01-12.925-1.739c-2.268-.302-2.192-.151-2.117 0-.15.302 0 .68.303 1.965z" fill="#4F4D3E"/><path fill-rule="evenodd" clip-rule="evenodd" d="M82.692 295.545v4.157c0 .983.076 1.058.378 1.285.302.227.907.756 1.21.983.302.226.377.226.529.226.075 0 .226 0 .68-.151.453-.151 1.285-.453 1.663-.68.378-.227.378-.302.378-.605 0-.302-.076-.68.075-1.36.151-.681.454-1.512.832-2.268.378-.68.756-1.209 1.058-1.587.302-.378.53-.529.605-.68.075-.152 0-.152-.303-.681-.378-.529-.982-1.512-1.285-1.965-.302-.454-.302-.454-.907-.454-.604 0-1.738-.151-2.343-.151-.68 0-.756.076-.831.151-.076.076-.076.076-.303.378-.227.303-.756.907-1.058 1.21-.227.302-.227.302-.227.453-.15.303-.15.605-.15 1.739zm116.555-9.448c0 .604 0 1.587.076 2.267 0 .681.075.983.302 1.134.227.227.68.303 1.587.227a26.508 26.508 0 003.402-.529c.982-.227 1.436-.454 1.738-.832.303-.378.378-.907.303-1.738 0-.832-.076-1.89-.227-2.419-.151-.529-.303-.529-.832-.453-.529.075-1.511.226-2.57.453-1.133.227-2.418.454-3.023.756s-.756.529-.756 1.134z" fill="#E6E6E6"/><path fill-rule="evenodd" clip-rule="evenodd" d="M423.967 162.588l-140.365-21.165v157.524l139.987-15.42.378-120.939z" fill="#737160"/><path fill-rule="evenodd" clip-rule="evenodd" d="M283.602 141.423l140.365 21.165-90.704 8.087-49.661-7.331v-21.921zm0 157.523l139.987-15.42-90.024-13.001-49.963 2.797v25.624z" fill="#36342B"/><path fill-rule="evenodd" clip-rule="evenodd" d="M283.602 163.343l50.039 7.332-.605 99.926-49.434 2.721V163.343z" fill="#4F4D3E"/><path fill-rule="evenodd" clip-rule="evenodd" d="M283.602 296.905V145.051l136.057 19.577-.151 118.294-135.906 13.983z" fill="#DBA758"/><path fill-rule="evenodd" clip-rule="evenodd" d="M419.659 164.629l-47.62-6.803-.302 66.516 47.846 1.814.076-61.527zm-.076 62.585v2.192l-.075 53.516-47.771 4.913v-61.754l47.846 1.133zm-77.854-73.773l28.496 4.082-.529 93.048-28.27.68.303-97.81zm-25.473 100.531v39.607l53.213-5.215.227-35.753-53.44 1.361zm-32.654-65.156v-43.765l56.615 8.164-.076 41.195-56.539-5.594zm0 1.361l56.539 5.366-.68 56.01-55.859.756v-62.132zm0 64.551l31.067-.982-.152 39.985-30.915 3.175v-42.178z" fill="#F7CE66"/><path fill-rule="evenodd" clip-rule="evenodd" d="M399.401 161.756l-3.552-.529-3.931-.529v37.037l7.483.454v-36.433zm20.182 93.577v-7.861l-30.764.226v8.466l30.764-.831zm-49.661-52.987v5.216l-28.345-1.587v-5.745l28.345 2.116zm-56.765-53.062l-7.03-.982.68 29.176 6.577.681-.227-28.875zm5.895 49.963l17.385 1.663v13.454l-17.46-1.209.075-13.908zm28.724 63.493l9.146 11.565-8.239 7.785-9.373-11.338 8.466-8.012zm-48.149-2.948l12.32-.982v9.524l-12.396 1.285.076-9.827zm59.411-99.17l10.053 1.436v6.727l-10.129-1.209.076-6.954zm44.218 49.283l13.757.831v10.658l-13.908-.454.151-11.035z" fill="#F7F7F7"/></g><defs><clipPath id="clip0_601_11756"><path fill="#fff" d="M0 0h428.427v396H0z"/></clipPath></defs></svg>