<svg width="328" height="223" fill="none" xmlns="http://www.w3.org/2000/svg"><g clip-path="url(#clip0_38_14181)"><path fill-rule="evenodd" clip-rule="evenodd" d="M265.73 76.361c0-.284.201-.487.482-.487.281 0 .482.203.482.487v22.994h23.196c.282 0 .483.202.483.486a.467.467 0 01-.483.487h-23.196v25.954h23.196c.282 0 .483.202.483.486a.467.467 0 01-.483.487h-23.196v27.576h23.196c.282 0 .483.203.483.486a.467.467 0 01-.483.487h-23.196v25.954h23.196c.282 0 .483.203.483.487a.467.467 0 01-.483.486h-23.196v20.885a.467.467 0 01-.482.487.467.467 0 01-.482-.487v-20.885h-25.367v20.885a.467.467 0 01-.483.487.467.467 0 01-.482-.487v-20.885h-25.97v20.885a.467.467 0 01-.482.487.467.467 0 01-.483-.487v-20.885h-25.367v20.885a.467.467 0 01-.482.487.467.467 0 01-.482-.487v-20.885h-26.935v20.885a.467.467 0 01-.483.487.467.467 0 01-.482-.487v-20.885h-25.367v20.885a.467.467 0 01-.482.487.467.467 0 01-.483-.487v-20.885h-22.552a.467.467 0 01-.483-.486c0-.284.201-.487.483-.487H131.9v-25.954h-22.552a.467.467 0 01-.483-.487c0-.283.201-.486.483-.486H131.9v-27.576h-22.552a.467.467 0 01-.483-.487c0-.284.201-.486.483-.486H131.9v-25.954h-22.552a.467.467 0 01-.483-.487c0-.284.201-.486.483-.486H131.9V76.36c0-.284.201-.487.483-.487.281 0 .482.203.482.487v22.994h25.367V76.36c0-.284.201-.487.482-.487.282 0 .483.203.483.487v22.994h26.935V76.36c0-.284.201-.487.482-.487.281 0 .482.203.482.487v22.994h25.367V76.36c0-.284.201-.487.483-.487.281 0 .482.203.482.487v22.994h25.97V76.36c0-.284.201-.487.482-.487.282 0 .483.203.483.487v22.994h25.367V76.36zm0 105.478v-25.954h-25.367v25.954h25.367zm-26.372 0v-25.954h-25.97v25.954h25.97zm-26.935 0v-25.954h-25.367v25.954h25.367zm-26.332 0v-25.954h-26.934v25.954h26.934zm-27.939 0v-25.954h-25.367v25.954h25.367zm107.578-26.968v-27.576h-25.367v27.576h25.367zm-26.372 0v-27.576h-25.97v27.576h25.97zm-26.935 0v-27.576h-25.367v27.576h25.367zm-26.332 0v-27.576h-26.934v27.576h26.934zm-27.939 0v-27.576h-25.367v27.576h25.367zm107.578-28.549v-25.954h-25.367v25.954h25.367zm-26.372 0v-25.954h-25.97v25.954h25.97zm-26.935 0v-25.954h-25.367v25.954h25.367zm-26.332 0v-25.954h-26.934v25.954h26.934zm-27.939 0v-25.954h-25.367v25.954h25.367z" fill="#E1E2E1"/><path fill-rule="evenodd" clip-rule="evenodd" d="M242.855 79.97h.081c.161 0 .563-.77.804-1.054.04-.04.201-.325.241-.365v.405c0 .122-.121 2.839-.161 2.96-.08.244-.683.122-.683.325 0 .122.321.162.442.162h.121c.281-.04 1.286-.162 1.286-.243 0-.162-.522-.203-.764-.243.041-.244.081-.568.081-.811.04-.73.08-1.46.241-2.19v-.284c0-.284-.04-.527-.402-.527-.121 0-.201.04-.281.162a17.243 17.243 0 01-1.006 1.703zm26.974-.121c0-.73.482-1.46 1.005-1.46.201 0 .442.08.442.243 0 .162-.12.446-.201.568-.442.649-.924 1.216-1.367 1.865-.201.325-.361.65-.562.974-.041.04-.041.08-.041.121 0 .122.121.243.282.243.04 0 .08 0 .12-.04.201-.162.443-.243.684-.243.161 0 .362.04.523.121.04 0 .12.04.16.04h.081c.362-.161.603-.405.764-.77v-.08c-.322.161-.563.689-.885.689h-.04c-.281-.082-.523-.203-.804-.203 0 0-.04-.04-.04-.081 0-.081.08-.162.12-.203.483-.649.925-1.338 1.407-1.987.121-.162.201-.406.201-.608 0-.487-.321-.811-.804-.811-.723 0-1.125.892-1.206 1.5 0 .122.081.284.121.284.04 0 .04-.162.04-.162zm-26.251 26.886h.08c.201 0 .402-.122.603-.243.282-.203.402-.446.402-.73 0-.487-.241-.973-.482-1.338-.081-.082-.081-.163-.081-.244 0-.202.322-.77.322-1.095 0-.365-.362-.608-.724-.608-.241 0-.603.203-.603.487 0 .162.041.365.121.527.121.284.402.689.402.933 0 .04 0 .081-.04.162-.201.365-.362.77-.563 1.135a.664.664 0 00-.121.365c-.04.365.242.649.684.649zm.563-.933c0 .365-.242.771-.724.771-.201 0-.362-.203-.362-.446 0-.081 0-.122.04-.203.201-.365.402-.77.603-1.135 0-.041.041-.041.041-.041.04 0 .04 0 .08.041.201.324.281.648.322 1.013zm.04-2.595c-.04.122-.121.649-.282.649-.12 0-.442-.771-.442-.933 0-.243.201-.243.282-.243.281 0 .442.243.442.527zm27.015-.243c0-.163-.201-.365-.321-.365-.121 0-.161.121-.242.324-.201-.284-.442-.486-.643-.486-.442 0-.683.648-.683 1.216 0 .406.201.933.562.933.322 0 .362-.243.644-.771 0 0 .04-.04.08-.04.081 0 .081.284.081.527v.203c0 .608-.081 1.297-.483 1.825-.12.121-.322.283-.442.283-.161 0-.241-.162-.241-.405 0-.203.12-.365.241-.527v-.041h-.121c-.201.162-.241.325-.241.568 0 .324.161.568.482.568.161 0 .322-.081.483-.203.764-.527.884-1.298.884-2.352-.04-.487-.04-.852-.04-1.257zm-.723.608c-.161.243-.242.852-.563.852-.242 0-.402-.609-.402-.852 0-.487.281-.973.562-.973.202 0 .362.243.362.243a.924.924 0 01.121.446c0 .081-.04.162-.08.284zM216 106.005v.365c0 .203.08.406.321.406.161 0 .201-.122.201-.244v-.162c.041-.243.041-.486.121-.73.04-.121.04-.162.161-.162.12 0 .241.041.402.041 0 0 .04-.041.04-.082v-.04c-.362-.203-.482-.162-.482-.325 0-.081.04-.162.08-.283.161-.609.402-1.176.523-1.785v-.162c0-.324-.523-.405-.965-.405-.241 0-.523.04-.764.121-.201.041-.281.162-.281.406 0 .243 0 .446.04.689 0 .041.08.041.08.081v-.081c0-.568-.04-.811.322-.892.201-.041.402-.081.603-.081.12 0 .402 0 .402.162 0 .081-.04.203-.081.284-.201.649-.361 1.298-.562 1.946-.041.203-.161.244-.362.244h-.322c-.04 0-.161 0-.161.04 0 .081.282.122.362.122h.201c.161 0 .201.122.201.284-.08.081-.08.162-.08.243zm-80.401-3.203c0-.122.04-.325-.121-.406-.08 0-.12.162-.12.243-.081.69-.282 1.339-.523 2.028-.04.041-.04.081-.04.122 0 .04.04.081.161.081.241 0 .522-.041.804-.081.12 0 .201.04.201.202 0 .446-.081.933-.081 1.379 0 .162.081.365.282.365.201 0 .201-.284.201-.446.04-.324.04-.649.12-.973l.242-1.095c0-.081.04-.162.04-.243 0-.163-.161-.447-.322-.447-.12 0-.12.122-.12.203-.081.203-.161.933-.402.933-.081 0-.201-.041-.282-.041-.161 0-.281.041-.362.041-.12 0-.16-.041-.16-.081 0-.081.04-.162.08-.365.121-.446.281-.892.402-1.419zm27.015 1.175c-.04.203-.04.365-.04.528 0 .162.081.284.201.284.201 0 .442-.447.764-.447.201 0 .402.163.402.365 0 .649-.161 1.217-.603 1.704-.08.081-.201.162-.281.162-.081 0-.121-.081-.121-.203 0-.284.161-.527.322-.77 0 0 0-.041-.041-.041h-.04a1.004 1.004 0 00-.362.771c0 .243.081.405.242.405h.12c.603-.162 1.005-1.095 1.005-1.784 0-.446-.201-.649-.643-.649-.121 0-.241 0-.322.081-.04 0-.08.041-.08.041-.04 0-.04 0-.04-.041 0-.203.12-.446.12-.649 0-.365.242-.568.523-.73.241-.121.482-.324.764-.324.161 0 .241.121.241.284 0 .121-.04.243-.04.365 0 .04 0 .081.04.081.161 0 .241-.284.241-.365 0-.284-.281-.487-.522-.487a.77.77 0 00-.402.122c-.322.162-.804.527-.965.527h-.121c-.04 0-.12.041-.12.122-.121.081-.161.365-.242.648zm-52.061 1.501c-.12.405-.241 1.419-.965 1.419-.16 0-.201-.162-.201-.324 0-.122.041-.284.201-.365v-.041c0-.04-.04-.04-.08-.04-.201 0-.281.203-.281.405 0 .284.16.487.402.487.12 0 .201-.041.321-.122.523-.243.804-.892.804-1.419 0-.324-.12-.771-.482-.852-.121-.04-.161-.04-.161-.081 0-.04 0-.081.08-.162.201-.365.644-.852.644-1.298 0-.405-.201-.649-.483-.649-.522 0-.965.649-.965 1.095 0 .122.041.244.121.244.04 0 .08-.041.08-.041 0-.081-.04-.121-.04-.203 0-.365.442-.892.724-.892.12 0 .161.122.161.203 0 .081-.041.162-.081.243-.281.568-.603 1.055-.924 1.622-.041.041-.041.082-.041.122 0 .122.121.243.242.243.12 0 .321-.243.522-.243.282 0 .362.203.402.649zm132.302 25.71h.081c.161 0 .563-.77.804-1.054.04-.041.201-.324.241-.365v.406c0 .121-.121 2.838-.161 2.96-.08.243-.683.122-.683.324 0 .122.321.163.442.163h.121c.281-.041 1.286-.163 1.286-.244 0-.162-.522-.202-.764-.243a5.57 5.57 0 00.081-.811c.04-.73.08-1.46.241-2.19v-.284c0-.284-.04-.527-.402-.527-.121 0-.201.041-.281.162a17.25 17.25 0 01-1.006 1.703zm2.855-.283c-.04.202-.04.365-.04.527 0 .162.08.284.201.284.201 0 .442-.446.763-.446.201 0 .402.162.402.365 0 .648-.16 1.216-.603 1.703-.08.081-.201.162-.281.162-.08 0-.121-.081-.121-.203 0-.284.161-.527.322-.77 0 0 0-.041-.04-.041h-.04a1.001 1.001 0 00-.362.771c0 .243.08.405.241.405h.121c.603-.162 1.005-1.095 1.005-1.784 0-.446-.201-.649-.644-.649-.12 0-.241 0-.321.081-.04 0-.081.041-.081.041-.04 0-.04 0-.04-.041 0-.203.121-.446.121-.649 0-.365.241-.568.522-.73.242-.121.483-.324.764-.324.161 0 .241.122.241.284 0 .121-.04.243-.04.365 0 .04 0 .04.04.04.161 0 .242-.284.242-.365 0-.284-.282-.486-.523-.486a.77.77 0 00-.402.121c-.322.163-.804.527-.965.527h-.12c-.041 0-.121.041-.121.122-.121.122-.161.406-.241.69zm23.558.283h.08c.161 0 .563-.77.804-1.054.04-.041.201-.324.241-.365v.406c0 .121-.12 2.838-.161 2.96-.08.243-.683.122-.683.324 0 .122.322.163.442.163h.121c.281-.041 1.286-.163 1.286-.244 0-.162-.522-.202-.764-.243.041-.243.081-.568.081-.811.04-.73.08-1.46.241-2.19v-.284c0-.284-.04-.527-.402-.527-.121 0-.201.041-.281.162a17.444 17.444 0 01-1.005 1.703zm2.773.69c0 .446.242 1.784 1.367 1.784.483 0 .804-.851.804-1.338 0-.487-.321-.852-.844-.852-.241 0-.442.081-.643.203-.04.041-.121.081-.161.122 0-.081-.04-.122-.04-.203v-.041c.04-.324.08-.648.161-.973.12-.405.281-1.014.723-1.014.563 0 .443 1.014.563 1.014.201-.04.161-.203.161-.324 0-.365-.201-.892-.643-.892-.402 0-.764.121-.965.527-.322.527-.483 1.135-.483 1.987zm.644.568c.12-.528.321-.852.723-.852.322 0 .724.284.724.73 0 .365-.362 1.135-.724 1.135-.08 0-.16-.04-.281-.121-.282-.203-.442-.487-.442-.892zm-83.982-1.258h.081c.16 0 .562-.77.804-1.054.04-.041.201-.324.241-.365v.406c0 .121-.121 2.838-.161 2.96-.08.243-.683.122-.683.324 0 .122.321.163.442.163h.12c.282-.041 1.287-.163 1.287-.244 0-.162-.523-.203-.764-.243.04-.243.08-.568.08-.811.041-.73.081-1.46.242-2.19v-.284c0-.284-.041-.527-.402-.527-.121 0-.201.041-.282.162a17.052 17.052 0 01-1.005 1.703zm4.02 1.217c-.12.406-.241 1.419-.965 1.419-.16 0-.201-.162-.201-.324 0-.122.041-.284.201-.365v-.041c0-.04-.04-.04-.08-.04-.201 0-.281.203-.281.405 0 .284.16.487.402.487.12 0 .201-.041.321-.122.523-.243.804-.892.804-1.419 0-.324-.12-.771-.482-.852-.121-.04-.161-.04-.161-.081 0-.04 0-.081.08-.162.201-.365.644-.852.644-1.298 0-.405-.201-.648-.483-.648-.522 0-.965.648-.965 1.094 0 .122.041.244.121.244.04 0 .08-.041.08-.041 0-.081-.04-.121-.04-.203 0-.364.442-.892.724-.892.12 0 .161.122.161.203 0 .081-.041.162-.081.243-.281.568-.603 1.055-.924 1.622-.041.041-.041.082-.041.122 0 .122.121.243.242.243.12 0 .321-.243.522-.243.282.041.362.243.402.649zm22.392-1.217h.081c.16 0 .562-.77.804-1.054.04-.041.201-.324.241-.365v.406c0 .121-.121 2.838-.161 2.96-.08.243-.683.122-.683.324 0 .122.321.163.442.163h.12c.282-.041 1.287-.163 1.287-.244 0-.162-.523-.202-.764-.243.04-.243.08-.568.08-.811.041-.73.081-1.46.242-2.19v-.284c0-.284-.041-.527-.402-.527-.121 0-.201.041-.282.162a17.052 17.052 0 01-1.005 1.703zm3.458-1.419c0-.122.04-.324-.121-.405-.08 0-.121.162-.121.243-.08.689-.281 1.338-.522 2.028-.04.04-.041.081-.041.121 0 .041.041.081.161.081.242 0 .523-.04.804-.081.121 0 .201.041.201.203 0 .446-.08.933-.08 1.379 0 .162.08.365.281.365s.201-.284.201-.446c.041-.325.041-.649.121-.974l.241-1.095c0-.081.04-.162.04-.243 0-.162-.16-.446-.321-.446-.121 0-.121.122-.121.203-.08.203-.161.933-.402.933-.08 0-.201-.041-.281-.041-.161 0-.282.041-.362.041-.121 0-.161-.041-.161-.082 0-.081.04-.162.081-.365.12-.446.281-.892.402-1.419zm-83.739 1.419h.08c.161 0 .563-.77.804-1.054.041-.04.201-.324.242-.365v.406c0 .121-.121 2.838-.161 2.96-.081.243-.684.122-.684.324 0 .122.322.163.443.163h.12c.282-.041 1.287-.163 1.287-.244 0-.162-.523-.202-.764-.243.04-.243.08-.568.08-.811.04-.73.081-1.46.241-2.19v-.284c0-.284-.04-.527-.402-.527-.12 0-.201.041-.281.162-.362.608-.683 1.176-1.005 1.703zm2.653 0h.081c.16 0 .562-.77.804-1.054.04-.04.201-.324.241-.365v.406c0 .121-.121 2.838-.161 2.96-.08.243-.683.122-.683.324 0 .122.321.163.442.163h.12c.282-.041 1.287-.163 1.287-.244 0-.162-.523-.202-.764-.243.04-.243.08-.568.08-.811.041-.73.081-1.46.242-2.19v-.284c0-.284-.041-.527-.402-.527-.121 0-.201.041-.282.162a17.052 17.052 0 01-1.005 1.703zm24.966 0h.081c.16 0 .562-.77.804-1.054.04-.04.201-.324.241-.365v.406c0 .121-.121 2.838-.161 2.96-.08.243-.683.122-.683.324 0 .122.321.163.442.163h.12c.282-.041 1.287-.163 1.287-.244 0-.162-.523-.202-.764-.243.04-.243.08-.568.08-.811.041-.73.081-1.46.242-2.19v-.284c0-.284-.041-.527-.402-.527-.121 0-.201.041-.282.162-.321.608-.683 1.176-1.005 1.703zm3.216-.121c0-.73.483-1.46 1.005-1.46.201 0 .442.081.442.243 0 .162-.12.446-.201.568-.442.649-.924 1.217-1.366 1.865-.201.325-.362.649-.563.974-.04.04-.04.081-.04.121 0 .122.12.244.281.244.04 0 .08 0 .121-.041.201-.162.442-.243.683-.243.161 0 .362.04.523.121.04 0 .12.041.16.041h.081c.362-.162.603-.406.764-.771v-.081c-.322.163-.563.69-.885.69h-.04c-.281-.081-.523-.203-.804-.203 0 0-.04-.041-.04-.081 0-.041.08-.162.12-.203.483-.649.925-1.338 1.407-1.987.121-.162.201-.406.201-.608 0-.487-.321-.811-.804-.811-.723 0-1.125.892-1.206 1.5 0 .122.081.284.121.284.04 0 .04-.162.04-.162zm-56.442.121h.08c.161 0 .563-.77.804-1.054.04-.04.201-.324.241-.365v.406c0 .121-.12 2.838-.161 2.96-.08.243-.683.122-.683.324 0 .122.322.163.442.163h.121c.281-.041 1.286-.163 1.286-.244 0-.162-.522-.202-.764-.243.041-.243.081-.568.081-.811.04-.73.08-1.46.241-2.19v-.284c0-.284-.04-.527-.402-.527-.121 0-.201.041-.281.162-.362.609-.684 1.176-1.005 1.703zm4.864.447c0-.203.04-.406.04-.609 0-.649-.322-1.622-.925-1.622-.522 0-.964.608-1.045 1.095-.08.446-.161.852-.161 1.298 0 .446.081.932.362 1.297.201.284.523.568.885.568.603.041.804-1.257.844-2.027zm-.161.324c0 .649-.362 1.582-.724 1.582-.12 0-.241-.082-.361-.203-.322-.365-.402-.892-.402-1.379 0-.608.12-1.176.201-1.744.04-.324.321-.649.522-.649.121 0 .241.081.362.163.362.324.402 1.054.402 1.622v.608zm129.528 27.535c0-.73.482-1.459 1.005-1.459.201 0 .442.081.442.243 0 .162-.12.446-.201.568-.442.648-.924 1.216-1.367 1.865-.201.324-.361.649-.562.973-.041.041-.041.081-.041.122 0 .122.121.243.282.243.04 0 .08 0 .12-.04.201-.163.443-.244.684-.244.161 0 .362.041.522.122.041 0 .121.041.161.041h.081a1.43 1.43 0 00.763-.771v-.081c-.321.162-.562.689-.884.689h-.04c-.282-.081-.523-.202-.804-.202 0 0-.04-.041-.04-.082 0-.081.08-.162.12-.202.483-.649.925-1.339 1.407-1.987a1.1 1.1 0 00.201-.609c0-.486-.321-.811-.804-.811-.723 0-1.125.892-1.206 1.501 0 .121.081.284.121.284.04-.041.04-.203.04-.163zm3.095 0c0-.73.483-1.459 1.006-1.459.201 0 .442.081.442.243 0 .162-.121.446-.201.568-.442.648-.925 1.216-1.367 1.865-.201.324-.362.649-.563.973-.04.041-.04.081-.04.122 0 .122.12.243.281.243.04 0 .081 0 .121-.04.201-.163.442-.244.683-.244.161 0 .362.041.523.122.04 0 .121.041.161.041h.08c.362-.163.603-.406.764-.771v-.081c-.322.162-.563.689-.884.689h-.041c-.281-.081-.522-.202-.804-.202 0 0-.04-.041-.04-.082 0-.081.08-.162.121-.202.482-.649.924-1.339 1.407-1.987.12-.163.201-.406.201-.609 0-.486-.322-.811-.804-.811-.724 0-1.126.892-1.206 1.501 0 .121.08.284.12.284.04-.041.04-.203.04-.163zm23.276 0c0-.73.482-1.46 1.005-1.46.201 0 .442.081.442.244 0 .162-.12.446-.201.567-.442.649-.924 1.217-1.367 1.866-.201.324-.361.649-.562.973-.041.041-.041.081-.041.122 0 .121.121.243.282.243.04 0 .08 0 .12-.04.201-.163.443-.244.684-.244.161 0 .362.041.523.122.04 0 .12.04.16.04h.081c.362-.162.603-.405.764-.77v-.081c-.322.162-.563.689-.885.689h-.04c-.281-.081-.523-.203-.804-.203 0 0-.04-.04-.04-.081 0-.081.08-.162.12-.202.483-.649.925-1.339 1.407-1.988.121-.162.201-.405.201-.608 0-.486-.321-.811-.804-.811-.723 0-1.125.892-1.206 1.501 0 .121.081.283.121.283.04-.04.04-.202.04-.162zm3.9 1.298c-.121.405-.242 1.419-.965 1.419-.161 0-.201-.162-.201-.324 0-.122.04-.284.201-.365v-.041c0-.04-.04-.04-.081-.04-.201 0-.281.203-.281.405 0 .284.161.487.402.487.121 0 .201-.041.322-.122.522-.243.804-.892.804-1.419 0-.324-.121-.771-.483-.852-.12-.04-.161-.04-.161-.081 0-.04 0-.081.081-.162.201-.365.643-.852.643-1.298 0-.405-.201-.649-.482-.649-.523 0-.965.649-.965 1.095 0 .122.04.244.12.244.041 0 .081-.041.081-.041 0-.081-.04-.121-.04-.203 0-.365.442-.892.723-.892.121 0 .161.122.161.203a.58.58 0 01-.08.243c-.282.568-.603 1.055-.925 1.622-.04.041-.04.082-.04.122 0 .122.12.243.241.243s.322-.243.523-.243c.281.041.321.243.402.649zm-84.421-1.298c0-.73.482-1.46 1.005-1.46.201 0 .442.081.442.244 0 .162-.121.446-.201.567-.442.649-.925 1.217-1.367 1.866-.201.324-.362.649-.563.973-.04.041-.04.081-.04.122 0 .121.121.243.281.243.041 0 .081 0 .121-.04.201-.163.442-.244.683-.244.161 0 .362.041.523.122.04 0 .121.04.161.04h.08c.362-.162.603-.405.764-.77v-.081c-.322.162-.563.689-.884.689h-.041c-.281-.081-.522-.203-.804-.203 0 0-.04-.04-.04-.081 0-.081.081-.162.121-.202.482-.649.924-1.339 1.407-1.988.12-.162.201-.405.201-.608 0-.486-.322-.811-.804-.811-.724 0-1.126.892-1.206 1.501 0 .121.08.283.12.283.041-.04.041-.202.041-.162zm4.743.527c0-.202.041-.405.041-.608 0-.649-.322-1.622-.925-1.622-.523 0-.965.608-1.045 1.095-.081.446-.161.852-.161 1.298 0 .446.08.932.362 1.297.201.284.522.568.884.568.563.041.804-1.257.844-2.028zm-.16.325c0 .649-.362 1.581-.724 1.581-.121 0-.241-.081-.362-.202-.322-.365-.402-.893-.402-1.379 0-.608.121-1.176.201-1.744.04-.324.322-.649.523-.649.12 0 .241.081.362.162.361.325.402 1.055.402 1.623v.608zm21.788-.852c0-.73.482-1.46 1.005-1.46.201 0 .442.081.442.244 0 .162-.121.446-.201.567-.442.649-.925 1.217-1.367 1.866-.201.324-.362.649-.563.973-.04.041-.04.081-.04.122 0 .121.121.243.281.243.041 0 .081 0 .121-.04.201-.163.442-.244.684-.244.16 0 .361.041.522.122.04 0 .121.04.161.04h.08c.362-.162.603-.405.764-.77v-.081c-.321.162-.563.689-.884.689h-.04c-.282-.081-.523-.203-.804-.203 0 0-.041-.04-.041-.081 0-.081.081-.162.121-.202.482-.649.925-1.339 1.407-1.987a1.1 1.1 0 00.201-.609c0-.486-.322-.811-.804-.811-.724 0-1.126.892-1.206 1.501 0 .121.08.283.121.283.04-.04.04-.202.04-.162zm2.532.081h.081c.161 0 .563-.77.804-1.054.04-.041.201-.324.241-.365v.406c0 .121-.121 2.838-.161 2.96-.08.243-.683.122-.683.324 0 .122.321.163.442.163h.121c.281-.041 1.286-.163 1.286-.244 0-.162-.523-.203-.764-.243a5.57 5.57 0 00.081-.811c.04-.73.08-1.46.241-2.19v-.284c0-.284-.04-.527-.402-.527-.121 0-.201.041-.282.162a17.052 17.052 0 01-1.005 1.703zm-83.377 0h.08c.161 0 .563-.77.804-1.054.041-.041.201-.324.242-.365v.406c0 .121-.121 2.838-.161 2.96-.081.243-.684.122-.684.324 0 .122.322.163.443.163h.12c.282-.041 1.287-.163 1.287-.244 0-.162-.523-.203-.764-.243.04-.243.08-.568.08-.811.04-.73.081-1.46.241-2.19v-.284c0-.284-.04-.527-.402-.527-.12 0-.201.041-.281.162-.362.608-.683 1.176-1.005 1.703zm3.337 2.515h.08c.201 0 .402-.122.603-.244.281-.202.402-.446.402-.73 0-.486-.241-.973-.482-1.338-.081-.081-.081-.162-.081-.243 0-.203.322-.771.322-1.095 0-.365-.362-.608-.724-.608-.241 0-.603.202-.603.486 0 .162.04.365.121.527.12.284.402.69.402.933 0 .041 0 .081-.04.162-.201.365-.362.771-.563 1.136a.654.654 0 00-.121.365c0 .365.282.649.684.649zm.562-.933c0 .365-.241.77-.723.77-.201 0-.362-.202-.362-.446 0-.081 0-.121.04-.202.201-.365.402-.771.603-1.136 0-.04.04-.04.081-.04.04 0 .04 0 .08.04.161.284.241.649.281 1.014zm.041-2.636c-.041.122-.121.649-.282.649-.12 0-.442-.771-.442-.933 0-.243.201-.243.281-.243.322 0 .443.284.443.527zm23.679 1.054h.081c.16 0 .562-.77.804-1.054.04-.041.201-.324.241-.365v.406c0 .121-.121 2.838-.161 2.96-.08.243-.683.122-.683.324 0 .122.321.163.442.163h.12c.282-.041 1.287-.163 1.287-.244 0-.162-.523-.203-.764-.243.04-.243.08-.568.08-.811.041-.73.081-1.46.242-2.19v-.284c0-.284-.041-.527-.402-.527-.121 0-.201.041-.282.162-.321.608-.683 1.176-1.005 1.703zm4.583-1.257c0-.162-.201-.365-.322-.365-.12 0-.16.122-.241.325-.201-.284-.442-.487-.643-.487-.442 0-.683.649-.683 1.217 0 .405.201.932.562.932.322 0 .362-.243.644-.77 0 0 .04-.041.08-.041.08 0 .08.284.08.528v.202c0 .609-.08 1.298-.482 1.825-.121.122-.322.284-.442.284-.161 0-.241-.162-.241-.406 0-.202.12-.364.241-.527v-.04h-.121c-.201.162-.241.324-.241.567 0 .325.161.568.482.568.161 0 .322-.081.483-.203.764-.527.884-1.297.884-2.352-.04-.486-.04-.892-.04-1.257zm-.724.609c-.16.243-.241.851-.562.851-.242 0-.402-.608-.402-.851 0-.487.281-.974.562-.974.201 0 .362.244.362.244a.921.921 0 01.121.446c0 .081-.04.162-.081.284zm-57.085.648h.08c.161 0 .563-.77.804-1.054.04-.041.201-.324.241-.365v.406c0 .121-.12 2.838-.161 2.96-.08.243-.683.122-.683.324 0 .122.322.163.442.163h.121c.281-.041 1.286-.163 1.286-.244 0-.162-.522-.203-.764-.243.041-.243.081-.568.081-.811.04-.73.08-1.46.241-2.19v-.284c0-.284-.04-.527-.402-.527-.121 0-.201.041-.281.162-.362.608-.684 1.176-1.005 1.703zm3.457 1.704v.365c0 .202.08.405.321.405.161 0 .201-.122.201-.243v-.162c.041-.244.041-.487.121-.73.04-.122.04-.163.161-.163.12 0 .241.041.402.041 0 0 .04-.041.04-.081v-.041c-.362-.202-.482-.162-.482-.324 0-.081.04-.162.08-.284.161-.608.402-1.176.523-1.784v-.163c0-.324-.523-.405-.965-.405a2.51 2.51 0 00-.764.122c-.201.04-.281.162-.281.405a4 4 0 00.04.69c0 .04.08.04.08.081v-.081c0-.568-.08-.812.322-.893.201-.04.402-.081.603-.081.12 0 .402 0 .402.162a.74.74 0 01-.081.284c-.201.649-.361 1.298-.562 1.947-.041.203-.161.243-.362.243h-.322c-.08 0-.161 0-.161.041 0 .081.282.121.362.121h.201c.161 0 .201.122.201.284-.04.122-.08.203-.08.244zm130.774 24.859c0-.73.482-1.46 1.005-1.46.201 0 .442.081.442.243 0 .162-.12.446-.201.568-.442.649-.924 1.216-1.367 1.865-.201.325-.361.649-.562.973-.041.041-.041.081-.041.122 0 .122.121.243.282.243.04 0 .08 0 .12-.04a1.09 1.09 0 01.684-.244c.161 0 .362.041.522.122.041 0 .121.041.161.041h.081a1.43 1.43 0 00.763-.771v-.081c-.321.162-.562.689-.884.689h-.04c-.282-.081-.523-.202-.804-.202 0 0-.04-.041-.04-.081 0-.041.08-.163.12-.203.483-.649.925-1.338 1.407-1.987.121-.162.201-.406.201-.609 0-.486-.321-.811-.804-.811-.723 0-1.125.893-1.206 1.501 0 .122.081.284.121.284.04-.041.04-.203.04-.162zm4.462-1.176c0-.163-.201-.365-.321-.365-.121 0-.161.121-.242.324-.201-.284-.442-.487-.643-.487-.442 0-.683.649-.683 1.217 0 .405.201.933.563.933.321 0 .361-.244.643-.771 0 0 .04-.04.08-.04.081 0 .081.283.081.527v.203c0 .608-.081 1.297-.483 1.824-.12.122-.321.284-.442.284-.161 0-.241-.162-.241-.405 0-.203.12-.365.241-.527v-.041h-.121c-.201.162-.241.324-.241.568 0 .324.161.567.483.567.16 0 .321-.081.482-.202.764-.527.885-1.298.885-2.352-.041-.487-.041-.852-.041-1.257zm-.723.608c-.161.243-.242.851-.563.851-.241 0-.402-.608-.402-.851 0-.487.281-.973.563-.973.201 0 .361.243.361.243a.924.924 0 01.121.446.76.76 0 01-.08.284zm23.397 1.906c-.12.405-.241 1.419-.965 1.419-.16 0-.201-.162-.201-.324 0-.122.041-.284.201-.365v-.041c0-.04-.04-.04-.08-.04-.201 0-.281.202-.281.405 0 .284.16.487.402.487.12 0 .201-.041.321-.122.523-.243.804-.892.804-1.419 0-.325-.12-.771-.482-.852-.121-.04-.161-.04-.161-.081 0-.04 0-.081.08-.162.201-.365.644-.852.644-1.298 0-.405-.201-.649-.483-.649-.522 0-.965.649-.965 1.095 0 .122.041.244.121.244.04 0 .08-.041.08-.082 0-.081-.04-.121-.04-.202 0-.365.442-.892.724-.892.12 0 .161.121.161.202 0 .081-.041.163-.081.244-.281.567-.603 1.054-.924 1.622-.041.04-.041.081-.041.121 0 .122.121.244.242.244.12 0 .321-.244.522-.244.322.041.362.244.402.69zm3.256-.811c0-.203.041-.406.041-.609 0-.648-.322-1.622-.925-1.622-.523 0-.965.609-1.045 1.095-.081.446-.161.852-.161 1.298 0 .446.08.933.362 1.298.201.284.522.567.884.567.603.041.804-1.216.844-2.027zm-.16.365c0 .649-.362 1.581-.724 1.581-.121 0-.241-.081-.362-.202-.321-.365-.402-.893-.402-1.379 0-.609.121-1.176.201-1.744.04-.324.322-.649.523-.649.12 0 .241.081.362.162.361.325.402 1.055.402 1.622v.609zm-84.382-.892c0-.73.482-1.46 1.005-1.46.201 0 .442.081.442.243 0 .162-.121.446-.201.568-.442.649-.925 1.216-1.367 1.865-.201.325-.362.649-.563.973-.04.041-.04.082-.04.122 0 .122.121.243.281.243.041 0 .081 0 .121-.04.201-.162.442-.243.683-.243.161 0 .362.04.523.121.04 0 .121.041.161.041h.08c.362-.162.603-.406.764-.771v-.081c-.322.162-.563.69-.884.69h-.041c-.281-.082-.522-.203-.804-.203 0 0-.04-.041-.04-.081 0-.041.081-.163.121-.203.482-.649.924-1.338 1.407-1.987.12-.162.201-.406.201-.608 0-.487-.322-.812-.804-.812-.724 0-1.126.893-1.206 1.501 0 .122.08.284.12.284.041-.041.041-.203.041-.162zm3.336 1.824v.365c0 .203.081.406.322.406.161 0 .201-.122.201-.243v-.163c.04-.243.04-.486.121-.73.04-.121.04-.162.16-.162.121 0 .242.041.402.041 0 0 .041-.041.041-.081v-.041c-.362-.203-.483-.162-.483-.324 0-.081.04-.162.081-.284.16-.608.402-1.176.522-1.784v-.163c0-.324-.522-.405-.965-.405-.241 0-.522.04-.764.121-.201.041-.281.163-.281.406 0 .243 0 .446.04.689 0 .041.081.041.081.081v-.081c0-.567-.041-.811.321-.892.201-.04.402-.081.603-.081.121 0 .402 0 .402.162a.76.76 0 01-.08.284c-.201.649-.362 1.298-.563 1.947-.04.202-.161.243-.362.243h-.321c-.041 0-.161 0-.161.041 0 .081.281.121.362.121h.201c.161 0 .201.122.201.284-.081.081-.081.162-.081.243zm23.035-1.824c0-.73.482-1.46 1.005-1.46.201 0 .442.081.442.243 0 .162-.121.446-.201.568-.442.649-.925 1.216-1.367 1.865-.201.325-.362.649-.563.973-.04.041-.04.081-.04.122 0 .122.121.243.281.243.041 0 .081 0 .121-.04.201-.162.442-.244.684-.244.16 0 .361.041.522.122.04 0 .121.041.161.041h.08c.362-.163.603-.406.764-.771v-.081c-.321.162-.563.689-.884.689h-.04c-.282-.081-.523-.202-.804-.202 0 0-.041-.041-.041-.081 0-.041.081-.163.121-.203.482-.649.925-1.338 1.407-1.987.121-.162.201-.406.201-.609 0-.486-.322-.811-.804-.811-.724 0-1.126.893-1.206 1.501 0 .122.08.284.121.284.04-.041.04-.203.04-.162zm3.216 2.595h.08c.201 0 .402-.122.603-.243.282-.203.402-.447.402-.73 0-.487-.241-.974-.482-1.339-.081-.081-.081-.162-.081-.243 0-.203.322-.77.322-1.095 0-.365-.362-.608-.724-.608-.241 0-.603.203-.603.486 0 .163.041.365.121.528.121.284.402.689.402.932 0 .041 0 .081-.04.163-.201.365-.362.77-.563 1.135a.662.662 0 00-.121.365c0 .365.282.649.684.649zm.563-.933c0 .365-.242.771-.724.771-.201 0-.362-.203-.362-.446 0-.082 0-.122.04-.203.201-.365.402-.771.603-1.136 0-.04.041-.04.041-.04.04 0 .04 0 .08.04.201.325.322.649.322 1.014zm.04-2.595c-.04.121-.121.649-.282.649-.12 0-.442-.771-.442-.933 0-.243.201-.243.282-.243.321 0 .442.243.442.527zm-84.101.933c0-.73.483-1.46 1.005-1.46.201 0 .443.081.443.243 0 .162-.121.446-.201.568-.443.649-.925 1.216-1.367 1.865-.201.325-.362.649-.563.973-.04.041-.04.081-.04.122 0 .122.12.243.281.243.04 0 .081 0 .121-.04.201-.162.442-.244.683-.244.161 0 .362.041.523.122.04 0 .12.041.161.041h.08c.362-.163.603-.406.764-.771v-.081c-.322.162-.563.689-.885.689h-.04c-.281-.081-.522-.202-.804-.202 0 0-.04-.041-.04-.081 0-.041.08-.163.121-.203.482-.649.924-1.338 1.407-1.987.12-.162.201-.406.201-.609 0-.486-.322-.811-.804-.811-.724 0-1.126.893-1.206 1.501 0 .122.08.284.12.284.04-.041.04-.203.04-.162zm2.694-.163c-.04.203-.04.365-.04.528 0 .162.08.283.201.283.201 0 .442-.446.764-.446.201 0 .402.163.402.365 0 .649-.161 1.217-.603 1.703-.081.082-.201.163-.282.163-.08 0-.12-.081-.12-.203 0-.284.16-.527.321-.771 0 0 0-.04-.04-.04h-.04a1.004 1.004 0 00-.362.77c0 .244.08.406.241.406h.121c.603-.162 1.005-1.095 1.005-1.784 0-.446-.201-.649-.643-.649-.121 0-.242 0-.322.081-.04 0-.08.04-.08.04-.041 0-.041 0-.041-.04 0-.203.121-.446.121-.649 0-.365.241-.568.523-.73.241-.122.482-.324.763-.324.161 0 .242.121.242.284 0 .121-.041.243-.041.364 0 .041 0 .041.041.041.16 0 .241-.284.241-.365 0-.284-.282-.487-.523-.487a.775.775 0 00-.402.122c-.321.162-.804.527-.965.527h-.12c-.04 0-.121.041-.121.122-.12.122-.161.405-.241.689zm24.924.163c0-.73.482-1.46 1.005-1.46.201 0 .442.081.442.243 0 .162-.121.446-.201.568-.442.649-.925 1.216-1.367 1.865-.201.325-.362.649-.563.973-.04.041-.04.082-.04.122 0 .122.121.243.281.243.041 0 .081 0 .121-.04.201-.162.442-.243.683-.243.161 0 .362.04.523.121.04 0 .121.041.161.041h.08c.362-.162.603-.406.764-.771v-.081c-.322.162-.563.69-.884.69h-.041c-.281-.082-.522-.203-.804-.203 0 0-.04-.041-.04-.081 0-.041.081-.163.121-.203.482-.649.924-1.338 1.407-1.987.12-.162.201-.406.201-.609 0-.486-.322-.811-.804-.811-.724 0-1.126.893-1.206 1.501 0 .122.08.284.12.284.041-.041.041-.203.041-.162zm2.653.811c0 .446.241 1.784 1.367 1.784.482 0 .804-.852.804-1.338 0-.487-.322-.852-.844-.852-.242 0-.443.081-.644.203-.04.04-.12.081-.16.121 0-.081-.041-.121-.041-.202v-.041c.041-.324.081-.649.161-.973.121-.406.282-1.014.724-1.014.563 0 .442 1.014.563 1.014.201-.041.16-.203.16-.325 0-.364-.201-.892-.643-.892-.402 0-.764.122-.965.528-.321.527-.482 1.094-.482 1.987zm.603.567c.121-.527.322-.851.724-.851.321 0 .723.284.723.73 0 .365-.362 1.135-.723 1.135-.081 0-.161-.04-.282-.121-.281-.203-.442-.487-.442-.893zm-56.481-1.378c0-.73.482-1.46 1.005-1.46.201 0 .442.081.442.243 0 .162-.12.446-.201.568-.442.649-.924 1.216-1.367 1.865-.201.325-.361.649-.562.973-.041.041-.041.082-.041.122 0 .122.121.243.282.243.04 0 .08 0 .12-.04.201-.162.443-.243.684-.243.161 0 .362.04.522.121.041 0 .121.041.161.041h.081c.361-.162.603-.406.763-.771v-.081c-.321.162-.562.69-.884.69h-.04c-.282-.082-.523-.203-.804-.203 0 0-.04-.041-.04-.081 0-.041.08-.163.12-.203.483-.649.925-1.338 1.407-1.987.121-.162.201-.406.201-.608 0-.487-.321-.812-.804-.812-.723 0-1.125.893-1.206 1.501 0 .122.081.284.121.284.04-.041.04-.203.04-.162zm3.297-1.339c0-.121.04-.324-.121-.405-.08 0-.121.162-.121.243-.08.689-.281 1.338-.522 2.028-.041.04-.041.081-.041.121 0 .041.041.082.161.082.241 0 .523-.041.804-.082.121 0 .201.041.201.203 0 .446-.08.933-.08 1.379 0 .162.08.365.281.365s.201-.284.201-.446c.041-.325.041-.649.121-.973l.241-1.095c0-.081.04-.163.04-.244 0-.162-.16-.446-.321-.446-.121 0-.121.122-.121.203-.08.203-.161.933-.402.933-.08 0-.201-.041-.281-.041-.161 0-.282.041-.362.041-.121 0-.161-.041-.161-.081 0-.081.04-.163.08-.365.121-.446.322-.852.403-1.42z" fill="#CBCCCD"/><path fill-rule="evenodd" clip-rule="evenodd" d="M234.412 8.151l-24.684 20.277 10.935 8.921 11.94 9.692h-15.317l-11.899-9.732-7.035-5.718L191.839 47h-11.538c-5.306 0-9.608-4.34-9.608-9.692h14.794l2.412-5.718h-21.748c-5.307 0-9.608-4.34-9.608-9.692h35.417l2.412-5.718H151.96c-5.307 0-9.608-4.34-9.608-9.693h59.175c2.573 0 4.784 2.028 4.905 4.623a4.38 4.38 0 01-.442 2.19l-3.618 8.557 19.658-16.14 1.688-1.379.242-.162a.986.986 0 00.281-.69c0-.567-.482-1.013-1.045-1.013h-.804l.683-2.555h19.216c.684 0 1.005.892.483 1.338l-8.362 6.894z" fill="#E1E2E1"/><path fill-rule="evenodd" clip-rule="evenodd" d="M108.141 68.25v3.001h-.362v-3h.362zm1.407 0h-1.447v.325h1.447v-.325zm.322 0v3.001h-.362v-3h.362zm1.608.811c.241 0 .442.041.563.122.16.081.241.203.321.365.081.162.081.365.081.649 0 .284-.041.487-.081.649-.08.162-.161.284-.321.365a1.16 1.16 0 01-.563.121c-.241 0-.442-.04-.563-.121-.161-.081-.241-.203-.322-.365-.08-.162-.08-.365-.08-.649 0-.284.04-.487.08-.649.081-.162.161-.284.322-.365.121-.08.322-.122.563-.122zm0 .325a.797.797 0 00-.362.081.415.415 0 00-.201.243c-.04.122-.04.284-.04.487s0 .365.04.487c.04.121.08.202.201.243.08.04.201.081.362.081.161 0 .281-.04.362-.081.08-.04.16-.122.201-.243.04-.122.04-.284.04-.487s0-.365-.04-.487c-.041-.121-.081-.202-.201-.243-.121-.04-.242-.081-.362-.081zm1.889-.243v2.108h-.362v-2.108h.362zm1.126.851h-1.166v.284h1.166v-.284zm.321-.851v2.108h-.361v-2.108h.361zm1.528-.082c.322 0 .523.041.684.163.12.121.201.284.201.527a.736.736 0 01-.121.446c-.08.122-.201.162-.362.162h-1.206v-.284h1.126c.08 0 .161-.04.161-.08a.37.37 0 00.04-.204c0-.121-.04-.243-.121-.283a.857.857 0 00-.402-.081.799.799 0 00-.362.08.418.418 0 00-.201.244c-.04.122-.04.284-.04.486 0 .244.04.406.08.528a.416.416 0 00.202.243c.08.04.241.081.402.081h.361c.121 0 .242-.04.362-.04l.04.243c-.08.04-.16.04-.241.081-.08 0-.201.04-.281.04h-.282c-.241 0-.442-.04-.563-.121-.16-.081-.241-.203-.321-.365-.081-.162-.081-.365-.081-.649 0-.284.041-.487.081-.649.08-.162.161-.284.321-.324.121-.203.282-.244.523-.244zm3.055.082v.284h-.723c-.161 0-.241.08-.241.243 0 .203-.041.405-.081.567a1.99 1.99 0 01-.161.528c-.08.162-.16.324-.281.486h-.322a2.19 2.19 0 00.282-.527c.08-.162.12-.365.161-.568.04-.202.04-.365.08-.567 0-.162.04-.284.161-.365.08-.081.201-.122.362-.122h.763v.04zm-1.608 2.108h-.281v.65h.241l.04-.65zm1.97-.284h-2.211v.284h2.211v-.284zm0 .284v.65h-.241l-.04-.65h.281zm-.281-2.108h-.362v2.108h.362v-2.108zm1.608-.082c.321 0 .522.041.683.163a.702.702 0 01.201.527c0 .203-.04.324-.12.446-.081.122-.201.162-.362.162h-1.206v-.284h1.125c.081 0 .161-.04.161-.08.04-.082.04-.122.04-.204 0-.121-.04-.243-.12-.283a.86.86 0 00-.402-.081.795.795 0 00-.362.08.415.415 0 00-.201.244c-.04.122-.04.284-.04.486 0 .244.04.406.08.528.04.121.121.203.201.243.081.04.241.081.402.081h.362c.121 0 .241-.04.362-.04l.04.243c-.08.04-.161.04-.241.081-.081 0-.201.04-.282.04h-.281c-.241 0-.442-.04-.563-.121-.161-.081-.241-.203-.321-.365-.081-.162-.081-.365-.081-.649 0-.284.04-.487.081-.649.08-.162.16-.284.321-.324.121-.203.282-.244.523-.244zm3.095.082v.284h-.764c-.08 0-.16 0-.201.04a.312.312 0 00-.08.203c0 .121-.04.243-.04.405 0 .122-.04.244-.081.406-.04.122-.04.243-.08.324a.647.647 0 01-.121.244c-.04.08-.12.121-.201.162-.08.04-.201.04-.281.04l-.04-.284c.08-.04.12-.04.201-.08.04-.041.08-.041.12-.082.041-.04.041-.08.081-.121.04-.081.04-.163.08-.244 0-.08.04-.203.04-.284 0-.08.041-.202.041-.283 0-.082 0-.163.04-.244 0-.162.08-.284.161-.365.08-.08.201-.121.402-.121h.723zm.081 0h-.362v2.108h.362v-2.108zm1.487.81c.201 0 .362.041.483.082.12.04.201.121.241.203.04.08.08.243.08.405 0 .162-.04.325-.08.406a.414.414 0 01-.241.202c-.121.04-.282.04-.443.04h-.884l.04-.283h.764c.121 0 .201 0 .281-.04.081-.041.121-.041.161-.122.04-.04.04-.122.04-.243 0-.082 0-.163-.04-.203l-.12-.122c-.081-.04-.161-.04-.282-.04h-.804v-.284h.804zm-.482-.81h-.362v2.108h.362v-2.108zm2.211 0v2.108h-.362v-2.108h.362zm1.125.851h-1.165v.284h1.165v-.284zm.322-.851v2.108h-.362v-2.108h.362zm2.492 0v2.108h-.321v-1.703c0 .04-.04.081-.081.122-.04.04-.04.08-.08.121l-1.045 1.46h-.282v-2.108h.322v1.703c.04-.04.04-.081.08-.122.041-.04.041-.08.081-.121l1.045-1.46h.281zm2.413 0c-.041.121-.081.243-.121.324-.04.122-.08.203-.121.284a.904.904 0 01-.12.203c-.04.04-.121.08-.161.121-.08.04-.161.04-.241.081.08 0 .161.041.241.081a.56.56 0 01.161.122c.04.04.12.122.161.203.04.081.08.203.12.284.04.121.081.243.161.405h-.362l-.12-.365a2.102 2.102 0 00-.121-.283c-.04-.082-.08-.122-.121-.203-.04-.04-.12-.081-.16-.122-.081-.04-.121-.04-.242-.04v-.284c.121 0 .201 0 .242-.04.08-.041.12-.082.201-.163.04-.081.12-.162.16-.284.041-.122.081-.243.161-.365h.282v.04zm-1.367 0v.851c0 .081-.04.122-.04.203 0 .081.04.122.04.203v.932h-.362v-2.108h.362v-.081zm.402.851h-.523v.284h.523v-.284zm7.236-1.784c.241 0 .442.04.563.081.161.04.241.122.321.243.081.122.081.284.081.487s-.04.365-.121.487c-.08.121-.201.162-.362.202.201.04.362.082.443.244.08.121.12.324.12.567 0 .203-.04.365-.08.487-.081.122-.161.203-.282.243a1.78 1.78 0 01-.522.081h-.764c-.121 0-.201 0-.322-.04l.04-.325h.965c.161 0 .282 0 .362-.04.081-.04.161-.081.201-.162.04-.081.04-.203.04-.325 0-.162 0-.284-.04-.365-.04-.08-.12-.162-.201-.162-.08-.04-.241-.04-.402-.04h-.925v-.284h.925c.161 0 .241 0 .322-.04.08-.041.161-.082.161-.163.04-.081.04-.162.04-.325 0-.121 0-.243-.04-.324-.041-.081-.121-.122-.201-.162-.081-.04-.201-.04-.362-.04h-.845l-.04-.325c.081 0 .201 0 .282-.04h.281c.081.04.201.04.362.04zm-.603.04h-.362v3.001h.362v-3zm3.136.893v2.108h-.362v-2.108h.362zm.763 0h-1.849v.324h1.849v-.324zm1.287-.082c.241 0 .442.041.563.122.16.081.241.203.321.365.081.162.081.365.081.649 0 .284-.041.487-.081.649-.08.162-.161.284-.321.365a1.16 1.16 0 01-.563.121c-.241 0-.442-.04-.563-.121-.161-.081-.241-.203-.322-.365-.08-.162-.08-.365-.08-.649 0-.284.04-.487.08-.649.081-.162.161-.284.322-.365.121-.08.322-.122.563-.122zm0 .325a.797.797 0 00-.362.081.415.415 0 00-.201.243c-.04.122-.04.284-.04.487s0 .365.04.487c.04.121.08.202.201.243.08.04.201.081.362.081.161 0 .281-.04.362-.081.08-.04.16-.122.201-.243.04-.122.04-.284.04-.487s0-.365-.04-.487c-.041-.121-.081-.202-.201-.243a.8.8 0 00-.362-.081zm2.733-.325c.242 0 .443.082.563.284.121.203.161.487.161.852 0 .284-.04.487-.08.649-.04.162-.161.284-.241.365a.808.808 0 01-.443.121c-.12 0-.281 0-.402-.04a2.739 2.739 0 01-.402-.162l.04-.203c.121.04.242.081.362.081.121.04.201.04.322.04.12 0 .201-.04.281-.08.081-.041.121-.122.161-.244.04-.121.04-.284.04-.487 0-.202 0-.364-.04-.486s-.08-.203-.161-.243a.576.576 0 00-.281-.081.754.754 0 00-.322.08c-.12.041-.241.122-.402.244l-.04-.243c.08-.081.161-.163.241-.203a.455.455 0 01.322-.122.636.636 0 01.321-.122zm-.884.082h-.281v3h.361v-2.514l-.04-.04-.04-.446zm2.533 0v2.108h-.362v-2.108h.362zm1.125.851h-1.165v.284h1.165v-.284zm.322-.851v2.108h-.362v-2.108h.362zm2.492 0v2.108h-.321v-1.703c0 .04-.04.081-.081.122-.04.04-.04.08-.08.121l-1.045 1.46h-.282v-2.108h.322v1.703c.04-.04.04-.081.08-.122.041-.04.041-.08.081-.121l1.045-1.46h.281zm2.412 0c-.04.121-.08.243-.12.324-.04.122-.081.203-.121.284a.904.904 0 01-.12.203c-.041.04-.121.08-.161.121-.081.04-.161.04-.241.081.08 0 .16.041.241.081.08.041.12.082.161.122.04.04.12.122.16.203.041.081.081.203.121.284.04.121.08.243.161.405h-.362a50.26 50.26 0 00-.121-.365 1.99 1.99 0 00-.12-.283c-.04-.082-.081-.122-.121-.203-.04-.04-.12-.081-.161-.122-.08-.04-.12-.04-.241-.04v-.284c.121 0 .201 0 .241-.04.081-.041.121-.082.201-.163.041-.081.121-.162.161-.284.04-.122.081-.243.161-.365h.281v.04zm-1.366 0v.851c0 .081-.041.122-.041.203 0 .081.041.122.041.203v.932h-.362v-2.108h.362v-.081zm.402.851h-.523v.284h.523v-.284zm13.025-1.784h.321a.51.51 0 01.242.04c.08 0 .16.041.241.041l-.04.284c-.081 0-.161 0-.242-.04h-.522a.716.716 0 00-.442.121.593.593 0 00-.242.365 3.358 3.358 0 000 1.46.593.593 0 00.242.365c.12.08.241.121.442.121h.442c.121 0 .241 0 .362-.04l.04.284c-.121.04-.241.04-.362.08-.12 0-.281.041-.482.041-.282 0-.523-.04-.684-.162a.918.918 0 01-.361-.486c-.081-.244-.121-.528-.121-.933 0-.365.04-.69.121-.933.08-.243.201-.405.361-.486.161-.082.402-.122.684-.122zm2.532.852c.242 0 .443.08.563.283.121.203.161.487.161.852 0 .284-.04.487-.08.649-.041.162-.161.284-.242.365a.803.803 0 01-.442.121c-.12 0-.281 0-.402-.04a2.739 2.739 0 01-.402-.162l.04-.203c.121.04.242.081.362.081a.88.88 0 00.322.04c.12 0 .201-.04.281-.08.081-.041.121-.122.161-.244.04-.121.04-.284.04-.487 0-.202 0-.364-.04-.486s-.08-.203-.161-.243a.576.576 0 00-.281-.081.754.754 0 00-.322.08c-.12.041-.241.122-.402.244l-.04-.243c.08-.081.161-.163.241-.203a.455.455 0 01.322-.122.636.636 0 01.321-.122zm-.884.08h-.281v3.002h.361v-2.515l-.04-.04-.04-.446zm3.055-.08c.322 0 .523.04.684.162.12.121.201.284.201.527a.73.73 0 01-.121.446c-.08.122-.201.162-.362.162h-1.206v-.284h1.126c.08 0 .161-.04.161-.08.04-.082.04-.122.04-.204 0-.121-.04-.243-.121-.283a.857.857 0 00-.402-.081c-.16 0-.281.04-.361.08a.411.411 0 00-.201.244c-.041.122-.041.284-.041.486 0 .244.04.406.081.528.04.121.12.203.201.243.08.04.241.081.402.081h.362c.12 0 .241-.04.361-.04l.041.243c-.081.04-.161.04-.242.081-.08 0-.201.04-.281.04h-.281c-.242 0-.443-.04-.563-.121-.161-.081-.242-.203-.322-.365-.08-.162-.08-.365-.08-.649 0-.284.04-.487.08-.649.08-.162.161-.284.322-.324.12-.203.281-.244.522-.244zm3.056.08v.285h-.724c-.161 0-.241.08-.241.243 0 .203-.04.405-.081.567-.04.203-.08.366-.16.528-.081.162-.161.324-.282.486h-.321a2.2 2.2 0 00.281-.527c.08-.162.121-.365.161-.568.04-.202.04-.365.08-.567 0-.162.04-.284.161-.365.08-.081.201-.122.362-.122h.764v.04zm-1.608 2.11h-.282v.648h.241l.041-.649zm1.929-.284h-2.211v.283h2.211v-.284zm0 .283v.65h-.241l-.04-.65h.281zm-.281-2.108h-.362v2.108h.362v-2.108zm1.769-.082c.16 0 .281.041.402.082.12.04.201.121.241.202.04.082.08.244.08.406v1.5h-.281l-.04-.446-.041-.04V69.75c0-.122-.04-.243-.08-.284-.04-.04-.161-.081-.322-.081h-.402c-.16 0-.321.04-.482.04l-.04-.283c.08 0 .201-.04.321-.04.121 0 .242-.041.362-.041.081.04.201 0 .282 0zm.562.893h-1.045a.718.718 0 00-.442.121c-.121.081-.161.203-.161.406v.243c0 .122.04.243.081.325.04.08.12.162.201.202a.75.75 0 00.321.081c.121 0 .201 0 .322-.04.08-.04.201-.081.281-.122a.861.861 0 00.201-.162c.04-.04.121-.081.121-.122v-.324c-.081.081-.161.162-.282.243-.12.081-.201.122-.321.122a.79.79 0 01-.282.04c-.12 0-.201-.04-.241-.08-.04-.041-.08-.122-.08-.244v-.122c0-.08.04-.162.08-.202a.306.306 0 01.201-.082h1.005l.04-.283zm13.428-1.704v1.136c0 .162.04.243.08.324.08.082.161.082.322.082.12 0 .201 0 .321-.041.081 0 .201-.04.282-.081.12-.04.201-.081.321-.162l.04.284c-.12.08-.241.162-.361.202l-.362.122c-.121.04-.241.04-.322.04-.241 0-.402-.04-.482-.162-.121-.121-.161-.284-.161-.527V68.25h.322zm1.688 0h-.362v3.001h.362v-3zm1.528.811c.321 0 .522.041.683.163a.702.702 0 01.201.527.73.73 0 01-.121.446c-.08.122-.201.162-.361.162h-1.206v-.284h1.125c.081 0 .161-.04.161-.08a.37.37 0 00.04-.204c0-.121-.04-.243-.12-.283a.86.86 0 00-.402-.081.795.795 0 00-.362.08.411.411 0 00-.201.244c-.04.122-.04.284-.04.486 0 .244.04.406.08.528.04.121.121.203.201.243.08.04.241.081.402.081h.362c.12 0 .241-.04.362-.04l.04.243c-.081.04-.161.04-.241.081-.081 0-.201.04-.282.04h-.281c-.241 0-.442-.04-.563-.121-.161-.081-.241-.203-.322-.365-.08-.162-.08-.365-.08-.649 0-.284.04-.487.08-.649.081-.162.161-.284.322-.324.121-.203.322-.244.523-.244zm2.251.082v2.108h-.362v-2.108h.362zm.764 0h-1.849v.324h1.849v-.324zm1.286-.04c.201 0 .402 0 .523.04.12.04.201.08.281.162.04.08.081.203.081.365 0 .162-.041.284-.121.324-.08.081-.201.122-.362.122.201 0 .322.081.402.162.081.081.121.243.121.406 0 .162-.04.243-.081.324-.04.081-.16.122-.281.162-.121.04-.281.04-.482.04h-.925l.04-.283h.844c.121 0 .242 0 .322-.04.08 0 .121-.041.161-.122.04-.04.04-.122.04-.203 0-.122-.04-.243-.121-.284a.857.857 0 00-.402-.081h-.844v-.284h.844c.121 0 .201 0 .282-.04.08 0 .12-.041.161-.082.04-.04.04-.121.04-.202 0-.081 0-.162-.04-.203-.041-.04-.081-.081-.161-.081-.081 0-.201-.04-.322-.04h-.764l-.04-.285h.483c.08.122.201.122.321.122zm-.482.04h-.322v2.108h.322v-2.108zm2.854-.082c.322 0 .523.041.683.163a.702.702 0 01.201.527c0 .203-.04.324-.12.446-.081.122-.201.162-.362.162h-1.206v-.284h1.126c.08 0 .16-.04.16-.08.041-.082.041-.122.041-.204 0-.121-.041-.243-.121-.283a.857.857 0 00-.402-.081.799.799 0 00-.362.08.415.415 0 00-.201.244c-.04.122-.04.284-.04.486 0 .244.04.406.08.528a.418.418 0 00.201.243c.081.04.242.081.402.081h.362c.121 0 .241-.04.362-.04l.04.243c-.08.04-.161.04-.241.081-.08 0-.201.04-.281.04h-.282c-.241 0-.442-.04-.563-.121-.16-.081-.241-.203-.321-.365-.081-.162-.081-.365-.081-.649 0-.284.041-.487.081-.649.08-.162.161-.284.321-.324.121-.203.282-.244.523-.244zm2.613 0c.241 0 .442.082.563.284.121.203.161.487.161.852 0 .284-.04.487-.081.649-.04.162-.16.284-.241.365a.803.803 0 01-.442.121c-.121 0-.282 0-.402-.04a2.743 2.743 0 01-.402-.162l.04-.203c.121.04.241.081.362.081.12.04.201.04.322.04.12 0 .201-.04.281-.08.08-.041.121-.122.161-.244.04-.121.04-.284.04-.487 0-.202 0-.364-.04-.486s-.081-.203-.161-.243a.576.576 0 00-.281-.081.75.75 0 00-.322.08c-.121.041-.241.122-.402.244l-.04-.243c.08-.081.16-.163.241-.203a.453.453 0 01.321-.122.642.642 0 01.322-.122zm-.884.082h-.282v3h.362v-2.514l-.04-.04-.04-.446zm2.653 0h.563c.201 0 .362 0 .522.04v.243h-.924a.304.304 0 00-.201.082c-.04.04-.04.121-.04.202v1.582h-.362v-1.663c0-.162.04-.284.12-.324.041-.162.161-.162.322-.162zm9.487-.893v3.001h-.361v-3h.361zm1.407 0h-1.447v.325h1.447v-.325zm.362 0v3.001h-.402v-3h.402zm1.407.852h.925l-.04.284h-.844a.797.797 0 00-.362.081c-.04.04-.081.162-.081.284 0 .162.041.243.081.324.04.081.161.081.362.081h.844v.284h-.885c-.08 0-.16 0-.241.04-.08.041-.12.082-.12.163l-.161.568h-.362l.201-.649c0-.081.04-.122.08-.162.041-.04.081-.081.161-.081.04 0 .121-.04.161-.04a.573.573 0 01-.281-.082c-.081-.04-.121-.122-.161-.203-.04-.08-.04-.162-.04-.284 0-.08 0-.202.04-.283a.89.89 0 01.12-.203.661.661 0 01.242-.122c.08.04.201 0 .361 0zm.925.04h-.362v2.11h.362v-2.11zm1.568 0v2.11h-.362v-2.11h.362zm.723 0h-1.849v.325h1.849v-.324zm.804 0v2.11h-.361v-2.11h.361zm1.126.852h-1.166v.284h1.166v-.284zm.322-.851v2.108h-.362v-2.108h.362zm2.492 0v2.108h-.321v-1.703c0 .04-.041.081-.081.122-.04.04-.04.08-.08.121l-1.045 1.46h-.282v-2.108h.322v1.703c.04-.04.04-.081.08-.122.04-.04.04-.08.081-.121l1.045-1.46h.281zm1.045 0v2.108h-.361v-2.108h.361zm1.689 1.825h-1.689v.283h1.689v-.284zm-.282-1.825v2.108h-.361v-2.108h.361zm.282 2.108v.65h-.241l-.041-.65h.282zm1.487-2.19c.161 0 .282.041.402.082a.41.41 0 01.241.202c.041.082.081.244.081.406v1.5h-.282l-.04-.446-.04-.04V69.75c0-.122-.04-.243-.08-.284-.041-.04-.161-.081-.322-.081h-.402c-.161 0-.322.04-.482.04l-.041-.283c.081 0 .201-.04.322-.04s.241-.041.362-.041c.04.04.161 0 .281 0zm.523.893h-1.045a.72.72 0 00-.443.121c-.12.081-.16.203-.16.406v.243c0 .122.04.243.08.325a.49.49 0 00.201.202c.08.04.201.081.322.081.12 0 .201 0 .321-.04.081-.04.201-.081.282-.122.08-.04.16-.121.201-.162.04-.04.12-.081.12-.122v-.324c-.08.081-.161.162-.281.243-.121.081-.201.122-.322.122-.12.04-.201.04-.281.04-.121 0-.201-.04-.241-.08-.041-.041-.081-.122-.081-.244v-.122c0-.08.04-.162.081-.202.04-.04.12-.082.201-.082h1.005l.04-.283zm12.342-1.744h.321a.51.51 0 01.241.04c.081 0 .161.041.242.041l-.041.284c-.08 0-.16 0-.241-.04h-.522a.72.72 0 00-.443.121.592.592 0 00-.241.365 3.06 3.06 0 00-.08.73c0 .324.04.527.08.73.04.162.121.284.241.365a.72.72 0 00.443.121h.442c.12 0 .241 0 .362-.04l.04.284c-.121.04-.241.04-.362.08-.121 0-.281.041-.482.041-.282 0-.523-.04-.684-.162a.92.92 0 01-.362-.486c-.08-.244-.12-.528-.12-.933 0-.365.04-.69.12-.933.081-.243.201-.405.362-.486.161-.081.402-.122.684-.122zm3.135.933l-.844 2.23c-.04.081-.04.122-.08.203-.041.08-.081.162-.121.243-.04.081-.121.122-.161.203-.12.081-.241.121-.362.162h-.402l.041-.243h.281a.56.56 0 00.241-.081l.161-.163.121-.243.12-.243c.04-.04.04-.122.081-.203.04-.081.04-.122.08-.203l.563-1.581h.281v-.081zm-1.688 0h-.402l.764 2.027c0 .04.04.04.04.081 0 .04.04.04.08.04h.121l.12-.283h-.08c0-.04-.04-.081-.04-.122 0-.04-.04-.08-.04-.121l-.563-1.622zm3.819-1.095l.08.284-.241.121c-.08.04-.161.04-.201.081-.08 0-.121.04-.201.04-.08 0-.161.041-.241.041-.161.041-.241.082-.322.163-.08.08-.12.162-.161.243a.76.76 0 00-.08.284c0 .08 0 .121-.04.203v.121c.04-.04.04-.121.08-.162.04-.04.081-.122.121-.162a.66.66 0 01.241-.122c.08-.04.201-.04.322-.04.201 0 .361.04.482.121a.501.501 0 01.241.325c.041.162.081.365.081.608s-.04.406-.081.568a.643.643 0 01-.281.365c-.121.08-.322.121-.603.121a1.43 1.43 0 01-.442-.08c-.121-.041-.201-.122-.282-.204a.667.667 0 01-.161-.283c-.04-.122-.04-.244-.08-.365v-.446c0-.244 0-.447.04-.609 0-.162.04-.324.121-.486a.627.627 0 01.241-.325c.121-.08.241-.162.402-.203.08-.04.161-.04.241-.08.081 0 .161-.041.241-.041.081 0 .161-.04.242-.081.08.08.161.04.241 0zm-.764 1.46c-.161 0-.281.04-.402.08a.275.275 0 00-.161.244c-.04.122-.04.243-.04.406 0 .202 0 .365.04.446.04.121.081.202.201.243.081.04.201.081.322.081a.75.75 0 00.321-.081.273.273 0 00.161-.243c.04-.122.041-.284.041-.447 0-.202-.001-.324-.041-.445-.04-.122-.08-.163-.161-.203 0-.04-.12-.081-.281-.081zm3.176-1.46l.08.284-.241.121c-.08.04-.161.04-.201.081-.08 0-.12.04-.201.04-.08 0-.161.041-.241.041-.161.041-.241.082-.322.163-.08.08-.12.162-.16.243a.743.743 0 00-.081.284c0 .08 0 .121-.04.203v.121c.04-.04.04-.121.08-.162.041-.04.081-.122.121-.162a.655.655 0 01.241-.122c.081-.04.201-.04.322-.04.201 0 .362.04.482.121a.501.501 0 01.241.325c.041.162.081.365.081.608s-.04.406-.081.568a.643.643 0 01-.281.365c-.121.08-.322.121-.603.121a1.43 1.43 0 01-.442-.08c-.121-.041-.201-.122-.282-.204a.656.656 0 01-.16-.283c-.041-.122-.041-.244-.081-.365v-.446c0-.244 0-.447.04-.609 0-.162.041-.324.121-.486a.632.632 0 01.241-.325c.121-.08.241-.162.402-.203.081-.04.161-.04.241-.08.081 0 .161-.041.242-.041.08 0 .16-.04.241-.081.08.08.161.04.241 0zm-.724 1.46c-.16 0-.281.04-.402.08a.274.274 0 00-.16.244c-.041.122-.041.243-.041.406 0 .202 0 .365.041.446.04.121.08.202.201.243a.75.75 0 00.321.081c.121 0 .241-.04.322-.081a.275.275 0 00.161-.243c.04-.122.04-.284.04-.447 0-.202 0-.324-.04-.445-.041-.122-.081-.163-.161-.203-.04-.04-.121-.081-.282-.081zm2.372-.447c.241 0 .442.041.563.122.161.081.241.203.322.365.08.162.08.365.08.649 0 .284-.04.487-.08.649-.081.162-.161.284-.322.365a1.16 1.16 0 01-.563.121c-.241 0-.442-.04-.563-.121-.16-.081-.241-.203-.321-.365-.081-.162-.081-.365-.081-.649 0-.284.041-.487.081-.649.08-.162.161-.284.321-.365a1.16 1.16 0 01.563-.122zm0 .325a.8.8 0 00-.362.081.419.419 0 00-.201.243c-.04.122-.04.284-.04.487s0 .365.04.487c.041.121.081.202.201.243.081.04.201.081.362.081a.79.79 0 00.362-.081.415.415 0 00.201-.243c.04-.122.04-.284.04-.487s0-.365-.04-.487c-.04-.121-.08-.202-.201-.243a.797.797 0 00-.362-.081zm2.412-.243v2.108h-.362v-2.108h.362zm.764 0h-1.849v.324h1.849v-.324zm1.407-.082c.161 0 .282.041.402.082a.41.41 0 01.241.202c.041.082.081.244.081.406v1.5h-.282l-.04-.446-.04-.04V69.75c0-.122-.04-.243-.08-.284-.041-.04-.161-.081-.322-.081h-.402c-.161 0-.322.04-.483.04l-.04-.283c.081 0 .201-.04.322-.04s.241-.041.362-.041c.08.04.201 0 .281 0zm.563.893h-1.045a.72.72 0 00-.443.121c-.12.081-.16.203-.16.406v.243c0 .122.04.243.08.325a.49.49 0 00.201.202c.081.04.201.081.322.081.12 0 .201 0 .321-.04.081-.04.201-.081.282-.122a.885.885 0 00.201-.162c.04-.04.12-.081.12-.122v-.324c-.08.081-.16.162-.281.243-.121.081-.201.122-.322.122-.12.04-.201.04-.281.04-.121 0-.201-.04-.241-.08a.348.348 0 01-.081-.244v-.122c0-.08.041-.162.081-.202.04-.04.12-.082.201-.082h1.005l.04-.283zm12.261-1.744c.241 0 .442.04.563.081.161.04.241.122.322.243.08.122.08.284.08.487s-.04.365-.121.487c-.08.121-.201.162-.361.202.201.04.361.082.442.244.08.121.12.324.12.567 0 .203-.04.365-.08.487-.08.122-.161.203-.281.243-.121.04-.322.081-.523.081h-.764c-.12 0-.201 0-.321-.04l.04-.325h.965c.16 0 .281 0 .361-.04.081-.04.161-.081.201-.162.041-.081.041-.203.041-.325 0-.162 0-.284-.041-.365-.04-.08-.12-.162-.201-.162-.08-.04-.241-.04-.402-.04h-.964v-.284h.924c.161 0 .241 0 .322-.04.08-.041.161-.082.161-.163.04-.081.04-.162.04-.325 0-.121 0-.243-.04-.324-.041-.081-.121-.122-.201-.162-.081-.04-.201-.04-.362-.04h-.844l-.041-.325c.081 0 .201 0 .282-.04h.281c.121.04.241.04.402.04zm-.603.04h-.362v3.001h.362v-3zm3.136.811c.241 0 .442.041.563.122.161.081.241.203.321.365.081.162.081.365.081.649 0 .284-.04.487-.081.649-.08.162-.16.284-.321.365a1.16 1.16 0 01-.563.121c-.241 0-.442-.04-.563-.121-.161-.081-.241-.203-.322-.365-.08-.162-.08-.365-.08-.649 0-.284.04-.487.08-.649.081-.162.161-.284.322-.365.121-.08.322-.122.563-.122zm0 .325a.797.797 0 00-.362.081.415.415 0 00-.201.243c-.04.122-.04.284-.04.487s0 .365.04.487c.04.121.08.202.201.243.08.04.201.081.362.081.161 0 .281-.04.362-.081a.415.415 0 00.201-.243c.04-.122.04-.284.04-.487s0-.365-.04-.487c-.04-.121-.081-.202-.201-.243-.121-.04-.242-.081-.362-.081zm2.412-.325h.201a.5.5 0 01.241.041c.081 0 .161.04.241.081l-.04.243h-.563c-.16 0-.281.041-.402.082a.419.419 0 00-.201.243 1.532 1.532 0 000 .973.419.419 0 00.201.243.997.997 0 00.402.082h.402c.081 0 .161 0 .242-.04l.04.242c-.121.04-.201.081-.322.081-.12 0-.241.041-.362.041-.241 0-.442-.04-.562-.122-.161-.08-.242-.202-.322-.365-.08-.162-.08-.365-.08-.648 0-.284.04-.487.08-.65.08-.161.161-.283.322-.364.04-.122.241-.163.482-.163zm2.935.082c-.041.121-.081.243-.121.324-.04.122-.08.203-.121.284a.904.904 0 01-.12.203c-.04.04-.121.08-.161.121-.08.04-.161.04-.241.081.08 0 .161.041.241.081.08.041.121.082.161.122.04.04.12.122.161.203.04.081.08.203.12.284.04.121.081.243.161.405h-.362l-.12-.365a2.102 2.102 0 00-.121-.283c-.04-.082-.08-.122-.121-.203-.04-.04-.12-.081-.16-.122-.081-.04-.121-.04-.242-.04v-.284c.121 0 .201 0 .242-.04.08-.041.12-.082.201-.163.04-.081.12-.162.16-.284.041-.122.081-.243.161-.365h.282v.04zm-1.367 0v.851c0 .081-.04.122-.04.203 0 .081.04.122.04.203v.932h-.362v-2.108h.362v-.081zm.402.851h-.523v.284h.523v-.284zm2.693-.933c.241 0 .442.082.563.284.121.203.161.487.161.852 0 .284-.04.487-.081.649-.04.162-.16.284-.241.365a.803.803 0 01-.442.121c-.121 0-.281 0-.402-.04a2.743 2.743 0 01-.402-.162l.04-.203c.121.04.241.081.362.081.121.04.201.04.322.04.12 0 .201-.04.281-.08.08-.041.121-.122.161-.244.04-.121.04-.284.04-.487 0-.202 0-.364-.04-.486s-.081-.203-.161-.243a.576.576 0 00-.281-.081.75.75 0 00-.322.08c-.121.041-.241.122-.402.244l-.04-.243c.08-.081.161-.163.241-.203a.454.454 0 01.322-.122.636.636 0 01.321-.122zm-.884.082h-.282v3h.362v-2.514l-.04-.04-.04-.446zm3.055-.082c.322 0 .523.041.684.163.12.121.201.284.201.527a.736.736 0 01-.121.446c-.08.122-.201.162-.362.162h-1.206v-.284h1.126c.08 0 .161-.04.161-.08.04-.082.04-.122.04-.204 0-.121-.04-.243-.121-.283a.857.857 0 00-.402-.081.799.799 0 00-.362.08.419.419 0 00-.201.244c-.04.122-.04.284-.04.486 0 .244.04.406.081.528.04.121.12.203.201.243a1 1 0 00.402.081h.361c.121 0 .242-.04.362-.04l.04.243c-.08.04-.16.04-.241.081-.08 0-.201.04-.281.04h-.282c-.241 0-.442-.04-.562-.121-.161-.081-.242-.203-.322-.365-.081-.162-.081-.365-.081-.649 0-.284.041-.487.081-.649.08-.162.161-.284.322-.324.12-.203.281-.244.522-.244zm2.332 0h.201a.5.5 0 01.241.041c.08 0 .161.04.241.081l-.04.243h-.563c-.161 0-.281.041-.402.082a.415.415 0 00-.201.243 1.532 1.532 0 000 .973c.04.122.121.203.201.243a.993.993 0 00.402.082h.402c.081 0 .161 0 .241-.04l.041.242c-.121.04-.201.081-.322.081s-.241.041-.362.041c-.241 0-.442-.04-.563-.122-.16-.08-.241-.202-.321-.365-.081-.162-.081-.365-.081-.648 0-.284.041-.487.081-.65.08-.161.161-.283.321-.364.041-.122.242-.163.483-.163zm2.01 0c.321 0 .522.041.683.163a.702.702 0 01.201.527c0 .203-.04.324-.12.446-.081.122-.201.162-.362.162h-1.206v-.284h1.125c.081 0 .161-.04.161-.08.04-.082.04-.122.04-.204 0-.121-.04-.243-.12-.283a.86.86 0 00-.402-.081.795.795 0 00-.362.08.415.415 0 00-.201.244c-.04.122-.04.284-.04.486 0 .244.04.406.08.528.04.121.121.203.201.243.081.04.241.081.402.081h.362c.121 0 .241-.04.362-.04l.04.243c-.08.04-.161.04-.241.081-.081 0-.201.04-.282.04h-.281c-.241 0-.442-.04-.563-.121-.161-.081-.241-.203-.321-.365-.081-.162-.081-.365-.081-.649 0-.284.04-.487.081-.649.08-.162.16-.284.321-.324.121-.203.322-.244.523-.244zm1.809.082v2.108h-.362v-2.108h.362zm1.126.851h-1.166v.284h1.166v-.284zm.321-.851v2.108h-.362v-2.108h.362zm1.528.81c.201 0 .362.041.482.082a.41.41 0 01.241.203c.041.08.081.243.081.405 0 .162-.04.325-.081.406a.41.41 0 01-.241.202c-.12.04-.281.04-.442.04h-.884l.04-.283h.764c.12 0 .201 0 .281-.04.08-.041.121-.041.161-.122.04-.04.04-.122.04-.243 0-.082 0-.163-.04-.203l-.121-.122c-.08-.04-.161-.04-.281-.04h-.804v-.284h.804zm-.483-.81h-.361v2.108h.361v-2.108zm2.694-.082c.321 0 .522.041.683.163a.702.702 0 01.201.527c0 .203-.04.324-.12.446-.081.122-.201.162-.362.162h-1.206v-.284h1.125c.081 0 .161-.04.161-.08.04-.082.04-.122.04-.204 0-.121-.04-.243-.12-.283a.86.86 0 00-.402-.081.795.795 0 00-.362.08.415.415 0 00-.201.244c-.04.122-.04.284-.04.486 0 .244.04.406.08.528.04.121.121.203.201.243.081.04.241.081.402.081h.362c.121 0 .241-.04.362-.04l.04.243c-.08.04-.161.04-.241.081-.081 0-.201.04-.282.04h-.281c-.241 0-.442-.04-.563-.121-.161-.081-.241-.203-.321-.365-.081-.162-.081-.365-.081-.649 0-.284.04-.487.081-.649.08-.162.16-.284.321-.324.121-.203.282-.244.523-.244z" fill="#CBCCCD"/><path fill-rule="evenodd" clip-rule="evenodd" d="M104.604 113.142c.442 1.501.844 3.975.804 6.854-.04 2.879-.523 6.123-.804 8.151a247.282 247.282 0 00-.523 3.366c-.04.568 0 .932.442 1.703.443.771 1.327 1.906 2.855 3.001 1.527 1.095 3.738 2.19 5.628 2.595 1.889.406 3.497.203 4.864-.446s2.493-1.703 3.096-2.798c.603-1.095.603-2.23.562-3.528-.08-1.298-.241-2.717-.321-4.745-.04-2.027 0-4.623.08-7.137.081-2.514.161-4.907.04-6.002-.08-1.095-.361-.933-1.929-.933s-4.503-.202-6.834-.729c-2.332-.528-4.02-1.42-5.669-2.109-1.648-.69-3.256-1.217-3.859-1.176-.603.04-.201.689.241 1.257.402.649.885 1.176 1.327 2.676z" fill="#FFAF69"/><path fill-rule="evenodd" clip-rule="evenodd" d="M140.985 185.489c.804 4.055 1.769 11.314 2.653 15.896.925 4.542 1.769 6.408 2.814 7.3 1.005.933 2.171.933 6.955.933 4.784 0 13.146 0 21.347-.244 8.161-.243 16.12-.77 20.02-1.378 3.899-.609 3.739-1.379 3.095-2.555-.643-1.176-1.809-2.798-2.934-3.934-1.126-1.135-2.211-1.784-4.061-2.474-1.809-.649-4.382-1.338-6.995-1.906-2.613-.608-5.306-1.095-9.527-1.784-4.181-.649-9.89-1.46-12.905-1.947-3.015-.486-3.377-.608-3.738-.973-.362-.365-.724-.973-1.006-3.366-.281-2.433-.522-6.691-.964-9.124-.483-2.433-1.206-3.001-2.975-3.528-1.769-.527-4.623-.973-7.437-.973-2.814-.041-5.588.324-6.634 1.135-1.045.811-.402 2.068.242 3.082.562.973 1.246 1.784 2.05 5.84z" fill="#FF9E69"/><path fill-rule="evenodd" clip-rule="evenodd" d="M133.629 163.266c-.764-3.569-2.533-7.867-3.9-11.882-1.367-4.056-2.412-7.867-.884-10.868 1.527-2.961 5.628-5.11 8.12-6.164 2.493-1.055 3.418-1.055 4.865-.406 1.447.649 3.417 1.987 5.105 3.853 1.729 1.865 3.176 4.298 4.503 7.542 1.367 3.245 2.573 7.3 3.698 12.937 1.126 5.677 2.171 12.936 2.814 17.478.644 4.542.965 6.286 1.086 7.178.161.892.161.892-1.327 1.216-1.487.325-4.422.974-7.638 1.501-3.216.487-6.673.811-8.804.973-2.131.162-2.935.162-3.578-.486-.643-.649-1.166-1.947-1.769-4.299-.603-2.352-1.246-5.759-1.487-8.922-.201-3.163-.04-6.083-.804-9.651z" fill="#5DC94C"/><path fill-rule="evenodd" clip-rule="evenodd" d="M100.824 128.796c.402.284.724.892 1.247 1.541.522.649 1.286 1.379 1.809 2.109.522.77.844 1.541 2.01 2.23 1.165.689 3.176 1.217 4.944 1.014 1.809-.244 3.377-1.257 5.106-1.663 1.729-.446 3.618-.324 4.502-.933.925-.648.845-2.027 1.568-2.879.724-.851 2.211-1.135 3.659-1.135 1.447 0 2.854.284 4.944.892 2.051.608 4.744 1.46 6.714 2.19 1.97.73 3.216 1.257 3.819 1.541.603.284.603.284 1.487 4.014.845 3.731 2.573 11.152 3.618 17.316 1.046 6.164 1.407 10.99 1.005 15.289-.402 4.258-1.567 7.948-2.291 13.017-.724 5.11-1.045 11.598-1.005 17.276.04 5.677.402 10.503.603 13.058.201 2.555.201 2.839-1.246 3.041-1.407.203-4.262.244-12.422.203-8.161-.04-21.669-.203-30.473-.122-8.804.082-12.985.365-15.276.528-2.291.162-2.734.162-2.935-.203-.2-.325-.12-.973.161-2.271.241-1.298.683-3.204 1.769-6.732 1.085-3.528 2.854-8.678 4.261-13.18 1.407-4.501 2.533-8.313 2.774-15.207.241-6.894-.322-16.789-.08-24.007.24-7.219 1.367-11.679 1.005-14.356-.362-2.676-2.171-3.487-3.257-4.745-1.085-1.257-1.487-2.879.402-4.298 1.89-1.379 6.03-2.514 8.362-3.123 2.332-.608 2.814-.689 3.216-.405z" fill="#4AAB3C"/><path fill-rule="evenodd" clip-rule="evenodd" d="M99.617 128.309c-.362.487-.362.487.161 1.622.563 1.136 1.648 3.407 3.337 5.678 1.688 2.271 3.98 4.542 5.507 6.042 1.528 1.501 2.252 2.19 2.935 2.393.724.202 1.407-.081 2.09-1.501.684-1.419 1.327-3.893 1.729-5.474.402-1.541.603-2.109.804-2.393.201-.284.402-.243.925.406.522.608 1.326 1.824 2.331 3.163 1.046 1.297 2.332 2.717 3.096 3.447.764.73 1.005.811 1.286.648.282-.162.563-.527.925-1.459.362-.974.764-2.515 1.327-4.502.603-2.027 1.366-4.501 1.728-5.758.402-1.257.402-1.257.121-1.663-.282-.405-.804-1.257-2.01-2.433-1.166-1.136-2.975-2.595-3.86-3.285-.884-.73-.884-.73-1.206.487-.321 1.216-.964 3.609-1.688 5.353-.683 1.743-1.407 2.838-2.452 3.406-1.046.527-2.412.527-4.382-.933-1.97-1.459-4.583-4.42-5.87-6.164-1.286-1.743-1.206-2.311-1.366-2.473-.121-.163-.443.081-1.086.649a32.272 32.272 0 00-2.412 2.392c-.844.811-1.608 1.825-1.97 2.352z" fill="#5DC94C"/><path fill-rule="evenodd" clip-rule="evenodd" d="M99.738 179.73c-.563-.73-1.407-1.703-2.13-2.392-.725-.69-1.368-1.095-2.654-1.257-1.286-.163-3.256-.041-5.427.405-2.171.406-4.543 1.176-6.352 2.271-1.809 1.095-3.055 2.555-3.658 3.325-.603.73-.603.73 0 3.326.643 2.595 1.93 7.786 3.377 12.49 1.487 4.745 3.135 9.003 4.341 11.436 1.166 2.474 1.89 3.122 2.493 3.569.603.446 1.166.648 2.05.729.884.041 2.09-.04 7.075-.851 4.985-.771 13.789-2.271 20.101-3.488 6.311-1.216 10.131-2.19 12.261-2.717 2.131-.527 2.533-.649 3.015-.527.523.122 1.126.446 2.292.73s2.814.487 4.341.487c1.528-.041 2.855-.284 4.181-.811 1.327-.528 2.654-1.339 3.417-1.663.764-.324 1.046-.122 1.126 1.135.08 1.258 0 3.569.322 4.826.321 1.257 1.005 1.501 1.527 1.501.523 0 .845-.163 1.086-1.095.241-.933.402-2.555.402-4.299 0-1.703-.081-3.487-.081-4.42 0-.973.161-1.095.402-1.095.201 0 .523.162.724.811.201.649.362 1.825.523 3.163.16 1.338.361 2.839.643 3.772.321.973.764 1.378 1.246 1.216.523-.162 1.085-.933 1.367-2.271.281-1.338.241-3.244.201-4.745-.04-1.5-.121-2.554-.04-3.082.08-.527.281-.486.522.609.241 1.054.483 3.163.643 4.542.161 1.378.242 2.108.523 2.514.282.405.804.568 1.287.487.482-.082.964-.365 1.206-1.014.241-.649.241-1.622.16-3.163-.08-1.501-.281-3.528-.361-4.826-.081-1.298-.041-1.906.361-1.987.402-.081 1.126.324 1.769.973.684.649 1.287 1.582 1.648 2.677.362 1.094.402 2.352.523 3.284.121.974.241 1.622.603 1.866.362.243.965.04 1.327-.446.402-.528.563-1.379.522-3.082-.04-1.744-.361-4.339-.522-5.88-.161-1.501-.241-1.947-1.85-3.001-1.608-1.055-4.743-2.758-6.633-3.65-1.889-.892-2.452-.973-3.176-.973-.683 0-1.487.081-4.623.932-3.135.852-8.643 2.515-13.065 3.447-4.382.933-7.678 1.095-13.709 1.257-6.03.163-14.753.325-19.175.365-4.423.041-4.503-.04-4.624-2.352-.12-2.311-.321-6.894-.562-9.367-.081-2.555-.362-3.001-.965-3.691z" fill="#FFAF69"/><path fill-rule="evenodd" clip-rule="evenodd" d="M80.24 188.084c.322 1.338.644 2.433.764 3.001l.161.568.523.081c.522.081 1.567.243 3.457.243s4.623-.203 7.035-.568c2.452-.365 4.623-.892 6.07-1.378 1.448-.487 2.171-.933 2.533-1.176l.362-.244-.081-1.014c-.08-1.013-.201-3.041-.281-4.055l-.08-1.014h-2.09c-2.091.041-6.232.081-9.649.081-3.457 0-6.191-.081-7.719-.121-1.527-.041-1.849 0-2.01 0-.16.04-.2.081-.2.121 0 .082-.04.203-.04.365 0 .163.04.406.24 1.258.282.932.684 2.514 1.005 3.852z" fill="#FF9E69"/><path fill-rule="evenodd" clip-rule="evenodd" d="M102.634 166.307c-.483-4.015-1.206-10.341-2.091-15.653-.884-5.313-1.97-9.571-3.377-12.693-1.407-3.123-3.175-5.11-4.14-6.083-.965-.973-1.086-.933-1.166-.892-.08.04-.12.04-1.608.608s-4.503 1.703-6.754 3.366c-2.251 1.663-3.779 3.934-5.065 6.732-1.287 2.798-2.372 6.164-2.975 11.273-.603 5.11-.764 12.004-.844 17.073-.08 5.11-.08 8.395-.08 10.219 0 1.825.04 2.19.884 2.758.844.608 2.492 1.46 5.065 1.987 2.533.527 5.99.771 10.05.771 4.06.04 8.684-.163 11.015-.203 2.332-.081 2.372-.041 2.412-.203.041-.162.081-.527 0-2.514-.04-1.987-.201-5.515-.402-8.192-.201-2.595-.442-4.298-.924-8.354z" fill="#4AAB3C"/><path fill-rule="evenodd" clip-rule="evenodd" d="M105.327 115.778a8.83 8.83 0 001.809 2.434c.885.851 2.131 1.703 3.699 2.311 1.568.608 3.417.973 4.945 1.095 1.567.122 2.773-.04 3.658-.203.844-.162 1.326-.405 1.568-.608.241-.203.241-.406.281-1.135 0-.69.04-1.906.08-2.636v-1.176c0-.163 0-.163-1.085-.325s-3.296-.487-5.105-.811c-1.81-.324-3.297-.649-4.985-.933-1.689-.243-3.659-.446-4.704-.77-1.045-.325-1.246-.771-1.206-.69.04.082.241.771.442 1.42.161.649.282 1.297.603 2.027z" fill="#FF9E69"/><path fill-rule="evenodd" clip-rule="evenodd" d="M91.94 54.179c-1.488-.609-2.815-1.055-4.624-.77-1.81.283-4.06 1.256-5.467 2.838-1.367 1.581-1.89 3.771-1.97 5.393-.08 1.622.2 2.717-.08 3.569-.282.892-1.166 1.541-2.815 2.636-1.688 1.095-4.14 2.595-5.547 4.055-1.407 1.46-1.729 2.88-1.608 4.38.12 1.5.683 3.082 1.366 4.217.724 1.136 1.568 1.785 1.81 2.92.24 1.136-.161 2.717-1.046 3.974-.884 1.298-2.291 2.271-3.377 3.731-1.085 1.46-1.89 3.366-2.25 5.353-.322 2.028-.162 4.137.843 5.678 1.046 1.541 2.935 2.514 4.382 3.406 1.447.892 2.453 1.703 2.935 3.325.482 1.622.442 4.056 1.206 6.124.764 2.068 2.372 3.812 4.221 4.826 1.85 1.054 4.02 1.378 5.588 1.176 1.568-.244 2.533-1.055 3.055-1.947.563-.933.684-1.987 1.045-2.879.322-.892.845-1.703 1.448-2.028.603-.324 1.246-.243 2.17-.04.885.202 2.01.486 3.176.324a5.461 5.461 0 003.217-1.703c.844-.933 1.326-2.231 1.407-3.447.08-1.176-.201-2.271-.242-3.325-.04-1.055.242-2.028.603-3.204.402-1.136.925-2.393 1.247-4.177.321-1.784.442-4.096.321-6.65a51.453 51.453 0 00-1.085-8.233c-.603-2.798-1.488-5.515-1.809-8.151-.322-2.636-.12-5.19-.161-7.705-.04-2.555-.362-5.07-.965-7.016-.603-1.946-1.487-3.285-2.774-4.298-1.166-1.055-2.774-1.785-4.22-2.352z" fill="#080902"/><path fill-rule="evenodd" clip-rule="evenodd" d="M94.391 100.652c.845 1.379 1.81 3.934 3.136 6.124 1.327 2.189 2.935 3.974 5.267 5.515 2.331 1.541 5.346 2.757 8.241 3.69 2.894.933 5.668 1.5 7.799 1.622 2.13.122 3.618-.284 6.07-1.419 2.452-1.176 5.91-3.123 7.92-5.637 2.01-2.555 2.573-5.677 3.176-8.841.562-3.122 1.165-6.245 1.768-9.489.644-3.244 1.287-6.61 1.608-8.475.322-1.866.282-2.23-.442-4.056-.723-1.825-2.171-5.11-4.1-8.719-1.97-3.609-4.422-7.583-7.397-9.935-2.975-2.352-6.432-3.041-9.729-3.041-3.296 0-6.392.689-9.447 2.352-3.096 1.662-6.151 4.258-9.005 6.731-2.854 2.474-5.468 4.826-7.437 6.367-1.97 1.541-3.216 2.23-4.704 3.204-1.487.973-3.135 2.27-3.739 5.19-.603 2.92-.12 7.422.804 10.301.925 2.88 2.332 4.096 3.74 4.947 1.406.852 2.813 1.38 3.899 1.704 1.045.365 1.728.527 2.572 1.865z" fill="#FFAF69"/><path fill-rule="evenodd" clip-rule="evenodd" d="M139.859 79.93c-.201-.65-.845-1.339-1.809-1.987-.965-.65-2.332-1.217-3.94-1.541-1.608-.325-3.498-.365-4.623-.203-1.126.121-1.528.446-1.809.852-.282.405-.483.892-.442 1.297 0 .406.201.69.723.811.523.122 1.367.081 2.332 0 .965-.08 2.09-.162 3.417.244 1.286.405 2.774 1.297 3.779 1.784 1.045.446 1.648.487 2.05.203.362-.284.563-.811.322-1.46z" fill="#211F17"/><path fill-rule="evenodd" clip-rule="evenodd" d="M82.854 83.012c.281.932.281 1.013.562.527.282-.487.845-1.5 1.93-2.19s2.653-1.014 3.98-.852c1.367.162 2.492.77 3.337 1.055.884.283 1.487.202 3.9-.487 2.411-.69 6.552-2.028 10.532-4.947 3.939-2.92 7.678-7.422 9.849-10.22 2.131-2.798 2.694-3.852 3.055-4.46.081-.122.161-.244.242-.325.281-.04.402 0 .643.162.482.325 1.447.933 3.055 2.23 1.608 1.258 3.819 3.164 5.668 5.07 1.89 1.906 3.417 3.812 4.704 5.92 1.246 2.11 2.251 4.38 3.015 6.124.764 1.744 1.367 2.92 2.613 2.88 1.246-.041 3.216-1.339 4.422-3.407 1.246-2.028 1.729-4.826 1.648-7.665-.08-2.838-.723-5.718-2.05-8.03-1.327-2.31-3.256-4.055-4.342-5.677-1.608-2.433-3.055-8.15-6.633-10.868-2.613-1.987-6.151-3.122-9.728-3.325-3.578-.203-6.111.203-7.92.933a35.54 35.54 0 00-8.563.567c-4.221.812-8.402 2.393-11.94 4.583-3.577 2.19-6.512 5.028-8.643 8.07-2.13 3.041-3.377 6.286-4.02 9.61-.643 3.326-.643 6.692-.362 9.287.242 2.677.804 4.502 1.046 5.435z" fill="#080902"/><path fill-rule="evenodd" clip-rule="evenodd" d="M121.327 85.486c0-.163.121-.284.282-.284.16 0 .281.121.281.284 0 1.581 0 3.203.523 4.663.482 1.42 1.487 2.758 2.211 3.69l.08.082c.362.486.643.851.844 1.175.201.365.322.69.322 1.014 0 .325-.081.65-.241.974a3.586 3.586 0 01-.644.892c-.241.243-.522.405-.804.567a3.224 3.224 0 01-1.005.325 3.858 3.858 0 01-.924.122h-.885a.276.276 0 01-.281-.284c0-.163.121-.284.281-.284h.845c.281 0 .562-.04.844-.122.281-.08.603-.162.884-.284a3.99 3.99 0 00.684-.446 2.79 2.79 0 00.522-.69c.121-.242.161-.486.161-.688 0-.244-.08-.447-.241-.73-.161-.325-.442-.65-.804-1.136l-.081-.081c-.723-.973-1.768-2.352-2.291-3.853-.563-1.622-.563-3.244-.563-4.906z" fill="#F46F2D"/><path fill-rule="evenodd" clip-rule="evenodd" d="M110.592 104.343c.482.892 1.367 2.433 2.412 3.528 1.005 1.135 2.131 1.865 3.256 2.311 1.086.446 2.171.649 3.216.608 1.046-.04 2.091-.283 3.257-1.094 1.166-.812 2.452-2.231 3.216-3.407a9.245 9.245 0 001.206-2.676c.161-.568.161-.73.04-.811-.121-.082-.442-.082-2.573-.082-2.171 0-6.151-.04-8.884-.121-2.734-.081-4.221-.203-4.945-.203-.724.041-.724.203-.683.446-.041.284 0 .608.482 1.501z" fill="#211F17"/><path fill-rule="evenodd" clip-rule="evenodd" d="M120.443 102.72c-.724 0-2.091-.04-3.337-.081-1.246-.04-2.372-.081-3.256-.081-.844-.04-1.447-.04-1.729-.081-.281 0-.281 0-.281.041 0 .081 0 .202.201.608a6.842 6.842 0 001.045 1.825c.523.649 1.287 1.257 2.372 1.5 1.085.284 2.573.203 3.98.203 1.447 0 2.854 0 3.698-.081.804-.041 1.046-.203 1.206-.487.161-.324.322-.811.443-1.379.12-.608.241-1.297.281-1.622.04-.365.04-.365-.563-.365h-4.06z" fill="#fff"/><path fill-rule="evenodd" clip-rule="evenodd" d="M103.277 80.254c.281-.608.964-1.257 2.01-1.784 1.045-.527 2.452-.974 4.1-1.095 1.648-.122 3.538.04 4.623.284 1.126.243 1.447.608 1.689 1.054.241.446.361.933.321 1.338-.04.406-.281.69-.804.73-.522.081-1.367-.08-2.331-.243-.965-.162-2.091-.365-3.417-.122-1.327.284-2.895 1.014-3.94 1.339-1.086.324-1.689.283-2.05-.041-.362-.284-.483-.852-.201-1.46zm5.547 12.206c1.649 0 2.975-1.784 2.975-4.014 0-2.19-1.326-4.015-2.975-4.015-1.648 0-2.974 1.785-2.974 4.015 0 2.23 1.326 4.015 2.974 4.015zm22.473-.527c1.608 0 2.894-1.703 2.894-3.812 0-2.108-1.286-3.812-2.894-3.812s-2.895 1.704-2.895 3.812c0 2.109 1.287 3.812 2.895 3.812z" fill="#211F17"/><path d="M328 215.944H0V223h328v-7.056z" fill="#CBCCCD"/><path d="M241.648 212.294H136.643v3.65h105.005v-3.65z" fill="#141515"/><path fill-rule="evenodd" clip-rule="evenodd" d="M172.945 212.294h68.704l27.98-58.923-71.719-1.095-24.965 60.018z" fill="#E1E2E1"/><path fill-rule="evenodd" clip-rule="evenodd" d="M197.91 152.276l71.719 1.095-3.056-1.541-70.311-1.42 1.648 1.866zm-.001 0l-24.965 60.018h-2.573l25.89-61.884 1.648 1.866z" fill="#141515"/><path fill-rule="evenodd" clip-rule="evenodd" d="M117.628 50.731c.764-.567 2.332-1.297 4.503-1.5 2.171-.203 4.904.122 6.914 1.014s3.297 2.352 4.02 3.852c.724 1.46.925 2.96.965 4.218.081 1.257.04 2.352.563 3.447.523 1.095 1.568 2.23 2.573 2.96s2.01 1.014 2.734 1.744c.763.73 1.246 1.865 1.567 3.082.282 1.217.362 2.514.161 3.69-.201 1.176-.683 2.312-1.085 3.65-.402 1.338-.724 2.92-1.045 3.366-.282.446-.563-.324-.563-1.541 0-1.257.201-3.041.08-4.704-.161-1.663-.643-3.244-1.648-4.461-.965-1.217-2.452-2.068-3.658-2.88-1.206-.81-2.211-1.58-3.015-2.19-.804-.607-1.407-1.013-1.85-1.946-.402-.892-.643-2.311-.964-3.69-.362-1.379-.804-2.758-1.407-3.69-.604-.974-1.327-1.5-2.372-1.906-1.046-.406-2.372-.608-3.377-.568a4.456 4.456 0 00-2.05.568c-.443.203-.764.365-.965.284-.201-.081-.322-.406-.402-.69-.081-.284-.161-.486-.242-.77-.08-.406-.201-.77.563-1.339z" fill="#211F17"/><path fill-rule="evenodd" clip-rule="evenodd" d="M81.77 73.441c-.241-.892-.322-2.433.2-3.69.564-1.257 1.77-2.23 2.734-2.717.965-.487 1.77-.487 2.493-.77.724-.285 1.407-.812 1.93-1.704.482-.892.804-2.109 1.366-3.406.563-1.339 1.407-2.758 2.493-4.096 1.085-1.339 2.372-2.596 3.98-3.204 1.608-.608 3.497-.608 4.944-.486 1.448.121 2.493.405 3.779.324 1.327-.081 2.935-.487 3.98-.973 1.045-.487 1.568-1.095 2.493-1.42.924-.324 2.291-.405 3.176-.243.884.162 1.326.527 1.608.933.281.405.402.77.522 1.014.121.243.201.364-.04.405-.241.04-.804.081-1.608.081-.804.04-1.809.04-2.734.527-.924.446-1.769 1.339-2.894 2.028-1.126.69-2.493 1.217-3.98 1.176-1.487-.04-3.096-.608-4.503-.892-1.407-.244-2.653-.203-3.899.365-1.246.568-2.493 1.581-3.417 3.366-.965 1.784-1.608 4.258-2.251 5.92-.644 1.663-1.247 2.515-2.211 3.001-.965.487-2.212.65-3.176.892-.965.244-1.608.609-2.09 1.177-.443.567-.724 1.297-.966 1.946-.281.649-.562 1.176-.884 1.379-.442.162-.804-.081-1.045-.933zm1.727 3.934a5.185 5.185 0 002.05 1.825c1.005.568 2.412.933 3.377 1.176.965.243 1.527.405 2.331.852.805.446 1.77 1.216 2.855 1.622 1.085.405 2.251.446 3.578-.244 1.326-.69 2.854-2.108 4.1-3.284 1.246-1.177 2.251-2.069 3.699-2.92 1.447-.852 3.296-1.663 4.784-2.433 1.487-.771 2.613-1.5 3.778-2.758 1.166-1.257 2.332-3.001 3.016-4.582.723-1.582.964-2.92 1.407-3.813.442-.892 1.085-1.297 1.206-1.703.12-.405-.242-.73-.764-.77-.523 0-1.166.324-1.809 1.054-.603.73-1.206 1.866-2.131 3.407-.925 1.54-2.211 3.447-3.457 4.744-1.246 1.298-2.452 1.947-3.699 2.271-1.246.325-2.573.325-3.779.77-1.206.447-2.291 1.339-3.256 2.556-.965 1.216-1.809 2.757-2.492 3.812-.684 1.054-1.246 1.581-2.09 1.622-.885.04-2.091-.365-3.136-.933-1.046-.568-1.97-1.298-2.734-1.784-.764-.487-1.367-.69-2.13-.811-.765-.122-1.609-.163-2.292-.487-.643-.324-1.086-.892-1.608-1.298-.523-.405-1.046-.649-1.287-.486-.24.162-.16.73-.08 1.216.12.446.2.811.563 1.379z" fill="#211F17"/><path fill-rule="evenodd" clip-rule="evenodd" d="M86.673 83.417c-.16.284-.362.568-.402.892-.04.365.04.812-.08 1.704-.121.892-.443 2.19-.684 3.609-.241 1.42-.442 2.96-.482 4.015-.04 1.054.04 1.662.522 2.473.483.77 1.287 1.744 2.694 2.069 1.407.324 3.377 0 4.743-.73 1.407-.73 2.212-1.906 2.815-3.163.602-1.258.924-2.636 1.004-4.177.04-1.541-.2-3.245-.884-4.623-.683-1.38-1.769-2.434-2.894-3.042-1.126-.608-2.211-.77-3.176-.649-.965.081-1.77.406-2.292.73-.522.243-.723.568-.884.892z" fill="#B1B1B1"/><path fill-rule="evenodd" clip-rule="evenodd" d="M88.523 82.16c3.538-.284 6.633 2.92 6.915 7.137.28 4.218-2.332 7.908-5.87 8.192-3.537.284-6.633-2.92-6.914-7.137-.282-4.218 2.331-7.868 5.869-8.192z" fill="#E1E2E1"/><path fill-rule="evenodd" clip-rule="evenodd" d="M108.543 45.865c1.327-.202 2.613-.284 3.739-.365 1.126-.04 2.09-.04 2.573-.04.482 0 .482 0 .603-.04l.603-.203.603-.203c.12-.04.12-.04-.483-.122-.603-.081-1.809-.284-3.336-.405a27.68 27.68 0 00-5.709.121c-2.251.244-4.904.811-7.115 1.704-2.252.892-4.1 2.108-6.272 4.298-2.17 2.23-4.623 5.434-6.311 9.165-1.689 3.73-2.573 7.948-2.734 11.923-.16 3.974.402 7.705.724 9.57.281 1.865.281 1.865.402 1.784.12-.08.362-.202.723-.365.362-.162.764-.324 1.005-.365.201-.08.201-.08-.08-2.676-.322-2.596-.925-7.827.241-13.099 1.166-5.271 4.14-10.584 7.236-13.91 3.096-3.325 6.352-4.703 8.644-5.514 2.291-.811 3.658-1.055 4.944-1.258z" fill="#E1E2E1"/><path fill-rule="evenodd" clip-rule="evenodd" d="M138.252 89.825c.201-.974.442-2.23.563-2.84.121-.608.121-.608.121-.648 0-.04.04-.122.16.365.161.527.443 1.622.402 2.96 0 1.338-.281 2.92-.764 4.096-.482 1.176-1.125 1.906-1.407 2.271l-.321.365.12-.69c.121-.689.402-2.067.603-3.122.201-1.095.322-1.784.523-2.757z" fill="#B1B1B1"/><path fill-rule="evenodd" clip-rule="evenodd" d="M138.653 95.015c-.041 1.38-.161 4.056-.523 6.489s-1.005 4.623-2.493 6.204c-1.487 1.582-3.859 2.474-5.748 2.961-1.89.486-3.257.567-3.94.567-.683 0-.683-.121-.683-.324s0-.487.12-.649c.121-.162.402-.203 1.568-.486 1.206-.284 3.337-.771 4.864-1.42 1.488-.608 2.332-1.297 3.056-2.311.723-1.014 1.367-2.271 1.769-4.015.402-1.744.562-3.893.643-4.988.08-1.095.08-1.095.161-1.338.08-.284.241-.811.402-1.217.16-.405.321-.69.442-.851.12-.163.201-.203.281-.163 0 .04.081.163.081 1.541z" fill="#E1E2E1"/><path fill-rule="evenodd" clip-rule="evenodd" d="M125.266 107.708c2.05-.162 3.698 1.014 3.698 2.596 0 1.581-1.648 3.001-3.698 3.122-2.051.162-3.699-1.014-3.699-2.595-.04-1.582 1.648-3.001 3.699-3.123z" fill="#3F3D2E"/></g><defs><clipPath id="clip0_38_14181"><path fill="#fff" d="M0 0h328v223H0z"/></clipPath></defs></svg>