<svg width="282" height="258" fill="none" xmlns="http://www.w3.org/2000/svg"><path fill-rule="evenodd" clip-rule="evenodd" d="M171.562 209.202c14.129-1.246-25.486 2.402 10.508 2.402 35.993 0 98.993 7.073 98.993 15.836 0 4.359-10.999 8.318-28.794 11.165 4.158 1.557 6.438 3.292 6.438 5.071 0 7.251-37.156 13.122-83.031 13.122-32.506 0-60.63-2.935-74.268-7.25-2.906.044-5.813.089-8.764.089C41.45 249.637 0 241.141 0 230.598c0-20.996 147.999-23.843 171.562-21.396z" fill="#CBCCCD"/><path d="M251.867 13.701H105.701v170.414h146.166V13.701z" fill="#4AAB3C"/><path d="M248.245 23.71H110.978v153.376h137.267V23.709z" fill="#3F3D2E"/><path fill-rule="evenodd" clip-rule="evenodd" d="M248.245 23.71H110.978l26.291 54.002h84.104l26.872-54.003z" fill="#5F5D4D"/><path fill-rule="evenodd" clip-rule="evenodd" d="M248.243 23.71l-26.872 54.002v77.533l26.872 21.841V23.709zm-137.265 0l26.291 54.002v77.533l-26.291 21.841V23.709z" fill="#6A6856"/><path fill-rule="evenodd" clip-rule="evenodd" d="M110.978 177.086h137.267l-26.872-21.841h-84.104l-26.291 21.841z" fill="#211F17"/><path fill-rule="evenodd" clip-rule="evenodd" d="M279.274 189.319L277.664 0l-27.141 21.218V179.4l28.751 9.92z" fill="#6A6856"/><path fill-rule="evenodd" clip-rule="evenodd" d="M272.12 8.229l-19.405 15.213.223 9.92 4.427-2.491.089 2.58 14.979-9.609-.313-15.613zm-14.486 31.939l-4.024 2.447V97.55l22.446-6.005-.984-65.924-17.482 11.076.044 3.47zm12.073 56.137l-15.918 4.315v57.16h4.695v3.915l11.312 1.69-.089-67.08zm6.751-1.69l-4.605 1.245.089 67.836 4.739.979-.223-70.06zm-17.974 71.839l-5.097-.489.044 11.032 19.495 5.338.313-16.459-14.755-2.135v2.713z" fill="#E1E2E1"/><path fill-rule="evenodd" clip-rule="evenodd" d="M154.749 184.114h-44.98l.044 5.739c.045 5.738.179 17.259.269 22.997.044 5.738.044 5.738.626 5.827.581.089 1.743.267 6.259.579 4.516.356 12.43.889 18.556.756 6.126-.134 10.463-.979 13.101-1.69 2.593-.757 3.487-1.379 4.024-1.78.536-.4.805-.489 2.862-.445 2.056.089 5.902.356 9.031.49 3.13.133 5.5.089 6.707.044 1.208 0 1.208 0 1.878.178.671.223 2.057.623 3.89.801 1.834.222 4.203.222 5.679 0 1.475-.223 2.101-.623 2.414-.801.313-.222.358-.222 2.683-.133 2.325.044 6.93.178 10.06 0 3.13-.178 4.829-.623 5.679-.845.849-.223.849-.223 1.833.222 1.028.445 3.041 1.29 6.931 1.913 3.89.622 9.702 1.023 16.096 1.067 6.394.045 13.459-.267 16.991-.489 3.532-.178 3.577-.222 3.577-.267v-5.694c0-5.694-.045-17.126-.09-22.819v-5.694h-32.684c-16.768.044-42.254.044-61.436.044z" fill="#36342B"/><path fill-rule="evenodd" clip-rule="evenodd" d="M113.213 229.887h8.585a2.209 2.209 0 002.236-2.224v-25.711a2.208 2.208 0 00-2.236-2.224h-8.585a2.207 2.207 0 00-2.235 2.224v25.755c0 1.201.983 2.18 2.235 2.18zm15.025 0h8.584a2.209 2.209 0 002.236-2.224v-25.711a2.208 2.208 0 00-2.236-2.224h-8.584a2.208 2.208 0 00-2.236 2.224v25.755c0 1.201 1.028 2.18 2.236 2.18zm93.134 0h8.585a2.209 2.209 0 002.236-2.224v-25.711a2.208 2.208 0 00-2.236-2.224h-8.585a2.207 2.207 0 00-2.235 2.224v25.755c0 1.201.983 2.18 2.235 2.18zm15.024 0h8.63a2.209 2.209 0 002.236-2.224v-25.711a2.208 2.208 0 00-2.236-2.224h-8.585a2.207 2.207 0 00-2.235 2.224v25.755c-.045 1.201.983 2.18 2.19 2.18z" fill="#403E32"/><path d="M206.394 184.114h-53.878v7.874h53.878v-7.874z" fill="#36342B"/><path fill-rule="evenodd" clip-rule="evenodd" d="M125.105 184.114h-15.337l-.089 3.07c-.09 3.069-.268 9.207-.313 12.321-.09 3.114-.09 3.248-.09 3.336v.045h4.963c4.964 0 14.934.044 19.898.089h4.963l1.252-.534a458.712 458.712 0 005.052-2.224c1.297-.534 1.297-.534 1.342-.534h11.178c11.178 0 33.489-.044 44.623-.089h11.178l1.341.623c1.342.623 4.069 1.913 5.411 2.536l1.341.622 4.516.045 18.064.178 4.516.044v-3.247c0-3.247-.045-9.742-.045-13.033v-3.248h-40.018v1.29c0 1.29.045 3.915.09 5.249v1.29h-58.887c-.044 0-.044 0-.044-.089v-1.601c0-1.29.044-3.737.089-4.938v-1.201h-24.994z" fill="#3F3D2E"/><path d="M152.29 192.121h-35.904v7.607h35.904v-7.607zm89.605-.134h-36.977v6.851h36.977v-6.851z" fill="#FDE742"/><path d="M146.703 192.121h-5.767v7.607h5.767v-7.607zm71.228-.134h-6.215v6.851h6.215v-6.851z" fill="#E1E2E1"/><path fill-rule="evenodd" clip-rule="evenodd" d="M272.12 8.229l-19.405 15.213.223 9.92 1.163-.668-.268-8.674 18.332-14.145-.045-1.646zm-14.664 25.222l-.09-2.58 1.118.045.045 1.823-1.073.712zM253.61 97.55l1.342-.355-.403-53.869 4.293-2.535-.179-4.805-1.073.712.044 3.47-4.024 2.446V97.55zm.179 60.23v-57.16l15.918-4.315v.89l-14.532 3.825-.134 56.004h4.561v4.137l10.194 1.557v.667l-11.312-1.69v-3.915h-4.695zm4.694 5.961l1.252.178v2.001l-1.252.534v-2.713zm-4.247 2.269l-.849-.045.044 11.032 19.495 5.338.045-1.423-18.69-4.938-.045-9.964zm17.617-70.15v6.317l.089 61.519 4.739.979v-.979l-3.442-.622-.671-66.458 3.89-1.023v-.978l-4.605 1.245zm-13.189-59.873l.045 1.156 16.409-10.453-.044-1.068-16.41 10.365zM277.663 0l3.175.222L282 189.007l-2.772.312L277.663 0z" fill="#101E25"/><path fill-rule="evenodd" clip-rule="evenodd" d="M78.74 189.319L80.35 0l27.14 21.218V179.4l-28.75 9.92z" fill="#6A6856"/><path fill-rule="evenodd" clip-rule="evenodd" d="M85.894 8.229l19.405 15.213-.223 9.92-4.427-2.491-.089 2.58-14.979-9.609.313-15.613zm14.489 31.939l4.024 2.447V97.55l-22.446-6.005.984-65.924 17.482 11.076-.044 3.47zM88.306 96.305l15.918 4.315v57.16h-4.695v3.915l-11.312 1.69.09-67.08zm-6.751-1.69l4.605 1.245-.09 67.836-4.739.979.224-70.06zm17.977 71.839l5.098-.489-.045 11.032-19.495 5.338-.313-16.459 14.755-2.135v2.713z" fill="#E1E2E1"/><path fill-rule="evenodd" clip-rule="evenodd" d="M85.892 8.229l19.406 15.213-.224 9.92-1.162-.668.268-8.674L85.848 9.875l.044-1.646zm14.666 25.222l.09-2.58-1.118.045-.045 1.823 1.073.712zm3.847 64.099l-1.341-.355.402-53.869-4.292-2.535.134-4.805 1.118.712-.045 3.47 4.024 2.446V97.55zm-.181 60.23v-57.16l-15.918-4.315v.89l14.532 3.825.134 56.004h-4.56v4.137l-10.195 1.557v.667l11.312-1.69v-3.915h4.695zm-4.694 5.961l-1.252.178v2.001l1.252.534v-2.713zm4.25 2.269l.85-.045-.045 11.032-19.494 5.338-.045-1.423 18.69-4.938.044-9.964zM86.16 95.86v6.317l-.09 61.519-4.739.979v-.979l3.443-.622.67-66.458-3.89-1.023v-.978l4.606 1.245z" fill="#101E25"/><path fill-rule="evenodd" clip-rule="evenodd" d="M99.307 35.987v1.156L82.897 26.69l.045-1.068 16.365 10.365zM80.349 0l-3.175.222-1.162 188.785 2.772.312L80.349 0z" fill="#101E25"/><path fill-rule="evenodd" clip-rule="evenodd" d="M164.498 122.951l4.426 31.493-16.543 1.246-.671-32.028 12.788-.711z" fill="#DBB158"/><path fill-rule="evenodd" clip-rule="evenodd" d="M164.497 122.95l-12.787.712-7.602-2.313 15.292-.622 5.097 2.223z" fill="#FBD16B"/><path fill-rule="evenodd" clip-rule="evenodd" d="M151.71 123.662l-7.602-2.313 1.118 32.562 7.154 1.779-.67-32.028z" fill="#F8E49C"/><path fill-rule="evenodd" clip-rule="evenodd" d="M181.444 122.105l.045.934.179 22.775 18.064 9.03-.09-30.426-18.198-2.313z" fill="#DBB158"/><path fill-rule="evenodd" clip-rule="evenodd" d="M199.731 154.844l-.089-30.426 22.669-2.402-.09 23.709-22.49 9.119z" fill="#F7CE66"/><path fill-rule="evenodd" clip-rule="evenodd" d="M199.642 124.417l22.67-2.402-18.064-1.423-22.804 1.512 18.198 2.313z" fill="#F8E49C"/><path fill-rule="evenodd" clip-rule="evenodd" d="M196.556 141.232l-2.28 18.55-18.824 2.891.09-19.261 21.014-2.18z" fill="#DBB158"/><path fill-rule="evenodd" clip-rule="evenodd" d="M175.542 143.413l-.089 19.261-13.638-6.673-.044-16.191 13.771 3.603z" fill="#FBD16B"/><path fill-rule="evenodd" clip-rule="evenodd" d="M161.771 139.809l23.116-1.023 11.67 2.447-21.015 2.179-13.771-3.603z" fill="#F8E49C"/><path fill-rule="evenodd" clip-rule="evenodd" d="M211.626 145.459l-22.714-2.225.134 19.439 22.401 3.603.179-20.817z" fill="#F7CE66"/><path fill-rule="evenodd" clip-rule="evenodd" d="M211.626 145.458l-22.714-2.224 15.739-4.315 19.092 1.913-12.117 4.626z" fill="#F8E49C"/><path fill-rule="evenodd" clip-rule="evenodd" d="M223.743 140.833l-12.117 4.626-.179 20.818 11.983-7.384.313-17.883v-.177z" fill="#DBA757"/><path fill-rule="evenodd" clip-rule="evenodd" d="M127.342 144.035l33.266-.489.045 19.661-32.864.49-.447-19.662z" fill="#F7CE66"/><path fill-rule="evenodd" clip-rule="evenodd" d="M160.608 143.545l-33.266.489 3.622-3.691 28.392-.267 1.252 3.469z" fill="#F8E49C"/><path fill-rule="evenodd" clip-rule="evenodd" d="M157.927 91.412l.402 31.049 41.493.845.179-33.095-42.074 1.201z" fill="#DBB158"/><path fill-rule="evenodd" clip-rule="evenodd" d="M200.002 90.21l-.179 33.096 2.057-1.557.045-29.136-1.923-2.402zm-44 51.334l-.179-19.128 31.836-.089-.179 18.816-31.478.401z" fill="#F7CE66"/><path fill-rule="evenodd" clip-rule="evenodd" d="M187.659 122.327l-31.836.089 1.968-1.156 27.9-.045 1.968 1.112z" fill="#F8E49C"/><path fill-rule="evenodd" clip-rule="evenodd" d="M211.175 139.587l3.04.311-13.414 4.493-3.04-.267 13.414-4.537z" fill="#F9F9F9"/><path fill-rule="evenodd" clip-rule="evenodd" d="M197.718 164.053l3.085.489v-20.151l-3.041-.266-.044 19.928zm-22.759-51.022l.179-22.064 4.695-.133v22.197h-4.874zm36.665 25.088l2.056-.489-.268-14.679-2.101.222.313 14.946zm-9.748-16.37v-.355l11.536 1.556-2.101.222-9.569-1.334.134-.089zm-54.639 15.124l1.386.445-.179-14.679-1.341-.356.134 14.59z" fill="#F9F9F9"/><path fill-rule="evenodd" clip-rule="evenodd" d="M156.939 121.794l-.805.445-7.69.4-1.341-.356 9.836-.489zm13.995.578h2.325v13.3h-2.281l-.044-13.3zm0 0h2.325l-.358-1.157h-1.967v1.157zm-.802 19.617l-1.476-.401-.223 17.66 1.386.667.313-17.926z" fill="#F9F9F9"/><path fill-rule="evenodd" clip-rule="evenodd" d="M171.741 141.366l6.976-.089-8.585.712-1.476-.4 3.085-.223zm15.379.845l-1.743.178-.09 18.772 1.789-.267.044-18.683z" fill="#F9F9F9"/><path fill-rule="evenodd" clip-rule="evenodd" d="M181.845 141.233l2.012-.045 3.264 1.023-1.744.178-3.532-1.156zm-21.999.267l.224.622-31.388.534.626-.623 30.538-.533z" fill="#F9F9F9"/><path d="M132.528 146.047l-1.049 4.278 6.428 1.561 1.05-4.277-6.429-1.562zm32.326-20.606h-6.349v3.869h6.349v-3.869z" fill="#F9F9F9"/><path fill-rule="evenodd" clip-rule="evenodd" d="M209.076 148.216l-5.545-.623v3.647l5.545.578v-3.602z" fill="#F9F9F9"/><path fill-rule="evenodd" clip-rule="evenodd" d="M216.634 165.432c-.984-.045-2.325-.089-3.353-.134-1.029-.044-1.699-.089-2.325-.177-.626-.089-1.208-.134-1.521-.223-.357-.044-.447-.089-.536-.133-.09-.045-.134-.089-.134-.089v1.289l.491.089c.492.089 1.521.312 3.488.579 1.967.222 4.874.489 7.825.533a84.596 84.596 0 008.003-.267c2.102-.177 3.354-.4 4.024-.533.671-.134.761-.223.761-.267.044-.045.044-.045.044-.267v-.889c0-.223 0-.223-.044-.223a.483.483 0 01-.224.134c-.134.044-.358.089-.626.178-.313.044-.671.088-1.297.177-.581.045-1.43.134-2.235.178-.805.045-1.565.089-2.459.134-.895.044-1.878.044-2.862.089-1.028 0-2.057.044-2.862.044h-2.012c-.581-.178-1.207-.178-2.146-.222z" fill="#141515"/><path fill-rule="evenodd" clip-rule="evenodd" d="M221.015 165.52c6.797 0 12.341-.4 12.341-.889 0-.49-5.544-.89-12.341-.89-6.796 0-12.34.4-12.34.89 0 .489 5.544.889 12.34.889z" fill="#080902"/><path fill-rule="evenodd" clip-rule="evenodd" d="M210.641 83.272c-.313.133-.313.133-.76 2.313-.447 2.135-1.342 6.45-1.789 8.674-.447 2.18-.447 2.269-.402 2.313 0 .045 0 .045.134.09.134.044.402.177 1.028.355.671.178 1.699.445 4.337.578 2.638.134 6.797.178 10.284.09 3.488-.09 6.26-.312 7.914-.49 1.61-.178 2.102-.356 2.37-.445l.224-.089-.268-2.268-1.074-9.075c-.268-2.268-.268-2.268-.447-2.313-.179-.089-.536-.222-1.431-.356a40.2 40.2 0 00-4.337-.4c-2.056-.09-4.829-.178-7.332-.09-2.504.09-4.74.268-6.126.535-1.431.178-2.057.444-2.325.578z" fill="#FDE742"/><path fill-rule="evenodd" clip-rule="evenodd" d="M215.65 95.95a108.93 108.93 0 00-3.801.222c-1.207.09-2.235.178-2.772.223-.536.044-.626.089-.402.222.223.09.76.267 1.565.4.805.134 1.878.223 3.085.312 1.207.044 2.549.089 3.979.133 1.386.045 2.862.045 4.695 0 1.789-.044 3.98-.133 5.768-.222 1.789-.09 3.309-.267 4.203-.356.939-.089 1.297-.178 1.431-.267.134-.089.089-.133-.134-.222-.224-.09-.626-.134-1.878-.222a117.793 117.793 0 00-5.5-.223c-2.191-.044-4.561-.044-6.26-.044-1.743-.045-2.772 0-3.979.044z" fill="#080902"/><path fill-rule="evenodd" clip-rule="evenodd" d="M221.416 126.954v-29.67l.134-.089a4.2 4.2 0 00.582-.489c.179-.222.313-.534.357-.712l.045-.133h-3.264c-.089 0-.089 0-.089.089.044.089.089.311.223.534.134.222.358.4.537.533.179.134.268.178.313.178l.044.045v67.436h1.074v-6.628c.044-6.628.044-19.884.044-31.094z" fill="#141515"/><path fill-rule="evenodd" clip-rule="evenodd" d="M155.331 163.697l8.808.178-.715-16.415-8.764.045.671 16.192zm14.933-.534l8.764-.311-.671-15.881-8.763.401.67 15.791z" fill="#929293"/><path fill-rule="evenodd" clip-rule="evenodd" d="M179.61 144.658c-1.341 1.289-2.37 2.312-3.085 3.068-9.39-1.023-20.076-1.467-32.059-1.334 1.118-1.067 3.174-2.001 6.125-2.757 17.304.133 26.962.489 29.019 1.023z" fill="#DBB158"/><path fill-rule="evenodd" clip-rule="evenodd" d="M179.475 170.769c-1.968 2.802-2.773 3.603-2.773 3.603-.313-9.074-.357-17.348-.178-26.645.983-1.068 2.012-2.046 3.085-3.069.044 17.615-.134 26.111-.134 26.111z" fill="#DBB158"/><path fill-rule="evenodd" clip-rule="evenodd" d="M176.524 147.727c-.179 7.829-.134 16.058.179 26.645-18.779-.267-32.417-1.112-32.417-1.112-.178-13.789-.089-22.73.179-26.867a275.297 275.297 0 0132.059 1.334z" fill="#F7CE66"/><path fill-rule="evenodd" clip-rule="evenodd" d="M149.072 144.925c-.134 0-.223-.134-.223-.267 0-.134.089-.267.223-.267 4.65-.133 9.3-.089 14.04.089 4.739.178 9.524.534 14.353 1.023.134 0 .223.133.223.311 0 .134-.134.267-.223.267-4.829-.489-9.614-.845-14.353-1.023-4.74-.222-9.434-.267-14.04-.133z" fill="#FBD16B"/><path fill-rule="evenodd" clip-rule="evenodd" d="M157.791 146.482c1.61.044 3.175.133 4.606.178.178-.178-.045 11.654 0 16.37 0 0-4.561-.178-4.785-.178 0 0 .09-5.427.179-16.37z" fill="#F9F9F9"/><path fill-rule="evenodd" clip-rule="evenodd" d="M162.395 146.659a358.928 358.928 0 00-4.605-.178c2.772-1.823 4.203-2.713 4.203-2.713 2.012.045 2.996.045 2.996.045a115.073 115.073 0 01-2.594 2.846z" fill="#E1E2E1"/><path fill-rule="evenodd" clip-rule="evenodd" d="M138.519 156.936c-.224 1.779-.671 4.937-.85 6.583-.224 1.646-.224 1.735-1.118 1.913-.894.178-2.727.356-4.292.356a15.65 15.65 0 01-3.488-.49c-.67-.133-.76-.178-1.028-1.779-.268-1.646-.671-4.849-.894-6.495-.224-1.601-.224-1.601-.224-1.779 0-.178 0-.489.402-.667.403-.178 1.163-.178 2.951-.178 1.744 0 4.516-.044 6.126-.089 1.654 0 2.191 0 2.459.178.224.222.179.623-.044 2.447z" fill="#F9F9F9"/><path fill-rule="evenodd" clip-rule="evenodd" d="M139.726 155.245c-.492.133-1.341.355-2.504.489a38.555 38.555 0 01-4.158.222c-1.475 0-2.951-.044-4.203-.178-1.252-.133-2.325-.311-2.906-.444-.581-.134-.716-.178-.805-.223-.089-.044-.089-.133-.089-.489v-1.423c0-.356 0-.356.76-.534.76-.178 2.235-.489 4.471-.622 2.236-.134 5.187-.045 6.975.044 1.833.134 2.504.311 2.862.445.357.089.357.133.357.534 0 .4 0 1.156-.044 1.556-.045.445-.224.489-.716.623z" fill="#CBCCCD"/><path fill-rule="evenodd" clip-rule="evenodd" d="M138.874 153.288c-.671.133-2.012.267-3.666.311-1.655.089-3.533.134-5.053.089-1.52-.044-2.638-.089-3.309-.178-.67-.089-.849-.133-.804-.222 0-.045.178-.134.849-.267s1.789-.356 3.622-.4c1.833-.089 4.382-.045 5.991.044 1.61.045 2.281.134 2.683.223.313.089.313.266-.313.4z" fill="#080902"/><path fill-rule="evenodd" clip-rule="evenodd" d="M126.758 137.407c.894.49 1.743 1.024 2.459 1.735a7.224 7.224 0 011.609 2.491c.313.89.403 1.691.358 2.491a11.562 11.562 0 01-.268 1.869c-.09.356-.134.355-.894-.089-.761-.445-2.236-1.29-3.399-2.358-1.117-1.068-1.877-2.313-2.28-3.603-.402-1.246-.402-2.491-.402-3.114 0-.623-.045-.667.402-.489.492.222 1.476.623 2.415 1.067z" fill="#5DC94C"/><path fill-rule="evenodd" clip-rule="evenodd" d="M140.172 140.166c-1.118.4-2.772.978-3.89 1.957-1.118.979-1.744 2.313-1.967 3.514-.224 1.246-.09 2.358 0 2.936.089.578.134.578 1.162.133 1.029-.4 3.085-1.245 4.382-2.446 1.297-1.201 1.878-2.802 2.236-4.004.313-1.201.402-2.046.447-2.446.045-.4.045-.4-.268-.311-.358.044-.984.266-2.102.667z" fill="#4AAB3C"/><path fill-rule="evenodd" clip-rule="evenodd" d="M132.527 128.644c.447.579.894 1.246 1.296 1.958.403.711.805 1.512.984 2.268.224.757.224 1.557.224 2.224 0 .668-.045 1.201-.224 1.958a72.98 72.98 0 01-.581 2.224c-.134.489-.134.489-.179.489 0 0-.045 0-.76-.845-.716-.845-2.146-2.536-2.817-4.092-.671-1.557-.537-2.936-.313-4.182.223-1.245.581-2.446.76-3.025.179-.578.179-.578.402-.311.269.222.761.756 1.208 1.334z" fill="#5DC94C"/><path fill-rule="evenodd" clip-rule="evenodd" d="M132.213 131.091v.045c.447 2.135.894 4.315 1.207 5.827.134.801.268 1.379.358 1.957.089.579.179 1.112.313 1.78.089.667.223 1.379.313 2.224.089.845.223 1.779.313 2.847.179 2.09.313 4.626.492 7.161h.178c-.134-2.535-.268-5.071-.491-7.161-.09-1.068-.224-2.002-.313-2.847-.09-.845-.224-1.602-.313-2.224a18.524 18.524 0 00-.313-1.78c-.09-.578-.224-1.201-.358-1.957-.313-1.512-.76-3.692-1.207-5.827v-.045h-.179z" fill="#509663"/><path fill-rule="evenodd" clip-rule="evenodd" d="M141.47 140.877c-.894.801-1.744 1.557-2.548 2.358-.805.801-1.565 1.557-2.236 2.358-.671.8-1.207 1.556-1.654 2.313a33.568 33.568 0 00-1.118 2.046 15.312 15.312 0 00-.716 1.646c-.178.445-.313.8-.402 1.067l-.179.49.134.044.179-.489c.09-.223.224-.578.403-1.023.178-.445.402-1.023.715-1.602.313-.622.671-1.334 1.118-2.046.447-.712.983-1.512 1.654-2.268a26.589 26.589 0 012.236-2.358c.805-.801 1.699-1.557 2.548-2.358l-.134-.178zm-15.829-2.58c.447.489.849.979 1.296 1.512.447.534.85 1.112 1.297 1.735.447.667.894 1.424 1.297 2.18.402.712.715 1.468 1.028 2.179.268.757.492 1.424.671 2.136.179.667.268 1.29.357 1.912.179 1.201.179 2.225.224 3.292h.179c-.045-1.067-.09-2.091-.224-3.292-.089-.622-.179-1.245-.357-1.912a28.663 28.663 0 00-.671-2.136 19.397 19.397 0 00-1.029-2.224 25.464 25.464 0 00-1.296-2.179 19.484 19.484 0 00-1.297-1.735c-.447-.534-.849-1.023-1.297-1.513l-.178.045z" fill="#509663"/><path fill-rule="evenodd" clip-rule="evenodd" d="M205.453 170.235c.939 0 1.744-.756 1.744-1.734 0-.979-.761-1.735-1.744-1.735-.939 0-1.744.756-1.744 1.735 0 .978.76 1.734 1.744 1.734zm-3.936 0c.939 0 1.744-.756 1.744-1.734 0-.979-.76-1.735-1.744-1.735-.939 0-1.744.756-1.744 1.735 0 .978.805 1.734 1.744 1.734zm13.101 0c.939 0 1.744-.756 1.744-1.734 0-.979-.761-1.735-1.744-1.735-.984 0-1.744.756-1.744 1.735 0 .978.805 1.734 1.744 1.734zm3.979 0c.939 0 1.744-.756 1.744-1.734 0-.979-.76-1.735-1.744-1.735a1.74 1.74 0 00-1.743 1.735c0 .978.76 1.734 1.743 1.734z" fill="#403E32"/><path fill-rule="evenodd" clip-rule="evenodd" d="M200.087 132.737h19.852c1.968 0 3.577 1.602 3.577 3.559v28.602c0 1.958-1.609 3.559-3.577 3.559h-19.852c-1.968 0-3.577-1.601-3.577-3.559v-28.602c0-1.957 1.609-3.559 3.577-3.559z" fill="#4F4D3E"/><path d="M219.134 165.744h-18.198v2.668h18.198v-2.668z" fill="#E8E4BE"/><path d="M201.786 140.077h-1.252v24.732h1.252v-24.732zm3.488 0h-1.252v24.732h1.252v-24.732zm3.576 0h-1.252v24.732h1.252v-24.732zm3.668 0h-1.252v24.732h1.252v-24.732zm3.262 0h-1.252v24.732h1.252v-24.732zm3.579 0h-1.252v24.732h1.252v-24.732zm-13.593-8.941h-1.967v1.601h1.967v-1.601zm10.595 0h-1.967v1.601h1.967v-1.601z" fill="#403E32"/><path d="M205.54 113.921h-1.609v17.17h1.609v-17.17zm10.646 0h-1.61v17.17h1.61v-17.17z" fill="#E8E4BE"/><path fill-rule="evenodd" clip-rule="evenodd" d="M204.738 109.74h10.687c.581 0 1.073.489 1.073 1.067v3.158h-2.147v-2.091h-8.495v2.091h-2.146v-3.158c-.045-.578.447-1.067 1.028-1.067z" fill="#141515"/><path fill-rule="evenodd" clip-rule="evenodd" d="M196.868 165.7c-.045.044-.09.044-.134 0-.045-.045-.045-.089 0-.134l2.459-2.402v-27.045l-1.923-1.824c-.044-.045-.044-.089 0-.134.045-.044.09-.044.134 0l1.968 1.824.044.045v27.09s0 .044-.044.044l-2.504 2.536zm26.335 0c.045.044.089.044.134 0 .045-.045.045-.089 0-.134l-2.459-2.402v-27.045l1.923-1.824c.044-.045.044-.089 0-.134-.045-.044-.09-.044-.135 0l-1.967 1.824-.045.045v27.09s0 .044.045.044l2.504 2.536z" fill="#403E32"/><path fill-rule="evenodd" clip-rule="evenodd" d="M61.928 110.006c-.134-.578-.492-1.156-.67-1.913-.18-.756-.224-1.645-.269-2.135 0-.445 0-.445-.358-.489-.357-.045-1.028-.089-1.922-.311-.895-.223-2.012-.623-3.13-1.112-1.073-.49-2.102-1.024-2.638-1.202-.537-.222-.537-.088-.492.401 0 .489.045 1.29.045 2.268-.045.979-.134 2.091-.269 2.803-.134.756-.313 1.112-.357 1.379-.045.311.044.578.492 1.245.402.668 1.162 1.78 1.922 2.536.716.756 1.431 1.201 2.28 1.512a7.07 7.07 0 002.639.401c.76-.045 1.252-.312 1.654-.935.402-.622.76-1.645.984-2.446.178-.801.268-1.424.09-2.002z" fill="#FFAF69"/><path fill-rule="evenodd" clip-rule="evenodd" d="M54.146 109.962c.581.711 1.118 1.334 1.699 1.912a7.122 7.122 0 001.788 1.29c.537.267.984.356 1.431.134.403-.223.85-.756 1.208-1.646.357-.934.67-2.224.849-2.891.179-.668.179-.668.581-.267.447.4 1.297 1.156 3.22 2.046 1.922.89 4.873 1.913 6.885 2.58.582.178 2.638.934 3.04.979 4.159.311 8.72 12.499 10.464 14.367 2.235 2.403 4.605-1.201 5.589.757.983 1.957 1.117 3.514.938 5.026-.178 1.468-.625 2.892-1.564 4.093-.94 1.201-2.415 2.268-3.89 2.535-.358.045-.716.089-1.029.045.581 3.87.492 7.161-.358 8.941-.894 1.779-2.638 1.957-4.47 2.09-1.834.134-3.712.223-6.44.267-2.727.089-6.26.178-10.15.223-3.934.044-8.226.089-11.4.089-3.175 0-5.232-.089-6.35-.089-1.118-.045-1.297-.089-1.386-.934-.134-.89-.224-2.58-.358-4.449-.134-1.868-.313-3.87-.67-5.605-.358-1.69-.895-3.113-1.297-3.781-.403-.711-.716-.756-1.386-.889-.671-.134-1.7-.401-3.04-.845-1.342-.445-2.952-1.024-3.846-1.424-.939-.4-1.118-.578-1.297-.801-.134-.222-.223-.489.045-2.669.268-2.179.939-6.227 1.7-9.074.76-2.847 1.564-4.493 2.056-5.338.492-.89.715-.979 2.101-1.512 1.387-.534 3.89-1.424 6.126-2.536s4.203-2.402 5.365-3.203c1.163-.8 1.61-1.112 1.834-1.29.223-.178.223-.178.536.223.269.222.895.934 1.476 1.646z" fill="#4AAB3C"/><path fill-rule="evenodd" clip-rule="evenodd" d="M59.466 112.63c-.357.534-.58.623-.715.712-.179.045-.268.045-.76-.267-.492-.311-1.341-.978-2.37-1.912-.984-.935-2.101-2.091-2.727-2.669-.626-.579-.716-.579-1.118-.356-.403.222-1.163.578-1.565.845-.403.267-.403.4-.179 1.201.224.801.76 2.18 1.386 3.514.626 1.335 1.386 2.669 1.968 3.425.58.756.938.934 1.386.801.447-.134.983-.578 1.61-1.246.67-.711 1.43-1.645 1.877-2.135.447-.489.537-.489 1.207 0 .671.445 1.923 1.379 2.862 1.913.939.534 1.52.623 1.923.578.402-.044.536-.178.58-.8.046-.623-.088-1.735-.133-2.758-.045-1.068-.045-2.047 0-2.625 0-.578 0-.712-.134-.89-.134-.177-.447-.355-.984-.667-.581-.311-1.43-.756-1.878-.889-.447-.134-.492 0-.581.355-.09.356-.224.935-.537 1.691-.313.712-.76 1.646-1.118 2.179z" fill="#5DC94C"/><path fill-rule="evenodd" clip-rule="evenodd" d="M68.857 123.707c-.09 2.935-.09 6.316-.134 8.14-.045 1.824-.134 2.046-.268 2.224-.134.133-.358.222-1.923.267-1.565.044-4.471.089-7.199.222-2.727.089-5.276.267-6.572.356-1.297.089-1.387.089-1.744-2.002-.313-2.09-.895-6.272-1.655-9.83-.76-3.559-1.654-6.539-2.146-8.274-.492-1.735-.626-2.224-.715-2.58-.09-.311-.179-.489-.268-.534-.09-.044-.18 0-.269.089-.09.089-.179.178-.402.267a8.461 8.461 0 01-.805.267 8.444 8.444 0 00-.76.133c-.179.045-.268.089-.313.223-.045.089 0 .222.581 2.491.581 2.268 1.7 6.717 2.325 11.921.581 5.205.67 11.21.67 14.813 0 3.603-.044 4.804-.133 5.649-.09.845-.18 1.335-.626 1.557-.447.223-1.163.178-1.52.401-.358.177-.313.622-.313.845 0 .222 0 .222-.224 1.468-.224 1.245-.715 3.736-1.163 7.428-.447 3.692-.804 8.63-1.028 16.548-.179 7.918-.224 18.905-.984 30.559-.804 11.655-2.37 24.066-3.13 30.427-.715 6.361-.625 6.672-.447 6.85.18.178.447.178 2.37.311 1.878.134 5.41.401 7.199.445 1.788.045 1.833-.089 2.37-3.203.536-3.113 1.61-9.163 2.861-14.679 1.252-5.516 2.773-10.498 4.07-18.238 1.296-7.784 2.458-18.327 3.084-24.02.626-5.65.805-6.406.984-6.851.179-.4.313-.445.358.045.044.533-.09 1.601.178 8.674.269 7.073.94 20.106 1.52 30.648.582 10.587 1.074 18.683 1.297 22.998.269 4.27.269 4.715.224 5.205 0 .489-.045 1.023 1.073.934 1.118-.089 3.398-.89 5.231-1.602 1.834-.711 3.22-1.423 3.98-1.779.76-.356.805-.4.894-.489.09-.089.179-.178.224-2.936.044-2.758.044-8.185.357-17.793.313-9.609.895-23.354 1.118-33.273.18-9.92-.044-15.97-.581-21.886-.537-5.961-1.43-11.788-2.102-18.816-.67-7.028-1.162-15.258-1.386-21.085-.223-5.827-.178-9.252-.178-11.076.044-1.824.044-2.002-.09-2.135-.134-.089-.358-.134-.715-.223a14.192 14.192 0 01-1.029-.356c-.357-.133-.67-.267-.894-.267a.447.447 0 00-.402.223c-.045.089-.045.178-.09.756-.044.578-.09 1.601-.223 3.381-.224 1.69-.448 4.226-.537 7.162z" fill="#101E25"/><path fill-rule="evenodd" clip-rule="evenodd" d="M67.023 176.464a106.86 106.86 0 01-2.057 5.382c-.67 1.601-1.118 2.447-1.476 3.737-.313 1.29-.536 2.98-.85 4.181-.312 1.201-.804 1.868-1.028 2.224-.223.356-.223.356-.313-1.423-.089-1.78-.223-5.338-.268-7.74-.09-2.402-.09-3.692-.134-4.493-.045-.801-.09-1.068-.09-1.246 0-.133 0-.133.492-.311s1.52-.534 2.415-1.023c.894-.445 1.654-1.023 2.236-1.468.58-.445.938-.756 1.207-.756.268 0 .402.311.402.712.09.4-.044.845-.536 2.224zm-4.113-24.066c1.565 0 3.309-.044 4.203-.044.894 0 .894 0 .894.845.045.845.09 2.535.134 3.825.045 1.29.09 2.135 0 2.58-.044.445-.179.534-1.788.667-1.61.134-4.65.267-7.065.356-2.37.089-4.069.045-5.097-.044-1.029-.089-1.386-.178-1.565-.356-.179-.178-.224-.4-.224-1.735 0-1.29.045-3.647.045-4.848v-1.202h5.813c1.744 0 3.085 0 4.65-.044zm-15.29.044a.285.285 0 00-.269-.356c-.179-.044-.358.089-.358.267-.402 2.669-.85 5.294-1.207 8.14-.402 2.847-.76 5.917-1.073 9.386a572.656 572.656 0 00-.939 12.456c-.313 4.448.045 13.344-.447 19.394-.984 12.633-3.264 25.444-4.829 41.992v.044c0 .178.134.312.313.356.179 0 .313-.133.358-.311v-.045c1.565-16.636 3.8-29.492 4.829-41.992.492-6.049.134-14.946.447-19.394.313-4.804.626-8.852.939-12.411a184 184 0 011.073-9.341c.313-2.936.76-5.56 1.162-8.185zm28.795 88.655c.09.578.045 1.646.045 2.402 0 .801-.044 1.29-.044 1.69-.045.401-.09.623-.403.979-.358.356-.984.801-1.878 1.156-.894.356-2.057.623-3.174.801a18.684 18.684 0 01-3.086.134 21.236 21.236 0 01-2.682-.312c-.76-.133-1.342-.311-1.61-.623-.268-.311-.268-.8-.268-1.334.044-.534.09-1.201.044-1.779-.044-.623-.134-1.201-.089-1.602.045-.4.313-.622.805-.667.492-.044 1.252.089 2.638.089s3.398-.178 4.874-.489c1.475-.267 2.414-.668 3.085-.89.67-.222 1.028-.311 1.252-.267.268 0 .447.089.491.712z" fill="#080902"/><path fill-rule="evenodd" clip-rule="evenodd" d="M49.854 243.544c-.179.711-.492 1.69-.626 2.402-.134.667-.045 1.112-.09 1.423 0 .311-.089.534-.938.756-.805.223-2.37.401-4.382.223-2.012-.178-4.471-.712-5.813-1.157-1.386-.445-1.654-.756-1.878-1.067-.223-.312-.358-.579-.358-1.112 0-.534.135-1.335.269-2.047.134-.756.223-1.423.447-1.823.224-.401.492-.534.894-.49.403.045.894.312 1.744.578.805.267 1.923.534 3.264.757 1.341.178 2.862.311 4.158.267 1.297-.045 2.37-.178 2.907-.045.58.134.58.623.402 1.335z" fill="#080902"/><path fill-rule="evenodd" clip-rule="evenodd" d="M59.154 105.247c.492.089.984.178 1.252.267.313.133.447.266.492.578.09.311.134.801.179 1.156.044.356.089.579-.09.801-.179.223-.536.4-1.162.445-.582.089-1.387.044-2.37-.222-.94-.267-2.057-.757-2.907-1.202-.849-.444-1.52-.845-1.833-1.067-.313-.223-.313-.223-.313-.445v-2.402c0-.089.045-.222.224-.178.224.045.626.311 1.52.667.894.356 2.236.801 3.13 1.112.984.267 1.43.401 1.878.49z" fill="#FF9E69"/><path fill-rule="evenodd" clip-rule="evenodd" d="M48.872 97.462c.179.089.179.089.402.8.224.757.67 2.225 1.118 3.203.492.979.984 1.468 2.057 2.224 1.028.757 2.638 1.78 3.98 2.313 1.34.579 2.458.668 3.174.712.715.045 1.073 0 1.833-.311.76-.356 1.967-1.023 2.996-2.002 1.028-.979 1.967-2.313 2.414-3.247.447-.934.492-1.513.581-2.803.09-1.245.269-3.247.492-5.649.224-2.402.492-5.249.626-6.984.134-1.734.09-2.357-.268-3.203-.358-.845-1.028-1.868-2.728-2.935-1.743-1.068-4.516-2.18-6.885-2.313-2.37-.178-4.382.578-5.902 1.29-1.52.667-2.549 1.29-3.175 1.957-.626.667-.894 1.423-1.118 2.224-.223.8-.402 1.646-.536 2.535-.18.89-.313 1.78-.581 2.536a9.465 9.465 0 01-.805 1.646c-.224.356-.269.578-.358.712-.09.133-.179.177-.313.31-.134.134-.313.401-.447.98-.09.578-.134 1.512.044 2.268.18.756.537 1.38.94 1.913a7.57 7.57 0 001.34 1.334c.537.223.895.4 1.119.49z" fill="#FFAF69"/><path fill-rule="evenodd" clip-rule="evenodd" d="M60.945 93.547a.305.305 0 00-.313-.311.305.305 0 00-.313.311c-.045.445-.09.934.134 1.38.09.222.268.444.447.622s.358.356.537.49c.089.088.223.177.313.222.178.133.313.222.357.311.045.044.09.133.09.178.044.044.044.133.044.222v.134c0 .044-.044.089-.044.133l-.135.134c-.089.044-.178.133-.268.178a8.73 8.73 0 01-.626.267c-.179.044-.268.267-.179.4.045.178.269.267.403.178.223-.09.447-.178.67-.267a.972.972 0 00.358-.223c.09-.088.18-.133.268-.222v-.044c.09-.09.135-.223.18-.356.044-.134.044-.223.044-.356a1.29 1.29 0 00-.09-.4c-.044-.134-.134-.223-.223-.356a2.324 2.324 0 00-.492-.4c-.09-.045-.179-.134-.268-.223-.134-.134-.313-.267-.447-.4a3.133 3.133 0 01-.358-.445c-.134-.312-.09-.667-.09-1.023v-.134z" fill="#F46F2D"/><path fill-rule="evenodd" clip-rule="evenodd" d="M66.577 89.366c-.313-.223-.94-.445-1.52-.534-.582-.089-1.074-.133-1.566-.089-.491.044-.938.133-1.207.267-.268.133-.402.356-.402.533 0 .178.09.356.358.445.268.09.625.09 1.028.09h1.118c.402.044.85.133 1.162.177.313.089.492.133.76.089a.856.856 0 00.626-.311c-.044-.178-.044-.445-.357-.667zm-9.344-.712a.422.422 0 00-.179-.445c-.134-.088-.358-.133-.76-.088a7.448 7.448 0 00-1.654.355c-.626.223-1.252.49-1.7.8-.402.312-.58.579-.58.801.044.223.268.445.491.445.224 0 .492-.222.85-.4.358-.223.85-.445 1.252-.623.447-.133.85-.222 1.162-.222.313-.045.581 0 .76-.134.224-.089.313-.311.358-.489z" fill="#211F17"/><path fill-rule="evenodd" clip-rule="evenodd" d="M65.237 92.613c.09.311.134.622.09.978a3.146 3.146 0 01-.313.979c-.134.266-.313.444-.447.489-.18.089-.313.089-.492-.045-.18-.089-.358-.311-.492-.578a2.06 2.06 0 01-.224-.934c0-.356.045-.711.134-.978.09-.267.269-.49.492-.578.224-.09.537-.09.76 0 .224.133.403.355.492.667zm-8.542 0c.09.311.134.622.09.978a3.149 3.149 0 01-.313.979c-.134.266-.313.444-.447.489-.18.089-.313.089-.492-.045-.18-.089-.358-.311-.492-.578a2.06 2.06 0 01-.224-.934c0-.356.045-.711.135-.978.089-.267.268-.49.491-.578.224-.09.537-.09.76 0 .224.133.403.355.492.667z" fill="#080902"/><path fill-rule="evenodd" clip-rule="evenodd" d="M50.926 93.236c0-.8.045-2.09.18-3.292.133-1.2.402-2.357.67-3.247.268-.89.626-1.512 1.028-1.78.403-.266.94-.088 1.7-.088.76.044 1.788-.045 2.593-.356a4.232 4.232 0 001.743-1.29c.358-.445.537-.8.671-.756.134.089.268.578.715.978.448.445 1.252.757 2.37 1.023 1.118.267 2.549.4 3.756.4 1.207 0 2.236-.088 3.04-.355.805-.267 1.431-.712 1.879-1.38a6.084 6.084 0 00.939-2.357c.178-.845.178-1.646-.403-2.669-.581-1.023-1.744-2.268-3.085-2.624-1.341-.356-2.862.178-3.711.534-.805.355-.94.533-1.163-.178-.223-.712-.536-2.313-2.37-3.159-1.833-.845-5.186-.934-7.69-.177-2.46.756-4.069 2.446-5.053 3.825-.983 1.424-1.296 2.535-1.565 3.292-.268.712-.447 1.023-.67 1.29-.224.267-.403.445-.581 1.557-.135 1.112-.18 3.113-.135 4.581.045 1.424.224 2.314.269 2.714.089.445.089.445.313.4.223 0 .715-.044 1.207.09.447.133.85.488 1.252 1.022.357.579.715 1.335.983 2.002.269.667.448 1.156.582 1.379.179.222.313.133.402-.045.134-.222.134-.533.134-1.334z" fill="#080902"/><path fill-rule="evenodd" clip-rule="evenodd" d="M70.243 132.336c.09-6.539.18-6.583.045-6.628-.134-.044-.447-.178-3.13-.934-2.727-.756-7.824-2.135-10.373-2.847l-2.549-.712-.044 6.94-.18 27.801c-.044 6.94-.044 6.94-.089 7.429a28.78 28.78 0 00-.089 2.046c0 .578 0 .801 1.967 1.913 1.923 1.157 5.768 3.203 8.362 4.493 2.593 1.29 3.934 1.735 4.605 1.957.67.222.67.222.76-1.246.09-1.512.224-4.492.358-12.544.134-8.051.268-21.129.358-27.668z" fill="#F7CE66"/><path fill-rule="evenodd" clip-rule="evenodd" d="M55.042 146.882c-.536.845-.894 1.424-1.475 1.78-.581.355-1.386.444-3.085.089-1.7-.356-4.248-1.112-6.17-1.735-1.923-.667-3.175-1.201-3.801-1.557-.626-.356-.67-.489-.67-.801 0-.311.044-.845.267-2.224.269-1.379.716-3.559.94-4.671.223-1.112.223-1.112.178-1.112-.044 0-.178-.044-.536-.133-.403-.089-1.073-.267-1.744-.445-.67-.178-1.341-.4-2.102-.623-.76-.267-1.654-.578-2.101-.756l-.447-.178-.09 1.69c-.089 1.691-.268 5.071-.313 7.829-.089 2.803-.044 4.982.045 6.184.09 1.201.224 1.334 1.252 1.779 1.029.4 2.907 1.112 5.813 1.557 2.906.489 6.84.711 9.032.934 2.19.178 2.593.311 2.906.445.313.178.447.356.939 1.023.447.667 1.162 1.824 1.744 2.491.581.712 1.028.934 1.341 1.023.313.133.537.089.67.133.135 0 .135.089.359.223.223.178.626.445.983.578.358.134.67.178.85.089.179-.089.268-.311.313-.534.044-.178.044-.356.044-.578 0-.222.045-.534 0-.801a1.454 1.454 0 00-.313-.711c-.178-.223-.491-.49-.804-.757a13.404 13.404 0 01-.76-.711c-.18-.178-.18-.267-.045-.267.134 0 .402.044.67.089.269.044.582 0 .76-.134.18-.178.224-.489.224-.711-.044-.223-.134-.401-.357-.668-.224-.267-.582-.578-.984-1.29-.403-.711-.85-1.779-1.163-2.669-.313-.889-.492-1.601-.581-2.135-.09-.489-.09-.801.179-1.29.268-.489.76-1.156 1.073-1.646.268-.489.358-.756.358-1.112 0-.356-.09-.756-.18-.934-.089-.178-.223-.133-.402-.044-.178.089-.402.222-.85.8-.67.579-1.385 1.646-1.967 2.491z" fill="#FFAF69"/><path fill-rule="evenodd" clip-rule="evenodd" d="M39.123 136.073c.94.267 1.52.4 1.789.489.268.089.268.089.268.133v.267c0 .089-.045.178-.268.311-.268.134-.76.356-1.386.445-.626.134-1.431.134-2.102.089a10.012 10.012 0 01-1.788-.267c-.537-.133-1.029-.267-1.252-.355-.224-.089-.224-.089-.224-.534 0-.445.045-1.334.09-1.779 0-.445 0-.445.223-.356.179.089.581.223 1.476.534.85.356 2.235.756 3.174 1.023z" fill="#FF9E69"/><path fill-rule="evenodd" clip-rule="evenodd" d="M69.931 153.866c-.09 4.893-.268 12.055-.357 15.658-.09 3.603-.09 3.603-.09 3.737 0 .177-.044.489-.044.622 0 .134.044.089 4.56-.622 4.516-.668 13.548-1.958 18.109-2.669 4.516-.668 4.516-.757 4.516-.846 0-.089 0-.178.179-7.873.134-7.696.447-22.998.58-30.693l.135-7.651-4.516.356c-4.516.356-13.593 1.067-18.153 1.423l-4.516.356-.045 2.98c-.045 2.981-.09 8.986-.134 13.301-.09 4.403-.09 7.028-.224 11.921z" fill="#DBB158"/><path fill-rule="evenodd" clip-rule="evenodd" d="M61.525 123.262a477.433 477.433 0 00-6.17-1.69l-1.163-.312 4.472-.178c4.47-.178 13.458-.534 17.93-.667 4.47-.178 4.47-.178 4.605-.133.09.044.313.089 3.04.622 2.728.579 7.96 1.646 10.597 2.18l2.638.534-1.386.089c-1.386.089-4.113.311-8.674.667-4.516.356-10.865.845-14.04 1.068l-3.174.266-1.52-.444c-1.431-.401-4.472-1.246-7.155-2.002z" fill="#F7CE66"/><path fill-rule="evenodd" clip-rule="evenodd" d="M57.858 101.643c-.134-.089-.179-.267-.134-.401.09-.133.223-.222.358-.133.313.178.58.311.894.445.313.133.581.267.894.356.313.088.626.133.939.177.313 0 .581 0 .894-.089.581-.133 1.163-.444 1.7-.8.133-.089.312-.044.402.133.09.134.044.312-.134.401-.582.355-1.208.667-1.878.845-.313.089-.671.089-1.029.089-.358 0-.715-.089-1.073-.178s-.67-.223-.983-.356a3.84 3.84 0 00-.85-.489z" fill="#F46F2D"/><path fill-rule="evenodd" clip-rule="evenodd" d="M87.546 253.774c0-.4 0-1.112-.134-1.735-.134-.578-.447-1.112-.85-1.423-.402-.356-.894-.534-1.788-.667-.94-.134-2.325-.134-3.577-.267-1.252-.134-2.415-.356-3.264-.712-.895-.356-1.52-.845-1.968-1.423-.447-.534-.76-1.157-.939-1.557-.178-.401-.223-.623-.536-.579-.313.089-.85.445-1.565.757-.715.311-1.565.533-2.504.711-.939.134-1.967.178-2.772.178-.805 0-1.476-.089-1.923-.133-.447-.045-.67-.089-.805 0-.089.089-.044.222-.089 1.245-.045 1.023-.134 2.892-.179 4.048-.045 1.112 0 1.468 0 1.646 0 .178-.045.178-.045.178l3.756.089c3.8.089 11.357.222 15.203.267 3.8.044 3.89 0 3.89-.045.089-.044.089-.178.089-.578z" fill="#080902"/><path fill-rule="evenodd" clip-rule="evenodd" d="M87.547 254.886v-1.068c0-.044 0-.044-3.801-.044-3.8 0-11.402.044-15.202.089h-3.8v.311c0 .312.044.89.089 1.201.044.311.044.311.089.356h3.622c3.532-.045 10.552-.089 14.218-.134h4.248c.268 0 .447 0 .537-.133.044-.089 0-.311 0-.578z" fill="#FBD16B"/><path fill-rule="evenodd" clip-rule="evenodd" d="M58.35 256.265c.044-.4.178-1.112.133-1.735a2.856 2.856 0 00-.58-1.557c-.314-.4-.76-.667-1.655-.934-.894-.267-2.236-.534-3.443-.889-1.207-.356-2.325-.757-3.13-1.246a4.813 4.813 0 01-1.699-1.735c-.358-.622-.536-1.29-.67-1.69-.09-.445-.135-.667-.403-.623-.313 0-.894.267-1.654.445-.76.178-1.61.267-2.594.267-.939 0-1.967-.134-2.772-.267a12.09 12.09 0 01-1.833-.445c-.447-.133-.67-.178-.76-.133-.09.044-.09.222-.268 1.245-.18 1.023-.627 2.847-.85 3.959-.224 1.112-.268 1.468-.313 1.646-.045.178-.045.178-.09.178l1.163.534c1.207.489 3.577 1.512 7.333 2.224 3.711.712 8.764 1.112 11.312 1.334 2.549.178 2.638.178 2.683.089.045-.133 0-.222.09-.667z" fill="#080902"/><path fill-rule="evenodd" clip-rule="evenodd" d="M58.171 257.377c.045-.267.09-.534.134-.712.045-.178.045-.267.045-.356 0-.044 0-.044-2.19-.267-2.192-.177-6.618-.578-10.374-1.201a72.495 72.495 0 01-8.361-1.912l-1.52-.445-.09.4c-.09.401-.268 1.157-.313 1.557-.09.4-.045.445 0 .445.044 0 .09.044.983.178.895.178 2.639.489 3.98.845 1.341.356 2.325.712 4.963 1.023 2.638.312 6.93.534 9.256.712 2.325.178 2.638.222 2.861.311.268.045.447.089.537-.044.044-.045.044-.267.09-.534z" fill="#FBD16B"/><path fill-rule="evenodd" clip-rule="evenodd" d="M70.422 120.815c-.089-.044-.178-.133-.134-.267.045-.089.134-.178.269-.133l12.608 4.092c.09.045.18.134.135.267-.045.089-.135.178-.269.133l-12.609-4.092z" fill="#DBB158"/><path fill-rule="evenodd" clip-rule="evenodd" d="M86.116 129.89l8.853-.801v5.427l-8.853 1.335v-5.961z" fill="#E1E2E1"/><path fill-rule="evenodd" clip-rule="evenodd" d="M87.995 132.426c1.208-.089 3.488-.312 4.74-.49 1.252-.133 1.475-.222 1.565-.311.134-.089.134-.267.09-.356-.045-.133-.09-.178-.314-.178-.223 0-.58 0-1.788.134-1.207.133-3.264.356-4.382.489-1.073.133-1.207.178-1.252.267-.045.089-.09.267-.045.356.09.089.18.177 1.386.089zm.938 1.556c.894-.045 2.593-.267 3.532-.401.939-.133 1.073-.178 1.162-.311.09-.089.09-.267.09-.356 0-.133-.09-.178-.224-.178-.178 0-.447 0-1.341.134-.894.089-2.46.311-3.264.4-.805.133-.894.133-.939.222-.045.089-.09.267-.045.356.045.134.134.178 1.029.134z" fill="#3F3D2E"/></svg>