<svg width="582" height="535" fill="none" xmlns="http://www.w3.org/2000/svg"><path fill-rule="evenodd" clip-rule="evenodd" d="M354.072 433.736c29.16-2.582-52.598 4.981 21.686 4.981 74.284 0 204.304 14.663 204.304 32.832 0 9.038-22.7 17.246-59.427 23.149 8.582 3.227 13.288 6.824 13.288 10.513 0 15.033-76.683 27.207-171.361 27.207-67.087 0-125.13-6.087-153.275-15.033-5.998.092-11.996.184-18.086.184C85.542 517.569 0 499.954 0 478.097c0-43.531 305.442-49.433 354.072-44.361z" fill="#CBCCCD"/><path d="M519.805 28.405H218.146v353.316h301.659V28.406z" fill="#4AAB3C"/><path d="M512.33 49.156H229.035V367.15H512.33V49.156z" fill="#3F3D2E"/><path fill-rule="evenodd" clip-rule="evenodd" d="M512.33 49.156H229.035l54.26 111.962h173.576L512.33 49.156z" fill="#5F5D4D"/><path fill-rule="evenodd" clip-rule="evenodd" d="M512.33 49.156l-55.459 111.962v160.749l55.459 45.283V49.156zm-283.295 0l54.26 111.962v160.749l-54.26 45.283V49.156z" fill="#6A6856"/><path fill-rule="evenodd" clip-rule="evenodd" d="M229.035 367.15H512.33l-55.459-45.283H283.295l-54.26 45.283z" fill="#211F17"/><path fill-rule="evenodd" clip-rule="evenodd" d="M576.37 392.512L573.048 0l-56.013 43.992v327.953l59.335 20.567z" fill="#6A6856"/><path fill-rule="evenodd" clip-rule="evenodd" d="M561.605 17.062l-40.048 31.54.461 20.567 9.136-5.165.184 5.35 30.913-19.921-.646-32.371zM531.707 83.28l-8.305 5.072v113.899l46.324-12.451-2.03-136.678-36.081 22.964.092 7.194zm24.916 116.388l-32.852 8.946v118.51h9.69v8.116l23.346 3.504-.184-139.076zm13.934-3.504l-9.504 2.582.184 140.644 9.782 2.029-.462-145.255zm-37.096 148.944l-10.52-1.015.093 22.872 40.233 11.067.646-34.123-30.452-4.427v5.626z" fill="#E1E2E1"/><path fill-rule="evenodd" clip-rule="evenodd" d="M319.375 381.721h-92.832l.092 11.897c.093 11.897.369 35.784.554 47.681.092 11.897.092 11.897 1.292 12.081 1.199.185 3.599.554 12.919 1.199 9.32.738 25.653 1.845 38.295 1.568 12.642-.276 21.593-2.029 27.038-3.504 5.352-1.568 7.198-2.859 8.305-3.689 1.107-.83 1.661-1.015 5.906-.923 4.245.185 12.181.738 18.64 1.015 6.46.277 11.35.184 13.842.092 2.491 0 2.491 0 3.875.369 1.385.461 4.245 1.291 8.029 1.66 3.783.461 8.674.461 11.719 0s4.337-1.291 4.983-1.66c.646-.461.738-.461 5.537-.277 4.798.093 14.303.369 20.762 0 6.46-.369 9.967-1.291 11.72-1.752 1.753-.461 1.753-.461 3.783.461 2.123.922 6.275 2.675 14.303 3.966 8.029 1.291 20.025 2.121 33.221 2.213 13.195.092 27.775-.553 35.065-1.014 7.29-.369 7.383-.461 7.383-.554v-11.804c0-11.805-.093-35.507-.185-47.312v-11.805h-67.455c-34.605.092-87.204.092-126.791.092z" fill="#36342B"/><path fill-rule="evenodd" clip-rule="evenodd" d="M233.649 476.621h17.718c2.583 0 4.613-2.029 4.613-4.611v-53.306c0-2.583-2.03-4.612-4.613-4.612h-17.718c-2.584 0-4.614 2.029-4.614 4.612v53.398c0 2.49 2.03 4.519 4.614 4.519zm31.006 0h17.717c2.584 0 4.614-2.029 4.614-4.611v-53.306c0-2.583-2.03-4.612-4.614-4.612h-17.717c-2.584 0-4.614 2.029-4.614 4.612v53.398c0 2.49 2.122 4.519 4.614 4.519zm192.215 0h17.717c2.584 0 4.614-2.029 4.614-4.611v-53.306c0-2.583-2.03-4.612-4.614-4.612H456.87c-2.584 0-4.614 2.029-4.614 4.612v53.398c0 2.49 2.03 4.519 4.614 4.519zm31.006 0h17.81c2.584 0 4.614-2.029 4.614-4.611v-53.306c0-2.583-2.03-4.612-4.614-4.612h-17.718c-2.583 0-4.614 2.029-4.614 4.612v53.398c-.092 2.49 2.031 4.519 4.522 4.519z" fill="#403E32"/><path d="M425.957 381.721H314.762v16.324h111.195v-16.324z" fill="#36342B"/><path fill-rule="evenodd" clip-rule="evenodd" d="M258.194 381.721h-31.652l-.184 6.364c-.185 6.363-.554 19.091-.646 25.546-.185 6.456-.185 6.733-.185 6.917v.092h10.243c10.243 0 30.821.093 41.064.185h10.243l2.584-1.107c2.584-1.106 7.751-3.412 10.427-4.611 2.676-1.107 2.676-1.107 2.769-1.107h23.069c23.07 0 69.117-.092 92.094-.184h23.07l2.768 1.291c2.768 1.291 8.397 3.966 11.166 5.257l2.768 1.291 9.32.092 37.281.369 9.32.092v-6.732c0-6.733-.092-20.198-.092-27.022v-6.733h-82.59v2.675c0 2.674.093 8.116.185 10.882v2.675H309.685c-.092 0-.092 0-.092-.184v-3.321c0-2.674.092-7.747.185-10.237v-2.49h-51.584z" fill="#3F3D2E"/><path d="M314.301 398.322h-74.1v15.77h74.1v-15.77zm184.925-.277h-76.314v14.203h76.314v-14.203z" fill="#FDE742"/><path d="M302.765 398.322h-11.904v15.77h11.904v-15.77zm146.999-.277h-12.826v14.203h12.826v-14.203z" fill="#E1E2E1"/><path fill-rule="evenodd" clip-rule="evenodd" d="M561.606 17.062l-40.049 31.54.461 20.567 2.399-1.383-.553-17.984 37.834-29.328-.092-3.412zm-30.267 52.292l-.185-5.35 2.307.093.093 3.781-2.215 1.476zm-7.937 132.896l2.769-.737-.831-111.685 8.859-5.257-.369-9.96-2.215 1.475.092 7.194-8.305 5.072V202.25zm.369 124.874v-118.51l32.852-8.946v1.845l-29.991 7.931-.277 116.112h9.413v8.577l21.039 3.228v1.383l-23.346-3.504v-8.116h-9.69zm9.69 12.358l2.584.369v4.15l-2.584 1.107v-5.626zm-8.766 4.703l-1.754-.092.093 22.872 40.233 11.067.092-2.951-38.572-10.237-.092-20.659zm36.358-145.439v13.096l.184 127.548 9.782 2.029v-2.029l-7.106-1.291-1.384-137.785 8.028-2.121v-2.029l-9.504 2.582zM533.83 74.61l.092 2.398 33.867-21.673-.093-2.213L533.83 74.61zM573.049 0l6.552.461L582 391.866l-5.721.646L573.049 0z" fill="#101E25"/><path fill-rule="evenodd" clip-rule="evenodd" d="M162.502 392.512L165.824 0l56.013 43.992v327.953l-59.335 20.567z" fill="#6A6856"/><path fill-rule="evenodd" clip-rule="evenodd" d="M177.267 17.062l40.049 31.54-.462 20.567-9.135-5.165-.185 5.35-30.913-19.921.646-32.371zm29.898 66.218l8.305 5.072v113.899L169.146 189.8l2.031-136.678 36.08 22.964-.092 7.194zm-24.916 116.388l32.851 8.946v118.51h-9.689v8.116l-23.347 3.504.185-139.076zm-13.934-3.504l9.505 2.582-.185 140.644-9.781 2.029.461-145.255zm37.096 148.944l10.52-1.015-.093 22.872-40.233 11.067-.646-34.123 30.452-4.427v5.626z" fill="#E1E2E1"/><path fill-rule="evenodd" clip-rule="evenodd" d="M177.266 17.062l40.049 31.54-.461 20.567-2.4-1.383.554-17.984-37.834-29.328.092-3.412zm30.267 52.292l.185-5.35-2.307.093-.093 3.781 2.215 1.476zm7.937 132.896l-2.768-.737.831-111.685-8.859-5.257.277-9.96 2.307 1.475-.093 7.194 8.305 5.072V202.25zm-.37 124.874v-118.51l-32.851-8.946v1.845l29.991 7.931.276 116.112h-9.412v8.577l-21.04 3.228v1.383l23.347-3.504v-8.116h9.689zm-9.688 12.358l-2.584.369v4.15l2.584 1.107v-5.626zm8.766 4.703l1.754-.092-.093 22.872-40.233 11.067-.092-2.951 38.572-10.237.092-20.659zM177.82 198.746v13.096l-.185 127.548-9.781 2.029v-2.029l7.105-1.291 1.384-137.785-8.028-2.121v-2.029l9.505 2.582z" fill="#101E25"/><path fill-rule="evenodd" clip-rule="evenodd" d="M204.95 74.61v2.398l-33.866-21.673.092-2.213L204.95 74.61zM165.824 0l-6.552.461-2.399 391.405 5.721.646L165.824 0z" fill="#101E25"/><path fill-rule="evenodd" clip-rule="evenodd" d="M339.491 254.911l9.136 65.296-34.143 2.582-1.384-66.402 26.391-1.476z" fill="#DBB158"/><path fill-rule="evenodd" clip-rule="evenodd" d="M339.491 254.911l-26.392 1.476-15.687-4.796 31.559-1.291 10.52 4.611z" fill="#FBD16B"/><path fill-rule="evenodd" clip-rule="evenodd" d="M313.099 256.387l-15.687-4.796 2.307 67.509 14.765 3.689-1.385-66.402z" fill="#F8E49C"/><path fill-rule="evenodd" clip-rule="evenodd" d="M374.465 253.159l.092 1.937.369 47.219 37.281 18.722-.185-63.082-37.557-4.796z" fill="#DBB158"/><path fill-rule="evenodd" clip-rule="evenodd" d="M412.208 321.037l-.185-63.082 46.786-4.981-.185 49.157-46.416 18.906z" fill="#F7CE66"/><path fill-rule="evenodd" clip-rule="evenodd" d="M412.022 257.955l46.785-4.98-37.28-2.952-47.062 3.136 37.557 4.796z" fill="#F8E49C"/><path fill-rule="evenodd" clip-rule="evenodd" d="M405.655 292.816l-4.706 38.458-38.849 5.995.184-39.934 43.371-4.519z" fill="#DBB158"/><path fill-rule="evenodd" clip-rule="evenodd" d="M362.285 297.335l-.184 39.934-28.145-13.834-.093-33.57 28.422 7.47z" fill="#FBD16B"/><path fill-rule="evenodd" clip-rule="evenodd" d="M333.863 289.865l47.708-2.122 24.085 5.073-43.371 4.519-28.422-7.47z" fill="#F8E49C"/><path fill-rule="evenodd" clip-rule="evenodd" d="M436.752 301.577l-46.877-4.611.277 40.303 46.231 7.47.369-43.162z" fill="#F7CE66"/><path fill-rule="evenodd" clip-rule="evenodd" d="M436.752 301.577l-46.877-4.611 32.482-8.946 39.403 3.966-25.008 9.591z" fill="#F8E49C"/><path fill-rule="evenodd" clip-rule="evenodd" d="M461.761 291.986l-25.007 9.591-.369 43.162 24.73-15.31.646-37.074v-.369z" fill="#DBA757"/><path fill-rule="evenodd" clip-rule="evenodd" d="M262.809 298.626l68.655-1.014.092 40.763-67.825 1.015-.922-40.764z" fill="#F7CE66"/><path fill-rule="evenodd" clip-rule="evenodd" d="M331.464 297.612l-68.655 1.014 7.474-7.655 58.597-.553 2.584 7.194z" fill="#F8E49C"/><path fill-rule="evenodd" clip-rule="evenodd" d="M325.928 189.523l.83 64.374 85.635 1.752.369-68.616-86.834 2.49z" fill="#DBB158"/><path fill-rule="evenodd" clip-rule="evenodd" d="M412.762 187.033l-.369 68.616 4.244-3.228.093-60.408-3.968-4.98zm-90.803 106.428l-.369-39.656 65.702-.185-.369 39.011-64.964.83z" fill="#F7CE66"/><path fill-rule="evenodd" clip-rule="evenodd" d="M387.292 253.62l-65.702.185 4.06-2.398 57.582-.093 4.06 2.306z" fill="#F8E49C"/><path fill-rule="evenodd" clip-rule="evenodd" d="M435.83 289.404l6.275.645-27.684 9.315-6.275-.553 27.684-9.407z" fill="#F9F9F9"/><path fill-rule="evenodd" clip-rule="evenodd" d="M408.055 340.128l6.367 1.014v-41.778l-6.275-.553-.092 41.317zm-46.969-105.783l.369-45.744 9.689-.277v46.021h-10.058zm75.667 52.015l4.245-1.014-.553-30.435-4.338.461.646 30.988z" fill="#F9F9F9"/><path fill-rule="evenodd" clip-rule="evenodd" d="M416.636 252.421v-.738l23.808 3.228-4.337.461-19.748-2.766.277-.185zm-112.763 31.357l2.86.922-.369-30.434-2.768-.738.277 30.25zm20.024-31.265l-1.661.923-15.872.83-2.768-.738 20.301-1.015zm28.882 1.199h4.799v27.576h-4.706l-.093-27.576zm0 0h4.799l-.738-2.398h-4.061v2.398zm-1.659 40.672l-3.045-.83-.462 36.613 2.861 1.384.646-37.167z" fill="#F9F9F9"/><path fill-rule="evenodd" clip-rule="evenodd" d="M354.441 293.093l14.396-.185-17.718 1.476-3.045-.83 6.367-.461zm31.745 1.752l-3.599.369-.185 38.919 3.691-.553.093-38.735zm-10.889-2.029l4.152-.092 6.737 2.121-3.599.369-7.29-2.398zm-45.403.553l.462 1.291-64.78 1.107 1.292-1.291 63.026-1.107z" fill="#F9F9F9"/><path d="M273.517 302.796l-2.167 8.87 13.268 3.237 2.167-8.87-13.268-3.237zm66.713-42.72h-13.103v8.023h13.103v-8.023z" fill="#F9F9F9"/><path fill-rule="evenodd" clip-rule="evenodd" d="M431.493 307.295l-11.442-1.291v7.563l11.442 1.199v-7.471z" fill="#F9F9F9"/><path fill-rule="evenodd" clip-rule="evenodd" d="M447.089 342.987c-2.03-.093-4.799-.185-6.921-.277-2.123-.092-3.507-.185-4.799-.369-1.292-.184-2.491-.277-3.137-.461-.738-.092-.923-.185-1.107-.277-.185-.092-.277-.184-.277-.184v2.674l1.015.185c1.015.184 3.137.645 7.197 1.199 4.061.461 10.059 1.014 16.149 1.106 6.091.093 12.181-.184 16.518-.553 4.337-.369 6.921-.83 8.305-1.107 1.384-.276 1.569-.461 1.569-.553.092-.092.092-.092.092-.553v-1.845c0-.461 0-.461-.092-.461-.092.092-.185.184-.462.277-.276.092-.738.184-1.291.368-.646.093-1.385.185-2.677.369-1.199.093-2.952.277-4.614.369-1.661.093-3.229.185-5.075.277-1.845.092-3.875.092-5.906.184-2.122 0-4.244.093-5.905.093h-4.153c-1.2-.369-2.491-.369-4.429-.461z" fill="#141515"/><path fill-rule="evenodd" clip-rule="evenodd" d="M456.131 343.171c14.026 0 25.469-.83 25.469-1.845 0-1.014-11.443-1.844-25.469-1.844-14.026 0-25.469.83-25.469 1.844 0 1.015 11.443 1.845 25.469 1.845z" fill="#080902"/><path fill-rule="evenodd" clip-rule="evenodd" d="M434.723 172.646c-.646.277-.646.277-1.569 4.796a3102.192 3102.192 0 00-3.691 17.984c-.923 4.519-.923 4.703-.83 4.795 0 .093 0 .093.277.185.276.092.83.369 2.122.738 1.384.369 3.507.922 8.951 1.199 5.444.276 14.026.369 21.224.184 7.198-.184 12.919-.645 16.333-1.014 3.322-.369 4.337-.738 4.891-.923l.461-.184-.553-4.704-2.215-18.814c-.554-4.703-.554-4.703-.923-4.795-.369-.185-1.107-.461-2.953-.738-1.845-.277-4.706-.646-8.951-.83-4.244-.185-9.966-.369-15.133-.185-5.168.185-9.782.554-12.642 1.107-2.953.369-4.245.922-4.799 1.199z" fill="#FDE742"/><path fill-rule="evenodd" clip-rule="evenodd" d="M445.059 198.93c-2.492.093-5.352.277-7.844.461-2.491.185-4.614.369-5.721.462-1.107.092-1.292.184-.83.461.461.184 1.568.553 3.229.83 1.661.276 3.876.461 6.368.645 2.491.093 5.259.185 8.212.277 2.861.092 5.906.092 9.69 0 3.691-.092 8.212-.277 11.903-.461 3.692-.185 6.829-.553 8.675-.738 1.937-.184 2.676-.369 2.952-.553.277-.185.185-.277-.276-.461-.462-.185-1.292-.277-3.876-.462-2.584-.184-6.736-.368-11.35-.461-4.522-.092-9.413-.092-12.919-.092-3.599-.092-5.722 0-8.213.092z" fill="#080902"/><path fill-rule="evenodd" clip-rule="evenodd" d="M456.962 263.211v-61.514l.276-.184a8.77 8.77 0 001.2-1.015 4.4 4.4 0 00.738-1.475l.093-.277h-6.737c-.184 0-.184 0-.184.184.092.185.184.646.461 1.107.277.461.738.83 1.107 1.107.369.276.554.369.646.369l.093.092v139.814h2.214v-13.742c.093-13.742.093-41.225.093-64.466z" fill="#141515"/><path fill-rule="evenodd" clip-rule="evenodd" d="M320.576 339.39l18.178.369-1.476-34.032-18.087.093 1.385 33.57zm30.82-1.107l18.086-.646-1.384-32.924-18.086.83 1.384 32.74z" fill="#929293"/><path fill-rule="evenodd" clip-rule="evenodd" d="M370.681 299.917c-2.768 2.675-4.891 4.796-6.367 6.364-19.378-2.121-41.433-3.044-66.164-2.767 2.307-2.213 6.552-4.15 12.643-5.718 35.711.277 55.643 1.015 59.888 2.121z" fill="#DBB158"/><path fill-rule="evenodd" clip-rule="evenodd" d="M370.406 354.054c-4.06 5.81-5.721 7.47-5.721 7.47-.646-18.814-.739-35.968-.37-55.243 2.031-2.214 4.153-4.243 6.368-6.364.092 36.522-.277 54.137-.277 54.137z" fill="#DBB158"/><path fill-rule="evenodd" clip-rule="evenodd" d="M364.315 306.281c-.37 16.232-.277 33.293.369 55.243-38.757-.553-66.902-2.306-66.902-2.306-.369-28.59-.185-47.127.369-55.704a565.22 565.22 0 0166.164 2.767z" fill="#F7CE66"/><path fill-rule="evenodd" clip-rule="evenodd" d="M307.655 300.471c-.277 0-.462-.277-.462-.554 0-.276.185-.553.462-.553 9.597-.277 19.194-.185 28.975.184 9.782.369 19.655 1.107 29.622 2.122.276 0 .461.276.461.645 0 .277-.277.553-.461.553-9.967-1.014-19.84-1.752-29.622-2.121a380.73 380.73 0 00-28.975-.276z" fill="#FBD16B"/><path fill-rule="evenodd" clip-rule="evenodd" d="M325.65 303.698c3.322.093 6.552.277 9.505.369.369-.368-.092 24.163 0 33.939 0 0-9.412-.368-9.874-.368 0 0 .185-11.252.369-33.94z" fill="#F9F9F9"/><path fill-rule="evenodd" clip-rule="evenodd" d="M335.155 304.067c-6.367-.276-9.505-.369-9.505-.369 5.722-3.781 8.675-5.625 8.675-5.625 4.152.092 6.182.092 6.182.092-3.506 3.966-5.352 5.902-5.352 5.902z" fill="#E1E2E1"/><path fill-rule="evenodd" clip-rule="evenodd" d="M285.878 325.371c-.461 3.69-1.384 10.238-1.753 13.65-.462 3.412-.462 3.597-2.307 3.966-1.846.368-5.629.737-8.859.737-3.23-.092-5.813-.645-7.198-1.014-1.384-.277-1.568-.369-2.122-3.689-.554-3.412-1.384-10.053-1.846-13.465-.461-3.32-.461-3.32-.461-3.689 0-.369 0-1.015.831-1.383.83-.369 2.399-.369 6.09-.369 3.599 0 9.32-.093 12.642-.185 3.414 0 4.522 0 5.075.369.462.461.369 1.291-.092 5.072z" fill="#F9F9F9"/><path fill-rule="evenodd" clip-rule="evenodd" d="M288.369 321.867a33.33 33.33 0 01-5.168 1.014c-2.399.277-5.536.461-8.582.461-3.045 0-6.09-.092-8.674-.368-2.584-.277-4.798-.646-5.998-.923-1.199-.276-1.476-.369-1.661-.461-.184-.092-.184-.276-.184-1.014v-2.951c0-.738 0-.738 1.568-1.107 1.569-.369 4.614-1.015 9.228-1.291 4.614-.277 10.704-.093 14.396.092 3.783.277 5.167.645 5.905.922.739.185.739.277.739 1.107s0 2.398-.093 3.228c-.092.922-.461 1.014-1.476 1.291z" fill="#CBCCCD"/><path fill-rule="evenodd" clip-rule="evenodd" d="M286.616 317.809c-1.384.277-4.152.553-7.566.646-3.415.184-7.29.276-10.428.184-3.137-.092-5.444-.184-6.828-.369-1.385-.184-1.754-.277-1.662-.461 0-.092.37-.277 1.754-.553 1.384-.277 3.691-.738 7.474-.83 3.784-.185 9.044-.093 12.366.092 3.322.092 4.706.277 5.536.461.646.184.646.553-.646.83z" fill="#080902"/><path fill-rule="evenodd" clip-rule="evenodd" d="M261.609 284.885c1.846 1.014 3.599 2.121 5.075 3.596 1.477 1.476 2.676 3.413 3.322 5.165.646 1.844.831 3.505.739 5.165-.093 1.567-.37 3.135-.554 3.873-.185.738-.277.738-1.846-.184-1.568-.923-4.614-2.675-7.013-4.888-2.307-2.214-3.875-4.796-4.706-7.471-.83-2.582-.83-5.164-.83-6.455 0-1.292-.093-1.384.83-1.015 1.015.461 3.045 1.291 4.983 2.214z" fill="#5DC94C"/><path fill-rule="evenodd" clip-rule="evenodd" d="M289.292 290.603c-2.307.83-5.721 2.028-8.028 4.057-2.307 2.029-3.599 4.796-4.06 7.286-.462 2.583-.185 4.888 0 6.087.184 1.199.277 1.199 2.399.277 2.122-.83 6.367-2.583 9.043-5.073 2.676-2.49 3.876-5.81 4.614-8.3.646-2.49.831-4.242.923-5.072.092-.83.092-.83-.554-.646-.738.092-2.03.553-4.337 1.384z" fill="#4AAB3C"/><path fill-rule="evenodd" clip-rule="evenodd" d="M273.513 266.716a34.241 34.241 0 012.676 4.058c.831 1.476 1.661 3.136 2.03 4.704.462 1.567.462 3.227.462 4.611 0 1.383-.093 2.49-.462 4.058-.369 1.568-.922 3.597-1.199 4.611-.277 1.014-.277 1.014-.369 1.014 0 0-.093 0-1.569-1.752-1.477-1.752-4.43-5.257-5.814-8.485-1.384-3.227-1.107-6.086-.646-8.669.462-2.582 1.2-5.072 1.569-6.271.369-1.199.369-1.199.831-.646.553.461 1.568 1.568 2.491 2.767z" fill="#5DC94C"/><path fill-rule="evenodd" clip-rule="evenodd" d="M272.867 271.788v.093c.923 4.426 1.846 8.946 2.492 12.081.277 1.66.553 2.859.738 4.058.185 1.199.369 2.306.646 3.689.184 1.384.461 2.859.646 4.611.184 1.753.461 3.689.646 5.903.369 4.334.646 9.591 1.015 14.848h.369c-.277-5.257-.554-10.514-1.015-14.848-.185-2.214-.461-4.15-.646-5.903-.185-1.752-.461-3.32-.646-4.611-.185-1.383-.369-2.49-.646-3.689-.184-1.199-.461-2.49-.738-4.058-.646-3.135-1.569-7.655-2.492-12.081v-.093h-.369z" fill="#509663"/><path fill-rule="evenodd" clip-rule="evenodd" d="M291.968 292.078c-1.845 1.66-3.598 3.228-5.259 4.888-1.661 1.66-3.23 3.228-4.614 4.888-1.385 1.66-2.492 3.228-3.415 4.796a70.36 70.36 0 00-2.307 4.242 31.79 31.79 0 00-1.476 3.412 43.383 43.383 0 00-.831 2.214l-.369 1.014.277.093.369-1.015c.185-.461.462-1.199.831-2.121.369-.922.83-2.121 1.476-3.32.646-1.291 1.384-2.767 2.307-4.243.923-1.475 2.03-3.135 3.414-4.703 1.292-1.568 2.861-3.228 4.614-4.888 1.661-1.66 3.507-3.228 5.26-4.888l-.277-.369zm-32.665-5.349c.923 1.014 1.753 2.029 2.676 3.136.923 1.106 1.753 2.305 2.676 3.596a53.21 53.21 0 012.676 4.52c.83 1.475 1.476 3.043 2.122 4.519.554 1.567 1.015 2.951 1.385 4.426.369 1.384.553 2.675.738 3.966.369 2.49.369 4.611.461 6.825h.369c-.092-2.214-.184-4.335-.461-6.825-.185-1.291-.369-2.582-.738-3.966a58.895 58.895 0 00-1.385-4.426c-.553-1.476-1.291-3.044-2.122-4.612a52.927 52.927 0 00-2.676-4.519 40.644 40.644 0 00-2.676-3.597c-.923-1.106-1.753-2.121-2.676-3.135l-.369.092z" fill="#509663"/><path fill-rule="evenodd" clip-rule="evenodd" d="M424.021 352.947c1.938 0 3.599-1.568 3.599-3.597s-1.569-3.597-3.599-3.597c-1.938 0-3.599 1.568-3.599 3.597s1.569 3.597 3.599 3.597zm-8.121 0c1.937 0 3.598-1.568 3.598-3.597s-1.568-3.597-3.598-3.597c-1.938 0-3.599 1.568-3.599 3.597s1.661 3.597 3.599 3.597zm27.037 0c1.938 0 3.599-1.568 3.599-3.597s-1.569-3.597-3.599-3.597c-2.03 0-3.599 1.568-3.599 3.597s1.661 3.597 3.599 3.597zm8.213 0c1.937 0 3.599-1.568 3.599-3.597s-1.569-3.597-3.599-3.597c-1.938 0-3.599 1.568-3.599 3.597s1.569 3.597 3.599 3.597z" fill="#403E32"/><path fill-rule="evenodd" clip-rule="evenodd" d="M412.947 275.201h40.971c4.061 0 7.383 3.32 7.383 7.378v59.301c0 4.058-3.322 7.378-7.383 7.378h-40.971c-4.061 0-7.383-3.32-7.383-7.378v-59.301c0-4.058 3.322-7.378 7.383-7.378z" fill="#4F4D3E"/><path d="M452.257 343.632h-37.558v5.534h37.558v-5.534z" fill="#E8E4BE"/><path d="M416.453 290.418h-2.584v51.277h2.584v-51.277zm7.197 0h-2.584v51.277h2.584v-51.277zm7.383 0h-2.584v51.277h2.584v-51.277zm7.566 0h-2.583v51.277h2.583v-51.277zm6.737 0h-2.584v51.277h2.584v-51.277zm7.383 0h-2.584v51.277h2.584v-51.277zm-28.053-18.537h-4.061v3.32h4.061v-3.32zm21.871 0h-4.06v3.32h4.06v-3.32z" fill="#403E32"/><path d="M424.205 236.189h-3.322v35.599h3.322v-35.599zm21.963 0h-3.322v35.599h3.322v-35.599z" fill="#E8E4BE"/><path fill-rule="evenodd" clip-rule="evenodd" d="M422.544 227.52h22.055c1.199 0 2.214 1.015 2.214 2.214v6.548h-4.429v-4.335h-17.533v4.335h-4.429v-6.548c-.092-1.199.923-2.214 2.122-2.214z" fill="#141515"/><path fill-rule="evenodd" clip-rule="evenodd" d="M406.303 343.54c-.092.092-.184.092-.277 0-.092-.092-.092-.185 0-.277l5.076-4.98V282.21l-3.968-3.781c-.093-.093-.093-.185 0-.277.092-.092.184-.092.276 0l4.061 3.781.092.093v56.165s0 .092-.092.092l-5.168 5.257zm54.351 0c.093.092.185.092.277 0 .093-.092.093-.185 0-.277l-5.075-4.98V282.21l3.968-3.781c.092-.093.092-.185 0-.277-.092-.092-.185-.092-.277 0l-4.06 3.781-.092.093v56.165s0 .092.092.092l5.167 5.257z" fill="#403E32"/><path fill-rule="evenodd" clip-rule="evenodd" d="M127.805 228.074c-.276-1.199-1.015-2.398-1.384-3.966s-.461-3.412-.553-4.427c0-.922 0-.922-.739-1.014-.738-.093-2.122-.185-3.968-.646-1.845-.461-4.152-1.291-6.459-2.306-2.215-1.014-4.337-2.121-5.445-2.49-1.107-.461-1.107-.184-1.015.83 0 1.015.093 2.675.093 4.704-.093 2.029-.277 4.334-.554 5.81-.277 1.568-.646 2.306-.738 2.859-.093.646.092 1.199 1.015 2.582.83 1.384 2.399 3.689 3.968 5.257 1.476 1.568 2.953 2.49 4.706 3.136 1.753.645 3.876.922 5.444.83 1.569-.092 2.584-.646 3.415-1.937.83-1.291 1.568-3.412 2.03-5.072.369-1.66.554-2.951.184-4.15z" fill="#FFAF69"/><path fill-rule="evenodd" clip-rule="evenodd" d="M111.749 227.981c1.2 1.476 2.307 2.767 3.506 3.966a14.801 14.801 0 003.692 2.675c1.107.553 2.03.737 2.953.276.83-.461 1.753-1.568 2.491-3.412.738-1.937 1.384-4.611 1.753-5.995.369-1.383.369-1.383 1.2-.553.923.83 2.676 2.398 6.644 4.242 3.968 1.845 10.058 3.966 14.211 5.349 1.199.369 5.444 1.937 6.275 2.029 8.582.646 17.994 25.916 21.593 29.789 4.614 4.98 9.505-2.49 11.535 1.568 2.03 4.058 2.307 7.286 1.938 10.422-.37 3.043-1.292 5.994-3.23 8.484s-4.983 4.704-8.028 5.257c-.739.092-1.477.185-2.123.092 1.2 8.024 1.015 14.849-.738 18.538-1.846 3.689-5.444 4.058-9.228 4.334-3.783.277-7.659.461-13.288.554-5.629.184-12.919.369-20.947.461-8.121.092-16.979.184-23.531.184s-10.797-.184-13.104-.184c-2.307-.092-2.676-.185-2.86-1.937-.277-1.845-.462-5.349-.738-9.223-.277-3.873-.646-8.023-1.385-11.62-.738-3.505-1.845-6.456-2.676-7.839-.83-1.476-1.476-1.568-2.86-1.845-1.385-.276-3.507-.83-6.275-1.752-2.769-.922-6.09-2.121-7.936-2.951-1.938-.83-2.307-1.199-2.676-1.66-.277-.461-.462-1.015.092-5.534s1.938-12.911 3.507-18.814c1.568-5.902 3.23-9.314 4.244-11.067 1.015-1.844 1.477-2.029 4.337-3.135 2.861-1.107 8.029-2.952 12.643-5.257 4.614-2.306 8.674-4.98 11.073-6.641 2.399-1.66 3.322-2.305 3.783-2.674.462-.369.462-.369 1.108.461.553.461 1.845 1.937 3.045 3.412z" fill="#4AAB3C"/><path fill-rule="evenodd" clip-rule="evenodd" d="M122.73 233.515c-.738 1.107-1.2 1.291-1.477 1.476-.369.092-.553.092-1.568-.554-1.015-.645-2.769-2.029-4.891-3.966-2.03-1.936-4.337-4.334-5.629-5.533-1.292-1.199-1.476-1.199-2.307-.738-.83.461-2.399 1.199-3.23 1.752-.83.554-.83.83-.369 2.49.462 1.661 1.569 4.52 2.861 7.286 1.292 2.767 2.86 5.534 4.06 7.102 1.2 1.568 1.938 1.936 2.861 1.66.922-.277 2.03-1.199 3.322-2.583 1.384-1.475 2.953-3.412 3.875-4.426.923-1.015 1.108-1.015 2.492 0 1.384.922 3.968 2.859 5.906 3.965 1.938 1.107 3.137 1.291 3.968 1.199.83-.092 1.107-.369 1.199-1.66.093-1.291-.184-3.597-.277-5.718-.092-2.213-.092-4.242 0-5.441 0-1.199 0-1.476-.276-1.845-.277-.369-.923-.737-2.03-1.383-1.2-.646-2.953-1.568-3.876-1.845-.923-.276-1.015 0-1.2.738-.184.738-.461 1.937-1.107 3.505-.646 1.475-1.569 3.412-2.307 4.519z" fill="#5DC94C"/><path fill-rule="evenodd" clip-rule="evenodd" d="M142.109 256.479c-.184 6.087-.184 13.096-.276 16.877-.093 3.782-.277 4.243-.554 4.612-.277.276-.738.461-3.968.553-3.23.092-9.228.184-14.857.461-5.629.185-10.889.553-13.565.738-2.676.184-2.86.184-3.599-4.15-.646-4.335-1.845-13.004-3.414-20.382-1.569-7.378-3.414-13.557-4.43-17.154-1.014-3.597-1.291-4.611-1.476-5.349-.184-.646-.369-1.015-.553-1.107-.185-.092-.37 0-.554.185-.185.184-.37.369-.83.553-.462.184-1.016.369-1.662.553-.646.093-1.2.185-1.568.277-.37.092-.554.184-.646.461-.093.185 0 .461 1.2 5.165 1.199 4.703 3.506 13.926 4.798 24.716 1.2 10.791 1.384 23.241 1.384 30.711 0 7.471-.092 9.961-.277 11.713-.184 1.752-.369 2.767-1.292 3.228-.923.461-2.4.369-3.137.83-.739.369-.646 1.291-.646 1.752 0 .461 0 .461-.462 3.044-.461 2.582-1.476 7.747-2.399 15.401-.923 7.655-1.66 17.892-2.122 34.308-.37 16.416-.462 39.196-2.03 63.359-1.661 24.163-4.891 49.894-6.46 63.082-1.476 13.188-1.292 13.834-.923 14.203.37.369.923.369 4.891.646 3.876.276 11.166.83 14.857.922 3.691.092 3.783-.185 4.891-6.64 1.107-6.456 3.322-18.999 5.905-30.435 2.584-11.436 5.722-21.765 8.398-37.812 2.676-16.14 5.075-37.997 6.367-49.802 1.292-11.713 1.661-13.281 2.03-14.203.369-.83.646-.922.738.092.093 1.107-.184 3.321.37 17.984.553 14.664 1.937 41.686 3.137 63.544 1.2 21.949 2.215 38.735 2.676 47.68.554 8.854.554 9.776.461 10.791 0 1.014-.092 2.121 2.215 1.936 2.307-.184 7.013-1.844 10.797-3.32 3.783-1.475 6.644-2.951 8.212-3.689 1.569-.737 1.661-.83 1.846-1.014.185-.185.369-.369.461-6.087.093-5.718.093-16.97.739-36.89.646-19.921 1.845-48.419 2.307-68.985.369-20.566-.093-33.109-1.2-45.375-1.107-12.358-2.953-24.44-4.337-39.011-1.384-14.572-2.399-31.634-2.861-43.715-.461-12.082-.369-19.183-.369-22.964.092-3.781.092-4.15-.184-4.427-.277-.185-.739-.277-1.477-.461-.646-.185-1.384-.461-2.122-.738-.738-.277-1.384-.553-1.846-.553-.461 0-.738.276-.83.461-.093.184-.093.369-.185 1.568s-.184 3.32-.461 7.009c-.462 3.504-.923 8.761-1.108 14.848z" fill="#101E25"/><path fill-rule="evenodd" clip-rule="evenodd" d="M138.325 365.858c-1.015 2.952-2.861 7.84-4.245 11.16-1.384 3.32-2.307 5.072-3.045 7.747-.646 2.674-1.108 6.179-1.754 8.669-.645 2.49-1.661 3.873-2.122 4.611-.461.738-.461.738-.646-2.951-.184-3.689-.461-11.067-.554-16.047-.184-4.98-.184-7.655-.276-9.315-.093-1.66-.185-2.213-.185-2.582 0-.277 0-.277 1.015-.646s3.138-1.107 4.983-2.121c1.846-.922 3.414-2.121 4.614-3.044 1.2-.922 1.938-1.567 2.492-1.567.553 0 .83.645.83 1.475.185.83-.092 1.753-1.107 4.611zm-8.489-49.893c3.23 0 6.828-.093 8.674-.093 1.846 0 1.846 0 1.846 1.753.092 1.752.184 5.256.276 7.931.093 2.675.185 4.427 0 5.349-.092.922-.369 1.107-3.691 1.383-3.322.277-9.597.554-14.58.738-4.89.185-8.397.092-10.519-.092-2.123-.184-2.861-.369-3.23-.738-.369-.369-.462-.83-.462-3.597 0-2.674.093-7.562.093-10.052v-2.49h11.996c3.599 0 6.367 0 9.597-.092zm-31.56.092c.092-.369-.185-.738-.554-.738-.369-.092-.738.184-.738.553-.83 5.534-1.753 10.975-2.491 16.878-.83 5.902-1.57 12.266-2.215 19.459-.646 7.47-1.292 15.863-1.938 25.823-.646 9.223.092 27.668-.923 40.211-2.03 26.192-6.736 52.753-9.966 87.06v.093c0 .369.277.645.646.737.37 0 .646-.276.738-.645v-.092c3.23-34.493 7.844-61.146 9.966-87.061 1.016-12.543.277-30.988.923-40.211.646-9.96 1.292-18.352 1.938-25.73a382.943 382.943 0 012.215-19.368c.646-6.087 1.569-11.528 2.399-16.969zm59.428 183.805c.184 1.199.092 3.412.092 4.98 0 1.66-.092 2.675-.092 3.505-.092.83-.185 1.291-.831 2.029-.738.738-2.03 1.66-3.875 2.398-1.846.737-4.245 1.291-6.552 1.66-2.307.276-4.429.369-6.367.276-2.03-.092-3.968-.369-5.537-.645-1.569-.277-2.768-.646-3.322-1.291-.554-.646-.554-1.66-.554-2.767.093-1.107.185-2.49.093-3.689-.093-1.291-.277-2.49-.185-3.32.092-.83.646-1.291 1.661-1.384 1.015-.092 2.584.185 5.444.185 2.861 0 7.014-.369 10.059-1.015 3.045-.553 4.983-1.383 6.367-1.844 1.384-.461 2.122-.646 2.584-.554.553 0 .923.185 1.015 1.476z" fill="#080902"/><path fill-rule="evenodd" clip-rule="evenodd" d="M102.89 504.935c-.369 1.475-1.015 3.504-1.292 4.98-.277 1.383-.092 2.305-.184 2.951 0 .645-.185 1.107-1.938 1.568-1.661.461-4.891.83-9.044.461-4.152-.369-9.228-1.476-11.996-2.398-2.86-.922-3.414-1.568-3.876-2.213-.46-.646-.738-1.199-.738-2.306s.277-2.767.554-4.242c.277-1.568.461-2.952.923-3.782.461-.83 1.015-1.106 1.845-1.014.83.092 1.846.645 3.6 1.199 1.66.553 3.967 1.107 6.736 1.568 2.768.369 5.905.645 8.581.553 2.676-.092 4.891-.369 5.998-.092 1.2.276 1.2 1.291.831 2.767z" fill="#080902"/><path fill-rule="evenodd" clip-rule="evenodd" d="M122.084 218.205c1.015.185 2.031.369 2.584.554.646.276.923.553 1.015 1.199.185.645.277 1.66.369 2.398.093.737.185 1.199-.184 1.66-.369.461-1.107.83-2.399.922-1.2.184-2.861.092-4.891-.461-1.938-.554-4.245-1.568-5.998-2.49-1.754-.923-3.138-1.753-3.784-2.214-.646-.461-.646-.461-.646-.922v-4.98c0-.185.093-.461.462-.369.461.092 1.292.646 3.137 1.383 1.846.738 4.614 1.66 6.46 2.306 2.03.553 2.953.83 3.875 1.014z" fill="#FF9E69"/><path fill-rule="evenodd" clip-rule="evenodd" d="M100.861 202.066c.369.184.369.184.83 1.66.462 1.568 1.384 4.611 2.307 6.64 1.015 2.029 2.03 3.044 4.245 4.612 2.122 1.567 5.444 3.689 8.213 4.795 2.768 1.199 5.075 1.384 6.552 1.476 1.476.092 2.214 0 3.783-.646 1.569-.737 4.06-2.121 6.183-4.15 2.122-2.029 4.06-4.796 4.983-6.732.922-1.937 1.015-3.136 1.199-5.81.185-2.583.554-6.733 1.015-11.713.462-4.98 1.015-10.883 1.292-14.48.277-3.596.185-4.887-.553-6.64-.739-1.752-2.123-3.873-5.629-6.087-3.599-2.213-9.321-4.519-14.211-4.795-4.891-.369-9.044 1.199-12.181 2.674-3.138 1.384-5.26 2.675-6.552 4.058-1.292 1.383-1.845 2.951-2.307 4.611a44.102 44.102 0 00-1.107 5.257c-.37 1.845-.646 3.689-1.2 5.257a19.621 19.621 0 01-1.66 3.412c-.462.738-.555 1.199-.739 1.476-.185.277-.37.369-.646.646-.277.276-.646.83-.923 2.029-.184 1.199-.277 3.135.093 4.703.369 1.568 1.107 2.859 1.937 3.966.83 1.106 1.938 2.121 2.769 2.767 1.107.461 1.845.83 2.307 1.014z" fill="#FFAF69"/><path fill-rule="evenodd" clip-rule="evenodd" d="M125.775 193.95a.63.63 0 00-.645-.645.63.63 0 00-.646.645c-.093.922-.185 1.937.276 2.859.185.461.554.922.923 1.291.369.369.738.738 1.108 1.015.184.184.461.369.645.461.37.277.646.461.739.646.092.092.184.276.184.368.093.093.093.277.093.462v.276c0 .092-.093.185-.093.277l-.277.277c-.184.092-.369.276-.553.369-.369.184-.831.368-1.292.553-.369.092-.554.553-.369.83.092.369.553.553.83.369l1.384-.554c.277-.092.554-.276.739-.461.184-.184.369-.276.553-.461v-.092c.185-.184.277-.461.369-.738.093-.277.093-.461.093-.738 0-.276-.093-.553-.185-.83-.092-.276-.277-.461-.461-.737-.277-.277-.554-.554-1.015-.831-.185-.092-.369-.276-.554-.461-.277-.276-.646-.553-.923-.83a6.422 6.422 0 01-.738-.922c-.277-.646-.185-1.383-.185-2.121v-.277z" fill="#F46F2D"/><path fill-rule="evenodd" clip-rule="evenodd" d="M137.402 185.281c-.646-.461-1.938-.922-3.137-1.107-1.2-.184-2.215-.276-3.23-.184-1.015.092-1.938.277-2.492.553-.553.277-.83.738-.83 1.107s.184.738.738.922c.554.185 1.292.185 2.123.185h2.306c.831.092 1.754.276 2.4.369.646.184 1.015.276 1.568.184.462 0 1.016-.277 1.292-.646-.092-.369-.092-.922-.738-1.383zm-19.285-1.476a.877.877 0 00-.369-.922c-.277-.184-.738-.277-1.569-.184-.83.092-2.122.276-3.414.737-1.292.462-2.584 1.015-3.507 1.661-.83.645-1.199 1.198-1.199 1.66.092.461.553.922 1.015.922.461 0 1.015-.461 1.753-.83.738-.461 1.753-.922 2.584-1.291.923-.277 1.753-.461 2.399-.461.646-.093 1.2 0 1.569-.277.461-.185.646-.646.738-1.015z" fill="#211F17"/><path fill-rule="evenodd" clip-rule="evenodd" d="M134.633 192.013c.185.646.277 1.292.185 2.029-.092.738-.369 1.476-.646 2.029-.277.554-.646.923-.923 1.015-.369.184-.646.184-1.015-.092-.369-.185-.738-.646-1.015-1.199a4.285 4.285 0 01-.461-1.937c0-.738.092-1.476.277-2.029.184-.553.553-1.015 1.015-1.199a2.296 2.296 0 011.568 0c.462.277.831.738 1.015 1.383zm-17.624 0c.184.646.276 1.292.184 2.029-.092.738-.369 1.476-.646 2.029-.277.554-.646.923-.923 1.015-.369.184-.646.184-1.015-.092-.369-.185-.738-.646-1.015-1.199a4.285 4.285 0 01-.461-1.937c0-.738.092-1.476.277-2.029.184-.553.553-1.015 1.015-1.199a2.296 2.296 0 011.568 0c.462.277.831.738 1.016 1.383z" fill="#080902"/><path fill-rule="evenodd" clip-rule="evenodd" d="M105.106 193.305c0-1.66.092-4.335.369-6.825s.83-4.888 1.384-6.733c.554-1.844 1.292-3.135 2.122-3.689.831-.553 1.938-.184 3.507-.184 1.569.092 3.691-.092 5.352-.738 1.661-.645 2.861-1.752 3.599-2.674.738-.923 1.107-1.66 1.384-1.568.277.184.554 1.199 1.477 2.029.922.922 2.583 1.568 4.89 2.121 2.307.553 5.26.83 7.752.83 2.491 0 4.614-.184 6.275-.738 1.661-.553 2.952-1.475 3.875-2.859.923-1.383 1.661-3.135 1.938-4.888.369-1.752.369-3.412-.83-5.533-1.2-2.121-3.599-4.704-6.368-5.442-2.768-.737-5.905.369-7.659 1.107-1.661.738-1.938 1.107-2.399-.369-.461-1.475-1.107-4.796-4.891-6.548-3.783-1.752-10.704-1.937-15.872-.369-5.075 1.568-8.397 5.073-10.427 7.932-2.03 2.951-2.676 5.257-3.23 6.824-.553 1.476-.923 2.122-1.384 2.675-.461.553-.83.922-1.2 3.228-.276 2.305-.369 6.456-.276 9.499.092 2.951.461 4.796.553 5.626.185.922.185.922.646.83.462 0 1.477-.092 2.492.184.922.277 1.753 1.015 2.584 2.121.738 1.199 1.476 2.767 2.03 4.151.553 1.383.922 2.397 1.199 2.859.369.461.646.276.831-.093.277-.461.277-1.106.277-2.766z" fill="#080902"/><path fill-rule="evenodd" clip-rule="evenodd" d="M144.97 274.371c.184-13.557.369-13.65.092-13.742-.277-.092-.923-.369-6.46-1.937-5.628-1.567-16.148-4.426-21.408-5.902l-5.26-1.476-.092 14.388-.369 57.641c-.093 14.387-.093 14.387-.185 15.401a60.15 60.15 0 00-.184 4.243c0 1.199 0 1.66 4.06 3.965 3.968 2.398 11.904 6.641 17.256 9.315 5.352 2.675 8.12 3.597 9.505 4.058 1.384.461 1.384.461 1.568-2.582.185-3.136.462-9.315.738-26.008.277-16.693.554-43.807.739-57.364z" fill="#F7CE66"/><path fill-rule="evenodd" clip-rule="evenodd" d="M113.594 304.529c-1.107 1.752-1.846 2.951-3.045 3.689-1.2.737-2.861.922-6.367.184-3.507-.738-8.767-2.306-12.735-3.597-3.968-1.383-6.552-2.49-7.844-3.228-1.291-.737-1.384-1.014-1.384-1.66 0-.645.093-1.752.554-4.611.554-2.859 1.477-7.378 1.938-9.684.461-2.305.461-2.305.369-2.305-.092 0-.37-.093-1.107-.277-.83-.184-2.215-.553-3.6-.922-1.383-.369-2.768-.83-4.336-1.291-1.57-.554-3.415-1.199-4.337-1.568l-.923-.369-.185 3.504c-.184 3.505-.553 10.514-.646 16.232-.184 5.81-.092 10.329.093 12.819.184 2.491.461 2.767 2.583 3.69 2.123.83 5.999 2.305 11.997 3.227 5.998 1.015 14.118 1.476 18.64 1.937 4.521.369 5.352.646 5.998.922.646.369.923.738 1.938 2.122.923 1.383 2.399 3.781 3.599 5.164 1.199 1.476 2.122 1.937 2.768 2.121.646.277 1.107.185 1.384.277.277 0 .277.184.738.461.462.369 1.292.922 2.03 1.199.739.277 1.385.369 1.754.185.369-.185.553-.646.646-1.107.092-.369.092-.738.092-1.199 0-.461.092-1.107 0-1.66a3.031 3.031 0 00-.646-1.476c-.369-.461-1.015-1.014-1.661-1.568a27.417 27.417 0 01-1.569-1.475c-.369-.369-.369-.554-.092-.554s.831.093 1.384.185c.554.092 1.2 0 1.569-.277.369-.369.461-1.014.461-1.475-.092-.462-.277-.83-.738-1.384-.461-.553-1.2-1.199-2.03-2.674-.831-1.476-1.753-3.689-2.399-5.534-.646-1.844-1.015-3.32-1.2-4.427-.184-1.014-.184-1.66.369-2.674.554-1.015 1.569-2.398 2.215-3.413.554-1.014.738-1.567.738-2.305 0-.738-.184-1.568-.369-1.937s-.461-.277-.83-.092c-.37.184-.831.461-1.754 1.66-1.384 1.199-2.86 3.412-4.06 5.165z" fill="#FFAF69"/><path fill-rule="evenodd" clip-rule="evenodd" d="M80.743 282.118c1.938.553 3.137.83 3.691 1.014.554.185.554.185.554.277v.553c0 .185-.093.369-.554.646-.554.277-1.569.738-2.86.922-1.293.277-2.953.277-4.338.185-1.384-.093-2.584-.277-3.69-.554-1.108-.276-2.123-.553-2.585-.738-.461-.184-.461-.184-.461-1.106 0-.923.092-2.767.185-3.689 0-.923 0-.923.46-.738.37.184 1.2.461 3.046 1.107 1.753.737 4.614 1.567 6.552 2.121z" fill="#FF9E69"/><path fill-rule="evenodd" clip-rule="evenodd" d="M144.324 319.008c-.185 10.145-.554 24.993-.739 32.463-.184 7.471-.184 7.471-.184 7.747 0 .369-.092 1.015-.092 1.291 0 .277.092.185 9.412-1.291 9.32-1.383 27.96-4.058 37.373-5.533 9.32-1.384 9.32-1.568 9.32-1.753 0-.184 0-.368.369-16.323.277-15.955.923-47.681 1.2-63.636l.276-15.863-9.32.738c-9.32.738-28.052 2.213-37.465 2.951l-9.32.738-.092 6.179c-.092 6.179-.185 18.63-.277 27.576-.185 9.13-.185 14.571-.461 24.716z" fill="#DBB158"/><path fill-rule="evenodd" clip-rule="evenodd" d="M126.975 255.557c-5.536-1.568-10.335-2.859-12.734-3.505l-2.399-.645 9.228-.369c9.227-.369 27.775-1.107 37.003-1.384 9.228-.368 9.228-.369 9.505-.276.185.092.646.184 6.275 1.291 5.629 1.199 16.425 3.412 21.87 4.519l5.444 1.107-2.86.184c-2.861.185-8.49.646-17.902 1.383-9.32.738-22.424 1.753-28.976 2.214l-6.552.553-3.137-.922c-2.953-.83-9.228-2.582-14.765-4.15z" fill="#F7CE66"/><path fill-rule="evenodd" clip-rule="evenodd" d="M119.409 210.735c-.277-.184-.369-.553-.277-.83.185-.276.462-.461.738-.276.646.368 1.2.645 1.846.922.646.276 1.2.553 1.846.738.646.184 1.292.276 1.937.369.646 0 1.2 0 1.846-.185 1.2-.277 2.399-.922 3.507-1.66.276-.184.646-.092.83.277.185.276.092.645-.277.83-1.199.738-2.491 1.383-3.875 1.752-.646.184-1.385.184-2.123.184-.738 0-1.476-.184-2.214-.368-.739-.185-1.385-.462-2.031-.738-.461-.369-1.107-.738-1.753-1.015z" fill="#F46F2D"/><path fill-rule="evenodd" clip-rule="evenodd" d="M180.681 526.146c0-.83 0-2.305-.277-3.596-.277-1.199-.923-2.306-1.753-2.952-.831-.737-1.846-1.106-3.692-1.383-1.937-.277-4.798-.277-7.382-.553-2.584-.277-4.983-.738-6.736-1.476-1.846-.738-3.138-1.752-4.06-2.951-.923-1.107-1.569-2.398-1.938-3.228-.369-.83-.462-1.291-1.108-1.199-.646.184-1.753.922-3.229 1.568-1.477.645-3.23 1.107-5.168 1.475-1.938.277-4.06.369-5.721.369-1.661 0-3.045-.184-3.968-.276-.923-.093-1.384-.185-1.661 0-.185.184-.093.461-.185 2.582s-.277 5.995-.369 8.392c-.092 2.306 0 3.044 0 3.413 0 .369-.092.369-.092.369l7.751.184c7.844.185 23.439.461 31.375.554 7.844.092 8.028 0 8.028-.093.185-.092.185-.369.185-1.199z" fill="#080902"/><path fill-rule="evenodd" clip-rule="evenodd" d="M180.681 528.452v-2.213c0-.093 0-.093-7.844-.093-7.843 0-23.531.093-31.374.185h-7.844v.645c0 .646.092 1.845.185 2.49.092.646.092.646.184.738h7.475c7.29-.092 21.778-.184 29.344-.276h8.767c.553 0 .923 0 1.107-.277.092-.184 0-.646 0-1.199z" fill="#FBD16B"/><path fill-rule="evenodd" clip-rule="evenodd" d="M120.423 531.311c.092-.83.369-2.306.277-3.597-.093-1.291-.554-2.398-1.2-3.228-.646-.83-1.569-1.383-3.414-1.936-1.846-.554-4.614-1.107-7.106-1.845-2.491-.738-4.798-1.568-6.459-2.582a9.974 9.974 0 01-3.507-3.597c-.738-1.291-1.107-2.675-1.384-3.505-.184-.922-.277-1.383-.83-1.291-.646 0-1.846.554-3.415.923-1.568.368-3.322.553-5.352.553-1.938 0-4.06-.277-5.721-.553a25.102 25.102 0 01-3.784-.923c-.922-.276-1.384-.369-1.568-.276-.185.092-.185.461-.554 2.582-.369 2.121-1.292 5.902-1.753 8.208-.462 2.306-.554 3.043-.646 3.412-.093.369-.093.369-.185.369l2.4 1.107c2.491 1.014 7.382 3.136 15.133 4.611 7.66 1.476 18.087 2.306 23.347 2.767 5.259.369 5.444.369 5.536.184.093-.276 0-.461.185-1.383z" fill="#080902"/><path fill-rule="evenodd" clip-rule="evenodd" d="M120.054 533.617c.092-.554.184-1.107.277-1.476.092-.369.092-.553.092-.738 0-.092 0-.092-4.522-.553-4.521-.369-13.657-1.199-21.408-2.49a149.38 149.38 0 01-17.256-3.966l-3.138-.922-.184.83c-.185.83-.554 2.398-.646 3.228-.185.83-.093.922 0 .922.092 0 .184.092 2.03.369 1.845.369 5.444 1.014 8.213 1.752 2.768.738 4.798 1.476 10.242 2.121 5.445.646 14.304 1.107 19.102 1.476 4.799.369 5.445.461 5.906.646.554.092.923.184 1.107-.093.093-.092.093-.553.185-1.106z" fill="#FBD16B"/><path fill-rule="evenodd" clip-rule="evenodd" d="M145.338 250.484c-.184-.092-.369-.276-.276-.553.092-.184.276-.369.553-.277l26.023 8.485c.184.092.369.277.277.553-.093.185-.277.369-.554.277l-26.023-8.485z" fill="#DBB158"/><path fill-rule="evenodd" clip-rule="evenodd" d="M177.729 269.298l18.271-1.66v11.252l-18.271 2.767v-12.359z" fill="#E1E2E1"/><path fill-rule="evenodd" clip-rule="evenodd" d="M181.604 274.555c2.491-.184 7.198-.645 9.781-1.014 2.584-.277 3.046-.461 3.23-.646.277-.184.277-.553.185-.738-.093-.276-.185-.369-.646-.369-.462 0-1.2 0-3.691.277-2.492.277-6.737.738-9.044 1.015-2.214.276-2.491.369-2.583.553-.093.184-.185.553-.093.738.185.184.369.369 2.861.184zm1.937 3.228c1.846-.092 5.353-.553 7.29-.83 1.938-.277 2.215-.369 2.4-.645.184-.185.184-.554.184-.738 0-.277-.184-.369-.461-.369-.369 0-.923 0-2.768.276-1.846.185-5.076.646-6.737.831-1.661.276-1.845.276-1.938.461-.092.184-.184.553-.092.737.092.277.277.369 2.122.277z" fill="#3F3D2E"/></svg>