<svg width="330" height="166" fill="none" xmlns="http://www.w3.org/2000/svg"><g clip-path="url(#clip0_2_15580)"><path fill-rule="evenodd" clip-rule="evenodd" d="M64.436 137.761c.05 1.143.05 2.484.25 3.23.198.745.647.845 1.394.894.796.05 1.892 0 2.49.05.597.05.597.199.597.597 0 .447 0 1.143-.15 1.49-.099.398-.298.448-.697.597-.398.199-.946.497-1.195 1.043-.249.547-.199 1.243.2 1.74.398.447 1.145.646 2.29.696 1.195.049 2.839 0 10.308-.05 7.47-.05 20.765-.149 30.276-.447 9.511-.348 15.238-.945 21.213-1.64 5.976-.696 12.25-1.491 18.076-2.137 5.777-.646 11.055-1.094 16.483-1.094 5.428 0 11.005.547 14.092.845 3.088.298 3.685.447 6.822.497 3.088.05 8.665.05 11.454.05 2.788 0 2.838 0 2.838.397v1.591c0 .397.05.397 2.938.348l11.503-.199 2.888-.05v.646c0 .646.05 1.889.1 2.485.049.646.099.646.199.696.099.049.199.099 5.527-.199 5.328-.298 15.935-.895 26.641-1.988 10.706-1.093 21.512-2.584 27.986-3.28 6.473-.696 8.664-.547 10.059-.447 1.394.099 1.991.149 7.17-.05s14.889-.696 19.769-.894c4.88-.249 4.88-.249 4.432-.746-.448-.497-1.294-1.491-2.191-2.336-.896-.894-1.842-1.64-4.332-7.603-2.49-5.964-6.523-17.146-14.192-20.873-7.669-3.727-18.923 0-26.442 2.336-7.519 2.335-11.304 3.28-15.437 6.709-4.083 3.429-8.515 9.293-11.254 12.921-2.738 3.678-3.834 5.119-9.312 5.964-5.477.845-15.337 1.143-18.673-2.286-3.337-3.38-.15-10.486-4.034-14.164-3.884-3.678-14.889-3.926-34.658-1.789-19.769 2.137-48.352 6.709-67.374 8.846-19.022 2.187-28.434 1.988-34.708 1.839-6.225-.149-9.262-.249-11.005.199-1.743.447-2.241 1.341-2.39 2.335-.05 1.094.05 2.088.05 3.231z" fill="#24231D"/><path d="M196.596 0H0v119.025h196.596V0z" fill="#4AAB3C"/><path fill-rule="evenodd" clip-rule="evenodd" d="M170.154 139.5c20.516-.05 24.699-.05 26.79-.05h2.092l-.05-.497c-.05-.497-.199-1.54-.398-4.125a274.34 274.34 0 01-.548-9.74c-.149-2.883-.149-4.473-.149-5.268v-.795H15.337v1.143c0 1.143-.05 3.379-.05 4.522v1.243c0 .099-.05.347-.05 1.341-.049.945-.049 2.684-.099 3.529v.845H27.04s-.05 0-.05 1.342c0 1.341 0 4.025.05 5.367v1.54c0 .05.05.05 8.166.05 8.167 0 24.45 0 51.041-.099 26.492-.149 63.391-.298 83.907-.348z" fill="#36342B"/><path d="M198.339 123.398H6.772v7.902H198.34v-7.902z" fill="#4F4D3E"/><path d="M188.927 123.398h-44.468v22.562h44.468v-22.562z" fill="#4F4D3E"/><path fill-rule="evenodd" clip-rule="evenodd" d="M67.076 139.152l-.25.696h-2.34l.3-.895c.298-.894.846-2.733 2.24-5.168 1.394-2.435 3.635-5.467 5.577-7.654 1.942-2.186 3.536-3.528 4.83-4.572 1.345-1.043 2.39-1.789 2.938-2.137.548-.348.548-.348 2.69-.348h18.573c1.594 0 1.594 0 2.291.398.747.398 2.191 1.143 3.984 2.286 1.792 1.193 3.884 2.733 5.826 4.87 1.942 2.088 3.685 4.771 4.631 7.008.946 2.286 1.046 4.174 1.095 5.119l.05.944h-2.141l-.05-.597c-.05-.596-.199-1.789-.697-3.329-.498-1.541-1.394-3.479-2.291-5.02-.946-1.59-1.942-2.783-3.436-4.174-1.493-1.392-3.535-2.932-5.029-3.926-1.494-.994-2.39-1.392-2.888-1.591-.498-.198-.598-.149-3.884-.198-3.237 0-9.66-.05-12.897-.1H83.01l-.995.597c-.996.596-2.988 1.789-4.93 3.478-1.942 1.69-3.785 3.827-5.229 5.716-1.394 1.888-2.39 3.528-3.137 5.069a26.301 26.301 0 00-1.643 3.528z" fill="#24231D"/><path d="M92.422 165.641c11.881 0 21.512-9.345 21.512-20.873s-9.631-20.873-21.512-20.873c-11.88 0-21.512 9.345-21.512 20.873s9.631 20.873 21.512 20.873z" fill="#24231D"/><path d="M92.422 158.484c7.81 0 14.142-6.141 14.142-13.716 0-7.575-6.332-13.716-14.142-13.716s-14.142 6.141-14.142 13.716c0 7.575 6.331 13.716 14.142 13.716z" fill="#403E32"/><path fill-rule="evenodd" clip-rule="evenodd" d="M92.422 154.31c5.03 0 9.113-4.125 9.113-9.194 0-5.069-4.084-9.194-9.113-9.194-5.03 0-9.113 4.125-9.113 9.194 0 5.069 4.083 9.194 9.113 9.194z" fill="#737160"/><path d="M284.735 165.641c11.881 0 21.512-9.345 21.512-20.873s-9.631-20.873-21.512-20.873-21.512 9.345-21.512 20.873 9.631 20.873 21.512 20.873z" fill="#24231D"/><path d="M284.735 158.484c7.811 0 14.143-6.141 14.143-13.716 0-7.575-6.332-13.716-14.143-13.716-7.81 0-14.142 6.141-14.142 13.716 0 7.575 6.332 13.716 14.142 13.716z" fill="#403E32"/><path fill-rule="evenodd" clip-rule="evenodd" d="M284.735 154.31c5.03 0 9.113-4.125 9.113-9.194 0-5.069-4.083-9.194-9.113-9.194-5.029 0-9.112 4.125-9.112 9.194 0 5.069 4.083 9.194 9.112 9.194z" fill="#737160"/><path d="M190.769 5.914H5.229v106.849h185.54V5.914z" fill="#4F4D3E"/><path fill-rule="evenodd" clip-rule="evenodd" d="M5.229 112.763V5.914l19.968 8.598v79.714L5.229 112.763z" fill="#737160"/><path fill-rule="evenodd" clip-rule="evenodd" d="M5.229 112.763l19.968-18.537h146.899l18.673 18.537H5.229z" fill="#36342B"/><path fill-rule="evenodd" clip-rule="evenodd" d="M190.77 112.763V5.914l-18.674 8.598v79.714l18.674 18.537zm-.001-106.849H5.229l19.968 8.598h146.899l18.673-8.598z" fill="#737160"/><path fill-rule="evenodd" clip-rule="evenodd" d="M312.123 107.296c3.038-1.54 7.569-3.479 9.91-4.423 2.34-.944 2.39-.944 2.44-.944.049 0 .049 0 .547 1.391.498 1.392 1.494 4.125 2.241 6.958.747 2.833 1.245 5.715 1.544 7.206.249 1.441.299 1.441.398 1.541l.399.397c.099.1.099.149.149.746.1.596.249 1.789.299 3.479.05 1.739 0 3.975-.1 6.112-.099 2.137-.299 4.125-.647 5.765-.349 1.591-.797 2.833-1.643 3.976a10.066 10.066 0 01-3.685 3.081c-1.693.845-3.835 1.441-4.93 1.74-1.096.298-1.096.298-1.793.497-.697.198-2.091.646-3.436.844-1.344.199-2.739.15-3.436.1-.697-.05-.747-.05-.747-.1v-.447c0-.397.05-1.242 0-2.982-.049-1.739-.199-4.373-.697-6.858-.498-2.435-1.344-4.721-2.29-6.659-.947-1.938-1.992-3.479-3.138-4.771-1.145-1.243-2.39-2.187-3.137-2.734-.747-.546-.996-.745-1.145-.795-.149-.099-.149-.099.1-.298.199-.199.597-.596 1.792-2.137 1.146-1.54 3.088-4.274 4.781-6.212 1.643-1.839 3.187-2.932 6.224-4.473z" fill="#36342B"/><path fill-rule="evenodd" clip-rule="evenodd" d="M314.016 93.331c-.897-.497-2.092-1.093-3.436-1.789-1.345-.696-2.789-1.391-4.681-2.286a208.835 208.835 0 00-6.025-2.733l-4.034-1.79c-.847-.397-1.295-.546-1.643-.695-.349-.15-.648-.249-.946-.348a5.65 5.65 0 00-.747-.199c-.249-.05-.449-.1-.648-.1s-.398-.049-.498-.049c-.099 0-.099 0 4.084 2.336s12.548 7.057 17.03 9.94c4.482 2.882 5.079 3.876 6.125 4.621 1.046.746 2.589 1.243 3.535 1.69.996.447 1.395.795 1.843.894.398.1.797 0 .996-.049.199-.05.199-.05.099-.398a43.013 43.013 0 00-.398-1.342c-.1-.348-.1-.348-.149-.447-.05-.099-.15-.249-.249-.398-.1-.149-.199-.248-.399-.447-.199-.149-.448-.398-.946-.795-.498-.398-1.245-.895-2.091-1.491-.847-.596-1.843-1.193-2.639-1.69-.797-.497-1.445-.894-2.092-1.242a18.277 18.277 0 00-2.091-1.193z" fill="#fff"/><path fill-rule="evenodd" clip-rule="evenodd" d="M324.423 103.718c.797-.944.797-.944.697-1.342a16.58 16.58 0 00-.548-1.69c-.199-.496-.398-.745-1.444-1.59a53.92 53.92 0 00-5.677-3.777c-2.738-1.64-6.274-3.479-10.009-5.317a432.758 432.758 0 00-10.258-4.672c-2.49-1.093-3.485-1.54-4.282-1.789-.797-.248-1.345-.248-1.643-.248-.299 0-.299 0-1.445-.746-1.145-.745-3.386-2.187-6.124-4.324-2.739-2.137-5.926-5.02-10.856-9.194-4.88-4.224-11.503-9.79-16.134-13.666-4.631-3.877-7.37-6.113-9.86-7.803-2.49-1.64-4.83-2.683-8.565-3.33-3.734-.646-8.913-.894-14.939-.894-6.025 0-12.947.248-16.731.447-3.785.199-4.382.398-4.681.696-.299.298-.299.745-.398 7.057-.1 6.311-.299 18.487-.2 34.788.1 16.301.449 36.726.648 47.113s.199 10.784.299 11.132c.149.348.398.646.697.845.299.199.647.298.896.348.249.05.349.05 4.283.099 3.933.05 11.552.199 21.014.348 9.461.149 20.665.348 26.342.447 5.627.1 5.677.1 5.726.1.05 0 .1 0 .15-.448.05-.447.149-1.391.498-3.627.348-2.237 1.095-5.765 1.992-8.697.896-2.933 1.892-5.219 3.236-7.256 1.345-2.038 2.988-3.827 4.731-5.169 1.743-1.391 3.585-2.385 5.627-3.131 2.042-.745 4.233-1.192 6.673-1.341 2.44-.15 5.129.099 7.32.497 2.191.397 3.884.993 5.278 1.64a25.795 25.795 0 013.038 1.689l.547.348 2.192-1.342c2.191-1.342 6.573-4.025 9.909-6.162 3.336-2.137 5.627-3.727 7.619-5.467 1.892-1.69 3.535-3.628 4.382-4.572z" fill="#4AAB3C"/><path fill-rule="evenodd" clip-rule="evenodd" d="M293.749 94.971c2.091 1.392 5.726 4.225 7.618 6.063 1.893 1.839 2.042 2.634 1.942 3.181-.099.547-.448.845-1.244.895-.797.049-2.092-.1-9.512-1.74-7.419-1.64-20.964-4.82-33.861-7.802-12.947-2.982-25.247-5.715-31.621-7.355-6.374-1.59-6.772-2.038-7.121-2.634-.348-.597-.697-1.292-.647-1.889.05-.596.498-.994.747-1.242.249-.2.249-.2 10.706 1.143 10.507 1.391 31.472 4.125 42.676 5.665s12.648 1.938 13.893 2.435c1.245.497 2.241 1.143 3.037 1.491.797.348 1.295.348 3.387 1.79z" fill="#509663"/><path fill-rule="evenodd" clip-rule="evenodd" d="M227.818 84.386c3.984.696 10.507 1.69 18.823 2.982a2051.07 2051.07 0 0125.745 4.174c7.32 1.193 11.851 1.988 14.54 2.435 2.689.448 3.536.497 4.084.497.547 0 .747-.05.946-.149a.726.726 0 00.299-.447c.049-.199 0-.447-.05-.696-.05-.248-.199-.497-1.245-1.49-1.096-.995-3.137-2.784-8.515-7.555-5.378-4.77-14.093-12.523-20.168-17.84-6.075-5.319-9.511-8.2-11.752-9.94-2.29-1.74-3.436-2.286-4.78-2.883-1.394-.546-2.988-1.143-5.677-1.49-2.639-.398-6.374-.597-9.66-.746-3.287-.15-6.225-.199-7.868-.199-1.644 0-2.042 0-2.59.15a3.934 3.934 0 00-1.743.993c-.547.547-.946 1.292-1.145 2.087-.199.746-.199 1.541.05 5.567.249 4.025.846 11.33 1.095 15.157.299 3.827.299 4.224.449 4.721a5.34 5.34 0 00.846 1.69c.448.596 1.046 1.093 2.042 1.54.896.398 2.29.796 6.274 1.442z" fill="#403E32"/><path fill-rule="evenodd" clip-rule="evenodd" d="M223.635 82.348c-1.643-.397-2.241-.745-2.689-1.143a3.747 3.747 0 01-.946-1.292c-.199-.447-.349-.894-.697-4.622a1034.29 1034.29 0 01-1.245-14.76c-.299-3.976-.349-4.92-.249-5.665.099-.696.299-1.143.697-1.59.398-.448.896-.846 1.643-1.044.747-.2 1.644-.15 2.839-.1 1.245.05 2.738.1 5.079.2 2.34.099 5.477.198 8.017.446 2.589.2 4.631.497 6.025.796 1.395.298 2.191.646 2.59.795.398.149.398.149.448 1.043.05.895.199 2.684.598 7.753a1791.3 1791.3 0 001.493 17.692c.349 4.324.399 4.722.399 5.02 0 .298-.1.497-.996.397-.896-.1-2.639-.497-5.478-.944-2.838-.447-6.722-.994-10.009-1.49-3.237-.597-5.926-1.094-7.519-1.492zm24.55-19.978a2345.19 2345.19 0 001.444 17.692c.349 4.572.398 5.07.448 5.467.05.397.199.696.349.894.149.249.348.448.747.597.348.149.896.298 3.187.646 2.29.348 6.374.994 8.415 1.292 2.042.298 2.042.298 2.142-1.292.099-1.59.248-4.771.298-7.703.05-2.883-.049-5.517-.199-7.206-.149-1.69-.348-2.436-.846-3.181-.498-.745-1.395-1.49-3.586-3.38-2.191-1.888-5.726-5.019-7.768-6.758-2.042-1.74-2.49-2.137-2.938-2.435-.398-.299-.797-.547-1.095-.647-.299-.099-.548-.099-.698 0-.149.1-.249.299-.249.647 0 .347 0 .844.349 5.367z" fill="#E6E6E6"/><path fill-rule="evenodd" clip-rule="evenodd" d="M264.319 75.689c-.2 1.69-.449 4.77-.648 7.256a147.874 147.874 0 00-.348 5.665c-.05 1.193 0 1.64.199 2.038.149.348.448.646 1.145.894.697.249 1.793.448 2.839.448 1.045 0 2.041-.2 2.788-.597.747-.447 1.345-1.093 1.693-2.435.399-1.342.598-3.33.747-5.815.15-2.534.299-5.566.299-7.255 0-1.69-.1-1.939-.398-2.237-.299-.248-.847-.546-1.694-.745a15.996 15.996 0 00-3.087-.497c-.946-.1-1.544-.05-2.042.149a1.64 1.64 0 00-.995.795c-.2.249-.349.646-.498 2.336z" fill="#24231D"/><path fill-rule="evenodd" clip-rule="evenodd" d="M263.871 81.106c.199-2.336.398-4.374.498-5.517.099-1.143.149-1.391.199-1.54.049-.2.049-.299.099-.398.05-.1.1-.199.199-.348.1-.1.2-.248.349-.397.1-.1.199-.2.349-.249.149-.05.249-.149.398-.199.149-.05.299-.099.448-.099.15 0 .299-.05.498-.05h.747c.299 0 .647.05 1.046.1.398.05.896.1 1.344.198.399.1.747.15 1.046.249.299.1.548.15.847.298.249.1.498.249.697.398l.298.298c.05.05.05.05-.497-.05a18.142 18.142 0 00-2.789-.497c-1.096-.149-2.191-.149-2.789-.05-.597.05-.697.15-.896.597-.199.447-.448 1.242-.697 3.479-.249 2.186-.498 5.765-.598 8.25-.099 2.435-.099 3.777 0 4.621.1.845.299 1.193.598 1.392.299.199.647.298.797.298.199.05.199.05-.05 0a9.713 9.713 0 01-.996-.249 5.12 5.12 0 01-.548-.198c-.149-.05-.249-.15-.348-.199-.1-.1-.2-.15-.249-.248-.1-.1-.15-.2-.2-.299-.049-.1-.099-.198-.099-.348-.05-.149-.05-.348-.05-.646 0-.248 0-.596.05-2.087-.05-1.59.099-4.174.299-6.51zm-49.299 13.518c.199.596.648 1.49 1.046 2.037.398.497.846.646 2.589.696 1.743.05 4.781.05 6.374.05 1.544-.05 1.644-.1 2.142-.597.497-.497 1.394-1.391 1.842-1.988.448-.596.498-.845.448-1.143-.05-.298-.149-.646-.647-1.242-.498-.597-1.394-1.441-1.843-1.889-.498-.447-.597-.447-2.041-.546-1.444-.05-4.233-.15-5.826-.15-1.544 0-1.893.05-2.241.249a3.64 3.64 0 00-1.146 1.044c-.348.497-.597 1.143-.747 1.54-.149.398-.149.597-.149.845 0 .249 0 .497.199 1.094z" fill="#4F4D3E"/><path fill-rule="evenodd" clip-rule="evenodd" d="M218.755 94.971c.249.298.697.795.897 1.094.249.298.298.298 1.095.347.847.05 2.44.15 3.237.15.797 0 .797 0 1.145-.348.349-.348.996-.994 1.295-1.342.348-.348.348-.348.299-.398h-1.544c-1.394 0-4.033 0-5.378-.05-1.344 0-1.394 0-1.394.05.05.1.099.199.348.497zm4.382-2.137h-4.929s-.05-.05.298-.397c.349-.348 1.046-1.044 1.395-1.342.348-.348.348-.348 1.095-.348h2.888c.747 0 .797 0 .897.1.099.05.298.149.597.447.349.298.797.795 1.046 1.093.249.249.249.298.249.348v.1s-.05.049-.548.049c-.548-.05-1.593-.05-2.988-.05z" fill="#24231D"/><path fill-rule="evenodd" clip-rule="evenodd" d="M276.818 102.923c0 .497 0 1.193.05 1.59.049.398.049.447.249.497.199.05.498.149 1.494.199.995 0 2.639 0 3.535-.05.896-.05 1.096-.05 1.195-.149.15-.099.249-.199.299-.745.05-.497.05-1.392-.05-1.889-.05-.497-.149-.596-.299-.646-.149-.05-.249-.099-1.245-.149-.995-.05-2.788-.05-3.784 0-.996 0-1.096.05-1.195.099-.1.05-.15.149-.199.348 0 .149-.05.448-.05.895z" fill="#403E32"/><path fill-rule="evenodd" clip-rule="evenodd" d="M277.315 102.625c0 .447 0 1.242.05 1.64.05.397.1.447.199.497.15.049.349.099.847.099.548.05 1.394.05 2.241 0 .796 0 1.593-.05 1.992-.099.398-.05.448-.05.498-.1.049-.05.099-.099.099-.397 0-.299 0-.796-.05-1.193 0-.398-.049-.746-.049-.944-.05-.199-.1-.249-.797-.249h-4.681c-.299 0-.299.05-.349.1.05.149 0 .198 0 .646z" fill="#E6E6E6"/><path fill-rule="evenodd" clip-rule="evenodd" d="M263.124 122.951c2.041-1.938 4.78-4.225 7.469-5.865 2.689-1.64 5.279-2.683 8.466-3.28 3.137-.596 6.871-.695 10.009-.497 3.137.199 5.726.696 7.917 1.442a23.418 23.418 0 015.129 2.485c1.146.745 1.594 1.242 1.843 1.49.249.249.249.249.796-.099.548-.348 1.644-.994 2.64-1.64.996-.646 1.992-1.242 2.44-1.541l.498-.298-1.146-.894c-1.145-.895-3.386-2.684-6.971-4.324-3.585-1.64-8.565-3.23-13.445-3.876-4.88-.646-9.71-.398-14.092.845-4.383 1.242-8.217 3.528-10.956 5.864-2.738 2.336-4.332 4.721-5.278 6.808-.946 2.137-1.295 4.026-1.394 5.368-.1 1.341.099 2.186.348 2.634.249.397.648.397 1.494-.348.797-.795 2.191-2.336 4.233-4.274z" fill="#5DC94C"/><path fill-rule="evenodd" clip-rule="evenodd" d="M313.966 99.196c.996 2.137 2.788 6.063 3.834 8.2 1.046 2.137 1.295 2.485 1.594 2.733.249.249.547.298 1.743.845a394.65 394.65 0 004.581 2.037c1.245.547 1.543.696 1.743.746.149 0 .199-.149-.399-2.087-.597-1.988-1.792-5.765-2.739-8.051-.946-2.286-1.643-3.081-2.191-3.628-.497-.547-.846-.795-2.091-1.491-1.245-.646-3.386-1.74-4.731-2.237-1.344-.496-1.842-.447-2.091-.347-.299.1-.349.298-.299.546-.05.298.05.597 1.046 2.734z" fill="#24231D"/><path fill-rule="evenodd" clip-rule="evenodd" d="M314.613 98.947c.847 1.938 2.54 5.715 3.536 7.803.996 2.087 1.294 2.484 1.593 2.783.299.298.548.447 1.693.944 1.146.497 3.137 1.342 4.133 1.69.996.347 1.046.248.797-.696a49.998 49.998 0 00-1.494-4.572c-.747-1.939-1.743-4.076-2.34-5.268-.648-1.193-.897-1.442-1.992-2.038a161.9 161.9 0 00-4.183-2.187c-1.195-.596-1.693-.745-1.992-.795-.299-.05-.398 0-.498.1-.05.149-.099.298.747 2.236z" fill="#E6E6E6"/><path fill-rule="evenodd" clip-rule="evenodd" d="M326.116 110.576c.199.696.299.944.299 1.143.05.199.05.298.05.398 0 .099-.05.149-.1.149-.1.05-.199 0-.349 0-.149-.05-.348-.1-.597-.199s-.598-.199-.996-.397c-.398-.15-.896-.348-1.145-.448-.249-.099-.249-.099-.897-1.491-.647-1.391-1.942-4.125-2.838-6.063-.896-1.938-1.345-3.031-1.544-3.677-.249-.597-.249-.746-.149-.796.099-.05.299 0 1.046.348.747.348 2.091 1.044 2.788 1.392.697.348.697.348.896.795.2.447.648 1.292 1.096 2.336a57.825 57.825 0 011.444 3.528c.448 1.193.797 2.286.996 2.982z" fill="#E8E4BE"/><path fill-rule="evenodd" clip-rule="evenodd" d="M302.911 119.671c.498-.298.946-.597 1.195-.746.249-.149.249-.149 1.095.795.847.945 2.59 2.833 3.984 4.97 1.394 2.137 2.49 4.523 3.287 7.206.796 2.684 1.294 5.715 1.543 7.306.249 1.59.299 1.689 1.444 1.739 1.146 0 3.387-.05 5.329-.199a47.913 47.913 0 004.73-.596c1.096-.199 1.594-.447 1.843-.547.249-.099.249-.099.099.1-.149.198-.498.596-.846.944a10.89 10.89 0 01-1.146.994c-.398.298-.796.596-1.444.944-.647.298-1.593.696-2.539.994-.946.348-1.942.646-2.54.795-.597.199-.846.249-.996.298-.149.05-.249.1-.647.199-.399.1-1.096.298-1.693.497-.648.149-1.195.298-1.793.348-.597.099-1.145.149-1.593.149h-1.046c-.349 0-.747-.05-1.046-.05-.249 0-.398-.049-.448-.049-.05 0-.05 0-.05-.398v-2.137c0-.944-.05-2.037-.149-2.932-.05-.894-.1-1.541-.249-2.435-.15-.895-.299-1.988-.548-2.932-.199-.944-.448-1.74-.697-2.535-.249-.795-.598-1.59-.946-2.385-.349-.795-.797-1.64-1.245-2.485a14.264 14.264 0 00-1.643-2.485c-.698-.845-1.594-1.69-2.241-2.336-.697-.596-1.146-.994-1.395-1.143l-.249-.199.2-.099c.199-.099.547-.348.996-.596.448-.348.946-.646 1.444-.994z" fill="#403E32"/><path fill-rule="evenodd" clip-rule="evenodd" d="M316.754 137.86c1.743.05 5.478-.149 7.619-.348 2.141-.199 2.639-.397 3.038-.994.448-.596.796-1.59 1.095-2.783.299-1.143.498-2.485.598-3.429.099-.944.099-1.541 0-1.938-.1-.398-.249-.596-.648-.795-.398-.199-1.095-.448-2.589-.646-1.494-.199-3.834-.398-5.577-.497-1.743-.1-2.889-.05-3.486 0-.598.099-.647.198-.548.348.1.149.199.248.797.347.597.1 1.593.199 3.087.299 1.494.099 3.486.198 4.681.298 1.195.099 1.544.149 1.743.199.199.049.199.149.05.646-.15.497-.498 1.491-.697 2.733-.249 1.242-.349 2.833-.399 3.678-.05.844-.05.994-.05 1.043v.05l-1.294.099c-1.295.1-3.884.299-5.478.448-1.593.198-2.29.348-2.739.546-.597.398-.896.646.797.696z" fill="#24231D"/><path fill-rule="evenodd" clip-rule="evenodd" d="M326.465 130.405a3.4 3.4 0 01.398-.845c.1-.149.1-.149.1.249s0 1.093-.1 2.038a21.698 21.698 0 01-.448 2.534c-.149.596-.299.696-.349.646-.099-.05-.099-.248-.099-.745 0-.547.099-1.392.149-2.137.05-.696.199-1.292.349-1.74z" fill="#E8E4BE"/><path fill-rule="evenodd" clip-rule="evenodd" d="M213.925 135.226c8.914.149 26.542.398 35.405.547 8.864.149 9.063.199 9.163.199.099 0 .05 0 .05-.05s.049-.199-.897-.646c-.896-.448-2.788-1.193-3.734-1.591-.947-.397-.947-.397-8.814-.546-7.868-.149-23.604-.447-31.671-.597-8.067-.149-8.515-.149-8.714-.149-.249 0-.299 0-.349.05-.05.05-.05.199-.05.646v1.491c0 .348.05.398.2.398.199.149.498.149 9.411.248zm-8.914-16.35c.1.397.15.397 5.378.546 5.179.149 15.487.448 22.757.597 7.27.149 11.553.149 14.043.099 2.489-.05 3.236-.199 3.635-.298.398-.149.398-.249.05-.597-.349-.347-.996-.844-1.544-1.341a20.356 20.356 0 01-1.245-1.094c-.249-.198-.249-.198-1.096-.248-.846-.05-2.639-.149-9.71-.249-7.071-.149-19.52-.298-25.794-.348-6.324-.049-6.474 0-6.573.199-.1.199-.1.497-.05 1.044a5.61 5.61 0 00.149 1.69z" fill="#5DC94C"/><path fill-rule="evenodd" clip-rule="evenodd" d="M203.816 99.841c.1.15.249.15 3.785.299 3.535.149 10.407.397 15.835 1.143 5.428.745 9.312 1.938 12.698 3.528 3.386 1.591 6.275 3.578 8.217 5.417 1.991 1.839 3.087 3.529 3.784 4.572.697 1.044.996 1.491 1.345 1.839.348.348.697.597 1.045.795.349.199.598.348.797.199.149-.149.249-.646-.149-1.888-.399-1.243-1.245-3.231-3.586-5.616-2.34-2.386-6.174-5.169-9.959-7.057-3.834-1.889-7.619-2.833-12.15-3.479-4.532-.596-9.86-.895-13.545-1.044-3.735-.149-5.876-.198-6.971-.198-1.096 0-1.146.05-1.146.149 0 .149-.049.348-.049.596-.05.298-.05.596.049.745z" fill="#3D8C31"/><path fill-rule="evenodd" clip-rule="evenodd" d="M222.639 47.66c4.084.198 9.91.546 13.644.844 3.735.299 5.378.646 6.972 1.143 1.593.497 3.087 1.193 4.482 1.988 1.344.795 2.539 1.64 5.577 4.175 3.037 2.485 7.868 6.66 10.905 9.293 3.038 2.584 4.233 3.678 4.88 4.274.648.597.697.696.747.795.05.1 0 .249-.05.299-.099.05-.249 0-.448-.15-.199-.099-.348-.298-3.436-2.981-3.037-2.684-8.963-7.853-12.847-11.033-3.834-3.18-5.677-4.423-7.669-5.367-2.041-.895-4.282-1.491-8.664-1.939-4.382-.447-10.956-.695-15.238-.844-4.283-.15-6.274-.2-7.37-.15-1.095 0-1.295.1-1.494.249-.199.149-.398.348-.448 1.044-.1.695-.05 1.789-.1 9.939 0 8.15-.049 23.308 0 31.359.05 8.001.15 8.896.249 9.591.1.696.15 1.193.399 2.038.249.795.647 1.938 1.095 2.982.399 1.093.847 2.137 1.096 3.18.249 1.044.348 2.088.448 2.982.05.945.1 1.74.299 5.666.199 3.926.597 10.983.797 15.157.199 4.175.149 5.417.249 6.461.049 1.044.199 1.839.498 2.385.298.547.746.895 1.493 1.144.747.248 1.843.347 5.03.397 3.237.05 8.615.05 14.491.149 5.875.05 12.349.199 15.835.298 3.486.1 4.033.1 4.432.05.398-.05.597-.099.697-.199.099-.099.099-.248.199-.994.1-.745.249-2.087.697-4.174.448-2.088 1.245-4.97 2.241-7.455.996-2.485 2.191-4.572 2.888-5.616.697-1.043.847-1.043.946-.994.1.05.15.15-.099.497-.249.398-.747 1.044-1.444 2.336a33.55 33.55 0 00-2.391 5.417c-.747 2.087-1.245 4.224-1.593 5.864a37.214 37.214 0 00-.598 3.579c-.149.844-.249 1.491-.448 1.789-.199.348-.498.348-6.523.298-5.976-.05-17.678-.249-24.301-.348-6.623-.099-8.117-.149-9.112-.298-.996-.1-1.494-.298-1.893-.596-.448-.348-.846-.796-1.095-1.392-.249-.596-.249-1.242-.299-2.385-.05-1.144-.1-2.784-.299-7.405-.249-4.622-.647-12.176-.896-16.251-.249-4.076-.299-4.572-.448-5.318-.15-.745-.349-1.64-.797-2.932-.398-1.292-1.046-2.932-1.394-4.125-.349-1.143-.498-1.789-.548-2.982-.05-1.193-.1-2.932-.1-9.194 0-6.262-.05-16.996-.05-24.5 0-7.505.05-11.729.05-14.015 0-2.286.05-2.684.1-2.982a1.32 1.32 0 01.348-.696c.15-.149.299-.248.598-.347.299-.1.747-.2 2.141-.2 1.395 0 3.486 0 7.569.2zm50.942 49.498c0 3.827.099 10.834.149 14.362.05 3.529.1 3.529.149 3.529.05 0 .2 0 .249-.05.05-.049.1-.149.05-4.025 0-3.877-.05-11.53-.099-15.406-.05-3.877-.05-3.976-.1-4.026-.05-.05-.199-.05-.249.05-.05.1-.1.248-.1.646-.049.447-.099 1.093-.049 4.92zm5.527-22.811c1.643 1.391 3.336 2.833 5.029 4.075a71.827 71.827 0 004.482 3.23c1.195.796 1.992 1.193 2.341 1.392.398.199.348.199.049.447-.298.249-.896.696-1.245.944-.348.249-.498.299-.647.348-.149.05-.249.05-7.171-5.715-6.921-5.715-20.665-17.195-27.587-23.01-6.921-5.814-7.071-5.963-7.121-6.112-.049-.15-.049-.249.2-.448.249-.198.697-.497.946-.596.249-.15.249-.15 2.639 1.839 2.39 1.938 7.171 5.864 11.453 9.442 4.283 3.578 8.017 6.759 10.706 9.045 2.639 2.336 4.233 3.727 5.926 5.119z" fill="#403E32"/><path fill-rule="evenodd" clip-rule="evenodd" d="M249.629 49.846c-.249.05-.498.249-.647.348-.15.1-.1.1-.1.15.05.049.1.148.598.596.498.497 1.493 1.341 7.818 6.61a7147.76 7147.76 0 0124.001 20.127c6.076 5.118 6.673 5.566 6.972 5.814.348.249.398.249.647.05.199-.199.598-.596.747-.795.199-.2.199-.2-.597-.746-.797-.546-2.391-1.69-4.781-3.578-2.44-1.888-5.677-4.572-8.913-7.305-3.237-2.734-6.474-5.467-10.009-8.449-3.536-2.982-7.32-6.162-9.661-8.15-2.34-1.938-3.187-2.684-3.884-3.23-.697-.547-1.145-.945-1.494-1.193-.299-.2-.448-.298-.697-.249z" fill="#E6E6E6"/><path d="M139.28 34.937H55.473v52.182h83.807V34.937z" fill="#CCC"/><path d="M146.55 28.178H62.743V87.12h83.807V28.18z" fill="#B3B3B3"/><path fill-rule="evenodd" clip-rule="evenodd" d="M150.037 93.381l8.863.15-.547-13.618-8.864.05.548 13.418zm15.038-.447l8.814-.249-.548-13.17-8.814.299.548 13.12z" fill="#999"/><path fill-rule="evenodd" clip-rule="evenodd" d="M174.636 77.577c-1.345 1.044-2.391 1.889-3.138 2.535-9.461-.845-20.217-1.193-32.268-1.093 1.146-.895 3.187-1.64 6.175-2.287 17.429.1 27.139.348 29.231.845z" fill="#DBA758"/><path fill-rule="evenodd" clip-rule="evenodd" d="M174.486 99.543a511.61 511.61 0 01-2.987 3.479c-.2-7.554-.2-15.207 0-22.91a38.533 38.533 0 013.137-2.535l-.15 21.966z" fill="#DBA758"/><path fill-rule="evenodd" clip-rule="evenodd" d="M171.499 80.112c-.249 6.51-.249 14.163 0 22.91-21.761-1.093-32.617-1.64-32.617-1.64-.05-11.48.1-18.934.398-22.364 10.756-.149 21.512.2 32.219 1.094zm-27.587-2.286c-.15 0-.249-.1-.249-.199 0-.149.099-.248.199-.248 4.681-.1 9.361-.1 14.142.05 4.78.148 9.561.447 14.441.844.149 0 .199.1.199.249s-.1.198-.249.198c-4.88-.397-9.66-.695-14.441-.844a263.14 263.14 0 00-14.042-.05z" fill="#F7CE66"/><path fill-rule="evenodd" clip-rule="evenodd" d="M152.676 79.118c1.643.05 3.187.1 4.631.149.199-.15-.15 9.691-.15 13.617 0 0-4.581-.149-4.83-.149.05 0 .15-4.572.349-13.617z" fill="#F7F7F7"/><path fill-rule="evenodd" clip-rule="evenodd" d="M157.307 79.267l-4.631-.15c2.838-1.49 4.232-2.285 4.232-2.285 2.042.05 3.038.05 3.038.05a289.178 289.178 0 01-2.639 2.385z" fill="#E0E0E0"/><path d="M160.281 82.357l-.585 5.486 8.171.866.584-5.485-8.17-.867z" fill="#F7F7F7"/><path fill-rule="evenodd" clip-rule="evenodd" d="M25.297 105.507l8.963-3.081.15-28.874-9.312 1.49.199 30.465z" fill="#DBA758"/><path fill-rule="evenodd" clip-rule="evenodd" d="M25.297 105.507l-.2-30.464-10.108-.597.398 30.117 9.91.944z" fill="#F7CE66"/><path fill-rule="evenodd" clip-rule="evenodd" d="M14.989 74.397l10.108.844 9.312-1.739-9.66-.298-9.76 1.193z" fill="#DBA758"/><path fill-rule="evenodd" clip-rule="evenodd" d="M19.022 74.744l3.287.249-.2 19.382-3.186-.199.1-19.432z" fill="#F7F7F7"/><path fill-rule="evenodd" clip-rule="evenodd" d="M22.309 74.993l-3.287-.248 8.466-1.491 1.195.05-.05.546-6.324 1.143z" fill="#F7F7F7"/><path d="M140.077 89.455H65.582v7.653h74.495v-7.653z" fill="#F7CE66"/><path fill-rule="evenodd" clip-rule="evenodd" d="M140.077 89.455H65.582l5.229-2.286h65.93l3.336 2.286z" fill="#C2944E"/><path d="M141.671 83.541H67.175v5.07h74.496v-5.07z" fill="#DBA758"/><path fill-rule="evenodd" clip-rule="evenodd" d="M141.671 83.54H67.175L72.404 82h65.93l3.337 1.54z" fill="#C2944E"/><path d="M139.33 79.019H64.835v5.069h74.495v-5.07z" fill="#F7CE66"/><path fill-rule="evenodd" clip-rule="evenodd" d="M139.33 79.019H64.835l3.336-1.59 67.823.099 3.336 1.49z" fill="#DBA758"/><path fill-rule="evenodd" clip-rule="evenodd" d="M24.101 26.24c1.245 4.473 3.536 12.723 5.776 20.774 2.291 8.05 4.532 15.853 6.524 22.363 1.942 6.51 3.585 11.778 4.88 15.705a1050.38 1050.38 0 002.639 8c.448 1.343.448 1.343.846 1.343h2.042c.05 0 .05 0-3.635-12.524-3.685-12.524-11.105-37.521-14.79-49.995L24.65 19.382l-.349.149c-.348.149-1.046.447-1.394.646-.349.15-.349.199-.398.248 0 .05-.05.05.05.398.099.298.298.944 1.543 5.417z" fill="#C2944E"/><path fill-rule="evenodd" clip-rule="evenodd" d="M39.438 69.278c-1.742-5.914-3.784-12.772-5.228-17.692-1.444-4.97-2.39-8.002-3.735-12.673-1.344-4.622-3.187-10.834-4.233-14.363-1.045-3.528-1.294-4.373-1.394-4.77l-.2-.398.15.1c.15.099.449.347.598.447.15.099.15.099.348.795.2.695.648 2.087 1.793 6.063 1.145 3.976 3.038 10.535 4.88 16.897a3766.421 3766.421 0 005.279 18.09 1702.276 1702.276 0 004.73 15.704c1.594 5.268 3.337 10.834 4.183 13.617l.847 2.783-.1.1c-.1.099-.349.248-.448.347l-.1.1-.1-.398c-.099-.398-.298-1.143-.796-2.684a730.846 730.846 0 00-2.24-7.554c-1.047-3.677-2.49-8.597-4.234-14.511zM26.69 30.017c.15 0 .3 0 .449.199.15.149.299.497.299.745 0 .249-.1.447-.15.547-.05.1-.05.1-1.294 0l-4.98-.398c-1.245-.1-1.245-.1-1.295-.298-.05-.199-.1-.596-.199-.895-.1-.298-.15-.496-.2-.596-.049-.1 0-.149 1.146-.05 1.146.1 3.436.398 4.681.547 1.195.15 1.394.199 1.544.199zm2.54 16.053c-1.095.347-3.087.944-4.083 1.242-.996.298-.996.298-.896.546.1.249.298.796.448 1.044.15.248.199.298.249.298.05 0 .1 0 1.145-.348a221.535 221.535 0 004.233-1.49c1.095-.398 1.145-.448 1.195-.547.05-.1.15-.199.15-.348 0-.15 0-.398-.1-.497-.05-.15-.15-.199-.3-.249-.149-.05-.348-.099-.547-.05-.2-.049-.398.05-1.494.398zm5.677 17.79c-.946.846-2.739 2.535-3.585 3.33-.847.796-.747.796-.598.945.15.149.448.397.598.646.15.199.249.348.299.447.05.05.05.05.896-.646.846-.696 2.44-2.137 3.336-2.982.896-.845.996-1.093 1.096-1.341.1-.249.1-.448.05-.696a1.133 1.133 0 00-.3-.597c-.149-.1-.298-.1-.497-.1-.2.05-.349.15-1.295.995zm4.93 16.997c-.697 1.193-1.992 3.38-2.64 4.523l-.647 1.093.25.199c.199.199.597.596.796.845.2.199.2.199.15.199l.647-1.094a297.76 297.76 0 002.639-4.572c.697-1.242.747-1.49.747-1.74 0-.248-.05-.596-.2-.745a.41.41 0 00-.398-.248.568.568 0 00-.398.149c-.15.05-.249.199-.946 1.391z" fill="#DBA758"/><path fill-rule="evenodd" clip-rule="evenodd" d="M15.287 25.445c1.992 6.709 5.777 19.63 9.76 32.253 3.984 12.673 8.067 25.097 10.607 32.9 2.54 7.802 3.486 10.933 3.934 12.474.498 1.54.498 1.54.548 1.59.1 0 .248.05.697.1.498.049 1.245.149 1.693.198.398.05.448.05.448.05l-.548-1.988c-.548-1.988-1.693-5.914-4.233-14.015-2.49-8.1-6.373-20.326-9.86-31.508a3211.131 3211.131 0 01-8.713-28.128c-2.042-6.71-2.988-9.99-3.536-11.63-.498-1.689-.548-1.788-.598-1.838-.05-.05-.05-.05-.298 0-.25.05-.648.1-1.046.298-.399.199-.747.596-.896.795-.2.2-.2.249-.2.299 0 .05 0 .198.1.496.05.348.15.895 2.141 7.654z" fill="#C2944E"/><path fill-rule="evenodd" clip-rule="evenodd" d="M15.934 17.046c-.1-.348-.248-.745-.298-.944l-.1-.199.15.1c.149.099.398.248.647.496.249.249.448.597.747 1.392.299.795.697 2.038 1.544 4.97.846 2.932 2.19 7.554 4.93 16.598 2.738 9.045 6.921 22.563 10.556 34.142a5527.01 5527.01 0 008.266 26.141c1.544 4.821 1.544 4.821 1.395 4.92-.15.05-.449.199-.648.298l-.15.05-.148-.547c-.15-.546-.449-1.59-1.345-4.472-.896-2.883-2.34-7.604-3.735-12.176a1237.763 1237.763 0 00-4.083-13.22c-1.295-4.124-2.44-7.901-3.735-11.927-1.195-4.025-2.54-8.3-4.033-13.07-1.494-4.771-3.088-9.99-4.532-14.562-1.394-4.572-2.639-8.547-3.436-11.28-.846-2.734-1.245-4.225-1.543-5.12-.25-.894-.349-1.242-.448-1.59z" fill="#F7CE66"/><path fill-rule="evenodd" clip-rule="evenodd" d="M17.877 30.762c.448 0 .846-.397.846-.944 0-.546-.348-.944-.846-.944-.448 0-.847.398-.847.944 0 .547.349.944.847.944z" fill="#DBA758"/><path d="M23.205 49.548a.796.796 0 10.002-1.592.796.796 0 00-.002 1.592z" fill="#DBA758"/><path fill-rule="evenodd" clip-rule="evenodd" d="M30.226 70.62c.498 0 .847-.398.847-.895s-.399-.894-.847-.894c-.498 0-.847.397-.847.894s.399.895.847.895zm6.224 19.282c.449 0 .847-.397.847-.894s-.398-.895-.846-.895c-.449 0-.847.398-.847.895s.398.894.846.894zm-14.59 12.822l4.631-4.274h145.157l4.282 4.274H21.86z" fill="#DBA758"/><path d="M175.93 102.724H21.86v5.119h154.07v-5.119z" fill="#C2944E"/><path fill-rule="evenodd" clip-rule="evenodd" d="M29.33 96.214l6.573-4.224h138.633l4.133 4.224H29.33z" fill="#DBA758"/><path d="M178.669 96.214H29.329v5.119h149.34v-5.12z" fill="#C2944E"/><path fill-rule="evenodd" clip-rule="evenodd" d="M104.772 78.422a21.163 21.163 0 00-1.494-.745c-.349-.15-.349-.15-.498-.15h-.598c-.149 0-.149 0 .299.25.448.248 1.295.794 1.693 1.043.448.248.448.248.398 2.435l-.199 8.647c-.05 2.137-.099 2.137-.099 2.137h.796c.15 0 .15 0 .249-2.137.1-2.137.199-6.46.199-8.746-.049-2.336-.298-2.485-.746-2.734z" fill="#2B2A29"/><path d="M71.956 82.298H43.82v12.176h28.135V82.298z" fill="#2B2A29"/><path d="M72.653 78.074h-29.38V82.3h29.38v-4.225z" fill="#FDE742"/><path d="M66.23 82.298H49.347v12.176H66.23V82.298z" fill="#E9D53D"/><path d="M52.535 81.106h-2.54v3.727h2.54v-3.727zm13.196.049h-2.54v3.728h2.54v-3.728z" fill="#2B2A29"/><path fill-rule="evenodd" clip-rule="evenodd" d="M53.083 73.303H63.69v4.771h-1.544v-3.28h-7.52v3.28h-1.543v-4.77z" fill="#2B2A29"/><path fill-rule="evenodd" clip-rule="evenodd" d="M148.991 92.586c.448-.348.896-1.044 1.145-2.087.199-1.044.199-2.386-.249-3.33s-1.295-1.491-1.743-1.74l-.448-.248-5.577.05-22.409.198-5.577.05v7.753l5.577-.05 22.409-.199 5.577-.05h.199c.199.05.648 0 1.096-.347z" fill="#409133"/><path fill-rule="evenodd" clip-rule="evenodd" d="M114.133 85.479c.697 0 1.295 1.74 1.295 3.876 0 2.137-.598 3.877-1.295 3.926-.697 0-1.295-1.739-1.295-3.876 0-2.187.598-3.926 1.295-3.926z" fill="#F7F7F7"/><path fill-rule="evenodd" clip-rule="evenodd" d="M114.083 87.865c.249 0 .498.695.498 1.54 0 .845-.199 1.54-.498 1.54-.249 0-.498-.695-.498-1.54 0-.894.249-1.54.498-1.54z" fill="#2B2A29"/><path fill-rule="evenodd" clip-rule="evenodd" d="M159.647 93.878c.448-.348.896-1.044 1.145-2.087.199-1.044.199-2.386-.249-3.33s-1.294-1.49-1.743-1.74l-.448-.248-5.577.05-22.408.199-5.577.05v7.751l5.577-.05 22.408-.198 5.577-.05h.199c.2 0 .648 0 1.096-.348z" fill="#FDE742"/><path fill-rule="evenodd" clip-rule="evenodd" d="M124.789 86.722c.697 0 1.295 1.74 1.295 3.876 0 2.137-.598 3.876-1.295 3.926-.697 0-1.294-1.74-1.294-3.876 0-2.137.597-3.926 1.294-3.926z" fill="#F7F7F7"/><path fill-rule="evenodd" clip-rule="evenodd" d="M124.74 89.107c.249 0 .498.696.498 1.54 0 .846-.2 1.541-.498 1.541-.249 0-.498-.695-.498-1.54 0-.845.199-1.54.498-1.54z" fill="#2B2A29"/><path fill-rule="evenodd" clip-rule="evenodd" d="M153.472 86.722c.448-.348.896-1.044 1.145-2.088.2-1.043.2-2.385-.249-3.33-.448-.944-1.294-1.49-1.742-1.739l-.449-.248-5.577.05-22.408.198-5.577.05v7.753l5.577-.05 22.408-.199 5.577-.05h.2c.199 0 .647 0 1.095-.347z" fill="#5DC94C"/><path fill-rule="evenodd" clip-rule="evenodd" d="M118.615 79.565c.697 0 1.294 1.74 1.294 3.877 0 2.137-.597 3.876-1.294 3.926-.698 0-1.295-1.74-1.295-3.877 0-2.186.597-3.926 1.295-3.926z" fill="#F7F7F7"/><path fill-rule="evenodd" clip-rule="evenodd" d="M118.565 81.95c.249 0 .498.696.498 1.541s-.199 1.54-.498 1.54c-.249 0-.498-.695-.498-1.54 0-.845.199-1.54.498-1.54z" fill="#2B2A29"/></g><defs><clipPath id="clip0_2_15580"><path fill="#fff" d="M0 0h330v165.69H0z"/></clipPath></defs></svg>