<svg width="350" height="167" fill="none" xmlns="http://www.w3.org/2000/svg"><g clip-path="url(#clip0_601_12597)"><path fill-rule="evenodd" clip-rule="evenodd" d="M95.459 132.306c.048 1.098.048 2.387.239 3.102.19.716.62.812 1.336.86.764.047 1.814 0 2.386.047.573.048.573.191.573.573 0 .43 0 1.098-.143 1.432-.095.382-.286.43-.668.573-.382.191-.907.477-1.146 1.002-.238.525-.19 1.193.191 1.671.382.429 1.098.62 2.196.668 1.145.047 2.72 0 9.88-.048 7.159-.048 19.903-.143 29.019-.43 9.117-.334 14.606-.906 20.333-1.575 5.728-.668 11.741-1.431 17.326-2.052 5.536-.62 10.596-1.05 15.798-1.05 5.203 0 10.548.525 13.508.811 2.959.287 3.532.43 6.539.478 2.959.047 8.305.047 10.977.047 2.673 0 2.721 0 2.721.382v1.528c0 .381.048.381 2.816.334l11.026-.191 2.768-.048v.621c0 .62.048 1.813.095 2.386.048.62.096.62.191.668.096.048.191.096 5.298-.191 5.107-.286 15.274-.859 25.535-1.909 10.262-1.05 20.62-2.482 26.824-3.15 6.205-.668 8.305-.525 9.642-.43 1.336.096 1.909.144 6.873-.047s14.271-.669 18.948-.859c4.678-.239 4.678-.239 4.248-.716-.429-.478-1.241-1.432-2.1-2.244-.859-.859-1.766-1.575-4.152-7.302-2.387-5.728-6.253-16.467-13.603-20.047-7.351-3.579-18.137 0-25.345 2.244-7.207 2.243-10.834 3.15-14.796 6.443-3.913 3.293-8.161 8.926-10.786 12.41-2.626 3.532-3.676 4.916-8.926 5.727-5.25.812-14.701 1.098-17.898-2.195-3.198-3.246-.144-10.071-3.867-13.603-3.722-3.532-14.271-3.771-33.219-1.718-18.949 2.052-46.346 6.443-64.578 8.495-18.233 2.101-27.254 1.91-33.268 1.766-5.966-.143-8.877-.238-10.548.191-1.67.43-2.148 1.289-2.29 2.244-.096 1.05 0 2.004.047 3.102z" fill="#24231D"/><path d="M222.133 0H33.697v114.312h188.436V0z" fill="#4AAB3C"/><path fill-rule="evenodd" clip-rule="evenodd" d="M196.789 133.977c19.664-.048 23.673-.048 25.678-.048h2.005l-.048-.477c-.048-.478-.191-1.48-.382-3.962-.191-2.53-.43-6.539-.525-9.355-.143-2.768-.143-4.296-.143-5.059v-.764H48.398v1.098c0 1.098-.048 3.245-.048 4.343v1.193c0 .096-.048.335-.048 1.289-.047.907-.047 2.577-.095 3.389v.811h11.408s-.049 0-.049 1.289 0 3.866.048 5.155v1.479c0 .048.048.048 7.828.048 7.827 0 23.435 0 48.922-.095 25.393-.144 60.76-.287 80.425-.334z" fill="#36342B"/><path d="M223.803 118.512H40.188v7.589h183.615v-7.589z" fill="#4F4D3E"/><path d="M214.783 118.512H172.16v21.669h42.623v-21.669z" fill="#4F4D3E"/><path fill-rule="evenodd" clip-rule="evenodd" d="M97.989 133.643l-.24.668h-2.242l.286-.859c.286-.859.811-2.625 2.148-4.964 1.336-2.339 3.484-5.25 5.345-7.351 1.862-2.1 3.389-3.388 4.63-4.391 1.289-1.002 2.291-1.718 2.816-2.052.525-.334.525-.334 2.578-.334h17.803c1.527 0 1.527 0 2.195.382.716.382 2.1 1.097 3.819 2.195 1.718 1.146 3.723 2.625 5.584 4.678 1.861 2.004 3.532 4.582 4.439 6.73.907 2.195 1.002 4.009 1.05 4.916l.048.907h-2.053l-.047-.573c-.048-.573-.191-1.718-.669-3.198-.477-1.48-1.336-3.341-2.195-4.821-.907-1.527-1.862-2.673-3.294-4.009-1.431-1.336-3.388-2.816-4.82-3.771-1.432-.954-2.291-1.336-2.769-1.527-.477-.191-.572-.143-3.722-.191-3.103 0-9.26-.048-12.362-.095h-3.055l-.955.572c-.954.573-2.863 1.719-4.725 3.341-1.861 1.623-3.627 3.676-5.011 5.489-1.337 1.814-2.291 3.389-3.007 4.869a25.25 25.25 0 00-1.575 3.389z" fill="#24231D"/><path d="M122.283 159.082c11.388 0 20.619-8.975 20.619-20.046s-9.231-20.046-20.619-20.046-20.619 8.975-20.619 20.046 9.231 20.046 20.619 20.046z" fill="#24231D"/><path d="M122.283 152.209c7.486 0 13.555-5.898 13.555-13.173 0-7.276-6.069-13.173-13.555-13.173s-13.555 5.897-13.555 13.173c0 7.275 6.069 13.173 13.555 13.173z" fill="#403E32"/><path d="M122.283 148.2c4.824 0 8.734-3.953 8.734-8.83 0-4.877-3.91-8.83-8.734-8.83s-8.735 3.953-8.735 8.83c0 4.877 3.911 8.83 8.735 8.83z" fill="#737160"/><path d="M306.614 159.082c11.388 0 20.619-8.975 20.619-20.046s-9.231-20.046-20.619-20.046-20.619 8.975-20.619 20.046 9.231 20.046 20.619 20.046z" fill="#24231D"/><path d="M306.614 152.209c7.486 0 13.555-5.898 13.555-13.173 0-7.276-6.069-13.173-13.555-13.173s-13.555 5.897-13.555 13.173c0 7.275 6.069 13.173 13.555 13.173z" fill="#403E32"/><path fill-rule="evenodd" clip-rule="evenodd" d="M306.614 148.2c4.821 0 8.734-3.962 8.734-8.83s-3.913-8.83-8.734-8.83-8.735 3.962-8.735 8.83 3.914 8.83 8.735 8.83z" fill="#737160"/><path d="M216.548 5.68H38.708v102.618h177.84V5.68z" fill="#4F4D3E"/><path fill-rule="evenodd" clip-rule="evenodd" d="M38.709 108.298V5.68l19.139 8.257v76.558l-19.14 17.803z" fill="#737160"/><path fill-rule="evenodd" clip-rule="evenodd" d="M38.709 108.298l19.139-17.803H198.65l17.898 17.803H38.708z" fill="#36342B"/><path fill-rule="evenodd" clip-rule="evenodd" d="M216.548 108.298V5.68l-17.898 8.257v76.558l17.898 17.803z" fill="#737160"/><path fill-rule="evenodd" clip-rule="evenodd" d="M216.548 5.68H38.708l19.14 8.257H198.65l17.898-8.257z" fill="#737160"/><path fill-rule="evenodd" clip-rule="evenodd" d="M332.817 103.048c2.912-1.48 7.255-3.341 9.498-4.248 2.244-.907 2.291-.907 2.339-.907.048 0 .048 0 .525 1.337.478 1.336 1.432 3.961 2.148 6.682.716 2.72 1.193 5.488 1.48 6.92.238 1.385.286 1.385.381 1.48l.382.382c.096.095.096.143.144.716.095.573.238 1.718.286 3.341.048 1.67 0 3.818-.096 5.871-.095 2.052-.286 3.961-.62 5.536-.334 1.528-.764 2.721-1.575 3.819a9.664 9.664 0 01-3.532 2.959c-1.623.811-3.675 1.384-4.725 1.67-1.05.287-1.05.287-1.719.478-.668.19-2.004.62-3.293.811-1.289.191-2.625.143-3.293.095-.668-.047-.716-.047-.716-.095v-.43c0-.381.048-1.193 0-2.863-.048-1.671-.191-4.201-.668-6.587-.478-2.339-1.289-4.534-2.196-6.396-.907-1.861-1.909-3.341-3.007-4.582-1.098-1.193-2.291-2.1-3.007-2.625-.716-.525-.954-.716-1.098-.764-.143-.095-.143-.095.096-.286.191-.191.573-.573 1.718-2.052 1.098-1.48 2.959-4.105 4.582-5.967 1.575-1.765 3.055-2.816 5.966-4.295z" fill="#36342B"/><path fill-rule="evenodd" clip-rule="evenodd" d="M334.631 89.636c-.859-.477-2.005-1.05-3.293-1.718-1.289-.669-2.673-1.337-4.487-2.196a200.245 200.245 0 00-5.775-2.625l-3.866-1.718c-.812-.382-1.241-.525-1.575-.669-.334-.143-.621-.238-.907-.334a5.39 5.39 0 00-.716-.19c-.239-.048-.43-.096-.621-.096-.19 0-.381-.048-.477-.048-.095 0-.095 0 3.914 2.243 4.009 2.244 12.028 6.778 16.323 9.546 4.296 2.769 4.869 3.723 5.871 4.44 1.003.715 2.482 1.192 3.389 1.622.955.43 1.336.764 1.766.86.382.095.764 0 .955-.049.19-.047.19-.047.095-.381a41.466 41.466 0 00-.382-1.29c-.095-.333-.095-.333-.143-.429a4.348 4.348 0 00-.239-.382c-.095-.143-.191-.238-.381-.429-.191-.143-.43-.382-.907-.764-.478-.382-1.194-.859-2.005-1.432-.811-.572-1.766-1.145-2.53-1.622a36.214 36.214 0 00-2.004-1.194c-.525-.382-1.146-.716-2.005-1.145z" fill="#fff"/><path fill-rule="evenodd" clip-rule="evenodd" d="M344.654 99.611c.764-.907.764-.907.669-1.288a16.117 16.117 0 00-.525-1.623c-.191-.477-.382-.716-1.385-1.528a51.66 51.66 0 00-5.441-3.627c-2.625-1.575-6.014-3.34-9.593-5.107a415.408 415.408 0 00-9.833-4.487c-2.386-1.05-3.341-1.48-4.104-1.718-.764-.238-1.289-.238-1.575-.238-.287 0-.287 0-1.385-.716-1.097-.716-3.245-2.1-5.87-4.153-2.625-2.052-5.68-4.82-10.405-8.83-4.678-4.057-11.026-9.403-15.465-13.125-4.439-3.723-7.064-5.871-9.45-7.494-2.387-1.575-4.63-2.577-8.21-3.198-3.579-.62-8.543-.859-14.318-.859-5.776 0-12.41.239-16.038.43-3.627.19-4.2.382-4.486.668-.286.286-.286.716-.382 6.777-.095 6.062-.286 17.756-.191 33.411.096 15.655.43 35.272.621 45.248.191 9.975.191 10.357.286 10.691.143.334.382.62.668.811.287.191.621.287.859.334.239.048.334.048 4.105.096 3.723.048 11.073.191 20.142.334 9.068.143 19.808.334 25.249.43 5.393.095 5.441.095 5.489.095.047 0 .095 0 .143-.429.048-.43.143-1.337.477-3.485.382-2.148 1.05-5.536 1.909-8.352.859-2.816 1.814-5.012 3.103-6.969 1.288-1.957 2.863-3.675 4.534-4.964 1.671-1.336 3.437-2.291 5.393-3.007 1.957-.716 4.057-1.145 6.396-1.288 2.339-.144 4.916.095 7.016.477 2.101.382 3.723.954 5.06 1.575 1.336.62 2.386 1.289 2.911 1.623l.525.334 2.1-1.289c2.1-1.289 6.301-3.866 9.499-5.918 3.197-2.053 5.393-3.58 7.302-5.251 1.814-1.622 3.389-3.484 4.2-4.39z" fill="#4AAB3C"/><path fill-rule="evenodd" clip-rule="evenodd" d="M315.253 91.211c2.005 1.336 5.489 4.057 7.303 5.823 1.813 1.766 1.956 2.53 1.861 3.055-.095.525-.43.811-1.193.859-.764.048-2.005-.096-9.117-1.67-7.111-1.576-20.094-4.63-32.456-7.494-12.409-2.864-24.198-5.49-30.308-7.064-6.109-1.528-6.491-1.957-6.825-2.53-.334-.573-.668-1.24-.621-1.814.048-.572.478-.954.716-1.193.239-.19.239-.19 10.262 1.098a5978.479 5978.479 0 0140.904 5.441c10.739 1.48 12.124 1.862 13.317 2.339 1.193.477 2.148 1.098 2.911 1.432.764.334 1.241.334 3.246 1.718z" fill="#509663"/><path fill-rule="evenodd" clip-rule="evenodd" d="M252.011 81.044c3.819.669 10.071 1.623 18.042 2.864 7.971 1.241 17.66 2.816 24.676 4.01 7.017 1.145 11.36 1.909 13.937 2.338 2.578.43 3.389.478 3.914.478.525 0 .716-.048.907-.144a.692.692 0 00.286-.43c.048-.19 0-.429-.047-.667-.048-.239-.191-.478-1.194-1.432-1.05-.955-3.007-2.673-8.161-7.255-5.155-4.582-13.508-12.028-19.331-17.135-5.823-5.107-9.116-7.875-11.264-9.546-2.195-1.67-3.293-2.195-4.582-2.768-1.336-.525-2.864-1.098-5.441-1.432-2.53-.382-6.109-.573-9.26-.716-3.15-.143-5.966-.19-7.541-.19-1.575 0-1.957 0-2.482.142a3.762 3.762 0 00-1.67.955c-.525.525-.907 1.24-1.098 2.005-.191.715-.191 1.48.048 5.345.238 3.866.811 10.883 1.05 14.558.286 3.675.286 4.057.429 4.534.143.477.382 1.05.812 1.623.429.573 1.002 1.05 1.957 1.48.906.381 2.243.763 6.013 1.383z" fill="#403E32"/><path fill-rule="evenodd" clip-rule="evenodd" d="M248.002 79.088c-1.575-.382-2.148-.716-2.577-1.098a3.594 3.594 0 01-.907-1.24c-.191-.43-.334-.86-.668-4.44-.334-3.58-.907-10.357-1.194-14.175-.286-3.819-.334-4.726-.238-5.442.095-.668.286-1.097.668-1.527.382-.43.859-.811 1.575-1.002.716-.191 1.575-.143 2.721-.096 1.193.048 2.625.096 4.868.191 2.243.096 5.25.191 7.684.43 2.482.19 4.439.477 5.776.764 1.336.286 2.1.62 2.482.763.381.143.381.143.429 1.002.048.86.191 2.578.573 7.446a1725.73 1725.73 0 001.432 16.992c.334 4.152.382 4.534.382 4.82 0 .287-.096.478-.955.383-.859-.096-2.53-.478-5.25-.907-2.721-.43-6.444-.955-9.594-1.432-3.054-.573-5.632-1.05-7.207-1.432zM271.58 59.9c.335 4.344 1.003 12.601 1.385 16.992.334 4.391.381 4.869.429 5.25.048.382.191.669.334.86.144.238.334.43.716.572.334.144.859.287 3.055.62 2.196.335 6.109.955 8.066 1.242 1.957.286 1.957.286 2.053-1.241.095-1.527.238-4.582.286-7.398.048-2.769-.048-5.298-.191-6.921-.143-1.623-.334-2.339-.811-3.055-.478-.716-1.337-1.431-3.437-3.245-2.1-1.814-5.489-4.82-7.446-6.492-1.957-1.67-2.386-2.052-2.816-2.338-.382-.287-.763-.525-1.05-.62-.286-.096-.525-.096-.668 0-.143.095-.239.286-.239.62-.047.334 0 .811.334 5.155z" fill="#E6E6E6"/><path fill-rule="evenodd" clip-rule="evenodd" d="M286.997 72.692c-.191 1.623-.429 4.582-.62 6.969a142.036 142.036 0 00-.334 5.44c-.048 1.146 0 1.576.191 1.958.143.334.429.62 1.097.859.669.238 1.719.43 2.721.43s1.957-.192 2.673-.573c.716-.43 1.288-1.05 1.623-2.34.381-1.288.572-3.197.715-5.584.144-2.434.287-5.345.287-6.968 0-1.623-.096-1.861-.382-2.148-.286-.286-.811-.525-1.623-.716a15.298 15.298 0 00-2.959-.477c-.907-.096-1.48-.048-1.957.143-.477.143-.764.43-.955.764-.19.238-.286.62-.477 2.243z" fill="#24231D"/><path fill-rule="evenodd" clip-rule="evenodd" d="M286.568 77.894c.19-2.243.381-4.2.477-5.298.095-1.097.143-1.336.191-1.48.047-.19.047-.286.095-.381a2.84 2.84 0 01.191-.334c.096-.096.191-.239.334-.382.096-.095.191-.19.334-.239.143-.047.239-.143.382-.19a1.39 1.39 0 01.43-.096c.143 0 .286-.048.477-.048h.716c.286 0 .62.048 1.002.096.382.047.859.095 1.289.19.382.096.716.144 1.002.24.287.095.525.143.812.286.238.095.477.238.668.382l.286.286c.048.048.048.048-.477-.048a17.316 17.316 0 00-2.673-.477c-1.05-.143-2.1-.143-2.673-.048-.572.048-.668.143-.859.573-.191.43-.429 1.193-.668 3.341-.239 2.1-.477 5.537-.573 7.923-.095 2.339-.095 3.627 0 4.439.096.811.287 1.145.573 1.336.286.191.62.287.764.287.191.047.191.047-.048 0a9.288 9.288 0 01-.955-.239 4.961 4.961 0 01-.525-.19c-.143-.049-.238-.144-.334-.192-.095-.095-.191-.143-.238-.238a.975.975 0 01-.191-.287c-.048-.095-.096-.19-.096-.334-.048-.143-.048-.334-.048-.62 0-.24 0-.573.048-2.005-.048-1.527.143-4.01.287-6.253zm-47.205 12.983a8.476 8.476 0 001.002 1.957c.382.477.812.62 2.482.668 1.671.048 4.582.048 6.11.048 1.479-.048 1.575-.096 2.052-.573.477-.477 1.337-1.336 1.766-1.91.43-.572.477-.81.43-1.097-.048-.286-.143-.62-.621-1.193-.477-.573-1.336-1.384-1.766-1.814-.477-.43-.573-.43-1.957-.525-1.384-.048-4.057-.143-5.584-.143-1.48 0-1.814.048-2.148.239a3.49 3.49 0 00-1.098 1.002c-.334.477-.572 1.098-.716 1.48-.143.381-.143.572-.143.81-.047.24 0 .478.191 1.05z" fill="#4F4D3E"/><path fill-rule="evenodd" clip-rule="evenodd" d="M243.325 91.211c.238.286.668.764.859 1.05.238.287.286.287 1.05.334.811.048 2.338.143 3.102.143.764 0 .764 0 1.098-.334.334-.334.955-.954 1.241-1.288.334-.335.334-.335.286-.382h-1.479c-1.337 0-3.866 0-5.155-.048-1.289 0-1.337 0-1.337.048.096.095.144.19.335.477zm4.248-2.052h-4.726s-.047-.048.287-.382c.334-.334 1.002-1.002 1.336-1.289.334-.334.334-.334 1.05-.334h2.768c.716 0 .764 0 .86.096.095.095.286.143.572.43.334.285.764.763 1.003 1.05.238.238.238.285.238.333v.096s-.047.047-.525.047c-.525-.047-1.527-.047-2.863-.047z" fill="#24231D"/><path fill-rule="evenodd" clip-rule="evenodd" d="M299.025 98.848c0 .477 0 1.145.048 1.527.047.382.047.43.238.477.191.048.478.144 1.432.191.955 0 2.53 0 3.389-.047.859-.048 1.05-.048 1.145-.144.144-.095.239-.191.287-.716.048-.477.048-1.336-.048-1.813-.048-.478-.143-.573-.286-.62-.143-.049-.239-.096-1.194-.144a45.983 45.983 0 00-3.627 0c-.955 0-1.05.048-1.145.096-.096.047-.144.143-.191.334-.048.143-.048.43-.048.859z" fill="#403E32"/><path fill-rule="evenodd" clip-rule="evenodd" d="M299.502 98.561c0 .43 0 1.194.048 1.575.048.382.095.43.191.478.143.047.334.095.811.095.525.048 1.337.048 2.148 0 .764 0 1.527-.048 1.909-.095.382-.048.43-.048.478-.096.047-.047.095-.095.095-.382 0-.286 0-.763-.048-1.145 0-.382-.047-.716-.047-.907-.048-.19-.096-.239-.764-.239h-4.487c-.286 0-.286.048-.334.096v.62z" fill="#E6E6E6"/><path fill-rule="evenodd" clip-rule="evenodd" d="M285.899 118.083c1.957-1.862 4.582-4.057 7.16-5.632 2.577-1.575 5.059-2.578 8.114-3.151 3.007-.572 6.586-.668 9.593-.477 3.007.191 5.489.668 7.589 1.384 2.1.716 3.819 1.671 4.917 2.387 1.097.716 1.527 1.193 1.766 1.432.238.238.238.238.763-.096.525-.334 1.575-.954 2.53-1.575.954-.62 1.909-1.193 2.339-1.479l.477-.287-1.098-.859c-1.098-.859-3.245-2.577-6.682-4.152-3.437-1.575-8.209-3.103-12.887-3.723-4.677-.621-9.307-.382-13.507.811-4.201 1.193-7.876 3.389-10.501 5.632-2.625 2.243-4.152 4.534-5.059 6.539-.907 2.052-1.241 3.866-1.337 5.155-.095 1.289.096 2.1.334 2.53.239.381.621.381 1.432-.335.764-.763 2.1-2.243 4.057-4.104z" fill="#5DC94C"/><path fill-rule="evenodd" clip-rule="evenodd" d="M334.583 95.268c.955 2.052 2.673 5.823 3.676 7.875 1.002 2.053 1.241 2.387 1.527 2.626.239.238.525.286 1.67.811 1.146.525 3.198 1.432 4.392 1.957 1.193.525 1.479.668 1.67.716.143 0 .191-.143-.382-2.005-.573-1.909-1.718-5.536-2.625-7.732-.907-2.196-1.575-2.96-2.1-3.484-.477-.525-.811-.764-2.005-1.432-1.193-.62-3.245-1.67-4.534-2.148-1.289-.477-1.766-.43-2.005-.334-.286.095-.334.286-.286.525-.048.286.096.573 1.002 2.625z" fill="#24231D"/><path fill-rule="evenodd" clip-rule="evenodd" d="M335.252 95.03c.811 1.86 2.434 5.488 3.388 7.493.955 2.005 1.241 2.386 1.528 2.673.286.286.525.429 1.623.907 1.097.477 3.007 1.288 3.961 1.622.955.334 1.002.239.764-.668a48.326 48.326 0 00-1.432-4.391 63.903 63.903 0 00-2.243-5.06c-.621-1.145-.86-1.383-1.91-1.956a153.548 153.548 0 00-4.009-2.1c-1.145-.573-1.623-.716-1.909-.764-.286-.048-.382 0-.477.096-.048.143-.096.286.716 2.147z" fill="#E6E6E6"/><path fill-rule="evenodd" clip-rule="evenodd" d="M346.277 106.198c.191.668.287.907.287 1.098.047.191.047.286.047.382 0 .095-.047.143-.095.143-.096.048-.191 0-.334 0-.144-.048-.334-.096-.573-.191-.239-.095-.573-.191-.955-.382-.381-.143-.859-.334-1.097-.429-.239-.096-.239-.096-.86-1.432-.62-1.337-1.861-3.962-2.72-5.823-.859-1.862-1.289-2.912-1.48-3.532-.238-.573-.238-.716-.143-.764.096-.048.286 0 1.002.334s2.005 1.002 2.673 1.337c.668.334.668.334.859.763.191.43.621 1.241 1.05 2.244a55.56 55.56 0 011.385 3.388c.429 1.146.763 2.196.954 2.864z" fill="#E8E4BE"/><path fill-rule="evenodd" clip-rule="evenodd" d="M324.035 114.933c.478-.287.907-.573 1.146-.716.238-.144.238-.144 1.05.763.811.907 2.482 2.721 3.818 4.773 1.337 2.053 2.387 4.344 3.15 6.921.764 2.577 1.241 5.489 1.48 7.016.239 1.528.286 1.623 1.384 1.671 1.098 0 3.246-.048 5.107-.191a45.816 45.816 0 004.534-.573c1.05-.191 1.528-.43 1.766-.525.239-.095.239-.095.096.095-.143.191-.477.573-.811.907-.335.334-.716.669-1.098.955-.382.286-.764.573-1.384.907-.621.286-1.528.668-2.435.954a25.99 25.99 0 01-2.434.764c-.573.191-.811.239-.954.286-.144.048-.239.096-.621.191-.382.096-1.05.287-1.623.478-.62.143-1.145.286-1.718.334a9.623 9.623 0 01-1.527.143h-1.003c-.334 0-.716-.048-1.002-.048-.239 0-.382-.048-.43-.048-.047 0-.047 0-.047-.381v-2.053c0-.907-.048-1.957-.143-2.816-.048-.859-.096-1.479-.239-2.339-.143-.859-.286-1.909-.525-2.816-.191-.906-.43-1.67-.668-2.434-.239-.763-.573-1.527-.907-2.291-.334-.763-.764-1.575-1.193-2.386a13.744 13.744 0 00-1.575-2.387c-.669-.811-1.528-1.622-2.148-2.243-.669-.573-1.098-.955-1.337-1.098l-.238-.191.191-.095c.19-.096.525-.334.954-.573.382-.334.907-.62 1.384-.954z" fill="#403E32"/><path fill-rule="evenodd" clip-rule="evenodd" d="M337.304 132.402c1.671.047 5.25-.144 7.303-.335 2.052-.19 2.529-.381 2.911-.954.43-.573.764-1.527 1.05-2.673.287-1.098.477-2.386.573-3.293.095-.907.095-1.48 0-1.862-.096-.382-.239-.573-.621-.763-.381-.191-1.05-.43-2.482-.621-1.431-.191-3.675-.382-5.345-.477-1.671-.096-2.769-.048-3.341 0-.573.095-.621.191-.525.334.095.143.191.239.763.334.573.095 1.528.191 2.96.286 1.431.096 3.341.191 4.486.287 1.146.095 1.48.143 1.671.191.191.047.191.143.047.62-.143.477-.477 1.432-.668 2.625-.238 1.193-.334 2.721-.382 3.532-.047.812-.047.955-.047 1.003v.047l-1.241.096c-1.241.095-3.723.286-5.251.429-1.527.191-2.195.334-2.625.525-.62.382-.907.621.764.669z" fill="#24231D"/><path fill-rule="evenodd" clip-rule="evenodd" d="M346.563 125.242c.144-.43.287-.668.382-.811.096-.144.096-.144.096.238s0 1.05-.096 1.957a20.845 20.845 0 01-.429 2.434c-.143.573-.287.669-.334.621-.096-.048-.096-.239-.096-.716 0-.525.096-1.336.143-2.052.096-.669.191-1.241.334-1.671z" fill="#E8E4BE"/><path fill-rule="evenodd" clip-rule="evenodd" d="M238.743 129.872c8.543.143 25.44.382 33.935.525 8.496.143 8.687.191 8.783.191.095 0 .047 0 .047-.048s.048-.191-.859-.62c-.859-.43-2.673-1.146-3.579-1.528-.907-.381-.907-.382-8.449-.525-7.541-.143-22.623-.429-30.355-.572-7.733-.144-8.162-.144-8.353-.144-.239 0-.287 0-.334.048-.048.048-.048.191-.048.621v1.431c0 .335.048.382.191.382.191.143.429.143 9.021.239zm-8.592-15.703c.096.382.144.382 5.155.525 4.964.143 14.844.43 21.812.573 6.969.143 11.074.143 13.46.095 2.387-.048 3.103-.191 3.484-.286.382-.143.382-.239.048-.573-.334-.334-.954-.811-1.479-1.289a19.403 19.403 0 01-1.194-1.05c-.238-.191-.238-.191-1.05-.238-.811-.048-2.529-.144-9.307-.239-6.778-.143-18.71-.286-24.724-.334-6.061-.048-6.205 0-6.3.191-.096.191-.096.477-.048 1.002 0 .573.096 1.289.143 1.623z" fill="#5DC94C"/><path fill-rule="evenodd" clip-rule="evenodd" d="M229.006 95.888c.095.144.239.144 3.627.287 3.389.143 9.976.382 15.178 1.098 5.203.716 8.926 1.861 12.171 3.388 3.246 1.528 6.014 3.437 7.876 5.203 1.909 1.766 2.959 3.389 3.627 4.391.668 1.002.955 1.432 1.289 1.766.334.334.668.573 1.002.764.334.191.573.334.764.191.143-.144.239-.621-.143-1.814s-1.194-3.103-3.437-5.394-5.918-4.963-9.546-6.777c-3.675-1.814-7.302-2.72-11.646-3.341-4.343-.573-9.45-.86-12.982-1.003-3.58-.143-5.632-.19-6.682-.19-1.05 0-1.098.047-1.098.143 0 .143-.048.334-.048.573 0 .286 0 .572.048.715z" fill="#3D8C31"/><path fill-rule="evenodd" clip-rule="evenodd" d="M247.095 45.773c3.914.19 9.498.524 13.078.81 3.58.287 5.155.621 6.682 1.099 1.528.477 2.96 1.145 4.296 1.909 1.289.764 2.434 1.575 5.346 4.01 2.911 2.386 7.541 6.395 10.452 8.925 2.912 2.481 4.057 3.532 4.678 4.104.62.573.668.668.716.764.048.095 0 .238-.048.286-.095.048-.239 0-.429-.143-.191-.095-.335-.286-3.294-2.864-2.911-2.577-8.591-7.54-12.314-10.596-3.723-3.054-5.441-4.247-7.35-5.154-1.957-.86-4.105-1.432-8.305-1.862-4.2-.43-10.501-.668-14.605-.811-4.105-.143-6.014-.191-7.064-.143-1.05 0-1.241.095-1.432.238-.191.143-.382.334-.43 1.002-.095.669-.048 1.719-.095 9.546 0 7.828-.048 22.385 0 30.118.047 7.684.143 8.543.238 9.212.096.668.144 1.145.382 1.956a32.04 32.04 0 001.05 2.864c.382 1.05.812 2.053 1.05 3.055.239 1.002.334 2.004.43 2.864.048.906.095 1.67.286 5.441.191 3.77.573 10.548.764 14.557.191 4.01.143 5.203.239 6.205.047 1.002.19 1.766.477 2.291.286.525.716.859 1.432 1.098.716.239 1.766.334 4.82.382 3.103.047 8.258.047 13.89.143 5.632.048 11.837.191 15.178.286 3.341.096 3.866.096 4.248.048.381-.048.572-.095.668-.191.095-.095.095-.239.191-.955.095-.715.238-2.004.668-4.009.429-2.004 1.193-4.773 2.148-7.159.954-2.387 2.1-4.391 2.768-5.394.668-1.002.811-1.002.907-.954.095.048.143.143-.096.477-.238.382-.716 1.002-1.384 2.243a32.24 32.24 0 00-2.291 5.203c-.716 2.004-1.193 4.057-1.527 5.632a36.02 36.02 0 00-.573 3.436c-.143.812-.238 1.432-.429 1.719-.191.334-.478.334-6.253.286-5.728-.048-16.944-.239-23.292-.334-6.348-.095-7.78-.143-8.734-.286-.955-.096-1.432-.287-1.814-.573-.43-.334-.812-.764-1.05-1.337-.239-.572-.239-1.193-.287-2.291-.047-1.097-.095-2.672-.286-7.111-.239-4.439-.62-11.694-.859-15.608-.239-3.914-.286-4.391-.43-5.107a20.02 20.02 0 00-.763-2.816c-.382-1.241-1.003-2.816-1.337-3.961-.334-1.098-.477-1.719-.525-2.864-.048-1.146-.095-2.816-.095-8.83s-.048-16.324-.048-23.53c0-7.208.048-11.265.048-13.46 0-2.196.047-2.578.095-2.864.048-.287.191-.525.334-.668.144-.144.287-.24.573-.334.286-.096.716-.192 2.052-.192 1.337 0 3.342 0 7.255.191zm48.78 47.538c0 3.675.095 10.405.143 13.794.048 3.389.095 3.389.143 3.389.096 0 .191 0 .239-.048.047-.048.095-.143.047-3.866 0-3.723-.047-11.073-.095-14.796-.048-3.723-.048-3.819-.095-3.866-.048-.048-.191-.048-.239.047-.048.096-.096.239-.096.62 0 .43-.047 1.05-.047 4.726zm5.298-21.908c1.575 1.337 3.198 2.72 4.821 3.914a68.683 68.683 0 004.295 3.103c1.146.763 1.909 1.145 2.243 1.336.382.19.335.19.048.43-.286.238-.859.668-1.193.906-.334.239-.477.287-.621.335-.143.047-.238.047-6.873-5.49-6.634-5.488-19.807-16.514-26.442-22.098-6.634-5.584-6.777-5.728-6.825-5.87-.048-.144-.048-.24.191-.43.239-.191.668-.478.907-.573.238-.143.238-.143 2.529 1.766 2.291 1.861 6.873 5.632 10.978 9.068 4.105 3.437 7.685 6.492 10.262 8.687 2.577 2.244 4.105 3.58 5.68 4.916z" fill="#403E32"/><path fill-rule="evenodd" clip-rule="evenodd" d="M272.965 47.873c-.239.047-.478.238-.621.334-.143.095-.095.095-.095.143.048.048.095.143.573.573.477.477 1.431 1.288 7.493 6.348a6822.846 6822.846 0 0123.006 19.33c5.823 4.916 6.395 5.346 6.682 5.585.334.238.382.238.62.047.191-.19.573-.572.716-.763.191-.191.191-.191-.573-.716-.763-.525-2.291-1.623-4.582-3.437-2.338-1.813-5.441-4.39-8.543-7.016-3.103-2.625-6.205-5.25-9.594-8.114-3.388-2.864-7.016-5.918-9.259-7.828-2.244-1.861-3.055-2.577-3.723-3.102-.668-.525-1.098-.907-1.432-1.146-.286-.19-.43-.286-.668-.238z" fill="#E6E6E6"/><path fill-rule="evenodd" clip-rule="evenodd" d="M21.956 56.989c-.096-.43-.382-.86-.526-1.432a7.313 7.313 0 01-.19-1.575c0-.334 0-.334-.287-.382-.238 0-.764-.047-1.432-.238a22.555 22.555 0 01-2.29-.812c-.812-.334-1.576-.764-1.958-.907-.381-.143-.381-.047-.381.287 0 .334.047.954 0 1.67-.048.716-.096 1.575-.191 2.1-.096.525-.239.812-.239 1.05-.048.239.048.43.382.907.334.525.859 1.337 1.432 1.862.525.572 1.05.907 1.67 1.097.62.24 1.384.334 1.957.287.573-.048.907-.239 1.241-.716.287-.477.573-1.241.716-1.814.143-.477.19-.954.096-1.384z" fill="#FF9E69"/><path fill-rule="evenodd" clip-rule="evenodd" d="M10.357 158.987c.239.429.668 1.145.955 2.004.286.907.382 2.005.43 2.625.047.669-.048.86-.287.955-.19.143-.573.191-1.861.191-1.29 0-3.532-.048-4.821-.095-1.289-.048-1.718-.096-1.91-.191-.19-.096-.238-.287-.238-.716 0-.478-.048-1.194.096-1.957a7.66 7.66 0 01.763-2.148c.334-.668.668-1.193.907-1.384.239-.239.382-.191.907-.143.525.047 1.384.047 2.148.047.716 0 1.288.048 1.67.048.382.048.573.048.716.143.143.096.287.191.525.621z" fill="#24231D"/><path fill-rule="evenodd" clip-rule="evenodd" d="M7.112 164.094c1.48 0 3.054.047 3.818.047.764 0 .764 0 .764.191v.812c0 .238 0 .382-.048.477-.048.095-.096.095-.143.095h-.907c-.907 0-2.673-.047-4.105-.047-1.432 0-2.53-.048-3.102-.048-.573 0-.668 0-.716-.048-.048 0-.096-.047-.096-.095v-.334c0-.239 0-.716.048-.907.048-.239.096-.239.812-.191.763 0 2.195.048 3.675.048z" fill="#F7CE66"/><path fill-rule="evenodd" clip-rule="evenodd" d="M16.18 56.941c.43.525.812 1.002 1.241 1.432.43.43.907.764 1.337.955.43.19.716.286 1.05.095.334-.143.62-.525.907-1.24.286-.669.525-1.671.62-2.149.095-.477.095-.477.43-.19.334.286.954.859 2.386 1.527 1.432.668 3.628 1.432 5.107 1.909.43.143 1.957.716 2.243.716 3.055.239 6.444 9.307 7.733 10.691 1.67 1.814 3.388-.907 4.152.573.716 1.48.811 2.625.716 3.723-.095 1.098-.43 2.148-1.145 3.055-.716.907-1.767 1.67-2.864 1.861-.239.048-.525.048-.764.048.43 2.911.382 5.346-.286 6.634-.669 1.337-1.957 1.48-3.294 1.575-1.336.096-2.768.143-4.773.191-2.004.048-4.63.143-7.54.143-2.912.048-6.11.048-8.449.048-2.339 0-3.866-.048-4.677-.095-.812-.048-.955-.048-1.05-.716-.096-.669-.144-1.91-.24-3.341-.095-1.385-.238-2.912-.524-4.153-.287-1.288-.668-2.29-.955-2.816-.286-.525-.525-.525-1.002-.668-.477-.096-1.289-.334-2.243-.62-1.003-.335-2.196-.764-2.864-1.05-.668-.287-.86-.43-.955-.621-.095-.191-.19-.382.048-2.005.19-1.623.716-4.63 1.241-6.777.525-2.1 1.146-3.341 1.527-4.01.382-.668.525-.715 1.528-1.097 1.002-.382 2.911-1.098 4.534-1.91a27.525 27.525 0 003.961-2.386c.86-.62 1.194-.86 1.337-.955.143-.143.143-.143.382.144.238.43.716.954 1.145 1.48z" fill="#5DC94C"/><path fill-rule="evenodd" clip-rule="evenodd" d="M20.142 58.946c-.239.382-.43.477-.525.525-.143.048-.191.048-.573-.191-.382-.239-1.002-.716-1.766-1.432-.716-.668-1.575-1.575-2.005-2.005-.477-.43-.525-.43-.859-.286-.334.143-.859.43-1.145.62-.287.191-.287.335-.143.907.19.573.572 1.623 1.05 2.625a21.669 21.669 0 001.431 2.53c.43.573.669.716 1.003.62.334-.095.716-.429 1.193-.954a83.553 83.553 0 001.384-1.575c.334-.334.382-.334.907 0 .477.334 1.432 1.05 2.1 1.432.668.382 1.146.477 1.432.43.286 0 .43-.144.43-.621s-.048-1.289-.096-2.052c-.048-.764 0-1.528 0-1.957 0-.43 0-.525-.095-.668-.096-.144-.334-.287-.764-.478-.43-.238-1.05-.572-1.384-.668-.334-.095-.334 0-.43.239-.047.286-.19.668-.382 1.24a8.363 8.363 0 01-.763 1.719z" fill="#4AAB3C"/><path fill-rule="evenodd" clip-rule="evenodd" d="M27.063 67.203c-.096 2.195-.096 4.725-.096 6.062-.048 1.336-.095 1.527-.19 1.622-.096.096-.287.144-1.433.191-1.145.048-3.293.096-5.345.144-2.005.095-3.914.19-4.869.286-.954.048-1.05.048-1.289-1.48-.238-1.575-.668-4.677-1.24-7.302-.573-2.673-1.241-4.869-1.623-6.157-.382-1.29-.43-1.67-.525-1.91-.096-.238-.143-.381-.191-.381-.048-.048-.143 0-.191.047-.048.048-.143.143-.286.191-.144.048-.382.143-.62.191-.24.048-.43.048-.574.096-.143.047-.19.095-.238.143 0 .095 0 .19.43 1.861.429 1.718 1.288 5.012 1.718 8.878.429 3.866.477 8.353.477 11.025 0 2.673-.048 3.58-.096 4.2-.047.621-.143 1.003-.477 1.146-.334.143-.86.143-1.145.287-.287.143-.24.477-.24.62 0 .143 0 .143-.19 1.098-.191.907-.525 2.768-.86 5.536-.333 2.769-.62 6.396-.906 12.171-.286 5.728-.573 13.603-1.146 22.29-.572 8.687-1.48 18.233-1.909 23.149-.43 4.916-.334 5.155-.19 5.25.143.143.333.143 1.765.239 1.385.095 4.01.286 5.298.334 1.337.048 1.385-.096 1.766-2.387.43-2.338 1.194-6.825 2.053-11.837.859-5.059 1.766-10.596 2.768-16.371.955-5.775 2.005-11.789 2.577-15.082.573-3.294.669-3.866.812-4.153.143-.286.238-.334.286.048 0 .382-.048 1.193.143 6.443.191 5.251.669 14.988 1.098 22.863.43 7.875.811 13.937.955 17.135.19 3.198.19 3.532.19 3.866 0 .382-.047.763.812.668.811-.095 2.53-.668 3.866-1.193 1.384-.525 2.387-1.05 2.96-1.337.524-.286.62-.334.668-.381.047-.048.143-.144.143-2.196.047-2.052.047-6.109.238-13.269.239-7.159.669-17.421.812-24.771.143-7.398 0-11.885-.43-16.324-.43-4.439-1.05-8.782-1.575-14.032-.525-5.25-.859-11.36-1.05-15.703-.19-4.344-.143-6.873-.143-8.257 0-1.337.048-1.528-.048-1.576-.095-.095-.286-.095-.525-.143-.238-.047-.525-.19-.764-.286-.238-.096-.524-.191-.668-.191-.19 0-.286.095-.286.19-.048.096-.048.144-.048.574-.048.43-.095 1.193-.19 2.53 0 1.288-.144 3.15-.24 5.345z" fill="#263238"/><path fill-rule="evenodd" clip-rule="evenodd" d="M25.726 106.532c-.382 1.05-1.002 2.816-1.527 4.009-.478 1.194-.86 1.814-1.098 2.769-.239.954-.382 2.243-.62 3.15-.24.907-.573 1.384-.764 1.67-.191.239-.191.239-.239-1.05-.048-1.336-.143-3.961-.19-5.775-.049-1.814-.049-2.768-.096-3.341 0-.573-.048-.811-.048-.907 0-.095 0-.095.382-.239.382-.143 1.145-.381 1.814-.763.668-.334 1.24-.764 1.67-1.098.43-.334.716-.573.907-.573.19 0 .286.239.286.525-.047.239-.095.573-.477 1.623zm-3.054-17.946c1.145 0 2.481-.048 3.102-.048.668 0 .668 0 .668.62 0 .621.048 1.91.096 2.864.047.955.047 1.575 0 1.91-.048.334-.144.43-1.337.477-1.193.095-3.484.19-5.25.286-1.766.048-3.007.048-3.77 0-.764-.047-1.003-.143-1.146-.286-.143-.143-.143-.334-.143-1.289 0-.955.047-2.72.047-3.627v-.86h4.296c1.289 0 2.291-.047 3.437-.047zm-11.36.047c0-.143-.048-.238-.191-.286-.143 0-.239.048-.286.191-.287 1.957-.62 3.962-.907 6.062-.287 2.1-.573 4.39-.812 6.968-.238 2.721-.43 5.68-.716 9.26-.238 3.293-.477 7.111-.859 11.646-.763 9.402-1.909 21.764-3.054 34.079v.047c0 .143.095.239.238.239s.239-.096.239-.239v-.047c1.145-12.41 2.29-24.772 3.055-34.079.334-4.487.62-8.305.859-11.646.238-3.58.43-6.587.668-9.26.239-2.577.525-4.82.811-6.968.334-2.053.668-4.01.955-5.966zm21.383 66.01c.047.43.047 1.241.047 1.814s0 .955-.047 1.241c0 .286-.048.477-.287.716-.238.239-.716.573-1.384.859-.668.287-1.527.477-2.338.573-.812.095-1.576.143-2.291.095a18.244 18.244 0 01-1.957-.238c-.573-.096-1.003-.239-1.194-.478-.19-.238-.19-.572-.19-1.002 0-.429.047-.859.047-1.336 0-.43-.095-.907-.048-1.194.048-.286.24-.477.573-.477.382-.048.955.048 1.957.048 1.002 0 2.53-.143 3.58-.334a10.583 10.583 0 002.29-.668c.478-.191.765-.239.955-.191.096.047.239.143.287.572z" fill="#24231D"/><path fill-rule="evenodd" clip-rule="evenodd" d="M12.982 156.457c-.143.525-.381 1.241-.477 1.766-.096.525-.048.811-.048 1.05s-.095.382-.668.525c-.62.143-1.766.286-3.246.143s-3.293-.525-4.295-.859c-1.003-.334-1.241-.573-1.384-.811-.144-.239-.239-.43-.239-.812 0-.381.095-1.002.19-1.527.096-.525.192-1.05.335-1.384.143-.287.382-.43.668-.382.287.048.668.239 1.289.43.62.191 1.432.429 2.434.572 1.002.144 2.1.239 3.102.191.955 0 1.766-.143 2.148 0 .335.191.335.573.191 1.098z" fill="#24231D"/><path fill-rule="evenodd" clip-rule="evenodd" d="M19.903 53.457c.334.095.716.143.955.19.238.096.334.192.381.43.048.24.096.573.144.86.047.286.047.43-.048.572-.143.144-.43.287-.86.334-.429.048-1.05 0-1.765-.19a10.623 10.623 0 01-2.148-.86c-.668-.334-1.146-.62-1.384-.811-.239-.143-.239-.143-.239-.334v-1.813c0-.049 0-.192.191-.144.143.048.477.239 1.098.477.668.239 1.67.62 2.339.812.62.286.954.382 1.336.477z" fill="#FA723C"/><path fill-rule="evenodd" clip-rule="evenodd" d="M12.266 47.634c.143.048.143.048.287.62.143.526.477 1.623.859 2.387.334.716.763 1.098 1.527 1.67.764.573 1.957 1.29 2.96 1.719 1.002.43 1.813.477 2.338.525.525.047.812 0 1.384-.239.573-.239 1.432-.764 2.196-1.48.764-.763 1.48-1.718 1.814-2.434.334-.716.334-1.145.43-2.1.047-.954.19-2.386.333-4.2.144-1.766.382-3.914.478-5.202.095-1.29.047-1.767-.191-2.387-.239-.62-.764-1.384-2.053-2.195-1.288-.812-3.34-1.623-5.107-1.719-1.766-.143-3.245.43-4.39.955-1.146.525-1.862.954-2.34 1.48-.477.524-.668 1.05-.811 1.67-.143.573-.286 1.24-.43 1.861-.143.669-.238 1.337-.43 1.862-.19.525-.429.954-.572 1.24-.143.287-.19.43-.239.526-.047.095-.095.143-.238.239-.096.095-.239.286-.334.763-.096.43-.096 1.098.047 1.67a3.7 3.7 0 00.716 1.433c.335.381.669.763 1.003 1.002.334.143.62.286.763.334z" fill="#FF9E69"/><path fill-rule="evenodd" clip-rule="evenodd" d="M23.1 49.304c-.285 0-.667.096-1.288.191a14.07 14.07 0 01-2.004.144 5.17 5.17 0 01-1.432-.191c-.382-.096-.669-.191-.86-.239-.19 0-.238.048-.286.19 0 .144.048.287.191.621.143.334.43.907.812 1.29.43.429.954.715 1.575.858a2.325 2.325 0 001.766-.238c.572-.287 1.05-.86 1.384-1.337.334-.477.477-.811.525-1.002 0-.191-.096-.287-.382-.287z" fill="#24231D"/><path fill-rule="evenodd" clip-rule="evenodd" d="M22.767 49.4c0 .048-.096.239-.191.382-.096.143-.287.382-.43.573-.19.19-.381.334-.525.43-.19.095-.334.095-.62.142-.287 0-.716 0-1.05-.047a14.39 14.39 0 01-.955-.144c-.238-.047-.382-.095-.525-.238-.095-.096-.19-.287-.286-.43a1.772 1.772 0 01-.096-.43c0-.095 0-.19.048-.238.048-.048.048-.048.239 0 .19.048.477.096.907.143.43.048.906.096 1.431.048.526 0 1.003-.096 1.385-.143.334-.048.477-.096.62-.096 0 0 .048 0 .048.048z" fill="#F7F7F7"/><path fill-rule="evenodd" clip-rule="evenodd" d="M21.192 44.722c0-.143-.096-.238-.239-.238s-.238.095-.238.238c-.048.335-.048.669.095 1.003.096.19.191.334.334.477.143.143.287.239.382.334a.836.836 0 01.239.191c.143.096.238.143.286.239.048.047.048.095.096.143 0 .048.047.096.047.143v.096c0 .047-.047.047-.047.095l-.096.096c-.048.047-.143.095-.19.143a1.43 1.43 0 01-.478.19c-.143.048-.191.192-.143.287.047.143.19.191.286.143.19-.047.334-.143.525-.19l.286-.144a.372.372 0 00.191-.19 1.05 1.05 0 01.144-.24c.047-.095.047-.19.047-.286 0-.095-.047-.19-.095-.286a1.078 1.078 0 00-.143-.239c-.096-.095-.191-.19-.335-.286a1.044 1.044 0 00-.238-.143c-.096-.096-.239-.191-.334-.287a1.449 1.449 0 01-.239-.334c-.19-.334-.143-.62-.143-.955z" fill="#FA723C"/><path fill-rule="evenodd" clip-rule="evenodd" d="M25.392 41.62c-.239-.19-.716-.334-1.145-.382a3.162 3.162 0 00-1.146-.047c-.382.047-.716.095-.907.19-.19.096-.286.24-.286.382 0 .144.095.239.238.334.191.048.478.048.764.048h.811c.287.048.62.096.86.143.238.048.381.096.525.096.19 0 .381-.096.43-.239.095-.143.095-.334-.144-.525zm-6.921-.525a.433.433 0 00-.143-.334c-.095-.048-.286-.096-.573-.048-.286.048-.763.096-1.24.286a5.034 5.034 0 00-1.242.573c-.286.239-.43.43-.43.62 0 .192.192.335.383.335.19 0 .381-.143.62-.334.286-.143.62-.334.955-.43.334-.095.62-.143.859-.19.238 0 .43 0 .573-.096.095-.096.19-.239.238-.382z" fill="#36342B"/><path fill-rule="evenodd" clip-rule="evenodd" d="M24.39 44.054c.095.239.095.478.047.764a3.154 3.154 0 01-.238.716c-.096.19-.239.334-.334.382a.527.527 0 01-.382 0 1.126 1.126 0 01-.382-.43c-.095-.19-.143-.43-.143-.716s0-.525.095-.764c.096-.19.191-.381.334-.429.143-.096.382-.096.573 0 .239.048.334.239.43.477zm-6.348 0c.095.239.095.478.047.764a3.154 3.154 0 01-.238.716c-.096.19-.239.334-.334.382a.527.527 0 01-.382 0 1.126 1.126 0 01-.382-.43c-.095-.19-.143-.43-.143-.716 0-.238 0-.525.095-.764.096-.19.191-.381.334-.429.144-.096.382-.096.573 0 .239.048.382.239.43.477z" fill="#24231D"/><path fill-rule="evenodd" clip-rule="evenodd" d="M13.794 44.532c0-.573.047-1.528.143-2.435.096-.907.286-1.766.477-2.434.191-.668.478-1.145.764-1.289.334-.19.716-.095 1.289-.047.572 0 1.336-.048 1.909-.287a3.492 3.492 0 001.288-.954c.287-.334.382-.62.478-.525.095.047.19.43.525.716.334.334.907.572 1.766.763.811.191 1.861.287 2.768.287.907 0 1.67-.048 2.243-.287a2.51 2.51 0 001.385-1.002c.334-.477.572-1.145.715-1.766.144-.62.144-1.241-.095-1.766-.19-.525-.62-.907-1.098-1.098-.477-.19-.907-.19-1.098-.334-.19-.143-.143-.382-.143-.811 0-.43-.047-.955-.477-1.623-.382-.668-1.145-1.432-2.005-1.766-.859-.334-1.861-.191-2.577.048-.716.238-1.145.62-1.48.906-.334.287-.525.478-.859.43-.286-.048-.668-.43-1.145-.668-.477-.239-1.003-.334-1.862-.334-.811.047-1.957.19-2.911.716-.955.477-1.718 1.288-2.196 2.1-.477.811-.62 1.575-.716 2.195-.095.62-.095 1.003-.143 1.337-.048.334-.19.525-.382.716-.143.19-.334.334-.43 1.145.096.764.048 2.291.096 3.341.048 1.05.143 1.719.191 2.053.048.334.048.334.239.286.19 0 .525-.048.859.095.334.096.62.335.907.764.286.43.525 1.003.716 1.48.19.477.334.859.43 1.002.142.143.238.096.286-.048.143-.095.143-.334.143-.907z" fill="#24231D"/><path fill-rule="evenodd" clip-rule="evenodd" d="M27.922 74.124c-.191-4.869-.096-4.916-.191-4.916-.096-.048-.334-.096-2.387-.573-2.052-.478-5.87-1.337-7.78-1.766l-1.909-.43.239 5.155c.239 5.155.668 15.512.907 20.667.238 5.155.238 5.155.238 5.536v1.528c0 .43.048.572 1.528 1.384 1.48.764 4.39 2.196 6.348 3.007 1.957.859 3.007 1.145 3.484 1.289.525.143.525.143.525-.955 0-1.098 0-3.341-.19-9.355-.24-5.918-.621-15.703-.812-20.571z" fill="#F7CE66"/><path fill-rule="evenodd" clip-rule="evenodd" d="M20.142 67.442l2.195.477.478 25.678-2.053-.62-.62-25.535z" fill="#FBFBFB"/><path fill-rule="evenodd" clip-rule="evenodd" d="M14.653 87.822a7.2 7.2 0 00.095 1.766c.096.573.144 1.193.191 2.1.048.955 0 2.243.096 2.864.048.668.19.668.573.716.381.047 1.05.19 1.67.239.668.047 1.289.095 2.387.238 1.097.143 2.672.382 3.436.477.764.096.812 0 .812-.143v-.525c0-.286.047-.716.047-3.77 0-3.055 0-8.735-.047-11.551-.048-2.864-.048-2.912-.191-2.912-.096 0-.287 0-1.719-.095-1.431-.048-4.152-.19-5.489-.239l-1.336-.047v1.48c0 1.479 0 4.39-.095 6.252-.144 1.766-.335 2.482-.43 3.15z" fill="#737160"/><path fill-rule="evenodd" clip-rule="evenodd" d="M19.378 78.467c-1.098-.048-2.195-.095-2.72-.143l-.525-.048-.048 2.339c-.048 2.339-.143 6.968-.143 9.307-.048 2.339 0 2.339.047 2.434.048.048.191.191 1.29.382 1.097.191 3.245.43 4.295.525 1.05.096 1.098.096 1.098.096 0-.048 0-.096.047-2.53 0-2.434.048-7.255.048-9.69 0-2.433 0-2.529-.048-2.576 0-.048 0-.048-.573-.048-.572 0-1.67 0-2.768-.048z" fill="#E6E6E6"/><path fill-rule="evenodd" clip-rule="evenodd" d="M17.707 77.656v.286c0 .096.048.096.621.143a36.71 36.71 0 002.291.096c.573 0 .62.047.62 0 0 0 .048-.048.048-.096v-.238c0-.048 0-.096-.047-.143l-.573-.048c-.573-.048-1.719-.096-2.291-.143-.573-.048-.573-.048-.62-.048-.049.095-.049.095-.049.19z" fill="#B3B3B3"/><path fill-rule="evenodd" clip-rule="evenodd" d="M17.898 78.18v.573c0 .144.048.144.478.191.477 0 1.336.048 1.861.096h.668c.048 0 .048 0 .048-.143 0-.144-.048-.382-.048-.525v-.144h-.095s-.048.048-.048.096-.047.143-.047.239c0 .095 0 .19-.048.238-.048.048-.143.048-.525.048-.43 0-1.194-.048-1.575-.096-.382-.047-.43-.047-.478-.047-.047 0-.047-.048-.047-.144 0-.095-.048-.286-.048-.381v-.096h-.048c0-.047-.048-.047-.048.096z" fill="#999"/><path fill-rule="evenodd" clip-rule="evenodd" d="M18.519 78.658c-.048.048-.048.191-.048.287 0 .095.048.095.287.095h1.05c.286 0 .286 0 .334-.048v-.19c0-.049 0-.096-.096-.096-.047 0-.19 0-.43-.048-.238 0-.668-.048-.858-.048-.191 0-.191 0-.24.048z" fill="#263238"/><path fill-rule="evenodd" clip-rule="evenodd" d="M15.798 84.815c-.43.62-.716 1.002-1.145 1.241-.43.239-1.05.286-2.291-.048-1.241-.286-3.102-.954-4.487-1.48-1.384-.524-2.29-1.002-2.768-1.288-.477-.286-.477-.382-.477-.62 0-.24.047-.621.286-1.623.239-1.003.668-2.625.86-3.437.19-.811.19-.811.142-.811-.047 0-.095-.048-.381-.096a26.927 26.927 0 00-1.29-.382c-.476-.143-.954-.334-1.526-.525-.573-.238-1.194-.477-1.528-.62l-.382-.19-.095 1.24c-.096 1.241-.334 3.77-.477 5.823C.095 84.051 0 85.722 0 86.581c0 .907.143 1.002.86 1.337.763.334 2.1.906 4.247 1.384 2.148.43 5.06.763 6.634 1.002 1.623.19 1.91.334 2.1.43.192.143.335.286.669.81.286.526.811 1.385 1.193 1.91.43.525.716.716.955.812.238.095.381.095.477.095.095 0 .095.048.238.19.144.144.43.335.716.478a.772.772 0 00.62.096c.144-.048.192-.239.24-.382.047-.143.047-.239.047-.43 0-.19.048-.43.048-.62 0-.191-.095-.382-.19-.525a3.241 3.241 0 00-.574-.573c-.19-.191-.43-.43-.525-.573-.095-.143-.143-.19-.047-.19.095 0 .286.047.525.095.19.047.43.047.572-.096.144-.095.191-.334.191-.525 0-.19-.095-.334-.238-.525-.191-.19-.43-.43-.716-1.002-.287-.525-.573-1.384-.764-2.052-.19-.669-.334-1.241-.382-1.576-.047-.381-.047-.572.191-.954.191-.334.62-.86.811-1.193.24-.335.287-.525.287-.812a2.89 2.89 0 00-.095-.716c-.048-.143-.144-.095-.287-.047-.143.047-.286.143-.668.572-.334.43-.907 1.194-1.337 1.814z" fill="#FF9E69"/><path fill-rule="evenodd" clip-rule="evenodd" d="M4.343 76.272c.716.238 1.098.381 1.337.43.19.047.19.047.19.095v.19c0 .048-.047.144-.238.24-.19.095-.573.238-1.05.286a8.682 8.682 0 01-1.575 0 7.814 7.814 0 01-1.289-.24c-.382-.095-.716-.238-.907-.285-.19-.048-.19-.048-.143-.382.048-.334.096-1.003.143-1.289.048-.334.048-.334.191-.239.143.048.43.191 1.05.43.62.143 1.623.525 2.291.764z" fill="#FA723C"/><path fill-rule="evenodd" clip-rule="evenodd" d="M28.017 32.408c0 .191.191.573.143 1.193-.047.62-.381 1.432-.954 2.1-.573.669-1.384 1.242-2.244 1.48-.859.239-1.813.143-2.577.048-.764-.096-1.384-.286-1.623-.286-.238 0-.095.143.143.286.24.143.525.286 1.05.43a9.459 9.459 0 001.814.334c.62.095 1.194.095 1.766.095.573 0 1.146 0 1.67-.143.526-.143.955-.477 1.29-.716.286-.286.477-.477.62-.764a4.01 4.01 0 00.382-.907c.095-.334.143-.716.19-1.05.048-.334 0-.62-.047-.859a2.398 2.398 0 00-.239-.62 2.62 2.62 0 00-.334-.43c-.143-.143-.382-.286-.573-.382-.286.048-.477 0-.477.191z" fill="#36342B"/><path fill-rule="evenodd" clip-rule="evenodd" d="M28.494 90.16c.096 3.676.24 8.974.287 11.647.048 2.673.048 2.673.048 2.768v.477c0 .096.047.048 3.34-.62 3.342-.668 9.976-1.957 13.27-2.625 3.34-.668 3.34-.716 3.34-.812 0-.095 0-.143-.19-5.87-.191-5.728-.525-17.135-.669-22.863l-.19-5.68-3.342.43-13.364 1.718-3.34.43.095 2.243c.095 2.243.238 6.682.381 9.928.144 3.198.239 5.202.334 8.83z" fill="#DBA758"/><path fill-rule="evenodd" clip-rule="evenodd" d="M21.144 67.68c-2.004-.477-3.77-.859-4.63-1.05l-.859-.19 3.294-.287c3.293-.287 9.927-.86 13.22-1.146 3.294-.286 3.294-.286 3.39-.286.095 0 .238.048 2.29.382 2.053.334 5.967.954 7.924 1.24l1.956.287-1.002.143c-1.002.144-3.054.382-6.396.812-3.34.43-8.018 1.002-10.357 1.336l-2.339.286-1.145-.238c-1.05-.286-3.341-.811-5.346-1.289z" fill="#F7CE66"/><path fill-rule="evenodd" clip-rule="evenodd" d="M22.48 57.037l16.944.047.144 10.358-16.992.62-.096-11.025z" fill="#DBA758"/><path fill-rule="evenodd" clip-rule="evenodd" d="M20.81 57.084l1.67-.047.096 11.025-1.67-.859-.096-10.119z" fill="#F7CE66"/><path fill-rule="evenodd" clip-rule="evenodd" d="M31.883 57.084l-2.863-.047v8.018h2.816l.047-7.97zm6.969 10.692l-3.055.382L36.8 97.94l2.96-.525-.907-29.64z" fill="#FBFBFB"/><path fill-rule="evenodd" clip-rule="evenodd" d="M33.745 67.68l3.627-.143 1.48.239-3.055.382-2.052-.478zm-11.408.287l-2.195-.525 1.623-.287.716.764-.144.048z" fill="#FBFBFB"/><path d="M37.563 58.803h-4.152v2.672h4.152v-2.672z" fill="#FBFBFB"/><path fill-rule="evenodd" clip-rule="evenodd" d="M40.904 69.828l4.868-.716v3.246l-4.868.716v-3.246z" fill="#FBFBFB"/><path fill-rule="evenodd" clip-rule="evenodd" d="M31.406 159.273c.239.43.668 1.146.955 2.005.286.907.382 2.004.43 2.625.047.668-.048.859-.287.954-.191.144-.573.191-1.862.191-1.288 0-3.532-.047-4.82-.095-1.289-.048-1.718-.096-1.91-.191-.19-.095-.238-.286-.238-.716 0-.477-.048-1.193.095-1.957.144-.764.43-1.527.764-2.148.334-.668.668-1.193.907-1.384.238-.238.382-.191.907-.143.525.048 1.384.048 2.148.048.715 0 1.288.047 1.67.047.382.048.573.048.716.144.191.095.286.191.525.62z" fill="#24231D"/><path fill-rule="evenodd" clip-rule="evenodd" d="M28.208 164.38c1.48 0 3.055.048 3.819.048.763 0 .763 0 .763.191v.811c0 .239 0 .382-.048.477-.047.096-.095.096-.143.096h-.907c-.907 0-2.672-.048-4.104-.048s-2.53-.048-3.103-.048c-.572 0-.668 0-.716-.047-.047 0-.095-.048-.095-.096v-.334c0-.239 0-.716.048-.907.047-.238.095-.238.811-.191.764 0 2.195.048 3.675.048z" fill="#F7CE66"/><path fill-rule="evenodd" clip-rule="evenodd" d="M13.03 30.976c.191.382.048 1.385.143 2.196.096.811.478 1.432 1.05 1.91a4.034 4.034 0 001.91.858c.62.143 1.145.048 1.575-.095.43-.143.811-.43 1.05-.43.238 0 .334.191.238.43-.095.238-.381.572-1.05.859-.668.286-1.766.573-2.816.525a4.63 4.63 0 01-2.768-1.098 3.37 3.37 0 01-1.098-2.29c0-.908.239-1.862.668-2.435.382-.573.907-.811 1.098-.43z" fill="#36342B"/><path fill-rule="evenodd" clip-rule="evenodd" d="M172.876 93.645l8.639.143-.668-16.132-8.639.047.668 15.942zm14.653-.525l8.639-.286-.668-15.656-8.592.382.621 15.56z" fill="#999"/><path fill-rule="evenodd" clip-rule="evenodd" d="M196.741 74.887c-1.289 1.241-2.291 2.244-3.007 3.007-9.26-1.002-19.713-1.431-31.502-1.336 1.098-1.05 3.103-1.957 6.014-2.72 16.992.143 26.49.477 28.495 1.05z" fill="#DBA758"/><path fill-rule="evenodd" clip-rule="evenodd" d="M196.598 100.613c-1.91 2.769-2.721 3.532-2.721 3.532-.286-8.973-.334-17.134-.191-26.298a89.266 89.266 0 013.007-3.007c.096 17.42-.095 25.773-.095 25.773z" fill="#DBA758"/><path fill-rule="evenodd" clip-rule="evenodd" d="M193.734 77.894c-.143 7.733-.143 15.894.191 26.299-18.472-.238-31.836-1.097-31.836-1.097-.143-13.603-.095-22.481.143-26.538a278.203 278.203 0 0131.502 1.336zm-26.968-2.768c-.143 0-.238-.096-.238-.286 0-.144.095-.287.238-.287 4.535-.143 9.165-.095 13.794.096 4.63.19 9.355.525 14.128 1.002.143 0 .239.143.191.286 0 .144-.095.239-.239.239-4.772-.477-9.45-.86-14.08-1.002a266.29 266.29 0 00-13.794-.048z" fill="#F7CE66"/><path fill-rule="evenodd" clip-rule="evenodd" d="M175.31 76.653c1.575.048 3.103.096 4.534.191.191-.19-.047 11.503 0 16.18 0 0-4.486-.19-4.677-.19l.143-16.18z" fill="#F7F7F7"/><path fill-rule="evenodd" clip-rule="evenodd" d="M179.844 76.844c-3.007-.143-4.534-.19-4.534-.19 2.721-1.767 4.105-2.673 4.105-2.673 1.957.047 2.959.047 2.959.047-1.671 1.91-2.53 2.816-2.53 2.816z" fill="#E0E0E0"/><path fill-rule="evenodd" clip-rule="evenodd" d="M171.969 62.24c.286 2.958.812 8.16 1.098 10.881.286 2.721.286 2.912 1.289 3.055 1.002.143 3.054.287 5.011.239 1.909-.048 3.771-.334 4.725-.477.955-.144 1.098-.191 1.432-2.864.334-2.673.859-8.019 1.146-10.692.286-2.672.286-2.672.286-2.959 0-.286 0-.811-.477-1.05-.477-.286-1.48-.286-3.675-.286-2.196-.048-5.632-.096-7.685-.143-2.052-.048-2.768-.048-3.054.334-.43.334-.382 1.05-.096 3.961z" fill="#FDE742"/><path fill-rule="evenodd" clip-rule="evenodd" d="M170.442 59.519c.62.19 1.67.572 3.15.811 1.48.239 3.341.382 5.202.382 1.862 0 3.676-.096 5.251-.287a26.621 26.621 0 003.627-.715c.716-.191.907-.287 1.002-.382.096-.096.144-.191.144-.812v-2.338c0-.573 0-.573-.907-.764-.907-.191-2.721-.525-5.346-.668-2.673-.144-6.157-.096-8.448.047-2.291.144-3.437.334-4.009.43-.573.095-.573.143-.573.764 0 .62 0 1.909.048 2.53.047.715.238.81.859 1.002z" fill="#F7CE66"/><path fill-rule="evenodd" clip-rule="evenodd" d="M171.54 56.273c.811.238 2.529.43 4.582.525 2.052.143 4.391.19 6.3.143a43.802 43.802 0 004.105-.286c.811-.144 1.05-.239 1.05-.334 0-.096-.239-.24-1.05-.43-.812-.239-2.196-.573-4.487-.716-2.291-.143-5.441-.048-7.493.048-2.005.095-2.864.19-3.342.382-.429.19-.477.43.335.668z" fill="#24231D"/><path fill-rule="evenodd" clip-rule="evenodd" d="M177.458 54.984c-.382-1.766-.907-5.25-.955-9.307-.047-4.057.382-8.639 1.384-12.123 1.003-3.485 2.578-5.823 4.01-7.733a78.074 78.074 0 013.293-4.104c.621-.716.621-.62.477 1.814-.143 2.482-.477 7.35-1.145 11.264a44.04 44.04 0 01-2.721 9.498c-1.05 2.625-2.1 4.82-2.673 6.825-.572 2.005-.668 3.77-.715 4.678-.048.907-.048.907-.191.907-.144.047-.382.047-.764-1.719z" fill="#4AAB3C"/><path fill-rule="evenodd" clip-rule="evenodd" d="M177.601 54.125c0-1.527-.048-4.916-.954-8.114-.907-3.245-2.626-6.348-4.535-8.639a23.305 23.305 0 00-5.393-4.725c-1.384-.907-2.1-1.289-2.482-1.289-.382 0-.382.334-.239 1.289.143.954.43 2.53 1.194 4.296.763 1.813 1.956 3.818 3.293 5.488 1.336 1.719 2.72 3.055 3.914 4.487 1.193 1.384 2.1 2.816 2.911 4.152.812 1.337 1.432 2.626 1.814 3.437.382.811.477 1.145.477-.382z" fill="#5DC94C"/><path fill-rule="evenodd" clip-rule="evenodd" d="M181.276 49.4c.287-.955 1.146-2.864 2.864-4.344 1.718-1.48 4.2-2.481 6.014-3.007 1.814-.572 2.911-.62 3.436-.62.526 0 .478.143.287.573-.191.43-.525 1.145-1.193 2.195-.669 1.05-1.719 2.482-3.151 3.58-1.479 1.098-3.341 1.861-4.725 2.243-1.384.382-2.243.334-2.863.334-.621 0-.955 0-.669-.954z" fill="#4AAB3C"/><path fill-rule="evenodd" clip-rule="evenodd" d="M167.101 35.797a.145.145 0 010-.19c.047-.049.143-.049.191 0 1.288 1.622 2.625 3.197 3.818 4.867 1.193 1.671 2.339 3.342 3.246 5.108.906 1.766 1.622 3.58 2.291 5.44.62 1.862 1.145 3.771 1.67 5.68 0 .096-.048.144-.095.191-.096 0-.143-.047-.191-.095-.525-1.91-1.05-3.77-1.671-5.632-.62-1.861-1.336-3.675-2.243-5.441-.907-1.766-2.005-3.437-3.246-5.06-1.145-1.622-2.482-3.245-3.77-4.868z" fill="#409133"/><path fill-rule="evenodd" clip-rule="evenodd" d="M182.613 28.494c.047-.095.095-.095.191-.095.095.048.095.095.095.19-.43 1.05-.811 2.149-1.193 3.294a62.925 62.925 0 00-1.146 4.01c-.334 1.431-.668 3.006-.907 4.725-.334 1.957-.62 4.057-.906 6.014a236.81 236.81 0 00-1.098 10.07c0 .096-.096.144-.191.144-.096 0-.143-.096-.143-.191.334-3.246.62-6.492 1.097-10.119.239-1.957.573-4.057.907-6.014a83.01 83.01 0 01.955-4.725 65.754 65.754 0 011.145-4.057c.382-1.098.812-2.196 1.194-3.246zm7.684 15.274c.096-.048.143 0 .191.047.048.096 0 .144-.048.192-2.004 1.24-4.009 2.434-5.536 3.484-.764.525-1.384 1.002-1.957 1.432-.573.43-1.002.907-1.432 1.336-.43.43-.764.86-1.05 1.336a8.49 8.49 0 00-.716 1.48c-.382 1.098-.525 2.386-.716 3.675 0 .096-.095.143-.191.143-.095 0-.143-.095-.143-.19.191-1.29.334-2.626.716-3.723.191-.573.429-1.098.764-1.575a7.357 7.357 0 011.097-1.385c.43-.43.907-.907 1.432-1.336a25.97 25.97 0 011.957-1.48c1.623-.954 3.628-2.195 5.632-3.436z" fill="#409133"/><path fill-rule="evenodd" clip-rule="evenodd" d="M81.14 90.304l-8.496.096.573-13.078 8.448.047-.525 12.935zm-14.414-.477l-8.448-.239.525-12.648 8.448.286-.525 12.6z" fill="#999"/><path fill-rule="evenodd" clip-rule="evenodd" d="M57.562 75.079a77.674 77.674 0 013.007 2.434c9.068-.812 19.378-1.146 30.928-1.05-1.097-.86-3.054-1.575-5.918-2.196-16.705.096-26.013.382-28.017.812z" fill="#DBA758"/><path fill-rule="evenodd" clip-rule="evenodd" d="M57.705 96.175c1.91 2.243 2.864 3.34 2.864 3.34a424.7 424.7 0 000-22.002 37.164 37.164 0 00-3.007-2.435l.143 21.097z" fill="#DBA758"/><path fill-rule="evenodd" clip-rule="evenodd" d="M60.569 77.513c.238 6.252.238 13.603 0 22.003l31.262-1.575c.048-11.026-.095-18.185-.381-21.478-10.31-.143-20.62.19-30.881 1.05zm26.441-2.196c.144 0 .24-.095.24-.19 0-.144-.096-.24-.191-.24a256.993 256.993 0 00-13.556.048c-4.582.144-9.164.43-13.841.812-.143 0-.191.095-.191.238 0 .144.095.191.239.191 4.677-.382 9.26-.668 13.841-.811a253.32 253.32 0 0113.46-.048z" fill="#F7CE66"/><path fill-rule="evenodd" clip-rule="evenodd" d="M78.61 76.558c-1.575.048-3.054.096-4.438.143-.191-.143.143 9.308.143 13.078 0 0 4.391-.143 4.63-.143 0 0-.143-4.391-.334-13.078z" fill="#F7F7F7"/><path fill-rule="evenodd" clip-rule="evenodd" d="M74.171 76.701l4.44-.143a149.773 149.773 0 01-4.058-2.196c-1.957.048-2.911.048-2.911.048a274.99 274.99 0 002.53 2.291z" fill="#E0E0E0"/><path d="M71.339 79.692l-7.831.832.56 5.268 7.83-.832-.56-5.268z" fill="#F7F7F7"/><path fill-rule="evenodd" clip-rule="evenodd" d="M69.924 78.944l-8.64-2.911-.143-27.779 8.926 1.432-.143 29.258z" fill="#DBA758"/><path fill-rule="evenodd" clip-rule="evenodd" d="M69.924 78.945l.143-29.259 9.689-.525-.334 28.877-9.498.907z" fill="#F7CE66"/><path fill-rule="evenodd" clip-rule="evenodd" d="M79.756 49.066l-9.69.811-8.925-1.67 9.26-.287 9.355 1.146z" fill="#DBA758"/><path fill-rule="evenodd" clip-rule="evenodd" d="M75.89 49.4l-3.103.239.143 18.614 3.055-.19L75.89 49.4z" fill="#F7F7F7"/><path fill-rule="evenodd" clip-rule="evenodd" d="M72.787 49.639l3.103-.239-8.067-1.384h-1.145v.525l6.11 1.098z" fill="#F7F7F7"/><path fill-rule="evenodd" clip-rule="evenodd" d="M61.81 101.568c-1.003-.047-2.34-.095-3.39-.143-1.05-.048-1.718-.095-2.338-.191-.62-.048-1.193-.143-1.527-.238-.334-.048-.478-.096-.573-.144a.575.575 0 01-.143-.095v1.336l.525.096c.525.095 1.527.334 3.532.573 1.956.238 4.916.477 7.875.525 2.96.047 5.966-.096 8.066-.287 2.148-.191 3.389-.382 4.057-.573.668-.143.764-.238.764-.286.048-.048.048-.048.048-.286v-.907c0-.239 0-.239-.048-.191a.51.51 0 01-.239.143 3.976 3.976 0 01-.62.143c-.287.048-.668.096-1.289.191-.62.048-1.432.143-2.243.191-.812.048-1.575.096-2.482.143-.907.048-1.862.048-2.912.096h-4.916c-.572-.048-1.145-.048-2.148-.096z" fill="#2B2A29"/><path fill-rule="evenodd" clip-rule="evenodd" d="M66.248 101.616c6.873 0 12.458-.382 12.458-.907s-5.585-.907-12.458-.907-12.457.382-12.457.907 5.632.907 12.457.907z" fill="#24231D"/><path fill-rule="evenodd" clip-rule="evenodd" d="M55.748 18.233c-.286.143-.286.143-.764 2.338a721.253 721.253 0 01-1.814 8.783c-.429 2.243-.429 2.29-.429 2.338 0 .048 0 .048.143.096.143.047.382.19 1.05.382.668.19 1.719.43 4.391.572 2.625.144 6.873.191 10.405.096 3.532-.096 6.3-.287 7.971-.525 1.623-.191 2.148-.382 2.387-.478l.238-.095-.286-2.29c-.287-2.292-.812-6.874-1.098-9.165-.286-2.291-.286-2.291-.43-2.387-.19-.047-.525-.19-1.431-.381-.907-.143-2.291-.287-4.391-.43-2.1-.095-4.869-.19-7.398-.095-2.53.047-4.773.286-6.205.525-1.385.286-2.005.573-2.34.716z" fill="#FDE742"/><path fill-rule="evenodd" clip-rule="evenodd" d="M60.855 31.072c-1.241.047-2.625.143-3.866.19-1.241.096-2.243.144-2.816.24-.573.047-.668.095-.43.19.239.096.764.287 1.575.43.812.143 1.91.239 3.103.286 1.24.048 2.577.096 4.01.143 1.431.048 2.91.048 4.724 0 1.814-.047 4.01-.143 5.823-.238 1.814-.096 3.341-.287 4.248-.382.907-.096 1.289-.191 1.432-.287.143-.095.096-.143-.143-.238-.239-.096-.62-.143-1.862-.239-1.24-.095-3.293-.19-5.536-.238-2.243-.048-4.582-.048-6.3-.048-1.719.095-2.769.143-3.962.19z" fill="#24231D"/><path fill-rule="evenodd" clip-rule="evenodd" d="M66.678 62.526v-30.07l.143-.096c.143-.095.382-.238.573-.525.19-.238.286-.572.334-.716l.048-.143h-3.294c-.095 0-.095 0-.095.096.048.095.095.334.239.525.143.19.381.43.525.525.143.143.238.19.286.19l.048.049v68.396h1.097v-6.73c.096-6.682.096-20.142.096-31.502z" fill="#2B2A29"/><path fill-rule="evenodd" clip-rule="evenodd" d="M117.558 63.432c-.621-2.482-1.623-6.92-2.1-9.88-.478-2.959-.478-4.343 0-5.393.477-1.05 1.431-1.67 3.102-2.196 1.671-.477 4.152-.811 8.878-.907 4.725-.095 11.741.048 16.037.24 4.295.19 5.918.429 7.111 1.002 1.241.572 2.053 1.48 2.291 2.863.239 1.432-.143 3.341-.715 6.205-.573 2.864-1.337 6.682-1.671 8.591-.382 1.91-.382 1.91-.859 2.435-.477.525-1.48 1.622-2.387 2.911-.906 1.337-1.718 2.864-2.338 3.532-.621.62-1.003.382-1.241.239-.191-.144-.191-.144-2.769-.048-2.577.095-7.732.334-10.977.239-3.246-.048-4.582-.43-5.251-.62-.668-.192-.668-.192-.859 0-.191.142-.525.476-1.002-.24s-1.098-2.386-1.814-3.484c-.716-1.098-1.432-1.575-1.957-2.052-.572-.525-.859-1.002-1.479-3.437z" fill="#FDE742"/><path fill-rule="evenodd" clip-rule="evenodd" d="M123.858 72.215c.095.19.095.19-.573.811-.62.62-1.909 1.862-2.53 2.53-.62.668-.668.716-.668.716s-.048 0-.238-.764c-.191-.811-.478-2.434-.907-3.675-.382-1.241-.859-2.148-1.337-2.769-.477-.62-1.002-1.05-1.67-1.336-.668-.334-1.528-.573-2.053-.716-.525-.143-.668-.143-.716-.143h.048s-.095 0-.048-.048c.048-.047.287-.095 1.194-.286.859-.143 2.386-.43 3.15-.525.763-.096.763-.048.859.047.048.096.191.24.286.382.144.144.239.239.525.382.287.143.716.382 1.098.573.382.19.668.43.907.62.286.24.525.526.811.86.287.381.525.811.764 1.24.239.43.43.86.621 1.242.286.381.429.715.477.859zm21.192-2.291c-.239.381-.573.954-.859 1.48-.287.477-.478.906-.621 1.145-.095.19-.095.19.525.763.668.573 1.957 1.67 2.578 2.244.668.572.668.62.715.62l.287-.573c.239-.572.764-1.718 1.623-3.102s2.052-2.96 2.72-4.01c.668-1.05.764-1.574.955-1.813.238-.239.573-.19.716-.143.143 0 .095 0-.382-.048-.525-.095-1.48-.239-2.1-.382-.668-.095-1.002-.19-1.146-.238-.191-.048-.191-.048-.238 0-.096.047-.239.143-.621.381-.334.191-.859.478-1.384.86-.525.334-.955.715-1.336 1.05-.382.334-.621.668-.859.906-.191.24-.335.478-.573.86z" fill="#CBB935"/><path fill-rule="evenodd" clip-rule="evenodd" d="M121.042 75.174a88.365 88.365 0 01-1.719 1.336c-.19.191.287-.047 5.251-.047 4.916 0 14.271.19 18.853.19 4.534 0 4.295-.238 4.2-.334-.143-.095-.143-.095-.477-.382l-1.671-1.431c-.668-.573-1.288-1.146-1.623-1.385-.334-.286-.334-.286-.429-.238-.096 0-.334.047-1.193.047-.907 0-2.482-.047-5.394-.095-2.959-.048-7.255-.143-9.641-.239-2.387-.047-2.768-.095-2.959-.095-.191 0-.191 0-.382.143l-1.003 1.002c-.572.382-1.145.955-1.813 1.528z" fill="#E9D53D"/><path fill-rule="evenodd" clip-rule="evenodd" d="M119.133 77.322c0 .715.047 2.1.047 2.768v.716s0 .047 1.623.095 4.821.096 9.785.096c4.964.047 11.741.095 15.13.095 3.389 0 3.437 0 3.437-.048.047-.047.095-.19.095-1.002 0-.764 0-2.195-.048-2.96-.047-.763-.095-.858-.382-.858-.286-.048-.859-.048-3.15-.048h-10.882c-4.63 0-9.832-.095-12.505-.095h-2.959c-.096 0-.191 0-.191.047-.048.048-.048.096-.048.191.048.096.048.239.048 1.002z" fill="#F3DE3F"/><path fill-rule="evenodd" clip-rule="evenodd" d="M148.677 76.844v2.435c0 .716-.048 1.05-.095 1.193 0 .143 0 .143-.096.143-.047 0-.191.048-.286.048h-8.257c-2.434 0-4.63 0-7.542-.048-2.959 0-6.682-.048-8.973-.096-2.291-.047-3.102-.047-3.484-.095-.382 0-.382 0-.382-.048v-3.913c0-.191 0-.24.048-.287 0-.048.048-.048.095-.048h.335v-.286c0-.286-.048-.907-.144-1.766-.095-.811-.191-1.861-.286-2.577-.095-.716-.191-1.098-.334-1.528a6.761 6.761 0 00-.573-1.193c-.239-.382-.525-.668-.859-.955-.334-.286-.764-.524-1.241-.715a11.09 11.09 0 00-1.384-.43c-.382-.095-.621-.095-.907-.095-.286 0-.62.047-1.002.19a2.704 2.704 0 00-1.098.764 2.341 2.341 0 00-.573 1.575c-.048.668.143 1.384.43 2.148.334.716.763 1.432 1.241 2.53.429 1.097.811 2.625 1.288 4.009.478 1.384 1.003 2.673 1.575 3.723.573 1.05 1.241 1.861 1.862 2.339.62.525 1.241.716 1.718.859.477.143.859.19 5.537.19 4.677 0 13.698-.047 18.376-.095 4.677-.047 5.011-.047 5.393-.19.382-.096.811-.335 1.384-1.146.573-.812 1.289-2.243 1.766-3.675.477-1.432.668-2.816 1.002-3.771.335-1.002.812-1.575 1.194-2.339a10.46 10.46 0 00.907-2.768c.191-1.05.238-2.1.047-2.864a2.08 2.08 0 00-1.002-1.288c-.334-.192-.525-.24-.716-.24-.191-.047-.286-.047-.573 0-.286 0-.716.096-1.145.192-.382.095-.716.238-1.05.382-.334.19-.668.43-1.003.763a6.478 6.478 0 00-1.002 1.337c-.334.525-.62 1.193-.811 1.766a10.794 10.794 0 00-.43 1.67 22.284 22.284 0 00-.239 1.862c-.047.62-.095 1.145-.095 1.431v.287h.191c.191 0 .573 0 .764.048.381-.048.429 0 .429.572z" fill="#FDE742"/><path fill-rule="evenodd" clip-rule="evenodd" d="M121.471 84.815h-.62c-.095 0-.095 0-.955 2.434a600.302 600.302 0 00-3.341 9.833c-.811 2.482-.811 2.577-.716 2.625.096.047.239.095.573.095.334 0 .907-.095 1.241-.19.334-.096.382-.192 1.146-1.862.763-1.67 2.243-4.868 3.341-7.255 1.097-2.434 1.909-4.057 2.243-4.868.334-.812.286-.812-.095-.812h-1.528c-.573.048-1.002 0-1.289 0zm6.969.048h-1.241l-.668 1.814c-.668 1.813-2.005 5.488-2.673 7.35-.668 1.91-.716 2.005-.668 2.1.047.096.191.096.477.143.286 0 .716 0 .955-.047.238 0 .238 0 1.097-1.91.86-1.909 2.578-5.68 3.437-7.589.859-1.909.859-1.909.716-1.909h-.668c-.287.048-.478.048-.764.048zm18.423-.048h.621c.095 0 .095 0 .955 2.434a599.74 599.74 0 013.341 9.833c.811 2.482.811 2.577.716 2.625-.096.047-.239.095-.573.095-.334 0-.907-.095-1.241-.19-.334-.096-.382-.192-1.146-1.862-.763-1.67-2.243-4.868-3.341-7.255-1.098-2.434-1.909-4.057-2.243-4.868-.334-.812-.286-.812.095-.812h1.528c.572.048 1.002 0 1.288 0zm-6.968.048h1.241l.668 1.814c.668 1.813 2.005 5.488 2.673 7.35.668 1.91.716 2.005.668 2.1-.048.096-.191.096-.477.143-.286 0-.716 0-.955-.047-.238 0-.238 0-1.097-1.91-.86-1.909-2.578-5.68-3.437-7.589-.859-1.909-.859-1.909-.716-1.909h.668c.239.048.43.048.764.048z" fill="#2B2A29"/></g><defs><clipPath id="clip0_601_12597"><path fill="#fff" d="M0 0h350v166.003H0z"/></clipPath></defs></svg>