<svg width="350" height="177" fill="none" xmlns="http://www.w3.org/2000/svg"><g clip-path="url(#clip0_601_12191)"><path fill-rule="evenodd" clip-rule="evenodd" d="M68.342 146.401c.052 1.215.052 2.641.264 3.433.211.792.686.898 1.479.951.845.052 2.007 0 2.64.052.634.053.634.212.634.634 0 .475 0 1.215-.158 1.585-.106.422-.317.475-.74.633-.422.212-1.003.528-1.267 1.109s-.212 1.321.21 1.849c.423.475 1.216.687 2.43.739 1.268.053 3.01 0 10.933-.052 7.922-.053 22.023-.159 32.111-.476 10.087-.37 16.161-1.003 22.499-1.743 6.338-.739 12.992-1.584 19.171-2.271 6.127-.686 11.725-1.162 17.482-1.162s11.672.581 14.946.898c3.275.317 3.909.476 7.236.528 3.274.053 9.19.053 12.147.053 2.958 0 3.011 0 3.011.423v1.69c0 .422.052.422 3.116.369l12.2-.211 3.063-.053v.687c0 .687.053 2.007.106 2.641.052.686.105.686.211.739.105.053.211.106 5.862-.211s16.901-.951 28.256-2.113 22.816-2.746 29.681-3.485c6.866-.74 9.19-.581 10.669-.476 1.479.106 2.112.159 7.605-.053 5.493-.211 15.792-.739 20.967-.95 5.176-.264 5.176-.264 4.701-.792-.475-.529-1.373-1.585-2.324-2.483-.951-.95-1.954-1.743-4.595-8.08-2.641-6.338-6.918-18.221-15.052-22.182-8.133-3.961-20.069 0-28.044 2.482-7.975 2.482-11.989 3.486-16.373 7.13-4.33 3.644-9.031 9.876-11.936 13.732-2.904 3.908-4.066 5.439-9.876 6.337-5.81.898-16.267 1.215-19.805-2.429-3.539-3.592-.159-11.144-4.278-15.052-4.12-3.909-15.792-4.173-36.759-1.902s-51.283 7.13-71.458 9.401c-20.175 2.324-30.157 2.113-36.811 1.955-6.602-.159-9.824-.265-11.672.211-1.849.475-2.377 1.426-2.535 2.482-.053 1.162.053 2.218.053 3.433z" fill="#24231D"/><path d="M208.511 0H0v126.49h208.511V0z" fill="#4AAB3C"/><path fill-rule="evenodd" clip-rule="evenodd" d="M180.466 148.249c21.76-.052 26.196-.052 28.414-.052h2.219l-.053-.528c-.053-.529-.212-1.638-.423-4.384-.211-2.799-.475-7.236-.581-10.352-.158-3.063-.158-4.753-.158-5.598v-.845H16.267v1.215c0 1.214-.053 3.591-.053 4.806v1.32c0 .106-.053.37-.053 1.426-.053 1.004-.053 2.852-.106 3.75v.898h12.623s-.053 0-.053 1.426 0 4.278.053 5.704v1.637c0 .053.053.053 8.662.053 8.661 0 25.931 0 54.134-.106 28.097-.158 67.233-.317 88.992-.37z" fill="#36342B"/><path d="M210.359 131.138H7.183v8.397h203.176v-8.397z" fill="#4F4D3E"/><path d="M200.377 131.138h-47.163v23.977h47.163v-23.977z" fill="#4F4D3E"/><path fill-rule="evenodd" clip-rule="evenodd" d="M71.14 147.88l-.263.739h-2.483l.317-.95c.317-.951.898-2.905 2.377-5.493 1.479-2.588 3.855-5.81 5.915-8.133 2.06-2.324 3.75-3.75 5.123-4.859 1.426-1.109 2.535-1.902 3.116-2.271.581-.37.581-.37 2.852-.37h19.7c1.69 0 1.69 0 2.429.422.793.423 2.324 1.215 4.225 2.43 1.902 1.267 4.12 2.905 6.18 5.176 2.059 2.218 3.908 5.07 4.911 7.447 1.004 2.429 1.11 4.436 1.162 5.439l.053 1.004h-2.271l-.053-.634c-.052-.634-.211-1.901-.739-3.538-.528-1.638-1.479-3.697-2.43-5.335-1.003-1.69-2.059-2.957-3.644-4.436-1.584-1.479-3.75-3.116-5.334-4.172-1.584-1.057-2.535-1.479-3.063-1.69-.528-.212-.634-.159-4.12-.212-3.433 0-10.246-.053-13.679-.105h-3.38l-1.056.633c-1.056.634-3.169 1.902-5.229 3.697-2.06 1.796-4.013 4.067-5.545 6.074-1.479 2.007-2.535 3.75-3.327 5.387a27.977 27.977 0 00-1.743 3.75z" fill="#24231D"/><path d="M98.023 176.03c12.601 0 22.816-9.931 22.816-22.182s-10.215-22.182-22.816-22.182c-12.6 0-22.816 9.931-22.816 22.182s10.216 22.182 22.816 22.182z" fill="#24231D"/><path d="M98.023 168.425c8.284 0 15-6.527 15-14.577 0-8.051-6.716-14.577-15-14.577-8.284 0-14.999 6.526-14.999 14.577 0 8.05 6.715 14.577 15 14.577z" fill="#403E32"/><path fill-rule="evenodd" clip-rule="evenodd" d="M98.023 163.988c5.335 0 9.665-4.383 9.665-9.77s-4.33-9.771-9.665-9.771c-5.334 0-9.665 4.384-9.665 9.771 0 5.387 4.331 9.77 9.665 9.77z" fill="#737160"/><path d="M301.992 176.03c12.601 0 22.816-9.931 22.816-22.182s-10.215-22.182-22.816-22.182c-12.601 0-22.816 9.931-22.816 22.182s10.215 22.182 22.816 22.182z" fill="#24231D"/><path d="M301.992 168.425c8.284 0 14.999-6.527 14.999-14.577 0-8.051-6.715-14.577-14.999-14.577s-14.999 6.526-14.999 14.577c0 8.05 6.715 14.577 14.999 14.577z" fill="#403E32"/><path fill-rule="evenodd" clip-rule="evenodd" d="M301.992 163.988c5.334 0 9.665-4.383 9.665-9.77s-4.331-9.771-9.665-9.771c-5.334 0-9.665 4.384-9.665 9.771 0 5.387 4.331 9.77 9.665 9.77z" fill="#737160"/><path d="M202.331 6.285H5.546v113.551H202.33V6.285z" fill="#4F4D3E"/><path fill-rule="evenodd" clip-rule="evenodd" d="M5.546 119.836V6.285l21.178 9.137v84.714l-21.178 19.7z" fill="#737160"/><path fill-rule="evenodd" clip-rule="evenodd" d="M5.546 119.835l21.178-19.699h155.802l19.805 19.699H5.546z" fill="#36342B"/><path fill-rule="evenodd" clip-rule="evenodd" d="M202.331 119.836V6.285l-19.805 9.137v84.714l19.805 19.7z" fill="#737160"/><path fill-rule="evenodd" clip-rule="evenodd" d="M202.331 6.285H5.546l21.178 9.137h155.802l19.805-9.137z" fill="#737160"/><path fill-rule="evenodd" clip-rule="evenodd" d="M331.04 114.026c3.221-1.637 8.027-3.697 10.51-4.701 2.482-1.003 2.535-1.003 2.588-1.003.052 0 .052 0 .581 1.479.528 1.479 1.584 4.383 2.376 7.394.792 3.01 1.321 6.073 1.637 7.658.265 1.531.317 1.531.423 1.637l.423.423c.105.105.105.158.158.792.106.634.264 1.901.317 3.697.053 1.848 0 4.225-.106 6.496-.105 2.271-.317 4.384-.686 6.126-.37 1.691-.845 3.011-1.743 4.226a10.685 10.685 0 01-3.909 3.274c-1.795.898-4.066 1.532-5.228 1.849-1.162.316-1.162.316-1.901.528-.74.211-2.219.686-3.645.898-1.426.211-2.904.158-3.644.105-.739-.053-.792-.053-.792-.105v-.476c0-.422.053-1.32 0-3.169-.053-1.848-.211-4.647-.739-7.288-.529-2.588-1.426-5.017-2.43-7.077-1.003-2.06-2.112-3.697-3.327-5.07-1.215-1.321-2.535-2.324-3.327-2.905-.793-.581-1.057-.792-1.215-.845-.159-.106-.159-.106.105-.317.212-.211.634-.634 1.902-2.271 1.214-1.637 3.274-4.542 5.07-6.602 1.743-1.954 3.38-3.116 6.602-4.753z" fill="#36342B"/><path fill-rule="evenodd" clip-rule="evenodd" d="M333.047 99.185c-.951-.528-2.219-1.162-3.645-1.901-1.426-.74-2.957-1.48-4.964-2.43-2.007-.95-4.437-2.06-6.391-2.904l-4.278-1.902c-.897-.422-1.373-.58-1.742-.74-.37-.158-.687-.263-1.004-.369a5.98 5.98 0 00-.792-.211c-.264-.053-.476-.106-.687-.106-.211 0-.422-.053-.528-.053-.106 0-.106 0 4.331 2.483 4.436 2.482 13.309 7.5 18.062 10.562 4.754 3.064 5.387 4.12 6.496 4.912 1.11.792 2.747 1.321 3.75 1.796 1.057.475 1.479.845 1.954.951.423.105.845 0 1.057-.053.211-.053.211-.053.105-.423a48.987 48.987 0 00-.422-1.426c-.106-.369-.106-.369-.159-.475-.052-.106-.158-.264-.264-.423-.105-.158-.211-.264-.422-.475-.211-.158-.476-.422-1.004-.845s-1.32-.951-2.218-1.584c-.898-.634-1.954-1.268-2.799-1.796s-1.532-.951-2.218-1.32a19.396 19.396 0 00-2.218-1.268z" fill="#fff"/><path fill-rule="evenodd" clip-rule="evenodd" d="M344.085 110.223c.845-1.003.845-1.003.739-1.426a17.36 17.36 0 00-.581-1.795c-.211-.529-.422-.793-1.531-1.69a57.246 57.246 0 00-6.021-4.014c-2.905-1.743-6.655-3.697-10.616-5.651a459.722 459.722 0 00-10.88-4.965c-2.64-1.162-3.697-1.637-4.542-1.901-.845-.264-1.426-.264-1.743-.264-.316 0-.316 0-1.531-.793-1.215-.792-3.592-2.323-6.496-4.595-2.905-2.27-6.285-5.334-11.514-9.77-5.176-4.49-12.2-10.404-17.112-14.524-4.911-4.12-7.816-6.496-10.457-8.292-2.641-1.743-5.123-2.852-9.084-3.538-3.961-.687-9.454-.951-15.844-.951-6.391 0-13.732.264-17.746.475-4.014.211-4.647.423-4.964.74-.317.317-.317.792-.423 7.5-.105 6.707-.317 19.646-.211 36.97.106 17.322.475 39.029.687 50.067.211 11.038.211 11.461.316 11.831.159.369.423.686.74.897.317.212.686.317.95.37.265.053.37.053 4.542.106 4.12.053 12.253.211 22.288.369 10.035.159 21.918.37 27.939.476 5.968.105 6.021.105 6.073.105.053 0 .106 0 .159-.475.053-.475.158-1.479.528-3.855.423-2.377 1.162-6.127 2.113-9.243.95-3.116 2.007-5.545 3.433-7.711 1.426-2.165 3.168-4.066 5.017-5.492 1.848-1.479 3.803-2.536 5.968-3.328 2.165-.792 4.489-1.267 7.077-1.426 2.588-.158 5.44.106 7.764.528 2.324.423 4.119 1.057 5.598 1.743a27.29 27.29 0 013.222 1.796l.581.37 2.323-1.426c2.324-1.426 6.972-4.278 10.511-6.549 3.538-2.271 5.968-3.961 8.08-5.81 2.007-1.796 3.75-3.855 4.648-4.859z" fill="#4AAB3C"/><path fill-rule="evenodd" clip-rule="evenodd" d="M311.551 100.928c2.218 1.479 6.074 4.489 8.081 6.443 2.007 1.954 2.165 2.799 2.06 3.38-.106.581-.476.898-1.321.951-.845.053-2.218-.106-10.087-1.849-7.87-1.742-22.235-5.122-35.914-8.291-13.732-3.17-26.777-6.074-33.537-7.817-6.76-1.69-7.183-2.165-7.552-2.799-.37-.634-.74-1.373-.687-2.007.053-.634.528-1.056.792-1.32.264-.212.264-.212 11.355 1.214 11.144 1.48 33.379 4.384 45.262 6.021 11.883 1.638 13.415 2.06 14.735 2.588 1.321.528 2.377 1.215 3.222 1.585.845.37 1.373.37 3.591 1.901z" fill="#509663"/><path fill-rule="evenodd" clip-rule="evenodd" d="M241.625 89.679c4.225.739 11.144 1.795 19.964 3.168a2174.1 2174.1 0 0127.305 4.437c7.764 1.267 12.57 2.112 15.422 2.588 2.852.475 3.75.528 4.331.528.58 0 .792-.053 1.003-.159a.769.769 0 00.317-.475c.053-.211 0-.475-.053-.74-.053-.263-.211-.527-1.32-1.584-1.162-1.056-3.328-2.957-9.032-8.027-5.703-5.07-14.946-13.31-21.389-18.96-6.444-5.652-10.088-8.715-12.464-10.564-2.43-1.848-3.645-2.43-5.071-3.063-1.478-.58-3.169-1.215-6.02-1.584-2.8-.423-6.761-.634-10.246-.792a198.186 198.186 0 00-8.345-.212c-1.743 0-2.165 0-2.746.159a4.166 4.166 0 00-1.849 1.056c-.581.58-1.003 1.373-1.215 2.218-.211.792-.211 1.637.053 5.915.264 4.278.898 12.042 1.162 16.109.317 4.066.317 4.489.475 5.017.159.528.423 1.162.898 1.796.476.633 1.109 1.162 2.166 1.637.95.422 2.429.845 6.654 1.532z" fill="#403E32"/><path fill-rule="evenodd" clip-rule="evenodd" d="M237.189 87.513c-1.743-.422-2.377-.792-2.852-1.215a3.971 3.971 0 01-1.004-1.373c-.211-.475-.369-.95-.739-4.912-.37-3.96-1.004-11.46-1.321-15.685-.316-4.226-.369-5.229-.264-6.021.106-.74.317-1.215.74-1.69.422-.476.95-.898 1.743-1.11.792-.21 1.743-.158 3.01-.105 1.32.053 2.905.106 5.387.211 2.482.106 5.81.212 8.503.476 2.747.21 4.912.528 6.391.845 1.479.317 2.324.686 2.746.845.423.158.423.158.475 1.109.053.95.212 2.852.634 8.239a1910.12 1910.12 0 001.585 18.802c.369 4.594.422 5.017.422 5.334 0 .317-.105.528-1.056.422-.951-.105-2.799-.528-5.81-1.003-3.01-.475-7.13-1.056-10.615-1.585-3.433-.633-6.285-1.161-7.975-1.584zm26.037-21.231a2444.74 2444.74 0 001.532 18.802c.369 4.858.422 5.387.475 5.81.053.422.211.739.37.95.158.264.369.475.792.634.37.158.951.317 3.38.686 2.43.37 6.76 1.056 8.926 1.373 2.165.317 2.165.317 2.271-1.373.105-1.69.264-5.07.317-8.186.052-3.063-.053-5.862-.212-7.658-.158-1.796-.369-2.588-.897-3.38-.529-.792-1.479-1.585-3.803-3.591-2.324-2.008-6.074-5.335-8.239-7.183-2.166-1.849-2.641-2.271-3.116-2.588-.423-.317-.845-.581-1.162-.687-.317-.105-.581-.105-.739 0-.159.106-.265.317-.265.687 0 .37 0 .898.37 5.704z" fill="#E6E6E6"/><path fill-rule="evenodd" clip-rule="evenodd" d="M280.338 80.436c-.211 1.796-.475 5.07-.687 7.71a159.862 159.862 0 00-.369 6.022c-.053 1.267 0 1.743.211 2.165.158.37.475.687 1.215.95.739.265 1.901.476 3.01.476 1.109 0 2.166-.211 2.958-.634.792-.475 1.426-1.162 1.795-2.588.423-1.426.634-3.538.793-6.179.158-2.693.317-5.915.317-7.71 0-1.796-.106-2.06-.423-2.377-.317-.317-.898-.581-1.796-.793a16.931 16.931 0 00-3.274-.528c-1.004-.105-1.637-.053-2.166.159a1.742 1.742 0 00-1.056.845c-.211.264-.37.686-.528 2.482z" fill="#24231D"/><path fill-rule="evenodd" clip-rule="evenodd" d="M279.863 86.193c.211-2.482.422-4.648.528-5.862.105-1.215.158-1.48.211-1.638.053-.211.053-.317.106-.422.052-.106.105-.212.211-.37.106-.106.211-.264.37-.422.105-.106.211-.212.369-.265.159-.052.264-.158.423-.21.158-.054.317-.107.475-.107.159 0 .317-.052.528-.052h.792c.317 0 .687.052 1.11.105.422.053.95.106 1.426.212.422.105.792.158 1.109.264.317.105.581.158.898.317.264.105.528.264.739.422l.317.317c.053.053.053.053-.528-.053a19.162 19.162 0 00-2.958-.528c-1.162-.158-2.324-.158-2.958-.053-.633.053-.739.159-.95.634-.211.475-.476 1.32-.74 3.697-.264 2.324-.528 6.126-.633 8.767-.106 2.588-.106 4.014 0 4.912.105.898.317 1.267.633 1.479.317.21.687.316.845.316.212.053.212.053-.052 0a9.992 9.992 0 01-1.057-.264 5.418 5.418 0 01-.581-.21c-.158-.054-.264-.16-.369-.212-.106-.106-.212-.159-.264-.264a1.105 1.105 0 01-.212-.317c-.052-.106-.105-.211-.105-.37-.053-.158-.053-.37-.053-.686 0-.264 0-.634.053-2.218-.053-1.69.105-4.437.317-6.92zm-52.287 14.365c.212.634.687 1.585 1.11 2.166.422.528.897.686 2.746.739 1.848.053 5.07.053 6.76.053 1.637-.053 1.743-.106 2.271-.634.528-.528 1.479-1.479 1.954-2.113.476-.633.528-.897.476-1.214-.053-.317-.159-.687-.687-1.32-.528-.634-1.479-1.532-1.954-2.008-.528-.475-.634-.475-2.165-.58-1.532-.053-4.49-.159-6.18-.159-1.637 0-2.007.053-2.376.264-.37.211-.845.581-1.215 1.11-.37.527-.634 1.214-.792 1.636-.159.423-.159.634-.159.898s0 .528.211 1.162z" fill="#4F4D3E"/><path fill-rule="evenodd" clip-rule="evenodd" d="M232.013 100.928c.264.317.739.845.951 1.162.264.317.317.317 1.162.369.897.053 2.587.159 3.432.159.846 0 .846 0 1.215-.37.37-.369 1.057-1.056 1.373-1.426.37-.369.37-.369.317-.422h-1.637c-1.479 0-4.278 0-5.704-.053-1.426 0-1.479 0-1.479.053.053.105.106.211.37.528zm4.648-2.271h-5.229s-.053-.053.317-.423 1.109-1.109 1.479-1.426c.369-.37.369-.37 1.162-.37h3.063c.792 0 .845 0 .951.106.105.053.316.159.633.476.37.317.845.845 1.109 1.162.264.264.264.317.264.37v.105s-.052.053-.58.053c-.581-.053-1.691-.053-3.169-.053z" fill="#24231D"/><path fill-rule="evenodd" clip-rule="evenodd" d="M293.594 109.378c0 .528 0 1.268.053 1.69.053.423.053.476.264.528.211.053.528.159 1.585.212 1.056 0 2.799 0 3.749-.053.951-.053 1.162-.053 1.268-.159.158-.105.264-.211.317-.792.053-.528.053-1.479-.053-2.007-.053-.528-.158-.634-.317-.686-.158-.053-.264-.106-1.32-.159a50.687 50.687 0 00-4.014 0c-1.056 0-1.162.053-1.268.106-.105.053-.158.158-.211.37 0 .158-.053.475-.053.95z" fill="#403E32"/><path fill-rule="evenodd" clip-rule="evenodd" d="M294.123 109.061c0 .476 0 1.321.052 1.743.053.423.106.475.212.528.158.053.369.106.897.106.581.053 1.479.053 2.377 0 .845 0 1.69-.053 2.113-.106.422-.053.475-.053.528-.105.053-.053.105-.106.105-.423s0-.845-.052-1.267c0-.423-.053-.793-.053-1.004-.053-.211-.106-.264-.845-.264h-4.965c-.317 0-.317.053-.369.106.052.158 0 .211 0 .686z" fill="#E6E6E6"/><path fill-rule="evenodd" clip-rule="evenodd" d="M279.07 130.662c2.166-2.059 5.071-4.489 7.923-6.232 2.852-1.743 5.598-2.852 8.978-3.486 3.327-.633 7.288-.739 10.616-.528 3.327.212 6.073.74 8.397 1.532a24.83 24.83 0 015.44 2.641c1.215.792 1.69 1.32 1.954 1.584s.264.264.845-.106c.581-.369 1.743-1.056 2.799-1.742 1.057-.687 2.113-1.321 2.588-1.638l.528-.317-1.214-.95c-1.215-.951-3.592-2.852-7.394-4.595-3.803-1.743-9.084-3.433-14.26-4.12-5.176-.686-10.299-.422-14.947.898-4.647 1.321-8.714 3.75-11.619 6.232-2.905 2.483-4.595 5.018-5.598 7.236-1.004 2.271-1.373 4.278-1.479 5.704-.105 1.426.106 2.324.37 2.799.264.423.686.423 1.584-.37.845-.845 2.324-2.482 4.489-4.542z" fill="#5DC94C"/><path fill-rule="evenodd" clip-rule="evenodd" d="M332.994 105.417c1.056 2.271 2.957 6.444 4.066 8.715s1.374 2.64 1.69 2.904c.264.264.581.317 1.849.898 1.267.581 3.538 1.585 4.859 2.166 1.32.581 1.637.739 1.848.792.159 0 .212-.159-.422-2.218-.634-2.113-1.902-6.127-2.905-8.556-1.003-2.43-1.743-3.275-2.324-3.856-.528-.581-.898-.845-2.218-1.584-1.32-.687-3.591-1.849-5.017-2.377-1.426-.528-1.955-.475-2.219-.37-.316.106-.369.317-.316.581-.053.317.052.634 1.109 2.905z" fill="#24231D"/><path fill-rule="evenodd" clip-rule="evenodd" d="M333.68 105.153c.898 2.06 2.694 6.074 3.75 8.292 1.057 2.218 1.373 2.641 1.69 2.958.317.316.581.475 1.796 1.003 1.215.528 3.327 1.426 4.384 1.796 1.056.369 1.109.264.845-.74a53.466 53.466 0 00-1.585-4.859c-.792-2.059-1.848-4.33-2.482-5.598-.687-1.267-.951-1.532-2.113-2.165a171.538 171.538 0 00-4.436-2.324c-1.268-.634-1.796-.792-2.113-.845-.317-.053-.422 0-.528.105-.053.159-.105.317.792 2.377z" fill="#E6E6E6"/><path fill-rule="evenodd" clip-rule="evenodd" d="M345.881 117.512c.211.739.316 1.003.316 1.214 0 .212.053.317.053.423 0 .106-.053.158-.105.158-.106.053-.212 0-.37 0-.159 0-.37-.105-.634-.211-.264-.105-.634-.211-1.056-.422-.423-.159-.951-.37-1.215-.476-.264-.105-.264-.105-.951-1.584-.686-1.479-2.059-4.384-3.01-6.443-.951-2.06-1.426-3.222-1.637-3.909-.264-.633-.264-.792-.159-.845.106-.053.317 0 1.109.37.793.37 2.219 1.109 2.958 1.479.739.369.739.369.951.845.211.475.686 1.373 1.162 2.482a61.359 61.359 0 011.531 3.75 43.703 43.703 0 011.057 3.169z" fill="#E8E4BE"/><path fill-rule="evenodd" clip-rule="evenodd" d="M321.269 127.177c.528-.317 1.003-.634 1.267-.793.265-.158.265-.158 1.162.845.898 1.004 2.747 3.011 4.225 5.282 1.479 2.271 2.641 4.806 3.486 7.658.845 2.852 1.373 6.074 1.637 7.764.265 1.69.317 1.795 1.532 1.848 1.215 0 3.591-.053 5.651-.211a51.087 51.087 0 005.018-.634c1.161-.211 1.69-.475 1.954-.581.264-.105.264-.105.105.106-.158.211-.528.634-.898 1.003-.369.37-.792.74-1.214 1.057-.423.316-.845.633-1.532 1.003-.686.317-1.69.739-2.693 1.056-1.004.37-2.06.687-2.694.845-.634.212-.898.264-1.056.317-.159.053-.264.106-.687.211a27.54 27.54 0 00-1.795.529c-.687.158-1.268.316-1.902.369-.634.106-1.215.159-1.69.159h-1.109c-.37 0-.792-.053-1.109-.053-.264 0-.423-.053-.475-.053-.053 0-.053 0-.053-.422v-2.271c0-1.004-.053-2.166-.159-3.116-.052-.951-.105-1.638-.264-2.588-.158-.951-.317-2.113-.581-3.116-.211-1.004-.475-1.849-.739-2.694s-.634-1.69-1.004-2.535c-.369-.845-.845-1.743-1.32-2.641a15.07 15.07 0 00-1.743-2.64c-.739-.898-1.69-1.796-2.376-2.483-.74-.633-1.215-1.056-1.479-1.214l-.264-.212.211-.105c.211-.106.581-.37 1.056-.634.476-.37 1.004-.687 1.532-1.056z" fill="#403E32"/><path fill-rule="evenodd" clip-rule="evenodd" d="M335.951 146.507c1.849.052 5.81-.159 8.081-.37s2.799-.423 3.222-1.056c.475-.634.845-1.69 1.161-2.958.317-1.215.529-2.641.634-3.644.106-1.004.106-1.637 0-2.06-.105-.422-.264-.634-.686-.845-.423-.211-1.162-.475-2.747-.687-1.584-.211-4.066-.422-5.915-.528-1.848-.105-3.063-.052-3.697 0-.634.106-.686.212-.581.37.106.158.211.264.845.37.634.105 1.69.211 3.275.317 1.584.105 3.697.211 4.964.316 1.268.106 1.637.159 1.849.212.211.053.211.158.053.686-.159.528-.529 1.585-.74 2.905-.264 1.32-.37 3.011-.422 3.908-.053.898-.053 1.057-.053 1.109v.053l-1.373.106c-1.374.106-4.12.317-5.81.475-1.69.212-2.429.37-2.905.581-.633.423-.95.687.845.74z" fill="#24231D"/><path fill-rule="evenodd" clip-rule="evenodd" d="M346.25 138.584a3.57 3.57 0 01.423-.897c.105-.159.105-.159.105.264 0 .422 0 1.162-.105 2.165a23.1 23.1 0 01-.476 2.694c-.158.633-.317.739-.369.686-.106-.053-.106-.264-.106-.792 0-.581.106-1.479.158-2.271a7.63 7.63 0 01.37-1.849z" fill="#E8E4BE"/><path fill-rule="evenodd" clip-rule="evenodd" d="M226.89 143.707c9.454.159 28.15.423 37.551.581 9.401.159 9.612.212 9.718.212.105 0 .053 0 .053-.053s.052-.211-.951-.687c-.951-.475-2.958-1.267-3.961-1.69-1.004-.422-1.004-.422-9.348-.581-8.345-.158-25.034-.475-33.59-.634-8.556-.158-9.031-.158-9.243-.158-.264 0-.317 0-.369.053-.053.053-.053.211-.053.686v1.585c0 .37.053.422.211.422.211.159.528.159 9.982.264zm-9.454-17.375c.106.422.159.422 5.704.581 5.493.158 16.425.475 24.136.633 7.711.159 12.253.159 14.894.106 2.641-.053 3.433-.211 3.855-.317.423-.158.423-.264.053-.634-.37-.369-1.056-.898-1.637-1.426a21.098 21.098 0 01-1.32-1.162c-.265-.211-.265-.211-1.162-.264-.898-.052-2.8-.158-10.299-.264-7.5-.158-20.703-.317-27.358-.369-6.707-.053-6.866 0-6.971.211-.106.211-.106.528-.053 1.109a5.972 5.972 0 00.158 1.796z" fill="#5DC94C"/><path fill-rule="evenodd" clip-rule="evenodd" d="M216.169 106.104c.105.158.264.158 4.014.317 3.749.158 11.038.422 16.794 1.214 5.757.793 9.877 2.06 13.468 3.75 3.591 1.69 6.655 3.803 8.714 5.757 2.113 1.954 3.275 3.75 4.014 4.859.74 1.109 1.057 1.584 1.426 1.954.37.37.74.634 1.109.845.37.211.634.37.845.211.159-.158.265-.686-.158-2.007-.422-1.32-1.32-3.433-3.803-5.968-2.482-2.535-6.549-5.492-10.562-7.499-4.067-2.007-8.081-3.011-12.887-3.697-4.806-.634-10.457-.951-14.366-1.109-3.961-.159-6.232-.212-7.394-.212s-1.214.053-1.214.159c0 .158-.053.369-.053.634-.053.316-.053.633.053.792z" fill="#3D8C31"/><path fill-rule="evenodd" clip-rule="evenodd" d="M236.132 50.649c4.331.211 10.51.58 14.471.898 3.961.317 5.704.686 7.394 1.214 1.69.528 3.275 1.268 4.754 2.113 1.426.845 2.693 1.743 5.915 4.436 3.222 2.641 8.345 7.077 11.566 9.877 3.222 2.746 4.489 3.908 5.176 4.542.687.633.739.739.792.845.053.105 0 .264-.053.317-.105.052-.264 0-.475-.159-.211-.106-.37-.317-3.644-3.169-3.222-2.852-9.507-8.345-13.626-11.725-4.067-3.38-6.021-4.7-8.134-5.703-2.165-.951-4.542-1.585-9.189-2.06-4.648-.476-11.619-.74-16.161-.898-4.542-.158-6.655-.211-7.817-.158-1.162 0-1.373.105-1.584.264-.212.158-.423.37-.476 1.109-.105.739-.052 1.9-.105 10.563 0 8.661-.053 24.77 0 33.325.053 8.503.158 9.454.264 10.193.105.74.158 1.268.422 2.166.264.845.687 2.06 1.162 3.169.423 1.162.898 2.271 1.162 3.38.264 1.109.37 2.218.475 3.169.053 1.003.106 1.848.317 6.02.212 4.173.634 11.672.845 16.109.212 4.436.159 5.757.264 6.866.053 1.109.212 1.954.529 2.535.316.581.792.95 1.584 1.214.792.265 1.954.37 5.334.423 3.433.053 9.137.053 15.369.158 6.232.053 13.098.212 16.795.317 3.697.106 4.278.106 4.701.053.422-.053.633-.106.739-.211.106-.106.106-.264.211-1.056.106-.793.264-2.219.74-4.437.475-2.218 1.32-5.281 2.376-7.922 1.057-2.641 2.324-4.859 3.063-5.968.74-1.109.898-1.109 1.004-1.056.106.053.158.158-.106.528-.264.422-.792 1.109-1.531 2.482a35.69 35.69 0 00-2.535 5.757c-.793 2.218-1.321 4.489-1.69 6.232a39.315 39.315 0 00-.634 3.803c-.159.897-.264 1.584-.476 1.901-.211.37-.528.37-6.918.317-6.338-.053-18.749-.264-25.774-.37-7.024-.106-8.608-.158-9.665-.317-1.056-.105-1.584-.317-2.006-.634-.476-.369-.898-.845-1.162-1.478-.264-.634-.264-1.321-.317-2.535-.053-1.215-.106-2.958-.317-7.87-.264-4.911-.687-12.939-.951-17.27-.264-4.331-.317-4.859-.475-5.651a22.243 22.243 0 00-.845-3.116c-.423-1.373-1.109-3.116-1.479-4.384-.37-1.214-.528-1.901-.581-3.169-.053-1.267-.106-3.116-.106-9.77 0-6.655-.052-18.063-.052-26.038 0-7.975.052-12.464.052-14.893 0-2.43.053-2.852.106-3.17.053-.316.211-.58.37-.738.158-.159.317-.265.634-.37.316-.106.792-.212 2.271-.212 1.478 0 3.697 0 8.027.212zm54.03 52.603c0 4.066.105 11.513.158 15.263.053 3.75.106 3.75.158 3.75.106 0 .212 0 .264-.053.053-.053.106-.158.053-4.278 0-4.119-.053-12.253-.105-16.372-.053-4.12-.053-4.225-.106-4.278-.053-.053-.211-.053-.264.052-.053.106-.106.265-.106.687-.052.475-.105 1.162-.052 5.229zm5.862-24.242c1.743 1.479 3.538 3.01 5.334 4.33a76.074 76.074 0 004.753 3.434c1.268.845 2.113 1.267 2.483 1.479.422.21.369.21.052.475-.316.264-.95.74-1.32 1.003-.37.265-.528.317-.687.37-.158.053-.264.053-7.605-6.073-7.341-6.074-21.918-18.274-29.259-24.454-7.341-6.179-7.5-6.337-7.552-6.496-.053-.158-.053-.264.211-.475.264-.211.739-.528 1.003-.634.264-.158.264-.158 2.8 1.954 2.535 2.06 7.605 6.233 12.147 10.035 4.542 3.803 8.503 7.183 11.355 9.612 2.799 2.483 4.489 3.961 6.285 5.44z" fill="#403E32"/><path fill-rule="evenodd" clip-rule="evenodd" d="M264.758 52.973c-.264.053-.528.264-.687.37-.158.105-.106.105-.106.158.053.053.106.158.634.634.528.528 1.585 1.426 8.292 7.024a7589.314 7589.314 0 0125.457 21.39c6.443 5.44 7.077 5.915 7.394 6.179.369.264.422.264.686.053.211-.212.634-.634.792-.845.212-.212.212-.212-.633-.793-.845-.58-2.535-1.795-5.071-3.802-2.587-2.007-6.02-4.859-9.453-7.764-3.433-2.905-6.866-5.81-10.616-8.978-3.75-3.17-7.764-6.55-10.246-8.662-2.482-2.06-3.38-2.852-4.119-3.433-.74-.58-1.215-1.003-1.585-1.267-.317-.212-.475-.317-.739-.264z" fill="#E6E6E6"/><path fill-rule="evenodd" clip-rule="evenodd" d="M120.681 71.405l3.749 26.724-13.995 1.056-.581-27.2 10.827-.58z" fill="#DBA758"/><path fill-rule="evenodd" clip-rule="evenodd" d="M120.68 71.405l-10.826.58-6.391-1.953 12.94-.529 4.277 1.902z" fill="#F7CE66"/><path fill-rule="evenodd" clip-rule="evenodd" d="M109.854 71.986l-6.391-1.954.951 27.674 6.02 1.48-.58-27.2z" fill="#F7E399"/><path fill-rule="evenodd" clip-rule="evenodd" d="M134.993 70.665l.053.792.158 19.383 15.264 7.658-.053-25.879-15.422-1.954z" fill="#DBA758"/><path fill-rule="evenodd" clip-rule="evenodd" d="M150.468 98.499l-.053-25.88 19.119-2.007-.053 20.123-19.013 7.764z" fill="#F7CE66"/><path fill-rule="evenodd" clip-rule="evenodd" d="M150.415 72.62l19.119-2.007-15.264-1.215-19.277 1.267 15.422 1.955z" fill="#F7E399"/><path fill-rule="evenodd" clip-rule="evenodd" d="M147.774 86.932l-1.901 15.739-15.95 2.429.106-16.32 17.745-1.848z" fill="#DBA758"/><path fill-rule="evenodd" clip-rule="evenodd" d="M130.029 88.78l-.106 16.32-11.461-5.65-.105-13.733 11.672 3.064z" fill="#F7CE66"/><path fill-rule="evenodd" clip-rule="evenodd" d="M118.357 85.717l19.594-.897 9.823 2.112-17.745 1.849-11.672-3.064z" fill="#F7E399"/><path fill-rule="evenodd" clip-rule="evenodd" d="M160.502 90.524l-19.171-1.902.106 16.478 18.907 3.116.158-17.692z" fill="#F7CE66"/><path fill-rule="evenodd" clip-rule="evenodd" d="M160.502 90.523l-19.171-1.9 13.309-3.645 16.108 1.585-10.246 3.96z" fill="#F7E399"/><path fill-rule="evenodd" clip-rule="evenodd" d="M170.748 86.563l-10.246 3.96-.158 17.693 10.14-6.337.264-15.158v-.159z" fill="#DBA758"/><path fill-rule="evenodd" clip-rule="evenodd" d="M89.309 89.309l28.097-.423.053 16.69-27.78.422-.37-16.69z" fill="#F7CE66"/><path fill-rule="evenodd" clip-rule="evenodd" d="M117.406 88.886l-28.097.423 3.01-3.169 24.031-.211 1.056 2.957z" fill="#F7E399"/><path fill-rule="evenodd" clip-rule="evenodd" d="M115.135 44.628l.37 26.354 35.016.687.158-28.044-35.544 1.003z" fill="#DBA758"/><path fill-rule="evenodd" clip-rule="evenodd" d="M150.679 43.624l-.158 28.045 1.742-1.32.053-24.718-1.637-2.007zm-37.181 43.572l-.106-16.266 26.83-.053-.106 15.95-26.618.37z" fill="#F7CE66"/><path fill-rule="evenodd" clip-rule="evenodd" d="M140.222 70.877l-26.83.053 1.637-.951 23.608-.053 1.585.95z" fill="#F7E399"/><path fill-rule="evenodd" clip-rule="evenodd" d="M160.133 85.506l2.535.264-11.302 3.856-2.588-.264 11.355-3.856zm-11.355 20.809l2.588.422V89.626l-2.588-.264v16.953zm-19.225-43.36l.106-18.75 4.014-.052v18.802h-4.12zm30.949 21.336l1.743-.422-.211-12.464-1.796.211.264 12.675zm-8.239-13.942v-.264l9.771 1.32-1.796.211-8.08-1.162.105-.105zm-46.159 12.886l1.162.37-.159-12.464-1.109-.317.106 12.411zm8.186-12.834l-.687.37-6.496.37-1.109-.317 8.292-.423zm11.83.529l2.007-.053v11.355h-1.954l-.053-11.302z" fill="#F7F7F7"/><path fill-rule="evenodd" clip-rule="evenodd" d="M126.12 70.93l2.007-.053-.317-.951h-1.69v1.004zm-.633 16.636l-1.321-.317-.158 14.946 1.215.581.264-15.21zm1.32-.528l5.915-.106-7.235.634-1.321-.317 2.641-.211zm12.992.739l-1.479.159-.052 15.897 1.478-.212.053-15.844z" fill="#F7F7F7"/><path fill-rule="evenodd" clip-rule="evenodd" d="M135.363 86.932l1.69-.053 2.746.898-1.479.159-2.957-1.004zm-18.591.212l.212.528-26.566.475.528-.58 25.826-.423z" fill="#F7F7F7"/><path d="M93.656 90.983l-.89 3.643 5.44 1.328.888-3.643-5.438-1.328zm27.289-17.466h-5.335v3.275h5.335v-3.275z" fill="#F7F7F7"/><path fill-rule="evenodd" clip-rule="evenodd" d="M158.337 92.847l-4.648-.528v3.116l4.648.476v-3.064z" fill="#F7F7F7"/><path fill-rule="evenodd" clip-rule="evenodd" d="M38.554 67.92l55.772-.793 5.915 5.968-66.07.475 4.383-5.65z" fill="#E0E0E0"/><path fill-rule="evenodd" clip-rule="evenodd" d="M100.241 73.095l-66.07.475.158 3.275 65.754-.106.158-3.644z" fill="#CCC"/><path fill-rule="evenodd" clip-rule="evenodd" d="M43.466 76.845h-2.852a41820.542 41820.542 0 00-1.584 29.206c.58.211 1.056.317 2.007.053 1.426-19.489 2.43-29.26 2.43-29.26zm57.885 33.431c-.423.423-1.162.528-2.113.264l-3.486-33.748h2.852l2.747 33.484zM90.26 76.845h2.852c1.109 20.386 1.637 30.157 1.584 29.206-.581.211-1.056.317-2.007.053-1.426-19.489-2.43-29.26-2.43-29.26zm-58.096 33.431c.422.423 1.162.528 2.112.264l3.486-33.748H34.91l-2.746 33.484z" fill="#2B2A29"/><path fill-rule="evenodd" clip-rule="evenodd" d="M62.69 69.345c4.331 0 7.87-.317 7.87-.686 0-.37-3.539-.687-7.87-.687-4.33 0-7.869.317-7.869.687 0 .422 3.539.686 7.87.686z" fill="#24231D"/><path fill-rule="evenodd" clip-rule="evenodd" d="M62.268 69.345c-4.542 0-7.024-.264-7.5-.686v1.161c1.057.529 4.912.634 7.5.634 2.694 0 6.496 0 8.239-.634v-1.214c-.317.528-3.063.74-8.24.74z" fill="#2B2A29"/><path d="M66.968 62.902h-8.82v5.81h8.82v-5.81z" fill="#24231D"/><path fill-rule="evenodd" clip-rule="evenodd" d="M46.477 41.142h31.952c1.11 0 2.007.898 2.007 2.007v16.267H44.522V43.15c-.053-1.109.845-2.007 1.955-2.007z" fill="#2B2A29"/><path fill-rule="evenodd" clip-rule="evenodd" d="M44.47 59.416h35.913v2.535c0 1.056-.898 1.954-1.954 1.954H46.424c-1.057 0-1.955-.898-1.955-1.954v-2.535z" fill="#E0E0E0"/><path fill-rule="evenodd" clip-rule="evenodd" d="M62.585 62.532c.475 0 .845-.37.845-.845a.834.834 0 00-.845-.845.834.834 0 00-.845.845c0 .423.37.845.845.845z" fill="#2B2A29"/><path d="M71.246 61.846h-6.073v.633h6.073v-.633zm1.902-.951H69.45v.475h3.697v-.475z" fill="#2B2A29"/><path fill-rule="evenodd" clip-rule="evenodd" d="M78.588 69.556c.052-.264.158-.422.475-.633.317-.159.792-.264 1.426-.317.634 0 1.426.105 2.06.264.58.158 1.003.37 1.214.634.212.264.212.58.106.845-.106.264-.317.422-.581.528a2.946 2.946 0 01-1.11.211c-.527 0-1.214 0-1.795-.106-.58-.105-1.109-.37-1.426-.633-.37-.264-.422-.581-.37-.793z" fill="#FDE742"/><path fill-rule="evenodd" clip-rule="evenodd" d="M79.38 69.028c.105 0 .317.053.528.106.211.053.37.106.528.106.106 0 .211 0 .211-.053.053-.053 0-.106-.053-.159a.541.541 0 00-.316-.264 2.27 2.27 0 00-.634-.105.638.638 0 00-.423.158c-.053.053-.105.106-.053.106.053.053.053.053.212.105z" fill="#2B2A29"/><path fill-rule="evenodd" clip-rule="evenodd" d="M81.281 61.37c.211 1.585.581 4.33.74 5.81.21 1.426.21 1.531 1.003 1.69.792.158 2.377.317 3.75.317a15.064 15.064 0 003.063-.423c.58-.158.687-.158.898-1.584.211-1.426.58-4.278.792-5.704.211-1.426.211-1.426.211-1.585 0-.158 0-.422-.317-.58-.317-.16-1.003-.16-2.535-.16-1.531 0-3.908-.052-5.387-.052-1.426 0-1.901 0-2.165.159-.264.158-.264.528-.053 2.112z" fill="#F7F7F7"/><path fill-rule="evenodd" clip-rule="evenodd" d="M80.225 59.891c.422.106 1.162.317 2.218.423a36.92 36.92 0 003.644.211c1.32 0 2.588-.053 3.644-.158a25.344 25.344 0 002.535-.37c.529-.106.634-.158.687-.211.053-.053.106-.106.106-.423v-1.215c0-.316 0-.316-.634-.475-.634-.158-1.954-.422-3.908-.528-1.954-.106-4.49-.053-6.127.053-1.584.105-2.218.264-2.535.37-.317.105-.317.105-.317.475 0 .317 0 1.003.053 1.373.106.37.211.37.634.475z" fill="#CCC"/><path fill-rule="evenodd" clip-rule="evenodd" d="M81.017 58.201c.58.106 1.796.212 3.222.264 1.426.053 3.063.106 4.383.106 1.32 0 2.324-.105 2.905-.158.581-.053.74-.106.74-.159 0-.053-.159-.105-.74-.211-.58-.106-1.532-.317-3.169-.37-1.584-.053-3.803 0-5.229.053-1.425.053-2.006.106-2.323.211-.37 0-.37.106.211.264z" fill="#24231D"/><path fill-rule="evenodd" clip-rule="evenodd" d="M91.58 44.258c-.792.423-1.532.898-2.165 1.532-.634.634-1.11 1.426-1.427 2.218-.263.74-.37 1.479-.316 2.166.053.686.158 1.32.264 1.637.105.317.105.317.792-.053s1.954-1.162 2.958-2.06a7.666 7.666 0 002.006-3.169c.317-1.109.317-2.165.37-2.746 0-.58.053-.58-.37-.422-.475.158-1.32.475-2.112.897z" fill="#5DC94C"/><path fill-rule="evenodd" clip-rule="evenodd" d="M79.855 46.635c1.004.37 2.43.845 3.38 1.69 1.004.845 1.532 2.007 1.743 3.116.211 1.056.106 2.06 0 2.535-.105.476-.105.476-1.003.106-.898-.37-2.694-1.11-3.856-2.166-1.162-1.056-1.637-2.482-1.954-3.538-.264-1.056-.37-1.796-.37-2.166-.052-.37-.052-.37.264-.264.264.159.793.37 1.796.687zm6.655-10.088a13.572 13.572 0 00-1.162 1.69c-.37.634-.687 1.32-.845 2.008-.159.686-.212 1.373-.159 1.954 0 .58.053 1.056.212 1.742.158.687.422 1.532.528 1.955.105.422.105.422.158.422 0 0 .053 0 .687-.74.633-.739 1.901-2.217 2.43-3.59.58-1.374.475-2.536.263-3.698-.211-1.161-.528-2.112-.686-2.64-.159-.529-.159-.529-.37-.264-.211.21-.634.633-1.056 1.161z" fill="#409133"/><path fill-rule="evenodd" clip-rule="evenodd" d="M86.774 38.713a236.515 236.515 0 00-1.057 5.176c-.158.686-.264 1.214-.317 1.743-.105.528-.158 1.003-.264 1.531-.105.581-.158 1.215-.264 1.954-.105.74-.21 1.585-.264 2.483a170.4 170.4 0 00-.422 6.285h-.159c.106-2.219.264-4.437.423-6.285.105-.951.158-1.743.264-2.483.106-.739.211-1.373.264-1.954.106-.58.158-1.056.264-1.584.106-.528.211-1.056.317-1.743.264-1.32.687-3.222 1.056-5.123v-.053l.159.053z" fill="#4AAB3C"/><path fill-rule="evenodd" clip-rule="evenodd" d="M78.693 47.322c.74.686 1.532 1.373 2.218 2.06a23.29 23.29 0 011.954 2.059 14.253 14.253 0 011.426 2.007c.37.634.74 1.267.951 1.796.264.528.475 1.056.634 1.426.158.422.264.686.37.898l.158.422-.158.053-.159-.423c-.053-.21-.211-.528-.37-.898-.158-.422-.37-.897-.633-1.425a31.187 31.187 0 00-.951-1.796 14.29 14.29 0 00-1.426-2.007 23.385 23.385 0 00-1.954-2.06l-2.218-2.06.158-.053zm13.837-2.324c-.37.422-.739.845-1.109 1.32-.37.476-.74.95-1.109 1.532-.37.58-.792 1.215-1.109 1.901a58.24 58.24 0 00-.898 1.901c-.264.634-.422 1.268-.58 1.849-.16.58-.265 1.162-.317 1.69-.159 1.056-.159 1.954-.212 2.905h-.105c.052-.898.052-1.849.21-2.905.054-.528.16-1.11.318-1.69.158-.581.317-1.215.58-1.901.265-.634.582-1.32.898-1.955.37-.686.74-1.32 1.162-1.954.37-.58.74-1.056 1.11-1.531.37-.476.739-.898 1.109-1.32l.052.158z" fill="#4AAB3C"/></g><defs><clipPath id="clip0_601_12191"><path fill="#fff" d="M0 0h350v176.083H0z"/></clipPath></defs></svg>