<svg width="330" height="164" fill="none" xmlns="http://www.w3.org/2000/svg"><g clip-path="url(#clip0_2_14052)"><path fill-rule="evenodd" clip-rule="evenodd" d="M200.532 57.861c.148 10.797.098 31.508.884 45.74.785 14.281 2.355 22.084 3.533 26.501 1.227 4.417 2.062 5.447 4.172 6.871 2.11 1.423 5.497 3.239 10.454 3.729 4.956.491 11.582-.245 15.116-.981 3.582-.736 4.122-1.374 5.643-4.515 1.522-3.141 3.927-8.736 8.147-12.466 4.172-3.729 10.11-5.545 14.724-6.87 4.613-1.325 7.95-2.16 9.766-3.926 1.865-1.767 2.209-4.417 1.865-10.355-.343-5.939-1.423-15.067-2.846-20.809-1.424-5.742-3.239-8-7.705-12.465-4.467-4.466-11.632-11.14-17.57-15.263-5.939-4.123-10.699-5.693-16.343-7.46-5.644-1.767-12.221-3.828-17.276-3.877-5.055-.098-8.637 1.767-10.65 2.7-2.012.932-2.404.932-2.404 1.373 0 .491.343 1.326.49 12.073z" fill="#5DC94C"/><path fill-rule="evenodd" clip-rule="evenodd" d="M63.507 136.04c.049 1.129.049 2.454.245 3.19.196.736.638.834 1.374.884.785.049 1.865 0 2.454.049.59.049.59.196.59.588 0 .442 0 1.129-.148 1.473-.098.392-.295.441-.687.589-.393.196-.933.49-1.178 1.03-.245.54-.196 1.227.196 1.718.393.442 1.129.638 2.258.687 1.178.049 2.797 0 10.159-.049s20.465-.147 29.839-.442c9.374-.343 15.018-.932 20.907-1.619 5.89-.687 12.074-1.473 17.816-2.111 5.693-.638 10.895-1.079 16.245-1.079 5.349 0 10.846.54 13.889.834 3.042.295 3.631.442 6.723.491 3.043.049 8.54.049 11.288.049 2.749 0 2.798 0 2.798.393v1.57c0 .393.049.393 2.895.344l11.337-.197 2.847-.049v.638c0 .638.049 1.865.098 2.454.049.638.098.638.196.687.098.049.197.098 5.448-.196 5.251-.295 15.705-.884 26.257-1.963 10.551-1.08 21.201-2.552 27.581-3.239 6.381-.687 8.54-.54 9.914-.442 1.374.098 1.963.147 7.067-.049s14.675-.687 19.484-.884c4.81-.245 4.81-.245 4.368-.736-.441-.49-1.276-1.472-2.159-2.306-.884-.884-1.816-1.62-6.184-5.35-4.368-3.778-12.171-10.551-19.729-14.232-7.558-3.681-14.773-4.22-20.319-4.024-5.496.196-9.226 1.129-13.3 4.515-4.024 3.386-8.392 9.177-11.091 12.76-2.7 3.632-3.779 5.055-9.178 5.889-5.398.834-15.116 1.129-20.465-.343-5.35-1.473-6.331-4.663-8.54-5.595-2.208-.982-5.644.294-23.067.54-17.422.196-48.881-.638-69.249-1.129-20.367-.491-29.692-.687-35.826-.834-6.135-.148-9.129-.246-10.847.196-1.717.442-2.208 1.325-2.355 2.306-.05.884.049 1.865.049 2.994z" fill="#2B2923"/><path d="M193.76 0H0v117.538h193.76V0z" fill="#4AAB3C"/><path fill-rule="evenodd" clip-rule="evenodd" d="M167.7 137.758c20.22-.049 24.342-.049 26.403-.049h2.062l-.049-.491c-.049-.491-.197-1.521-.393-4.073a270.508 270.508 0 01-.54-9.619c-.147-2.847-.147-4.417-.147-5.202v-.786H15.116v1.129c0 1.129-.049 3.337-.049 4.466v1.227c0 .098-.049.344-.049 1.325-.049.933-.049 2.65-.098 3.484v.835h11.729s-.049 0-.049 1.325 0 3.975.05 5.3v1.522c0 .049.049.049 8.048.049 8.05 0 24.098 0 50.305-.099 26.11-.147 62.476-.294 82.697-.343z" fill="#36342B"/><path d="M195.478 121.857H6.675v7.803h188.803v-7.803z" fill="#3F3D2E"/><path d="M186.202 121.857h-43.827v22.281h43.827v-22.281z" fill="#3F3D2E"/><path fill-rule="evenodd" clip-rule="evenodd" d="M66.108 137.414l-.245.687h-2.307l.295-.883c.294-.883.834-2.699 2.208-5.104 1.374-2.405 3.583-5.398 5.497-7.558 1.914-2.159 3.484-3.484 4.76-4.515 1.325-1.03 2.356-1.767 2.896-2.11.54-.344.54-.344 2.65-.344h18.306c1.571 0 1.571 0 2.258.393.736.393 2.159 1.129 3.926 2.258 1.767 1.177 3.828 2.699 5.742 4.809 1.914 2.061 3.632 4.711 4.564 6.92.933 2.257 1.031 4.122 1.08 5.055l.049.932h-2.11l-.049-.589c-.049-.589-.196-1.766-.687-3.288-.491-1.521-1.374-3.435-2.258-4.957-.932-1.57-1.914-2.748-3.386-4.122-1.473-1.374-3.485-2.896-4.957-3.877-1.472-.982-2.356-1.374-2.847-1.571-.49-.196-.589-.147-3.828-.196-3.19 0-9.52-.049-12.71-.098h-3.142l-.981.589c-.982.589-2.945 1.767-4.86 3.435-1.913 1.669-3.73 3.779-5.152 5.644-1.374 1.865-2.356 3.485-3.092 5.006a25.969 25.969 0 00-1.62 3.484z" fill="#737160"/><path d="M91.089 163.572c11.709 0 21.202-9.228 21.202-20.612 0-11.384-9.493-20.612-21.202-20.612-11.71 0-21.202 9.228-21.202 20.612 0 11.384 9.492 20.612 21.202 20.612z" fill="#4F4D3E"/><path d="M91.088 156.505c7.698 0 13.939-6.064 13.939-13.545s-6.24-13.545-13.939-13.545c-7.697 0-13.938 6.064-13.938 13.545s6.24 13.545 13.938 13.545z" fill="#807E6D"/><path fill-rule="evenodd" clip-rule="evenodd" d="M91.089 152.383c4.957 0 8.981-4.074 8.981-9.079 0-5.006-4.024-9.08-8.981-9.08s-8.982 4.074-8.982 9.08c0 5.005 4.025 9.079 8.982 9.079z" fill="#737160"/><path fill-rule="evenodd" clip-rule="evenodd" d="M195.723 128.581c.098 5.447.147 6.379.245 7.017.049.688.147 1.129.245 1.865.148.687.344 1.669.54 2.307.196.638.442 1.031.884 1.325.441.294 1.03.491 2.453.491 1.424 0 3.681-.197 6.871-.147 3.19 0 7.264.245 11.043.588 3.779.344 7.214.737 9.963 1.276 2.748.54 4.809 1.178 6.576 1.669 1.767.491 3.19.834 4.123.736.932-.049 1.325-.491 1.717-1.325.442-.785.884-1.963 1.571-3.779.687-1.816 1.62-4.318 2.846-7.165 1.227-2.846 2.798-6.036 5.006-8.736 2.209-2.748 5.055-5.005 8.295-6.379 3.288-1.375 7.018-1.816 10.649-1.767 3.632.049 7.215.589 9.914 1.472 2.7.883 4.466 2.11 5.644 3.141 1.178 1.031 1.767 1.865 2.111 2.257.294.442.294.442.539.295.246-.147.688-.393 1.276-.933.589-.539 1.326-1.325 1.669-1.766.344-.393.344-.393-.834-1.374-1.178-.982-3.534-2.896-6.92-4.417-3.387-1.522-7.853-2.601-11.877-2.945a31.692 31.692 0 00-10.65.883c-3.043.835-5.546 2.013-7.656 3.387-2.16 1.374-3.926 2.895-5.251 4.318-1.326 1.424-2.209 2.798-3.24 4.565a379.467 379.467 0 00-2.895 5.349c-.785 1.472-1.276 2.356-1.571 2.895-.294.54-.441.786-.54.933-.098.147-.245.245-.589.343-.343.05-.932.099-4.711.148-3.828.049-10.846.098-14.674.098-3.877 0-4.565-.098-5.399-.393-.834-.294-1.767-.785-2.552-1.521-.785-.687-1.325-1.62-1.718-3.043-.343-1.423-.441-3.337-.589-7.312-.098-3.975-.196-9.963-.343-16.637-.147-6.675-.295-13.987-.638-23.851-.344-9.865-.834-22.232-1.129-28.416l-.245-6.183h-7.902c-1.669 0-1.914.049-2.208.981-.295.933-.687 2.748-.737 11.926-.049 9.177.148 25.667.344 38.967.147 13.348.245 23.36.344 28.857z" fill="#4AAB3C"/><path fill-rule="evenodd" clip-rule="evenodd" d="M226.299 45.494c2.846.098 5.251.294 7.656.883 2.405.59 4.858 1.62 6.085 2.16 1.227.49 1.276.49 1.325.441.05-.049.148-.196.344-.392.196-.197.491-.491 1.031-1.08.54-.589 1.325-1.423 1.766-1.914.442-.49.54-.589 1.571.245 1.031.786 2.994 2.503 8.932 7.607 5.988 5.104 15.95 13.644 21.889 18.846 5.938 5.153 7.852 6.969 8.785 7.901.932.883.932.883 1.374.883.442 0 1.276-.049 1.816 0 .491 0 .687.099.834.295.147.196.344.54.54.834.245.295.491.54.834.736.344.197.687.393 1.767.786 1.08.392 2.847 1.08 3.828 1.472.982.441 1.178.638 1.227.785.098.147.049.294-2.699.638-2.748.344-8.294.883-13.006 1.178-4.711.294-8.687.343-10.748.392-2.012 0-2.159 0-2.208-.098-.049-.147-.049-.441-.148-1.57-.049-1.129-.196-3.19-.343-4.368-.147-1.178-.245-1.521-.785-2.405-.54-.883-1.571-2.306-3.141-4.367a93.998 93.998 0 00-6.724-7.755c-3.043-3.091-6.92-6.674-9.619-9.079-2.7-2.404-4.123-3.631-5.841-4.858-1.717-1.227-3.631-2.454-5.594-3.337-1.914-.884-3.828-1.473-6.528-1.816-2.699-.344-6.184-.442-10.453-.54-4.27-.05-9.276-.05-12.662-.05h-6.773c-1.522 0-2.798.05-3.436.05-.638 0-.638 0-.49-.246.147-.245.49-.736.785-1.177.294-.442.54-.786.687-.982.147-.196.147-.196.196-.196h3.092c3.043 0 9.178-.05 13.889-.098 4.81.049 8.098.098 10.945.196z" fill="#4F4D3E"/><path fill-rule="evenodd" clip-rule="evenodd" d="M202.054 45.396h-3.436c-.147 0-.147 0-.098-.344.049-.343.098-.981.589-1.717.491-.736 1.423-1.62 2.11-2.209.687-.638 1.129-.981 1.473-1.178.343-.196.638-.147 3.288-.147h11.19c3.533 0 5.644.05 7.46.098 1.815.05 3.337.098 5.251.393 1.914.245 4.172.736 6.429 1.423 2.307.687 4.613 1.62 6.086 2.258 1.472.638 2.061.932 2.356 1.08.294.147.245.147 0 .392-.246.196-.688.638-1.227 1.227-.54.54-1.178 1.227-1.571 1.668-.393.393-.491.54-.54.59l-.049.048-.245-.098c-.246-.098-.786-.294-1.571-.589-.785-.294-1.865-.687-2.797-1.03a35.045 35.045 0 00-2.601-.786c-.737-.196-1.325-.343-1.914-.441-.589-.098-1.178-.197-1.865-.246-.687-.098-1.522-.147-2.651-.196a215.19 215.19 0 00-5.006-.147c-2.404-.05-5.742-.05-8.981-.05s-6.331 0-8.245.05c-1.963-.05-2.601-.05-3.435-.05z" fill="#5DC94C"/><path fill-rule="evenodd" clip-rule="evenodd" d="M248.776 53.984c2.994 2.748 8.736 8 13.987 12.76 5.252 4.76 9.963 9.128 12.515 11.337 2.503 2.257 2.847 2.355 3.092 2.404.294 0 .54-.049 1.031-.343.49-.245 1.276-.687 1.766-.982.442-.294.638-.49.688-.638.098-.147.098-.196.049-.294-.049-.098-.148-.196-5.792-4.957-5.644-4.76-16.784-14.232-22.526-19.09-5.742-4.86-6.086-5.154-6.331-5.3-.246-.148-.393-.197-.54-.099-.148.05-.246.196-.491.49-.245.295-.638.786-.687 1.179-.049.49.245.785 3.239 3.533z" fill="#F9F9F9"/><path fill-rule="evenodd" clip-rule="evenodd" d="M210.005 55.407c.147 3.043.441 8.736.687 13.693.294 4.907.54 9.079 1.276 11.533.687 2.454 1.816 3.19 3.779 3.877 1.963.687 4.809 1.374 9.57 1.914 4.761.49 11.484.883 17.03 1.08 5.595.196 10.061.245 12.466.245h3.043c.196 0 .196 0 .245.49 0 .491.049 1.473.147 2.013.049.54.147.687.687.687s1.473-.098 2.013-.196c.539-.099.638-.197 1.423-1.13.834-.932 2.356-2.698 3.141-3.827.785-1.129.834-1.62.834-2.307 0-.687-.098-1.62-.589-2.846-.442-1.178-1.325-2.65-2.601-4.515-1.325-1.816-3.092-4.025-4.908-6.184-1.767-2.11-3.582-4.122-5.889-6.33-2.307-2.21-5.104-4.614-7.705-6.577s-5.006-3.485-7.706-4.564c-2.699-1.129-5.594-1.816-9.422-2.356-3.829-.49-8.491-.834-11.436-.883-2.895-.098-3.975 0-4.76.441-.736.442-1.178 1.227-1.374 1.767-.148.59-.099.933.049 3.975z" fill="#4F4D3E"/><path fill-rule="evenodd" clip-rule="evenodd" d="M212.017 57.96c.147 3.533.49 9.864.834 14.084.344 4.27.638 6.43 1.031 7.705.392 1.325.932 1.767 1.472 2.062.589.294 1.178.441 2.405.736 1.178.294 2.944.687 5.447 1.128 2.552.393 5.841.786 8.491 1.08 2.65.294 4.613.49 5.644.589 1.08.098 1.227.098 1.325-.05.098-.146.098-.44-.442-5.348-.54-4.908-1.668-14.527-2.306-19.68-.638-5.153-.786-5.89-.884-6.233-.098-.392-.147-.392-1.227-.785-1.079-.393-3.141-1.08-6.134-1.57-2.945-.491-6.822-.786-9.276-.884-2.503-.147-3.632-.098-4.368 0-.736.098-1.08.245-1.325.393-.246.147-.442.294-.589.638-.147.294-.246.736-.295 1.325.049.49 0 1.227.197 4.81zm26.06 2.748a9368.5 9368.5 0 012.061 18.256c.54 4.81.688 5.644.786 6.085.098.442.098.442 2.944.54 2.847.099 8.54.246 11.386.344 2.896.098 2.945.098 2.994.049.049 0 .049-.05.147-2.16.05-2.11.148-6.281.148-8.44 0-2.16-.098-2.258-.442-2.7-.344-.49-.982-1.374-2.503-3.043-1.521-1.668-3.926-4.171-6.184-6.281-2.257-2.11-4.368-3.78-5.987-5.104-1.669-1.276-2.847-2.16-3.779-2.748-.884-.59-1.473-.884-1.816-.933-.344-.098-.442 0-.442.393 0 .392.147 1.08.687 5.742z" fill="#F9F9F9"/><path fill-rule="evenodd" clip-rule="evenodd" d="M322 113.318c1.08 2.11 2.16 4.613 2.749 5.938.589 1.374.687 1.619.687 1.767.049.147.049.147-5.889.098-5.939 0-17.816-.049-23.754-.049h-5.939l-.147.147c-.147.147-.393.442-.883.883-.491.442-1.227 1.031-1.571 1.325l-.343.295.54.834c.539.834 1.668 2.454 2.601 4.712.932 2.257 1.717 5.054 2.208 7.214.491 2.159.687 3.631.785 4.417.099.785.099.883.099 1.03 0 .098-.049.246-.049.393 0 .147-.05.245 2.601.147 2.65-.098 7.901-.491 12.907-.638 5.006-.147 9.718-.098 12.613-.245 2.896-.147 3.926-.491 4.761-1.08.834-.54 1.472-1.325 1.767-2.061.343-.736.343-1.522.294-2.356-.049-.834-.245-1.767-.294-2.306-.05-.54 0-.687.392-.982.344-.294.982-.785 1.325-1.178.393-.343.491-.589.491-2.503 0-1.914-.049-5.545-.098-7.508s-.049-2.209-.147-2.356c-.099-.147-.344-.147-.54-.196-.197 0-.344-.049-.785-1.914-.491-1.865-1.276-5.595-1.718-7.46-.393-1.865-.442-1.914-.442-1.963 0-.049 0-.049-1.227-.049h-6.135l.491.932c.589.786 1.62 2.601 2.65 4.712z" fill="#4F4D3E"/><path fill-rule="evenodd" clip-rule="evenodd" d="M315.718 121.121c-4.515 0-10.993 0-15.607-.049-4.613-.049-7.361-.098-8.735-.147l-1.375-.049s0-.049-.196.196c-.196.196-.589.638-1.129 1.08-.54.49-1.178 1.03-1.472 1.276l-.344.294h39.557c.246 0 .393 0 .589-.147.147-.147.344-.393.491-.687.147-.295.294-.638.343-.933.099-.294.099-.54.099-.687 0-.147 0-.147-.442-.147s-1.276-.049-2.994-.049c-1.619 0-4.221 0-8.785.049z" fill="#737160"/><path fill-rule="evenodd" clip-rule="evenodd" d="M281.56 87.847c.785-.05 1.619-.098 2.405-.147.785-.05 1.521-.098 1.914-.148l.392-.049 2.945 2.013c2.945 2.012 8.785 5.987 12.122 8.293 3.289 2.258 4.025 2.798 4.417 3.092.393.246.393.246 3.338 2.896 2.944 2.65 8.834 7.901 11.827 10.551l2.945 2.65.295.687 1.177 2.749.295.687h-5.939c-5.938 0-17.766-.049-23.704-.049h-5.939l-.294-.344c-.295-.343-.834-.981-1.571-1.619-.687-.638-1.521-1.227-2.404-1.767-.884-.589-1.865-1.129-3.19-1.718a43.051 43.051 0 00-4.417-1.668c-1.375-.442-2.503-.737-3.681-.933-1.178-.245-2.356-.392-3.141-.491-.786-.098-1.08-.147-1.276-.147h-.148v-1.227c0-1.227-.049-3.73-.049-7.754V88.24h.687c.688 0 2.111 0 3.681-.05 1.571-.049 3.289-.098 4.565-.147a118.28 118.28 0 012.748-.196z" fill="#5DC94C"/><path fill-rule="evenodd" clip-rule="evenodd" d="M209.956 97.466c9.668.196 27.778.54 41.372.933 13.546.392 22.527.736 28.956 1.275 6.38.491 10.208 1.178 12.073 1.964 1.865.785 1.816 1.717 1.669 2.257-.196.54-.491.736-1.129.883-.638.148-1.57.246-5.055.246-3.533 0-9.619 0-24.49-.246-14.87-.196-38.526-.588-50.746-.785-12.27-.196-13.153-.196-13.742-.392-.589-.197-.933-.54-1.08-1.424-.196-.834-.245-2.208-.147-3.091.049-.933.245-1.374.932-1.62.54-.196 1.718-.196 11.387 0z" fill="#47A639"/><path fill-rule="evenodd" clip-rule="evenodd" d="M279.351 104.435c1.227 0 2.258-.982 2.258-2.208 0-1.227-1.031-2.209-2.258-2.209s-2.257.982-2.257 2.209c0 1.226 1.03 2.208 2.257 2.208z" fill="#FDE742"/><path fill-rule="evenodd" clip-rule="evenodd" d="M291.818 86.964a296.23 296.23 0 00-2.945.294c-.933.098-1.767.147-2.209.197l-.441.049 1.717 1.177c1.718 1.178 5.154 3.534 8.196 5.595 3.092 2.11 5.792 3.975 7.313 5.006 1.521 1.08 1.865 1.325 2.061 1.423.197.147.197.147.884.785.736.638 2.208 1.914 4.368 3.828 2.159 1.914 5.055 4.515 7.067 6.331 2.061 1.816 3.239 2.896 4.073 3.632.835.736 1.325 1.178 1.571 1.423.245.196.245.196-.442-1.129s-2.012-3.975-2.846-5.545c-.786-1.571-1.031-2.012-1.178-2.258l-.148-.245h3.387c1.227 0 2.601.049 3.288.049h.687l-.147-.491c-.147-.491-.442-1.521-2.945-3.779-2.503-2.257-7.214-5.693-11.435-8.637-4.221-2.945-7.852-5.35-10.11-6.724-2.208-1.374-2.945-1.717-3.337-1.914-.393-.196-.393-.196-.589-.098-.196.05-.638.196-1.129.344-.491.098-1.08.196-1.914.294-.736.196-1.767.295-2.797.393z" fill="#4AAB3C"/><path fill-rule="evenodd" clip-rule="evenodd" d="M320.381 129.66c-5.644 0-16.638.049-22.233.098-5.594.049-5.693.049-5.84.246-.147.196-.294.49-.294.883 0 .344.196.736.49.933.295.196.737.196 6.233.245 5.497.049 16.098.098 21.447.147 5.35 0 5.497 0 5.792-.098.245-.098.687-.245.883-.589.196-.343.245-.834.147-1.178-.098-.294-.294-.441-.54-.491-.245-.147-.441-.196-6.085-.196z" fill="#3F3D2E"/><path fill-rule="evenodd" clip-rule="evenodd" d="M305.706 102.766c-.196.835-.343 2.258-.049 4.074.295 1.815 1.031 4.024 2.062 5.545 1.03 1.522 2.355 2.307 3.828 2.994 1.472.687 3.042 1.325 4.466 1.718 1.423.392 2.699.49 3.73.539 1.079.05 1.914 0 2.503-.196.589-.196.883-.491.932-.883.049-.393-.049-.834-.491-1.816a123.63 123.63 0 00-1.816-3.632c-.638-1.227-1.226-2.306-1.766-3.141-.54-.834-1.031-1.374-1.816-2.11a30.062 30.062 0 00-2.994-2.306 14.062 14.062 0 00-2.945-1.522 12.533 12.533 0 00-2.699-.638c-.834-.049-1.472 0-1.914.147-.589.197-.834.393-1.031 1.227z" fill="#FDE742"/><path d="M266.051 163.572c11.71 0 21.202-9.228 21.202-20.612 0-11.384-9.492-20.612-21.202-20.612-11.709 0-21.201 9.228-21.201 20.612 0 11.384 9.492 20.612 21.201 20.612z" fill="#4F4D3E"/><path d="M266.051 156.505c7.698 0 13.938-6.064 13.938-13.545s-6.24-13.545-13.938-13.545c-7.697 0-13.938 6.064-13.938 13.545s6.241 13.545 13.938 13.545z" fill="#807E6D"/><path fill-rule="evenodd" clip-rule="evenodd" d="M266.052 152.383c4.956 0 8.981-4.074 8.981-9.079 0-5.006-4.025-9.08-8.981-9.08-4.957 0-8.982 4.074-8.982 9.08 0 5.005 4.025 9.079 8.982 9.079z" fill="#737160"/><path d="M188.018 5.84H5.153v105.515h182.865V5.84z" fill="#4F4D3E"/><path fill-rule="evenodd" clip-rule="evenodd" d="M5.153 111.355V5.84l19.68 8.49v78.72l-19.68 18.305z" fill="#6A6856"/><path fill-rule="evenodd" clip-rule="evenodd" d="M5.153 111.355l19.68-18.306h144.78l18.405 18.306H5.153z" fill="#403E32"/><path fill-rule="evenodd" clip-rule="evenodd" d="M188.018 111.355V5.84l-18.405 8.49v78.72l18.405 18.305z" fill="#6A6856"/><path fill-rule="evenodd" clip-rule="evenodd" d="M188.018 5.84H5.153l19.68 8.49h144.78l18.405-8.49z" fill="#6A6856"/><path fill-rule="evenodd" clip-rule="evenodd" d="M112.143 66.351l3.485 24.833-13.006.982-.539-25.275 10.06-.54z" fill="#DBB158"/><path fill-rule="evenodd" clip-rule="evenodd" d="M112.143 66.352l-10.061.54-5.938-1.816 12.024-.491 3.975 1.767z" fill="#FBD16B"/><path fill-rule="evenodd" clip-rule="evenodd" d="M102.082 66.891l-5.938-1.816.883 25.716 5.595 1.375-.54-25.275z" fill="#F8E49C"/><path fill-rule="evenodd" clip-rule="evenodd" d="M125.444 65.664l.049.736.147 18.011 14.184 7.117-.049-24.048-14.331-1.816z" fill="#DBB158"/><path fill-rule="evenodd" clip-rule="evenodd" d="M139.823 91.528l-.049-24.048 17.766-1.865-.049 18.698-17.668 7.215z" fill="#F7CE66"/><path fill-rule="evenodd" clip-rule="evenodd" d="M139.775 67.48l17.766-1.865-14.184-1.128-17.913 1.177 14.331 1.816z" fill="#F8E49C"/><path fill-rule="evenodd" clip-rule="evenodd" d="M137.32 80.78l-1.767 14.625-14.822 2.257.099-15.165 16.49-1.717z" fill="#DBB158"/><path fill-rule="evenodd" clip-rule="evenodd" d="M120.83 82.498l-.099 15.164-10.649-5.251-.099-12.76 10.847 2.847z" fill="#F7CE66"/><path fill-rule="evenodd" clip-rule="evenodd" d="M109.983 79.651l18.208-.834 9.129 1.963-16.49 1.718-10.847-2.847z" fill="#F8E49C"/><path fill-rule="evenodd" clip-rule="evenodd" d="M149.148 84.117l-17.815-1.767.098 15.312 17.57 2.896.147-16.44z" fill="#F7CE66"/><path fill-rule="evenodd" clip-rule="evenodd" d="M149.148 84.117l-17.815-1.767 12.367-3.386 14.969 1.472-9.521 3.681z" fill="#F8E49C"/><path fill-rule="evenodd" clip-rule="evenodd" d="M158.669 80.436l-9.521 3.681-.148 16.441 9.423-5.89.246-14.085v-.147z" fill="#DBB158"/><path fill-rule="evenodd" clip-rule="evenodd" d="M82.99 82.988l26.11-.392.049 15.508-25.815.392-.343-15.508z" fill="#F7CE66"/><path fill-rule="evenodd" clip-rule="evenodd" d="M109.1 82.596l-26.11.392 2.798-2.944 22.331-.197.981 2.749z" fill="#F8E49C"/><path fill-rule="evenodd" clip-rule="evenodd" d="M106.99 41.47l.343 24.489 32.539.638.147-26.06-33.029.933z" fill="#DBB158"/><path fill-rule="evenodd" clip-rule="evenodd" d="M140.019 40.537l-.147 26.06 1.62-1.227.049-22.968-1.522-1.865zm-34.551 40.488l-.098-15.115 24.932-.05-.098 14.822-24.736.343z" fill="#F7CE66"/><path fill-rule="evenodd" clip-rule="evenodd" d="M130.302 65.86l-24.932.05 1.522-.884 21.937-.049 1.473.884z" fill="#F8E49C"/><path fill-rule="evenodd" clip-rule="evenodd" d="M148.803 79.455l2.356.245-10.503 3.583-2.405-.246 10.552-3.582z" fill="#F9F9F9"/><path fill-rule="evenodd" clip-rule="evenodd" d="M138.251 98.79l2.405.393v-15.9l-2.405-.246v15.754zM120.388 58.5l.098-17.423 3.73-.05V58.5h-3.828zm28.759 19.826l1.62-.393-.196-11.582-1.669.197.245 11.778z" fill="#F9F9F9"/><path fill-rule="evenodd" clip-rule="evenodd" d="M141.492 65.37v-.246l9.079 1.227-1.669.197-7.508-1.08.098-.098zM98.597 77.344l1.08.344-.147-11.582-1.031-.294.098 11.532z" fill="#F9F9F9"/><path fill-rule="evenodd" clip-rule="evenodd" d="M106.204 65.419l-.638.344-6.036.343-1.031-.294 7.705-.393zm10.994.491l1.865-.05v10.552h-1.816l-.049-10.502z" fill="#F9F9F9"/><path fill-rule="evenodd" clip-rule="evenodd" d="M117.198 65.91l1.865-.05-.294-.883h-1.571v.933zm-.589 15.459l-1.227-.295-.147 13.889 1.129.54.245-14.134z" fill="#F9F9F9"/><path fill-rule="evenodd" clip-rule="evenodd" d="M117.836 80.878l5.497-.098-6.724.589-1.227-.295 2.454-.196zm12.073.687l-1.374.147-.049 14.772 1.374-.196.049-14.723z" fill="#F9F9F9"/><path fill-rule="evenodd" clip-rule="evenodd" d="M125.787 80.78l1.57-.05 2.552.835-1.374.147-2.748-.932zm-17.276.196l.197.49-24.686.443.49-.54 23.999-.393z" fill="#F9F9F9"/><path d="M87.03 84.544l-.826 3.385 5.054 1.234.826-3.385-5.054-1.234zm25.359-16.23h-4.957v3.043h4.957v-3.043z" fill="#F9F9F9"/><path fill-rule="evenodd" clip-rule="evenodd" d="M147.136 86.276l-4.319-.49v2.895l4.319.442v-2.847z" fill="#F9F9F9"/><path fill-rule="evenodd" clip-rule="evenodd" d="M35.827 63.113l51.826-.736 5.497 5.545-61.397.442 4.074-5.251z" fill="#E1E2E1"/><path fill-rule="evenodd" clip-rule="evenodd" d="M93.15 67.922l-61.397.442.148 3.042 61.102-.098.147-3.386z" fill="#CBCCCD"/><path fill-rule="evenodd" clip-rule="evenodd" d="M40.392 71.406h-2.65C36.71 90.35 36.22 99.43 36.268 98.546c.54.196.982.294 1.865.049 1.325-18.11 2.258-27.189 2.258-27.189zm53.788 31.066c-.392.393-1.079.491-1.962.245l-3.24-31.36h2.65l2.553 31.115zM83.874 71.406h2.65c1.031 18.944 1.522 28.023 1.473 27.14-.54.196-.981.294-1.865.049-1.325-18.11-2.258-27.189-2.258-27.189zm-53.985 31.066c.392.393 1.08.491 1.963.245l3.239-31.36h-2.65l-2.552 31.115z" fill="#141515"/><path fill-rule="evenodd" clip-rule="evenodd" d="M58.255 64.438c4.025 0 7.313-.295 7.313-.638 0-.344-3.288-.638-7.313-.638-4.024 0-7.312.294-7.312.638 0 .392 3.288.638 7.313.638z" fill="#080902"/><path fill-rule="evenodd" clip-rule="evenodd" d="M57.863 64.438c-4.22 0-6.527-.246-6.969-.638v1.08c.982.49 4.564.588 6.97.588 2.502 0 6.036 0 7.655-.589V63.75c-.294.491-2.846.688-7.656.688z" fill="#141515"/><path d="M62.231 58.45h-8.196v5.399h8.196V58.45z" fill="#080902"/><path fill-rule="evenodd" clip-rule="evenodd" d="M43.189 38.23h29.692c1.03 0 1.865.835 1.865 1.866V55.21H41.373V40.096c-.049-1.031.785-1.865 1.816-1.865z" fill="#141515"/><path fill-rule="evenodd" clip-rule="evenodd" d="M41.324 55.211h33.373v2.356c0 .981-.835 1.816-1.816 1.816H43.14c-.982 0-1.816-.835-1.816-1.816V55.21z" fill="#E1E2E1"/><path fill-rule="evenodd" clip-rule="evenodd" d="M58.158 58.107a.775.775 0 00.785-.785.775.775 0 00-.785-.786.775.775 0 00-.785.786c0 .392.343.785.785.785z" fill="#141515"/><path d="M66.207 57.469h-5.644v.589h5.644v-.59zm1.766-.884h-3.435v.442h3.435v-.442z" fill="#141515"/><path fill-rule="evenodd" clip-rule="evenodd" d="M73.028 64.634c.05-.246.148-.393.442-.59.294-.146.736-.244 1.325-.293.59 0 1.325.098 1.914.245.54.147.933.343 1.129.589.196.245.196.54.098.785s-.294.393-.54.49a2.74 2.74 0 01-1.03.197c-.491 0-1.13 0-1.669-.098-.54-.098-1.03-.344-1.325-.589-.344-.245-.393-.54-.344-.736z" fill="#FDE742"/><path fill-rule="evenodd" clip-rule="evenodd" d="M73.764 64.143c.099 0 .295.05.491.098.197.05.344.098.491.098.098 0 .196 0 .196-.049.05-.049 0-.098-.049-.147a.503.503 0 00-.294-.245 2.108 2.108 0 00-.59-.098.592.592 0 00-.392.147c-.049.049-.098.098-.049.098.05.049.05.049.197.098z" fill="#141515"/><path fill-rule="evenodd" clip-rule="evenodd" d="M75.531 57.027c.197 1.472.54 4.024.687 5.398.197 1.326.197 1.424.933 1.57.736.148 2.208.295 3.484.295a13.999 13.999 0 002.847-.392c.54-.148.638-.148.834-1.473.197-1.325.54-3.975.736-5.3.197-1.325.197-1.325.197-1.472 0-.147 0-.393-.295-.54-.294-.147-.932-.147-2.355-.147-1.424 0-3.632-.05-5.007-.05-1.325 0-1.766 0-2.012.148-.245.147-.245.49-.049 1.963z" fill="#F9F9F9"/><path fill-rule="evenodd" clip-rule="evenodd" d="M74.55 55.653c.392.098 1.08.294 2.06.392.933.099 2.21.197 3.387.197 1.227 0 2.405-.05 3.387-.148a23.553 23.553 0 002.355-.343c.491-.098.59-.147.638-.196.05-.05.099-.099.099-.393v-1.129c0-.294 0-.294-.59-.441-.588-.148-1.815-.393-3.631-.491-1.816-.098-4.172-.05-5.693.049-1.472.098-2.061.245-2.356.343-.294.099-.294.099-.294.442 0 .295 0 .933.049 1.276.098.344.196.344.589.442z" fill="#CBCCCD"/><path fill-rule="evenodd" clip-rule="evenodd" d="M75.286 54.082c.54.099 1.668.197 2.993.246 1.326.049 2.847.098 4.074.098 1.227 0 2.16-.098 2.7-.147.539-.05.686-.099.686-.148 0-.049-.147-.098-.687-.196s-1.423-.294-2.945-.343c-1.472-.05-3.533 0-4.858.049-1.325.049-1.865.098-2.16.196-.343 0-.343.098.197.245z" fill="#080902"/><path fill-rule="evenodd" clip-rule="evenodd" d="M85.102 41.126c-.737.393-1.424.835-2.013 1.424-.589.588-1.03 1.325-1.325 2.06a4.896 4.896 0 00-.294 2.013c.049.638.147 1.227.245 1.521.098.295.098.295.736-.049.638-.343 1.816-1.08 2.749-1.914a7.124 7.124 0 001.865-2.944c.294-1.031.294-2.013.343-2.552 0-.54.05-.54-.343-.393-.442.147-1.227.442-1.963.834z" fill="#5DC94C"/><path fill-rule="evenodd" clip-rule="evenodd" d="M74.206 43.335c.932.343 2.257.785 3.14 1.57.933.785 1.424 1.865 1.62 2.896.197.981.099 1.914 0 2.355-.098.442-.098.442-.932.098-.834-.343-2.503-1.03-3.583-2.012-1.08-.981-1.521-2.306-1.816-3.288-.245-.981-.343-1.669-.343-2.012-.05-.343-.05-.343.245-.245.246.147.736.343 1.669.638zm6.184-9.374c-.393.49-.736.982-1.08 1.57-.343.59-.638 1.227-.785 1.865a5.916 5.916 0 00-.147 1.816c0 .54.049.982.196 1.62.147.638.393 1.423.49 1.816.099.392.099.392.148.392 0 0 .05 0 .638-.687.59-.687 1.767-2.061 2.258-3.337.54-1.276.441-2.356.245-3.435-.196-1.08-.49-1.964-.638-2.454-.147-.491-.147-.491-.344-.246-.196.197-.588.59-.981 1.08z" fill="#4AAB3C"/><path fill-rule="evenodd" clip-rule="evenodd" d="M80.635 35.973a219.176 219.176 0 00-.982 4.81c-.147.638-.245 1.128-.294 1.62-.098.49-.147.932-.245 1.422-.099.54-.148 1.13-.246 1.816a27.762 27.762 0 00-.245 2.307 158.252 158.252 0 00-.393 5.84h-.147c.098-2.061.245-4.122.393-5.84.098-.884.147-1.62.245-2.307.098-.687.196-1.276.245-1.816.099-.54.148-.981.246-1.472.098-.49.196-.981.294-1.62.246-1.226.638-2.993.982-4.76v-.049l.147.05z" fill="#509663"/><path fill-rule="evenodd" clip-rule="evenodd" d="M73.126 43.973c.687.638 1.423 1.276 2.061 1.914a21.73 21.73 0 011.816 1.914c.54.638.982 1.276 1.326 1.864.343.59.687 1.178.883 1.67.245.49.442.98.589 1.324.147.393.245.638.343.834l.148.393-.148.05-.147-.393c-.049-.197-.196-.491-.343-.835a14.03 14.03 0 00-.59-1.325 29.05 29.05 0 00-.883-1.668 13.258 13.258 0 00-1.325-1.865 21.73 21.73 0 00-1.816-1.914l-2.061-1.914.147-.05zm12.859-2.16c-.344.393-.687.785-1.03 1.227-.344.442-.688.883-1.032 1.423-.343.54-.736 1.13-1.03 1.767a54.275 54.275 0 00-.835 1.767c-.245.589-.392 1.178-.54 1.718a9.735 9.735 0 00-.294 1.57c-.147.982-.147 1.816-.196 2.7h-.098c.049-.835.049-1.718.196-2.7.05-.49.147-1.03.294-1.57.148-.54.295-1.13.54-1.767.246-.59.54-1.227.835-1.816.343-.638.687-1.227 1.08-1.816.343-.54.686-.981 1.03-1.423.344-.442.687-.834 1.03-1.227l.05.147z" fill="#509663"/></g><defs><clipPath id="clip0_2_14052"><path fill="#fff" d="M0 0h330v163.621H0z"/></clipPath></defs></svg>