<svg width="880" height="460" fill="none" xmlns="http://www.w3.org/2000/svg"><path d="M841.191 438.579c-.869 10.337-9.498 18.294-19.872 18.323L1.658 459.263 40.479 3.149 856.201.8c11.73-.034 20.971 9.988 19.988 21.676L841.191 438.58z" fill="#4AAB3C"/><mask id="a" style="mask-type:alpha" maskUnits="userSpaceOnUse" x="0" y="1" width="876" height="456"><path d="M839.589 438.734C838.69 449.068 830.038 457 819.665 457H0L40.135 1H855.86c11.73 0 20.942 10.048 19.925 21.734l-36.196 416z" fill="#4AAB3C"/></mask><g mask="url(#a)"><path fill-rule="evenodd" clip-rule="evenodd" d="M669.148 383.353c.076 1.745.076 3.794.379 4.932.303 1.138.986 1.29 2.124 1.366 1.213.076 2.882 0 3.792.076.91.076.91.304.91.911 0 .683 0 1.745-.227 2.276-.152.607-.455.683-1.062.911-.607.303-1.441.759-1.82 1.593-.38.835-.304 1.897.303 2.656.607.683 1.745.987 3.489 1.063 1.82.076 4.323 0 15.701-.076 11.377-.076 31.628-.228 46.115-.683 14.487-.531 23.209-1.442 32.311-2.504 9.102-1.063 18.659-2.277 27.533-3.263 8.798-.987 16.838-1.67 25.105-1.67 8.268 0 16.763.835 21.465 1.29 4.703.455 5.613.683 10.391.759 4.703.076 13.198.076 17.445.076 4.248 0 4.324 0 4.324.607v2.428c0 .607.076.607 4.475.532l17.521-.304 4.399-.076v.987c0 .986.076 2.883.151 3.794.076.986.152.986.304 1.062.151.076.303.152 8.419-.303 8.116-.456 24.271-1.366 40.578-3.036 16.308-1.669 32.767-3.946 42.627-5.008 9.86-1.063 13.2-.835 15.32-.683 2.12.152 3.03.228 10.92-.076 7.89-.304 22.68-1.062 30.11-1.366 7.44-.379 7.44-.379 6.76-1.138-.69-.759-1.98-2.277-3.34-3.567-1.37-1.366-2.81-2.504-9.56-8.271-6.75-5.843-18.81-16.315-30.49-22.007-11.68-5.691-22.83-6.526-31.401-6.222-8.495.303-14.259 1.745-20.554 6.981-6.22 5.236-12.97 14.191-17.142 19.73-4.172 5.616-5.84 7.816-14.184 9.106-8.343 1.29-23.361 1.746-31.628-.531-8.267-2.276-9.784-7.209-13.198-8.651-3.413-1.517-8.722.456-35.648.835-26.926.304-75.544-.987-107.021-1.745-31.477-.759-45.888-1.063-55.369-1.29-9.481-.228-14.108-.38-16.762.303-2.655.683-3.413 2.049-3.641 3.567-.076 1.366.076 2.883.076 4.629z" fill="#2B2923"/><path d="M870.447 173H571v181.744h299.447V173z" fill="#BDBDBD"/><path fill-rule="evenodd" clip-rule="evenodd" d="M830.173 386.009c31.249-.076 37.62-.076 40.806-.076h3.185l-.076-.759c-.076-.759-.303-2.352-.606-6.298-.304-4.022-.683-10.397-.835-14.874-.227-4.401-.227-6.83-.227-8.044v-1.214H594.362v1.745c0 1.746-.076 5.161-.076 6.906v1.897c0 .152-.076.531-.076 2.049-.076 1.442-.076 4.098-.151 5.388v1.29h18.127s-.076 0-.076 2.049 0 6.146.076 8.195v2.353c0 .076.076.076 12.439.076 12.439 0 37.241 0 77.744-.152 40.351-.228 96.554-.455 127.804-.531z" fill="#36342B"/><path d="M873.101 361.422H581.314v12.066h291.787v-12.066z" fill="#3F3D2E"/><path d="M858.767 361.422h-67.732v34.452h67.732v-34.452z" fill="#3F3D2E"/><path fill-rule="evenodd" clip-rule="evenodd" d="M673.167 385.478l-.38 1.062h-3.564l.455-1.366c.455-1.366 1.289-4.174 3.413-7.892 2.124-3.718 5.537-8.347 8.495-11.686 2.958-3.339 5.385-5.388 7.357-6.982 2.048-1.593 3.641-2.732 4.475-3.263.834-.531.834-.531 4.096-.531h28.291c2.427 0 2.427 0 3.489.607 1.138.607 3.337 1.745 6.068 3.491 2.73 1.821 5.916 4.174 8.874 7.437 2.958 3.187 5.613 7.285 7.054 10.699 1.441 3.491 1.593 6.375 1.669 7.816l.075 1.442h-3.261l-.076-.91c-.076-.911-.303-2.732-1.062-5.085-.758-2.352-2.124-5.312-3.489-7.664-1.441-2.428-2.958-4.25-5.233-6.374-2.276-2.125-5.385-4.478-7.661-5.995-2.275-1.518-3.641-2.125-4.399-2.429-.759-.303-.91-.227-5.916-.303-4.93 0-14.715-.076-19.645-.152h-4.854l-1.517.911c-1.517.91-4.551 2.732-7.509 5.312s-5.764 5.843-7.964 8.726c-2.124 2.884-3.641 5.388-4.778 7.741-1.29 2.276-2.124 4.401-2.503 5.388z" fill="#737160"/><path d="M711.774 425.924c18.096 0 32.766-14.269 32.766-31.871 0-17.603-14.67-31.872-32.766-31.872-18.096 0-32.766 14.269-32.766 31.872 0 17.602 14.67 31.871 32.766 31.871z" fill="#4F4D3E"/><path d="M711.773 414.997c11.897 0 21.541-9.377 21.541-20.945 0-11.567-9.644-20.944-21.541-20.944-11.896 0-21.541 9.377-21.541 20.944 0 11.568 9.645 20.945 21.541 20.945z" fill="#807E6D"/><path fill-rule="evenodd" clip-rule="evenodd" d="M711.773 408.622c7.66 0 13.88-6.298 13.88-14.038 0-7.741-6.22-14.039-13.88-14.039-7.661 0-13.88 6.298-13.88 14.039 0 7.74 6.219 14.038 13.88 14.038z" fill="#737160"/><path fill-rule="evenodd" clip-rule="evenodd" d="M873.48 371.818c.152 8.423.227 9.865.379 10.852.076 1.062.228 1.745.379 2.883.228 1.063.531 2.58.835 3.567.303.986.682 1.594 1.365 2.049.683.455 1.593.759 3.792.759 2.2 0 5.689-.304 10.619-.228 4.93 0 11.225.379 17.066.911 5.84.531 11.149 1.138 15.397 1.973 4.247.834 7.433 1.821 10.163 2.58 2.731.759 4.931 1.29 6.372 1.138 1.441-.076 2.048-.759 2.654-2.049.683-1.214 1.366-3.035 2.427-5.843 1.062-2.808 2.503-6.678 4.4-11.079 1.896-4.402 4.323-9.334 7.736-13.508 3.413-4.249 7.812-7.74 12.818-9.865 5.082-2.124 10.847-2.807 16.459-2.732 5.613.076 11.15.911 15.319 2.277 4.17 1.366 6.9 3.263 8.72 4.857 1.83 1.593 2.74 2.883 3.27 3.49.45.683.45.683.83.456.38-.228 1.06-.607 1.97-1.442.91-.835 2.05-2.049 2.58-2.732.53-.607.53-.607-1.29-2.125s-5.46-4.477-10.69-6.829c-5.24-2.353-12.138-4.022-18.357-4.554a48.927 48.927 0 00-16.459 1.366c-4.703 1.29-8.571 3.112-11.833 5.236-3.337 2.125-6.067 4.478-8.115 6.678-2.048 2.201-3.413 4.326-5.006 7.058a573.188 573.188 0 00-4.475 8.271c-1.214 2.277-1.972 3.642-2.427 4.477-.456.835-.683 1.214-.835 1.442-.151.228-.379.379-.91.531-.531.076-1.441.152-7.281.228-5.916.076-16.763.152-22.679.152-5.992 0-7.054-.152-8.343-.607-1.289-.456-2.731-1.215-3.944-2.353-1.214-1.062-2.048-2.504-2.655-4.705-.531-2.2-.682-5.16-.91-11.307-.152-6.146-.303-15.404-.531-25.724-.227-10.321-.455-21.628-.986-36.881-.531-15.252-1.289-34.375-1.744-43.937l-.38-9.561h-12.211c-2.579 0-2.958.076-3.413 1.517-.455 1.442-1.062 4.25-1.138 18.44-.076 14.191.228 39.688.531 60.253.228 20.641.379 36.121.531 44.62z" fill="#4AAB3C"/><path fill-rule="evenodd" clip-rule="evenodd" d="M920.733 243.345c4.399.152 8.116.456 11.832 1.366 3.717.911 7.509 2.504 9.405 3.339 1.896.759 1.972.759 2.048.683.076-.076.228-.303.531-.607.303-.304.759-.759 1.593-1.669.834-.911 2.048-2.201 2.73-2.96.683-.759.835-.911 2.428.379 1.592 1.215 4.626 3.871 13.804 11.763 9.253 7.892 24.65 21.096 33.828 29.139 9.178 7.968 12.138 10.776 13.578 12.218 1.44 1.366 1.44 1.366 2.12 1.366.69 0 1.97-.076 2.81 0 .76 0 1.06.152 1.29.455.23.304.53.835.83 1.29.38.455.76.835 1.29 1.138.53.304 1.06.607 2.73 1.215 1.67.607 4.4 1.669 5.92 2.276 1.52.683 1.82.987 1.89 1.214.16.228.08.456-4.17.987-4.24.531-12.82 1.366-20.1 1.821-7.278.455-13.422.531-16.607.607-3.11 0-3.338 0-3.413-.152-.076-.227-.076-.683-.228-2.428-.076-1.745-.303-4.933-.531-6.754-.227-1.821-.379-2.352-1.213-3.718-.835-1.366-2.428-3.567-4.855-6.754-2.427-3.111-5.764-7.209-10.391-11.99-4.702-4.78-10.694-10.32-14.866-14.038-4.172-3.719-6.371-5.616-9.026-7.513-2.654-1.897-5.613-3.794-8.646-5.16-2.958-1.366-5.917-2.277-10.088-2.808-4.172-.531-9.557-.683-16.156-.835-6.598-.076-14.335-.076-19.568-.076h-10.467c-2.352 0-4.324.076-5.31.076-.986 0-.986 0-.758-.379.227-.379.758-1.138 1.213-1.821a36.39 36.39 0 011.062-1.518c.228-.304.228-.304.304-.304h4.778c4.703 0 14.184-.075 21.465-.151 7.433.076 12.515.151 16.914.303z" fill="#4F4D3E"/><path d="M861.573 182.03H578.965v163.153h282.608V182.03z" fill="#4F4D3E"/><path fill-rule="evenodd" clip-rule="evenodd" d="M578.965 345.183V182.03l30.415 13.128v121.72l-30.415 28.305z" fill="#6A6856"/><path fill-rule="evenodd" clip-rule="evenodd" d="M578.965 345.183l30.415-28.305h223.751l28.442 28.305H578.965z" fill="#403E32"/><path fill-rule="evenodd" clip-rule="evenodd" d="M861.572 345.183V182.03l-28.443 13.128v121.72l28.443 28.305z" fill="#6A6856"/><path fill-rule="evenodd" clip-rule="evenodd" d="M861.573 182.03H578.965l30.415 13.128h223.751l28.442-13.128z" fill="#6A6856"/><path fill-rule="evenodd" clip-rule="evenodd" d="M744.311 275.596l5.385 38.398-20.1 1.518-.834-39.081 15.549-.835z" fill="#DBB158"/><path fill-rule="evenodd" clip-rule="evenodd" d="M744.312 275.596l-15.548.835-9.178-2.808 18.583-.758 6.143 2.731z" fill="#FBD16B"/><path fill-rule="evenodd" clip-rule="evenodd" d="M728.764 276.431l-9.178-2.808 1.365 39.764 8.647 2.125-.834-39.081z" fill="#F8E49C"/><path fill-rule="evenodd" clip-rule="evenodd" d="M764.865 274.534l.076 1.138.228 27.85 21.92 11.003-.076-37.183-22.148-2.808z" fill="#DBB158"/><path fill-rule="evenodd" clip-rule="evenodd" d="M787.09 314.525l-.076-37.183 27.457-2.884-.076 28.912-27.305 11.155z" fill="#F7CE66"/><path fill-rule="evenodd" clip-rule="evenodd" d="M787.013 277.342l27.457-2.884-21.92-1.745-27.685 1.821 22.148 2.808z" fill="#F8E49C"/><path fill-rule="evenodd" clip-rule="evenodd" d="M783.221 297.906l-2.731 22.614-22.906 3.491.152-23.449 25.485-2.656z" fill="#DBB158"/><path fill-rule="evenodd" clip-rule="evenodd" d="M757.737 300.562l-.152 23.449-16.459-8.12-.151-19.73 16.762 4.401z" fill="#F7CE66"/><path fill-rule="evenodd" clip-rule="evenodd" d="M740.975 296.161l28.139-1.29 14.108 3.035-25.485 2.656-16.762-4.401z" fill="#F8E49C"/><path fill-rule="evenodd" clip-rule="evenodd" d="M801.501 303.067l-27.532-2.732.151 23.676 27.154 4.477.227-25.421z" fill="#F7CE66"/><path fill-rule="evenodd" clip-rule="evenodd" d="M801.501 303.067l-27.532-2.732 19.113-5.236 23.134 2.276-14.715 5.692z" fill="#F8E49C"/><path fill-rule="evenodd" clip-rule="evenodd" d="M816.215 297.375l-14.714 5.692-.228 25.421 14.563-9.106.379-21.779v-.228z" fill="#DBB158"/><path fill-rule="evenodd" clip-rule="evenodd" d="M699.258 301.321l40.351-.607.076 23.98-39.896.607-.531-23.98z" fill="#F7CE66"/><path fill-rule="evenodd" clip-rule="evenodd" d="M739.609 300.714l-40.351.607 4.323-4.553 34.511-.303 1.517 4.249z" fill="#F8E49C"/><path fill-rule="evenodd" clip-rule="evenodd" d="M736.348 237.123l.531 37.866 50.287.987.227-40.295-51.045 1.442z" fill="#DBB158"/><path fill-rule="evenodd" clip-rule="evenodd" d="M787.394 235.681l-.228 40.295 2.503-1.897.076-35.514-2.351-2.884zm-53.399 62.605l-.151-23.373 38.53-.075-.151 22.917-38.228.531z" fill="#F7CE66"/><path fill-rule="evenodd" clip-rule="evenodd" d="M772.374 274.838l-38.53.075 2.351-1.366 33.904-.075 2.275 1.366z" fill="#F8E49C"/><path fill-rule="evenodd" clip-rule="evenodd" d="M800.969 295.858l3.641.379-16.231 5.54-3.717-.38 16.307-5.539z" fill="#F9F9F9"/><path fill-rule="evenodd" clip-rule="evenodd" d="M784.662 325.756l3.717.607v-24.586l-3.717-.38v24.359zm-27.607-62.301l.151-26.939 5.765-.076v27.015h-5.916zm44.445 30.657l2.503-.607-.303-17.909-2.579.304.379 18.212zm-11.833-20.033v-.38l14.032 1.897-2.579.304-11.604-1.67.151-.151zm-66.289 18.516l1.669.531-.228-17.909-1.592-.455.151 17.833zm11.757-18.44l-.986.531-9.33.531-1.592-.455 11.908-.607zm16.988.758l2.882-.075v16.315h-2.806l-.076-16.24z" fill="#F9F9F9"/><path fill-rule="evenodd" clip-rule="evenodd" d="M752.123 274.913l2.882-.075-.455-1.366h-2.427v1.441zm-.909 23.904l-1.897-.455-.227 21.475 1.744.835.38-21.855z" fill="#F9F9F9"/><path fill-rule="evenodd" clip-rule="evenodd" d="M753.109 298.058l8.495-.152-10.391.911-1.897-.455 3.793-.304zm18.659 1.063l-2.124.227-.076 22.842 2.124-.304.076-22.765z" fill="#F9F9F9"/><path fill-rule="evenodd" clip-rule="evenodd" d="M765.396 297.906l2.428-.075 3.944 1.29-2.124.227-4.248-1.442zm-26.696.304l.303.759-38.151.683.758-.835 37.09-.607z" fill="#F9F9F9"/><path d="M705.499 303.727l-1.276 5.234 7.81 1.907 1.277-5.234-7.811-1.907zm39.191-25.095h-7.661v4.705h7.661v-4.705z" fill="#F9F9F9"/><path fill-rule="evenodd" clip-rule="evenodd" d="M798.391 306.406l-6.674-.759v4.477l6.674.683v-4.401z" fill="#F9F9F9"/><path fill-rule="evenodd" clip-rule="evenodd" d="M626.37 270.588l80.095-1.138 8.495 8.575-94.886.683 6.296-8.12z" fill="#E1E2E1"/><path fill-rule="evenodd" clip-rule="evenodd" d="M714.96 278.025l-94.886.683.228 4.704 94.43-.151.228-5.236z" fill="#CBCCCD"/><path fill-rule="evenodd" clip-rule="evenodd" d="M633.423 283.412h-4.096a69073.122 69073.122 0 00-2.275 41.965c.834.303 1.517.455 2.882.076 2.048-28.002 3.489-42.041 3.489-42.041zm83.129 48.036c-.607.607-1.669.758-3.034.379l-5.006-48.49h4.095l3.945 48.111zm-15.929-48.036h4.096c1.593 29.292 2.351 43.331 2.275 41.965-.834.303-1.517.455-2.882.076-2.048-28.002-3.489-42.041-3.489-42.041zm-83.432 48.036c.607.607 1.669.758 3.034.379l5.006-48.49h-4.096l-3.944 48.111z" fill="#141515"/><path fill-rule="evenodd" clip-rule="evenodd" d="M661.032 272.637c6.219 0 11.301-.455 11.301-.987 0-.531-5.082-.986-11.301-.986-6.22 0-11.302.455-11.302.986 0 .607 5.082.987 11.302.987z" fill="#080902"/><path fill-rule="evenodd" clip-rule="evenodd" d="M660.425 272.637c-6.523 0-10.088-.38-10.771-.987v1.67c1.517.759 7.054.91 10.771.91 3.868 0 9.329 0 11.832-.91v-1.746c-.455.759-4.399 1.063-11.832 1.063z" fill="#141515"/><path d="M667.174 263.379h-12.666v8.347h12.666v-8.347z" fill="#080902"/><path fill-rule="evenodd" clip-rule="evenodd" d="M637.747 232.114h45.888a2.881 2.881 0 012.882 2.884v23.372h-51.576v-23.372c-.076-1.594 1.213-2.884 2.806-2.884z" fill="#141515"/><path fill-rule="evenodd" clip-rule="evenodd" d="M634.863 258.37h51.577v3.643c0 1.518-1.29 2.808-2.807 2.808H637.67c-1.517 0-2.807-1.29-2.807-2.808v-3.643z" fill="#E1E2E1"/><path fill-rule="evenodd" clip-rule="evenodd" d="M660.88 262.848c.682 0 1.213-.532 1.213-1.215 0-.682-.531-1.214-1.213-1.214-.683 0-1.214.532-1.214 1.214 0 .608.531 1.215 1.214 1.215z" fill="#141515"/><path d="M673.318 261.861h-8.722v.911h8.722v-.911zm2.732-1.366h-5.31v.683h5.31v-.683z" fill="#141515"/><path fill-rule="evenodd" clip-rule="evenodd" d="M683.861 272.94c.076-.379.227-.607.682-.91.456-.228 1.138-.38 2.048-.456.911 0 2.048.152 2.958.38.835.228 1.442.531 1.745.911.303.379.303.834.152 1.214-.152.379-.455.607-.835.759-.379.151-.91.303-1.592.303-.759 0-1.745 0-2.579-.152-.835-.151-1.593-.531-2.048-.91-.531-.38-.607-.835-.531-1.139z" fill="#FDE742"/><path fill-rule="evenodd" clip-rule="evenodd" d="M684.999 272.181c.152 0 .455.076.758.152.304.076.531.152.759.152.152 0 .303 0 .303-.076.076-.076 0-.152-.076-.228a.775.775 0 00-.455-.379 3.245 3.245 0 00-.91-.152.916.916 0 00-.607.228c-.076.076-.151.152-.076.152.076.076.076.076.304.151z" fill="#141515"/><path fill-rule="evenodd" clip-rule="evenodd" d="M687.731 261.178c.303 2.277.834 6.223 1.061 8.348.304 2.048.304 2.2 1.442 2.428 1.137.227 3.413.455 5.385.455a21.611 21.611 0 004.399-.607c.834-.228.986-.228 1.289-2.276.304-2.049.835-6.147 1.138-8.196.303-2.049.303-2.049.303-2.277 0-.227 0-.607-.455-.834-.455-.228-1.441-.228-3.64-.228-2.2 0-5.613-.076-7.737-.076-2.048 0-2.73 0-3.11.228-.379.227-.379.759-.075 3.035z" fill="#F9F9F9"/><path fill-rule="evenodd" clip-rule="evenodd" d="M686.213 259.053c.606.152 1.668.456 3.185.607 1.441.152 3.413.304 5.234.304 1.896 0 3.716-.076 5.233-.228a36.163 36.163 0 003.641-.531c.758-.152.91-.227.986-.303.076-.076.152-.152.152-.607v-1.746c0-.455 0-.455-.911-.683-.91-.227-2.806-.607-5.612-.759-2.807-.151-6.447-.075-8.799.076-2.275.152-3.185.38-3.64.531-.455.152-.455.152-.455.683 0 .456 0 1.442.075 1.973.152.532.304.532.911.683z" fill="#CBCCCD"/><path fill-rule="evenodd" clip-rule="evenodd" d="M687.35 256.625c.834.152 2.579.304 4.626.38 2.048.075 4.4.151 6.296.151s3.337-.151 4.171-.227c.835-.076 1.062-.152 1.062-.228 0-.076-.227-.152-1.062-.304-.834-.151-2.199-.455-4.55-.531-2.276-.076-5.461 0-7.509.076s-2.883.152-3.338.304c-.531 0-.531.151.304.379z" fill="#080902"/><path fill-rule="evenodd" clip-rule="evenodd" d="M702.52 236.592c-1.137.607-2.199 1.29-3.109 2.2-.911.911-1.593 2.049-2.048 3.187-.38 1.063-.531 2.125-.455 3.112.075.986.227 1.897.379 2.352.152.455.152.455 1.138-.076.986-.531 2.806-1.669 4.247-2.959a11.02 11.02 0 002.882-4.553c.455-1.594.455-3.112.531-3.946 0-.835.076-.835-.531-.607-.682.227-1.896.682-3.034 1.29z" fill="#5DC94C"/><path fill-rule="evenodd" clip-rule="evenodd" d="M685.681 240.006c1.441.532 3.489 1.214 4.854 2.429 1.442 1.214 2.2 2.883 2.503 4.477.304 1.518.152 2.959 0 3.642-.151.683-.151.683-1.441.152-1.289-.531-3.868-1.593-5.537-3.111-1.668-1.518-2.351-3.567-2.806-5.084-.379-1.518-.531-2.581-.531-3.112-.076-.531-.076-.531.379-.379.38.227 1.138.531 2.579.986zm9.557-14.494a19.487 19.487 0 00-1.669 2.429c-.531.91-.986 1.897-1.213 2.883-.228.987-.304 1.973-.228 2.808 0 .835.076 1.518.303 2.504.228.987.607 2.201.759 2.808.152.607.152.607.227.607 0 0 .076 0 .986-1.062.911-1.063 2.731-3.188 3.489-5.161.835-1.973.683-3.642.38-5.311-.304-1.67-.759-3.036-.986-3.795-.228-.759-.228-.759-.531-.379-.304.303-.91.91-1.517 1.669z" fill="#4AAB3C"/><path fill-rule="evenodd" clip-rule="evenodd" d="M695.618 228.624a336.206 336.206 0 00-1.517 7.436c-.228.987-.379 1.746-.455 2.505-.152.758-.228 1.441-.379 2.2-.152.835-.228 1.746-.38 2.808a43.349 43.349 0 00-.379 3.567 246.612 246.612 0 00-.607 9.03h-.227c.152-3.187.379-6.375.607-9.03.151-1.366.227-2.505.379-3.567.152-1.062.303-1.973.379-2.808.152-.835.228-1.518.379-2.276a51.56 51.56 0 00.455-2.505c.38-1.897.986-4.629 1.517-7.36v-.076l.228.076z" fill="#509663"/><path fill-rule="evenodd" clip-rule="evenodd" d="M684.013 240.993c1.062.986 2.199 1.973 3.185 2.959a33.68 33.68 0 012.807 2.96 20.521 20.521 0 012.048 2.883c.53.911 1.061 1.822 1.365 2.581.379.758.682 1.517.91 2.048.228.607.379.987.531 1.29l.227.608-.227.075-.228-.607c-.075-.303-.303-.759-.531-1.29a21.614 21.614 0 00-.91-2.049c-.379-.758-.834-1.669-1.365-2.58a20.521 20.521 0 00-2.048-2.883 33.515 33.515 0 00-2.806-2.96l-3.186-2.959.228-.076zm19.872-3.339c-.531.607-1.062 1.214-1.593 1.897-.531.683-1.062 1.366-1.593 2.201-.531.834-1.138 1.745-1.593 2.732-.455.91-.91 1.897-1.289 2.731-.379.911-.607 1.822-.835 2.656-.227.835-.379 1.67-.455 2.429-.227 1.517-.227 2.807-.303 4.173h-.152c.076-1.29.076-2.656.304-4.173.076-.759.227-1.594.455-2.429.227-.834.455-1.745.834-2.731.379-.911.834-1.898 1.289-2.808a34.165 34.165 0 011.669-2.808c.531-.835 1.062-1.518 1.593-2.201.531-.683 1.062-1.29 1.593-1.897l.076.228z" fill="#509663"/></g></svg>