<svg width="507" height="390" fill="none" xmlns="http://www.w3.org/2000/svg"><path fill-rule="evenodd" clip-rule="evenodd" d="M471.45 321.558h-96.579c-1.62-102.702-2.97-188.389-3.982-256.925 33.88-3.512 67.828-4.997 101.843-4.525.742 220.531-2.16 226.068-1.282 261.45z" fill="#B1B1B1"/><path fill-rule="evenodd" clip-rule="evenodd" d="M128.259 304.813c80.989-.135 121.416-.135 121.416-.135 1.755-129.915 1.957-231.065.675-303.45-46.029-3.24-85.848-.067-119.526 9.521-1.755 196.02-2.565 294.064-2.565 294.064z" fill="#CBCCCD"/><path fill-rule="evenodd" clip-rule="evenodd" d="M290.777 310.012c118.716 0 214.08-2.161 214.957 27.009.067 1.418.675-1.148 0 0-9.989 17.556-101.911 27.01-214.957 27.01-27.874 0-54.533-.676-79.032-1.891-22.407 3.039-51.495 4.929-83.283 4.929C57.8 367.069.5 357.954.5 346.677c0-9.183 37.997-16.948 90.235-19.514 31.518-10.061 109.199-17.151 200.042-17.151z" fill="#E7E6E5"/><path fill-rule="evenodd" clip-rule="evenodd" d="M38.297 332.902H149.79C146.214 225 144.999 130.13 146.079 48.359c-31.315.473-67.22 4.052-107.782 10.67 1.755 144.972 1.755 236.263 0 273.873z" fill="#E7E6E5"/><path fill-rule="evenodd" clip-rule="evenodd" d="M60.568 79.555l21.395-2.633.067 32.276-21.462.878V79.555z" fill="#CBCCCD"/><path fill-rule="evenodd" clip-rule="evenodd" d="M97.013 75.639l21.395-2.769.067 34.167-21.462.945V75.639z" fill="#F8E49C"/><path fill-rule="evenodd" clip-rule="evenodd" d="M60.635 126.551l21.395-.742.067 33.154-21.462.135v-32.547zm36.378-1.013l21.462-.877v34.166l-21.394-.067-.068-33.222zM61.65 257.411l21.53 1.621-.472-35.315-21.462-1.08.404 34.774z" fill="#CBCCCD"/><path fill-rule="evenodd" clip-rule="evenodd" d="M98.162 258.357l21.462.607-.405-34.166-21.462-.405.405 33.964z" fill="#fff"/><path fill-rule="evenodd" clip-rule="evenodd" d="M61.04 206.161l21.462.946-.405-33.154-21.462-.338.405 32.546z" fill="#F8E49C"/><path fill-rule="evenodd" clip-rule="evenodd" d="M97.55 207.512l21.394 1.08-.405-34.167-21.462-.135.472 33.222z" fill="#CBCCCD"/><path fill-rule="evenodd" clip-rule="evenodd" d="M60.773 273.279l21.394.946.068 33.154-21.462-1.554v-32.546zm36.377 1.756l21.463.743.067 34.234-21.462-1.756-.067-33.221z" fill="#fff"/><path fill-rule="evenodd" clip-rule="evenodd" d="M210.803 332.902h-62.834c-2.092-125.39-2.835-220.26-2.092-284.543 26.119 3.174 47.783 8.913 64.926 17.354v267.189z" fill="#B1B1B1"/><path fill-rule="evenodd" clip-rule="evenodd" d="M282.814 317.642c-41.237.54-74.78.54-100.561-.067.675-141.327.945-233.226.81-275.833 32.733-5.807 64.453-10.06 95.229-12.762 2.97 192.442 4.522 288.662 4.522 288.662z" fill="#E7E6E5"/><path fill-rule="evenodd" clip-rule="evenodd" d="M325.873 39.176c-.54 90.684 4.995 278.804 4.995 278.804s-9.044-.135-48.121-.338c-2.295-147.336-3.847-243.556-4.522-288.662 20.517 5.807 36.377 9.183 47.648 10.196z" fill="#CBCCCD"/><path fill-rule="evenodd" clip-rule="evenodd" d="M199.127 62.134l21.462-2.97V89.48l-21.462 1.418V62.134zm36.445-4.592l21.462-3.173V86.51l-21.462 1.418V57.542zm-36.445 48.752l21.462-1.215v31.196l-21.462.675v-30.656z" fill="#B1B1B1"/><path fill-rule="evenodd" clip-rule="evenodd" d="M235.572 104.471l21.462-1.35v32.141l-21.462.473v-31.264z" fill="#F8E49C"/><path fill-rule="evenodd" clip-rule="evenodd" d="M200.071 229.457l21.462.945-.338-33.221-21.462-.473.338 32.749z" fill="#fff"/><path fill-rule="evenodd" clip-rule="evenodd" d="M236.583 229.389h21.462l-.405-32.141-21.462.203.405 31.938z" fill="#B1B1B1"/><path fill-rule="evenodd" clip-rule="evenodd" d="M199.532 181.245l21.462.27-.405-31.128-21.462.203.405 30.655z" fill="#F8E49C"/><path fill-rule="evenodd" clip-rule="evenodd" d="M235.977 181.515l21.462.473-.405-32.074-21.462.405.405 31.196z" fill="#B1B1B1"/><path fill-rule="evenodd" clip-rule="evenodd" d="M199.127 244.312l21.462.338v31.195l-21.462-.877v-30.656z" fill="#fff"/><path fill-rule="evenodd" clip-rule="evenodd" d="M235.572 245.055l21.462.202v32.141l-21.462-1.08v-31.263zm124.923 78.394l76.736.203c.338-68.941.878-147.673 1.755-236.129-24.634-.81-51.225.068-79.639 2.498.878 54.087 1.282 131.873 1.148 233.428z" fill="#B1B1B1"/><path fill-rule="evenodd" clip-rule="evenodd" d="M497.161 323.652h-59.932s.607-78.732 1.755-236.129c20.584 1.418 40.562 4.12 59.864 8.17-.338 114.25-.877 190.213-1.687 227.959z" fill="#CBCCCD"/><path fill-rule="evenodd" clip-rule="evenodd" d="M372.647 112.912l52.238-1.216-.135 23.566-52.238 1.283.135-23.633zm-.271 41.392l52.238-1.216-.203 23.566-52.237 1.215.202-23.565zm-.339 41.324l52.238-1.216-.135 23.633-52.238 1.216.135-23.633zm-.274 41.392L424 235.804l-.202 23.633-52.238 1.216.203-23.633zm-.335 41.391l52.237-1.215-.135 23.633-52.305 1.215.203-23.633z" fill="#fff"/><path fill-rule="evenodd" clip-rule="evenodd" d="M471.179 111.696l-16.13-2.633-.202 26.874 16.13 1.216.202-25.457zm-.267 39.096l-16.13-1.08-.27 27.617 16.198.608.202-27.145zm-1.557 108.983l-16.197.878.54-29.373 16.13-.473-.473 28.968z" fill="#B1B1B1"/><path fill-rule="evenodd" clip-rule="evenodd" d="M470.099 217.1l-16.13.27.472-27.549 16.13.202-.472 27.077zm-.136 55.91l-16.13.27-.203 27.617 16.131-.811.202-27.076z" fill="#F8E49C"/><path fill-rule="evenodd" clip-rule="evenodd" d="M323.51 321.221c64.521 1.283 98.266 1.958 101.168 2.026 1.215-56.112 2.632-160.166 4.117-312.16-40.292-.81-75.387-1.486-105.285-2.094v312.228z" fill="#E7E6E5"/><path fill-rule="evenodd" clip-rule="evenodd" d="M360.699 52.816l29.156.27v27.55l-29.156-.203V52.816z" fill="#F8E49C"/><path fill-rule="evenodd" clip-rule="evenodd" d="M360.699 101.163l29.156.27v27.617l-29.156-.27v-27.617zm0 48.346l29.156.27v27.617l-29.156-.27v-27.617z" fill="#B1B1B1"/><path fill-rule="evenodd" clip-rule="evenodd" d="M360.699 197.924l29.156.202v27.617l-29.156-.27v-27.549zm0 48.346l29.156.27v27.55l-29.156-.203V246.27z" fill="#fff"/><path fill-rule="evenodd" clip-rule="evenodd" d="M212.963 294.414c-1.215.54-2.97 2.228-4.792 3.782-1.89 1.553-3.847 2.971-4.792 3.646-1.012.675-1.012.675-1.079 4.456-.068 3.782-.27 11.277.134 15.733.405 4.457 1.418 5.942 2.093 7.09.675 1.216 1.012 2.161 1.282 2.634.27.472.337.472 1.62.54 1.282.067 3.712.135 4.994.202 1.282.068 1.485.068 1.62 0 .135 0 .202-.067.54-1.08.337-1.013.945-2.971 1.35-6.55.405-3.579.607-8.71.472-13.91-.135-5.266-.54-10.601-1.08-13.572-.54-2.971-1.215-3.579-2.362-2.971z" fill="#403E32"/><path fill-rule="evenodd" clip-rule="evenodd" d="M214.449 303.665c.675 0 1.215 5.537 1.215 12.221 0 6.753-.54 12.155-1.215 12.155s-1.215-5.537-1.215-12.222c0-6.752.54-12.154 1.215-12.154z" fill="#737160"/><path fill-rule="evenodd" clip-rule="evenodd" d="M208.911 168.956a17.878 17.878 0 001.957-1.891l.405-.405 2.565 3.984a5948.69 5948.69 0 0110.123 15.8l2.565 3.984-.135 15.868c-.135 15.868-.473 47.672-.607 63.607l-.135 15.868-2.43 3.444c-2.43 3.444-7.289 10.398-9.719 13.842l-2.429 3.444s-.068 0-.405-.338c-.338-.337-1.013-.945-1.553-1.553-.54-.675-1.012-1.35-1.349-23.7-.338-22.418-.675-66.578-.473-88.794.203-22.215.877-22.552 1.62-23.16z" fill="#4AAB3C"/><path fill-rule="evenodd" clip-rule="evenodd" d="M125.021 296.102c-7.694-8.508-23.216-23.633-30.978-31.128l-7.829-7.495-.135-12.965c-.135-12.964-.405-38.825-.54-52.33-.135-13.505-.135-14.72-.202-15.26v-.608l.337-.068c.338-.067 1.08-.135 22.07-1.755 20.989-1.621 62.226-4.727 82.878-6.28l20.652-1.553-.067 23.296c-.068 23.295-.135 69.954-.203 93.249l-.067 23.296-13.161.337c-13.161.338-39.414 1.013-52.44.406-12.891-.608-12.688-2.566-20.315-11.142z" fill="#5DC94C"/><path fill-rule="evenodd" clip-rule="evenodd" d="M216.203 299.208a4.73 4.73 0 01-.472.608l-.068.135v.27c0 .27.068.81.135 1.351.068.54.068 1.012.135 1.283v.27l1.08.067c1.08.068 3.239.135 4.387.135l1.08.068v-5.74l-.81-.067c-.81-.068-2.497-.135-3.307-.203l-.81-.067-.135.202c-.135.203-.473.675-.675.946-.27.405-.405.54-.54.742z" fill="#080902"/><path fill-rule="evenodd" clip-rule="evenodd" d="M57.529 286.311c.405-1.688 1.282-4.389 3.24-9.183 1.956-4.794 4.994-11.681 7.828-18.569 2.835-6.82 5.467-13.639 7.492-18.366 2.024-4.727 3.509-7.36 4.656-8.981 1.148-1.62 2.025-2.295 3.577-2.971 1.553-.675 3.847-1.418 16.198-2.093s34.893-1.283 52.508-1.485c17.615-.203 30.235-.068 37.052.337 6.817.338 7.761.878 8.234 1.553.472.676.472 1.418.472 1.756 0 .405 0 .405-.54.608-.54.27-1.687.81-2.362 1.215s-.877.743-.945.878c-.067.135-.067.135-.337 4.929-.203 4.794-.675 14.382-2.295 23.633-1.687 9.251-4.522 18.164-6.749 23.768-2.227 5.605-3.779 7.833-4.657 9.116-.877 1.283-.945 1.621-1.417 1.756-.472.202-1.282.202-1.822.202s-.878 0-1.148-.135a1.627 1.627 0 01-.675-.675c-.134-.27-.134-.54-.134-.675s0-.203 1.214-2.566c1.215-2.364 3.577-6.955 5.467-10.736 1.89-3.782 3.375-6.82 4.454-10.196 1.148-3.377 1.958-7.023 2.633-11.952.742-4.929 1.349-11.209 1.619-15.53.27-4.322.135-6.753.068-7.968l-.068-1.216-4.319-.202c-4.319-.203-12.891-.675-26.524-.81-13.7-.135-32.463.067-46.366.472-13.97.405-23.081 1.013-27.806 1.351-4.724.337-5.062.405-5.264.337-.203-.067-.27-.27-.338-.405-.067-.135-.067-.135-1.822 4.052a1237.87 1237.87 0 00-8.099 19.109c-2.7 6.482-4.454 11.073-6.074 15.598-1.687 4.524-3.24 8.98-4.184 12.019-.945 3.038-1.35 4.659-1.688 5.402-.337.742-.674.607-.944.405-.203-.203-.338-.473-.473-.946-.067-.54-.067-1.215.338-2.836z" fill="#47A639"/><path fill-rule="evenodd" clip-rule="evenodd" d="M134.672 230.335c-1.553 0-3.78.067-6.075.135-2.294.067-4.724.135-6.884.202-2.159.068-3.982.135-6.276.203-2.295.067-4.995.202-7.357.337s-4.319.203-6.479.338c-2.092.135-4.32.27-6.411.405-2.093.135-3.982.27-5.872.473-1.89.135-3.712.337-5.13.473-1.417.135-2.429.337-2.969.405l-.54.067-.202.473c-.203.472-.675 1.418-1.553 3.376-.877 1.958-2.16 5.064-3.51 8.17-1.349 3.106-2.631 6.28-3.779 8.913-1.08 2.634-1.957 4.727-2.7 6.685-.742 1.958-1.484 3.646-2.091 5.335-.608 1.62-1.215 3.173-1.485 3.916l-.27.743 11.27.405c11.272.405 33.746 1.148 52.373 1.553 18.628.405 33.341.54 42.115.608 8.773.067 11.675 0 13.093 0h1.417l.27-.676c.27-.675.742-2.025 1.282-3.511.473-1.485.945-3.241 1.35-4.727.338-1.553.607-2.836.877-4.321.27-1.486.473-3.039.675-4.659.203-1.621.405-3.309.608-5.334.202-2.026.405-4.322.607-6.483.203-2.16.27-4.186.338-5.874.067-1.688.067-3.106.135-4.052v-1.823l-.878-.067-4.387-.338c-1.754-.135-3.577-.27-6.074-.405-2.429-.135-5.602-.338-8.166-.405-2.565-.135-4.59-.203-7.694-.27a530.333 530.333 0 00-10.596-.135h-8.234c-2.497 0-4.927.067-6.614.067-1.755-.27-2.632-.27-4.184-.202z" fill="#211F17"/><path fill-rule="evenodd" clip-rule="evenodd" d="M79.465 240.395c-1.687 3.782-4.725 10.467-6.614 15.126-1.957 4.659-2.767 7.292-2.97 8.845-.202 1.553.203 2.093.743 2.431.472.338 1.012.473 5.804.743s13.835.675 29.628 1.148c15.793.405 38.267.878 51.698 1.08 13.43.203 17.817.135 20.18.068 2.362-.135 2.767-.271 3.307-.811.607-.472 1.349-1.283 2.159-2.701.81-1.35 1.62-3.308 2.43-6.617s1.62-8.035 2.16-12.424c.54-4.389.809-8.373.877-10.601.067-2.161-.068-2.566-.202-2.769-.135-.202-.203-.202-1.215-.405-1.013-.135-2.902-.405-9.044-.675s-16.535-.608-29.561-.608-28.751.405-40.022.743c-11.27.405-18.222.81-21.867 1.013-3.644.202-3.982.202-4.32.337-.27.135-.472.338-.742.878-.337.54-.742 1.418-2.43 5.199z" fill="#F9F9F9"/><path fill-rule="evenodd" clip-rule="evenodd" d="M59.624 289.283c.877 1.215 2.902 3.241 4.252 4.659 1.417 1.418 2.16 2.363 2.565 2.971.404.607.404.877.54 1.148.135.27.337.54 7.491 1.35s21.327 2.026 37.39 2.633c16.062.608 34.082.541 43.734.203 9.651-.338 10.933-.878 12.35-1.823 1.418-.945 2.97-2.228 4.32-3.511a39.527 39.527 0 002.834-3.174c.54-.675.473-.81.54-.945.068-.203.135-.405 1.013-2.161.877-1.756 2.564-4.997 3.712-7.293 1.147-2.295 1.822-3.578 2.429-4.794a122.429 122.429 0 001.553-3.173c.404-.878.674-1.418.809-1.756l.135-.27h-12.013c-2.43 0-4.724 0-7.086-.068-2.43 0-4.995-.067-7.087-.067-2.16 0-3.847-.068-6.681-.068-2.835-.067-6.885-.067-10.664-.135-3.847-.067-7.491-.135-10.866-.202-3.374-.068-6.547-.135-9.786-.27-3.307-.068-6.749-.203-10.596-.27-3.847-.135-8.099-.27-12.013-.338-3.915-.135-7.424-.203-12.014-.405-4.59-.135-10.123-.338-13.903-.473-3.712-.135-5.601-.202-6.546-.202h-.945l-.473 1.35c-.472 1.351-1.484 4.051-2.16 6.01-.674 1.958-1.147 3.241-1.552 4.524-.472 1.35-.877 2.768-1.282 3.781-.472 1.013-.877 1.553 0 2.769z" fill="#4AAB3C"/><path fill-rule="evenodd" clip-rule="evenodd" d="M73.66 274.09c.135-.541.27-.811.404-1.013.068-.203.203-.338.27-.27.068.067.135.337-.135 2.971-.27 2.633-.877 7.63-1.147 10.803-.27 3.174-.27 4.524-.202 5.335.067.81.202 1.013 1.08 1.283.877.27 2.43.675 13.633 1.485s31.99 1.958 44.138 2.566c12.149.54 15.658.54 17.548.338 1.89-.203 2.16-.541 4.049-2.971 1.823-2.431 5.265-6.955 8.167-10.399 2.902-3.444 5.264-5.739 6.546-6.887 1.283-1.148 1.418-1.081 1.35-.878-.067.27-.472.675-1.957 2.566-1.485 1.89-4.117 5.132-6.614 8.643-2.497 3.443-4.859 7.09-6.209 9.115-1.35 2.026-1.755 2.364-2.497 2.634-.675.27-1.688.54-4.657.607-2.97.068-7.829 0-18.898-.54-11.068-.54-28.211-1.553-38.064-2.16-9.854-.608-12.419-.946-14.443-1.148-2.025-.203-3.51-.406-4.32-1.081-.81-.675-.877-1.89-.877-3.173-.068-1.283-.068-2.634.337-5.267.405-2.634 1.148-6.617 1.688-8.913.472-2.431.675-3.174.81-3.646z" fill="#47A639"/><path fill-rule="evenodd" clip-rule="evenodd" d="M193.927 246.135c.27-2.769.405-5.267.54-7.022.135-1.756.135-2.836.202-3.782.068-.878.068-1.688.135-2.296 0-.607.068-1.147.068-1.485 0-.338.067-.473.067-.54v-.068l.068-.067.202-.203.27-.27c.135-.068.27-.203.608-.405.27-.135.675-.405 1.012-.54.337-.203.607-.27.877-.405s.54-.271.675-.406.203-.27.203-.337c0-.068 0-.068.337 1.553.27 1.62.878 4.929 1.687 13.032.743 8.103 1.688 21 2.498 36.395.742 15.395 1.349 33.289 1.619 42.202.27 8.913.27 8.913-.405 10.331-.674 1.418-2.024 4.186-3.307 6.347-1.282 2.161-2.564 3.646-4.116 4.524-1.553.81-3.443.946-4.117-2.431-.675-3.376-.203-10.196-.068-14.044.068-3.849-.202-4.727-.607-5.402-.405-.676-.878-1.013-3.847-3.444-2.902-2.431-8.234-6.82-10.934-9.183-2.699-2.363-2.767-2.701-2.159-4.187.607-1.485 1.957-4.254 2.902-6.212.945-1.958 1.484-3.241 1.957-4.186.472-.946.877-1.553 1.417-2.499a46.686 46.686 0 001.89-3.443c.675-1.351 1.35-2.904 2.092-4.727a80.28 80.28 0 002.025-5.537c.607-1.688 1.012-3.038 1.485-4.794.472-1.756 1.079-3.849 1.619-6.145.54-2.228 1.08-4.659 1.418-6.617.405-1.958.607-3.511.877-5.739.27-2.229.54-5.2.81-7.968z" fill="#4AAB3C"/><path fill-rule="evenodd" clip-rule="evenodd" d="M195.951 235.601a187.49 187.49 0 01-.81 13.167c-.608 6.348-1.687 14.653-2.497 20.055-.81 5.469-1.283 8.103-1.418 9.588-.135 1.486-.067 1.891 0 2.431.068.54.068 1.35.135 1.688.068.405.203.405 1.89-1.08 1.687-1.418 4.859-4.322 6.479-5.942 1.687-1.621 1.89-2.026 1.957-2.364.068-.337.068-.675-.27-6.009-.337-5.267-1.012-15.531-1.619-22.418-.608-6.887-1.08-10.331-1.283-12.087-.202-1.755-.202-1.755-.607-1.553-.338.203-1.08.54-1.417.743-.405.27-.405.405-.473.608-.067.202 0 .81-.067 3.173z" fill="#211F17"/><path fill-rule="evenodd" clip-rule="evenodd" d="M193.455 296.17v1.688c.067.608.067 1.08.202 1.418.135.337.338.54.742.675.473.135 1.215.203 1.755.203.54 0 .945.067 1.148-.068.27-.135.337-.338.404-1.08 0-.743 0-2.026-.067-2.701-.067-.675-.135-.811-.675-.946-.54-.135-1.62-.27-2.227-.27-.608 0-.877.135-1.012.203a.925.925 0 00-.27.202v.676z" fill="#FDE742"/><path fill-rule="evenodd" clip-rule="evenodd" d="M197.034 249.444c.135 5.469.27 14.99.405 19.987.068 4.929.068 5.334.135 5.536 0 .203.068.203.203.135.135-.067.337-.202.81-.54.472-.337 1.282-.878 1.687-1.283.405-.405.472-.81.472-1.08 0-.338-.067-.675-.337-5.604-.27-4.93-.81-14.518-1.282-20.663-.473-6.144-.81-8.845-.945-10.466-.203-1.62-.203-2.093-.338-2.296-.067-.27-.27-.27-.405-.202a.95.95 0 00-.405.473c-.067.202-.135.472-.135 1.755v5.537c0 1.823.068 3.241.135 8.711z" fill="#F9F9F9"/><path fill-rule="evenodd" clip-rule="evenodd" d="M201.216 272.739c0 1.351 0 2.836-.068 3.579-.067.743-.135.743-.202.743h-1.08c-.81 0-2.295-.068-3.307-.068h-1.89c-.27-.067-.337-.135-.337-.337-.068-.203-.135-.406-.27-.541-.135-.067-.27-.067-.405.135-.135.203-.27.541-.405 1.013-.135.541-.135 1.216-.203 1.958 0 .743.068 1.486.135 2.094.135.54.338.878.473.945.202.068.337-.067.472-.405.135-.338.27-.878.27-1.216 0-.337 0-.472 1.147-.472 1.148 0 3.51.135 4.657.202 1.215.068 1.215 0 1.215 0s.068.068.068.541c0 .472-.068 1.283 0 1.755.067.473.202.675.877.743.675.135 1.822.135 3.577.067 1.755-.135 4.184-.405 5.804-.675 1.552-.27 2.295-.607 2.835-1.013.472-.337.742-.742.877-1.148.135-.405.27-.81.338-3.511.135-2.701.27-7.562.337-10.398.068-2.769 0-3.376-.27-3.984-.337-.54-.877-1.081-1.89-1.418-1.012-.338-2.564-.54-4.454-.608-1.89-.067-4.184-.067-5.602.068-1.417.135-1.889.337-2.227.945-.337.675-.54 1.688-.675 2.431-.067.743-.067 1.08-.067 1.215 0 .203-.068.203-1.013.135-.945-.135-2.767-.337-3.712-.472l-.944-.135-.068-.338c-.067-.338-.27-.945-.472-1.215-.203-.271-.405-.136-.608.135-.202.27-.337.675-.472 1.283-.068.607-.135 1.35-.068 2.025.068.675.27 1.283.473 1.553.202.27.472.27.607.135s.135-.202.203-.27c.067-.067.27-.067 1.282 0 1.08.135 3.037.338 3.982.405l1.012.135v.608c.068.81.068 2.026.068 3.376zm-144.426.068c.135 2.295.405 3.106.742 3.646.338.608.743 1.013 1.215 1.283.473.27 1.013.405 1.283.54l.27.068.54-1.351c.54-1.35 1.687-4.051 2.7-6.482a298.885 298.885 0 002.294-5.47l.472-1.012h-.81c-.202 0-.27 0-.27-.068 0-.135 0-.338-.067-1.08 0-.743-.068-2.026-.27-2.836-.203-.743-.54-.946-1.62-.878-1.08.067-3.037.473-4.252.81-1.215.338-1.754.675-2.024 1.081-.27.405-.27.81-.27 1.148v2.498c0 2.093 0 5.874.067 8.103z" fill="#211F17"/><path fill-rule="evenodd" clip-rule="evenodd" d="M59.219 343.166c1.012.743 2.362 1.35 6.142 2.093 3.712.743 9.786 1.621 27.603 3.376 17.75 1.756 47.244 4.457 64.589 5.672 17.345 1.283 22.542 1.148 25.174.473 2.632-.743 2.699-2.026 3.982-3.376 1.349-1.351 3.914-2.769 5.804-4.254 1.957-1.486 3.239-2.971 3.239-4.119-.067-1.148-1.417-1.958-2.092-5.402s-.607-9.521-.675-12.762c-.135-3.241-.405-3.646-.607-3.849-.135-.202-.135-.202-.27-.337s-.405-.473-.877-.878c-.405-.405-1.013-.945-2.228-1.891-1.147-.945-2.902-2.431-4.657-3.849a1113.522 1113.522 0 01-4.926-4.186 188.564 188.564 0 01-3.172-2.768c-.675-.608-1.013-.811-2.16-1.351-1.147-.608-3.172-1.485-4.994-2.228-1.89-.743-3.577-1.216-4.455-1.486-.877-.27-.877-.27-1.687-.202-.81.067-2.43.202-4.589.27-2.16.135-4.725.202-7.357.27-2.564.067-5.129.067-8.436.135h-11.474c-4.184-.068-8.436-.135-13.093-.27a871.47 871.47 0 01-13.97-.54c-4.387-.203-8.167-.473-12.149-.743-3.981-.27-8.03-.608-11.743-1.013a247.072 247.072 0 01-9.111-1.013c-2.16-.337-3.172-.607-3.982-.743-.877-.135-1.552-.202-3.442-.607-1.957-.405-5.13-1.081-6.75-1.418-1.619-.338-1.754-.405-1.754-.405-.067 0-.067 0-.202 1.688a189.35 189.35 0 00-.54 9.521c-.135 4.389-.068 9.655.067 14.652.135 4.929.405 9.588.81 12.694.405 3.107 1.012 4.727 1.62 6.01.675 1.215 1.35 2.093 2.362 2.836z" fill="#4F4D3E"/><path fill-rule="evenodd" clip-rule="evenodd" d="M77.71 340.06c1.08 2.768 1.485 3.106 2.835 3.579 1.35.472 3.712 1.013 13.363 1.89 9.651.878 26.658 2.026 35.432 2.566 8.774.54 9.246.54 9.719 0 .472-.54.877-1.62 2.16-4.726 1.214-3.174 3.239-8.373 4.454-11.547 1.282-3.106 1.755-4.119 2.565-5.064.809-.945 1.957-1.823 3.914-2.363 1.957-.473 4.724-.608 8.639-.878 3.914-.27 8.976-.675 12.553-1.081 3.577-.472 5.737-.945 6.884-1.35 1.215-.405 1.417-.608 1.485-.945.067-.338-.135-.811-.338-1.283-.202-.405-.472-.811-.877-.946-.405-.135-.945-.067-5.332.473-4.319.608-12.485 1.688-17.48 2.296-4.994.608-6.884.743-8.706 1.553-1.822.81-3.577 2.363-5.669 6.212-2.092 3.916-4.455 10.128-5.669 13.437-1.215 3.309-1.283 3.579-1.485 3.849-.203.202-.473.405-4.86.135a780.806 780.806 0 01-21.867-1.688c-8.841-.81-17.885-1.688-22.541-2.161-4.657-.473-4.86-.54-5.062-.81-.203-.338-.473-.878-1.417-3.781-.945-2.904-2.7-8.171-3.645-11.074-.945-2.904-1.08-3.376-1.485-4.119-.405-.743-1.08-1.688-2.024-2.634-.945-.945-2.228-1.89-4.522-2.971-2.295-1.012-5.602-2.16-8.234-3.106-2.632-.945-4.455-1.62-5.4-1.958-.944-.337-.944-.337-.944.068v1.755c0 .473 0 .473.675.811.675.337 2.024 1.012 4.117 1.688 2.092.675 4.926 1.418 6.816 2.025 1.89.608 2.767 1.081 3.51 1.621.742.608 1.282 1.283 1.89 2.566.54 1.283 1.147 3.241 2.294 6.752 1.417 3.376 3.172 8.508 4.252 11.209z" fill="#403E32"/><path fill-rule="evenodd" clip-rule="evenodd" d="M101.334 305.286c-1.822-.068-4.049-.203-7.288-.473-3.308-.203-7.627-.54-10.867-.743-3.239-.27-5.331-.473-6.816-.608-1.485-.135-2.362-.27-2.902-.27-.54-.067-.675-.067-.742-.067-.068 0-.068 0 .337 2.363s1.215 7.09 2.362 11.884c1.08 4.794 2.497 9.588 3.442 12.56.945 2.971 1.35 4.118 1.755 5.131.405.946.675 1.756.877 2.229.203.472.27.675.338.742.067.135.135.203.135.27.067.068.067.135.135.135.067.068.135.068.202.135.068 0 .135.068.203.068.067 0 .202.068.607.068.338.067.945.135 1.687.202.743.068 1.755.203 2.767.27 1.08.068 2.228.203 3.847.338 1.62.135 3.78.337 6.075.54 2.294.203 4.791.405 6.951.608 2.16.202 3.982.337 5.939.472 2.025.135 4.185.338 6.074.473 1.89.135 3.442.27 5.602.405s4.859.338 6.952.473c2.092.135 3.509.202 4.386.27.878.067 1.148.067 1.35.067h.675c.203 0 .473 0 .608-.067.135 0 .202 0 .202-.068.068 0 .068-.067.135-.067.068-.068.068-.068.135-.203.068-.135.135-.27.338-.742.202-.473.539-1.216 1.754-4.592 1.215-3.376 3.24-9.251 4.86-13.977a475.016 475.016 0 003.577-10.804c.877-2.566 1.349-4.254 1.619-5.064l.27-.811h-5.061c-2.363 0-5.737 0-9.719-.067-3.982-.068-8.639-.135-13.498-.27a940.079 940.079 0 01-12.958-.473c-3.172-.202-4.59-.27-6.345-.337z" fill="#403E32"/><path fill-rule="evenodd" clip-rule="evenodd" d="M62.928 327.838c2.16.068 3.847 1.891 3.847 3.984s-1.755 3.714-3.847 3.646c-2.16-.067-3.847-1.89-3.847-3.984 0-2.093 1.755-3.713 3.847-3.646zm101.574 9.251c2.16.067 3.847 1.891 3.847 3.984s-1.755 3.714-3.847 3.646c-2.159-.068-3.847-1.891-3.847-3.984 0-2.026 1.755-3.714 3.847-3.646z" fill="#fff"/><path fill-rule="evenodd" clip-rule="evenodd" d="M54.898 303.935c.338.608 1.08 1.35 2.7 2.228 1.62.878 4.05 1.891 6.21 2.769 2.159.877 3.914 1.62 5.061 2.025 1.147.405 1.755.473 1.957.203.27-.27.203-.81-.27-3.106-.472-2.296-1.282-6.415-2.497-9.791-1.215-3.309-2.902-5.875-4.454-7.63-1.552-1.756-2.902-2.769-3.915-3.241-1.012-.473-1.754-.473-2.092-.473-.337 0-.337 0-.607.473-.27.472-.81 1.35-1.283 2.565-.472 1.216-.81 2.769-.944 4.862-.203 2.093-.203 4.727-.203 6.28.068 1.688 0 2.228.337 2.836zm125.333-1.486a37.885 37.885 0 01-.539 3.849c-.203 1.081-.473 2.161-.81 2.904-.27.743-.54 1.215-1.283 1.755-.675.541-1.822 1.216-4.252 1.959-2.429.742-6.141 1.62-9.853 2.16-3.712.54-7.424.743-9.516.878-2.025.068-2.43 0-2.633-.202-.202-.203-.337-.541.675-3.174 1.013-2.701 3.105-7.765 5.13-10.871 2.024-3.174 3.982-4.389 6.749-5.672 2.767-1.283 6.411-2.634 8.841-3.309 2.43-.743 3.779-.81 4.927-.743 1.147.068 2.159.27 2.632 1.216.472.878.405 2.431.337 4.186-.067 1.621-.202 3.511-.405 5.064z" fill="#FDE742"/><path fill-rule="evenodd" clip-rule="evenodd" d="M70.354 346.069c-1.012-.135-2.16-.337-3.172-.472a43.691 43.691 0 00-2.294-.405c-.473-.068-.608-.135-.675-.135-.068 0-.068 0-.135 1.08-.068 1.08-.135 3.309.067 5.267.203 1.891.675 3.579 1.148 4.591.54 1.013 1.08 1.486 2.294 1.824 1.215.337 3.037.607 4.59.675 1.552.067 2.767-.135 3.51-.608.742-.473 1.011-1.215 1.214-2.363.202-1.148.337-2.634.405-4.119.067-1.486 0-2.904 0-3.646 0-.743 0-.743-.27-.743s-.81-.068-1.552-.203a44.688 44.688 0 01-2.565-.337c-.877-.135-1.62-.203-2.565-.406z" fill="#403E32"/><path fill-rule="evenodd" clip-rule="evenodd" d="M197.302 339.52c.203-3.174.608-9.521.473-14.248-.135-4.794-.743-7.968-1.35-9.453-.675-1.486-1.282-1.351-1.89-.81-.607.54-1.08 1.35-1.89 3.849-.809 2.498-1.822 6.684-2.362 8.845-.472 2.161-.472 2.431-.202 3.714.202 1.283.675 3.646.945 5.537.337 1.89.607 3.241.877 4.389.338 1.215.675 2.228.945 2.836.27.607.472.878.675.607.202-.27.472-1.08.54-1.485.135-.405.135-.405.202-.338.068.068.27.203.608.203.337.067.81.067 1.147-.068.337-.067.607-.27.742-.337.338-.068.338-.068.54-3.241z" fill="#36342B"/><path fill-rule="evenodd" clip-rule="evenodd" d="M191.431 325.475c.337.945 1.012 2.903 1.484 6.55.473 3.646.675 8.913.743 14.517.067 5.605-.068 11.479-.338 15.666-.27 4.186-.607 6.617-1.282 7.967-.675 1.351-1.687 1.486-3.374 1.621-1.755.067-4.185.067-5.67-.068-1.552-.202-2.092-.54-2.429-1.08-.338-.54-.405-1.148-.473-3.714-.135-2.566-.27-7.022-.337-9.25-.068-2.229-.068-2.229.472-2.296.54-.068 1.552-.203 2.295-.405.742-.135 1.215-.338 1.485-.743.337-.405.54-1.148 1.349-4.389.878-3.241 2.43-8.981 3.24-12.762.877-3.781 1.012-5.469 1.282-7.225.27-1.756.743-3.376 1.013-4.254.135-1.08.135-1.08.54-.135zm203.962-22.418c-1.35.608-3.307 2.498-5.4 4.254-2.092 1.756-4.319 3.309-5.399 4.119-1.08.81-1.08.81-1.215 4.997-.135 4.254-.337 12.694.135 17.691.473 5.064 1.553 6.617 2.295 7.968.742 1.35 1.147 2.43 1.417 2.971.27.54.405.54 1.822.607 1.418.068 4.185.135 5.67.203 1.484.067 1.687.067 1.822.067s.202-.067.607-1.215c.405-1.148 1.08-3.376 1.553-7.36.472-3.984.675-9.791.54-15.665-.135-5.875-.608-11.885-1.215-15.261-.54-3.308-1.283-3.984-2.632-3.376z" fill="#403E32"/><path d="M397.149 340.938c.745 0 1.349-6.137 1.349-13.708 0-7.57-.604-13.707-1.349-13.707-.746 0-1.35 6.137-1.35 13.707 0 7.571.604 13.708 1.35 13.708z" fill="#737160"/><path fill-rule="evenodd" clip-rule="evenodd" d="M390.937 162.069c.878-.676 1.755-1.621 2.228-2.094l.472-.472 2.835 4.456c2.834 4.457 8.571 13.37 11.406 17.826l2.834 4.457-.202 17.894c-.203 17.893-.54 53.613-.675 71.507l-.203 17.893-2.699 3.917c-2.7 3.916-8.234 11.546-10.934 15.463-2.699 3.916-2.699 3.916-2.767 3.916 0 0-.067 0-.472-.338-.405-.337-1.148-1.08-1.755-1.755-.608-.743-1.08-1.486-1.485-26.672s-.742-74.816-.472-99.799c.27-25.119 1.012-25.524 1.889-26.199z" fill="#4AAB3C"/><path fill-rule="evenodd" clip-rule="evenodd" d="M296.514 305.015c-8.639-9.588-26.119-26.536-34.826-34.977l-8.773-8.44-.135-14.518c-.135-14.517-.473-43.62-.675-58.812-.135-15.193-.203-16.544-.203-17.219v-.675l.405-.068c.405-.067 1.215-.135 24.837-1.958 23.621-1.823 69.987-5.334 93.204-7.09l23.217-1.755-.068 26.199c-.067 26.199-.135 78.664-.202 104.863l-.067 26.199-14.781.406c-14.78.405-44.274 1.147-58.919.405-14.646-.676-14.376-2.971-23.014-12.56z" fill="#5DC94C"/><path fill-rule="evenodd" clip-rule="evenodd" d="M399.103 308.526c-.202.271-.404.541-.472.743l-.135.135v.338c0 .337.068.945.135 1.485.068.608.135 1.148.135 1.486v.27l1.215.067c1.215.068 3.644.136 4.927.203l1.215.068v-1.081c0-1.08 0-3.241-.068-4.321v-1.081l-.945-.067c-.945-.068-2.767-.135-3.712-.203l-.945-.067-.202.27c-.203.27-.54.743-.743 1.08-.135.203-.27.405-.405.675z" fill="#080902"/><path fill-rule="evenodd" clip-rule="evenodd" d="M220.657 293.941c.473-1.89 1.485-4.929 3.645-10.331 2.227-5.402 5.602-13.167 8.841-20.864 3.172-7.698 6.142-15.328 8.436-20.662 2.295-5.335 3.915-8.306 5.197-10.129 1.282-1.823 2.295-2.566 4.05-3.376 1.754-.81 4.319-1.621 18.222-2.363 13.903-.743 39.212-1.486 58.987-1.688 19.774-.271 34.015-.068 41.641.337 7.627.405 8.707 1.013 9.247 1.756.539.743.539 1.553.539 2.025 0 .406 0 .406-.607.743-.607.338-1.89.878-2.632 1.351-.742.472-.945.81-1.08 1.013-.135.202-.135.202-.337 5.536-.27 5.402-.743 16.138-2.632 26.537-1.89 10.399-5.13 20.46-7.627 26.739-2.497 6.28-4.252 8.846-5.197 10.264-.945 1.418-1.08 1.823-1.619 1.958-.54.203-1.418.203-2.093.203-.607 0-1.012 0-1.282-.136-.337-.135-.607-.472-.742-.742s-.135-.54-.135-.743c0-.203 0-.27 1.349-2.904 1.35-2.633 4.05-7.832 6.142-12.086 2.16-4.322 3.78-7.698 5.062-11.412 1.282-3.781 2.16-7.9 2.969-13.437.81-5.604 1.485-12.627 1.823-17.488.27-4.862.135-7.563.067-8.913l-.067-1.351-4.792-.27c-4.792-.27-14.443-.81-29.831-.945-15.388-.135-36.445.067-52.17.54-15.658.473-25.916 1.148-31.248 1.553-5.332.405-5.669.473-5.939.405-.203-.067-.338-.337-.338-.473-.067-.135-.067-.135-2.092 4.592-2.025 4.727-6.074 14.18-9.111 21.472-3.037 7.293-4.995 12.492-6.884 17.556-1.89 5.065-3.645 10.129-4.725 13.505-1.079 3.444-1.484 5.199-1.889 6.077-.405.811-.81.675-1.08.405s-.405-.54-.473-1.08c0-.54-.067-1.283.405-3.174z" fill="#47A639"/><path fill-rule="evenodd" clip-rule="evenodd" d="M307.385 231.01c-1.755 0-4.184.067-6.817.135-2.632.067-5.331.135-7.761.202-2.43.068-4.522.135-7.087.271a368.49 368.49 0 00-8.301.337c-2.632.135-4.927.27-7.289.405s-4.859.27-7.154.473c-2.295.135-4.522.338-6.614.54-2.092.203-4.184.338-5.804.54-1.62.203-2.767.338-3.307.405l-.608.068-.27.54c-.269.54-.742 1.553-1.754 3.781-1.013 2.229-2.497 5.672-3.982 9.184-1.485 3.511-2.97 7.022-4.252 9.993-1.215 2.971-2.227 5.334-3.037 7.495-.878 2.161-1.62 4.119-2.362 5.942-.675 1.823-1.35 3.579-1.688 4.389l-.337.878 12.621.405c12.62.405 37.929 1.283 58.851 1.756 20.922.472 37.525.607 47.379.675 9.921.068 13.093 0 14.713 0h1.619l.27-.743c.27-.743.878-2.228 1.418-3.916a78.597 78.597 0 001.485-5.334c.404-1.689.742-3.242 1.012-4.862.27-1.621.54-3.444.81-5.267.27-1.823.472-3.714.742-6.01.27-2.228.473-4.861.675-7.292.203-2.431.338-4.659.405-6.617.068-1.958.135-3.512.135-4.592v-2.093l-1.012-.068c-1.013-.067-2.97-.27-4.995-.405-2.024-.135-4.049-.337-6.816-.472-2.767-.203-6.277-.338-9.179-.473a292.907 292.907 0 00-8.639-.27 668.94 668.94 0 00-11.878-.135h-9.246c-2.767 0-5.534.067-7.492.067-1.687.068-2.699.068-4.454.068z" fill="#211F17"/><path fill-rule="evenodd" clip-rule="evenodd" d="M245.362 242.354c-1.89 4.254-5.332 11.816-7.491 17.016-2.16 5.266-3.105 8.17-3.375 9.925-.202 1.756.27 2.364.81 2.769.54.405 1.147.473 6.547.81 5.399.27 15.59.743 33.34 1.283 17.75.473 43.059 1.013 58.177 1.216 15.118.202 19.977.135 22.676.067 2.633-.135 3.105-.338 3.712-.878.675-.54 1.553-1.485 2.43-3.038.878-1.553 1.822-3.714 2.7-7.495.945-3.714 1.822-9.048 2.429-13.91.608-4.929.878-9.453.945-11.884.068-2.499-.067-2.836-.202-3.106-.135-.203-.203-.27-1.35-.405s-3.307-.473-10.191-.811c-6.884-.337-18.56-.675-33.205-.675-14.646 0-32.328.405-45.017.878-12.688.405-20.449.878-24.566 1.148-4.117.27-4.522.27-4.859.405-.338.135-.54.337-.878.945-.27.54-.742 1.486-2.632 5.74z" fill="#F9F9F9"/><path fill-rule="evenodd" clip-rule="evenodd" d="M223.021 297.385c.945 1.418 3.239 3.579 4.791 5.267 1.553 1.621 2.43 2.701 2.835 3.376.472.675.472.946.607 1.283.135.338.405.608 8.437 1.486 8.099.877 23.959 2.295 42.046 2.971 18.088.675 38.335.607 49.201.202 10.866-.337 12.283-1.013 13.903-2.093a32.79 32.79 0 004.792-3.916c1.485-1.418 2.632-2.836 3.172-3.579.54-.743.54-.878.607-1.08.068-.203.135-.473 1.148-2.431 1.012-1.958 2.834-5.672 4.184-8.238l2.7-5.402c.675-1.35 1.282-2.566 1.687-3.579.472-.945.742-1.62.877-1.958l.135-.337h-13.498c-2.767 0-5.264 0-8.031-.068-2.7 0-5.602-.068-8.032-.068-2.429 0-4.319-.067-7.491-.067-3.24-.068-7.694-.135-12.013-.203-4.32-.067-8.369-.135-12.216-.27-3.78-.067-7.357-.202-11.001-.27-3.712-.067-7.559-.202-11.946-.337-4.319-.135-9.111-.27-13.498-.406-4.387-.135-8.369-.27-13.498-.405a2363.58 2363.58 0 00-15.59-.54c-4.185-.135-6.277-.202-7.357-.27l-1.08-.068-.54 1.486c-.54 1.486-1.619 4.524-2.429 6.752a122.45 122.45 0 00-1.755 5.132 154.446 154.446 0 01-1.417 4.254c-.27 1.351-.675 1.958.27 3.376z" fill="#4AAB3C"/><path fill-rule="evenodd" clip-rule="evenodd" d="M238.812 280.234c.203-.54.338-.877.405-1.148.135-.202.203-.337.27-.27.068.068.135.406-.135 3.377-.27 2.971-.945 8.575-1.282 12.154-.338 3.578-.27 5.064-.203 5.942.068.878.203 1.148 1.215 1.485.945.338 2.767.743 15.321 1.621 12.553.878 35.972 2.228 49.605 2.836 13.633.675 17.615.608 19.707.337 2.16-.202 2.43-.607 4.522-3.308 2.092-2.769 5.939-7.833 9.179-11.682s5.939-6.482 7.356-7.765c1.418-1.283 1.62-1.215 1.485-.945-.135.27-.472.81-2.159 2.903-1.688 2.094-4.657 5.807-7.424 9.656-2.835 3.916-5.467 7.968-7.019 10.264-1.553 2.228-2.025 2.633-2.835 2.971-.81.337-1.89.607-5.264.675-3.307.067-8.842 0-21.192-.608-12.419-.608-31.721-1.688-42.789-2.431-11.069-.742-13.971-1.012-16.266-1.283-2.294-.27-3.982-.472-4.859-1.215-.877-.743-.945-2.161-1.012-3.579-.068-1.418-.068-2.971.337-5.942s1.283-7.427 1.89-10.061c.742-2.633 1.012-3.443 1.147-3.984z" fill="#47A639"/><path fill-rule="evenodd" clip-rule="evenodd" d="M374.061 248.836c.27-3.106.473-5.942.608-7.9.135-2.026.202-3.174.202-4.254.068-1.013.068-1.891.135-2.566.068-.743.068-1.283.135-1.688 0-.405.068-.54.068-.608v-.067l.067-.068a.925.925 0 00.203-.27l.27-.27c.135-.135.337-.27.674-.473.338-.202.743-.405 1.148-.607.337-.203.675-.338.945-.473.27-.135.607-.27.81-.473.202-.135.202-.337.27-.405 0-.067 0-.067.337 1.756.337 1.89 1.012 5.604 1.89 14.72.877 9.115 1.889 23.633 2.767 40.919.877 17.286 1.485 37.408 1.822 47.469.338 10.061.338 10.061-.405 11.614-.742 1.553-2.227 4.726-3.712 7.157-1.485 2.431-2.834 4.119-4.657 5.064-1.754.946-3.847 1.081-4.657-2.701-.742-3.781-.202-11.411-.134-15.8.134-4.321-.27-5.334-.675-6.077-.473-.743-1.013-1.148-4.32-3.849-3.307-2.701-9.246-7.63-12.283-10.331-3.037-2.701-3.105-3.038-2.43-4.727.675-1.688 2.16-4.726 3.24-6.954 1.08-2.229 1.687-3.647 2.227-4.727.54-1.08 1.012-1.756 1.62-2.769a59.203 59.203 0 002.092-3.848 87.47 87.47 0 002.362-5.335c.81-2.025 1.62-4.321 2.295-6.212.675-1.89 1.147-3.443 1.687-5.402.54-1.958 1.215-4.321 1.822-6.887.608-2.566 1.215-5.267 1.62-7.428.405-2.228.675-3.916 1.012-6.482.27-2.566.608-5.942.945-9.048z" fill="#4AAB3C"/><path fill-rule="evenodd" clip-rule="evenodd" d="M376.359 236.952a179.903 179.903 0 01-.945 14.855c-.675 7.157-1.89 16.476-2.835 22.553-.877 6.144-1.417 9.115-1.62 10.803-.202 1.689-.067 2.161 0 2.769.068.608.068 1.485.135 1.891.068.405.27.405 2.16-1.216 1.89-1.62 5.399-4.862 7.289-6.685 1.89-1.823 2.092-2.228 2.227-2.633.135-.405.135-.81-.27-6.752s-1.147-17.489-1.822-25.187c-.675-7.697-1.147-11.614-1.417-13.572-.27-1.958-.27-1.958-.675-1.755-.405.202-1.215.607-1.62.877-.405.271-.472.406-.54.676 0 .337 0 .742-.067 3.376z" fill="#211F17"/><path fill-rule="evenodd" clip-rule="evenodd" d="M373.453 305.083c0 .473 0 1.215.068 1.891.067.675.135 1.215.27 1.62s.337.608.877.743 1.35.202 1.957.202c.608 0 1.08.068 1.35-.067s.405-.405.405-1.216c.067-.81 0-2.228-.068-3.038-.067-.81-.135-.945-.809-1.08-.608-.136-1.823-.271-2.498-.271-.742 0-.944.135-1.147.203-.202.068-.202.135-.27.27-.067.135-.135.27-.135.743z" fill="#FDE742"/><path fill-rule="evenodd" clip-rule="evenodd" d="M377.572 252.55c.135 6.144.338 16.88.473 22.485.135 5.604.135 6.009.135 6.212.067.203.135.203.27.135.135-.067.337-.27.877-.608.54-.405 1.417-1.013 1.89-1.485.472-.473.54-.878.54-1.216 0-.337-.068-.742-.405-6.279-.338-5.537-.945-16.341-1.418-23.228-.472-6.888-.877-9.994-1.079-11.749-.203-1.756-.27-2.296-.338-2.566-.135-.27-.27-.27-.472-.203-.203.068-.338.27-.473.54-.067.271-.135.541-.135 2.026 0 1.486-.067 4.119 0 6.28-.067 1.958 0 3.511.135 9.656z" fill="#F9F9F9"/><path fill-rule="evenodd" clip-rule="evenodd" d="M382.229 278.749c0 1.485 0 3.173-.067 4.051-.068.878-.135.878-.27.878h-1.215c-.945 0-2.565-.067-3.712-.067h-2.092c-.338-.068-.338-.203-.405-.338-.068-.203-.135-.473-.27-.608s-.27-.067-.472.135c-.135.203-.338.54-.405 1.148-.135.608-.203 1.418-.203 2.228 0 .811.068 1.689.203 2.296.135.608.337.946.54 1.081.202.135.337-.068.54-.406a11 11 0 00.337-1.418c.067-.405 0-.54 1.282-.54 1.283 0 3.915.135 5.265.203 1.349.067 1.349 0 1.349 0 .068 0 .068.135.068.608 0 .472-.068 1.418 0 1.958.067.54.27.743.945.878.742.135 2.024.135 4.049.067 2.025-.135 4.724-.405 6.479-.743 1.755-.337 2.632-.742 3.172-1.08.54-.405.81-.81 1.013-1.283.202-.473.27-.945.405-3.984.135-3.038.337-8.508.337-11.681.068-3.106 0-3.849-.337-4.457-.338-.608-.945-1.215-2.16-1.553-1.147-.405-2.902-.608-5.062-.743s-4.724-.067-6.344.068c-1.552.135-2.16.405-2.565 1.08-.405.743-.607 1.958-.742 2.701-.135.81-.068 1.216-.068 1.418 0 .203-.067.27-1.079.135-1.08-.135-3.105-.405-4.185-.54l-1.012-.135-.068-.338c-.067-.337-.27-1.08-.54-1.418-.202-.27-.472-.135-.674.203-.203.337-.405.81-.54 1.485-.135.676-.135 1.553-.068 2.296.068.743.27 1.418.54 1.756.203.337.54.27.675.202.135-.067.135-.202.27-.337.067-.068.27-.068 1.485 0 1.215.135 3.374.337 4.522.472l1.079.135v4.187zm-162.381.067c.135 2.566.405 3.444.81 4.119.405.675.81 1.081 1.35 1.418.54.338 1.147.473 1.417.608l.27.067.608-1.553c.607-1.553 1.89-4.591 3.037-7.292 1.147-2.701 2.092-4.997 2.632-6.145l.472-1.148h-.202c-.202 0-.54 0-.81.068-.202 0-.27 0-.337-.135-.068-.135-.068-.338-.068-1.216-.067-.877-.135-2.295-.337-3.173-.203-.878-.608-1.08-1.823-.945-1.282.067-3.374.54-4.724.945-1.35.405-1.957.81-2.227 1.215-.27.405-.27.946-.27 1.283 0 .338.067.608 0 2.836.135 2.296.067 6.482.202 9.048z" fill="#211F17"/><path fill-rule="evenodd" clip-rule="evenodd" d="M222.548 357.953c1.147.811 2.699 1.554 6.884 2.364 4.184.81 11.001 1.823 31.045 3.781 19.978 1.958 53.115 4.997 72.62 6.415 19.505 1.418 25.309 1.283 28.279.54 2.969-.81 3.037-2.296 4.522-3.781 1.484-1.553 4.386-3.106 6.546-4.727 2.16-1.62 3.645-3.376 3.577-4.659-.067-1.283-1.62-2.228-2.295-6.077-.742-3.849-.674-10.736-.809-14.315-.135-3.646-.473-4.051-.675-4.322-.203-.202-.203-.202-.338-.405-.135-.202-.472-.54-.945-.945-.472-.473-1.147-1.013-2.497-2.161a198.326 198.326 0 01-5.264-4.389c-1.957-1.62-3.982-3.308-5.602-4.726-1.62-1.351-2.767-2.431-3.577-3.106-.742-.676-1.08-.878-2.429-1.554-1.283-.675-3.577-1.688-5.67-2.498a62.166 62.166 0 00-4.994-1.688c-.945-.27-.945-.27-1.89-.203-.945.068-2.767.203-5.129.338-2.43.135-5.332.203-8.234.27-2.902.068-5.736.135-9.448.135h-12.891c-4.657-.067-9.516-.135-14.713-.27-5.197-.135-10.799-.337-15.658-.608-4.927-.27-9.179-.54-13.633-.81-4.454-.337-9.044-.743-13.228-1.08-4.184-.405-7.829-.811-10.259-1.148-2.429-.338-3.509-.675-4.521-.81-.945-.203-1.755-.271-3.915-.676s-5.737-1.215-7.559-1.62-1.957-.473-2.025-.473c-.067 0-.067 0-.202 1.891-.135 1.958-.473 5.807-.607 10.736a270.525 270.525 0 00.067 16.476c.135 5.604.472 10.803.945 14.315.472 3.511 1.147 5.334 1.822 6.752.877 1.215 1.552 2.161 2.7 3.038z" fill="#4F4D3E"/><path fill-rule="evenodd" clip-rule="evenodd" d="M243.4 354.442c1.215 3.106 1.62 3.512 3.172 3.984 1.553.54 4.185 1.148 15.051 2.093 10.866.946 29.966 2.296 39.819 2.904 9.854.608 10.394.608 10.934 0 .54-.608 1.012-1.823 2.429-5.334 1.35-3.512 3.645-9.454 5.062-12.965 1.417-3.511 1.957-4.591 2.902-5.672.945-1.08 2.16-2.093 4.387-2.633 2.227-.54 5.332-.675 9.719-.946 4.387-.27 10.056-.742 14.105-1.215 4.05-.54 6.412-1.08 7.762-1.485 1.349-.406 1.619-.676 1.687-1.081.067-.405-.135-.945-.338-1.418-.202-.472-.54-.945-.944-1.08-.473-.203-1.08-.068-6.007.54-4.859.675-14.038 1.891-19.64 2.566-5.602.675-7.761.81-9.786 1.755-2.025.946-4.049 2.634-6.344 7.023-2.295 4.389-4.994 11.411-6.412 15.058-1.35 3.713-1.417 4.051-1.619 4.321-.203.27-.54.405-5.467.135-4.995-.27-14.646-1.013-24.567-1.891-9.921-.877-20.112-1.89-25.309-2.43-5.196-.541-5.466-.608-5.736-.946-.27-.337-.473-1.013-1.553-4.254-1.08-3.308-3.037-9.183-4.117-12.491-1.079-3.309-1.214-3.849-1.687-4.66a14.747 14.747 0 00-2.295-2.971c-1.079-1.08-2.497-2.16-5.061-3.308-2.565-1.148-6.277-2.431-9.247-3.511-2.902-1.013-5.061-1.824-6.074-2.229-1.08-.405-1.08-.405-1.08.068v1.958c0 .473 0 .473.743.878.742.405 2.295 1.148 4.657 1.958s5.601 1.553 7.694 2.228c2.092.675 3.104 1.216 3.982 1.823.809.676 1.484 1.418 2.092 2.904.607 1.485 1.282 3.646 2.564 7.63 1.283 3.849 3.307 9.656 4.522 12.694z" fill="#403E32"/><path fill-rule="evenodd" clip-rule="evenodd" d="M269.924 315.279c-2.025-.135-4.522-.27-8.234-.473-3.712-.27-8.571-.607-12.215-.877-3.645-.271-6.007-.541-7.694-.676-1.688-.135-2.633-.27-3.24-.337-.607-.068-.742-.068-.81-.068-.067 0-.067 0 .405 2.634.473 2.633 1.35 7.967 2.632 13.302 1.215 5.334 2.835 10.803 3.847 14.112 1.013 3.376 1.552 4.659 1.957 5.739.405 1.081.81 1.959 1.013 2.499.202.54.337.743.405.878.067.135.135.202.135.27.067.067.067.135.135.202.067.068.135.135.202.135.068.068.135.068.203.068.135 0 .27.067.675.135.404.067 1.079.135 1.957.202.877.068 1.957.203 3.172.271 1.215.135 2.497.202 4.319.405 1.822.135 4.252.405 6.817.607 2.632.203 5.399.473 7.829.676 2.429.202 4.454.405 6.681.54 2.227.202 4.657.337 6.817.54 2.092.135 3.914.27 6.344.473 2.43.135 5.467.337 7.761.54 2.362.135 3.982.202 4.927.27.945.067 1.282.067 1.552.067h.743c.27 0 .54 0 .675-.067.135 0 .202 0 .27-.068.067 0 .135-.067.135-.135.067-.067.067-.067.135-.202.067-.135.135-.338.405-.878.202-.54.607-1.418 1.957-5.132 1.35-3.781 3.644-10.466 5.399-15.733a822.926 822.926 0 004.049-12.154c.945-2.903 1.553-4.726 1.823-5.672l.27-.945h-5.67c-2.632 0-6.411-.068-10.933-.068-4.522-.067-9.719-.135-15.118-.27-5.399-.135-11.001-.337-14.578-.54-3.644-.067-5.129-.135-7.154-.27z" fill="#403E32"/><path fill-rule="evenodd" clip-rule="evenodd" d="M226.737 340.668c2.362.067 4.319 2.093 4.319 4.456 0 2.363-1.957 4.187-4.319 4.119-2.362-.067-4.32-2.093-4.32-4.456 0-2.364 1.958-4.187 4.32-4.119zm114.257 10.466c2.363.067 4.32 2.093 4.32 4.456 0 2.364-1.957 4.187-4.32 4.119-2.362-.067-4.319-2.093-4.319-4.456-.067-2.364 1.89-4.254 4.319-4.119z" fill="#fff"/><path fill-rule="evenodd" clip-rule="evenodd" d="M217.759 313.861c.405.743 1.215 1.553 3.038 2.498 1.822 1.013 4.589 2.161 6.951 3.174 2.43 1.013 4.387 1.823 5.737 2.228 1.35.473 1.957.473 2.227.203.27-.271.202-.878-.27-3.512-.472-2.633-1.417-7.225-2.835-10.938-1.417-3.714-3.239-6.618-4.994-8.576-1.687-1.958-3.239-3.106-4.454-3.646-1.148-.54-1.958-.54-2.362-.54-.405 0-.405 0-.675.54-.338.54-.945 1.553-1.418 2.903-.472 1.351-.877 3.106-1.08 5.47-.202 2.363-.202 5.267-.27 7.09.068 1.755 0 2.363.405 3.106zm140.918-1.688c-.203 1.755-.338 3.106-.608 4.389-.27 1.283-.54 2.431-.877 3.241-.338.81-.608 1.35-1.418 1.958-.809.608-2.092 1.351-4.791 2.161-2.7.878-6.884 1.823-11.069 2.431-4.184.607-8.369.877-10.663.945-2.295.067-2.7 0-2.97-.203-.27-.202-.337-.607.742-3.578 1.148-3.039 3.51-8.711 5.737-12.29 2.295-3.511 4.455-4.929 7.559-6.414 3.105-1.418 7.154-2.971 9.921-3.782 2.767-.81 4.252-.945 5.534-.877 1.283.067 2.43.337 2.97 1.35.54 1.013.472 2.769.337 4.727-.067 2.025-.269 4.186-.404 5.942z" fill="#FDE742"/><path fill-rule="evenodd" clip-rule="evenodd" d="M235.028 361.195c-1.079-.135-2.429-.405-3.577-.54-1.147-.203-2.024-.338-2.564-.473-.54-.135-.675-.135-.743-.135-.067 0-.067 0-.135 1.215-.067 1.216-.135 3.714.068 5.875.202 2.161.742 3.984 1.282 5.132.54 1.147 1.215 1.62 2.565 2.025 1.35.405 3.442.676 5.197.743 1.754.068 3.104-.135 3.982-.675.877-.54 1.147-1.418 1.349-2.701.27-1.283.405-2.971.473-4.659.067-1.688.067-3.241 0-4.052 0-.81 0-.81-.338-.81-.337-.067-.945-.135-1.754-.202a33.815 33.815 0 00-2.903-.338c-.877-.068-1.754-.203-2.902-.405z" fill="#403E32"/><path fill-rule="evenodd" clip-rule="evenodd" d="M377.772 353.835c.203-3.579.675-10.669.54-16.071-.135-5.334-.81-8.98-1.552-10.668-.743-1.689-1.485-1.553-2.092-.946-.675.54-1.215 1.553-2.093 4.389-.877 2.836-2.092 7.495-2.632 9.994-.54 2.43-.472 2.701-.202 4.186.27 1.486.742 4.119 1.08 6.212.337 2.093.675 3.646 1.012 4.929.337 1.351.742 2.499 1.08 3.174.337.743.54 1.013.742.675.27-.337.473-1.215.608-1.688.135-.472.135-.473.27-.405.135.068.337.203.674.27.405.068.945.068 1.35-.067.405-.068.675-.27.878-.338.135-.068.135-.068.337-3.646z" fill="#36342B"/><path fill-rule="evenodd" clip-rule="evenodd" d="M371.159 337.967c.405 1.08 1.148 3.241 1.62 7.36.473 4.051.743 9.993.81 16.273a272.687 272.687 0 01-.405 17.556c-.27 4.726-.675 7.495-1.417 8.98-.743 1.486-1.89 1.689-3.847 1.824-1.957.067-4.657.067-6.412-.135-1.687-.203-2.362-.608-2.767-1.216-.337-.608-.472-1.35-.54-4.186-.135-2.904-.27-7.901-.405-10.399-.067-2.498-.067-2.498.473-2.566.607-.067 1.754-.27 2.632-.405.81-.202 1.35-.405 1.687-.878.338-.472.607-1.283 1.552-4.929.945-3.646 2.7-10.128 3.645-14.382.945-4.254 1.147-6.145 1.485-8.103a62.55 62.55 0 011.079-4.794c.405-.946.473-1.013.81 0z" fill="#403E32"/></svg>