<svg width="593" height="418" fill="none" xmlns="http://www.w3.org/2000/svg"><path fill-rule="evenodd" clip-rule="evenodd" d="M411.438 332.857c5.352-2.244 14.296-4.068 36.552-4.489 22.325-.42 57.961.561 80.991 2.245 23.03 1.683 33.312 4.068 39.862 7.224 6.55 3.156 9.367 7.013 10.142 10.59.845 3.577-.282 6.733-5.282 9.468-5.001 2.735-13.945 4.979-22.608 6.522-8.662 1.543-16.973 2.455-27.818 3.367-10.776.982-24.016 2.034-31.693 3.086-7.676 1.052-9.789 2.174-10.986 3.296-1.268 1.192-1.691 2.385-3.804 3.367-2.183.981-6.056 1.683-15.142 2.314-9.085.701-23.241 1.333-35.847.701-12.536-.631-23.382-2.525-29.861-5.61-6.48-3.156-8.593-7.505-7.818-10.661.775-3.156 4.367-5.12 7.818-7.154 3.38-2.033 6.62-4.278 7.676-7.083 1.057-2.876-.07-6.312.282-9.398.352-2.946 2.183-5.541 7.536-7.785z" fill="#CBCCCD"/><path fill-rule="evenodd" clip-rule="evenodd" d="M220.156 82.127c10.705-1.473 25.988-.28 33.594 3.928 7.184 4.067 13.522 13.535 13.1 25.669-.493 12.484-6.691 20.339-13.663 25.038-6.62 4.488-23.945 5.961-33.101 3.997l.07-58.632zm-.211 74.342c11.409-2.104 28.594 3.156 45.496-6.662 10.564-6.102 18.452-15.149 21.269-30.088 5.987-31.911-16.761-54.424-47.116-54.494l-40.143-.07.07 76.095-12.888.07-.071 14.939 12.959.21v8.767l-12.818.07-.141 14.869 12.889.21v33.314h20.494l-.07-33.524 55.919-.211-.141-14.518c-11.198-.911-50.144.912-55.708-.49v-8.487z" fill="#E1E2E1"/><path fill-rule="evenodd" clip-rule="evenodd" d="M39.299 335.031c-9.508 4.068-15.072 6.663-18.523 9.538-3.45 2.876-4.789 6.032-4.86 9.048-.07 3.015 1.057 5.891 4.297 8.696 3.24 2.876 8.592 5.681 17.114 7.154 8.521 1.403 20.283 1.403 29.297 1.333 9.015-.071 15.354-.351 20.777.35 5.422.772 9.86 2.455 11.832 4.068 1.971 1.613 1.549 3.086-.564 4.208-2.113 1.122-5.846 1.894-8.24 3.857-2.324 2.034-3.31 5.331-.704 8.416 2.535 3.157 8.592 6.102 18.17 8.206 9.578 2.104 22.607 3.296 38.031 2.665 15.424-.631 33.171-3.086 39.51-7.224 6.338-4.137 1.338-9.959.634-13.676-.705-3.787 2.958-5.47 15.212-5.049 12.254.42 33.171 3.015 61.131 3.436 27.96.421 63.033-1.262 90.077-4.629 26.974-3.366 45.919-8.346 56.624-14.307 10.634-5.961 13.029-12.905 10-19.217-3.028-6.312-11.409-11.923-25.987-15.99-14.579-4.068-35.355-6.663-72.189-8.978-36.763-2.314-89.583-4.348-126.84-5.891-37.256-1.473-59.018-2.455-76.202-.841-17.185 1.613-29.791 5.68-42.75 10.52-13.029 4.769-26.41 10.239-35.847 14.307z" fill="#CBCCCD"/><path fill-rule="evenodd" clip-rule="evenodd" d="M133.108 237.685c-.282-17.674-.071-17.674-.352-17.884-.352-.141-1.198-.421-8.522-2.245a8122.624 8122.624 0 00-28.1-6.943l-6.903-1.683.423 18.726c.423 18.726 1.338 56.107 1.76 74.833.423 18.726.423 18.726.423 20.058 0 1.333-.07 3.928-.07 5.541 0 1.613.14 2.104 5.423 5.05 5.282 2.945 15.846 8.205 22.889 11.432 7.113 3.226 10.775 4.418 12.606 4.979 1.831.561 1.831.561 1.902-3.436.07-4.068.211-12.134-.071-33.805-.352-21.742-1.126-56.949-1.408-74.623z" fill="#F7CE66"/><path fill-rule="evenodd" clip-rule="evenodd" d="M105.289 212.857l7.888 1.964.07 92.858-7.535-2.525-.423-92.297z" fill="#FBFBFC"/><path fill-rule="evenodd" clip-rule="evenodd" d="M134.024 295.686c.14 13.185.211 32.542.211 42.15.07 9.679.07 9.679 0 10.1 0 .421-.071 1.332 0 1.683 0 .351.07.21 12.254-1.964 12.114-2.174 36.341-6.242 48.454-8.416 12.114-2.174 12.114-2.384 12.114-2.595 0-.21 0-.421-.211-21.18l-.845-82.618-.212-20.62-12.184 1.262c-12.184 1.263-36.481 3.788-48.665 5.05l-12.184 1.263.141 8.065c.141 8.065.493 24.196.704 35.839.211 11.642.352 18.796.423 31.981z" fill="#DBB158"/><path fill-rule="evenodd" clip-rule="evenodd" d="M109.022 213.839c-7.254-1.823-13.593-3.366-16.692-4.138l-3.169-.771 12.043-.772 48.173-3.086c12.043-.771 12.043-.771 12.325-.701.281.07.915.14 8.31 1.473 7.395 1.332 21.621 3.857 28.664 5.12l7.113 1.262-3.662.351c-3.662.35-11.057 1.122-23.241 2.384-12.184 1.263-29.157 3.016-37.608 3.928l-8.452.912-4.085-1.052c-4.225-1.052-12.465-3.086-19.719-4.91z" fill="#F7CE66"/><path fill-rule="evenodd" clip-rule="evenodd" d="M113.811 175.265l61.624.351.422 37.382-61.765 2.174-.281-39.907z" fill="#DBB158"/><path fill-rule="evenodd" clip-rule="evenodd" d="M107.824 176.878l5.987-1.613.281 39.907-6.057-3.156-.211-35.138z" fill="#F7CE66"/><path fill-rule="evenodd" clip-rule="evenodd" d="M147.968 175.406h-10.353l-.07 28.895 10.212-.07.211-28.825zm25.213 40.187l-10.987 1.122 1.479 107.726 10.776-1.683-1.268-107.165z" fill="#FBFBFC"/><path fill-rule="evenodd" clip-rule="evenodd" d="M150.715 213.909l13.099-.491 9.367 2.175-10.986 1.122-11.48-2.806zm-37.538.982l-7.888-2.034 6.057-.841 2.394 2.805-.563.07z" fill="#FBFBFC"/><path d="M168.603 181.718h-15.071v9.678h15.071v-9.678z" fill="#FBFBFC"/><path fill-rule="evenodd" clip-rule="evenodd" d="M180.576 223.237l17.748-2.174-.212 11.642-17.747 2.174.211-11.642z" fill="#FBFBFC"/><path fill-rule="evenodd" clip-rule="evenodd" d="M304.177 343.868c-2.747-.07-6.55-.28-9.367-.421-2.888-.14-4.789-.28-6.479-.491-1.761-.21-3.31-.42-4.296-.561-.986-.21-1.268-.28-1.55-.42-.211-.141-.352-.211-.422-.281-.071-.07-.071-.07-.071.561v3.086l1.409.281c1.408.28 4.296.911 9.789 1.542 5.494.632 13.593 1.333 21.833 1.543 8.24.211 16.55-.28 22.396-.771 5.916-.491 9.367-1.122 11.268-1.543 1.831-.421 2.042-.701 2.183-.771.141-.141.141-.141.141-.772v-2.525c0-.631 0-.631-.07-.561-.071.07-.282.211-.634.351-.352.14-.916.28-1.761.421-.845.14-1.901.28-3.592.491-1.69.14-4.014.35-6.197.49-2.254.141-4.437.281-6.902.351-2.465.07-5.212.14-8.029.211-2.817.07-5.704.07-7.958.07h-5.634c-1.62-.141-3.31-.211-6.057-.281z" fill="#141515"/><path fill-rule="evenodd" clip-rule="evenodd" d="M316.572 344.079c19.015 0 34.51-1.123 34.51-2.455 0-1.333-15.495-2.455-34.51-2.455s-34.51 1.122-34.51 2.455c0 1.332 15.495 2.455 34.51 2.455z" fill="#080902"/><path fill-rule="evenodd" clip-rule="evenodd" d="M287.415 113.828c-.845.421-.845.421-2.113 6.452-1.268 6.032-3.733 18.095-5 24.267-1.197 6.171-1.198 6.382-1.198 6.452 0 .14 0 .14.353.281.352.21 1.056.561 2.887 1.052s4.789 1.192 12.114 1.613c7.324.42 19.086.491 28.805.28 9.719-.28 17.536-.841 22.043-1.402 4.578-.562 5.916-1.053 6.621-1.263l.704-.28-.775-6.313c-.775-6.312-2.254-19.006-3.028-25.318-.775-6.312-.775-6.312-1.268-6.522-.493-.211-1.479-.562-3.944-.982-2.465-.421-6.409-.842-12.184-1.122-5.775-.281-13.522-.491-20.494-.281-6.973.21-13.17.771-17.185 1.403-3.732.561-5.422 1.332-6.338 1.683z" fill="#FDE742"/><path fill-rule="evenodd" clip-rule="evenodd" d="M301.5 149.386c-3.38.14-7.324.351-10.705.561-3.38.21-6.268.421-7.817.631-1.55.141-1.831.281-1.197.561.633.281 2.112.772 4.366 1.123 2.254.35 5.212.631 8.592.841 3.381.211 7.114.281 11.057.351 3.944.07 8.029.14 13.1.07s11.057-.351 16.128-.631c5.071-.351 9.226-.772 11.761-1.052 2.606-.281 3.592-.491 4.015-.702.422-.21.281-.42-.352-.631-.634-.21-1.761-.421-5.212-.631-3.451-.21-9.156-.491-15.353-.631-6.198-.141-12.748-.141-17.466-.141-4.578 0-7.466.071-10.917.281z" fill="#080902"/><path fill-rule="evenodd" clip-rule="evenodd" d="M317.699 236.072v-83.039s.07 0 .422-.281c.352-.21 1.057-.701 1.55-1.402.493-.632.845-1.543.986-1.964l.14-.421h-9.085c-.281 0-.281 0-.211.281.07.28.211.841.634 1.402.422.561 1.056 1.122 1.479 1.473.422.351.704.491.845.561l.141.07v85.354c0 31.42 0 67.399-.071 85.353v17.954h.493c.493 0 1.55 0 2.043.071h.493v-18.516c.141-18.375.141-55.476.141-86.896z" fill="#141515"/><path fill-rule="evenodd" clip-rule="evenodd" d="M212.269 257.954c-1.691-6.523-4.296-18.235-5.564-26.02-1.338-7.715-1.338-11.432-.07-14.167 1.267-2.736 3.732-4.489 8.24-5.751 4.507-1.333 10.916-2.175 23.452-2.385 12.466-.28 30.988.14 42.397.631 11.41.491 15.635 1.122 18.804 2.595 3.24 1.473 5.494 3.858 6.128 7.575.634 3.717-.352 8.767-1.831 16.341-1.479 7.575-3.451 17.604-4.508 22.583-.986 5.05-.986 5.05-2.324 6.453-1.338 1.402-3.944 4.208-6.268 7.714-2.395 3.437-4.578 7.575-6.198 9.258-1.619 1.683-2.676.982-3.239.561-.564-.351-.564-.351-7.325-.07-6.831.281-20.424.842-29.016.631-8.592-.21-12.113-1.122-13.874-1.543-1.761-.491-1.761-.491-2.254-.07-.493.421-1.408 1.263-2.676-.561-1.268-1.823-2.958-6.312-4.789-9.258-1.831-2.875-3.874-4.138-5.212-5.4-1.408-1.403-2.183-2.665-3.873-9.117z" fill="#FDE742"/><path fill-rule="evenodd" clip-rule="evenodd" d="M228.96 281.098c.211.421.211.421-1.479 2.104-1.69 1.613-5 4.909-6.691 6.592-1.69 1.684-1.76 1.824-1.831 1.894-.07.07-.14.07-.563-2.034-.493-2.104-1.338-6.382-2.324-9.678-1.057-3.297-2.254-5.611-3.522-7.294-1.267-1.683-2.676-2.735-4.436-3.577-1.832-.842-4.015-1.543-5.353-1.894-1.338-.35-1.761-.35-1.831-.35h.141s-.282-.071-.071-.141c.212-.07.845-.28 3.099-.701 2.324-.421 6.268-1.122 8.311-1.403 2.042-.28 2.042-.14 2.253.07.141.281.423.632.775.982.352.351.704.632 1.479 1.052.775.421 1.902.982 2.887 1.543a16.684 16.684 0 012.465 1.684c.705.631 1.409 1.332 2.113 2.314.705.912 1.409 2.104 2.043 3.226.634 1.122 1.197 2.244 1.69 3.226.282 1.052.704 1.964.845 2.385zm56.06-6.032c-.633 1.052-1.478 2.525-2.253 3.858-.704 1.332-1.338 2.454-1.62 3.015-.282.561-.282.561 1.409 2.034 1.69 1.473 5.141 4.349 6.901 5.892 1.761 1.542 1.832 1.613 1.832 1.683l.704-1.543c.634-1.543 1.972-4.559 4.225-8.136 2.254-3.577 5.494-7.785 7.184-10.52 1.761-2.735 1.972-4.138 2.606-4.769.563-.631 1.549-.491 1.901-.421.423.07.282.07-1.056-.14-1.338-.21-3.873-.631-5.634-.982-1.69-.28-2.606-.491-3.029-.561-.422-.07-.422-.07-.633.07-.212.14-.634.421-1.62.982-.916.561-2.324 1.333-3.662 2.174-1.339.912-2.606 1.894-3.592 2.806-.986.911-1.691 1.753-2.254 2.384-.352.631-.775 1.122-1.409 2.174z" fill="#C6B532"/><path fill-rule="evenodd" clip-rule="evenodd" d="M221.424 288.883c-1.831 1.543-4.085 3.086-4.578 3.577-.493.49.775-.141 13.804-.141 13.029-.07 37.749.491 49.863.421 12.043-.07 11.409-.631 11.057-.912-.352-.28-.352-.28-1.197-1.052a156.09 156.09 0 00-4.367-3.787 153.482 153.482 0 01-4.296-3.717c-.845-.701-.845-.701-1.127-.701-.281.07-.845.14-3.169.14-2.395 0-6.55-.07-14.297-.21-7.817-.141-19.227-.421-25.495-.562-6.268-.14-7.324-.28-7.887-.28-.564-.07-.564-.07-.986.421-.493.491-1.409 1.402-2.677 2.595-1.267 1.192-2.746 2.665-4.648 4.208z" fill="#E8D43F"/><path fill-rule="evenodd" clip-rule="evenodd" d="M216.494 294.494c0 1.963.071 5.47.071 7.294v1.893c0 .07.07.14 4.296.211 4.296.07 12.747.21 25.917.28 13.17.07 31.059.211 40.073.281 8.945.07 9.015.07 9.156-.141.07-.21.211-.561.211-2.595 0-2.033-.07-5.821-.141-7.784-.141-1.964-.281-2.175-1.056-2.315-.775-.14-2.254-.14-8.24-.07-5.986 0-16.621.07-28.805 0-12.184-.07-25.988-.21-33.101-.21-7.113-.071-7.536 0-7.817 0-.282 0-.493 0-.564.14-.07.07-.141.28-.07.561 0 .21 0 .561.07 2.455z" fill="#F1DB41"/><path fill-rule="evenodd" clip-rule="evenodd" d="M294.598 293.371c.071 1.543.071 4.489 0 6.383-.07 1.893-.141 2.735-.211 3.086-.07.42-.07.42-.211.42s-.493.07-.775.07h-4.226c-3.732 0-11.057 0-17.536-.07-6.479 0-12.184-.07-20.001-.07-7.818-.07-17.678-.14-23.735-.21-5.986-.07-8.169-.14-9.226-.211-1.056-.07-1.056-.07-1.056-.21v-1.122c0-.631 0-1.683.07-2.946 0-1.262.071-2.805.071-3.927v-2.385c0-.491.07-.631.141-.771.07-.141.141-.141.211-.141h.775l-.071-.841c-.07-.842-.141-2.455-.352-4.629-.211-2.174-.493-4.909-.775-6.803-.281-1.894-.493-2.946-.915-3.998a12.718 12.718 0 00-1.549-3.086 9.942 9.942 0 00-2.325-2.524c-.915-.772-1.972-1.403-3.239-1.964-1.268-.491-2.606-.912-3.662-1.122-.986-.211-1.62-.281-2.395-.281-.775 0-1.62.14-2.606.561a6.454 6.454 0 00-2.887 2.034 7.03 7.03 0 00-1.55 4.138c-.07 1.683.352 3.717 1.197 5.611.846 1.893 2.113 3.787 3.24 6.662 1.127 2.876 2.183 6.874 3.451 10.591 1.268 3.717 2.676 7.083 4.226 9.818 1.549 2.736 3.239 4.84 4.859 6.172 1.62 1.333 3.24 1.894 4.578 2.245 1.338.35 2.324.491 14.719.491 12.396 0 36.2-.141 48.525-.211 12.325-.07 13.24-.14 14.226-.491.986-.28 2.113-.841 3.663-3.016 1.549-2.174 3.451-5.961 4.718-9.678 1.268-3.717 1.831-7.364 2.676-9.959.916-2.595 2.113-4.138 3.17-6.172 1.056-2.034 1.901-4.559 2.465-7.294.493-2.735.704-5.611.14-7.504-.492-1.894-1.76-2.806-2.605-3.367-.845-.491-1.409-.561-1.831-.631-.423-.07-.775-.14-1.55-.07s-1.972.21-2.958.491c-1.056.28-1.901.561-2.817 1.052-.845.491-1.761 1.052-2.606 1.964a19.002 19.002 0 00-2.606 3.506c-.845 1.403-1.619 3.156-2.183 4.629a24.902 24.902 0 00-1.197 4.489 37.27 37.27 0 00-.563 4.909c-.141 1.613-.212 3.016-.212 3.787v.702h.493c.493 0 1.479 0 2.043.07.633.14.704.28.774 1.823z" fill="#FDE742"/><path fill-rule="evenodd" clip-rule="evenodd" d="M222.622 314.341c-.845 0-1.409-.07-1.691-.07-.281 0-.281 0-2.535 6.453a2790.807 2790.807 0 00-8.874 25.949c-2.183 6.593-2.113 6.733-1.901 6.873.211.141.563.281 1.549.281.916 0 2.395-.21 3.24-.491.845-.281 1.056-.561 3.028-4.909 2.042-4.349 5.846-12.765 8.804-19.147 2.957-6.382 5-10.66 5.915-12.764.916-2.175.775-2.175-.211-2.175h-7.324zm18.452.071h-3.17l-1.76 4.769c-1.761 4.769-5.282 14.377-7.043 19.357-1.831 4.979-1.902 5.33-1.761 5.54.141.211.493.281 1.198.351.774 0 1.972-.07 2.535-.07.563 0 .563 0 2.887-5.05 2.254-4.979 6.832-15.008 9.086-19.988 2.253-4.979 2.253-4.979 1.901-4.979h-1.831c-.704.07-1.197.07-2.042.07zm48.735-.071c.846 0 1.409-.07 1.691-.07.281 0 .281 0 2.535 6.453a2790.807 2790.807 0 018.874 25.949c2.183 6.593 2.113 6.733 1.902 6.873-.212.141-.564.281-1.55.281-.915 0-2.394-.21-3.24-.491-.845-.281-1.056-.561-3.028-4.909-2.042-4.349-5.845-12.765-8.803-19.147-2.958-6.382-5.001-10.66-5.916-12.764-.916-2.175-.775-2.175.211-2.175h7.324zm-18.452.071h3.17l1.76 4.769c1.761 4.769 5.282 14.377 7.043 19.357 1.831 4.979 1.901 5.33 1.761 5.54-.141.211-.493.281-1.198.351-.774 0-1.972-.07-2.535-.07-.563 0-.563 0-2.888-5.05-2.253-4.979-6.831-15.008-9.085-19.988-2.253-4.979-2.253-4.979-1.901-4.979h1.831c.704.07 1.197.07 2.042.07z" fill="#141515"/><path fill-rule="evenodd" clip-rule="evenodd" d="M325.727 307.959c-1.972 0-1.972 0-1.972.141 0 .14 0 .491.705 8.065.704 7.575 2.042 22.373 2.676 29.807.704 7.434.704 7.505.775 7.645.14.14.352.35 1.549.561 1.268.21 3.592.421 7.395.561 3.803.14 9.226.21 12.536.14 3.38 0 4.719-.14 5.423-.21.704-.07.775-.14.775-.14l.986-7.645c.986-7.645 2.887-22.934 3.873-30.719.986-7.855.986-8.206.986-8.346 0-.14 0-.14-4.296 0-4.296.07-12.959.21-19.227.21-6.338-.07-10.282-.07-12.184-.07z" fill="#F9F9F9"/><path fill-rule="evenodd" clip-rule="evenodd" d="M322.276 255.85c-3.31-2.876-9.014-8.206-12.254-15.43s-4.155-16.271-3.662-23.004c.493-6.663 2.324-10.941 3.521-13.676 1.268-2.735 1.902-3.928 2.817-3.857.916.07 2.113 1.332 3.874 3.647 1.76 2.314 4.155 5.61 6.197 10.099 2.043 4.488 3.733 10.169 4.86 15.99 1.056 5.822 1.479 11.783 1.549 16.973.071 5.19-.281 9.538-.563 11.572-.352 2.034-.634 1.683-1.268 1.333-.775-.281-1.761-.702-5.071-3.647zm17.466-38.083c-1.76.14-3.591 2.384-5.07 5.681-1.479 3.226-2.677 7.504-3.451 12.624-.775 5.049-1.057 10.941-.845 16.972.211 6.032.986 12.204 1.76 16.061.775 3.787 1.69 5.19 2.254 5.891.563.702.915.702 1.69-.07.775-.771 1.902-2.244 3.24-5.12 1.338-2.875 2.817-7.153 3.944-12.554 1.127-5.4 1.901-11.922 2.113-18.094.211-6.172-.141-11.923-1.127-15.78-1.057-3.858-2.747-5.751-4.508-5.611z" fill="#4AAB3C"/><path fill-rule="evenodd" clip-rule="evenodd" d="M347.842 181.648c-.986 1.543-2.606 3.366-4.085 6.382-1.479 3.016-2.747 7.294-3.381 12.484-.633 5.19-.704 11.221.282 17.744.916 6.592 2.817 13.676 4.226 18.235 1.408 4.488 2.324 6.452 2.958 7.294.634.841.915.631 2.465-1.193 1.479-1.823 4.155-5.26 6.197-9.608 2.043-4.348 3.451-9.749 4.156-15.921.774-6.171.845-13.255-.846-20.128-1.69-6.873-5.282-13.606-7.254-16.832-1.972-3.227-2.394-2.876-2.817-2.104-.422.841-.845 2.104-1.901 3.647zm3.662 68.1c-1.691 3.016-2.888 6.382-3.592 9.468-.704 3.086-.986 5.821-.704 8.556.281 2.665 1.197 5.26 2.253 7.435.986 2.174 2.183 3.857 2.958 4.558.775.702 1.197.281 2.395-1.753a42.407 42.407 0 004.296-10.801c1.197-4.909 1.62-11.011 1.268-15.57-.353-4.488-1.479-7.434-3.17-7.574-1.76-.07-4.014 2.665-5.704 5.681zm29.016-6.733c-2.535 1.333-7.043 3.717-10.564 7.995-3.522 4.278-6.127 10.45-7.818 15.921-1.69 5.47-2.465 10.31-2.746 13.886-.212 3.577.07 5.962.281 7.084.212 1.192.353 1.192 2.536.28 2.183-.911 6.479-2.735 10.001-5.61 3.521-2.876 6.197-6.873 8.099-11.222 1.901-4.348 3.028-9.117 3.662-14.167.634-5.05.775-10.38.775-13.115 0-2.665-.212-2.735-.634-2.665-.423.07-1.057.28-3.592 1.613z" fill="#5DC94C"/><path fill-rule="evenodd" clip-rule="evenodd" d="M312.91 209.491c-.071-.211 0-.421.211-.491s.423 0 .493.21v.07c3.24 8.837 6.409 17.744 8.733 26.09 1.197 4.208 2.113 8.276 2.958 12.625.845 4.348 1.549 8.977 2.254 14.307.634 4.559 1.197 9.678 1.76 14.588.705 6.522 1.338 12.905 1.761 17.463.775 8.066.916 10.801 1.056 13.536 0 .211-.14.351-.352.421-.211 0-.352-.14-.422-.351-.141-2.735-.282-5.47-1.057-13.465a1329.906 1329.906 0 00-1.76-17.464c-.564-4.979-1.127-10.029-1.761-14.588-.704-5.33-1.409-9.959-2.254-14.237a180.694 180.694 0 00-2.887-12.554c-2.254-8.416-5.494-17.253-8.733-26.16zm25.776 20.69c0-.211.211-.351.423-.281.211 0 .352.21.281.421-.563 3.577-1.056 7.224-1.549 10.801a177.398 177.398 0 00-1.197 11.081c-.353 3.787-.564 7.644-.705 11.712a379.002 379.002 0 00-.211 13.115c-.07 9.398.07 20.199.141 31 0 .21-.141.35-.352.35-.212 0-.352-.14-.352-.35-.141-10.801-.212-21.602-.141-31 0-4.699.07-9.047.211-13.115.141-4.138.352-7.995.704-11.782.352-3.788.775-7.435 1.268-11.082.423-3.787.916-7.364 1.479-10.87zm17.396 19.286c0-.21.141-.35.352-.35s.352.14.352.35v.07c-.352 5.892-.634 11.713-1.338 16.833-.563 4.348-1.409 8.135-2.324 12.203l-.423 1.964c-.563 2.525-1.127 5.26-1.69 7.925-.493 2.385-.916 4.699-1.338 6.873-.845 4.699-1.338 8.627-1.831 12.554 0 .211-.212.351-.423.281-.211 0-.352-.211-.282-.421a285.092 285.092 0 011.832-12.554c.352-2.174.845-4.559 1.338-6.943.563-2.666 1.127-5.401 1.69-7.926l.423-1.963c.915-3.998 1.76-7.785 2.324-12.134.634-5.049.986-10.94 1.338-16.762zm22.536.141c.071-.211.352-.281.493-.14.211.07.282.35.141.49-1.62 3.156-3.31 6.242-4.93 9.469-1.62 3.226-3.24 6.382-4.719 9.608-1.408 3.086-2.817 6.172-4.084 9.188a196.743 196.743 0 00-3.733 9.398 243.933 243.933 0 00-2.535 7.153c-.705 2.104-1.198 3.928-1.62 5.471a40.774 40.774 0 00-.916 4.138c-.211 1.192-.352 2.314-.563 3.436 0 .211-.211.351-.423.281-.211 0-.352-.211-.281-.421.14-1.122.352-2.174.563-3.437.211-1.262.493-2.595.915-4.138.423-1.613.916-3.436 1.62-5.54.705-2.104 1.55-4.489 2.536-7.224a188.147 188.147 0 013.803-9.398c1.267-3.016 2.676-6.102 4.085-9.188a304.469 304.469 0 014.718-9.608 407.39 407.39 0 014.93-9.538zm-28.664-60.105c0-.211.141-.351.352-.351.212 0 .353.14.353.351.352 8.977.633 17.954.211 27.001a215.659 215.659 0 01-1.127 14.167c-.563 5.05-1.268 10.661-2.113 17.323l-.704 5.471c-1.62 12.273-3.451 26.511-4.508 35.839-1.197 10.66-1.267 14.658-1.408 18.585 0 .211-.211.351-.352.351-.211 0-.352-.211-.352-.351.141-3.998.211-7.995 1.408-18.656 1.057-9.187 2.888-23.565 4.508-35.838l.704-5.471c.845-6.592 1.549-12.203 2.113-17.253.563-5.049.915-9.608 1.127-14.097.422-9.117.07-18.094-.212-27.071z" fill="#509663"/><path fill-rule="evenodd" clip-rule="evenodd" d="M274.879 132.413c1.127.772 2.395 1.543 3.31 1.964.916.421 1.62.491 2.183.21.564-.21 1.127-.771 1.761-1.052.634-.28 1.409-.35 2.042-.14.634.211 1.198.702 1.972 1.192.775.491 1.831 1.052 2.817.912.986-.14 1.832-.912 2.254-1.332.423-.421.423-.421 1.197-.491.775-.07 2.325-.211 3.522.21 1.127.421 1.901 1.403 3.169 2.034 1.268.631 3.099.912 4.648.912 1.62-.07 2.958-.421 4.015-1.193.986-.771 1.619-1.963 2.887-1.893 1.268 0 3.169 1.262 4.508 2.034 1.338.771 2.183 1.122 2.958 1.052.774-.07 1.408-.631 2.042-1.122.704-.491 1.408-.912 1.972-1.052.563-.211.986-.141 1.338-.351.352-.21.563-.772.493-1.473-.07-.701-.423-1.613-.775-2.525-.352-.911-.634-1.963-.563-2.945.07-.982.493-1.894.915-2.876.423-.912.846-1.893.775-2.875-.07-.982-.563-2.034-1.268-3.086-.704-1.052-1.479-2.034-1.831-3.086-.352-1.052-.211-2.174 0-3.156.212-.982.564-1.894.775-2.806.141-.911.07-1.963-.211-2.945-.352-1.052-.916-2.104-1.409-2.946-.493-.841-.845-1.473-.986-1.964-.211-.491-.211-.771-.352-1.683-.211-.912-.563-2.454-1.408-3.717-.775-1.262-2.043-2.174-3.17-2.735-1.127-.561-2.113-.702-2.817-1.052-.775-.35-1.338-.982-2.324-1.824-1.056-.841-2.535-2.034-4.014-2.174-1.479-.21-3.029.561-4.015.982-.915.35-1.338.35-2.324 0-.986-.35-2.676-1.122-4.507-1.192-1.831 0-3.874.701-5.282 1.613-1.409.982-2.254 2.174-2.958 2.805-.704.702-1.268.842-1.902.912-.634.07-1.338 0-2.676.631s-3.381 1.894-4.789 3.928c-1.479 1.963-2.395 4.699-2.606 7.504-.211 2.876.282 5.821.352 8.837.071 2.946-.281 5.891-.563 7.925-.352 2.034-.634 3.156-.916 3.928-.281.771-.563 1.192-.774 1.753-.212.561-.353 1.262.14 2.034.282.701 1.268 1.473 2.395 2.314z" fill="#403E32"/><path fill-rule="evenodd" clip-rule="evenodd" d="M293.331 133.956c-.071.842.211 2.595.141 4.629 0 2.034-.353 4.278-.564 5.541-.211 1.332-.282 1.753-.211 2.244.07.491.211.982.563 1.543.352.491.845 1.052 1.55 1.823.704.772 1.619 1.894 2.535 2.595.845.702 1.69 1.052 2.395 1.193a3.746 3.746 0 001.831-.281c.493-.281.915-.631 1.267-1.262.352-.632.705-1.473.986-2.525.282-.982.423-2.104.493-2.806.071-.701 0-1.122-.07-1.753-.071-.631-.211-1.543-.211-3.016 0-1.543.07-3.647.07-4.839 0-1.122 0-1.333-.141-1.333h-1.408c-.986-.07-2.606-.21-3.733-.42-1.127-.211-1.831-.561-2.535-.912-.705-.351-1.339-.701-1.902-.912-.563-.28-.986-.35-1.056.491z" fill="#FFAF69"/><path fill-rule="evenodd" clip-rule="evenodd" d="M293.401 136.13c0 .561.07 1.052.07 1.263 0 .21 0 .21.282.561.282.28.845.912 1.761 1.473.915.561 2.183 1.122 3.31 1.402 1.127.281 2.113.421 2.958.351.845 0 1.62-.14 1.972-.21.352-.07.352-.07.352-.421v-3.928c0-.491-.07-.771-.211-.841-.141-.141-.352-.141-1.479-.281-1.057-.14-2.958-.421-4.437-.631-1.409-.21-2.395-.421-3.099-.561-.704-.14-1.127-.281-1.338-.281-.211 0-.211.141-.211.491 0 .421 0 1.122.07 1.613z" fill="#FF9E69"/><path fill-rule="evenodd" clip-rule="evenodd" d="M312.769 94.962c-1.831-1.684-4.015-2.806-7.325-3.437-3.31-.631-7.888-.842-11.62.14-3.733.982-6.761 3.226-8.733 5.33-1.972 2.105-2.888 4.209-3.451 6.874-.493 2.665-.634 5.891-.634 7.574-.071 1.683-.071 1.824-.352 2.104-.352.281-.986.772-1.479 1.543-.493.772-.845 1.894-.845 3.226 0 1.333.281 2.946.986 4.138.704 1.263 1.831 2.104 2.817 2.595.986.491 1.901.631 2.394.772.493.14.493.21.845.771.282.561.845 1.473 1.268 2.455.423.982.704 1.893 1.409 2.946.704.981 1.831 2.033 3.732 3.085 1.902 1.052 4.508 2.034 6.761 2.806 2.254.701 4.226 1.122 5.775 1.052 1.55-.07 2.677-.491 4.015-1.543 1.338-.982 2.817-2.525 3.873-3.787 1.057-1.263 1.62-2.175 1.972-2.946.352-.772.493-1.333.564-2.525.07-1.122.211-2.805.493-5.05.281-2.244.774-4.979 1.197-8.766.423-3.788.845-8.557.282-11.993-.634-3.437-2.113-5.681-3.944-7.364z" fill="#FFAF69"/><path fill-rule="evenodd" clip-rule="evenodd" d="M302.838 125.891c-.07 0-.211-.07-.211-.14 0-.071.07-.211.141-.211.704-.14 1.408-.28 1.831-.561.211-.07.352-.21.493-.351.141-.14.282-.35.352-.491.07-.07.07-.14.07-.21 0-.07-.07-.14-.14-.21-.071-.071-.141-.211-.282-.281-.211-.21-.493-.491-.775-.842-.211-.28-.352-.561-.563-.841-.212-.351-.352-.631-.423-.982-.141-.281-.211-.561-.281-.771-.071-.281-.141-.562-.141-.842-.071-.631-.212-1.473-.282-2.315 0-.07.07-.21.141-.21.07 0 .211.07.211.14.071.842.211 1.684.282 2.315.07.28.07.561.141.841.07.211.141.491.211.772.141.28.282.631.423.912.14.28.352.561.492.841.282.351.493.631.705.842l.281.28c.141.141.212.281.212.421 0 .14 0 .281-.071.421-.07.14-.211.351-.422.561-.141.14-.352.281-.564.421-.422.21-1.126.351-1.831.491z" fill="#F46F2D"/><path fill-rule="evenodd" clip-rule="evenodd" d="M309.177 111.583c.563-.07 1.338-.21 2.183-.14.845.07 1.691.211 2.395.491.704.281 1.197.631 1.549.982.352.351.493.701.634.912.141.28.211.421.141.491s-.352.07-.634-.141c-.282-.14-.634-.491-1.127-.771-.493-.281-1.197-.631-1.972-.772a7.76 7.76 0 00-2.183-.07c-.563.07-.986.141-1.268.211-.281.07-.493 0-.634-.141-.14-.14-.211-.42-.07-.631.211-.21.493-.35.986-.421zm-9.508.702a3.748 3.748 0 00-1.76-.772c-.916-.14-2.113-.14-3.099.141-.986.28-1.831.911-2.324 1.402-.493.491-.634.842-.775 1.052-.07.281-.07.421 0 .491s.141.07.423-.14c.281-.21.704-.631 1.267-.912a6.082 6.082 0 011.972-.771c.705-.211 1.338-.281 2.113-.141.704.141 1.479.421 1.972.561.493.141.564.141.634-.07.07-.21-.07-.561-.423-.841z" fill="#3F3D2E"/><path fill-rule="evenodd" clip-rule="evenodd" d="M295.514 121.192c1.197 0 2.183-1.122 2.183-2.455 0-1.332-.986-2.455-2.183-2.455-1.197 0-2.183 1.123-2.183 2.455 0 1.333.986 2.455 2.183 2.455zm15.283 0c1.197 0 2.183-1.122 2.183-2.455 0-1.332-.986-2.455-2.183-2.455-1.197 0-2.183 1.123-2.183 2.455 0 1.333.986 2.455 2.183 2.455z" fill="#36342B"/><path fill-rule="evenodd" clip-rule="evenodd" d="M296.711 129.257c.211.561.634 1.543 1.197 2.245.564.771 1.339 1.262 2.113 1.613.775.35 1.55.561 2.254.561s1.338-.14 1.972-.491c.563-.281 1.127-.772 1.549-1.122.423-.351.634-.702.986-1.263.282-.561.634-1.332.775-1.753.141-.351.07-.351-.704-.281-.775.071-2.184.141-3.733.141s-3.24-.07-4.366-.211c-1.127-.07-1.691-.21-1.972-.21-.282.14-.282.21-.071.771z" fill="#101E25"/><path fill-rule="evenodd" clip-rule="evenodd" d="M300.303 128.907c-.281 0-.704-.071-1.127-.071-.493-.07-.986-.07-1.338-.14-.281 0-.422-.07-.493-.07h-.07v.771c0 .141 0 .211.282.351.211.211.704.491 1.197.772.493.28.986.42 1.901.561.916.14 2.184.14 3.099.07.916-.07 1.338-.281 1.761-.491.352-.211.634-.421.845-.561.211-.14.282-.211.282-.281.07-.07.07-.14.07-.28v-.772h-.352c-.352 0-.986.07-1.479.07h-3.944c-.282.071-.352.071-.634.071zm3.874 4.348c-.141.07-.282.14-.493.21l-.634.211c-.211.07-.423.07-.634.07-.211 0-.493 0-.704-.07-.212 0-.493-.071-.705-.141-.211-.07-.493-.14-.704-.21a5.455 5.455 0 01-.634-.281c-.211-.07-.281-.14-.352-.21-.07-.07-.07-.07.352-.07.423 0 1.198-.07 2.113 0 .986 0 2.113 0 2.747.07h.563l-.07.07c-.071.07-.282.14-.352.281-.212-.07-.352 0-.493.07z" fill="#fff"/><path fill-rule="evenodd" clip-rule="evenodd" d="M299.458 128.836c-.423 0-.916-.07-1.338-.14-.423-.07-.845-.07-1.057-.14h-.281s.07 0 .422-.07 1.057-.141 1.62-.281c.493-.14.845-.21 1.127-.351.282-.07.493-.14.634-.14.211 0 .352.07.563.14.212.071.423.141.634.141.211.07.352.07.564.07.211 0 .422 0 .633-.07.212-.07.493-.141.634-.211.212-.07.352-.14.564-.14.141 0 .281.07.493.14.211.07.422.211.704.351.282.14.634.21.986.281.352.07.634.14.775.21.14.07.14.07-.071.07-.211 0-.704.07-1.197.07-.493 0-1.056.07-1.549.07h-4.86zm7.113 2.175c-.141.21-.281.42-.493.701-.211.21-.422.491-.704.701a3.096 3.096 0 01-.775.561c-.281.211-.634.351-.915.491a2.168 2.168 0 01-.916.211c-.282.07-.563.07-.775 0-.281 0-.563-.07-.774-.141-.282-.07-.564-.14-.845-.28-.282-.14-.634-.281-.916-.491-.282-.21-.634-.421-.845-.631-.282-.211-.493-.491-.704-.702-.212-.21-.352-.491-.493-.701a4.64 4.64 0 01-.423-.842c-.141-.35-.282-.701-.352-.911l.07.21c.141.421.423 1.262.705 1.964a5.84 5.84 0 001.127 1.543c.352.35.633.561.986.771.352.211.845.421 1.408.561.563.141 1.197.211 1.761.141.563-.071 1.127-.211 1.549-.421.493-.211.845-.561 1.268-.912.352-.351.704-.771.986-1.262.282-.421.563-.912.704-1.403.141-.491.211-.982.282-1.192v-.141c-.071.071-.141.281-.211.561-.071.211-.212.421-.282.702a3.753 3.753 0 01-.423.912z" fill="#F46F2D"/><path fill-rule="evenodd" clip-rule="evenodd" d="M264.808 348.988c-.493 1.332-1.198 3.647-1.761 5.47-.563 1.894-.916 3.367-1.056 4.839a18.756 18.756 0 00-.141 3.858c0 .912.07 1.332.211 1.543.141.21.493.35 1.831.421 1.409.07 3.803.14 5.423.07 1.549 0 2.183-.141 2.676-.351.423-.21.705-.491.775-.912.141-.42.141-1.052.07-2.665-.07-1.683-.211-4.418-.422-6.733-.211-2.314-.493-4.278-.775-5.4-.211-1.122-.352-1.333-.634-1.473-.281-.14-.634-.14-1.338-.21-.634-.07-1.62-.211-2.183-.281-.563-.07-.775-.21-.986-.21-.211-.07-.423-.07-.634.14-.282.21-.563.561-1.056 1.894zm41.27 3.857c-.423 1.193-1.338 3.226-1.831 4.839-.493 1.543-.493 2.595-.282 3.647.211 1.052.634 2.175 1.268 2.876.634.631 1.62.842 4.226.982 2.605.14 6.901.21 9.578.14 2.676 0 3.732-.14 4.507-.491.704-.35 1.127-.982 1.197-1.402.141-.421 0-.702-.422-1.053-.423-.35-1.057-.771-2.395-1.542-1.338-.772-3.38-2.034-5.141-3.437-1.761-1.403-3.24-2.946-4.296-4.068-1.057-1.122-1.62-1.893-1.972-2.244-.352-.351-.493-.351-.916-.211-.422.141-1.056.421-1.619.351-.564-.07-.986-.491-1.268-.561-.282-.07-.282.14-.282.421 0 .21.071.561-.352 1.753z" fill="#FFAF69"/><path fill-rule="evenodd" clip-rule="evenodd" d="M304.81 360.42c.564.561 1.479 1.472 2.184 2.034.704.561 1.056.771 1.478.911.353.141.705.211 2.677.281 1.972.07 5.493.14 7.324.21 1.831.07 1.972.07 2.113.07.141 0 .211-.07.211-.35 0-.281 0-.772.071-1.473.07-.701.281-1.613.493-2.034.211-.421.352-.281.845-.07.493.21 1.338.491 2.394.912 1.127.35 2.465.841 3.522 1.192 1.056.351 1.76.701 2.183 1.052.423.351.634.771.704 1.122.071.421 0 .842-.211 1.192-.141.351-.352.561-.634.772-.282.21-.634.35-1.901.421-1.268.07-3.381.14-5.705.21-2.324 0-4.859 0-6.55-.07-1.69-.07-2.535-.211-3.38-.281-.775-.07-1.55-.14-1.902-.14-.352 0-.422 0-.422.07s0 .211-.282.281c-.282.07-.775.07-1.62.07-.845 0-1.972-.07-2.887-.07-.846 0-1.479-.07-1.761-.07-.352 0-.352 0-.423-1.123a93.133 93.133 0 01-.141-4.488c0-1.192.071-1.403.212-1.473.141-.07.281-.14.422 0 .212.07.423.281.986.842zm-42.538-2.104c0 .491 0 1.332.071 1.893.07.561.14.842.281.982.071.141.141.07.493-.21.352-.281.916-.772 1.62-1.122.704-.351 1.409-.632 2.183-.702.775-.07 1.479-.07 2.184.141.704.21 1.408.561 1.901.911.493.351.705.632.916.772.211.14.282.21.422.07.141-.14.212-.351.282-.701v-.912c0-.281.07-.421.141-.421.07 0 .141.07.282.772.141.701.422 1.893.563 3.015.141 1.122.141 2.174.07 2.876 0 .631-.07.912-.14 1.122-.071.21-.282.351-1.198.491-.915.14-2.676.28-4.437.421-1.76.07-3.591.07-4.718 0-1.127-.07-1.62-.211-1.902-.421-.281-.21-.352-.491-.352-1.613 0-1.122 0-3.086.211-4.699.282-1.543.775-2.735 1.057-3.226.281-.491.211-.421.211-.211-.141.07-.141.281-.141.772zm35.425-156.119c-3.521.14-5.564.14-6.62.14s-1.056 0-2.042 1.683c-.986 1.684-2.958 5.12-4.649 8.346-1.69 3.156-3.098 6.102-4.577 11.152-1.479 5.049-3.029 12.203-3.592 20.689-.564 8.487-.141 18.375 0 24.617.141 6.242 0 8.907 0 10.24-.071 1.333-.071 1.333-.916 2.455-.845 1.122-2.606 3.436-4.296 8.767-1.761 5.33-3.521 13.746-4.718 24.476-1.198 10.731-1.761 23.846-2.043 30.368l-.282 6.523h1.339c1.338 0 4.084.07 5.422.14h1.339l.704-3.156c.704-3.156 2.042-9.538 4.296-18.515 2.183-8.907 5.212-20.409 7.888-29.176 2.606-8.767 4.859-14.658 7.676-23.004 2.747-8.346 5.987-19.006 7.888-25.038 1.902-6.032 2.324-7.434 2.677-8.206.352-.771.493-.911.633-.561.141.351.282 1.122.353 6.032.07 4.909.07 14.027.352 20.198.281 6.172.774 9.469 1.056 11.152.282 1.683.282 1.683-.282 2.805-.563 1.122-1.69 3.437-2.465 7.504-.774 4.068-1.267 9.889-1.267 16.552s.563 14.097 1.056 19.497c.493 5.401.986 8.837 1.409 13.045.422 4.208.845 9.258 1.056 11.713l.211 2.525 1.479-.07c1.479-.071 4.508-.141 5.987-.211s1.408-.14 1.338-.21c-.071-.07-.141-.141-.071-2.595.141-2.455.423-7.294.916-14.097.493-6.803 1.056-15.64 1.69-23.495.634-7.855 1.198-14.798 2.183-20.83.916-6.032 2.184-11.222 3.663-17.884 1.479-6.663 3.169-14.728 4.225-22.303.986-7.574 1.338-14.658.775-21.601-.563-6.944-1.901-13.817-3.028-18.586-1.127-4.769-2.113-7.434-2.817-9.187-.775-1.824-1.268-2.736-1.62-3.227-.352-.491-.423-.561-1.902-.35-1.408.21-4.155.561-7.958.911-4.085.421-9.015.632-12.466.772z" fill="#101E25"/><path fill-rule="evenodd" clip-rule="evenodd" d="M326.502 167.27c1.479 3.296 3.662 9.258 5.353 13.816 1.197 3.297 2.112 5.751 2.817 7.785.422 0 .986-.07 1.619-.07 2.395-.21 6.409-.631 11.551-1.473 3.31-.561 14.296-1.964 16.761-3.366.916-.561 2.395-1.333 3.24-2.174.845-.842 1.127-1.613 1.69-2.525.564-.912 1.338-1.964 2.395-2.876 1.127-.911 2.465-1.753 3.451-2.174.915-.421 1.408-.351 1.549-.21.141.14 0 .421-.141.701-.07.281-.141.491-.563.912-.493.351-1.409.912-1.902 1.262-.563.421-.704.702-.845.912-.141.281-.141.491-.141.701.071.211.141.281 1.127.351.916.07 2.676.07 4.226.07 1.549 0 2.887.07 3.733.14.774.071 1.056.211 1.197.351.141.14.141.351-.141.631-.282.281-.775.702-1.268 1.193-.563.491-1.197 1.753-2.042 2.454-2.113 1.683-1.972 1.824-5 2.455-.916.21-2.184-.07-3.311.21-1.126.351-1.972.772-2.817 1.193-1.62.771-2.746 1.262-4.366 2.104-3.31 1.683-9.931 4.769-14.931 6.803s-8.31 3.015-10.987 3.717c-2.676.701-4.648 1.052-6.268.491-1.549-.561-2.676-1.964-3.521-2.946-.282-.28-.563-.561-.775-.841-.704-.491-1.408-1.193-2.113-1.964-2.394-2.595-5.141-6.873-6.901-10.24-1.832-3.366-2.677-5.821-3.029-7.855-.352-2.034-.07-3.507.634-5.19.775-1.683 1.972-3.436 3.31-4.769 1.268-1.332 2.676-2.314 3.24-2.946.563-.631.422-.981.704-.771.211.14.986.842 2.465 4.138z" fill="#FFAF69"/><path fill-rule="evenodd" clip-rule="evenodd" d="M317.84 153.313c.915-.491 2.183-.912 2.817-1.052.634-.21.634-.21.704-.07.07.14.282.351 1.127 1.403s2.324 3.015 4.085 7.013c1.69 3.998 3.662 10.17 4.789 13.606 1.127 3.437 1.338 4.208 1.479 4.699.141.491.211.772 0 1.052-.212.351-.775.772-1.972 1.192-1.198.421-3.099.912-4.296 1.123-1.198.21-1.691.21-2.465-.351-.775-.561-1.902-1.753-2.747-3.577-.775-1.823-1.268-4.278-1.902-6.943-.633-2.595-1.478-5.401-2.112-8.206-.634-2.805-1.057-5.541-.986-7.224 0-1.613.563-2.174 1.479-2.665z" fill="#CBCCCD"/><path fill-rule="evenodd" clip-rule="evenodd" d="M269.174 187.398c-.282 2.595-.564 6.312-.634 9.398-.141 3.086-.141 5.471.07 7.084.212 1.613.634 2.385 1.972 2.805 1.339.491 3.663.632 5.001 0 1.338-.631 1.76-1.963 2.253-4.067.493-2.104 1.127-5.05 1.691-7.855a250.23 250.23 0 001.408-7.715c.282-2.104.352-3.507.212-4.699-.141-1.122-.564-1.964-1.127-2.385-.634-.421-1.409-.421-2.465-.491-1.057-.07-2.395-.21-3.24-.21-.915-.07-1.338-.07-1.831.21-.493.211-.916.702-1.338 1.122-.352.421-.704.842-.986 1.824-.423.841-.704 2.384-.986 4.979z" fill="#FFAF69"/><path fill-rule="evenodd" clip-rule="evenodd" d="M381.295 181.087c.704-1.052 1.268-2.104 2.042-3.227.775-1.122 1.691-2.174 2.888-2.875 1.127-.702 2.465-1.052 3.169-1.263.704-.21.704-.42.423-.771-.212-.421-.705-1.052-1.268-1.613-.563-.561-1.197-1.122-1.761-1.473-.563-.351-.986-.561-1.479-.631-.493-.14-.986-.211-1.69-.421-.704-.14-1.62-.421-2.254-.631-.633-.211-.915-.421-1.126-.421-.212 0-.423.14-1.339 1.262-.915 1.123-2.535 3.297-3.662 4.77-1.127 1.472-1.831 2.384-2.676 3.717-.845 1.332-1.902 3.086-2.465 4.138s-.563 1.332-.423 1.543c.141.21.423.28 1.339.42.915.141 2.535.351 3.944.421 1.408.07 2.605 0 3.591-.491 1.127-.491 1.972-1.473 2.747-2.454z" fill="#47B909"/><path fill-rule="evenodd" clip-rule="evenodd" d="M293.049 144.897c-.211-.771-.211-.771-.704-.561-.423.21-1.338.631-3.451 1.473-2.113.841-5.564 2.174-8.17 3.507-2.606 1.332-4.366 2.665-5.423 3.576-1.056.912-1.338 1.263-1.408 1.543-.071.281.141.491 1.127 1.052s2.746 1.543 4.014 4.699c1.268 3.156 1.972 8.557 2.042 17.113.141 8.556-.352 20.339-1.479 30.088-1.127 9.818-3.028 17.603-4.084 23.845-1.127 6.242-1.479 10.801-1.62 13.115-.212 2.245-.212 2.245.211 2.315.423.14 1.197.421 3.099.561 1.901.14 5 .14 7.536-.07 2.535-.211 4.577-.702 10.705-.772 6.197-.07 16.55.211 22.536.632 5.987.42 7.536.911 8.733 1.402 1.198.421 1.972.772 2.465.842.493 0 .705-.281.845-.491.141-.211.282-.421-.281-3.998-.564-3.577-1.761-10.66-2.606-17.814s-1.268-14.448-1.197-23.846c.07-9.398.634-20.829.563-27.562-.07-6.733-.775-8.767-1.831-10.941-1.056-2.174-2.535-4.559-3.169-5.681-.705-1.192-.634-1.122-.423-1.964.211-.841.564-2.525.704-3.366.141-.842.141-.912-.493-1.613-.633-.702-1.901-1.964-4.155-3.297-2.253-1.332-5.423-2.595-7.747-3.506-2.324-.912-3.803-1.333-4.507-1.543-.704-.211-.704-.281-.634.631.07.912.282 2.665-.211 3.857-.493 1.193-1.55 1.824-3.31 1.824-1.761 0-4.226-.631-5.635-1.683-1.479-.982-1.831-2.595-2.042-3.367z" fill="#E1E2E1"/><path fill-rule="evenodd" clip-rule="evenodd" d="M278.4 154.926a6.164 6.164 0 00-2.747-1.262c-.704-.07-1.127-.07-1.338 0-.211 0-.211 0-.634.491-.422.491-1.197 1.403-2.253 5.05-1.057 3.647-2.324 10.029-3.029 14.658-.704 4.628-.774 7.504-.845 9.538-.141 1.964-.282 3.086-.141 3.787.141.701.493.982 1.62 1.192 1.057.281 2.817.491 5.141.491s5.142-.21 6.761-.42c1.691-.211 2.184-.491 2.606-.702.493-.28.916-.491 1.127-.631.211-.14.211-.14.07-2.946-.14-2.805-.352-8.486-.915-13.185-.564-4.699-1.409-8.486-2.324-11.081-.986-2.665-2.043-4.068-3.099-4.98z" fill="#E1E2E1"/><path fill-rule="evenodd" clip-rule="evenodd" d="M369.956 183.19c-.212-.14-.141-.21.07-.841.282-.631.775-1.683 1.268-3.226.563-1.473 1.127-3.367 1.62-5.331a95.7 95.7 0 001.126-4.909c.212-1.052.353-1.262.564-1.333.211-.07.563-.14 1.338 0 .845.141 2.183.421 3.592.562 1.408.07 2.958 0 3.803 0 .845 0 .916.14.775 1.122-.141.911-.564 2.665-.986 3.997-.423 1.333-.775 2.315-.986 2.946-.212.631-.212.912-.493 1.683-.282.702-.775 1.894-1.198 2.595-.352.701-.633.982-1.197 1.403-.563.491-1.479 1.122-1.831 1.543-.423.421-.352.631-.775.701-.422.07-1.408.07-2.113 0-.704-.07-1.126-.14-1.619-.21-.564-.07-1.198-.141-1.761-.281-.563-.21-.986-.35-1.197-.421z" fill="#64C324"/><path fill-rule="evenodd" clip-rule="evenodd" d="M280.865 113.056c.704.141 2.254.07 4.296-.421 2.042-.42 4.719-1.262 6.198-3.015 1.479-1.684 1.76-4.279 2.958-5.821 1.197-1.543 3.239-2.105 4.507-3.086 1.268-.982 1.761-2.455 1.972-3.788.211-1.402.211-2.665.211-3.647v-1.963c0-.351-.07-.351-.493-.421-.493-.07-1.408-.28-2.253-.35-.846-.071-1.62 0-2.536.14-.986.14-2.113.35-3.099.56a14.79 14.79 0 00-2.535.982 17.96 17.96 0 00-1.972 1.123c-.634.42-1.197.911-1.831 1.402a17.025 17.025 0 00-1.902 1.964 21.633 21.633 0 00-1.831 2.595c-.493.842-.775 1.683-1.056 2.455a25.667 25.667 0 00-.493 2.244 13.832 13.832 0 00-.211 2.455c-.071.841-.071 1.683-.071 2.454 0 .772-.07 1.333-.141 1.894-.07.561-.141 1.052-.141 1.473-.281.421-.352.701.423.771z" fill="#3F3D2E"/><path fill-rule="evenodd" clip-rule="evenodd" d="M300.303 91.665c.071.772-.211 2.174 0 3.437.211 1.262.916 2.385 2.324 3.226 1.409.912 3.451 1.613 5.141 2.595 1.691.982 2.958 2.314 3.451 3.717.493 1.403.212 2.806.071 3.858-.141 1.052-.211 1.683 0 2.454.211.772.563 1.754 1.197 2.525.634.772 1.62 1.403 2.465 1.894.845.491 1.549.982 1.972 1.402.423.421.634.912.845.632.211-.281.493-1.123.704-2.736a29.98 29.98 0 00.071-7.294c-.282-3.226-1.127-7.294-1.972-9.888-.916-2.525-1.831-3.577-3.521-4.56-1.691-.981-4.015-1.823-5.776-2.314-1.76-.49-2.957-.56-4.225-.49-1.268.07-2.536.28-2.958.42-.352.28.141.35.211 1.122z" fill="#3F3D2E"/><path fill-rule="evenodd" clip-rule="evenodd" d="M314.741 97.767c-.775-.982-2.254-2.525-4.508-3.717-2.253-1.192-5.282-2.034-8.24-2.385-2.958-.28-5.845-.07-8.874 1.052-3.028 1.052-6.338 3.016-8.662 5.611-2.324 2.595-3.733 5.891-4.367 8.767a22.998 22.998 0 00-.493 6.382c.071 1.122.212.982.352.842.212-.211.423-.421.775-.631.282-.211.704-.351.845-.421.212-.07.212-.07.634-1.613.423-1.543 1.338-4.559 2.888-7.435 1.549-2.945 3.803-5.75 6.479-7.504 2.606-1.753 5.634-2.525 8.381-2.735 2.676-.28 5.141-.07 7.113.35a16.158 16.158 0 015 1.964c1.409.912 2.606 2.034 3.099 2.455.564.35.352-.07-.422-.982z" fill="#FDE742"/><path fill-rule="evenodd" clip-rule="evenodd" d="M298.12 94.05c.563 0 1.197-.07 1.69-.14.493-.07.775-.07.915-.491.141-.421.141-1.122.282-1.683.141-.562.352-.982.071-1.123-.282-.14-1.057 0-1.62 0-.564 0-.986 0-1.409.21-.422.211-.986.772-1.338 1.193-.352.42-.422.701-.422.982 0 .28.14.561.493.701.281.28.774.35 1.338.35z" fill="#F9E349"/><path fill-rule="evenodd" clip-rule="evenodd" d="M299.035 90.192c0-1.052-.141-2.594-.563-3.857-.352-1.262-.916-2.174-1.55-2.875-.633-.702-1.408-1.123-1.972-1.473-.563-.421-1.056-.842-1.267-.912-.282-.14-.282.07-.282.491 0 .42.071 1.122.071 1.613 0 .561-.071.912-.212 1.403-.141.49-.281 1.122-.281 1.753 0 .631.211 1.263.352 1.543.141.35.211.35.633.772.493.42 1.268 1.192 1.832 1.683.493.49.704.63.986.841.211.14.563.351.845.491.352.21.774.421 1.056.21.211-.14.352-.63.352-1.683zm1.479 1.263c0-.561.211-1.263.704-2.104a9.848 9.848 0 012.113-2.525c.916-.771 2.043-1.403 3.169-1.824 1.127-.42 2.254-.56 3.029-.7.704-.141 1.056-.211 1.338-.422.282-.21.634-.42.775-.35.141.14.141.63.141 1.122-.071.49-.141 1.052-.423 1.683-.282.631-.704 1.333-1.268 2.104-.563.772-1.197 1.683-2.535 2.244-1.338.561-3.451.772-4.648 1.052-1.198.28-1.62.632-1.902.632-.352-.07-.493-.351-.493-.912z" fill="#FDE742"/><path fill-rule="evenodd" clip-rule="evenodd" d="M268.751 196.376c-.211 1.332-.211 3.366-.141 5.33.071 1.964.212 3.927 2.113 6.031 1.902 2.175 5.635 4.489 10.424 6.944 4.789 2.454 10.634 4.979 14.015 6.312 3.38 1.332 4.155 1.332 4.718 1.473.564.07.845.21 1.127-.071.282-.28.564-.911.845-1.472.212-.562.423-1.052.212-1.543-.212-.491-.705-1.052-3.874-3.437s-8.874-6.733-12.677-9.819c-3.803-3.086-5.705-4.979-6.55-6.101-.915-1.123-.774-1.613-.986-2.104-.211-.491-.704-1.123-1.338-1.684-.634-.561-1.479-1.192-2.606-1.613-1.126-.421-2.605-.771-3.662-.561-.915.211-1.408.912-1.62 2.315zm112.473-14.518c.916-.701 1.409-1.192 1.832-1.613.352-.351.563-.561.633-.842.071-.28-.07-.631-.07-.982 0-.35.07-.701-.141-1.052-.211-.35-.704-.771-1.479-.911-.704-.141-1.62-.071-2.394.07-.775.14-1.338.35-1.902.491-.563.14-1.127.21-1.549.42-.493.211-.916.491-1.057.842-.141.351 0 .631.071.842.07.21.211.21.07.28-.07.07-.352.211-.493.491-.141.281-.211.631-.141.982 0 .281.141.491.352.771.212.281.564.632.775.842.211.21.352.281.352.701 0 .421-.211 1.123-.141 1.403.071.281.423.21.705.07.352-.14.704-.28 1.479-.771.915-.491 2.183-1.333 3.098-2.034z" fill="#FFAF69"/><path fill-rule="evenodd" clip-rule="evenodd" d="M329.249 223.868c.211.351.141.772-.423 1.683-.493.912-1.408 2.385-2.183 3.577-.775 1.263-1.408 2.315-1.831 3.086-.422.702-.634 1.122-.845 1.333-.211.21-.493.14-1.056-.07-.493-.211-1.268-.632-1.972-1.052-.775-.421-1.55-.842-2.677-1.754-1.197-.911-2.676-2.244-3.662-3.086-.915-.771-1.268-1.052-1.549-1.262-.212-.21-.352-.491-.423-.842-.07-.35-.07-.841-.07-1.192s-.071-.631.141-.982c.14-.421.493-.912.845-1.613s.704-1.543.915-2.244c.211-.702.352-1.193.493-1.473.141-.281.352-.351.704-.421.353 0 .986 0 1.832.14.845.141 2.042.421 3.098.912 1.127.491 2.184 1.122 3.311 1.754a136.04 136.04 0 013.028 1.753c.704.421.915.561.986.631.07.07.07.07.352.21.282.281.775.562.986.912z" fill="#101E25"/><path fill-rule="evenodd" clip-rule="evenodd" d="M320.798 229.83c.422-.141.845-.211 1.126-.281.282-.07.353-.21.353-.35 0-.211-.212-.421-.282-.632-.071-.21-.141-.35 0-.42.141-.071.493-.071.704-.141a.724.724 0 00.423-.35c0-.211-.071-.421-.775-.772-.704-.351-1.902-.842-2.958-1.262-.986-.421-1.761-.772-2.535-1.122-.775-.351-1.479-.842-1.972-1.193-.564-.421-.916-.771-1.057-.982-.141-.28-.141-.42-.07-.561.07-.21.07-.421.141-.631.07-.21.141-.28-.352-.491-.423-.14-1.409-.351-2.888-.561-1.479-.14-3.592-.28-5.141-.491-1.55-.21-2.676-.491-3.381-.771-.704-.281-.986-.561-1.408-.912-.423-.351-.986-.842-1.268-1.052-.282-.21-.282-.211-.423-.07-.14.14-.352.491-.563.912-.211.42-.423.981-.634 1.683-.282.701-.563 1.473-.775 1.893-.14.421-.14.421.353.561.493.141 1.479.421 2.535.982 1.056.561 2.254 1.403 3.31 2.385 1.057.982 1.972 2.034 2.817 2.875a8.802 8.802 0 002.606 1.824c.916.421 1.972.701 2.958.912 1.056.28 2.042.491 2.958.631.845.14 1.62.28 2.254.28.633.07 1.267.071 1.831.071.634 0 1.197.07 1.479-.141.281-.21.211-.561 0-.771-.141-.211-.352-.281-.282-.421.211-.21.493-.491.916-.631z" fill="#FFAF69"/><path fill-rule="evenodd" clip-rule="evenodd" d="M316.149 218.468c-.211.07-.352.281-.282.421 0 .21.141.421.564.771.422.281 1.127.632 2.113 1.052.986.421 2.324.912 3.521 1.403s2.183.912 2.958 1.333c.845.42 1.409.911 1.761 1.122.352.21.422.28.493.421.07.14.07.42-.493 1.613-.564 1.192-1.761 3.366-2.395 4.629-.634 1.262-.845 1.542-.915 1.823-.141.21-.141.421-.141.491s.141.14.141.14c.07 0 .07 0 .14-.14.071-.14.282-.421.916-1.613.704-1.192 1.902-3.367 2.606-4.629.704-1.333.845-1.753.915-2.104.071-.351.141-.561.141-.772 0-.21 0-.35-.986-.911a160.187 160.187 0 00-4.366-2.385c-1.55-.841-2.676-1.473-3.592-1.893-.916-.421-1.479-.632-1.972-.702-.493-.21-.845-.14-1.127-.07z" fill="#B1B1B1"/><path fill-rule="evenodd" clip-rule="evenodd" d="M316.642 219.45c.071-.211.353-.631.493-.982.212-.351.282-.561.493-.701.212-.141.564-.281.775-.211.282.07.493.281 1.057.561.563.281 1.478.632 2.535 1.052 1.056.421 2.254.982 3.31 1.403 1.056.421 1.972.842 2.465 1.122.493.281.563.421.563.631 0 .211-.14.421-.281.702-.141.28-.423.561-.564.841-.141.281-.281.561-.422.702-.071.14-.212.07-.352-.07a6.77 6.77 0 00-.916-.772c-.493-.351-1.197-.771-1.831-1.122-.634-.351-1.127-.561-1.62-.842-.563-.28-1.197-.491-1.972-.771-.775-.281-1.69-.491-2.254-.702-.633-.21-.915-.35-1.197-.42-.141-.07-.352-.141-.282-.421z" fill="#47B909"/><path fill-rule="evenodd" clip-rule="evenodd" d="M290.373 145.458c-.071-.14-.071-.14.07-.21.141-.07.423-.211.705-.281.281-.14.493-.21.774-.35l.705-.351.14-.07.141.421c.141.42.423 1.332.775 2.034a4.352 4.352 0 001.338 1.613c.564.42 1.197.771 1.972 1.052.775.28 1.69.491 2.465.561.775.07 1.338.07 1.902 0 .563-.07.986-.211 1.408-.491.423-.281.704-.561.986-1.052.211-.491.423-1.122.493-1.613.071-.491.071-.912.071-1.403s-.071-1.122-.071-1.473c-.07-.351-.07-.421.071-.421.14 0 .493.141.915.281.423.14.845.28 1.127.351.282.07.352.14.423.14.07 0 .211.07.281.07.071 0 .071 0 .071.771.07.702.141 2.175 0 3.507-.071 1.263-.423 2.385-1.268 3.156-.916.772-2.395 1.333-4.014 1.473-1.62.14-3.381-.07-4.93-.631-1.62-.561-3.099-1.543-4.085-2.665-1.057-1.122-1.62-2.385-1.972-3.226-.352-.702-.423-1.053-.493-1.193z" fill="#CBCCCD"/><path fill-rule="evenodd" clip-rule="evenodd" d="M54.37 349.829c2.817 0 5.14-2.314 5.14-5.119 0-2.806-2.323-5.12-5.14-5.12-2.817 0-5.142 2.314-5.142 5.12 0 2.805 2.325 5.119 5.142 5.119z" fill="#403E32"/><path d="M43.575 349.772c2.803-.453 4.706-3.083 4.251-5.874-.454-2.791-3.095-4.687-5.898-4.234-2.803.453-4.706 3.083-4.251 5.874.455 2.791 3.095 4.687 5.898 4.234zm38.051.057c2.839 0 5.14-2.292 5.14-5.119 0-2.828-2.301-5.12-5.14-5.12-2.84 0-5.142 2.292-5.142 5.12 0 2.827 2.302 5.119 5.142 5.119z" fill="#403E32"/><path fill-rule="evenodd" clip-rule="evenodd" d="M93.387 349.829c2.817 0 5.141-2.314 5.141-5.119 0-2.806-2.324-5.12-5.141-5.12s-5.141 2.314-5.141 5.12c0 2.805 2.324 5.119 5.14 5.119z" fill="#141515"/><path fill-rule="evenodd" clip-rule="evenodd" d="M38.594 238.526h58.878c5.845 0 10.564 4.769 10.564 10.521v84.932c0 5.821-4.789 10.52-10.564 10.52H38.594c-5.845 0-10.564-4.769-10.564-10.52v-84.932c-.07-5.822 4.719-10.521 10.564-10.521z" fill="#4F4D3E"/><path d="M95.007 336.574H41.059v7.996h53.948v-7.996z" fill="#E8E4BE"/><path d="M43.665 260.338h-3.803v73.431h3.803v-73.431zm10.353 0h-3.803v73.431h3.803v-73.431zm10.634 0H60.85v73.431h3.803v-73.431zm10.776 0h-3.803v73.431h3.803v-73.431zm9.719 0h-3.803v73.431h3.803v-73.431zm10.563 0h-3.802v73.431h3.803v-73.431zm-40.354-26.581H49.51v4.769h5.846v-4.769zm31.411 0H80.92v4.769h5.846v-4.769z" fill="#403E32"/><path d="M54.863 182.77h-4.86v50.987h4.86V182.77zm31.481 0h-4.86v50.987h4.86V182.77z" fill="#E8E4BE"/><path fill-rule="evenodd" clip-rule="evenodd" d="M52.257 170.286h31.692c1.69 0 3.1 1.403 3.1 3.086v9.328h-6.34v-6.242H55.498v6.242h-6.339v-9.328c0-1.683 1.409-3.086 3.099-3.086zM28.945 336.434c-.07.07-.21.07-.352 0-.07-.07-.07-.211 0-.351l7.325-7.154v-80.233l-5.775-5.33c-.07-.07-.07-.211 0-.351.07-.07.211-.07.352 0l5.775 5.4c.07.07.07.141.07.211v80.444c0 .07 0 .14-.07.14l-7.325 7.224zm78.175 0c.07.07.211.07.352 0 .071-.07.071-.211 0-.351l-7.324-7.154v-80.233l5.775-5.33c.07-.07.07-.211 0-.351-.071-.07-.212-.07-.352 0l-5.775 5.4c-.07.07-.07.141-.07.211v80.444c0 .07 0 .14.07.14l7.324 7.224z" fill="#403E32"/><path fill-rule="evenodd" clip-rule="evenodd" d="M484.401 129.047c.211-.912.775-1.824 1.127-3.016.281-1.192.352-2.665.422-3.366 0-.702 0-.702.564-.772.563-.07 1.619-.14 3.098-.491 1.409-.35 3.24-1.052 4.93-1.753 1.691-.772 3.381-1.613 4.226-1.894.845-.35.845-.14.775.631 0 .772-.071 2.034-.071 3.577.071 1.543.212 3.297.423 4.489.211 1.192.493 1.753.563 2.244.071.491-.07.912-.774 1.964-.705 1.052-1.902 2.805-3.029 3.998-1.127 1.192-2.254 1.893-3.592 2.384-1.338.491-2.958.701-4.155.631-1.197-.07-1.972-.491-2.606-1.472-.634-.982-1.197-2.595-1.549-3.858-.423-1.332-.564-2.314-.352-3.296z" fill="#FFAF69"/><path fill-rule="evenodd" clip-rule="evenodd" d="M509.191 346.463c-.563.842-1.408 2.385-1.972 4.278-.563 1.894-.845 4.208-.915 5.611-.071 1.403.141 1.823.563 2.104.423.28 1.198.351 3.944.421 2.747 0 7.536-.07 10.353-.141 2.817-.07 3.662-.14 4.085-.42.422-.211.493-.561.563-1.543.071-.982.071-2.525-.281-4.138-.282-1.613-.986-3.226-1.691-4.629-.704-1.403-1.408-2.525-1.972-3.016-.493-.491-.845-.351-1.901-.28-1.127.07-2.958.07-4.578.07-1.549 0-2.817.07-3.592.14-.774.07-1.197.14-1.549.281-.211.14-.493.35-1.057 1.262z" fill="#080902"/><path fill-rule="evenodd" clip-rule="evenodd" d="M516.093 357.404c-3.169.07-6.479.07-8.169.07-1.62 0-1.62 0-1.62.421v1.753c0 .561 0 .842.07.982.071.14.211.211.282.211.07 0 .07 0 1.972-.071 1.901 0 5.704-.07 8.803-.14 3.099-.07 5.423-.07 6.621-.07 1.267 0 1.408 0 1.479-.07.14-.07.211-.14.211-.211.07-.07.07-.14 0-.701 0-.491-.071-1.473-.141-1.964-.07-.491-.211-.491-1.761-.42-1.479.07-4.507.14-7.747.21z" fill="#FBD16B"/><path fill-rule="evenodd" clip-rule="evenodd" d="M421.932 177.79c-.775-.14-1.409-.35-2.676-.561-1.198-.21-3.029-.421-4.719-.561-1.69-.14-3.451-.28-4.86-.351-1.408-.07 2.536-.35 1.479-.911-4.437-2.525-7.183-5.471.353-5.611 2.112-.07.352.21 2.676.14 2.324-.14 3.803-.35 5.282-.21 1.408.14 2.817.561 3.38 1.192.564.631.423 1.403 2.325 2.034 1.901.561 6.901 1.122 9.014 1.403 2.113.28 2.183.28 3.029.421 5.704.911 9.93.911 11.409 1.052 1.549.14 1.127.07 1.62.07.704-1.964 1.62-4.489 2.817-7.785 1.69-4.489 3.873-10.45 5.352-13.817 1.479-3.296 2.254-3.997 2.536-4.208.281-.21.141.141.704.772s1.902 1.613 3.24 2.945c1.267 1.333 2.535 3.156 3.31 4.77.774 1.683.986 3.156.634 5.189-.353 2.034-1.198 4.489-3.029 7.855-1.831 3.367-4.507 7.645-6.902 10.24a17.043 17.043 0 01-2.113 1.964c-.211.28-.493.491-.774.841-.916.982-1.972 2.385-3.522 2.946-1.549.561-3.38 1.052-6.056.351-2.677-.702-3.522-.772-8.522-2.735-4.719-1.894-9.367-5.471-15.987-7.435z" fill="#FFAF69"/><path fill-rule="evenodd" clip-rule="evenodd" d="M496.726 128.977c-.916 1.122-1.761 2.174-2.676 3.015a11.267 11.267 0 01-2.817 2.034c-.846.421-1.55.561-2.254.211-.704-.351-1.338-1.193-1.902-2.595-.563-1.473-1.056-3.577-1.338-4.559-.282-1.052-.282-1.052-.915-.421-.705.631-2.043 1.824-5.071 3.226-3.029 1.403-7.747 3.016-10.916 4.138-.916.281-4.297 1.193-4.79 1.543-7.535 5.19-10.212 27.072-10.212 27.072 2.888.211 9.438 3.717 13.734 3.787 4.296.141 7.606 29.807 13.804 29.878 6.197.07 13.029.14 18.1.14 5.07 0 8.31-.14 10.071-.14 1.76-.071 2.042-.141 2.183-1.473.211-1.403.352-4.138.563-7.084.212-2.945.493-6.172 1.057-8.907.563-2.735 1.408-4.909 2.042-6.031.634-1.123 1.127-1.193 2.184-1.403 1.056-.21 2.746-.701 4.859-1.333 2.113-.701 4.648-1.613 6.127-2.244 1.479-.631 1.831-.912 2.043-1.332.211-.351.352-.772-.071-4.209-.422-3.436-1.479-9.888-2.676-14.447-1.197-4.489-2.465-7.154-3.31-8.486-.845-1.403-1.127-1.543-3.31-2.385-2.184-.842-6.198-2.314-9.719-4.068-3.522-1.753-6.62-3.787-8.522-5.049-1.902-1.263-2.535-1.754-2.888-2.034-.352-.281-.352-.281-.845.35-.563.561-1.549 1.684-2.535 2.806z" fill="#4AAB3C"/><path fill-rule="evenodd" clip-rule="evenodd" d="M488.274 133.255c.564.842.916 1.052 1.198 1.122.281.07.493.07 1.267-.421.775-.491 2.184-1.543 3.733-3.015 1.549-1.473 3.381-3.297 4.367-4.208.985-.912 1.126-.912 1.831-.562.704.351 1.831.912 2.465 1.403.633.421.633.631.281 1.894-.422 1.192-1.197 3.436-2.183 5.54-.986 2.175-2.183 4.208-3.099 5.401-.915 1.192-1.479 1.473-2.183 1.332-.704-.21-1.549-.911-2.606-1.964-1.056-1.122-2.324-2.594-3.028-3.366-.705-.771-.845-.771-1.902 0-1.056.701-3.099 2.174-4.507 3.016-1.479.841-2.465.982-3.029.982-.633-.07-.845-.281-.915-1.333-.071-.982.141-2.735.211-4.418.071-1.684.071-3.226 0-4.138 0-.912 0-1.122.211-1.403.212-.28.705-.561 1.62-1.052.916-.491 2.254-1.192 2.958-1.473.705-.21.775 0 .916.561.141.561.352 1.473.845 2.665.352 1.123 1.056 2.595 1.549 3.437z" fill="#5DC94C"/><path fill-rule="evenodd" clip-rule="evenodd" d="M473.485 150.859c.14 4.699.14 10.029.211 12.904.07 2.876.211 3.297.422 3.507.212.211.564.351 3.099.421 2.465.07 7.113.14 11.409.351 4.297.14 8.381.42 10.424.561 2.113.14 2.183.14 2.746-3.156.493-3.297 1.409-9.959 2.606-15.64 1.198-5.681 2.606-10.38 3.451-13.186.775-2.735.986-3.576 1.127-4.067.141-.491.282-.772.423-.842.14-.07.281 0 .422.14.141.141.282.281.634.421.352.14.845.281 1.268.421.493.07.915.14 1.197.21.282.07.423.141.493.351.07.14 0 .351-.916 3.998-.915 3.647-2.746 10.66-3.662 18.936-.915 8.276-1.056 17.814-1.056 23.495 0 5.681.07 7.645.211 8.977.141 1.333.282 2.104.986 2.455.704.35 1.902.28 2.465.631.563.281.493.982.493 1.333 0 .35 0 .35.352 2.314.423 1.964 1.197 5.961 1.831 11.782.705 5.892 1.268 13.677 1.902 25.95.634 12.274 1.197 28.966 2.465 47.481 1.267 18.515 3.169 38.854 4.014 49.304.845 10.45.704 10.941.423 11.222-.282.28-.705.28-3.733.491-3.028.21-8.592.631-11.409.701-2.817.07-2.888-.14-3.803-5.12-.845-4.909-2.536-14.517-4.367-25.248-1.831-10.731-3.803-22.583-5.916-34.927-2.113-12.343-4.225-25.178-5.493-32.191-1.197-7.014-1.479-8.206-1.761-8.907-.281-.632-.493-.702-.563.07-.071.771.141 2.524-.282 13.746-.422 11.221-1.479 31.911-2.394 48.673a5143.278 5143.278 0 01-2.113 36.47c-.423 6.803-.423 7.504-.352 8.276 0 .771.07 1.613-1.691 1.473-1.76-.141-5.423-1.403-8.31-2.525-2.888-1.122-5.141-2.245-6.268-2.806-1.197-.561-1.338-.701-1.409-.771-.141-.14-.281-.281-.352-4.699-.07-4.419-.07-12.975-.563-28.264-.493-15.219-1.409-37.101-1.761-52.811-.282-15.71.07-25.319.916-34.787.845-9.468 2.253-18.726 3.38-29.877 1.057-11.151 1.902-24.266 2.254-33.454.352-9.258.282-14.658.282-17.534-.071-2.875-.071-3.226.14-3.366.212-.14.634-.21 1.127-.351.493-.14 1.057-.35 1.62-.561.563-.21 1.056-.421 1.409-.421.352 0 .563.211.633.351.071.14.071.281.141 1.192.071.912.141 2.525.423 5.331.211 2.875.563 6.873.775 11.572z" fill="#101E25"/><path fill-rule="evenodd" clip-rule="evenodd" d="M476.302 234.599c.774 2.244 2.183 5.961 3.239 8.556 1.057 2.525 1.831 3.928 2.324 5.962.493 2.034.846 4.769 1.339 6.662.492 1.894 1.267 3.016 1.619 3.507.353.561.352.561.493-2.244.141-2.806.352-8.486.423-12.274.141-3.857.141-5.891.211-7.083.071-1.263.141-1.683.141-1.964 0-.21 0-.21-.775-.491-.774-.281-2.394-.842-3.803-1.613-1.408-.772-2.606-1.683-3.521-2.385-.916-.701-1.55-1.262-1.902-1.262-.352 0-.634.491-.634 1.122-.07.631.071 1.333.846 3.507zm4.93-56.528c-2.465-.07-5.283-.141-6.621-.211-1.408-.07-1.408-.07-1.408 2.946-.071 3.016-.141 9.047-.212 13.536-.07 4.488-.14 7.504 0 9.117.071 1.613.282 1.894 2.818 2.385 2.535.421 7.394.982 11.198 1.262 3.803.211 6.479.141 8.099-.07 1.62-.21 2.183-.631 2.465-1.262.281-.631.352-1.473.352-6.102 0-4.629-.071-12.975-.071-17.113v-4.208h-1.619c-1.62 0-4.86 0-7.607-.07-2.746-.07-4.93-.14-7.394-.21zm25.917 18.375a.45.45 0 01.422-.561c.282-.07.564.14.564.421.634 4.208 1.338 8.416 1.901 12.904a287.534 287.534 0 011.691 14.869c.493 5.751.986 12.133 1.479 19.778.493 7.083 1.056 15.149 1.831 24.827 1.62 20.059 4.085 46.359 6.55 72.659v.07c0 .281-.212.491-.493.562-.282 0-.493-.211-.564-.491v-.071c-2.465-26.44-4.93-52.811-6.55-72.659-.774-9.608-1.338-17.744-1.831-24.827a850.315 850.315 0 00-1.479-19.708 293.363 293.363 0 00-1.69-14.798c-.563-4.629-1.197-8.767-1.831-12.975zm-45.707 140.759c-.141.912-.071 2.595-.071 3.858 0 1.262.071 2.034.071 2.665.07.631.14.982.633 1.543.564.561 1.55 1.262 2.958 1.823 1.409.561 3.24.982 5.001 1.263 1.76.21 3.38.28 4.93.21 1.549-.07 3.028-.28 4.225-.491 1.198-.21 2.113-.491 2.536-.982.422-.491.422-1.262.422-2.174-.07-.841-.141-1.894-.07-2.805.07-.982.211-1.894.141-2.525-.071-.631-.493-.982-1.268-1.052-.775-.07-2.042.14-4.226.14-2.183 0-5.352-.28-7.676-.771-2.324-.421-3.803-1.052-4.86-1.403-1.056-.351-1.62-.491-1.972-.421-.422 0-.704.14-.774 1.122z" fill="#080902"/><path fill-rule="evenodd" clip-rule="evenodd" d="M503.557 341.133c.282 1.192.775 2.665.986 3.787.212 1.122.071 1.753.141 2.244 0 .491.141.842 1.479 1.193 1.338.35 3.733.631 6.902.35 3.169-.28 7.043-1.122 9.226-1.823 2.183-.702 2.606-1.192 2.958-1.683.352-.491.563-.912.563-1.754 0-.841-.211-2.104-.422-3.296-.211-1.192-.352-2.244-.704-2.876-.353-.631-.775-.841-1.479-.771-.634.07-1.479.491-2.747.912-1.268.42-3.099.841-5.212 1.192-2.113.28-4.507.491-6.62.421-2.042-.07-3.733-.281-4.578-.07-.774.21-.774.981-.493 2.174z" fill="#080902"/><path fill-rule="evenodd" clip-rule="evenodd" d="M488.767 121.542c-.774.141-1.549.281-2.042.421-.493.211-.704.421-.775.912-.141.491-.211 1.262-.282 1.824-.07.561-.14.911.141 1.262.282.351.845.631 1.831.701.916.141 2.254.07 3.733-.35 1.479-.421 3.24-1.193 4.648-1.894 1.409-.701 2.395-1.333 2.888-1.683.493-.351.493-.351.493-.702v-3.857c0-.14-.071-.351-.352-.28-.352.07-.986.49-2.395 1.052-1.408.561-3.521 1.262-5 1.753-1.409.491-2.113.701-2.888.841z" fill="#FF9E69"/><path fill-rule="evenodd" clip-rule="evenodd" d="M479.964 159.415l-.915 37.662-25.566-1.122.353-37.171 26.128.631z" fill="#F7CE66"/><path fill-rule="evenodd" clip-rule="evenodd" d="M479.964 159.415l-.916 37.662 9.438-6.452.211-31.701-8.733.491z" fill="#DBB158"/><path fill-rule="evenodd" clip-rule="evenodd" d="M505.177 109.129c-.282.14-.282.14-.634 1.332-.352 1.193-1.056 3.507-1.831 5.05-.775 1.543-1.62 2.314-3.24 3.507-1.69 1.192-4.155 2.805-6.268 3.647-2.113.911-3.873 1.052-5.071 1.122-1.197.07-1.76 0-2.958-.561-1.197-.561-3.098-1.613-4.718-3.226-1.691-1.614-3.099-3.647-3.874-5.19-.704-1.473-.775-2.385-.915-4.419-.141-2.034-.423-5.12-.775-8.907-.352-3.787-.775-8.276-.986-11.081-.211-2.735-.141-3.717.422-5.05.564-1.332 1.62-3.015 4.367-4.699 2.747-1.683 7.184-3.436 10.916-3.717 3.803-.28 6.973.982 9.367 2.034 2.395 1.052 4.015 2.034 5.071 3.086.986 1.052 1.409 2.244 1.761 3.507a33.35 33.35 0 01.845 3.997c.282 1.403.493 2.876.915 3.998a12.76 12.76 0 001.268 2.595c.352.561.423.912.563 1.122.141.21.282.28.493.491.212.21.493.631.705 1.613.141.912.211 2.385-.071 3.577-.281 1.192-.845 2.174-1.479 3.016-.704.841-1.479 1.613-2.183 2.104-.775.701-1.408.911-1.69 1.052z" fill="#FFAF69"/><path fill-rule="evenodd" clip-rule="evenodd" d="M486.02 102.957a.48.48 0 01.493-.491.48.48 0 01.493.491c.071.701.141 1.473-.211 2.174-.141.351-.422.702-.704.982-.282.281-.564.561-.845.772a2.14 2.14 0 01-.493.35c-.282.211-.493.351-.634.491-.071.07-.141.211-.211.281-.071.07-.071.21-.071.35v.211c0 .07.071.14.071.21l.211.211c.141.07.282.21.422.28.282.14.634.281.986.421.282.07.423.421.282.631-.07.281-.422.421-.634.281-.352-.141-.704-.281-1.056-.491a1.543 1.543 0 01-.564-.351c-.14-.14-.281-.21-.422-.351v-.07c-.141-.14-.211-.35-.282-.561-.07-.21-.07-.421-.07-.561 0-.21.07-.421.141-.631.07-.211.211-.351.352-.561.211-.211.422-.421.774-.631.141-.071.282-.211.493-.351.212-.211.493-.421.775-.631.211-.211.423-.491.564-.702.211-.491.14-1.052.14-1.683v-.07z" fill="#F46F2D"/><path fill-rule="evenodd" clip-rule="evenodd" d="M477.077 96.294c.493-.35 1.549-.701 2.464-.841.916-.14 1.761-.21 2.465-.14.775.07 1.479.21 1.972.42.423.21.634.561.634.842 0 .28-.141.56-.563.701-.423.14-.986.14-1.62.14h-1.761c-.634.07-1.338.21-1.831.281-.493.14-.845.21-1.197.14-.352 0-.775-.21-.986-.49-.141-.211-.07-.632.423-1.053zm14.789-1.122a.665.665 0 01.282-.701c.211-.14.563-.21 1.267-.14.634.07 1.62.21 2.606.56.986.351 2.043.772 2.676 1.263.634.49.916.912.916 1.262-.07.351-.423.702-.775.702-.352 0-.774-.35-1.338-.631-.563-.351-1.338-.702-1.972-.982-.704-.21-1.338-.351-1.831-.351-.493-.07-.915 0-1.197-.21-.423-.14-.564-.491-.634-.772zm-12.677 6.312a4.079 4.079 0 00-.141 1.613c.071.561.282 1.122.493 1.543.211.421.493.702.704.772.282.14.493.14.775-.07.282-.141.564-.491.775-.912.211-.421.352-.982.352-1.473a5.95 5.95 0 00-.211-1.613 1.815 1.815 0 00-.775-.982 1.758 1.758 0 00-1.197 0c-.352.281-.634.631-.775 1.122zm13.522 0a4.079 4.079 0 00-.14 1.613c.07.561.281 1.122.493 1.543.211.421.493.702.704.772.282.14.493.14.775-.07.281-.141.563-.491.774-.912.212-.421.352-.982.352-1.473a5.95 5.95 0 00-.211-1.613 1.81 1.81 0 00-.775-.982 1.758 1.758 0 00-1.197 0c-.352.281-.634.631-.775 1.122z" fill="#36342B"/><path fill-rule="evenodd" clip-rule="evenodd" d="M501.867 102.466a52.91 52.91 0 00-.282-5.26 29.727 29.727 0 00-1.056-5.12c-.423-1.403-.986-2.384-1.62-2.805-.705-.421-1.479-.14-2.747-.14-1.197.07-2.817-.07-4.085-.562a6.21 6.21 0 01-2.746-2.104c-.564-.7-.846-1.262-1.057-1.192-.211.14-.422.912-1.127 1.543-.704.702-1.972 1.263-3.732 1.613-1.761.421-4.015.631-5.987.631-1.901 0-3.521-.14-4.859-.56-1.268-.422-2.254-1.123-2.958-2.175-.704-1.052-1.268-2.454-1.55-3.787-.281-1.333-.281-2.665.212-3.717.422-1.052 1.338-1.964 2.324-2.385.915-.42 1.901-.42 2.324-.701.423-.28.282-.842.282-1.683 0-.842.141-2.034.986-3.437s2.394-3.086 4.225-3.717c1.831-.701 3.944-.42 5.494.07 1.549.491 2.465 1.333 3.098 1.894.705.631 1.198 1.052 1.832.912.633-.14 1.479-.912 2.465-1.403.986-.491 2.183-.772 3.944-.701 1.76.07 4.155.42 6.197 1.542 2.043 1.052 3.662 2.806 4.648 4.489.986 1.683 1.338 3.367 1.55 4.699.141 1.262.141 2.174.352 2.805.141.702.422 1.123.775 1.543.352.421.704.702.915 2.455.211 1.753.282 4.98.211 7.224-.07 2.314-.352 3.647-.422 4.348-.071.702-.141.702-.493.631-.423 0-1.197-.07-1.902.14-.704.211-1.338.772-1.972 1.614-.563.911-1.126 2.174-1.549 3.156-.423 1.052-.704 1.823-.986 2.174-.282.351-.493.21-.634-.07-.07-.211-.07-.702-.07-1.964z" fill="#403E32"/><path fill-rule="evenodd" clip-rule="evenodd" d="M488.978 179.403c.353 1.543.493 2.595 1.198 3.437.704.841 1.831 1.473 4.507 1.893 2.676.491 6.902.772 10.142.912 3.169.141 5.352 0 6.549-.07 1.127-.14 1.268-.351 1.479-.771.212-.491.423-1.263.916-3.437.423-2.174 1.127-5.751 1.409-7.574.352-1.824.352-1.824.422-1.754.07 0 .282.07.845.14.634.141 1.62.281 2.676.421 1.057.141 2.184.211 3.381-.14 1.268-.421 2.676-1.262 3.381-1.683l.704-.421-.071.701c-.07.702-.211 2.104-.986 5.05-.774 3.016-2.253 7.574-3.662 11.502-1.408 3.928-2.676 7.224-3.451 8.907-.775 1.683-1.127 1.824-2.887 1.894-1.761.07-4.93 0-9.508-.982-4.578-.982-10.564-2.806-13.874-3.787-3.31-.982-4.015-1.052-4.508-.982-.493.07-.915.28-1.972.982-1.056.701-2.746 2.033-4.014 2.735-1.268.701-2.042.771-2.606.771-.563 0-.845-.14-1.056-.21-.212 0-.212.07-.634.14a6.62 6.62 0 01-1.761.281c-.634 0-1.056-.141-1.268-.351-.211-.281-.211-.631-.14-.912.07-.28.14-.561.281-.912.141-.35.282-.841.493-1.192.212-.35.493-.631.916-.912.422-.21.986-.42 1.62-.701.563-.21 1.197-.491 1.479-.631.352-.14.422-.281.281-.351-.211-.07-.633-.14-1.056-.28-.423-.141-.845-.281-.986-.631-.141-.351-.07-.842.07-1.193.212-.35.423-.561.916-.771.493-.211 1.197-.491 2.183-1.333.986-.841 2.254-2.174 3.24-3.296.986-1.122 1.69-2.104 2.042-2.805.423-.702.564-1.123.423-1.964-.141-.842-.493-2.174-.634-3.016-.141-.842-.07-1.333.141-1.824.211-.49.563-1.122.845-1.332.282-.21.423-.07.634.14.211.211.493.491.845 1.683.282 1.123.704 3.086 1.056 4.629z" fill="#FFAF69"/><path fill-rule="evenodd" clip-rule="evenodd" d="M518.276 171.128c-1.338.42-2.113.631-2.465.701-.352.07-.422.07-.422.21 0 .07-.071.281 0 .351 0 .07.07.14.422.351.423.21 1.127.561 2.606.561 1.409 0 3.521-.351 5-.772 1.479-.421 2.254-.841 2.677-1.052.422-.21.422-.14.493-.701.07-.561.211-1.613.352-2.174.07-.561.07-.561-.493-.351-.564.21-1.69.701-3.24 1.192a68.737 68.737 0 01-4.93 1.684z" fill="#FF9E69"/><path fill-rule="evenodd" clip-rule="evenodd" d="M479.753 68.38c-.212.351-.986.913-1.409 2.175-.493 1.262-.634 3.086-.211 4.91.422 1.823 1.408 3.716 2.887 4.979 1.409 1.262 3.311 2.034 4.93 2.525 1.62.49 2.958.771 3.381 1.052.493.21.07.42-.564.49-.563.07-1.338.07-2.394-.14-1.127-.21-2.535-.56-3.803-1.052a22.132 22.132 0 01-3.451-1.472c-1.127-.491-2.183-1.123-3.029-1.894-.845-.772-1.408-1.824-1.76-2.595a4.309 4.309 0 01-.423-1.964c0-.631 0-1.332.141-2.034.141-.701.352-1.472.634-2.174.282-.631.563-1.192.915-1.613.353-.42.634-.701.986-.912.353-.21.634-.35 1.057-.49.422-.14.986-.211 1.479-.211.422 0 .775.07.634.42z" fill="#36342B"/><path fill-rule="evenodd" clip-rule="evenodd" d="M461.23 347.094c-.845.842-2.324 2.385-3.24 4.278-.845 1.894-1.126 4.208-1.197 5.611-.07 1.403.141 1.824.564 2.104.422.281 1.197.351 3.944.421 2.746 0 7.535-.07 10.352-.14 2.818-.07 3.663-.141 4.508-.281.915-.14 1.901-.28 2.676-.421.775-.14 1.268-.21 1.549-1.052.282-.841.282-2.384 0-3.647-.281-1.262-.845-2.244-1.126-3.717-.282-1.473-.212-3.436-.282-4.348-.141-.912-.423-.772-2.395-.701-1.972.14-5.563.21-7.958.28-2.395.07-3.662.07-4.437.14-.845.07-1.197.141-1.549.281-.352.07-.564.351-1.409 1.192z" fill="#080902"/><path fill-rule="evenodd" clip-rule="evenodd" d="M468.836 357.965c-3.873.07-7.958.07-10.001.07-2.042 0-2.042 0-2.042.421v1.753c0 .561 0 .842.07.982a.39.39 0 00.353.211c.07 0 .07 0 2.465-.071 2.324 0 6.972-.07 10.775-.14 3.733-.07 6.62-.07 8.099-.07 1.55 0 1.69 0 1.831-.07a.966.966 0 00.282-.21c.07-.071.07-.141 0-.702 0-.491-.07-1.473-.141-1.964-.07-.49-.211-.491-2.183-.42-1.831.07-5.634.14-9.508.21z" fill="#FBD16B"/><path fill-rule="evenodd" clip-rule="evenodd" d="M496.022 86.686c-.282-.982-1.972-2.385-3.029-3.858-1.056-1.543-1.408-3.156-1.267-4.839.14-1.683.845-3.296 1.619-4.489.775-1.192 1.62-1.893 2.536-2.384.915-.42 1.831-.631 2.253-.982.423-.35.212-.841-.281-1.122-.493-.28-1.338-.35-2.817.28-1.479.632-3.592 1.894-5.071 3.718-1.479 1.823-2.465 4.137-2.536 6.242-.14 2.104.564 3.997 1.761 5.54 1.268 1.543 3.099 2.665 4.578 3.016 1.408.35 2.535-.14 2.254-1.122z" fill="#36342B"/><path fill-rule="evenodd" clip-rule="evenodd" d="M483.767 115.791c-.211-.07-.352-.28-.282-.561.071-.21.282-.35.564-.28.422.14.845.21 1.267.351.423.07.845.21 1.268.28.422.07.845.07 1.338.07.423 0 .845-.07 1.338-.21.352-.14.775-.281 1.127-.491.493-.281.916-.561 1.197-.772.352-.28.423-.35.493-.42a.476.476 0 01.423-.281c.211 0 .422.21.422.421 0 .07 0 .14-.07.21-.07.141-.141.351-.775.772-.281.21-.774.561-1.338.841-.422.211-.845.421-1.268.561-.493.141-1.056.211-1.549.281-.493 0-.986 0-1.479-.07-.493-.07-.916-.14-1.338-.281-.423-.14-.916-.28-1.338-.421z" fill="#F46F2D"/><path fill-rule="evenodd" clip-rule="evenodd" d="M488.697 158.924l-27.608-.701-7.254.561 26.129.631 8.733-.491z" fill="#DBB158"/><path fill-rule="evenodd" clip-rule="evenodd" d="M406.79 158.363c.915 5.891 2.746 16.902 3.662 22.513.915 5.611.915 5.681.915 6.172.071.421.212 1.192.705 1.613.563.421 1.479.491 5.775.982s11.832 1.473 15.635 1.894l3.803.49-1.057-6.592c-1.056-6.593-3.098-19.708-4.155-26.371-1.127-6.662-1.268-6.943-1.338-7.083-.141-.14-.211-.14-4.366-.421-4.156-.281-12.325-.701-16.41-.842-4.085-.14-4.155.141-4.155.281v.561c0 .281 0 .982.986 6.803z" fill="#101E25"/><path fill-rule="evenodd" clip-rule="evenodd" d="M408.48 167.06c-.423.21-.986.631-1.268 1.122-.282.491-.282 1.192-.282 1.964 0 .841-.14 1.823-.07 2.735.07.911.282 1.613.423 2.244.14.631.281 1.192.633 1.543.353.351.846.561 1.62.701.775.07 1.831.07 2.536 0 .704-.07 1.056-.14 1.197-.35.141-.211.141-.632 0-.912-.141-.281-.352-.421-.634-.491-.282-.14-.493-.281-.352-.421.211-.21.775-.421 1.197-.912.423-.491.634-1.262.634-1.893a2.81 2.81 0 00-.423-1.473c-.14-.351-.281-.631-.281-.842 0-.21.211-.35.141-.771-.071-.421-.282-1.122-1.057-1.613-.704-.491-1.901-.772-2.606-.842-.704-.14-.986 0-1.408.211z" fill="#FF9F66"/><path fill-rule="evenodd" clip-rule="evenodd" d="M458.906 182.84c0 .982.07 7.574 0 7.995-.845 0-.986-.07-1.761.14-1.338.351-1.267.211-1.338.772l7.113.28v-.28c-.281-.281-.986-.421-1.408-.561-.845-.281-.916-.14-1.761-.281v-7.995c1.197-.281 1.55-.491 2.183-1.192.564-.631.916-1.543.916-2.665 0-2.385.07-4.84 0-7.154l-7.043-.281c-.07 1.123 0 2.385 0 3.507v3.577c0 2.244 1.197 3.787 3.099 4.138zm7.465 7.645l-.704-.071v1.543l11.691.421v-1.543l-10.987-.35zm6.268-13.957h.916v13.045l1.479.07v-12.975h.915c0-.28-1.549-4.348-1.619-4.489l-1.691 4.349zm-5.704-.211h.845v13.045l1.549.07v-13.044h.916l-1.69-4.489-.846 2.104c-.211.771-.563 1.543-.774 2.314z" fill="#211F17"/><path fill-rule="evenodd" clip-rule="evenodd" d="M465.385 159.064h-.563c-.423 0-1.197-.07-1.62-.07h-.423l-.07 3.577c-.07 3.577-.211 10.731-.211 14.307l-.071 3.577h5.494v-3.577c0-3.576-.071-10.66-.071-14.237s0-3.577.071-3.577h-2.536z" fill="#E1E2E1"/><path fill-rule="evenodd" clip-rule="evenodd" d="M463.273 158.994h-.423l.845-.07c.845-.07 2.536-.28 3.381-.35l.845-.071h.704c.704 0 2.113.071 2.888.071h.986c.07 0 .07 0-.705.07-.774.07-2.324.28-3.028.42l-.775.071h-.422c-.423 0-1.268-.071-2.113-.071s-1.761-.07-2.183-.07z" fill="#CBCCCD"/><path d="M478.626 162.711h-9.79v5.751h9.79v-5.751z" fill="#E1E2E1"/><path fill-rule="evenodd" clip-rule="evenodd" d="M149.447 331.104l-23.1.421 1.831-42.993 23.03.141-1.761 42.431zm-39.157-1.403l-23.03-.772 1.83-41.659 22.96.982-1.76 41.449z" fill="#929293"/><path fill-rule="evenodd" clip-rule="evenodd" d="M85.78 281.168c3.452 3.366 6.128 6.032 8.03 8.065 24.649-2.665 52.679-3.857 84.02-3.506-2.958-2.806-8.311-5.19-15.987-7.224-45.285.28-70.64 1.192-76.062 2.665z" fill="#DBB158"/><path fill-rule="evenodd" clip-rule="evenodd" d="M86.133 349.689c5.141 7.294 7.183 9.398 7.183 9.398.775-23.846.916-45.517.493-69.854-2.605-2.735-5.352-5.4-8.028-8.065-.141 46.289.352 68.521.352 68.521z" fill="#DBB158"/><path fill-rule="evenodd" clip-rule="evenodd" d="M93.81 289.233c.422 20.55.352 42.221-.494 69.854 49.3-.631 84.936-2.875 84.936-2.875.423-36.19.282-59.685-.423-70.555a732.692 732.692 0 00-84.02 3.576zm71.977-7.293c.352 0 .633-.281.633-.702 0-.421-.211-.701-.563-.771a538.304 538.304 0 00-36.834.21 581.429 581.429 0 00-37.678 2.735c-.352 0-.564.351-.564.772 0 .421.282.701.634.631a578.577 578.577 0 0137.608-2.735c12.466-.421 24.72-.491 36.764-.14z" fill="#F7CE66"/><path fill-rule="evenodd" clip-rule="evenodd" d="M142.968 285.937c-4.226.14-8.24.281-12.043.491-.493-.491.141 30.578 0 42.992 0 0 11.973-.491 12.536-.491-.07 0-.211-14.307-.493-42.992z" fill="#F9F9F9"/><path fill-rule="evenodd" clip-rule="evenodd" d="M130.854 286.428c8.099-.351 12.114-.491 12.114-.491l-10.987-7.154c-5.282.071-7.888.141-7.888.141a832.84 832.84 0 006.761 7.504z" fill="#E1E2E1"/><path fill-rule="evenodd" clip-rule="evenodd" d="M151.982 247.644c-.774 7.855-2.183 21.741-2.887 28.895-.704 7.154-.704 7.715-3.451 8.065-2.747.421-8.17.772-13.311.562-5.141-.141-10.001-.842-12.606-1.193-2.606-.35-2.958-.491-3.803-7.574-.916-7.154-2.325-21.321-3.029-28.405-.704-7.083-.704-7.083-.704-7.784 0-.702 0-2.104 1.268-2.806 1.267-.701 3.873-.701 9.789-.771 5.846-.07 15.001-.281 20.494-.351 5.494-.07 7.325-.07 8.24.842.846.841.705 2.665 0 10.52z" fill="#FDE742"/><path fill-rule="evenodd" clip-rule="evenodd" d="M155.926 240.35c-1.69.561-4.437 1.543-8.38 2.174-3.944.631-9.015.982-13.945 1.052-4.93 0-9.79-.28-14.015-.841a91.59 91.59 0 01-9.719-1.824c-1.972-.491-2.395-.771-2.676-1.052-.282-.281-.353-.491-.353-2.104s0-4.629.071-6.172c0-1.543 0-1.543 2.465-2.034 2.394-.491 7.254-1.402 14.297-1.753 7.113-.351 16.409-.21 22.607.14 6.197.351 9.155.842 10.634 1.122 1.479.281 1.55.351 1.55 2.104 0 1.684.07 5.05-.212 6.803-.14 1.684-.633 1.824-2.324 2.385z" fill="#FBD16B"/><path fill-rule="evenodd" clip-rule="evenodd" d="M153.039 231.723c-2.183.561-6.761 1.122-12.254 1.403-5.423.351-11.762.491-16.832.421-5.071-.07-8.804-.491-10.987-.842-2.183-.35-2.747-.631-2.747-.912 0-.28.634-.561 2.817-1.192 2.184-.631 5.916-1.473 12.043-1.823 6.128-.351 14.579-.141 19.931.14 5.353.28 7.677.561 8.874 1.052 1.268.491 1.409 1.192-.845 1.753z" fill="#4F4D3E"/><path fill-rule="evenodd" clip-rule="evenodd" d="M137.263 228.287c1.056-4.699 2.465-13.957 2.606-24.758.141-10.73-1.057-22.933-3.733-32.191-2.676-9.258-6.902-15.5-10.634-20.55-3.803-5.119-7.113-9.047-8.804-10.87-1.69-1.894-1.69-1.684-1.267 4.839.422 6.522 1.267 19.497 3.028 29.947 1.761 10.45 4.437 18.375 7.184 25.319 2.746 6.943 5.634 12.834 7.183 18.164 1.55 5.331 1.831 10.1 1.902 12.484.141 2.385.141 2.385.493 2.385.352-.07.986-.07 2.042-4.769z" fill="#4AAB3C"/><path fill-rule="evenodd" clip-rule="evenodd" d="M136.841 225.972c0-4.067.141-13.045 2.535-21.601 2.395-8.626 7.043-16.902 12.114-23.004 5.071-6.172 10.634-10.169 14.367-12.624 3.733-2.455 5.634-3.367 6.62-3.367.986 0 .986.912.564 3.437-.353 2.525-1.127 6.733-3.17 11.502-2.042 4.769-5.282 10.099-8.803 14.588-3.521 4.489-7.325 8.206-10.423 11.923-3.17 3.717-5.635 7.504-7.747 11.081a100.248 100.248 0 00-4.789 9.188c-1.057 2.104-1.268 2.945-1.268-1.123zm-9.86-12.484c-.775-2.524-3.099-7.644-7.606-11.502-4.508-3.857-11.269-6.522-16.058-7.995-4.789-1.473-7.747-1.683-9.155-1.683-1.409.07-1.198.421-.705 1.543.493 1.122 1.338 3.016 3.17 5.821 1.83 2.805 4.577 6.593 8.451 9.468 3.873 2.946 8.944 4.98 12.606 6.032 3.663.982 6.057.911 7.607.841 1.619 0 2.465 0 1.69-2.525z" fill="#5DC94C"/><path fill-rule="evenodd" clip-rule="evenodd" d="M164.871 177.369a.37.37 0 00-.07-.561.374.374 0 00-.564.07c-3.521 4.279-6.972 8.557-10.212 12.905-3.239 4.348-6.197 8.837-8.662 13.536-2.465 4.699-4.367 9.538-6.057 14.518-1.69 4.979-3.029 10.029-4.437 15.079-.071.21.07.42.282.491.211.07.422-.071.493-.281 1.408-5.05 2.817-10.099 4.437-15.009 1.619-4.909 3.591-9.748 5.986-14.377 2.465-4.629 5.423-9.118 8.592-13.466 3.24-4.418 6.761-8.697 10.212-12.905z" fill="#509663"/><path fill-rule="evenodd" clip-rule="evenodd" d="M123.459 157.872c-.07-.21-.282-.281-.493-.21-.211.07-.282.28-.211.49 1.127 2.876 2.183 5.681 3.24 8.837 1.056 3.156 2.042 6.593 3.028 10.661.916 3.787 1.69 8.065 2.465 12.554.915 5.26 1.69 10.73 2.394 15.92 1.268 9.609 2.113 18.235 2.958 26.862 0 .21.212.35.423.35s.352-.21.352-.42c-.845-8.627-1.69-17.183-2.958-26.862-.704-5.19-1.479-10.73-2.394-15.99-.775-4.489-1.62-8.837-2.465-12.554-.986-4.068-1.972-7.575-3.029-10.731-1.127-3.226-2.253-6.032-3.31-8.907zm-20.564 40.678c-.212-.14-.423-.07-.564.14-.141.21-.07.421.141.561 5.352 3.226 10.705 6.523 14.79 9.258a84.385 84.385 0 015.211 3.857c1.479 1.193 2.747 2.315 3.803 3.507 1.057 1.192 2.043 2.314 2.818 3.577a23.59 23.59 0 011.972 3.997c.986 2.876 1.479 6.313 1.901 9.749 0 .21.211.351.493.351.211 0 .352-.211.352-.491-.422-3.437-.915-6.943-1.901-9.889a17.431 17.431 0 00-2.043-4.138 35.265 35.265 0 00-2.887-3.717 38.803 38.803 0 00-3.874-3.577c-1.479-1.192-3.239-2.455-5.282-3.857-4.155-2.806-9.508-6.102-14.93-9.328z" fill="#509663"/><path fill-rule="evenodd" clip-rule="evenodd" d="M200.226 193.57c-.564 4.279-1.55 11.923-2.113 15.851-.564 3.927-.493 4.208-2.677 4.629-2.183.42-6.62.911-10.282.771-3.733-.07-6.761-.771-8.381-1.122-1.62-.351-1.901-.421-2.535-4.348-.634-3.928-1.69-11.713-2.183-15.57-.493-3.858-.493-3.858-.493-4.278 0-.421 0-1.193.915-1.543.916-.421 2.817-.421 7.043-.421 4.225-.07 10.775-.14 14.719-.211 3.944-.07 5.282-.07 5.916.491.634.491.564 1.473.071 5.751z" fill="#F9F9F9"/><path fill-rule="evenodd" clip-rule="evenodd" d="M203.042 189.573c-1.197.28-3.239.841-6.056 1.192s-6.48.561-10.001.561c-3.592 0-7.043-.14-10.071-.421-3.029-.28-5.564-.701-6.972-1.052-1.409-.28-1.691-.42-1.902-.561-.211-.14-.211-.28-.282-1.192v-3.366c0-.842 0-.842 1.831-1.263 1.761-.421 5.353-1.122 10.705-1.473 5.353-.28 12.396-.14 16.762.141 4.367.28 6.057.771 6.902 1.052.845.28.916.28.916 1.262 0 .912.07 2.735-.141 3.717-.141 1.052-.493 1.122-1.691 1.403z" fill="#CBCCCD"/><path fill-rule="evenodd" clip-rule="evenodd" d="M201 184.874c-1.62.351-4.86.631-8.803.771-3.944.211-8.452.281-12.114.211-3.662-.07-6.338-.281-7.888-.421-1.549-.21-1.972-.351-1.972-.491s.493-.351 2.043-.631c1.549-.351 4.225-.842 8.662-.982 4.367-.21 10.494-.07 14.367.07 3.874.14 5.494.281 6.409.561.775.211.845.561-.704.912z" fill="#4F4D3E"/><path fill-rule="evenodd" clip-rule="evenodd" d="M171.914 146.791c2.183 1.122 4.225 2.455 5.916 4.208 1.69 1.753 3.098 3.928 3.873 6.032a13.91 13.91 0 01.845 5.961c-.07 1.894-.422 3.577-.634 4.489-.211.841-.281.841-2.112-.141-1.832-1.052-5.423-3.156-8.1-5.681-2.676-2.595-4.507-5.61-5.423-8.626-.915-3.016-.915-5.962-.986-7.504-.07-1.543-.14-1.614.986-1.193 1.057.351 3.451 1.333 5.635 2.455z" fill="#5DC94C"/><path fill-rule="evenodd" clip-rule="evenodd" d="M204.099 153.313c-2.676.982-6.62 2.315-9.367 4.629-2.676 2.315-4.226 5.541-4.789 8.487-.564 2.945-.211 5.68 0 7.013.211 1.332.282 1.332 2.817.351 2.465-.982 7.395-3.016 10.494-5.892 3.169-2.945 4.507-6.733 5.352-9.678.775-2.946.986-4.91 1.057-5.891.07-.982.07-.982-.634-.772-.705.281-2.183.772-4.93 1.753zm-18.311-27.632a41.871 41.871 0 013.099 4.699c.985 1.753 1.901 3.576 2.394 5.47.493 1.894.493 3.717.493 5.33s-.141 2.876-.493 4.699c-.423 1.824-1.127 4.208-1.409 5.33-.352 1.193-.352 1.193-.422 1.193-.071 0-.141 0-1.902-2.034-1.76-2.034-5.141-6.102-6.69-9.819-1.55-3.717-1.338-7.013-.775-10.029.563-3.016 1.409-5.821 1.902-7.224.422-1.403.422-1.403.986-.772.563.491 1.69 1.754 2.817 3.157z" fill="#4AAB3C"/><path fill-rule="evenodd" clip-rule="evenodd" d="M185.083 131.572v.14c1.057 5.19 2.184 10.31 2.888 14.027.352 1.894.634 3.366.916 4.699.281 1.403.493 2.735.704 4.278.211 1.543.493 3.367.775 5.33.281 2.034.493 4.279.774 6.803.423 5.05.775 11.152 1.127 17.253h.423c-.352-6.101-.705-12.203-1.127-17.253a126.786 126.786 0 00-.775-6.873c-.282-2.034-.493-3.787-.775-5.4-.211-1.543-.493-2.876-.704-4.278-.282-1.403-.563-2.876-.915-4.699-.705-3.647-1.832-8.837-2.888-14.027v-.14l-.423.14z" fill="#509663"/><path fill-rule="evenodd" clip-rule="evenodd" d="M207.268 155.067c-2.113 1.894-4.225 3.787-6.127 5.681-1.972 1.893-3.803 3.787-5.353 5.681-1.549 1.893-2.887 3.717-3.943 5.54-1.057 1.754-1.972 3.437-2.677 4.98-.704 1.473-1.267 2.805-1.76 3.927a126.904 126.904 0 00-.986 2.525l-.423 1.122.352.14.423-1.122c.211-.561.493-1.402.986-2.524.422-1.123.986-2.385 1.69-3.858.704-1.473 1.62-3.156 2.676-4.909 1.057-1.754 2.395-3.577 3.944-5.471 1.55-1.893 3.381-3.717 5.353-5.61 1.972-1.894 4.084-3.788 6.127-5.681l-.282-.421zm-37.96-6.242c1.056 1.192 2.042 2.385 3.098 3.577a43.537 43.537 0 013.099 4.208 60.956 60.956 0 013.099 5.26 69.323 69.323 0 012.465 5.26c.704 1.753 1.197 3.437 1.62 5.05.422 1.613.634 3.156.845 4.558.423 2.876.493 5.401.563 7.926h.423c-.07-2.525-.141-5.05-.563-7.926a65.07 65.07 0 00-.846-4.628c-.422-1.614-.915-3.367-1.619-5.12a60.205 60.205 0 00-2.465-5.33 47.436 47.436 0 00-3.17-5.261 83.369 83.369 0 00-3.098-4.208c-1.057-1.262-2.043-2.454-3.099-3.647l-.352.281z" fill="#509663"/><path fill-rule="evenodd" clip-rule="evenodd" d="M70.005 59.684c6.127-.841 14.86-.21 19.157 2.244 4.084 2.315 7.746 7.715 7.465 14.659-.282 7.153-3.803 11.572-7.818 14.307-3.803 2.525-13.663 3.366-18.874 2.314l.07-33.524zm-.14 42.501c6.479-1.192 16.339 1.824 25.987-3.787 6.057-3.507 10.564-8.696 12.184-17.183 3.451-18.235-9.578-31.07-26.903-31.14l-22.96-.07V93.49h-7.395l-.07 8.486 7.395.14v5.05h-7.325l-.07 8.486 7.395.141v19.006h11.69v-19.147l31.975-.14-.07-8.276c-6.41-.491-28.664.491-31.834-.28v-4.77zM158.11 16.06c4.366-.56 10.493-.14 13.592 1.614 2.888 1.613 5.494 5.47 5.282 10.38-.211 5.05-2.676 8.205-5.563 10.17-2.677 1.823-9.719 2.384-13.382 1.612l.071-23.775zm-.071 30.158c4.649-.841 11.55 1.263 18.452-2.735 4.296-2.455 7.466-6.172 8.592-12.203 2.465-12.975-6.761-22.022-19.085-22.093h-16.269v30.86h-5.212v6.031l5.212.07v3.577h-5.212l-.07 6.032 5.211.07v13.466h8.311V55.686l22.678-.07-.071-5.89c-4.507-.352-20.283.35-22.537-.211v-3.297zm-18.593 58.632c2.888-.42 6.973-.07 9.015 1.052 1.902 1.123 3.662 3.647 3.521 6.944-.14 3.366-1.76 5.47-3.662 6.733-1.76 1.192-6.479 1.613-8.874 1.052V104.85zm-.07 19.989c3.099-.561 7.677.841 12.254-1.824 2.817-1.683 5.001-4.068 5.705-8.065 1.62-8.627-4.507-14.658-12.677-14.658h-10.775v20.479h-3.451v3.998l3.451.07v2.384h-3.451v3.998l3.451.07v8.977h5.493v-9.047l15.071-.07-.07-3.928c-3.028-.21-13.522.211-15.001-.14v-2.244z" fill="#E1E2E1"/></svg>