<svg width="121" height="120" fill="none" xmlns="http://www.w3.org/2000/svg"><g clip-path="url(#clip0_164_1324)"><path d="M120.5 60c0-33.132-26.868-60-60-60C27.368 0 .5 26.868.5 60c0 33.132 26.868 60 60 60 33.132 0 60-26.868 60-60z" fill="#FFF8E5"/><path d="M78.862 30H34.897c-2.412 0-4.397 1.985-4.397 4.397v43.965c0 2.412 1.985 4.396 4.397 4.396H55.02a21.016 21.016 0 01-1.91-8.793c0-11.782 9.573-21.354 21.356-21.354 3.14 0 6.104.678 8.793 1.91V34.396c0-2.412-1.985-4.397-4.397-4.397zM67.054 52.46c-.251.1-.502.15-.754.15a1.87 1.87 0 01-1.28-.502l-8.14-7.587-8.14 7.587c-.553.503-1.357.654-2.036.352a1.904 1.904 0 01-1.13-1.733V33.769h22.61v16.958c0 .753-.451 1.431-1.13 1.733z" fill="#4AAB3C"/><path d="M74.466 57.93c-8.841 0-16.034 7.194-16.034 16.035C58.432 82.806 65.625 90 74.466 90s16.035-7.194 16.035-16.035c0-8.84-7.194-16.034-16.035-16.034zM72 78.9a1.234 1.234 0 010 2.467h-6.167c-.68 0-1.233-.553-1.233-1.234V77.05c0-2.38 1.763-4.317 3.932-4.317h.77c.806 0 1.465-.832 1.465-1.85 0-1.02-.659-1.85-1.465-1.85h-3.469a1.234 1.234 0 010-2.467h3.469c2.168 0 3.932 1.936 3.932 4.317 0 2.38-1.764 4.317-3.932 4.317h-.77c-.807 0-1.465.83-1.465 1.85v1.85H72zm12.335-4.934v6.167a1.234 1.234 0 01-2.467 0V75.2h-2.235c-2.169 0-3.933-1.937-3.933-4.317v-3.084a1.234 1.234 0 012.467 0v3.084c0 1.018.659 1.85 1.466 1.85h2.235v-4.934a1.234 1.234 0 012.466 0v6.167z" fill="#4AAB3C"/><circle cx="73.948" cy="73.448" fill="#4AAB3C" r="16.552"/><path d="M69.705 74.919c-1.52 1.073-2.579 2.08-3.174 2.885a5.117 5.117 0 00-.86 2.885h8.265v-2.147h-5.289c.397-.537 1.124-1.208 2.248-1.879 1.19-.738 1.983-1.476 2.38-2.08.397-.604.661-1.409.661-2.348 0-1.141-.397-2.08-1.124-2.751-.793-.739-1.719-1.074-2.909-1.074-1.256 0-2.314.402-3.041 1.14-.727.806-1.058 1.812-1.058 3.154h2.314c0-.738.132-1.275.397-1.677.33-.403.727-.604 1.256-.604s.925.134 1.256.47c.33.335.463.738.463 1.342 0 .47-.132.939-.397 1.342-.198.402-.66.872-1.388 1.342zm9.785 5.703v-2.684h-4.76v-2.147l4.495-7.515h2.645v7.65h1.388v1.945H81.87v2.684l-2.38.067zm0-4.563v-5.1l-2.91 4.966-.066.201c-.066-.067 2.976-.067 2.976-.067z" fill="#F2F2F2"/></g><defs><clipPath id="clip0_164_1324"><path fill="#fff" transform="translate(.5)" d="M0 0h120v120H0z"/></clipPath></defs></svg>