<svg width="121" height="120" fill="none" xmlns="http://www.w3.org/2000/svg"><g clip-path="url(#clip0_166_1473)"><path d="M120.5 60c0-33.132-26.868-60-60-60C27.368 0 .5 26.868.5 60c0 33.132 26.868 60 60 60 33.132 0 60-26.868 60-60z" fill="#FFF8E5"/><path d="M86 67.35V85a5 5 0 01-5 5H38.625v-7.953h15.018V74.9H68.48v-7.55H86zm-22.648-8.246L57.1 56.821l6.247-8.01c1.384-1.774 1.02-4.278-.828-5.701-1.135-.874-2.405-1.031-4.127-.508l-15.305 5.92c-.54.209-.965.609-1.194 1.126a2.025 2.025 0 00-.02 1.611c.334.804 1.128 1.324 2.025 1.324.277 0 .55-.051.81-.152l7.526-2.91-3.65 4.678c-.45.616-.932 1.37-.932 2.55l-.098 11.315a.43.43 0 01-.051.198l-5.106 9.393a2.407 2.407 0 00-.18 1.905c.206.637.656 1.16 1.268 1.47a2.68 2.68 0 001.2.286c.967 0 1.846-.512 2.295-1.338l5.107-9.395a5.31 5.31 0 00.643-2.476c.077-2.67.206-6.606.272-7.44l7.056 2.577-1.626 7.763a2.414 2.414 0 00.38 1.877 2.58 2.58 0 001.644 1.068c.17.033.344.05.515.05 1.225 0 2.291-.843 2.535-2.004l1.935-9.244c.326-1.554-.553-3.09-2.089-3.65zm3.7-24.062c-2.47 0-4.478 1.94-4.478 4.324s2.009 4.323 4.478 4.323c2.47 0 4.478-1.94 4.478-4.323 0-2.384-2.009-4.324-4.478-4.324zm-7.85 5.585L53.928 28 37 34.589l5.272 12.627 16.93-6.589z" fill="#4AAB3C"/></g><defs><clipPath id="clip0_166_1473"><path fill="#fff" transform="translate(.5)" d="M0 0h120v120H0z"/></clipPath></defs></svg>