<svg width="61" height="60" fill="none" xmlns="http://www.w3.org/2000/svg"><path d="M48.862 0H4.897C2.485 0 .5 1.985.5 4.397v43.965c0 2.412 1.985 4.396 4.397 4.396H25.02a21.016 21.016 0 01-1.91-8.793c0-11.782 9.573-21.354 21.355-21.354 3.14 0 6.105.678 8.794 1.91V4.396C53.259 1.985 51.274 0 48.862 0zM37.054 22.46c-.251.1-.502.15-.754.15a1.87 1.87 0 01-1.28-.502l-8.14-7.587-8.14 7.587c-.553.503-1.357.654-2.036.352a1.904 1.904 0 01-1.13-1.733V3.768h22.61v16.959c0 .753-.451 1.431-1.13 1.733z" fill="#4AAB3C"/><path d="M44.466 27.93c-8.841 0-16.034 7.194-16.034 16.035C28.432 52.806 35.625 60 44.466 60s16.035-7.194 16.035-16.035c0-8.84-7.194-16.034-16.035-16.034zM42 48.9a1.234 1.234 0 010 2.467h-6.167c-.68 0-1.233-.553-1.233-1.234V47.05c0-2.38 1.764-4.317 3.932-4.317h.77c.806 0 1.465-.831 1.465-1.85 0-1.02-.659-1.85-1.465-1.85h-3.469a1.234 1.234 0 010-2.467h3.469c2.168 0 3.932 1.936 3.932 4.317 0 2.38-1.764 4.317-3.932 4.317h-.77c-.807 0-1.465.83-1.465 1.85v1.85H42zm12.334-4.934v6.167a1.234 1.234 0 01-2.466 0V45.2h-2.235c-2.169 0-3.932-1.937-3.932-4.317v-3.084a1.234 1.234 0 012.466 0v3.084c0 1.019.659 1.85 1.466 1.85h2.235v-4.934a1.234 1.234 0 012.467 0v6.167z" fill="#4AAB3C"/><circle cx="43.948" cy="43.448" fill="#4AAB3C" r="16.552"/><path d="M39.705 44.919c-1.52 1.073-2.579 2.08-3.174 2.885a5.117 5.117 0 00-.86 2.885h8.265v-2.147h-5.289c.397-.537 1.124-1.208 2.248-1.879 1.19-.738 1.983-1.476 2.38-2.08.397-.604.661-1.409.661-2.348 0-1.141-.397-2.08-1.124-2.752-.793-.738-1.719-1.073-2.909-1.073-1.256 0-2.314.402-3.041 1.14-.727.806-1.058 1.812-1.058 3.154h2.314c0-.738.132-1.275.397-1.677.33-.403.727-.604 1.256-.604s.925.134 1.256.47c.33.335.463.738.463 1.342 0 .47-.132.939-.397 1.342-.198.402-.66.872-1.388 1.342zm9.785 5.703v-2.684h-4.76v-2.147l4.495-7.515h2.645v7.65h1.388v1.945H51.87v2.684l-2.38.067zm0-4.563v-5.1l-2.91 4.966-.066.202c-.066-.068 2.976-.068 2.976-.068z" fill="#F2F2F2"/></svg>