<svg width="92" height="58" fill="none" xmlns="http://www.w3.org/2000/svg"><path fill-rule="evenodd" clip-rule="evenodd" d="M64.824 53.434c-.568-.03-1.326-.06-1.922-.089-.596-.029-.975-.058-1.327-.117a4.52 4.52 0 01-.866-.147c-.19-.03-.27-.06-.325-.089a.337.337 0 01-.081-.058v.823l.298.06c.297.058.866.205 2.003.352 1.11.147 2.789.294 4.468.324a41.91 41.91 0 004.576-.177c1.218-.117 1.922-.235 2.301-.353.38-.088.433-.147.433-.176.027-.03.027-.03.027-.177v-.559c0-.147 0-.147-.027-.117-.027.029-.054.058-.135.088a2.16 2.16 0 01-.352.088c-.163.03-.38.059-.731.118-.352.03-.812.088-1.273.117-.46.03-.893.06-1.408.089-.514.03-1.056.03-1.651.059h-2.789a12.25 12.25 0 00-1.219-.06z" fill="#141515"/><path fill-rule="evenodd" clip-rule="evenodd" d="M67.344 53.463c3.9 0 7.067-.235 7.067-.559 0-.323-3.168-.559-7.067-.559s-7.067.236-7.067.56c0 .323 3.168.558 7.067.558z" fill="#080902"/><path fill-rule="evenodd" clip-rule="evenodd" d="M61.386 2.04c-.162.088-.162.088-.433 1.442-.244 1.353-.758 4.03-1.029 5.413-.27 1.382-.244 1.412-.244 1.441 0 .03 0 .03.082.059.08.03.216.117.595.235.38.118.975.265 2.491.353 1.49.088 3.9.118 5.903.06 2.003-.06 3.574-.177 4.522-.324.92-.118 1.218-.236 1.353-.295l.136-.059-.163-1.412c-.162-1.412-.46-4.236-.622-5.648-.163-1.412-.163-1.412-.244-1.47-.108-.03-.298-.119-.812-.236-.515-.088-1.3-.177-2.491-.265-1.192-.059-2.762-.118-4.197-.059-1.435.03-2.708.177-3.52.324-.812.206-1.164.353-1.327.441z" fill="#FDE742"/><path fill-rule="evenodd" clip-rule="evenodd" d="M64.256 9.983c-.704.03-1.49.088-2.193.118-.704.058-1.273.088-1.598.147-.325.03-.379.059-.244.118.136.058.434.176.894.264.46.088 1.083.147 1.76.177.704.03 1.462.059 2.274.088.813.03 1.652.03 2.68 0a124.09 124.09 0 003.304-.147c1.03-.059 1.895-.177 2.41-.235.514-.06.731-.118.812-.177.081-.059.054-.088-.081-.147s-.352-.088-1.056-.147a57.758 57.758 0 00-3.14-.147c-1.273-.03-2.6-.03-3.575-.03-.948.06-1.543.089-2.247.118z" fill="#080902"/><path fill-rule="evenodd" clip-rule="evenodd" d="M67.586 29.34V10.807l.081-.06c.082-.058.217-.146.325-.323.108-.147.162-.353.19-.441l.027-.088H66.34c-.054 0-.054 0-.054.059.027.058.054.205.135.323.082.118.217.265.298.324.081.088.135.117.162.117l.028.03v42.156h.622v-4.148c.027-4.118.027-12.385.054-19.416z" fill="#141515"/><path fill-rule="evenodd" clip-rule="evenodd" d="M77.951 50.827l4.901.088-.379-9.973-4.9.03.378 9.855zm8.315-.324l4.9-.206-.379-9.649-4.9.235.379 9.62z" fill="#929293"/><path fill-rule="evenodd" clip-rule="evenodd" d="M91.467 39.236a52.04 52.04 0 00-1.706 1.853c-5.253-.617-11.183-.882-17.87-.823.622-.648 1.76-1.206 3.411-1.677 9.64.117 15.027.324 16.165.647z" fill="#DBB158"/><path fill-rule="evenodd" clip-rule="evenodd" d="M91.408 55.122c-1.082 1.706-1.543 2.177-1.543 2.177a359.331 359.331 0 01-.108-16.21 53.106 53.106 0 011.705-1.853c.054 10.738-.054 15.886-.054 15.886z" fill="#DBB158"/><path fill-rule="evenodd" clip-rule="evenodd" d="M89.759 41.119c-.081 4.766-.081 9.796.108 16.21-10.478-.148-18.06-.677-18.06-.677-.08-8.385-.054-13.856.082-16.357 5.983-.118 11.94.176 17.87.824zm-15.27-1.706c-.081 0-.136-.06-.136-.177 0-.088.055-.176.136-.176a99.367 99.367 0 017.825.058c2.626.118 5.307.324 8.014.618.082 0 .136.088.109.177 0 .088-.055.147-.136.147-2.707-.294-5.36-.53-7.987-.618-2.654-.088-5.28-.118-7.825-.03z" fill="#F7CE66"/><path fill-rule="evenodd" clip-rule="evenodd" d="M79.334 40.354c.893.03 1.76.059 2.572.118.108-.118-.027 7.09 0 9.972 0 0-2.545-.117-2.654-.117-.027 0 0-3.325.082-9.973z" fill="#F9F9F9"/><path fill-rule="evenodd" clip-rule="evenodd" d="M81.904 40.472a162.962 162.962 0 00-2.572-.118c1.543-1.088 2.329-1.648 2.329-1.648 1.11.03 1.678.03 1.678.03-.974 1.147-1.435 1.736-1.435 1.736z" fill="#E1E2E1"/><path fill-rule="evenodd" clip-rule="evenodd" d="M77.413 31.47c.162 1.824.46 5.03.622 6.707.163 1.677.163 1.794.731 1.883.57.088 1.733.176 2.843.147 1.084-.03 2.14-.206 2.681-.294.541-.089.623-.118.812-1.765.19-1.648.488-4.943.65-6.59.163-1.648.163-1.648.163-1.824 0-.177 0-.5-.271-.647-.271-.177-.84-.177-2.085-.177-1.246-.03-3.195-.059-4.36-.088-1.164-.03-1.57-.03-1.732.206-.217.206-.217.618-.054 2.442z" fill="#FDE742"/><path fill-rule="evenodd" clip-rule="evenodd" d="M76.573 29.793c.352.117.948.353 1.787.5.84.147 1.895.235 2.951.235s2.085-.058 2.979-.176a14.053 14.053 0 002.057-.442c.407-.117.515-.176.57-.235.053-.059.08-.117.08-.5v-1.441c0-.354 0-.354-.514-.471-.515-.118-1.544-.324-3.033-.412a43.062 43.062 0 00-4.792.03c-1.3.088-1.95.205-2.275.264-.324.059-.324.088-.324.47 0 .383 0 1.178.027 1.56.027.441.135.47.487.618z" fill="#FBD16B"/><path fill-rule="evenodd" clip-rule="evenodd" d="M77.195 27.792c.46.147 1.435.265 2.6.324 1.163.088 2.49.118 3.573.088a22.903 22.903 0 002.329-.176c.46-.089.595-.147.595-.206 0-.06-.135-.147-.595-.265-.46-.147-1.246-.353-2.545-.441-1.3-.089-3.087-.03-4.251.03-1.138.058-1.625.117-1.896.234-.27.118-.297.265.19.412z" fill="#080902"/><path fill-rule="evenodd" clip-rule="evenodd" d="M80.524 26.998c-.217-1.088-.514-3.236-.541-5.736-.028-2.501.216-5.325.785-7.473.568-2.147 1.462-3.589 2.274-4.765a47.417 47.417 0 011.868-2.53c.352-.442.352-.383.271 1.118-.081 1.53-.27 4.53-.65 6.942a28.964 28.964 0 01-1.543 5.854c-.596 1.618-1.191 2.972-1.516 4.207-.325 1.236-.38 2.324-.406 2.883-.028.56-.028.56-.109.56-.054.029-.19 0-.433-1.06z" fill="#60D213"/><path fill-rule="evenodd" clip-rule="evenodd" d="M80.638 26.44c0-.942-.027-3.031-.542-5.002-.514-2-1.489-3.913-2.572-5.325a13.608 13.608 0 00-3.06-2.912c-.785-.559-1.19-.794-1.407-.794-.217 0-.217.206-.136.794.081.588.244 1.56.677 2.647a15.278 15.278 0 001.868 3.384c.758 1.059 1.544 1.882 2.22 2.765.677.853 1.192 1.736 1.652 2.56.46.823.812 1.617 1.029 2.117.217.5.27.707.27-.235zm2.081-2.884c.162-.588.65-1.765 1.625-2.677.974-.912 2.382-1.53 3.411-1.853 1.029-.353 1.652-.383 1.95-.383.297 0 .27.089.162.353a10.18 10.18 0 01-.677 1.354c-.379.647-.975 1.53-1.787 2.206-.84.677-1.895 1.147-2.68 1.383-.786.235-1.273.206-1.625.206-.352 0-.541 0-.379-.589z" fill="#60D213"/><path fill-rule="evenodd" clip-rule="evenodd" d="M74.677 15.172a.093.093 0 010-.118.078.078 0 01.108 0c.73 1 1.489 1.971 2.166 3 .677 1.03 1.327 2.06 1.841 3.149.515 1.088.92 2.206 1.3 3.353.352 1.148.65 2.324.947 3.501 0 .059-.027.088-.054.118-.054 0-.081-.03-.108-.059a71.997 71.997 0 00-.948-3.471 24.854 24.854 0 00-1.272-3.354 21.051 21.051 0 00-1.841-3.118c-.677-1.03-1.408-2-2.14-3.001z" fill="#389E00"/><path fill-rule="evenodd" clip-rule="evenodd" d="M83.476 10.671c.027-.059.054-.059.108-.059.055.03.055.059.055.118a34.44 34.44 0 00-.677 2.03c-.217.735-.434 1.53-.65 2.47a34.64 34.64 0 00-.515 2.913c-.19 1.206-.352 2.5-.514 3.707-.27 2.236-.46 4.236-.623 6.207 0 .059-.054.088-.108.088s-.081-.058-.081-.117c.19-2 .352-4.001.622-6.237.136-1.206.325-2.5.515-3.707.162-1.03.352-2.03.541-2.912.217-.941.434-1.765.65-2.5a42.33 42.33 0 01.677-2.001zm4.357 9.414c.055-.03.082 0 .109.03.027.058 0 .088-.027.117-1.138.765-2.275 1.5-3.141 2.147-.433.324-.785.618-1.11.883-.325.265-.569.559-.813.824-.243.265-.433.53-.595.823a5.424 5.424 0 00-.406.912c-.217.677-.298 1.471-.407 2.266 0 .058-.054.088-.108.088s-.081-.059-.081-.118c.108-.794.19-1.618.406-2.294.108-.354.244-.677.433-.971.163-.295.38-.589.623-.853.244-.265.515-.56.812-.824.325-.294.677-.588 1.11-.912.921-.618 2.058-1.353 3.195-2.118z" fill="#389E00"/><path fill-rule="evenodd" clip-rule="evenodd" d="M37.126 48.963l-4.82.088.299-8.06 4.819.029-.298 7.943zm-8.179-.265l-4.82-.147.325-7.796 4.792.177-.297 7.766z" fill="#929293"/><path fill-rule="evenodd" clip-rule="evenodd" d="M23.75 39.608a45.24 45.24 0 011.706 1.5c5.144-.5 10.993-.706 17.545-.647-.623-.53-1.733-.97-3.357-1.353-9.477.059-14.784.206-15.894.5z" fill="#DBB158"/><path fill-rule="evenodd" clip-rule="evenodd" d="M23.831 52.61a281.281 281.281 0 001.624 2.06c.108-4.471.108-9.002 0-13.562a21.52 21.52 0 00-1.705-1.5l.081 13.003z" fill="#DBB158"/><path fill-rule="evenodd" clip-rule="evenodd" d="M25.43 41.108c.135 3.854.135 8.385 0 13.562l17.734-.97c.027-6.796-.054-11.209-.216-13.239-5.822-.088-11.67.118-17.518.647z" fill="#F7CE66"/><path fill-rule="evenodd" clip-rule="evenodd" d="M40.455 39.755c.081 0 .135-.059.135-.117 0-.089-.054-.148-.108-.148a135.24 135.24 0 00-7.69.03 144.11 144.11 0 00-7.852.5c-.08 0-.108.059-.108.147s.054.118.135.118c2.654-.236 5.253-.412 7.852-.5 2.546-.089 5.118-.089 7.636-.03z" fill="#FBD16B"/><path fill-rule="evenodd" clip-rule="evenodd" d="M35.69 40.52c-.893.03-1.733.059-2.518.088-.108-.088.081 5.737.081 8.06 0 0 2.491-.087 2.627-.087-.027-.03-.082-2.707-.19-8.061z" fill="#F9F9F9"/><path fill-rule="evenodd" clip-rule="evenodd" d="M33.173 40.608l2.518-.088c-1.543-.883-2.301-1.353-2.301-1.353-1.11.03-1.652.03-1.652.03a160.45 160.45 0 001.435 1.411z" fill="#E1E2E1"/><path d="M31.566 42.45l-4.443.513.318 3.247 4.442-.513-.317-3.247z" fill="#F9F9F9"/><path fill-rule="evenodd" clip-rule="evenodd" d="M30.734 41.99l-4.874-1.823-.108-17.092 5.063.883-.081 18.033z" fill="#DBB158"/><path fill-rule="evenodd" clip-rule="evenodd" d="M30.732 41.99l.082-18.033 5.523-.352-.217 17.827-5.388.559z" fill="#F7CE66"/><path fill-rule="evenodd" clip-rule="evenodd" d="M36.339 23.575l-5.524.5-5.063-1.03 5.28-.205 5.307.735z" fill="#DBA757"/><path fill-rule="evenodd" clip-rule="evenodd" d="M34.146 23.781l-1.787.147.109 11.473 1.732-.118-.054-11.502zm-1.788.147l1.787-.147-4.603-.883-.65.03.028.323 3.438.677z" fill="#F9F9F9"/><path fill-rule="evenodd" clip-rule="evenodd" d="M8.946 12.306c-.037-.18-.147-.36-.202-.6a3.319 3.319 0 01-.074-.66c0-.14 0-.14-.11-.16-.093 0-.295-.02-.553-.1-.258-.08-.57-.2-.884-.34-.313-.14-.607-.32-.755-.38-.147-.06-.147-.02-.147.12 0 .14.018.4 0 .7-.018.3-.037.66-.074.88-.037.22-.092.34-.092.44-.018.1.019.18.148.38.128.22.331.56.552.78.202.24.405.38.644.46.24.1.534.14.755.12.221-.02.35-.1.48-.3.11-.2.22-.52.275-.76.056-.2.074-.38.037-.58z" fill="#FFAF69"/><path fill-rule="evenodd" clip-rule="evenodd" d="M4.474 55.06c.092.18.258.48.368.84.11.38.148.84.166 1.1.019.28-.018.36-.11.4-.074.06-.221.08-.718.08-.498 0-1.363-.02-1.86-.04-.497-.02-.663-.04-.737-.08-.073-.04-.092-.12-.092-.3 0-.2-.018-.5.037-.82.055-.32.166-.64.295-.9.129-.28.257-.5.35-.58.092-.1.147-.08.35-.06.202.02.533.02.828.02.276 0 .497.02.644.02.148.02.221.02.277.06.055.04.11.1.202.26z" fill="#080902"/><path fill-rule="evenodd" clip-rule="evenodd" d="M3.22 57.22c.57 0 1.178.02 1.473.02.295 0 .295 0 .295.08v.34c0 .1 0 .16-.019.2-.018.04-.037.04-.055.04h-.35c-.35 0-1.031-.02-1.583-.02-.553 0-.976-.02-1.197-.02-.221 0-.258 0-.276-.02-.019 0-.037-.02-.037-.04v-.14c0-.1 0-.3.018-.38.019-.1.037-.1.313-.08.295 0 .847 0 1.418.02z" fill="#FBD16B"/><path fill-rule="evenodd" clip-rule="evenodd" d="M6.72 12.286c.166.22.313.42.48.6.165.18.349.32.515.4.165.08.276.12.405.04.129-.06.24-.22.35-.52.11-.28.202-.7.239-.9.037-.2.037-.2.166-.08.129.12.368.36.92.64.553.28 1.4.6 1.97.8.166.06.755.3.866.3 1.178.1 2.486 3.902 2.983 4.482.644.76 1.307-.38 1.602.24.276.62.313 1.1.276 1.56-.037.46-.166.9-.442 1.281-.276.38-.681.7-1.105.78-.092.02-.202.02-.294.02.165 1.22.147 2.24-.11 2.781-.258.56-.756.62-1.271.66-.516.04-1.068.06-1.841.08-.774.02-1.787.06-2.91.06-1.123.02-2.357.02-3.259.02-.902 0-1.491-.02-1.804-.04-.313-.02-.369-.02-.406-.3-.036-.28-.055-.8-.092-1.4-.036-.58-.092-1.22-.202-1.74-.11-.54-.258-.961-.368-1.181-.11-.22-.203-.22-.387-.28a11.17 11.17 0 01-.866-.26c-.386-.14-.847-.32-1.104-.44-.258-.12-.332-.18-.369-.26-.036-.08-.073-.16.019-.84.073-.681.276-1.941.479-2.842.202-.88.441-1.4.589-1.68.147-.28.202-.3.589-.46.387-.16 1.123-.46 1.75-.8a10.55 10.55 0 001.528-1c.331-.26.46-.36.515-.4.055-.06.055-.06.147.06.093.18.277.42.442.62z" fill="#E0E0E0"/><path fill-rule="evenodd" clip-rule="evenodd" d="M8.249 13.146c-.092.16-.166.2-.203.22-.055.02-.073.02-.22-.08-.148-.1-.387-.3-.682-.6-.276-.28-.608-.66-.773-.84-.184-.18-.203-.18-.332-.12s-.331.18-.442.26c-.11.08-.11.14-.055.38a9.177 9.177 0 00.958 2.16c.165.241.257.301.386.261.13-.04.277-.18.46-.4.185-.22.424-.52.535-.66.129-.14.147-.14.35 0 .184.14.552.44.81.6.257.16.442.2.552.18.11 0 .166-.06.166-.26s-.019-.54-.037-.86c-.018-.32 0-.64 0-.82 0-.18 0-.22-.037-.28-.037-.06-.129-.12-.294-.2-.166-.1-.406-.24-.534-.28-.13-.04-.13 0-.166.1-.019.12-.074.28-.148.52-.073.24-.202.54-.294.72z" fill="#BDBDBD"/><path fill-rule="evenodd" clip-rule="evenodd" d="M10.916 16.588c-.037.92-.037 1.98-.037 2.54-.018.56-.036.64-.073.68-.037.04-.11.06-.553.08-.442.02-1.27.04-2.062.06-.773.04-1.51.08-1.878.12-.368.02-.405.02-.497-.62-.092-.66-.258-1.96-.479-3.06-.221-1.12-.479-2.041-.626-2.581-.147-.54-.166-.7-.203-.8-.036-.1-.055-.16-.073-.16-.019-.02-.055 0-.074.02a.285.285 0 01-.11.08c-.056.02-.148.06-.24.08-.092.02-.165.02-.22.04-.056.02-.074.04-.093.06 0 .04 0 .08.166.78.166.72.497 2.1.663 3.72.166 1.621.184 3.502.184 4.622s-.018 1.5-.037 1.76c-.018.26-.055.42-.184.48-.129.061-.331.061-.442.121-.11.06-.092.2-.092.26s0 .06-.074.46c-.073.38-.202 1.16-.331 2.32-.129 1.161-.24 2.682-.35 5.102-.11 2.401-.22 5.702-.442 9.343-.22 3.641-.57 7.643-.736 9.703-.166 2.06-.13 2.16-.074 2.2.055.06.129.06.681.1.534.04 1.547.121 2.044.141.516.02.534-.04.681-1 .166-.98.46-2.861.792-4.962.332-2.12.681-4.441 1.068-6.862.368-2.42.774-4.941.994-6.322.221-1.38.258-1.62.313-1.74.056-.12.093-.14.111.02 0 .16-.018.5.055 2.7.074 2.201.258 6.282.424 9.583.165 3.301.313 5.842.368 7.183.074 1.34.074 1.48.074 1.62 0 .16-.019.32.313.28.313-.04.976-.28 1.491-.5.534-.22.92-.44 1.142-.56.202-.12.24-.14.258-.16.018-.02.055-.06.055-.92.018-.86.018-2.561.092-5.562.092-3.001.258-7.302.313-10.383.055-3.101 0-4.982-.166-6.842-.166-1.861-.405-3.682-.607-5.882-.203-2.2-.332-4.762-.406-6.582-.073-1.82-.055-2.881-.055-3.461 0-.56.019-.64-.018-.66-.037-.04-.11-.04-.203-.06-.092-.02-.202-.08-.294-.12a.88.88 0 00-.258-.08c-.074 0-.11.04-.11.08-.02.04-.02.06-.02.24-.018.18-.036.5-.073 1.06 0 .54-.055 1.32-.092 2.24z" fill="#101E25"/><path fill-rule="evenodd" clip-rule="evenodd" d="M10.404 33.073c-.148.44-.387 1.18-.59 1.68-.183.5-.33.76-.423 1.16-.092.4-.147.94-.239 1.32-.092.381-.22.581-.294.701-.074.1-.074.1-.092-.44-.019-.56-.056-1.66-.074-2.42-.018-.761-.018-1.161-.037-1.401 0-.24-.018-.34-.018-.38 0-.04 0-.04.147-.1.147-.06.442-.16.7-.32.257-.14.478-.32.643-.46.166-.14.277-.24.35-.24.074 0 .11.1.11.22-.018.1-.036.24-.183.68zM9.226 25.55c.442 0 .957-.02 1.197-.02.258 0 .258 0 .258.26s.018.8.036 1.2c.019.4.019.66 0 .801-.018.14-.055.18-.515.2-.46.04-1.344.08-2.026.12-.68.02-1.16.02-1.454 0-.295-.02-.387-.06-.442-.12-.055-.06-.055-.14-.055-.54s.018-1.14.018-1.52v-.36H7.9c.497 0 .884 0 1.326-.02zm-4.384.02c0-.06-.018-.1-.074-.12-.055 0-.092.02-.11.08-.11.82-.24 1.66-.35 2.541-.11.88-.22 1.84-.313 2.92-.092 1.141-.166 2.382-.276 3.882-.092 1.38-.184 2.981-.332 4.882-.294 3.94-.736 9.122-1.178 14.284v.02c0 .06.037.1.092.1s.092-.04.092-.1v-.02c.442-5.202.884-10.383 1.179-14.285.128-1.88.239-3.48.331-4.88.092-1.501.166-2.762.258-3.882.092-1.08.202-2.02.313-2.921.129-.86.258-1.68.368-2.5zm8.25 27.669c.018.18.018.52.018.76s0 .4-.018.52c0 .12-.019.2-.11.3-.093.1-.277.24-.535.36-.257.12-.589.2-.902.24-.313.04-.607.06-.884.04a6.529 6.529 0 01-.755-.1c-.22-.04-.386-.1-.46-.2-.074-.1-.074-.24-.074-.42s.019-.36.019-.56c0-.18-.037-.38-.019-.5.019-.12.092-.2.221-.2.13 0 .369.02.755.02.387 0 .976-.06 1.381-.14.424-.08.7-.2.884-.28.184-.08.295-.1.368-.08.037.02.092.06.11.24z" fill="#080902"/><path fill-rule="evenodd" clip-rule="evenodd" d="M5.486 54.019c-.055.22-.147.52-.184.74-.037.22-.019.34-.019.44 0 .1-.036.16-.257.22-.24.06-.682.12-1.253.06a8.17 8.17 0 01-1.657-.36c-.405-.12-.478-.22-.534-.32a.608.608 0 01-.092-.34c0-.16.037-.42.074-.64.037-.22.074-.44.129-.58.055-.12.147-.18.258-.16.11.02.257.1.497.18.24.08.552.18.939.24.386.06.81.1 1.197.08.368 0 .681-.06.828 0 .13.06.13.2.074.44z" fill="#080902"/><path fill-rule="evenodd" clip-rule="evenodd" d="M8.155 10.826c.13.04.276.06.368.08.093.04.13.08.148.18.018.1.037.24.055.36.018.12.018.18-.018.24-.056.06-.166.12-.332.14a1.8 1.8 0 01-.681-.08c-.276-.08-.59-.22-.829-.36a3.349 3.349 0 01-.534-.34c-.092-.06-.092-.06-.092-.14v-.76c0-.02 0-.08.074-.06.055.02.184.1.423.2.258.1.645.26.903.34.239.14.368.18.515.2z" fill="#FF9E69"/><path fill-rule="evenodd" clip-rule="evenodd" d="M5.21 8.385c.056.02.056.02.111.26.055.22.184.68.331 1 .13.3.295.46.59.7.294.24.755.54 1.141.72.387.18.7.2.903.22.202.02.313 0 .534-.1.22-.1.552-.32.847-.62.294-.32.57-.72.7-1.02.128-.3.128-.48.165-.88.018-.4.074-1 .129-1.76.055-.74.147-1.641.184-2.181.037-.54.018-.74-.074-1s-.294-.58-.791-.92c-.498-.34-1.29-.68-1.97-.72-.682-.06-1.253.18-1.695.4-.442.22-.718.4-.902.62-.184.22-.258.44-.313.7-.055.24-.11.52-.166.78-.055.28-.092.56-.165.78-.074.22-.166.4-.221.52-.056.12-.074.18-.092.22-.019.04-.037.06-.092.1-.037.04-.093.12-.13.32-.036.18-.036.46.02.7.054.24.146.42.275.6.13.16.258.32.387.42.129.081.24.121.295.141z" fill="#FFAF69"/><path fill-rule="evenodd" clip-rule="evenodd" d="M9.392 9.085c-.11 0-.258.04-.497.08-.24.04-.534.06-.774.06s-.423-.04-.552-.08c-.147-.04-.258-.08-.332-.1-.073 0-.092.02-.11.08 0 .06.018.12.074.26.055.14.165.38.313.54.165.18.368.3.607.36.221.06.46.04.682-.1.22-.12.405-.36.534-.56.128-.2.184-.34.202-.42 0-.08-.037-.12-.147-.12z" fill="#080902"/><path fill-rule="evenodd" clip-rule="evenodd" d="M9.26 9.145c0 .02-.036.1-.073.16s-.11.16-.166.24a1.35 1.35 0 01-.202.18c-.074.04-.129.04-.24.06-.11 0-.275 0-.404-.02a5.157 5.157 0 01-.368-.06c-.092-.02-.148-.04-.203-.1-.037-.04-.073-.12-.11-.18a.798.798 0 01-.037-.18c0-.04 0-.08.018-.1.019-.02.019-.02.092 0 .074.02.185.04.35.06.166.02.35.04.552.02.203 0 .387-.04.534-.06.129-.02.184-.04.24-.04 0-.02.018-.02.018.02z" fill="#F9F9F9"/><path fill-rule="evenodd" clip-rule="evenodd" d="M8.654 7.185c0-.06-.037-.1-.092-.1s-.092.04-.092.1a.822.822 0 00.037.42c.037.08.073.14.129.2.055.06.11.1.147.14.037.02.055.04.092.08.055.04.092.06.11.1.019.02.019.04.037.06 0 .02.019.04.019.06v.04c0 .02-.019.02-.019.04l-.037.04c-.018.02-.055.04-.073.06a.527.527 0 01-.184.08.091.091 0 00-.056.12c.019.06.074.08.11.06.074-.02.13-.06.203-.08l.11-.06a.15.15 0 00.074-.08c.019-.04.037-.08.056-.1.018-.04.018-.08.018-.12 0-.04-.018-.08-.037-.12a.446.446 0 00-.055-.1.823.823 0 00-.22-.18c-.038-.04-.093-.08-.13-.12a.61.61 0 01-.092-.14c-.073-.16-.055-.28-.055-.4z" fill="#F46F2D"/><path fill-rule="evenodd" clip-rule="evenodd" d="M10.275 5.864c-.092-.08-.276-.14-.442-.16a1.124 1.124 0 00-.441-.02c-.147.02-.276.04-.35.08-.074.04-.11.1-.11.16s.036.1.092.14c.073.02.184.02.294.02h.313c.11.02.24.04.331.06.092.02.148.04.203.04.073 0 .147-.04.165-.1.037-.06.037-.14-.055-.22zm-2.671-.22a.19.19 0 00-.055-.14.343.343 0 00-.221-.02c-.11.02-.295.04-.479.12-.184.06-.368.16-.478.24-.11.1-.166.18-.166.26 0 .08.074.14.147.14.074 0 .148-.06.24-.14.11-.06.239-.14.368-.18.128-.04.239-.06.331-.08.092 0 .166 0 .22-.04.038-.04.074-.1.093-.16z" fill="#211F17"/><path fill-rule="evenodd" clip-rule="evenodd" d="M9.886 6.885c.037.1.037.2.019.32-.019.1-.056.22-.092.3a.37.37 0 01-.13.16.188.188 0 01-.147 0 .461.461 0 01-.147-.18.718.718 0 01-.055-.3c0-.1 0-.22.037-.32.037-.08.073-.16.129-.18.055-.04.147-.04.22 0 .093.04.13.1.166.2zm-2.446 0c.038.1.038.2.02.32-.02.1-.056.22-.093.3a.37.37 0 01-.129.16.188.188 0 01-.147 0 .461.461 0 01-.147-.18.718.718 0 01-.055-.3c0-.1 0-.22.036-.32.037-.08.074-.16.13-.18.055-.04.147-.04.22 0 .092.04.147.1.166.2z" fill="#080902"/><path fill-rule="evenodd" clip-rule="evenodd" d="M5.8 7.085c0-.24.018-.64.055-1.02.037-.38.11-.74.184-1.02.074-.281.184-.481.294-.541.13-.08.277-.04.498-.02.22 0 .515-.02.736-.12.221-.1.387-.26.497-.4.11-.14.148-.26.184-.22.037.02.074.18.203.3.129.14.35.24.681.32.313.08.718.12 1.068.12.35 0 .645-.02.866-.12a.978.978 0 00.534-.42c.129-.2.22-.48.276-.74.055-.26.055-.52-.037-.74a.772.772 0 00-.424-.46c-.184-.08-.35-.08-.423-.14-.055-.08-.018-.181-.018-.361s-.019-.4-.184-.68c-.148-.28-.442-.6-.774-.74-.331-.14-.718-.08-.994.02s-.442.26-.571.38c-.129.12-.203.2-.331.18-.11-.02-.258-.18-.442-.28-.184-.1-.387-.14-.718-.14-.314.02-.755.08-1.124.3-.368.2-.663.54-.847.88-.184.34-.24.66-.276.92-.037.26-.037.42-.055.56a.502.502 0 01-.147.3c-.056.08-.13.14-.166.48-.037.34-.055.981-.037 1.421.018.44.055.72.074.86.018.14.018.14.092.12.073 0 .202-.02.331.04.13.04.24.14.35.32.11.18.203.42.276.62.074.2.13.36.166.42.055.06.092.04.11-.02.092-.04.092-.14.092-.38z" fill="#403E32"/><path fill-rule="evenodd" clip-rule="evenodd" d="M11.248 19.488c-.074-2.04-.037-2.06-.074-2.06-.037-.02-.129-.04-.92-.24-.792-.2-2.265-.56-3.002-.74l-.736-.18.092 2.16c.092 2.16.257 6.502.35 8.663.092 2.16.092 2.16.092 2.32v.64c0 .18.018.24.589.58.57.32 1.694.921 2.449 1.261.755.36 1.16.48 1.344.54.202.06.202.06.202-.4s0-1.4-.073-3.921c-.092-2.48-.24-6.562-.313-8.623z" fill="#F7CE66"/><path fill-rule="evenodd" clip-rule="evenodd" d="M8.25 16.688l.847.22.184 10.763-.792-.28-.239-10.703z" fill="#FBFBFC"/><path fill-rule="evenodd" clip-rule="evenodd" d="M6.132 25.23c-.018.26 0 .5.037.74s.055.5.074.88c.018.4 0 .941.037 1.201.018.28.073.28.22.3.148.02.406.08.645.1.258.02.497.04.92.1.424.06 1.032.16 1.326.2.295.04.313 0 .313-.06v-.22c0-.12.019-.3.019-1.58s0-3.661-.019-4.842c-.018-1.2-.018-1.22-.073-1.22-.037 0-.11 0-.663-.04-.553-.02-1.602-.08-2.118-.1l-.515-.02v.62c0 .62 0 1.84-.037 2.62-.055.741-.129 1.061-.166 1.321z" fill="#6A6856"/><path fill-rule="evenodd" clip-rule="evenodd" d="M7.953 21.309c-.424-.02-.847-.04-1.05-.06l-.203-.02-.018.98c-.018.98-.055 2.921-.055 3.901-.019.98 0 .98.018 1.02.019.02.074.08.497.16.424.08 1.252.18 1.658.22.405.04.423.04.423.04l.018-1.06c0-1.02.019-3.04.019-4.06 0-1.02 0-1.061-.019-1.081 0-.02 0-.02-.22-.02-.221.02-.645 0-1.068-.02z" fill="#E7E6E5"/><path fill-rule="evenodd" clip-rule="evenodd" d="M7.31 20.969v.12c0 .04.019.04.24.06.22.02.662.04.883.04.221 0 .24.02.24 0 0 0 .018-.02.018-.04v-.1c0-.02 0-.04-.019-.06l-.22-.02c-.221-.02-.663-.04-.884-.06-.22-.02-.22-.02-.239-.02-.018.04-.018.04-.018.08z" fill="#B1B1B1"/><path fill-rule="evenodd" clip-rule="evenodd" d="M7.383 21.189v.24c0 .06.018.06.184.08.184 0 .515.02.718.04h.257c.019 0 .019 0 .019-.06s-.019-.16-.019-.22v-.06h-.037s-.018.02-.018.04-.018.06-.018.1c0 .04 0 .08-.019.1-.018.02-.055.02-.202.02-.166 0-.46-.02-.608-.04-.147-.02-.165-.02-.184-.02-.018 0-.018-.02-.018-.06 0-.04-.018-.12-.018-.16v-.04H7.4c0-.02-.018-.02-.018.04z" fill="#929293"/><path fill-rule="evenodd" clip-rule="evenodd" d="M7.624 21.409c-.019.02-.019.08-.019.12 0 .04.019.04.11.04h.406c.11 0 .11 0 .129-.02v-.08c0-.02 0-.04-.037-.04-.019 0-.074 0-.166-.02-.092 0-.257-.02-.331-.02-.074-.02-.074-.02-.092.02z" fill="#101E25"/><path fill-rule="evenodd" clip-rule="evenodd" d="M6.573 23.97c-.165.26-.276.42-.442.52-.165.1-.405.12-.883-.02-.48-.12-1.197-.4-1.731-.62a6.62 6.62 0 01-1.068-.54c-.184-.12-.184-.16-.184-.26s.018-.26.11-.68c.092-.42.258-1.101.332-1.441.073-.34.073-.34.055-.34-.019 0-.037-.02-.148-.04a9.74 9.74 0 00-.497-.16c-.184-.06-.368-.14-.589-.22-.22-.1-.46-.2-.59-.26l-.128-.06-.037.52c-.037.52-.129 1.58-.184 2.44-.055.86-.11 1.54-.11 1.921 0 .38.055.42.331.56.295.14.81.38 1.639.58.828.18 1.952.32 2.56.42.625.08.736.14.81.18.073.06.128.12.257.34.11.22.313.58.46.8.166.22.277.301.369.341a.41.41 0 00.184.04c.037 0 .037.02.092.08s.166.14.276.2c.092.06.184.06.24.04.055-.02.073-.1.092-.16.018-.06.018-.1.018-.18 0-.08.018-.18.018-.26a.44.44 0 00-.073-.22 1.31 1.31 0 00-.221-.24 2.132 2.132 0 01-.203-.24c-.037-.06-.055-.08-.018-.08.037 0 .11.02.202.04.074.02.166.02.221-.04.056-.04.074-.14.074-.22 0-.08-.037-.14-.092-.22a1.393 1.393 0 01-.276-.42c-.11-.22-.221-.58-.295-.86a6.336 6.336 0 01-.147-.661c-.019-.16-.019-.24.073-.4.074-.14.24-.36.313-.5a.53.53 0 00.111-.34c0-.1-.018-.24-.037-.3-.018-.06-.055-.04-.11-.02-.056.02-.11.06-.258.24-.129.18-.35.5-.516.74z" fill="#FFAF69"/><path fill-rule="evenodd" clip-rule="evenodd" d="M2.154 20.389c.276.1.423.16.515.18.074.02.074.02.074.04v.08c0 .02-.018.06-.092.1-.074.04-.221.1-.405.12a2.798 2.798 0 01-1.104-.1c-.148-.04-.276-.1-.35-.12-.074-.02-.074-.02-.055-.16.018-.14.037-.42.055-.54.018-.14.018-.14.074-.1.055.02.165.08.405.18.239.06.625.22.883.32z" fill="#FF9E69"/><path fill-rule="evenodd" clip-rule="evenodd" d="M11.286 2.003c0 .08.073.24.055.5-.019.26-.147.6-.368.88s-.534.52-.866.62c-.331.1-.7.06-.994.02-.295-.04-.534-.12-.626-.12-.092 0-.037.06.055.12s.203.12.405.18c.184.06.46.12.7.14.24.04.46.04.681.04.221 0 .442 0 .645-.06.202-.06.368-.2.497-.3.11-.12.184-.2.24-.32.054-.1.11-.24.146-.38.037-.14.056-.3.074-.44a1.115 1.115 0 00-.11-.62c-.037-.06-.074-.12-.13-.18a.924.924 0 00-.22-.16c-.11.04-.184 0-.184.08z" fill="#4F4D3E"/><path fill-rule="evenodd" clip-rule="evenodd" d="M11.473 26.21c.037 1.54.092 3.761.11 4.882l.02 1.16v.2c0 .04.018.02 1.288-.26 1.289-.28 3.848-.82 5.119-1.1 1.289-.28 1.289-.3 1.289-.34 0-.04 0-.06-.074-2.461-.074-2.4-.202-7.182-.258-9.583l-.073-2.38-1.29.18-5.155.72-1.289.18.037.94c.037.94.092 2.8.147 4.161.056 1.36.092 2.18.13 3.701z" fill="#DBB158"/><path fill-rule="evenodd" clip-rule="evenodd" d="M8.633 16.788c-.773-.2-1.454-.36-1.786-.44l-.331-.08 1.27-.12 5.1-.48c1.271-.12 1.271-.12 1.308-.12.037 0 .092.02.884.16s2.301.4 3.056.52l.755.12-.386.06c-.387.06-1.179.16-2.468.34-1.289.18-3.093.42-3.995.56l-.903.12-.442-.1c-.405-.12-1.289-.34-2.062-.54z" fill="#FBD16B"/><path fill-rule="evenodd" clip-rule="evenodd" d="M9.15 12.326l6.537.04.055 4.322-6.555.26-.037-4.622z" fill="#DBB158"/><path fill-rule="evenodd" clip-rule="evenodd" d="M8.506 12.346l.644-.02.037 4.622-.644-.36-.037-4.242z" fill="#F7CE66"/><path fill-rule="evenodd" clip-rule="evenodd" d="M12.778 12.346h-1.104v3.341h1.086l.018-3.34zm2.687 4.482l-1.178.16.387 12.483 1.14-.22-.349-12.423z" fill="#FBFBFC"/><path fill-rule="evenodd" clip-rule="evenodd" d="M13.496 16.788l1.399-.06.57.1-1.178.16-.79-.2zm-4.399.12l-.847-.22.626-.12.276.32-.055.02z" fill="#FBFBFC"/><path d="M14.968 13.066h-1.6v1.12h1.6v-1.12z" fill="#FBFBFC"/><path fill-rule="evenodd" clip-rule="evenodd" d="M16.258 17.708l1.877-.3v1.34l-1.877.3v-1.34z" fill="#FBFBFC"/><path fill-rule="evenodd" clip-rule="evenodd" d="M12.593 55.18c.092.18.258.48.369.84.11.38.147.84.165 1.1.019.28-.018.36-.11.4-.074.06-.221.08-.718.08s-1.363-.02-1.86-.04c-.497-.02-.663-.04-.737-.08-.073-.04-.092-.12-.092-.3 0-.2-.018-.5.037-.82.055-.32.166-.64.295-.9.129-.28.258-.5.35-.58.092-.1.147-.08.35-.06.202.02.534.02.828.02.276 0 .497.02.645.02.147.02.22.02.276.06.073.04.11.08.202.26z" fill="#080902"/><path fill-rule="evenodd" clip-rule="evenodd" d="M11.359 57.32c.57 0 1.178.02 1.473.02.294 0 .294 0 .294.08v.34c0 .1 0 .16-.018.2-.019.04-.037.04-.055.04h-.35c-.35 0-1.031-.02-1.584-.02-.552 0-.976-.02-1.197-.02-.22 0-.257 0-.276-.02-.018 0-.037-.02-.037-.04v-.14c0-.1 0-.3.019-.38.018-.1.037-.1.313-.08.294 0 .847.02 1.418.02z" fill="#FBD16B"/><path fill-rule="evenodd" clip-rule="evenodd" d="M5.506 1.403c.074.16.018.58.055.92.037.34.184.6.405.8.221.2.497.32.737.36.24.06.442.02.607-.04.166-.06.313-.18.405-.18.093 0 .13.08.093.18-.037.1-.148.24-.406.36-.257.12-.68.24-1.086.22-.405-.02-.792-.2-1.068-.46a1.46 1.46 0 01-.423-.96c-.019-.36.073-.76.239-1.02.166-.24.368-.34.442-.18z" fill="#4F4D3E"/><path fill-rule="evenodd" clip-rule="evenodd" d="M41.293 32.607c-.352-1.53-.92-4.265-1.191-6.09-.271-1.823-.271-2.676 0-3.323.27-.648.812-1.03 1.76-1.354.947-.294 2.355-.5 5.036-.559 2.68-.058 6.66.03 9.097.148 2.437.117 3.358.264 4.034.617.704.353 1.165.912 1.3 1.765.136.883-.081 2.06-.406 3.825-.325 1.765-.758 4.118-.948 5.295-.216 1.177-.216 1.177-.487 1.5-.27.324-.84 1-1.354 1.795-.514.824-.975 1.765-1.327 2.177-.352.382-.568.235-.704.147-.108-.088-.108-.088-1.57-.03-1.462.06-4.386.206-6.227.148-1.842-.03-2.6-.265-2.979-.383-.379-.117-.379-.117-.487 0-.109.088-.298.294-.569-.147-.27-.441-.623-1.47-1.029-2.148-.406-.676-.812-.97-1.11-1.265-.325-.294-.487-.588-.84-2.118z" fill="#FDE742"/><path fill-rule="evenodd" clip-rule="evenodd" d="M44.867 38.05c.055.118.055.118-.324.5-.352.383-1.083 1.147-1.435 1.56-.352.411-.38.44-.38.44s-.026 0-.135-.47c-.108-.5-.27-1.5-.514-2.265-.244-.765-.488-1.324-.758-1.707-.271-.382-.569-.647-.948-.823-.38-.206-.866-.353-1.164-.442-.298-.088-.38-.088-.407-.088h.028s-.055 0-.027-.03c.027-.029.162-.058.676-.176.488-.088 1.354-.265 1.787-.323.434-.06.434-.03.488.029.027.059.108.147.162.235a.965.965 0 00.298.236c.163.088.406.235.623.353.216.117.379.264.514.382.163.147.298.324.46.53.163.235.298.5.434.764.135.265.244.53.352.765.135.206.216.412.27.53zm12.022-1.412c-.135.235-.325.588-.487.912-.163.294-.271.559-.352.706-.054.117-.054.117.297.47.38.353 1.11 1.03 1.463 1.383.379.353.379.383.406.383l.162-.353c.136-.354.433-1.06.92-1.913.488-.853 1.165-1.824 1.544-2.47.38-.648.433-.972.542-1.119.135-.147.325-.117.406-.088.081 0 .054 0-.217-.03-.298-.058-.84-.146-1.191-.235a3.563 3.563 0 01-.65-.147c-.081-.03-.081-.03-.135 0-.055.03-.136.088-.352.236-.19.117-.488.294-.786.53-.297.205-.541.44-.758.646-.216.206-.352.412-.487.56-.108.146-.19.293-.325.529z" fill="#C6B532"/><path fill-rule="evenodd" clip-rule="evenodd" d="M43.242 39.844c-.406.353-.866.736-.975.824-.108.118.163-.03 2.978-.03 2.79 0 8.096.118 10.696.118 2.572 0 2.436-.147 2.382-.206-.081-.058-.081-.058-.27-.235l-.948-.882c-.38-.353-.731-.706-.92-.853-.19-.177-.19-.177-.245-.148-.054 0-.189.03-.676.03-.515 0-1.408-.03-3.06-.06a261.26 261.26 0 01-5.47-.146c-1.353-.03-1.57-.059-1.678-.059-.108 0-.108 0-.217.088l-.568.618c-.298.265-.623.588-1.03.941z" fill="#E8D43F"/><path fill-rule="evenodd" clip-rule="evenodd" d="M42.185 41.168c0 .441.027 1.295.027 1.706v.442s0 .03.92.059c.922.029 2.736.058 5.552.058 2.815.03 6.66.06 8.583.06 1.922 0 1.95 0 1.95-.03.026-.03.053-.118.053-.618 0-.47 0-1.353-.027-1.824-.027-.47-.054-.53-.216-.53-.163-.029-.488-.029-1.788-.029h-6.173c-2.626 0-5.577-.059-7.094-.059h-1.678c-.055 0-.109 0-.109.03-.027.03-.027.059-.027.117 0 .089 0 .177.027.618z" fill="#F1DB41"/><path fill-rule="evenodd" clip-rule="evenodd" d="M58.947 40.903v1.5c0 .442-.027.648-.054.736 0 .088 0 .088-.054.088-.028 0-.109.03-.163.03h-4.684c-1.381 0-2.627 0-4.278-.03-1.679 0-3.79-.03-5.09-.059-1.3-.029-1.76-.029-1.977-.058-.217-.03-.217 0-.217-.03v-2.413c0-.117 0-.146.028-.176 0-.029.027-.029.054-.029h.189v-.177c0-.176-.027-.558-.081-1.088-.054-.5-.108-1.147-.162-1.589a4.931 4.931 0 00-.19-.941c-.081-.235-.19-.5-.325-.735a2.468 2.468 0 00-.487-.589 2.49 2.49 0 00-.704-.441 5.943 5.943 0 00-.785-.265c-.217-.059-.352-.059-.515-.059-.162 0-.352.03-.569.118a1.54 1.54 0 00-.622.47 1.52 1.52 0 00-.325.972c-.027.411.081.853.243 1.323.19.442.434.883.704 1.56.244.676.46 1.617.731 2.47.271.854.57 1.648.894 2.295.325.647.704 1.148 1.056 1.442.352.323.704.441.975.53.27.087.487.117 3.14.117 2.654 0 7.771-.03 10.425-.059 2.653-.03 2.843-.03 3.06-.118.216-.058.46-.206.785-.706s.73-1.382 1.001-2.265c.271-.882.38-1.735.569-2.324.19-.618.46-.97.677-1.441a6.85 6.85 0 00.514-1.707c.109-.647.136-1.294.027-1.765a1.266 1.266 0 00-.568-.794c-.19-.118-.298-.147-.406-.147-.109-.03-.163-.03-.325 0-.163 0-.406.059-.65.118-.217.058-.406.147-.596.235-.19.118-.379.265-.568.47-.19.207-.38.471-.569.824-.19.324-.352.736-.46 1.089-.108.353-.19.676-.244 1.03-.054.352-.108.764-.135 1.147-.027.382-.054.706-.054.882v.177h.108c.108 0 .325 0 .433.03.19-.03.217 0 .244.352z" fill="#FDE742"/><path fill-rule="evenodd" clip-rule="evenodd" d="M43.485 45.816h-.352c-.054 0-.054 0-.542 1.5-.487 1.5-1.435 4.53-1.895 6.06-.46 1.53-.46 1.59-.406 1.619.054.03.135.059.325.059s.514-.06.704-.118c.19-.059.216-.118.65-1.148.433-1.03 1.272-3 1.895-4.471.623-1.5 1.083-2.5 1.272-3 .19-.5.163-.5-.054-.5h-1.597zm3.958 0h-.704l-.379 1.118a809.791 809.791 0 00-1.516 4.53c-.38 1.177-.406 1.236-.38 1.295.028.059.109.059.271.088.163 0 .407 0 .542-.03.135 0 .135 0 .623-1.176.487-1.177 1.462-3.5 1.95-4.677.487-1.177.487-1.177.405-1.177h-.379c-.135.03-.243.03-.433.03zm10.472 0h.352c.054 0 .054 0 .542 1.5.487 1.5 1.435 4.53 1.895 6.06.46 1.53.46 1.59.406 1.619-.054.03-.135.059-.325.059s-.514-.06-.704-.118c-.19-.059-.216-.118-.65-1.148-.433-1.03-1.272-3-1.895-4.471-.623-1.5-1.083-2.5-1.273-3-.19-.5-.162-.5.055-.5h1.597zm-3.949 0h.704l.379 1.118a809.829 809.829 0 011.516 4.53c.38 1.177.406 1.236.38 1.295-.028.059-.11.059-.272.088-.162 0-.406 0-.541-.03-.136 0-.136 0-.623-1.176-.487-1.177-1.462-3.5-1.95-4.677-.487-1.177-.487-1.177-.405-1.177h.379c.135.03.243.03.433.03z" fill="#141515"/></svg>