<svg width="108" height="90" fill="none" xmlns="http://www.w3.org/2000/svg"><path d="M89.001 7l.189-.463L89 7zm-.483 82.124a.5.5 0 00.608.36l4.359-1.12a.5.5 0 00-.25-.968l-3.873.995-.996-3.874a.5.5 0 00-.968.25l1.12 4.358zM6.542 6.364a.5.5 0 00-.189-.982l.19.982zM17.35 3.508a.5.5 0 10.148.989l-.148-.99zm11.163-.435a.5.5 0 10-.107-.994l.107.994zm11.02-1.949a.5.5 0 00.062.998l-.062-.998zm11.165.603a.5.5 0 10-.007-1l.007 1zm11.158-.706a.5.5 0 00-.063.998l.063-.998zm10.96 2.189a.5.5 0 00.157-.988l-.157.988zm11.086 1.468a.5.5 0 00-.29.957l.29-.957zm9.987 5.4a.5.5 0 10.542-.84l-.542.84zm8.688 7.514a.5.5 0 00-.858.514l.858-.514zm2.825 11.191a.5.5 0 00.989-.15l-.989.15zm1.247 11.508a.5.5 0 10-.996-.087l.996.087zm-2.895 11.237a.5.5 0 00.973.232l-.973-.232zm-2.32 11.373a.5.5 0 10-.944-.329l.944.329zm-5.155 10.395a.5.5 0 00.917.4l-.917-.4zm-4.08 10.89a.5.5 0 10-.888-.46l.887.46zM1 7l.113.487h.001a.663.663 0 01.021-.005l.069-.016.27-.06c.24-.054.596-.133 1.06-.232.927-.198 2.286-.479 4.008-.81l-.189-.982a202.212 202.212 0 00-5.096 1.047 65.769 65.769 0 00-.346.078l-.018.004-.004.001H.887L1 7zm16.498-2.503c3.332-.499 7.045-.993 11.015-1.424l-.107-.994A275.03 275.03 0 0017.35 3.508l.148.989zm22.097-2.375c3.621-.225 7.346-.369 11.103-.395l-.007-1c-3.778.027-7.521.17-11.158.397l.062.998zm22.198-.103c3.738.236 7.436.621 11.023 1.19l.157-.987c-3.623-.575-7.353-.964-11.117-1.2l-.063.997zm21.82 3.616a59.775 59.775 0 015.2 1.828l.377-.926a60.77 60.77 0 00-5.288-1.86l-.29.958zm5.2 1.828a30.46 30.46 0 015.076 2.615l.542-.84a31.54 31.54 0 00-5.241-2.701l-.377.926zm12.906 10.643c1.918 3.202 3.093 6.814 3.683 10.677l.989-.15c-.607-3.967-1.818-7.707-3.814-11.041l-.858.514zm3.934 22.098c-.327 3.746-1 7.56-1.899 11.324l.973.232c.908-3.801 1.59-7.665 1.922-11.469l-.996-.087zm-5.163 22.368a152.32 152.32 0 01-4.211 10.724l.917.4a152.992 152.992 0 004.238-10.795l-.944-.329zm-9.18 21.153a139.88 139.88 0 01-1.987 3.701 87.568 87.568 0 01-.702 1.236l-.037.063-.01.016a.167.167 0 01-.002.004l.43.255.43.254.001-.001.003-.005a1.627 1.627 0 00.048-.082l.15-.258c.13-.226.32-.56.562-.994a141.62 141.62 0 002.002-3.728l-.887-.46zM89.002 7l.377-.927L89 7zm-.968 82.249a1 1 0 001.218.72l8.717-2.24a1 1 0 10-.498-1.937l-7.748 1.99-1.991-7.748a1 1 0 00-1.938.498l2.24 8.717zM6.637 6.855a1 1 0 00-.378-1.964l.378 1.964zm10.639-3.842a1 1 0 10.296 1.978l-.296-1.978zm11.291.557a1 1 0 00-.215-1.988l.215 1.988zM39.502.625a1 1 0 10.124 1.996L39.502.625zm11.2 1.602a1 1 0 00-.015-2l.014 2zM61.886.522a1 1 0 10-.125 1.996l.125-1.996zm10.85 3.182a1 1 0 00.314-1.976l-.313 1.976zm11.31.495a1 1 0 00-.58 1.915l.58-1.915zm9.571 6.3a1 1 0 101.084-1.682l-1.084 1.681zm9.388 6.836a1 1 0 00-1.716 1.028l1.716-1.028zm1.902 11.524a1 1 0 001.977-.302l-1.977.302zm2.24 11.475a1 1 0 00-1.993-.174l1.993.175zm-3.88 11.078a1 1 0 001.945.464l-1.945-.464zm-1.361 11.653a1 1 0 00-1.889-.657l1.889.657zM95.82 73.097a1 1 0 001.834.799l-1.834-.8zm-3.178 11.32a1 1 0 10-1.775-.922l1.775.921zM1 7l.226.974h.001l.004-.001.016-.004.068-.015.269-.06a197.592 197.592 0 015.053-1.04l-.378-1.963a202.734 202.734 0 00-5.111 1.05 65.882 65.882 0 00-.367.083l-.005.001H.774L1 7zm16.572-2.01c3.326-.498 7.032-.991 10.995-1.42l-.215-1.989c-3.993.433-7.726.93-11.076 1.431l.296 1.978zm22.054-2.37c3.613-.225 7.329-.368 11.075-.394l-.014-2c-3.787.027-7.54.171-11.185.398l.124 1.996zm22.136-.103c3.724.235 7.406.619 10.976 1.186l.313-1.976C69.411 1.15 65.665.76 61.887.522l-.125 1.996zm21.706 3.596a59.26 59.26 0 015.157 1.812l.753-1.853A61.26 61.26 0 0084.046 4.2l-.578 1.915zm5.157 1.812a30.048 30.048 0 014.993 2.572l1.084-1.68a32.042 32.042 0 00-5.324-2.745l-.753 1.853zm12.665 10.437c1.879 3.136 3.035 6.684 3.618 10.496l1.977-.302c-.614-4.018-1.843-7.823-3.879-11.222l-1.716 1.028zm3.865 21.797c-.324 3.717-.993 7.507-1.887 11.252l1.945.464c.913-3.82 1.6-7.708 1.935-11.541l-1.993-.175zm-5.137 22.248c-1.33 3.82-2.78 7.435-4.198 10.689l1.834.799a154.03 154.03 0 004.253-10.831l-1.889-.657zm-9.151 21.087c-.82 1.58-1.503 2.832-1.98 3.688a88.287 88.287 0 01-.735 1.289l-.008.015-.003.003v.001l.86.51.862.508.001-.002.003-.005.01-.017.04-.067.15-.26c.131-.229.323-.565.566-1 .486-.872 1.179-2.142 2.009-3.742l-1.775-.921z" fill="#4AAB3C"/></svg>