<svg width="75" height="45" fill="none" xmlns="http://www.w3.org/2000/svg"><path d="M65 12.678l.384-.32-.384.32zm-.455 31.21a.5.5 0 00.664.244l4.084-1.889a.5.5 0 00-.42-.907l-3.63 1.679-1.68-3.63a.5.5 0 00-.907.42l1.89 4.083zM5.155 6.931a.5.5 0 10-.273-.963l.273.963zm7.96-3.009a.5.5 0 00.21.978l-.21-.978zm8.5-.522a.5.5 0 00-.144-.99l.144.99zm8.293-1.881a.5.5 0 10.063.998l-.063-.998zm8.456.894a.5.5 0 10.044-1l-.044 1zm8.505-.038a.5.5 0 10-.19.982l.19-.982zm7.78 3.378a.5.5 0 00.395-.92l-.395.92zm7.702 3.546a.5.5 0 10-.647.762l.647-.762zm4.222 7.015a.5.5 0 10.926-.378l-.926.378zM69 23.975a.5.5 0 00-1 .027l1-.027zm-1.571 7.947a.5.5 0 00.988.153l-.988-.153zm-.748 8.066a.5.5 0 10-.963-.27l.963.27zM1 7.678l.162.473h.001l.003-.001.012-.004a15.544 15.544 0 01.25-.084A86.281 86.281 0 015.155 6.93l-.273-.962c-1.273.361-2.282.67-2.975.889a63.866 63.866 0 00-1.069.348L1 7.679zM13.325 4.9c2.52-.542 5.32-1.068 8.29-1.5l-.144-.99a126.34 126.34 0 00-8.357 1.512l.21.978zM29.97 2.517a79.115 79.115 0 018.393-.104l.044-1a80.111 80.111 0 00-8.5.106l.063.998zm16.708.84c2.787.54 5.47 1.321 7.97 2.396l.395-.92c-2.577-1.106-5.33-1.906-8.175-2.458l-.19.982zm15.025 6.704a24.1 24.1 0 012.912 2.938l.768-.64a25.08 25.08 0 00-3.033-3.06l-.647.762zm2.912 2.938c.815.978 1.459 2.095 1.957 3.315l.926-.378c-.531-1.301-1.225-2.51-2.115-3.578l-.768.64zM68 24.002c.072 2.654-.176 5.377-.571 7.92l.988.153c.401-2.583.657-5.369.582-8.1l-1 .027zm-2.282 15.716a65.792 65.792 0 01-.841 2.772 44.432 44.432 0 01-.325.952l-.018.049-.004.012a.06.06 0 00-.001.002v.001l.47.172.468.173.001-.002.001-.003.005-.014.02-.053.071-.203c.062-.178.152-.439.262-.773.22-.669.522-1.633.854-2.815l-.963-.27zM65 12.678l.768-.64-.768.64zm-.909 31.42a1 1 0 001.328.488l8.168-3.778a1 1 0 00-.84-1.815l-7.26 3.358-3.358-7.26a1 1 0 10-1.816.839l3.778 8.168zM5.291 7.412a1 1 0 00-.545-1.925l.545 1.925zm7.718-3.978a1 1 0 00.421 1.955l-.42-1.955zm8.678.46a1 1 0 00-.288-1.978l.288 1.979zm8.19-2.874a1 1 0 10.126 1.996l-.126-1.996zm8.465 1.892A1 1 0 1038.43.914l-.087 1.998zm8.622-1.027a1 1 0 10-.38 1.963l.38-1.963zm7.488 4.327a1 1 0 00.79-1.838l-.79 1.838zm8.223 2.706a1 1 0 10-1.295 1.524l1.295-1.524zm3.435 7.585a1 1 0 101.852-.756l-1.852.756zm3.39 7.459a1 1 0 10-1.999.054l2-.054zm-2.564 7.883a1 1 0 001.976.307l-1.976-.307zm.227 8.278a1 1 0 00-1.926-.54l1.926.54zM1 7.678l.325.946h.003a3.243 3.243 0 01.06-.021l.197-.066a102.785 102.785 0 013.706-1.125l-.545-1.925a108.7 108.7 0 00-2.99.893 64.471 64.471 0 00-1.062.346l-.014.005a.737.737 0 00-.005.002L1 7.678zm12.43-2.29c2.51-.54 5.3-1.063 8.257-1.493l-.288-1.98c-3.008.438-5.842.97-8.39 1.519l.421 1.955zm16.573-2.372a78.614 78.614 0 018.34-.104l.086-1.998a80.61 80.61 0 00-8.552.106l.126 1.996zm16.58.832c2.759.535 5.407 1.306 7.869 2.364l.79-1.838c-2.615-1.123-5.404-1.932-8.278-2.49l-.38 1.964zm14.797 6.594a23.597 23.597 0 012.852 2.877l1.536-1.28a25.585 25.585 0 00-3.093-3.121l-1.295 1.524zm2.852 2.877c.778.933 1.397 2.005 1.878 3.184l1.852-.756c-.548-1.342-1.267-2.596-2.194-3.709l-1.536 1.28zm3.27 10.697c.07 2.615-.175 5.307-.566 7.83l1.976.306c.404-2.604.664-5.421.588-8.19l-1.999.054zm-2.265 15.567a65.29 65.29 0 01-.834 2.751 43.814 43.814 0 01-.32.939l-.018.047a.397.397 0 00-.004.013l.938.346.939.344v-.002l.002-.004a1.16 1.16 0 00.025-.069l.073-.207c.063-.18.154-.444.265-.782a67.32 67.32 0 00.86-2.836l-1.926-.54z" fill="#4AAB3C"/></svg>