<svg width="92" height="52" fill="none" xmlns="http://www.w3.org/2000/svg"><path fill-rule="evenodd" clip-rule="evenodd" d="M15.57 45.165L17.29.228l1.186-.029-1.524 44.937-1.382.029z" fill="#DBA757"/><path fill-rule="evenodd" clip-rule="evenodd" d="M16.957 45.136L18.48.2l.367.086-1.439 44.623-.451.228z" fill="#FBD16B"/><path fill-rule="evenodd" clip-rule="evenodd" d="M27.1 45.28L26.254.085 27.326 0l1.015 45.165-1.24.114z" fill="#DBA757"/><path fill-rule="evenodd" clip-rule="evenodd" d="M28.348 45.165L27.331 0l.338.086 1.072 44.851-.395.228z" fill="#FBD16B"/><path fill-rule="evenodd" clip-rule="evenodd" d="M18.535 5.126l.028-1.509 7.757-.142.028 1.566-7.813.085zm7.885 4.955l-8.067.143-.056 1.651 8.18-.028-.057-1.766zm.151 7.433l-8.49.057-.028 1.708h8.575l-.057-1.765zm.165 8.002l-8.941.028v1.624l8.97.056-.029-1.708zm.143 8.514l-9.45.029-.056 1.88 9.562-.029-.056-1.88z" fill="#DBA757"/><path fill-rule="evenodd" clip-rule="evenodd" d="M67.644 48.668a4.27 4.27 0 004.26-4.271 4.27 4.27 0 00-4.26-4.272 4.27 4.27 0 00-4.26 4.272c0 2.335 1.919 4.271 4.26 4.271z" fill="#141515"/><path fill-rule="evenodd" clip-rule="evenodd" d="M67.658 46.105c.96 0 1.72-.769 1.72-1.737 0-.94-.76-1.737-1.72-1.737-.959 0-1.72.769-1.72 1.737 0 .968.761 1.737 1.72 1.737z" fill="#CBCCCD"/><path fill-rule="evenodd" clip-rule="evenodd" d="M66.693 43.656a204.897 204.897 0 01-3.949-2.962c-.987-.74-1.044-.769-1.1-.797-.056-.028-.141-.028-2.341-.057l-8.716-.114-2.172-.028-.649-1.566c-.648-1.567-1.946-4.7-2.651-6.408-.733-1.709-.874-1.993-1.495-2.848-.592-.854-1.664-2.22-2.482-3.19-.846-.967-1.439-1.508-2.06-1.964-.62-.456-1.212-.826-1.607-1.025-.423-.2-.62-.257-.903-.228-.282 0-.62.057-.761.085-.17.029-.141.057-.141.171v.626s.028 0 .226.03c.169 0 .507.028.705.056.225.029.338.057.733.285.395.228 1.072.655 1.72 1.168.621.512 1.185 1.082 1.862 1.879A28.504 28.504 0 0143 29.559c.65 1.026 1.185 2.08 1.777 3.418a90.794 90.794 0 011.665 4.329c.48 1.338.79 2.363.987 2.876.17.512.226.54.395.54.169.03.508.03 2.059.058 1.551.028 4.344.057 6.544.085 2.228.029 3.864.029 4.71 0h.931c.056 0 .085.029.93.655a207.47 207.47 0 003.33 2.478c.874.655 1.015.74 1.156.797.112.086.225.142.31.114.085 0 .17-.085.197-.17.029-.086-.028-.172-.084-.229-.141-.085-.198-.113-1.213-.854z" fill="#141515"/><path fill-rule="evenodd" clip-rule="evenodd" d="M58.112 40.837h.565c.027 0 .027 0-.17.228-.198.228-.593.655-1.636 1.822-1.044 1.168-2.764 3.047-3.752 4.13-.987 1.082-1.269 1.31-1.466 1.509a2.46 2.46 0 01-.564.427c-.226.114-.536.2-.875.228-.367.028-.79-.029-1.015-.114-.254-.086-.31-.171-.339-.313-.028-.143 0-.285 0-1.652 0-1.338-.028-3.844-.028-5.126v-1.253h.564v6.037c0 1.253.028 1.339.113 1.396.085.085.254.142.451.17.198.029.452.029.593 0 .169 0 .225-.028 1.41-1.196a777.818 777.818 0 004.598-4.812c1.184-1.253 1.297-1.396 1.353-1.453.057-.056.057-.056.085-.056-.028.028 0 .028.113.028z" fill="#6A6856"/><path fill-rule="evenodd" clip-rule="evenodd" d="M70.651 30.841a7.575 7.575 0 00-1.438 1.225c-.536.598-1.044 1.423-1.523 2.278-.48.854-.931 1.794-1.326 2.477-.395.684-.762 1.168-1.128 1.538-.395.399-.79.684-1.213.911-.423.228-.846.37-1.241.456a5.464 5.464 0 01-1.298.142c-.564.029-1.354 0-3.187-.028-1.834-.029-4.739-.057-6.572-.086-1.806-.028-2.539-.028-2.906-.028h-.366l-.085-.228a39.754 39.754 0 00-.677-1.623 201.74 201.74 0 00-1.354-3.275c-.423-.997-.677-1.623-.959-2.278-.282-.655-.564-1.339-.733-1.68l-.141-.342h.62c.621 0 1.89-.029 5.303-.114 3.413-.085 8.998-.256 12.806-.37 3.808-.114 5.81-.142 6.854-.171 1.044-.028 1.1-.028 1.1.029.028.056.028.142.028.284 0 .143 0 .342-.056.484-.056.086-.17.171-.508.4z" fill="#CBCCCD"/><path fill-rule="evenodd" clip-rule="evenodd" d="M45.56 39.697c-.423 0-.423 0-.423.029 0 .028 0 .114.14 1.766.142 1.651.424 4.926.593 6.55.141 1.622.141 1.651.17 1.68.028.028.056.085.338.113.282.057.761.086 1.608.114.846.029 2.002.029 2.736.029.733 0 1.015-.029 1.184-.057.141-.029.17-.029.17-.029l.225-1.68c.198-1.68.62-5.04.846-6.777.226-1.738.198-1.794.198-1.852 0-.056 0-.028-.931 0-.93.029-2.82.029-4.175.058-1.41.056-2.256.056-2.68.056z" fill="#F9F9F9"/><path fill-rule="evenodd" clip-rule="evenodd" d="M44.786 28.221c-.733-.626-1.946-1.823-2.68-3.389-.705-1.595-.902-3.588-.79-5.069.114-1.48.508-2.42.762-3.018.282-.598.395-.855.593-.855.197 0 .451.285.846.798.395.512.902 1.224 1.354 2.221.451.997.818 2.221 1.043 3.531.226 1.282.339 2.592.339 3.73 0 1.14-.056 2.108-.141 2.564-.056.455-.141.37-.282.284-.113-.056-.31-.142-1.044-.797zm3.789-8.372c-.395.028-.79.54-1.1 1.253-.339.712-.593 1.651-.733 2.762-.17 1.11-.226 2.42-.198 3.73.056 1.339.198 2.706.395 3.532.17.825.367 1.139.48 1.281.14.143.197.143.366 0 .17-.17.423-.484.705-1.139.282-.626.62-1.566.875-2.762.253-1.196.395-2.62.451-3.987.056-1.367-.028-2.62-.254-3.474-.225-.826-.592-1.253-.987-1.196z" fill="#33BB1F"/><path fill-rule="evenodd" clip-rule="evenodd" d="M50.348 11.875c-.226.342-.564.74-.874 1.424-.31.684-.593 1.623-.734 2.734-.14 1.139-.14 2.477.057 3.901.197 1.453.62 3.019.902 4.016.31.996.508 1.424.649 1.594.141.2.197.143.536-.256a9.606 9.606 0 001.354-2.107c.451-.969.733-2.136.902-3.503.17-1.367.198-2.905-.197-4.443-.367-1.509-1.128-2.99-1.58-3.701-.423-.713-.535-.627-.62-.456-.085.2-.17.456-.395.797z" fill="#60D213"/><path fill-rule="evenodd" clip-rule="evenodd" d="M51.132 26.883a9.475 9.475 0 00-.79 2.078c-.17.684-.226 1.282-.141 1.88.056.598.254 1.167.48 1.652.225.484.479.854.648.996.17.143.254.057.508-.398a9.004 9.004 0 00.93-2.393c.255-1.082.34-2.42.283-3.417-.085-.996-.31-1.651-.677-1.651-.367-.029-.874.57-1.241 1.253z" fill="#33BB1F"/><path fill-rule="evenodd" clip-rule="evenodd" d="M57.45 25.402c-.564.285-1.523.826-2.312 1.766-.762.94-1.326 2.306-1.693 3.502a14.248 14.248 0 00-.592 3.047c-.056.798.028 1.31.056 1.567.057.256.057.256.536.057.48-.2 1.41-.598 2.172-1.225.762-.626 1.354-1.51 1.749-2.477.423-.969.649-1.994.79-3.104.14-1.111.169-2.279.169-2.877 0-.598-.056-.598-.141-.598-.056 0-.197.057-.733.342z" fill="#60D213"/><path fill-rule="evenodd" clip-rule="evenodd" d="M42.765 18.026c-.028-.028 0-.085.056-.114.029-.028.085 0 .113.057.705 1.937 1.382 3.901 1.89 5.752.254.912.451 1.823.649 2.791.169.969.338 1.965.48 3.161.14.997.253 2.136.366 3.218.17 1.453.282 2.848.395 3.845.17 1.765.197 2.363.226 2.961 0 .057-.029.086-.085.086-.056 0-.085-.029-.085-.086-.028-.598-.056-1.196-.225-2.961-.085-.997-.226-2.392-.395-3.845-.113-1.082-.254-2.221-.367-3.218a53.554 53.554 0 00-.48-3.132 29.931 29.931 0 00-.62-2.762c-.508-1.852-1.213-3.817-1.918-5.753zm5.61 4.528c0-.057.056-.085.084-.057.057 0 .085.057.057.086-.113.797-.226 1.594-.339 2.363a33.44 33.44 0 00-.254 2.42c-.056.827-.113 1.68-.14 2.592a90.575 90.575 0 00-.057 2.876c0 2.05 0 4.443.028 6.835 0 .057-.028.085-.085.085-.056 0-.084-.028-.084-.085-.028-2.392-.057-4.756-.028-6.835 0-1.025.028-1.993.056-2.876a68.86 68.86 0 01.141-2.591c.056-.826.17-1.652.282-2.45.085-.797.198-1.566.339-2.363zm3.752 4.243c0-.057.029-.085.085-.085.056 0 .085.028.085.085-.057 1.282-.141 2.592-.282 3.702-.141.969-.31 1.794-.508 2.677l-.085.427c-.112.57-.254 1.168-.366 1.737-.113.513-.198 1.026-.282 1.51-.17 1.025-.282 1.908-.395 2.762 0 .057-.057.085-.085.057-.056 0-.085-.057-.056-.085.112-.883.225-1.738.395-2.763.084-.484.169-.996.282-1.538.112-.598.253-1.196.366-1.737l.085-.427c.197-.883.395-1.708.508-2.677a60.01 60.01 0 00.253-3.645zm4.913.057c.028-.028.056-.057.112-.028.029.028.057.057.029.114-.367.683-.706 1.366-1.072 2.078a35.841 35.841 0 00-1.016 2.108c-.31.683-.62 1.367-.874 2.022-.31.74-.592 1.423-.818 2.05-.226.598-.395 1.11-.564 1.566-.141.456-.254.854-.367 1.196-.084.342-.14.627-.197.911-.057.257-.085.513-.113.741 0 .057-.056.085-.085.057-.056 0-.084-.057-.056-.085.028-.228.056-.485.113-.77.056-.284.113-.569.197-.91.085-.342.198-.741.367-1.225.14-.456.338-.997.564-1.595.226-.626.508-1.338.818-2.079.282-.655.564-1.338.874-2.022.339-.712.677-1.424 1.044-2.107a71.94 71.94 0 011.044-2.022zm-6.257-13.242c0-.057.028-.085.084-.085.057 0 .085.028.085.085.056 1.965.14 3.958.056 5.952a73.546 73.546 0 01-.254 3.132c-.112 1.11-.282 2.335-.45 3.816l-.142 1.196c-.338 2.706-.761 5.838-.987 7.889-.254 2.335-.282 3.218-.31 4.1 0 .057-.029.086-.085.086-.056 0-.085-.029-.085-.086.029-.883.057-1.765.31-4.1a382.1 382.1 0 01.988-7.889l.14-1.196c.198-1.452.34-2.677.452-3.816.113-1.11.198-2.107.254-3.104.085-2.022.028-4.015-.056-5.98z" fill="#509663"/><path fill-rule="evenodd" clip-rule="evenodd" d="M77.059 44.909l5.105.085-.395-9.625-5.105.028.395 9.512zm8.681-.314l5.078-.17-.395-9.341-5.077.2.395 9.311z" fill="#929293"/><path fill-rule="evenodd" clip-rule="evenodd" d="M91.143 33.717a52.235 52.235 0 00-1.777 1.794c-5.472-.598-11.649-.854-18.616-.797.649-.627 1.833-1.168 3.554-1.623 10.041.085 15.655.284 16.84.626z" fill="#DBB158"/><path fill-rule="evenodd" clip-rule="evenodd" d="M91.056 49.066c-1.128 1.652-1.608 2.108-1.608 2.108a322.384 322.384 0 01-.113-15.691 52.989 52.989 0 011.777-1.794c.057 10.394-.056 15.377-.056 15.377z" fill="#DBB158"/><path fill-rule="evenodd" clip-rule="evenodd" d="M89.374 35.511a301.57 301.57 0 00.112 15.691c-10.916-.142-18.813-.655-18.813-.655-.085-8.116-.057-13.412.084-15.833 6.206-.114 12.411.17 18.617.797zM73.442 33.86c-.085 0-.141-.057-.141-.171 0-.086.056-.171.14-.171a111.05 111.05 0 018.153.057 142 142 0 018.349.598c.084 0 .14.085.112.17 0 .086-.056.143-.14.143-2.821-.285-5.586-.513-8.322-.598a156.002 156.002 0 00-8.151-.029z" fill="#F7CE66"/><path fill-rule="evenodd" clip-rule="evenodd" d="M78.483 34.77c.93.03 1.834.058 2.68.115.112-.114-.028 6.863 0 9.654 0 0-2.652-.114-2.765-.114l.085-9.654z" fill="#F9F9F9"/><path fill-rule="evenodd" clip-rule="evenodd" d="M81.168 34.885c-1.777-.086-2.68-.114-2.68-.114a767.976 767.976 0 002.426-1.595 79.66 79.66 0 001.749.029l-1.495 1.68z" fill="#E1E2E1"/><path fill-rule="evenodd" clip-rule="evenodd" d="M76.517 26.17c.17 1.766.48 4.87.65 6.494.168 1.623.168 1.737.76 1.822.593.086 1.806.171 2.962.143 1.129-.029 2.229-.2 2.793-.285.564-.086.648-.114.846-1.709.197-1.595.508-4.784.677-6.379.17-1.595.17-1.595.17-1.765 0-.171 0-.485-.283-.627-.282-.17-.874-.17-2.172-.17-1.297-.03-3.328-.058-4.541-.086-1.213-.029-1.636-.029-1.805.2-.254.198-.226.626-.057 2.363z" fill="#FDE742"/><path fill-rule="evenodd" clip-rule="evenodd" d="M75.618 24.548c.367.114.987.341 1.862.484.874.142 1.974.228 3.074.228 1.1 0 2.172-.057 3.103-.171a15.67 15.67 0 002.144-.427c.423-.114.535-.171.592-.228.056-.057.084-.114.084-.484v-1.396c0-.341 0-.341-.535-.455-.536-.114-1.608-.314-3.16-.4a48.231 48.231 0 00-4.992.03c-1.354.085-2.031.199-2.37.256-.338.057-.338.085-.338.455s0 1.14.028 1.51c.028.427.141.484.508.598z" fill="#FBD16B"/><path fill-rule="evenodd" clip-rule="evenodd" d="M76.264 22.611c.48.142 1.495.256 2.708.313a41.28 41.28 0 003.723.086 25.633 25.633 0 002.426-.171c.48-.085.62-.142.62-.2 0-.056-.14-.142-.62-.256-.48-.142-1.297-.341-2.651-.427-1.354-.085-3.216-.028-4.429.029-1.184.057-1.692.114-1.974.227-.254.114-.282.257.197.4z" fill="#080902"/><path fill-rule="evenodd" clip-rule="evenodd" d="M79.756 21.842c-.226-1.054-.536-3.132-.564-5.553-.029-2.42.225-5.154.818-7.233.592-2.08 1.523-3.474 2.369-4.614a46.285 46.285 0 011.946-2.449c.367-.427.367-.37.282 1.083-.084 1.48-.282 4.385-.677 6.72a26.48 26.48 0 01-1.608 5.667c-.62 1.566-1.24 2.876-1.58 4.072-.338 1.197-.394 2.25-.422 2.791-.028.541-.028.541-.113.541-.085.029-.226.029-.451-1.025z" fill="#33BB1F"/><path fill-rule="evenodd" clip-rule="evenodd" d="M79.835 21.33c0-.912-.028-2.934-.564-4.842a14.405 14.405 0 00-2.68-5.154 13.816 13.816 0 00-3.187-2.82c-.818-.54-1.241-.768-1.467-.768-.225 0-.225.2-.14.769.084.57.253 1.509.704 2.563a14.514 14.514 0 001.947 3.275c.79 1.025 1.607 1.822 2.313 2.676.705.826 1.24 1.68 1.72 2.478.48.797.846 1.566 1.072 2.05.226.485.282.655.282-.227z" fill="#60D213"/><path fill-rule="evenodd" clip-rule="evenodd" d="M82.018 18.51a5.87 5.87 0 011.693-2.591c1.015-.883 2.482-1.48 3.554-1.794 1.072-.342 1.72-.37 2.03-.37.31 0 .283.085.17.341a9.59 9.59 0 01-.705 1.31c-.395.627-1.016 1.481-1.862 2.136-.874.655-1.974 1.11-2.792 1.339-.818.227-1.326.199-1.693.199s-.564 0-.395-.57z" fill="#33BB1F"/><path fill-rule="evenodd" clip-rule="evenodd" d="M73.634 10.394a.087.087 0 010-.114.085.085 0 01.113 0c.762.968 1.552 1.908 2.257 2.905.705.996 1.382 1.993 1.918 3.047s.959 2.136 1.354 3.246c.366 1.11.677 2.25.987 3.39 0 .056-.028.085-.056.113-.057 0-.085-.028-.113-.057a65.04 65.04 0 00-.987-3.36 23.037 23.037 0 00-1.326-3.247 20.109 20.109 0 00-1.918-3.018c-.677-.997-1.467-1.937-2.229-2.905z" fill="#509663"/><path fill-rule="evenodd" clip-rule="evenodd" d="M82.805 6.038c.028-.057.056-.057.113-.057.056.028.056.057.056.114a31.18 31.18 0 00-.705 1.964 37.094 37.094 0 00-.677 2.393 31.406 31.406 0 00-.536 2.819c-.197 1.167-.367 2.42-.536 3.588-.282 2.164-.48 4.1-.649 6.009 0 .057-.056.085-.112.085-.057 0-.085-.057-.085-.114.197-1.936.366-3.873.649-6.037.14-1.168.338-2.42.536-3.588a48.93 48.93 0 01.564-2.82 39.1 39.1 0 01.677-2.42c.225-.655.48-1.31.705-1.936zm4.541 9.112c.057-.028.085 0 .113.029.028.056 0 .085-.028.114-1.185.74-2.37 1.452-3.272 2.078-.451.314-.818.598-1.156.855-.339.256-.593.54-.847.797a4.053 4.053 0 00-.62.797c-.17.285-.31.57-.423.883-.226.655-.31 1.424-.423 2.193 0 .057-.057.085-.113.085-.057 0-.085-.057-.085-.114.113-.768.198-1.566.423-2.22.113-.342.254-.656.452-.94.169-.285.394-.57.648-.826.254-.257.536-.541.847-.798.338-.284.705-.57 1.156-.882.959-.57 2.144-1.31 3.328-2.05z" fill="#509663"/><path fill-rule="evenodd" clip-rule="evenodd" d="M13.207 45.763l-4.71.086.31-7.347 4.682.028-.282 7.233zm-7.981-.256l-4.71-.114.31-7.09 4.682.17-.282 7.034z" fill="#929293"/><path fill-rule="evenodd" clip-rule="evenodd" d="M.143 37.248a76.54 76.54 0 011.664 1.367c5.02-.455 10.746-.655 17.15-.57-.621-.483-1.693-.882-3.273-1.224-9.28.029-14.441.171-15.541.427z" fill="#DBA757"/><path fill-rule="evenodd" clip-rule="evenodd" d="M.199 49.066l1.608 1.88a224.65 224.65 0 000-12.33c-.536-.456-1.1-.94-1.664-1.368.028 7.889.056 11.819.056 11.819z" fill="#DBB158"/><path fill-rule="evenodd" clip-rule="evenodd" d="M1.77 38.615c.112 3.503.112 7.604 0 12.331 11.564-.598 17.346-.883 17.346-.883.029-6.15-.056-10.166-.197-12.017a181.578 181.578 0 00-17.15.57zm14.692-1.225c.056 0 .113-.056.113-.113s-.057-.114-.113-.114a131.809 131.809 0 00-7.503.029c-2.539.085-5.106.227-7.672.455-.057 0-.113.057-.113.142 0 .057.056.114.14.114 2.596-.227 5.134-.37 7.673-.455 2.482-.114 4.993-.114 7.475-.057z" fill="#F7CE66"/><path fill-rule="evenodd" clip-rule="evenodd" d="M11.815 38.074c-.874.029-1.692.057-2.454.086-.113-.086.085 5.211.085 7.318 0 0 2.454-.085 2.566-.085-.056 0-.112-2.42-.197-7.319z" fill="#F9F9F9"/><path fill-rule="evenodd" clip-rule="evenodd" d="M9.334 38.16l2.454-.086c-1.495-.797-2.256-1.224-2.256-1.224-1.072.028-1.608.028-1.608.028.959.855 1.41 1.282 1.41 1.282z" fill="#E1E2E1"/><path d="M7.757 39.845l-4.32.463.31 2.945 4.32-.463-.31-2.945z" fill="#F9F9F9"/><path fill-rule="evenodd" clip-rule="evenodd" d="M6.973 39.412L2.206 37.79 2.12 22.24l4.936.798-.084 16.374z" fill="#DBB158"/><path fill-rule="evenodd" clip-rule="evenodd" d="M6.979 39.412l.084-16.374 5.388-.314-.198 16.204-5.274.484z" fill="#F7CE66"/><path fill-rule="evenodd" clip-rule="evenodd" d="M12.445 22.696l-5.388.456-4.936-.94 5.134-.17 5.19.654z" fill="#DBA757"/><path fill-rule="evenodd" clip-rule="evenodd" d="M10.311 22.867l-1.748.171.112 10.394 1.693-.113-.057-10.452zm-1.751.171l1.75-.171-4.485-.769-.65.029.029.284 3.357.627z" fill="#F9F9F9"/><path fill-rule="evenodd" clip-rule="evenodd" d="M35.785 38.017c0-.399.056-1.053.169-1.68.113-.598.31-1.168.508-1.51.197-.341.394-.512.479-.597.085-.086.085-.086.226-.029.14.057.423.171.564.257.14.085.169.113.169.17 0 .029-.056.057-.17.114-.112.057-.281.114-.422.37-.141.257-.254.684-.339 1.253-.056.57-.084 1.31-.113 1.652-.028.37-.056.37-.197.399-.113 0-.339.028-.508.057-.17.057-.254.142-.31.114-.056 0-.085-.143-.056-.57zM31.89 40.75c.112.115.338.257.76.4.424.142 1.016.256 1.863.398.818.114 1.89.256 2.99.285 1.1.028 2.228 0 3.074-.085.846-.086 1.41-.2 1.805-.314.395-.114.593-.228.733-.313a.49.49 0 00.198-.313c.028-.114.028-.228-.085-.313-.113-.086-.31-.143-.507-.314-.17-.142-.31-.37-.48-.626-.14-.257-.31-.541-.395-.684-.084-.142-.113-.17-.254-.142-.112.028-.31.085-.733.17-.423.086-1.072.172-1.946.2-.875.029-1.975 0-2.85-.057a26.087 26.087 0 01-1.833-.17c-.366-.058-.535-.115-.62-.115-.085 0-.113.029-.254.2a5.12 5.12 0 01-.536.683c-.197.2-.423.313-.564.399-.17.085-.254.17-.338.228-.057.057-.113.114-.113.17-.029.114-.029.2.084.314z" fill="#C6B532"/><path fill-rule="evenodd" clip-rule="evenodd" d="M34.634 39.014c-.338-.029-.423-.057-.536-.057a1.68 1.68 0 00-.338-.057c-.085-.029-.141-.029-.17-.029-.028 0-.056 0-.028-.028.029-.029.085-.114.254-.228.17-.114.48-.228.79-.342.31-.085.649-.142 1.072-.199a26.112 26.112 0 011.664-.057c.649 0 1.382.057 1.975.114.592.057 1.071.142 1.466.228.395.085.706.2.818.285.141.085.113.114.057.142a2.155 2.155 0 01-.339.114 9.683 9.683 0 01-.874.17c-.339.058-.677.086-1.157.115-.48.028-1.128.028-1.692.028-.564 0-1.044-.028-1.551-.057a14.662 14.662 0 01-1.41-.142z" fill="#141515"/><path fill-rule="evenodd" clip-rule="evenodd" d="M36.797 34.6a.388.388 0 01.31-.057c.113 0 .226.029.339.142.113.114.197.314.282.541.084.257.112.541.169.94.028.399.056.883.056 1.339 0 .455 0 .883-.113 1.224-.112.342-.31.627-.45.855-.142.199-.198.313-.198.427 0 .114.056.227.169.313a.644.644 0 00.395.114c.141 0 .254-.029.338-.114.113-.085.198-.2.254-.256a.78.78 0 01.113-.143c.028-.028.028-.028.113.057.084.057.197.2.395.285.169.085.395.142.536.114.14-.029.225-.114.254-.228a.588.588 0 000-.313c-.057-.086-.142-.171-.226-.257a1.072 1.072 0 01-.282-.341.85.85 0 01-.141-.513c-.028-.256 0-.598-.028-1.167 0-.57-.029-1.31-.113-1.937-.085-.598-.254-1.053-.452-1.367-.169-.285-.366-.427-.564-.484-.197-.057-.395-.085-.592-.028a.95.95 0 00-.48.313c-.14.17-.225.37-.31.541-.084.2-.14.37-.169.456-.028.085-.028.085 0 .028.028-.057.085-.2.17-.285.027-.114.14-.17.225-.199z" fill="#F9E349"/><path fill-rule="evenodd" clip-rule="evenodd" d="M32.289 40.98c-.113-.058-.197-.115-.254-.143-.056-.029-.084-.086-.14-.114-.03-.029-.085-.057-.085-.114-.029-.028-.029-.085-.029-.085v.341c0 .37.029 1.11.057 2.677v5.183c0 1.225.028 1.31.056 1.367.028.057.085.142.31.285.226.17.65.427 1.439.626.761.2 1.89.37 3.074.456 1.185.085 2.398.114 3.47-.086 1.072-.199 2.002-.57 2.482-.768.48-.2.508-.228.508-.257l.028-1.31c0-1.31.028-3.901.056-5.524.028-1.623.028-2.25.028-2.563v-.313l-.028.056c-.028.057-.113.2-.423.342-.338.143-.93.313-1.58.399a18.08 18.08 0 01-2.397.142 60.03 60.03 0 01-3.244-.085c-.93-.057-1.551-.143-1.974-.228a11.56 11.56 0 01-.874-.2.81.81 0 01-.48-.085z" fill="#FDE742"/><path fill-rule="evenodd" clip-rule="evenodd" d="M24.532 37.362c-.31.285-.339.313-.31.342.027.028.056.028.394.2.339.142.987.398 1.41.569.424.17.65.228.819.342.169.114.282.313.761 1.224.508.911 1.382 2.506 2.116 3.873.733 1.339 1.354 2.42 1.664 3.019.338.626.395.797.48.882.084.086.169.086.253.029.085-.057.198-.171.254-.627a12.62 12.62 0 00.085-1.85 7.01 7.01 0 00-.17-1.31c-.056-.228-.056-.228-.48-.77a77.307 77.307 0 01-1.945-2.62 86.947 86.947 0 01-1.665-2.334c-.31-.456-.31-.456-.366-.883-.057-.428-.141-1.282-.198-1.737-.056-.456-.084-.485-.084-.485-.029-.028-.029-.028-.282.114-.254.143-.734.399-1.27.798-.564.398-1.156.94-1.466 1.224z" fill="#C6B532"/><path fill-rule="evenodd" clip-rule="evenodd" d="M27.326 35.597c-.112.17-.282.399-.592.683a7.06 7.06 0 01-1.156.826c-.367.228-.677.342-.903.427-.226.086-.367.114-.451.114-.085 0-.141 0-.113-.085.028-.085.084-.2.282-.456.197-.256.536-.598.874-.883a6.344 6.344 0 011.016-.683c.31-.17.592-.285.79-.342.197-.057.282-.057.338-.057.056 0 .085.029.056.114.029.086-.028.171-.14.342z" fill="#141515"/><path fill-rule="evenodd" clip-rule="evenodd" d="M42.17 39.441c.056.114.112.228.169.285.056.085.084.114.112.17.029.03.057.058.057.086 0 .029 0 .029.225 0 .198 0 .62 0 1.157.057.536.057 1.213.2 1.72.456.508.228.818.57 1.016.883.17.313.197.598.197.882 0 .285-.056.57-.169.912-.141.341-.338.74-.62 1.139a7.298 7.298 0 01-.988 1.139c-.366.37-.761.712-1.072.968a24.4 24.4 0 01-.592.427l-.113.057v1.168l.226-.143c.226-.142.705-.427 1.326-.91.62-.485 1.382-1.197 1.89-1.966a5.271 5.271 0 00.902-2.335c.085-.712 0-1.31-.31-1.822-.31-.513-.846-.912-1.439-1.168-.592-.256-1.269-.399-1.861-.456a16.829 16.829 0 00-1.467-.085H42s0 .028.028.057c.028.028.057.114.141.2z" fill="#C6B532"/></svg>