<svg width="20" height="20" fill="none" xmlns="http://www.w3.org/2000/svg"><path d="M19.552 15.783l-3.089-3.089c-.615-.613-1.634-.594-2.27.043l-1.557 1.556-.307-.171c-.982-.544-2.327-1.29-3.743-2.707-1.42-1.42-2.166-2.766-2.712-3.75-.058-.104-.113-.204-.168-.3l1.045-1.043.513-.514c.638-.637.655-1.656.042-2.27L4.216.448c-.613-.613-1.632-.595-2.27.043l-.87.875.024.024a5.034 5.034 0 00-.718 1.265A5.246 5.246 0 00.063 3.94c-.408 3.38 1.137 6.47 5.33 10.664 5.797 5.796 10.468 5.358 10.669 5.336a5.22 5.22 0 001.287-.323 5.02 5.02 0 001.26-.714l.02.017.881-.864c.637-.637.655-1.656.042-2.272z" fill="#4AAB3C"/></svg>