<svg width="39" height="39" fill="none" xmlns="http://www.w3.org/2000/svg"><circle cx="19.5" cy="19.5" r="19.5" fill="#fff"/><g clip-path="url(#clip0_38_10971)"><path d="M16.2 19.5a3.3 3.3 0 116.6 0 3.3 3.3 0 01-6.6 0zm-1.784 0a5.083 5.083 0 1010.167 0 5.083 5.083 0 00-10.167 0zm9.18-5.285a1.188 1.188 0 102.377 0 1.188 1.188 0 00-2.377 0zM15.5 27.558c-.966-.044-1.49-.204-1.839-.34a3.08 3.08 0 01-1.139-.741 3.061 3.061 0 01-.74-1.138c-.136-.349-.297-.873-.34-1.838-.049-1.044-.058-1.357-.058-4.001s.01-2.957.057-4c.044-.966.206-1.49.34-1.84a3.08 3.08 0 01.741-1.138 3.056 3.056 0 011.14-.74c.348-.137.872-.297 1.838-.341 1.043-.048 1.357-.058 4-.058s2.956.01 4 .058c.966.044 1.49.205 1.839.34.462.18.792.395 1.139.74.346.347.56.677.74 1.14.136.348.297.873.34 1.838.049 1.044.058 1.357.058 4 0 2.644-.01 2.957-.057 4.002-.044.965-.206 1.49-.34 1.838a3.07 3.07 0 01-.741 1.138 3.08 3.08 0 01-1.14.74c-.348.137-.872.297-1.838.341-1.043.048-1.357.058-4 .058s-2.957-.01-4-.058zM15.418 9.66c-1.054.048-1.774.215-2.403.46a4.858 4.858 0 00-1.754 1.142 4.845 4.845 0 00-1.142 1.753c-.244.63-.411 1.35-.46 2.403-.048 1.056-.06 1.393-.06 4.082 0 2.688.012 3.026.06 4.081.049 1.054.216 1.774.46 2.403a4.841 4.841 0 001.142 1.754c.55.55 1.102.889 1.754 1.142.63.245 1.35.412 2.403.46 1.056.048 1.393.06 4.082.06s3.026-.011 4.081-.06c1.054-.048 1.774-.215 2.403-.46a4.869 4.869 0 001.754-1.142 4.87 4.87 0 001.142-1.754c.245-.629.412-1.349.46-2.403.048-1.056.059-1.393.059-4.081 0-2.689-.011-3.026-.06-4.082-.047-1.054-.214-1.773-.46-2.403a4.868 4.868 0 00-1.141-1.753 4.856 4.856 0 00-1.753-1.142c-.63-.245-1.35-.413-2.403-.46-1.056-.048-1.393-.06-4.082-.06s-3.026.011-4.082.06z" fill="#4AAB3C"/></g><defs><clipPath id="clip0_38_10971"><path fill="#fff" d="M9.6 9.6h19.8v19.8H9.6z"/></clipPath></defs></svg>