<svg width="39" height="39" fill="none" xmlns="http://www.w3.org/2000/svg"><circle cx="19.5" cy="19.5" r="19.5" fill="#fff"/><g clip-path="url(#clip0_38_10968)" fill="#4AAB3C"><path d="M23.953 21.442c-.24-.124-1.44-.712-1.664-.791-.223-.084-.387-.124-.548.124-.161.247-.627.79-.773.956-.142.164-.285.184-.526.062-1.432-.716-2.371-1.277-3.315-2.897-.25-.43.25-.4.716-1.33.08-.164.04-.303-.022-.427-.062-.123-.548-1.321-.751-1.81-.197-.475-.4-.408-.548-.417-.142-.009-.303-.009-.467-.009a.902.902 0 00-.65.303c-.223.245-.852.835-.852 2.033s.873 2.358.992 2.521c.124.164 1.717 2.621 4.163 3.68 1.547.667 2.152.724 2.926.61.47-.071 1.44-.588 1.642-1.16.2-.573.2-1.06.141-1.16-.06-.11-.223-.17-.464-.288z"/><path d="M28.63 15.663A9.887 9.887 0 0019.5 9.6h-.045a9.904 9.904 0 00-8.795 14.364v3.358a1.017 1.017 0 001.017 1.017h3.361a9.931 9.931 0 004.417 1.06h.047a9.865 9.865 0 006.972-2.861 9.936 9.936 0 002.157-10.875zm-3.339 9.68A8.177 8.177 0 0119.5 27.72h-.038a8.25 8.25 0 01-3.825-.961l-.186-.1H12.34v-3.111l-.1-.186a8.25 8.25 0 01-.96-3.825 8.17 8.17 0 012.377-5.83 8.162 8.162 0 015.807-2.428h.038a8.211 8.211 0 018.222 8.258 8.189 8.189 0 01-2.433 5.805z"/></g><defs><clipPath id="clip0_38_10968"><path fill="#fff" transform="translate(9.6 9.6)" d="M0 0h19.8v19.8H0z"/></clipPath></defs></svg>