<svg width="16" height="21" fill="none" xmlns="http://www.w3.org/2000/svg"><g clip-path="url(#clip0_2_7415)"><path d="M8 0a7.86 7.86 0 00-5.65 2.42 8.41 8.41 0 00-.48 11.12L8 21l6.14-7.46.25-.34a8.41 8.41 0 00-.74-10.78A7.86 7.86 0 008 0zm0 11.25a2.85 2.85 0 01-1.62-.51 3 3 0 01-1.23-3.08 3 3 0 01.79-1.53 2.87 2.87 0 011.49-.82 2.76 2.76 0 011.68.17 3 3 0 011.31 1.1c.32.498.49 1.078.49 1.67a3.06 3.06 0 01-.85 2.12 2.89 2.89 0 01-2.06.88z" fill="#4AAB3C"/></g><defs><clipPath id="clip0_2_7415"><path fill="#fff" d="M0 0h16v21H0z"/></clipPath></defs></svg>