<svg width="60" height="60" fill="none" xmlns="http://www.w3.org/2000/svg"><circle cx="30" cy="30" r="30" fill="#4AAB3C"/><path d="M16.702 29.501l6.352 2.403 2.459 8.013a.744.744 0 001.187.362l3.541-2.925c.371-.306.9-.322 1.288-.036l6.386 4.699a.746.746 0 001.173-.46l4.678-22.805c.12-.588-.45-1.078-1.002-.862l-26.07 10.192c-.643.251-.637 1.174.008 1.42zm8.414 1.124l12.415-7.749c.223-.139.452.167.26.347l-10.245 9.652c-.36.34-.592.794-.658 1.288l-.349 2.62c-.046.35-.531.385-.627.047l-1.342-4.78a1.275 1.275 0 01.546-1.425z" fill="#fff"/></svg>