<svg width="60" height="60" fill="none" xmlns="http://www.w3.org/2000/svg"><circle cx="30" cy="30" r="29.5" stroke="#E0E0E0"/><path d="M26.978 33.07c2.327 2.314 5.021 4.526 6.079 3.458 1.514-1.529 2.446-2.858 5.806-.173 3.36 2.687.794 4.495-.673 5.976-1.692 1.708-8.03.12-14.314-6.129-6.282-6.25-7.916-12.59-6.223-14.299 1.468-1.481 3.253-4.065 5.957-.718 2.705 3.346 1.386 4.29-.129 5.82-1.057 1.067 1.17 3.749 3.497 6.064zm3.375-11.045s-.702-.11-1.194.383a1.37 1.37 0 00.005 1.915c.315.315.76.383.76.383.866.163 2.171.438 3.56 1.83 1.39 1.391 1.664 2.7 1.827 3.568 0 0 .067.445.382.761a1.364 1.364 0 001.91.005c.492-.492.383-1.196.383-1.196a9.255 9.255 0 00-2.586-5.058 9.227 9.227 0 00-5.047-2.59zm6.585 1.05c2.546 2.552 3.631 5.447 3.278 7.794 0 0-.123.743.361 1.228a1.36 1.36 0 001.92.004c.327-.328.399-.863.399-.863.292-2.028-.075-6.107-4.043-10.083-3.967-3.975-8.037-4.343-10.06-4.05 0 0-.534.07-.862.4a1.366 1.366 0 00.003 1.923c.485.485 1.226.362 1.226.362 2.342-.354 5.232.733 7.778 3.285z" fill="#4AAB3C"/></svg>