<svg width="81" height="44" fill="none" xmlns="http://www.w3.org/2000/svg"><path fill-rule="evenodd" clip-rule="evenodd" d="M51.135 21.1l2.167 15.58-8.087.616-.336-15.857 6.256-.338z" fill="#DBB158"/><path fill-rule="evenodd" clip-rule="evenodd" d="M51.144 21.1l-6.256.34-3.693-1.14 7.477-.308 2.472 1.108z" fill="#FBD16B"/><path fill-rule="evenodd" clip-rule="evenodd" d="M44.888 21.44l-3.693-1.14.55 16.134 3.479.863-.336-15.858z" fill="#F8E49C"/><path fill-rule="evenodd" clip-rule="evenodd" d="M59.414 20.67l.03.461.092 11.3 8.82 4.465-.03-15.088-8.912-1.139z" fill="#DBB158"/><path fill-rule="evenodd" clip-rule="evenodd" d="M68.359 36.896l-.03-15.087 11.047-1.17-.03 11.73-10.987 4.527z" fill="#F7CE66"/><path fill-rule="evenodd" clip-rule="evenodd" d="M68.325 21.808l11.048-1.17-8.82-.708-11.139.74 8.911 1.138z" fill="#F8E49C"/><path fill-rule="evenodd" clip-rule="evenodd" d="M66.81 30.153l-1.1 9.175-9.216 1.417.061-9.515 10.254-1.077z" fill="#DBB158"/><path fill-rule="evenodd" clip-rule="evenodd" d="M56.545 31.23l-.06 9.515-6.623-3.295-.061-8.005 6.744 1.785z" fill="#F7CE66"/><path fill-rule="evenodd" clip-rule="evenodd" d="M49.8 29.445l11.323-.524 5.676 1.232-10.254 1.077-6.744-1.785z" fill="#F8E49C"/><path fill-rule="evenodd" clip-rule="evenodd" d="M74.146 32.247l-11.078-1.109.061 9.607 10.926 1.817.091-10.315z" fill="#F7CE66"/><path fill-rule="evenodd" clip-rule="evenodd" d="M74.146 32.246l-11.078-1.108 7.69-2.125 9.309.924-5.92 2.31z" fill="#F8E49C"/><path fill-rule="evenodd" clip-rule="evenodd" d="M80.067 29.937l-5.92 2.31-.092 10.314 5.86-3.695.152-8.837v-.092z" fill="#DBB158"/><path fill-rule="evenodd" clip-rule="evenodd" d="M33.016 31.538l16.235-.246.03 9.73-16.052.246-.213-9.73z" fill="#F7CE66"/><path fill-rule="evenodd" clip-rule="evenodd" d="M49.251 31.292l-16.235.246 1.74-1.847 13.885-.123.61 1.724z" fill="#F8E49C"/><path fill-rule="evenodd" clip-rule="evenodd" d="M47.93 5.49l.213 15.364 20.234.4.091-16.35-20.538.586z" fill="#DBB158"/><path fill-rule="evenodd" clip-rule="evenodd" d="M68.47 4.905l-.091 16.35 1.007-.77.03-14.41-.945-1.17zM46.983 30.307l-.061-9.484 15.503-.03-.061 9.298-15.381.216z" fill="#F7CE66"/><path fill-rule="evenodd" clip-rule="evenodd" d="M62.425 20.793l-15.503.03.946-.554 13.641-.03.916.553z" fill="#F8E49C"/><path fill-rule="evenodd" clip-rule="evenodd" d="M73.948 29.321l1.465.154-6.53 2.248-1.496-.154 6.561-2.248zm-6.561 12.132l1.495.246v-9.976l-1.495-.154v9.884zM56.275 16.174l.061-10.931 2.32-.03v10.96h-2.38zm17.889 12.439l1.007-.246-.122-7.267-1.037.123.152 7.39z" fill="#F9F9F9"/><path fill-rule="evenodd" clip-rule="evenodd" d="M69.405 20.485v-.154l5.646.77-1.038.123-4.67-.678.062-.061zm-26.688 7.512l.672.216-.092-7.267-.64-.184.06 7.235zm4.731-7.482l-.397.216-3.754.215-.64-.184 4.79-.247zm6.847.308l1.16-.03v6.62h-1.13l-.03-6.59z" fill="#F9F9F9"/><path fill-rule="evenodd" clip-rule="evenodd" d="M54.295 20.823l1.16-.031-.183-.554h-.977v.585zm-.362 9.699l-.763-.185-.092 8.714.702.339.153-8.868z" fill="#F9F9F9"/><path fill-rule="evenodd" clip-rule="evenodd" d="M54.696 30.214l3.418-.062-4.181.37-.763-.185 1.526-.123zm7.49.431l-.855.093-.03 9.268.854-.123.03-9.238z" fill="#F9F9F9"/><path fill-rule="evenodd" clip-rule="evenodd" d="M59.635 30.153l.976-.031 1.587.523-.854.093-1.71-.585zm-10.735.123l.122.308-15.35.277.305-.339 14.923-.246z" fill="#F9F9F9"/><path d="M35.541 32.514l-.514 2.124 3.143.774.514-2.124-3.143-.774zm15.762-10.182h-3.082v1.909h3.082v-1.91z" fill="#F9F9F9"/><path fill-rule="evenodd" clip-rule="evenodd" d="M72.902 33.601l-2.685-.307v1.816l2.685.277v-1.786z" fill="#F9F9F9"/><path fill-rule="evenodd" clip-rule="evenodd" d="M3.697 19.068l32.227-.462 3.418 3.48-38.178.277 2.533-3.295z" fill="#E1E2E1"/><path fill-rule="evenodd" clip-rule="evenodd" d="M39.342 22.086l-38.178.277.092 1.909 37.994-.062.092-2.124z" fill="#CBCCCD"/><path fill-rule="evenodd" clip-rule="evenodd" d="M6.54 24.272H4.892c-.64 11.885-.946 17.581-.915 17.027.335.123.61.185 1.16.03.823-11.36 1.403-17.056 1.403-17.056zm33.443 19.49c-.244.246-.671.308-1.22.154l-2.015-19.675h1.648l1.587 19.521zm-6.424-19.49h1.648c.64 11.885.946 17.581.915 17.027-.336.123-.61.185-1.16.03-.824-11.361-1.403-17.057-1.403-17.057zM0 43.762c.244.246.671.308 1.22.154l2.015-19.675H1.587L0 43.762z" fill="#141515"/><path fill-rule="evenodd" clip-rule="evenodd" d="M17.647 19.9c2.502 0 4.547-.185 4.547-.4 0-.216-2.045-.401-4.547-.401-2.503 0-4.547.185-4.547.4 0 .247 2.044.4 4.547.4z" fill="#080902"/><path fill-rule="evenodd" clip-rule="evenodd" d="M17.386 19.9c-2.624 0-4.059-.155-4.333-.401v.677c.61.308 2.838.37 4.333.37 1.557 0 3.754 0 4.761-.37v-.708c-.183.308-1.77.431-4.76.431z" fill="#141515"/><path d="M20.098 16.143h-5.096v3.387h5.096v-3.387z" fill="#080902"/><path fill-rule="evenodd" clip-rule="evenodd" d="M8.275 3.457h18.463c.641 0 1.16.523 1.16 1.17v9.483H7.146V4.627a1.12 1.12 0 011.129-1.17z" fill="#141515"/><path fill-rule="evenodd" clip-rule="evenodd" d="M7.117 14.11H27.87v1.479a1.15 1.15 0 01-1.129 1.139H8.246c-.61 0-1.129-.523-1.129-1.14v-1.477z" fill="#E1E2E1"/><path fill-rule="evenodd" clip-rule="evenodd" d="M17.58 15.927a.484.484 0 00.488-.492.484.484 0 00-.488-.493.484.484 0 00-.488.493c0 .246.213.492.488.492z" fill="#141515"/><path d="M22.582 15.527h-3.51v.37h3.51v-.37zm1.093-.554H21.54v.277h2.136v-.277z" fill="#141515"/><path fill-rule="evenodd" clip-rule="evenodd" d="M26.825 20.022c.03-.154.091-.246.274-.37.183-.092.458-.153.824-.184.366 0 .824.062 1.19.154.336.092.58.215.702.37a.486.486 0 01.061.492c-.06.154-.183.246-.335.308a1.69 1.69 0 01-.641.123c-.305 0-.702 0-1.038-.061a1.867 1.867 0 01-.824-.37c-.213-.154-.244-.339-.213-.462z" fill="#FDE742"/><path fill-rule="evenodd" clip-rule="evenodd" d="M27.283 19.715c.061 0 .183.03.305.061s.214.062.305.062c.061 0 .123 0 .123-.03.03-.032 0-.062-.03-.093a.314.314 0 00-.184-.154 1.305 1.305 0 00-.366-.062.367.367 0 00-.244.093c-.03.03-.061.061-.03.061.03.031.03.031.121.062z" fill="#141515"/><path fill-rule="evenodd" clip-rule="evenodd" d="M28.375 15.25c.122.924.336 2.525.427 3.387.122.831.122.893.58.985.458.093 1.374.185 2.167.185a8.634 8.634 0 001.77-.246c.336-.093.397-.093.519-.924.122-.831.336-2.494.458-3.325.122-.832.122-.832.122-.924 0-.092 0-.246-.183-.339-.184-.092-.58-.092-1.465-.092-.885 0-2.259-.03-3.113-.03-.824 0-1.099 0-1.251.091-.153.093-.153.308-.03 1.232z" fill="#F9F9F9"/><path fill-rule="evenodd" clip-rule="evenodd" d="M27.776 14.388c.244.062.671.185 1.281.246.58.062 1.374.124 2.106.124.763 0 1.495-.031 2.106-.093a14.61 14.61 0 001.465-.215c.305-.062.366-.093.396-.123.031-.031.061-.062.061-.247v-.708c0-.185 0-.185-.366-.277-.366-.093-1.129-.246-2.258-.308a33.452 33.452 0 00-3.54.03c-.916.062-1.282.155-1.465.216-.183.062-.183.062-.183.277 0 .185 0 .585.03.801.062.215.123.215.367.277z" fill="#CBCCCD"/><path fill-rule="evenodd" clip-rule="evenodd" d="M28.225 13.402c.335.062 1.037.124 1.861.154.824.031 1.77.062 2.533.062.763 0 1.343-.062 1.679-.092.335-.031.427-.062.427-.093 0-.03-.092-.061-.427-.123-.336-.062-.885-.185-1.831-.216-.916-.03-2.198 0-3.022.031-.824.031-1.16.062-1.342.123-.214 0-.214.062.122.154z" fill="#080902"/><path fill-rule="evenodd" clip-rule="evenodd" d="M34.34 5.273c-.458.247-.885.524-1.251.893-.366.37-.64.832-.824 1.294a3.098 3.098 0 00-.183 1.262c.03.4.091.77.152.955.061.184.061.184.458-.031a9.807 9.807 0 001.71-1.201 4.483 4.483 0 001.159-1.848c.183-.646.183-1.262.214-1.6 0-.34.03-.34-.214-.247a8.347 8.347 0 00-1.22.523zM27.565 6.66c.58.215 1.403.492 1.953.984.58.493.885 1.17 1.007 1.817.122.616.061 1.2 0 1.478-.061.277-.061.277-.58.062-.519-.216-1.556-.647-2.228-1.263-.671-.616-.946-1.447-1.129-2.063-.152-.616-.213-1.047-.213-1.262-.031-.216-.031-.216.152-.154.153.092.458.215 1.038.4zM31.4.779a7.921 7.921 0 00-.672.985c-.214.37-.397.77-.488 1.17-.092.4-.122.8-.092 1.14 0 .338.03.615.122 1.015.092.4.244.893.305 1.14.062.246.061.246.092.246 0 0 .03 0 .397-.431.366-.431 1.098-1.294 1.404-2.094.335-.8.274-1.478.152-2.155-.122-.678-.305-1.232-.397-1.54-.091-.308-.091-.308-.213-.154-.122.123-.366.37-.61.678z" fill="#60D213"/><path fill-rule="evenodd" clip-rule="evenodd" d="M31.554 2.042a135.194 135.194 0 00-.61 3.017 8.11 8.11 0 00-.184 1.016c-.06.308-.091.585-.152.893-.061.339-.092.708-.153 1.14-.061.43-.122.923-.152 1.446a99.017 99.017 0 00-.245 3.665h-.091c.06-1.294.152-2.587.244-3.665.061-.554.091-1.016.152-1.447.062-.43.123-.8.153-1.139.061-.339.092-.616.153-.924.06-.308.122-.616.183-1.016.152-.77.396-1.878.61-2.986V2.01l.092.03z" fill="#509663"/><path fill-rule="evenodd" clip-rule="evenodd" d="M26.89 7.06c.428.4.885.8 1.282 1.2.427.401.794.801 1.13 1.202.335.4.61.8.823 1.17.214.37.427.739.55 1.047.152.307.274.615.366.831.091.246.152.4.213.523l.092.247-.092.03-.091-.246c-.03-.123-.122-.308-.214-.523a8.845 8.845 0 00-.366-.832 18.203 18.203 0 00-.55-1.046 8.31 8.31 0 00-.823-1.17 13.53 13.53 0 00-1.13-1.201L26.8 7.09l.091-.03zm8.001-1.355c-.213.246-.427.493-.64.77-.214.277-.428.554-.641.893-.214.338-.458.708-.641 1.108-.183.37-.367.77-.519 1.109-.153.369-.244.738-.336 1.077a6.153 6.153 0 00-.183.986c-.091.615-.091 1.139-.122 1.693h-.061c.03-.523.03-1.078.122-1.693.03-.308.092-.647.183-.986.092-.339.183-.708.336-1.108.152-.37.336-.77.519-1.14a13.732 13.732 0 011.312-2.032c.214-.277.427-.523.64-.77l.031.093z" fill="#509663"/></svg>