<svg width="112" height="255" fill="none" xmlns="http://www.w3.org/2000/svg"><g opacity=".8" clip-path="url(#clip0_212_881)" fill="#FFE7A4"><path d="M3.023 226.228c1.19 0 2.155-.958 2.155-2.14 0-1.182-.965-2.14-2.155-2.14s-2.154.958-2.154 2.14c0 1.182.964 2.14 2.154 2.14zm-.002 10.611c1.19 0 2.155-.958 2.155-2.14 0-1.182-.965-2.14-2.155-2.14s-2.155.958-2.155 2.14c0 1.182.965 2.14 2.155 2.14zm10.685-10.611c1.19 0 2.155-.958 2.155-2.14 0-1.182-.965-2.14-2.155-2.14s-2.154.958-2.154 2.14c0 1.182.964 2.14 2.154 2.14zm0-10.611c1.19 0 2.155-.958 2.155-2.14a2.148 2.148 0 00-2.155-2.141c-1.19 0-2.154.959-2.154 2.141s.964 2.14 2.154 2.14zm10.681 0c1.19 0 2.155-.958 2.155-2.14a2.148 2.148 0 00-2.155-2.141c-1.19 0-2.155.959-2.155 2.141s.965 2.14 2.155 2.14zm10.683-10.611c1.19 0 2.155-.958 2.155-2.14a2.148 2.148 0 00-2.155-2.141c-1.19 0-2.155.958-2.155 2.141 0 1.182.965 2.14 2.155 2.14zm-10.683.001c1.19 0 2.155-.959 2.155-2.141s-.965-2.14-2.155-2.14-2.155.958-2.155 2.14c0 1.182.965 2.141 2.155 2.141zm-21.366 10.61c1.19 0 2.155-.959 2.155-2.141s-.965-2.14-2.155-2.14-2.155.958-2.155 2.14c0 1.182.965 2.141 2.155 2.141zm10.685-10.61c1.19 0 2.155-.959 2.155-2.141s-.965-2.14-2.155-2.14-2.154.958-2.154 2.14c0 1.182.964 2.141 2.154 2.141zm-10.685-.001c1.19 0 2.155-.958 2.155-2.14a2.148 2.148 0 00-2.155-2.141c-1.19 0-2.155.958-2.155 2.141 0 1.182.965 2.14 2.155 2.14zm42.732-10.61c1.19 0 2.154-.959 2.154-2.141s-.964-2.14-2.154-2.14-2.155.958-2.155 2.14c0 1.182.965 2.141 2.155 2.141zm-10.683-.001c1.19 0 2.155-.958 2.155-2.14a2.148 2.148 0 00-2.155-2.141c-1.19 0-2.155.959-2.155 2.141s.965 2.14 2.155 2.14zm-10.683 0c1.19 0 2.155-.958 2.155-2.14a2.148 2.148 0 00-2.155-2.141c-1.19 0-2.155.959-2.155 2.141s.965 2.14 2.155 2.14zm-21.366 0c1.19 0 2.155-.958 2.155-2.14a2.148 2.148 0 00-2.155-2.141c-1.19 0-2.155.959-2.155 2.141s.965 2.14 2.155 2.14zm10.685.001c1.19 0 2.155-.959 2.155-2.141s-.965-2.14-2.155-2.14-2.154.958-2.154 2.14c0 1.182.964 2.141 2.154 2.141zm42.727-10.612c1.19 0 2.155-.958 2.155-2.14 0-1.182-.965-2.14-2.155-2.14s-2.154.958-2.154 2.14c0 1.182.964 2.14 2.154 2.14zm-10.68 0c1.19 0 2.154-.958 2.154-2.14 0-1.182-.964-2.14-2.154-2.14s-2.155.958-2.155 2.14c0 1.182.965 2.14 2.155 2.14zm-10.683 0c1.19 0 2.155-.958 2.155-2.14 0-1.182-.965-2.14-2.155-2.14s-2.155.958-2.155 2.14c0 1.182.965 2.14 2.155 2.14zm-32.049 0c1.19 0 2.155-.958 2.155-2.14 0-1.182-.965-2.14-2.155-2.14s-2.155.958-2.155 2.14c0 1.182.965 2.14 2.155 2.14zm10.685 0c1.19 0 2.155-.958 2.155-2.141 0-1.182-.965-2.14-2.155-2.14s-2.154.958-2.154 2.14c0 1.183.964 2.141 2.154 2.141zm10.681 0c1.19 0 2.155-.958 2.155-2.14 0-1.182-.965-2.14-2.155-2.14s-2.155.958-2.155 2.14c0 1.182.965 2.14 2.155 2.14zm42.729-10.611c1.19 0 2.155-.959 2.155-2.141s-.965-2.14-2.155-2.14-2.155.958-2.155 2.14c0 1.182.965 2.141 2.155 2.141zm-10.683 0c1.19 0 2.155-.958 2.155-2.14 0-1.182-.965-2.14-2.155-2.14s-2.154.958-2.154 2.14c0 1.182.964 2.14 2.154 2.14zm-10.68 0c1.19 0 2.154-.959 2.154-2.141s-.964-2.14-2.154-2.14-2.155.958-2.155 2.14c0 1.182.965 2.141 2.155 2.141zm-32.047 0c1.19 0 2.155-.959 2.155-2.141s-.965-2.14-2.155-2.14-2.154.958-2.154 2.14c0 1.182.964 2.141 2.154 2.141zm10.681 0c1.19 0 2.155-.959 2.155-2.141s-.965-2.14-2.155-2.14-2.155.958-2.155 2.14c0 1.182.965 2.141 2.155 2.141zm10.683 0c1.19 0 2.155-.959 2.155-2.141s-.965-2.14-2.155-2.14-2.155.958-2.155 2.14c0 1.182.965 2.141 2.155 2.141zm-32.049 0c1.19 0 2.155-.958 2.155-2.14 0-1.182-.965-2.14-2.155-2.14s-2.155.958-2.155 2.14c0 1.182.965 2.14 2.155 2.14zM77.8 162.562c1.19 0 2.154-.958 2.154-2.14a2.148 2.148 0 00-2.155-2.141c-1.19 0-2.155.959-2.155 2.141s.965 2.14 2.155 2.14zm-10.684 0c1.19 0 2.155-.958 2.155-2.14a2.148 2.148 0 00-2.155-2.141c-1.19 0-2.155.959-2.155 2.141s.965 2.14 2.155 2.14zm-10.683 0c1.19 0 2.155-.959 2.155-2.141s-.965-2.14-2.155-2.14-2.154.958-2.154 2.14c0 1.182.964 2.141 2.154 2.141zm-32.046 0c1.19 0 2.155-.958 2.155-2.14a2.148 2.148 0 00-2.155-2.141c-1.19 0-2.155.959-2.155 2.141s.965 2.14 2.155 2.14zm10.683 0c1.19 0 2.155-.958 2.155-2.14a2.148 2.148 0 00-2.155-2.141c-1.19 0-2.155.959-2.155 2.141s.965 2.14 2.155 2.14zm10.683 0c1.19 0 2.154-.958 2.154-2.14a2.148 2.148 0 00-2.154-2.141c-1.19 0-2.155.959-2.155 2.141s.965 2.14 2.155 2.14zm-42.73 0c1.19 0 2.155-.958 2.155-2.14a2.148 2.148 0 00-2.155-2.141c-1.19 0-2.154.959-2.154 2.141s.964 2.14 2.154 2.14zm10.683 0c1.19 0 2.155-.958 2.155-2.14a2.148 2.148 0 00-2.155-2.141c-1.19 0-2.154.959-2.154 2.141s.964 2.14 2.154 2.14zM77.8 151.951c1.19 0 2.154-.958 2.154-2.14a2.148 2.148 0 00-2.155-2.141c-1.19 0-2.155.959-2.155 2.141s.965 2.14 2.155 2.14zm10.68 0c1.19 0 2.154-.958 2.154-2.14a2.148 2.148 0 00-2.154-2.141c-1.19 0-2.155.959-2.155 2.141s.965 2.14 2.155 2.14zm-21.361 0c1.19 0 2.154-.958 2.154-2.14a2.148 2.148 0 00-2.154-2.141c-1.19 0-2.155.959-2.155 2.141s.965 2.14 2.155 2.14zm-10.686 0c1.19 0 2.155-.958 2.155-2.14a2.148 2.148 0 00-2.155-2.141c-1.19 0-2.154.958-2.154 2.141 0 1.182.964 2.14 2.154 2.14zm-32.046 0c1.19 0 2.155-.958 2.155-2.14a2.148 2.148 0 00-2.155-2.141c-1.19 0-2.155.959-2.155 2.141s.965 2.14 2.155 2.14zm10.683 0c1.19 0 2.155-.958 2.155-2.14a2.148 2.148 0 00-2.155-2.141c-1.19 0-2.155.959-2.155 2.141s.965 2.14 2.155 2.14zm10.683 0c1.19 0 2.154-.958 2.154-2.14a2.148 2.148 0 00-2.154-2.141c-1.19 0-2.155.959-2.155 2.141s.965 2.14 2.155 2.14zm-42.73 0c1.19 0 2.155-.958 2.155-2.14a2.148 2.148 0 00-2.155-2.141c-1.19 0-2.154.959-2.154 2.141s.964 2.14 2.154 2.14zm10.683 0c1.19 0 2.155-.958 2.155-2.14a2.148 2.148 0 00-2.155-2.141c-1.19 0-2.154.959-2.154 2.141s.964 2.14 2.154 2.14zM77.8 141.34c1.19 0 2.154-.958 2.154-2.14a2.148 2.148 0 00-2.155-2.141c-1.19 0-2.155.958-2.155 2.141 0 1.182.965 2.14 2.155 2.14zm-10.681.001c1.19 0 2.154-.959 2.154-2.141s-.964-2.14-2.154-2.14-2.155.958-2.155 2.14c0 1.182.965 2.141 2.155 2.141zm32.044-.001c1.19 0 2.154-.958 2.154-2.14a2.147 2.147 0 00-2.154-2.141c-1.19 0-2.155.958-2.155 2.141 0 1.182.965 2.14 2.155 2.14zm-10.683 0c1.19 0 2.154-.958 2.154-2.14a2.148 2.148 0 00-2.154-2.141c-1.19 0-2.155.958-2.155 2.141 0 1.182.965 2.14 2.155 2.14zm-32.047 0c1.19 0 2.155-.958 2.155-2.14a2.148 2.148 0 00-2.155-2.141c-1.19 0-2.154.958-2.154 2.141 0 1.182.964 2.14 2.154 2.14zm-32.046 0c1.19 0 2.155-.958 2.155-2.14a2.148 2.148 0 00-2.155-2.141c-1.19 0-2.155.958-2.155 2.141 0 1.182.965 2.14 2.155 2.14zm10.683.001c1.19 0 2.155-.959 2.155-2.141s-.965-2.14-2.155-2.14-2.155.958-2.155 2.14c0 1.182.965 2.141 2.155 2.141zm10.683-.001c1.19 0 2.154-.958 2.154-2.14a2.148 2.148 0 00-2.154-2.141c-1.19 0-2.155.958-2.155 2.141 0 1.182.965 2.14 2.155 2.14zm-42.732-.001c1.19 0 2.155-.958 2.155-2.14a2.148 2.148 0 00-2.155-2.141c-1.19 0-2.155.959-2.155 2.141s.965 2.14 2.155 2.14zm10.685.001c1.19 0 2.155-.958 2.155-2.14a2.148 2.148 0 00-2.155-2.141c-1.19 0-2.154.958-2.154 2.141 0 1.182.964 2.14 2.154 2.14zM77.8 130.729c1.19 0 2.154-.958 2.154-2.14 0-1.182-.965-2.14-2.155-2.14s-2.155.958-2.155 2.14c0 1.182.965 2.14 2.155 2.14zm-10.684 0c1.19 0 2.155-.959 2.155-2.141s-.965-2.14-2.155-2.14-2.155.958-2.155 2.14c0 1.182.965 2.141 2.155 2.141zm-10.683 0c1.19 0 2.155-.959 2.155-2.141s-.965-2.14-2.155-2.14-2.154.958-2.154 2.14c0 1.182.964 2.141 2.154 2.141zm53.412 0c1.19 0 2.155-.958 2.155-2.14 0-1.182-.965-2.14-2.155-2.14s-2.154.958-2.154 2.14c0 1.182.964 2.14 2.154 2.14zm-10.682 0c1.19 0 2.154-.958 2.154-2.14 0-1.182-.964-2.14-2.154-2.14s-2.155.958-2.155 2.14c0 1.182.965 2.14 2.155 2.14zm-10.683 0c1.19 0 2.154-.959 2.154-2.141s-.964-2.14-2.154-2.14-2.155.958-2.155 2.14c0 1.182.965 2.141 2.155 2.141zm-64.093 0c1.19 0 2.155-.959 2.155-2.141s-.965-2.14-2.155-2.14-2.155.958-2.155 2.14c0 1.182.965 2.141 2.155 2.141zm10.683 0c1.19 0 2.155-.959 2.155-2.141s-.965-2.14-2.155-2.14-2.155.958-2.155 2.14c0 1.182.965 2.141 2.155 2.141zm10.683 0c1.19 0 2.154-.958 2.154-2.14 0-1.182-.964-2.14-2.154-2.14s-2.155.958-2.155 2.14c0 1.182.965 2.14 2.155 2.14zm-42.732 0c1.19 0 2.155-.959 2.155-2.141s-.965-2.14-2.155-2.14-2.155.958-2.155 2.14c0 1.182.965 2.141 2.155 2.141zm10.685 0c1.19 0 2.155-.958 2.155-2.14 0-1.182-.965-2.14-2.155-2.14s-2.154.958-2.154 2.14c0 1.182.964 2.14 2.154 2.14zM77.8 120.118c1.19 0 2.154-.958 2.154-2.14a2.148 2.148 0 00-2.155-2.141c-1.19 0-2.155.959-2.155 2.141s.965 2.14 2.155 2.14zm-10.684 0c1.19 0 2.155-.958 2.155-2.14a2.148 2.148 0 00-2.155-2.141c-1.19 0-2.155.959-2.155 2.141s.965 2.14 2.155 2.14zm-10.683 0c1.19 0 2.155-.958 2.155-2.14a2.148 2.148 0 00-2.155-2.141c-1.19 0-2.154.959-2.154 2.141s.964 2.14 2.154 2.14zm53.412 0a2.147 2.147 0 002.155-2.14 2.148 2.148 0 00-2.155-2.141c-1.19 0-2.154.959-2.154 2.141s.964 2.14 2.154 2.14zm-10.685 0c1.19 0 2.155-.959 2.155-2.141s-.965-2.14-2.155-2.14-2.155.958-2.155 2.14c0 1.182.965 2.141 2.155 2.141zm-10.68 0c1.19 0 2.154-.958 2.154-2.14a2.148 2.148 0 00-2.154-2.141c-1.19 0-2.155.959-2.155 2.141s.965 2.14 2.155 2.14zm-64.093 0c1.19 0 2.155-.958 2.155-2.14a2.148 2.148 0 00-2.155-2.141c-1.19 0-2.155.959-2.155 2.141s.965 2.14 2.155 2.14zm10.683 0c1.19 0 2.155-.958 2.155-2.14a2.148 2.148 0 00-2.155-2.141c-1.19 0-2.155.959-2.155 2.141s.965 2.14 2.155 2.14zm10.683 0c1.19 0 2.154-.958 2.154-2.14a2.148 2.148 0 00-2.154-2.141c-1.19 0-2.155.959-2.155 2.141s.965 2.14 2.155 2.14zm-42.732 0c1.19 0 2.155-.958 2.155-2.14a2.148 2.148 0 00-2.155-2.141c-1.19 0-2.155.959-2.155 2.141s.965 2.14 2.155 2.14zm10.685 0c1.19 0 2.155-.959 2.155-2.141s-.965-2.14-2.155-2.14-2.154.958-2.154 2.14c0 1.182.964 2.141 2.154 2.141zM77.8 109.507c1.19 0 2.154-.958 2.154-2.14a2.148 2.148 0 00-2.155-2.141c-1.19 0-2.155.958-2.155 2.141 0 1.182.965 2.14 2.155 2.14zm-10.684 0c1.19 0 2.155-.958 2.155-2.14a2.148 2.148 0 00-2.155-2.141c-1.19 0-2.155.958-2.155 2.141 0 1.182.965 2.14 2.155 2.14zm-10.683.001c1.19 0 2.155-.959 2.155-2.141s-.965-2.14-2.155-2.14-2.154.958-2.154 2.14c0 1.182.964 2.141 2.154 2.141zm42.727-.001c1.19 0 2.155-.958 2.155-2.14a2.148 2.148 0 00-2.155-2.141c-1.19 0-2.155.958-2.155 2.141 0 1.182.965 2.14 2.155 2.14zm-10.68 0c1.19 0 2.154-.958 2.154-2.14a2.148 2.148 0 00-2.154-2.141c-1.19 0-2.155.958-2.155 2.141 0 1.182.965 2.14 2.155 2.14zm-64.093.001c1.19 0 2.155-.959 2.155-2.141s-.965-2.14-2.155-2.14-2.155.958-2.155 2.14c0 1.182.965 2.141 2.155 2.141zm10.683-.001c1.19 0 2.155-.958 2.155-2.14a2.148 2.148 0 00-2.155-2.141c-1.19 0-2.155.958-2.155 2.141 0 1.182.965 2.14 2.155 2.14zm10.683.001c1.19 0 2.154-.959 2.154-2.141s-.964-2.14-2.154-2.14-2.155.958-2.155 2.14c0 1.182.965 2.141 2.155 2.141zm-42.732-.001c1.19 0 2.155-.958 2.155-2.14a2.148 2.148 0 00-2.155-2.141c-1.19 0-2.155.958-2.155 2.141 0 1.182.965 2.14 2.155 2.14zm10.685 0c1.19 0 2.155-.958 2.155-2.14a2.148 2.148 0 00-2.155-2.141c-1.19 0-2.154.958-2.154 2.141 0 1.182.964 2.14 2.154 2.14zM77.8 98.896c1.19 0 2.154-.958 2.154-2.14 0-1.183-.965-2.14-2.155-2.14s-2.155.957-2.155 2.14c0 1.182.965 2.14 2.155 2.14zm-10.684 0c1.19 0 2.155-.958 2.155-2.14 0-1.183-.965-2.14-2.155-2.14s-2.155.957-2.155 2.14c0 1.182.965 2.14 2.155 2.14zm-10.683 0c1.19 0 2.155-.958 2.155-2.14 0-1.183-.965-2.14-2.155-2.14s-2.154.957-2.154 2.14c0 1.182.964 2.14 2.154 2.14zm32.047 0c1.19 0 2.154-.958 2.154-2.14 0-1.183-.964-2.14-2.154-2.14s-2.155.957-2.155 2.14c0 1.182.965 2.14 2.155 2.14zm-64.093 0c1.19 0 2.155-.958 2.155-2.14 0-1.183-.965-2.14-2.155-2.14s-2.155.957-2.155 2.14c0 1.182.965 2.14 2.155 2.14zm10.683 0c1.19 0 2.155-.958 2.155-2.14 0-1.183-.965-2.14-2.155-2.14s-2.155.957-2.155 2.14c0 1.182.965 2.14 2.155 2.14zm10.683 0c1.19 0 2.154-.958 2.154-2.14 0-1.183-.964-2.14-2.154-2.14s-2.155.957-2.155 2.14c0 1.182.965 2.14 2.155 2.14zm-42.732 0c1.19 0 2.155-.958 2.155-2.14 0-1.183-.965-2.14-2.155-2.14s-2.155.957-2.155 2.14c0 1.182.965 2.14 2.155 2.14zm10.685 0c1.19 0 2.155-.958 2.155-2.14 0-1.183-.965-2.14-2.155-2.14s-2.154.957-2.154 2.14c0 1.182.964 2.14 2.154 2.14zM77.8 88.285c1.19 0 2.154-.959 2.154-2.14 0-1.183-.965-2.141-2.155-2.141s-2.155.958-2.155 2.14c0 1.182.965 2.14 2.155 2.14zm-10.684 0c1.19 0 2.155-.959 2.155-2.14 0-1.183-.965-2.141-2.155-2.141s-2.155.958-2.155 2.14c0 1.182.965 2.14 2.155 2.14zm-10.683-.001c1.19 0 2.155-.958 2.155-2.14 0-1.182-.965-2.14-2.155-2.14s-2.154.958-2.154 2.14c0 1.182.964 2.14 2.154 2.14zm-32.046.001c1.19 0 2.155-.959 2.155-2.14 0-1.183-.965-2.141-2.155-2.141s-2.155.958-2.155 2.14c0 1.182.965 2.14 2.155 2.14zm10.683 0c1.19 0 2.155-.959 2.155-2.14 0-1.183-.965-2.141-2.155-2.141s-2.155.958-2.155 2.14c0 1.182.965 2.14 2.155 2.14zm10.683 0c1.19 0 2.154-.959 2.154-2.14 0-1.183-.964-2.141-2.154-2.141s-2.155.958-2.155 2.14c0 1.182.965 2.14 2.155 2.14zm-42.73 0c1.19 0 2.155-.959 2.155-2.14 0-1.183-.965-2.141-2.155-2.141S.87 84.962.87 86.144c0 1.182.964 2.14 2.154 2.14zm10.683 0c1.19 0 2.155-.959 2.155-2.14 0-1.183-.965-2.141-2.155-2.141s-2.154.958-2.154 2.14c0 1.182.964 2.14 2.154 2.14zm53.413-10.611c1.19 0 2.154-.958 2.154-2.14 0-1.182-.964-2.14-2.154-2.14s-2.155.958-2.155 2.14c0 1.182.965 2.14 2.155 2.14zm-10.686 0c1.19 0 2.155-.959 2.155-2.14 0-1.183-.965-2.141-2.155-2.141s-2.154.958-2.154 2.14c0 1.182.964 2.14 2.154 2.14zm-32.046 0c1.19 0 2.155-.959 2.155-2.14 0-1.183-.965-2.141-2.155-2.141s-2.155.958-2.155 2.14c0 1.182.965 2.14 2.155 2.14zm10.683 0c1.19 0 2.155-.958 2.155-2.14 0-1.182-.965-2.14-2.155-2.14s-2.155.958-2.155 2.14c0 1.182.965 2.14 2.155 2.14zm10.683 0c1.19 0 2.154-.958 2.154-2.14 0-1.182-.964-2.14-2.154-2.14s-2.155.958-2.155 2.14c0 1.182.965 2.14 2.155 2.14zm-42.732 0c1.19 0 2.155-.959 2.155-2.14 0-1.183-.965-2.141-2.155-2.141s-2.155.958-2.155 2.14c0 1.182.965 2.14 2.155 2.14zm10.685 0c1.19 0 2.155-.958 2.155-2.14 0-1.182-.965-2.14-2.155-2.14s-2.154.958-2.154 2.14c0 1.182.964 2.14 2.154 2.14zm42.727-10.611c1.19 0 2.155-.958 2.155-2.14 0-1.183-.965-2.14-2.155-2.14s-2.154.957-2.154 2.14c0 1.182.964 2.14 2.154 2.14zm-32.046 0c1.19 0 2.155-.958 2.155-2.14 0-1.183-.965-2.14-2.155-2.14s-2.155.957-2.155 2.14c0 1.182.965 2.14 2.155 2.14zm10.683.001c1.19 0 2.155-.958 2.155-2.14 0-1.183-.965-2.141-2.155-2.141s-2.155.958-2.155 2.14c0 1.183.965 2.14 2.155 2.14zm10.683-.001c1.19 0 2.154-.958 2.154-2.14 0-1.183-.964-2.14-2.154-2.14s-2.155.957-2.155 2.14c0 1.182.965 2.14 2.155 2.14zm-42.732 0c1.19 0 2.155-.959 2.155-2.141s-.965-2.14-2.155-2.14-2.155.958-2.155 2.14c0 1.182.965 2.14 2.155 2.14zm10.685 0c1.19 0 2.155-.958 2.155-2.14 0-1.183-.965-2.14-2.155-2.14s-2.154.957-2.154 2.14c0 1.182.964 2.14 2.154 2.14zm10.681-10.611c1.19 0 2.155-.959 2.155-2.14 0-1.183-.965-2.141-2.155-2.141s-2.155.958-2.155 2.14c0 1.182.965 2.14 2.155 2.14zm10.683 0c1.19 0 2.155-.959 2.155-2.14 0-1.183-.965-2.141-2.155-2.141s-2.155.958-2.155 2.14c0 1.182.965 2.14 2.155 2.14zm10.683 0c1.19 0 2.154-.958 2.154-2.14 0-1.182-.964-2.14-2.154-2.14s-2.155.958-2.155 2.14c0 1.182.965 2.14 2.155 2.14zm-42.732 0c1.19 0 2.155-.959 2.155-2.14 0-1.183-.965-2.141-2.155-2.141s-2.155.958-2.155 2.14c0 1.182.965 2.14 2.155 2.14zm10.685 0c1.19 0 2.155-.958 2.155-2.14 0-1.182-.965-2.14-2.155-2.14s-2.154.958-2.154 2.14c0 1.182.964 2.14 2.154 2.14zm10.681-10.611c1.19 0 2.155-.958 2.155-2.14 0-1.182-.965-2.14-2.155-2.14s-2.155.958-2.155 2.14c0 1.182.965 2.14 2.155 2.14zm10.683 0c1.19 0 2.155-.958 2.155-2.14 0-1.182-.965-2.14-2.155-2.14s-2.155.958-2.155 2.14c0 1.182.965 2.14 2.155 2.14zm-32.049 0c1.19 0 2.155-.958 2.155-2.14 0-1.182-.965-2.14-2.155-2.14S.866 42.518.866 43.7s.965 2.14 2.155 2.14zm10.685 0c1.19 0 2.155-.958 2.155-2.14 0-1.182-.965-2.14-2.155-2.14s-2.154.958-2.154 2.14c0 1.182.964 2.14 2.154 2.14zM24.387 35.23c1.19 0 2.155-.958 2.155-2.14 0-1.182-.965-2.14-2.155-2.14s-2.155.958-2.155 2.14c0 1.182.965 2.14 2.155 2.14zm-21.366 0c1.19 0 2.155-.958 2.155-2.14 0-1.183-.965-2.141-2.155-2.141s-2.155.958-2.155 2.14c0 1.183.965 2.14 2.155 2.14zm10.685 0c1.19 0 2.155-.958 2.155-2.14 0-1.183-.965-2.141-2.155-2.141s-2.154.958-2.154 2.14c0 1.183.964 2.14 2.154 2.14zM3.021 24.62a2.15 2.15 0 002.155-2.141c0-1.182-.965-2.14-2.155-2.14s-2.155.958-2.155 2.14c0 1.182.965 2.14 2.155 2.14zm0-9.728c1.19 0 2.155-.958 2.155-2.14 0-1.182-.965-2.14-2.155-2.14s-2.155.958-2.155 2.14c0 1.182.965 2.14 2.155 2.14zm10.685 9.727c1.19 0 2.155-.959 2.155-2.14 0-1.183-.965-2.141-2.155-2.141s-2.154.958-2.154 2.14c0 1.182.964 2.14 2.154 2.14z"/></g><defs><clipPath id="clip0_212_881"><path fill="#fff" transform="translate(-138)" d="M0 0h250v255H0z"/></clipPath></defs></svg>