<svg width="511" height="667" fill="none" xmlns="http://www.w3.org/2000/svg"><g clip-path="url(#clip0_38_9478)" fill="#F6E3AB" fill-opacity=".5"><path d="M255.174 591.742a5.596 5.596 0 005.594-5.598 5.597 5.597 0 00-5.594-5.599 5.597 5.597 0 00-5.594 5.599 5.596 5.596 0 005.594 5.598zm27.728-.002a5.595 5.595 0 005.594-5.598 5.596 5.596 0 00-5.594-5.599 5.596 5.596 0 00-5.593 5.599 5.595 5.595 0 005.593 5.598zm27.735.002a5.596 5.596 0 005.594-5.598 5.597 5.597 0 00-5.594-5.599 5.596 5.596 0 00-5.594 5.599 5.595 5.595 0 005.594 5.598zm27.728-.002a5.595 5.595 0 005.594-5.598 5.596 5.596 0 00-5.594-5.599 5.597 5.597 0 00-5.594 5.599 5.596 5.596 0 005.594 5.598zm27.731.002a5.595 5.595 0 005.593-5.598 5.596 5.596 0 00-5.593-5.599 5.596 5.596 0 00-5.594 5.599 5.595 5.595 0 005.594 5.598zm-83.194 27.756a5.596 5.596 0 005.594-5.599 5.596 5.596 0 00-5.594-5.599 5.596 5.596 0 00-5.593 5.599 5.596 5.596 0 005.593 5.599zm27.735-.002a5.596 5.596 0 005.594-5.598 5.596 5.596 0 00-5.594-5.599 5.596 5.596 0 00-5.594 5.599 5.595 5.595 0 005.594 5.598zm27.728 0a5.595 5.595 0 005.594-5.598 5.596 5.596 0 00-5.594-5.599 5.596 5.596 0 00-5.594 5.599 5.596 5.596 0 005.594 5.598zm-27.728 27.754a5.596 5.596 0 005.594-5.599 5.596 5.596 0 00-5.594-5.598 5.595 5.595 0 00-5.594 5.598 5.596 5.596 0 005.594 5.599zm27.728 0a5.596 5.596 0 005.594-5.599 5.595 5.595 0 00-5.594-5.598 5.596 5.596 0 00-5.594 5.598 5.596 5.596 0 005.594 5.599zm27.729-27.752a5.597 5.597 0 005.594-5.599 5.597 5.597 0 00-5.594-5.599 5.596 5.596 0 00-5.594 5.599 5.596 5.596 0 005.594 5.599zm27.734-27.756a5.595 5.595 0 005.594-5.598 5.596 5.596 0 00-5.594-5.599 5.597 5.597 0 00-5.594 5.599 5.596 5.596 0 005.594 5.598zm0-27.755a5.596 5.596 0 005.594-5.599 5.595 5.595 0 00-5.594-5.598 5.596 5.596 0 00-5.594 5.598 5.597 5.597 0 005.594 5.599zm27.733 0a5.596 5.596 0 005.593-5.599 5.595 5.595 0 00-5.593-5.598 5.595 5.595 0 00-5.594 5.598 5.596 5.596 0 005.594 5.599zm27.726-27.756a5.596 5.596 0 005.594-5.599 5.595 5.595 0 00-5.594-5.598 5.596 5.596 0 00-5.594 5.598 5.597 5.597 0 005.594 5.599zm-27.726.002a5.596 5.596 0 005.593-5.599 5.595 5.595 0 00-5.593-5.598 5.595 5.595 0 00-5.594 5.598 5.596 5.596 0 005.594 5.599zm-110.924 27.756a5.597 5.597 0 005.594-5.599 5.596 5.596 0 00-5.594-5.598 5.595 5.595 0 00-5.594 5.598 5.596 5.596 0 005.594 5.599zm27.728-.002a5.596 5.596 0 005.594-5.599 5.595 5.595 0 00-5.594-5.598 5.596 5.596 0 00-5.594 5.598 5.597 5.597 0 005.594 5.599zm27.729-.002a5.596 5.596 0 005.594-5.598 5.597 5.597 0 00-5.594-5.599 5.596 5.596 0 00-5.594 5.599 5.595 5.595 0 005.594 5.598zm-138.653.004a5.596 5.596 0 005.594-5.599 5.595 5.595 0 00-5.594-5.598 5.595 5.595 0 00-5.593 5.598 5.596 5.596 0 005.593 5.599zm-27.732-27.758a5.597 5.597 0 005.594-5.599 5.596 5.596 0 00-5.594-5.598 5.596 5.596 0 00-5.594 5.598 5.597 5.597 0 005.594 5.599zm55.465 27.756a5.597 5.597 0 005.594-5.599 5.596 5.596 0 00-5.594-5.598 5.596 5.596 0 00-5.594 5.598 5.597 5.597 0 005.594 5.599zm27.728-.002a5.595 5.595 0 005.594-5.598 5.596 5.596 0 00-5.594-5.599 5.596 5.596 0 00-5.593 5.599 5.595 5.595 0 005.593 5.598zm110.926-27.752a5.596 5.596 0 005.594-5.599 5.595 5.595 0 00-5.594-5.598 5.596 5.596 0 00-5.594 5.598 5.597 5.597 0 005.594 5.599zm-83.193-.002a5.597 5.597 0 005.594-5.599 5.596 5.596 0 00-5.594-5.598 5.595 5.595 0 00-5.594 5.598 5.596 5.596 0 005.594 5.599zm27.73 0a5.596 5.596 0 005.594-5.599 5.595 5.595 0 00-5.594-5.598 5.596 5.596 0 00-5.594 5.598 5.597 5.597 0 005.594 5.599zm27.729 0a5.597 5.597 0 005.594-5.599 5.596 5.596 0 00-5.594-5.598 5.595 5.595 0 00-5.594 5.598 5.596 5.596 0 005.594 5.599zm-138.653.002a5.596 5.596 0 005.594-5.599 5.595 5.595 0 00-5.594-5.598 5.595 5.595 0 00-5.593 5.598 5.596 5.596 0 005.593 5.599zm27.733 0a5.597 5.597 0 005.594-5.599 5.596 5.596 0 00-5.594-5.598 5.596 5.596 0 00-5.594 5.598 5.597 5.597 0 005.594 5.599zm27.728-.002a5.596 5.596 0 005.594-5.599 5.595 5.595 0 00-5.594-5.598 5.595 5.595 0 00-5.593 5.598 5.596 5.596 0 005.593 5.599zm194.12-27.753a5.595 5.595 0 005.593-5.599 5.595 5.595 0 00-5.593-5.598 5.595 5.595 0 00-5.594 5.598 5.596 5.596 0 005.594 5.599zm-27.735-.001a5.596 5.596 0 005.594-5.599 5.596 5.596 0 00-5.594-5.599 5.597 5.597 0 00-5.594 5.599 5.597 5.597 0 005.594 5.599zm-221.849 0a5.596 5.596 0 005.593-5.599 5.596 5.596 0 00-5.593-5.599 5.596 5.596 0 00-5.594 5.599 5.596 5.596 0 005.594 5.599zm194.123 0a5.596 5.596 0 005.593-5.599 5.596 5.596 0 00-5.593-5.599 5.596 5.596 0 00-5.594 5.599 5.596 5.596 0 005.594 5.599zm-83.196 0a5.596 5.596 0 005.594-5.599 5.596 5.596 0 00-5.594-5.599 5.597 5.597 0 00-5.594 5.599 5.597 5.597 0 005.594 5.599zm27.729 0a5.597 5.597 0 005.594-5.599 5.597 5.597 0 00-5.594-5.599 5.596 5.596 0 00-5.594 5.599 5.596 5.596 0 005.594 5.599zm27.736.001a5.596 5.596 0 005.594-5.599 5.596 5.596 0 00-5.594-5.598 5.596 5.596 0 00-5.594 5.598 5.596 5.596 0 005.594 5.599zm-138.656 0a5.596 5.596 0 005.594-5.599 5.596 5.596 0 00-5.594-5.598 5.596 5.596 0 00-5.594 5.598 5.596 5.596 0 005.594 5.599zm-83.192 0a5.596 5.596 0 005.594-5.599 5.595 5.595 0 00-5.594-5.598 5.595 5.595 0 00-5.593 5.598 5.595 5.595 0 005.593 5.599zm27.727-.001a5.597 5.597 0 005.594-5.599 5.597 5.597 0 00-5.594-5.599 5.597 5.597 0 00-5.594 5.599 5.597 5.597 0 005.594 5.599zm83.193 0a5.596 5.596 0 005.594-5.599 5.596 5.596 0 00-5.594-5.599 5.596 5.596 0 00-5.593 5.599 5.596 5.596 0 005.593 5.599zm27.733 0a5.597 5.597 0 005.594-5.599 5.597 5.597 0 00-5.594-5.599 5.596 5.596 0 00-5.594 5.599 5.596 5.596 0 005.594 5.599zm194.115-27.755a5.596 5.596 0 005.594-5.598 5.596 5.596 0 00-5.594-5.599 5.596 5.596 0 00-5.594 5.599 5.596 5.596 0 005.594 5.598zm-27.728 0a5.595 5.595 0 005.593-5.598 5.595 5.595 0 00-5.593-5.599 5.596 5.596 0 00-5.594 5.599 5.595 5.595 0 005.594 5.598zm-221.848 0a5.596 5.596 0 005.594-5.598 5.596 5.596 0 00-5.594-5.599 5.596 5.596 0 00-5.594 5.599 5.596 5.596 0 005.594 5.598zm194.113 0a5.595 5.595 0 005.594-5.598 5.596 5.596 0 00-5.594-5.599 5.596 5.596 0 00-5.594 5.599 5.596 5.596 0 005.594 5.598zm-83.193 0a5.596 5.596 0 005.594-5.598 5.596 5.596 0 00-5.594-5.599 5.596 5.596 0 00-5.594 5.599 5.595 5.595 0 005.594 5.598zm27.734-.001a5.595 5.595 0 005.594-5.598 5.596 5.596 0 00-5.594-5.599 5.597 5.597 0 00-5.594 5.599 5.596 5.596 0 005.594 5.598zm27.733.001a5.595 5.595 0 005.593-5.598 5.595 5.595 0 00-5.593-5.599 5.596 5.596 0 00-5.594 5.599 5.595 5.595 0 005.594 5.598zm-138.659 0a5.595 5.595 0 005.594-5.598 5.596 5.596 0 00-5.594-5.599 5.595 5.595 0 00-5.593 5.599 5.595 5.595 0 005.593 5.598zm-83.193 0a5.596 5.596 0 005.594-5.598 5.596 5.596 0 00-5.594-5.599 5.596 5.596 0 00-5.594 5.599 5.596 5.596 0 005.594 5.598zm27.732-.001a5.595 5.595 0 005.594-5.598 5.596 5.596 0 00-5.594-5.599 5.596 5.596 0 00-5.593 5.599 5.595 5.595 0 005.593 5.598zm-83.191.001a5.596 5.596 0 005.594-5.598 5.596 5.596 0 00-5.594-5.599 5.596 5.596 0 00-5.594 5.599 5.596 5.596 0 005.594 5.598zm27.731-.001a5.595 5.595 0 005.593-5.598 5.596 5.596 0 00-5.593-5.599 5.596 5.596 0 00-5.594 5.599 5.595 5.595 0 005.594 5.598zm138.654.001a5.596 5.596 0 005.594-5.598 5.596 5.596 0 00-5.594-5.599 5.596 5.596 0 00-5.594 5.599 5.595 5.595 0 005.594 5.598zm27.73 0a5.595 5.595 0 005.594-5.598 5.596 5.596 0 00-5.594-5.599 5.596 5.596 0 00-5.594 5.599 5.596 5.596 0 005.594 5.598zm166.389-27.755a5.596 5.596 0 005.594-5.598 5.597 5.597 0 00-5.594-5.599 5.597 5.597 0 00-5.594 5.599 5.596 5.596 0 005.594 5.598zm-221.852 0a5.595 5.595 0 005.594-5.598 5.596 5.596 0 00-5.594-5.599 5.596 5.596 0 00-5.593 5.599 5.595 5.595 0 005.593 5.598zm194.116-.001a5.596 5.596 0 005.593-5.599 5.596 5.596 0 00-5.593-5.599 5.596 5.596 0 00-5.594 5.599 5.596 5.596 0 005.594 5.599zm-83.19-.001a5.595 5.595 0 005.594-5.598 5.596 5.596 0 00-5.594-5.599 5.597 5.597 0 00-5.594 5.599 5.596 5.596 0 005.594 5.598zm27.733 0a5.595 5.595 0 005.593-5.598 5.596 5.596 0 00-5.593-5.599 5.596 5.596 0 00-5.594 5.599 5.595 5.595 0 005.594 5.598zm27.726 0a5.595 5.595 0 005.594-5.598 5.596 5.596 0 00-5.594-5.599 5.597 5.597 0 00-5.594 5.599 5.596 5.596 0 005.594 5.598zm-138.65 0a5.596 5.596 0 005.594-5.598 5.597 5.597 0 00-5.594-5.599 5.596 5.596 0 00-5.594 5.599 5.595 5.595 0 005.594 5.598zm-83.196 0a5.595 5.595 0 005.594-5.598 5.596 5.596 0 00-5.594-5.599 5.596 5.596 0 00-5.593 5.599 5.595 5.595 0 005.593 5.598zm27.733 0a5.596 5.596 0 005.594-5.598 5.597 5.597 0 00-5.594-5.599 5.597 5.597 0 00-5.594 5.599 5.596 5.596 0 005.594 5.598zm-83.192 0a5.595 5.595 0 005.594-5.598 5.596 5.596 0 00-5.594-5.599 5.596 5.596 0 00-5.593 5.599 5.595 5.595 0 005.593 5.598zm27.727.002a5.596 5.596 0 005.594-5.598 5.597 5.597 0 00-5.594-5.599 5.597 5.597 0 00-5.594 5.599 5.596 5.596 0 005.594 5.598zm-83.191-.002a5.595 5.595 0 005.593-5.598 5.596 5.596 0 00-5.593-5.599 5.596 5.596 0 00-5.594 5.599 5.595 5.595 0 005.594 5.598zm27.732.002a5.596 5.596 0 005.594-5.598 5.597 5.597 0 00-5.594-5.599 5.597 5.597 0 00-5.594 5.599 5.596 5.596 0 005.594 5.598zm194.115-.002a5.595 5.595 0 005.594-5.598 5.596 5.596 0 00-5.594-5.599 5.597 5.597 0 00-5.594 5.599 5.596 5.596 0 005.594 5.598zm27.729.002a5.596 5.596 0 005.594-5.598 5.597 5.597 0 00-5.594-5.599 5.596 5.596 0 00-5.594 5.599 5.595 5.595 0 005.594 5.598zm-55.457-27.755a5.597 5.597 0 005.594-5.599 5.596 5.596 0 00-5.594-5.598 5.595 5.595 0 00-5.594 5.598 5.596 5.596 0 005.594 5.599zm194.113-.002a5.597 5.597 0 005.594-5.599 5.596 5.596 0 00-5.594-5.598 5.596 5.596 0 00-5.594 5.598 5.597 5.597 0 005.594 5.599zm-83.189.002a5.596 5.596 0 005.593-5.599 5.595 5.595 0 00-5.593-5.598 5.595 5.595 0 00-5.594 5.598 5.596 5.596 0 005.594 5.599zm27.726 0a5.596 5.596 0 005.594-5.599 5.595 5.595 0 00-5.594-5.598 5.596 5.596 0 00-5.594 5.598 5.597 5.597 0 005.594 5.599zm27.731 0a5.596 5.596 0 005.593-5.599 5.595 5.595 0 00-5.593-5.598 5.595 5.595 0 00-5.594 5.598 5.596 5.596 0 005.594 5.599zm-138.653 0a5.596 5.596 0 005.594-5.599 5.595 5.595 0 00-5.594-5.598 5.596 5.596 0 00-5.594 5.598 5.597 5.597 0 005.594 5.599zm-83.191 0a5.597 5.597 0 005.594-5.599 5.596 5.596 0 00-5.594-5.598 5.596 5.596 0 00-5.594 5.598 5.597 5.597 0 005.594 5.599zm27.728-.002a5.596 5.596 0 005.594-5.599 5.595 5.595 0 00-5.594-5.598 5.595 5.595 0 00-5.593 5.598 5.596 5.596 0 005.593 5.599zm-83.193.003a5.596 5.596 0 005.594-5.598 5.597 5.597 0 00-5.594-5.599 5.597 5.597 0 00-5.594 5.599 5.596 5.596 0 005.594 5.598zm27.732-.001a5.596 5.596 0 005.594-5.599 5.595 5.595 0 00-5.594-5.598 5.595 5.595 0 00-5.593 5.598 5.596 5.596 0 005.593 5.599zm-83.191 0a5.597 5.597 0 005.594-5.599 5.596 5.596 0 00-5.594-5.598 5.596 5.596 0 00-5.594 5.598 5.597 5.597 0 005.594 5.599zm27.732 0a5.596 5.596 0 005.594-5.599 5.595 5.595 0 00-5.594-5.598 5.595 5.595 0 00-5.593 5.598 5.596 5.596 0 005.593 5.599zm-83.195 0a5.597 5.597 0 005.594-5.599 5.596 5.596 0 00-5.594-5.598 5.596 5.596 0 00-5.594 5.598 5.597 5.597 0 005.594 5.599zm27.731 0a5.596 5.596 0 005.593-5.599 5.595 5.595 0 00-5.593-5.598 5.595 5.595 0 00-5.594 5.598 5.596 5.596 0 005.594 5.599zm249.578 0a5.596 5.596 0 005.593-5.599 5.595 5.595 0 00-5.593-5.598 5.595 5.595 0 00-5.594 5.598 5.596 5.596 0 005.594 5.599zm27.732 0a5.596 5.596 0 005.594-5.599 5.595 5.595 0 00-5.594-5.598 5.596 5.596 0 00-5.594 5.598 5.597 5.597 0 005.594 5.599zm-83.191-27.756a5.596 5.596 0 005.594-5.599 5.596 5.596 0 00-5.594-5.598 5.595 5.595 0 00-5.594 5.598 5.596 5.596 0 005.594 5.599zm194.113 0a5.596 5.596 0 005.594-5.599 5.596 5.596 0 00-5.594-5.598 5.596 5.596 0 00-5.594 5.598 5.596 5.596 0 005.594 5.599zm-83.189 0a5.595 5.595 0 005.593-5.599 5.595 5.595 0 00-5.593-5.598 5.595 5.595 0 00-5.594 5.598 5.596 5.596 0 005.594 5.599zm27.726 0a5.596 5.596 0 005.594-5.599 5.595 5.595 0 00-5.594-5.598 5.596 5.596 0 00-5.594 5.598 5.596 5.596 0 005.594 5.599zm27.731 0a5.595 5.595 0 005.593-5.599 5.595 5.595 0 00-5.593-5.598 5.595 5.595 0 00-5.594 5.598 5.596 5.596 0 005.594 5.599zm-138.653 0a5.596 5.596 0 005.594-5.599 5.595 5.595 0 00-5.594-5.598 5.596 5.596 0 00-5.594 5.598 5.596 5.596 0 005.594 5.599zm-83.191 0a5.596 5.596 0 005.594-5.599 5.596 5.596 0 00-5.594-5.598 5.596 5.596 0 00-5.594 5.598 5.596 5.596 0 005.594 5.599zm27.728 0a5.596 5.596 0 005.594-5.599 5.595 5.595 0 00-5.594-5.598 5.595 5.595 0 00-5.593 5.598 5.595 5.595 0 005.593 5.599zm-83.193 0a5.596 5.596 0 005.594-5.599 5.596 5.596 0 00-5.594-5.598 5.596 5.596 0 00-5.594 5.598 5.596 5.596 0 005.594 5.599zm27.732 0a5.596 5.596 0 005.594-5.599 5.595 5.595 0 00-5.594-5.598 5.595 5.595 0 00-5.593 5.598 5.595 5.595 0 005.593 5.599zm-83.191 0a5.596 5.596 0 005.594-5.599 5.596 5.596 0 00-5.594-5.598 5.596 5.596 0 00-5.594 5.598 5.596 5.596 0 005.594 5.599zm27.732 0a5.596 5.596 0 005.594-5.599 5.595 5.595 0 00-5.594-5.598 5.595 5.595 0 00-5.593 5.598 5.595 5.595 0 005.593 5.599zm-83.195 0a5.596 5.596 0 005.594-5.599 5.596 5.596 0 00-5.594-5.598 5.596 5.596 0 00-5.594 5.598 5.596 5.596 0 005.594 5.599zm-27.73 0a5.596 5.596 0 005.593-5.599 5.596 5.596 0 00-5.593-5.598 5.596 5.596 0 00-5.594 5.598 5.596 5.596 0 005.594 5.599zm0-27.755a5.597 5.597 0 005.593-5.599 5.597 5.597 0 00-5.593-5.599 5.597 5.597 0 00-5.594 5.599 5.597 5.597 0 005.594 5.599zm-27.731 0a5.597 5.597 0 005.594-5.599 5.597 5.597 0 00-5.594-5.599 5.597 5.597 0 00-5.594 5.599 5.597 5.597 0 005.594 5.599zm27.731-27.756a5.596 5.596 0 005.593-5.598 5.597 5.597 0 00-5.593-5.599 5.597 5.597 0 00-5.594 5.599 5.596 5.596 0 005.594 5.598zm-27.731.002a5.596 5.596 0 005.594-5.598 5.597 5.597 0 00-5.594-5.599 5.597 5.597 0 00-5.594 5.599 5.596 5.596 0 005.594 5.598zm-27.73 0a5.596 5.596 0 005.594-5.598 5.597 5.597 0 00-5.594-5.599 5.597 5.597 0 00-5.594 5.599 5.596 5.596 0 005.594 5.598zm110.922 55.509a5.595 5.595 0 005.593-5.599 5.595 5.595 0 00-5.593-5.598 5.595 5.595 0 00-5.594 5.598 5.596 5.596 0 005.594 5.599zm249.578 0a5.595 5.595 0 005.593-5.599 5.595 5.595 0 00-5.593-5.598 5.595 5.595 0 00-5.594 5.598 5.596 5.596 0 005.594 5.599zm27.732 0a5.596 5.596 0 005.594-5.599 5.595 5.595 0 00-5.594-5.598 5.596 5.596 0 00-5.594 5.598 5.596 5.596 0 005.594 5.599zm-83.191-27.753a5.597 5.597 0 005.594-5.599 5.597 5.597 0 00-5.594-5.599 5.596 5.596 0 00-5.594 5.599 5.596 5.596 0 005.594 5.599zm194.113-.002a5.597 5.597 0 005.594-5.599 5.597 5.597 0 00-5.594-5.599 5.597 5.597 0 00-5.594 5.599 5.597 5.597 0 005.594 5.599zm-83.189 0a5.596 5.596 0 005.593-5.599 5.596 5.596 0 00-5.593-5.599 5.596 5.596 0 00-5.594 5.599 5.596 5.596 0 005.594 5.599zm27.726.002a5.596 5.596 0 005.594-5.599 5.596 5.596 0 00-5.594-5.599 5.597 5.597 0 00-5.594 5.599 5.597 5.597 0 005.594 5.599zm27.731-.002a5.596 5.596 0 005.593-5.599 5.596 5.596 0 00-5.593-5.599 5.596 5.596 0 00-5.594 5.599 5.596 5.596 0 005.594 5.599zm-138.653 0a5.596 5.596 0 005.594-5.599 5.596 5.596 0 00-5.594-5.599 5.597 5.597 0 00-5.594 5.599 5.597 5.597 0 005.594 5.599zm-83.191 0a5.597 5.597 0 005.594-5.599 5.597 5.597 0 00-5.594-5.599 5.597 5.597 0 00-5.594 5.599 5.597 5.597 0 005.594 5.599zm27.728 0a5.596 5.596 0 005.594-5.599 5.596 5.596 0 00-5.594-5.599 5.596 5.596 0 00-5.593 5.599 5.596 5.596 0 005.593 5.599zm-83.193 0a5.597 5.597 0 005.594-5.599 5.597 5.597 0 00-5.594-5.599 5.597 5.597 0 00-5.594 5.599 5.597 5.597 0 005.594 5.599zm27.732.002a5.596 5.596 0 005.594-5.599 5.596 5.596 0 00-5.594-5.599 5.596 5.596 0 00-5.593 5.599 5.596 5.596 0 005.593 5.599zm-83.193-.004a5.597 5.597 0 005.594-5.599 5.597 5.597 0 00-5.594-5.599 5.597 5.597 0 00-5.594 5.599 5.597 5.597 0 005.594 5.599zm27.734.002a5.596 5.596 0 005.594-5.599 5.596 5.596 0 00-5.594-5.599 5.596 5.596 0 00-5.593 5.599 5.596 5.596 0 005.593 5.599zm-83.195 0a5.597 5.597 0 005.594-5.599 5.597 5.597 0 00-5.594-5.599 5.597 5.597 0 00-5.594 5.599 5.597 5.597 0 005.594 5.599zm27.731 0a5.596 5.596 0 005.593-5.599 5.596 5.596 0 00-5.593-5.599 5.596 5.596 0 00-5.594 5.599 5.596 5.596 0 005.594 5.599zm249.576-.002a5.597 5.597 0 005.594-5.599 5.597 5.597 0 00-5.594-5.599 5.596 5.596 0 00-5.594 5.599 5.596 5.596 0 005.594 5.599zm27.734.002a5.596 5.596 0 005.594-5.599 5.596 5.596 0 00-5.594-5.599 5.597 5.597 0 00-5.594 5.599 5.597 5.597 0 005.594 5.599zm-83.193-27.756a5.596 5.596 0 005.594-5.598 5.597 5.597 0 00-5.594-5.599 5.596 5.596 0 00-5.594 5.599 5.595 5.595 0 005.594 5.598zm194.115 0a5.596 5.596 0 005.594-5.598 5.597 5.597 0 00-5.594-5.599 5.597 5.597 0 00-5.594 5.599 5.596 5.596 0 005.594 5.598zm-83.189 0a5.595 5.595 0 005.593-5.598 5.596 5.596 0 00-5.593-5.599 5.596 5.596 0 00-5.594 5.599 5.595 5.595 0 005.594 5.598zm27.726 0a5.595 5.595 0 005.594-5.598 5.596 5.596 0 00-5.594-5.599 5.597 5.597 0 00-5.594 5.599 5.596 5.596 0 005.594 5.598zm27.735.002a5.595 5.595 0 005.593-5.598 5.596 5.596 0 00-5.593-5.599 5.596 5.596 0 00-5.594 5.599 5.595 5.595 0 005.594 5.598zm-138.657-.002a5.595 5.595 0 005.594-5.598 5.596 5.596 0 00-5.594-5.599 5.597 5.597 0 00-5.594 5.599 5.596 5.596 0 005.594 5.598zm-83.191.002a5.596 5.596 0 005.594-5.598 5.597 5.597 0 00-5.594-5.599 5.597 5.597 0 00-5.594 5.599 5.596 5.596 0 005.594 5.598zm27.728-.002a5.595 5.595 0 005.594-5.598 5.596 5.596 0 00-5.594-5.599 5.596 5.596 0 00-5.593 5.599 5.595 5.595 0 005.593 5.598zm-83.193 0a5.596 5.596 0 005.594-5.598 5.597 5.597 0 00-5.594-5.599 5.597 5.597 0 00-5.594 5.599 5.596 5.596 0 005.594 5.598zm27.729 0a5.595 5.595 0 005.593-5.598 5.596 5.596 0 00-5.593-5.599 5.596 5.596 0 00-5.594 5.599 5.595 5.595 0 005.594 5.598zm-83.19 0a5.596 5.596 0 005.594-5.598 5.597 5.597 0 00-5.594-5.599 5.597 5.597 0 00-5.594 5.599 5.596 5.596 0 005.594 5.598zm27.734.002a5.595 5.595 0 005.594-5.598 5.596 5.596 0 00-5.594-5.599 5.596 5.596 0 00-5.593 5.599 5.595 5.595 0 005.593 5.598zm-83.195 0a5.596 5.596 0 005.594-5.598 5.597 5.597 0 00-5.594-5.599 5.597 5.597 0 00-5.594 5.599 5.596 5.596 0 005.594 5.598zm27.731-.002a5.595 5.595 0 005.593-5.598 5.596 5.596 0 00-5.593-5.599 5.596 5.596 0 00-5.594 5.599 5.595 5.595 0 005.594 5.598zm249.576 0a5.596 5.596 0 005.594-5.598 5.597 5.597 0 00-5.594-5.599 5.596 5.596 0 00-5.594 5.599 5.595 5.595 0 005.594 5.598zm27.734.002a5.595 5.595 0 005.594-5.598 5.596 5.596 0 00-5.594-5.599 5.597 5.597 0 00-5.594 5.599 5.596 5.596 0 005.594 5.598zM61.057 314.191a5.596 5.596 0 005.593-5.598 5.597 5.597 0 00-5.593-5.599 5.597 5.597 0 00-5.594 5.599 5.596 5.596 0 005.594 5.598zm-27.731 0a5.596 5.596 0 005.594-5.598 5.597 5.597 0 00-5.594-5.599 5.597 5.597 0 00-5.594 5.599 5.596 5.596 0 005.594 5.598zm-27.732 0a5.596 5.596 0 005.594-5.598 5.597 5.597 0 00-5.594-5.599A5.597 5.597 0 000 308.593a5.596 5.596 0 005.594 5.598zm305.041 0a5.596 5.596 0 005.594-5.598 5.597 5.597 0 00-5.594-5.599 5.596 5.596 0 00-5.594 5.599 5.595 5.595 0 005.594 5.598zm194.115 0a5.596 5.596 0 005.594-5.598 5.597 5.597 0 00-5.594-5.599 5.597 5.597 0 00-5.594 5.599 5.596 5.596 0 005.594 5.598zm-83.189 0a5.595 5.595 0 005.593-5.598 5.596 5.596 0 00-5.593-5.599 5.596 5.596 0 00-5.594 5.599 5.595 5.595 0 005.594 5.598zm27.726 0a5.595 5.595 0 005.594-5.598 5.596 5.596 0 00-5.594-5.599 5.597 5.597 0 00-5.594 5.599 5.596 5.596 0 005.594 5.598zm27.735 0a5.595 5.595 0 005.593-5.598 5.596 5.596 0 00-5.593-5.599 5.596 5.596 0 00-5.594 5.599 5.595 5.595 0 005.594 5.598zm-138.657 0a5.595 5.595 0 005.594-5.598 5.596 5.596 0 00-5.594-5.599 5.597 5.597 0 00-5.594 5.599 5.596 5.596 0 005.594 5.598zm-83.191 0a5.596 5.596 0 005.594-5.598 5.597 5.597 0 00-5.594-5.599 5.597 5.597 0 00-5.594 5.599 5.596 5.596 0 005.594 5.598zm27.728 0a5.595 5.595 0 005.594-5.598 5.596 5.596 0 00-5.594-5.599 5.596 5.596 0 00-5.593 5.599 5.595 5.595 0 005.593 5.598zm-83.193 0a5.596 5.596 0 005.594-5.598 5.597 5.597 0 00-5.594-5.599 5.597 5.597 0 00-5.594 5.599 5.596 5.596 0 005.594 5.598zm27.729 0a5.595 5.595 0 005.593-5.598 5.596 5.596 0 00-5.593-5.599 5.596 5.596 0 00-5.594 5.599 5.595 5.595 0 005.594 5.598zm-83.188 0a5.596 5.596 0 005.594-5.598 5.597 5.597 0 00-5.594-5.599 5.597 5.597 0 00-5.594 5.599 5.596 5.596 0 005.594 5.598zm27.732 0a5.595 5.595 0 005.594-5.598 5.596 5.596 0 00-5.594-5.599 5.596 5.596 0 00-5.593 5.599 5.595 5.595 0 005.593 5.598zm-83.195 0a5.596 5.596 0 005.594-5.598 5.597 5.597 0 00-5.594-5.599 5.597 5.597 0 00-5.594 5.599 5.596 5.596 0 005.594 5.598zm27.731 0a5.595 5.595 0 005.593-5.598 5.596 5.596 0 00-5.593-5.599 5.596 5.596 0 00-5.594 5.599 5.595 5.595 0 005.594 5.598zm249.576 0a5.596 5.596 0 005.594-5.598 5.597 5.597 0 00-5.594-5.599 5.596 5.596 0 00-5.594 5.599 5.595 5.595 0 005.594 5.598zm27.734-.001a5.596 5.596 0 005.594-5.599 5.595 5.595 0 00-5.594-5.598 5.596 5.596 0 00-5.594 5.598 5.597 5.597 0 005.594 5.599zM61.059 286.436a5.597 5.597 0 005.593-5.599 5.596 5.596 0 00-5.593-5.598 5.596 5.596 0 00-5.594 5.598 5.597 5.597 0 005.594 5.599zm-27.733.002a5.597 5.597 0 005.594-5.599 5.597 5.597 0 00-5.594-5.599 5.597 5.597 0 00-5.594 5.599 5.597 5.597 0 005.594 5.599zm277.311-.002a5.597 5.597 0 005.594-5.599 5.596 5.596 0 00-5.594-5.598 5.595 5.595 0 00-5.594 5.598 5.596 5.596 0 005.594 5.599zm194.113.002a5.597 5.597 0 005.594-5.599 5.597 5.597 0 00-5.594-5.599 5.597 5.597 0 00-5.594 5.599 5.597 5.597 0 005.594 5.599zm-83.189 0a5.596 5.596 0 005.593-5.599 5.596 5.596 0 00-5.593-5.599 5.596 5.596 0 00-5.594 5.599 5.596 5.596 0 005.594 5.599zm27.726-.002a5.596 5.596 0 005.594-5.599 5.595 5.595 0 00-5.594-5.598 5.596 5.596 0 00-5.594 5.598 5.597 5.597 0 005.594 5.599zm27.735.002a5.596 5.596 0 005.593-5.599 5.596 5.596 0 00-5.593-5.599 5.596 5.596 0 00-5.594 5.599 5.596 5.596 0 005.594 5.599zm-138.657 0a5.596 5.596 0 005.594-5.599 5.596 5.596 0 00-5.594-5.599 5.597 5.597 0 00-5.594 5.599 5.597 5.597 0 005.594 5.599zm-83.191 0a5.597 5.597 0 005.594-5.599 5.597 5.597 0 00-5.594-5.599 5.597 5.597 0 00-5.594 5.599 5.597 5.597 0 005.594 5.599zm27.728 0a5.596 5.596 0 005.594-5.599 5.596 5.596 0 00-5.594-5.599 5.596 5.596 0 00-5.593 5.599 5.596 5.596 0 005.593 5.599zm-83.193-.002a5.597 5.597 0 005.594-5.599 5.596 5.596 0 00-5.594-5.598 5.596 5.596 0 00-5.594 5.598 5.597 5.597 0 005.594 5.599zm27.732 0a5.596 5.596 0 005.594-5.599 5.595 5.595 0 00-5.594-5.598 5.595 5.595 0 00-5.593 5.598 5.596 5.596 0 005.593 5.599zm-83.191 0a5.597 5.597 0 005.594-5.599 5.596 5.596 0 00-5.594-5.598 5.596 5.596 0 00-5.594 5.598 5.597 5.597 0 005.594 5.599zm27.731 0a5.596 5.596 0 005.593-5.599 5.595 5.595 0 00-5.593-5.598 5.595 5.595 0 00-5.594 5.598 5.596 5.596 0 005.594 5.599zm-83.196 0a5.597 5.597 0 005.594-5.599 5.596 5.596 0 00-5.594-5.598 5.596 5.596 0 00-5.594 5.598 5.597 5.597 0 005.594 5.599zm27.733.002a5.596 5.596 0 005.593-5.599 5.596 5.596 0 00-5.593-5.599 5.596 5.596 0 00-5.594 5.599 5.596 5.596 0 005.594 5.599zm249.576-.002a5.597 5.597 0 005.594-5.599 5.596 5.596 0 00-5.594-5.598 5.595 5.595 0 00-5.594 5.598 5.596 5.596 0 005.594 5.599zm27.734 0a5.596 5.596 0 005.594-5.599 5.595 5.595 0 00-5.594-5.598 5.596 5.596 0 00-5.594 5.598 5.597 5.597 0 005.594 5.599zM61.059 258.681a5.597 5.597 0 005.593-5.599 5.597 5.597 0 00-5.593-5.599 5.597 5.597 0 00-5.594 5.599 5.597 5.597 0 005.594 5.599zm249.578 0a5.597 5.597 0 005.594-5.599 5.597 5.597 0 00-5.594-5.599 5.596 5.596 0 00-5.594 5.599 5.596 5.596 0 005.594 5.599zm194.117 0a5.597 5.597 0 005.594-5.599 5.597 5.597 0 00-5.594-5.599 5.597 5.597 0 00-5.594 5.599 5.597 5.597 0 005.594 5.599zm-83.193 0a5.596 5.596 0 005.593-5.599 5.596 5.596 0 00-5.593-5.599 5.596 5.596 0 00-5.594 5.599 5.596 5.596 0 005.594 5.599zm27.726 0a5.596 5.596 0 005.594-5.599 5.596 5.596 0 00-5.594-5.599 5.597 5.597 0 00-5.594 5.599 5.597 5.597 0 005.594 5.599zm27.731 0a5.596 5.596 0 005.593-5.599 5.596 5.596 0 00-5.593-5.599 5.596 5.596 0 00-5.594 5.599 5.596 5.596 0 005.594 5.599zm-138.653 0a5.596 5.596 0 005.594-5.599 5.596 5.596 0 00-5.594-5.599 5.597 5.597 0 00-5.594 5.599 5.597 5.597 0 005.594 5.599zm-83.191-.002a5.596 5.596 0 005.594-5.598 5.597 5.597 0 00-5.594-5.599 5.597 5.597 0 00-5.594 5.599 5.596 5.596 0 005.594 5.598zm27.728.002a5.596 5.596 0 005.594-5.599 5.596 5.596 0 00-5.594-5.599 5.596 5.596 0 00-5.593 5.599 5.596 5.596 0 005.593 5.599zm-83.193 0a5.597 5.597 0 005.594-5.599 5.597 5.597 0 00-5.594-5.599 5.597 5.597 0 00-5.594 5.599 5.597 5.597 0 005.594 5.599zm27.732 0a5.596 5.596 0 005.594-5.599 5.596 5.596 0 00-5.594-5.599 5.596 5.596 0 00-5.593 5.599 5.596 5.596 0 005.593 5.599zm-83.191 0a5.597 5.597 0 005.594-5.599 5.597 5.597 0 00-5.594-5.599 5.597 5.597 0 00-5.594 5.599 5.597 5.597 0 005.594 5.599zm27.731 0a5.596 5.596 0 005.593-5.599 5.596 5.596 0 00-5.593-5.599 5.596 5.596 0 00-5.594 5.599 5.596 5.596 0 005.594 5.599zm-83.196 0a5.597 5.597 0 005.594-5.599 5.597 5.597 0 00-5.594-5.599 5.597 5.597 0 00-5.594 5.599 5.597 5.597 0 005.594 5.599zm27.733 0a5.596 5.596 0 005.593-5.599 5.596 5.596 0 00-5.593-5.599 5.596 5.596 0 00-5.594 5.599 5.596 5.596 0 005.594 5.599zm249.576 0a5.597 5.597 0 005.594-5.599 5.597 5.597 0 00-5.594-5.599 5.596 5.596 0 00-5.594 5.599 5.596 5.596 0 005.594 5.599zm27.734 0a5.596 5.596 0 005.594-5.599 5.596 5.596 0 00-5.594-5.599 5.597 5.597 0 00-5.594 5.599 5.597 5.597 0 005.594 5.599zm-83.191-27.756a5.596 5.596 0 005.594-5.598 5.597 5.597 0 00-5.594-5.599 5.596 5.596 0 00-5.594 5.599 5.595 5.595 0 005.594 5.598zm194.113-.002a5.596 5.596 0 005.594-5.598 5.597 5.597 0 00-5.594-5.599 5.597 5.597 0 00-5.594 5.599 5.596 5.596 0 005.594 5.598zm-83.189.002a5.595 5.595 0 005.593-5.598 5.596 5.596 0 00-5.593-5.599 5.596 5.596 0 00-5.594 5.599 5.595 5.595 0 005.594 5.598zm27.726 0a5.595 5.595 0 005.594-5.598 5.596 5.596 0 00-5.594-5.599 5.597 5.597 0 00-5.594 5.599 5.596 5.596 0 005.594 5.598zm27.731 0a5.595 5.595 0 005.593-5.598 5.596 5.596 0 00-5.593-5.599 5.596 5.596 0 00-5.594 5.599 5.595 5.595 0 005.594 5.598zm-138.653 0a5.595 5.595 0 005.594-5.598 5.596 5.596 0 00-5.594-5.599 5.597 5.597 0 00-5.594 5.599 5.596 5.596 0 005.594 5.598zm-83.191 0a5.596 5.596 0 005.594-5.598 5.597 5.597 0 00-5.594-5.599 5.597 5.597 0 00-5.594 5.599 5.596 5.596 0 005.594 5.598zm27.728-.002a5.595 5.595 0 005.594-5.598 5.596 5.596 0 00-5.594-5.599 5.596 5.596 0 00-5.593 5.599 5.595 5.595 0 005.593 5.598zm-83.193 0a5.596 5.596 0 005.594-5.598 5.597 5.597 0 00-5.594-5.599 5.597 5.597 0 00-5.594 5.599 5.596 5.596 0 005.594 5.598zm27.732.002a5.595 5.595 0 005.594-5.598 5.596 5.596 0 00-5.594-5.599 5.596 5.596 0 00-5.593 5.599 5.595 5.595 0 005.593 5.598zm-83.191 0a5.596 5.596 0 005.594-5.598 5.597 5.597 0 00-5.594-5.599 5.597 5.597 0 00-5.594 5.599 5.596 5.596 0 005.594 5.598zm27.732 0a5.595 5.595 0 005.594-5.598 5.596 5.596 0 00-5.594-5.599 5.596 5.596 0 00-5.593 5.599 5.595 5.595 0 005.593 5.598zm-83.195 0a5.596 5.596 0 005.594-5.598 5.597 5.597 0 00-5.594-5.599 5.597 5.597 0 00-5.594 5.599 5.596 5.596 0 005.594 5.598zm27.731-.002a5.595 5.595 0 005.593-5.598 5.596 5.596 0 00-5.593-5.599 5.596 5.596 0 00-5.594 5.599 5.595 5.595 0 005.594 5.598zm249.578.002a5.595 5.595 0 005.593-5.598 5.596 5.596 0 00-5.593-5.599 5.596 5.596 0 00-5.594 5.599 5.595 5.595 0 005.594 5.598zm27.732 0a5.595 5.595 0 005.594-5.598 5.596 5.596 0 00-5.594-5.599 5.597 5.597 0 00-5.594 5.599 5.596 5.596 0 005.594 5.598zm-83.191-27.753a5.597 5.597 0 005.594-5.599 5.597 5.597 0 00-5.594-5.599 5.596 5.596 0 00-5.594 5.599 5.596 5.596 0 005.594 5.599zm194.113-.002a5.597 5.597 0 005.594-5.599 5.597 5.597 0 00-5.594-5.599 5.597 5.597 0 00-5.594 5.599 5.597 5.597 0 005.594 5.599zm-83.189 0a5.596 5.596 0 005.593-5.599 5.596 5.596 0 00-5.593-5.599 5.596 5.596 0 00-5.594 5.599 5.596 5.596 0 005.594 5.599zm27.726.002a5.596 5.596 0 005.594-5.599 5.596 5.596 0 00-5.594-5.599 5.597 5.597 0 00-5.594 5.599 5.597 5.597 0 005.594 5.599zm27.731 0a5.596 5.596 0 005.593-5.599 5.596 5.596 0 00-5.593-5.599 5.596 5.596 0 00-5.594 5.599 5.596 5.596 0 005.594 5.599zm-138.653-.002a5.596 5.596 0 005.594-5.599 5.596 5.596 0 00-5.594-5.599 5.597 5.597 0 00-5.594 5.599 5.597 5.597 0 005.594 5.599zm-83.191.002a5.597 5.597 0 005.594-5.599 5.597 5.597 0 00-5.594-5.599 5.597 5.597 0 00-5.594 5.599 5.597 5.597 0 005.594 5.599zm27.728-.002a5.596 5.596 0 005.594-5.599 5.596 5.596 0 00-5.594-5.599 5.596 5.596 0 00-5.593 5.599 5.596 5.596 0 005.593 5.599zm-83.193 0a5.597 5.597 0 005.594-5.599 5.597 5.597 0 00-5.594-5.599 5.597 5.597 0 00-5.594 5.599 5.597 5.597 0 005.594 5.599zm27.732.002a5.596 5.596 0 005.594-5.599 5.596 5.596 0 00-5.594-5.599 5.596 5.596 0 00-5.593 5.599 5.596 5.596 0 005.593 5.599zm-83.191 0a5.597 5.597 0 005.594-5.599 5.597 5.597 0 00-5.594-5.599 5.597 5.597 0 00-5.594 5.599 5.597 5.597 0 005.594 5.599zm27.732 0a5.596 5.596 0 005.594-5.599 5.596 5.596 0 00-5.594-5.599 5.596 5.596 0 00-5.593 5.599 5.596 5.596 0 005.593 5.599zm-55.464-.002a5.596 5.596 0 005.593-5.599 5.596 5.596 0 00-5.593-5.599 5.596 5.596 0 00-5.594 5.599 5.596 5.596 0 005.594 5.599zm249.576 0a5.597 5.597 0 005.594-5.599 5.597 5.597 0 00-5.594-5.599 5.596 5.596 0 00-5.594 5.599 5.596 5.596 0 005.594 5.599zm27.734.002a5.596 5.596 0 005.594-5.599 5.596 5.596 0 00-5.594-5.599 5.597 5.597 0 00-5.594 5.599 5.597 5.597 0 005.594 5.599zm-83.191-27.754a5.597 5.597 0 005.594-5.599 5.596 5.596 0 00-5.594-5.598 5.595 5.595 0 00-5.594 5.598 5.596 5.596 0 005.594 5.599zm194.113-.002a5.597 5.597 0 005.594-5.599 5.596 5.596 0 00-5.594-5.598 5.596 5.596 0 00-5.594 5.598 5.597 5.597 0 005.594 5.599zm-83.189 0a5.596 5.596 0 005.593-5.599 5.595 5.595 0 00-5.593-5.598 5.595 5.595 0 00-5.594 5.598 5.596 5.596 0 005.594 5.599zm27.726.002a5.596 5.596 0 005.594-5.599 5.595 5.595 0 00-5.594-5.598 5.596 5.596 0 00-5.594 5.598 5.597 5.597 0 005.594 5.599zm27.735-.002a5.596 5.596 0 005.593-5.599 5.595 5.595 0 00-5.593-5.598 5.595 5.595 0 00-5.594 5.598 5.596 5.596 0 005.594 5.599zm-138.657 0a5.596 5.596 0 005.594-5.599 5.595 5.595 0 00-5.594-5.598 5.596 5.596 0 00-5.594 5.598 5.597 5.597 0 005.594 5.599zm-83.191 0a5.597 5.597 0 005.594-5.599 5.596 5.596 0 00-5.594-5.598 5.596 5.596 0 00-5.594 5.598 5.597 5.597 0 005.594 5.599zm27.728 0a5.596 5.596 0 005.594-5.599 5.595 5.595 0 00-5.594-5.598 5.595 5.595 0 00-5.593 5.598 5.596 5.596 0 005.593 5.599zm-83.193 0a5.597 5.597 0 005.594-5.599 5.596 5.596 0 00-5.594-5.598 5.596 5.596 0 00-5.594 5.598 5.597 5.597 0 005.594 5.599zm27.732 0a5.596 5.596 0 005.594-5.599 5.595 5.595 0 00-5.594-5.598 5.595 5.595 0 00-5.593 5.598 5.596 5.596 0 005.593 5.599zm-83.193-.002a5.596 5.596 0 005.594-5.598 5.597 5.597 0 00-5.594-5.599 5.597 5.597 0 00-5.594 5.599 5.596 5.596 0 005.594 5.598zm27.734.002a5.596 5.596 0 005.594-5.599 5.595 5.595 0 00-5.594-5.598 5.595 5.595 0 00-5.593 5.598 5.596 5.596 0 005.593 5.599zm194.112-.002a5.596 5.596 0 005.594-5.598 5.597 5.597 0 00-5.594-5.599 5.596 5.596 0 00-5.594 5.599 5.595 5.595 0 005.594 5.598zm27.734.002a5.596 5.596 0 005.594-5.599 5.595 5.595 0 00-5.594-5.598 5.596 5.596 0 00-5.594 5.598 5.597 5.597 0 005.594 5.599zm-83.193-27.756a5.597 5.597 0 005.594-5.599 5.596 5.596 0 00-5.594-5.598 5.595 5.595 0 00-5.594 5.598 5.596 5.596 0 005.594 5.599zm110.926 0a5.596 5.596 0 005.593-5.599 5.595 5.595 0 00-5.593-5.598 5.595 5.595 0 00-5.594 5.598 5.596 5.596 0 005.594 5.599zm27.726 0a5.596 5.596 0 005.594-5.599 5.595 5.595 0 00-5.594-5.598 5.596 5.596 0 00-5.594 5.598 5.597 5.597 0 005.594 5.599zm27.735.002a5.596 5.596 0 005.593-5.599 5.596 5.596 0 00-5.593-5.599 5.596 5.596 0 00-5.594 5.599 5.596 5.596 0 005.594 5.599zm-138.657-.002a5.596 5.596 0 005.594-5.599 5.595 5.595 0 00-5.594-5.598 5.596 5.596 0 00-5.594 5.598 5.597 5.597 0 005.594 5.599zm-83.191.002a5.597 5.597 0 005.594-5.599 5.597 5.597 0 00-5.594-5.599 5.597 5.597 0 00-5.594 5.599 5.597 5.597 0 005.594 5.599zm27.728-.002a5.596 5.596 0 005.594-5.599 5.595 5.595 0 00-5.594-5.598 5.595 5.595 0 00-5.593 5.598 5.596 5.596 0 005.593 5.599zm-83.193 0a5.597 5.597 0 005.594-5.599 5.596 5.596 0 00-5.594-5.598 5.596 5.596 0 00-5.594 5.598 5.597 5.597 0 005.594 5.599zm27.729 0a5.596 5.596 0 005.593-5.599 5.595 5.595 0 00-5.593-5.598 5.595 5.595 0 00-5.594 5.598 5.596 5.596 0 005.594 5.599zm-55.456.002a5.596 5.596 0 005.594-5.599 5.596 5.596 0 00-5.594-5.599 5.596 5.596 0 00-5.593 5.599 5.596 5.596 0 005.593 5.599zm194.112-.002a5.597 5.597 0 005.594-5.599 5.596 5.596 0 00-5.594-5.598 5.595 5.595 0 00-5.594 5.598 5.596 5.596 0 005.594 5.599zm27.736.002a5.597 5.597 0 005.594-5.599 5.597 5.597 0 00-5.594-5.599 5.597 5.597 0 00-5.594 5.599 5.597 5.597 0 005.594 5.599zm-83.195-27.756a5.596 5.596 0 005.594-5.598 5.597 5.597 0 00-5.594-5.599 5.596 5.596 0 00-5.594 5.599 5.595 5.595 0 005.594 5.598zm110.926 0a5.595 5.595 0 005.593-5.598 5.596 5.596 0 00-5.593-5.599 5.596 5.596 0 00-5.594 5.599 5.595 5.595 0 005.594 5.598zm27.726 0a5.595 5.595 0 005.594-5.598 5.596 5.596 0 00-5.594-5.599 5.597 5.597 0 00-5.594 5.599 5.596 5.596 0 005.594 5.598zm-110.922 0a5.595 5.595 0 005.594-5.598 5.596 5.596 0 00-5.594-5.599 5.597 5.597 0 00-5.594 5.599 5.596 5.596 0 005.594 5.598zm-83.191 0a5.596 5.596 0 005.594-5.598 5.597 5.597 0 00-5.594-5.599 5.597 5.597 0 00-5.594 5.599 5.596 5.596 0 005.594 5.598zm27.728 0a5.595 5.595 0 005.594-5.598 5.596 5.596 0 00-5.594-5.599 5.596 5.596 0 00-5.593 5.599 5.595 5.595 0 005.593 5.598zm-83.193 0a5.596 5.596 0 005.594-5.598 5.597 5.597 0 00-5.594-5.599 5.597 5.597 0 00-5.594 5.599 5.596 5.596 0 005.594 5.598zm27.729 0a5.595 5.595 0 005.593-5.598 5.596 5.596 0 00-5.593-5.599 5.596 5.596 0 00-5.594 5.599 5.595 5.595 0 005.594 5.598zm138.656 0a5.596 5.596 0 005.594-5.598 5.597 5.597 0 00-5.594-5.599 5.596 5.596 0 00-5.594 5.599 5.595 5.595 0 005.594 5.598zm27.734 0a5.595 5.595 0 005.594-5.598 5.596 5.596 0 00-5.594-5.599 5.597 5.597 0 00-5.594 5.599 5.596 5.596 0 005.594 5.598zM310.637 92.15a5.597 5.597 0 005.594-5.599 5.597 5.597 0 00-5.594-5.598 5.596 5.596 0 00-5.594 5.598 5.596 5.596 0 005.594 5.599zm110.924.002a5.596 5.596 0 005.593-5.599 5.596 5.596 0 00-5.593-5.598 5.596 5.596 0 00-5.594 5.598 5.596 5.596 0 005.594 5.599zm-83.196 0a5.596 5.596 0 005.594-5.599 5.596 5.596 0 00-5.594-5.598 5.597 5.597 0 00-5.594 5.598 5.597 5.597 0 005.594 5.599zm-83.191 0a5.597 5.597 0 005.594-5.599 5.597 5.597 0 00-5.594-5.598 5.597 5.597 0 00-5.594 5.598 5.597 5.597 0 005.594 5.599zm27.728-.002a5.596 5.596 0 005.594-5.599 5.596 5.596 0 00-5.594-5.598 5.596 5.596 0 00-5.593 5.598 5.596 5.596 0 005.593 5.599zm-55.461 0a5.596 5.596 0 005.594-5.599 5.596 5.596 0 00-5.594-5.598 5.596 5.596 0 00-5.593 5.598 5.596 5.596 0 005.593 5.599zm138.653 0a5.597 5.597 0 005.594-5.599 5.597 5.597 0 00-5.594-5.598 5.596 5.596 0 00-5.594 5.598 5.596 5.596 0 005.594 5.599zm27.734 0a5.596 5.596 0 005.594-5.599 5.596 5.596 0 00-5.594-5.598 5.597 5.597 0 00-5.594 5.598 5.597 5.597 0 005.594 5.599zm-83.191-27.754a5.597 5.597 0 005.594-5.599 5.597 5.597 0 00-5.594-5.598 5.596 5.596 0 00-5.594 5.598 5.596 5.596 0 005.594 5.6zm27.728 0a5.596 5.596 0 005.594-5.599 5.596 5.596 0 00-5.594-5.598 5.597 5.597 0 00-5.594 5.598 5.597 5.597 0 005.594 5.6zm-83.191-.001a5.597 5.597 0 005.594-5.6 5.597 5.597 0 00-5.594-5.598 5.597 5.597 0 00-5.594 5.599 5.597 5.597 0 005.594 5.599zm27.728.001a5.596 5.596 0 005.594-5.599 5.596 5.596 0 00-5.594-5.598 5.596 5.596 0 00-5.593 5.598 5.596 5.596 0 005.593 5.6zm83.192 0a5.597 5.597 0 005.594-5.599 5.597 5.597 0 00-5.594-5.598 5.596 5.596 0 00-5.594 5.598 5.596 5.596 0 005.594 5.6zm-55.457-25.443a5.597 5.597 0 005.594-5.599 5.597 5.597 0 00-5.594-5.598 5.596 5.596 0 00-5.594 5.598 5.596 5.596 0 005.594 5.599zm27.728.002a5.596 5.596 0 005.594-5.599 5.596 5.596 0 00-5.594-5.599 5.597 5.597 0 00-5.594 5.599 5.597 5.597 0 005.594 5.599zm-27.728-27.756a5.597 5.597 0 005.594-5.599 5.597 5.597 0 00-5.594-5.598 5.596 5.596 0 00-5.594 5.598 5.596 5.596 0 005.594 5.599zm27.728-.002a5.596 5.596 0 005.594-5.598A5.596 5.596 0 00338.365 0a5.597 5.597 0 00-5.594 5.599 5.597 5.597 0 005.594 5.598zm-55.463 27.756a5.596 5.596 0 005.594-5.599 5.596 5.596 0 00-5.594-5.598 5.596 5.596 0 00-5.593 5.598 5.596 5.596 0 005.593 5.599zm83.192 0a5.597 5.597 0 005.594-5.599 5.597 5.597 0 00-5.594-5.598 5.596 5.596 0 00-5.594 5.598 5.596 5.596 0 005.594 5.599zm27.734 25.442a5.596 5.596 0 005.594-5.6 5.596 5.596 0 00-5.594-5.598 5.597 5.597 0 00-5.594 5.599 5.597 5.597 0 005.594 5.599z"/></g><defs><clipPath id="clip0_38_9478"><path fill="#fff" d="M0 0h649v667H0z"/></clipPath></defs></svg>