<svg width="143" height="358" fill="none" xmlns="http://www.w3.org/2000/svg"><g clip-path="url(#clip0_38_12626)" fill="#F6E3AB" fill-opacity=".5"><path d="M136.827 317.607a3.002 3.002 0 002.999-3.005 3.002 3.002 0 00-2.999-3.005c-1.657 0-3 1.345-3 3.005a3.002 3.002 0 003 3.005zm-14.871-14.896a3.003 3.003 0 002.999-3.005 3.002 3.002 0 00-2.999-3.005c-1.657 0-3 1.345-3 3.005a3.003 3.003 0 003 3.005zm-14.87-14.899c1.657 0 3-1.345 3-3.005a3.002 3.002 0 00-3-3.005 3.002 3.002 0 00-2.999 3.005 3.002 3.002 0 002.999 3.005zm29.741 14.897a3.002 3.002 0 002.999-3.005 3.003 3.003 0 00-2.999-3.005c-1.657 0-3 1.346-3 3.005a3.002 3.002 0 003 3.005zm-14.871-14.896a3.002 3.002 0 002.999-3.005 3.003 3.003 0 00-2.999-3.005c-1.657 0-3 1.346-3 3.005a3.002 3.002 0 003 3.005zm14.871 0a3.002 3.002 0 002.999-3.005 3.003 3.003 0 00-2.999-3.005c-1.657 0-3 1.346-3 3.005a3.002 3.002 0 003 3.005zm-14.873-14.897a3.003 3.003 0 002.999-3.005 3.002 3.002 0 00-2.999-3.005c-1.657 0-3 1.345-3 3.005a3.003 3.003 0 003 3.005zm14.873 0a3.002 3.002 0 002.999-3.005 3.003 3.003 0 00-2.999-3.005c-1.657 0-3 1.346-3 3.005a3.002 3.002 0 003 3.005zm-44.609 0c1.657 0 3-1.345 3-3.005a3.003 3.003 0 00-3-3.005c-1.656 0-3 1.346-3 3.005a3.002 3.002 0 003 3.005zm14.868 0c1.657 0 3-1.346 3-3.005a3.002 3.002 0 00-3-3.005 3.002 3.002 0 00-2.999 3.005 3.003 3.003 0 002.999 3.005zm29.741-14.897a3.003 3.003 0 002.999-3.005 3.002 3.002 0 00-2.999-3.005c-1.657 0-3 1.345-3 3.005a3.003 3.003 0 003 3.005zm-29.741 0c1.657 0 3-1.346 3-3.005a3.002 3.002 0 00-3-3.005 3.002 3.002 0 00-2.999 3.005 3.003 3.003 0 002.999 3.005zm14.87-.001a3.002 3.002 0 002.999-3.005 3.002 3.002 0 00-2.999-3.005c-1.657 0-3 1.345-3 3.005a3.002 3.002 0 003 3.005zm-44.607.001c1.657 0 3-1.346 3-3.005a3.002 3.002 0 00-3-3.005c-1.657 0-3 1.345-3 3.005a3.003 3.003 0 003 3.005zm14.869-.001c1.657 0 3-1.345 3-3.005a3.002 3.002 0 00-3-3.005c-1.656 0-3 1.345-3 3.005a3.002 3.002 0 003 3.005zm29.738-14.897a3.003 3.003 0 002.999-3.005 3.002 3.002 0 00-2.999-3.005c-1.657 0-3 1.345-3 3.005a3.003 3.003 0 003 3.005zm14.871 0a3.003 3.003 0 002.999-3.005 3.002 3.002 0 00-2.999-3.005c-1.657 0-3 1.345-3 3.005a3.003 3.003 0 003 3.005zm-44.609 0c1.657 0 3-1.346 3-3.005a3.002 3.002 0 00-3-3.005c-1.656 0-3 1.345-3 3.005a3.003 3.003 0 003 3.005zm14.868.001c1.657 0 3-1.346 3-3.005a3.002 3.002 0 00-3-3.005 3.002 3.002 0 00-2.999 3.005 3.003 3.003 0 002.999 3.005zm-44.608-.001c1.657 0 3-1.346 3-3.005a3.002 3.002 0 00-3-3.005c-1.657 0-3 1.345-3 3.005a3.003 3.003 0 003 3.005zm14.871.001c1.657 0 3-1.346 3-3.005a3.002 3.002 0 00-3-3.005c-1.657 0-3 1.345-3 3.005a3.003 3.003 0 003 3.005zm59.478-14.897a3.003 3.003 0 002.999-3.005 3.002 3.002 0 00-2.999-3.005c-1.657 0-3 1.345-3 3.005a3.003 3.003 0 003 3.005zm-29.741 0c1.657 0 3-1.345 3-3.005a3.003 3.003 0 00-3-3.005 3.003 3.003 0 00-2.999 3.005 3.002 3.002 0 002.999 3.005zm14.87 0a3.003 3.003 0 002.999-3.005 3.002 3.002 0 00-2.999-3.005c-1.657 0-3 1.345-3 3.005a3.003 3.003 0 003 3.005zm-44.607 0c1.657 0 3-1.346 3-3.005a3.002 3.002 0 00-3-3.005c-1.657 0-3 1.345-3 3.005a3.003 3.003 0 003 3.005zm14.869 0c1.657 0 3-1.346 3-3.005a3.002 3.002 0 00-3-3.005c-1.656 0-3 1.345-3 3.005a3.003 3.003 0 003 3.005zm-44.61 0c1.656 0 3-1.346 3-3.005a3.002 3.002 0 00-3-3.005c-1.657 0-3 1.345-3 3.005a3.003 3.003 0 003 3.005zm14.87 0c1.657 0 3-1.346 3-3.005a3.002 3.002 0 00-3-3.005c-1.657 0-3 1.345-3 3.005a3.003 3.003 0 003 3.005zm74.349-14.898a3.002 3.002 0 002.999-3.005 3.003 3.003 0 00-2.999-3.005c-1.657 0-3 1.346-3 3.005a3.002 3.002 0 003 3.005zm-29.741 0c1.657 0 3-1.345 3-3.005a3.003 3.003 0 00-3-3.005 3.003 3.003 0 00-2.999 3.005 3.002 3.002 0 002.999 3.005zm14.87 0a3.002 3.002 0 002.999-3.005 3.003 3.003 0 00-2.999-3.005c-1.657 0-3 1.346-3 3.005a3.002 3.002 0 003 3.005zm-44.607 0c1.657 0 3-1.345 3-3.005a3.003 3.003 0 00-3-3.005c-1.657 0-3 1.346-3 3.005a3.002 3.002 0 003 3.005zm14.869 0c1.657 0 3-1.345 3-3.005a3.003 3.003 0 00-3-3.005c-1.656 0-3 1.346-3 3.005a3.002 3.002 0 003 3.005zm-44.61 0c1.656 0 3-1.345 3-3.005a3.003 3.003 0 00-3-3.005c-1.657 0-3 1.346-3 3.005a3.002 3.002 0 003 3.005zm-14.869 0c1.656 0 3-1.345 3-3.005a3.003 3.003 0 00-3-3.005c-1.657 0-3 1.346-3 3.005a3.002 3.002 0 003 3.005zm0-14.897c1.656 0 3-1.345 3-3.005a3.003 3.003 0 00-3-3.005c-1.657 0-3 1.346-3 3.005a3.002 3.002 0 003 3.005zm-14.869 0c1.657 0 3-1.345 3-3.005a3.003 3.003 0 00-3-3.005 3.003 3.003 0 00-2.999 3.005 3.002 3.002 0 003 3.005zm14.869-14.897c1.656 0 3-1.345 3-3.005a3.002 3.002 0 00-3-3.005c-1.657 0-3 1.345-3 3.005a3.002 3.002 0 003 3.005zm-14.869.001c1.657 0 3-1.345 3-3.005a3.002 3.002 0 00-3-3.005 3.002 3.002 0 00-2.999 3.005 3.002 3.002 0 003 3.005zm-14.87 0a3.002 3.002 0 002.999-3.005 3.002 3.002 0 00-3-3.005A3.002 3.002 0 000 180.529a3.002 3.002 0 003 3.005zm59.478 29.793c1.657 0 3-1.345 3-3.005a3.003 3.003 0 00-3-3.005c-1.657 0-3 1.346-3 3.005a3.002 3.002 0 003 3.005zm74.349-14.897a3.002 3.002 0 002.999-3.005 3.003 3.003 0 00-2.999-3.005c-1.657 0-3 1.346-3 3.005a3.002 3.002 0 003 3.005zm-29.741 0c1.657 0 3-1.345 3-3.005a3.003 3.003 0 00-3-3.005 3.003 3.003 0 00-2.999 3.005 3.002 3.002 0 002.999 3.005zm14.87.001a3.002 3.002 0 002.999-3.005 3.003 3.003 0 00-2.999-3.005c-1.657 0-3 1.346-3 3.005a3.002 3.002 0 003 3.005zm-44.609-.002c1.657 0 3-1.345 3-3.005a3.003 3.003 0 00-3-3.005c-1.656 0-3 1.346-3 3.005a3.002 3.002 0 003 3.005zm14.871.001c1.657 0 3-1.345 3-3.005a3.003 3.003 0 00-3-3.005c-1.656 0-3 1.346-3 3.005a3.002 3.002 0 003 3.005zm-44.61 0c1.656 0 3-1.345 3-3.005a3.003 3.003 0 00-3-3.005c-1.657 0-3 1.346-3 3.005a3.002 3.002 0 003 3.005zm14.87 0c1.657 0 3-1.345 3-3.005a3.003 3.003 0 00-3-3.005c-1.657 0-3 1.346-3 3.005a3.002 3.002 0 003 3.005zm74.349-14.896a3.002 3.002 0 002.999-3.005 3.002 3.002 0 00-2.999-3.005c-1.657 0-3 1.345-3 3.005a3.002 3.002 0 003 3.005zm-29.741-.001c1.657 0 3-1.345 3-3.005a3.002 3.002 0 00-3-3.005 3.002 3.002 0 00-2.999 3.005 3.002 3.002 0 002.999 3.005zm14.868 0a3.002 3.002 0 002.999-3.005 3.002 3.002 0 00-2.999-3.005c-1.657 0-3 1.345-3 3.005a3.002 3.002 0 003 3.005zm-44.607 0c1.657 0 3-1.345 3-3.005a3.002 3.002 0 00-3-3.005c-1.656 0-3 1.345-3 3.005a3.002 3.002 0 003 3.005zm14.871.001c1.657 0 3-1.345 3-3.005a3.002 3.002 0 00-3-3.005c-1.656 0-3 1.345-3 3.005a3.002 3.002 0 003 3.005zm-44.61 0c1.656 0 3-1.345 3-3.005a3.002 3.002 0 00-3-3.005c-1.657 0-3 1.345-3 3.005a3.002 3.002 0 003 3.005zm14.87-.001c1.657 0 3-1.345 3-3.005a3.002 3.002 0 00-3-3.005c-1.657 0-3 1.345-3 3.005a3.002 3.002 0 003 3.005zm-29.739-14.897c1.656 0 3-1.345 3-3.005a3.003 3.003 0 00-3-3.005c-1.657 0-3 1.346-3 3.005a3.002 3.002 0 003 3.005zm-14.869 0c1.657 0 3-1.345 3-3.005a3.003 3.003 0 00-3-3.005 3.003 3.003 0 00-2.999 3.005 3.002 3.002 0 003 3.005zm-14.87 0a3.002 3.002 0 002.999-3.005 3.003 3.003 0 00-3-3.005A3.003 3.003 0 000 165.631a3.002 3.002 0 003 3.005zm133.827 0a3.002 3.002 0 002.999-3.005 3.003 3.003 0 00-2.999-3.005c-1.657 0-3 1.346-3 3.005a3.002 3.002 0 003 3.005zm-29.741 0c1.657 0 3-1.345 3-3.005a3.003 3.003 0 00-3-3.005 3.003 3.003 0 00-2.999 3.005 3.002 3.002 0 002.999 3.005zm14.868 0a3.002 3.002 0 002.999-3.005 3.003 3.003 0 00-2.999-3.005c-1.657 0-3 1.346-3 3.005a3.002 3.002 0 003 3.005zm-44.604 0a3.002 3.002 0 002.999-3.005 3.003 3.003 0 00-3-3.005c-1.657 0-3 1.346-3 3.005a3.002 3.002 0 003 3.005zm14.868 0c1.657 0 3-1.345 3-3.005a3.003 3.003 0 00-3-3.005c-1.656 0-3 1.346-3 3.005a3.002 3.002 0 003 3.005zm-44.61 0c1.656 0 3-1.345 3-3.005a3.003 3.003 0 00-3-3.005c-1.657 0-3 1.346-3 3.005a3.002 3.002 0 003 3.005zm14.87 0c1.657 0 3-1.345 3-3.005a3.003 3.003 0 00-3-3.005c-1.657 0-3 1.346-3 3.005a3.002 3.002 0 003 3.005zM32.74 153.739c1.657 0 3-1.345 3-3.005a3.003 3.003 0 00-3-3.005 3.003 3.003 0 00-2.999 3.005 3.002 3.002 0 003 3.005zm-14.87.001c1.657 0 3-1.345 3-3.005a3.002 3.002 0 00-3-3.005 3.002 3.002 0 00-2.999 3.005 3.002 3.002 0 003 3.005zm118.957 0a3.002 3.002 0 002.999-3.005 3.002 3.002 0 00-2.999-3.005c-1.657 0-3 1.345-3 3.005a3.002 3.002 0 003 3.005zm-29.741-.001c1.657 0 3-1.345 3-3.005a3.003 3.003 0 00-3-3.005 3.003 3.003 0 00-2.999 3.005 3.002 3.002 0 002.999 3.005zm14.87 0a3.002 3.002 0 002.999-3.005 3.003 3.003 0 00-2.999-3.005c-1.657 0-3 1.346-3 3.005a3.002 3.002 0 003 3.005zm-44.606 0a3.002 3.002 0 002.999-3.005 3.003 3.003 0 00-3-3.005c-1.657 0-3 1.346-3 3.005a3.002 3.002 0 003 3.005zm14.868 0c1.657 0 3-1.345 3-3.005a3.003 3.003 0 00-3-3.005c-1.656 0-3 1.346-3 3.005a3.002 3.002 0 003 3.005zm-44.61 0c1.656 0 3-1.345 3-3.005a3.003 3.003 0 00-3-3.005c-1.657 0-3 1.346-3 3.005a3.002 3.002 0 003 3.005zm14.87.001c1.657 0 3-1.345 3-3.005a3.002 3.002 0 00-3-3.005c-1.657 0-3 1.345-3 3.005a3.002 3.002 0 003 3.005zM32.74 138.842c1.657 0 3-1.345 3-3.005a3.002 3.002 0 00-3-3.005 3.002 3.002 0 00-2.999 3.005 3.002 3.002 0 003 3.005zm104.087 0a3.003 3.003 0 002.999-3.005 3.002 3.002 0 00-2.999-3.005c-1.657 0-3 1.345-3 3.005a3.003 3.003 0 003 3.005zm-29.741 0c1.657 0 3-1.345 3-3.005a3.002 3.002 0 00-3-3.005 3.002 3.002 0 00-2.999 3.005 3.002 3.002 0 002.999 3.005zm14.87 0a3.002 3.002 0 002.999-3.005 3.002 3.002 0 00-2.999-3.005c-1.657 0-3 1.345-3 3.005a3.002 3.002 0 003 3.005zm-44.607 0c1.657 0 3-1.345 3-3.005a3.002 3.002 0 00-3-3.005c-1.657 0-3 1.345-3 3.005a3.002 3.002 0 003 3.005zm14.869 0c1.657 0 3-1.345 3-3.005a3.002 3.002 0 00-3-3.005c-1.656 0-3 1.345-3 3.005a3.002 3.002 0 003 3.005zm-44.61 0c1.656 0 3-1.345 3-3.005a3.002 3.002 0 00-3-3.005c-1.657 0-3 1.345-3 3.005a3.002 3.002 0 003 3.005zm14.87 0c1.657 0 3-1.345 3-3.005a3.002 3.002 0 00-3-3.005c-1.657 0-3 1.345-3 3.005a3.002 3.002 0 003 3.005zm74.349-14.897a3.002 3.002 0 002.999-3.005 3.002 3.002 0 00-2.999-3.005c-1.657 0-3 1.345-3 3.005a3.002 3.002 0 003 3.005zm-29.741-.001c1.657 0 3-1.345 3-3.005a3.002 3.002 0 00-3-3.005 3.002 3.002 0 00-2.999 3.005 3.002 3.002 0 002.999 3.005zm14.87.001a3.002 3.002 0 002.999-3.005 3.002 3.002 0 00-2.999-3.005c-1.657 0-3 1.345-3 3.005a3.002 3.002 0 003 3.005zm-44.607 0c1.657 0 3-1.345 3-3.005a3.002 3.002 0 00-3-3.005c-1.657 0-3 1.345-3 3.005a3.002 3.002 0 003 3.005zm14.869 0c1.657 0 3-1.345 3-3.005a3.002 3.002 0 00-3-3.005c-1.656 0-3 1.345-3 3.005a3.002 3.002 0 003 3.005zm-44.61 0c1.656 0 3-1.345 3-3.005a3.002 3.002 0 00-3-3.005c-1.657 0-3 1.345-3 3.005a3.002 3.002 0 003 3.005zm14.87-.001c1.657 0 3-1.345 3-3.005a3.002 3.002 0 00-3-3.005c-1.657 0-3 1.345-3 3.005a3.002 3.002 0 003 3.005zm74.349-14.895a3.003 3.003 0 002.999-3.005 3.002 3.002 0 00-2.999-3.005c-1.657 0-3 1.345-3 3.005a3.003 3.003 0 003 3.005zm-29.741-.001c1.657 0 3-1.346 3-3.005a3.002 3.002 0 00-3-3.005 3.002 3.002 0 00-2.999 3.005 3.003 3.003 0 002.999 3.005zm14.87.001a3.003 3.003 0 002.999-3.005 3.002 3.002 0 00-2.999-3.005c-1.657 0-3 1.345-3 3.005a3.003 3.003 0 003 3.005zm-44.607 0c1.657 0 3-1.346 3-3.005a3.002 3.002 0 00-3-3.005c-1.657 0-3 1.345-3 3.005a3.003 3.003 0 003 3.005zm14.869 0c1.657 0 3-1.346 3-3.005a3.002 3.002 0 00-3-3.005c-1.656 0-3 1.345-3 3.005a3.003 3.003 0 003 3.005zm-29.74-.001c1.657 0 3-1.346 3-3.005a3.002 3.002 0 00-3-3.005c-1.657 0-3 1.345-3 3.005a3.003 3.003 0 003 3.005zm74.349-14.897a3.002 3.002 0 002.999-3.005 3.002 3.002 0 00-2.999-3.005c-1.657 0-3 1.346-3 3.005a3.002 3.002 0 003 3.005zm-29.741 0c1.657 0 3-1.345 3-3.005a3.002 3.002 0 00-3-3.005 3.002 3.002 0 00-2.999 3.005 3.002 3.002 0 002.999 3.005zm14.87 0a3.002 3.002 0 002.999-3.005 3.002 3.002 0 00-2.999-3.005c-1.657 0-3 1.346-3 3.005a3.002 3.002 0 003 3.005zm-44.609-.001c1.657 0 3-1.345 3-3.004a3.002 3.002 0 00-3-3.005c-1.656 0-3 1.345-3 3.005a3.002 3.002 0 003 3.005zm14.871.001c1.657 0 3-1.345 3-3.005a3.002 3.002 0 00-3-3.005c-1.656 0-3 1.346-3 3.005a3.002 3.002 0 003 3.005zm44.609-14.896a3.002 3.002 0 002.999-3.005 3.002 3.002 0 00-2.999-3.005c-1.657 0-3 1.345-3 3.005a3.002 3.002 0 003 3.005zm-29.741-.001c1.657 0 3-1.346 3-3.005a3.002 3.002 0 00-3-3.005 3.002 3.002 0 00-2.999 3.005 3.002 3.002 0 002.999 3.005zm14.868 0a3.002 3.002 0 002.999-3.005 3.002 3.002 0 00-2.999-3.005c-1.657 0-3 1.345-3 3.005a3.002 3.002 0 003 3.005zm-29.736.001c1.657 0 3-1.346 3-3.005a3.002 3.002 0 00-3-3.005c-1.656 0-3 1.345-3 3.005a3.002 3.002 0 003 3.005zm44.609-14.897a3.002 3.002 0 002.999-3.005 3.002 3.002 0 00-2.999-3.005c-1.657 0-3 1.345-3 3.005a3.002 3.002 0 003 3.005zm-29.741 0c1.657 0 3-1.346 3-3.005a3.002 3.002 0 00-3-3.005 3.002 3.002 0 00-2.999 3.005 3.002 3.002 0 002.999 3.005zm14.868 0a3.002 3.002 0 002.999-3.005 3.002 3.002 0 00-2.999-3.005c-1.657 0-3 1.345-3 3.005a3.002 3.002 0 003 3.005zm14.873-14.898a3.002 3.002 0 002.999-3.004 3.002 3.002 0 00-2.999-3.005c-1.657 0-3 1.345-3 3.005a3.002 3.002 0 003 3.005zm-14.871 0a3.002 3.002 0 002.999-3.005 3.002 3.002 0 00-2.999-3.005c-1.657 0-3 1.345-3 3.005a3.002 3.002 0 003 3.005zm14.871-14.897a3.002 3.002 0 002.999-3.005 3.002 3.002 0 00-2.999-3.005c-1.657 0-3 1.345-3 3.005a3.002 3.002 0 003 3.005z"/></g><defs><clipPath id="clip0_38_12626"><path fill="#fff" d="M0 0h348v358H0z"/></clipPath></defs></svg>