<svg width="109" height="135" fill="none" xmlns="http://www.w3.org/2000/svg"><g opacity=".3" clip-path="url(#clip0_2_29534)" fill="#4AAB3C"><path d="M22.013 133.026a2.016 2.016 0 100-4.029 2.016 2.016 0 100 4.029zm-9.996 0a2.016 2.016 0 100-4.029 2.016 2.016 0 100 4.029zm9.996-9.987a2.016 2.016 0 100-4.029 2.016 2.016 0 100 4.029zm-9.996 0a2.016 2.016 0 100-4.029 2.016 2.016 0 100 4.029zm-10 0A2.016 2.016 0 100 121.025c0 1.112.903 2.014 2.017 2.014zm89.988 9.987a2.016 2.016 0 100-4.029 2.016 2.016 0 100 4.029zm9.996 0a2.016 2.016 0 100-4.029 2.015 2.015 0 100 4.029zm-29.996 0a2.016 2.016 0 100-4.029 2.016 2.016 0 100 4.029zm10 0a2.016 2.016 0 10-2.017-2.014c0 1.112.903 2.014 2.017 2.014zm-29.995-.001a2.016 2.016 0 10-2.018-2.014c0 1.112.903 2.014 2.017 2.014zm10 .001a2.016 2.016 0 100-4.029 2.016 2.016 0 100 4.029zm-29.997 0a2.016 2.016 0 100-4.029 2.016 2.016 0 100 4.029zm9.997 0a2.016 2.016 0 100-4.029 2.016 2.016 0 100 4.029zm49.995-9.987a2.016 2.016 0 10-2.017-2.014c0 1.112.903 2.014 2.017 2.014zm9.996 0a2.016 2.016 0 100-4.029 2.015 2.015 0 100 4.029zm-29.996 0a2.016 2.016 0 100-4.029 2.016 2.016 0 100 4.029zm9.996 0a2.016 2.016 0 100-4.029 2.016 2.016 0 100 4.029zm-29.991 0a2.016 2.016 0 100-4.029 2.016 2.016 0 100 4.029zm10 .001a2.016 2.016 0 10-2.018-2.015c0 1.113.903 2.015 2.017 2.015zm-29.997-.001a2.016 2.016 0 10-2.017-2.014c0 1.112.903 2.014 2.017 2.014zm9.997 0a2.016 2.016 0 100-4.029 2.016 2.016 0 100 4.029zm-19.997-9.987a2.015 2.015 0 100-4.029 2.015 2.015 0 100 4.029zm-9.996 0a2.015 2.015 0 100-4.029 2.015 2.015 0 100 4.029zm-10 0a2.015 2.015 0 100-4.029 2.015 2.015 0 100 4.029zm89.988 0a2.015 2.015 0 100-4.029 2.015 2.015 0 100 4.029zm9.996 0a2.015 2.015 0 100-4.029 2.016 2.016 0 100 4.029zm-29.996 0a2.015 2.015 0 100-4.029 2.015 2.015 0 100 4.029zm9.996 0a2.015 2.015 0 100-4.029 2.015 2.015 0 100 4.029zm-29.991 0a2.015 2.015 0 100-4.029 2.015 2.015 0 100 4.029zm10 0a2.015 2.015 0 100-4.029 2.015 2.015 0 100 4.029zm-29.997 0a2.015 2.015 0 100-4.029 2.015 2.015 0 100 4.029zm9.997 0a2.015 2.015 0 100-4.029 2.015 2.015 0 100 4.029zm-19.993-9.986A2.016 2.016 0 1020 101.051c0 1.113.903 2.015 2.017 2.015zm-10 0a2.016 2.016 0 100-4.029 2.016 2.016 0 100 4.029zm79.988 0a2.016 2.016 0 10-2.017-2.014c0 1.112.903 2.014 2.017 2.014zm9.996 0a2.016 2.016 0 10-2.017-2.014c0 1.112.903 2.014 2.017 2.014zm-29.996 0a2.016 2.016 0 10-2.017-2.015c0 1.113.903 2.015 2.017 2.015zm10 0a2.016 2.016 0 10-2.017-2.015c0 1.113.903 2.015 2.017 2.015zm-29.995 0a2.016 2.016 0 10-2.018-2.015c0 1.113.903 2.015 2.017 2.015zm10 0a2.016 2.016 0 10-2.018-2.015c0 1.113.903 2.015 2.017 2.015zm-29.997 0a2.016 2.016 0 10-2.017-2.015c0 1.113.903 2.015 2.017 2.015zm9.997 0a2.016 2.016 0 10-2.018-2.014c0 1.112.903 2.014 2.017 2.014zm-19.993-9.988A2.016 2.016 0 1020 91.064c0 1.112.903 2.014 2.017 2.014zm69.988 0a2.016 2.016 0 10-2.017-2.015c0 1.113.903 2.015 2.017 2.015zm9.996 0a2.016 2.016 0 10-2.017-2.014c0 1.112.903 2.014 2.017 2.014zm-29.996 0a2.016 2.016 0 10-2.017-2.014c0 1.112.903 2.014 2.017 2.014zm10 0a2.016 2.016 0 10-2.017-2.014c0 1.112.903 2.014 2.017 2.014zm-29.995 0a2.016 2.016 0 10-2.018-2.014c0 1.112.903 2.014 2.017 2.014zm10 0a2.016 2.016 0 10-2.018-2.014c0 1.112.903 2.014 2.017 2.014zm-29.997 0a2.016 2.016 0 10-2.017-2.014c0 1.112.903 2.014 2.017 2.014zm9.997 0a2.016 2.016 0 10-2.018-2.014c0 1.112.903 2.014 2.017 2.014zm49.995-9.987a2.016 2.016 0 10-2.017-2.014c0 1.113.903 2.014 2.017 2.014zm9.996-.001a2.016 2.016 0 10-2.017-2.014c0 1.113.903 2.015 2.017 2.015zm-29.996 0a2.016 2.016 0 10-2.017-2.014c0 1.113.903 2.015 2.017 2.015zm10 .001a2.016 2.016 0 10-2.017-2.014c0 1.113.903 2.014 2.017 2.014zm-29.995 0a2.016 2.016 0 10-2.018-2.014c0 1.113.903 2.014 2.017 2.014zm10 0a2.016 2.016 0 10-2.018-2.014c0 1.113.903 2.014 2.017 2.014zm-29.997 0a2.016 2.016 0 10-2.017-2.014c0 1.113.903 2.014 2.017 2.014zm9.997-.001a2.016 2.016 0 10-2.018-2.014c0 1.113.903 2.015 2.017 2.015zm49.995-9.985a2.016 2.016 0 10-2.017-2.014c0 1.112.903 2.014 2.017 2.014zm9.996 0a2.016 2.016 0 10-2.017-2.015c0 1.113.903 2.015 2.017 2.015zm-29.996 0a2.016 2.016 0 10-2.017-2.015c0 1.113.903 2.015 2.017 2.015zm10 0a2.016 2.016 0 10-2.017-2.014c0 1.112.903 2.014 2.017 2.014zm-29.995 0a2.016 2.016 0 10-2.018-2.014c0 1.112.903 2.014 2.017 2.014zm10 0a2.016 2.016 0 10-2.018-2.014c0 1.112.903 2.014 2.017 2.014zm-20 0a2.016 2.016 0 10-2.018-2.015c0 1.113.903 2.015 2.017 2.015zm49.995-9.987a2.016 2.016 0 10-2.017-2.014c0 1.112.903 2.014 2.017 2.014zm9.996 0a2.016 2.016 0 10-2.017-2.014c0 1.112.903 2.014 2.017 2.014zm-29.996 0a2.016 2.016 0 10-2.017-2.014c0 1.112.903 2.014 2.017 2.014zm10 0a2.016 2.016 0 10-2.017-2.014c0 1.112.903 2.014 2.017 2.014zm-29.995 0a2.016 2.016 0 10-2.018-2.015c0 1.113.903 2.015 2.017 2.015zm10 0a2.016 2.016 0 10-2.018-2.014c0 1.112.903 2.014 2.017 2.014zm29.995-9.986a2.016 2.016 0 10-2.017-2.015c0 1.113.903 2.015 2.017 2.015zm9.996-.001a2.016 2.016 0 100-4.029 2.015 2.015 0 100 4.03zm-29.996 0a2.016 2.016 0 10-2.017-2.014c0 1.112.903 2.014 2.017 2.014zm9.996 0a2.016 2.016 0 100-4.029 2.016 2.016 0 100 4.03zm-19.991.001a2.016 2.016 0 10-2.018-2.015c0 1.113.903 2.015 2.017 2.015zm29.995-9.987a2.016 2.016 0 10-2.017-2.015c0 1.113.903 2.015 2.017 2.015zm9.996 0a2.016 2.016 0 10-2.017-2.015c0 1.113.903 2.015 2.017 2.015zm-29.996 0a2.016 2.016 0 10-2.017-2.015c0 1.113.903 2.015 2.017 2.015zm9.996 0a2.016 2.016 0 10-2.017-2.015c0 1.113.903 2.015 2.017 2.015zm10.004-9.987a2.016 2.016 0 10-2.017-2.015c0 1.113.903 2.015 2.017 2.015zm9.996-.001a2.016 2.016 0 10-2.017-2.014c0 1.112.903 2.014 2.017 2.014zm-19.996 0a2.016 2.016 0 10-2.017-2.014c0 1.112.903 2.014 2.017 2.014zm10-9.987a2.016 2.016 0 10-2.017-2.014c0 1.113.903 2.015 2.017 2.015zm9.996.001a2.016 2.016 0 10-2.017-2.014c0 1.112.903 2.014 2.017 2.014zm0-9.155a2.016 2.016 0 10-2.017-2.014c0 1.112.903 2.014 2.017 2.014z"/></g><defs><clipPath id="clip0_2_29534"><path fill="#fff" d="M0 0h109v135H0z"/></clipPath></defs></svg>