<svg width="155" height="301" fill="none" xmlns="http://www.w3.org/2000/svg"><g clip-path="url(#clip0_2_4745)" fill="#C6DAA1"><path d="M-.888 267.038c1.424 0 2.577-1.131 2.577-2.526 0-1.396-1.153-2.527-2.577-2.527-1.423 0-2.577 1.131-2.577 2.527 0 1.395 1.154 2.526 2.577 2.526zm12.778-.001c1.423 0 2.577-1.131 2.577-2.526 0-1.395-1.154-2.527-2.577-2.527-1.424 0-2.578 1.132-2.578 2.527 0 1.395 1.154 2.526 2.578 2.526zm12.773.001c1.423 0 2.577-1.131 2.577-2.526 0-1.396-1.154-2.527-2.577-2.527s-2.577 1.131-2.577 2.527c0 1.395 1.154 2.526 2.577 2.526zM-.888 279.563c1.424 0 2.577-1.132 2.577-2.527 0-1.395-1.153-2.526-2.577-2.526-1.423 0-2.577 1.131-2.577 2.526 0 1.395 1.154 2.527 2.577 2.527zm12.778 0c1.423 0 2.577-1.132 2.577-2.527 0-1.395-1.154-2.526-2.577-2.526-1.424 0-2.578 1.131-2.578 2.526 0 1.395 1.154 2.527 2.578 2.527zM-.888 292.087c1.424 0 2.577-1.131 2.577-2.526 0-1.396-1.153-2.527-2.577-2.527-1.423 0-2.577 1.131-2.577 2.527 0 1.395 1.154 2.526 2.577 2.526zm12.778 0c1.423 0 2.577-1.131 2.577-2.526 0-1.396-1.154-2.527-2.577-2.527-1.424 0-2.578 1.131-2.578 2.527 0 1.395 1.154 2.526 2.578 2.526zm12.773-12.524c1.423 0 2.577-1.131 2.577-2.526 0-1.396-1.154-2.527-2.577-2.527s-2.577 1.131-2.577 2.527c0 1.395 1.154 2.526 2.577 2.526zm12.777-12.525c1.424 0 2.578-1.131 2.578-2.526 0-1.396-1.154-2.527-2.578-2.527-1.423 0-2.577 1.131-2.577 2.527 0 1.395 1.154 2.526 2.577 2.526zm0-12.525c1.424 0 2.578-1.131 2.578-2.527 0-1.395-1.154-2.526-2.578-2.526-1.423 0-2.577 1.131-2.577 2.526 0 1.396 1.154 2.527 2.577 2.527zm12.778 0c1.423 0 2.577-1.131 2.577-2.527 0-1.395-1.154-2.526-2.577-2.526-1.424 0-2.577 1.131-2.577 2.526 0 1.396 1.153 2.527 2.577 2.527zm12.773-12.525c1.424 0 2.577-1.132 2.577-2.527 0-1.395-1.153-2.526-2.577-2.526-1.423 0-2.577 1.131-2.577 2.526 0 1.395 1.154 2.527 2.577 2.527zm-12.773 0c1.423 0 2.577-1.131 2.577-2.526 0-1.396-1.154-2.527-2.577-2.527-1.424 0-2.577 1.131-2.577 2.527 0 1.395 1.153 2.526 2.577 2.526zM-.888 254.513c1.424 0 2.577-1.131 2.577-2.526 0-1.395-1.153-2.527-2.577-2.527-1.423 0-2.577 1.132-2.577 2.527 0 1.395 1.154 2.526 2.577 2.526zm12.778 0c1.423 0 2.577-1.131 2.577-2.527 0-1.395-1.154-2.526-2.577-2.526-1.424 0-2.578 1.131-2.578 2.526 0 1.396 1.154 2.527 2.578 2.527zm12.773-.001c1.423 0 2.577-1.131 2.577-2.526 0-1.396-1.154-2.527-2.577-2.527s-2.577 1.131-2.577 2.527c0 1.395 1.154 2.526 2.577 2.526zm12.777-12.524c1.424 0 2.578-1.131 2.578-2.526 0-1.396-1.154-2.527-2.578-2.527-1.423 0-2.577 1.131-2.577 2.527 0 1.395 1.154 2.526 2.577 2.526zm-38.328 0c1.424 0 2.577-1.132 2.577-2.527 0-1.395-1.153-2.526-2.577-2.526-1.423 0-2.577 1.131-2.577 2.526 0 1.395 1.154 2.527 2.577 2.527zm12.778 0c1.423 0 2.577-1.132 2.577-2.527 0-1.395-1.154-2.526-2.577-2.526-1.424 0-2.578 1.131-2.578 2.526 0 1.395 1.154 2.527 2.578 2.527zm12.773 0c1.423 0 2.577-1.132 2.577-2.527 0-1.395-1.154-2.526-2.577-2.526s-2.577 1.131-2.577 2.526c0 1.395 1.154 2.527 2.577 2.527zm51.102-12.525c1.423 0 2.577-1.131 2.577-2.527 0-1.395-1.154-2.526-2.577-2.526-1.424 0-2.578 1.131-2.578 2.526 0 1.396 1.154 2.527 2.578 2.527zm-12.774-.001c1.424 0 2.577-1.131 2.577-2.526 0-1.395-1.153-2.527-2.577-2.527-1.423 0-2.577 1.132-2.577 2.527 0 1.395 1.154 2.526 2.577 2.526zm-12.773 0c1.423 0 2.577-1.131 2.577-2.526 0-1.395-1.154-2.527-2.577-2.527-1.424 0-2.577 1.132-2.577 2.527 0 1.395 1.153 2.526 2.577 2.526zm-38.328 0c1.423 0 2.577-1.131 2.577-2.526 0-1.395-1.154-2.527-2.577-2.527-1.424 0-2.578 1.132-2.578 2.527 0 1.395 1.154 2.526 2.578 2.526zm12.773 0c1.423 0 2.577-1.131 2.577-2.526 0-1.395-1.154-2.527-2.577-2.527s-2.577 1.132-2.577 2.527c0 1.395 1.154 2.526 2.577 2.526zm12.781.001c1.424 0 2.577-1.131 2.577-2.527 0-1.395-1.153-2.526-2.577-2.526-1.423 0-2.577 1.131-2.577 2.526 0 1.396 1.154 2.527 2.577 2.527zm-38.332-.001c1.424 0 2.577-1.131 2.577-2.526 0-1.395-1.153-2.527-2.577-2.527-1.423 0-2.577 1.132-2.577 2.527 0 1.395 1.154 2.526 2.577 2.526zm89.43-12.524c1.423 0 2.577-1.132 2.577-2.527 0-1.395-1.154-2.526-2.577-2.526s-2.577 1.131-2.577 2.526c0 1.395 1.154 2.527 2.577 2.527zm-12.777 0c1.423 0 2.577-1.132 2.577-2.527 0-1.395-1.154-2.526-2.577-2.526-1.424 0-2.578 1.131-2.578 2.526 0 1.395 1.154 2.527 2.578 2.527zm-12.774 0c1.424 0 2.577-1.132 2.577-2.527 0-1.395-1.153-2.526-2.577-2.526-1.423 0-2.577 1.131-2.577 2.526 0 1.395 1.154 2.527 2.577 2.527zm-38.328 0c1.423 0 2.577-1.132 2.577-2.527 0-1.395-1.154-2.526-2.577-2.526s-2.577 1.131-2.577 2.526c0 1.395 1.154 2.527 2.577 2.527zm12.777-.001c1.424 0 2.578-1.131 2.578-2.526 0-1.396-1.154-2.527-2.578-2.527-1.423 0-2.577 1.131-2.577 2.527 0 1.395 1.154 2.526 2.577 2.526zm12.778.001c1.423 0 2.577-1.132 2.577-2.527 0-1.395-1.154-2.526-2.577-2.526-1.424 0-2.577 1.131-2.577 2.526 0 1.395 1.153 2.527 2.577 2.527zm-51.106 0c1.424 0 2.577-1.132 2.577-2.527 0-1.395-1.153-2.526-2.577-2.526-1.423 0-2.577 1.131-2.577 2.526 0 1.395 1.154 2.527 2.577 2.527zm12.778 0c1.423 0 2.577-1.132 2.577-2.527 0-1.395-1.154-2.526-2.577-2.526-1.424 0-2.578 1.131-2.578 2.526 0 1.395 1.154 2.527 2.578 2.527zm89.429-12.526c1.424 0 2.577-1.131 2.577-2.527 0-1.395-1.153-2.526-2.577-2.526-1.423 0-2.577 1.131-2.577 2.526 0 1.396 1.154 2.527 2.577 2.527zm-12.773 0c1.423 0 2.577-1.131 2.577-2.526 0-1.395-1.154-2.527-2.577-2.527s-2.577 1.132-2.577 2.527c0 1.395 1.154 2.526 2.577 2.526zm-12.781 0c1.423 0 2.577-1.131 2.577-2.527 0-1.395-1.154-2.526-2.577-2.526-1.424 0-2.578 1.131-2.578 2.526 0 1.396 1.154 2.527 2.578 2.527zm-38.325 0c1.424 0 2.578-1.131 2.578-2.527 0-1.395-1.154-2.526-2.578-2.526-1.423 0-2.577 1.131-2.577 2.526 0 1.396 1.154 2.527 2.577 2.527zm12.778 0c1.423 0 2.577-1.131 2.577-2.527 0-1.395-1.154-2.526-2.577-2.526-1.424 0-2.577 1.131-2.577 2.526 0 1.396 1.153 2.527 2.577 2.527zm12.773 0c1.424 0 2.577-1.131 2.577-2.527 0-1.395-1.153-2.526-2.577-2.526-1.423 0-2.577 1.131-2.577 2.526 0 1.396 1.154 2.527 2.577 2.527zm-63.879 0c1.424 0 2.577-1.131 2.577-2.527 0-1.395-1.153-2.526-2.577-2.526-1.423 0-2.577 1.131-2.577 2.526 0 1.396 1.154 2.527 2.577 2.527zm12.778 0c1.423 0 2.577-1.131 2.577-2.527 0-1.395-1.154-2.526-2.577-2.526-1.424 0-2.578 1.131-2.578 2.526 0 1.396 1.154 2.527 2.578 2.527zm12.773 0c1.423 0 2.577-1.131 2.577-2.526 0-1.395-1.154-2.527-2.577-2.527s-2.577 1.132-2.577 2.527c0 1.395 1.154 2.526 2.577 2.526zm89.434-12.525c1.423 0 2.577-1.131 2.577-2.526 0-1.396-1.154-2.527-2.577-2.527-1.424 0-2.577 1.131-2.577 2.527 0 1.395 1.153 2.526 2.577 2.526zm-12.778 0c1.424 0 2.577-1.131 2.577-2.526 0-1.396-1.153-2.527-2.577-2.527-1.423 0-2.577 1.131-2.577 2.527 0 1.395 1.154 2.526 2.577 2.526zm-102.207 0c1.424 0 2.577-1.131 2.577-2.526 0-1.396-1.153-2.527-2.577-2.527-1.423 0-2.577 1.131-2.577 2.527 0 1.395 1.154 2.526 2.577 2.526zm89.43-.001c1.423 0 2.577-1.131 2.577-2.526 0-1.396-1.154-2.527-2.577-2.527s-2.577 1.131-2.577 2.527c0 1.395 1.154 2.526 2.577 2.526zm-38.324.001c1.423 0 2.577-1.131 2.577-2.526 0-1.396-1.154-2.527-2.577-2.527-1.424 0-2.577 1.131-2.577 2.527 0 1.395 1.153 2.526 2.577 2.526zm12.773 0c1.424 0 2.577-1.131 2.577-2.526 0-1.396-1.153-2.527-2.577-2.527-1.423 0-2.577 1.131-2.577 2.527 0 1.395 1.154 2.526 2.577 2.526zm12.774 0c1.423 0 2.577-1.131 2.577-2.526 0-1.396-1.154-2.527-2.577-2.527-1.424 0-2.578 1.131-2.578 2.527 0 1.395 1.154 2.526 2.578 2.526zm-63.875 0c1.423 0 2.577-1.131 2.577-2.526 0-1.396-1.154-2.527-2.577-2.527-1.424 0-2.578 1.131-2.578 2.527 0 1.395 1.154 2.526 2.578 2.526zm12.773 0c1.423 0 2.577-1.131 2.577-2.526 0-1.396-1.154-2.527-2.577-2.527s-2.577 1.131-2.577 2.527c0 1.395 1.154 2.526 2.577 2.526zm12.777 0c1.424 0 2.578-1.131 2.578-2.526 0-1.396-1.154-2.527-2.578-2.527-1.423 0-2.577 1.131-2.577 2.527 0 1.395 1.154 2.526 2.577 2.526zm76.657-12.525c1.423 0 2.577-1.131 2.577-2.527 0-1.395-1.154-2.526-2.577-2.526-1.424 0-2.577 1.131-2.577 2.526 0 1.396 1.153 2.527 2.577 2.527zm12.773 0c1.423 0 2.577-1.131 2.577-2.527 0-1.395-1.154-2.526-2.577-2.526s-2.577 1.131-2.577 2.526c0 1.396 1.154 2.527 2.577 2.527zm-25.551 0c1.424 0 2.577-1.131 2.577-2.527 0-1.395-1.153-2.526-2.577-2.526-1.423 0-2.577 1.131-2.577 2.526 0 1.396 1.154 2.527 2.577 2.527zm-102.207 0c1.424 0 2.577-1.131 2.577-2.527 0-1.395-1.153-2.526-2.577-2.526-1.423 0-2.577 1.131-2.577 2.526 0 1.396 1.154 2.527 2.577 2.527zm89.43 0c1.423 0 2.577-1.131 2.577-2.527 0-1.395-1.154-2.526-2.577-2.526s-2.577 1.131-2.577 2.526c0 1.396 1.154 2.527 2.577 2.527zm-38.324 0c1.423 0 2.577-1.131 2.577-2.527 0-1.395-1.154-2.526-2.577-2.526-1.424 0-2.577 1.131-2.577 2.526 0 1.396 1.153 2.527 2.577 2.527zm12.773 0c1.423 0 2.577-1.131 2.577-2.527 0-1.395-1.154-2.526-2.577-2.526s-2.577 1.131-2.577 2.526c0 1.396 1.154 2.527 2.577 2.527zm12.774 0c1.423 0 2.577-1.131 2.577-2.527 0-1.395-1.154-2.526-2.577-2.526-1.424 0-2.578 1.131-2.578 2.526 0 1.396 1.154 2.527 2.578 2.527zm-63.875 0c1.423 0 2.577-1.131 2.577-2.527 0-1.395-1.154-2.526-2.577-2.526-1.424 0-2.578 1.131-2.578 2.526 0 1.396 1.154 2.527 2.578 2.527zm12.773 0c1.423 0 2.577-1.131 2.577-2.527 0-1.395-1.154-2.526-2.577-2.526s-2.577 1.131-2.577 2.526c0 1.396 1.154 2.527 2.577 2.527zm12.777 0c1.424 0 2.578-1.131 2.578-2.527 0-1.395-1.154-2.526-2.578-2.526-1.423 0-2.577 1.131-2.577 2.526 0 1.396 1.154 2.527 2.577 2.527zm76.657-12.525c1.423 0 2.577-1.132 2.577-2.527 0-1.395-1.154-2.527-2.577-2.527-1.424 0-2.577 1.132-2.577 2.527 0 1.395 1.153 2.527 2.577 2.527zm-12.778 0c1.424 0 2.577-1.131 2.577-2.526 0-1.396-1.153-2.527-2.577-2.527-1.423 0-2.577 1.131-2.577 2.527 0 1.395 1.154 2.526 2.577 2.526zm38.328 0c1.424 0 2.577-1.132 2.577-2.527 0-1.395-1.153-2.527-2.577-2.527-1.423 0-2.577 1.132-2.577 2.527 0 1.395 1.154 2.527 2.577 2.527zm-12.777 0c1.423 0 2.577-1.132 2.577-2.527 0-1.395-1.154-2.527-2.577-2.527s-2.577 1.132-2.577 2.527c0 1.395 1.154 2.527 2.577 2.527zm-127.758 0c1.424 0 2.577-1.131 2.577-2.526 0-1.396-1.153-2.527-2.577-2.527-1.423 0-2.577 1.131-2.577 2.527 0 1.395 1.154 2.526 2.577 2.526zm89.43 0c1.423 0 2.577-1.132 2.577-2.527 0-1.395-1.154-2.527-2.577-2.527s-2.577 1.132-2.577 2.527c0 1.395 1.154 2.527 2.577 2.527zm-38.324 0c1.423 0 2.577-1.132 2.577-2.527 0-1.395-1.154-2.527-2.577-2.527-1.424 0-2.577 1.132-2.577 2.527 0 1.395 1.153 2.527 2.577 2.527zm12.773 0c1.423 0 2.577-1.131 2.577-2.526 0-1.396-1.154-2.527-2.577-2.527s-2.577 1.131-2.577 2.527c0 1.395 1.154 2.526 2.577 2.526zm12.774 0c1.423 0 2.577-1.132 2.577-2.527 0-1.395-1.154-2.527-2.577-2.527-1.424 0-2.578 1.132-2.578 2.527 0 1.395 1.154 2.527 2.578 2.527zm-63.875 0c1.423 0 2.577-1.132 2.577-2.527 0-1.395-1.154-2.527-2.577-2.527-1.424 0-2.578 1.132-2.578 2.527 0 1.395 1.154 2.527 2.578 2.527zm12.773-.001c1.423 0 2.577-1.131 2.577-2.527 0-1.395-1.154-2.526-2.577-2.526s-2.577 1.131-2.577 2.526c0 1.396 1.154 2.527 2.577 2.527zm12.777.001c1.424 0 2.578-1.132 2.578-2.527 0-1.395-1.154-2.527-2.578-2.527-1.423 0-2.577 1.132-2.577 2.527 0 1.395 1.154 2.527 2.577 2.527zm76.657-12.525c1.423 0 2.577-1.131 2.577-2.526 0-1.396-1.154-2.527-2.577-2.527-1.424 0-2.577 1.131-2.577 2.527 0 1.395 1.153 2.526 2.577 2.526zm-12.778-.001c1.424 0 2.577-1.131 2.577-2.526 0-1.396-1.153-2.527-2.577-2.527-1.423 0-2.577 1.131-2.577 2.527 0 1.395 1.154 2.526 2.577 2.526zm-102.207 0c1.424 0 2.577-1.131 2.577-2.526 0-1.396-1.153-2.527-2.577-2.527-1.423 0-2.577 1.131-2.577 2.527 0 1.395 1.154 2.526 2.577 2.526zm89.43 0c1.423 0 2.577-1.131 2.577-2.526 0-1.396-1.154-2.527-2.577-2.527s-2.577 1.131-2.577 2.527c0 1.395 1.154 2.526 2.577 2.526zm63.883.001c1.423 0 2.577-1.131 2.577-2.526 0-1.396-1.154-2.527-2.577-2.527-1.424 0-2.577 1.131-2.577 2.527 0 1.395 1.153 2.526 2.577 2.526zm-12.778 0c1.424 0 2.577-1.131 2.577-2.526 0-1.396-1.153-2.527-2.577-2.527-1.423 0-2.577 1.131-2.577 2.527 0 1.395 1.154 2.526 2.577 2.526zm-12.777-.001c1.423 0 2.577-1.131 2.577-2.526 0-1.396-1.154-2.527-2.577-2.527s-2.577 1.131-2.577 2.527c0 1.395 1.154 2.526 2.577 2.526zm-76.652 0c1.423 0 2.577-1.131 2.577-2.526 0-1.396-1.154-2.527-2.577-2.527-1.424 0-2.577 1.131-2.577 2.527 0 1.395 1.153 2.526 2.577 2.526zm12.773 0c1.424 0 2.577-1.131 2.577-2.526 0-1.396-1.153-2.527-2.577-2.527-1.423 0-2.577 1.131-2.577 2.527 0 1.395 1.154 2.526 2.577 2.526zm12.774.001c1.423 0 2.577-1.131 2.577-2.526 0-1.396-1.154-2.527-2.577-2.527-1.424 0-2.578 1.131-2.578 2.527 0 1.395 1.154 2.526 2.578 2.526zm-63.875-.001c1.423 0 2.577-1.131 2.577-2.526 0-1.396-1.154-2.527-2.577-2.527-1.424 0-2.578 1.131-2.578 2.527 0 1.395 1.154 2.526 2.578 2.526zm12.773 0c1.423 0 2.577-1.131 2.577-2.526 0-1.396-1.154-2.527-2.577-2.527s-2.577 1.131-2.577 2.527c0 1.395 1.154 2.526 2.577 2.526zm12.777.001c1.424 0 2.578-1.131 2.578-2.527 0-1.395-1.154-2.526-2.578-2.526-1.423 0-2.577 1.131-2.577 2.526 0 1.396 1.154 2.527 2.577 2.527zm76.657-12.525c1.423 0 2.577-1.131 2.577-2.527 0-1.395-1.154-2.526-2.577-2.526-1.424 0-2.577 1.131-2.577 2.526 0 1.396 1.153 2.527 2.577 2.527zm-12.778 0c1.424 0 2.577-1.131 2.577-2.527 0-1.395-1.153-2.526-2.577-2.526-1.423 0-2.577 1.131-2.577 2.526 0 1.396 1.154 2.527 2.577 2.527zm-102.207 0c1.424 0 2.577-1.131 2.577-2.527 0-1.395-1.153-2.526-2.577-2.526-1.423 0-2.577 1.131-2.577 2.526 0 1.396 1.154 2.527 2.577 2.527zm89.43 0c1.423 0 2.577-1.131 2.577-2.527 0-1.395-1.154-2.526-2.577-2.526s-2.577 1.131-2.577 2.526c0 1.396 1.154 2.527 2.577 2.527zm63.883 0c1.423 0 2.577-1.131 2.577-2.527 0-1.395-1.154-2.526-2.577-2.526-1.424 0-2.577 1.131-2.577 2.526 0 1.396 1.153 2.527 2.577 2.527zm-12.781-.001c1.423 0 2.577-1.131 2.577-2.527 0-1.395-1.154-2.526-2.577-2.526-1.424 0-2.578 1.131-2.578 2.526 0 1.396 1.154 2.527 2.578 2.527zm-12.774.001c1.423 0 2.577-1.131 2.577-2.527 0-1.395-1.154-2.526-2.577-2.526s-2.577 1.131-2.577 2.526c0 1.396 1.154 2.527 2.577 2.527zm-76.652 0c1.423 0 2.577-1.131 2.577-2.527 0-1.395-1.154-2.526-2.577-2.526-1.424 0-2.577 1.131-2.577 2.526 0 1.396 1.153 2.527 2.577 2.527zm12.773 0c1.424 0 2.577-1.131 2.577-2.527 0-1.395-1.153-2.526-2.577-2.526-1.423 0-2.577 1.131-2.577 2.526 0 1.396 1.154 2.527 2.577 2.527zm12.774 0c1.423 0 2.577-1.131 2.577-2.527 0-1.395-1.154-2.526-2.577-2.526-1.424 0-2.578 1.131-2.578 2.526 0 1.396 1.154 2.527 2.578 2.527zm-63.875 0c1.423 0 2.577-1.131 2.577-2.527 0-1.395-1.154-2.526-2.577-2.526-1.424 0-2.578 1.131-2.578 2.526 0 1.396 1.154 2.527 2.578 2.527zm12.773 0c1.423 0 2.577-1.131 2.577-2.527 0-1.395-1.154-2.526-2.577-2.526s-2.577 1.131-2.577 2.526c0 1.396 1.154 2.527 2.577 2.527zm12.777-.001c1.424 0 2.578-1.131 2.578-2.527 0-1.395-1.154-2.526-2.578-2.526-1.423 0-2.577 1.131-2.577 2.526 0 1.396 1.154 2.527 2.577 2.527zm76.657-12.525c1.423 0 2.577-1.131 2.577-2.526 0-1.396-1.154-2.527-2.577-2.527-1.424 0-2.577 1.131-2.577 2.527 0 1.395 1.153 2.526 2.577 2.526zm-12.778 0c1.424 0 2.577-1.131 2.577-2.526 0-1.396-1.153-2.527-2.577-2.527-1.423 0-2.577 1.131-2.577 2.527 0 1.395 1.154 2.526 2.577 2.526zm-102.207 0c1.424 0 2.577-1.131 2.577-2.526 0-1.396-1.153-2.527-2.577-2.527-1.423 0-2.577 1.131-2.577 2.527 0 1.395 1.154 2.526 2.577 2.526zm89.43.001c1.423 0 2.577-1.131 2.577-2.526 0-1.396-1.154-2.527-2.577-2.527s-2.577 1.131-2.577 2.527c0 1.395 1.154 2.526 2.577 2.526zm51.102-.001c1.423 0 2.577-1.131 2.577-2.526 0-1.396-1.154-2.527-2.577-2.527-1.424 0-2.578 1.131-2.578 2.527 0 1.395 1.154 2.526 2.578 2.526zm-12.774 0c1.423 0 2.577-1.131 2.577-2.526 0-1.396-1.154-2.527-2.577-2.527s-2.577 1.131-2.577 2.527c0 1.395 1.154 2.526 2.577 2.526zm-76.652.001c1.423 0 2.577-1.131 2.577-2.526 0-1.396-1.154-2.527-2.577-2.527-1.424 0-2.577 1.131-2.577 2.527 0 1.395 1.153 2.526 2.577 2.526zm12.773-.001c1.424 0 2.577-1.131 2.577-2.526 0-1.396-1.153-2.527-2.577-2.527-1.423 0-2.577 1.131-2.577 2.527 0 1.395 1.154 2.526 2.577 2.526zm12.774.001c1.423 0 2.577-1.131 2.577-2.526 0-1.396-1.154-2.527-2.577-2.527-1.424 0-2.578 1.131-2.578 2.527 0 1.395 1.154 2.526 2.578 2.526zm-63.875 0c1.423 0 2.577-1.131 2.577-2.526 0-1.396-1.154-2.527-2.577-2.527-1.424 0-2.578 1.131-2.578 2.527 0 1.395 1.154 2.526 2.578 2.526zm12.773-.001c1.423 0 2.577-1.131 2.577-2.526 0-1.396-1.154-2.527-2.577-2.527s-2.577 1.131-2.577 2.527c0 1.395 1.154 2.526 2.577 2.526zm12.777 0c1.424 0 2.578-1.131 2.578-2.526 0-1.396-1.154-2.527-2.578-2.527-1.423 0-2.577 1.131-2.577 2.527 0 1.395 1.154 2.526 2.577 2.526zm76.657-12.525c1.423 0 2.577-1.131 2.577-2.527 0-1.395-1.154-2.526-2.577-2.526-1.424 0-2.577 1.131-2.577 2.526 0 1.396 1.153 2.527 2.577 2.527zm-12.778 0c1.424 0 2.577-1.131 2.577-2.527 0-1.395-1.153-2.526-2.577-2.526-1.423 0-2.577 1.131-2.577 2.526 0 1.396 1.154 2.527 2.577 2.527zm-102.207 0c1.424 0 2.577-1.131 2.577-2.527 0-1.395-1.153-2.526-2.577-2.526-1.423 0-2.577 1.131-2.577 2.526 0 1.396 1.154 2.527 2.577 2.527zm89.434 0c1.423 0 2.577-1.131 2.577-2.527 0-1.395-1.154-2.526-2.577-2.526s-2.577 1.131-2.577 2.526c0 1.396 1.154 2.527 2.577 2.527zm38.324 0c1.423 0 2.577-1.131 2.577-2.527 0-1.395-1.154-2.526-2.577-2.526s-2.577 1.131-2.577 2.526c0 1.396 1.154 2.527 2.577 2.527zm-76.652 0c1.423 0 2.577-1.131 2.577-2.527 0-1.395-1.154-2.526-2.577-2.526-1.424 0-2.577 1.131-2.577 2.526 0 1.396 1.153 2.527 2.577 2.527zm12.773 0c1.424 0 2.577-1.131 2.577-2.527 0-1.395-1.153-2.526-2.577-2.526-1.423 0-2.577 1.131-2.577 2.526 0 1.396 1.154 2.527 2.577 2.527zm12.774 0c1.423 0 2.577-1.131 2.577-2.527 0-1.395-1.154-2.526-2.577-2.526-1.424 0-2.578 1.131-2.578 2.526 0 1.396 1.154 2.527 2.578 2.527zm-63.875 0c1.423 0 2.577-1.131 2.577-2.527 0-1.395-1.154-2.526-2.577-2.526-1.424 0-2.578 1.131-2.578 2.526 0 1.396 1.154 2.527 2.578 2.527zm12.773 0c1.423 0 2.577-1.131 2.577-2.527 0-1.395-1.154-2.526-2.577-2.526s-2.577 1.131-2.577 2.526c0 1.396 1.154 2.527 2.577 2.527zm12.777 0c1.424 0 2.578-1.131 2.578-2.527 0-1.395-1.154-2.526-2.578-2.526-1.423 0-2.577 1.131-2.577 2.526 0 1.396 1.154 2.527 2.577 2.527zm76.657-12.525c1.423 0 2.577-1.132 2.577-2.527 0-1.395-1.154-2.526-2.577-2.526-1.424 0-2.577 1.131-2.577 2.526 0 1.395 1.153 2.527 2.577 2.527zm-12.778 0c1.424 0 2.577-1.132 2.577-2.527 0-1.395-1.153-2.526-2.577-2.526-1.423 0-2.577 1.131-2.577 2.526 0 1.395 1.154 2.527 2.577 2.527zm-102.207 0c1.424 0 2.577-1.132 2.577-2.527 0-1.395-1.153-2.526-2.577-2.526-1.423 0-2.577 1.131-2.577 2.526 0 1.395 1.154 2.527 2.577 2.527zm89.43-.001c1.423 0 2.577-1.131 2.577-2.527 0-1.395-1.154-2.526-2.577-2.526s-2.577 1.131-2.577 2.526c0 1.396 1.154 2.527 2.577 2.527zm-38.324.001c1.423 0 2.577-1.132 2.577-2.527 0-1.395-1.154-2.526-2.577-2.526-1.424 0-2.577 1.131-2.577 2.526 0 1.395 1.153 2.527 2.577 2.527zm12.773 0c1.424 0 2.577-1.132 2.577-2.527 0-1.395-1.153-2.526-2.577-2.526-1.423 0-2.577 1.131-2.577 2.526 0 1.395 1.154 2.527 2.577 2.527zm12.774 0c1.423 0 2.577-1.132 2.577-2.527 0-1.395-1.154-2.526-2.577-2.526-1.424 0-2.578 1.131-2.578 2.526 0 1.395 1.154 2.527 2.578 2.527zm-63.875 0c1.423 0 2.577-1.132 2.577-2.527 0-1.395-1.154-2.526-2.577-2.526-1.424 0-2.578 1.131-2.578 2.526 0 1.395 1.154 2.527 2.578 2.527zm12.773 0c1.423 0 2.577-1.132 2.577-2.527 0-1.395-1.154-2.526-2.577-2.526s-2.577 1.131-2.577 2.526c0 1.395 1.154 2.527 2.577 2.527zm12.777 0c1.424 0 2.578-1.132 2.578-2.527 0-1.395-1.154-2.526-2.578-2.526-1.423 0-2.577 1.131-2.577 2.526 0 1.395 1.154 2.527 2.577 2.527zm63.879-12.525c1.424 0 2.577-1.131 2.577-2.526 0-1.396-1.153-2.527-2.577-2.527-1.423 0-2.577 1.131-2.577 2.527 0 1.395 1.154 2.526 2.577 2.526zm-102.207 0c1.424 0 2.577-1.131 2.577-2.526 0-1.396-1.153-2.527-2.577-2.527-1.423 0-2.577 1.131-2.577 2.527 0 1.395 1.154 2.526 2.577 2.526zm89.43-.001c1.423 0 2.577-1.131 2.577-2.526 0-1.396-1.154-2.527-2.577-2.527s-2.577 1.131-2.577 2.527c0 1.395 1.154 2.526 2.577 2.526zm-38.324 0c1.423 0 2.577-1.131 2.577-2.526 0-1.396-1.154-2.527-2.577-2.527-1.424 0-2.577 1.131-2.577 2.527 0 1.395 1.153 2.526 2.577 2.526zm12.773.001c1.423 0 2.577-1.131 2.577-2.526 0-1.396-1.154-2.527-2.577-2.527s-2.577 1.131-2.577 2.527c0 1.395 1.154 2.526 2.577 2.526zm12.774 0c1.423 0 2.577-1.131 2.577-2.526 0-1.396-1.154-2.527-2.577-2.527-1.424 0-2.578 1.131-2.578 2.527 0 1.395 1.154 2.526 2.578 2.526zm-63.875-.001c1.423 0 2.577-1.131 2.577-2.526 0-1.396-1.154-2.527-2.577-2.527-1.424 0-2.578 1.131-2.578 2.527 0 1.395 1.154 2.526 2.578 2.526zm12.773 0c1.423 0 2.577-1.131 2.577-2.526 0-1.396-1.154-2.527-2.577-2.527s-2.577 1.131-2.577 2.527c0 1.395 1.154 2.526 2.577 2.526zm12.777.001c1.424 0 2.578-1.131 2.578-2.526 0-1.396-1.154-2.527-2.578-2.527-1.423 0-2.577 1.131-2.577 2.527 0 1.395 1.154 2.526 2.577 2.526zM-.888 79.162c1.424 0 2.577-1.132 2.577-2.527 0-1.395-1.153-2.527-2.577-2.527-1.423 0-2.577 1.132-2.577 2.527 0 1.395 1.154 2.526 2.577 2.526zm89.43-.002c1.423 0 2.577-1.13 2.577-2.526 0-1.395-1.154-2.526-2.577-2.526s-2.577 1.13-2.577 2.526 1.154 2.527 2.577 2.527zm-38.324 0c1.423 0 2.577-1.13 2.577-2.526 0-1.395-1.154-2.526-2.577-2.526-1.424 0-2.577 1.13-2.577 2.526s1.153 2.527 2.577 2.527zm12.773.002c1.423 0 2.577-1.132 2.577-2.527 0-1.395-1.154-2.527-2.577-2.527s-2.577 1.132-2.577 2.527c0 1.395 1.154 2.526 2.577 2.526zm12.774-.002c1.423 0 2.577-1.13 2.577-2.526 0-1.395-1.154-2.526-2.577-2.526-1.424 0-2.578 1.13-2.578 2.526s1.154 2.527 2.578 2.527zm-63.875 0c1.423 0 2.577-1.13 2.577-2.526 0-1.395-1.154-2.526-2.577-2.526-1.424 0-2.578 1.13-2.578 2.526s1.154 2.527 2.578 2.527zm12.773 0c1.423 0 2.577-1.131 2.577-2.526 0-1.396-1.154-2.527-2.577-2.527s-2.577 1.131-2.577 2.526c0 1.396 1.154 2.527 2.577 2.527zm12.777 0c1.424 0 2.578-1.13 2.578-2.526 0-1.395-1.154-2.526-2.578-2.526-1.423 0-2.577 1.13-2.577 2.526s1.154 2.527 2.577 2.527zM-.888 66.635c1.424 0 2.577-1.131 2.577-2.526 0-1.396-1.153-2.527-2.577-2.527-1.423 0-2.577 1.131-2.577 2.527 0 1.395 1.154 2.526 2.577 2.526zm51.106 0c1.423 0 2.577-1.131 2.577-2.526 0-1.396-1.154-2.527-2.577-2.527-1.424 0-2.577 1.131-2.577 2.527 0 1.395 1.153 2.526 2.577 2.526zm12.773 0c1.424 0 2.577-1.131 2.577-2.526 0-1.396-1.153-2.527-2.577-2.527-1.423 0-2.577 1.131-2.577 2.527 0 1.395 1.154 2.526 2.577 2.526zm12.774.001c1.423 0 2.577-1.131 2.577-2.527 0-1.395-1.154-2.526-2.577-2.526-1.424 0-2.578 1.13-2.578 2.526s1.154 2.527 2.578 2.527zm-63.875-.001c1.423 0 2.577-1.131 2.577-2.526 0-1.396-1.154-2.527-2.577-2.527-1.424 0-2.578 1.131-2.578 2.527 0 1.395 1.154 2.526 2.578 2.526zm12.773 0c1.423 0 2.577-1.131 2.577-2.526 0-1.396-1.154-2.527-2.577-2.527s-2.577 1.131-2.577 2.527c0 1.395 1.154 2.526 2.577 2.526zm12.781.001c1.424 0 2.577-1.131 2.577-2.527 0-1.395-1.153-2.526-2.577-2.526-1.423 0-2.577 1.13-2.577 2.526s1.154 2.527 2.577 2.527zM-.888 54.11c1.424 0 2.577-1.13 2.577-2.526 0-1.395-1.153-2.526-2.577-2.526-1.423 0-2.577 1.13-2.577 2.526 0 1.395 1.154 2.527 2.577 2.527zm51.106 0c1.423 0 2.577-1.13 2.577-2.526 0-1.395-1.154-2.526-2.577-2.526-1.424 0-2.577 1.13-2.577 2.526 0 1.395 1.153 2.527 2.577 2.527zm12.773 0c1.424 0 2.577-1.13 2.577-2.526 0-1.395-1.153-2.526-2.577-2.526-1.423 0-2.577 1.13-2.577 2.526 0 1.395 1.154 2.527 2.577 2.527zm-51.101 0c1.423 0 2.577-1.13 2.577-2.526 0-1.395-1.154-2.526-2.577-2.526-1.424 0-2.578 1.13-2.578 2.526 0 1.395 1.154 2.527 2.578 2.527zm12.773 0c1.423 0 2.577-1.13 2.577-2.526 0-1.395-1.154-2.526-2.577-2.526s-2.577 1.13-2.577 2.526c0 1.395 1.154 2.527 2.577 2.527zm12.777 0c1.424 0 2.578-1.13 2.578-2.526 0-1.395-1.154-2.526-2.578-2.526-1.423 0-2.577 1.13-2.577 2.526 0 1.395 1.154 2.527 2.577 2.527zM-.888 41.585c1.424 0 2.577-1.131 2.577-2.526 0-1.396-1.153-2.527-2.577-2.527-1.423 0-2.577 1.131-2.577 2.527 0 1.395 1.154 2.526 2.577 2.526zm51.106.001c1.423 0 2.577-1.131 2.577-2.527 0-1.395-1.154-2.526-2.577-2.526-1.424 0-2.577 1.13-2.577 2.526s1.153 2.527 2.577 2.527zm-38.328 0c1.423 0 2.577-1.131 2.577-2.527 0-1.395-1.154-2.526-2.577-2.526-1.424 0-2.578 1.13-2.578 2.526s1.154 2.527 2.578 2.527zm12.773-.001c1.423 0 2.577-1.131 2.577-2.526 0-1.396-1.154-2.527-2.577-2.527s-2.577 1.131-2.577 2.527c0 1.395 1.154 2.526 2.577 2.526zm12.777 0c1.424 0 2.578-1.131 2.578-2.526 0-1.396-1.154-2.527-2.578-2.527-1.423 0-2.577 1.131-2.577 2.527 0 1.395 1.154 2.526 2.577 2.526zM-.888 29.06c1.424 0 2.577-1.13 2.577-2.526 0-1.395-1.153-2.527-2.577-2.527-1.423 0-2.577 1.131-2.577 2.527 0 1.395 1.154 2.526 2.577 2.526zm12.778 0c1.423 0 2.577-1.13 2.577-2.526 0-1.395-1.154-2.527-2.577-2.527-1.424 0-2.578 1.131-2.578 2.527 0 1.395 1.154 2.526 2.578 2.526zm12.773 0c1.423 0 2.577-1.13 2.577-2.526 0-1.395-1.154-2.527-2.577-2.527s-2.577 1.131-2.577 2.527c0 1.395 1.154 2.526 2.577 2.526zM-.888 17.578c1.424 0 2.577-1.13 2.577-2.526 0-1.395-1.153-2.527-2.577-2.527-1.423 0-2.577 1.132-2.577 2.527 0 1.395 1.154 2.526 2.577 2.526zm12.778.002c1.423 0 2.577-1.132 2.577-2.527 0-1.396-1.154-2.527-2.577-2.527-1.424 0-2.578 1.132-2.578 2.527 0 1.395 1.154 2.526 2.578 2.526zM-.888 5.054c1.424 0 2.577-1.131 2.577-2.527C1.69 1.132.536.001-.888.001-2.31 0-3.465 1.13-3.465 2.527S-2.31 5.054-.888 5.054zm12.778-.001c1.423 0 2.577-1.131 2.577-2.526C14.467 1.13 13.313 0 11.89 0c-1.424 0-2.578 1.131-2.578 2.527 0 1.395 1.154 2.526 2.578 2.526zm12.773 12.525c1.423 0 2.577-1.13 2.577-2.526 0-1.395-1.154-2.527-2.577-2.527s-2.577 1.132-2.577 2.527c0 1.395 1.154 2.526 2.577 2.526zM37.44 29.06c1.424 0 2.578-1.131 2.578-2.527 0-1.395-1.154-2.526-2.578-2.526-1.423 0-2.577 1.13-2.577 2.526 0 1.395 1.154 2.527 2.577 2.527z"/></g><defs><clipPath id="clip0_2_4745"><path fill="#fff" d="M0 0h155v301H0z"/></clipPath></defs></svg>