<svg width="41" height="53" fill="none" xmlns="http://www.w3.org/2000/svg"><g clip-path="url(#clip0_2_12455)"><path d="M41 32.979v13.696a5 5 0 01-5 5H2.153V45.11h12.314v-5.9h12.166v-6.23H41zm-18.57-6.806l-5.127-1.884 5.123-6.612c1.134-1.464.836-3.531-.68-4.705-.93-.722-1.971-.851-3.384-.42L5.811 17.44c-.443.172-.79.502-.979.93a1.682 1.682 0 00-.016 1.329 1.78 1.78 0 001.66 1.093c.227 0 .451-.043.665-.126l6.17-2.402-2.992 3.862c-.37.508-.764 1.131-.764 2.105l-.08 9.338a.357.357 0 01-.042.164l-4.188 7.753a1.998 1.998 0 00-.147 1.573c.169.526.538.956 1.04 1.212.304.155.645.237.984.237.793 0 1.514-.423 1.882-1.104l4.187-7.755a4.4 4.4 0 00.528-2.044c.063-2.203.169-5.453.223-6.14l5.785 2.126-1.332 6.408c-.113.54-.002 1.09.311 1.55.314.458.792.771 1.348.88.14.028.282.042.423.042 1.004 0 1.878-.696 2.078-1.654l1.587-7.63c.267-1.283-.454-2.55-1.713-3.013zm3.034-19.86c-2.025 0-3.672 1.6-3.672 3.568s1.647 3.569 3.672 3.569c2.025 0 3.672-1.601 3.672-3.569s-1.648-3.569-3.672-3.569zm-6.438 4.61L14.702.5.82 5.939 5.143 16.36l13.882-5.439z" fill="url(#paint0_linear_2_12455)"/></g><defs><linearGradient id="paint0_linear_2_12455" x1="41" y1="5.983" x2="-6.997" y2="6.939" gradientUnits="userSpaceOnUse"><stop stop-color="#FFCD3F"/><stop offset="1" stop-color="#FAEECC"/></linearGradient><clipPath id="clip0_2_12455"><path fill="#fff" transform="translate(0 .5)" d="M0 0h41v52H0z"/></clipPath></defs></svg>