<svg width="132" height="158" fill="none" xmlns="http://www.w3.org/2000/svg"><path d="M109.375 65c0 2.299-1.097 4.503-3.051 6.128-1.953 1.626-4.603 2.539-7.366 2.539h-62.5L15.625 91V21.667c0-2.299 1.098-4.503 3.051-6.129C20.63 13.913 23.279 13 26.042 13h72.916c2.763 0 5.413.913 7.366 2.538 1.954 1.626 3.051 3.83 3.051 6.129V65z" stroke="#fff" stroke-width="3" stroke-linecap="round" stroke-linejoin="round"/><circle cx="62.5" cy="43.5" r="3.5" fill="#fff"/><circle cx="48.5" cy="43.5" r="3.5" fill="#fff"/><circle cx="76.5" cy="43.5" r="3.5" fill="#fff"/><path d="M118.875 108c0-1.768-.922-3.464-2.563-4.714-1.641-1.25-3.866-1.953-6.187-1.953h-52.5L40.125 88v53.333c0 1.768.922 3.464 2.563 4.714 1.64 1.251 3.866 1.953 6.187 1.953h61.25c2.321 0 4.546-.702 6.187-1.953 1.641-1.25 2.563-2.946 2.563-4.714V108z" stroke="#fff" stroke-width="3" stroke-linecap="round" stroke-linejoin="round"/><ellipse rx="2.94" ry="2.692" transform="matrix(1 0 0 -1 79.5 124.538)" fill="#fff"/><ellipse rx="2.94" ry="2.692" transform="matrix(1 0 0 -1 67.74 124.538)" fill="#fff"/><ellipse rx="2.94" ry="2.692" transform="matrix(1 0 0 -1 91.26 124.538)" fill="#fff"/></svg>