<svg width="69" height="64" fill="none" xmlns="http://www.w3.org/2000/svg"><path d="M67.933 24.43v.033L68 26.444c-.01 14.513-12.457 26.452-28.158 26.94v-5.996c5.622-.227 10.889-2.367 14.912-6.1h0A21.79 21.79 0 0057 38.867l1.569-1.976-2.497.365a15.42 15.42 0 01-2.218.16c-7.848 0-14.08-5.883-14.08-12.986 0-7.102 6.232-12.986 14.08-12.986s14.079 5.884 14.079 12.986zm-38.775 0v.033l.067 1.981c-.01 14.513-12.456 26.452-28.158 26.94v-5.996c5.623-.227 10.89-2.367 14.912-6.1.82-.76 1.57-1.57 2.246-2.422l1.57-1.976-2.497.365c-.723.105-1.464.16-2.219.16C7.231 37.416 1 31.533 1 24.43c0-7.102 6.231-12.986 14.079-12.986 7.848 0 14.079 5.884 14.079 12.986z" stroke="#5CCD4A" stroke-opacity=".2" stroke-width="2" opacity=".9"/></svg>