<svg width="112" height="111" fill="none" xmlns="http://www.w3.org/2000/svg"><path d="M1.11 68.63v-.015l-.001-.016L1 65.149c.008-25.895 20.928-46.962 46.952-47.489v11.865c-9.228.248-17.872 3.928-24.428 10.426h0a36.248 36.248 0 00-3.577 4.123l-1.457 1.96 2.414-.376c1.2-.187 2.429-.285 3.681-.285 12.974 0 23.477 10.421 23.477 23.258 0 12.836-10.503 23.257-23.477 23.257S1.11 81.467 1.11 68.63zm62.938 0v-.03l-.11-3.45c.009-25.895 20.928-46.962 46.953-47.489v11.865c-9.228.248-17.873 3.928-24.429 10.426a36.23 36.23 0 00-3.577 4.123l-1.457 1.96 2.414-.376c1.2-.187 2.429-.285 3.682-.285C100.498 45.373 111 55.794 111 68.63s-10.502 23.257-23.476 23.257c-12.974 0-23.476-10.421-23.476-23.258z" stroke="#fff" stroke-width="2" opacity=".9"/></svg>