<svg width="85" height="105" fill="none" xmlns="http://www.w3.org/2000/svg"><path d="M110.891 40.08v.033l.109 3.26c-.009 24.416-20.877 44.369-46.952 44.867V77.126c9.211-.235 17.85-3.71 24.408-9.859h0a34.94 34.94 0 003.58-3.904l1.551-1.973-2.483.366c-1.202.177-2.434.27-3.69.27-13.027 0-23.476-9.885-23.476-21.946 0-12.06 10.45-21.946 23.477-21.946 13.027 0 23.476 9.886 23.476 21.946zm-62.939 0v.033l.11 3.26c-.01 24.417-20.878 44.37-46.954 44.867V77.126c9.211-.235 17.85-3.71 24.409-9.859a34.934 34.934 0 003.58-3.904l1.55-1.973-2.482.366a25.28 25.28 0 01-3.69.27C11.45 62.026 1 52.14 1 40.08c0-12.06 10.449-21.946 23.476-21.946S47.952 28.02 47.952 40.08z" stroke="#fff" stroke-width="2" opacity=".9"/></svg>