<svg width="99" height="195" fill="none" xmlns="http://www.w3.org/2000/svg"><g opacity=".5" clip-path="url(#clip0_218_882)" fill="#50AB3F"><path d="M75.097 172.998c.909 0 1.646-.733 1.646-1.637a1.64 1.64 0 00-1.646-1.636 1.64 1.64 0 00-1.647 1.636c0 .904.737 1.637 1.647 1.637zm8.161 0c.91 0 1.647-.733 1.647-1.637s-.737-1.637-1.647-1.637c-.909 0-1.646.733-1.646 1.637s.737 1.637 1.646 1.637zm8.162 0c.91 0 1.646-.733 1.646-1.637a1.64 1.64 0 00-1.646-1.636 1.64 1.64 0 00-1.646 1.636c0 .904.737 1.637 1.646 1.637zm8.16 0c.909 0 1.646-.733 1.646-1.637s-.737-1.637-1.646-1.637c-.91 0-1.646.733-1.646 1.637s.737 1.637 1.646 1.637zm-16.322 8.115c.91 0 1.647-.733 1.647-1.637s-.737-1.637-1.647-1.637c-.909 0-1.646.733-1.646 1.637s.737 1.637 1.646 1.637zm8.162-.001c.91 0 1.646-.733 1.646-1.637s-.737-1.637-1.646-1.637c-.909 0-1.646.733-1.646 1.637s.737 1.637 1.646 1.637zm8.16 0c.909 0 1.646-.733 1.646-1.637s-.737-1.637-1.646-1.637c-.91 0-1.646.733-1.646 1.637s.737 1.637 1.646 1.637zm-8.16 8.114c.91 0 1.646-.733 1.646-1.637s-.737-1.637-1.646-1.637c-.909 0-1.646.733-1.646 1.637s.737 1.637 1.646 1.637zm8.16 0c.909 0 1.646-.733 1.646-1.637s-.737-1.637-1.646-1.637c-.91 0-1.646.733-1.646 1.637s.737 1.637 1.646 1.637zm-8.16-24.342c.91 0 1.646-.733 1.646-1.637a1.64 1.64 0 00-1.646-1.636 1.64 1.64 0 00-1.646 1.636c0 .904.737 1.637 1.646 1.637zm8.16 0c.909 0 1.646-.733 1.646-1.637s-.737-1.637-1.646-1.637c-.91 0-1.646.733-1.646 1.637s.737 1.637 1.646 1.637zm-32.643 0c.909 0 1.646-.733 1.646-1.637a1.64 1.64 0 00-1.646-1.636 1.64 1.64 0 00-1.647 1.636c0 .904.738 1.637 1.647 1.637zm-8.164-8.115c.91 0 1.646-.733 1.646-1.637 0-.903-.737-1.636-1.646-1.636-.909 0-1.646.733-1.646 1.636 0 .904.737 1.637 1.646 1.637zm16.324 8.115c.909 0 1.646-.733 1.646-1.637s-.737-1.637-1.646-1.637c-.91 0-1.647.733-1.647 1.637s.737 1.637 1.647 1.637zm8.161-.001c.91 0 1.647-.733 1.647-1.637a1.64 1.64 0 00-1.647-1.636 1.64 1.64 0 00-1.646 1.636c0 .904.737 1.637 1.646 1.637zm8.162-8.114c.91 0 1.646-.733 1.646-1.637 0-.903-.737-1.636-1.646-1.636-.909 0-1.646.733-1.646 1.636 0 .904.737 1.637 1.646 1.637zm8.16 0c.909 0 1.646-.733 1.646-1.637 0-.903-.737-1.636-1.646-1.636a1.64 1.64 0 00-1.646 1.636c0 .904.737 1.637 1.646 1.637zm-32.643.001c.909 0 1.646-.733 1.646-1.637s-.737-1.637-1.646-1.637c-.91 0-1.647.733-1.647 1.637s.738 1.637 1.647 1.637zm8.16 0c.909 0 1.646-.733 1.646-1.637s-.737-1.637-1.646-1.637c-.91 0-1.647.733-1.647 1.637s.737 1.637 1.647 1.637zm8.161-.001c.91 0 1.647-.733 1.647-1.637 0-.903-.737-1.636-1.647-1.636-.909 0-1.646.733-1.646 1.636 0 .904.737 1.637 1.646 1.637zm-16.323-8.114c.909 0 1.646-.733 1.646-1.637s-.737-1.637-1.646-1.637c-.91 0-1.646.733-1.646 1.637s.737 1.637 1.646 1.637zm32.645 0c.909 0 1.646-.733 1.646-1.637s-.737-1.637-1.646-1.637c-.91 0-1.646.733-1.646 1.637s.737 1.637 1.646 1.637zm-24.483 0a1.64 1.64 0 001.646-1.636c0-.904-.737-1.637-1.646-1.637-.91 0-1.647.733-1.647 1.637a1.64 1.64 0 001.647 1.636zm-24.484 0a1.64 1.64 0 001.647-1.636c0-.904-.737-1.637-1.647-1.637-.909 0-1.646.733-1.646 1.637a1.64 1.64 0 001.646 1.636zm8.16 0c.91 0 1.646-.733 1.646-1.637s-.737-1.637-1.646-1.637c-.909 0-1.646.733-1.646 1.637s.737 1.637 1.646 1.637zm24.485 0c.91 0 1.647-.733 1.647-1.637s-.737-1.637-1.647-1.637c-.909 0-1.646.733-1.646 1.637s.737 1.637 1.646 1.637zm8.162 0c.91 0 1.646-.733 1.646-1.637s-.737-1.637-1.646-1.637c-.909 0-1.646.733-1.646 1.637s.737 1.637 1.646 1.637zm-16.323-8.114c.909 0 1.646-.733 1.646-1.637s-.737-1.637-1.646-1.637c-.91 0-1.647.733-1.647 1.637s.737 1.637 1.647 1.637zm8.161 0c.91 0 1.647-.733 1.647-1.637s-.737-1.637-1.647-1.637c-.909 0-1.646.733-1.646 1.637s.737 1.637 1.646 1.637zm-24.485 0c.91 0 1.646-.733 1.646-1.637s-.737-1.637-1.646-1.637c-.909 0-1.646.733-1.646 1.637s.737 1.637 1.646 1.637zm8.164 0c.909 0 1.646-.733 1.646-1.637s-.737-1.637-1.646-1.637c-.91 0-1.647.733-1.647 1.637s.738 1.637 1.647 1.637zm-24.484 0c.91 0 1.646-.733 1.646-1.637s-.737-1.637-1.646-1.637c-.91 0-1.646.733-1.646 1.637s.737 1.637 1.646 1.637zm8.16 0c.91 0 1.647-.733 1.647-1.637s-.737-1.637-1.647-1.637c-.909 0-1.646.733-1.646 1.637s.737 1.637 1.646 1.637zm40.807 0c.91 0 1.646-.733 1.646-1.637s-.737-1.637-1.646-1.637c-.909 0-1.646.733-1.646 1.637s.737 1.637 1.646 1.637zm8.16 0c.909 0 1.646-.733 1.646-1.637s-.737-1.637-1.646-1.637c-.91 0-1.646.733-1.646 1.637s.737 1.637 1.646 1.637zm-16.322-8.114c.91 0 1.647-.733 1.647-1.637s-.737-1.637-1.647-1.637c-.909 0-1.646.733-1.646 1.637s.737 1.637 1.646 1.637zm8.162-.001c.91 0 1.646-.733 1.646-1.637a1.64 1.64 0 00-1.646-1.636 1.64 1.64 0 00-1.646 1.636c0 .904.737 1.637 1.646 1.637zm-24.483 0c.909 0 1.646-.733 1.646-1.637a1.64 1.64 0 00-1.646-1.636 1.64 1.64 0 00-1.647 1.636c0 .904.738 1.637 1.647 1.637zm8.16 0c.909 0 1.646-.733 1.646-1.637a1.64 1.64 0 00-1.646-1.636 1.64 1.64 0 00-1.647 1.636c0 .904.737 1.637 1.647 1.637zm-24.484 0c.91 0 1.647-.733 1.647-1.637a1.64 1.64 0 00-1.647-1.636 1.64 1.64 0 00-1.646 1.636c0 .904.737 1.637 1.646 1.637zm8.16.001c.91 0 1.646-.733 1.646-1.637s-.737-1.637-1.646-1.637c-.909 0-1.646.733-1.646 1.637s.737 1.637 1.646 1.637zm-24.483-.001c.909 0 1.646-.733 1.646-1.637a1.64 1.64 0 00-1.646-1.636 1.64 1.64 0 00-1.647 1.636c0 .904.737 1.637 1.647 1.637zm8.163.001c.91 0 1.646-.733 1.646-1.637s-.737-1.637-1.646-1.637c-.91 0-1.646.733-1.646 1.637s.737 1.637 1.646 1.637zm57.127-.001c.909 0 1.646-.733 1.646-1.637a1.64 1.64 0 00-1.646-1.636 1.64 1.64 0 00-1.646 1.636c0 .904.737 1.637 1.646 1.637zm-8.16-8.114c.91 0 1.646-.733 1.646-1.637 0-.903-.737-1.636-1.646-1.636-.909 0-1.646.733-1.646 1.636 0 .904.737 1.637 1.646 1.637zm8.16 0c.909 0 1.646-.733 1.646-1.637 0-.903-.737-1.636-1.646-1.636a1.64 1.64 0 00-1.646 1.636c0 .904.737 1.637 1.646 1.637zm-24.483 0c.909 0 1.646-.733 1.646-1.637 0-.903-.737-1.636-1.646-1.636-.91 0-1.647.733-1.647 1.636 0 .904.737 1.637 1.647 1.637zm8.161 0c.91 0 1.647-.733 1.647-1.637s-.737-1.637-1.647-1.637c-.909 0-1.646.733-1.646 1.637s.737 1.637 1.646 1.637zm-24.485.001c.91 0 1.646-.733 1.646-1.637s-.737-1.637-1.646-1.637c-.909 0-1.646.733-1.646 1.637s.737 1.637 1.646 1.637zm8.164-.001c.909 0 1.646-.733 1.646-1.637 0-.903-.737-1.636-1.646-1.636-.91 0-1.647.733-1.647 1.636 0 .904.738 1.637 1.647 1.637zm-24.484 0c.91 0 1.646-.733 1.646-1.637 0-.903-.737-1.636-1.646-1.636a1.64 1.64 0 00-1.646 1.636c0 .904.737 1.637 1.646 1.637zm8.16 0c.91 0 1.647-.733 1.647-1.637 0-.903-.737-1.636-1.647-1.636-.909 0-1.646.733-1.646 1.636 0 .904.737 1.637 1.646 1.637zm-24.483 0c.909 0 1.646-.733 1.646-1.637 0-.903-.737-1.636-1.646-1.636-.91 0-1.647.733-1.647 1.636 0 .904.737 1.637 1.647 1.637zm8.16 0c.909 0 1.646-.733 1.646-1.637 0-.903-.737-1.636-1.646-1.636-.91 0-1.647.733-1.647 1.636 0 .904.737 1.637 1.647 1.637zm57.13-8.114c.91 0 1.646-.733 1.646-1.637s-.737-1.637-1.646-1.637c-.909 0-1.646.733-1.646 1.637s.737 1.637 1.646 1.637zm8.16 0c.909 0 1.646-.733 1.646-1.637s-.737-1.637-1.646-1.637c-.91 0-1.646.733-1.646 1.637s.737 1.637 1.646 1.637zm-24.483 0c.909 0 1.646-.733 1.646-1.637s-.737-1.637-1.646-1.637c-.91 0-1.647.733-1.647 1.637s.737 1.637 1.647 1.637zm8.161 0c.91 0 1.647-.733 1.647-1.637s-.737-1.637-1.647-1.637c-.909 0-1.646.733-1.646 1.637s.737 1.637 1.646 1.637zm-24.485 0c.91 0 1.646-.733 1.646-1.637s-.737-1.637-1.646-1.637c-.909 0-1.646.733-1.646 1.637s.737 1.637 1.646 1.637zm8.164 0c.909 0 1.646-.733 1.646-1.637s-.737-1.637-1.646-1.637c-.91 0-1.647.733-1.647 1.637s.738 1.637 1.647 1.637zm-24.484 0c.91 0 1.646-.733 1.646-1.637s-.737-1.637-1.646-1.637c-.91 0-1.646.733-1.646 1.637s.737 1.637 1.646 1.637zm8.16 0c.91 0 1.647-.733 1.647-1.637s-.737-1.637-1.647-1.637c-.909 0-1.646.733-1.646 1.637s.737 1.637 1.646 1.637zm-24.483 0c.909 0 1.646-.733 1.646-1.637s-.737-1.637-1.646-1.637c-.91 0-1.647.733-1.647 1.637s.737 1.637 1.647 1.637zm-8.16 0c.909 0 1.646-.733 1.646-1.637s-.737-1.637-1.646-1.637c-.91 0-1.646.733-1.646 1.637s.736 1.637 1.646 1.637zm0-8.115a1.64 1.64 0 001.646-1.636c0-.904-.737-1.637-1.646-1.637-.91 0-1.646.733-1.646 1.637a1.64 1.64 0 001.646 1.636zm-8.162 0a1.64 1.64 0 001.646-1.636c0-.904-.737-1.637-1.646-1.637-.91 0-1.646.733-1.646 1.637a1.64 1.64 0 001.646 1.636zm8.162-8.114c.909 0 1.646-.733 1.646-1.637s-.737-1.637-1.646-1.637c-.91 0-1.646.733-1.646 1.637s.736 1.637 1.646 1.637zm-8.162.001c.91 0 1.646-.733 1.646-1.637s-.737-1.637-1.646-1.637c-.91 0-1.646.733-1.646 1.637s.737 1.637 1.646 1.637zm-8.162 0c.91 0 1.646-.733 1.646-1.637s-.737-1.637-1.646-1.637c-.909 0-1.646.733-1.646 1.637s.737 1.637 1.646 1.637zm32.644 16.228c.909 0 1.646-.733 1.646-1.637s-.737-1.637-1.646-1.637c-.91 0-1.647.733-1.647 1.637s.737 1.637 1.647 1.637zm57.13-8.114c.91 0 1.646-.733 1.646-1.637s-.737-1.637-1.646-1.637c-.909 0-1.646.733-1.646 1.637s.737 1.637 1.646 1.637zm8.16-.001a1.64 1.64 0 001.646-1.636c0-.904-.737-1.637-1.646-1.637-.91 0-1.646.733-1.646 1.637a1.64 1.64 0 001.646 1.636zm-24.483 0a1.64 1.64 0 001.646-1.636c0-.904-.737-1.637-1.646-1.637-.91 0-1.647.733-1.647 1.637a1.64 1.64 0 001.647 1.636zm8.161 0a1.64 1.64 0 001.647-1.636c0-.904-.737-1.637-1.647-1.637-.909 0-1.646.733-1.646 1.637a1.64 1.64 0 001.646 1.636zm-24.485 0a1.64 1.64 0 001.646-1.636c0-.904-.737-1.637-1.646-1.637-.909 0-1.646.733-1.646 1.637a1.64 1.64 0 001.646 1.636zm8.164.001c.909 0 1.646-.733 1.646-1.637s-.737-1.637-1.646-1.637c-.91 0-1.647.733-1.647 1.637s.738 1.637 1.647 1.637zm-24.484-.001c.91 0 1.646-.733 1.646-1.637s-.737-1.637-1.646-1.637c-.91 0-1.646.733-1.646 1.637s.737 1.637 1.646 1.637zm8.16 0a1.64 1.64 0 001.647-1.636c0-.904-.737-1.637-1.647-1.637-.909 0-1.646.733-1.646 1.637a1.64 1.64 0 001.646 1.636zm-24.483 0a1.64 1.64 0 001.646-1.636c0-.904-.737-1.637-1.646-1.637-.91 0-1.647.733-1.647 1.637a1.64 1.64 0 001.647 1.636zm8.16 0a1.64 1.64 0 001.646-1.636c0-.904-.737-1.637-1.646-1.637-.91 0-1.647.733-1.647 1.637a1.64 1.64 0 001.647 1.636zm57.13-8.114c.91 0 1.646-.733 1.646-1.637s-.737-1.637-1.646-1.637c-.909 0-1.646.733-1.646 1.637s.737 1.637 1.646 1.637zm8.16 0c.909 0 1.646-.733 1.646-1.637s-.737-1.637-1.646-1.637c-.91 0-1.646.733-1.646 1.637s.737 1.637 1.646 1.637zm-24.483.001c.909 0 1.646-.733 1.646-1.637s-.737-1.637-1.646-1.637c-.91 0-1.647.733-1.647 1.637s.737 1.636 1.647 1.636zm8.161-.001c.91 0 1.647-.733 1.647-1.637s-.737-1.637-1.647-1.637c-.909 0-1.646.733-1.646 1.637s.737 1.637 1.646 1.637zm-24.485 0c.91 0 1.646-.733 1.646-1.637s-.737-1.637-1.646-1.637c-.909 0-1.646.733-1.646 1.637s.737 1.637 1.646 1.637zm8.162 0c.909 0 1.646-.733 1.646-1.637s-.737-1.637-1.646-1.637c-.91 0-1.646.733-1.646 1.637s.737 1.637 1.646 1.637zm-24.482 0c.91 0 1.646-.733 1.646-1.637s-.737-1.637-1.646-1.637c-.91 0-1.646.733-1.646 1.637s.737 1.637 1.646 1.637zm8.16.001c.91 0 1.647-.733 1.647-1.637s-.737-1.637-1.647-1.637c-.909 0-1.646.733-1.646 1.637s.737 1.637 1.646 1.637zm-24.483 0c.909 0 1.646-.733 1.646-1.637s-.737-1.637-1.646-1.637c-.91 0-1.647.733-1.647 1.637s.737 1.637 1.647 1.637zm8.16-.001c.909 0 1.646-.733 1.646-1.637s-.737-1.637-1.646-1.637c-.91 0-1.647.733-1.647 1.637s.737 1.637 1.647 1.637zm-16.32-8.114c.909 0 1.646-.733 1.646-1.637s-.737-1.636-1.646-1.636a1.64 1.64 0 00-1.646 1.636c0 .904.736 1.637 1.646 1.637zm-8.162 0c.91 0 1.646-.733 1.646-1.637s-.737-1.636-1.646-1.636a1.64 1.64 0 00-1.646 1.636c0 .904.737 1.637 1.646 1.637zm-8.162 0c.91 0 1.646-.733 1.646-1.637s-.737-1.636-1.646-1.636A1.64 1.64 0 000 90.218c0 .904.737 1.637 1.646 1.637zm89.774 0c.91 0 1.646-.733 1.646-1.637s-.737-1.636-1.646-1.636a1.64 1.64 0 00-1.646 1.636c0 .904.737 1.637 1.646 1.637zm8.16 0c.909 0 1.646-.733 1.646-1.637s-.737-1.636-1.646-1.636a1.64 1.64 0 00-1.646 1.636c0 .904.737 1.637 1.646 1.637zm-24.483 0c.909 0 1.646-.733 1.646-1.637s-.737-1.636-1.646-1.636c-.91 0-1.647.732-1.647 1.636 0 .904.737 1.637 1.647 1.637zm8.161 0c.91 0 1.647-.733 1.647-1.637s-.737-1.636-1.647-1.636a1.64 1.64 0 00-1.646 1.636c0 .904.737 1.637 1.646 1.637zm-24.485 0c.91 0 1.646-.733 1.646-1.637s-.737-1.636-1.646-1.636a1.64 1.64 0 00-1.646 1.636c0 .904.737 1.637 1.646 1.637zm8.162 0c.909 0 1.646-.733 1.646-1.637s-.737-1.636-1.646-1.636a1.64 1.64 0 00-1.646 1.636c0 .904.737 1.637 1.646 1.637zm-24.482 0c.91 0 1.646-.733 1.646-1.637s-.737-1.636-1.646-1.636a1.64 1.64 0 00-1.646 1.636c0 .904.737 1.637 1.646 1.637zm8.16 0c.91 0 1.647-.733 1.647-1.637s-.737-1.636-1.647-1.636a1.64 1.64 0 00-1.646 1.636c0 .904.737 1.637 1.646 1.637zm-24.483 0c.909 0 1.646-.733 1.646-1.637s-.737-1.636-1.646-1.636c-.91 0-1.647.732-1.647 1.636 0 .904.737 1.637 1.647 1.637zm8.16 0c.909 0 1.646-.733 1.646-1.637s-.737-1.636-1.646-1.636c-.91 0-1.647.732-1.647 1.636 0 .904.737 1.637 1.647 1.637zM17.97 83.74a1.64 1.64 0 001.646-1.636c0-.904-.737-1.637-1.646-1.637-.91 0-1.646.733-1.646 1.637s.736 1.637 1.646 1.637zm-8.162.001c.91 0 1.646-.733 1.646-1.637s-.737-1.636-1.646-1.636a1.64 1.64 0 00-1.646 1.636c0 .904.737 1.637 1.646 1.637zm81.612-.001a1.64 1.64 0 001.646-1.636c0-.904-.737-1.637-1.646-1.637-.909 0-1.646.733-1.646 1.637s.737 1.637 1.646 1.637zm8.16.001c.909 0 1.646-.733 1.646-1.637s-.737-1.636-1.646-1.636a1.64 1.64 0 00-1.646 1.636c0 .904.737 1.637 1.646 1.637zm-24.483 0c.909 0 1.646-.733 1.646-1.637s-.737-1.636-1.646-1.636c-.91 0-1.647.732-1.647 1.636 0 .904.737 1.637 1.647 1.637zm8.161 0c.91 0 1.647-.733 1.647-1.637s-.737-1.636-1.647-1.636a1.64 1.64 0 00-1.646 1.636c0 .904.737 1.637 1.646 1.637zm-24.485-.001a1.64 1.64 0 001.646-1.636c0-.904-.737-1.637-1.646-1.637-.909 0-1.646.733-1.646 1.637s.737 1.637 1.646 1.637zm8.164 0a1.64 1.64 0 001.646-1.636c0-.904-.737-1.637-1.646-1.637-.91 0-1.647.733-1.647 1.637s.738 1.637 1.647 1.637zm-24.484 0a1.64 1.64 0 001.646-1.636c0-.904-.737-1.637-1.646-1.637-.91 0-1.646.733-1.646 1.637s.737 1.637 1.646 1.637zm8.16 0c.91 0 1.647-.732 1.647-1.636 0-.904-.737-1.637-1.647-1.637-.909 0-1.646.733-1.646 1.637s.737 1.637 1.646 1.637zm-24.483 0a1.64 1.64 0 001.646-1.636c0-.904-.737-1.637-1.646-1.637-.91 0-1.647.733-1.647 1.637s.737 1.637 1.647 1.637zm8.16.001c.909 0 1.646-.733 1.646-1.637s-.737-1.636-1.646-1.636c-.91 0-1.647.732-1.647 1.636 0 .904.737 1.637 1.647 1.637zm-16.32-8.115c.909 0 1.646-.733 1.646-1.636 0-.904-.737-1.637-1.646-1.637-.91 0-1.646.733-1.646 1.637s.736 1.636 1.646 1.636zm73.45 0a1.64 1.64 0 001.646-1.636c0-.904-.737-1.637-1.646-1.637-.909 0-1.646.733-1.646 1.637s.737 1.636 1.646 1.636zm8.16 0c.909 0 1.646-.733 1.646-1.636 0-.904-.737-1.637-1.646-1.637-.91 0-1.646.733-1.646 1.637s.737 1.636 1.646 1.636zm-24.483 0c.909 0 1.646-.733 1.646-1.637s-.737-1.637-1.646-1.637c-.91 0-1.647.733-1.647 1.637s.737 1.637 1.647 1.637zm8.161 0c.91 0 1.647-.733 1.647-1.636 0-.904-.737-1.637-1.647-1.637-.909 0-1.646.733-1.646 1.637s.737 1.636 1.646 1.636zm-24.485 0a1.64 1.64 0 001.646-1.636c0-.904-.737-1.637-1.646-1.637-.909 0-1.646.733-1.646 1.637s.737 1.636 1.646 1.636zm8.164 0c.909 0 1.646-.733 1.646-1.636 0-.904-.737-1.637-1.646-1.637-.91 0-1.647.733-1.647 1.637s.738 1.636 1.647 1.636zm-24.484 0a1.64 1.64 0 001.646-1.636c0-.904-.737-1.637-1.646-1.637-.91 0-1.646.733-1.646 1.637s.737 1.636 1.646 1.636zm8.16 0c.91 0 1.647-.733 1.647-1.636 0-.904-.737-1.637-1.647-1.637-.909 0-1.646.733-1.646 1.637s.737 1.636 1.646 1.636zm-24.483 0c.909 0 1.646-.733 1.646-1.636 0-.904-.737-1.637-1.646-1.637-.91 0-1.647.733-1.647 1.637s.737 1.636 1.647 1.636zm8.16 0c.909 0 1.646-.733 1.646-1.636 0-.904-.737-1.637-1.646-1.637-.91 0-1.647.733-1.647 1.637s.737 1.636 1.647 1.636zm57.13-8.114c.91 0 1.646-.733 1.646-1.637s-.737-1.637-1.646-1.637c-.909 0-1.646.733-1.646 1.637s.737 1.637 1.646 1.637zm8.16 0c.909 0 1.646-.733 1.646-1.637s-.737-1.637-1.646-1.637c-.91 0-1.646.733-1.646 1.637s.737 1.637 1.646 1.637zm-24.483 0c.909 0 1.646-.733 1.646-1.637s-.737-1.637-1.646-1.637c-.91 0-1.647.733-1.647 1.637s.737 1.637 1.647 1.637zm8.161-.001c.91 0 1.647-.733 1.647-1.636 0-.904-.737-1.637-1.647-1.637-.909 0-1.646.733-1.646 1.636 0 .904.737 1.637 1.646 1.637zm-24.485 0a1.64 1.64 0 001.646-1.636c0-.904-.737-1.637-1.646-1.637-.909 0-1.646.733-1.646 1.636 0 .904.737 1.637 1.646 1.637zm8.164.001c.909 0 1.646-.733 1.646-1.637s-.737-1.637-1.646-1.637c-.91 0-1.647.733-1.647 1.637s.738 1.637 1.647 1.637zm-24.484 0c.91 0 1.646-.733 1.646-1.637s-.737-1.637-1.646-1.637c-.91 0-1.646.733-1.646 1.637s.737 1.637 1.646 1.637zm8.16 0c.91 0 1.647-.733 1.647-1.637s-.737-1.637-1.647-1.637c-.909 0-1.646.733-1.646 1.637s.737 1.637 1.646 1.637zm-24.483 0c.909 0 1.646-.733 1.646-1.637s-.737-1.637-1.646-1.637c-.91 0-1.647.733-1.647 1.637s.737 1.637 1.647 1.637zm8.16-.001c.909 0 1.646-.733 1.646-1.636 0-.904-.737-1.637-1.646-1.637-.91 0-1.647.733-1.647 1.636 0 .904.737 1.637 1.647 1.637zm57.13-8.113c.91 0 1.646-.733 1.646-1.637s-.737-1.637-1.646-1.637c-.909 0-1.646.733-1.646 1.637s.737 1.637 1.646 1.637zm8.16-.001a1.64 1.64 0 001.646-1.636c0-.904-.737-1.637-1.646-1.637-.91 0-1.646.733-1.646 1.637s.737 1.636 1.646 1.636zm-24.483.001c.909 0 1.646-.733 1.646-1.637s-.737-1.637-1.646-1.637c-.91 0-1.647.733-1.647 1.637s.737 1.637 1.647 1.637zm8.161-.001c.91 0 1.647-.732 1.647-1.636 0-.904-.737-1.637-1.647-1.637-.909 0-1.646.733-1.646 1.637s.737 1.636 1.646 1.636zm-24.485 0a1.64 1.64 0 001.646-1.636c0-.904-.737-1.637-1.646-1.637-.909 0-1.646.733-1.646 1.637s.737 1.636 1.646 1.636zm8.164.001c.909 0 1.646-.733 1.646-1.637s-.737-1.637-1.646-1.637c-.91 0-1.647.733-1.647 1.637s.738 1.637 1.647 1.637zm-24.484 0c.91 0 1.646-.733 1.646-1.637s-.737-1.637-1.646-1.637c-.91 0-1.646.733-1.646 1.637s.737 1.637 1.646 1.637zm8.16 0c.91 0 1.647-.733 1.647-1.637s-.737-1.637-1.647-1.637c-.909 0-1.646.733-1.646 1.637s.737 1.637 1.646 1.637zm-16.323-.001a1.64 1.64 0 001.646-1.636c0-.904-.737-1.637-1.646-1.637-.91 0-1.647.733-1.647 1.637s.737 1.636 1.647 1.636zm57.13-8.113c.91 0 1.646-.733 1.646-1.637s-.737-1.636-1.646-1.636a1.64 1.64 0 00-1.646 1.636c0 .904.737 1.637 1.646 1.637zm8.16-.001a1.64 1.64 0 001.646-1.636c0-.904-.737-1.637-1.646-1.637-.91 0-1.646.733-1.646 1.637s.737 1.636 1.646 1.636zm-24.483 0a1.64 1.64 0 001.646-1.636c0-.904-.737-1.637-1.646-1.637-.91 0-1.647.733-1.647 1.637s.737 1.636 1.647 1.636zm8.161 0c.91 0 1.647-.732 1.647-1.636 0-.904-.737-1.637-1.647-1.637-.909 0-1.646.733-1.646 1.637s.737 1.636 1.646 1.636zm-24.485 0a1.64 1.64 0 001.646-1.636c0-.904-.737-1.637-1.646-1.637-.909 0-1.646.733-1.646 1.637s.737 1.636 1.646 1.636zm8.164 0a1.64 1.64 0 001.646-1.636c0-.904-.737-1.637-1.646-1.637-.91 0-1.647.733-1.647 1.637s.738 1.636 1.647 1.636zm-24.484 0c.91 0 1.646-.733 1.646-1.637s-.737-1.637-1.646-1.637c-.91 0-1.646.733-1.646 1.637s.737 1.637 1.646 1.637zm8.16 0c.91 0 1.647-.732 1.647-1.636 0-.904-.737-1.637-1.647-1.637-.909 0-1.646.733-1.646 1.637s.737 1.636 1.646 1.636zm40.807-8.114c.91 0 1.646-.733 1.646-1.637s-.737-1.637-1.646-1.637c-.909 0-1.646.733-1.646 1.637s.737 1.637 1.646 1.637zm8.16 0c.909 0 1.646-.733 1.646-1.637s-.737-1.637-1.646-1.637c-.91 0-1.646.733-1.646 1.637s.737 1.637 1.646 1.637zm-24.483.001c.909 0 1.646-.733 1.646-1.637s-.737-1.637-1.646-1.637c-.91 0-1.647.733-1.647 1.637s.737 1.636 1.647 1.636zm8.161-.001c.91 0 1.647-.733 1.647-1.637s-.737-1.637-1.647-1.637c-.909 0-1.646.733-1.646 1.637s.737 1.637 1.646 1.637zm-24.485 0c.91 0 1.646-.733 1.646-1.637s-.737-1.637-1.646-1.637c-.909 0-1.646.733-1.646 1.637s.737 1.637 1.646 1.637zm8.162 0c.909 0 1.646-.733 1.646-1.637s-.737-1.637-1.646-1.637c-.91 0-1.646.733-1.646 1.637s.737 1.637 1.646 1.637zm-16.322.001c.91 0 1.647-.733 1.647-1.637s-.737-1.637-1.647-1.637c-.909 0-1.646.733-1.646 1.637s.737 1.636 1.646 1.636zm40.807-8.115c.91 0 1.646-.733 1.646-1.637s-.737-1.637-1.646-1.637c-.909 0-1.646.733-1.646 1.637s.737 1.637 1.646 1.637zm8.16 0c.909 0 1.646-.733 1.646-1.637s-.737-1.637-1.646-1.637c-.91 0-1.646.733-1.646 1.637s.737 1.637 1.646 1.637zm-24.483 0c.909 0 1.646-.733 1.646-1.637s-.737-1.637-1.646-1.637c-.91 0-1.647.733-1.647 1.637s.737 1.637 1.647 1.637zm8.161 0c.91 0 1.647-.733 1.647-1.637s-.737-1.637-1.647-1.637c-.909 0-1.646.733-1.646 1.637s.737 1.637 1.646 1.637zm-24.485 0c.91 0 1.646-.733 1.646-1.637s-.737-1.637-1.646-1.637c-.909 0-1.646.733-1.646 1.637s.737 1.637 1.646 1.637zm8.162 0c.909 0 1.646-.733 1.646-1.637s-.737-1.637-1.646-1.637c-.91 0-1.646.733-1.646 1.637s.737 1.637 1.646 1.637zM91.42 26.94a1.64 1.64 0 001.646-1.636c0-.904-.737-1.637-1.646-1.637-.909 0-1.646.733-1.646 1.637s.737 1.637 1.646 1.637zm8.16.001c.909 0 1.646-.733 1.646-1.637s-.737-1.637-1.646-1.637c-.91 0-1.646.733-1.646 1.637s.737 1.637 1.646 1.637zm-24.483-.001a1.64 1.64 0 001.646-1.636c0-.904-.737-1.637-1.646-1.637-.91 0-1.647.733-1.647 1.637s.737 1.637 1.647 1.637zm8.161 0c.91 0 1.647-.732 1.647-1.636 0-.904-.737-1.637-1.647-1.637-.909 0-1.646.733-1.646 1.637s.737 1.637 1.646 1.637zm-16.321 0a1.64 1.64 0 001.646-1.636c0-.904-.737-1.637-1.646-1.637-.91 0-1.647.733-1.647 1.637s.738 1.637 1.647 1.637zm24.483-8.114a1.64 1.64 0 001.646-1.636c0-.904-.737-1.637-1.646-1.637-.909 0-1.646.733-1.646 1.637s.737 1.636 1.646 1.636zm8.16 0a1.64 1.64 0 001.646-1.636c0-.904-.737-1.637-1.646-1.637-.91 0-1.646.733-1.646 1.637s.737 1.636 1.646 1.636zm-24.483 0c.909 0 1.646-.733 1.646-1.637s-.737-1.637-1.646-1.637c-.91 0-1.647.733-1.647 1.637s.737 1.637 1.647 1.637zm8.161 0c.91 0 1.647-.732 1.647-1.636 0-.904-.737-1.637-1.647-1.637-.909 0-1.646.733-1.646 1.637s.737 1.636 1.646 1.636zm8.162-7.438c.91 0 1.646-.733 1.646-1.637s-.737-1.636-1.646-1.636a1.64 1.64 0 00-1.646 1.636c0 .904.737 1.637 1.646 1.637zm8.16.001c.909 0 1.646-.733 1.646-1.637s-.737-1.637-1.646-1.637c-.91 0-1.646.733-1.646 1.637s.737 1.637 1.646 1.637zm-8.16-8.115c.91 0 1.646-.733 1.646-1.637S92.33.001 91.42.001a1.64 1.64 0 00-1.646 1.636c0 .904.737 1.637 1.646 1.637zm8.16 0c.909 0 1.646-.733 1.646-1.637S100.489 0 99.58 0c-.91 0-1.646.733-1.646 1.637s.737 1.637 1.646 1.637zm-16.322 8.114c.91 0 1.647-.733 1.647-1.637s-.737-1.636-1.647-1.636a1.64 1.64 0 00-1.646 1.636c0 .904.737 1.637 1.646 1.637z"/></g><defs><clipPath id="clip0_218_882"><path fill="#fff" d="M0 0h191v195H0z"/></clipPath></defs></svg>