<svg width="206" height="422" fill="none" xmlns="http://www.w3.org/2000/svg"><g opacity=".8" clip-path="url(#clip0_222_883)" fill="#FFE7A4"><path d="M8.801 374.385a3.547 3.547 0 003.551-3.543 3.547 3.547 0 00-3.55-3.542 3.547 3.547 0 00-3.552 3.542 3.547 3.547 0 003.551 3.543zm17.606.001a3.547 3.547 0 003.55-3.542 3.547 3.547 0 00-3.55-3.543 3.547 3.547 0 00-3.552 3.543 3.547 3.547 0 003.552 3.542zM8.801 391.945a3.547 3.547 0 003.551-3.542 3.547 3.547 0 00-3.55-3.542 3.547 3.547 0 00-3.552 3.542 3.547 3.547 0 003.551 3.542zm0 17.559a3.546 3.546 0 003.551-3.542 3.547 3.547 0 00-3.55-3.542 3.547 3.547 0 00-3.552 3.542 3.546 3.546 0 003.551 3.542zm17.602-17.558a3.547 3.547 0 003.55-3.542 3.547 3.547 0 00-3.55-3.542 3.547 3.547 0 00-3.551 3.542 3.547 3.547 0 003.55 3.542zm17.609-17.56a3.547 3.547 0 003.551-3.542 3.547 3.547 0 00-3.551-3.543 3.547 3.547 0 00-3.551 3.543 3.547 3.547 0 003.551 3.542zm0-17.561a3.547 3.547 0 003.551-3.542 3.547 3.547 0 00-3.551-3.542 3.547 3.547 0 00-3.551 3.542 3.547 3.547 0 003.551 3.542zm17.602 0a3.547 3.547 0 003.55-3.542 3.547 3.547 0 00-3.55-3.542 3.547 3.547 0 00-3.551 3.542 3.547 3.547 0 003.55 3.542zm17.606-17.56a3.547 3.547 0 003.55-3.542 3.547 3.547 0 00-3.55-3.543 3.547 3.547 0 00-3.552 3.543 3.547 3.547 0 003.551 3.542zm-17.606.001a3.547 3.547 0 003.55-3.542 3.546 3.546 0 00-3.55-3.542 3.546 3.546 0 00-3.551 3.542 3.547 3.547 0 003.55 3.542zM8.801 356.825a3.547 3.547 0 003.551-3.542 3.547 3.547 0 00-3.55-3.542 3.547 3.547 0 00-3.552 3.542 3.547 3.547 0 003.551 3.542zm17.602-.001a3.547 3.547 0 003.55-3.542 3.547 3.547 0 00-3.55-3.542 3.547 3.547 0 00-3.551 3.542 3.547 3.547 0 003.55 3.542zm17.609-17.558a3.547 3.547 0 003.551-3.542 3.546 3.546 0 00-3.551-3.542 3.546 3.546 0 00-3.551 3.542 3.547 3.547 0 003.551 3.542zm-35.211-.001a3.547 3.547 0 003.551-3.542 3.547 3.547 0 00-3.55-3.543 3.547 3.547 0 00-3.552 3.543 3.547 3.547 0 003.551 3.542zm17.602 0a3.547 3.547 0 003.55-3.542 3.547 3.547 0 00-3.55-3.543 3.547 3.547 0 00-3.551 3.543 3.547 3.547 0 003.55 3.542zm70.422-17.559a3.547 3.547 0 003.551-3.543 3.547 3.547 0 00-3.552-3.542 3.547 3.547 0 00-3.55 3.542 3.547 3.547 0 003.55 3.543zm-17.605-.001a3.547 3.547 0 003.55-3.542 3.547 3.547 0 00-3.55-3.543 3.547 3.547 0 00-3.552 3.543 3.547 3.547 0 003.551 3.542zm-17.606 0a3.547 3.547 0 003.55-3.542 3.547 3.547 0 00-3.55-3.543 3.547 3.547 0 00-3.551 3.543 3.547 3.547 0 003.55 3.542zm-52.813 0a3.547 3.547 0 003.551-3.542 3.547 3.547 0 00-3.55-3.543 3.547 3.547 0 00-3.552 3.543 3.547 3.547 0 003.551 3.542zm17.602 0a3.547 3.547 0 003.55-3.542 3.547 3.547 0 00-3.55-3.543 3.547 3.547 0 00-3.551 3.543 3.547 3.547 0 003.55 3.542zm17.609.001a3.547 3.547 0 003.551-3.543 3.547 3.547 0 00-3.551-3.542 3.547 3.547 0 00-3.551 3.542 3.547 3.547 0 003.551 3.543zm70.414-17.561a3.547 3.547 0 003.551-3.542 3.547 3.547 0 00-3.551-3.542 3.547 3.547 0 00-3.551 3.542 3.547 3.547 0 003.551 3.542zm-17.601 0a3.547 3.547 0 003.551-3.542 3.547 3.547 0 00-3.552-3.542 3.547 3.547 0 00-3.55 3.542 3.547 3.547 0 003.55 3.542zm-17.605 0a3.547 3.547 0 003.55-3.542 3.547 3.547 0 00-3.55-3.542 3.547 3.547 0 00-3.552 3.542 3.547 3.547 0 003.551 3.542zm-52.817 0a3.547 3.547 0 003.55-3.542 3.547 3.547 0 00-3.55-3.542 3.547 3.547 0 00-3.551 3.542 3.547 3.547 0 003.55 3.542zm17.609-.001a3.547 3.547 0 003.551-3.542 3.547 3.547 0 00-3.551-3.542 3.547 3.547 0 00-3.551 3.542 3.547 3.547 0 003.551 3.542zm17.602.001a3.547 3.547 0 003.55-3.542 3.547 3.547 0 00-3.55-3.542 3.547 3.547 0 00-3.551 3.542 3.547 3.547 0 003.55 3.542zm-52.813 0a3.547 3.547 0 003.551-3.542 3.547 3.547 0 00-3.55-3.542 3.547 3.547 0 00-3.552 3.542 3.547 3.547 0 003.551 3.542zm123.23-17.561a3.547 3.547 0 003.552-3.542 3.546 3.546 0 00-3.552-3.542 3.546 3.546 0 00-3.551 3.542 3.547 3.547 0 003.551 3.542zm-17.605.001a3.547 3.547 0 003.551-3.542 3.546 3.546 0 00-3.551-3.542 3.546 3.546 0 00-3.551 3.542 3.547 3.547 0 003.551 3.542zm-17.601-.001a3.547 3.547 0 003.551-3.542 3.546 3.546 0 00-3.552-3.542 3.546 3.546 0 00-3.55 3.542 3.547 3.547 0 003.55 3.542zm-52.813 0a3.547 3.547 0 003.551-3.542 3.546 3.546 0 00-3.551-3.542 3.546 3.546 0 00-3.551 3.542 3.547 3.547 0 003.551 3.542zm17.602 0a3.547 3.547 0 003.55-3.542 3.546 3.546 0 00-3.55-3.542 3.546 3.546 0 00-3.551 3.542 3.547 3.547 0 003.55 3.542zm17.606 0a3.547 3.547 0 003.55-3.542 3.546 3.546 0 00-3.55-3.542 3.546 3.546 0 00-3.552 3.542 3.547 3.547 0 003.551 3.542zm-70.419 0a3.547 3.547 0 003.551-3.542 3.546 3.546 0 00-3.55-3.542 3.546 3.546 0 00-3.552 3.542 3.547 3.547 0 003.551 3.542zm17.602.001a3.547 3.547 0 003.55-3.542 3.546 3.546 0 00-3.55-3.542 3.546 3.546 0 00-3.551 3.542 3.547 3.547 0 003.55 3.542zm123.234-17.56a3.547 3.547 0 003.551-3.543 3.547 3.547 0 00-3.551-3.542 3.547 3.547 0 00-3.551 3.542 3.547 3.547 0 003.551 3.543zm-17.606 0a3.547 3.547 0 003.552-3.543 3.547 3.547 0 00-3.552-3.542 3.547 3.547 0 00-3.551 3.542 3.547 3.547 0 003.551 3.543zm-17.605-.002a3.546 3.546 0 003.551-3.542 3.547 3.547 0 00-3.551-3.542 3.547 3.547 0 00-3.551 3.542 3.546 3.546 0 003.551 3.542zm-52.812.002a3.547 3.547 0 003.55-3.543 3.547 3.547 0 00-3.55-3.542 3.547 3.547 0 00-3.551 3.542 3.547 3.547 0 003.55 3.543zm17.606 0a3.547 3.547 0 003.55-3.543 3.547 3.547 0 00-3.55-3.542 3.547 3.547 0 00-3.552 3.542 3.547 3.547 0 003.551 3.543zm17.605 0a3.547 3.547 0 003.551-3.543 3.547 3.547 0 00-3.552-3.542 3.547 3.547 0 00-3.55 3.542 3.547 3.547 0 003.55 3.543zm-88.024 0a3.547 3.547 0 003.551-3.543 3.547 3.547 0 00-3.55-3.542 3.547 3.547 0 00-3.552 3.542 3.547 3.547 0 003.551 3.543zm17.606 0a3.547 3.547 0 003.55-3.543 3.547 3.547 0 00-3.55-3.542 3.547 3.547 0 00-3.552 3.542 3.547 3.547 0 003.552 3.543zm17.605 0a3.547 3.547 0 003.551-3.543 3.547 3.547 0 00-3.551-3.542 3.547 3.547 0 00-3.551 3.542 3.547 3.547 0 003.551 3.543zm105.625-17.561a3.547 3.547 0 003.551-3.542 3.547 3.547 0 00-3.551-3.542 3.547 3.547 0 00-3.551 3.542 3.547 3.547 0 003.551 3.542zm17.602 0a3.547 3.547 0 003.551-3.542 3.547 3.547 0 00-3.551-3.542 3.546 3.546 0 00-3.551 3.542 3.546 3.546 0 003.551 3.542zm-35.204 0a3.547 3.547 0 003.552-3.542 3.547 3.547 0 00-3.552-3.542 3.547 3.547 0 00-3.551 3.542 3.547 3.547 0 003.551 3.542zm-17.609 0a3.547 3.547 0 003.551-3.542 3.547 3.547 0 00-3.551-3.542 3.547 3.547 0 00-3.551 3.542 3.547 3.547 0 003.551 3.542zm-52.812 0a3.547 3.547 0 003.55-3.542 3.547 3.547 0 00-3.55-3.542 3.547 3.547 0 00-3.551 3.542 3.547 3.547 0 003.55 3.542zm17.606 0a3.547 3.547 0 003.55-3.542 3.547 3.547 0 00-3.55-3.542 3.547 3.547 0 00-3.552 3.542 3.547 3.547 0 003.551 3.542zm17.605 0a3.547 3.547 0 003.551-3.542 3.547 3.547 0 00-3.552-3.542 3.547 3.547 0 00-3.55 3.542 3.547 3.547 0 003.55 3.542zm-88.024 0a3.547 3.547 0 003.551-3.542 3.547 3.547 0 00-3.55-3.542 3.547 3.547 0 00-3.552 3.542 3.547 3.547 0 003.551 3.542zm17.606 0a3.547 3.547 0 003.55-3.542 3.547 3.547 0 00-3.55-3.542 3.547 3.547 0 00-3.552 3.542 3.547 3.547 0 003.552 3.542zm17.605 0a3.547 3.547 0 003.551-3.542 3.547 3.547 0 00-3.551-3.542 3.547 3.547 0 00-3.551 3.542 3.547 3.547 0 003.551 3.542zm105.625-17.56a3.547 3.547 0 003.551-3.542 3.547 3.547 0 00-3.551-3.543 3.547 3.547 0 00-3.551 3.543 3.547 3.547 0 003.551 3.542zm-17.602.001a3.547 3.547 0 003.552-3.542 3.547 3.547 0 00-3.552-3.543 3.547 3.547 0 00-3.551 3.543 3.547 3.547 0 003.551 3.542zm52.809-.001a3.547 3.547 0 003.551-3.542 3.547 3.547 0 00-3.551-3.543 3.547 3.547 0 00-3.551 3.543 3.547 3.547 0 003.551 3.542zm-17.605 0a3.547 3.547 0 003.551-3.542 3.547 3.547 0 00-3.551-3.543 3.546 3.546 0 00-3.551 3.543 3.546 3.546 0 003.551 3.542zm-52.813 0a3.547 3.547 0 003.551-3.542 3.547 3.547 0 00-3.551-3.543 3.547 3.547 0 00-3.551 3.543 3.547 3.547 0 003.551 3.542zm-52.812 0a3.547 3.547 0 003.55-3.542 3.547 3.547 0 00-3.55-3.543 3.547 3.547 0 00-3.551 3.543 3.547 3.547 0 003.55 3.542zm17.606.001a3.547 3.547 0 003.55-3.542 3.547 3.547 0 00-3.55-3.543 3.547 3.547 0 00-3.552 3.543 3.547 3.547 0 003.551 3.542zm17.604-.001a3.546 3.546 0 003.551-3.543 3.546 3.546 0 00-3.55-3.542 3.547 3.547 0 00-3.552 3.542 3.547 3.547 0 003.551 3.543zm-88.023 0a3.547 3.547 0 003.551-3.542 3.547 3.547 0 00-3.55-3.543 3.547 3.547 0 00-3.552 3.543 3.547 3.547 0 003.551 3.542zm17.602-.001a3.547 3.547 0 003.55-3.543 3.547 3.547 0 00-3.55-3.542 3.547 3.547 0 00-3.551 3.542 3.547 3.547 0 003.55 3.543zm17.609.001a3.547 3.547 0 003.551-3.542 3.547 3.547 0 00-3.551-3.543 3.547 3.547 0 00-3.551 3.543 3.547 3.547 0 003.551 3.542zm105.625-17.56a3.546 3.546 0 003.551-3.542 3.547 3.547 0 00-3.551-3.542 3.547 3.547 0 00-3.551 3.542 3.546 3.546 0 003.551 3.542zm-17.606-.001a3.547 3.547 0 003.552-3.542 3.547 3.547 0 00-3.552-3.542 3.547 3.547 0 00-3.551 3.542 3.547 3.547 0 003.551 3.542zm-17.605 0a3.547 3.547 0 003.551-3.542 3.547 3.547 0 00-3.551-3.542 3.547 3.547 0 00-3.551 3.542 3.547 3.547 0 003.551 3.542zm88.023.001a3.545 3.545 0 003.551-3.542 3.546 3.546 0 00-3.551-3.542 3.547 3.547 0 00-3.551 3.542 3.546 3.546 0 003.551 3.542zm-17.605 0a3.546 3.546 0 003.551-3.542 3.547 3.547 0 00-3.551-3.542 3.547 3.547 0 00-3.551 3.542 3.546 3.546 0 003.551 3.542zm-17.605-.001a3.547 3.547 0 003.551-3.542 3.547 3.547 0 00-3.551-3.542 3.546 3.546 0 00-3.551 3.542 3.546 3.546 0 003.551 3.542zm-105.625 0a3.547 3.547 0 003.55-3.542 3.547 3.547 0 00-3.55-3.542 3.547 3.547 0 00-3.551 3.542 3.547 3.547 0 003.55 3.542zm17.606 0a3.547 3.547 0 003.55-3.542 3.547 3.547 0 00-3.55-3.542 3.547 3.547 0 00-3.552 3.542 3.547 3.547 0 003.551 3.542zm17.605.001a3.546 3.546 0 003.551-3.542 3.547 3.547 0 00-3.552-3.542 3.547 3.547 0 00-3.55 3.542 3.546 3.546 0 003.55 3.542zm-88.024-.001a3.547 3.547 0 003.551-3.542 3.547 3.547 0 00-3.55-3.542 3.547 3.547 0 00-3.552 3.542 3.547 3.547 0 003.551 3.542zm17.602 0a3.547 3.547 0 003.55-3.542 3.547 3.547 0 00-3.55-3.542 3.547 3.547 0 00-3.551 3.542 3.547 3.547 0 003.55 3.542zm17.609.001a3.546 3.546 0 003.551-3.542 3.547 3.547 0 00-3.551-3.542 3.547 3.547 0 00-3.551 3.542 3.546 3.546 0 003.551 3.542zm105.625-17.56a3.547 3.547 0 003.551-3.542 3.546 3.546 0 00-3.551-3.542 3.546 3.546 0 00-3.551 3.542 3.547 3.547 0 003.551 3.542zm-17.606 0a3.547 3.547 0 003.552-3.542 3.546 3.546 0 00-3.552-3.542 3.546 3.546 0 00-3.551 3.542 3.547 3.547 0 003.551 3.542zm-17.605 0a3.547 3.547 0 003.551-3.542 3.546 3.546 0 00-3.551-3.542 3.546 3.546 0 00-3.551 3.542 3.547 3.547 0 003.551 3.542zm88.024 0a3.547 3.547 0 003.551-3.542 3.546 3.546 0 00-3.551-3.542 3.546 3.546 0 00-3.552 3.542 3.547 3.547 0 003.552 3.542zm-17.61-.001a3.547 3.547 0 003.551-3.542 3.547 3.547 0 00-3.551-3.543 3.547 3.547 0 00-3.551 3.543 3.547 3.547 0 003.551 3.542zm-17.601.001a3.547 3.547 0 003.551-3.542 3.546 3.546 0 00-3.551-3.542 3.545 3.545 0 00-3.551 3.542 3.546 3.546 0 003.551 3.542zm-105.625 0a3.547 3.547 0 003.55-3.542 3.546 3.546 0 00-3.55-3.542 3.546 3.546 0 00-3.551 3.542 3.547 3.547 0 003.55 3.542zm17.606 0a3.547 3.547 0 003.55-3.542 3.546 3.546 0 00-3.55-3.542 3.546 3.546 0 00-3.552 3.542 3.547 3.547 0 003.551 3.542zm17.605 0a3.547 3.547 0 003.551-3.542 3.546 3.546 0 00-3.552-3.542 3.546 3.546 0 00-3.55 3.542 3.547 3.547 0 003.55 3.542zm-88.024 0a3.547 3.547 0 003.551-3.542 3.546 3.546 0 00-3.55-3.542 3.546 3.546 0 00-3.552 3.542 3.547 3.547 0 003.551 3.542zm17.602 0a3.547 3.547 0 003.55-3.542 3.546 3.546 0 00-3.55-3.542 3.546 3.546 0 00-3.551 3.542 3.547 3.547 0 003.55 3.542zm17.609-.001a3.547 3.547 0 003.551-3.542 3.547 3.547 0 00-3.551-3.543 3.547 3.547 0 00-3.551 3.543 3.547 3.547 0 003.551 3.542zm105.625-17.56a3.546 3.546 0 003.551-3.542 3.547 3.547 0 00-3.551-3.542 3.547 3.547 0 00-3.551 3.542 3.546 3.546 0 003.551 3.542zm-17.606 0a3.546 3.546 0 003.552-3.542 3.547 3.547 0 00-3.552-3.542 3.547 3.547 0 00-3.551 3.542 3.546 3.546 0 003.551 3.542zm-17.605.002a3.547 3.547 0 003.551-3.543 3.547 3.547 0 00-3.551-3.542 3.547 3.547 0 00-3.551 3.542 3.547 3.547 0 003.551 3.543zm70.414-.002a3.546 3.546 0 003.551-3.542 3.547 3.547 0 00-3.551-3.542 3.547 3.547 0 00-3.551 3.542 3.546 3.546 0 003.551 3.542zm-17.601 0a3.546 3.546 0 003.551-3.542 3.547 3.547 0 00-3.551-3.542 3.546 3.546 0 00-3.551 3.542 3.545 3.545 0 003.551 3.542zm-105.625.002a3.547 3.547 0 003.55-3.543 3.547 3.547 0 00-3.55-3.542 3.547 3.547 0 00-3.551 3.542 3.547 3.547 0 003.55 3.543zm17.606-.002a3.546 3.546 0 003.55-3.542 3.547 3.547 0 00-3.55-3.542 3.547 3.547 0 00-3.552 3.542 3.546 3.546 0 003.551 3.542zm17.605.002a3.547 3.547 0 003.551-3.543 3.547 3.547 0 00-3.552-3.542 3.547 3.547 0 00-3.55 3.542 3.547 3.547 0 003.55 3.543zm-88.024 0a3.547 3.547 0 003.551-3.543 3.547 3.547 0 00-3.55-3.542 3.547 3.547 0 00-3.552 3.542 3.547 3.547 0 003.551 3.543zm17.602-.002a3.546 3.546 0 003.55-3.542 3.547 3.547 0 00-3.55-3.542 3.547 3.547 0 00-3.551 3.542 3.546 3.546 0 003.55 3.542zm17.609 0a3.546 3.546 0 003.551-3.542 3.547 3.547 0 00-3.551-3.542 3.547 3.547 0 00-3.551 3.542 3.546 3.546 0 003.551 3.542zm105.625-17.56a3.547 3.547 0 003.551-3.542 3.547 3.547 0 00-3.551-3.542 3.547 3.547 0 00-3.551 3.542 3.547 3.547 0 003.551 3.542zm-17.606 0a3.547 3.547 0 003.552-3.542 3.547 3.547 0 00-3.552-3.542 3.547 3.547 0 00-3.551 3.542 3.547 3.547 0 003.551 3.542zm-17.605 0a3.547 3.547 0 003.551-3.542 3.547 3.547 0 00-3.551-3.542 3.547 3.547 0 00-3.551 3.542 3.547 3.547 0 003.551 3.542zm52.813 0a3.547 3.547 0 003.551-3.542 3.547 3.547 0 00-3.551-3.542 3.546 3.546 0 00-3.551 3.542 3.546 3.546 0 003.551 3.542zm-105.625 0a3.547 3.547 0 003.55-3.542 3.547 3.547 0 00-3.55-3.542 3.547 3.547 0 00-3.551 3.542 3.547 3.547 0 003.55 3.542zm17.606 0a3.547 3.547 0 003.55-3.542 3.547 3.547 0 00-3.55-3.542 3.547 3.547 0 00-3.552 3.542 3.547 3.547 0 003.551 3.542zm17.605 0a3.547 3.547 0 003.551-3.542 3.547 3.547 0 00-3.552-3.542 3.547 3.547 0 00-3.55 3.542 3.547 3.547 0 003.55 3.542zm-88.024 0a3.547 3.547 0 003.551-3.542 3.547 3.547 0 00-3.55-3.542 3.547 3.547 0 00-3.552 3.542 3.547 3.547 0 003.551 3.542zm17.602 0a3.547 3.547 0 003.55-3.542 3.547 3.547 0 00-3.55-3.542 3.547 3.547 0 00-3.551 3.542 3.547 3.547 0 003.55 3.542zm17.609 0a3.547 3.547 0 003.551-3.542 3.547 3.547 0 00-3.551-3.542 3.547 3.547 0 00-3.551 3.542 3.547 3.547 0 003.551 3.542zm105.625-17.56a3.547 3.547 0 003.551-3.543 3.547 3.547 0 00-3.551-3.542 3.547 3.547 0 00-3.551 3.542 3.547 3.547 0 003.551 3.543zm-17.606 0a3.547 3.547 0 003.552-3.543 3.547 3.547 0 00-3.552-3.542 3.547 3.547 0 00-3.551 3.542 3.547 3.547 0 003.551 3.543zm-17.605-.002a3.546 3.546 0 003.551-3.542 3.547 3.547 0 00-3.551-3.542 3.547 3.547 0 00-3.551 3.542 3.546 3.546 0 003.551 3.542zm-52.812.002a3.547 3.547 0 003.55-3.543 3.547 3.547 0 00-3.55-3.542 3.547 3.547 0 00-3.551 3.542 3.547 3.547 0 003.55 3.543zm17.606 0a3.547 3.547 0 003.55-3.543 3.547 3.547 0 00-3.55-3.542 3.547 3.547 0 00-3.552 3.542 3.547 3.547 0 003.551 3.543zm17.605 0a3.547 3.547 0 003.551-3.543 3.547 3.547 0 00-3.552-3.542 3.547 3.547 0 00-3.55 3.542 3.547 3.547 0 003.55 3.543zm-88.024 0a3.547 3.547 0 003.551-3.543 3.547 3.547 0 00-3.55-3.542 3.547 3.547 0 00-3.552 3.542 3.547 3.547 0 003.551 3.543zm17.606 0a3.547 3.547 0 003.55-3.543 3.547 3.547 0 00-3.55-3.542 3.547 3.547 0 00-3.552 3.542 3.547 3.547 0 003.552 3.543zm17.605 0a3.547 3.547 0 003.551-3.543 3.547 3.547 0 00-3.551-3.542 3.547 3.547 0 00-3.551 3.542 3.547 3.547 0 003.551 3.543zm88.023-17.56a3.547 3.547 0 003.552-3.542 3.547 3.547 0 00-3.552-3.542 3.547 3.547 0 00-3.551 3.542 3.547 3.547 0 003.551 3.542zm-17.609-.001a3.547 3.547 0 003.551-3.542 3.547 3.547 0 00-3.551-3.542 3.547 3.547 0 00-3.551 3.542 3.547 3.547 0 003.551 3.542zm-52.812 0a3.547 3.547 0 003.55-3.542 3.547 3.547 0 00-3.55-3.542A3.547 3.547 0 0058.063 125a3.547 3.547 0 003.55 3.542zm17.606.001a3.547 3.547 0 003.55-3.542 3.547 3.547 0 00-3.55-3.542 3.547 3.547 0 00-3.552 3.542 3.547 3.547 0 003.551 3.542zm17.605 0a3.547 3.547 0 003.551-3.542 3.547 3.547 0 00-3.552-3.542 3.547 3.547 0 00-3.55 3.542 3.547 3.547 0 003.55 3.542zm-88.024-.001A3.547 3.547 0 0012.352 125a3.547 3.547 0 00-3.55-3.542A3.547 3.547 0 005.25 125a3.547 3.547 0 003.551 3.542zm17.602 0a3.547 3.547 0 003.55-3.542 3.547 3.547 0 00-3.55-3.542A3.547 3.547 0 0022.852 125a3.547 3.547 0 003.55 3.542zm17.609.001a3.547 3.547 0 003.551-3.542 3.547 3.547 0 00-3.551-3.542 3.547 3.547 0 00-3.551 3.542 3.547 3.547 0 003.551 3.542zm70.414-17.56a3.547 3.547 0 003.551-3.542 3.547 3.547 0 00-3.551-3.543 3.547 3.547 0 00-3.551 3.543 3.547 3.547 0 003.551 3.542zm-52.812 0a3.547 3.547 0 003.55-3.542 3.547 3.547 0 00-3.55-3.543 3.547 3.547 0 00-3.551 3.543 3.547 3.547 0 003.55 3.542zm17.606.001a3.547 3.547 0 003.55-3.542 3.546 3.546 0 00-3.55-3.542 3.546 3.546 0 00-3.552 3.542 3.547 3.547 0 003.551 3.542zm17.605-.001a3.547 3.547 0 003.551-3.542 3.547 3.547 0 00-3.552-3.543 3.547 3.547 0 00-3.55 3.543 3.547 3.547 0 003.55 3.542zm-88.024 0a3.547 3.547 0 003.551-3.542 3.547 3.547 0 00-3.55-3.543 3.547 3.547 0 00-3.552 3.543 3.547 3.547 0 003.551 3.542zm17.602-.001a3.547 3.547 0 003.55-3.542 3.547 3.547 0 00-3.55-3.543 3.547 3.547 0 00-3.551 3.543 3.547 3.547 0 003.55 3.542zm17.609.001a3.547 3.547 0 003.551-3.542 3.547 3.547 0 00-3.551-3.543 3.547 3.547 0 00-3.551 3.543 3.547 3.547 0 003.551 3.542zm17.602-17.561a3.547 3.547 0 003.55-3.542 3.547 3.547 0 00-3.55-3.542 3.547 3.547 0 00-3.551 3.542 3.547 3.547 0 003.55 3.542zm17.606 0a3.547 3.547 0 003.55-3.542 3.547 3.547 0 00-3.55-3.542 3.547 3.547 0 00-3.552 3.542 3.547 3.547 0 003.551 3.542zm17.605.001a3.547 3.547 0 003.551-3.542 3.547 3.547 0 00-3.552-3.542 3.547 3.547 0 00-3.55 3.542 3.547 3.547 0 003.55 3.542zm-88.024-.001a3.547 3.547 0 003.551-3.542 3.547 3.547 0 00-3.55-3.542A3.547 3.547 0 005.25 89.88a3.547 3.547 0 003.551 3.542zm17.602 0a3.547 3.547 0 003.55-3.542 3.547 3.547 0 00-3.55-3.542 3.547 3.547 0 00-3.551 3.542 3.547 3.547 0 003.55 3.542zm17.609.001a3.547 3.547 0 003.551-3.542 3.547 3.547 0 00-3.551-3.542 3.547 3.547 0 00-3.551 3.542 3.547 3.547 0 003.551 3.542zm17.602-17.56a3.547 3.547 0 003.55-3.543 3.547 3.547 0 00-3.55-3.542 3.547 3.547 0 00-3.551 3.542 3.547 3.547 0 003.55 3.543zm17.606 0a3.547 3.547 0 003.55-3.543 3.547 3.547 0 00-3.55-3.542 3.547 3.547 0 00-3.552 3.542 3.547 3.547 0 003.551 3.543zm-70.419 0a3.547 3.547 0 003.551-3.543 3.547 3.547 0 00-3.55-3.542A3.547 3.547 0 005.25 72.32a3.547 3.547 0 003.551 3.543zm17.602 0a3.547 3.547 0 003.55-3.543 3.547 3.547 0 00-3.55-3.542 3.547 3.547 0 00-3.551 3.542 3.547 3.547 0 003.55 3.543zm17.609 0a3.547 3.547 0 003.551-3.543 3.547 3.547 0 00-3.551-3.542 3.547 3.547 0 00-3.551 3.542 3.547 3.547 0 003.551 3.543zm17.602-17.56a3.547 3.547 0 003.55-3.542 3.547 3.547 0 00-3.55-3.542 3.547 3.547 0 00-3.551 3.542 3.547 3.547 0 003.55 3.542zm-52.813 0a3.547 3.547 0 003.551-3.542 3.547 3.547 0 00-3.55-3.542A3.547 3.547 0 005.25 54.76a3.547 3.547 0 003.551 3.542zm17.602-.001a3.547 3.547 0 003.55-3.542 3.547 3.547 0 00-3.55-3.542 3.547 3.547 0 00-3.551 3.542 3.547 3.547 0 003.55 3.542zm17.609 0a3.547 3.547 0 003.551-3.542 3.547 3.547 0 00-3.551-3.542 3.547 3.547 0 00-3.551 3.542 3.547 3.547 0 003.551 3.542zM8.801 40.742a3.547 3.547 0 003.551-3.542 3.547 3.547 0 00-3.55-3.542A3.547 3.547 0 005.25 37.2a3.547 3.547 0 003.551 3.542zm17.602 0a3.547 3.547 0 003.55-3.542 3.547 3.547 0 00-3.55-3.542 3.547 3.547 0 00-3.551 3.542 3.547 3.547 0 003.55 3.542zM8.801 24.646a3.547 3.547 0 003.551-3.542 3.547 3.547 0 00-3.55-3.542 3.547 3.547 0 00-3.552 3.542 3.547 3.547 0 003.551 3.542zm0-17.562a3.547 3.547 0 003.551-3.542A3.547 3.547 0 008.802 0 3.547 3.547 0 005.25 3.542a3.547 3.547 0 003.551 3.542zm17.602 17.561a3.547 3.547 0 003.55-3.542 3.547 3.547 0 00-3.55-3.542 3.547 3.547 0 00-3.551 3.542 3.547 3.547 0 003.55 3.542zm17.609 16.097a3.547 3.547 0 003.551-3.543 3.547 3.547 0 00-3.551-3.542 3.547 3.547 0 00-3.551 3.542 3.547 3.547 0 003.551 3.543z"/></g><defs><clipPath id="clip0_222_883"><path fill="#fff" transform="translate(-206)" d="M0 0h412v422H0z"/></clipPath></defs></svg>