<svg width="221" height="219" fill="none" xmlns="http://www.w3.org/2000/svg"><path d="M1.216 135.406v-.032L1 128.553c.009-51.965 42.256-94.167 94.593-94.698v25.35c-18.318.253-35.507 7.442-48.49 20.308h0a70.55 70.55 0 00-6.962 8.024l-1.458 1.96 2.414-.376a48.089 48.089 0 017.415-.575c26.13 0 47.297 20.989 47.297 46.86s-21.167 46.859-47.297 46.859c-26.13 0-47.296-20.988-47.296-46.859zm124.191 0v-.016l-.001-.016-.215-6.821c.009-51.965 42.256-94.167 94.593-94.698v25.35c-18.317.253-35.507 7.442-48.49 20.308a70.485 70.485 0 00-6.962 8.024l-1.458 1.96 2.414-.376a48.09 48.09 0 017.415-.575c26.13 0 47.297 20.989 47.297 46.86s-21.167 46.859-47.297 46.859c-26.129 0-47.296-20.988-47.296-46.859z" stroke="#FFE7A4" stroke-opacity=".8" stroke-width="2" opacity=".9"/></svg>