<svg width="30" height="30" fill="none" xmlns="http://www.w3.org/2000/svg"><path d="M11.756 20.381h1.331l8.55-8.55-1.331-1.331-7.875 7.893-3.6-3.6L7.5 16.126l4.256 4.256z" fill="#4AAB3C"/><path fill-rule="evenodd" clip-rule="evenodd" d="M16.125 1.875c3 .187 5.812 1.687 7.875 3.75 2.437 2.625 3.75 5.813 3.75 9.563 0 3-1.125 5.812-3 8.25-1.875 2.25-4.5 3.937-7.5 4.5-3 .562-6 .187-8.625-1.313s-4.688-3.75-5.813-6.563c-1.125-2.812-1.312-6-.375-8.812.938-3 2.625-5.438 5.25-7.125 2.438-1.688 5.438-2.438 8.438-2.25zm.937 24.188c2.438-.563 4.688-1.875 6.375-3.938 1.5-2.063 2.438-4.5 2.25-7.125 0-3-1.125-6-3.187-8.063-1.875-1.875-4.125-3-6.75-3.187-2.438-.188-5.063.375-7.125 1.875-2.063 1.5-3.563 3.562-4.313 6.188-.75 2.437-.75 5.062.375 7.5C5.812 21.75 7.5 23.625 9.75 24.938a10.048 10.048 0 007.312 1.125z" fill="#89D185"/></svg>