<svg width="42" height="42" fill="none" xmlns="http://www.w3.org/2000/svg"><circle cx="21" cy="21" r="21" fill="url(#paint0_linear_2_33074)"/><g clip-path="url(#clip0_2_33074)"><path fill-rule="evenodd" clip-rule="evenodd" d="M35.463 26.906a14.028 14.028 0 00-2.597-3.586 16.628 16.628 0 00-1.098-1.124l-.463-.407a34.84 34.84 0 003.658-6.264v-.179a2.252 2.252 0 00-.256-2.008 2.43 2.43 0 00-.905-.697 2.48 2.48 0 00-1.131-.212H30a2.81 2.81 0 00-1.61.43 2.676 2.676 0 00-1.061 1.303 20.711 20.711 0 01-2.207 3.91v-3.156a2.686 2.686 0 00-.476-1.662 2.252 2.252 0 00-.837-.635 2.295 2.295 0 00-1.04-.19h-4.305a2.233 2.233 0 00-1.543.566c-.42.376-.676.897-.713 1.454v.096c.015.463.177.91.463 1.28.07.104.148.204.232.298l.11.191c.194.269.297.591.292.92v1.758a23.776 23.776 0 01-2.134-4.519 3.456 3.456 0 00-.866-1.363 2.678 2.678 0 00-1.816-.633H9.697a2.581 2.581 0 00-1.013.162 2.543 2.543 0 00-.865.543c-.386.415-.6.957-.597 1.518v.323a23.033 23.033 0 004.633 9.564 12.244 12.244 0 004.155 3.962 12.533 12.533 0 005.54 1.668h.11a4.6 4.6 0 002.438-.526 2.32 2.32 0 00.768-.883c.175-.353.255-.745.232-1.137v-1.363c.244.192.55.454.915.801.366.347.792.801 1.085 1.136l.159.167c.244.263.475.514.683.717.284.303.618.558.987.754.433.22.914.336 1.403.334h2.804a2.67 2.67 0 001.095-.162c.35-.13.666-.331.93-.59.257-.318.427-.694.495-1.093.069-.4.032-.81-.105-1.191v-.108l-.086-.167zm-6.975.167c-.317-.335-.695-.74-1.22-1.195-1.645-1.554-2.438-1.83-2.962-1.83a1.019 1.019 0 00-.83.288.851.851 0 00-.17.418 2.204 2.204 0 000 .526v2.391c0 .31 0 .43-.195.526a2.855 2.855 0 01-1.476.227 10.688 10.688 0 01-4.7-1.422 10.443 10.443 0 01-3.53-3.36 21.34 21.34 0 01-4.354-8.965.41.41 0 01.097-.311s.195-.144.55-.144h2.78a.828.828 0 01.536.168c.201.205.348.455.427.729a24.555 24.555 0 002.439 5.164c.356.58.764 1.128 1.219 1.638.168.18.356.34.56.478.169.12.367.19.574.203a.782.782 0 00.354-.071.57.57 0 00.305-.275c.137-.313.191-.654.158-.993v-4.076a3.269 3.269 0 00-.658-1.913l-.183-.239-.073-.215a.579.579 0 01-.11-.263.392.392 0 01.134-.24.432.432 0 01.268-.095h4.341c.256 0 .342 0 .378.12a.964.964 0 01.11.574v5.415c0 .646.305 1.076.744 1.076s.878-.299 1.512-.92a22.359 22.359 0 003.463-5.643.84.84 0 01.354-.442.88.88 0 01.549-.144h2.804c.378 0 .5.096.549.156a.551.551 0 010 .442 33.852 33.852 0 01-3.658 6.216 1.48 1.48 0 00-.317.717c-.003.306.115.602.329.825.247.32.524.616.829.885.368.337.718.692 1.049 1.064a12.084 12.084 0 012.268 3.084c.097.31 0 .478 0 .562a.823.823 0 01-.634.18h-2.744a1.153 1.153 0 01-.549-.12 2.975 2.975 0 01-.548-.443 11.77 11.77 0 01-.598-.633l-.17-.12z" fill="#fff"/></g><defs><linearGradient id="paint0_linear_2_33074" x1="42" y1="4.5" x2="-8.159" y2="5.773" gradientUnits="userSpaceOnUse"><stop stop-color="#52CB3F"/><stop offset="1" stop-color="#4FC63C" stop-opacity=".7"/></linearGradient><clipPath id="clip0_2_33074"><path fill="#fff" transform="translate(7.222 12.429)" d="M0 0h28.461v17.788H0z"/></clipPath></defs></svg>